<svg xmlns="http://www.w3.org/2000/svg" viewbox="0 0 389 139">
  <path fill="#000" fill-rule="evenodd" d="M44.262,59 L38.592,59 L17.964,26.978 L17.748,26.978 C17.91,29.516 18.18,33.512 18.18,37.454 L18.18,59 L13.698,59 L13.698,20.444 L19.314,20.444 L39.888,52.358 L40.104,52.358 C39.996,50.63 39.726,45.716 39.726,42.206 L39.726,20.444 L44.262,20.444 L44.262,59 Z M79.174,44.474 C79.174,54.086 73.936,59.54 65.674,59.54 C58.006,59.54 52.39,54.086 52.39,44.474 C52.39,34.916 57.52,29.516 65.836,29.516 C73.666,29.516 79.174,34.916 79.174,44.474 Z M57.304,44.474 C57.304,51.332 59.896,55.598 65.782,55.598 C71.614,55.598 74.26,51.332 74.26,44.474 C74.26,37.616 71.614,33.512 65.728,33.512 C59.842,33.512 57.304,37.616 57.304,44.474 Z M118.352,29.516 C124.886,29.516 128.126,32.702 128.126,40.154 L128.126,59 L123.428,59 L123.428,40.37 C123.428,35.834 121.538,33.512 117.542,33.512 C111.926,33.512 109.712,36.86 109.712,43.016 L109.712,59 L105.014,59 L105.014,40.37 C105.014,35.834 103.124,33.512 99.074,33.512 C93.242,33.512 91.352,37.238 91.352,43.988 L91.352,59 L86.6,59 L86.6,30.056 L90.434,30.056 L91.136,33.998 L91.406,33.998 C93.188,30.974 96.482,29.516 99.938,29.516 C104.366,29.516 107.39,31.082 108.794,34.376 L109.064,34.376 C111.008,31.082 114.572,29.516 118.352,29.516 Z M139.44,19.202 C140.898,19.202 142.194,20.12 142.194,22.226 C142.194,24.278 140.898,25.25 139.44,25.25 C137.874,25.25 136.632,24.278 136.632,22.226 C136.632,20.12 137.874,19.202 139.44,19.202 Z M141.762,30.056 L141.762,59 L137.01,59 L137.01,30.056 L141.762,30.056 Z M164.794,29.516 C171.706,29.516 175.27,32.702 175.27,40.154 L175.27,59 L170.572,59 L170.572,40.478 C170.572,35.834 168.52,33.512 164.092,33.512 C157.666,33.512 155.614,37.238 155.614,43.988 L155.614,59 L150.862,59 L150.862,30.056 L154.696,30.056 L155.398,33.998 L155.668,33.998 C157.558,30.974 161.122,29.516 164.794,29.516 Z M195.116,29.57 C202.136,29.57 205.484,32.54 205.484,39.29 L205.484,59 L202.028,59 L201.11,54.896 L200.894,54.896 C198.356,58.082 196.034,59.54 191.174,59.54 C185.936,59.54 182.048,56.84 182.048,50.954 C182.048,45.176 186.476,41.99 195.926,41.72 L200.84,41.558 L200.84,39.83 C200.84,35.024 198.626,33.404 194.846,33.404 C191.822,33.404 189.068,34.484 186.692,35.618 L185.234,32.054 C187.772,30.704 191.336,29.57 195.116,29.57 Z M200.786,44.852 L196.52,45.014 C189.284,45.284 186.962,47.336 186.962,51.008 C186.962,54.248 189.122,55.706 192.254,55.706 C197.114,55.706 200.786,53.06 200.786,47.444 L200.786,44.852 Z M222.63,55.652 C223.71,55.652 225.168,55.274 225.816,54.95 L227.112,58.352 C226.086,59 224.034,59.54 221.82,59.54 C217.284,59.54 213.342,57.596 213.342,50.576 L213.342,25.196 L218.094,23.414 L218.094,30.056 L226.464,30.056 L226.464,33.728 L218.094,33.728 L218.094,50.468 C218.094,53.978 219.984,55.652 222.63,55.652 Z M234.808,19.202 C236.266,19.202 237.562,20.12 237.562,22.226 C237.562,24.278 236.266,25.25 234.808,25.25 C233.242,25.25 232,24.278 232,22.226 C232,20.12 233.242,19.202 234.808,19.202 Z M237.13,30.056 L237.13,59 L232.378,59 L232.378,30.056 L237.13,30.056 Z M260.162,29.516 C267.074,29.516 270.638,32.702 270.638,40.154 L270.638,59 L265.94,59 L265.94,40.478 C265.94,35.834 263.888,33.512 259.46,33.512 C253.034,33.512 250.982,37.238 250.982,43.988 L250.982,59 L246.23,59 L246.23,30.056 L250.064,30.056 L250.766,33.998 L251.036,33.998 C252.926,30.974 256.49,29.516 260.162,29.516 Z M287.73,71.96 C280.98,71.96 276.012,69.638 276.012,63.914 C276.012,60.188 278.118,57.812 282.33,56.786 C280.656,55.976 279.792,54.572 279.792,52.736 C279.792,50.738 280.98,49.064 283.302,47.66 C280.008,46.31 278.28,42.854 278.28,39.506 C278.28,32.756 282.492,29.516 289.08,29.516 C290.592,29.516 291.888,29.678 293.022,30.056 L303.012,30.056 L301.608,33.728 L297.828,33.728 C298.962,35.24 299.556,37.13 299.556,39.344 C299.556,45.338 295.182,48.632 288.918,48.632 C287.946,48.632 287.19,48.578 286.65,48.47 C284.868,49.442 284.004,50.63 284.004,51.98 C284.004,53.438 285.462,54.194 288.27,54.194 L293.184,54.194 C299.016,54.194 302.634,56.84 302.634,62.024 C302.634,68.666 297.666,71.96 287.73,71.96 Z M288.972,45.338 C292.914,45.338 294.858,43.286 294.858,39.29 C294.858,35.078 292.86,32.972 288.918,32.972 C284.976,32.972 282.978,35.132 282.978,39.344 C282.978,43.34 284.976,45.338 288.972,45.338 Z M287.676,68.342 C294.642,68.342 298.098,66.398 298.098,62.456 C298.098,60.89 297.666,59.864 296.802,59.324 C295.884,58.784 294.156,58.514 291.564,58.514 L286.596,58.514 C282.546,58.514 280.548,60.242 280.548,63.752 C280.548,66.776 282.924,68.342 287.676,68.342 Z M30.222,84.17 C21.96,84.17 16.884,90.056 16.884,99.722 C16.884,109.28 21.312,115.274 30.168,115.274 C33.516,115.274 37.62,114.518 40.104,113.33 L41.508,117.056 C37.188,119.054 34.326,119.54 29.466,119.54 C17.64,119.54 11.754,111.818 11.754,99.668 C11.754,88.004 18.342,79.904 30.276,79.904 C34.218,79.904 37.674,80.552 40.59,82.01 L38.97,86.276 C36.594,85.196 33.678,84.17 30.222,84.17 Z M72.262,104.474 C72.262,114.086 67.024,119.54 58.762,119.54 C51.094,119.54 45.478,114.086 45.478,104.474 C45.478,94.916 50.608,89.516 58.924,89.516 C66.754,89.516 72.262,94.916 72.262,104.474 Z M50.392,104.474 C50.392,111.332 52.984,115.598 58.87,115.598 C64.702,115.598 67.348,111.332 67.348,104.474 C67.348,97.616 64.702,93.512 58.816,93.512 C52.93,93.512 50.392,97.616 50.392,104.474 Z M111.44,89.516 C117.974,89.516 121.214,92.702 121.214,100.154 L121.214,119 L116.516,119 L116.516,100.37 C116.516,95.834 114.626,93.512 110.63,93.512 C105.014,93.512 102.8,96.86 102.8,103.016 L102.8,119 L98.102,119 L98.102,100.37 C98.102,95.834 96.212,93.512 92.162,93.512 C86.33,93.512 84.44,97.238 84.44,103.988 L84.44,119 L79.688,119 L79.688,90.056 L83.522,90.056 L84.224,93.998 L84.494,93.998 C86.276,90.974 89.57,89.516 93.026,89.516 C97.454,89.516 100.478,91.082 101.882,94.376 L102.152,94.376 C104.096,91.082 107.66,89.516 111.44,89.516 Z M161.85,89.516 C168.384,89.516 171.624,92.702 171.624,100.154 L171.624,119 L166.926,119 L166.926,100.37 C166.926,95.834 165.036,93.512 161.04,93.512 C155.424,93.512 153.21,96.86 153.21,103.016 L153.21,119 L148.512,119 L148.512,100.37 C148.512,95.834 146.622,93.512 142.572,93.512 C136.74,93.512 134.85,97.238 134.85,103.988 L134.85,119 L130.098,119 L130.098,90.056 L133.932,90.056 L134.634,93.998 L134.904,93.998 C136.686,90.974 139.98,89.516 143.436,89.516 C147.864,89.516 150.888,91.082 152.292,94.376 L152.562,94.376 C154.506,91.082 158.07,89.516 161.85,89.516 Z M182.938,79.202 C184.396,79.202 185.692,80.12 185.692,82.226 C185.692,84.278 184.396,85.25 182.938,85.25 C181.372,85.25 180.13,84.278 180.13,82.226 C180.13,80.12 181.372,79.202 182.938,79.202 Z M185.26,90.056 L185.26,119 L180.508,119 L180.508,90.056 L185.26,90.056 Z M202.622,115.652 C203.702,115.652 205.16,115.274 205.808,114.95 L207.104,118.352 C206.078,119 204.026,119.54 201.812,119.54 C197.276,119.54 193.334,117.596 193.334,110.576 L193.334,85.196 L198.086,83.414 L198.086,90.056 L206.456,90.056 L206.456,93.728 L198.086,93.728 L198.086,110.468 C198.086,113.978 199.976,115.652 202.622,115.652 Z M220.632,115.652 C221.712,115.652 223.17,115.274 223.818,114.95 L225.114,118.352 C224.088,119 222.036,119.54 219.822,119.54 C215.286,119.54 211.344,117.596 211.344,110.576 L211.344,85.196 L216.096,83.414 L216.096,90.056 L224.466,90.056 L224.466,93.728 L216.096,93.728 L216.096,110.468 C216.096,113.978 217.986,115.652 220.632,115.652 Z M241.558,89.516 C248.956,89.516 253.492,94.7 253.492,102.584 L253.492,105.446 L233.674,105.446 C233.836,111.98 237.13,115.49 242.908,115.49 C245.716,115.49 248.578,114.95 250.846,114.086 L252.196,117.65 C249.226,118.946 246.634,119.54 242.692,119.54 C234.43,119.54 228.76,114.41 228.76,104.744 C228.76,95.24 233.89,89.516 241.558,89.516 Z M241.504,93.404 C236.968,93.404 234.268,96.482 233.782,101.666 L248.524,101.666 C248.47,96.752 246.31,93.404 241.504,93.404 Z M271.934,89.516 C279.332,89.516 283.868,94.7 283.868,102.584 L283.868,105.446 L264.05,105.446 C264.212,111.98 267.506,115.49 273.284,115.49 C276.092,115.49 278.954,114.95 281.222,114.086 L282.572,117.65 C279.602,118.946 277.01,119.54 273.068,119.54 C264.806,119.54 259.136,114.41 259.136,104.744 C259.136,95.24 264.266,89.516 271.934,89.516 Z M271.88,93.404 C267.344,93.404 264.644,96.482 264.158,101.666 L278.9,101.666 C278.846,96.752 276.686,93.404 271.88,93.404 Z"/>
</svg>
