<svg xmlns="http://www.w3.org/2000/svg" viewBox="0 0 99.06 80.51"><title>Untitled-2</title><path d="M99.53,19.28a40.66,40.66,0,0,1-11.67,3.2A20.39,20.39,0,0,0,96.8,11.23a40.75,40.75,0,0,1-12.91,4.93A20.34,20.34,0,0,0,49.26,34.7,57.69,57.69,0,0,1,7.36,13.47,20.34,20.34,0,0,0,13.65,40.6a20.24,20.24,0,0,1-9.21-2.54c0,0.08,0,.17,0,0.25a20.34,20.34,0,0,0,16.3,19.93,20.34,20.34,0,0,1-9.18.35,20.35,20.35,0,0,0,19,14.11,40.77,40.77,0,0,1-25.24,8.7,40.76,40.76,0,0,1-4.85-.29,57.5,57.5,0,0,0,31.16,9.13c37.38,0,57.83-31,57.83-57.83q0-1.32-.06-2.63A41.26,41.26,0,0,0,99.53,19.28Z" transform="translate(-0.47 -9.75)" fill="#010101"/></svg>