<svg xmlns="http://www.w3.org/2000/svg" viewBox="0 0 138.84 111.79"><title>ADRA</title><path d="M69.43,111.79a54.59,54.59,0,0,0,10.29-.92v-7.21a85.69,85.69,0,0,0,28.45-8.36V107A42.55,42.55,0,0,0,125,98.26V83.34c8.65-9,13.79-20,13.79-31.18C138.84,23.43,107.66,0,69.43,0S0,23.43,0,52.16C0,63.37,5.15,74.32,13.77,83.34V98.26A42.71,42.71,0,0,0,30.64,107V95.3a85.66,85.66,0,0,0,28.48,8.36v7.21a54.32,54.32,0,0,0,10.31.92h0ZM56.91,7.47c-23.82,3.34-43,16.75-48.54,33.74,2.19,4.51,5.4,7.24,10.15,8-6.41-7.1-3.71-18.42,3.62-18.42,6.84,0,9.66,11,3.74,18.42C42.5,44.31,33.08,25,56.91,7.47h0Zm25,0c23.82,3.34,43,16.75,48.57,33.74-2.18,4.51-5.43,7.24-10.2,8,6.46-7.1,3.76-18.42-3.6-18.42-6.81,0-9.66,11-3.71,18.42C96.33,44.31,105.73,25,81.91,7.47h0Zm-68,66.07A37.09,37.09,0,0,1,6.56,52.16v-0.4a13.35,13.35,0,0,0,7.21,3.9l0.14,17.88h0Zm111,0a37.26,37.26,0,0,0,7.35-21.38v-0.4a13.41,13.41,0,0,1-7.24,3.9l-0.12,17.88h0ZM56.15,96.71A78.35,78.35,0,0,1,30.64,88V56a7.7,7.7,0,0,0,4.51-3.2c1.43,19.17,8,34.12,21,43.89h0Zm26.53,0A78,78,0,0,0,108.17,88V56a7.77,7.77,0,0,1-4.51-3.2c-1.41,19.17-8,34.12-21,43.89h0ZM59.12,89C46.9,78.43,41.85,64.78,42.74,48c4.91,3.71,10.31,6.81,16.38,7.85V89h0Zm20.61,0C91.94,78.43,97,64.78,96.05,48c-4.86,3.71-10.27,6.81-16.33,7.85V89h0ZM69.43,30.92c10.15,0,13,13.28,4.49,18.14A37.12,37.12,0,0,0,94.41,38.65C90.79,24.72,80.87,12,69.43,7.71,58,12,48,24.72,44.43,38.65A37.11,37.11,0,0,0,64.92,49.06c-8.51-4.86-5.66-18.14,4.51-18.14h0Z" fill="#fff" fill-rule="evenodd"/></svg>