<svg xmlns="http://www.w3.org/2000/svg" viewBox="0 0 268.5 69.7"><title>Adventist Health Ministries</title><path d="M14.3,12.4L25.1,1.5A36.17,36.17,0,0,0,0,33.4a36.08,36.08,0,0,1,1-3.8C3.1,23.5,8,18.7,14.3,12.4Z" transform="translate(0 0)" style="fill:#fff"/><path d="M65.5,18.1s0.8,8.5.8,8.9a67,67,0,0,1-.3,8.2,27.61,27.61,0,0,1-3.8,9c-1.7,2.6-6.3,8.8-7.6,10.7s-8.5,11.3-7.1,14.8A36,36,0,0,0,71.6,35.8a35.06,35.06,0,0,0-6.4-20.4Z" transform="translate(0 0)" style="fill:#fff"/><path d="M58.6,31.3s1.1-4.5,1.4-5.9c0.2-1,.1-11.5.2-12.8a3.84,3.84,0,0,1,.8-2.3,38,38,0,0,0-8.2-6.1c-0.1-.1-0.3-0.1-0.4-0.2l-0.6-.3c-0.6-.3-1.2-0.6-1.9-0.9-0.1,0-.1-0.1-0.2-0.1A34.89,34.89,0,0,0,41,.3V1c0,7-9,15.1-12.6,18.7L15.1,33C10.8,37.3,2.6,45.4,4.6,53.6a34.5,34.5,0,0,0,2,3.2c-0.1-.7-0.2-1.5-0.3-2.2-0.2-7.2,3.7-11.7,8-15.9L26.2,26.9C36.7,16.4,40,12.1,40.9,8.4c0-.1.1-0.2,0.1,0v6c0,7-9,15.1-12.6,18.7l-12,12C10,51.5,8.7,58.6,11.3,62a32.89,32.89,0,0,0,4.1,3.3c0.2,0.2.5,0.3,0.7,0.5L17,66.4c0.4,0.2.7,0.4,1.1,0.6a0.76,0.76,0,0,0,.4.2c0.8,0.5,1.7.9,2.5,1.3V68.3c-2.2-4.1-5.9-9.5,2.9-19.4,2.7-3,5.6-5,8-7.2a87.27,87.27,0,0,0,6.3-6.8c1.7-2,1.9-3.8,2.4-5.3s6.5,0.7,3.8,7.7c-0.7,1.8-2,4.1-5,8.3-1.8,2.3-4.2,5.8-2.7,6.3s4.7,0.2,7.6-2.7S55.1,38,56.8,35.2,58.6,31.3,58.6,31.3Zm-6.5,6.3S48,30.4,46.8,24.7s2-7.1,2.3-6.5,2.4,5.2,2.6,6.8c0.1,1.2.7,12.1,0.8,12.4S52.4,37.9,52.1,37.6Zm2-1.87v0c-0.1-1.4-.4-6.2-0.6-8.8-0.2-3.2-1.2-4.9-1.1-9,0.2-6.9,4.2-7.2,4.3-6.6s1.3,7.8,1.4,8.8a30.82,30.82,0,0,1,.2,4.2c-0.5,2.5-.9,5-1.2,6.6a52.81,52.81,0,0,1-2.7,5A0.24,0.24,0,0,1,54.11,35.73Z" transform="translate(0 0)" style="fill:#fff"/><path d="M13.6,26.2L26.2,13.6C33,6.8,36.6,3,38.5.1A24.37,24.37,0,0,0,35.8,0H35.1a82.48,82.48,0,0,1-7,7.2l-15,15.1C3.3,32.1,1.3,36.2.7,42.8a35.85,35.85,0,0,0,1.6,5.6,0.9,0.9,0,0,0-.1-0.5C1.5,40,6.9,32.9,13.6,26.2Z" transform="translate(0 0)" style="fill:#fff"/><path d="M107,54.8V49.2l1.7-.7,0.2-.6h-5.5l-0.2.6,1.1,0.8v4.8H97.7V49.3l1-.7,0.2-.6H93.4l-0.4.8,1.7,0.7V55c0,2.7-.1,5.8-0.1,6.3L93,62l-0.2.6h5.8l0.2-.6-1.2-.8V55.5h3.9a15.58,15.58,0,0,0,2.7-.2c0,2,.1,3.9,0,5.9l-1,.7-0.2.4h5.9l0.2-.6-1.9-.8C107.1,60.6,107,57.3,107,54.8Z" transform="translate(0 0)" style="fill:#fff"/><path d="M115.62,52.59a3.8,3.8,0,0,0-.52,0,5.09,5.09,0,0,0-5,5.17s0,0.08,0,.13a4.67,4.67,0,0,0,5,5,6.56,6.56,0,0,0,2.3-.5,4.09,4.09,0,0,0,1.6-2l-0.1-.4a15.19,15.19,0,0,0-2.1,1.4,1.27,1.27,0,0,1-.6.1c-1.9,0-3.2-1.4-3.2-3.6V57.7h3.7a6.14,6.14,0,0,0,2.3-.4,1.17,1.17,0,0,0,.2-0.7A3.8,3.8,0,0,0,115.62,52.59Zm0.88,4h-3.4c0-1.2.6-3.2,2-3.2,1,0,1.5,1,1.5,2.5C116.6,56.2,116.5,56.4,116.5,56.6Z" transform="translate(0 0)" style="fill:#fff"/><path d="M128.8,60.7V55.8a3.14,3.14,0,0,0-3.4-3.3,5.62,5.62,0,0,0-1.5.4,9.22,9.22,0,0,0-3.1,1.7,5.15,5.15,0,0,0,1.8,2l0.2-.1c0.1-.5.3-1.6,0.4-2.5a4.22,4.22,0,0,1,1.2-.3c0.9,0,1.9.5,1.9,2.4l-0.1.5a28,28,0,0,0-4.5,1.6,1.81,1.81,0,0,0-.9,1.8,2.8,2.8,0,0,0,2.9,2.7h0a4,4,0,0,0,2.6-1.2,2.22,2.22,0,0,0,2.3,1.2,2.83,2.83,0,0,0,1.7-.5l0.1-.3A3.52,3.52,0,0,1,128.8,60.7Zm-2.5-.4a0.76,0.76,0,0,1-.2.5,1.09,1.09,0,0,1-.9.4,1.51,1.51,0,0,1-1.6-1.6,1.46,1.46,0,0,1,.7-1.3,12.15,12.15,0,0,1,2-.9v2.9Z" transform="translate(0 0)" style="fill:#fff"/><path d="M135.1,53.7c0-2.3.1-4.7,0.1-6.5a13.9,13.9,0,0,0-3.9.6l-0.2.5,1.2,0.6c0.1,1.1.1,2.9,0.1,4.9v7.4l-1.3.7-0.1.6h5.6l0.2-.6-1.6-.7C135.1,59.8,135.1,58.1,135.1,53.7Z" transform="translate(0 0)" style="fill:#fff"/><path d="M142.8,61.2a1.61,1.61,0,0,1-1.1-.3,1.3,1.3,0,0,1-.3-0.9V54l2.9-.3,0.36-.8H141.4l0.1-3.2a5,5,0,0,0-1.7.6,20,20,0,0,0-1,2.6h-1.1l-0.3.8,1.4,0.4v5.5a3.25,3.25,0,0,0,.5,2.3,3.67,3.67,0,0,0,5.4-.4V60.7h-0.1A3.87,3.87,0,0,1,142.8,61.2Z" transform="translate(0 0)" style="fill:#fff"/><polygon points="144.7 52.9 144.7 52.8 144.66 52.9 144.7 52.9" style="fill:#fff"/><path d="M155.5,60.8h-0.2v-5a3.22,3.22,0,0,0-3-3.4H152a4.42,4.42,0,0,0-2.9,1.2c0-2.2.1-4.6,0.1-6.5a17.15,17.15,0,0,0-3.9.7l-0.2.5,1.3,0.6c0.1,2,.1,4.5.1,7.3v4.9l-1.2.7-0.2.6h5.5l0.2-.6-1.6-.7V54.5a2.77,2.77,0,0,1,1.6-.5c1.1,0,2,.7,2,2.8a52.11,52.11,0,0,1-.2,5.6,32.43,32.43,0,0,0,4.3.2l0.2-.6-1.1-.5A0.64,0.64,0,0,1,155.5,60.8Z" transform="translate(0 0)" style="fill:#fff"/><path d="M180,49.4l1.8-.7,0.2-.6h-4.8a2.51,2.51,0,0,1-.1,1c-1.9,4.1-3.7,7.8-4.3,9-2.3-4.8-3.9-8-4.4-9.1a2,2,0,0,1-.1-0.9h-4.4v0.5c1.7,0.6,1.8.6,2.1,1.3-0.4,3.8-1.2,10.1-1.4,11.2l-1.6.8-0.1.6h5l0.1-.6-2-.8c0-1.3.3-7,.6-10.2,3,7.1,3.9,9.2,5,11.8l0.5-.1c2.6-6.1,4.2-9.5,5.3-12.1h0.1c0,3.5.1,7.4,0.1,10.7l-1.3.8-0.2.6h6.2l0.2-.6-2-.8C180.4,60.5,180,51.8,180,49.4Z" transform="translate(0 0)" style="fill:#fff"/><path d="M186.3,47.9a4.29,4.29,0,0,0-1.5,1.5v0.2a5,5,0,0,0,1.4,1.5l0.2-.1a4.06,4.06,0,0,0,1.4-1.5V49.3a4.09,4.09,0,0,0-1.4-1.5Z" transform="translate(0 0)" style="fill:#fff"/><path d="M187.8,57V52.5a21.73,21.73,0,0,0-3.8.7l-0.3.4,1.2,0.6v7l-1.2.7-0.1.6h5.5l0.2-.6-1.5-.7V57Z" transform="translate(0 0)" style="fill:#fff"/><path d="M200.6,60.9v-5c0-1.6-.7-3.5-3.1-3.5-0.9,0-2,.7-3.3,1.7l0.2-1.6a13.57,13.57,0,0,0-3.6.9l-0.2.5,1.1,0.5v1.8c0,2.6-.1,4.7-0.1,5l-1.2.7-0.2.6h5.1l0.1-.6-1.1-.7V54.9a3.55,3.55,0,0,1,1.9-.8c1,0,1.7.7,1.7,2.1,0,2.8-.1,4.4-0.1,5l-0.9.7-0.1.6H202l0.2-.6-1.2-.5A0.51,0.51,0,0,1,200.6,60.9Z" transform="translate(0 0)" style="fill:#fff"/><path d="M205.8,47.8l-0.2.1a5.14,5.14,0,0,0-1.4,1.5v0.2a5,5,0,0,0,1.4,1.5l0.2-.1a4.06,4.06,0,0,0,1.4-1.5V49.3A4.09,4.09,0,0,0,205.8,47.8Z" transform="translate(0 0)" style="fill:#fff"/><path d="M207.1,57V52.5a21.73,21.73,0,0,0-3.8.7l-0.3.4,1.2,0.6v7l-1.2.7-0.1.6h5.5l0.2-.6-1.5-.7V57Z" transform="translate(0 0)" style="fill:#fff"/><path d="M215.7,57.1l-2.6-1.3a1.21,1.21,0,0,1-.8-1.1,1.38,1.38,0,0,1,1.45-1.3h0a1.86,1.86,0,0,1,1.3.4,6.71,6.71,0,0,0,.8,1.7l0.4-.1a17.2,17.2,0,0,0,.5-2.9l-0.2-.1a3.1,3.1,0,0,0-1.3.6,4.06,4.06,0,0,0-1.7-.5,3.38,3.38,0,0,0-3.6,3.1,3,3,0,0,0,2.1,2.8l2,1a1.13,1.13,0,0,1,.8,1.1,1.69,1.69,0,0,1-1.8,1.4,3.73,3.73,0,0,1-1.2-.2c-0.4-.7-0.9-2.1-1.3-2.7l-0.3.2a18.63,18.63,0,0,0-.5,2.7,6.84,6.84,0,0,0,3.3.9c1.5,0,4.2-.6,4.2-3.3A2.67,2.67,0,0,0,215.7,57.1Z" transform="translate(0 0)" style="fill:#fff"/><path d="M223.8,61.2a1.61,1.61,0,0,1-1.1-.3,1.3,1.3,0,0,1-.3-0.9V54l2.9-.3,0.36-.8H222.4l0.1-3.2a5,5,0,0,0-1.7.6,20,20,0,0,0-1,2.6h-1.1l-0.3.8,1.4,0.4v5.5a3.25,3.25,0,0,0,.5,2.3,3.67,3.67,0,0,0,5.4-.4V60.7h-0.1A3.87,3.87,0,0,1,223.8,61.2Z" transform="translate(0 0)" style="fill:#fff"/><polygon points="225.7 52.9 225.7 52.8 225.66 52.9 225.7 52.9" style="fill:#fff"/><path d="M230.4,54.5h-0.1a12.31,12.31,0,0,0-.2-2,16.3,16.3,0,0,0-3.4.9l-0.1.4,1.2,0.6c0,1,0,4.5-.1,6.8l-1.2.7-0.1.6h6.2l0.1-.6-2.2-.7V55.5a2.09,2.09,0,0,1,1.5-1.3,0.37,0.37,0,0,1,.3.1,15.12,15.12,0,0,0,.9,1.6l0.3-.1a9.11,9.11,0,0,0,1-2.9,2.14,2.14,0,0,0-1.2-.4A3.76,3.76,0,0,0,230.4,54.5Z" transform="translate(0 0)" style="fill:#fff"/><path d="M238.1,51a4.06,4.06,0,0,0,1.4-1.5V49.3a4.09,4.09,0,0,0-1.4-1.5l-0.1.1a4.29,4.29,0,0,0-1.5,1.5v0.2a5,5,0,0,0,1.4,1.5Z" transform="translate(0 0)" style="fill:#fff"/><path d="M239.4,57V52.5a21.73,21.73,0,0,0-3.8.7l-0.3.4,1.2,0.6v7l-1.2.7-0.1.6h5.5l0.2-.6-1.5-.7V57Z" transform="translate(0 0)" style="fill:#fff"/><path d="M247.42,52.59a3.8,3.8,0,0,0-.52,0,5.09,5.09,0,0,0-5,5.17s0,0.08,0,.13a4.67,4.67,0,0,0,5,5,6.56,6.56,0,0,0,2.3-.5,4.09,4.09,0,0,0,1.6-2l-0.1-.4a15.19,15.19,0,0,0-2.1,1.4,1.27,1.27,0,0,1-.6.1c-1.9,0-3.2-1.4-3.2-3.6V57.7h3.7a6.14,6.14,0,0,0,2.3-.4,1.17,1.17,0,0,0,.2-0.7A3.8,3.8,0,0,0,247.42,52.59Zm0.78,4h-3.4c0-1.2.6-3.2,2-3.2,1,0,1.5,1,1.5,2.5C248.3,56.2,248.2,56.4,248.2,56.6Z" transform="translate(0 0)" style="fill:#fff"/><path d="M258.4,57.1l-2.6-1.3a1.21,1.21,0,0,1-.8-1.1,1.38,1.38,0,0,1,1.45-1.3h0a1.86,1.86,0,0,1,1.3.4,6.71,6.71,0,0,0,.8,1.7l0.4-.1a17.21,17.21,0,0,0,.5-2.9l-0.2-.1a3.1,3.1,0,0,0-1.3.6,4.06,4.06,0,0,0-1.7-.5,3.38,3.38,0,0,0-3.6,3.1,3,3,0,0,0,2.1,2.8l2,1a1.13,1.13,0,0,1,.8,1.1,1.69,1.69,0,0,1-1.8,1.4,3.73,3.73,0,0,1-1.2-.2c-0.4-.7-0.9-2.1-1.3-2.7l-0.3.2a18.63,18.63,0,0,0-.5,2.7,6.84,6.84,0,0,0,3.3.9c1.5,0,4.2-.6,4.2-3.3A2.67,2.67,0,0,0,258.4,57.1Z" transform="translate(0 0)" style="fill:#fff"/><path d="M114.2,37.3C109.6,26.1,104.1,12,103.3,9.9a10.76,10.76,0,0,1-.7-3.5l-0.3-.2L99.1,8.6,99.6,10a1.9,1.9,0,0,1-.2,1.6c-4,10.6-9.6,23.4-11.1,26.5l-3.5,1.6-0.3,1.2c1.7-.1,3.4-0.1,5.1-0.1,1.9,0,4.3,0,6.1.1L96,39.8l-4.6-1.6c0.8-2.5,1.6-4.5,3.6-9.6a90.69,90.69,0,0,0,11.3-.3c2.2,5.2,3.6,8.7,4,10.1l-1.9,1.4-0.3,1c2-.1,3.6-0.1,5.3-0.1s3.8,0,5.4.1l0.4-1.1C115.9,38.7,115.1,38.3,114.2,37.3ZM95.9,26c1.2-3.3,2.6-6.8,4.8-12.8h0.1c1.5,3.9,3,7.9,4.9,13C103.4,26.2,97.3,26,95.9,26Z" transform="translate(0 0)" style="fill:#fff"/><path d="M128.5,41.4c2.2,0,5.2-2.2,6.1-2.9h0.1c0.9,2.2,3.4,2.9,4.8,2.9a3.74,3.74,0,0,0,2-.4l0.4-.9a10.12,10.12,0,0,1-3.9-3h-0.1V20.5c0-5.5.1-10.3,0.2-15.9a32.15,32.15,0,0,0-6.5,1.6l-0.5,1,3.1,1.3c0.1,4.2.2,7.2,0.2,11l-0.1.1a9.35,9.35,0,0,0-4.4-1.6,12.18,12.18,0,0,0-12.1,12.2,10.82,10.82,0,0,0,10.43,11.19h0.27Zm-6.6-11.9c0-4.8,3.3-9.4,8.5-9.4a7.54,7.54,0,0,1,4.1,1.2h0.1V36.9a8.41,8.41,0,0,1-4.6,1.7C125.2,38.6,121.9,34.4,121.9,29.5Z" transform="translate(0 0)" style="fill:#fff"/><path d="M164.7,18.5c-1.1.1-2.8,0.1-4.2,0.1-1.1,0-2.7,0-3.5-.1l-0.4,1.2,2.5,1.4c-3.6,9.9-4.6,12.1-5.6,14.7l-0.1-.1c-2.8-6.9-4.8-11.7-5.8-14.8l1.6-1.2,0.4-1.2c-1.5.1-2.9,0.1-4.3,0.1-1.9,0-3.2,0-4.4-.1l-0.2,1.2c1.7,0.7,2.6,1,3.5,2.4,3,7.3,7.4,18.6,7.9,19.6h0.4a13.7,13.7,0,0,0,1.5-2.5c1.8-4.8,6.4-15.6,7.2-17.2a5,5,0,0,1,3.1-2.3Z" transform="translate(0 0)" style="fill:#fff"/><path d="M173.4,41.5a15.25,15.25,0,0,0,5.3-1.3,12.26,12.26,0,0,0,2.6-3.3l-0.3-.8a32.49,32.49,0,0,0-4,2.6,5,5,0,0,1-1.9.3c-4.6,0-8.3-3.5-8.3-9.4a2.2,2.2,0,0,1,.1-0.8v0.1h10a12.72,12.72,0,0,0,4.6-.7,2.35,2.35,0,0,0,.5-1.6c0-5.6-3.8-8.6-8.2-8.6-5.6,0-10.8,4.9-10.8,12.2C163,37.1,167.4,41.5,173.4,41.5Zm-0.1-22c3.2,0,4.8,3,4.8,5.9a6.8,6.8,0,0,1-.2,1.5H167C167,24.9,168.7,19.5,173.3,19.5Z" transform="translate(0 0)" style="fill:#fff"/><path d="M185.4,26.3c0,6.5-.1,11-0.2,11.9l-2.8,1.4L182,40.7c1.5,0,3.3-.1,5-0.1s3.5,0,4.6.1l0.4-1.2-2.9-1.3c-0.1-1.1-.1-10.8-0.1-14.6,1.2-1.3,3.7-3.1,6.1-3.1,2.6,0,5,1.6,5,5.7,0,6.6-.1,10.3-0.2,11.8l-2,1.5-0.4,1.2c1.4,0,2.8-.1,4.1-0.1,1.9,0,4.2.1,5.4,0.1l0.4-1.1-3.1-1.3a0.82,0.82,0,0,1-.6-0.9V25.9c0-3.8-1.5-8.1-6.7-8.1-1.9,0-3.9.6-8,4.1h-0.1l0.3-4.1c-1.6,0-5.1,1.4-5.9,1.8l-0.4,1,2.7,1.2h-0.2v4.5Z" transform="translate(0 0)" style="fill:#fff"/><path d="M210.1,33.9c0,3.3.3,4.3,1.2,5.5a6.11,6.11,0,0,0,4.5,2,7,7,0,0,0,5.6-2.4l0.1-1.5-0.3-.1a6.88,6.88,0,0,1-4.1,1.2,4.12,4.12,0,0,1-2.5-.8,4,4,0,0,1-.9-2.5V20.9l6.9-.6,1-1.8h-7.9l0.2-7.3a4.1,4.1,0,0,0-2.7,1.6,49.2,49.2,0,0,0-1,5.7h-2.6l-0.9,1.8,3.4,0.6v13Z" transform="translate(0 0)" style="fill:#fff"/><path d="M228.4,13.3l0.4-.1a10,10,0,0,0,2.4-2.6l0.2-.4a5.43,5.43,0,0,0-2.3-2.6h-0.4a9.42,9.42,0,0,0-2.5,2.7l-0.1.4A8.15,8.15,0,0,0,228.4,13.3Z" transform="translate(0 0)" style="fill:#fff"/><path d="M234,40.8l0.4-1.1-3.6-1.5c-0.1-1.5-.1-4.4-0.1-10.1V17.9a27.91,27.91,0,0,0-6,1.4l-0.3.9,2.7,1.3V28c0,4,0,8.5-.1,10.2l-2.9,1.5-0.4,1.1c1.9,0,3.4-.1,4.9-0.1C230.5,40.7,232.4,40.8,234,40.8Z" transform="translate(0 0)" style="fill:#fff"/><path d="M248.2,29.1c-1.6-.8-4.7-2.1-6-2.8-1.4-.9-1.8-1.6-1.8-2.9a3.66,3.66,0,0,1,3.6-3.72l0.4,0a4.91,4.91,0,0,1,2.9.8,28.51,28.51,0,0,0,1.7,3.9l0.6-.3a27.75,27.75,0,0,0,1.3-5.9l-0.4-.4a14.94,14.94,0,0,0-2.5,1.3,6.76,6.76,0,0,0-3.7-1.2c-4.9,0-7.4,3.3-7.3,6.4,0,2.7,1.7,4.6,4.3,5.8q3,1.35,5.1,2.4a3.23,3.23,0,0,1,2.1,3.2c0,2.2-2.2,3.9-5,3.9a9.14,9.14,0,0,1-3.1-.5c-0.5-1.2-1.5-4.4-2.2-5.6l-0.7.4a29.28,29.28,0,0,0-1.2,5.3,13.31,13.31,0,0,0,7.2,2.2c3.1,0,8.6-1.6,8.6-6.9C252.1,32.3,251,30.5,248.2,29.1Z" transform="translate(0 0)" style="fill:#fff"/><path d="M264,38.6a4.12,4.12,0,0,1-2.5-.8,4,4,0,0,1-.9-2.5V20.9l6.9-.6,1-1.8h-7.9l0.2-7.3a4.1,4.1,0,0,0-2.7,1.6,49.2,49.2,0,0,0-1,5.7h-2.6l-0.9,1.8,3.4,0.6v13c0,3.3.3,4.3,1.2,5.5a6.11,6.11,0,0,0,4.5,2,7,7,0,0,0,5.6-2.4l0.1-1.5-0.3-.1A6.88,6.88,0,0,1,264,38.6Z" transform="translate(0 0)" style="fill:#fff"/></svg>
