<svg xmlns="http://www.w3.org/2000/svg" viewBox="0 0 195.62 217.75"><title>sda-logo--square</title><path d="M114.71,153.42a74.18,74.18,0,0,0,14-1.24v-9.8A116.44,116.44,0,0,0,167.36,131v15.93A57.82,57.82,0,0,0,190.28,135V114.75C202,102.49,209,87.61,209,72.38c0-39-42.37-70.88-94.32-70.88S20.36,33.34,20.36,72.38c0,15.23,7,30.11,18.71,42.37V135A58,58,0,0,0,62,146.94V131a116.41,116.41,0,0,0,38.7,11.37v9.8a73.81,73.81,0,0,0,14,1.24h0Zm-17-141.76c-32.38,4.53-58.43,22.76-66,45.85,3,6.13,7.34,9.83,13.79,10.86-8.72-9.64-5-25,4.92-25,9.29,0,13.12,14.91,5.08,25,22.61-6.64,9.8-32.92,42.18-56.7h0Zm34,0c32.37,4.53,58.46,22.76,66,45.85-3,6.13-7.38,9.83-13.86,10.86,8.78-9.64,5.11-25-4.89-25-9.26,0-13.12,14.91-5,25-22.61-6.64-9.83-32.92-42.21-56.7h0Zm-92.4,89.78c-6.32-8.72-10-19.06-10-29.06V71.84a18.14,18.14,0,0,0,9.8,5.3l0.19,24.3h0Zm150.86,0c6.29-8.72,10-19.06,10-29.06V71.84a18.22,18.22,0,0,1-9.83,5.3l-0.16,24.3h0ZM96.67,132.92A106.47,106.47,0,0,1,62,121V77.62a10.46,10.46,0,0,0,6.13-4.34C70.07,99.33,79,119.64,96.67,132.92h0Zm36,0A106,106,0,0,0,167.36,121V77.62a10.56,10.56,0,0,1-6.13-4.34c-1.92,26.05-10.82,46.36-28.51,59.64h0Zm-32-10.47C84.09,108.08,77.22,89.53,78.44,66.8c6.67,5,14,9.26,22.25,10.66v45h0Zm28,0c16.6-14.37,23.44-32.92,22.19-55.65-6.61,5-14,9.26-22.19,10.66v45h0Zm-14-78.93c13.79,0,17.66,18,6.1,24.65A50.44,50.44,0,0,0,148.65,54c-4.92-18.93-18.39-36.27-33.94-42-15.58,5.78-29.05,23.12-34,42a50.43,50.43,0,0,0,27.84,14.14c-11.56-6.61-7.69-24.65,6.13-24.65h0Z" transform="translate(-16.57 -1.5)" fill="#fff" fill-rule="evenodd"/><path d="M43.28,174.07L37,193.33H50.44l-7.15-19.25h0Zm51.09,45.18H52.54c-3.35,0-3.35-3,0-3,4.05-.35,5.62-2.27,4.73-5.94-1.76-4.21-3.67-8.4-5.43-12.58H35.75c-1.6,4.5-3.16,9.26-4.73,14-0.67,3.19,1.56,4.76,7.54,4.76,1.92,0,1.56,2.81,0,2.81h-20c-2.81,0-2.62-2.27,0-2.27,4.53-.38,7.66-3.32,9.45-8.78C32.59,195.63,37,183,41.53,170.4a30.29,30.29,0,0,0-1.72-3.13h7.82c5.65,14.69,11.24,29.18,16.83,43.93,1.21,3.32,3,4.89,5.78,5,1.05,0,1.76-.7,1.76-2.11v-39c0-3.35-3-4.92-7.54-5.11-2.46,0-2.46-2.65,0-2.78H94.37c11.21,0,26.79,8.91,26.79,26.76,0,15.93-16.44,25.22-26.79,25.22h0Zm0-48.85H78.44v39.72c0.19,4,1.25,6.13,6.86,6.13h9.07c10,0,18.9-7.89,18.74-22.22,0-14.88-9.8-23.63-18.74-23.63h0Zm87.32,3.67-6.26,19.25h13.28l-7-19.25h0ZM142,170.4h-8.24v20.82c0,2.3.54,3.32,3.54,3.32H142c5.43,0,10-4.21,9.8-11.69,0-7.89-5-12.45-9.8-12.45h0Zm-8.24,39.72V197.35h7a35.3,35.3,0,0,0,4-.16c1.76,4,11.4,22.06,25.22,22.06h6.8a1.4,1.4,0,0,0,0-2.81c-5.78,0-8-1.56-7.34-4.76,1.56-4.69,3.16-9.45,4.76-14h16.06c1.76,4.18,3.51,8.37,5.43,12.58,0.7,3.67-.86,5.59-4.69,5.94-3.54,0-3.54,3,0,3h17.5c5.08,0,4.73-3.16,0-3-2.65-.16-4.57-1.72-5.59-5-5.65-14.75-11.24-29.25-17-43.93h-7.69A31.24,31.24,0,0,1,180,170.4c-4.57,12.58-9.13,25.22-13.66,37.8a21,21,0,0,1-1.44,3.67c-6.13-4.18-9.45-9.77-12.77-17,4.41-2.11,8.08-5.94,8.08-12C160,170.4,152,167.27,140.76,167.27H119.4c-2.11,0-2.46,2.78.35,2.78,6.32,0,7.38,3.48,7.38,5.43v38.67c-0.19,2.46-2.3,1.95-4.95,2.11-3.29,0-3.29,3,0,3h18.23c4.21,0,4.21-3,0-3-5.59,0-6.67-2.11-6.67-6.13h0Z" transform="translate(-16.57 -1.5)" fill="#fff" fill-rule="evenodd"/></svg>