<svg xmlns="http://www.w3.org/2000/svg" viewBox="0 0 591.8 104.54"><defs><style>.a{fill:#fff;}</style></defs><title>Asset 1</title><path class="a" d="M141.4,88.34a38.54,38.54,0,0,1-4.6-1.7,4.73,4.73,0,0,1-1.7-1.5,4.47,4.47,0,0,1-.9-2.8,4.1,4.1,0,0,1,1.4-3.1,5.13,5.13,0,0,1,3.5-1.2,9,9,0,0,1,4.8,1.4,6.32,6.32,0,0,1,2.8,3.5q.3.9.6.9c.3,0,.4-.2.4-.6a3.22,3.22,0,0,0-.1-.8l-.3-2a15.65,15.65,0,0,1-.3-2c0-.6-.2-1-.5-1-.1,0-.2,0-.2.1l-.3.2c-.2.1-.3.2-.5.2a.37.37,0,0,1-.3-.1l-1.3-.6a9.15,9.15,0,0,0-3.5-.6,8.86,8.86,0,0,0-6,2,6.79,6.79,0,0,0-.5,9.7c1.2,1.2,3.2,2.2,6.1,3.2s4.5,1.7,5,2.2a4.79,4.79,0,0,1-.1,7.4,6.86,6.86,0,0,1-4.5,1.6,8,8,0,0,1-4.9-1.6,7.09,7.09,0,0,1-2.9-4c-.2-.6-.4-.9-.6-1s-.4.2-.4.6a13.18,13.18,0,0,0,.5,2.5c.3,1.1.5,1.7.5,1.8a8.67,8.67,0,0,1,.3,1.3,1.18,1.18,0,0,0,.5.5,8.27,8.27,0,0,0,2.6,1,13.47,13.47,0,0,0,3.3.4,10.17,10.17,0,0,0,6.8-2.3,7.27,7.27,0,0,0,2.6-5.9C148.6,92.44,146.2,89.84,141.4,88.34Z"/><path class="a" d="M158.4,103.24a3.32,3.32,0,0,1-1.3-.4,2,2,0,0,1-.7-1,8.34,8.34,0,0,1-.2-2.7V88.34c0-2,.4-3.2,1.1-3.4l.7-.3c.2-.1.4-.2.4-.4s-.1-.3-.4-.3h-.4l-1,.1h-1.8a21.85,21.85,0,0,1-2.8-.1h-.3c-.3,0-.4.1-.4.3s.2.3.5.3a2.1,2.1,0,0,1,1.7.8,4.47,4.47,0,0,1,.4,2.4V100a6.24,6.24,0,0,1-.3,2.4c-.2.4-.7.6-1.4.8-.3,0-.4.2-.4.3s.1.3.4.3h.7l1.7-.1h2.1a5.76,5.76,0,0,1,1.5.1h.5c.3,0,.4-.1.4-.3S158.8,103.34,158.4,103.24Z"/><path class="a" d="M175.9,99.94q-.15,0-.3.3c-1.1,1.7-3.5,2.5-7.2,2.5a4.77,4.77,0,0,1-2.2-.3c-.3-.2-.4-.7-.4-1.5v-5.8a.85.85,0,0,1,.2-.6,2.22,2.22,0,0,1,.9-.1h3.2a3.42,3.42,0,0,1,1.7.3,2,2,0,0,1,.7,1.3l.1.4c0,.2.2.3.4.3s.3-.1.3-.4v-.4a9.7,9.7,0,0,1-.1-1.7,21.76,21.76,0,0,1,.1-2.5v-.3c0-.2-.1-.4-.3-.4s-.3.1-.4.3a4,4,0,0,1-.4,1.2,1.88,1.88,0,0,1-1,.4,14.36,14.36,0,0,1-2.4.2h-2.3c-.4,0-.7,0-.7-.1s-.1-.4-.1-.8v-5.8a1.33,1.33,0,0,1,.3-1,2.68,2.68,0,0,1,1.1-.2h2.2a17,17,0,0,1,3,.2,1.3,1.3,0,0,1,1.1.9,2.92,2.92,0,0,1,.2.9v.4c0,.3.1.4.3.4s.3-.1.3-.2a7.72,7.72,0,0,0,.1-1l.1-.8a8,8,0,0,1,.1-1.1v-.3c0-.3-.2-.4-.5-.4a1.76,1.76,0,0,0-.6.1,5.13,5.13,0,0,0-1,.1l-2,.1c-.9,0-1.9.1-3.1.1-1.9,0-3.6-.1-4.9-.2-.4,0-.7-.1-1-.1s-.6.1-.6.4.1.3.4.3c.9,0,1.5.2,1.8.7a5.75,5.75,0,0,1,.5,2.8v13c0,1.1-.3,1.8-1,2l-.5.2c-.2.1-.4.2-.4.3s.2.3.5.3a2.25,2.25,0,0,0,.7-.1,26.14,26.14,0,0,1,3.5-.2,42.06,42.06,0,0,1,4.5.3c.5,0,.8.1,1.1.1a4.07,4.07,0,0,0,3.2-1.5,3.78,3.78,0,0,0,1-2.2C176.1,100,176.1,99.84,175.9,99.94Z"/><path class="a" d="M189.7,93.14c-.5-.1-.7-.2-.7-.3s.1-.1.2-.2l.6-.4a3.86,3.86,0,0,0,1.9-3.5,4.1,4.1,0,0,0-1.8-3.5,9,9,0,0,0-5-1.3h-1.4l-1.6.1h-3.5q-.6,0-.6.3t.6.3a1.75,1.75,0,0,1,1.7.9,5.06,5.06,0,0,1,.6,2.8v11.1a18.36,18.36,0,0,1-.2,2.6,1.49,1.49,0,0,1-1.4,1.3c-.3,0-.4.1-.4.3s.1.3.4.3a4.59,4.59,0,0,0,1-.1c.3,0,.7-.1,1.1-.1a12.83,12.83,0,0,1,1.8.1l1.2.1,1.3.1h1.1a7.29,7.29,0,0,0,4.9-1.7,5.41,5.41,0,0,0,1.9-4.3,4.8,4.8,0,0,0-1-3.1A4.51,4.51,0,0,0,189.7,93.14Zm-6.9-6.9a1.74,1.74,0,0,1,.3-1.2,1.88,1.88,0,0,1,1.3-.3,5.56,5.56,0,0,1,3.8,1.4,4.33,4.33,0,0,1,1.5,3.4c0,2.2-1.2,3.2-3.6,3.2h-2.4c-.4,0-.7,0-.8-.1a.85.85,0,0,1-.2-.6v-5.8ZM190,102a4.79,4.79,0,0,1-3.5,1.2,8.36,8.36,0,0,1-2.6-.3,1.32,1.32,0,0,1-1-.9l-.1-.6v-7.3a.75.75,0,0,1,.1-.5c.1-.1.3-.1.7-.1h2.8a5,5,0,0,1,3.5,1.4,5.24,5.24,0,0,1,1.4,3.6A4.67,4.67,0,0,1,190,102Z"/><path class="a" d="M210.7,99.94q-.15,0-.3.3c-1.1,1.7-3.5,2.5-7.2,2.5a4.77,4.77,0,0,1-2.2-.3c-.3-.2-.4-.7-.4-1.5v-5.8a.85.85,0,0,1,.2-.6,2.22,2.22,0,0,1,.9-.1h3.2a3.42,3.42,0,0,1,1.7.3,2,2,0,0,1,.7,1.3l.1.4c0,.2.2.3.4.3s.3-.1.3-.4v-.4a9.7,9.7,0,0,1-.1-1.7,21.76,21.76,0,0,1,.1-2.5v-.3c0-.2-.1-.4-.3-.4s-.3.1-.4.3a4,4,0,0,1-.4,1.2,1.88,1.88,0,0,1-1,.4,14.36,14.36,0,0,1-2.4.2h-2.2c-.4,0-.7,0-.7-.1s-.1-.4-.1-.8v-5.8a1.33,1.33,0,0,1,.3-1,2.68,2.68,0,0,1,1.1-.2h2.2a17,17,0,0,1,3,.2,1.3,1.3,0,0,1,1.1.9,2.92,2.92,0,0,1,.2.9v.4c0,.3.1.4.3.4s.3-.1.3-.2a7.72,7.72,0,0,0,.1-1l.1-.8a8,8,0,0,1,.1-1.1v-.3c0-.3-.2-.4-.5-.4a1.76,1.76,0,0,0-.6.1,5.13,5.13,0,0,0-1,.1l-2,.1c-.9,0-1.9.1-3.1.1-1.9,0-3.6-.1-4.9-.2-.4,0-.7-.1-1-.1s-.6.1-.6.4.1.3.4.3c.9,0,1.5.2,1.8.7a5.75,5.75,0,0,1,.5,2.8v13c0,1.1-.3,1.8-1,2l-.5.2c-.2.1-.4.2-.4.3s.2.3.5.3a2.25,2.25,0,0,0,.7-.1,26.14,26.14,0,0,1,3.5-.2,42.06,42.06,0,0,1,4.5.3c.5,0,.8.1,1.1.1a4.07,4.07,0,0,0,3.2-1.5,3.78,3.78,0,0,0,1-2.2C211,100,210.9,99.84,210.7,99.94Z"/><path class="a" d="M231.7,84a2,2,0,0,0-.7.1,5.72,5.72,0,0,1-1.4.1,18.58,18.58,0,0,1-2.6-.1h-.6c-.3,0-.4.1-.4.3s.1.3.4.4a3.42,3.42,0,0,1,2,.8,2.45,2.45,0,0,1,.7,1.7l.2,3.3v9c0,.2-.1.3-.2.3s-.2-.1-.4-.3l-13.2-15.2a.87.87,0,0,0-.7-.4h-2.5a.27.27,0,0,0-.3.3c0,.2.1.3.4.3a3,3,0,0,1,2.3,1.6,8.7,8.7,0,0,1,.8,3.9v9.7a4.09,4.09,0,0,1-.4,2.2,2.85,2.85,0,0,1-1.6,1.1c-.3.1-.4.2-.4.4s.2.3.4.3a1.09,1.09,0,0,0,.5-.1c.3,0,.7-.1,1.1-.1h.7l1.5.1a8.37,8.37,0,0,1,1.2.1h.4a.27.27,0,0,0,.3-.3c0-.2-.2-.3-.5-.4a2.8,2.8,0,0,1-1.5-.5c-.3-.2-.4-.7-.5-1.3V90q0-.6.3-.6c.1,0,.1,0,.2.1l.1.2,12.1,13.8.3.4a.37.37,0,0,0,.3.1c.2,0,.4-.1.4-.3s.1-.9.1-2V87.34a4.39,4.39,0,0,1,.3-1.9,1.76,1.76,0,0,1,1.2-.7c.2-.1.3-.1.3-.3A.72.72,0,0,0,231.7,84Z"/><path class="a" d="M251.2,85.44a.92.92,0,0,0-1.2-1.2H234.6a.85.85,0,0,0-.6.2,1.44,1.44,0,0,0-.2.9,14.92,14.92,0,0,1-.2,1.7,8.92,8.92,0,0,0-.2,1.1c0,.2.1.4.3.4s.3-.2.4-.5a4.34,4.34,0,0,1,.8-1.8,2.46,2.46,0,0,1,1.7-.5h3.8c.4,0,.6,0,.7.1a1,1,0,0,1,.2.7v14.6a2.5,2.5,0,0,1-.4,1.7,2.62,2.62,0,0,1-1.5.6c-.3,0-.5.1-.5.3s.1.3.4.3a5.81,5.81,0,0,0,1-.1h4.4a2.64,2.64,0,0,0,.7.1c.3,0,.4-.1.4-.3s-.2-.3-.5-.3a2.05,2.05,0,0,1-1.9-2V86.74a.8.8,0,0,1,1-1h4a3,3,0,0,1,1.6.3,1.76,1.76,0,0,1,.6,1.3c.1.3.2.5.3.4s.3-.2.3-.5a2.25,2.25,0,0,0-.1-.7A3.11,3.11,0,0,0,251.2,85.44Z"/><path class="a" d="M267.4,99.94q-.15,0-.3.3c-1.1,1.7-3.5,2.5-7.2,2.5a4.77,4.77,0,0,1-2.2-.3c-.3-.2-.4-.7-.4-1.5v-5.8a.85.85,0,0,1,.2-.6,2.22,2.22,0,0,1,.9-.1h3.2a3.42,3.42,0,0,1,1.7.3A2,2,0,0,1,264,96l.1.4c0,.2.2.3.4.3s.3-.1.3-.4v-.4a9.7,9.7,0,0,1-.1-1.7,21.76,21.76,0,0,1,.1-2.5v-.3c0-.2-.1-.4-.3-.4s-.3.1-.4.3a4,4,0,0,1-.4,1.2,1.88,1.88,0,0,1-1,.4,14.36,14.36,0,0,1-2.4.2h-2.2c-.4,0-.7,0-.7-.1s-.1-.4-.1-.8v-5.8a1.33,1.33,0,0,1,.3-1,2.68,2.68,0,0,1,1.1-.2h2.2a17,17,0,0,1,3,.2,1.3,1.3,0,0,1,1.1.9,2.92,2.92,0,0,1,.2.9v.4c0,.3.1.4.3.4s.3-.1.3-.2a7.72,7.72,0,0,0,.1-1l.1-.8a8,8,0,0,1,.1-1.1v-.3c0-.3-.2-.4-.5-.4a1.76,1.76,0,0,0-.6.1,5.13,5.13,0,0,0-1,.1l-2,.1c-.9,0-1.9.1-3.1.1-1.9,0-3.6-.1-4.9-.2-.4,0-.7-.1-1-.1s-.6.1-.6.4.1.3.4.3c.9,0,1.5.2,1.8.7a5.75,5.75,0,0,1,.5,2.8v13c0,1.1-.3,1.8-1,2l-.5.2c-.2.1-.4.2-.4.3s.2.3.5.3a2.25,2.25,0,0,0,.7-.1,26.14,26.14,0,0,1,3.5-.2,42.06,42.06,0,0,1,4.5.3c.5,0,.8.1,1.1.1a4.07,4.07,0,0,0,3.2-1.5,3.78,3.78,0,0,0,1-2.2C267.7,100,267.6,99.84,267.4,99.94Z"/><path class="a" d="M288.4,84a2,2,0,0,0-.7.1,5.72,5.72,0,0,1-1.4.1,18.58,18.58,0,0,1-2.6-.1h-.6c-.3,0-.4.1-.4.3s.1.3.4.4a3.42,3.42,0,0,1,2,.8,2.45,2.45,0,0,1,.7,1.7l.2,3.3v9c0,.2-.1.3-.2.3s-.2-.1-.4-.3l-13.2-14.9a.87.87,0,0,0-.7-.4H269a.27.27,0,0,0-.3.3c0,.2.1.3.4.3a3,3,0,0,1,2.3,1.6,8.7,8.7,0,0,1,.8,3.9v9.7a4.09,4.09,0,0,1-.4,2.2,2.85,2.85,0,0,1-1.6,1.1c-.3.1-.4.2-.4.4s.2.3.4.3a1.09,1.09,0,0,0,.5-.1c.3,0,.7-.1,1.1-.1h.7l1.5.1a8.37,8.37,0,0,1,1.2.1h.4a.27.27,0,0,0,.3-.3c0-.2-.2-.3-.5-.4a2.8,2.8,0,0,1-1.5-.5c-.3-.2-.4-.7-.5-1.3V90.34q0-.6.3-.6c.1,0,.1,0,.2.1l.1.2,12.1,13.8.3.4a.37.37,0,0,0,.3.1c.2,0,.4-.1.4-.3s.1-.9.1-2V87.64a4.39,4.39,0,0,1,.3-1.9,1.76,1.76,0,0,1,1.2-.7c.2-.1.3-.1.3-.3C288.7,84.14,288.6,84,288.4,84Z"/><path class="a" d="M295.7,95.74l-.2.1c-.2.1-.5.2-1,.4-.7.2-1.2.4-1.5.5a7.93,7.93,0,0,1-1.5.5,3.83,3.83,0,0,0-1.1.5,3.09,3.09,0,0,0-.2,1.3c0,.3.1.5.2.5s.2-.1.3-.1.3-.1.6-.2,1-.3,2.1-.7a10.71,10.71,0,0,1,1.7-.6,2.66,2.66,0,0,0,.8-.4c.1-.1.1-.4.1-1C295.8,95.94,295.8,95.74,295.7,95.74Z"/><path class="a" d="M320,81.44c0-.2-.1-.5-.1-.9a7.16,7.16,0,0,1-.1-1.7,3.32,3.32,0,0,0-.2-1.4c-.1-.2-.6-.2-1.3-.2H297.4a1.22,1.22,0,0,0-.9.3,2.87,2.87,0,0,0-.2,1.2A11.15,11.15,0,0,1,296,81a5,5,0,0,0-.2,1.5c0,.3.1.5.3.5s.4-.2.5-.7a4.46,4.46,0,0,1,1.1-2.4,3.52,3.52,0,0,1,2.3-.6h5.1a.86.86,0,0,1,1.1,1.1v19.8a4.35,4.35,0,0,1-.5,2.3,2.88,2.88,0,0,1-2,.8c-.4.1-.6.2-.6.4s.2.4.6.4a9.29,9.29,0,0,0,1.3-.1c.4,0,.8-.1,1.4-.1h2.9a7.67,7.67,0,0,1,1.8.1,4.59,4.59,0,0,0,1,.1c.4,0,.5-.1.5-.4s-.2-.4-.7-.4a2.64,2.64,0,0,1-2.5-2.7V80.74a2,2,0,0,1,.2-1.1c.1-.2.5-.2,1.1-.2h5.5a3.87,3.87,0,0,1,2.2.4,3,3,0,0,1,.8,1.8c.1.4.2.6.5.6A1,1,0,0,0,320,81.44Z"/><path class="a" d="M339.7,103.24a3.9,3.9,0,0,1-1.8-.7,6.08,6.08,0,0,1-1.1-2.2l-.3-.8-6.2-15.8c-.1-.3-.2-.4-.4-.4s-.3.1-.4.4l-7.4,16.4-.4.9a9.13,9.13,0,0,1-.8,1.3,2.3,2.3,0,0,1-.8.7l-.5.2c-.2,0-.2.2-.2.3s.1.3.4.3a4.53,4.53,0,0,0,.8-.1h2.2l1.4.1h.5c.3,0,.4-.1.4-.2s-.2-.3-.4-.3a2.3,2.3,0,0,1-1.3-.5,1.33,1.33,0,0,1-.3-1,6.61,6.61,0,0,1,.6-2.2l.9-2.1c.3-.7.5-1,.7-1.1a3.09,3.09,0,0,1,1.3-.2h5.2a2.25,2.25,0,0,1,1,.1,3.05,3.05,0,0,1,.5.9l.7,1.9a10.61,10.61,0,0,1,.9,3c0,.6-.2.9-.7,1l-.4.1c-.2,0-.4.1-.4.3s.1.3.4.3a.76.76,0,0,0,.4-.1,13.62,13.62,0,0,1,2.5-.1,15.69,15.69,0,0,1,2.6.1h.5c.3,0,.4-.1.4-.2A1.07,1.07,0,0,0,339.7,103.24Zm-8.4-8.3h-4.7c-.4,0-.7-.1-.7-.4a1.69,1.69,0,0,1,.2-.5l2.8-6.2a1.24,1.24,0,0,1,.2-.3c.1,0,.3.2.4.5l.1.3,2.2,5.7.1.3a.44.44,0,0,0,.1.3C332,94.84,331.8,94.94,331.3,94.94Z"/><path class="a" d="M359,93.44a6.61,6.61,0,0,0-1.1.1h-4.3c-.3,0-.5.1-.5.3s.2.3.6.4a3,3,0,0,1,1.5.4c.3.2.4.6.4,1.2V99a3.44,3.44,0,0,1-.5,2,6.24,6.24,0,0,1-5.2,2.3,7.1,7.1,0,0,1-5.8-2.8,10.44,10.44,0,0,1-2.4-7,9.7,9.7,0,0,1,2-6.3,6.74,6.74,0,0,1,5.3-2.5,9.58,9.58,0,0,1,4.9,1.4,9.24,9.24,0,0,1,3.4,3.7c.1.2.2.3.3.2s.3-.1.3-.4a.76.76,0,0,0-.1-.4,4.25,4.25,0,0,1-.2-1.1l-.1-1.3a4.14,4.14,0,0,1-.1-1c0-.4-.1-.7-.3-.7s-.1,0-.2.1l-.3.3a.37.37,0,0,1-.3.1.31.31,0,0,1-.2-.1,10.42,10.42,0,0,0-3-1.2,16.34,16.34,0,0,0-3.6-.5,9.73,9.73,0,0,0-7.3,3,10.5,10.5,0,0,0-2.9,7.5,9.81,9.81,0,0,0,2.7,7.1,9.65,9.65,0,0,0,7,2.8,11.74,11.74,0,0,0,6-1.6l.9-.6a2.77,2.77,0,0,1,1.2-.5,1,1,0,0,0,.4-.1l.1-.2v-5.6a1.47,1.47,0,0,1,1.1-1.6c.3-.1.4-.2.4-.4C359.3,93.54,359.2,93.44,359,93.44Z"/><path class="a" d="M368.6,92.34c-1.8-.6-2.9-1-3.4-1.2a3.34,3.34,0,0,1-1.3-1.1,3.77,3.77,0,0,1-.7-2.1,2.9,2.9,0,0,1,1-2.3,3.74,3.74,0,0,1,2.6-.9,6,6,0,0,1,3.5,1,4.82,4.82,0,0,1,2.1,2.6c.2.5.3.7.5.7s.3-.1.3-.4a1.76,1.76,0,0,0-.1-.6l-.2-1.5c-.1-.8-.2-1.3-.2-1.4,0-.5-.1-.7-.4-.7-.1,0-.1,0-.2.1l-.2.2a.5.5,0,0,1-.6,0l-1-.4a6.77,6.77,0,0,0-2.6-.4,6.35,6.35,0,0,0-4.4,1.5,5.1,5.1,0,0,0-.4,7.2,11.61,11.61,0,0,0,4.5,2.4,13.83,13.83,0,0,1,3.7,1.6,3.51,3.51,0,0,1,1.3,2.7,3.65,3.65,0,0,1-1.4,2.8,4.79,4.79,0,0,1-3.3,1.2,6,6,0,0,1-3.6-1.2,5.91,5.91,0,0,1-2.2-3c-.1-.5-.3-.7-.5-.7s-.3.1-.3.4a5.35,5.35,0,0,0,.4,1.8,4.79,4.79,0,0,0,.4,1.3,3,3,0,0,0,.3,1c.1.1.2.3.3.4a5.84,5.84,0,0,0,1.9.7,11.21,11.21,0,0,0,2.4.3,7.56,7.56,0,0,0,5-1.7,5.48,5.48,0,0,0,1.9-4.4C373.9,95.44,372.1,93.54,368.6,92.34Z"/><path class="a" d="M380.7,96.44c0-.5-.1-.8-.2-.8l-.2.1c-.2.1-.5.2-1,.4-.7.2-1.2.4-1.5.5a7.93,7.93,0,0,1-1.5.5,3.83,3.83,0,0,0-1.1.5,3.09,3.09,0,0,0-.2,1.3c0,.3.1.5.2.5s.2-.1.3-.1.3-.1.6-.2,1-.3,2.1-.7a10.71,10.71,0,0,1,1.7-.6,2.66,2.66,0,0,0,.8-.4S380.7,97,380.7,96.44Z"/><path class="a" d="M407.5,103.14a4.59,4.59,0,0,1-2.4-.9,10.26,10.26,0,0,1-1.5-2.9l-.4-1-8.3-21.4c-.1-.4-.3-.6-.5-.6s-.4.2-.6.6l-10,22.2-.6,1.3a6.19,6.19,0,0,1-1.1,1.7c-.4.6-.8.9-1,.9l-.7.2c-.2.1-.3.2-.3.4a.46.46,0,0,0,.5.4,7.47,7.47,0,0,0,1.1-.1h3l1.9.1h.7c.4,0,.6-.1.5-.3s-.2-.4-.6-.5a3.9,3.9,0,0,1-1.8-.7,1.73,1.73,0,0,1-.5-1.3,8.11,8.11,0,0,1,.9-2.9l1.3-2.9a6.13,6.13,0,0,1,.9-1.6c.2-.2.8-.2,1.8-.2h7a2.75,2.75,0,0,1,1.3.2q.3.15.6,1.2l1,2.6a14.19,14.19,0,0,1,1.2,4.1c0,.8-.3,1.2-1,1.3l-.6.1c-.3.1-.5.2-.5.4s.2.4.5.4a1.76,1.76,0,0,0,.6-.1,25.67,25.67,0,0,1,3.4-.1,32.42,32.42,0,0,1,3.6.1h.7c.4,0,.5-.1.5-.3S407.9,103.14,407.5,103.14Zm-11.4-11.4h-6.4c-.6,0-.9-.2-.9-.5a1.74,1.74,0,0,1,.3-.7l3.8-8.4c.1-.3.2-.4.3-.4s.3.2.5.6l.2.4,3,7.7.1.4a1,1,0,0,1,.1.4C397.1,91.64,396.7,91.74,396.1,91.74Z"/><path class="a" d="M416.4,83.94a11.49,11.49,0,0,0-1.9.1l-1.3.1c-.5,0-1.3.1-2.2.1h-1l-1.1-.1c-.2,0-.4.1-.4.3s.2.3.5.3a1.92,1.92,0,0,1,1.6.8,3.81,3.81,0,0,1,.5,2.1v12.9a4.54,4.54,0,0,1-.3,2.1,1.79,1.79,0,0,1-1.3.7c-.3.1-.4.2-.4.3s.2.3.5.3a2.49,2.49,0,0,0,.8-.1,19.94,19.94,0,0,1,2.7-.2c.9,0,2.1,0,3.3.1.6,0,1.1.1,1.3.1a10.8,10.8,0,0,0,5.8-1.6,9.54,9.54,0,0,0,3.3-3.6,10.55,10.55,0,0,0,1.2-5,9.34,9.34,0,0,0-2.7-6.9C423.2,84.94,420.3,83.94,416.4,83.94Zm6,18a8.31,8.31,0,0,1-4.4,1.2,19.08,19.08,0,0,1-2-.2,7.39,7.39,0,0,1-1.9-.5,1.18,1.18,0,0,1-.9-1.2V86.54c0-.6.1-1,.4-1.2a5.67,5.67,0,0,1,2.9-.5,8.85,8.85,0,0,1,5.4,1.6,9.11,9.11,0,0,1,2.9,3.5,11.62,11.62,0,0,1,1,4.9C425.7,98.24,424.6,100.54,422.4,101.94Z"/><path class="a" d="M447.7,84h-2.8a9.29,9.29,0,0,1-1.3-.1h-.4c-.3,0-.5.1-.5.3s.3.3.8.4a4.65,4.65,0,0,1,.9.3,1.17,1.17,0,0,1,.2.7c0,.9-.7,3-2,6.2l-3.1,7.5-.2.5c-.2.5-.4.8-.5.8s-.2-.1-.4-.5l-5.5-12.6a5.84,5.84,0,0,1-.6-2,.76.76,0,0,1,.2-.5,3.22,3.22,0,0,1,.7-.4q.3-.15.3-.3c0-.2-.1-.3-.4-.3h-.4c-.4,0-.7.1-.9.1h-4.2c-.3,0-.4.1-.4.3s0,.2.1.2.4.1.9.2a1.68,1.68,0,0,1,1.1.6,4.49,4.49,0,0,1,.9,1.6l7.3,16.8c.2.5.4.7.6.7s.4-.2.6-.7l7.1-16.7.4-.9a3.34,3.34,0,0,1,1.6-1.7q.3-.15.3-.3A.52.52,0,0,0,447.7,84Z"/><path class="a" d="M463.5,99.94q-.15,0-.3.3c-1.1,1.7-3.5,2.5-7.2,2.5a4.77,4.77,0,0,1-2.2-.3c-.3-.2-.4-.7-.4-1.5v-5.8a.85.85,0,0,1,.2-.6,2.22,2.22,0,0,1,.9-.1h3.2a3.42,3.42,0,0,1,1.7.3,2,2,0,0,1,.7,1.3l.1.4c0,.2.2.3.4.3s.3-.1.3-.4v-.4a9.7,9.7,0,0,1-.1-1.7,21.76,21.76,0,0,1,.1-2.5v-.3c0-.2-.1-.4-.3-.4s-.3.1-.4.3a4,4,0,0,1-.4,1.2,1.88,1.88,0,0,1-1,.4,14.36,14.36,0,0,1-2.4.2h-2.2c-.4,0-.7,0-.7-.1s-.1-.4-.1-.8v-5.8a1.33,1.33,0,0,1,.3-1,2.68,2.68,0,0,1,1.1-.2H457a17,17,0,0,1,3,.2,1.3,1.3,0,0,1,1.1.9,2.92,2.92,0,0,1,.2.9v.4c0,.3.1.4.3.4s.3-.1.3-.2a7.72,7.72,0,0,0,.1-1l.1-.8a8,8,0,0,1,.1-1.1v-.3c0-.3-.2-.4-.5-.4a1.76,1.76,0,0,0-.6.1,5.13,5.13,0,0,0-1,.1l-2,.1c-.9,0-1.9.1-3.1.1-1.9,0-3.6-.1-4.9-.2-.4,0-.7-.1-1-.1s-.6.1-.6.4.1.3.4.3c.9,0,1.5.2,1.8.7a5.75,5.75,0,0,1,.5,2.8v13c0,1.1-.3,1.8-1,2l-.5.2c-.2.1-.4.2-.4.3s.2.3.5.3a2.25,2.25,0,0,0,.7-.1,26.14,26.14,0,0,1,3.5-.2,42.06,42.06,0,0,1,4.5.3c.5,0,.8.1,1.1.1a4.07,4.07,0,0,0,3.2-1.5,3.78,3.78,0,0,0,1-2.2C463.8,100,463.7,99.84,463.5,99.94Z"/><path class="a" d="M484.5,84a2,2,0,0,0-.7.1,5.72,5.72,0,0,1-1.4.1,18.58,18.58,0,0,1-2.6-.1h-.6c-.3,0-.4.1-.4.3s.1.3.4.4a3.42,3.42,0,0,1,2,.8,2.45,2.45,0,0,1,.7,1.7l.2,3.3v9c0,.2-.1.3-.2.3s-.2-.1-.4-.3l-13.2-14.9a.87.87,0,0,0-.7-.4h-2.5a.27.27,0,0,0-.3.3c0,.2.1.3.4.3a3,3,0,0,1,2.3,1.6,8.7,8.7,0,0,1,.8,3.9v9.7a4.09,4.09,0,0,1-.4,2.2,2.85,2.85,0,0,1-1.6,1.1c-.3.1-.4.2-.4.4s.2.3.4.3a1.09,1.09,0,0,0,.5-.1c.3,0,.7-.1,1.1-.1h.7l1.5.1a8.37,8.37,0,0,1,1.2.1h.4a.27.27,0,0,0,.3-.3c0-.2-.2-.3-.5-.4a2.8,2.8,0,0,1-1.5-.5c-.3-.2-.4-.7-.5-1.3V90.34q0-.6.3-.6c.1,0,.1,0,.2.1l.1.2,12.1,13.8.3.4a.37.37,0,0,0,.3.1c.2,0,.4-.1.4-.3s.1-.9.1-2V87.64a4.39,4.39,0,0,1,.3-1.9,1.76,1.76,0,0,1,1.2-.7c.2-.1.3-.1.3-.3C484.9,84.14,484.7,84,484.5,84Z"/><path class="a" d="M504,85.44a.92.92,0,0,0-1.2-1.2H487.5a.85.85,0,0,0-.6.2c-.1.1-.1.4-.1.9a14.92,14.92,0,0,1-.2,1.7,8.92,8.92,0,0,0-.2,1.1c0,.2.1.4.3.4s.3-.2.4-.5a4.34,4.34,0,0,1,.8-1.8,2.46,2.46,0,0,1,1.7-.5h3.8c.4,0,.6,0,.7.1a1,1,0,0,1,.2.7v14.6a2.5,2.5,0,0,1-.4,1.7,2.62,2.62,0,0,1-1.5.6c-.3,0-.5.1-.5.3s.1.3.4.3a5.81,5.81,0,0,0,1-.1h4.4a2.64,2.64,0,0,0,.7.1c.3,0,.4-.1.4-.3s-.2-.3-.5-.3a2.05,2.05,0,0,1-1.9-2V86.74a.8.8,0,0,1,1-1h4a3,3,0,0,1,1.6.3,1.76,1.76,0,0,1,.6,1.3c.1.3.2.5.3.4s.3-.2.3-.5a2.25,2.25,0,0,0-.1-.7A3.11,3.11,0,0,1,504,85.44Z"/><path class="a" d="M512.3,103.24a3.32,3.32,0,0,1-1.3-.4,2,2,0,0,1-.7-1,8.34,8.34,0,0,1-.2-2.7V88.34c0-2,.4-3.2,1.1-3.4l.7-.3c.2-.1.4-.2.4-.4s-.1-.3-.4-.3h-.4l-1,.1h-1.8a21.85,21.85,0,0,1-2.8-.1h-.3c-.3,0-.4.1-.4.3s.2.3.5.3a2.1,2.1,0,0,1,1.7.8,4.47,4.47,0,0,1,.4,2.4V100a6.24,6.24,0,0,1-.3,2.4c-.2.4-.7.6-1.4.8-.3,0-.4.2-.4.3s.1.3.4.3h.7l1.7-.1h2.1a5.76,5.76,0,0,1,1.5.1h.5c.3,0,.4-.1.4-.3S512.8,103.34,512.3,103.24Z"/><path class="a" d="M522,92.34c-1.8-.6-2.9-1-3.4-1.2a3.34,3.34,0,0,1-1.3-1.1,3.77,3.77,0,0,1-.7-2.1,2.9,2.9,0,0,1,1-2.3,3.74,3.74,0,0,1,2.6-.9,6,6,0,0,1,3.5,1,4.82,4.82,0,0,1,2.1,2.6c.2.5.3.7.5.7s.3-.1.3-.4a1.76,1.76,0,0,0-.1-.6l-.2-1.5c-.1-.8-.2-1.3-.2-1.4,0-.5-.1-.7-.4-.7-.1,0-.1,0-.2.1l-.2.2a.5.5,0,0,1-.6,0l-1-.4a6.77,6.77,0,0,0-2.6-.4,6.35,6.35,0,0,0-4.4,1.5,5.1,5.1,0,0,0-.4,7.2,11.61,11.61,0,0,0,4.5,2.4,13.83,13.83,0,0,1,3.7,1.6,3.51,3.51,0,0,1,1.3,2.7,3.65,3.65,0,0,1-1.4,2.8,4.79,4.79,0,0,1-3.3,1.2,6,6,0,0,1-3.6-1.2,5.91,5.91,0,0,1-2.2-3c-.1-.5-.3-.7-.5-.7s-.3.1-.3.4a5.35,5.35,0,0,0,.4,1.8,4.79,4.79,0,0,0,.4,1.3,3,3,0,0,0,.3,1c.1.1.2.3.3.4a5.84,5.84,0,0,0,1.9.7,11.21,11.21,0,0,0,2.4.3,7.56,7.56,0,0,0,5-1.7,5.48,5.48,0,0,0,1.9-4.4C527.3,95.44,525.5,93.54,522,92.34Z"/><path class="a" d="M546.4,85.44a.92.92,0,0,0-1.2-1.2H529.8a.85.85,0,0,0-.6.2,1.44,1.44,0,0,0-.2.9,14.92,14.92,0,0,1-.2,1.7,8.92,8.92,0,0,0-.2,1.1c0,.2.1.4.3.4s.3-.2.4-.5a4.34,4.34,0,0,1,.8-1.8,2.46,2.46,0,0,1,1.7-.5h3.8c.4,0,.6,0,.7.1a1,1,0,0,1,.2.7v14.6a2.5,2.5,0,0,1-.4,1.7,2.62,2.62,0,0,1-1.5.6c-.3,0-.5.1-.5.3s.1.3.4.3a5.81,5.81,0,0,0,1-.1h4.4a2.64,2.64,0,0,0,.7.1c.3,0,.4-.1.4-.3s-.2-.3-.5-.3a2.05,2.05,0,0,1-1.9-2V86.74a.8.8,0,0,1,1-1h4a3,3,0,0,1,1.6.3,1.76,1.76,0,0,1,.6,1.3c.1.3.2.5.3.4s.3-.2.3-.5a2.25,2.25,0,0,0-.1-.7A3.11,3.11,0,0,0,546.4,85.44Z"/><path class="a" d="M562.6,99.94q-.15,0-.3.3c-1.1,1.7-3.5,2.5-7.2,2.5a4.77,4.77,0,0,1-2.2-.3c-.3-.2-.4-.7-.4-1.5v-5.8a.85.85,0,0,1,.2-.6,2.22,2.22,0,0,1,.9-.1h3.2a3.42,3.42,0,0,1,1.7.3,2,2,0,0,1,.7,1.3l.1.4c0,.2.2.3.4.3s.3-.1.3-.4v-.4a9.7,9.7,0,0,1-.1-1.7,21.76,21.76,0,0,1,.1-2.5v-.3c0-.2-.1-.4-.3-.4s-.3.1-.4.3a4,4,0,0,1-.4,1.2,1.88,1.88,0,0,1-1,.4,14.36,14.36,0,0,1-2.4.2h-2.2c-.4,0-.7,0-.7-.1s-.1-.4-.1-.8v-5.8a1.33,1.33,0,0,1,.3-1,2.68,2.68,0,0,1,1.1-.2h2.2a17,17,0,0,1,3,.2,1.44,1.44,0,0,1,1.1.9,2.92,2.92,0,0,1,.2.9v.4c0,.3.1.4.3.4s.3-.1.3-.2a7.72,7.72,0,0,0,.1-1l.1-.8a8,8,0,0,1,.1-1.1v-.3c0-.3-.2-.4-.5-.4a1.76,1.76,0,0,0-.6.1,5.13,5.13,0,0,0-1,.1l-2,.1c-.9,0-1.9.1-3.1.1-1.9,0-3.6-.1-4.9-.2-.4,0-.7-.1-1-.1s-.6.1-.6.4.1.3.4.3c.9,0,1.5.2,1.8.7a5.75,5.75,0,0,1,.5,2.8v13c0,1.1-.3,1.8-1,2l-.5.2c-.2.1-.4.2-.4.3s.2.3.5.3a2.25,2.25,0,0,0,.7-.1,26.14,26.14,0,0,1,3.5-.2,42.06,42.06,0,0,1,4.5.3c.5,0,.8.1,1.1.1a4.07,4.07,0,0,0,3.2-1.5,3.78,3.78,0,0,0,1-2.2C562.8,100,562.8,99.84,562.6,99.94Z"/><path class="a" d="M583.5,84a2,2,0,0,0-.7.1,5.72,5.72,0,0,1-1.4.1,18.58,18.58,0,0,1-2.6-.1h-.6c-.3,0-.4.1-.4.3s.1.3.4.4a3.42,3.42,0,0,1,2,.8,2.45,2.45,0,0,1,.7,1.7l.2,3.3v9c0,.2-.1.3-.2.3s-.2-.1-.4-.3l-13.2-14.9a.87.87,0,0,0-.7-.4h-2.5a.27.27,0,0,0-.3.3c0,.2.1.3.4.3a3,3,0,0,1,2.3,1.6,8.7,8.7,0,0,1,.8,3.9v9.7a4.09,4.09,0,0,1-.4,2.2,2.85,2.85,0,0,1-1.6,1.1c-.3.1-.4.2-.4.4s.2.3.4.3a1.09,1.09,0,0,0,.5-.1c.3,0,.7-.1,1.1-.1h.7l1.5.1a8.37,8.37,0,0,1,1.2.1h.4a.27.27,0,0,0,.3-.3c0-.2-.2-.3-.5-.4a2.8,2.8,0,0,1-1.5-.5c-.3-.2-.4-.7-.5-1.3V90.34q0-.6.3-.6c.1,0,.1,0,.2.1l.1.2,12.1,13.8.3.4a.37.37,0,0,0,.3.1c.2,0,.4-.1.4-.3s.1-.9.1-2V87.64a4.39,4.39,0,0,1,.3-1.9,1.76,1.76,0,0,1,1.2-.7c.2-.1.3-.1.3-.3C583.9,84.14,583.8,84,583.5,84Z"/><path class="a" d="M154.6,71.94h.5c.4,0,.6-.1.6-.4s-.1-.3-.4-.4l-.9-.2a7.17,7.17,0,0,1-3.5-2.1l-10.2-10.5c-.3-.4-.5-.6-.5-.8s.2-.4.4-.6l6.6-6c3.3-3,5.5-4.6,6.7-4.9.6-.2.9-.3.9-.5s-.2-.4-.6-.4a1.76,1.76,0,0,0-.6.1c-.3,0-.8.1-1.6.1h-3.3a9.72,9.72,0,0,1-1.8-.1h-.5c-.4,0-.6.1-.6.4s.3.4.9.5c.9.2,1.4.5,1.4,1.1s-.6,1.6-1.9,2.7l-8.3,7.5-.3.2-.3.2c-.1,0-.2-.1-.2-.4v-7.6a7.16,7.16,0,0,1,.3-2.6,3.25,3.25,0,0,1,1.5-1.2c.3-.1.5-.3.5-.5s-.2-.4-.5-.4a4.4,4.4,0,0,0-.9.1h-3.2a25.46,25.46,0,0,1-3.1-.1c-.3,0-.5-.1-.7-.1s-.5.1-.5.4.2.3.5.4l1,.2a2.35,2.35,0,0,1,1.7,1.1,6.85,6.85,0,0,1,.4,2.9v16.5a9.59,9.59,0,0,1-.5,3.5,1.75,1.75,0,0,1-1.7,1.1c-.4,0-.6.2-.6.4s.2.5.6.5a8.33,8.33,0,0,0,1.2-.1h4.1a12.89,12.89,0,0,1,2.3.1,7.72,7.72,0,0,1,1,.1c.3,0,.5-.1.5-.4s-.2-.3-.6-.4a4.61,4.61,0,0,1-2.8-1.1,5.17,5.17,0,0,1-.6-3v-7.1c0-.3.1-.4.3-.4s.3.1.5.2l.4.4L148.6,71l.3.4a1.61,1.61,0,0,0,1.1.5h2.6A11.83,11.83,0,0,1,154.6,71.94Z"/><path class="a" d="M163,71.84h.5c.3,0,.4-.1.4-.3s-.2-.3-.7-.4a3.32,3.32,0,0,1-1.3-.4,2,2,0,0,1-.7-1A8.34,8.34,0,0,1,161,67V56.34c0-2,.4-3.2,1.1-3.4l.7-.3c.2-.1.4-.2.4-.4s-.1-.3-.4-.3h-.4l-1,.1h-1.8a21.85,21.85,0,0,1-2.8-.1h-.3c-.3,0-.4.1-.4.3s.2.3.5.3a2.1,2.1,0,0,1,1.7.8,4.47,4.47,0,0,1,.4,2.4V68a6.24,6.24,0,0,1-.3,2.4c-.2.4-.7.6-1.4.8-.3,0-.4.2-.4.3s.1.3.4.3h.7l1.7-.1h2.1A9.88,9.88,0,0,0,163,71.84Z"/><path class="a" d="M166.2,52.74l.7.1c1,.2,1.6,1,1.6,2.5v11.8a7.6,7.6,0,0,1-.4,3.2,1.73,1.73,0,0,1-1.5,1c-.2,0-.4.1-.4.3s.1.3.4.3a3.22,3.22,0,0,0,.8-.1c.5,0,.8-.1,1.2-.1h2.1a8.66,8.66,0,0,1,1.8.1,5.38,5.38,0,0,1,.8.1c.3,0,.5-.1.5-.3s-.2-.3-.5-.3a3.85,3.85,0,0,1-1.9-.6,1.56,1.56,0,0,1-.6-.8,7.16,7.16,0,0,1-.1-1.7v-5.1a.76.76,0,0,1,.2-.5l.3-.1h1.9a1.15,1.15,0,0,1,1.1.6l.2.3,3.6,5.4a8,8,0,0,0,2.1,2.3,3.89,3.89,0,0,0,2.3.7,5.9,5.9,0,0,0,1.4-.2c.4-.1.6-.2.6-.4a.22.22,0,0,0-.2-.2h-.5c-1-.1-2.2-1-3.4-2.8l-.5-.7-4-5.8c2.4-1.2,3.5-2.8,3.5-5a4.39,4.39,0,0,0-1.7-3.7,8.58,8.58,0,0,0-5-1.2,14.09,14.09,0,0,0-2,.1c-1.1.1-1.8.1-2.2.1h-1.3a5.85,5.85,0,0,1-1-.1c-.3,0-.5.1-.5.3S165.9,52.64,166.2,52.74Zm4.7.5a1.74,1.74,0,0,1,1.2-.3,5.08,5.08,0,0,1,3.7,1.3,4.33,4.33,0,0,1,1.5,3.4,3.76,3.76,0,0,1-1.1,2.8,4,4,0,0,1-3,1h-1.6a1.29,1.29,0,0,1-.8-.2,1.44,1.44,0,0,1-.2-.9V54A1.33,1.33,0,0,1,170.9,53.24Z"/><path class="a" d="M202,69.24l.1-.3.3-1.8.1-.3v-.2c0-.2-.1-.3-.2-.3s-.3.3-.6.8a6.56,6.56,0,0,1-2.9,2.8,8.25,8.25,0,0,1-4.2,1.1,7.22,7.22,0,0,1-6-2.8,10.84,10.84,0,0,1-2.3-7.3,8.53,8.53,0,0,1,2.1-6.1,7.47,7.47,0,0,1,5.8-2.2c3.1,0,5.5,1.6,7.3,4.7.2.4.4.6.5.6a.35.35,0,0,0,.2-.1v-.5l-.5-3.4c0-.4-.1-.5-.3-.5s-.2.1-.4.2a.31.31,0,0,1-.2.1l-.2-.1-.2-.1-.6-.3a11.62,11.62,0,0,0-5.6-1.4,9.73,9.73,0,0,0-7.3,3,10.26,10.26,0,0,0-2.9,7.4,9.42,9.42,0,0,0,2.8,7.2,10.37,10.37,0,0,0,7.4,2.7,13.24,13.24,0,0,0,7.3-2.1C201.8,69.74,202,69.54,202,69.24Z"/><path class="a" d="M212.2,71.64c0-.2-.2-.3-.5-.4a2.74,2.74,0,0,1-1.8-.7,3.58,3.58,0,0,1-.5-2.1v-5.3a1.29,1.29,0,0,1,.2-.8,1.86,1.86,0,0,1,1-.2H219c.5,0,.8,0,.9.1s.1.3.1.8v5.9c0,1.5-.5,2.3-1.5,2.5-.3,0-.5.2-.5.3a.27.27,0,0,0,.3.3,5.81,5.81,0,0,0,1-.1h2.9a4.55,4.55,0,0,1,1.4.1,5.64,5.64,0,0,1,.7.1c.3,0,.4-.1.4-.3s-.2-.2-.5-.3c-.8-.1-1.4-.3-1.6-.7a3.69,3.69,0,0,1-.4-2.1V54.94a2.77,2.77,0,0,1,.3-1.3c.2-.4.4-.6.7-.6l.6-.1a.3.3,0,1,0,0-.6,1.09,1.09,0,0,0-.5.1,11,11,0,0,1-2.1.1,12.75,12.75,0,0,1-2-.1c-.4,0-.8-.1-1-.1a.52.52,0,0,0-.4.2c0,.2.1.3.4.3a2.37,2.37,0,0,1,1.4.8,3.69,3.69,0,0,1,.4,2.1v4.9a.59.59,0,0,1-.2.5c-.1.1-.4.1-.8.1h-8.4a2.33,2.33,0,0,1-1.1-.2,1.6,1.6,0,0,1-.2-1v-5.1a2.81,2.81,0,0,1,.3-1.5,2.21,2.21,0,0,1,1.3-.7c.3-.1.4-.2.4-.3s-.1-.3-.4-.3a1.76,1.76,0,0,0-.6.1,11.49,11.49,0,0,1-1.9.1,20.13,20.13,0,0,1-2.6-.1c-.4,0-.7-.1-.9-.1s-.4.1-.4.3.1.3.4.3a3,3,0,0,1,1.7.7,3,3,0,0,1,.5,1.8v12.3a16,16,0,0,1-.2,2.8c-.2.5-.4.9-.9.9l-.7.2c-.2.1-.4.2-.4.3s.1.3.4.3a4.4,4.4,0,0,0,.9-.1h3a6.25,6.25,0,0,1,1.7.1,5.64,5.64,0,0,1,.7.1C212,71.94,212.2,71.84,212.2,71.64Z"/><path class="a" d="M238,72a4.07,4.07,0,0,0,3.2-1.5,3.78,3.78,0,0,0,1-2.2c0-.3-.1-.4-.3-.4s-.2.1-.3.3c-1.1,1.7-3.5,2.5-7.2,2.5a4.77,4.77,0,0,1-2.2-.3c-.3-.2-.4-.7-.4-1.5v-5.8a.85.85,0,0,1,.2-.6,2.22,2.22,0,0,1,.9-.1h3.2a3.42,3.42,0,0,1,1.7.3,2,2,0,0,1,.7,1.3l.1.4c0,.2.2.3.4.3s.3-.1.3-.4v-.4a9.7,9.7,0,0,1-.1-1.7,21.76,21.76,0,0,1,.1-2.5v-.3c0-.2-.1-.4-.3-.4s-.3.1-.4.3a4,4,0,0,1-.4,1.2,1.88,1.88,0,0,1-1,.4,14.36,14.36,0,0,1-2.4.2h-2.2c-.4,0-.7,0-.7-.1s-.1-.4-.1-.8v-5.8a1.33,1.33,0,0,1,.3-1,2.68,2.68,0,0,1,1.1-.2h2.2a17,17,0,0,1,3,.2,1.3,1.3,0,0,1,1.1.9,2.92,2.92,0,0,1,.2.9v.4c0,.3.1.4.3.4s.3-.1.3-.2a7.72,7.72,0,0,0,.1-1l.1-.8a8,8,0,0,1,.1-1.1v-.3c0-.3-.2-.4-.5-.4a1.76,1.76,0,0,0-.6.1,5.13,5.13,0,0,0-1,.1l-2,.1c-.9,0-1.9.1-3.1.1-1.9,0-3.6-.1-4.9-.2-.4,0-.7-.1-1-.1s-.6.1-.6.4.1.3.4.3c.9,0,1.5.2,1.8.7a5.75,5.75,0,0,1,.5,2.8v13c0,1.1-.3,1.8-1,2l-.5.2c-.2.1-.4.2-.4.3s.2.3.5.3a2.25,2.25,0,0,0,.7-.1,26.14,26.14,0,0,1,3.5-.2,42.06,42.06,0,0,1,4.5.3A2,2,0,0,1,238,72Z"/><path class="a" d="M254.8,47a5.36,5.36,0,0,1,.7,2.9v17.5a6.56,6.56,0,0,1-.4,2.9,2.37,2.37,0,0,1-1.7,1c-.4.1-.5.2-.5.4s.2.5.7.4c.3,0,.6-.1,1.1-.1a35.3,35.3,0,0,1,3.6-.2c1.3,0,2.8.1,4.5.2a15.15,15.15,0,0,0,9.6-2.1,12,12,0,0,0,4.4-4.8,13.82,13.82,0,0,0,1.6-6.7,12.59,12.59,0,0,0-3.6-9.3c-2.7-2.7-6.6-4-11.9-4a21.75,21.75,0,0,0-2.6.1l-1.8.2a24.52,24.52,0,0,1-3,.1h-1.4l-1.5-.1c-.3,0-.5.1-.5.4s.2.4.6.4A2.06,2.06,0,0,1,254.8,47Zm3.6,1.3a2.17,2.17,0,0,1,.5-1.6,7.8,7.8,0,0,1,3.9-.7,11.72,11.72,0,0,1,7.3,2.2A13.31,13.31,0,0,1,274,53a16.39,16.39,0,0,1,1.4,6.7c0,4.5-1.5,7.6-4.5,9.5a11.32,11.32,0,0,1-6,1.7,15.73,15.73,0,0,1-2.7-.3,12,12,0,0,1-2.6-.7,1.59,1.59,0,0,1-1.2-1.6v-20Z"/><path class="a" d="M281.4,52.64c.9,0,1.5.2,1.8.7a5.75,5.75,0,0,1,.5,2.8v13c0,1.1-.3,1.8-1,2l-.5.2c-.2.1-.4.2-.4.3s.2.3.5.3a2.25,2.25,0,0,0,.7-.1,26.14,26.14,0,0,1,3.5-.2,42.06,42.06,0,0,1,4.5.3c.5,0,.8.1,1.1.1a4.07,4.07,0,0,0,3.2-1.5,3.78,3.78,0,0,0,1-2.2c0-.3-.1-.4-.3-.4s-.2.1-.3.3c-1.1,1.7-3.5,2.5-7.2,2.5a4.77,4.77,0,0,1-2.2-.3c-.3-.2-.4-.7-.4-1.5v-5.8a.85.85,0,0,1,.2-.6,2.22,2.22,0,0,1,.9-.1h3.2a3.42,3.42,0,0,1,1.7.3,2,2,0,0,1,.7,1.3l.1.4c0,.2.2.3.4.3s.3-.1.3-.4v-.4a9.7,9.7,0,0,1-.1-1.7,21.76,21.76,0,0,1,.1-2.5v-.3c0-.2-.1-.4-.3-.4s-.3.1-.4.3a4,4,0,0,1-.4,1.2,1.88,1.88,0,0,1-1,.4,14.36,14.36,0,0,1-2.4.2h-2.2c-.4,0-.7,0-.7-.1s-.1-.4-.1-.8v-5.8a1.33,1.33,0,0,1,.3-1,2.68,2.68,0,0,1,1.1-.2h2.2a17,17,0,0,1,3,.2,1.3,1.3,0,0,1,1.1.9,2.92,2.92,0,0,1,.2.9v.4c0,.3.1.4.3.4s.3-.1.3-.2a7.72,7.72,0,0,0,.1-1l.1-.8a8,8,0,0,1,.1-1.1v-.3c0-.3-.2-.4-.5-.4a1.76,1.76,0,0,0-.6.1,5.13,5.13,0,0,0-1,.1l-2,.1c-.9,0-1.9.1-3.1.1-1.9,0-3.6-.1-4.9-.2-.4,0-.7-.1-1-.1s-.6.1-.6.4C281,52.54,281.1,52.64,281.4,52.64Z"/><path class="a" d="M298.5,52.74l.7.1c1,.2,1.6,1,1.6,2.5v11.8a7.6,7.6,0,0,1-.4,3.2,1.73,1.73,0,0,1-1.5,1c-.2,0-.4.1-.4.3s.1.3.4.3a3.22,3.22,0,0,0,.8-.1c.5,0,.8-.1,1.2-.1H303a8.66,8.66,0,0,1,1.8.1,5.38,5.38,0,0,1,.8.1c.3,0,.5-.1.5-.3s-.2-.3-.5-.3a3.85,3.85,0,0,1-1.9-.6,1.56,1.56,0,0,1-.6-.8,7.16,7.16,0,0,1-.1-1.7v-5.1a.76.76,0,0,1,.2-.5l.3-.1h1.9a1.15,1.15,0,0,1,1.1.6l.2.3,3.6,5.4a8,8,0,0,0,2.1,2.3,3.89,3.89,0,0,0,2.3.7,5.9,5.9,0,0,0,1.4-.2c.4-.1.6-.2.6-.4a.22.22,0,0,0-.2-.2H316c-1-.1-2.2-1-3.4-2.8l-.5-.7-4-5.8c2.4-1.2,3.5-2.8,3.5-5a4.39,4.39,0,0,0-1.7-3.7,8.58,8.58,0,0,0-5-1.2,14.09,14.09,0,0,0-2,.1c-1.1.1-1.8.1-2.2.1h-1.3a5.85,5.85,0,0,1-1-.1c-.3,0-.5.1-.5.3S298.2,52.64,298.5,52.74Zm4.7.5a1.74,1.74,0,0,1,1.2-.3,5.08,5.08,0,0,1,3.7,1.3,4.33,4.33,0,0,1,1.5,3.4,3.76,3.76,0,0,1-1.1,2.8,4,4,0,0,1-3,1h-1.6a1.29,1.29,0,0,1-.8-.2,1.44,1.44,0,0,1-.2-.9V54A1.33,1.33,0,0,1,303.2,53.24Z"/><path class="a" d="M37.5,80.44l-23.8,4.2L0,103.64l32.9-5.8c9.9-1.7,18.5-2,21.2,5.8V90.74H47.6v-4.4h6.5v-.4C54.1,81.34,52,77.94,37.5,80.44Z"/><path class="a" d="M75.1,80.44l-5.3,5.3c-7.5,7.5-11.2,11.8-11.2,18,2.9-8.2,11.9-7.5,22.7-5.4l31.6,5.5-13.7-19Z"/><path class="a" d="M70.4,73.64c-2.9,2.9-8,7.6-10.4,12.7h5.3l6.1-6.1c5.6-5.6,9.9-9.9,11.8-15.3a19.44,19.44,0,0,0,1-9.8,6,6,0,0,0-.6-2.3c-.5,6.1-2.2,9.8-11.1,18.6Z"/><path class="a" d="M53.8,36.14c3.3-3.2,11.5-10.6,11.5-17V12c0-.1-.1,0-.1,0-.6,4.8-1.7,6.8-13.3,18.4L40.4,41.94c-6.1,6.1-11,12.5-10.4,19.8.4,4.1,1.7,6.3,2.6,6.9.4.3.3.1.2-.2-3.5-7.9,4.8-16.1,9-20.3Z"/><path class="a" d="M65.3,24.14c0-.1-.1,0-.1,0-.6,4.8-1.7,6.8-13.3,18.4L41.2,53.24c-3.9,3.9-7.4,7.9-7.3,14.5.1,4,2.1,7.3,5.2,8.1,1.2.3,1.2.1.9,0-4.3-2-4-9.8,3-16.7l10.9-10.9c3.3-3.2,11.5-10.6,11.5-17v-7.1Z"/><path class="a" d="M29.3,56.14c.5-6.1,2.2-9.8,11.1-18.6l13.4-13.4c3.3-3.2,11.5-10.6,11.5-17V0c0-.1-.1,0-.1,0-.6,4.8-1.7,6.8-13.3,18.4L41.5,28.84c-5.6,5.6-9.9,9.9-11.8,15.3a19.44,19.44,0,0,0-1,9.8A5.87,5.87,0,0,0,29.3,56.14Z"/><path class="a" d="M58.6,97.84c0,.1.1.1.2,0a15.19,15.19,0,0,1,2.8-7H58.7v7Z"/><path class="a" d="M72.5,59.44l-3.4,3.4c-5.2,5.2-10.5,11-10.5,16.3v7.1c0,.1.1.1.2,0,.6-5.2,3.1-8.6,10.6-16.1L72.5,67c6.1-6.1,11-12.5,10.4-19.8-.4-4.1-1.7-6.3-2.6-6.9-.4-.3-.3-.1-.2.2C83.6,48.44,75.2,56.74,72.5,59.44Z"/><path class="a" d="M58.6,73.94c0,.1.1.1.1,0,.6-5,3.4-8.7,9.9-15.2l3.1-3.1c3.9-3.9,7.4-7.9,7.2-14.5-.1-4-2.1-7.3-5.2-8.1-1.2-.3-1.2-.1-.9,0,4.3,2,4,9.8-3,16.7L66,53.54c-2.5,2.5-7.5,8-7.5,13.1v7.3Z"/><path class="a" d="M112.5,89.14a3,3,0,0,0-2.3,1.1,2.88,2.88,0,0,0-.7,2,3.06,3.06,0,0,0,.7,2,3,3,0,0,0,2.3,1.1,3.08,3.08,0,0,0,3-3,2.72,2.72,0,0,0-.9-2.1A2.26,2.26,0,0,0,112.5,89.14Zm1.9,4.9a2.66,2.66,0,1,1,.8-1.9A2.73,2.73,0,0,1,114.4,94Z"/><path class="a" d="M114.2,93.64c-.2,0-.4-.2-.6-.5l-.1-.1-.7-1a1,1,0,0,0,.6-.9q0-.9-1.2-.9H111c-.1,0-.1,0-.1.1a.1.1,0,0,0,.1.1h.1c.2,0,.3.2.3.4v2.1c0,.3,0,.5-.1.5s-.1.1-.3.2-.1,0-.1.1,0,.1.1.1h1.2c.1,0,.1,0,.1-.1s0-.1-.1-.1-.3-.1-.4-.1-.1-.2-.1-.4v-.9h.3c.1,0,.1,0,.2.1v.1l.6,1a.82.82,0,0,0,.8.5c.3,0,.4,0,.4-.1.3-.1.3-.1.2-.2ZM112.3,92h-.4v-1.2a.22.22,0,0,1,.2-.2,1.42,1.42,0,0,1,.6.2c.2.1.2.3.2.5C113,91.74,112.8,92,112.3,92Z"/><path class="a" d="M590.9,81.84a2.88,2.88,0,0,0-2.1-.9,3,3,0,0,0-2.3,1.1,2.88,2.88,0,0,0-.7,2,3.06,3.06,0,0,0,.7,2,3,3,0,0,0,2.3,1.1,3.08,3.08,0,0,0,3-3A3,3,0,0,0,590.9,81.84Zm-.3,4a2.66,2.66,0,1,1,.8-1.9A2.24,2.24,0,0,1,590.6,85.84Z"/><path class="a" d="M590.5,85.54c-.2,0-.4-.2-.6-.5l-.1-.1-.7-1a1,1,0,0,0,.6-.9q0-.9-1.2-.9h-1.2c-.1,0-.1,0-.1.1a.1.1,0,0,0,.1.1h.1c.2,0,.3.2.3.4v2.1c0,.3,0,.5-.1.5s-.1.1-.3.2-.1,0-.1.1,0,.1.1.1h1.2c.1,0,.1,0,.1-.1s0-.1-.1-.1-.3-.1-.4-.1-.1-.2-.1-.4V84h.3c.1,0,.1,0,.2.1v.1l.6,1a.82.82,0,0,0,.8.5c.3,0,.4,0,.4-.1.3-.1.3-.1.2-.1Zm-1.9-1.7h-.4v-1.2a.22.22,0,0,1,.2-.2,1.42,1.42,0,0,1,.6.2c.2.1.2.3.2.5C589.3,83.64,589,83.84,588.6,83.84Z"/></svg>