<svg xmlns="http://www.w3.org/2000/svg" viewBox="0 0 469.4 302.87"><defs><style>.a{fill:#fff;}</style></defs><title>Asset 1</title><path class="a" d="M119.3,184.57l1.3.3a3,3,0,0,1,2.3,1.5,8.69,8.69,0,0,1,.6,3.9v22.1a12.31,12.31,0,0,1-.6,4.6,2.55,2.55,0,0,1-2.2,1.5c-.5,0-.8.2-.8.5s.3.6.9.6c.1,0,.6,0,1.6-.1h1.4l1.8-.1h2.1a23.72,23.72,0,0,1,3.1.1,9.51,9.51,0,0,0,1.4.1c.4,0,.6-.1.6-.5s-.3-.5-.8-.5c-1.9-.3-3.2-.8-3.7-1.4s-.8-2-.8-3.9v-9.5c0-.4.2-.6.5-.6a.86.86,0,0,1,.6.3l.5.6,13.9,14.4.4.5a1.8,1.8,0,0,0,1.5.7,5.74,5.74,0,0,0,1.2-.1c.5,0,1.2-.1,2.3-.1a10.45,10.45,0,0,1,2.2.1h.6c.5,0,.8-.2.8-.6s-.2-.4-.6-.5l-1.1-.2a8.63,8.63,0,0,1-4.7-2.8l-13.5-14.1c-.4-.5-.6-.8-.6-1.1s.2-.5.6-.8l8.9-8q6.6-6,9-6.6c.8-.2,1.3-.4,1.2-.7s-.3-.5-.8-.5a3.22,3.22,0,0,0-.8.1c-.3,0-1.1.1-2.2.1h-1.9l-2.4-.1a17.72,17.72,0,0,1-2.4-.1H140c-.5,0-.8.2-.8.5s.4.5,1.2.7c1.2.2,1.9.7,1.9,1.5s-.9,2.1-2.6,3.7l-11.1,10-.4.3-.4.3c-.2,0-.2-.2-.2-.5v-10.1a9,9,0,0,1,.4-3.5,4.12,4.12,0,0,1,2.1-1.6q.6-.3.6-.6c0-.3-.2-.5-.6-.5a7.5,7.5,0,0,0-1.2.1h-1.3l-1.9.1h-1a38.74,38.74,0,0,1-4.2-.2,3.44,3.44,0,0,0-.9-.1c-.5,0-.7.2-.7.5C118.6,184.28,118.8,184.47,119.3,184.57Z"/><path class="a" d="M159.5,207.07l.4-.1h2.6a1.65,1.65,0,0,1,1.5.8l.3.4,4.8,7.3a12.5,12.5,0,0,0,2.8,3.1,5.71,5.71,0,0,0,3.1,1,11.08,11.08,0,0,0,1.9-.2c.6-.2.8-.3.9-.5a.27.27,0,0,0-.3-.3h-.6c-1.4-.1-2.9-1.3-4.6-3.8l-.6-.9-5.3-7.9c3.2-1.6,4.8-3.8,4.8-6.7a5.87,5.87,0,0,0-2.3-5c-1.5-1.1-3.7-1.7-6.7-1.7a26.23,26.23,0,0,0-2.7.1c-1.4.1-2.4.1-3,.1a8.12,8.12,0,0,1-1.7-.1,10.33,10.33,0,0,0-1.4-.1c-.4,0-.7.1-.7.4s.2.4.6.5l.9.1c1.4.2,2.1,1.4,2.1,3.4v15.9a13.67,13.67,0,0,1-.5,4.4,2.58,2.58,0,0,1-2,1.4c-.3.1-.5.2-.5.4s.2.4.5.4a4.59,4.59,0,0,0,1-.1,9.15,9.15,0,0,1,1.6-.1h2.9a17,17,0,0,1,2.5.1,6.61,6.61,0,0,0,1.1.1c.5,0,.7-.1.6-.4s-.2-.4-.7-.4a5.32,5.32,0,0,1-2.6-.8,2.1,2.1,0,0,1-.8-1.1,10.56,10.56,0,0,1-.2-2.3v-6.9C159.3,207.38,159.3,207.07,159.5,207.07Zm-.3-11.4a1.81,1.81,0,0,1,.4-1.4,2.2,2.2,0,0,1,1.6-.4,7.14,7.14,0,0,1,5,1.8,6.13,6.13,0,0,1,2,4.6,4.9,4.9,0,0,1-1.5,3.8,5.72,5.72,0,0,1-4,1.4h-2.2a2,2,0,0,1-1.1-.2c-.2-.2-.2-.5-.2-1.2v-8.4Z"/><path class="a" d="M186.5,190.28a2.51,2.51,0,0,0,1,.2,2,2,0,0,0,.9-.2,2.44,2.44,0,0,0,.8-.9l1.7-2.2.7-.8a1.69,1.69,0,0,0,.2-.5.54.54,0,0,0-.3-.4,1,1,0,0,0-.7-.2q-.3,0-.9.9c-1,1.5-1.6,2.3-1.9,2.3-.1,0-.2-.1-.4-.3l-.6-.6-.8-.9-.7-.7-.4-.5a.86.86,0,0,0-.6-.3,1.76,1.76,0,0,0-.6.1l-.9.3c-.4.1-.6.3-.5.5a5.56,5.56,0,0,0,1.1,1.3l1.8,2A10.92,10.92,0,0,0,186.5,190.28Z"/><path class="a" d="M191.8,216.67a6.86,6.86,0,0,1-4.5,1.6,8,8,0,0,1-4.9-1.6,7.09,7.09,0,0,1-2.9-4q-.3-.9-.6-.9c-.3,0-.4.2-.4.6a13.18,13.18,0,0,0,.5,2.5c.3,1.1.5,1.7.5,1.8a8.67,8.67,0,0,1,.3,1.3,1.18,1.18,0,0,0,.5.5,8.27,8.27,0,0,0,2.6,1,13.47,13.47,0,0,0,3.3.4,10.36,10.36,0,0,0,6.8-2.3,7.27,7.27,0,0,0,2.6-5.9c0-3.6-2.4-6.1-7.1-7.7a47.56,47.56,0,0,1-4.6-1.7,4.73,4.73,0,0,1-1.7-1.5,4.47,4.47,0,0,1-.9-2.8,4.26,4.26,0,0,1,1.4-3.1,5.13,5.13,0,0,1,3.5-1.2,9.23,9.23,0,0,1,4.8,1.4,6.32,6.32,0,0,1,2.8,3.5q.3.9.6.9c.3,0,.4-.2.4-.6a3.22,3.22,0,0,0-.1-.8l-.3-2a15.65,15.65,0,0,1-.3-2c0-.6-.2-1-.5-.9-.1,0-.2,0-.2.1l-.3.2c-.2.1-.3.2-.5.2a.37.37,0,0,1-.3-.1L191,193a9.15,9.15,0,0,0-3.5-.6,9,9,0,0,0-6,2,6.79,6.79,0,0,0-.5,9.7c1.2,1.2,3.2,2.2,6.1,3.2a18.55,18.55,0,0,1,5,2.1,4.75,4.75,0,0,1,1.7,3.6A5.71,5.71,0,0,1,191.8,216.67Z"/><path class="a" d="M198.7,206.28a13,13,0,0,0,3.8,9.7c2.5,2.5,5.9,3.7,10,3.7a17.53,17.53,0,0,0,9.8-2.8c.6-.4.9-.7.9-1l.1-.3.4-2.4.1-.4v-.2c0-.3-.1-.4-.3-.4s-.4.4-.8,1a9,9,0,0,1-3.9,3.8,12.3,12.3,0,0,1-5.7,1.6,10.14,10.14,0,0,1-8.1-3.8,15.09,15.09,0,0,1-3.2-9.9c0-3.5.9-6.3,2.8-8.3a10.25,10.25,0,0,1,7.8-3c4.1,0,7.4,2.1,9.8,6.3.3.6.5.8.7.8s.2-.1.3-.2l.1-.2-.1-.5-.6-4.6c-.1-.5-.2-.7-.4-.7a1.55,1.55,0,0,0-.6.3c-.1.1-.2.2-.3.2l-.3-.1-.3-.1-.8-.4a16,16,0,0,0-7.5-1.8,13.11,13.11,0,0,0-9.9,4A13,13,0,0,0,198.7,206.28Z"/><path class="a" d="M244.2,218.47l-.6.1c-.3.1-.5.2-.5.4s.2.4.5.4a1.76,1.76,0,0,0,.6-.1,25.66,25.66,0,0,1,3.4-.1,32.41,32.41,0,0,1,3.6.1h.7c.3,0,.5-.1.5-.3s-.2-.4-.6-.5a4.59,4.59,0,0,1-2.4-.9,10.26,10.26,0,0,1-1.5-2.9l-.4-1-8.3-21.3c-.1-.4-.3-.6-.5-.6s-.4.2-.6.6l-9.9,22.1-.6,1.3a6.19,6.19,0,0,1-1.1,1.7c-.4.5-.8.9-1,.9l-.7.2c-.2.1-.3.2-.3.4a.46.46,0,0,0,.5.4,7.47,7.47,0,0,0,1.1-.1h3l1.9.1h.7c.4,0,.6-.1.5-.3s-.2-.4-.6-.5a3.9,3.9,0,0,1-1.8-.7,1.73,1.73,0,0,1-.5-1.3,8.11,8.11,0,0,1,.9-2.9l1.3-2.8a6.13,6.13,0,0,1,.9-1.6c.2-.2.8-.2,1.8-.2h7a2.75,2.75,0,0,1,1.3.2q.3.15.6,1.2l1,2.6a14.19,14.19,0,0,1,1.2,4.1C245.1,217.88,244.8,218.38,244.2,218.47Zm-3.7-11.2h-6.3c-.6,0-.9-.2-.9-.5a1.74,1.74,0,0,1,.3-.7l3.8-8.4c.1-.3.2-.4.3-.4s.3.2.5.6l.2.4,3,7.7.1.3a1,1,0,0,1,.1.4C241.5,207.07,241.1,207.28,240.5,207.28Z"/><path class="a" d="M258,200.78c0-.6.1-.9.4-.9a.37.37,0,0,1,.3.1l.2.2,16.3,18.6.4.5a.76.76,0,0,0,.4.2c.3,0,.5-.1.5-.5a15,15,0,0,0,.1-2.7v-19.5a4.9,4.9,0,0,1,.4-2.5,2.36,2.36,0,0,1,1.6-1c.3-.1.4-.2.4-.4s-.2-.4-.5-.4a3.44,3.44,0,0,0-.9.1,10.32,10.32,0,0,1-1.9.1c-1.5,0-2.7,0-3.6-.1-.4,0-.6-.1-.8-.1-.4,0-.6.1-.6.4s.2.4.6.5a6.88,6.88,0,0,1,2.8,1,4.11,4.11,0,0,1,1,2.3l.2,4.4v12.2c0,.2-.1.4-.2.4s-.3-.1-.5-.5l-18-20a1.22,1.22,0,0,0-1-.6h-3.4c-.3,0-.4.1-.4.4a.46.46,0,0,0,.5.4,4.1,4.1,0,0,1,3.1,2.2,11,11,0,0,1,1.1,5.3v13.2a5.62,5.62,0,0,1-.6,3,4.26,4.26,0,0,1-2.2,1.5c-.4.1-.6.3-.5.5a.46.46,0,0,0,.5.4,2.25,2.25,0,0,0,.7-.1,6.6,6.6,0,0,1,1.4-.1h.9l2,.1a16,16,0,0,0,1.7.1h.6c.3,0,.4-.1.4-.4s-.2-.4-.6-.5a5.61,5.61,0,0,1-2.1-.7,3,3,0,0,1-.7-1.8l-.1-1.4v-13.9Z"/><path class="a" d="M296.5,217.38a7.27,7.27,0,0,0,2.6-5.9c0-3.6-2.4-6.1-7.1-7.7a47.56,47.56,0,0,1-4.6-1.7,4.73,4.73,0,0,1-1.7-1.5,4.47,4.47,0,0,1-.9-2.8,4.26,4.26,0,0,1,1.4-3.1,5.13,5.13,0,0,1,3.5-1.2,9.23,9.23,0,0,1,4.8,1.4,6.32,6.32,0,0,1,2.8,3.5q.3.9.6.9c.3,0,.4-.2.4-.6a3.22,3.22,0,0,0-.1-.8l-.3-2a15.65,15.65,0,0,1-.3-2c0-.6-.2-1-.5-.9-.1,0-.2,0-.2.1l-.3.2c-.2.1-.3.2-.5.2a.37.37,0,0,1-.3-.1l-1.3-.6a9.15,9.15,0,0,0-3.5-.6,8.86,8.86,0,0,0-6,2,6.79,6.79,0,0,0-.5,9.7c1.2,1.2,3.2,2.2,6.1,3.2a18.55,18.55,0,0,1,5,2.1,4.79,4.79,0,0,1-.1,7.4,6.86,6.86,0,0,1-4.5,1.6,8.2,8.2,0,0,1-4.9-1.6,7.09,7.09,0,0,1-2.9-4q-.3-.9-.6-.9c-.3,0-.4.2-.4.6a13.18,13.18,0,0,0,.5,2.5c.3,1.1.5,1.7.5,1.8a8.67,8.67,0,0,1,.3,1.3,1.18,1.18,0,0,0,.5.5,8.27,8.27,0,0,0,2.6,1,13.47,13.47,0,0,0,3.3.4A9.88,9.88,0,0,0,296.5,217.38Z"/><path class="a" d="M352.5,219.28h.7c.3,0,.5-.1.5-.3s-.2-.4-.6-.5a4.59,4.59,0,0,1-2.4-.9,10.26,10.26,0,0,1-1.5-2.9l-.4-1-8.3-21.3c-.1-.4-.3-.6-.5-.6s-.4.2-.6.6l-9.9,22.1-.6,1.3a6.19,6.19,0,0,1-1.1,1.7c-.4.5-.8.9-1,.9l-.5.1-.6-.1a6.5,6.5,0,0,1-3.5-2.1l-10.1-10.5a1.46,1.46,0,0,1-.5-.8c0-.2.2-.4.4-.6l6.6-6c3.3-3,5.5-4.6,6.7-4.9.6-.2.9-.3.9-.5s-.2-.4-.6-.4a1.76,1.76,0,0,0-.6.1h-4.9a9.72,9.72,0,0,1-1.8-.1h-.5c-.4,0-.6.1-.6.4s.3.4.9.5c.9.2,1.4.5,1.4,1.1s-.6,1.6-1.9,2.7l-8.3,7.4-.3.2-.3.2c-.1,0-.2-.1-.2-.4v-7.5a7.16,7.16,0,0,1,.3-2.6,3.25,3.25,0,0,1,1.5-1.2c.3-.1.5-.3.5-.5s-.2-.4-.5-.4a4.4,4.4,0,0,0-.9.1h-3.2a25.45,25.45,0,0,1-3.1-.1c-.3,0-.5-.1-.7-.1s-.5.1-.5.4.2.3.5.4l.9.2a2.35,2.35,0,0,1,1.7,1.1,6.85,6.85,0,0,1,.4,2.9v16.5a8.61,8.61,0,0,1-.5,3.4,1.75,1.75,0,0,1-1.7,1.1c-.4,0-.6.2-.6.4s.2.5.6.5a8.33,8.33,0,0,0,1.2-.1h4a12.89,12.89,0,0,1,2.3.1,7.72,7.72,0,0,1,1,.1c.3,0,.5-.1.5-.4s-.2-.3-.6-.4a4.27,4.27,0,0,1-2.7-1.1,5,5,0,0,1-.6-2.9v-7.1c0-.3.1-.4.3-.4s.3.1.5.2l.4.4,10.4,10.7.3.4a1.61,1.61,0,0,0,1.1.5h2.6a6.7,6.7,0,0,1,1.7.1h.5c.2,0,.3,0,.4-.1a1.09,1.09,0,0,0,.5-.1h3l1.9.1h.7c.4,0,.6-.1.5-.3s-.2-.4-.6-.5a3.9,3.9,0,0,1-1.8-.7,1.73,1.73,0,0,1-.5-1.3,8.11,8.11,0,0,1,.9-2.9l1.3-2.8a6.13,6.13,0,0,1,.9-1.6c.2-.2.8-.2,1.8-.2h7a2.75,2.75,0,0,1,1.3.2q.3.15.6,1.2l1,2.6a14.19,14.19,0,0,1,1.2,4.1,1.15,1.15,0,0,1-1,1.3l-.6.1c-.3.1-.5.2-.5.4s.2.4.5.4a1.76,1.76,0,0,0,.6-.1,25.66,25.66,0,0,1,3.4-.1C350.6,219.17,351.8,219.28,352.5,219.28Zm-10.6-12h-6.3c-.6,0-.9-.2-.9-.5a1.74,1.74,0,0,1,.3-.7l3.8-8.4c.1-.3.2-.4.3-.4s.3.2.5.6l.2.4,3,7.7.1.3a1,1,0,0,1,.1.4A1.06,1.06,0,0,1,341.9,207.28Z"/><path class="a" d="M190.2,295.47c-.2,0-.4.3-.7.9a8.21,8.21,0,0,1-3.5,3.4,10.89,10.89,0,0,1-5.1,1.4,9,9,0,0,1-7.3-3.4,13.27,13.27,0,0,1-2.8-8.8,10.37,10.37,0,0,1,2.5-7.4,9.12,9.12,0,0,1,7-2.7c3.7,0,6.6,1.9,8.8,5.7.3.5.5.7.6.7s.2-.1.3-.2l.1-.2-.1-.4-.6-4.2c-.1-.4-.2-.7-.4-.7a.91.91,0,0,0-.5.3.37.37,0,0,1-.3.1l-.3-.1-.3-.1-.7-.4a13.82,13.82,0,0,0-6.7-1.6,12,12,0,0,0-8.9,3.6,12.13,12.13,0,0,0-3.5,9,11.45,11.45,0,0,0,3.4,8.7,12.48,12.48,0,0,0,9,3.3,16.08,16.08,0,0,0,8.8-2.5c.5-.3.8-.6.8-.9l.1-.3.4-2.1.1-.4V296C190.5,295.57,190.4,295.47,190.2,295.47Z"/><path class="a" d="M211.1,297.17a.54.54,0,0,0-.4.3c-1.3,2-4.2,3.1-8.7,3.1a5.32,5.32,0,0,1-2.7-.4c-.4-.2-.5-.9-.5-1.8v-7a.78.78,0,0,1,.3-.7,2.68,2.68,0,0,1,1.1-.2H204a3.69,3.69,0,0,1,2.1.4,2.23,2.23,0,0,1,.8,1.6l.1.5a.37.37,0,0,0,.4.4c.2,0,.3-.1.3-.4v-.5a14.77,14.77,0,0,1-.1-2.1c0-.9.1-1.9.2-3.1v-.4c0-.3-.1-.5-.3-.5a.37.37,0,0,0-.4.4,5,5,0,0,1-.5,1.5,2.25,2.25,0,0,1-1.2.5,20.68,20.68,0,0,1-2.9.2h-2.7a1.44,1.44,0,0,1-.9-.2c-.1-.1-.1-.4-.1-1v-7a1.74,1.74,0,0,1,.3-1.2,2.21,2.21,0,0,1,1.4-.3h2.7a15.24,15.24,0,0,1,3.7.3,1.74,1.74,0,0,1,1.3,1,3.59,3.59,0,0,1,.2,1.1v.4c0,.4.1.5.3.5s.3-.1.4-.3a7,7,0,0,0,.2-1.3l.1-1a10.33,10.33,0,0,0,.1-1.4c0-.2.1-.3.1-.4,0-.3-.2-.5-.6-.5a2.25,2.25,0,0,0-.7.1,6.82,6.82,0,0,0-1.2.1l-2.5.1c-1.1,0-2.3.1-3.7.1a52.13,52.13,0,0,1-6-.3,5.74,5.74,0,0,0-1.2-.1c-.5,0-.8.2-.8.5s.2.3.5.3a2.23,2.23,0,0,1,2.1.9,6.62,6.62,0,0,1,.5,3.3v15.7q0,2.1-1.2,2.4l-.7.2c-.3.1-.5.2-.5.4s.2.4.6.4a3.44,3.44,0,0,0,.9-.1,38,38,0,0,1,4.3-.2c1.4,0,3.3.1,5.5.3.6,0,1,.1,1.3.1A4.6,4.6,0,0,0,210,300a4.76,4.76,0,0,0,1.3-2.7C211.4,297.38,211.3,297.17,211.1,297.17Z"/><path class="a" d="M235.8,301.28h-.6c-1.2-.1-2.6-1.2-4.1-3.4l-.6-.8-4.8-7c2.8-1.4,4.3-3.4,4.3-6a5.35,5.35,0,0,0-2-4.5c-1.3-1-3.4-1.5-6-1.5a20.93,20.93,0,0,0-2.4.1c-1.3.1-2.2.1-2.7.1a6.62,6.62,0,0,1-1.5-.1,8.37,8.37,0,0,1-1.2-.1c-.4,0-.6.1-.6.4s.2.3.6.4l.8.1c1.3.2,1.9,1.2,1.9,3v14.2a10.92,10.92,0,0,1-.4,3.9,2.31,2.31,0,0,1-1.8,1.3c-.3.1-.4.2-.4.3a.37.37,0,0,0,.4.4,3.44,3.44,0,0,0,.9-.1,7.6,7.6,0,0,1,1.4-.1h2.6a12.84,12.84,0,0,1,2.2.1,5.13,5.13,0,0,0,1,.1q.6,0,.6-.3c0-.2-.2-.3-.6-.4a5.69,5.69,0,0,1-2.3-.7,1.69,1.69,0,0,1-.7-1,9.81,9.81,0,0,1-.1-2v-6.1a.85.85,0,0,1,.2-.6l.4-.1h2.3a1.27,1.27,0,0,1,1.3.7l.2.4,4.3,6.6a11.9,11.9,0,0,0,2.5,2.8,4.68,4.68,0,0,0,2.8.9,8.81,8.81,0,0,0,1.7-.2c.5-.1.8-.3.8-.5S236,301.28,235.8,301.28Zm-13.1-11.6h-2a.92.92,0,0,1-1.2-1.2v-7.7c0-.6.1-1,.4-1.2a2.42,2.42,0,0,1,1.4-.3,6.37,6.37,0,0,1,4.5,1.6,5.39,5.39,0,0,1,1.8,4.1,4.38,4.38,0,0,1-1.3,3.4A4.84,4.84,0,0,1,222.7,289.67Z"/><path class="a" d="M258.7,301.38l-.8-.2a5.2,5.2,0,0,1-3.1-1.9l-9-9.4a1.26,1.26,0,0,1-.4-.7c0-.1.1-.3.4-.6l5.9-5.4c2.9-2.6,4.9-4.1,6-4.4.6-.1.8-.3.8-.5s-.2-.3-.5-.3a1.09,1.09,0,0,0-.5.1h-4.3a8.08,8.08,0,0,1-1.6-.1h-.5c-.4,0-.5.1-.5.4s.3.4.8.4c.8.2,1.2.5,1.2,1s-.6,1.4-1.7,2.4l-7.4,6.7-.3.2-.3.2c-.1,0-.2-.1-.2-.4v-6.8a6.24,6.24,0,0,1,.3-2.4,2.37,2.37,0,0,1,1.4-1.1c.3-.1.4-.2.4-.4s-.1-.3-.4-.3a3.22,3.22,0,0,0-.8.1h-2.8a20.24,20.24,0,0,1-2.8-.1c-.2,0-.4-.1-.6-.1s-.5.1-.5.4.2.3.5.4l.8.2a2.13,2.13,0,0,1,1.5,1,5.61,5.61,0,0,1,.4,2.6v14.7a8,8,0,0,1-.4,3.1,1.64,1.64,0,0,1-1.5,1c-.3,0-.5.1-.5.3s.2.4.6.4a5.81,5.81,0,0,0,1-.1h3.6a11,11,0,0,1,2.1.1,5.53,5.53,0,0,1,.9.1c.3,0,.4-.1.4-.3s-.2-.3-.5-.4a3.91,3.91,0,0,1-2.5-1c-.4-.4-.5-1.3-.5-2.6v-6.3c0-.3.1-.4.3-.4a.76.76,0,0,1,.4.2l.3.4,9.3,9.6.3.3a1.39,1.39,0,0,0,1,.5h2.3a5,5,0,0,1,1.5.1h.4c.4,0,.5-.1.5-.4C259.1,301.57,259,301.38,258.7,301.38Z"/><path class="a" d="M278.1,297.17a.54.54,0,0,0-.4.3c-1.3,2-4.2,3.1-8.7,3.1a5.32,5.32,0,0,1-2.7-.4c-.4-.2-.5-.9-.5-1.8v-7a.78.78,0,0,1,.3-.7,2.68,2.68,0,0,1,1.1-.2H271a3.69,3.69,0,0,1,2.1.4,2.23,2.23,0,0,1,.8,1.6l.1.5a.37.37,0,0,0,.4.4c.2,0,.3-.1.3-.4v-.5a14.77,14.77,0,0,1-.1-2.1c0-.9.1-1.9.2-3.1v-.4c0-.3-.1-.5-.3-.5a.37.37,0,0,0-.4.4,5,5,0,0,1-.5,1.5,2.25,2.25,0,0,1-1.2.5,20.68,20.68,0,0,1-2.9.2h-2.7a1.44,1.44,0,0,1-.9-.2c-.1-.1-.1-.4-.1-1v-7a1.74,1.74,0,0,1,.3-1.2,2.21,2.21,0,0,1,1.4-.3h2.7a15.24,15.24,0,0,1,3.7.3,1.74,1.74,0,0,1,1.3,1,3.59,3.59,0,0,1,.2,1.1v.4c0,.4.1.5.3.5s.3-.1.4-.3a7,7,0,0,0,.2-1.3l.1-1a10.33,10.33,0,0,0,.1-1.4c0-.2.1-.3.1-.4,0-.3-.2-.5-.6-.5a2.25,2.25,0,0,0-.7.1,7.5,7.5,0,0,0-1.2.1l-2.5.1c-1.1,0-2.3.1-3.7.1a52.13,52.13,0,0,1-6-.3,5.74,5.74,0,0,0-1.2-.1c-.5,0-.8.2-.8.5s.2.3.5.3q1.65,0,2.1.9a6.62,6.62,0,0,1,.5,3.3v15.7q0,2.1-1.2,2.4l-.7.2c-.3.1-.4.2-.4.4s.2.4.6.4a3.44,3.44,0,0,0,.9-.1,38,38,0,0,1,4.3-.2c1.4,0,3.3.1,5.5.3.6,0,1,.1,1.4.1a4.6,4.6,0,0,0,3.8-1.9,4.76,4.76,0,0,0,1.3-2.7C278.4,297.38,278.3,297.17,278.1,297.17Z"/><path class="a" d="M303.6,278.07h-3.4a11.45,11.45,0,0,1-1.5-.1h-.5q-.6,0-.6.3c0,.2.3.3,1,.5a2.3,2.3,0,0,1,1.1.4,1,1,0,0,1,.3.8c0,1.1-.8,3.6-2.5,7.5l-3.8,9-.3.6c-.3.7-.5,1-.6,1s-.3-.2-.5-.6l-6.7-15.3a6.43,6.43,0,0,1-.7-2.4.85.85,0,0,1,.2-.6,1.87,1.87,0,0,1,.9-.4c.2-.1.3-.2.3-.4s-.2-.3-.5-.3h-.5c-.5,0-.9.1-1.1.1h-5c-.3,0-.5.1-.5.3s.1.2.2.3.5.1,1.1.2a2.35,2.35,0,0,1,1.4.7,8.35,8.35,0,0,1,1.1,2l8.8,20.3c.2.6.5.9.7.9s.5-.3.7-.8l8.6-20.1.5-1.1a3.42,3.42,0,0,1,1.9-2c.2-.1.4-.2.4-.4C303.9,278.17,303.8,278.07,303.6,278.07Z"/><path class="a" d="M53.4,266.47c-2.4-.4-4-1-4.7-1.8s-1.8-2.6-2.9-5.7l-.8-2-16.3-41.5c-.3-.7-.6-1.1-1-1.1s-.8.4-1.1,1.1l-19.4,43L6.1,261a18.52,18.52,0,0,1-2.1,3.3c-.9,1.1-1.5,1.7-2,1.8l-1.4.4a.76.76,0,0,0-.6.8c0,.5.3.7,1,.7.1,0,.8-.1,2.1-.2.4,0,1-.1,1.7-.1,1.6,0,3,0,4.2.1l3.6.2h1.3c.7,0,1.1-.2,1.1-.6s-.4-.7-1.2-.9a7.81,7.81,0,0,1-3.5-1.4,3.27,3.27,0,0,1-.9-2.6,17.38,17.38,0,0,1,1.7-5.7l2.5-5.5a9.92,9.92,0,0,1,1.8-3,7.84,7.84,0,0,1,3.5-.5H32.5a6.44,6.44,0,0,1,2.6.3,6.08,6.08,0,0,1,1.2,2.4l1.9,5c1.5,4,2.3,6.6,2.3,8a2.29,2.29,0,0,1-1.9,2.6l-1.2.3c-.6.1-.9.4-.9.8s.3.8,1,.8c.2,0,.6-.1,1.2-.2a47.69,47.69,0,0,1,6.6-.2c3.3,0,5.7.1,7,.2a9.51,9.51,0,0,0,1.4.1c.7,0,1-.2,1.1-.6A1.62,1.62,0,0,0,53.4,266.47Zm-22.1-22H19c-1.2,0-1.7-.3-1.7-1a5.93,5.93,0,0,1,.5-1.4l7.3-16.3c.2-.5.4-.7.6-.7s.7.4,1,1.2l.3.8L32.9,242l.2.7a5.07,5.07,0,0,1,.2.9C33.2,244.17,32.6,244.47,31.3,244.47Z"/><path class="a" d="M70.9,228.67c-1.4,0-2.6,0-3.7.1l-2.6.3c-1.1.1-2.5.1-4.4.1h-2l-2.2-.1c-.5,0-.7.2-.7.5s.3.5.9.6a4.49,4.49,0,0,1,3.2,1.6,7.62,7.62,0,0,1,1,4.2v25.4a9.67,9.67,0,0,1-.6,4.2,3.54,3.54,0,0,1-2.5,1.4c-.5.1-.8.3-.8.6,0,.5.3.7,1,.6a13.7,13.7,0,0,0,1.6-.2,39.43,39.43,0,0,1,5.2-.3q2.85,0,6.6.3c1.2.1,2.1.1,2.6.1a21.21,21.21,0,0,0,11.3-3.2,18,18,0,0,0,6.4-7,21.44,21.44,0,0,0,2.3-9.8,18.7,18.7,0,0,0-5.3-13.6C84.4,230.67,78.6,228.67,70.9,228.67Zm11.8,35.4a16.27,16.27,0,0,1-8.7,2.4,19.8,19.8,0,0,1-3.9-.4,20.45,20.45,0,0,1-3.8-1,2.38,2.38,0,0,1-1.7-2.4v-29c0-1.2.2-1.9.7-2.3.8-.6,2.7-1,5.7-1a17.49,17.49,0,0,1,10.6,3.1,16.33,16.33,0,0,1,5.6,7,22.48,22.48,0,0,1,2,9.7C89.3,256.78,87.1,261.38,82.7,264.07Z"/><path class="a" d="M132.7,229h-5.6c-.3,0-1.1,0-2.5-.1h-.8c-.6,0-.9.2-.9.5s.5.6,1.6.8a5.17,5.17,0,0,1,1.7.6,1.7,1.7,0,0,1,.4,1.3c0,1.8-1.3,5.9-4,12.2L116.4,259l-.4,1c-.5,1.1-.8,1.6-1,1.6s-.5-.3-.7-.9l-10.8-24.9a11.11,11.11,0,0,1-1.2-4,1.33,1.33,0,0,1,.3-1,5.24,5.24,0,0,1,1.5-.7q.6-.15.6-.6c0-.3-.3-.5-.8-.5a2.81,2.81,0,0,0-.8.1,13.57,13.57,0,0,1-1.8.1H96.7a15.76,15.76,0,0,1-2.8-.1,5.38,5.38,0,0,1-.8-.1c-.5,0-.8.2-.8.6a.55.55,0,0,0,.3.5,14.67,14.67,0,0,0,1.7.4,4,4,0,0,1,2.2,1.2,12.39,12.39,0,0,1,1.8,3.2L112.6,268c.4.9.8,1.4,1.2,1.4s.8-.5,1.1-1.4l14-32.8.8-1.8a5.36,5.36,0,0,1,3.1-3.3q.6-.15.6-.6A.67.67,0,0,0,132.7,229Z"/><path class="a" d="M163.8,260.07c-.2,0-.4.2-.6.5-2.1,3.3-6.8,5-14.2,5-2.3,0-3.8-.2-4.3-.6s-.9-1.4-.9-3v-11.3a1.17,1.17,0,0,1,.5-1.1,3.61,3.61,0,0,1,1.8-.3h6.2a5.74,5.74,0,0,1,3.4.7,3.6,3.6,0,0,1,1.3,2.6l.2.8a.66.66,0,0,0,.7.6c.4,0,.5-.2.5-.7a2.81,2.81,0,0,0-.1-.8c-.1-1.1-.2-2.3-.2-3.4a46,46,0,0,1,.3-5v-.6c0-.5-.2-.7-.5-.8s-.6.2-.7.7a5.92,5.92,0,0,1-.8,2.4,4.26,4.26,0,0,1-2,.8,28.25,28.25,0,0,1-4.7.3h-4.3a2.37,2.37,0,0,1-1.5-.3c-.2-.2-.2-.7-.2-1.6v-11.4a2.7,2.7,0,0,1,.5-1.9,3.85,3.85,0,0,1,2.3-.4h4.4a27.44,27.44,0,0,1,6,.4,3,3,0,0,1,2.2,1.7,4.67,4.67,0,0,1,.3,1.7v.7c0,.6.2.9.5.8a.68.68,0,0,0,.6-.4,12.29,12.29,0,0,0,.3-2l.1-1.7c.1-1.2.2-2,.2-2.2a1.76,1.76,0,0,0,.1-.6c0-.5-.3-.8-.9-.8a5.38,5.38,0,0,0-1.1.1c-.2,0-.9.1-2,.1l-4,.2c-1.8.1-3.8.1-6.1.1a87.73,87.73,0,0,1-9.7-.5,14.16,14.16,0,0,0-1.9-.1c-.8,0-1.3.3-1.3.8,0,.3.3.5.8.5,1.7,0,2.9.5,3.5,1.4s.9,2.7.9,5.4v25.7c0,2.3-.7,3.6-2,4l-1.1.3c-.5.1-.7.3-.7.7s.3.6.9.6c.3,0,.8-.1,1.5-.2a55.87,55.87,0,0,1,7-.3c2.3,0,5.3.2,8.9.5a19.42,19.42,0,0,0,2.2.1,8,8,0,0,0,6.3-3c1.4-1.7,2.1-3.1,2.1-4.4C164.3,260.38,164.2,260.07,163.8,260.07Z"/><path class="a" d="M171.4,233.28A16.35,16.35,0,0,1,173,241v19.2a9.55,9.55,0,0,1-.8,4.4,5.83,5.83,0,0,1-3.2,2.2c-.5.2-.8.4-.8.7s.3.5.8.5a4.14,4.14,0,0,0,1-.1,14.77,14.77,0,0,1,2.1-.1l1.4-.1,2.9.1a21.35,21.35,0,0,1,2.5.2c.3,0,.6.1.8.1a.53.53,0,0,0,.6-.6c0-.4-.3-.6-.9-.7a6.4,6.4,0,0,1-3-1,4.54,4.54,0,0,1-1-2.6l-.1-2v-20.3c0-.8.2-1.3.5-1.3a.52.52,0,0,1,.4.2l.3.3,23.8,27.2.6.7.6.3a.76.76,0,0,0,.8-.7,32.62,32.62,0,0,0,.1-3.9v-23.6l.1-1.9v-3a8,8,0,0,1,.6-3.7,3.28,3.28,0,0,1,2.3-1.4c.4-.1.6-.3.6-.5,0-.4-.3-.6-.8-.6a11.48,11.48,0,0,0-1.4.2,19.09,19.09,0,0,1-2.8.2c-2.2,0-3.9-.1-5.2-.2-.5,0-.9-.1-1.2-.1-.5,0-.8.2-.8.5s.3.6.8.7a7.57,7.57,0,0,1,4,1.5,5.66,5.66,0,0,1,1.4,3.4l.3,6.5v17.8c0,.3-.1.5-.3.5s-.4-.2-.8-.7l-25.9-29.4a2.05,2.05,0,0,0-1.4-.8h-1.4l-1.9-.1h-1.7c-.4,0-.6.2-.6.5s.3.6.8.6A5.53,5.53,0,0,1,171.4,233.28Z"/><path class="a" d="M222.3,232.17a2.21,2.21,0,0,1,1.4.3,1.88,1.88,0,0,1,.3,1.3v28.7a5.28,5.28,0,0,1-.8,3.3,4.62,4.62,0,0,1-2.9,1.2q-.9.15-.9.6c0,.4.3.6.8.6.2,0,.8-.1,1.9-.2a11.52,11.52,0,0,1,2-.1h4.3a13.62,13.62,0,0,1,2.5.1c.7.1,1.2.2,1.4.2.5,0,.8-.2.8-.6s-.3-.5-1-.6c-2.4-.4-3.6-1.7-3.7-3.9v-28.9a3.17,3.17,0,0,1,.3-1.7c.2-.2.7-.3,1.6-.3h7.9a6,6,0,0,1,3.2.6,4.82,4.82,0,0,1,1.2,2.6c.1.6.3.9.7.9s.6-.3.6-.9c0-.3-.1-.7-.2-1.4a14.89,14.89,0,0,1-.1-2.4,3.77,3.77,0,0,0-.3-2c-.2-.2-.8-.3-1.9-.3H211c-.6,0-1.1.1-1.3.4a3.17,3.17,0,0,0-.3,1.7,14.66,14.66,0,0,1-.4,3.3,13.44,13.44,0,0,0-.3,2.2c0,.5.2.7.5.8s.6-.3.8-1.1a7.14,7.14,0,0,1,1.6-3.5,5,5,0,0,1,3.3-.9h7.4Z"/><path class="a" d="M261.3,267.38c0-.3-.5-.6-1.4-.7a8,8,0,0,1-2.6-.8,4.46,4.46,0,0,1-1.4-2,18.18,18.18,0,0,1-.5-5.2v-21.1c0-4,.7-6.2,2.1-6.8l1.5-.6c.5-.2.7-.4.7-.7s-.3-.5-.8-.5h-.7l-1.9.2c-1,.1-2.2.1-3.6.1a40.12,40.12,0,0,1-5.5-.3h-.5c-.6,0-.8.2-.8.6s.3.6.9.7c1.7.3,2.9.8,3.4,1.6a9.84,9.84,0,0,1,.8,4.7v24.2c0,2.4-.2,4-.6,4.7s-1.3,1.2-2.8,1.5q-.9.15-.9.6c0,.4.3.6.8.6a7.6,7.6,0,0,0,1.4-.1l3.3-.2,4.1.1a22.81,22.81,0,0,1,3,.1,4.48,4.48,0,0,0,1.1.1C261,268.07,261.3,267.88,261.3,267.38Z"/><path class="a" d="M265.9,263.67a13.39,13.39,0,0,0,.5,2,1.2,1.2,0,0,0,.7.7,13.27,13.27,0,0,0,3.8,1.4,21,21,0,0,0,4.8.6,14.35,14.35,0,0,0,9.8-3.3,10.69,10.69,0,0,0,3.8-8.6c0-5.2-3.5-8.9-10.4-11.2a54.23,54.23,0,0,1-6.7-2.5,8.25,8.25,0,0,1-2.5-2.1,6.29,6.29,0,0,1-1.3-4.1,5.91,5.91,0,0,1,2-4.5,7.57,7.57,0,0,1,5.1-1.8,12.65,12.65,0,0,1,6.9,2,9.4,9.4,0,0,1,4.1,5c.3.9.6,1.4.9,1.4s.6-.3.6-.9a7.5,7.5,0,0,0-.1-1.2l-.5-2.9c-.2-1.6-.4-2.5-.4-2.8,0-.9-.2-1.4-.7-1.4-.2,0-.3,0-.3.1l-.4.3a1.07,1.07,0,0,1-1.2.2l-1.9-.8a12.93,12.93,0,0,0-5.1-.9,13.32,13.32,0,0,0-8.8,2.9,9.15,9.15,0,0,0-3.4,7.4,9.37,9.37,0,0,0,2.6,6.7c1.7,1.7,4.7,3.3,8.9,4.7,4,1.4,6.5,2.4,7.3,3.1a6.58,6.58,0,0,1,2.5,5.3,7.19,7.19,0,0,1-2.7,5.6,10,10,0,0,1-6.6,2.3,11.91,11.91,0,0,1-7.1-2.4,10.86,10.86,0,0,1-4.3-5.9c-.3-.9-.6-1.4-.9-1.4s-.6.3-.6.8a14.28,14.28,0,0,0,.7,3.6C265.6,262.67,265.8,263.57,265.9,263.67Z"/><path class="a" d="M327,231.57a3.77,3.77,0,0,0-.3-2c-.2-.2-.8-.3-1.9-.3H294.4c-.6,0-1.1.1-1.3.4a3.17,3.17,0,0,0-.3,1.7,14.66,14.66,0,0,1-.4,3.3,13.44,13.44,0,0,0-.3,2.2c0,.5.2.7.5.8s.6-.3.8-1.1a7.14,7.14,0,0,1,1.6-3.5,5,5,0,0,1,3.3-.9h7.5a2.21,2.21,0,0,1,1.4.3,1.88,1.88,0,0,1,.3,1.3v28.7a5.28,5.28,0,0,1-.8,3.3,4.62,4.62,0,0,1-2.9,1.2q-.9.15-.9.6c0,.4.3.6.8.6.2,0,.8-.1,1.9-.2a11.52,11.52,0,0,1,2-.1h4.3a13.62,13.62,0,0,1,2.5.1c.7.1,1.2.2,1.4.2.5,0,.8-.2.8-.6s-.3-.5-1-.6c-2.4-.4-3.6-1.7-3.7-3.9v-28.9a3.17,3.17,0,0,1,.3-1.7c.2-.2.7-.3,1.6-.3h7.9a6,6,0,0,1,3.2.6,4.82,4.82,0,0,1,1.2,2.6c.1.6.3.9.7.9s.6-.3.6-.9c0-.3-.1-.7-.2-1.4A7.55,7.55,0,0,1,327,231.57Z"/><path class="a" d="M343.3,266.67a8,8,0,0,1-2.6-.8,4.46,4.46,0,0,1-1.4-2,18.18,18.18,0,0,1-.5-5.2v-21.1c0-4,.7-6.2,2.1-6.8l1.5-.6c.5-.2.7-.4.7-.7s-.3-.5-.8-.5h-.7l-1.9.2c-1,.1-2.2.1-3.6.1a40.12,40.12,0,0,1-5.5-.3h-.5c-.6,0-.8.2-.8.6s.3.6.9.7c1.7.3,2.9.8,3.4,1.6a9.84,9.84,0,0,1,.8,4.7v24.2c0,2.4-.2,4-.6,4.7s-1.3,1.2-2.8,1.5q-.9.15-.9.6c0,.4.3.6.8.6a7.6,7.6,0,0,0,1.4-.1l3.3-.2,4.1.1a22.81,22.81,0,0,1,3,.1,4.48,4.48,0,0,0,1.1.1c.6,0,.9-.2.9-.7S344.2,266.88,343.3,266.67Z"/><path class="a" d="M384.8,257.38c-.3,0-.6.5-1.1,1.5a12.68,12.68,0,0,1-5.7,5.5,17.06,17.06,0,0,1-8.3,2.3,14.92,14.92,0,0,1-11.9-5.6c-3.1-3.7-4.6-8.5-4.6-14.4,0-5.1,1.4-9.1,4.2-12.1s6.5-4.4,11.3-4.4c6,0,10.8,3.1,14.3,9.2.5.8.8,1.2,1,1.2s.3-.1.4-.3l.1-.3-.1-.7-.9-6.8c-.1-.7-.3-1.1-.6-1.1s-.4.2-.8.4c-.2.2-.3.2-.4.2l-.5-.2-.5-.2-1.1-.6a22.58,22.58,0,0,0-10.9-2.7,19.22,19.22,0,0,0-14.4,5.8,20.06,20.06,0,0,0-5.8,14.6c0,5.9,1.9,10.6,5.6,14.2s8.6,5.4,14.6,5.4a27.06,27.06,0,0,0,14.4-4.1,2.51,2.51,0,0,0,1.3-1.5l.1-.5.7-3.5.1-.6v-.3C385.2,257.47,385.1,257.28,384.8,257.38Z"/><path class="a" d="M426.3,228.88a11.48,11.48,0,0,0-1.4.2,19.09,19.09,0,0,1-2.8.2c-2.2,0-3.9-.1-5.2-.2-.5,0-.9-.1-1.2-.1-.5,0-.8.2-.8.5s.3.6.8.7a7.57,7.57,0,0,1,4,1.5,5.66,5.66,0,0,1,1.4,3.4l.3,6.5v17.8c0,.3-.1.5-.3.5s-.4-.2-.8-.7l-25.9-29.4a2.05,2.05,0,0,0-1.4-.8h-1.4l-1.9-.1H388c-.4,0-.6.2-.6.5s.3.6.8.6a5.91,5.91,0,0,1,4.5,3.2,16.45,16.45,0,0,1,1.5,7.7v19.3a9.55,9.55,0,0,1-.8,4.4,6.24,6.24,0,0,1-3.2,2.2c-.5.2-.8.4-.8.7s.3.5.8.5a4.14,4.14,0,0,0,1-.1,14.77,14.77,0,0,1,2.1-.1l1.4-.1,2.9.1a21.35,21.35,0,0,1,2.5.2c.3,0,.6.1.8.1a.53.53,0,0,0,.6-.6c0-.4-.3-.6-.9-.7a6.4,6.4,0,0,1-3-1,4.54,4.54,0,0,1-1-2.6l-.1-2v-20.3c0-.8.2-1.3.5-1.3a.52.52,0,0,1,.4.2l.3.3,23.8,27.2.6.7a4.87,4.87,0,0,0,.7.3.76.76,0,0,0,.8-.7,32.62,32.62,0,0,0,.1-3.9v-23.6l.1-1.9v-3a8,8,0,0,1,.6-3.7,3.28,3.28,0,0,1,2.3-1.4c.4-.1.6-.3.6-.5A1,1,0,0,0,426.3,228.88Z"/><path class="a" d="M468.5,266.78a8,8,0,0,1-3.6-1.3,14.87,14.87,0,0,1-2.2-4.2l-.6-1.5L450,228.67c-.2-.5-.5-.8-.8-.8s-.6.3-.8.8l-14.5,32.2-.8,1.9a9.63,9.63,0,0,1-1.6,2.5c-.6.8-1.1,1.3-1.5,1.4l-1,.3a.63.63,0,0,0-.5.6c0,.3.3.5.8.5.1,0,.6-.1,1.6-.2h1.3a29.12,29.12,0,0,1,3.1.1l2.7.2h1c.5,0,.8-.2.8-.5s-.3-.5-.9-.7a6,6,0,0,1-2.6-1,2.56,2.56,0,0,1-.7-1.9,11,11,0,0,1,1.3-4.2l1.8-4.2a3,3,0,0,1,4-2.6h10.2a5.57,5.57,0,0,1,1.9.2,6.91,6.91,0,0,1,.9,1.8l1.4,3.7c1.1,3,1.7,5,1.7,6a1.71,1.71,0,0,1-1.4,1.9l-.9.2c-.5.1-.7.3-.7.6s.2.6.7.6a3.44,3.44,0,0,0,.9-.1,41.43,41.43,0,0,1,4.9-.2c2.5,0,4.2,0,5.2.1.5,0,.9.1,1.1.1.5,0,.8-.2.8-.5S469.1,266.88,468.5,266.78ZM452,250.28h-9.3c-.9,0-1.3-.2-1.3-.7a2.18,2.18,0,0,1,.4-1l5.5-12.2c.2-.4.3-.6.5-.5s.5.3.7.9l.2.6,4.4,11.2.1.5a1.76,1.76,0,0,1,.1.6C453.4,250.07,452.9,250.28,452,250.28Z"/><path class="a" d="M211.5,190.28a2.51,2.51,0,0,0,1,.2,2,2,0,0,0,.9-.2,2.44,2.44,0,0,0,.8-.9l1.7-2.2.7-.8a1.69,1.69,0,0,0,.2-.5.54.54,0,0,0-.3-.4,1,1,0,0,0-.7-.2q-.3,0-.9.9c-1,1.5-1.6,2.3-1.9,2.3-.1,0-.2-.1-.4-.3l-.6-.6-.8-.9-.7-.7-.4-.5a.86.86,0,0,0-.6-.3,1.76,1.76,0,0,0-.6.1l-.9.3c-.4.1-.6.3-.5.5a5.56,5.56,0,0,0,1.1,1.3l1.8,1.9A8.18,8.18,0,0,0,211.5,190.28Z"/><path class="a" d="M231.5,165.17v-20.5H221.2v-7.3h10.3v-.7c0-7.3-3.4-12.6-26.4-8.6l-38,6.8-21.9,30.3,52.4-9.3C213.4,153.17,227.1,152.67,231.5,165.17Z"/><path class="a" d="M256.4,136.57c-11.9,11.9-17.8,18.7-17.8,28.6,4.6-13.1,19-11.9,36.1-8.7l50.4,8.7-21.9-30.3-38.4-6.8Z"/><path class="a" d="M257.3,117.17c-4.7,4.7-12.8,12-16.6,20.2h8.4l9.7-9.7c8.9-8.9,15.8-15.8,18.7-24.3a31,31,0,0,0,1.6-15.6c-.2-1.7-.9-4.1-1-3.6-.9,9.7-3.6,15.5-17.7,29.6Z"/><path class="a" d="M230.9,57.47c5.2-5.2,18.3-16.9,18.3-27.1V19.17c0-.1-.2-.1-.2,0-.9,7.6-2.7,10.8-21.2,29.4l-18.3,18.3c-9.7,9.7-17.5,20-16.5,31.5.6,6.5,2.7,10,4.1,11,.7.5.5.1.4-.3-5.6-12.6,7.7-25.7,14.3-32.3Z"/><path class="a" d="M230.9,76.67c5.2-5.2,18.3-16.9,18.3-27.1V38.37c0-.1-.2-.1-.2,0-.9,7.6-2.7,10.8-21.2,29.4l-17,17c-6.2,6.2-11.8,12.6-11.6,23.1.2,6.4,3.4,11.7,8.2,12.9,2,.4,1.9.2,1.4,0-6.8-3.2-6.3-15.6,4.7-26.6Z"/><path class="a" d="M191.9,89.38c.9-9.7,3.6-15.5,17.7-29.6l21.3-21.4c5.2-5.2,18.3-16.9,18.3-27.1V.08c0-.1-.2-.1-.2,0-.9,7.6-2.7,10.8-21.2,29.4l-16.4,16.4c-8.9,8.9-15.8,15.8-18.7,24.3a31,31,0,0,0-1.6,15.6C191.2,87.47,191.9,89.88,191.9,89.38Z"/><path class="a" d="M238.9,155.88a24.3,24.3,0,0,1,4.4-11.2h-4.7v11.2C238.6,156,238.9,156,238.9,155.88Z"/><path class="a" d="M260.7,94.57l-5.4,5.4c-8.3,8.2-16.7,17.5-16.7,26v11.4c0,.1.2.1.2,0,.9-8.3,4.9-13.7,16.9-25.7l5-5c9.7-9.7,17.5-20,16.5-31.5-.6-6.5-2.7-10-4.1-11-.7-.5-.5-.1-.4.3C278.4,77.17,265.1,90.28,260.7,94.57Z"/><path class="a" d="M238.7,117.67c0,.1.2.1.2,0,.9-7.9,5.5-13.9,15.8-24.2l4.9-4.9c6.2-6.2,11.7-12.6,11.5-23-.2-6.4-3.4-11.7-8.2-12.9-2-.4-1.9-.2-1.4,0,6.8,3.2,6.3,15.6-4.7,26.6l-6.1,6.1c-3.9,3.9-12,12.7-12,20.9v11.4Z"/><path class="a" d="M323.2,151.07a4.16,4.16,0,0,0,3.1-1.3,4.39,4.39,0,0,0,1.3-3.1,4.16,4.16,0,0,0-1.3-3.1,4.39,4.39,0,0,0-3.1-1.3,4.27,4.27,0,0,0-3.3,1.5,4.42,4.42,0,0,0,0,5.6A3.9,3.9,0,0,0,323.2,151.07Zm-2.8-7.1a3.62,3.62,0,0,1,2.7-1.1,3.69,3.69,0,0,1,2.7,1.1,3.62,3.62,0,0,1,1.1,2.7,3.69,3.69,0,0,1-1.1,2.7,3.62,3.62,0,0,1-2.7,1.1,3.69,3.69,0,0,1-2.7-1.1,3.62,3.62,0,0,1-1.1-2.7A3.86,3.86,0,0,1,320.4,144Z"/><path class="a" d="M321.1,144.38h.2c.2,0,.4.2.4.6v3c0,.4,0,.7-.1.8a.52.52,0,0,1-.4.2.1.1,0,0,0-.1.1c0,.1.1.1.2.1H323c.1,0,.2,0,.2-.1s-.1-.1-.2-.1a.59.59,0,0,1-.5-.2c-.1-.1-.1-.3-.1-.6v-1.4h.6c.1,0,.2,0,.2.1v.1l.9,1.4a1.41,1.41,0,0,0,1.2.8c.4,0,.6-.1.6-.2s0-.1-.1-.1h-.1c-.2,0-.5-.2-.8-.7l-.1-.2-1-1.4a1.38,1.38,0,0,0,.9-1.3c0-.9-.6-1.3-1.7-1.3h-1.7c-.1,0-.2,0-.2.1C321,144.38,321,144.38,321.1,144.38Zm1.6.1a1.4,1.4,0,0,1,.9.3,1.23,1.23,0,0,1,.4.8c0,.6-.3.9-1,.9h-.6v-1.7A.27.27,0,0,1,322.7,144.47Z"/><path class="a" d="M365.5,224.17a5.2,5.2,0,0,0,1.5,1.3,2.65,2.65,0,0,0,1.4.3,2.27,2.27,0,0,0,1.3-.3,5.22,5.22,0,0,0,1.2-1.3l2.5-3.2,1-1.2a1.33,1.33,0,0,0,.3-.8c0-.2-.1-.4-.5-.7a1.93,1.93,0,0,0-1-.3c-.3,0-.8.4-1.4,1.2-1.5,2.2-2.4,3.4-2.7,3.4-.1,0-.3-.1-.6-.4l-.8-.8-1.1-1.3-1-1-.6-.7a1.38,1.38,0,0,0-.9-.5,3.09,3.09,0,0,0-.8.2l-1.2.5c-.6.2-.8.5-.8.7a6.23,6.23,0,0,0,1.6,2Z"/><path class="a" d="M463,226.57h.2c.2,0,.4.2.4.6v3c0,.4,0,.7-.1.8a.52.52,0,0,1-.4.2.1.1,0,0,0-.1.1c0,.1.1.1.2.1h1.7c.1,0,.2,0,.2-.1s-.1-.1-.2-.1a.59.59,0,0,1-.5-.2c-.1-.1-.1-.3-.1-.6v-1.3h.6c.1,0,.2,0,.2.1v.1l.9,1.4a1.41,1.41,0,0,0,1.2.8c.4,0,.6-.1.6-.2s0-.1-.1-.1h-.1c-.2,0-.5-.2-.8-.7l-.1-.2-1-1.4a1.38,1.38,0,0,0,.9-1.3c0-.9-.6-1.3-1.7-1.3h-1.7c-.1,0-.2,0-.2.1S462.9,226.57,463,226.57Zm1.6.1a1.61,1.61,0,0,1,.9.3,1.23,1.23,0,0,1,.4.8c0,.6-.3.9-1,.9h-.6V227Q464.15,226.68,464.6,226.67Z"/><path class="a" d="M465,233.28a4.16,4.16,0,0,0,3.1-1.3,4.39,4.39,0,0,0,1.3-3.1,4.16,4.16,0,0,0-1.3-3.1,4.39,4.39,0,0,0-3.1-1.3,4.27,4.27,0,0,0-3.3,1.5,4.51,4.51,0,0,0,3.3,7.3Zm-2.7-7.1a3.62,3.62,0,0,1,2.7-1.1,3.69,3.69,0,0,1,2.7,1.1,3.62,3.62,0,0,1,1.1,2.7,3.69,3.69,0,0,1-1.1,2.7,3.62,3.62,0,0,1-2.7,1.1,3.69,3.69,0,0,1-2.7-1.1,3.62,3.62,0,0,1-1.1-2.7A3.86,3.86,0,0,1,462.3,226.17Z"/></svg>