<svg xmlns="http://www.w3.org/2000/svg" viewBox="0 0 420.35 401.38"><title>Asset 1</title><path d="M137.43,258.91c0-3-3.33-2.18-3.33-3.08,0-.37.08-.45.41-.45,1.52,0,3,.17,4.52.17,1.27,0,2.55-.17,3.82-.17.66,0,.78.08.78.41,0,1-3,0-3,3.12V281c0,2.8,3.66,1.85,3.66,3.09,0,.29-.12.41-.82.41-.94,0-2.71-.16-4.48-.16-2.51,0-3.37.16-3.95.16-.74,0-.86-.21-.86-.62,0-1.19,3.21.16,3.21-3.9Z" style="fill:#fff"/><path d="M175.45,269.18c.33,0,1.11-.16,1.11.37,0,.86-2.1-.08-2.1,2.67v8.39c-4.24,1.36-5.35,4.15-12.66,4.15-9.09,0-14.72-5.63-14.72-14.76,0-8.88,6.66-15,15.38-15,7.11,0,9.17,2.8,10.32,2.8.45,0,.62-.74,1.07-.74s.41.62.45.95l.41,5.38c0,.33,0,.74-.45.74-1.07,0-2.92-7.93-12.62-7.93-7.4,0-11.1,6.25-11.1,13,0,7.28,4.19,14.23,12.13,14.23,3.74,0,8.55-1.85,8.55-5.35v-6.37c0-1.93-3.58-1.07-3.58-2.1,0-.54.57-.46.95-.46Z" style="fill:#fff"/><path d="M185.49,279.42c0,2.43-.33,3.42,3.12,3.42,9.5,0,10.89-4.24,11.43-4.24.29,0,.33.41.33.49,0,1.48-1.07,2.92-2.06,4-1.31,1.48-2.22,1.4-4,1.4-3.12,0-6.25-.25-9.37-.16-1.64,0-3.37.16-5,.16-.37,0-.62-.08-.62-.41.08-.49.49-.41,1.81-1.07,1.07-.5,1.15-1.65,1.15-3.58V258.58c0-2.14-3.45-1.85-3.45-2.67,0-.45.29-.54.82-.54.86,0,2.14.17,4.15.17,2.34,0,3.33-.17,3.95-.17s.78.08.78.58c0,.94-3-.08-3,3.5Z" style="fill:#fff"/><path d="M206.79,267.34c0,1.39-.08,1.39,1.56,1.39h4.44c4.28,0,3.17-3.29,4.15-3.29.33,0,.45.45.45.78,0,1.44-.08,2.84-.08,4.15,0,1.07.08,2.14.08,3.25,0,.37-.16.54-.45.54-1.27,0,.13-3.62-3.33-3.62h-6.08c-.87,0-.74.7-.74,1.32v7.56c0,2.43-.33,3.42,3.12,3.42,9.5,0,10.89-4.24,11.43-4.24.29,0,.33.41.33.49,0,1.48-1.07,2.92-2.06,4-1.31,1.48-2.22,1.4-4,1.4-3.12,0-6.25-.25-9.37-.16-1.64,0-3.37.16-5,.16-.37,0-.62-.08-.62-.41.08-.49.49-.41,1.81-1.07,1.07-.5,1.15-1.65,1.15-3.58V260.68c0-1.85,0-3.82-2.22-4.15-.33-.08-1.23-.16-1.23-.66,0-.33.25-.49,1.44-.49,7.77,0,9.91.17,11.63.17.82,0,4.6-.17,5.88-.17.33,0,.41.41.41.9,0,4.56-.58,4.89-.82,4.89-1,0-.33-2-1-2.92-1.07-1.4-5.34-1.15-7-1.15-3.95,0-3.87-.16-3.87,2.59Z" style="fill:#fff"/><path d="M224.39,277.2c-.16-.82,0-1.27.45-1.27.58,0,.58.49.78,1.36a8.78,8.78,0,0,0,8.63,6.17c3.9,0,7.73-2.18,7.73-6.5,0-7.93-16.69-3.49-16.69-14.22,0-5.22,4.4-7.73,9.13-7.73,5,0,6.33,1.48,6.91,1.48.37,0,.45-.45.86-.45.25,0,.46.13.49.58l.62,5.59c0,.33,0,.62-.45.62s-.74-.87-.87-1.24a7.85,7.85,0,0,0-7.85-5.35c-3.25,0-6.7,1.57-6.7,5.35,0,7.73,16.69,3.21,16.69,14.55,0,3.46-2.42,8.63-11.76,8.63-3,0-6.78-1.52-6.95-2.26Z" style="fill:#fff"/><path d="M250.87,258.91c0-3-3.33-2.18-3.33-3.08,0-.37.08-.45.41-.45,1.52,0,3,.17,4.52.17,1.27,0,2.55-.17,3.82-.17.66,0,.78.08.78.41,0,1-3,0-3,3.12V281c0,2.8,3.66,1.85,3.66,3.09,0,.29-.12.41-.82.41-.95,0-2.71-.16-4.48-.16-2.51,0-3.37.16-3.95.16-.74,0-.86-.21-.86-.62,0-1.19,3.21.16,3.21-3.9Z" style="fill:#fff"/><path d="M277.63,274.65c-.41-.94-.66-1.56-1.81-1.56h-9c-.78,0-1.52,0-1.93.87l-2.63,5.75a4.28,4.28,0,0,0-.29,1.44c0,2.88,2.92,1.64,2.92,2.71,0,.74-.58.62-1.11.62-1.15,0-2.3-.16-3.45-.16s-2.22.16-3.29.16c-.24,0-.37-.21-.37-.45,0-.86,1.93-.16,3-2.51l9.83-21c2.42-5.18,2.55-5.84,3.08-5.84s.74,1.19.86,1.52l8.55,21.17a26,26,0,0,0,2.05,4.69c1.23,1.89,3.62,1,3.62,2,0,.37-.29.37-.58.37-1.69,0-3.37-.16-5.06-.16-1.11,0-2.22.16-3.33.16-.25,0-.9,0-.9-.41,0-1,2.46-.58,2.46-2.14a17.37,17.37,0,0,0-1.27-3.91Zm-11.1-4.11c-.29.58,0,.74.54.74h8.14c.9,0,.86-.29.66-.82l-4-9.91c-.21-.49-.41-.49-.66,0Z" style="fill:#fff"/><path d="M59.52,389c-.27-1.35.07-2.09.74-2.09.94,0,.94.81,1.28,2.22a14.37,14.37,0,0,0,14.13,10.1c6.39,0,12.65-3.57,12.65-10.63,0-13-27.32-5.72-27.32-23.29,0-8.55,7.2-12.65,14.94-12.65,8.14,0,10.37,2.42,11.31,2.42.6,0,.74-.74,1.41-.74.4,0,.74.21.81.95l1,9.15c.07.54-.07,1-.74,1s-1.21-1.41-1.41-2c-2-5.79-6.93-8.75-12.86-8.75-5.32,0-11,2.55-11,8.75,0,12.65,27.32,5.25,27.32,23.83,0,5.65-4,14.13-19.25,14.13-5,0-11.11-2.49-11.37-3.7Z" style="fill:#fff"/><path d="M102.85,379.31c0,1.75-.1,1.75,2,1.75h5.58c5.37,0,4-4.13,5.22-4.13.41,0,.57.57.57,1,0,1.81-.1,3.56-.1,5.21,0,1.34.1,2.69.1,4.08,0,.46-.21.67-.57.67-1.6,0,.15-4.54-4.18-4.54h-7.64c-1.09,0-.93.88-.93,1.65v9.5c0,3-.41,4.29,3.93,4.29,11.93,0,13.69-5.32,14.36-5.32.36,0,.41.52.41.62,0,1.86-1.34,3.67-2.58,5-1.65,1.86-2.79,1.75-5.06,1.75-3.92,0-7.85-.31-11.77-.21-2.07.05-4.24.21-6.3.21-.46,0-.78-.1-.78-.52.1-.62.62-.52,2.27-1.34,1.34-.62,1.45-2.06,1.45-4.49V370.95c0-2.32,0-4.8-2.79-5.22-.41-.1-1.55-.21-1.55-.82,0-.42.31-.62,1.81-.62,9.76,0,12.45.2,14.62.2,1,0,5.79-.2,7.38-.2.41,0,.52.52.52,1.13,0,5.73-.72,6.15-1,6.15-1.24,0-.41-2.48-1.24-3.67-1.34-1.76-6.71-1.45-8.78-1.45-5,0-4.86-.2-4.86,3.26Z" style="fill:#fff"/><path d="M131.36,393.72c0,7.44,5.42,4.75,5.42,6.51,0,.36-.21.62-1.5.62-1.76,0-2.53-.21-5.58-.21-2.43,0-4.13.21-5.63.21-.31,0-.83-.15-.83-.62,0-1.4,4,.21,4-5.53V370c0-6.2-4.24-3-4.24-4.9a.71.71,0,0,1,.67-.78c.46,0,2.27.2,5.27.2,2.58,0,3.41-.2,5.89-.2,6.56,0,13.84,2.27,13.84,10,0,2.06-1.55,9.91-12.55,9.91-.52,0-3.51-.26-3.51-1.19,0-.36.26-.46.52-.46a25.81,25.81,0,0,0,3.36.31c5.27,0,8.37-2.53,8.37-7.18,0-6.25-4.8-9.55-10.74-9.55-1.65,0-2.79,0-2.79,1.55Z" style="fill:#fff"/><path d="M158.67,369.5c0-.36.21-2.32-.52-2.37h-8.42c-3.2,0-3.31.78-4.24,3.62-.15.52-.21,1.19-.88,1.19-.31,0-.52-.36-.52-.62l.57-5c.05-.62,0-2,.93-2,4,0,8,.2,14.67.2,9.35,0,14.1-.2,15.13-.2,1.19,0,1.45.31,1.5,1.5l.26,4.13c.05.52.11,1.14-.57,1.14-1.91,0,.88-3.93-4.39-3.93h-7.38c-2.32,0-2.06-.21-2.06,2.53V396c0,4.34,4.18,2.63,4.18,4.24,0,.15.05.62-.46.62-1.24,0-2.69-.21-4.18-.21a70,70,0,0,0-7.08.21c-.46,0-.62-.15-.62-.67,0-1.24,4.08-.72,4.08-3.82Z" style="fill:#fff"/><path d="M182.57,368.73c-.05-3.77-4.18-2.74-4.18-3.87,0-.46.11-.57.52-.57,1.91,0,3.77.2,5.68.2,1.6,0,3.2-.2,4.8-.2.83,0,1,.1,1,.52,0,1.24-3.72.05-3.72,3.93v27.73c0,3.51,4.59,2.32,4.59,3.87,0,.36-.15.52-1,.52-1.19,0-3.41-.21-5.63-.21-3.15,0-4.23.21-5,.21-.93,0-1.09-.26-1.09-.77,0-1.5,4,.21,4-4.91Z" style="fill:#fff"/><path d="M235.68,396.1c.26,4.34,4.08,2.43,4.08,4.23,0,.52-.67.52-1.24.52-1,0-2.79-.21-4.85-.21-1.6,0-3.25.21-4.55.21-.46,0-.57-.26-.57-.46,0-1.55,3.26-.41,3.2-4.23l-.52-20c0-1.29-.26-2-.57-2s-.83.46-1.34,1.55l-10.69,21.79c-.26.46-1.08,2.58-1.6,2.58s-.88-1.14-1-1.49l-11-23c-.15-.41-.41-.57-.62-.57s-.31.26-.36.77l-.62,18.13c-.26,6.87,4.65,4.6,4.65,6.46,0,.52-.57.57-1.29.57s-3-.21-4.54-.21c-2.68,0-3.56.21-4.49.21-.36,0-.52-.26-.52-.62,0-1.76,3.31.36,3.67-5,.62-8.42,1.24-13.89,1.24-19.37,0-12.14-4.91-9.24-4.91-11,0-.46.42-.57.88-.57.93,0,1.86.2,2.84.2s1.86-.2,2.79-.2c.72,0,.83.88,1.08,1.44L217.09,392c.57,1.09.78,1.55,1.14,1.55s.77-1.08,1.6-2.79L232.12,366c.31-.57.72-1.81,1.34-1.76s2.17.2,2.43.2c1.19,0,1.65-.2,2.48-.2a.58.58,0,0,1,.52.62c0,1.65-4.13-.57-3.93,5.58Z" style="fill:#fff"/><path d="M241.88,382.36c0-10.74,8.37-18.54,19-18.54s18.64,7.59,18.64,18.29c0,11.62-8,19.11-19.52,19.11C248.74,401.21,241.88,393.26,241.88,382.36Zm3.77-1.5c0,9.56,6.25,18.8,16.48,18.8,7.54,0,13.58-6,13.58-15.6,0-9.4-6.35-18.54-16.42-18.54C250.6,365.52,245.65,372.71,245.65,380.86Z" style="fill:#fff"/><path d="M294.12,360.53c0-6.85-5.51-4.7-5.51-6.51,0-.47.54-.67.94-.67,2.08,0,4,.27,6,.27,4.43,0,8.8-.27,14.57-.27,11.88,0,23.57,9,23.57,21.42,0,15.44-7.32,26.12-25.92,26.12-3.42,0-6.85-.27-10.27-.27-.61,0-7.05.27-7.52.27s-.67-.27-.67-.67c0-1.54,4.77.14,4.77-6.24Zm5.3,30.62c0,1.07-.2,4.29.4,4.9,2.21,2.21,7.32,3,10.34,3,9.53,0,18.6-5.1,18.6-20.61,0-14.91-9.94-23.36-22.69-23.43-6.38,0-6.65,1.07-6.65,4.23Z" style="fill:#fff"/><path d="M342.43,368.73c-.05-3.77-4.18-2.74-4.18-3.87,0-.46.11-.57.52-.57,1.91,0,3.77.2,5.68.2,1.6,0,3.2-.2,4.8-.2.83,0,1,.1,1,.52,0,1.24-3.72.05-3.72,3.93v27.73c0,3.51,4.6,2.32,4.6,3.87,0,.36-.15.52-1,.52-1.19,0-3.41-.21-5.63-.21-3.15,0-4.24.21-5,.21-.93,0-1.08-.26-1.08-.77,0-1.5,4,.21,4-4.91Z" style="fill:#fff"/><path d="M376.28,388.51c-.52-1.19-.83-2-2.27-2H362.65c-1,0-1.91,0-2.43,1.09l-3.31,7.23a5.33,5.33,0,0,0-.36,1.81c0,3.62,3.67,2.07,3.67,3.41,0,.93-.72.77-1.4.77-1.44,0-2.89-.21-4.34-.21s-2.79.21-4.13.21c-.31,0-.46-.26-.46-.57,0-1.09,2.42-.21,3.77-3.15L366,370.79c3-6.51,3.2-7.33,3.87-7.33s.93,1.5,1.08,1.91L381.71,392a32.82,32.82,0,0,0,2.58,5.89c1.55,2.38,4.55,1.24,4.55,2.53,0,.46-.37.46-.72.46-2.12,0-4.24-.21-6.35-.21-1.4,0-2.79.21-4.18.21-.31,0-1.14,0-1.14-.52,0-1.24,3.1-.72,3.1-2.69,0-1.14-1.09-3.51-1.6-4.91Zm-13.95-5.17c-.36.72,0,.93.67.93h10.23c1.13,0,1.08-.36.82-1L369,370.79c-.26-.62-.52-.62-.82,0Z" style="fill:#fff"/><path d="M10.33,367.18c0-2.82-2.27-1.94-2.27-2.68,0-.19.22-.28.39-.28.86,0,1.66.11,2.49.11,1.82,0,3.62-.11,6-.11,4.89,0,9.71,3.71,9.71,8.82,0,6.36-3,10.76-10.67,10.76-1.41,0-2.82-.11-4.23-.11l-3.1.11c-.22,0-.28-.11-.28-.28,0-.63,2,.06,2-2.57Zm2.18,12.61c0,.45-.08,1.77.17,2,.91.91,3,1.24,4.26,1.24,3.93,0,7.66-2.1,7.66-8.49,0-6.14-4.09-9.62-9.34-9.65-2.63,0-2.74.44-2.74,1.74Z" style="fill:#fff"/><path d="M32.19,372.27c0,.94-.06.94,1,.94h3c2.88,0,2.13-2.21,2.79-2.21.22,0,.3.3.3.52,0,1-.05,1.91-.05,2.79,0,.72.05,1.44.05,2.18,0,.25-.11.36-.3.36-.86,0,.08-2.43-2.24-2.43H32.68c-.58,0-.5.47-.5.88v5.09c0,1.63-.22,2.29,2.1,2.29,6.39,0,7.33-2.85,7.69-2.85.19,0,.22.28.22.33a4.38,4.38,0,0,1-1.38,2.68c-.89,1-1.49.94-2.71.94-2.1,0-4.2-.16-6.3-.11-1.11,0-2.27.11-3.37.11-.25,0-.41-.06-.41-.28s.33-.28,1.22-.72c.72-.33.77-1.1.77-2.4V367.79c0-1.24,0-2.57-1.49-2.79-.22-.05-.83-.11-.83-.44s.17-.33,1-.33c5.23,0,6.66.11,7.83.11.55,0,3.1-.11,4-.11.22,0,.28.28.28.61,0,3.07-.39,3.29-.55,3.29-.66,0-.22-1.33-.66-2-.72-.94-3.6-.78-4.7-.78-2.66,0-2.6-.11-2.6,1.74Z" style="fill:#fff"/><path d="M47.51,380.4c0,1.63-.22,2.29,2.1,2.29,6.39,0,7.33-2.85,7.69-2.85.19,0,.22.28.22.33a4.38,4.38,0,0,1-1.38,2.68c-.88,1-1.49.94-2.71.94-2.1,0-4.2-.16-6.3-.11-1.11,0-2.27.11-3.37.11-.25,0-.41-.06-.41-.28s.33-.28,1.22-.72c.72-.33.78-1.1.78-2.4v-14c0-1.44-2.32-1.25-2.32-1.8,0-.31.19-.36.55-.36.58,0,1.44.11,2.79.11,1.58,0,2.24-.11,2.66-.11s.52.05.52.39c0,.64-2-.05-2,2.35Z" style="fill:#fff"/><path d="M279.69,299.86c2.52,0,4.9.3,7.42.3,2.23,0,4.31-.3,6.39-.3,1,0,1.34.15,1.34.6,0,1.63-4.9.15-4.9,5.2v36.54c0,4.75,5.94,3.12,5.94,5.2,0,.44-.15.59-1.34.59-1.48,0-4.46-.15-7.43-.15-4.16,0-5.5.15-6.54.15s-1.34-.3-1.34-1c0-1.93,5.2.3,5.2-6.39v-34.9c0-4.9-5.5-3.57-5.5-5.05C278.95,300,279.09,299.86,279.69,299.86ZM171.85,322c7.13,0,5.34-5.49,7-5.49.45,0,.74.74.74,1.34,0,2.38-.15,4.6-.15,6.83,0,1.78.15,3.56.15,5.35,0,.59-.3.89-.74.89-2.08,0,.15-5.94-5.5-5.94h-10.1c-1.48,0-1.19,1.19-1.19,2.23v12.48c0,4-.59,5.64,5.05,5.64,15.74,0,18.12-7,19-7,.45,0,.45.59.45.74,0,2.53-1.78,4.9-3.27,6.68-2.23,2.38-3.71,2.23-6.68,2.23-5.2,0-10.4-.3-15.6-.15-2.67,0-5.5.15-8.32.15-.59,0-1-.15-1-.59.15-.89.89-.75,3-1.79,1.78-.89,1.93-2.67,1.93-5.94v-31c0-3.12,0-6.39-3.56-6.83-.59-.15-2.08-.29-2.08-1.19,0-.45.45-.74,2.38-.74,12.78,0,16.34.3,19.31.3,1.34,0,7.57-.3,9.65-.3.59,0,.74.6.74,1.49,0,7.57-1,8-1.34,8-1.63,0-.59-3.27-1.63-4.75-1.78-2.38-8.91-1.93-11.59-1.93-6.54,0-6.39-.3-6.39,4.31v12.62c0,2.38-.15,2.38,2.52,2.38Zm15-22.13c1.19,0,2.23.3,3.27.3s2.08-.3,3.12-.3c.74,0,1.34,1,1.79,1.49l32.53,36.24c.29.44.59.74.74.74s.3-.3.3-.74V309.07c0-8.91-7.57-6.23-7.57-8.61,0-.45.3-.6.74-.6,1.93,0,4,.3,6.09.3,2.38,0,5.35-.3,7-.3a.54.54,0,0,1,.6.6c0,1.78-4,.59-4,5.49v39.36c0,2.08,0,3-.59,3s-1.19-.29-2.53-1.93l-29.26-33c-.15,0-1-1.19-1.48-1.19s-.45.15-.45,1.48V341.6c0,6.09,5.94,3.71,5.94,5.49,0,.45,0,.89-.74.89-1.63,0-3.57-.15-6.83-.15-2.38,0-5.95.15-6.39.15-.89,0-.89-.3-.89-.74,0-2.38,5.94.59,5.94-8.91v-25.1c0-14.11-8.17-10.25-8.17-12.77C186,300.16,186.56,299.86,186.85,299.86Zm55.85,3.71c-4.31,0-4.46,1-5.64,4.75-.3.74-.3,1.63-1.19,1.63-.45,0-.59-.59-.59-.89l.74-6.53c0-.89,0-2.67,1.19-2.67,5.35,0,10.55.3,19.31.3,12.33,0,18.57-.3,19.9-.3,1.63,0,1.93.45,2.08,1.93l.3,5.5c0,.59.15,1.48-.74,1.48-2.53,0,1.19-5.2-5.79-5.2h-9.8c-2.53,0-2.67.15-2.67,3.27V341.6c0,5.79,5.5,3.56,5.5,5.64,0,.15.15.74-.6.74-1.63,0-3.56-.15-5.49-.15-7.57,0-8.91.15-9.36.15s-.74-.15-.74-.89c0-1.63,5.35-.89,5.35-5.05V306.69c0-.44.15-3.12-.89-3.12ZM130.41,345.16c-.74,1.78-1.19,4-2.23,4s-1.93-3-2.53-4.31l-16.78-39.81c-1.63-4-5.35-2.82-5.35-4.31,0-.59.45-.89,1-.89,2.08,0,4.16.3,6.24.3,1.78,0,4.46-.3,5.35-.3.45,0,.89.3.89.6.15,1-2.67,1-2.67,3.56a7.81,7.81,0,0,0,.59,2.67l11.88,27.92c1.63,3.71,1.93,5.2,2.67,5.2s.89-1,1.34-1.93l11.73-29.12c.45-1,1.34-3.27,1-4.6,0-3.12-4.46-1.93-4.46-3.42,0-.74.45-.89,1-.89,1.49,0,3,.3,4.6.3,3.27,0,4.16-.3,5.2-.3.74,0,1.19.3,1.19.89,0,1.48-1.93-.3-3.86,4.31Zm-59.56,2.67c-.45,0-4.16.15-6.24.15-3.71,0-5.94-.15-8.91-.15-2.53,0-4.9.3-7.43.3-.44,0-1.93,0-1.93-.89,0-2.23,5.35-1.34,5.35-4.76,0-1.93-1.78-6.09-2.67-8.46l-3-7.43c-.89-2.08-1.34-3.42-3.86-3.42H22.28c-1.78,0-3.42,0-4.31,1.93l-5.64,12.63a8,8,0,0,0-.74,3.12c0,6.24,6.39,3.57,6.39,5.94,0,1.64-1.19,1.34-2.38,1.34-2.53,0-5-.3-7.57-.3s-4.9.3-7.28.3c-.45,0-.74-.44-.74-1,0-1.78,4.16-.3,6.54-5.49l21.54-45.9c5.35-11.44,5.64-12.92,6.83-12.92,1,0,1.63,2.68,1.93,3.41l18.71,46.49c1.34,3.27,2.38,7,4.46,10.25,1.48,2.08,2.82,2.82,4.6,2.82,1.49,0,2.67-1.78,2.67-4.75V307.14c0-7-5.5-4.76-5.5-6.68,0-.45.45-.6.89-.6,2.08,0,4.16.3,6.09.3,4.61,0,8.91-.3,14.85-.3,12,0,23.91,9.06,23.91,21.69,0,15.6-7.43,26.44-26.29,26.44C77.68,348,74.27,347.83,70.85,347.83Zm1.78-42v32.38c0,1-.15,4.3.45,4.9,2.23,2.23,7.43,3.12,10.54,3.12,9.65,0,18.86-5.2,18.86-20.94,0-15.15-10.1-23.62-23-23.76C72.93,301.49,72.63,302.68,72.63,305.8Zm-40.7-10.1L21.68,317.54c-.59,1.34,0,1.63,1.19,1.63H40.7c2.08,0,1.93-.59,1.48-1.78L33.42,295.7C33,294.51,32.53,294.51,31.93,295.7Zm342.52,6.09.3,5.5c0,.59.15,1.48-.74,1.48-2.53,0,1.19-5.2-5.79-5.2h-9.8c-2.67,0-2.67.15-2.67,3.27V341.6c0,5.79,5.49,3.56,5.49,5.64,0,.15.15.74-.59.74-1.63,0-3.56-.15-5.5-.15-7.57,0-8.91.15-9.36.15s-.74-.15-.74-.89c0-1.63,5.35-.89,5.35-5.05V306.69c0-.44.15-3.12-.89-3.12H335.39c-4.16,0-4,1.48-4,3.86,0,.74.59,3.71-.74,3.71-.74,0-1.19-1.48-1.48-2.08-2.08-5.79-6.83-7.87-12.78-7.87-5.49,0-11.14,2.67-11.14,8.91,0,12.77,27.63,5.35,27.63,24.06,0,5.79-4,14.41-19.46,14.41-5.05,0-11.29-2.53-11.59-3.86L300.19,336c-.3-1.34,0-2.08.74-2.08s.89.89,1.34,2.23a14.48,14.48,0,0,0,14.26,10.25c6.54,0,12.77-3.56,12.77-10.84,0-13.07-27.63-5.79-27.63-23.46,0-8.62,7.28-12.78,15.15-12.78,8.17,0,10.4,2.38,11.44,2.38s1.19-1.78,2.52-1.78c5.35,0,12.92.3,21.69.3,12.33,0,18.57-.3,19.91-.3C374,299.86,374.3,300.3,374.45,301.79Z" style="fill:#fff"/><path d="M400.45,331.73c-.68-1.56-1.08-2.58-3-2.58H382.53c-1.29,0-2.51,0-3.19,1.43l-4.35,9.5a7,7,0,0,0-.47,2.37c0,4.75,4.82,2.71,4.82,4.48,0,1.22-1,1-1.83,1-1.9,0-3.8-.27-5.7-.27s-3.67.27-5.43.27c-.4,0-.61-.34-.61-.75,0-1.42,3.19-.27,5-4.14l16.22-34.61c4-8.55,4.21-9.64,5.09-9.64s1.22,2,1.43,2.51l14.12,35c1,2.51,1.83,5.36,3.39,7.73,2,3.12,6,1.63,6,3.33,0,.61-.47.61-1,.61-2.78,0-5.57-.27-8.35-.27-1.83,0-3.66.27-5.5.27-.4,0-1.49,0-1.49-.68,0-1.63,4.07-1,4.07-3.53,0-1.49-1.43-4.62-2.1-6.45Zm-18.32-6.79c-.47,1,0,1.22.88,1.22h13.44c1.49,0,1.42-.48,1.08-1.36l-6.65-16.36c-.34-.81-.68-.81-1.09,0Z" style="fill:#fff"/><path d="M189.74,191.9v-9.63H203.4v-.91c0-9.64-4.44-16.7-35.06-11.39l-50.36,9L89,219.13l69.53-12.33c20.83-3.57,39.12-4.32,44.86,12.24V191.9Z" style="fill:#fff"/><path d="M212.9,219c0-13.11,7.74-22.12,23.55-37.93L247.59,170l50.92,9,29,40.15-66.77-11.52C238.13,203.22,218.94,201.7,212.9,219Z" style="fill:#fff"/><path d="M215.72,182.25c5-10.82,15.79-20.61,22-26.78l4.39-4.46c18.7-18.7,22.29-26.43,23.43-39.31.05-.67,1,2.52,1.3,4.78a41.65,41.65,0,0,1-2.17,20.7c-3.86,11.36-13,20.4-24.83,32.25l-12.89,12.83Z" style="fill:#fff"/><path d="M226.58,25.45c0-.1.31-.16.31,0V40.37c0,13.49-17.33,29-24.24,35.91l-25.39,25.46c-8.78,8.78-26.36,26.12-19,42.84.25.55.47,1-.47.37-1.88-1.33-4.72-6-5.48-14.57-1.35-15.25,9-28.9,21.87-41.72L198.42,64.4C223,39.84,225.38,35.51,226.58,25.45Z" style="fill:#fff"/><path d="M202.65,101.8c6.91-6.86,24.24-22.42,24.24-35.91V51c0-.16-.31-.1-.31,0C225.38,61,223,65.36,198.42,89.93l-22.5,22.54c-8.18,8.17-15.67,16.74-15.33,30.58.21,8.48,4.48,15.51,10.89,17.16,2.64.57,2.48.22,1.85,0-9.06-4.28-8.41-20.64,6.23-35.28Z" style="fill:#fff"/><path d="M174.41,79.24c-18.7,18.7-22.29,26.43-23.43,39.31-.05.67-1-2.52-1.3-4.78a41.59,41.59,0,0,1,2.17-20.7c3.86-11.36,13-20.4,24.83-32.25L198.42,39C223,14.48,225.38,10.15,226.58.1c0-.1.31-.16.31,0V15c0,13.49-17.33,29-24.24,35.91Z" style="fill:#fff"/><path d="M213.22,206.72c0,.11-.32.11-.32,0V191.9h6.21A32,32,0,0,0,213.22,206.72Z" style="fill:#fff"/><path d="M213.26,182.27c0,.12-.32.12-.32,0V167.18c0-11.33,11.11-23.59,22.12-34.53l7.15-7.14c5.76-5.77,23.37-23.13,16-39.86-.25-.56-.47-1,.47-.37,1.88,1.33,4.72,6,5.48,14.57,1.35,15.25-9,28.9-21.87,41.72l-6.61,6.64C219.76,164.14,214.46,171.28,213.26,182.27Z" style="fill:#fff"/><path d="M213.25,156.11c0,.11-.32.11-.32,0V140.79c0-10.81,10.72-22.47,15.92-27.67l8.06-8c14.64-14.64,15.29-31,6.23-35.28-.63-.27-.79-.61,1.85,0,6.41,1.66,10.68,8.68,10.89,17.16.35,13.84-7,22.35-15.2,30.53L234.15,124C220.48,137.64,214.49,145.64,213.25,156.11Z" style="fill:#fff"/><path d="M326.82,189.51a6.83,6.83,0,0,1,0,13.66,6.47,6.47,0,0,1-5.19-2.41,6.83,6.83,0,0,1,0-8.85A6.54,6.54,0,0,1,326.82,189.51Zm0,.76a6.07,6.07,0,1,0,4.3,1.78A5.84,5.84,0,0,0,326.82,190.27Zm.86,6.05,1.53,2.22.19.27c.48.7.91,1,1.28,1.07h.18c.12,0,.18.06.17.17s-.31.28-.89.28a2.25,2.25,0,0,1-1.82-1.22L326.89,197l-.08-.12a.41.41,0,0,0-.38-.19h-.85l0,.12v2a1.41,1.41,0,0,0,.18.87,1.24,1.24,0,0,0,.8.28c.19,0,.28.09.29.21s-.08.19-.27.19l-.35,0a6.25,6.25,0,0,0-.72,0h-.86l-.47,0-.29,0c-.16,0-.25-.06-.25-.19s.07-.16.21-.19a.73.73,0,0,0,.56-.39,3.71,3.71,0,0,0,.12-1.22v-4.63q0-.81-.57-.9l-.27,0c-.16,0-.25-.11-.25-.22s.09-.19.27-.19l.41,0h.51l.89,0c.31,0,.58,0,.81,0,1.83,0,2.74.67,2.74,2A2.19,2.19,0,0,1,327.68,196.32Zm-1.8-.24h.63a1.31,1.31,0,0,0,1.51-1.46,1.57,1.57,0,0,0-.56-1.24,2,2,0,0,0-1.39-.49c-.35,0-.52.14-.52.41v2.45a.48.48,0,0,0,0,.27A.46.46,0,0,0,325.88,196.08Z" style="fill:#fff"/><path d="M413.52,293.61a6.83,6.83,0,1,1,0,13.65,6.45,6.45,0,0,1-5.19-2.41,6.82,6.82,0,0,1,0-8.85A6.54,6.54,0,0,1,413.52,293.61Zm0,.76a6.06,6.06,0,1,0,4.3,1.78A5.82,5.82,0,0,0,413.52,294.37Zm.86,6.05,1.52,2.22.19.27c.48.7.91,1,1.29,1.07h.18c.12,0,.18.06.17.17s-.31.28-.9.28a2.25,2.25,0,0,1-1.82-1.22l-1.43-2.15-.08-.12a.41.41,0,0,0-.38-.19h-.85l0,.12v2a1.42,1.42,0,0,0,.18.87,1.25,1.25,0,0,0,.8.27c.19,0,.28.09.29.21s-.08.2-.27.2l-.35,0a6.92,6.92,0,0,0-.72,0h-.86a3.77,3.77,0,0,0-.47,0l-.29,0c-.17,0-.25-.06-.25-.2s.07-.16.21-.19a.75.75,0,0,0,.56-.39,3.71,3.71,0,0,0,.12-1.22v-4.63q0-.81-.57-.9l-.27,0c-.17,0-.25-.11-.25-.22s.09-.19.27-.19l.41,0h.5l.89,0c.31,0,.58,0,.81,0q2.74,0,2.75,2A2.2,2.2,0,0,1,414.38,300.42Zm-1.8-.24h.64a1.31,1.31,0,0,0,1.5-1.46,1.57,1.57,0,0,0-.56-1.24,2,2,0,0,0-1.38-.49c-.35,0-.52.14-.52.42v2.45a.51.51,0,0,0,0,.27S412.43,300.18,412.58,300.18Z" style="fill:#fff"/><path d="M106.57,361.55a4.85,4.85,0,0,0,1.89-1l3.43-3.78.42-.47a1.22,1.22,0,0,0,.37-.76q0-1-1.07-1a18.16,18.16,0,0,0-2.45.09,1,1,0,0,0-.64.64l-.61,1.39q-.21.5-1,2.18l-.55,1.2a2.62,2.62,0,0,0-.29,1Q106.07,361.55,106.57,361.55Z" style="fill:#fff"/><path d="M343.27,361.55a4.68,4.68,0,0,0,1.86-1l3.43-3.78.42-.47a1.19,1.19,0,0,0,.39-.76c0-.68-.36-1-1.07-1a18.18,18.18,0,0,0-2.45.09,1,1,0,0,0-.64.64l-.61,1.39q-.21.5-1,2.18a8.61,8.61,0,0,0-.84,2.23C342.76,361.37,342.93,361.55,343.27,361.55Z" style="fill:#fff"/></svg>