<svg xmlns="http://www.w3.org/2000/svg" viewBox="0 0 496.41 398.62"><defs><style>.a{fill:#fff;}</style></defs><title>Asset 1</title><path class="a" d="M240.1,214.12v-26.5H226.7v-9.5h13.4v-.9c0-9.4-4.3-16.3-34.3-11.1l-49.2,8.8-28.3,39.3,68-12.1C216.6,198.62,234.5,197.92,240.1,214.12Z"/><path class="a" d="M272.4,177c-15.5,15.5-23,24.3-23,37.1,5.9-16.9,24.7-15.5,46.8-11.2l65.3,11.3L333.1,175l-49.8-8.8Z"/><path class="a" d="M273.6,151.92c-6,6-16.5,15.6-21.5,26.2H263l12.6-12.5c11.6-11.6,20.5-20.4,24.3-31.5,2.5-7.4,3.1-12.8,2.1-20.2-.3-2.2-1.2-5.3-1.3-4.7-1.1,12.6-4.6,20.1-22.9,38.4Z"/><path class="a" d="M214.5,99.42l24.8-24.9c6.7-6.7,23.7-21.9,23.7-35.1V24.82c0-.2-.3-.1-.3,0-1.2,9.8-3.5,14.1-27.5,38.1l-23.7,23.7c-12.5,12.5-22.7,25.9-21.4,40.8.7,8.4,3.5,12.9,5.4,14.2.9.6.7.2.5-.4C188.8,125,205.9,108,214.5,99.42Z"/><path class="a" d="M239.3,99.52c6.7-6.7,23.7-21.9,23.7-35.1V49.82c0-.2-.3-.1-.3,0-1.2,9.8-3.5,14.1-27.5,38.1l-22,22c-8,8-15.3,16.4-15,29.9.2,8.3,4.4,15.2,10.6,16.8,2.6.6,2.4.2,1.8,0-8.9-4.2-8.2-20.2,6.1-34.5Z"/><path class="a" d="M188.8,115.92c1.1-12.6,4.6-20.1,22.9-38.4l27.6-27.7c6.7-6.7,23.7-21.9,23.7-35.1V.12c0-.2-.3-.1-.3,0-1.2,9.8-3.5,14.1-27.5,38.1L214,59.52c-11.6,11.6-20.5,20.4-24.3,31.5-2.5,7.4-3.1,12.8-2.1,20.2C187.8,113.42,188.8,116.52,188.8,115.92Z"/><path class="a" d="M249.7,202a31,31,0,0,1,5.8-14.5h-6.1V202C249.3,202.12,249.6,202.12,249.7,202Z"/><path class="a" d="M278,122.72l-7,7c-10.8,10.7-21.6,22.7-21.6,33.7v14.7c0,.1.3.1.3,0,1.2-10.7,6.3-17.7,21.9-33.3l6.5-6.5c12.5-12.5,22.7-25.9,21.4-40.8-.7-8.4-3.5-12.9-5.4-14.2-.9-.7-.7-.2-.5.4C300.8,100.12,283.6,117,278,122.72Z"/><path class="a" d="M249.4,152.62c0,.1.3.1.3,0,1.2-10.2,7.1-18,20.4-31.4l6.4-6.4c8-8,15.2-16.3,14.9-29.8-.2-8.3-4.4-15.2-10.6-16.8-2.6-.6-2.4-.2-1.8,0,8.9,4.2,8.2,20.2-6.1,34.5l-7.9,7.9c-5.1,5.1-15.6,16.5-15.6,27v15Z"/><path class="a" d="M356.3,187.22h.2c.3,0,.5.3.5.7v3.8a2.24,2.24,0,0,1-.1,1,.46.46,0,0,1-.5.3.2.2,0,0,0,0,.4h2.2c.2,0,.2-.1.2-.2a.22.22,0,0,0-.2-.2,1.17,1.17,0,0,1-.7-.2c-.1-.1-.1-.4-.1-.7v-1.7h.7c.1,0,.3.1.3.2l.1.1,1.2,1.8a1.68,1.68,0,0,0,1.5,1c.5,0,.7-.1.7-.2s0-.1-.1-.1h-.1c-.3,0-.7-.3-1.1-.9l-.2-.2-1.3-1.8a1.82,1.82,0,0,0,1.1-1.6c0-1.1-.8-1.7-2.3-1.7h-2.1a.22.22,0,0,0-.2.2C356.1,187.12,356.1,187.22,356.3,187.22Zm2,.1a1.37,1.37,0,0,1,1.1.4,1.39,1.39,0,0,1,.5,1,1.06,1.06,0,0,1-1.2,1.2H358v-2.3C357.8,187.42,358,187.32,358.3,187.32Z"/><path class="a" d="M358.9,195.82a5.6,5.6,0,1,0,0-11.2,5.5,5.5,0,0,0-4.3,2,5.58,5.58,0,0,0-1.3,3.7,5.15,5.15,0,0,0,1.3,3.6A5.59,5.59,0,0,0,358.9,195.82Zm-3.5-9.2a4.85,4.85,0,0,1,3.5-1.5,4.54,4.54,0,0,1,3.5,1.5,4.85,4.85,0,0,1,1.5,3.5,4.54,4.54,0,0,1-1.5,3.5,4.85,4.85,0,0,1-3.5,1.5,4.54,4.54,0,0,1-3.5-1.5,4.83,4.83,0,0,1,0-7Z"/><path class="a" d="M8.9,276.42a11.22,11.22,0,0,0,7.8-2.7,9,9,0,0,0,3.1-6.9c0-4.1-2.8-7.1-8.3-8.9a36,36,0,0,1-5.3-2,6.27,6.27,0,0,1-2-1.7,5.24,5.24,0,0,1-1.1-3.3,4.65,4.65,0,0,1,1.6-3.6,5.6,5.6,0,0,1,4-1.4,9.58,9.58,0,0,1,5.5,1.6,8.42,8.42,0,0,1,3.3,4c.2.7.5,1.1.7,1.1s.5-.2.5-.7a4.4,4.4,0,0,0-.1-.9l-.4-2.3c-.2-1.3-.3-2-.3-2.3,0-.8-.2-1.1-.6-1.1-.1,0-.2,0-.2.1l-.3.3a1.69,1.69,0,0,1-.5.2.6.6,0,0,1-.4-.1l-1.5-.6a10,10,0,0,0-4.1-.7,10.72,10.72,0,0,0-7,2.3,7.35,7.35,0,0,0-2.7,5.9A7.08,7.08,0,0,0,2.7,258c1.4,1.4,3.7,2.6,7,3.7s5.2,1.9,5.8,2.5a5.31,5.31,0,0,1,2,4.2,5.63,5.63,0,0,1-2.1,4.4,7.83,7.83,0,0,1-5.2,1.8,9,9,0,0,1-5.6-1.9A8.71,8.71,0,0,1,1.2,268c-.2-.7-.5-1.1-.7-1.1s-.5.2-.5.6a12.17,12.17,0,0,0,.6,2.9,9.84,9.84,0,0,0,.6,2c.2.8.3,1.4.4,1.6a2.65,2.65,0,0,0,.5.6,10,10,0,0,0,3,1.1A9.06,9.06,0,0,0,8.9,276.42Z"/><path class="a" d="M24,245.92c1.4,0,2.3.4,2.7,1.1s.7,2.2.7,4.3v20.5c0,1.8-.5,2.8-1.6,3.1l-.9.2c-.4.1-.6.3-.6.5s.2.5.7.5c.2,0,.6-.1,1.2-.2a34.52,34.52,0,0,1,5.5-.3,68.55,68.55,0,0,1,7.1.4,11.56,11.56,0,0,0,1.7.1,6.2,6.2,0,0,0,5-2.4,5.69,5.69,0,0,0,1.6-3.5c0-.4-.1-.6-.4-.6s-.3.1-.5.4c-1.7,2.7-5.4,4-11.3,4a8.17,8.17,0,0,1-3.5-.5c-.5-.3-.7-1.1-.7-2.4v-9c0-.5.1-.8.4-.9a4,4,0,0,1,1.5-.2h4.9a5.57,5.57,0,0,1,2.7.5,3.2,3.2,0,0,1,1.1,2l.1.6a.63.63,0,0,0,.6.5c.3,0,.4-.2.4-.6v-.6a24.37,24.37,0,0,1-.1-2.7c0-1.2.1-2.5.2-4v-.5c0-.4-.1-.6-.4-.6a.63.63,0,0,0-.6.5,3.92,3.92,0,0,1-.7,1.9,2.41,2.41,0,0,1-1.6.6,18.32,18.32,0,0,1-3.7.3H32a2.87,2.87,0,0,1-1.2-.2,2.75,2.75,0,0,1-.2-1.3v-9c0-.8.1-1.3.4-1.5a3.61,3.61,0,0,1,1.8-.3h3.5a25.68,25.68,0,0,1,4.8.3,2.35,2.35,0,0,1,1.7,1.3,3.19,3.19,0,0,1,.3,1.4v.6c0,.5.1.7.4.7a.46.46,0,0,0,.5-.3,4.66,4.66,0,0,0,.2-1.6l.1-1.3a11.05,11.05,0,0,1,.2-1.8,4.33,4.33,0,0,1,.1-.5c0-.4-.2-.6-.7-.6a3.44,3.44,0,0,0-.9.1c-.2,0-.7.1-1.6.1l-3.2.2c-1.4.1-3,.1-4.8.1a56.87,56.87,0,0,1-7.7-.4,8.64,8.64,0,0,0-1.5-.1c-.7,0-1,.2-1,.6S23.5,245.92,24,245.92Z"/><path class="a" d="M50.9,245.92c1.5.2,2.4.7,2.8,1.5s.6,2.8.6,6V267a20.46,20.46,0,0,1-.6,6.1,2.93,2.93,0,0,1-2.4,2c-.5.1-.7.2-.7.5s.2.4.6.4a7.17,7.17,0,0,0,1.3-.1,10.36,10.36,0,0,1,2-.1h5.6a9.89,9.89,0,0,0,1.5.1c.6,0,.8-.2.8-.6s-.2-.4-.7-.4a9.91,9.91,0,0,1-1.9-.3c-1.2-.3-1.9-1.4-2-3.2l-.1-1.9v-21.6a2.06,2.06,0,0,1,.3-1.3,1.74,1.74,0,0,1,1.2-.3,9.49,9.49,0,0,1,6.5,2.2,7.26,7.26,0,0,1,2.6,5.6,6,6,0,0,1-1.9,4.7,7.31,7.31,0,0,1-5.2,1.8,6.52,6.52,0,0,1-1.7-.2c-.2,0-.3-.1-.4-.1-.3,0-.4.1-.4.3s.3.5,1.1.7a10.32,10.32,0,0,0,2.6.3,9.52,9.52,0,0,0,5.7-1.9,8,8,0,0,0,3.6-6.9,7.25,7.25,0,0,0-2.9-5.9,12.07,12.07,0,0,0-7.6-2.3,20.15,20.15,0,0,0-2.3.1,35.71,35.71,0,0,1-4.2.2c-.6,0-1.4-.1-2.3-.2a5.38,5.38,0,0,0-1.1-.1c-.6,0-.9.2-.9.5C50.3,245.82,50.5,245.92,50.9,245.92Z"/><path class="a" d="M77.7,247.62h5.9a2.33,2.33,0,0,1,1.1.2c.2.2.2.5.2,1v22.9a4.12,4.12,0,0,1-.6,2.6,3.8,3.8,0,0,1-2.3,1c-.5.1-.7.2-.7.4s.2.5.7.5a12.42,12.42,0,0,0,1.5-.1c.4,0,1-.1,1.6-.1h3.4a8.74,8.74,0,0,1,2,.1,5.94,5.94,0,0,0,1.1.1c.4,0,.6-.2.6-.5s-.3-.4-.8-.5c-1.9-.3-2.9-1.4-2.9-3.1v-22.9a1.88,1.88,0,0,1,.3-1.3,1.74,1.74,0,0,1,1.2-.3h6.3a4.43,4.43,0,0,1,2.5.5,3.43,3.43,0,0,1,.9,2.1c.1.5.3.7.5.7s.5-.3.5-.7c0-.2-.1-.6-.1-1.1a9.23,9.23,0,0,1-.1-1.9c0-.9-.1-1.4-.3-1.6a2.37,2.37,0,0,0-1.5-.3H74.5a1.33,1.33,0,0,0-1,.3c-.2.2-.2.7-.2,1.4a15.73,15.73,0,0,1-.3,2.7,8.57,8.57,0,0,0-.3,1.7c0,.4.1.6.4.6s.5-.3.6-.8a4.53,4.53,0,0,1,1.3-2.7A3.3,3.3,0,0,1,77.7,247.62Z"/><path class="a" d="M103.1,245.92a3.8,3.8,0,0,1,2.7,1.3,7.91,7.91,0,0,1,.6,3.8v19.2a9,9,0,0,1-.5,3.7,2.93,2.93,0,0,1-2.2,1.2c-.5.1-.7.2-.7.5s.2.5.6.5a4.91,4.91,0,0,0,1.1-.1l2.6-.2h3.3a14.89,14.89,0,0,1,2.4.1c.3,0,.6.1.9.1.5,0,.7-.2.7-.5s-.4-.4-1.1-.5a5.17,5.17,0,0,1-2.1-.7,4.08,4.08,0,0,1-1.1-1.6,13,13,0,0,1-.4-4.2v-16.8c0-3.2.6-4.9,1.7-5.4l1.2-.4q.6-.15.6-.6c0-.3-.2-.4-.6-.4h-.6l-1.5.2c-.8,0-1.7.1-2.8.1-1.8,0-3.3-.1-4.3-.2h-.4c-.4,0-.7.2-.7.5S102.7,245.92,103.1,245.92Z"/><path class="a" d="M116.6,245.92a4.88,4.88,0,0,1,3.6,2.5c.9,1.4,1.2,3.5,1.2,6.1v15.3a6.33,6.33,0,0,1-.7,3.5,4.43,4.43,0,0,1-2.5,1.7c-.4.1-.6.3-.6.5s.2.4.6.4a2.81,2.81,0,0,0,.8-.1,9.15,9.15,0,0,1,1.7-.1h1.1l2.3.1c1.1.1,1.8.1,2,.1h.7c.3,0,.5-.1.5-.4s-.2-.5-.7-.6a5.92,5.92,0,0,1-2.4-.8,3.37,3.37,0,0,1-.8-2l-.1-1.6v-16.1c0-.7.1-1,.4-1a.37.37,0,0,1,.3.1l.2.2,18.9,21.6.5.6a.76.76,0,0,0,.5.2.56.56,0,0,0,.6-.5,20.41,20.41,0,0,0,.1-3.1v-22.7a6.56,6.56,0,0,1,.4-2.9,2.68,2.68,0,0,1,1.8-1.1c.3-.1.5-.2.4-.4s-.2-.5-.6-.5a4.91,4.91,0,0,0-1.1.1,14.12,14.12,0,0,1-2.2.1c-1.7,0-3.1-.1-4.1-.2-.4,0-.7-.1-.9-.1-.4,0-.7.1-.7.4s.2.5.7.5a6.47,6.47,0,0,1,3.2,1.2,3.78,3.78,0,0,1,1.1,2.7l.3,5.2v14.3c0,.3-.1.4-.2.4s-.3-.2-.6-.5l-20.6-23.4c-.4-.4-.7-.7-1.1-.7h-4c-.3,0-.5.1-.5.4S116.2,245.82,116.6,245.92Z"/><path class="a" d="M176.7,250.12c.1.5.3.7.5.7s.5-.3.5-.7c0-.2-.1-.6-.1-1.1a9.23,9.23,0,0,1-.1-1.9c0-.9-.1-1.4-.3-1.6a2.37,2.37,0,0,0-1.5-.3H151.5a1.33,1.33,0,0,0-1,.3c-.2.2-.2.7-.2,1.4a15.73,15.73,0,0,1-.3,2.7,8.57,8.57,0,0,0-.3,1.7c0,.4.1.6.4.6s.5-.3.6-.8a4.53,4.53,0,0,1,1.3-2.7,3.68,3.68,0,0,1,2.6-.7h5.9a2.33,2.33,0,0,1,1.1.2c.2.2.2.5.2,1v22.9a4.12,4.12,0,0,1-.6,2.6,3.8,3.8,0,0,1-2.3,1c-.5.1-.7.2-.7.4s.2.5.7.5a11.45,11.45,0,0,0,1.5-.1c.4,0,1-.1,1.6-.1h3.4a8.74,8.74,0,0,1,2,.1,5.94,5.94,0,0,0,1.1.1c.4,0,.6-.2.6-.5s-.3-.4-.8-.5c-1.9-.3-2.9-1.4-2.9-3.1v-22.9a1.88,1.88,0,0,1,.3-1.3,1.74,1.74,0,0,1,1.2-.3h6.3a4.43,4.43,0,0,1,2.5.5C176.2,248.42,176.5,249.12,176.7,250.12Z"/><path class="a" d="M195.1,276.42a15.44,15.44,0,0,0,11.6-4.6,16.22,16.22,0,0,0,4.5-11.8,14.77,14.77,0,0,0-4.5-11.1,15.78,15.78,0,0,0-11.5-4.3,16.54,16.54,0,0,0-6.6,1.3,14.26,14.26,0,0,0-5.3,3.4,16.81,16.81,0,0,0-4.4,11.2c0,4.8,1.5,8.6,4.5,11.5S190.3,276.42,195.1,276.42Zm-9.6-26.8a10.5,10.5,0,0,1,8.3-3.5,13.08,13.08,0,0,1,10.1,4.5,16.1,16.1,0,0,1,4.1,11.2,13.59,13.59,0,0,1-3.4,9.6,11.15,11.15,0,0,1-8.6,3.8,12.12,12.12,0,0,1-9.6-4.7,17.14,17.14,0,0,1-3.9-11.4C182.5,255.12,183.5,251.92,185.5,249.62Z"/><path class="a" d="M216.6,274.82a10,10,0,0,0,3,1.1,18.06,18.06,0,0,0,3.8.5,11.22,11.22,0,0,0,7.8-2.7,9,9,0,0,0,3.1-6.9c0-4.1-2.8-7.1-8.3-8.9a36,36,0,0,1-5.3-2,6.27,6.27,0,0,1-2-1.7,5.24,5.24,0,0,1-1.1-3.3,4.65,4.65,0,0,1,1.6-3.6,5.6,5.6,0,0,1,4-1.4,9.58,9.58,0,0,1,5.5,1.6,8.42,8.42,0,0,1,3.3,4c.2.7.5,1.1.7,1.1s.5-.2.5-.7a4.4,4.4,0,0,0-.1-.9l-.4-2.3a23.19,23.19,0,0,1-.3-2.3c0-.8-.2-1.1-.6-1.1-.1,0-.2,0-.2.1l-.3.3a1.69,1.69,0,0,1-.5.2.6.6,0,0,1-.4-.1l-1.5-.6a10,10,0,0,0-4.1-.7,10.72,10.72,0,0,0-7,2.3,7.35,7.35,0,0,0-2.7,5.9,7.08,7.08,0,0,0,2.1,5.3c1.4,1.4,3.7,2.6,7,3.7s5.1,1.9,5.8,2.5a5.31,5.31,0,0,1,2,4.2,5.63,5.63,0,0,1-2.1,4.4,7.83,7.83,0,0,1-5.2,1.8,9,9,0,0,1-5.6-1.9,8.71,8.71,0,0,1-3.4-4.7c-.2-.7-.5-1.1-.7-1.1s-.5.2-.5.6a12.17,12.17,0,0,0,.6,2.9,9.84,9.84,0,0,0,.6,2c.2.8.3,1.4.4,1.6A.89.89,0,0,0,216.6,274.82Z"/><path class="a" d="M238.5,244.92c-.4,0-.7.2-.7.5s.3.4.7.5a3.8,3.8,0,0,1,2.7,1.3,7.91,7.91,0,0,1,.6,3.8v19.2a9,9,0,0,1-.5,3.7,2.93,2.93,0,0,1-2.2,1.2c-.5.1-.7.2-.7.5s.2.5.6.5a4.91,4.91,0,0,0,1.1-.1l2.6-.2H246a14.89,14.89,0,0,1,2.4.1c.3,0,.6.1.8.1.5,0,.7-.2.7-.5s-.4-.4-1.1-.5a5.17,5.17,0,0,1-2.1-.7,4.08,4.08,0,0,1-1.1-1.6,13,13,0,0,1-.4-4.2v-16.8c0-3.2.6-4.9,1.7-5.4l1.2-.4q.6-.15.6-.6c0-.3-.2-.4-.6-.4h-.6l-1.5.1c-.8,0-1.7.1-2.8.1-1.8,0-3.3-.1-4.3-.2Z"/><path class="a" d="M285.3,260.12a14.77,14.77,0,0,0-4.5-11.1,15.78,15.78,0,0,0-11.5-4.3,16.54,16.54,0,0,0-6.6,1.3,14.26,14.26,0,0,0-5.3,3.4,16.81,16.81,0,0,0-4.4,11.2c0,4.8,1.5,8.6,4.5,11.5a16.16,16.16,0,0,0,11.7,4.4,15.44,15.44,0,0,0,11.6-4.6A16.38,16.38,0,0,0,285.3,260.12Zm-15.2,15a12.12,12.12,0,0,1-9.6-4.7,17.14,17.14,0,0,1-3.9-11.4c0-4,1-7.1,3.1-9.4a10.5,10.5,0,0,1,8.3-3.5,13.08,13.08,0,0,1,10.1,4.5,16.1,16.1,0,0,1,4.1,11.2,13.59,13.59,0,0,1-3.4,9.6A11.42,11.42,0,0,1,270.1,275.12Z"/><path class="a" d="M304,272.92a7.83,7.83,0,0,1-5.2,1.8,9,9,0,0,1-5.6-1.9,8.71,8.71,0,0,1-3.4-4.7c-.2-.7-.5-1.1-.7-1.1s-.5.2-.5.6a12.17,12.17,0,0,0,.6,2.9,9.84,9.84,0,0,0,.6,2c.2.8.3,1.4.4,1.6a2.65,2.65,0,0,0,.5.6,10,10,0,0,0,3,1.1,18.06,18.06,0,0,0,3.8.5,11.22,11.22,0,0,0,7.8-2.7,9,9,0,0,0,3.1-6.9c0-4.1-2.8-7.1-8.3-8.9a36,36,0,0,1-5.3-2,6.27,6.27,0,0,1-2-1.7,5.24,5.24,0,0,1-1.1-3.3,4.65,4.65,0,0,1,1.6-3.6,5.6,5.6,0,0,1,4-1.4,9.58,9.58,0,0,1,5.5,1.6,8.42,8.42,0,0,1,3.3,4c.2.7.5,1.1.7,1.1s.5-.2.5-.7a4.4,4.4,0,0,0-.1-.9l-.4-2.3a23.19,23.19,0,0,1-.3-2.3c0-.8-.2-1.1-.6-1.1-.1,0-.2,0-.2.1l-.3.3a1.69,1.69,0,0,1-.5.2.6.6,0,0,1-.4-.1l-1.5-.6a10,10,0,0,0-4.1-.7,10.72,10.72,0,0,0-7,2.3,7.35,7.35,0,0,0-2.7,5.9,7.08,7.08,0,0,0,2.1,5.3c1.4,1.4,3.7,2.6,7,3.7s5.2,1.9,5.8,2.5a5.31,5.31,0,0,1,2,4.2A5.61,5.61,0,0,1,304,272.92Z"/><path class="a" d="M327.1,274.12a2.94,2.94,0,0,1-2,1.1c-.4.1-.6.3-.6.5,0,.4.3.5.8.5.3,0,.7-.1,1.3-.1a26.84,26.84,0,0,1,4.2-.2c1.5,0,3.2.1,5.2.2a19.7,19.7,0,0,0,2.1.1,16.59,16.59,0,0,0,9-2.6,13.8,13.8,0,0,0,5.1-5.6,17.2,17.2,0,0,0,1.8-7.8,14.62,14.62,0,0,0-4.2-10.8c-3.1-3.1-7.7-4.6-13.8-4.6a28.12,28.12,0,0,0-3,.1l-2.1.2a33.33,33.33,0,0,1-3.5.1h-1.6l-1.8-.1c-.4,0-.6.1-.6.4s.2.4.7.5a3.17,3.17,0,0,1,2.5,1.2,5.71,5.71,0,0,1,.8,3.3v20.2A7.52,7.52,0,0,1,327.1,274.12Zm3.8-25.3a2.16,2.16,0,0,1,.6-1.8c.6-.5,2.1-.8,4.5-.8a13.71,13.71,0,0,1,8.4,2.5,13.33,13.33,0,0,1,4.5,5.6,18,18,0,0,1,1.6,7.7c0,5.2-1.7,8.8-5.2,11a12.34,12.34,0,0,1-6.9,1.9,20,20,0,0,1-3.1-.3,16,16,0,0,1-3-.8,1.92,1.92,0,0,1-1.4-1.9Z"/><path class="a" d="M358.6,245h-.4c-.4,0-.7.2-.6.5s.3.4.7.5a3.8,3.8,0,0,1,2.7,1.3,7.91,7.91,0,0,1,.6,3.8v19.2a9,9,0,0,1-.5,3.7,2.93,2.93,0,0,1-2.2,1.2c-.5.1-.7.2-.7.5s.2.5.6.5a4.91,4.91,0,0,0,1.1-.1l2.6-.2h3.3a14.89,14.89,0,0,1,2.4.1c.3,0,.6.1.9.1.5,0,.7-.2.7-.5s-.4-.4-1.1-.5a5.17,5.17,0,0,1-2.1-.7,4.08,4.08,0,0,1-1.1-1.6,13,13,0,0,1-.4-4.2v-16.8c0-3.2.6-4.9,1.7-5.4l1.2-.4q.6-.15.6-.6c0-.3-.2-.4-.6-.4h-.6l-1.5.1c-.8,0-1.7.1-2.8.1C361.1,245.22,359.7,245.12,358.6,245Z"/><path class="a" d="M389.8,276.22a6.2,6.2,0,0,0,5-2.4,5.69,5.69,0,0,0,1.6-3.5c0-.4-.1-.6-.4-.6s-.3.1-.5.4c-1.7,2.7-5.4,4-11.3,4a7.84,7.84,0,0,1-3.5-.5c-.5-.3-.7-1.1-.7-2.4v-9c0-.5.1-.8.4-.9a4,4,0,0,1,1.5-.2h4.9a5.57,5.57,0,0,1,2.7.5,3.2,3.2,0,0,1,1.1,2l.1.6a.63.63,0,0,0,.6.5c.3,0,.4-.2.4-.6v-.6a24.37,24.37,0,0,1-.1-2.7c0-1.2.1-2.5.2-4v-.5c0-.4-.1-.6-.4-.6a.63.63,0,0,0-.6.5,5.93,5.93,0,0,1-.6,1.9,2.41,2.41,0,0,1-1.6.6,18.32,18.32,0,0,1-3.7.3h-3.5a2.87,2.87,0,0,1-1.2-.2,2.75,2.75,0,0,1-.2-1.3v-9c0-.8.1-1.3.4-1.5a3.61,3.61,0,0,1,1.8-.3h3.5a25.68,25.68,0,0,1,4.8.3,2.35,2.35,0,0,1,1.7,1.3,3.19,3.19,0,0,1,.3,1.4v.6c0,.5.1.7.4.7a.46.46,0,0,0,.5-.3,4.66,4.66,0,0,0,.2-1.6l.1-1.3a11.05,11.05,0,0,1,.2-1.8,4.33,4.33,0,0,1,.1-.5c0-.4-.2-.6-.7-.6a3.44,3.44,0,0,0-.9.1c-.2,0-.7.1-1.6.1l-3.2.2c-1.4.1-3,.1-4.8.1a56.87,56.87,0,0,1-7.7-.4,8.64,8.64,0,0,0-1.5-.1c-.7,0-1,.2-1,.6s.2.4.6.4A3.2,3.2,0,0,1,376,247c.5.7.7,2.2.7,4.3v20.5c0,1.8-.5,2.8-1.6,3.1l-.9.2c-.4.1-.6.3-.6.5s.2.5.7.5c.2,0,.6-.1,1.2-.2a34.52,34.52,0,0,1,5.5-.3,68.55,68.55,0,0,1,7.1.4A5.88,5.88,0,0,0,389.8,276.22Z"/><path class="a" d="M429.5,245.42c0-.3-.2-.5-.6-.5a4.91,4.91,0,0,0-1.1.1,14.12,14.12,0,0,1-2.2.1c-1.7,0-3.1-.1-4.1-.2a7.75,7.75,0,0,1-.9-.1c-.4,0-.6.1-.6.4s.2.5.6.5a6.47,6.47,0,0,1,3.2,1.2,3.78,3.78,0,0,1,1.1,2.7l.3,5.2v14.3c0,.3-.1.4-.2.4s-.3-.2-.6-.5l-20.6-23.4c-.4-.4-.7-.7-1.1-.7h-4c-.3,0-.5.1-.5.4s.2.4.6.5a4.88,4.88,0,0,1,3.6,2.5,13,13,0,0,1,1.2,6.1v15.3a6.33,6.33,0,0,1-.7,3.5,4.43,4.43,0,0,1-2.5,1.7c-.4.1-.6.3-.6.5s.2.4.6.4a2.81,2.81,0,0,0,.8-.1,9.15,9.15,0,0,1,1.7-.1H404l2.3.1c1.1.1,1.8.1,1.9.1h.7c.3,0,.5-.1.5-.4s-.2-.5-.7-.6a5.92,5.92,0,0,1-2.4-.8,3.37,3.37,0,0,1-.8-2l-.1-1.6v-16.1c0-.7.1-1,.4-1a.37.37,0,0,1,.3.1l.2.2,18.9,21.6.5.6a.76.76,0,0,0,.5.2.56.56,0,0,0,.6-.5,20.41,20.41,0,0,0,.1-3.1v-22.7a6.56,6.56,0,0,1,.4-2.9,2.68,2.68,0,0,1,1.8-1.1C429.4,245.82,429.5,245.62,429.5,245.42Z"/><path class="a" d="M449.7,276.42a15.44,15.44,0,0,0,11.6-4.6,16.22,16.22,0,0,0,4.5-11.8,14.77,14.77,0,0,0-4.5-11.1,15.78,15.78,0,0,0-11.5-4.3,16.54,16.54,0,0,0-6.6,1.3,14.26,14.26,0,0,0-5.3,3.4,16.81,16.81,0,0,0-4.4,11.2c0,4.8,1.5,8.6,4.5,11.5S444.9,276.42,449.7,276.42Zm-9.6-26.8a10.5,10.5,0,0,1,8.3-3.5,13.08,13.08,0,0,1,10.1,4.5,16.1,16.1,0,0,1,4.1,11.2,13.59,13.59,0,0,1-3.4,9.6,11.15,11.15,0,0,1-8.6,3.8,12.12,12.12,0,0,1-9.6-4.7,17.14,17.14,0,0,1-3.9-11.4A13.56,13.56,0,0,1,440.1,249.62Z"/><path class="a" d="M470.2,272.72c.2.8.3,1.4.4,1.6a2.65,2.65,0,0,0,.5.6,10,10,0,0,0,3,1.1,18.93,18.93,0,0,0,3.8.5,11.22,11.22,0,0,0,7.8-2.7,9,9,0,0,0,3.1-6.9c0-4.1-2.8-7.1-8.3-8.9a36,36,0,0,1-5.3-2,6.27,6.27,0,0,1-2-1.7,5.24,5.24,0,0,1-1.1-3.3,4.65,4.65,0,0,1,1.6-3.6,5.6,5.6,0,0,1,4-1.4,9.58,9.58,0,0,1,5.5,1.6,8.42,8.42,0,0,1,3.3,4c.2.7.5,1.1.7,1.1s.5-.2.5-.7a4.4,4.4,0,0,0-.1-.9l-.4-2.3a23.19,23.19,0,0,1-.3-2.3c0-.8-.2-1.1-.6-1.1-.1,0-.2,0-.2.1l-.3.3a1.69,1.69,0,0,1-.5.2.6.6,0,0,1-.4-.1l-1.5-.6a10,10,0,0,0-4.1-.7,10.72,10.72,0,0,0-7,2.3,7.35,7.35,0,0,0-2.7,5.9,7.08,7.08,0,0,0,2.1,5.3c1.4,1.4,3.7,2.6,7,3.7s5.2,1.9,5.8,2.5a5.31,5.31,0,0,1,2,4.2,5.63,5.63,0,0,1-2.1,4.4,7.83,7.83,0,0,1-5.2,1.8,9,9,0,0,1-5.6-1.9,8.71,8.71,0,0,1-3.4-4.7c-.2-.7-.5-1.1-.7-1.1s-.5.2-.5.6a12.17,12.17,0,0,0,.6,2.9A20.46,20.46,0,0,1,470.2,272.72Z"/><path class="a" d="M71.9,345.42c-3.1-.6-5.1-1.3-6.2-2.3s-2.3-3.4-3.8-7.4l-1.1-2.6-21-53.8c-.4-.9-.8-1.4-1.3-1.4s-1,.5-1.4,1.5l-25,55.7-1.4,3.2a22,22,0,0,1-2.7,4.3A7.32,7.32,0,0,1,5.4,345l-1.8.5a1,1,0,0,0-.8,1.1c0,.6.4.9,1.3.9q.3,0,2.7-.3c.5,0,1.2-.1,2.2-.1,2,0,3.8,0,5.4.1l4.7.3c.7,0,1.3.1,1.7.1.9,0,1.4-.3,1.4-.8s-.5-1-1.5-1.1c-2.2-.5-3.8-1.1-4.5-1.8a4.13,4.13,0,0,1-1.1-3.3c0-1.6.7-4,2.2-7.3l3.2-7.2a13,13,0,0,1,2.3-3.9q.9-.6,4.5-.6H44.7c1.8,0,2.9.1,3.3.4a8.76,8.76,0,0,1,1.6,3.1l2.4,6.5c2,5.2,3,8.6,3,10.3q0,2.85-2.4,3.3l-1.5.3c-.8.2-1.2.5-1.2,1,0,.7.4,1,1.3,1,.3,0,.8-.1,1.5-.2a68.73,68.73,0,0,1,8.5-.3c4.3,0,7.3.1,9,.2a16.67,16.67,0,0,0,1.9.1c.9,0,1.3-.3,1.4-.8C73.4,346,72.9,345.62,71.9,345.42Zm-28.6-28.5H28.6l-1.3-.1c-1.5,0-2.2-.4-2.2-1.3a5.89,5.89,0,0,1,.6-1.8l9.5-21.1c.3-.7.6-1,.8-.9.5,0,.9.6,1.3,1.6l.4,1,7.7,19.3.2.9a2.8,2.8,0,0,1,.2,1.1C45.7,316.52,44.9,316.92,43.3,316.92Z"/><path class="a" d="M123.9,321.62c0-7.1-2.3-13-6.8-17.6q-7.5-7.5-22.5-7.5c-1.8,0-3.4.1-4.8.2l-3.4.3c-1.4.1-3.3.2-5.7.2H78.1l-2.9-.1c-.6,0-1,.2-1,.7s.4.7,1.2.7a5.57,5.57,0,0,1,4.1,2c.8,1.1,1.2,3,1.2,5.4v32.9c0,2.7-.2,4.5-.7,5.4a4.36,4.36,0,0,1-3.2,1.8c-.7.1-1,.4-1,.8,0,.6.4.9,1.3.8.5,0,1.2-.1,2.1-.2A45.22,45.22,0,0,1,86,347c2.4,0,5.2.1,8.5.3,1.6.1,2.7.2,3.4.2a27.3,27.3,0,0,0,14.7-4.2,22.16,22.16,0,0,0,8.3-9.1A26.63,26.63,0,0,0,123.9,321.62Zm-14,20.7a20.54,20.54,0,0,1-11.2,3.1,36.21,36.21,0,0,1-5.1-.5,28.1,28.1,0,0,1-4.9-1.3,3.09,3.09,0,0,1-2.2-3.1v-37.6q0-2.25.9-3c1-.8,3.5-1.2,7.3-1.2a23.23,23.23,0,0,1,13.8,4.1,22.55,22.55,0,0,1,7.3,9,29.32,29.32,0,0,1,2.6,12.6C118.4,332.92,115.6,338.82,109.9,342.32Z"/><path class="a" d="M137.4,298.42c.5-.2.7-.5.7-.8s-.3-.7-1-.7a4.59,4.59,0,0,0-1,.1,22,22,0,0,1-2.3.1h-5.9a28.58,28.58,0,0,1-3.7-.1c-.5,0-.9-.1-1.1-.1-.7,0-1,.2-1,.7a.6.6,0,0,0,.3.6,12.2,12.2,0,0,0,2.2.5,4.8,4.8,0,0,1,2.9,1.5,19.17,19.17,0,0,1,2.4,4.1l18.5,42.9c.5,1.2,1,1.8,1.6,1.8s1-.6,1.5-1.8l18.2-42.5,1-2.4a6.69,6.69,0,0,1,4-4.2c.5-.2.8-.4.8-.8s-.2-.6-.7-.6h-7.2c-.4,0-1.5,0-3.3-.1h-1.1c-.8,0-1.2.2-1.2.7s.6.7,2,1a4.79,4.79,0,0,1,2.2.8c.4.3.5.9.5,1.7,0,2.3-1.7,7.6-5.2,15.8l-8,19-.6,1.4c-.6,1.4-1.1,2.1-1.3,2.1s-.6-.4-1-1.2l-14-32.3a15.93,15.93,0,0,1-1.5-5.1c0-.6.1-1.1.4-1.3A7.44,7.44,0,0,1,137.4,298.42Z"/><path class="a" d="M215.7,338.12c0-.7-.2-1-.7-.9-.3,0-.5.2-.8.7-2.7,4.3-8.9,6.5-18.4,6.5-3,0-4.9-.3-5.6-.8s-1.1-1.8-1.1-3.9V325a1.75,1.75,0,0,1,.6-1.5,5.74,5.74,0,0,1,2.4-.4h8.1c2.1,0,3.6.3,4.4.9a4.81,4.81,0,0,1,1.8,3.3l.2,1a.88.88,0,0,0,.9.8c.5,0,.7-.3.7-.9a5.38,5.38,0,0,0-.1-1.1c-.1-1.5-.2-2.9-.2-4.4,0-1.9.1-4.1.3-6.5v-.8c0-.6-.2-1-.7-1s-.8.3-.9.9a7.49,7.49,0,0,1-1.1,3.1,5.31,5.31,0,0,1-2.6,1.1,33,33,0,0,1-6.1.4h-5.6a3.56,3.56,0,0,1-1.9-.3,3.77,3.77,0,0,1-.3-2v-14.7c0-1.3.2-2.1.7-2.5s1.4-.6,2.9-.6h5.7a42.72,42.72,0,0,1,7.8.5,4,4,0,0,1,2.8,2.2,5.7,5.7,0,0,1,.4,2.2v.9c0,.8.2,1.1.7,1.1a.76.76,0,0,0,.8-.6c.1-.4.2-1.2.4-2.6l.1-2.1a18.87,18.87,0,0,1,.3-2.9,2.48,2.48,0,0,0,.1-.8c0-.7-.4-1.1-1.2-1.1-.3,0-.8.1-1.5.1a14.32,14.32,0,0,1-2.6.1l-5.2.3c-2.3.1-4.9.1-7.9.1a113.11,113.11,0,0,1-12.6-.6c-1-.1-1.8-.2-2.4-.2-1.1,0-1.6.3-1.6,1,0,.5.4.7,1.1.7q3.3,0,4.5,1.8c.8,1.2,1.2,3.6,1.2,7v33.3c0,2.9-.9,4.6-2.6,5.1l-1.4.4c-.6.2-1,.5-1,.9s.4.8,1.2.8a11.18,11.18,0,0,0,1.9-.3,64.05,64.05,0,0,1,9-.4,109,109,0,0,1,11.5.7c1.2.1,2.1.1,2.9.1a10,10,0,0,0,8.1-3.9C214.8,341.62,215.7,339.72,215.7,338.12Z"/><path class="a" d="M229.8,312.22c0-1.1.2-1.6.7-1.6a.76.76,0,0,1,.5.2l.4.4,30.8,35.2.8,1a1.14,1.14,0,0,0,.8.3.92.92,0,0,0,1-.9,41,41,0,0,0,.2-5v-30.7l.1-2.4v-3.9c0-2.3.2-3.9.7-4.8a4.09,4.09,0,0,1,2.9-1.8c.5-.1.8-.4.7-.7,0-.5-.4-.8-1-.8-.4,0-1,.1-1.8.2a32.08,32.08,0,0,1-3.6.2,61.35,61.35,0,0,1-6.8-.3,9.89,9.89,0,0,0-1.5-.1c-.7,0-1.1.2-1.1.7s.4.8,1.1.9a11.31,11.31,0,0,1,5.2,1.9,6.43,6.43,0,0,1,1.8,4.4l.4,8.4v23.1c0,.4-.2.7-.4.7a2.91,2.91,0,0,1-1-.9l-33.6-38.1a2.56,2.56,0,0,0-1.8-1.1h-2l-2.4-.1h-2.1c-.5,0-.8.2-.8.7s.3.7,1,.8a7.34,7.34,0,0,1,5.8,4.2c1.3,2.4,2,5.7,2,10v24.9a11.68,11.68,0,0,1-1.1,5.7,7.29,7.29,0,0,1-4.1,2.8c-.7.2-1,.5-1,.9s.4.7,1,.7a8.8,8.8,0,0,0,1.4-.1,24.52,24.52,0,0,1,2.7-.2l1.8-.1,3.7.2c1.9.1,2.9.2,3.2.2s.8.1,1.1.1c.5,0,.8-.2.8-.7s-.4-.8-1.2-.9c-1.9-.3-3.2-.7-3.9-1.4a4.6,4.6,0,0,1-1.2-3.3l-.1-2.6v-26.3Z"/><path class="a" d="M315.5,301.72c.7.5,1.2,1.6,1.5,3.4.1.8.4,1.2.9,1.1s.8-.4.8-1.2c0-.4-.1-1-.2-1.8a21.61,21.61,0,0,1-.2-3.1c0-1.4-.1-2.3-.4-2.6s-1.1-.4-2.4-.4H276.1a2,2,0,0,0-1.6.5,3.87,3.87,0,0,0-.4,2.2,27,27,0,0,1-.5,4.3,14.79,14.79,0,0,0-.4,2.8c0,.6.2,1,.7,1s.8-.4,1-1.4q.75-3.3,2.1-4.5a6.31,6.31,0,0,1,4.3-1.2H291a2.65,2.65,0,0,1,1.8.4c.3.2.4.8.4,1.7v37.3c0,2-.3,3.5-1,4.3s-1.9,1.3-3.8,1.6c-.8.1-1.2.3-1.2.7s.4.8,1.1.8c.2,0,1.1-.1,2.5-.2a20.12,20.12,0,0,1,2.6-.1H299a24.72,24.72,0,0,1,3.3.1c.9.1,1.5.2,1.8.2.7,0,1-.3,1-.8s-.4-.7-1.3-.8q-4.65-.75-4.8-5.1v-37.3a3.67,3.67,0,0,1,.4-2.2,3.13,3.13,0,0,1,2-.4h10.3A6.42,6.42,0,0,1,315.5,301.72Z"/><path class="a" d="M325.3,347.42l4.3-.3,5.3.1a32.45,32.45,0,0,1,3.9.2,7.6,7.6,0,0,0,1.4.1c.8,0,1.1-.3,1.1-.9q0-.6-1.8-.9a8,8,0,0,1-3.4-1.1,6,6,0,0,1-1.8-2.6,24.4,24.4,0,0,1-.6-6.8v-27.4c0-5.2.9-8.1,2.7-8.8l1.9-.7c.6-.2,1-.5,1-1s-.3-.7-1-.7h-.9l-2.4.2c-1.3.1-2.8.1-4.6.1a67.5,67.5,0,0,1-7.1-.3h-.7c-.7,0-1.1.3-1.1.8s.4.7,1.2.9c2.3.4,3.7,1.1,4.4,2.1s1,3.1,1,6.1v31.3c0,3.1-.3,5.1-.8,6.1s-1.7,1.6-3.6,1.9c-.8.1-1.1.4-1.1.8s.3.7,1,.7A4.42,4.42,0,0,0,325.3,347.42Z"/><path class="a" d="M364.1,318a80.14,80.14,0,0,1-8.7-3.2,9.51,9.51,0,0,1-3.3-2.8,8.83,8.83,0,0,1-1.7-5.3,7.52,7.52,0,0,1,2.6-5.8,9.51,9.51,0,0,1,6.6-2.3,16.59,16.59,0,0,1,9,2.6,11.85,11.85,0,0,1,5.3,6.5q.6,1.8,1.2,1.8c.5,0,.8-.4.8-1.1,0-.2-.1-.7-.2-1.5l-.6-3.8c-.3-2-.5-3.3-.5-3.7q0-1.8-.9-1.8c-.2,0-.3.1-.4.1l-.5.4a1.8,1.8,0,0,1-.9.4,2,2,0,0,1-.7-.1l-2.5-1.1a16.3,16.3,0,0,0-6.6-1.1c-4.6,0-8.4,1.2-11.3,3.7a12.15,12.15,0,0,0-4.4,9.6,11.38,11.38,0,0,0,3.4,8.6c2.2,2.2,6.1,4.2,11.5,6.1,5.2,1.8,8.4,3.1,9.5,4.1a8.82,8.82,0,0,1,3.2,6.8,9.28,9.28,0,0,1-3.5,7.2,12.62,12.62,0,0,1-8.5,3,15,15,0,0,1-9.2-3.1,14,14,0,0,1-5.5-7.6q-.45-1.8-1.2-1.8c-.5,0-.7.3-.7,1.1a21.16,21.16,0,0,0,.9,4.7,30.69,30.69,0,0,1,.9,3.3,10.16,10.16,0,0,0,.7,2.5,1.91,1.91,0,0,0,.9.9,16.82,16.82,0,0,0,5,1.9,29.29,29.29,0,0,0,6.2.8c5.2,0,9.4-1.4,12.8-4.3a14.22,14.22,0,0,0,5-11.2C377.6,325.72,373.1,320.92,364.1,318Z"/><path class="a" d="M426.4,300.22c0-1.4-.1-2.3-.4-2.6s-1.1-.4-2.4-.4H384.2a2,2,0,0,0-1.6.5,3.87,3.87,0,0,0-.4,2.2,27,27,0,0,1-.5,4.3,14.79,14.79,0,0,0-.4,2.8c0,.6.2,1,.7,1s.8-.4,1-1.4q.75-3.3,2.1-4.5a6.31,6.31,0,0,1,4.3-1.2h9.7a2.65,2.65,0,0,1,1.8.4c.3.2.4.8.4,1.7v37.3c0,2-.3,3.5-1,4.3s-1.9,1.3-3.8,1.6c-.8.1-1.2.3-1.2.7s.4.8,1.1.8c.2,0,1.1-.1,2.5-.2a20.12,20.12,0,0,1,2.6-.1h5.6a24.72,24.72,0,0,1,3.3.1c.9.1,1.5.2,1.8.2.7,0,1-.3,1-.8s-.4-.7-1.3-.8q-4.65-.75-4.8-5.1v-37.3a3.67,3.67,0,0,1,.4-2.2,3.13,3.13,0,0,1,2-.4h10.3a7.66,7.66,0,0,1,4.1.8c.7.5,1.2,1.6,1.5,3.4.1.8.4,1.2.9,1.1s.8-.4.8-1.2c0-.4-.1-1-.2-1.8A7.15,7.15,0,0,1,426.4,300.22Z"/><path class="a" d="M480.6,296.82a12.65,12.65,0,0,0-1.6.1c-.6.1-2.3.1-5,.1a29.17,29.17,0,0,1-3.3-.2,13.06,13.06,0,0,0-2.3-.3c-.5,0-.7.2-.7.7s.4.7,1.1.8a5.62,5.62,0,0,1,4.5,2.4c.9,1.4,1.3,3.6,1.3,6.6v18.9c0,6.4-1.4,11.2-4.3,14.4s-7.2,4.8-13,4.8c-6.5,0-11.1-1.9-13.9-5.7-2-2.7-2.9-7.2-2.9-13.4v-18.4l-.1-2.4c0-2.4.2-4,.7-4.9a3.88,3.88,0,0,1,2.8-1.8q1.2-.15,1.2-.9c0-.4-.3-.6-.8-.6a16.67,16.67,0,0,0-1.9.1c-1.1.1-1.8.1-2,.1h-5.6c-.5,0-1.3,0-2.4-.1s-1.9-.1-2.5-.1c-.9,0-1.4.3-1.4.9,0,.4.3.7,1,.8,2.2.3,3.6,1,4.3,2s1.1,2.8,1.1,5.4l.1,2.1v18.6c0,5.1.9,9.2,2.6,12.4a15.58,15.58,0,0,0,7.3,6.5,25.24,25.24,0,0,0,11.2,2.4h0l-.1.1s-6.2,4.9-4.1,11,12.5,2.1,12.5,2.1.8-.4.6-1l-.7-2.1s-.1-.7-1-.4-4.9.8-6-1-.4-5.4,4.3-9.3l.1-.1a24.91,24.91,0,0,0,4.4-1.4,18.47,18.47,0,0,0,7.2-5.4c2.7-3.6,4-8.7,4-15.3v-18.2c0-3,.2-5.1.7-6.2a5,5,0,0,1,2.9-2.6c.5-.2.8-.5.8-.9A1.54,1.54,0,0,0,480.6,296.82Z"/><path class="a" d="M147,372.82c-1.1-.2-1.7-.5-1.8-.7s.1-.3.5-.5l1.4-1a9.29,9.29,0,0,0,4.4-8.3,9.09,9.09,0,0,0-4.3-8.1q-4.2-3-11.7-3c-1.1,0-2.2,0-3.4.1l-3.8.2c-.9,0-2.2.1-3.8.1a21.85,21.85,0,0,1-2.8-.1c-1,0-1.5-.1-1.7-.1-.9,0-1.3.3-1.3.8s.5.7,1.4.7a4.58,4.58,0,0,1,4.1,2.1c.9,1.4,1.3,3.6,1.3,6.6v26a32.83,32.83,0,0,1-.5,6,3.82,3.82,0,0,1-3.4,3.2c-.7.1-1,.3-1,.7s.3.7.9.7c.4,0,1.2-.1,2.3-.2a21,21,0,0,1,2.7-.1c1.1,0,2.5.1,4.3.2l2.7.2,3.1.1,2.6.1a16.88,16.88,0,0,0,11.6-4,13.23,13.23,0,0,0,4.6-10.2A11.64,11.64,0,0,0,153,377,10.57,10.57,0,0,0,147,372.82Zm-16.2-16.2c0-1.4.2-2.3.7-2.7a5.17,5.17,0,0,1,3.1-.7,13.13,13.13,0,0,1,8.9,3.2,10.15,10.15,0,0,1,3.6,7.9c0,5.1-2.8,7.6-8.5,7.6H133a3.82,3.82,0,0,1-1.9-.3c-.3-.2-.4-.7-.4-1.5v-13.5Zm16.9,37.2a11.79,11.79,0,0,1-8.2,2.8,22.87,22.87,0,0,1-6.1-.6,3.24,3.24,0,0,1-2.4-2.1l-.2-1.3.1-1.5v-15.5a1.44,1.44,0,0,1,.3-1.1,4,4,0,0,1,1.5-.2h6.6a10.43,10.43,0,0,1,8.1,3.4,12,12,0,0,1,3.2,8.5A10.41,10.41,0,0,1,147.7,393.82Z"/><path class="a" d="M193.1,396.92a7.08,7.08,0,0,1-3.2-1.2,13.35,13.35,0,0,1-2-3.8l-.6-1.4-10.8-27.6c-.2-.5-.4-.7-.7-.7s-.5.3-.7.8l-12.9,28.6-.7,1.7a10.23,10.23,0,0,1-1.4,2.2c-.6.7-1,1.1-1.4,1.2l-.9.3a.51.51,0,0,0-.4.5c0,.3.2.5.7.5a11.31,11.31,0,0,0,1.4-.1h1.1a23.53,23.53,0,0,1,2.8.1l2.4.1h.8c.5,0,.7-.1.7-.4s-.3-.5-.8-.6a5.12,5.12,0,0,1-2.3-.9,2.2,2.2,0,0,1-.6-1.7,11.94,11.94,0,0,1,1.1-3.8l1.6-3.7a5.79,5.79,0,0,1,1.2-2,5.32,5.32,0,0,1,2.3-.3h9.1a5,5,0,0,1,1.7.2,3.63,3.63,0,0,1,.8,1.6l1.3,3.3a19,19,0,0,1,1.5,5.3,1.5,1.5,0,0,1-1.3,1.7l-.8.2c-.4.1-.6.2-.6.5s.2.5.7.5a2.82,2.82,0,0,0,.8-.1,32.33,32.33,0,0,1,4.4-.2c2.2,0,3.8,0,4.6.1h1c.5,0,.7-.1.7-.4S193.6,397,193.1,396.92Zm-14.7-14.6h-8.3c-.8,0-1.2-.2-1.2-.7a2.3,2.3,0,0,1,.3-.9l4.9-10.9c.2-.3.3-.5.4-.5s.5.3.7.8l.2.5,3.9,9.9.1.4a1.76,1.76,0,0,1,.1.6C179.6,382.12,179.2,382.32,178.4,382.32Z"/><path class="a" d="M218.9,392.32a6.34,6.34,0,0,0-1.7,1.3,7.44,7.44,0,0,1-2.7,1.6,17.19,17.19,0,0,1-4.5.4h-8.1c-.9,0-1.4-.3-1.4-.9a1.6,1.6,0,0,1,.3-.8l.3-.5,16.3-28.2a1.42,1.42,0,0,0,.2-.6c0-.6-.5-1-1.5-1H197.4a1.45,1.45,0,0,0-1.3.5,7.92,7.92,0,0,0-.4,2.6,7.45,7.45,0,0,1-.2,1.8,8.21,8.21,0,0,0-.3,1.8c0,.4.1.6.5.6s.5-.2.6-.7a8.68,8.68,0,0,1,1.6-2.6,5.89,5.89,0,0,1,1.9-1.5,9.74,9.74,0,0,1,3-.4h8.5c.8,0,1.1.2,1.1.5s-.1.3-.2.5l-.2.3-17,29.3a1.6,1.6,0,0,0-.3.8c0,.4.4.7,1.3.7h19.1a3.71,3.71,0,0,0,1.4-.2,1.74,1.74,0,0,0,.7-.9l.9-1.7.8-1.6a1.85,1.85,0,0,0,.2-.7C219.3,392.42,219.2,392.32,218.9,392.32Z"/><path class="a" d="M254.1,363.22a7.38,7.38,0,0,0-1.2.2,17,17,0,0,1-2.5.1c-1.9,0-3.5-.1-4.6-.2-.5,0-.8-.1-1.1-.1-.5,0-.7.2-.7.5s.2.5.7.6a7.76,7.76,0,0,1,3.6,1.3,4.18,4.18,0,0,1,1.2,3l.3,5.8v15.8c0,.3-.1.5-.3.5s-.3-.2-.7-.6L225.7,364a1.57,1.57,0,0,0-1.3-.7H220c-.4,0-.6.2-.6.5s.2.5.7.6a5.25,5.25,0,0,1,4,2.8,14.35,14.35,0,0,1,1.4,6.8v17.1a7.73,7.73,0,0,1-.7,3.9,4.66,4.66,0,0,1-2.8,1.9c-.5.2-.7.4-.7.6s.3.5.7.5a3.45,3.45,0,0,0,.9-.1,11.49,11.49,0,0,1,1.9-.1H226l2.6.1a14.09,14.09,0,0,1,2.2.2h.8a.47.47,0,0,0,.5-.5c0-.4-.3-.6-.8-.6a6,6,0,0,1-2.7-.9,3.84,3.84,0,0,1-.8-2.3l-.1-1.8v-18.1c0-.8.2-1.1.5-1.1a.37.37,0,0,1,.3.1l.3.3,21.1,24.2.5.7a.85.85,0,0,0,.6.2.66.66,0,0,0,.7-.6,24.77,24.77,0,0,0,.1-3.4v-21l.1-1.7v-2.7a8,8,0,0,1,.5-3.3,3.07,3.07,0,0,1,2-1.3c.3-.1.5-.3.5-.5A.7.7,0,0,0,254.1,363.22Z"/><path class="a" d="M288.4,363.92c0-.3-.2-.5-.7-.4-.3,0-.7.1-1.3.1s-1.6.1-3.3.1a26.62,26.62,0,0,1-3.5-.1,7.77,7.77,0,0,0-1.3-.1c-.4,0-.6.1-.6.4s.2.5.6.6c2.1.5,3.2,1.3,3.2,2.4,0,.6-.6,1.9-1.8,3.7l-1.2,2-3.6,5.5-.2.4c-.2.2-.3.4-.5.4s-.3-.1-.5-.4l-.3-.5-5.3-8.3-.7-1.2a7.09,7.09,0,0,1-1.1-2.4c0-.8.6-1.4,1.7-1.7.4-.1.6-.3.6-.5s-.2-.5-.7-.5a9.28,9.28,0,0,0-1.3.1c-.7.1-2.2.1-4.7.1-1.2,0-2.3-.1-3.4-.2a5.7,5.7,0,0,0-1.3-.1c-.5,0-.8.2-.8.5s.2.5.7.5a5.09,5.09,0,0,1,2.6.7,5.54,5.54,0,0,1,2.1,1.9l.9,1.4,7,11.1a7.08,7.08,0,0,1,1.1,2.1,7.56,7.56,0,0,1,.2,2.4v8.6c0,1.8-.2,3-.6,3.5a4.27,4.27,0,0,1-2.7,1.1c-.6.1-.8.3-.8.6s.2.4.6.4a4.59,4.59,0,0,0,1-.1,14.28,14.28,0,0,1,2.5-.1l2-.1,2,.1a7.45,7.45,0,0,1,1.8.2,8.47,8.47,0,0,0,1.3.1q.9,0,.9-.6c0-.3-.3-.5-.8-.5-1.5-.2-2.4-.4-2.7-.9s-.5-1.6-.5-3.6v-10.5a4,4,0,0,1,1-2.5l.6-.9,6.1-9.1,1.6-2.4a7.23,7.23,0,0,1,3.7-2.8A.66.66,0,0,0,288.4,363.92Z"/><path class="a" d="M319.2,388.52c-.2,0-.6.5-1,1.4a11.81,11.81,0,0,1-5,4.9,15.52,15.52,0,0,1-7.4,2,13,13,0,0,1-10.5-5c-2.7-3.3-4.1-7.6-4.1-12.8,0-4.5,1.2-8.1,3.7-10.7s5.8-3.9,10.1-3.9c5.4,0,9.6,2.7,12.7,8.2.4.7.7,1.1.9,1.1a.52.52,0,0,0,.4-.2l.1-.3-.1-.6-.8-6c-.1-.6-.3-.9-.5-.9a1.79,1.79,0,0,0-.8.4c-.2.1-.3.2-.4.2l-.4-.2-.4-.2-1-.5A20.2,20.2,0,0,0,305,363a17.11,17.11,0,0,0-12.8,5.2,17.87,17.87,0,0,0-5.1,13c0,5.2,1.6,9.4,4.9,12.6s7.6,4.8,13,4.8a23.28,23.28,0,0,0,12.8-3.7c.7-.5,1.1-.9,1.2-1.3l.1-.5.6-3.1.1-.6v-.3Q319.5,388.52,319.2,388.52Z"/><path class="a" d="M335.6,396.82a5.08,5.08,0,0,1-2.3-.8,3.56,3.56,0,0,1-1.2-1.8,15.72,15.72,0,0,1-.4-4.6v-18.8c0-3.5.6-5.5,1.9-6l1.3-.5a.84.84,0,0,0,.7-.7c0-.3-.2-.5-.7-.5h-.6l-1.7.1a30.14,30.14,0,0,1-3.2.1c-2,0-3.6-.1-4.9-.2h-.4c-.5,0-.7.2-.7.5s.3.5.8.6c1.6.3,2.6.7,3,1.5s.7,2.1.7,4.2v21.5a9.67,9.67,0,0,1-.6,4.2,3.18,3.18,0,0,1-2.5,1.3c-.5.1-.8.3-.8.6s.2.5.7.5a5.74,5.74,0,0,0,1.2-.1l3-.2,3.6.1a19.41,19.41,0,0,1,2.7.1,3.75,3.75,0,0,0,1,.1c.5,0,.8-.2.8-.6A2.28,2.28,0,0,0,335.6,396.82Z"/><path class="a" d="M372.7,396.92a7.08,7.08,0,0,1-3.2-1.2,13.35,13.35,0,0,1-2-3.8l-.6-1.4-10.8-27.6c-.2-.5-.4-.7-.7-.7s-.5.3-.7.8l-12.9,28.6-.7,1.7a10.23,10.23,0,0,1-1.4,2.2c-.6.7-1,1.1-1.4,1.2l-.9.3a.51.51,0,0,0-.4.5c0,.3.2.5.7.5a11.31,11.31,0,0,0,1.4-.1h1.1a23.53,23.53,0,0,1,2.8.1l2.4.1h.8c.5,0,.7-.1.7-.4s-.3-.5-.8-.6a5.12,5.12,0,0,1-2.3-.9,2.2,2.2,0,0,1-.6-1.7,11.94,11.94,0,0,1,1.1-3.8l1.6-3.7a5.79,5.79,0,0,1,1.2-2,5.32,5.32,0,0,1,2.3-.3h9.1a5,5,0,0,1,1.7.2,3.63,3.63,0,0,1,.8,1.6l1.3,3.3a19,19,0,0,1,1.5,5.3,1.5,1.5,0,0,1-1.2,1.7l-.8.2c-.4.1-.6.2-.6.5s.2.5.6.5a2.81,2.81,0,0,0,.8-.1,32.33,32.33,0,0,1,4.4-.2c2.2,0,3.8,0,4.6.1h.9c.5,0,.7-.1.7-.4C373.4,397.22,373.2,397,372.7,396.92ZM358,382.32h-8.3c-.8,0-1.2-.2-1.2-.7a2.3,2.3,0,0,1,.3-.9l4.9-10.9c.2-.3.3-.5.4-.5s.5.3.7.8l.2.5,3.9,9.9.1.4a1.76,1.76,0,0,1,.1.6C359.2,382.12,358.8,382.32,358,382.32Z"/><path class="a" d="M211.8,354a1.61,1.61,0,0,0-.9-.3c-.3,0-.7.4-1.2,1.1q-1.95,3-2.4,3c-.1,0-.3-.1-.5-.4l-.7-.7-1-1.1-.8-.9-.5-.6a1,1,0,0,0-.8-.4,4.5,4.5,0,0,0-.8.2l-1.1.4c-.5.2-.7.4-.7.7s.5.8,1.4,1.7l2.4,2.5a11.06,11.06,0,0,0,1.3,1.2,2.27,2.27,0,0,0,1.3.3,2.68,2.68,0,0,0,1.1-.2,5.49,5.49,0,0,0,1.1-1.1l2.2-2.8.9-1.1a1.08,1.08,0,0,0,.3-.7A1.24,1.24,0,0,0,211.8,354Z"/><path class="a" d="M308.9,353.72c-.3,0-.7.4-1.2,1.1q-1.95,3-2.4,3c-.1,0-.3-.1-.5-.4l-.7-.7-1-1.1-.8-.9-.5-.6a1,1,0,0,0-.8-.4,4.5,4.5,0,0,0-.8.2l-1.1.4c-.5.2-.7.4-.7.7s.5.8,1.4,1.7l2.4,2.5a11.06,11.06,0,0,0,1.3,1.2,2.27,2.27,0,0,0,1.3.3,2.68,2.68,0,0,0,1.1-.2,5.49,5.49,0,0,0,1.1-1.1l2.2-2.8.9-1.1a1.08,1.08,0,0,0,.3-.7.72.72,0,0,0-.4-.6A1.71,1.71,0,0,0,308.9,353.72Z"/><path class="a" d="M494.8,292.22a5.35,5.35,0,0,0-4-1.6,5.5,5.5,0,0,0-4.3,2,5.58,5.58,0,0,0-1.3,3.7,5.15,5.15,0,0,0,1.3,3.6,5.57,5.57,0,0,0,9.9-3.6A5.08,5.08,0,0,0,494.8,292.22Zm-.4,7.5a4.85,4.85,0,0,1-3.5,1.5,4.54,4.54,0,0,1-3.5-1.5,4.85,4.85,0,0,1-1.5-3.5,4.54,4.54,0,0,1,1.5-3.5,4.85,4.85,0,0,1,3.5-1.5,4.54,4.54,0,0,1,3.5,1.5,4.85,4.85,0,0,1,1.5,3.5A5.82,5.82,0,0,1,494.4,299.72Z"/><path class="a" d="M494.2,299.12h-.1c-.3,0-.7-.3-1.1-.9l-.2-.2-1.3-1.8a1.82,1.82,0,0,0,1.1-1.6c0-1.1-.8-1.7-2.3-1.7h-2.1a.2.2,0,0,0,0,.4h.2c.3,0,.5.3.5.7v3.8a2.25,2.25,0,0,1-.1,1,.46.46,0,0,1-.5.3.2.2,0,0,0,0,.4h2.2c.2,0,.2-.1.2-.2a.22.22,0,0,0-.2-.2,1.17,1.17,0,0,1-.7-.2c-.1-.1-.1-.4-.1-.7v-1.7h.7c.1,0,.3.1.3.2l.1.1,1.2,1.8a1.68,1.68,0,0,0,1.5,1c.5,0,.7-.1.7-.2C494.3,299.12,494.3,299.12,494.2,299.12Zm-3.6-3.2h-.7v-2.3c0-.2.1-.3.4-.3a1.37,1.37,0,0,1,1.1.4,1.39,1.39,0,0,1,.5,1A1.18,1.18,0,0,1,490.6,295.92Z"/></svg>