<svg xmlns="http://www.w3.org/2000/svg" viewBox="0 0 500.83 254.58"><defs><style>.a{fill:#fff;}</style></defs><title>Asset 1</title><path class="a" d="M248,152.58v-18.9h-9.5V127H248v-.6c0-6.7-3.1-11.6-24.4-7.9l-35.1,6.2-20.2,28,48.4-8.6C231.2,141.58,244,141,248,152.58Z"/><path class="a" d="M271,126.17c-11,11-16.4,17.3-16.4,26.4,4.2-12.1,17.6-11,33.3-8l46.5,8-20.2-28-35.5-6.2Z"/><path class="a" d="M271.8,108.28c-4.3,4.3-11.8,11.1-15.3,18.6h7.8l9-8.9c8.2-8.2,14.6-14.5,17.3-22.5a28.56,28.56,0,0,0,1.5-14.4c-.2-1.6-.9-3.8-.9-3.3-.8,9-3.3,14.4-16.3,27.4Z"/><path class="a" d="M247.4,53.18c4.8-4.8,16.9-15.6,16.9-25V17.78c0-.1-.2-.1-.2,0-.8,7-2.5,10-19.6,27.1l-16.9,16.9c-8.9,8.9-16.2,18.4-15.2,29.1.5,6,2.5,9.2,3.8,10.1.7.5.5.1.3-.3-5.1-11.6,7.1-23.7,13.2-29.8Z"/><path class="a" d="M247.4,70.87c4.8-4.8,16.9-15.6,16.9-25V35.47c0-.1-.2-.1-.2,0-.8,7-2.5,10-19.6,27.1l-15.7,15.7c-5.7,5.7-10.9,11.7-10.7,21.3.1,5.9,3.1,10.8,7.6,12,1.8.4,1.7.2,1.3,0-6.3-3-5.9-14.4,4.3-24.6Z"/><path class="a" d="M211.5,82.58c.8-9,3.3-14.4,16.3-27.4l19.7-19.7c4.8-4.8,16.9-15.6,16.9-25V.08c0-.1-.2-.1-.2,0-.8,7-2.5,10-19.6,27.1l-15.2,15.2c-8.2,8.2-14.6,14.5-17.3,22.5a28.56,28.56,0,0,0-1.5,14.4C210.8,80.78,211.4,83.08,211.5,82.58Z"/><path class="a" d="M254.8,144a22.77,22.77,0,0,1,4.1-10.3h-4.3V144C254.6,144.08,254.8,144.08,254.8,144Z"/><path class="a" d="M275,87.48l-5,5c-7.7,7.6-15.4,16.2-15.4,24V127c0,.1.2.1.2,0,.8-7.7,4.5-12.6,15.6-23.7l4.6-4.6c8.9-8.9,16.2-18.4,15.2-29.1-.5-6-2.5-9.2-3.8-10.1-.7-.5-.5-.1-.3.3C291.3,71.28,279,83.37,275,87.48Z"/><path class="a" d="M254.6,108.67c0,.1.2.1.2,0,.9-7.3,5-12.9,14.6-22.4l4.6-4.6c5.7-5.7,10.8-11.6,10.6-21.3-.1-5.9-3.1-10.8-7.6-12-1.8-.4-1.7-.2-1.3,0,6.3,3,5.9,14.4-4.3,24.6l-5.6,5.6c-3.6,3.6-11.1,11.7-11.1,19.3v10.8Z"/><path class="a" d="M116.7,202.87a13.39,13.39,0,0,0,.5,2,1.2,1.2,0,0,0,.7.7,13.28,13.28,0,0,0,3.8,1.4,21,21,0,0,0,4.8.6,13.93,13.93,0,0,0,9.8-3.4,10.69,10.69,0,0,0,3.8-8.6c0-5.2-3.5-8.9-10.4-11.2a54.24,54.24,0,0,1-6.7-2.5,8.25,8.25,0,0,1-2.5-2.1,6.29,6.29,0,0,1-1.3-4.1,5.91,5.91,0,0,1,2-4.5,7.39,7.39,0,0,1,5.1-1.8,12.65,12.65,0,0,1,6.9,2,9.4,9.4,0,0,1,4.1,5c.3.9.6,1.4.9,1.4s.6-.3.6-.9a7.5,7.5,0,0,0-.1-1.2l-.5-2.9c-.2-1.6-.4-2.5-.4-2.8,0-.9-.2-1.4-.7-1.4-.2,0-.3,0-.3.1l-.4.3a1.08,1.08,0,0,1-.7.3.9.9,0,0,1-.5-.1l-1.8-.6a12.93,12.93,0,0,0-5.1-.9,13.32,13.32,0,0,0-8.8,2.9,9.15,9.15,0,0,0-3.4,7.4,9,9,0,0,0,2.6,6.6c1.7,1.7,4.7,3.3,8.9,4.7,4,1.4,6.5,2.4,7.3,3.1a6.58,6.58,0,0,1,2.5,5.3,7.19,7.19,0,0,1-2.7,5.6,10,10,0,0,1-6.6,2.3,11.91,11.91,0,0,1-7.1-2.4,10.86,10.86,0,0,1-4.3-5.9c-.3-.9-.6-1.4-.9-1.4s-.6.3-.6.8a14.28,14.28,0,0,0,.7,3.6A15,15,0,0,1,116.7,202.87Z"/><path class="a" d="M153.4,178a8.33,8.33,0,0,0-1.2.1c-.3,0-1.2.1-2.6.1a34.44,34.44,0,0,1-3.6-.1,9.89,9.89,0,0,0-1.5-.1c-.5,0-.7.1-.7.5s.2.5.6.6l1.3.3a2.31,2.31,0,0,1,1.8,1.3,8.61,8.61,0,0,1,.5,3.4v21.3l.1,2.1a8.7,8.7,0,0,1-.8,3.9,2.27,2.27,0,0,1-2.1,1.6,2.12,2.12,0,0,1-1.8-1,1.49,1.49,0,0,0-.7-.6c-.4,0-.6.4-.8,1.3-.1.4-.1.7-.2.8a1.09,1.09,0,0,0-.1.5c0,.3.2.5.5.8a2.38,2.38,0,0,0,1.2.3,6.43,6.43,0,0,0,4.7-2.3,12,12,0,0,0,3-5.8l.3-2.8v-22a4.09,4.09,0,0,1,.4-2.2,2.71,2.71,0,0,1,1.6-.9c.4-.1.6-.3.6-.5C153.8,178.17,153.6,178,153.4,178Z"/><path class="a" d="M184.5,184a10.36,10.36,0,0,1,.4-3.6,3.2,3.2,0,0,1,1.7-1.5.51.51,0,0,0,.4-.5.37.37,0,0,0-.4-.4,4.4,4.4,0,0,0-.9.1c-.4,0-1.3.1-2.9.1a10.89,10.89,0,0,1-1.9-.1,10.51,10.51,0,0,0-1.3-.2c-.3,0-.4.1-.4.4s.2.4.6.5a3.23,3.23,0,0,1,2.6,1.4,7.41,7.41,0,0,1,.8,3.8v10.8c0,3.7-.8,6.4-2.5,8.2s-4.1,2.7-7.5,2.7c-3.7,0-6.4-1.1-8-3.3-1.1-1.5-1.7-4.1-1.7-7.7v-12a6.05,6.05,0,0,1,.4-2.8,2.45,2.45,0,0,1,1.6-1.1c.4-.1.7-.3.7-.5s-.2-.3-.5-.3a5.39,5.39,0,0,0-1.1.1,6.82,6.82,0,0,1-1.2.1h-3.2a8.17,8.17,0,0,1-1.4-.1h-1.4c-.5,0-.8.2-.8.5s.2.4.6.4a4.17,4.17,0,0,1,2.5,1.1,5.79,5.79,0,0,1,.6,3.1V195a14.67,14.67,0,0,0,1.5,7.1,9.77,9.77,0,0,0,4.2,3.8,14.68,14.68,0,0,0,6.4,1.4,14.35,14.35,0,0,0,5.8-1.2,9.5,9.5,0,0,0,4.1-3.1c1.5-2.1,2.3-5,2.3-8.8V184Z"/><path class="a" d="M218.7,178.48c0-.3-.2-.4-.6-.4a4.14,4.14,0,0,0-1,.1,12.17,12.17,0,0,1-2.1.1,38.43,38.43,0,0,1-3.9-.2c-.4,0-.7-.1-.9-.1-.4,0-.6.1-.6.4s.2.4.6.5a6.08,6.08,0,0,1,3,1.1,3.42,3.42,0,0,1,1,2.5l.3,4.8v13.2c0,.3-.1.4-.2.4s-.3-.2-.6-.5l-19.3-21.7a1.36,1.36,0,0,0-1-.6h-3.7c-.3,0-.5.1-.5.4s.2.4.6.5a4.12,4.12,0,0,1,3.3,2.4,11.5,11.5,0,0,1,1.2,5.7v14.3a6.92,6.92,0,0,1-.6,3.3,4.07,4.07,0,0,1-2.4,1.6c-.4.1-.6.3-.6.5s.2.4.6.4a2.81,2.81,0,0,0,.8-.1,8.08,8.08,0,0,1,1.6-.1h1l2.1.1c1.1.1,1.7.1,1.8.1h.6c.3,0,.4-.1.4-.4s-.2-.5-.7-.5a4.21,4.21,0,0,1-2.2-.8,2.81,2.81,0,0,1-.7-1.9l-.1-1.5V187c0-.6.1-.9.4-.9a.37.37,0,0,1,.3.1l.2.2,17.7,20.2.5.5a.76.76,0,0,0,.5.2.63.63,0,0,0,.6-.5,17.25,17.25,0,0,0,.1-2.9v-21.3a5.57,5.57,0,0,1,.4-2.7,2.37,2.37,0,0,1,1.7-1C218.6,178.78,218.7,178.67,218.7,178.48Z"/><path class="a" d="M225.8,205.28a2.3,2.3,0,0,1-1.8,1c-.4.1-.6.2-.6.5s.2.5.7.5c.3,0,.7-.1,1.2-.1a23,23,0,0,1,3.9-.2c1.4,0,3,.1,4.9.2a16.68,16.68,0,0,0,1.9.1,15.49,15.49,0,0,0,8.4-2.4,14.15,14.15,0,0,0,4.8-5.2,16,16,0,0,0,1.7-7.3,13.72,13.72,0,0,0-3.9-10.1c-2.9-2.9-7.2-4.3-12.9-4.3a25.29,25.29,0,0,0-2.8.1l-1.9.2a30.22,30.22,0,0,1-3.3.1h-1.5l-1.7-.1c-.4,0-.5.1-.5.4s.2.4.7.4a3.12,3.12,0,0,1,2.4,1.2,5.27,5.27,0,0,1,.7,3.1v18.9A8.79,8.79,0,0,1,225.8,205.28Zm3.6-23.7a2.28,2.28,0,0,1,.5-1.7c.6-.5,2-.7,4.2-.7a13.64,13.64,0,0,1,7.9,2.3,12.75,12.75,0,0,1,4.2,5.2,17.19,17.19,0,0,1,1.5,7.2c0,4.8-1.6,8.2-4.9,10.3a11.9,11.9,0,0,1-6.4,1.8,16.78,16.78,0,0,1-2.9-.3,22.56,22.56,0,0,1-2.8-.7,1.72,1.72,0,0,1-1.3-1.8Z"/><path class="a" d="M258,203.08c0,1.7-.5,2.7-1.5,2.9l-.8.2c-.4.1-.5.3-.5.5s.2.5.7.5a5.39,5.39,0,0,0,1.1-.1,30.22,30.22,0,0,1,5.2-.3,58.87,58.87,0,0,1,6.6.4,10.37,10.37,0,0,0,1.6.1,6,6,0,0,0,4.7-2.3,5.65,5.65,0,0,0,1.5-3.2c0-.4-.1-.6-.4-.5s-.3.1-.5.4c-1.6,2.5-5.1,3.7-10.6,3.7-1.7,0-2.8-.1-3.2-.4s-.6-1-.6-2.2v-8.4c0-.4.1-.7.3-.8a3.71,3.71,0,0,1,1.4-.2h4.6a5.68,5.68,0,0,1,2.6.5,2.87,2.87,0,0,1,1,1.9l.1.6c.1.3.2.5.5.5s.4-.2.4-.5v-.6a20.91,20.91,0,0,1-.1-2.5c0-1.1.1-2.3.2-3.7v-.5c0-.4-.1-.6-.4-.6a.47.47,0,0,0-.5.5,6,6,0,0,1-.6,1.8,2.11,2.11,0,0,1-1.5.6,16.22,16.22,0,0,1-3.5.3h-3.2a2,2,0,0,1-1.1-.2,2.23,2.23,0,0,1-.2-1.2v-8.7c0-.7.1-1.2.4-1.4a3.17,3.17,0,0,1,1.7-.3h3.3a22.68,22.68,0,0,1,4.5.3,2.14,2.14,0,0,1,1.6,1.3,2.77,2.77,0,0,1,.3,1.3v.5c0,.4.1.6.4.6a.55.55,0,0,0,.5-.3,8.81,8.81,0,0,0,.2-1.5l.1-1.2a10.84,10.84,0,0,1,.2-1.7,4.33,4.33,0,0,1,.1-.5c0-.4-.2-.6-.7-.6a2.49,2.49,0,0,0-.8.1c-.2,0-.7.1-1.5.1l-3,.1c-1.3.1-2.8.1-4.5.1q-4.2,0-7.2-.3a8.17,8.17,0,0,0-1.4-.1q-.9,0-.9.6c0,.3.2.4.6.4a2.88,2.88,0,0,1,2.6,1,8.58,8.58,0,0,1,.7,4v17.7Z"/><path class="a" d="M282.7,205.28a2.3,2.3,0,0,1-1.8,1c-.4.1-.6.2-.6.5s.2.5.7.5c.3,0,.7-.1,1.2-.1a23,23,0,0,1,3.9-.2c1.4,0,3,.1,4.9.2a16.68,16.68,0,0,0,1.9.1,15.49,15.49,0,0,0,8.4-2.4,14.15,14.15,0,0,0,4.8-5.2,16,16,0,0,0,1.7-7.3,13.72,13.72,0,0,0-3.9-10.1c-2.9-2.9-7.2-4.3-12.9-4.3a25.29,25.29,0,0,0-2.8.1l-1.9.2a30.22,30.22,0,0,1-3.3.1h-1.5l-1.7-.1c-.4,0-.5.1-.5.4s.2.4.7.4a3.12,3.12,0,0,1,2.4,1.2,5.27,5.27,0,0,1,.7,3.1v18.9A6.8,6.8,0,0,1,282.7,205.28Zm3.6-23.7a2.28,2.28,0,0,1,.5-1.7c.6-.5,2-.7,4.2-.7a13.64,13.64,0,0,1,7.9,2.3,12.75,12.75,0,0,1,4.2,5.2,17.19,17.19,0,0,1,1.5,7.2c0,4.8-1.6,8.2-4.9,10.3a11.9,11.9,0,0,1-6.4,1.8,16.78,16.78,0,0,1-2.9-.3,22.56,22.56,0,0,1-2.8-.7,1.72,1.72,0,0,1-1.3-1.8Z"/><path class="a" d="M336.5,207.08q.6,0,.6-.3c0-.3-.2-.4-.6-.5a5,5,0,0,1-2.6-1,10,10,0,0,1-1.6-3.2l-.5-1.1-9-23.1c-.2-.4-.3-.6-.6-.6s-.4.2-.6.6l-10.8,23.9-.6,1.4a10,10,0,0,1-1.2,1.9,4.07,4.07,0,0,1-1.1,1l-.8.2c-.2.1-.4.2-.4.5s.2.4.6.4a8.33,8.33,0,0,0,1.2-.1h3.2l2,.1h.7q.6,0,.6-.3c0-.2-.2-.4-.7-.5a3.78,3.78,0,0,1-1.9-.8,2,2,0,0,1-.5-1.4,9.82,9.82,0,0,1,.9-3.2l1.4-3.1a5.11,5.11,0,0,1,1-1.7,3.82,3.82,0,0,1,1.9-.3h7.6a3,3,0,0,1,1.4.2c.2.1.4.6.7,1.3l1,2.8a14.88,14.88,0,0,1,1.3,4.4c0,.8-.3,1.3-1,1.4l-.6.1c-.3.1-.5.2-.5.4s.2.4.5.4a1.49,1.49,0,0,0,.6-.1,28.54,28.54,0,0,1,3.6-.1,36.79,36.79,0,0,1,3.9.1A1.67,1.67,0,0,0,336.5,207.08ZM324.2,194h-6.9c-.6,0-1-.2-1-.5a2.71,2.71,0,0,1,.3-.8l4.1-9.1c.1-.3.2-.4.3-.4s.4.2.5.7l.2.4,3.3,8.3.1.4a1.09,1.09,0,0,1,.1.5C325.3,193.78,324.9,194,324.2,194Z"/><path class="a" d="M340.1,203.48a13.86,13.86,0,0,0,10.3,4,17.13,17.13,0,0,0,8.8-2.4l1.4-.8c.8-.4,1.4-.7,1.7-.8a.85.85,0,0,0,.6-.2l.1-.3v-8.1c0-1.3.5-2.1,1.6-2.3.4-.1.6-.3.6-.5s-.2-.4-.5-.4a16,16,0,0,0-1.7.1h-6.2c-.5,0-.7.1-.7.4s.3.5.8.5a4.14,4.14,0,0,1,2.2.6,2.06,2.06,0,0,1,.6,1.7v4.7a4.42,4.42,0,0,1-.7,2.9,9.14,9.14,0,0,1-7.6,3.4,10.75,10.75,0,0,1-8.5-4.1,15.15,15.15,0,0,1-3.4-10.2,14,14,0,0,1,3-9.3,9.62,9.62,0,0,1,7.7-3.6,13.65,13.65,0,0,1,7.2,2.1,12.94,12.94,0,0,1,5,5.4.66.66,0,0,0,.5.4c.3,0,.4-.2.4-.5a1.27,1.27,0,0,0-.1-.6c-.1-.5-.2-1.1-.3-1.6l-.2-2a8.17,8.17,0,0,1-.1-1.4c0-.7-.1-1-.4-1a.37.37,0,0,0-.3.1l-.5.4c-.2.1-.3.2-.4.2s-.2-.1-.4-.2a16.68,16.68,0,0,0-4.4-1.8,20.18,20.18,0,0,0-5.2-.7,14.48,14.48,0,0,0-10.7,4.4,15.33,15.33,0,0,0-4.3,11C336.1,197.28,337.4,200.78,340.1,203.48Z"/><path class="a" d="M378.8,190.28c-2.7-.9-4.3-1.5-5-1.8a5.61,5.61,0,0,1-1.9-1.6,4.72,4.72,0,0,1-1-3,4.27,4.27,0,0,1,1.5-3.3,5.49,5.49,0,0,1,3.8-1.3,9,9,0,0,1,5.1,1.5,7.33,7.33,0,0,1,3.1,3.7c.2.7.5,1,.7,1s.4-.2.4-.6a4.4,4.4,0,0,0-.1-.9l-.3-2.2q-.3-1.8-.3-2.1c0-.7-.2-1-.5-1-.1,0-.2,0-.2.1l-.3.3c-.2.1-.3.2-.5.2a.6.6,0,0,1-.4-.1l-1.4-.6a10.31,10.31,0,0,0-3.8-.7,9.76,9.76,0,0,0-6.5,2.1,6.83,6.83,0,0,0-2.5,5.5,6.41,6.41,0,0,0,1.9,4.9c1.3,1.3,3.5,2.4,6.6,3.5a21.76,21.76,0,0,1,5.4,2.3,5.12,5.12,0,0,1,1.8,3.9,5.26,5.26,0,0,1-2,4.1,7.48,7.48,0,0,1-4.9,1.7,8.7,8.7,0,0,1-5.3-1.8,8.17,8.17,0,0,1-3.2-4.4c-.2-.7-.4-1-.7-1s-.4.2-.4.6a16,16,0,0,0,.5,2.7c.3,1.2.5,1.8.5,1.9a12.68,12.68,0,0,0,.4,1.5,1.2,1.2,0,0,0,.5.5,8.51,8.51,0,0,0,2.8,1.1,16.34,16.34,0,0,0,3.6.5,10.45,10.45,0,0,0,7.3-2.5,8.13,8.13,0,0,0,2.8-6.4C386.5,194.67,383.9,191.87,378.8,190.28Z"/><path class="a" d="M40,252.37a8,8,0,0,1-3.6-1.3,14.87,14.87,0,0,1-2.2-4.2l-.6-1.5-12.1-31.1c-.2-.5-.5-.8-.8-.8s-.6.3-.8.8L5.4,246.37l-.8,1.9a9.63,9.63,0,0,1-1.6,2.5c-.6.8-1.1,1.3-1.5,1.4l-1,.3a.63.63,0,0,0-.5.6c0,.3.3.5.8.5.1,0,.6-.1,1.6-.2H3.7a29.13,29.13,0,0,1,3.1.1l2.7.2h1c.5,0,.8-.2.8-.5s-.3-.6-.9-.7a6,6,0,0,1-2.6-1,2.56,2.56,0,0,1-.7-1.9,11,11,0,0,1,1.3-4.2l1.8-4.2a6.5,6.5,0,0,1,1.4-2.3,6.44,6.44,0,0,1,2.6-.3H24.4a5.57,5.57,0,0,1,1.9.2,6.91,6.91,0,0,1,.9,1.8l1.4,3.7c1.1,3,1.7,5,1.7,6a1.71,1.71,0,0,1-1.4,1.9l-.9.2c-.5.1-.7.3-.7.6s.2.6.7.6a3.45,3.45,0,0,0,.9-.1,41.44,41.44,0,0,1,4.9-.2c2.5,0,4.2,0,5.2.1.5,0,.9.1,1.1.1.5,0,.8-.2.8-.5S40.5,252.48,40,252.37Zm-16.6-16.5H14.1c-.9,0-1.3-.2-1.3-.7a2.18,2.18,0,0,1,.4-1L18.7,222c.2-.4.3-.6.5-.5s.5.3.7.9l.2.6,4.4,11.2.1.5a1.76,1.76,0,0,1,.1.6C24.8,235.67,24.4,235.87,23.4,235.87Z"/><path class="a" d="M53,224.28a25.29,25.29,0,0,0-2.8.1l-1.9.2a30.22,30.22,0,0,1-3.3.1H43.5l-1.7-.1c-.4,0-.5.1-.5.4s.2.4.7.4a3.12,3.12,0,0,1,2.4,1.2,5.27,5.27,0,0,1,.7,3.1v18.9a7,7,0,0,1-.4,3.1,2.3,2.3,0,0,1-1.8,1c-.4.1-.6.2-.6.5s.2.5.7.5c.3,0,.7-.1,1.2-.1a23,23,0,0,1,3.9-.2c1.4,0,3,.1,4.9.2a16.68,16.68,0,0,0,1.9.1,15.49,15.49,0,0,0,8.4-2.4,14.15,14.15,0,0,0,4.8-5.2,16,16,0,0,0,1.7-7.3,13.72,13.72,0,0,0-3.9-10.1C63,225.78,58.7,224.28,53,224.28Zm8.8,26.3a11.9,11.9,0,0,1-6.4,1.8,16.78,16.78,0,0,1-2.9-.3,22.55,22.55,0,0,1-2.8-.7,1.72,1.72,0,0,1-1.3-1.8V228a2.28,2.28,0,0,1,.5-1.7c.6-.5,2-.7,4.2-.7a13.64,13.64,0,0,1,7.9,2.3,12.75,12.75,0,0,1,4.2,5.2,17.19,17.19,0,0,1,1.5,7.2C66.6,245.17,65,248.58,61.8,250.58Z"/><path class="a" d="M98.9,224.48H94.8c-.2,0-.8,0-1.9-.1h-.6c-.4,0-.7.1-.7.4s.4.4,1.2.6a2.69,2.69,0,0,1,1.3.5,1.33,1.33,0,0,1,.3,1c0,1.3-1,4.4-3,9l-4.6,10.9-.3.8c-.4.8-.6,1.2-.8,1.2s-.3-.2-.5-.7l-8.1-18.5a8.72,8.72,0,0,1-.9-2.9,1.55,1.55,0,0,1,.2-.8,3.83,3.83,0,0,1,1.1-.5c.3-.1.4-.3.4-.4,0-.3-.2-.4-.6-.4h-.6a7.18,7.18,0,0,1-1.3.1H69.3c-.4,0-.6.1-.6.4s.1.3.2.3a4,4,0,0,0,1.3.3,2.84,2.84,0,0,1,1.7.9,7.86,7.86,0,0,1,1.4,2.4l10.6,24.6c.3.7.6,1,.9,1s.6-.3.8-1L96,229.17l.6-1.4a3.91,3.91,0,0,1,2.3-2.4.51.51,0,0,0,.4-.5A.37.37,0,0,0,98.9,224.48Z"/><path class="a" d="M122,247.67c-.2,0-.3.1-.5.4-1.6,2.5-5.1,3.7-10.6,3.7-1.7,0-2.8-.1-3.2-.4s-.6-1-.6-2.2v-8.4c0-.4.1-.7.3-.8a3.71,3.71,0,0,1,1.4-.2h4.6a5.68,5.68,0,0,1,2.6.5,2.87,2.87,0,0,1,1,1.9l.1.6c.1.3.2.5.5.5s.4-.2.4-.5v-.6a20.9,20.9,0,0,1-.1-2.5c0-1.1.1-2.3.2-3.7v-.5c0-.4-.1-.6-.4-.6a.47.47,0,0,0-.5.5,6,6,0,0,1-.6,1.8,2.11,2.11,0,0,1-1.5.6,16.22,16.22,0,0,1-3.5.3h-3.2a2,2,0,0,1-1.1-.2,2.23,2.23,0,0,1-.2-1.2v-8.5c0-.7.1-1.2.4-1.4a2.94,2.94,0,0,1,1.7-.3h3.3a22.68,22.68,0,0,1,4.5.3,2.14,2.14,0,0,1,1.6,1.3,2.77,2.77,0,0,1,.3,1.3v.5c0,.4.1.6.4.6a.55.55,0,0,0,.5-.3,8.81,8.81,0,0,0,.2-1.5l.1-1.2a10.85,10.85,0,0,1,.2-1.7,4.33,4.33,0,0,1,.1-.5c0-.4-.2-.6-.7-.6a2.49,2.49,0,0,0-.8.1c-.2,0-.7.1-1.5.1l-3,.1c-1.3.1-2.8.1-4.5.1q-4.2,0-7.2-.3a8.17,8.17,0,0,0-1.4-.1q-.9,0-.9.6c0,.3.2.4.6.4a2.88,2.88,0,0,1,2.6,1,8.58,8.58,0,0,1,.7,4v19.1c0,1.7-.5,2.7-1.5,2.9l-.8.2c-.4.1-.5.3-.5.5s.2.5.7.5a5.39,5.39,0,0,0,1.1-.1,30.22,30.22,0,0,1,5.2-.3,58.88,58.88,0,0,1,6.6.4,10.37,10.37,0,0,0,1.6.1,6,6,0,0,0,4.7-2.3,5.65,5.65,0,0,0,1.5-3.2C122.4,247.78,122.3,247.67,122,247.67Z"/><path class="a" d="M152.7,224.48a4.14,4.14,0,0,0-1,.1,12.17,12.17,0,0,1-2.1.1,38.43,38.43,0,0,1-3.9-.2c-.4,0-.7-.1-.9-.1-.4,0-.6.1-.6.4s.2.4.6.5a6.08,6.08,0,0,1,3,1.1,3.42,3.42,0,0,1,1,2.5l.3,4.8v13.2c0,.3-.1.4-.2.4s-.3-.2-.6-.5L129,225a1.36,1.36,0,0,0-1-.6h-3.7c-.3,0-.5.1-.5.4s.2.4.6.5a4.12,4.12,0,0,1,3.3,2.4,11.5,11.5,0,0,1,1.2,5.7v14.3a6.92,6.92,0,0,1-.6,3.3,4.07,4.07,0,0,1-2.4,1.6c-.4.1-.6.3-.6.5s.2.4.6.4a2.81,2.81,0,0,0,.8-.1,8.08,8.08,0,0,1,1.6-.1h1l2.1.1c1.1.1,1.7.1,1.8.1h.6c.3,0,.4-.1.4-.4s-.2-.5-.7-.5a4.21,4.21,0,0,1-2.2-.8,2.81,2.81,0,0,1-.7-1.9l-.1-1.5v-15.1c0-.6.1-.9.4-.9a.37.37,0,0,1,.3.1l.2.2,17.7,20.2.5.5a.76.76,0,0,0,.5.2.63.63,0,0,0,.6-.5,17.25,17.25,0,0,0,.1-2.9v-21.3a5.57,5.57,0,0,1,.4-2.7,2.37,2.37,0,0,1,1.7-1c.3-.1.4-.2.4-.4S153.1,224.48,152.7,224.48Z"/><path class="a" d="M181.2,226.48a4,4,0,0,0-.2-1.5c-.2-.2-.6-.2-1.4-.2H157q-.75,0-.9.3a3.09,3.09,0,0,0-.2,1.3,12.89,12.89,0,0,1-.3,2.5,8,8,0,0,0-.3,1.6c0,.4.1.5.4.6s.4-.3.6-.8a5.24,5.24,0,0,1,1.2-2.6,3.4,3.4,0,0,1,2.5-.7h5.6a.92.92,0,0,1,1.2,1.2v21.3a3.47,3.47,0,0,1-.6,2.4,3,3,0,0,1-2.2.9c-.5.1-.7.2-.7.4s.2.5.6.5a11.31,11.31,0,0,0,1.4-.1c.4,0,.9-.1,1.5-.1h3.1a8.2,8.2,0,0,1,1.9.1,5.13,5.13,0,0,0,1,.1c.4,0,.6-.2.6-.5s-.2-.4-.7-.5c-1.8-.3-2.7-1.3-2.7-2.9v-21.4a2.23,2.23,0,0,1,.2-1.2c.2-.2.5-.3,1.2-.3h5.9a4.27,4.27,0,0,1,2.4.5,3,3,0,0,1,.9,1.9c.1.4.3.7.5.6s.5-.2.4-.7c0-.2-.1-.5-.1-1A5.94,5.94,0,0,1,181.2,226.48Z"/><path class="a" d="M193.4,252.58a3.85,3.85,0,0,1-1.9-.6,2.84,2.84,0,0,1-1-1.5,14,14,0,0,1-.4-3.9v-15.7c0-3,.5-4.6,1.6-5l1.1-.4c.4-.1.5-.3.5-.6s-.2-.4-.6-.4h-.5l-1.4.1c-.7,0-1.6.1-2.7.1-1.7,0-3-.1-4.1-.2h-.4c-.4,0-.6.2-.6.5s.2.4.7.5a3.46,3.46,0,0,1,2.5,1.2,7,7,0,0,1,.6,3.5v18a8.5,8.5,0,0,1-.5,3.5c-.3.6-1,.9-2.1,1.1-.4.1-.6.2-.6.5s.2.4.6.4a3.75,3.75,0,0,0,1-.1l2.5-.1h3a12.22,12.22,0,0,1,2.2.1c.3,0,.6.1.8.1.4,0,.7-.2.7-.5S194.1,252.67,193.4,252.58Z"/><path class="a" d="M207.5,236.67c-2.7-.9-4.3-1.5-5-1.8a5.61,5.61,0,0,1-1.9-1.6,4.72,4.72,0,0,1-1-3,4.27,4.27,0,0,1,1.5-3.3,5.49,5.49,0,0,1,3.8-1.3,9,9,0,0,1,5.1,1.5,7.33,7.33,0,0,1,3.1,3.7c.2.7.5,1,.7,1s.4-.2.4-.6a4.4,4.4,0,0,0-.1-.9l-.3-2.2q-.3-1.8-.3-2.1c0-.7-.2-1-.5-1-.1,0-.2,0-.2.1l-.3.3c-.2.1-.3.2-.5.2a.6.6,0,0,1-.4-.1l-1.4-.6a10.31,10.31,0,0,0-3.8-.7,9.76,9.76,0,0,0-6.5,2.1,6.83,6.83,0,0,0-2.5,5.5,6.41,6.41,0,0,0,1.9,4.9c1.3,1.3,3.5,2.4,6.6,3.5a21.76,21.76,0,0,1,5.4,2.3,5.12,5.12,0,0,1,1.8,3.9,5.26,5.26,0,0,1-2,4.1,7.48,7.48,0,0,1-4.9,1.7,8.7,8.7,0,0,1-5.3-1.8,8.17,8.17,0,0,1-3.2-4.4c-.2-.7-.4-1-.7-1s-.4.2-.4.6a16,16,0,0,0,.5,2.7c.3,1.2.5,1.8.5,1.9a12.68,12.68,0,0,0,.4,1.5,1.2,1.2,0,0,0,.5.5,8.51,8.51,0,0,0,2.8,1.1,16.34,16.34,0,0,0,3.6.5,10.45,10.45,0,0,0,7.3-2.5,8.22,8.22,0,0,0,2.9-6.4C215.3,241.08,212.7,238.28,207.5,236.67Z"/><path class="a" d="M243.2,226.48a4,4,0,0,0-.2-1.5c-.2-.2-.6-.2-1.4-.2H219q-.75,0-.9.3a3.09,3.09,0,0,0-.2,1.3,12.89,12.89,0,0,1-.3,2.5,8,8,0,0,0-.3,1.6c0,.4.1.5.4.6s.4-.3.6-.8a5.24,5.24,0,0,1,1.2-2.6,3.4,3.4,0,0,1,2.5-.7h5.6a.92.92,0,0,1,1.2,1.2v21.3a3.47,3.47,0,0,1-.6,2.4,3,3,0,0,1-2.2.9c-.5.1-.7.2-.7.4s.2.5.6.5a11.31,11.31,0,0,0,1.4-.1c.4,0,.9-.1,1.5-.1h3.1a8.2,8.2,0,0,1,1.9.1,5.13,5.13,0,0,0,1,.1c.4,0,.6-.2.6-.5s-.2-.4-.7-.5c-1.8-.3-2.7-1.3-2.7-2.9v-21.4a2.23,2.23,0,0,1,.2-1.2c.2-.2.5-.3,1.2-.3h5.9a4.27,4.27,0,0,1,2.4.5,3,3,0,0,1,.9,1.9c.1.4.3.7.5.6s.5-.2.4-.7c0-.2-.1-.5-.1-1A5.94,5.94,0,0,1,243.2,226.48Z"/><path class="a" d="M256.1,236.67c-2.7-.9-4.3-1.5-5-1.8a5.61,5.61,0,0,1-1.9-1.6,4.72,4.72,0,0,1-1-3,4.27,4.27,0,0,1,1.5-3.3,5.49,5.49,0,0,1,3.8-1.3,9,9,0,0,1,5.1,1.5,7.33,7.33,0,0,1,3.1,3.7c.2.7.5,1,.7,1s.4-.2.4-.6a4.4,4.4,0,0,0-.1-.9l-.3-2.2q-.3-1.8-.3-2.1c0-.7-.2-1-.5-1-.1,0-.2,0-.2.1l-.3.3c-.2.1-.3.2-.5.2a.6.6,0,0,1-.4-.1l-1.4-.6a10.31,10.31,0,0,0-3.8-.7,9.76,9.76,0,0,0-6.5,2.1,6.83,6.83,0,0,0-2.5,5.5,6.41,6.41,0,0,0,1.9,4.9c1.3,1.3,3.5,2.4,6.6,3.5a21.76,21.76,0,0,1,5.4,2.3,5.12,5.12,0,0,1,1.8,3.9,5.26,5.26,0,0,1-2,4.1,7.48,7.48,0,0,1-4.9,1.7,8.7,8.7,0,0,1-5.3-1.8,8.17,8.17,0,0,1-3.2-4.4c-.2-.7-.4-1-.7-1s-.4.2-.4.6a16,16,0,0,0,.5,2.7c.3,1.2.5,1.8.5,1.9a12.68,12.68,0,0,0,.4,1.5,1.2,1.2,0,0,0,.5.5,8.51,8.51,0,0,0,2.8,1.1,16.34,16.34,0,0,0,3.6.5,10.45,10.45,0,0,0,7.3-2.5,8.22,8.22,0,0,0,2.9-6.4C263.8,241.08,261.3,238.28,256.1,236.67Z"/><path class="a" d="M293.9,252.58a5,5,0,0,1-2.6-1,10,10,0,0,1-1.6-3.2l-.5-1.1-9-23.1c-.2-.4-.3-.6-.6-.6s-.4.2-.6.6l-10.8,23.9-.6,1.4a10,10,0,0,1-1.2,1.9,4.07,4.07,0,0,1-1.1,1l-.8.2c-.2.1-.4.2-.4.5s.2.4.6.4a8.33,8.33,0,0,0,1.2-.1h3.2l2,.1h.7q.6,0,.6-.3c0-.2-.2-.4-.7-.5a3.78,3.78,0,0,1-1.9-.8,2,2,0,0,1-.5-1.4,8.84,8.84,0,0,1,.9-3.1l1.4-3.1a5.11,5.11,0,0,1,1-1.7,3.82,3.82,0,0,1,1.9-.3h7.6a3,3,0,0,1,1.4.2c.2.1.4.6.7,1.3l1,2.8a14.88,14.88,0,0,1,1.3,4.4c0,.8-.3,1.3-1,1.4l-.6.1c-.3.1-.5.2-.5.4s.2.4.5.4a1.49,1.49,0,0,0,.6-.1,28.54,28.54,0,0,1,3.6-.1,36.79,36.79,0,0,1,3.9.1h.8q.6,0,.6-.3C294.5,252.87,294.3,252.67,293.9,252.58Zm-12.3-12.2h-6.9c-.6,0-1-.2-1-.5a2.71,2.71,0,0,1,.3-.8l4.1-9.1c.1-.3.2-.4.3-.4s.4.2.5.7l.2.4,3.3,8.3.1.4a1.09,1.09,0,0,1,.1.5C282.6,240.17,282.3,240.37,281.6,240.37Z"/><path class="a" d="M328.2,252.58a4.12,4.12,0,0,1-2.1-.9,3.52,3.52,0,0,1-.6-2.3l-.1-2.6-.4-11.4-.1-5.1a10.07,10.07,0,0,1,.4-3.5,2.17,2.17,0,0,1,1.5-1.3l.9-.2c.3-.1.4-.2.4-.5s-.1-.4-.4-.4h-.6a12.17,12.17,0,0,1-2.1.1h-.7a4.4,4.4,0,0,0-.9-.1.85.85,0,0,0-.6.2,3.78,3.78,0,0,0-.5.8l-9.8,21.1-.2.4-.3.6c-.1.3-.2.4-.3.4s-.2-.2-.3-.5l-1.1-2.2-8.7-18.8-.2-.5c-.4-.9-.9-1.3-1.5-1.3a2.49,2.49,0,0,0-.8.1h-4.3a.47.47,0,0,0-.5.5c0,.3.2.4.6.5a4.62,4.62,0,0,1,3.3,2.2,11.22,11.22,0,0,1,1,5.5c0,1.2-.1,3.9-.3,8.3l-.3,6.1a9,9,0,0,1-.7,3.6,3,3,0,0,1-2.1,1.4c-.3.1-.5.2-.5.5s.2.5.6.5a1.27,1.27,0,0,0,.6-.1,26.42,26.42,0,0,1,2.9-.2c.8,0,2.1.1,3.6.2h.8c.4,0,.6-.2.6-.5s-.4-.5-1.3-.6c-1.7-.3-2.6-1.6-2.6-4.1s0-4.3.1-5.1l.5-10.4,7.9,17,.4.9.6,1.2c.3.7.6,1,1,1s.6-.3.9-1l.4-.8c.3-.6.7-1.4,1.1-2.4q1.65-3.6,1.8-3.9l2.1-4.4,1.9-4c.4-.8,1.2-2.3,2.4-4.3l.5,13.3.1,3.4a5.35,5.35,0,0,1-.4,2.6,2.44,2.44,0,0,1-1.7,1.1c-.3.1-.5.3-.5.5s.2.4.6.4c.2,0,1.1,0,2.5-.1a17.86,17.86,0,0,1,2.1-.1,10.87,10.87,0,0,1,1.8.1l1.6.2h.5c.5,0,.8-.1.8-.4C329.3,252.87,328.9,252.67,328.2,252.58Z"/><path class="a" d="M351.7,224.17a2,2,0,0,0-.7.1c-.4.1-1.2.1-2.4.2l-2.9.1c-.8,0-2.5.1-5.1.1-3,0-5.1-.1-6.3-.2a8.47,8.47,0,0,0-1.3-.1c-.6,0-.9.2-.8.5s.2.3.5.4a4.65,4.65,0,0,1,1.7.4,3,3,0,0,1,.9,1,6.17,6.17,0,0,1,.7,3.1v18.8a6.54,6.54,0,0,1-.5,2.9,2.37,2.37,0,0,1-1.8,1.1c-.4.1-.7.3-.7.5s.2.4.6.4a5.39,5.39,0,0,0,1.1-.1,8.17,8.17,0,0,1,1.4-.1h3a12.17,12.17,0,0,1,2.1.1,6.64,6.64,0,0,0,1.3.1c.4,0,.7-.2.6-.5s-.3-.4-.7-.4a3,3,0,0,1-2.4-1,3.83,3.83,0,0,1-.9-2.7v-7.8a4.51,4.51,0,0,1,.1-1.3c.1-.3.3-.4.8-.5a23.8,23.8,0,0,1,3.2-.1,14.36,14.36,0,0,1,4.1.4,1.44,1.44,0,0,1,1,.6,3.71,3.71,0,0,1,.5,1.5c.2.7.4,1,.6,1s.4-.2.4-.5v-.6a21.23,21.23,0,0,1-.1-3.1v-1.3l.1-2.1c0-.4-.1-.6-.4-.6a.46.46,0,0,0-.4.5,3,3,0,0,1-1.1,2,5.06,5.06,0,0,1-2.8.6h-5q-1.05,0-1.2-.6v-9.1c0-.8.2-1.4.6-1.6a8.06,8.06,0,0,1,2.9-.3,26.28,26.28,0,0,1,3,.1l2.5.3a4.76,4.76,0,0,1,1.8.4,2.58,2.58,0,0,1,.7,1.4,5.85,5.85,0,0,1,.2,1.3c0,.3.1.5.4.5s.6-.3.6-1a13.07,13.07,0,0,1,.4-3.7,2,2,0,0,0,.1-.7A.37.37,0,0,0,351.7,224.17Z"/><path class="a" d="M383.5,224.48a4.4,4.4,0,0,0-.9.1c-.4,0-1.3.1-2.9.1a10.89,10.89,0,0,1-1.9-.1,10.51,10.51,0,0,0-1.3-.2c-.3,0-.4.1-.4.4s.2.4.6.5a3.23,3.23,0,0,1,2.6,1.4,7.41,7.41,0,0,1,.8,3.8v10.8c0,3.7-.8,6.4-2.5,8.2s-4.1,2.7-7.5,2.7c-3.7,0-6.4-1.1-8-3.3-1.1-1.5-1.7-4.1-1.7-7.7v-12a6.05,6.05,0,0,1,.4-2.8,2.45,2.45,0,0,1,1.6-1.1c.4-.1.7-.3.7-.5s-.2-.3-.5-.3a5.39,5.39,0,0,0-1.1.1,6.82,6.82,0,0,1-1.2.1h-3.2a8.17,8.17,0,0,1-1.4-.1h-1.4c-.5,0-.8.2-.8.5s.2.4.6.4a4.17,4.17,0,0,1,2.5,1.1,5.79,5.79,0,0,1,.6,3.1v11.9a14.67,14.67,0,0,0,1.5,7.1,9.77,9.77,0,0,0,4.2,3.8,14.68,14.68,0,0,0,6.4,1.4,14.35,14.35,0,0,0,5.8-1.2,9.5,9.5,0,0,0,4.1-3.1c1.5-2.1,2.3-5,2.3-8.8v-10.4a10.36,10.36,0,0,1,.4-3.6,3.2,3.2,0,0,1,1.7-1.5.51.51,0,0,0,.4-.5A.62.62,0,0,0,383.5,224.48Z"/><path class="a" d="M415.1,224.48a4.14,4.14,0,0,0-1,.1,12.17,12.17,0,0,1-2.1.1,38.43,38.43,0,0,1-3.9-.2c-.4,0-.7-.1-.9-.1-.4,0-.6.1-.6.4s.2.4.6.5a6.08,6.08,0,0,1,3,1.1,3.42,3.42,0,0,1,1,2.5l.3,4.8v13.2c0,.3-.1.4-.2.4s-.3-.2-.6-.5l-19.3-21.7a1.36,1.36,0,0,0-1-.6h-3.7c-.3,0-.5.1-.5.4s.2.4.6.5a4.12,4.12,0,0,1,3.3,2.4,11.5,11.5,0,0,1,1.2,5.7v14.3a6.92,6.92,0,0,1-.6,3.3,4.07,4.07,0,0,1-2.4,1.6c-.4.1-.6.3-.6.5s.2.4.6.4a2.81,2.81,0,0,0,.8-.1,8.08,8.08,0,0,1,1.6-.1h1l2.1.1c1.1.1,1.7.1,1.8.1h.6c.3,0,.4-.1.4-.4s-.2-.5-.7-.5a4.21,4.21,0,0,1-2.2-.8,2.81,2.81,0,0,1-.7-1.9l-.1-1.5v-15.1c0-.6.1-.9.4-.9a.37.37,0,0,1,.3.1l.2.2L411.5,253l.5.5a.76.76,0,0,0,.5.2.63.63,0,0,0,.6-.5,17.25,17.25,0,0,0,.1-2.9V229a5.57,5.57,0,0,1,.4-2.7,2.37,2.37,0,0,1,1.7-1c.3-.1.4-.2.4-.4A.55.55,0,0,0,415.1,224.48Z"/><path class="a" d="M431,224.28a25.29,25.29,0,0,0-2.8.1l-1.9.2a30.22,30.22,0,0,1-3.3.1h-1.5l-1.7-.1c-.4,0-.5.1-.5.4s.2.4.7.4a3.12,3.12,0,0,1,2.4,1.2,5.27,5.27,0,0,1,.7,3.1v18.9a7,7,0,0,1-.4,3.1,2.3,2.3,0,0,1-1.8,1c-.4.1-.6.2-.6.5s.2.5.7.5c.3,0,.7-.1,1.2-.1a23,23,0,0,1,3.9-.2c1.4,0,3,.1,4.9.2a16.68,16.68,0,0,0,1.9.1,15.49,15.49,0,0,0,8.4-2.4,14.15,14.15,0,0,0,4.8-5.2,16,16,0,0,0,1.7-7.3,13.72,13.72,0,0,0-3.9-10.1C441.1,225.78,436.8,224.28,431,224.28Zm8.8,26.3a11.9,11.9,0,0,1-6.4,1.8,16.78,16.78,0,0,1-2.9-.3,22.56,22.56,0,0,1-2.8-.7,1.72,1.72,0,0,1-1.3-1.8V228a2.28,2.28,0,0,1,.5-1.7c.6-.5,2-.7,4.2-.7a13.64,13.64,0,0,1,7.9,2.3,12.75,12.75,0,0,1,4.2,5.2,17.19,17.19,0,0,1,1.5,7.2C444.7,245.17,443.1,248.58,439.8,250.58Z"/><path class="a" d="M473.1,247.67c-.2,0-.3.1-.5.4-1.6,2.5-5.1,3.7-10.6,3.7-1.7,0-2.8-.1-3.2-.4s-.6-1-.6-2.2v-8.4c0-.4.1-.7.3-.8a3.71,3.71,0,0,1,1.4-.2h4.6a4.94,4.94,0,0,1,2.5.5,2.87,2.87,0,0,1,1,1.9l.1.6c.1.3.2.5.5.5s.4-.2.4-.5v-.6a20.91,20.91,0,0,1-.1-2.5c0-1.1.1-2.3.2-3.7v-.5c0-.4-.1-.6-.4-.6a.47.47,0,0,0-.5.5,6,6,0,0,1-.6,1.8,2.11,2.11,0,0,1-1.5.6,16.22,16.22,0,0,1-3.5.3h-3.2a2,2,0,0,1-1.1-.2,2.23,2.23,0,0,1-.2-1.2v-8.5c0-.7.1-1.2.4-1.4a2.94,2.94,0,0,1,1.7-.3h3.3a22.68,22.68,0,0,1,4.5.3,2.14,2.14,0,0,1,1.6,1.3,2.77,2.77,0,0,1,.3,1.3v.5c0,.4.1.6.4.6a.55.55,0,0,0,.5-.3,8.81,8.81,0,0,0,.2-1.5l.1-1.2a10.84,10.84,0,0,1,.2-1.7,4.33,4.33,0,0,1,.1-.5c0-.4-.2-.6-.7-.6a2.49,2.49,0,0,0-.8.1c-.2,0-.7.1-1.5.1l-3,.1c-1.3.1-2.8.1-4.5.1q-4.2,0-7.2-.3a8.17,8.17,0,0,0-1.4-.1q-.9,0-.9.6c0,.3.2.4.6.4a2.88,2.88,0,0,1,2.6,1,8.58,8.58,0,0,1,.7,4v19.1c0,1.7-.5,2.7-1.5,2.9l-.8.2c-.4.1-.5.3-.5.5s.2.5.7.5a5.39,5.39,0,0,0,1.1-.1,30.22,30.22,0,0,1,5.2-.3,58.87,58.87,0,0,1,6.6.4,10.37,10.37,0,0,0,1.6.1,6,6,0,0,0,4.7-2.3,5.65,5.65,0,0,0,1.5-3.2C473.5,247.78,473.3,247.67,473.1,247.67Z"/><path class="a" d="M500.6,228.17a8.67,8.67,0,0,1-.1-1.8,4,4,0,0,0-.2-1.5c-.2-.2-.6-.2-1.4-.2H476.3q-.75,0-.9.3a3.09,3.09,0,0,0-.2,1.3,12.89,12.89,0,0,1-.3,2.5,8,8,0,0,0-.3,1.6c0,.4.1.5.4.6s.4-.3.6-.8a5.24,5.24,0,0,1,1.2-2.6,3.4,3.4,0,0,1,2.5-.7h5.6a.92.92,0,0,1,1.2,1.2v21.3a3.47,3.47,0,0,1-.6,2.4,3,3,0,0,1-2.2.9c-.5.1-.7.2-.7.4s.2.5.6.5a11.31,11.31,0,0,0,1.4-.1c.4,0,.9-.1,1.5-.1h3.1a8.2,8.2,0,0,1,1.9.1,5.13,5.13,0,0,0,1,.1c.4,0,.6-.2.6-.5s-.2-.4-.7-.5c-1.8-.3-2.7-1.3-2.7-2.9v-21.4a2.23,2.23,0,0,1,.2-1.2c.2-.2.5-.3,1.2-.3h5.9a4.27,4.27,0,0,1,2.4.5,3,3,0,0,1,.9,1.9c.1.4.2.7.5.6s.5-.2.4-.7C500.8,229.08,500.7,228.67,500.6,228.17Z"/><path class="a" d="M249.6,220a4,4,0,0,0-1.3-3.1,4.38,4.38,0,0,0-6.5.3,4.36,4.36,0,0,0-1.1,2.9,4.56,4.56,0,0,0,1.1,2.9,4.42,4.42,0,0,0,3.4,1.6,4,4,0,0,0,3.1-1.3A5.51,5.51,0,0,0,249.6,220Zm-4.5,3.9a4.1,4.1,0,1,1,2.8-1.2A3.78,3.78,0,0,1,245.1,223.87Z"/><path class="a" d="M247.7,222.28h-.1c-.2,0-.5-.2-.8-.7l-.1-.2-1-1.4a1.38,1.38,0,0,0,.9-1.3c0-.9-.6-1.3-1.8-1.3h-1.7c-.1,0-.2,0-.2.1s.1.1.2.1h.2c.2,0,.4.2.4.6v3c0,.4,0,.7-.1.8a1.38,1.38,0,0,1-.4.3.1.1,0,0,0-.1.1c0,.1.1.1.2.1h1.8c.1,0,.2,0,.2-.1s-.1-.1-.2-.1a.59.59,0,0,1-.5-.2c-.1-.1-.1-.3-.1-.6v-1.4h.6c.1,0,.2,0,.2.1l.1.1.9,1.4c.4.5.7.8,1.2.8s.6-.1.6-.2Zm-2.8-2.5h-.6V218a.27.27,0,0,1,.3-.3,1.2,1.2,0,0,1,1.3,1.1C245.9,219.48,245.6,219.78,244.9,219.78Z"/><path class="a" d="M332.4,137.58h.2c.2,0,.4.2.4.6v3c0,.4,0,.7-.1.8a1.38,1.38,0,0,1-.4.3.1.1,0,0,0-.1.1c0,.1.1.1.2.1h1.8c.1,0,.2,0,.2-.1s-.1-.1-.2-.1a.59.59,0,0,1-.5-.2c-.1-.1-.1-.3-.1-.6v-1.4h.6c.1,0,.2,0,.2.1l.1.1.9,1.4c.4.5.7.8,1.2.8s.6-.1.6-.2,0-.1-.1-.1h-.1c-.2,0-.5-.2-.8-.7l-.1-.2-1-1.4a1.38,1.38,0,0,0,.9-1.3c0-.9-.6-1.3-1.8-1.3h-1.7c-.1,0-.2,0-.2.1C332.2,137.48,332.2,137.58,332.4,137.58Zm1.5.1a1.2,1.2,0,0,1,1.3,1.1c0,.6-.3.9-1,.9h-.6v-1.8C333.6,137.78,333.7,137.67,333.9,137.67Z"/><path class="a" d="M334.4,144.37a4,4,0,0,0,3.1-1.3,4.16,4.16,0,0,0,1.3-3.1,4,4,0,0,0-1.3-3.1,4.38,4.38,0,0,0-6.5.3,4.36,4.36,0,0,0-1.1,2.9,4.27,4.27,0,0,0,4.5,4.3Zm-2.8-7.2a3.87,3.87,0,1,1-1.2,2.8A4,4,0,0,1,331.6,137.17Z"/></svg>