<svg xmlns="http://www.w3.org/2000/svg" viewBox="0 0 611 152.97"><defs><style>.a{fill:#fff;}</style></defs><title>Asset 1</title><path class="a" d="M198.1,101.07a13.39,13.39,0,0,0,.5,2,1.2,1.2,0,0,0,.7.7,15.83,15.83,0,0,0,3.9,1.5,22.42,22.42,0,0,0,4.8.6,14.36,14.36,0,0,0,9.9-3.4,11,11,0,0,0,3.9-8.7c0-5.2-3.5-9-10.5-11.3a58.5,58.5,0,0,1-6.8-2.5,7.37,7.37,0,0,1-2.5-2.2,6.48,6.48,0,0,1-1.3-4.1,5.68,5.68,0,0,1,2.1-4.5,7.57,7.57,0,0,1,5.1-1.8,13,13,0,0,1,7,2,9.45,9.45,0,0,1,4.2,5.1c.3.9.6,1.4.9,1.4s.6-.3.6-.9a7.5,7.5,0,0,0-.1-1.2l-.5-2.9c-.2-1.6-.4-2.5-.4-2.9,0-.9-.2-1.4-.7-1.4-.2,0-.3,0-.3.1l-.4.3a1.08,1.08,0,0,1-.7.3.9.9,0,0,1-.5-.1l-2-.8a12.93,12.93,0,0,0-5.1-.9,13.32,13.32,0,0,0-8.8,2.9,10,10,0,0,0-.8,14.2c1.7,1.7,4.7,3.3,8.9,4.7s6.5,2.4,7.4,3.2a6.58,6.58,0,0,1,2.5,5.3,7.05,7.05,0,0,1-2.7,5.6,10,10,0,0,1-6.6,2.3,11.49,11.49,0,0,1-7.1-2.4,11.23,11.23,0,0,1-4.3-5.9c-.3-.9-.6-1.4-.9-1.4s-.6.3-.6.8a14.28,14.28,0,0,0,.7,3.6A10.61,10.61,0,0,0,198.1,101.07Z"/><path class="a" d="M233.5,105.27c.4,0,1.1-.1,2.1-.1h1.7l1.7.1c.7,0,1.2.1,1.6.1a6.61,6.61,0,0,0,1.1.1c.5,0,.8-.2.8-.5s-.2-.4-.7-.4c-1.3-.1-2.1-.4-2.3-.8a6.25,6.25,0,0,1-.4-3v-9a4,4,0,0,1,.8-2.1l.5-.7,5.2-7.8,1.4-2.1a6.11,6.11,0,0,1,3-2.3,4.33,4.33,0,0,0,.5.1,2.59,2.59,0,0,1,1.7.9,11.68,11.68,0,0,1,1.4,2.4l10.9,25.2c.3.7.6,1.1.9,1.1s.6-.4.9-1l10.7-25,.6-1.4a4.1,4.1,0,0,1,2.3-2.5.51.51,0,0,0,.4-.5.37.37,0,0,0-.4-.4h-4.4a18.79,18.79,0,0,1-1.9-.1H273c-.5,0-.7.1-.7.4s.4.4,1.2.6a2.3,2.3,0,0,1,1.3.5,1.33,1.33,0,0,1,.3,1q0,2.1-3,9.3l-4.7,11.2-.3.8c-.4.8-.6,1.2-.8,1.2s-.4-.2-.6-.7L257.5,81a9.08,9.08,0,0,1-.9-3,1.55,1.55,0,0,1,.2-.8,6.14,6.14,0,0,1,1.1-.5.51.51,0,0,0,.4-.5c0-.3-.2-.4-.6-.4h-.6a8.17,8.17,0,0,1-1.4.1h-5.2c-.1,0-.2-.1-.3,0h-.6a.75.75,0,0,0-.5.1H249c-.4,0-1.3.1-2.8.1a19.58,19.58,0,0,1-3-.1,5.39,5.39,0,0,0-1.1-.1c-.3,0-.5.1-.5.4s.2.4.5.5q2.7.6,2.7,2.1a8.73,8.73,0,0,1-1.5,3.2l-1,1.7-3.1,4.7-.2.3a.55.55,0,0,1-.5.3.54.54,0,0,1-.4-.3l-.3-.4-4.5-7.1-.6-1a5.22,5.22,0,0,1-.9-2.1c0-.7.5-1.2,1.4-1.5.3-.1.5-.2.5-.5s-.2-.4-.6-.4a6.61,6.61,0,0,0-1.1.1,35.81,35.81,0,0,1-4,.1,26.41,26.41,0,0,1-2.9-.2c-.4,0-.7-.1-1.1-.1s-.7.2-.7.5.2.4.6.4a4.56,4.56,0,0,1,2.2.6,5.6,5.6,0,0,1,1.8,1.6l.7,1.2,6,9.5a7.28,7.28,0,0,1,.9,1.8,8.76,8.76,0,0,1,.2,2v7.3a6.44,6.44,0,0,1-.5,3c-.3.5-1.1.8-2.3,1-.5.1-.7.2-.7.5a.46.46,0,0,0,.5.4C232.8,105.37,233,105.37,233.5,105.27Z"/><path class="a" d="M281.5,76.57a2.81,2.81,0,0,1,2.6,1.1c.5.7.7,2.1.7,4.1v19.5q0,2.55-1.5,3l-.8.2c-.4.1-.6.3-.6.5s.2.5.7.5a5.39,5.39,0,0,0,1.1-.1,31.62,31.62,0,0,1,5.3-.3,63.47,63.47,0,0,1,6.8.4,11.56,11.56,0,0,0,1.7.1,6.83,6.83,0,0,0,6.4-5.6c0-.4-.1-.6-.4-.6s-.3.1-.5.4c-1.6,2.5-5.2,3.8-10.8,3.8-1.8,0-2.9-.1-3.3-.5a3,3,0,0,1-.7-2.3v-8.6a1,1,0,0,1,.4-.9,3.71,3.71,0,0,1,1.4-.2h4.7a5.39,5.39,0,0,1,2.6.5,2.56,2.56,0,0,1,1,2l.1.6c.1.3.2.5.5.5s.4-.2.4-.5v-.6a22.61,22.61,0,0,1-.1-2.6c0-1.1.1-2.4.2-3.8v-.5c0-.4-.1-.6-.4-.6a.47.47,0,0,0-.5.5,6,6,0,0,1-.6,1.8,2.11,2.11,0,0,1-1.5.6,17.25,17.25,0,0,1-3.6.3h-3.3a2,2,0,0,1-1.1-.2,2.23,2.23,0,0,1-.2-1.2v-8.6c0-.8.1-1.2.4-1.5a3.17,3.17,0,0,1,1.7-.3h3.4a23.89,23.89,0,0,1,4.6.3,2,2,0,0,1,1.6,1.3,2.77,2.77,0,0,1,.3,1.3V81c0,.4.1.7.4.6a.55.55,0,0,0,.5-.3,8.81,8.81,0,0,0,.2-1.5l.1-1.3a10.84,10.84,0,0,1,.2-1.7,4.33,4.33,0,0,1,.1-.5c0-.4-.2-.6-.7-.6a3.45,3.45,0,0,0-.9.1c-.2,0-.7.1-1.5.1l-3,.2c-1.3.1-2.9.1-4.6.1-2.9,0-5.3-.1-7.4-.3a8.17,8.17,0,0,0-1.4-.1c-.6,0-1,.2-1,.6C280.9,76.37,281.1,76.57,281.5,76.57Z"/><path class="a" d="M315.1,104.47a4.64,4.64,0,0,1-2.3-.8,3.12,3.12,0,0,1-.7-2l-.1-1.5V84.77c0-.6.1-1,.4-1a.37.37,0,0,1,.3.1l.2.2,18.1,20.7.5.6a.76.76,0,0,0,.5.2.63.63,0,0,0,.6-.5,17.25,17.25,0,0,0,.1-2.9V80.47a6.05,6.05,0,0,1,.4-2.8,2.69,2.69,0,0,1,1.7-1.1c.3-.1.4-.2.4-.4s-.2-.4-.6-.4a5.39,5.39,0,0,0-1.1.1,12.17,12.17,0,0,1-2.1.1,39,39,0,0,1-4-.2c-.4,0-.7-.1-.9-.1-.4,0-.6.1-.6.4s.2.5.6.5a6.12,6.12,0,0,1,3.1,1.1,4.2,4.2,0,0,1,1.1,2.6l.3,4.9v13.6c0,.3-.1.4-.2.4s-.3-.2-.6-.5l-19.7-22.4a1.54,1.54,0,0,0-1.1-.6h-3.7c-.3,0-.5.1-.5.4s.2.4.6.5a4.43,4.43,0,0,1,3.4,2.4,11.92,11.92,0,0,1,1.2,5.8v14.6a7.38,7.38,0,0,1-.6,3.4,4.64,4.64,0,0,1-2.4,1.7c-.4.1-.6.3-.6.5s.2.4.6.4a2.81,2.81,0,0,0,.8-.1,8.08,8.08,0,0,1,1.6-.1h1l2.2.1c1.1.1,1.7.1,1.9.1h.6c.3,0,.4-.1.4-.4A.79.79,0,0,0,315.1,104.47Z"/><path class="a" d="M339.8,76.67a3.12,3.12,0,0,1,2.4,1.2,5.42,5.42,0,0,1,.7,3.2v19.3a7.9,7.9,0,0,1-.4,3.2,2.69,2.69,0,0,1-1.9,1.1c-.4.1-.6.2-.6.5s.2.5.8.5c.3,0,.7-.1,1.2-.1a24.24,24.24,0,0,1,4-.2c1.4,0,3.1.1,5,.2a17.23,17.23,0,0,0,2,.1,15.42,15.42,0,0,0,8.6-2.5,13.89,13.89,0,0,0,4.9-5.3,15.57,15.57,0,0,0,1.8-7.4,13.86,13.86,0,0,0-4-10.3c-2.9-2.9-7.3-4.4-13.2-4.4a24.4,24.4,0,0,0-2.8.1l-2,.2a31.27,31.27,0,0,1-3.4.1h-1.5l-1.7-.1c-.4,0-.6.1-.6.4A3.13,3.13,0,0,0,339.8,76.67Zm6.4,2.6a2.16,2.16,0,0,1,.6-1.8c.6-.5,2-.7,4.3-.7a13.4,13.4,0,0,1,8.1,2.4,14.18,14.18,0,0,1,4.3,5.3,18.19,18.19,0,0,1,1.6,7.4c0,4.9-1.7,8.4-5,10.5a12.59,12.59,0,0,1-6.6,1.8,18.86,18.86,0,0,1-3-.3c-1.2-.2-2.1-.5-2.9-.7a1.72,1.72,0,0,1-1.3-1.8V79.27Z"/><path class="a" d="M372.2,76.57a2.81,2.81,0,0,1,2.6,1.1c.5.7.7,2.1.7,4.1v19.5q0,2.55-1.5,3l-.8.2c-.4.1-.6.3-.6.5s.2.5.7.5a5.39,5.39,0,0,0,1.1-.1,31.62,31.62,0,0,1,5.3-.3,63.47,63.47,0,0,1,6.8.4,11.56,11.56,0,0,0,1.7.1,6.83,6.83,0,0,0,6.4-5.6c0-.4-.1-.6-.4-.6s-.3.1-.5.4c-1.6,2.5-5.2,3.8-10.8,3.8-1.8,0-2.9-.1-3.3-.5a3,3,0,0,1-.7-2.3v-8.6a1,1,0,0,1,.4-.9,3.71,3.71,0,0,1,1.4-.2h4.7a5.39,5.39,0,0,1,2.6.5,2.56,2.56,0,0,1,1,2l.1.6c.1.3.2.5.5.5s.4-.2.4-.5v-.6a22.61,22.61,0,0,1-.1-2.6c0-1.1.1-2.4.2-3.8v-.5c0-.4-.1-.6-.4-.6a.47.47,0,0,0-.5.5,6,6,0,0,1-.6,1.8,2.11,2.11,0,0,1-1.5.6,17.25,17.25,0,0,1-3.6.3h-3.3a2,2,0,0,1-1.1-.2,2.23,2.23,0,0,1-.2-1.2v-8.6c0-.8.1-1.2.4-1.5a3.17,3.17,0,0,1,1.7-.3h3.4a23.89,23.89,0,0,1,4.6.3,2,2,0,0,1,1.6,1.3,2.77,2.77,0,0,1,.3,1.3V81c0,.4.1.7.4.6a.55.55,0,0,0,.5-.3,8.81,8.81,0,0,0,.2-1.5l.1-1.3a10.84,10.84,0,0,1,.2-1.7,4.33,4.33,0,0,1,.1-.5c0-.4-.2-.6-.7-.6a3.45,3.45,0,0,0-.9.1c-.2,0-.7.1-1.5.1l-3,.2c-1.3.1-2.9.1-4.6.1-2.9,0-5.3-.1-7.4-.3a8.17,8.17,0,0,0-1.4-.1c-.6,0-1,.2-1,.6C371.6,76.37,371.8,76.57,372.2,76.57Z"/><path class="a" d="M418,105.17q2.85,0,6.6.3c1.3.1,2.1.1,2.6.1a21,21,0,0,0,11.4-3.3,17.85,17.85,0,0,0,6.5-7.1,20.64,20.64,0,0,0,2.3-9.9,18.78,18.78,0,0,0-5.3-13.7c-3.9-3.9-9.7-5.9-17.5-5.9-1.4,0-2.6,0-3.7.1l-2.6.3c-1.1.1-2.6.1-4.5.1h-2l-2.2-.1c-.5,0-.7.2-.7.6s.3.5.9.6a4.3,4.3,0,0,1,3.2,1.6,7.62,7.62,0,0,1,1,4.2v25.7a9.67,9.67,0,0,1-.6,4.2,3.23,3.23,0,0,1-2.5,1.4c-.5.1-.8.3-.8.6,0,.5.3.7,1,.6a13.69,13.69,0,0,0,1.6-.2C414.2,105.27,416,105.17,418,105.17Zm.3-34.3c0-1.2.2-1.9.7-2.3.8-.6,2.7-1,5.7-1a17.8,17.8,0,0,1,10.7,3.1,17.3,17.3,0,0,1,5.7,7,23,23,0,0,1,2.1,9.8c0,6.5-2.2,11.2-6.6,13.9a16.27,16.27,0,0,1-8.7,2.4,21.49,21.49,0,0,1-4-.4,20.45,20.45,0,0,1-3.8-1,2.27,2.27,0,0,1-1.7-2.4V70.87Z"/><path class="a" d="M449.5,105.37a8.33,8.33,0,0,0,1.2-.1h3.4l2.1.1h.7c.4,0,.6-.1.6-.4s-.2-.4-.7-.5a4.8,4.8,0,0,1-2-.8,2.07,2.07,0,0,1-.5-1.5,7.94,7.94,0,0,1,1-3.2l1.4-3.2a5.11,5.11,0,0,1,1-1.7,4,4,0,0,1,2-.3h7.8a4,4,0,0,1,1.5.2c.2.1.4.6.7,1.4l1.1,2.8a16.06,16.06,0,0,1,1.3,4.5,1.43,1.43,0,0,1-1.1,1.5l-.7.2c-.4.1-.5.2-.5.4s.2.4.6.4a2.25,2.25,0,0,0,.7-.1,29.55,29.55,0,0,1,3.7-.1c1.9,0,3.2,0,4,.1h.8c.4,0,.6-.1.6-.4s-.2-.4-.6-.5a5,5,0,0,1-2.7-1,11.86,11.86,0,0,1-1.7-3.2l-.5-1.2-9.2-23.6c-.2-.4-.3-.6-.6-.6s-.4.2-.6.6l-11,24.5-.6,1.4a7.61,7.61,0,0,1-1.2,1.9c-.5.6-.9,1-1.2,1l-.8.2c-.2.1-.4.2-.4.5C448.9,105.27,449.1,105.37,449.5,105.37Zm9.5-14.8,4.2-9.3c.1-.3.2-.4.3-.4s.4.2.6.7l.2.4,3.4,8.5.1.4a1.09,1.09,0,0,1,.1.5c0,.4-.4.5-1.1.5h-7.1c-.7,0-1-.2-1-.6A2.6,2.6,0,0,1,459,90.57Z"/><path class="a" d="M493.6,105.77a17.85,17.85,0,0,0,9-2.4l1.4-.8a6.15,6.15,0,0,1,1.8-.8.85.85,0,0,0,.6-.2l.1-.3V93a2.16,2.16,0,0,1,1.6-2.4c.4-.1.6-.3.6-.5s-.2-.4-.5-.4a16,16,0,0,0-1.7.1h-6.3c-.5,0-.7.1-.7.4s.3.5.9.5a5,5,0,0,1,2.3.6,2.16,2.16,0,0,1,.6,1.8v4.8a4.24,4.24,0,0,1-.7,2.9,9.61,9.61,0,0,1-7.8,3.5,10.79,10.79,0,0,1-8.7-4.2,16,16,0,0,1-3.5-10.5,14.12,14.12,0,0,1,3.1-9.5,9.67,9.67,0,0,1,7.9-3.7,14.33,14.33,0,0,1,7.4,2.1,13.08,13.08,0,0,1,5.1,5.6.51.51,0,0,0,.5.4c.3,0,.4-.2.4-.5a1.27,1.27,0,0,0-.1-.6c-.1-.5-.2-1.1-.3-1.6l-.2-2a9.24,9.24,0,0,1-.1-1.5c0-.7-.1-1-.4-1a.37.37,0,0,0-.3.1l-.5.4c-.2.1-.3.2-.4.2s-.2-.1-.4-.2a16.14,16.14,0,0,0-4.5-1.8,21.08,21.08,0,0,0-5.4-.7,14.48,14.48,0,0,0-10.9,4.5,15.7,15.7,0,0,0-4.4,11.3,14.64,14.64,0,0,0,4.1,10.6A13.86,13.86,0,0,0,493.6,105.77Z"/><path class="a" d="M530.5,96.57c0-3.9-2.6-6.8-7.9-8.5a39.61,39.61,0,0,1-5.1-1.9,5.61,5.61,0,0,1-1.9-1.6,4.8,4.8,0,0,1-1-3.1,4.33,4.33,0,0,1,1.5-3.4,5.64,5.64,0,0,1,3.9-1.4,9.88,9.88,0,0,1,5.3,1.5,7.07,7.07,0,0,1,3.1,3.8c.2.7.5,1,.7,1s.5-.2.5-.7a4.4,4.4,0,0,0-.1-.9l-.3-2.2a19.41,19.41,0,0,1-.3-2.2c0-.7-.2-1.1-.5-1.1-.1,0-.2,0-.2.1l-.3.3c-.2.1-.3.2-.5.2a.6.6,0,0,1-.4-.1l-1.5-.6a10.88,10.88,0,0,0-3.9-.7,10,10,0,0,0-6.7,2.2,7.17,7.17,0,0,0-2.6,5.7,6.93,6.93,0,0,0,2,5.1c1.3,1.3,3.6,2.5,6.7,3.6s4.9,1.8,5.6,2.4a5,5,0,0,1,1.9,4,5.31,5.31,0,0,1-2,4.2,7.24,7.24,0,0,1-5,1.7,9.21,9.21,0,0,1-5.4-1.8,7.91,7.91,0,0,1-3.2-4.5c-.2-.7-.4-1-.7-1.1s-.4.2-.4.6a10.27,10.27,0,0,0,.6,2.7c.3,1.2.5,1.8.5,2a12.68,12.68,0,0,0,.4,1.5,1.2,1.2,0,0,0,.5.5,9.24,9.24,0,0,0,2.9,1.1,16.34,16.34,0,0,0,3.6.5,11.15,11.15,0,0,0,7.5-2.5A8.28,8.28,0,0,0,530.5,96.57Z"/><path class="a" d="M231.2,150.57a8,8,0,0,1-3.6-1.3,14.43,14.43,0,0,1-2.2-4.3l-.6-1.5-12.3-31.3c-.2-.5-.5-.8-.8-.8s-.6.3-.8.9l-14.6,32.5-.8,1.9a9.63,9.63,0,0,1-1.6,2.5,4.34,4.34,0,0,1-1.5,1.4l-1.1.3a.63.63,0,0,0-.5.6c0,.4.3.5.8.5.1,0,.6-.1,1.6-.2h1.3a29.13,29.13,0,0,1,3.1.1l2.7.2h1c.5,0,.8-.2.8-.5s-.3-.6-.9-.7a6,6,0,0,1-2.6-1,2.56,2.56,0,0,1-.7-1.9,11.39,11.39,0,0,1,1.3-4.3l1.9-4.2a6.5,6.5,0,0,1,1.4-2.3,6.44,6.44,0,0,1,2.6-.3h10.3a5.57,5.57,0,0,1,1.9.2,6.91,6.91,0,0,1,.9,1.8l1.4,3.8a19.85,19.85,0,0,1,1.7,6,1.71,1.71,0,0,1-1.4,1.9l-.9.2c-.5.1-.7.3-.7.6s.2.6.7.6a3.45,3.45,0,0,0,.9-.1,41.44,41.44,0,0,1,4.9-.2c2.5,0,4.3,0,5.3.1.5,0,.9.1,1.1.1.5,0,.8-.2.8-.5S231.8,150.67,231.2,150.57Zm-16.7-16.5h-9.4c-.9,0-1.3-.2-1.3-.7a2.88,2.88,0,0,1,.4-1.1l5.5-12.3c.2-.4.3-.6.5-.5s.5.3.7.9l.2.6,4.5,11.3.1.5a2,2,0,0,1,.1.7C215.9,133.77,215.5,134.07,214.5,134.07Z"/><path class="a" d="M244.5,121.87a24.4,24.4,0,0,0-2.8.1l-2,.2a31.27,31.27,0,0,1-3.4.1h-1.5l-1.7-.1c-.4,0-.6.1-.6.4s.2.4.7.4a3.12,3.12,0,0,1,2.4,1.2,5.42,5.42,0,0,1,.7,3.2v19.4a7.9,7.9,0,0,1-.4,3.2,2.69,2.69,0,0,1-1.9,1.1c-.4.1-.6.2-.6.5s.2.5.7.5c.3,0,.7-.1,1.2-.1a24.24,24.24,0,0,1,4-.2c1.4,0,3.1.1,5,.2a17.23,17.23,0,0,0,2,.1,15.42,15.42,0,0,0,8.6-2.5,13.89,13.89,0,0,0,4.9-5.3,15.57,15.57,0,0,0,1.8-7.4,13.86,13.86,0,0,0-4-10.3C254.7,123.37,250.3,121.87,244.5,121.87Zm9,26.9a12.59,12.59,0,0,1-6.6,1.8,18.86,18.86,0,0,1-3-.3,14.8,14.8,0,0,1-2.9-.8,1.72,1.72,0,0,1-1.3-1.8v-22.1a2.16,2.16,0,0,1,.6-1.8c.6-.5,2-.7,4.3-.7a13.4,13.4,0,0,1,8.1,2.4,14.18,14.18,0,0,1,4.3,5.3,18.19,18.19,0,0,1,1.6,7.4C258.4,143.27,256.8,146.77,253.5,148.77Z"/><path class="a" d="M291.5,122.17h-4.2c-.2,0-.8,0-1.9-.1h-.6c-.5,0-.7.1-.7.4s.4.4,1.2.6a2.3,2.3,0,0,1,1.3.5,1.33,1.33,0,0,1,.3,1q0,2.1-3,9.3l-4.7,11.2-.3.8c-.4.8-.6,1.2-.8,1.2s-.4-.2-.6-.7l-8.2-18.9a9.08,9.08,0,0,1-.9-3,1.55,1.55,0,0,1,.2-.8,2.82,2.82,0,0,1,1.1-.5.51.51,0,0,0,.4-.5c0-.3-.2-.4-.6-.4h-.6a8.17,8.17,0,0,1-1.4.1h-6.2c-.4,0-.6.1-.6.4s.1.3.2.3a4,4,0,0,0,1.3.3,2.59,2.59,0,0,1,1.7.9,11.68,11.68,0,0,1,1.4,2.4l10.9,25.2c.3.7.6,1.1.9,1.1s.6-.3.9-1l10.7-24.9.6-1.4a4.1,4.1,0,0,1,2.3-2.5c.3-.1.5-.3.5-.5C291.9,122.27,291.7,122.17,291.5,122.17Z"/><path class="a" d="M315.1,145.77c-.2,0-.3.1-.5.4-1.6,2.5-5.2,3.8-10.8,3.8a6.78,6.78,0,0,1-3.3-.5,3,3,0,0,1-.7-2.3v-8.6a1,1,0,0,1,.4-.9,3.71,3.71,0,0,1,1.4-.2h4.7a5.39,5.39,0,0,1,2.6.5,2.56,2.56,0,0,1,1,2l.1.6c.1.3.2.5.5.5s.4-.2.4-.5V140a22.61,22.61,0,0,1-.1-2.6c0-1.1.1-2.4.2-3.8v-.5c0-.4-.1-.6-.4-.6a.47.47,0,0,0-.5.5,6,6,0,0,1-.6,1.8,2.11,2.11,0,0,1-1.5.6,17.25,17.25,0,0,1-3.6.3h-3.3a2,2,0,0,1-1.1-.2,2.23,2.23,0,0,1-.2-1.2v-8.6c0-.8.1-1.2.4-1.5a3.17,3.17,0,0,1,1.7-.3h3.4a23.89,23.89,0,0,1,4.6.3,2,2,0,0,1,1.6,1.3,2.77,2.77,0,0,1,.3,1.3v.6c0,.4.1.7.4.6a.55.55,0,0,0,.5-.3,8.81,8.81,0,0,0,.2-1.5l.1-1.3a10.84,10.84,0,0,1,.2-1.7,4.33,4.33,0,0,1,.1-.5c0-.4-.2-.6-.7-.6a3.45,3.45,0,0,0-.9.1c-.2,0-.7.1-1.5.1l-3,.1c-1.3.1-2.9.1-4.6.1-2.9,0-5.3-.1-7.4-.3a8.17,8.17,0,0,0-1.4-.1c-.6,0-1,.2-1,.6s.2.4.6.4a2.81,2.81,0,0,1,2.6,1.1c.5.7.7,2.1.7,4.1v19.5q0,2.55-1.5,3l-.8.2c-.4.1-.6.3-.6.5s.2.5.7.5a5.39,5.39,0,0,0,1.1-.1,31.62,31.62,0,0,1,5.3-.3,63.47,63.47,0,0,1,6.8.4,11.56,11.56,0,0,0,1.7.1,6.83,6.83,0,0,0,6.4-5.6C315.5,146,315.3,145.77,315.1,145.77Z"/><path class="a" d="M346.5,122.07a5.39,5.39,0,0,0-1.1.1,12.17,12.17,0,0,1-2.1.1,22.44,22.44,0,0,1-4-.2c-.4,0-.7-.1-.9-.1-.4,0-.6.1-.6.4s.2.5.6.5a6.12,6.12,0,0,1,3.1,1.1,4.2,4.2,0,0,1,1.1,2.6l.3,4.9V145c0,.3-.1.4-.2.4s-.3-.2-.6-.5l-19.9-22.1a1.54,1.54,0,0,0-1.1-.6h-3.7c-.3,0-.5.1-.5.4s.2.4.6.5a4.43,4.43,0,0,1,3.4,2.4,11.92,11.92,0,0,1,1.2,5.8v14.5a7.38,7.38,0,0,1-.6,3.4,4.64,4.64,0,0,1-2.4,1.7c-.4.1-.6.3-.6.5s.2.4.6.4a2.81,2.81,0,0,0,.8-.1,8.08,8.08,0,0,1,1.6-.1h1l2.2.1c1.1.1,1.7.1,1.9.1h.6c.3,0,.4-.1.4-.4s-.2-.5-.7-.5a4.64,4.64,0,0,1-2.3-.8,3.12,3.12,0,0,1-.7-2l-.1-1.5v-15.4c0-.6.1-1,.4-1a.37.37,0,0,1,.3.1l.2.2,18.1,20.7.5.6a.76.76,0,0,0,.5.2.63.63,0,0,0,.6-.5,18,18,0,0,0,.1-2.9v-21.8a6.05,6.05,0,0,1,.4-2.8,2.69,2.69,0,0,1,1.7-1.1c.3-.1.4-.2.4-.4S346.8,122.07,346.5,122.07Z"/><path class="a" d="M375.7,124.07a4,4,0,0,0-.2-1.5c-.2-.2-.6-.3-1.4-.3H351a1.33,1.33,0,0,0-1,.3,3.09,3.09,0,0,0-.2,1.3,12.89,12.89,0,0,1-.3,2.5,8,8,0,0,0-.3,1.6c0,.4.1.6.4.6s.5-.3.6-.8a4.82,4.82,0,0,1,1.2-2.6,3.56,3.56,0,0,1,2.5-.7h5.7a.92.92,0,0,1,1.2,1.2v21.9a4,4,0,0,1-.6,2.5,3,3,0,0,1-2.2.9c-.5.1-.7.2-.7.4s.2.5.6.5a11.31,11.31,0,0,0,1.4-.1c.4,0,.9-.1,1.5-.1h3.3a7.71,7.71,0,0,1,1.9.1,5.39,5.39,0,0,0,1.1.1c.4,0,.6-.2.6-.5s-.2-.4-.8-.5a3,3,0,0,1-2.8-3v-21.8a3.09,3.09,0,0,1,.2-1.3,1.74,1.74,0,0,1,1.2-.3h6a4.27,4.27,0,0,1,2.4.5,3.38,3.38,0,0,1,.9,2c.1.5.3.7.5.7s.5-.3.4-.7c0-.2-.1-.6-.1-1A9.24,9.24,0,0,0,375.7,124.07Z"/><path class="a" d="M388.1,150.77a4.3,4.3,0,0,1-2-.6,3.66,3.66,0,0,1-1.1-1.5,15,15,0,0,1-.4-4v-16.1c0-3,.5-4.7,1.6-5.1l1.1-.4q.6-.15.6-.6c0-.3-.2-.4-.6-.4h-.5l-1.4.1c-.8,0-1.7.1-2.7.1-1.7,0-3.1-.1-4.2-.2h-.4c-.4,0-.6.2-.6.5s.2.4.7.5a3.73,3.73,0,0,1,2.6,1.2,7.23,7.23,0,0,1,.6,3.6v18.4a9.09,9.09,0,0,1-.5,3.6c-.3.6-1,.9-2.1,1.1-.4.1-.7.2-.7.5s.2.4.6.4a3.75,3.75,0,0,0,1-.1l2.5-.2h3.1a13.53,13.53,0,0,1,2.3.1c.3,0,.6.1.8.1.4,0,.7-.2.7-.5S388.8,150.87,388.1,150.77Z"/><path class="a" d="M402.5,134.57a39.61,39.61,0,0,1-5.1-1.9,5.61,5.61,0,0,1-1.9-1.6,4.8,4.8,0,0,1-1-3.1,4.33,4.33,0,0,1,1.5-3.4,5.64,5.64,0,0,1,3.9-1.4,9.88,9.88,0,0,1,5.3,1.5,7.07,7.07,0,0,1,3.1,3.8c.2.7.5,1,.7,1s.5-.2.5-.7a4.4,4.4,0,0,0-.1-.9l-.3-2.2a19.41,19.41,0,0,1-.3-2.2c0-.7-.2-1.1-.5-1-.1,0-.2,0-.2.1l-.3.3c-.2.1-.3.2-.5.2a.6.6,0,0,1-.4-.1l-1.5-.6a11.31,11.31,0,0,0-3.9-.7,10,10,0,0,0-6.7,2.2,7.17,7.17,0,0,0-2.6,5.7,6.93,6.93,0,0,0,2,5.1c1.3,1.3,3.6,2.5,6.7,3.6s4.9,1.8,5.6,2.4a5,5,0,0,1,1.9,4,5.31,5.31,0,0,1-2,4.2,7.24,7.24,0,0,1-5,1.7,9.21,9.21,0,0,1-5.4-1.8,7.91,7.91,0,0,1-3.2-4.5c-.2-.7-.4-1-.7-1.1s-.4.2-.4.6a10.27,10.27,0,0,0,.6,2.7c.3,1.2.5,1.8.5,2a12.68,12.68,0,0,0,.4,1.5,1.2,1.2,0,0,0,.5.5,9.24,9.24,0,0,0,2.9,1.1,16.34,16.34,0,0,0,3.6.5,11.15,11.15,0,0,0,7.5-2.5,8.49,8.49,0,0,0,2.9-6.6Q410.45,137.12,402.5,134.57Z"/><path class="a" d="M427.8,124.77a1.74,1.74,0,0,1,1.2-.3h6a4.27,4.27,0,0,1,2.4.5,3.38,3.38,0,0,1,.9,2c.1.5.3.7.5.7s.5-.3.5-.7c0-.2-.1-.6-.1-1a8.67,8.67,0,0,1-.1-1.8,4,4,0,0,0-.2-1.5c-.2-.2-.6-.3-1.4-.3H414.4a1.33,1.33,0,0,0-1,.3c-.2.2-.2.6-.2,1.3a12.89,12.89,0,0,1-.3,2.5,8,8,0,0,0-.3,1.6c0,.4.1.6.4.6s.4-.3.6-.8a4.82,4.82,0,0,1,1.2-2.6,3.56,3.56,0,0,1,2.5-.7H423a.92.92,0,0,1,1.2,1.2v21.9a4,4,0,0,1-.6,2.5,3,3,0,0,1-2.2.9c-.5.1-.7.2-.7.4s.2.5.6.5a11.31,11.31,0,0,0,1.4-.1c.4,0,.9-.1,1.5-.1h3.3a7.71,7.71,0,0,1,1.9.1,5.39,5.39,0,0,0,1.1.1c.4,0,.6-.2.6-.5s-.2-.4-.8-.5a3,3,0,0,1-2.8-3v-21.8A5,5,0,0,1,427.8,124.77Z"/><path class="a" d="M445.1,139.57l-.3.1q-.3.15-1.5.6c-1.1.4-1.8.6-2.3.8-1.2.4-2,.7-2.3.8-.9.3-1.5.5-1.6.8s-.2.9-.2,1.9c0,.5.1.8.3.7s.2-.1.4-.2a3.39,3.39,0,0,1,.8-.3c.5-.1,1.5-.5,3.1-1,.7-.2,1.5-.5,2.5-.9q1.05-.3,1.2-.6a4,4,0,0,0,.2-1.5C445.3,140,445.3,139.57,445.1,139.57Z"/><path class="a" d="M483.3,150.67l-1.2-.3a9.66,9.66,0,0,1-5.1-3l-14.8-15.5a1.91,1.91,0,0,1-.7-1.2c0-.2.2-.5.7-.9l9.7-8.8c4.8-4.3,8.1-6.7,9.8-7.2.9-.2,1.4-.5,1.4-.8s-.3-.6-.8-.6a3.87,3.87,0,0,0-.9.1c-.4,0-1.2.1-2.4.1h-2.1l-2.6-.1a22.63,22.63,0,0,1-2.7-.1h-.8q-.9,0-.9.6c0,.4.4.6,1.3.7,1.4.2,2,.8,2,1.7s-.9,2.3-2.8,4l-12.2,10.9-.4.3-.5.3q-.3,0-.3-.6v-11.1a11,11,0,0,1,.5-3.9,4,4,0,0,1,2.3-1.7c.5-.2.7-.4.7-.7s-.2-.5-.7-.5a10.33,10.33,0,0,0-1.4.1h-1.5l-2.1.1h-1.1a42.43,42.43,0,0,1-4.5-.2,3.75,3.75,0,0,0-1-.1c-.5,0-.8.2-.8.6s.2.5.7.6l1.4.3a3.57,3.57,0,0,1,2.5,1.6,10.14,10.14,0,0,1,.7,4.3v24.2a12.54,12.54,0,0,1-.7,5.1,2.89,2.89,0,0,1-2.5,1.7c-.6.1-.8.2-.8.5s.3.7.9.7c.1,0,.7,0,1.7-.1h1.6l2-.1h2.3a28.41,28.41,0,0,1,3.4.1,11.45,11.45,0,0,0,1.5.1c.5,0,.7-.2.7-.5s-.3-.5-.9-.6c-2.1-.3-3.4-.9-4-1.6s-.9-2.1-.9-4.3v-10.4c0-.4.2-.7.5-.7a1.08,1.08,0,0,1,.7.3l.6.6,15.3,15.7.5.5a2.29,2.29,0,0,0,1.7.8,7.18,7.18,0,0,0,1.3-.1c.5,0,1.3-.1,2.5-.1a12.31,12.31,0,0,1,2.4.1c.3,0,.5.1.7.1q.9,0,.9-.6A1.92,1.92,0,0,0,483.3,150.67Z"/><path class="a" d="M495.4,150.77a4.3,4.3,0,0,1-2-.6,3.66,3.66,0,0,1-1.1-1.5,15,15,0,0,1-.4-4v-16.1c0-3,.5-4.7,1.6-5.1l1.1-.4q.6-.15.6-.6c0-.3-.2-.4-.6-.4h-.5l-1.4.1c-.8,0-1.7.1-2.7.1-1.7,0-3.1-.1-4.2-.2h-.4c-.4,0-.6.2-.6.5s.2.4.7.5a3.73,3.73,0,0,1,2.6,1.2,7.23,7.23,0,0,1,.6,3.6v18.4a9.09,9.09,0,0,1-.5,3.6c-.3.6-1,.9-2.1,1.1-.4.1-.7.2-.7.5s.2.4.6.4a3.75,3.75,0,0,0,1-.1l2.5-.2h3.1a13.53,13.53,0,0,1,2.3.1c.3,0,.6.1.8.1.4,0,.7-.2.7-.5S496.1,150.87,495.4,150.77Z"/><path class="a" d="M526.6,150.87h-.7q-2.25-.15-5.1-4.2l-.7-1-5.9-8.7c3.5-1.8,5.3-4.2,5.3-7.5A6.32,6.32,0,0,0,517,124a12.81,12.81,0,0,0-7.4-1.9c-.9,0-1.9,0-3,.1-1.6.1-2.7.2-3.4.2a10.32,10.32,0,0,1-1.9-.1,13.59,13.59,0,0,0-1.5-.1c-.5,0-.7.1-.7.4s.2.4.7.5l1,.2c1.6.3,2.3,1.5,2.3,3.7v17.6a17.15,17.15,0,0,1-.5,4.9,3.15,3.15,0,0,1-2.3,1.6c-.4.1-.5.2-.5.4s.2.4.5.4a6.82,6.82,0,0,0,1.2-.1,12.14,12.14,0,0,1,1.8-.1h3.2a19.41,19.41,0,0,1,2.7.1,7.78,7.78,0,0,0,1.3.1c.5,0,.7-.1.7-.4s-.3-.4-.8-.5a5.53,5.53,0,0,1-2.9-.9,3.15,3.15,0,0,1-.9-1.2,12.94,12.94,0,0,1-.2-2.5v-7.6c0-.4.1-.6.3-.7l.5-.1h2.9a1.85,1.85,0,0,1,1.7.9l.3.5,5.3,8.1a13.87,13.87,0,0,0,3.1,3.5,6.06,6.06,0,0,0,3.5,1.1,6.65,6.65,0,0,0,2.1-.3c.6-.2.9-.4,1-.6C526.9,151,526.8,150.87,526.6,150.87Zm-16.2-14.5H508a1.26,1.26,0,0,1-1.6-1.6v-9.4a2.07,2.07,0,0,1,.5-1.5,2.65,2.65,0,0,1,1.8-.4,8.16,8.16,0,0,1,5.6,2,6.39,6.39,0,0,1,2.2,5.1,5.36,5.36,0,0,1-1.6,4.2A6.37,6.37,0,0,1,510.4,136.37Z"/><path class="a" d="M555,150.87l-.9-.2a7.94,7.94,0,0,1-3.9-2.3L539,136.77a1.35,1.35,0,0,1-.5-.9c0-.2.2-.4.5-.7l7.3-6.6c3.6-3.3,6.1-5.1,7.4-5.4.7-.2,1-.4,1-.6s-.2-.4-.6-.4a2.64,2.64,0,0,0-.7.1c-.3,0-.9.1-1.8.1H548a12.75,12.75,0,0,1-2-.1h-.6c-.4,0-.7.1-.7.4s.3.4,1,.5c1,.2,1.5.6,1.5,1.3s-.7,1.8-2.1,3l-9.2,8.2-.3.3-.3.2c-.1,0-.2-.2-.2-.4v-8.4a6.29,6.29,0,0,1,.4-2.9c.2-.5.8-.9,1.7-1.3.3-.1.5-.3.5-.5s-.2-.4-.5-.4a5.13,5.13,0,0,0-1,.1h-3.5a29.35,29.35,0,0,1-3.4-.1c-.3,0-.6-.1-.8-.1-.4,0-.6.1-.6.4s.2.4.6.4l1,.2a2.66,2.66,0,0,1,1.9,1.2,7.81,7.81,0,0,1,.5,3.2v18.3a10.73,10.73,0,0,1-.5,3.8,2.22,2.22,0,0,1-1.9,1.3c-.4,0-.6.2-.6.4s.2.5.7.5a10.3,10.3,0,0,0,1.3-.1h4.4a15,15,0,0,1,2.5.1c.6,0,1,.1,1.2.1.4,0,.5-.1.5-.4s-.2-.4-.6-.4q-2.4-.45-3-1.2a5.71,5.71,0,0,1-.7-3.3v-7.9c0-.3.1-.5.4-.5s.3.1.5.2l.4.5,11.5,11.9.4.4a1.76,1.76,0,0,0,1.3.6h2.9a6.73,6.73,0,0,1,1.8.1h.5c.4,0,.7-.1.7-.5A.74.74,0,0,0,555,150.87Z"/><path class="a" d="M579,145.77c-.2,0-.3.1-.5.4-1.6,2.5-5.2,3.8-10.8,3.8a6.78,6.78,0,0,1-3.3-.5,3,3,0,0,1-.7-2.3v-8.6a1,1,0,0,1,.4-.9,3.71,3.71,0,0,1,1.4-.2h4.7a5.39,5.39,0,0,1,2.6.5,2.56,2.56,0,0,1,1,2l.1.6c.1.3.2.5.5.5s.4-.2.4-.5V140a22.61,22.61,0,0,1-.1-2.6c0-1.1.1-2.4.2-3.8v-.5c0-.4-.1-.6-.4-.6a.47.47,0,0,0-.5.5,6,6,0,0,1-.6,1.8,2.11,2.11,0,0,1-1.5.6,17.25,17.25,0,0,1-3.6.3H565a2,2,0,0,1-1.1-.2,2.23,2.23,0,0,1-.2-1.2v-8.6c0-.8.1-1.2.4-1.5a3.17,3.17,0,0,1,1.7-.3h3.4a23.89,23.89,0,0,1,4.6.3,2,2,0,0,1,1.6,1.3,2.77,2.77,0,0,1,.3,1.3v.6c0,.4.1.7.4.6a.55.55,0,0,0,.5-.3,8.81,8.81,0,0,0,.2-1.5l.1-1.3a10.84,10.84,0,0,1,.2-1.7,4.33,4.33,0,0,1,.1-.5c0-.4-.2-.6-.7-.6a3.45,3.45,0,0,0-.9.1c-.2,0-.7.1-1.5.1l-3,.1c-1.3.1-2.9.1-4.6.1-2.9,0-5.3-.1-7.4-.3a8.17,8.17,0,0,0-1.4-.1c-.6,0-1,.2-1,.6s.2.4.6.4a2.81,2.81,0,0,1,2.6,1.1,9.08,9.08,0,0,1,.7,4.1v19.5q0,2.55-1.5,3l-.8.2c-.4.1-.6.3-.6.5s.2.5.7.5a5.39,5.39,0,0,0,1.1-.1,31.62,31.62,0,0,1,5.3-.3,63.47,63.47,0,0,1,6.8.4,11.56,11.56,0,0,0,1.7.1,6.83,6.83,0,0,0,6.4-5.6C579.4,146,579.2,145.77,579,145.77Z"/><path class="a" d="M610.4,122.07a5.39,5.39,0,0,0-1.1.1,12.17,12.17,0,0,1-2.1.1,22.44,22.44,0,0,1-4-.2c-.4,0-.7-.1-.9-.1-.4,0-.6.1-.6.4s.2.5.6.5a6.12,6.12,0,0,1,3.1,1.1,4.2,4.2,0,0,1,1.1,2.6l.3,4.9V145c0,.3-.1.4-.2.4s-.3-.2-.6-.5l-19.9-22.1a1.54,1.54,0,0,0-1.1-.6h-3.7c-.3,0-.5.1-.5.4s.2.4.6.5a4.43,4.43,0,0,1,3.4,2.4,11.92,11.92,0,0,1,1.2,5.8v14.5a7.38,7.38,0,0,1-.6,3.4,4.64,4.64,0,0,1-2.4,1.7c-.4.1-.6.3-.6.5s.2.4.6.4a2.81,2.81,0,0,0,.8-.1,8.08,8.08,0,0,1,1.6-.1h1l2.2.1c1.1.1,1.7.1,1.9.1h.6c.3,0,.5-.1.5-.4s-.2-.5-.7-.5a4.64,4.64,0,0,1-2.3-.8,3.12,3.12,0,0,1-.7-2l-.1-1.5v-15.4c0-.6.1-1,.4-1a.37.37,0,0,1,.3.1l.2.2,18.1,20.7.5.6a.76.76,0,0,0,.5.2.63.63,0,0,0,.6-.5,18,18,0,0,0,.1-2.9v-21.8a6.05,6.05,0,0,1,.4-2.8,2.69,2.69,0,0,1,1.7-1.1c.3-.1.4-.2.4-.4A.55.55,0,0,0,610.4,122.07Z"/><path class="a" d="M55,117.87l-34.9,6.2L0,152l48.2-8.5c14.4-2.5,27.1-3,31.1,8.5v-18.8H69.8v-6.7h9.5v-.7C79.3,119.07,76.3,114.17,55,117.87Z"/><path class="a" d="M110,117.87l-7.7,7.7c-11,11-16.3,17.2-16.3,26.3,4.2-12,17.5-11,33.2-8l46.3,8-20.1-27.8Z"/><path class="a" d="M103.1,107.77c-4.3,4.3-11.7,11.1-15.2,18.6h7.8l8.9-8.9c8.2-8.2,14.5-14.5,17.2-22.4a28.29,28.29,0,0,0,1.5-14.3c-.2-1.6-.9-3.8-.9-3.3-.8,8.9-3.3,14.3-16.2,27.3Z"/><path class="a" d="M78.8,52.87c4.8-4.8,16.8-15.5,16.8-24.9V17.67c0-.1-.2-.1-.2,0-.8,7-2.5,10-19.5,27L59.1,61.47c-8.9,8.9-16.1,18.4-15.2,28.9.5,5.9,2.5,9.2,3.8,10.1.7.5.5.1.3-.3-5.1-11.6,7.1-23.6,13.2-29.7Z"/><path class="a" d="M95.6,35.37c0-.1-.2-.1-.2,0-.8,7-2.5,10-19.5,27L60.3,78c-5.7,5.7-10.9,11.6-10.6,21.2.1,5.9,3.1,10.8,7.5,11.9,1.8.4,1.7.2,1.3,0-6.3-3-5.8-14.3,4.3-24.5l16-16c4.8-4.8,16.8-15.5,16.8-24.9V35.37Z"/><path class="a" d="M43,82.17c.8-8.9,3.3-14.3,16.2-27.3l19.6-19.6c4.8-4.8,16.8-15.5,16.8-24.9V.08c0-.1-.2-.1-.2,0-.8,7-2.5,10-19.5,27L60.8,42.17c-8.2,8.2-14.5,14.5-17.2,22.4a28.29,28.29,0,0,0-1.5,14.3C42.3,80.47,43,82.67,43,82.17Z"/><path class="a" d="M85.9,143.27c0,.1.2.1.2,0A21.69,21.69,0,0,1,90.2,133H85.9v10.3Z"/><path class="a" d="M106.2,87.07l-5,4.9c-7.6,7.6-15.3,16.1-15.3,23.9v10.5c0,.1.2.1.2,0,.8-7.6,4.5-12.6,15.5-23.6l4.6-4.6c8.9-8.9,16.1-18.4,15.2-28.9-.5-5.9-2.5-9.2-3.8-10.1-.7-.5-.5-.1-.3.3C122.4,71,110.2,83.07,106.2,87.07Z"/><path class="a" d="M85.9,108.27c0,.1.2.1.2,0,.9-7.3,5-12.8,14.5-22.3l4.5-4.5c5.7-5.7,10.8-11.6,10.5-21.2-.1-5.9-3.1-10.7-7.5-11.9-1.8-.4-1.7-.2-1.3,0,6.3,3,5.8,14.3-4.3,24.5l-5.6,5.6c-3.6,3.6-11,11.7-11,19.2v10.6Z"/><path class="a" d="M168.3,140.37h-.1c-.3,0-.6-.3-.9-.8l-.1-.2-1.1-1.6a1.61,1.61,0,0,0,1-1.4c0-1-.6-1.4-1.9-1.4h-1.9c-.1,0-.2,0-.2.1s.1.1.2.2h.2c.3,0,.4.3.4.6v3.3a2.22,2.22,0,0,1-.1.9,1.38,1.38,0,0,1-.4.3.35.35,0,0,0-.2.1c0,.1.1.1.2.1h1.8c.1,0,.2,0,.2-.1s-.1-.1-.2-.1a.85.85,0,0,1-.6-.2c-.1-.1-.1-.3-.1-.6v-1.5h.6a.37.37,0,0,1,.3.1l.1.1,1,1.5c.4.6.8.9,1.3.9s.6-.1.6-.2A.1.1,0,0,0,168.3,140.37Zm-3.1-2.7h-.7v-1.9c0-.2.1-.3.4-.3a1.28,1.28,0,0,1,1,.4,1,1,0,0,1,.4.9C166.3,137.37,165.9,137.67,165.2,137.67Z"/><path class="a" d="M165.4,133.07a4.8,4.8,0,0,0-3.7,1.7,4.65,4.65,0,0,0-1.2,3.1,4.47,4.47,0,0,0,1.2,3.1,4.82,4.82,0,1,0,7.1-6.5A4.25,4.25,0,0,0,165.4,133.07Zm3.1,7.9a4.34,4.34,0,0,1-3,1.3,3.8,3.8,0,0,1-3-1.3,4.34,4.34,0,0,1-1.3-3,3.8,3.8,0,0,1,1.3-3,4.34,4.34,0,0,1,3-1.3,3.8,3.8,0,0,1,3,1.3,4.39,4.39,0,0,1,1.3,3.1A5.07,5.07,0,0,1,168.5,141Z"/><path class="a" d="M440.5,121.77a4.47,4.47,0,0,0,1.2,3.1,4.8,4.8,0,1,0,0-6.2A4.3,4.3,0,0,0,440.5,121.77Zm4.8-4.3a3.8,3.8,0,0,1,3,1.3,4.39,4.39,0,0,1,1.3,3.1,3.8,3.8,0,0,1-1.3,3,4.34,4.34,0,0,1-3,1.3,3.8,3.8,0,0,1-3-1.3,4.34,4.34,0,0,1-1.3-3,3.8,3.8,0,0,1,1.3-3A3.73,3.73,0,0,1,445.3,117.47Z"/><path class="a" d="M443.1,119.17h.2c.3,0,.4.3.4.6v3.3a2.22,2.22,0,0,1-.1.9,1.38,1.38,0,0,1-.4.3.35.35,0,0,0-.2.1c0,.1.1.1.2.1H445c.1,0,.2,0,.2-.1s-.1-.1-.2-.1a.85.85,0,0,1-.6-.2c-.1-.1-.1-.3-.1-.6V122h.6a.37.37,0,0,1,.3.1l.1.1,1,1.5c.4.6.8.9,1.3.9s.6-.1.6-.2,0-.1-.1-.1H448c-.3,0-.6-.3-.9-.8l-.1-.2-1.1-1.6a1.61,1.61,0,0,0,1-1.4c0-1-.6-1.4-1.9-1.4h-1.9c-.1,0-.2,0-.2.1A.22.22,0,0,0,443.1,119.17Zm1.7.1a1.28,1.28,0,0,1,1,.4,1,1,0,0,1,.4.9c0,.7-.4,1-1.1,1h-.7v-1.9A.37.37,0,0,1,444.8,119.27Z"/></svg>