<svg xmlns="http://www.w3.org/2000/svg" viewBox="0 0 493.2 112.38"><defs><style>.a{fill:#fff;}</style></defs><title>Asset 1</title><path class="a" d="M40.2,86.27l-25.5,4.5L0,111.18l35.3-6.3c10.6-1.8,19.8-2.2,22.8,6.2V97.28H51.2v-4.9h6.9v-.5C58,87.18,55.7,83.58,40.2,86.27Z"/><path class="a" d="M80.4,86.27,74.7,92c-8,8-11.9,12.6-11.9,19.2,3.1-8.8,12.8-8,24.3-5.8l33.9,5.8-14.7-20.4Z"/><path class="a" d="M75.4,78.88C72.3,82,66.8,87,64.3,92.48H70L76.5,86c6-6,10.6-10.6,12.6-16.4a21.09,21.09,0,0,0,1.1-10.5c-.1-1.1-.6-2.8-.7-2.4-.6,6.5-2.4,10.5-11.9,19.9Z"/><path class="a" d="M57.6,38.77c3.5-3.5,12.3-11.4,12.3-18.2V13c0-.1-.2-.1-.2,0-.6,5.1-1.8,7.3-14.3,19.8L43.1,45.07c-6.5,6.5-11.8,13.4-11.1,21.2.4,4.3,1.8,6.7,2.8,7.4.5.3.4.1.2-.2-3.7-8.5,5.2-17.3,9.6-21.7Z"/><path class="a" d="M69.9,25.88c0-.1-.2-.1-.2,0-.6,5.1-1.8,7.3-14.3,19.8L44,57.08c-4.1,4.1-7.9,8.5-7.8,15.5.1,4.3,2.3,7.9,5.5,8.7,1.3.3,1.3.1.9,0-4.6-2.2-4.3-10.5,3.2-17.9l11.7-11.7c3.5-3.5,12.3-11.4,12.3-18.2v-7.6Z"/><path class="a" d="M31.4,60.18c.6-6.5,2.4-10.5,11.9-19.9l14.3-14.4c3.5-3.5,12.3-11.4,12.3-18.2V.07c0-.1-.2-.1-.2,0-.6,5.1-1.8,7.3-14.3,19.8l-11,11c-6,6-10.6,10.6-12.6,16.4a21.09,21.09,0,0,0-1.1,10.5A8.63,8.63,0,0,0,31.4,60.18Z"/><path class="a" d="M62.8,104.88c0,.1.2.1.2,0a15.84,15.84,0,0,1,3-7.5H62.9v7.5Z"/><path class="a" d="M77.7,63.68l-3.6,3.6c-5.6,5.5-11.2,11.8-11.2,17.5v7.7c0,.1.2.1.2,0,.6-5.6,3.3-9.2,11.4-17.3l3.3-3.4c6.5-6.5,11.8-13.4,11.1-21.2-.4-4.3-1.8-6.7-2.8-7.4-.5-.3-.4-.1-.2.2C89.5,52,80.6,60.77,77.7,63.68Z"/><path class="a" d="M62.8,79.18c0,.1.2.1.2,0,.6-5.3,3.7-9.4,10.6-16.3l3.3-3.3c4.1-4.1,7.9-8.5,7.7-15.5-.1-4.3-2.3-7.9-5.5-8.7-1.3-.3-1.3-.1-.9,0,4.6,2.2,4.3,10.5-3.2,17.9l-4.1,4.1c-2.6,2.6-8.1,8.6-8.1,14Z"/><path class="a" d="M153.7,77.27a18.85,18.85,0,0,0,10.4-3,2.39,2.39,0,0,0,1-1.1l.1-.4.5-2.5.1-.5v-.2c0-.3-.1-.4-.3-.4s-.5.4-.8,1.1a9.33,9.33,0,0,1-4.1,4,12.28,12.28,0,0,1-6,1.6,10.66,10.66,0,0,1-8.6-4.1,16,16,0,0,1-3.3-10.4,12.52,12.52,0,0,1,3-8.8,10.77,10.77,0,0,1,8.2-3.2c4.4,0,7.8,2.2,10.4,6.7.3.6.6.9.7.9s.2-.1.3-.2l.1-.2-.1-.5-.7-4.9c-.1-.5-.2-.8-.4-.8a1.55,1.55,0,0,0-.6.3c-.1.1-.2.2-.3.2l-.3-.1-.3-.1-1.1-.5a16.47,16.47,0,0,0-7.9-1.9A14.36,14.36,0,0,0,139,63.07c0,4.3,1.3,7.7,4,10.3S149.3,77.27,153.7,77.27Z"/><path class="a" d="M173.9,76.77a6.22,6.22,0,0,1,1.6.1c.2,0,.4.1.6.1s.5-.1.5-.4-.3-.3-.8-.4a2.57,2.57,0,0,1-1.4-.5,2.42,2.42,0,0,1-.8-1.1,8.54,8.54,0,0,1-.3-2.8V60.37c0-2.1.4-3.4,1.1-3.6l.8-.3c.3-.1.4-.2.4-.4s-.1-.3-.4-.3h-.4l-1,.1c-.5,0-1.2.1-1.9.1a23.59,23.59,0,0,1-2.9-.1h-.3c-.3,0-.5.1-.4.3s.2.3.5.4c.9.2,1.6.4,1.8.9A4.9,4.9,0,0,1,171,60V73a6.51,6.51,0,0,1-.3,2.5,1.82,1.82,0,0,1-1.5.8c-.3,0-.5.2-.5.3s.1.3.4.3h.7l1.8-.1Z"/><path class="a" d="M193.5,76.27a4.15,4.15,0,0,0,2.5.8,6.05,6.05,0,0,0,1.5-.2c.4-.1.7-.3.7-.4s-.1-.2-.3-.2h-.5q-1.65-.15-3.6-3l-.5-.7-4.2-6.2c2.5-1.2,3.8-3,3.8-5.3a4.58,4.58,0,0,0-1.8-3.9c-1.2-.9-2.9-1.3-5.3-1.3a16.24,16.24,0,0,0-2.1.1c-1.1.1-1.9.1-2.4.1h-1.4a8,8,0,0,1-1.1-.1c-.3,0-.5.1-.5.3s.2.3.5.4l.7.1c1.1.2,1.7,1.1,1.7,2.6v12.5a8.44,8.44,0,0,1-.4,3.4,1.93,1.93,0,0,1-1.6,1.1c-.3,0-.4.1-.4.3s.1.3.4.3a2.81,2.81,0,0,0,.8-.1,5.74,5.74,0,0,1,1.2-.1h2.3a9.23,9.23,0,0,1,1.9.1,5.53,5.53,0,0,1,.9.1c.4,0,.5-.1.5-.3s-.2-.3-.6-.3a3.37,3.37,0,0,1-2-.7,1.8,1.8,0,0,1-.6-.9,7.67,7.67,0,0,1-.1-1.8v-5.4a.59.59,0,0,1,.2-.5l.3-.1h2a1.43,1.43,0,0,1,1.2.6l.2.3,3.8,5.8A8.73,8.73,0,0,0,193.5,76.27ZM186.4,66h-1.8a.86.86,0,0,1-1.1-1.1v-6.7a1.61,1.61,0,0,1,.3-1.1,1.74,1.74,0,0,1,1.2-.3,6.09,6.09,0,0,1,4,1.4,5,5,0,0,1,1.6,3.6,4.08,4.08,0,0,1-1.1,3A4.14,4.14,0,0,1,186.4,66Z"/><path class="a" d="M199.2,56.48l.7.2a1.46,1.46,0,0,1,1.3.9,5.54,5.54,0,0,1,.4,2.3v13a5.83,5.83,0,0,1-.4,2.7,1.6,1.6,0,0,1-1.3.9c-.3,0-.4.1-.4.3a.46.46,0,0,0,.5.4,4.4,4.4,0,0,0,.9-.1h4.9a5.38,5.38,0,0,1,.8.1c.3,0,.4-.1.4-.3s-.2-.3-.5-.3a5.33,5.33,0,0,1-2.2-.8,3.88,3.88,0,0,1-.5-2.3v-5.6a.27.27,0,0,1,.3-.3c.1,0,.2.1.4.2l.3.3,8.2,8.4.3.3a1.22,1.22,0,0,0,.9.4h3.7c.3,0,.5-.1.5-.3s-.1-.2-.3-.3l-.7-.1a5.38,5.38,0,0,1-2.8-1.6l-7.9-8.3c-.3-.3-.4-.5-.4-.6a.91.91,0,0,1,.3-.5l5.2-4.7c2.6-2.3,4.3-3.6,5.2-3.8.5-.1.7-.3.7-.4s-.2-.3-.4-.3a1.34,1.34,0,0,0-.5.1h-5.6c-.3,0-.5.1-.5.3s.2.3.7.4c.7.1,1.1.4,1.1.9s-.5,1.2-1.5,2.1l-6.5,5.8-.2.2-.2.2c-.1,0-.1-.1-.1-.3v-5.9a5.15,5.15,0,0,1,.3-2.1,1.93,1.93,0,0,1,1.2-.9c.2-.1.4-.2.4-.4s-.1-.3-.4-.3a2.64,2.64,0,0,0-.7.1h-2.5a14.9,14.9,0,0,1-2.4-.1,4.33,4.33,0,0,1-.5-.1c-.3,0-.4.1-.4.3C198.8,56.27,198.9,56.38,199.2,56.48Z"/><path class="a" d="M219.6,56.38a2.27,2.27,0,0,1,1.9.8,6.24,6.24,0,0,1,.5,2.9V74c0,1.2-.4,1.9-1.1,2.1l-.6.2c-.3.1-.4.2-.4.4s.2.3.5.3a3.22,3.22,0,0,0,.8-.1,29.23,29.23,0,0,1,3.8-.2,47.13,47.13,0,0,1,4.8.3c.5,0,.9.1,1.2.1a4.12,4.12,0,0,0,3.4-1.6,4.29,4.29,0,0,0,1.1-2.3c0-.3-.1-.4-.3-.4s-.2.1-.3.3c-1.1,1.8-3.7,2.7-7.7,2.7a5,5,0,0,1-2.3-.3,2,2,0,0,1-.5-1.6v-6.1a.6.6,0,0,1,.3-.6,2.15,2.15,0,0,1,1-.2h3.4a3.16,3.16,0,0,1,1.9.4c.4.2.6.7.7,1.4l.1.4c0,.2.2.3.4.3s.3-.1.3-.4v-.4a10.87,10.87,0,0,1-.1-1.8,26.24,26.24,0,0,1,.1-2.7v-.3c0-.3-.1-.4-.3-.4s-.3.1-.4.4a3.93,3.93,0,0,1-.4,1.3,1.93,1.93,0,0,1-1.1.4,15.74,15.74,0,0,1-2.5.2h-2.3c-.4,0-.7,0-.8-.1s-.1-.4-.1-.8v-6.1c0-.5.1-.9.3-1s.6-.2,1.2-.2h2.4a20,20,0,0,1,3.2.2,1.93,1.93,0,0,1,1.2.9,2.92,2.92,0,0,1,.2.9V60c0,.3.1.5.3.5s.3-.1.3-.2a4.17,4.17,0,0,0,.2-1.1l.1-.9a8.33,8.33,0,0,0,.1-1.2v-.3c0-.3-.2-.4-.5-.4a1.76,1.76,0,0,0-.6.1,6.61,6.61,0,0,0-1.1.1l-2.2.1c-1,0-2,.1-3.3.1-2,0-3.8-.1-5.2-.2a4.14,4.14,0,0,0-1-.1c-.5,0-.7.1-.7.4C219.1,56.38,219.3,56.38,219.6,56.38Z"/><path class="a" d="M257.7,56.08a.27.27,0,0,0-.3-.3h-3a10.33,10.33,0,0,1-1.4-.1h-.4c-.3,0-.5.1-.5.3s.3.3.8.4a2.19,2.19,0,0,1,.9.3c.2.1.2.4.2.7,0,1-.7,3.2-2.2,6.6l-3.3,7.9-.2.6c-.3.6-.4.9-.5.9s-.3-.2-.4-.5l-5.8-13.4a6.88,6.88,0,0,1-.6-2.1,1.07,1.07,0,0,1,.2-.6,5.57,5.57,0,0,1,.8-.4q.3-.15.3-.3c0-.2-.1-.3-.4-.3h-.4c-.4,0-.8.1-1,.1h-4.3c-.3,0-.4.1-.4.3s0,.2.1.2.4.1.9.2a2.28,2.28,0,0,1,1.2.6,7.52,7.52,0,0,1,1,1.7l7.7,17.9c.2.5.4.8.6.8s.4-.2.6-.7l7.6-17.7.4-1a3,3,0,0,1,1.7-1.8A.44.44,0,0,0,257.7,56.08Z"/><path class="a" d="M264.6,77a7.47,7.47,0,0,0,1.1-.1h3.2l2,.1h.7q.6,0,.6-.3c0-.2-.2-.4-.6-.5a6.35,6.35,0,0,1-1.9-.7,2,2,0,0,1-.5-1.4,8.84,8.84,0,0,1,.9-3.1l1.3-3c.4-.9.7-1.5,1-1.6s.9-.2,1.9-.2h7.4a3.32,3.32,0,0,1,1.4.2c.2.1.4.6.7,1.3l1,2.7a16.76,16.76,0,0,1,1.2,4.3c0,.8-.3,1.3-1,1.4l-.6.1c-.3.1-.5.2-.5.4s.2.4.5.4a1.76,1.76,0,0,0,.6-.1,28.54,28.54,0,0,1,3.6-.1,35.65,35.65,0,0,1,3.8.1h.8q.6,0,.6-.3c0-.3-.2-.4-.6-.5a4.24,4.24,0,0,1-2.6-1A9.09,9.09,0,0,1,289,72l-.4-1.1-8.8-22.5q-.15-.6-.6-.6t-.6.6l-10.5,23.4-.6,1.4a17.4,17.4,0,0,1-1.1,1.8c-.5.6-.8.9-1.1,1l-.8.2c-.2.1-.3.2-.3.4S264.3,77,264.6,77Zm9.1-14.2,4-8.9c.1-.3.2-.4.3-.4s.4.2.5.7l.2.4,3.2,8.1.1.4a1.09,1.09,0,0,1,.1.5c0,.3-.3.5-1,.5h-6.8c-.6,0-.9-.2-.9-.5A2.71,2.71,0,0,1,273.7,62.77Z"/><path class="a" d="M311.9,58.77c-2.1-2.1-5.2-3.1-9.4-3.1a12.75,12.75,0,0,0-2,.1l-1.4.1a16.28,16.28,0,0,1-2.4.1h-1.1l-1.2-.1c-.3,0-.4.1-.4.3s.2.3.5.3a2.48,2.48,0,0,1,1.7.8,4.35,4.35,0,0,1,.5,2.3v13.7a5.07,5.07,0,0,1-.3,2.2c-.2.4-.6.6-1.3.8-.3.1-.4.2-.4.3a.35.35,0,0,0,.5.3,3.45,3.45,0,0,0,.9-.1,21.58,21.58,0,0,1,2.8-.2c1,0,2.2,0,3.5.1a8.8,8.8,0,0,0,1.4.1,11.94,11.94,0,0,0,6.1-1.7,9.89,9.89,0,0,0,3.5-3.8,11.78,11.78,0,0,0,1.2-5.3A9.41,9.41,0,0,0,311.9,58.77Zm-3,16a8.32,8.32,0,0,1-4.7,1.3,18.31,18.31,0,0,1-2.1-.2c-.8-.2-1.5-.3-2.1-.5a1.29,1.29,0,0,1-.9-1.3V58.37c0-.6.1-1,.4-1.2a6.35,6.35,0,0,1,3.1-.5,9.62,9.62,0,0,1,5.7,1.7,8.8,8.8,0,0,1,3,3.8,12.87,12.87,0,0,1,1.1,5.3C312.4,70.77,311.3,73.27,308.9,74.77Z"/><path class="a" d="M314.1,56.48c.1,0,.4.1.9.2a2.28,2.28,0,0,1,1.2.6,7.52,7.52,0,0,1,1,1.7l7.7,17.9c.2.5.4.8.6.8s.4-.2.6-.7l7.6-17.7.4-1a3,3,0,0,1,1.7-1.8q.3-.15.3-.3a.27.27,0,0,0-.3-.3h-3a10.33,10.33,0,0,1-1.4-.1H331c-.3,0-.5.1-.5.3s.3.3.8.4a2.19,2.19,0,0,1,.9.3c.2.1.2.4.2.7,0,1-.7,3.2-2.2,6.6L326.9,72l-.2.6c-.3.6-.4.9-.5.9s-.3-.2-.4-.5L320,59.58a6.88,6.88,0,0,1-.6-2.1,1.07,1.07,0,0,1,.2-.6,5.57,5.57,0,0,1,.8-.4q.3-.15.3-.3c0-.2-.1-.3-.4-.3h-.4c-.4,0-.8.1-1,.1h-4.3c-.3,0-.4.1-.4.3C314,56.27,314,56.38,314.1,56.48Z"/><path class="a" d="M348.4,77a4.12,4.12,0,0,0,3.4-1.6,4.29,4.29,0,0,0,1.1-2.3c0-.3-.1-.4-.3-.4s-.2.1-.3.3c-1.1,1.8-3.7,2.7-7.7,2.7a5,5,0,0,1-2.3-.3,2,2,0,0,1-.5-1.6v-6.1a.6.6,0,0,1,.3-.6,2.15,2.15,0,0,1,1-.2h3.4a3.16,3.16,0,0,1,1.9.4c.4.2.6.7.7,1.4l.1.4c0,.2.2.3.4.3s.3-.1.3-.4v-.4a10.87,10.87,0,0,1-.1-1.8,26.24,26.24,0,0,1,.1-2.7v-.3c0-.3-.1-.4-.3-.4s-.3.1-.4.4a3.93,3.93,0,0,1-.4,1.3,1.93,1.93,0,0,1-1.1.4,15.74,15.74,0,0,1-2.5.2h-2.3c-.4,0-.7,0-.8-.1s-.1-.4-.1-.8v-6.1c0-.5.1-.9.3-1s.6-.2,1.2-.2h2.4a20,20,0,0,1,3.2.2,1.93,1.93,0,0,1,1.2.9,2.92,2.92,0,0,1,.2.9v.4c0,.3.1.5.3.5s.3-.1.3-.2a4.17,4.17,0,0,0,.2-1.1l.1-.9a8.33,8.33,0,0,0,.1-1.2v-.3c0-.3-.2-.4-.5-.4a1.76,1.76,0,0,0-.6.1,6.61,6.61,0,0,0-1.1.1l-2.2.1c-1,0-2,.1-3.3.1-2,0-3.8-.1-5.2-.2a4.14,4.14,0,0,0-1-.1c-.5,0-.7.1-.7.4s.1.3.4.3a2.27,2.27,0,0,1,1.9.8,6.24,6.24,0,0,1,.5,2.9v13.9c0,1.2-.4,1.9-1.1,2.1l-.6.2c-.3.1-.4.2-.4.4s.2.3.5.3a3.22,3.22,0,0,0,.8-.1,29.23,29.23,0,0,1,3.8-.2,47.13,47.13,0,0,1,4.8.3C347.7,77,348.1,77,348.4,77Z"/><path class="a" d="M354.3,56.38a2.87,2.87,0,0,1,2.4,1.7,8.1,8.1,0,0,1,.8,4.1v10.3a4.94,4.94,0,0,1-.4,2.4,3.25,3.25,0,0,1-1.7,1.2c-.3.1-.4.2-.4.4s.2.3.4.3a1.76,1.76,0,0,0,.6-.1c.4,0,.7-.1,1.1-.1h.7l1.6.1a8.87,8.87,0,0,1,1.3.1h.5a.27.27,0,0,0,.3-.3c0-.2-.2-.3-.5-.4a2.67,2.67,0,0,1-1.6-.6,2.29,2.29,0,0,1-.5-1.4V62.18c0-.5.1-.7.3-.7s.2,0,.2.1l.2.2,12.8,14.7.3.4a.43.43,0,0,0,.7-.3,8.77,8.77,0,0,0,.1-2.1V59.18a4.6,4.6,0,0,1,.3-2,1.84,1.84,0,0,1,1.2-.8q.3-.15.3-.3c0-.2-.2-.3-.4-.3a2,2,0,0,0-.7.1,6.62,6.62,0,0,1-1.5.1,21.85,21.85,0,0,1-2.8-.1h-.6c-.3,0-.4.1-.4.3s.1.3.4.4a4.61,4.61,0,0,1,2.2.8,3,3,0,0,1,.8,1.8l.2,3.5v9.6c0,.2-.1.3-.2.3s-.2-.1-.4-.4l-14-15.8a1,1,0,0,0-.8-.4h-2.6a.27.27,0,0,0-.3.3C353.9,56.27,354,56.38,354.3,56.38Z"/><path class="a" d="M395.6,57.18a2,2,0,0,0-.2-1.1,1.86,1.86,0,0,0-1-.2H378a1.17,1.17,0,0,0-.7.2,1.69,1.69,0,0,0-.2.9,14,14,0,0,1-.2,1.8c-.1.6-.2,1-.2,1.2s.1.4.3.4.3-.2.4-.6a3.74,3.74,0,0,1,.9-1.9,3,3,0,0,1,1.8-.5h4a.75.75,0,0,1,.9.9v15.5a2.82,2.82,0,0,1-.4,1.8,2.67,2.67,0,0,1-1.6.6c-.3,0-.5.1-.5.3s.2.3.5.3a5.81,5.81,0,0,0,1-.1h4.8a2.64,2.64,0,0,0,.7.1c.3,0,.4-.1.4-.3s-.2-.3-.5-.3a2.09,2.09,0,0,1-2-2.1V58.58a1.44,1.44,0,0,1,.2-.9,1.29,1.29,0,0,1,.8-.2h4.3a3.17,3.17,0,0,1,1.7.3,2,2,0,0,1,.6,1.4c.1.3.2.5.4.5s.3-.2.3-.5a2,2,0,0,0-.1-.7Z"/><path class="a" d="M404.4,76.18a2.57,2.57,0,0,1-1.4-.5,2.42,2.42,0,0,1-.8-1.1,8.54,8.54,0,0,1-.3-2.8V60.38c0-2.1.4-3.4,1.1-3.6l.8-.3c.3-.1.4-.2.4-.4s-.1-.3-.4-.3h-.4l-1,.1c-.5,0-1.2.1-1.9.1a23.59,23.59,0,0,1-2.9-.1h-.3c-.3,0-.5.1-.4.3s.2.3.5.4c.9.2,1.6.4,1.8.9a4.9,4.9,0,0,1,.4,2.5V73a6.51,6.51,0,0,1-.3,2.5,1.82,1.82,0,0,1-1.5.8c-.3,0-.5.2-.5.3s.1.3.4.3h.7l1.8-.1h2.2a6.22,6.22,0,0,1,1.6.1c.2,0,.4.1.6.1s.5-.1.5-.4S404.9,76.27,404.4,76.18Z"/><path class="a" d="M414.7,64.68c-1.9-.6-3.1-1.1-3.6-1.3a3.75,3.75,0,0,1-1.4-1.2A3.41,3.41,0,0,1,409,60a3,3,0,0,1,1.1-2.4,4.06,4.06,0,0,1,2.7-1,6.71,6.71,0,0,1,3.7,1.1,4.79,4.79,0,0,1,2.2,2.7c.2.5.3.7.5.7s.3-.2.3-.5a1.76,1.76,0,0,0-.1-.6l-.2-1.6c-.1-.9-.2-1.4-.2-1.5,0-.5-.1-.8-.4-.7-.1,0-.1,0-.2.1l-.2.2a.52.52,0,0,1-.4.2.37.37,0,0,1-.3-.1l-1-.4a7.78,7.78,0,0,0-2.8-.5,6.71,6.71,0,0,0-4.7,1.6,5,5,0,0,0-1.8,4,4.9,4.9,0,0,0,1.4,3.6,11.71,11.71,0,0,0,4.8,2.5,12.36,12.36,0,0,1,3.9,1.7,3.54,3.54,0,0,1,1.3,2.8,3.89,3.89,0,0,1-1.4,3,5.31,5.31,0,0,1-3.5,1.2,6.54,6.54,0,0,1-6.1-4.5c-.1-.5-.3-.7-.5-.7s-.3.1-.3.4a6.33,6.33,0,0,0,.4,1.9c.2.8.4,1.3.4,1.4a3.87,3.87,0,0,0,.3,1.1c.1.1.2.3.4.4a5.38,5.38,0,0,0,2.1.8,12.22,12.22,0,0,0,2.6.3,7.74,7.74,0,0,0,5.3-1.8,5.88,5.88,0,0,0,2.1-4.6C420.3,67.88,418.4,65.88,414.7,64.68Z"/><path class="a" d="M440.6,57.18a2,2,0,0,0-.2-1.1,1.86,1.86,0,0,0-1-.2H423a1.17,1.17,0,0,0-.7.2,1.69,1.69,0,0,0-.2.9,14,14,0,0,1-.2,1.8c-.1.6-.2,1-.2,1.2s.1.4.3.4.3-.2.4-.6a3.74,3.74,0,0,1,.9-1.9,3,3,0,0,1,1.8-.5h4a.75.75,0,0,1,.9.9v15.5a2.82,2.82,0,0,1-.4,1.8,2.67,2.67,0,0,1-1.6.6c-.3,0-.5.1-.5.3s.2.3.5.3a5.81,5.81,0,0,0,1-.1h4.8a2.64,2.64,0,0,0,.7.1c.3,0,.4-.1.4-.3s-.2-.3-.5-.3a2.09,2.09,0,0,1-2-2.1V58.58a1.44,1.44,0,0,1,.2-.9,1.29,1.29,0,0,1,.8-.2h4.3a3.17,3.17,0,0,1,1.7.3,2,2,0,0,1,.6,1.4c.1.3.2.5.4.5s.3-.2.3-.5a2,2,0,0,0-.1-.7Z"/><path class="a" d="M452.6,55.58a12,12,0,0,0-4.5.9,9.32,9.32,0,0,0-3.6,2.3,11.73,11.73,0,0,0-2.2,3.4,12.49,12.49,0,0,0-.8,4.2,10.55,10.55,0,0,0,3,7.8,10.79,10.79,0,0,0,7.9,3,10.62,10.62,0,0,0,7.9-3.1,11.09,11.09,0,0,0,3.1-8,9.87,9.87,0,0,0-3-7.5A10.55,10.55,0,0,0,452.6,55.58Zm6.4,18.1a7.52,7.52,0,0,1-5.8,2.6,8.1,8.1,0,0,1-6.5-3.2,11.57,11.57,0,0,1-2.7-7.8,9.31,9.31,0,0,1,2.1-6.4,7.12,7.12,0,0,1,5.6-2.4,9.17,9.17,0,0,1,6.9,3,10.94,10.94,0,0,1,2.8,7.6A10.21,10.21,0,0,1,459,73.68Z"/><path class="a" d="M484.6,55.88h-3a10.33,10.33,0,0,1-1.4-.1h-.4c-.3,0-.5.1-.5.3s.3.3.8.4a2.19,2.19,0,0,1,.9.3c.2.1.2.4.2.7,0,1-.7,3.2-2.2,6.6L475.7,72l-.2.6c-.3.6-.4.9-.5.9s-.3-.2-.4-.5l-5.8-13.4a6.88,6.88,0,0,1-.6-2.1,1.07,1.07,0,0,1,.2-.6,5.57,5.57,0,0,1,.8-.4q.3-.15.3-.3c0-.2-.1-.3-.4-.3h-.4c-.4,0-.8.1-1,.1h-4.3c-.3,0-.4.1-.4.3s0,.2.1.2.4.1.9.2a2.28,2.28,0,0,1,1.2.6,7.52,7.52,0,0,1,1,1.7l7.7,17.9c.2.5.4.8.6.8s.4-.2.6-.7l7.6-17.7.4-1a3,3,0,0,1,1.7-1.8q.3-.15.3-.3C484.9,55.88,484.8,55.88,484.6,55.88Z"/><path class="a" d="M150.2,95.08c-2.6-.9-4.2-1.5-4.9-1.8a3.9,3.9,0,0,1-1.8-1.6,4.91,4.91,0,0,1-1-3,3.93,3.93,0,0,1,1.5-3.2,5.24,5.24,0,0,1,3.7-1.3,9.66,9.66,0,0,1,5,1.4,7.12,7.12,0,0,1,3,3.7c.2.7.4,1,.7,1s.4-.2.4-.6a3.22,3.22,0,0,0-.1-.8l-.3-2.1a16.21,16.21,0,0,1-.3-2.1c0-.7-.2-1-.5-1-.1,0-.2,0-.2.1l-.3.2c-.2.1-.3.2-.5.2a.76.76,0,0,1-.4-.1l-1.4-.6a9.88,9.88,0,0,0-3.7-.6,9.67,9.67,0,0,0-6.4,2.1,6.94,6.94,0,0,0-2.5,5.4,6.18,6.18,0,0,0,1.9,4.8,17.78,17.78,0,0,0,6.4,3.4c2.9,1,4.7,1.7,5.3,2.3a4.78,4.78,0,0,1,1.8,3.8,5,5,0,0,1-1.9,4,7.21,7.21,0,0,1-4.8,1.7,8.67,8.67,0,0,1-5.1-1.7,7.76,7.76,0,0,1-3.1-4.3c-.2-.7-.4-1-.7-1s-.4.2-.4.6a13.78,13.78,0,0,0,.5,2.6c.3,1.1.5,1.8.5,1.9a9.3,9.3,0,0,0,.4,1.4.82.82,0,0,0,.5.5,8.78,8.78,0,0,0,2.8,1,15,15,0,0,0,3.5.4,10.35,10.35,0,0,0,7.1-2.4,7.8,7.8,0,0,0,2.8-6.3C157.8,99.48,155.3,96.77,150.2,95.08Z"/><path class="a" d="M168.1,110.77a2.57,2.57,0,0,1-1.4-.5,2.42,2.42,0,0,1-.8-1.1,8.54,8.54,0,0,1-.3-2.8V95c0-2.1.4-3.4,1.1-3.6l.8-.3c.3-.1.4-.2.4-.4s-.1-.3-.4-.3h-.4l-1,.1c-.5,0-1.2.1-1.9.1a23.59,23.59,0,0,1-2.9-.1H161c-.3,0-.5.1-.4.3s.2.3.5.4c.9.2,1.6.4,1.8.9a4.9,4.9,0,0,1,.4,2.5v13a6.51,6.51,0,0,1-.3,2.5,1.82,1.82,0,0,1-1.5.8c-.3,0-.5.2-.5.3s.1.3.4.3h.7l1.8-.1h2.2a6.22,6.22,0,0,1,1.6.1c.2,0,.4.1.6.1s.5-.1.5-.4S168.7,110.88,168.1,110.77Z"/><path class="a" d="M186.8,107.27q-.15,0-.3.3c-1.1,1.8-3.7,2.7-7.7,2.7a5,5,0,0,1-2.3-.3,2,2,0,0,1-.5-1.6v-6.1a.6.6,0,0,1,.3-.6,2.15,2.15,0,0,1,1-.2h3.4a3.16,3.16,0,0,1,1.9.4c.4.2.6.7.7,1.4l.1.4c0,.2.2.3.4.3s.3-.1.3-.4v-.4a10.87,10.87,0,0,1-.1-1.8,26.24,26.24,0,0,1,.1-2.7v-.3c0-.3-.1-.4-.3-.4s-.3.1-.4.4a3.93,3.93,0,0,1-.4,1.3,1.93,1.93,0,0,1-1.1.4,15.74,15.74,0,0,1-2.5.2h-2.3c-.4,0-.7,0-.8-.1s-.1-.4-.1-.8v-6.1c0-.5.1-.9.3-1s.6-.2,1.2-.2h2.4a20,20,0,0,1,3.2.2,1.93,1.93,0,0,1,1.2.9,2.92,2.92,0,0,1,.2.9v.4c0,.3.1.5.3.5s.3-.1.3-.2a4.17,4.17,0,0,0,.2-1.1l.1-.9a8.33,8.33,0,0,0,.1-1.2v-.3c0-.3-.2-.4-.5-.4a1.76,1.76,0,0,0-.6.1,6.61,6.61,0,0,0-1.1.1l-2.2.1c-1,0-2,.1-3.3.1-2,0-3.8-.1-5.2-.2a4.14,4.14,0,0,0-1-.1c-.5,0-.7.1-.7.4s.1.3.4.3a2.27,2.27,0,0,1,1.9.8,6.24,6.24,0,0,1,.5,2.9v13.9c0,1.2-.4,1.9-1.1,2.1l-.6.2c-.3.1-.4.2-.4.4s.2.3.5.3a3.22,3.22,0,0,0,.8-.1,29.23,29.23,0,0,1,3.8-.2,47.13,47.13,0,0,1,4.8.3c.5,0,.9.1,1.2.1a4.12,4.12,0,0,0,3.4-1.6,4.29,4.29,0,0,0,1.1-2.3C187,107.38,186.9,107.27,186.8,107.27Z"/><path class="a" d="M197.6,90.27a12.75,12.75,0,0,0-2,.1l-1.4.1a16.28,16.28,0,0,1-2.4.1h-1.1l-1.2-.1c-.3,0-.4.1-.4.3s.2.3.5.3a2.48,2.48,0,0,1,1.7.8,4.35,4.35,0,0,1,.5,2.3v13.7a5.07,5.07,0,0,1-.3,2.2c-.2.4-.6.6-1.3.8-.3.1-.4.2-.4.3a.35.35,0,0,0,.5.3,3.45,3.45,0,0,0,.9-.1,21.58,21.58,0,0,1,2.8-.2c1,0,2.2,0,3.5.1a8.8,8.8,0,0,0,1.4.1,11.94,11.94,0,0,0,6.1-1.7,9.89,9.89,0,0,0,3.5-3.8,11.78,11.78,0,0,0,1.2-5.3,9.8,9.8,0,0,0-2.8-7.3C204.8,91.38,201.7,90.27,197.6,90.27Zm6.3,19.1a8.32,8.32,0,0,1-4.7,1.3,18.31,18.31,0,0,1-2.1-.2c-.8-.2-1.5-.3-2.1-.5a1.29,1.29,0,0,1-.9-1.3V93c0-.6.1-1,.4-1.2a6.35,6.35,0,0,1,3.1-.5,9.62,9.62,0,0,1,5.7,1.7,8.8,8.8,0,0,1,3,3.8,13.22,13.22,0,0,1,1.1,5.3C207.4,105.48,206.3,108,203.9,109.38Z"/><path class="a" d="M236,110.88a2.19,2.19,0,0,1-1.6-.7,2.5,2.5,0,0,1-.4-1.7l-.1-1.9-.3-8.3-.1-3.7a7.25,7.25,0,0,1,.3-2.5,1.82,1.82,0,0,1,1.1-1l.7-.2c.2,0,.3-.2.3-.4a.27.27,0,0,0-.3-.3h-.4c-.4,0-.9.1-1.5.1h-.5a3.55,3.55,0,0,1-.7-.1c-.2,0-.3,0-.4.1a1.63,1.63,0,0,0-.3.6l-7.1,15.3-.1.3-.2.4a1.24,1.24,0,0,1-.2.3c-.1,0-.1-.1-.2-.4l-.8-1.6-6.3-13.7-.2-.4c-.3-.6-.7-1-1.1-1h-3.7c-.3,0-.4.1-.4.3s.2.3.5.4a3.2,3.2,0,0,1,2.4,1.6,8.43,8.43,0,0,1,.7,4c0,.8-.1,2.9-.2,6.1l-.2,4.4a6.94,6.94,0,0,1-.5,2.6,2.06,2.06,0,0,1-1.6,1,.45.45,0,0,0-.4.3c0,.2.2.3.5.3h.5a14.77,14.77,0,0,1,2.1-.1c.6,0,1.5.1,2.6.2h.6c.3,0,.4-.1.4-.3s-.3-.3-.9-.4c-1.3-.2-1.9-1.2-1.9-3v-3.7l.3-7.5,5.7,12.3.3.6c.2.5.4.7.4.8.2.5.5.7.7.7s.4-.2.6-.7c.1-.1.1-.3.3-.6.2-.5.5-1,.8-1.7.8-1.7,1.2-2.7,1.3-2.9l1.6-3.2,1.4-2.9c.3-.6.9-1.6,1.7-3.1l.4,9.7.1,2.5a4.09,4.09,0,0,1-.3,1.9,1.84,1.84,0,0,1-1.2.8c-.3.1-.4.2-.4.3s.1.3.4.3a17.36,17.36,0,0,0,1.8-.1c.7,0,1.2-.1,1.5-.1a5.28,5.28,0,0,1,1.3.1l1.2.1h.4q.6,0,.6-.3C236.9,111.08,236.6,110.88,236,110.88Z"/><path class="a" d="M254.8,107.27q-.15,0-.3.3c-1.1,1.8-3.7,2.7-7.7,2.7a5,5,0,0,1-2.3-.3,2,2,0,0,1-.5-1.6v-6.1a.6.6,0,0,1,.3-.6,2.15,2.15,0,0,1,1-.2h3.4a3.16,3.16,0,0,1,1.9.4c.4.2.6.7.7,1.4l.1.4c0,.2.2.3.4.3s.3-.1.3-.4v-.4a10.87,10.87,0,0,1-.1-1.8,26.24,26.24,0,0,1,.1-2.7v-.3c0-.3-.1-.4-.3-.4s-.3.1-.4.4a3.93,3.93,0,0,1-.4,1.3,1.93,1.93,0,0,1-1.1.4,15.74,15.74,0,0,1-2.5.2h-2.3c-.4,0-.7,0-.8-.1s-.1-.4-.1-.8v-6.1c0-.5.1-.9.3-1s.6-.2,1.2-.2h2.4a20,20,0,0,1,3.2.2,1.93,1.93,0,0,1,1.2.9,2.92,2.92,0,0,1,.2.9v.4c0,.3.1.5.3.5s.3-.1.3-.2a4.17,4.17,0,0,0,.2-1.1l.1-.9a8.33,8.33,0,0,0,.1-1.2v-.3c0-.3-.2-.4-.5-.4a1.76,1.76,0,0,0-.6.1,6.61,6.61,0,0,0-1.1.1l-2.2.1c-1,0-2,.1-3.3.1-2,0-3.8-.1-5.2-.2a4.14,4.14,0,0,0-1-.1c-.5,0-.7.1-.7.4s.1.3.4.3a2.27,2.27,0,0,1,1.9.8,6.24,6.24,0,0,1,.5,2.9v13.9c0,1.2-.4,1.9-1.1,2.1l-.6.2c-.3.1-.4.2-.4.4s.2.3.5.3a3.22,3.22,0,0,0,.8-.1,29.23,29.23,0,0,1,3.8-.2,47.13,47.13,0,0,1,4.8.3c.5,0,.9.1,1.2.1a4.12,4.12,0,0,0,3.4-1.6,4.29,4.29,0,0,0,1.1-2.3C255.1,107.38,255,107.27,254.8,107.27Z"/><path class="a" d="M278,110.88c-.9-.1-1.4-.3-1.7-.8a4,4,0,0,1-.5-2.2V93.18a2.5,2.5,0,0,1,.3-1.3,1.34,1.34,0,0,1,.8-.7l.6-.1c.2-.1.4-.2.4-.3s-.1-.3-.4-.3a1.76,1.76,0,0,0-.6.1,12.89,12.89,0,0,1-2.3.1,13.43,13.43,0,0,1-2.1-.1,4.59,4.59,0,0,0-1-.1c-.2,0-.4.1-.4.3s.1.3.4.4a2.75,2.75,0,0,1,1.5.9,4.09,4.09,0,0,1,.4,2.2v5.2c0,.3-.1.5-.2.5s-.4.1-.9.1h-9a2,2,0,0,1-1.1-.2,1.86,1.86,0,0,1-.2-1v-5.4a2.2,2.2,0,0,1,.4-1.6,2,2,0,0,1,1.4-.7c.3-.1.4-.2.4-.3s-.1-.3-.4-.3a1.27,1.27,0,0,0-.6.1,12.75,12.75,0,0,1-2,.1,23.53,23.53,0,0,1-2.8-.1,3.45,3.45,0,0,0-.9-.1c-.3,0-.4.1-.4.3s.1.3.4.3a2.53,2.53,0,0,1,1.8.8,3.09,3.09,0,0,1,.5,1.9V107a19,19,0,0,1-.2,3,1.32,1.32,0,0,1-.9,1l-.8.2c-.3.1-.4.2-.4.4s.1.3.4.3a5.81,5.81,0,0,0,1-.1c.4,0,.7-.1,1-.1h2.3a7.19,7.19,0,0,1,1.8.1,3.55,3.55,0,0,1,.7.1c.3,0,.5-.1.4-.3s-.2-.3-.6-.4a3.05,3.05,0,0,1-1.9-.8,4,4,0,0,1-.5-2.2v-5.6a1.44,1.44,0,0,1,.2-.9,2,2,0,0,1,1.1-.2h9c.5,0,.8,0,.9.1s.1.4.1.8v6.2c0,1.6-.5,2.4-1.6,2.6-.3,0-.5.2-.5.3s.1.3.4.3a5.81,5.81,0,0,0,1-.1h2.9a5,5,0,0,1,1.5.1,2.49,2.49,0,0,0,.8.1c.3,0,.4-.1.4-.4C278.5,111.08,278.3,111,278,110.88Z"/><path class="a" d="M292,90.18a12,12,0,0,0-4.5.9,9.32,9.32,0,0,0-3.6,2.3,11.73,11.73,0,0,0-2.2,3.4,12.49,12.49,0,0,0-.8,4.2,10.55,10.55,0,0,0,3,7.8,10.79,10.79,0,0,0,7.9,3,10.62,10.62,0,0,0,7.9-3.1,11.09,11.09,0,0,0,3.1-8,9.87,9.87,0,0,0-3-7.5A10.55,10.55,0,0,0,292,90.18Zm6.4,18.1a7.52,7.52,0,0,1-5.8,2.6,8.1,8.1,0,0,1-6.5-3.2,11.57,11.57,0,0,1-2.7-7.8,9.31,9.31,0,0,1,2.1-6.4,7.12,7.12,0,0,1,5.6-2.4,9.17,9.17,0,0,1,6.9,3,10.94,10.94,0,0,1,2.8,7.6A10.21,10.21,0,0,1,298.4,108.27Z"/><path class="a" d="M325,83.08a22.63,22.63,0,0,0-2.7.1l-1.9.2a28.25,28.25,0,0,1-3.2.1h-1.4l-1.6-.1c-.4,0-.5.1-.5.4s.2.4.7.4a3.16,3.16,0,0,1,2.3,1.1,4.93,4.93,0,0,1,.7,3v18.4a6.8,6.8,0,0,1-.4,3,2.61,2.61,0,0,1-1.8,1c-.4.1-.6.2-.6.5s.2.5.7.5c.3,0,.7-.1,1.2-.1a21.78,21.78,0,0,1,3.8-.2c1.4,0,2.9.1,4.8.2a15.77,15.77,0,0,0,1.9.1,14.83,14.83,0,0,0,8.2-2.4,12.9,12.9,0,0,0,4.7-5.1,15.49,15.49,0,0,0,1.7-7.1,13.34,13.34,0,0,0-3.8-9.8C334.7,84.48,330.5,83.08,325,83.08Zm8.5,25.6a11.56,11.56,0,0,1-6.3,1.8,17.78,17.78,0,0,1-2.9-.3,16.31,16.31,0,0,1-2.8-.7,1.71,1.71,0,0,1-1.2-1.7V86.68a2.46,2.46,0,0,1,.5-1.7c.6-.5,2-.7,4.1-.7a13,13,0,0,1,7.7,2.3,12.38,12.38,0,0,1,4.1,5.1,16.74,16.74,0,0,1,1.5,7.1C338.3,103.38,336.7,106.77,333.5,108.68Z"/><path class="a" d="M364.2,90.38a2,2,0,0,0-.7.1,6.62,6.62,0,0,1-1.5.1,21.85,21.85,0,0,1-2.8-.1h-.6c-.3,0-.4.1-.4.3s.1.3.4.4a4.61,4.61,0,0,1,2.2.8,3,3,0,0,1,.8,1.8l.2,3.5v9.6c0,.2-.1.3-.2.3s-.2-.1-.4-.4L347.2,91a1,1,0,0,0-.8-.4h-2.6a.27.27,0,0,0-.3.3c0,.2.1.3.4.3a2.87,2.87,0,0,1,2.4,1.7,8.1,8.1,0,0,1,.8,4.1v10.3a4.94,4.94,0,0,1-.4,2.4,3.25,3.25,0,0,1-1.7,1.2c-.3.1-.4.2-.4.4s.2.3.4.3a1.76,1.76,0,0,0,.6-.1c.4,0,.7-.1,1.1-.1h.7l1.6.1a8.87,8.87,0,0,1,1.3.1h.5a.27.27,0,0,0,.3-.3c0-.2-.2-.3-.5-.4a2.67,2.67,0,0,1-1.6-.6,2.29,2.29,0,0,1-.5-1.4v-12c0-.5.1-.7.3-.7s.2,0,.2.1l.2.2,12.8,14.7.3.4c.1.1.2.1.4.1a.37.37,0,0,0,.4-.4,8.77,8.77,0,0,0,.1-2.1V93.87a4.6,4.6,0,0,1,.3-2,1.84,1.84,0,0,1,1.2-.8q.3-.15.3-.3C364.6,90.48,364.4,90.38,364.2,90.38Z"/><path class="a" d="M386.9,110.88a3.92,3.92,0,0,1-1.9-.7,8.82,8.82,0,0,1-1.2-2.3l-.3-.8L377,90.38c-.1-.3-.2-.4-.4-.4s-.3.2-.4.5l-7.8,17.4-.4,1a3.8,3.8,0,0,1-.9,1.3c-.3.4-.6.7-.8.7l-.6.2q-.3.15-.3.3c0,.2.1.3.4.3a3.75,3.75,0,0,0,.8-.1H369l1.5.1h.5c.3,0,.4-.1.4-.3s-.2-.3-.5-.4a4.17,4.17,0,0,1-1.4-.5,1.53,1.53,0,0,1-.4-1,5.64,5.64,0,0,1,.7-2.3l1-2.2c.3-.7.5-1.1.7-1.2a3.33,3.33,0,0,1,1.4-.2h5.5c.6,0,.9,0,1,.1a2.8,2.8,0,0,1,.5,1l.8,2a12.23,12.23,0,0,1,.9,3.2.91.91,0,0,1-.8,1l-.5.1c-.3,0-.4.2-.4.3s.1.3.4.3a1.09,1.09,0,0,0,.5-.1,15,15,0,0,1,2.6-.1,19.47,19.47,0,0,1,2.8.1h.6c.3,0,.4-.1.4-.3C387.4,111,387.2,110.88,386.9,110.88ZM378,102h-5c-.5,0-.7-.1-.7-.4a3.93,3.93,0,0,1,.2-.6l3-6.6a1.24,1.24,0,0,1,.2-.3c.1,0,.3.2.4.5l.1.3,2.4,6,.1.3a.76.76,0,0,1,.1.4C378.8,101.88,378.5,102,378,102Z"/><path class="a" d="M351.8,84.88c-.3.1-.4.2-.4.4a4.79,4.79,0,0,0,.8,1.1l1.4,1.5a2.3,2.3,0,0,0,.8.7,1.55,1.55,0,0,0,.8.2,1.48,1.48,0,0,0,.7-.1,2.23,2.23,0,0,0,.7-.7l1.3-1.7.5-.7c.1-.2.2-.3.2-.4s-.1-.2-.3-.4a1.69,1.69,0,0,0-.5-.2c-.2,0-.4.2-.7.7q-1.2,1.8-1.5,1.8c-.1,0-.2-.1-.3-.2l-.4-.4-.6-.7-.5-.5-.3-.4c-.2-.2-.3-.3-.5-.3a1.09,1.09,0,0,0-.5.1Z"/><path class="a" d="M120.9,98.68a3.37,3.37,0,0,0-2.6,1.2,3.43,3.43,0,0,0,0,4.4,3.4,3.4,0,1,0,5-4.6A3.31,3.31,0,0,0,120.9,98.68Zm2.2,5.6a2.9,2.9,0,1,1,.9-2.1A2.88,2.88,0,0,1,123.1,104.27Z"/><path class="a" d="M122.9,103.88c-.2,0-.4-.2-.6-.5l-.1-.1-.8-1.1a1.2,1.2,0,0,0,.7-1c0-.7-.5-1-1.4-1h-1.3c-.1,0-.1,0-.1.1s0,.1.1.1h.1c.2,0,.3.2.3.4v2.3c0,.3,0,.5-.1.6s-.1.2-.3.2-.1,0-.1.1,0,.1.1.1h1.3c.1,0,.1,0,.1-.1s0-.1-.1-.1-.3-.1-.4-.1-.1-.2-.1-.4v-1.1h.4c.1,0,.2,0,.2.1v.1l.7,1.1a1.21,1.21,0,0,0,.9.6c.3,0,.4,0,.4-.1.2-.2.2-.2.1-.2Zm-2.1-1.9h-.4v-1.3c0-.1.1-.2.3-.2a1.45,1.45,0,0,1,.7.2.86.86,0,0,1,.3.6C121.5,101.77,121.3,102,120.8,102Z"/><path class="a" d="M492.2,53.38a3.25,3.25,0,0,0-2.4-1,3.37,3.37,0,0,0-2.6,1.2,3.43,3.43,0,0,0,0,4.4,3.41,3.41,0,0,0,6-2.2A3.69,3.69,0,0,0,492.2,53.38Zm-.3,4.5a2.9,2.9,0,1,1,.9-2.1A2.88,2.88,0,0,1,491.9,57.88Z"/><path class="a" d="M491.7,57.58c-.2,0-.4-.2-.6-.5L491,57l-.8-1.1a1.2,1.2,0,0,0,.7-1c0-.7-.5-1-1.4-1h-1.3c-.1,0-.1,0-.1.1s0,.1.1.1h.1c.2,0,.3.2.3.4v2.3c0,.3,0,.5-.1.6s-.1.2-.3.2-.1,0-.1.1,0,.1.1.1h1.3c.1,0,.1,0,.1-.1s0-.1-.1-.1-.3-.1-.4-.1-.1-.2-.1-.4V56h.4c.1,0,.1,0,.2.1v.1l.7,1.1a1.21,1.21,0,0,0,.9.6c.3,0,.4,0,.4-.1.3-.2.2-.2.1-.2Zm-2.1-1.9h-.4v-1.3c0-.1.1-.2.3-.2a1.45,1.45,0,0,1,.7.2.86.86,0,0,1,.3.6A.88.88,0,0,1,489.6,55.68Z"/></svg>