<?xml version="1.0" encoding="UTF-8" standalone="no"?>
<!-- Generator: Adobe Illustrator 21.0.2, SVG Export Plug-In . SVG Version: 6.00 Build 0)  -->

<svg
   xmlns:dc="http://purl.org/dc/elements/1.1/"
   xmlns:cc="http://creativecommons.org/ns#"
   xmlns:rdf="http://www.w3.org/1999/02/22-rdf-syntax-ns#"
   xmlns:svg="http://www.w3.org/2000/svg"
   xmlns="http://www.w3.org/2000/svg"
   xmlns:sodipodi="http://sodipodi.sourceforge.net/DTD/sodipodi-0.dtd"
   xmlns:inkscape="http://www.inkscape.org/namespaces/inkscape"
   version="1.1"
   id="Layer_1"
   x="0px"
   y="0px"
   viewBox="0 0 1061.9 251.99999"
   xml:space="preserve"
   sodipodi:docname="adventist-logo-h-fr.svg"
   inkscape:version="0.92.1 r15371"
   width="1061.9"
   height="252"><metadata
     id="metadata4735"><rdf:RDF><cc:Work
         rdf:about=""><dc:format>image/svg+xml</dc:format><dc:type
           rdf:resource="http://purl.org/dc/dcmitype/StillImage" /><dc:title>Seventh-day Adventist Church</dc:title></cc:Work></rdf:RDF></metadata><defs
     id="defs4733"><clipPath
       clipPathUnits="userSpaceOnUse"
       id="clipPath24"><path
         d="M 0,180 H 900 V 0 H 0 Z"
         id="path22"
         inkscape:connector-curvature="0" /></clipPath></defs><sodipodi:namedview
     pagecolor="#ffffff"
     bordercolor="#666666"
     borderopacity="1"
     objecttolerance="10"
     gridtolerance="10"
     guidetolerance="10"
     inkscape:pageopacity="0"
     inkscape:pageshadow="2"
     inkscape:window-width="1920"
     inkscape:window-height="1016"
     id="namedview4731"
     showgrid="false"
     inkscape:measure-start="0,0"
     inkscape:measure-end="0,0"
     inkscape:snap-page="true"
     inkscape:snap-bbox="true"
     inkscape:snap-center="false"
     inkscape:zoom="0.40210942"
     inkscape:cx="-211.07551"
     inkscape:cy="-267.44729"
     inkscape:window-x="0"
     inkscape:window-y="27"
     inkscape:window-maximized="1"
     inkscape:current-layer="Layer_1" /><style
     type="text/css"
     id="style4648">
	.st0{fill:#FFFFFF;}
</style><title
     id="title4650">Seventh-day Adventist Church</title><text
     y="125.59601"
     x="307.4805"
     style="font-variant:normal;font-weight:normal;font-stretch:normal;font-size:96.21833801px;font-family:'Advent Sans Logo';-inkscape-font-specification:AdventSans-Logo;writing-mode:lr-tb;fill:#fffffd;fill-opacity:1;fill-rule:nonzero;stroke:none;stroke-width:1.71972001"
     id="text16"><tspan
       style="fill:#fffffd;fill-opacity:1;stroke-width:1.71972001"
       x="307.4805 359.05353 409.0871 431.98703 454.88699 498.76257 551.10541 574.19775 633.75696 692.93127 739.88574 792.22858 849.76709 880.07581 902.97583 946.85138 977.16016 1029.5028"
       y="125.59601"
       sodipodi:role="line"
       id="tspan12">Église Adventiste™</tspan><tspan
       style="fill:#fffffd;fill-opacity:1;stroke-width:1.71972001"
       x="307.4805 366.65475 424.19336 447.28574 500.10965 552.45245 609.70239 640.01111 662.91113 715.25391 803.29358 855.63635 878.72882 903.07202 959.35986 1016.8983"
       y="228.74207"
       sodipodi:role="line"
       id="tspan14">du Septième Jour</tspan></text>
<g
     transform="matrix(1.7114554,0,0,-1.7114554,-1.655449,279.45039)"
     id="g18"
     style="fill:#fffffd;fill-opacity:1"><g
       id="g20"
       clip-path="url(#clipPath24)"
       style="fill:#fffffd;fill-opacity:1"><g
         id="g26"
         transform="translate(144.2505,49.2715)"
         style="fill:#fffffd;fill-opacity:1"><path
           d="M 0,0 H 1.119 L 2.406,-3.47 3.693,0 H 4.812 V -4.421 H 4.029 v 2.519 0.895 H 3.973 L 2.742,-4.421 H 2.07 L 0.839,-1.007 H 0.783 v -0.784 -2.63 H 0 Z M -2.574,-0.672 H -3.861 V 0 h 3.413 v -0.672 h -1.343 v -3.749 h -0.783 z m -63.75,-9.954 c 0,-0.541 0.62,-0.543 0.732,0 0.823,3.998 2.076,6.662 4.033,9.249 l -4.401,-0.002 c -0.201,0 -0.364,-0.163 -0.364,-0.364 z m 32.32,55.485 c -0.181,0.585 -0.687,0.623 -0.682,0.011 0.05,-5.779 -1.612,-10.745 -12.161,-21.294 L -55.19,15.24 c -3.797,-3.797 -7.211,-7.265 -9.229,-10.73 h 8.24 c 0.316,0.317 0.639,0.64 0.974,0.975 l 11.97,11.982 c 9.969,9.969 11.359,20.514 9.231,27.392 M -45.191,9.61 -55.19,-0.397 c -6.052,-6.053 -11.134,-11.268 -11.134,-16.971 l 0.006,-1.588 c 0,-0.431 0.536,-0.499 0.701,-0.048 1.868,5.106 8.112,10.556 19.564,8.624 0,0 49.89,-8.621 50.31,-8.658 0.487,-0.043 0.728,0.437 0.414,0.811 -0.189,0.224 -23.22,23.254 -23.22,23.254 z M -81.284,-1.377 c -0.201,0 -0.364,0.163 -0.364,0.364 v 5.162 c 0,0.201 0.163,0.364 0.364,0.364 l 8.732,-0.002 c 0.201,0 0.364,0.163 0.364,0.364 -0.023,4.637 -3.519,7.788 -17.523,5.35 l -30.24,-5.198 c 0,0 -23.032,-23.03 -23.221,-23.254 -0.314,-0.374 -0.073,-0.854 0.414,-0.811 0.42,0.037 50.31,8.658 50.31,8.658 11.452,1.932 17.696,-3.518 19.564,-8.624 0.165,-0.451 0.702,-0.383 0.702,0.048 0,0.311 0.001,17.215 0.001,17.215 0,0.201 -0.163,0.364 -0.364,0.364 z m -13.939,72.152 c -9.969,-9.969 -11.359,-20.514 -9.231,-27.392 0.181,-0.585 0.687,-0.623 0.682,-0.011 -0.05,5.779 1.612,10.746 12.161,21.294 l 22.74,22.733 c 6.052,6.053 11.134,11.268 11.134,16.971 v 8.895 c 0,0.541 -0.62,0.543 -0.732,0 -1.496,-7.259 -4.4,-10.123 -10.387,-16.111 z m 37.508,17.973 v 8.956 c 0,0.541 -0.62,0.543 -0.732,0 -1.496,-7.26 -4.392,-10.169 -10.38,-16.157 L -92.71,57.684 c -11.59,-11.59 -13.596,-22.808 -7.701,-30.016 0.393,-0.48 0.816,-0.192 0.559,0.388 -3.897,8.818 5.449,18.167 9.898,22.617 l 21.104,21.105 c 6.053,6.052 11.135,11.267 11.135,16.97 m -34.34,-46.044 c -11.591,-11.592 -6.261,-22.787 0.5,-25.868 0.593,-0.271 0.828,0.211 0.375,0.604 -5.422,4.696 -3.776,12.597 3.042,19.414 l 19.264,19.265 c 6.053,6.052 11.134,11.267 11.134,16.97 v 8.895 c 0,0.541 -0.62,0.543 -0.732,0 -1.495,-7.259 -4.393,-10.111 -10.381,-16.099 z M -66.346,13.891 V 4.936 c 0,-0.541 0.62,-0.543 0.732,0 1.496,7.259 4.392,10.168 10.38,16.156 l 9.486,9.466 c 11.591,11.59 13.596,22.808 7.701,30.016 -0.393,0.48 -0.816,0.193 -0.559,-0.387 3.897,-8.818 -5.449,-18.168 -9.898,-22.618 l -6.707,-6.707 C -61.264,24.809 -66.346,19.594 -66.346,13.891 m 11.138,22.863 c -5.988,-5.988 -8.886,-8.84 -10.381,-16.099 -0.112,-0.543 -0.732,-0.541 -0.732,0 v 8.895 c 0,5.703 5.081,10.918 11.133,16.971 l 4.868,4.867 c 6.818,6.818 8.464,14.718 3.042,19.415 -0.453,0.392 -0.218,0.874 0.376,0.603 6.76,-3.081 12.09,-14.276 0.499,-25.867 z"
           style="fill:#fffffd;fill-opacity:1;fill-rule:nonzero;stroke:none"
           id="path28"
           inkscape:connector-curvature="0" /></g></g></g></svg>