<svg xmlns="http://www.w3.org/2000/svg" viewBox="0 0 20 20"><path d="M8.31 2.48l-3.8 2.85H1a1 1 0 00-1 1v7.25a1 1 0 001 1h3.51l3.8 2.84a1 1 0 001.69-.75V3.31a1 1 0 00-1.69-.83zm5.1 1.7a1.22 1.22 0 00-1.72 1.72 5.77 5.77 0 010 8.17 1.23 1.23 0 000 1.72 1.2 1.2 0 00.85.34 1.17 1.17 0 00.85-.36 8.16 8.16 0 00.02-11.59z" fill="#fff"/><path d="M14.76 1.46a1.23 1.23 0 000 1.72 9.62 9.62 0 010 13.63 1.22 1.22 0 00.85 2.08 1.19 1.19 0 00.85-.35 12 12 0 000-17.06 1.18 1.18 0 00-1.7-.02z" fill="#fff"/></svg>