<svg xmlns="http://www.w3.org/2000/svg" width="14" height="14"><path fill="gray" d="M12.767 8.343a2.67 2.67 0 01.986-3.643l-1.376-2.383a2.64 2.64 0 01-1.338.363c-1.47 0-2.662-1.2-2.662-2.68H5.625c.004.457-.11.92-.355 1.343a2.67 2.67 0 01-3.649.967L.245 4.693c.396.225.739.555.983.977a2.672 2.672 0 01-.98 3.64l1.376 2.383a2.641 2.641 0 011.332-.359 2.67 2.67 0 012.662 2.665H8.37c-.001-.452.113-.91.355-1.329a2.671 2.671 0 013.642-.971l1.376-2.383a2.645 2.645 0 01-.977-.974zM7 9.835a2.835 2.835 0 110-5.67 2.835 2.835 0 010 5.67z"/></svg>