<svg xmlns="http://www.w3.org/2000/svg" viewBox="0 0 99.06 80.51"><path d="M99.06 9.53a40.66 40.66 0 01-11.67 3.2 20.39 20.39 0 008.94-11.25 40.75 40.75 0 01-12.91 4.93 20.34 20.34 0 00-34.63 18.54A57.69 57.69 0 016.89 3.72a20.34 20.34 0 006.29 27.13 20.24 20.24 0 01-9.21-2.54v.25a20.34 20.34 0 0016.3 19.93 20.34 20.34 0 01-9.18.35 20.35 20.35 0 0019 14.11 40.77 40.77 0 01-25.24 8.7A40.76 40.76 0 010 71.36a57.5 57.5 0 0031.16 9.13c37.38 0 57.83-31 57.83-57.83q0-1.32-.06-2.63a41.26 41.26 0 0010.13-10.5z" fill="#010101"/></svg>