<svg xmlns="http://www.w3.org/2000/svg" viewBox="0 0 15.33 19.02"><path d="M3.29 18.73a11.53 11.53 0 010-3.45l1.41-6a4.33 4.33 0 01-.36-1.78c0-1.67 1-2.91 2.17-2.91a1.51 1.51 0 011.56 1.72 24.17 24.17 0 01-1 4 1.74 1.74 0 001.78 2.17c2.13 0 3.77-2.25 3.77-5.5a4.74 4.74 0 00-5-4.88 5.19 5.19 0 00-5.43 5.21 4.67 4.67 0 00.9 2.69.36.36 0 01.08.34l-.33 1.36c-.05.22-.17.27-.4.16C.94 11.21 0 9 0 7.26 0 3.48 2.75 0 7.93 0c4.16 0 7.4 3 7.4 6.93 0 4.14-2.61 7.46-6.23 7.46A3.21 3.21 0 016.35 13l-.75 2.87A13.41 13.41 0 014.11 19z"/></svg>