<svg xmlns="http://www.w3.org/2000/svg" viewBox="0 0 97.45 68.54"><path d="M96.47 14.79s-1-6.72-3.87-9.67c-3.71-3.85-7.88-3.91-9.77-4.13-13.64-1-34.09-1-34.09-1s-20.46 0-34.09 1c-1.93.22-6.1.28-9.81 4.12-2.92 3-3.87 9.67-3.87 9.67a147.37 147.37 0 00-1 15.77v7.39a147.37 147.37 0 001 15.77s1 6.72 3.87 9.67c3.71 3.89 8.58 3.77 10.75 4.18 7.8.75 33.13 1 33.13 1s20.48 0 34.11-1c1.89-.29 6.06-.29 9.77-4.16 2.92-3 3.87-9.67 3.87-9.67a147.59 147.59 0 001-15.77v-7.4a147.59 147.59 0 00-1-15.77zM38.66 46.91V19.53l26.33 13.74z" fill="#282928"/></svg>