<svg xmlns="http://www.w3.org/2000/svg" viewBox="0 0 1466.1 413.93"><title>sda_alpsLogo_outline</title><polygon points="208.72 256.16 228.46 202.36 274.13 292.13 313.41 349.09 163.25 307.66 208.72 256.16" fill="#bcb09b"/><polygon points="310.35 178.74 288.3 147.64 268.61 0 368.61 116.53 310.35 178.74" fill="#f9f9f9"/><polygon points="419.8 191.34 352.69 315.35 310.35 178.74 368.61 116.53 419.8 191.34" fill="#605a4e"/><polygon points="228.46 202.36 189.87 88.19 213.78 57.52 288.3 147.64 228.46 202.36" fill="#eaeaea"/><polygon points="144.21 155.12 189.87 88.19 228.46 202.36 144.21 155.12" fill="#605a4e"/><polygon points="96.96 189.76 144.21 155.12 228.46 202.36 208.72 256.16 96.96 189.76" fill="#605a4e" opacity="0.6"/><polygon points="72.92 229.44 96.96 189.76 208.72 256.16 163.25 307.66 72.92 229.44" fill="#605a4e" opacity="0.3"/><polygon points="0 300.09 72.92 229.44 163.25 307.66 132 337.09 0 300.09" fill="#898071" opacity="0.1"/><polygon points="132 337.09 163.25 307.66 313.41 349.09 251.04 413.93 132 337.09" fill="#705e45" opacity="0.15"/><polygon points="359.3 403.38 313.41 349.09 352.69 315.35 434.93 349.09 359.3 403.38" fill="#8c846f" opacity="0.55"/><polygon points="228.46 202.36 288.3 147.64 310.35 178.74 274.13 292.13 228.46 202.36" fill="#7a7262"/><polygon points="274.13 292.13 310.35 178.74 352.69 315.35 313.41 349.09 274.13 292.13" fill="#8c846f"/><polygon points="352.69 315.35 419.8 191.34 458.96 234.09 434.93 349.09 352.69 315.35" fill="#8c846f"/><polygon points="434.93 349.09 458.96 234.09 510.9 335.64 474.95 362.28 434.93 349.09" fill="#c1b59a" opacity="0.5"/><polygon points="288.3 147.64 213.78 57.52 268.61 0 288.3 147.64" fill="#f4f4f4"/><path d="M637.44,92.63l55.77,114.46H669.7v-0.44l-52.41-24.53-12,25H582.25Zm-12.56,73.88,33.29,16.06-20.73-43.8Z" fill="#47443c"/><path d="M779.5,188v19.13H713.65V97.59H733.8V188h45.7Z" fill="#47443c"/><path d="M883.88,139.79a43.42,43.42,0,0,1-3.07,16.28,40.69,40.69,0,0,1-8.69,13.43,41.48,41.48,0,0,1-13.36,9.13A42.44,42.44,0,0,1,841.69,182h-14v25.11H807.53V97.59h34.16A44.15,44.15,0,0,1,859.28,101,39.21,39.21,0,0,1,881,123.51,45.37,45.37,0,0,1,883.88,139.79Zm-42.19,23.51a24.88,24.88,0,0,0,10.51-2,18.09,18.09,0,0,0,6.79-5.26,20.43,20.43,0,0,0,3.65-7.52,34.82,34.82,0,0,0,1.09-8.76,26.2,26.2,0,0,0-1.39-8.47,22.63,22.63,0,0,0-4.16-7.37,20.32,20.32,0,0,0-6.93-5.26,22.1,22.1,0,0,0-9.56-2h-14v46.57h14Z" fill="#47443c"/><path d="M945.79,139.64a123.49,123.49,0,0,1,14.6,6.21,44.7,44.7,0,0,1,10.8,7.52,29.33,29.33,0,0,1,6.72,9.78,33.34,33.34,0,0,1,2.34,13,32.59,32.59,0,0,1-2.77,13.58,30.78,30.78,0,0,1-7.74,10.51,35.93,35.93,0,0,1-12,6.86,46.75,46.75,0,0,1-15.55,2.48A39.38,39.38,0,0,1,927,206.73,38.15,38.15,0,0,1,915,199a35.07,35.07,0,0,1-8-11.39,34.34,34.34,0,0,1-2.85-13.94h20.73a16.58,16.58,0,0,0,1.39,6.79,17.23,17.23,0,0,0,3.8,5.48,17.71,17.71,0,0,0,5.55,3.65,16.66,16.66,0,0,0,6.5,1.31q9.2,0,13.21-4t4-11.31a14,14,0,0,0-1.17-6,11.94,11.94,0,0,0-3.65-4.38,31.15,31.15,0,0,0-6.28-3.58q-3.8-1.68-9.2-3.72a107.42,107.42,0,0,1-11.9-5.4,42.13,42.13,0,0,1-9.49-6.79,30.9,30.9,0,0,1-6.42-8.83,27.19,27.19,0,0,1-2.55-11.39A32.17,32.17,0,0,1,911,113.22a27.12,27.12,0,0,1,6.5-9.56A29.68,29.68,0,0,1,928,97.38a41.59,41.59,0,0,1,14.16-2.26,40.74,40.74,0,0,1,14.38,2.34,29.86,29.86,0,0,1,10.37,6.35,27.09,27.09,0,0,1,6.35,9.42,32.9,32.9,0,0,1,2.34,11.68H955.28a13.64,13.64,0,0,0-3.87-8q-3.14-3.07-9.71-3.07-5.69,0-9.12,2.92t-3,8.18a14.66,14.66,0,0,0,.8,5.18,9,9,0,0,0,2.7,3.72,21.12,21.12,0,0,0,5,3A68.74,68.74,0,0,0,945.79,139.64Z" fill="#47443c"/><path d="M602.21,256h10l7.12,40.1L624,297l-0.17,3.05H603.94l0.14-3.05,4.52-.83-1.15-8.1H592.77l-3.6,8.07,5.42,0.86-0.23,3.05H578.28l0.23-3.05,4-.83Zm4.64,27.74-2.25-15.85-0.26-5.73-9.65,21.58h12.16Z" fill="#959594"/><path d="M624.34,288.51c0-11.21,6.17-21.92,19.5-21.92a21.41,21.41,0,0,1,2.94.26l1.38-9.45-4.49-1.24,0.55-2.39,12.45-1.21,1.61,0.78-5.82,40.16c-0.2,1.38.09,2.25,1,2.25,0.55,0,1.24-.26,2.65-1.33l0.81,2.1a10.45,10.45,0,0,1-8,4.15c-3.43,0-4.84-1.67-5.07-4.81a11.61,11.61,0,0,1-9.56,4.81C627,300.67,624.34,295.14,624.34,288.51ZM643,292.69l3.17-21.61a9,9,0,0,0-3-.46c-7,0-9,9.88-9,17.57,0,4.72,1.53,7.46,4.15,7.46C640.27,295.66,641.88,294.25,643,292.69Z" fill="#959594"/><path d="M665.82,289.87l-3.54-16.42c-0.23-1.18-.61-1.58-1.24-1.61a3.79,3.79,0,0,0-2.16,1l-0.83-2.3c0.55-.69,3.6-3.89,7.72-3.89,3.46,0,5.36,1.41,5.76,3.95L674.58,287l0.84,6.22,2.13-3.69c2.16-4.09,3.92-7.75,3.92-12.53,0-2-1-4.35-1-6.42,0-2.25,1.55-4,4.55-4,4.26,0,4.93,3.11,5,6.22,0.09,5.33-5,14-9,19.1l-7.37,8.44-5.53.35Z" fill="#959594"/><path d="M710.42,266.59c6.57,0,9.31,3.14,9.48,7.2,0.29,9.51-10.57,13-17.83,13.2,0,6,2,8.53,5.39,8.53A10.28,10.28,0,0,0,716,291l1.84,3c-1.58,2.54-6.14,6.68-13.54,6.68-9.25,0-12.59-6.4-12.62-13C691.67,275.41,699.85,266.59,710.42,266.59Zm0.23,8c-0.12-2.62-.83-4-2.36-4-4.44,0-5.91,7.61-6.22,13C705.44,283.33,710.82,280.24,710.65,274.57Z" fill="#959594"/><path d="M726.18,272.38l-3.08-1.73,0.46-2.56,10.77-1.5,1.5,0.69-0.46,6c2.54-4,6.25-6.74,10.8-6.74s7.63,2.25,7.63,8.7c0,1.73-.86,7-1.41,10.26a67.45,67.45,0,0,0-1.21,8.61c0,1.38.55,1.58,1.12,1.58s1.21-.29,2.59-1.33l0.81,2.1a10.88,10.88,0,0,1-8.64,4.18c-5.19,0-5.85-2.71-5.85-4.93a68.51,68.51,0,0,1,1.33-8.44,65,65,0,0,0,1.3-11c-0.06-3.17-.75-4-2.28-4-2.28,0-5.19,3.23-7,7l-2.85,20.77h-9.33Z" fill="#959594"/><path d="M761.41,288.63l2.33-17.17h-3.43l0.69-3.14,3.52-1.35c1.73-1.44,3.43-4.78,4.64-7.66h5.44l-1,7.52h6L779,271.46h-5.93l-2.39,17.4a33.13,33.13,0,0,0-.43,4c0,1.55.66,2.33,2.1,2.33a7.7,7.7,0,0,0,4.87-1.64l0.72,2.3c-1.67,1.9-5.44,4.81-11.73,4.81-2.82,0-5.56-1.21-5.56-5.16A60.54,60.54,0,0,1,761.41,288.63Z" fill="#959594"/><path d="M784.8,271.86l-4.72-1.47,0.52-2.33,12.85-1.47,1.58,0.69-3.69,26.27c-0.2,1.41.14,2.19,1,2.19,0.66,0,1.33-.35,2.65-1.33l0.81,2.1a10.89,10.89,0,0,1-8.53,4.15c-4.09,0-6.11-1.79-5.73-4.29C782.24,291.8,783.33,282.92,784.8,271.86Zm1.58-15.12a5.48,5.48,0,0,1,5.7-5.65,4.68,4.68,0,0,1,4.9,4.64c-0.09,3.2-1.84,5.82-5.93,5.82A4.89,4.89,0,0,1,786.39,256.74Z" fill="#959594"/><path d="M799.18,292.89a12.14,12.14,0,0,0,7.69,3.34c2.07,0,4.55-.89,4.55-3.54,0-2.33-1.93-4.06-5.21-6.34-2.68-1.84-5.65-4.64-5.65-10,0-6.37,5.91-9.74,13.51-9.74a25.09,25.09,0,0,1,7.49,1.07l-1.24,6a8,8,0,0,0-5.88-2.88c-2.45,0-4.61,1.07-4.61,3.37s1.64,3.86,5.19,6.4c3.08,2.22,5.82,5.24,5.82,10.11,0,7.2-6.86,10.05-13.8,10.05-3.72,0-8.15-1.12-9.25-2Z" fill="#959594"/><path d="M826.69,288.63L829,271.46H825.6l0.69-3.14L829.8,267c1.73-1.44,3.43-4.78,4.64-7.66h5.45l-1,7.52h6l-0.66,4.64h-5.94l-2.39,17.4a32.88,32.88,0,0,0-.43,4c0,1.55.66,2.33,2.1,2.33a7.69,7.69,0,0,0,4.87-1.64l0.72,2.3c-1.67,1.9-5.45,4.81-11.72,4.81-2.82,0-5.56-1.21-5.56-5.16A60.62,60.62,0,0,1,826.69,288.63Z" fill="#959594"/><path d="M857.4,297l4-.86,4.75-36.24-4.21-.75L862.3,256h19.56l-0.35,3.17-5.24.75-4.78,36.44,10.05-.58,5.5-13,5.21,0.66-2.42,16.62H857.06Z" fill="#959594"/><path d="M900.67,271.86l-4.72-1.47,0.52-2.33,12.85-1.47,1.58,0.69-3.69,26.27c-0.2,1.41.14,2.19,1,2.19,0.66,0,1.32-.35,2.65-1.33l0.81,2.1a10.89,10.89,0,0,1-8.53,4.15c-4.09,0-6.11-1.79-5.73-4.29C898.11,291.8,899.2,282.92,900.67,271.86Zm1.58-15.12a5.48,5.48,0,0,1,5.7-5.65,4.68,4.68,0,0,1,4.9,4.64c-0.09,3.2-1.84,5.82-5.93,5.82A4.89,4.89,0,0,1,902.26,256.74Z" fill="#959594"/><path d="M920.64,289.87l-3.54-16.42c-0.23-1.18-.6-1.58-1.24-1.61a3.79,3.79,0,0,0-2.16,1l-0.84-2.3c0.55-.69,3.6-3.89,7.72-3.89,3.46,0,5.36,1.41,5.76,3.95L929.39,287l0.83,6.22,2.13-3.69c2.16-4.09,3.92-7.75,3.92-12.53,0-2-1-4.35-1-6.42,0-2.25,1.56-4,4.55-4,4.26,0,4.93,3.11,5,6.22,0.09,5.33-5,14-9,19.1l-7.37,8.44-5.53.35Z" fill="#959594"/><path d="M951.14,271.86l-4.72-1.47,0.52-2.33,12.85-1.47,1.58,0.69-3.69,26.27c-0.2,1.41.14,2.19,1,2.19,0.66,0,1.32-.35,2.65-1.33l0.81,2.1a10.89,10.89,0,0,1-8.53,4.15c-4.09,0-6.11-1.79-5.73-4.29C948.58,291.8,949.68,282.92,951.14,271.86Zm1.58-15.12a5.48,5.48,0,0,1,5.7-5.65,4.68,4.68,0,0,1,4.9,4.64c-0.09,3.2-1.84,5.82-5.93,5.82A4.89,4.89,0,0,1,952.73,256.74Z" fill="#959594"/><path d="M970.07,272.38L967,270.65l0.46-2.56,10.77-1.5,1.5,0.69-0.46,6c2.54-4,6.25-6.74,10.8-6.74s7.63,2.25,7.63,8.7c0,1.73-.86,7-1.41,10.26a67.45,67.45,0,0,0-1.21,8.61c0,1.38.55,1.58,1.12,1.58s1.21-.29,2.59-1.33l0.81,2.1A10.88,10.88,0,0,1,991,300.7c-5.19,0-5.85-2.71-5.85-4.93a68.51,68.51,0,0,1,1.33-8.44,65,65,0,0,0,1.3-11c-0.06-3.17-.75-4-2.28-4-2.28,0-5.19,3.23-7,7l-2.85,20.77H966.3Z" fill="#959594"/><path d="M1013.75,310.15c3.92,0,6-.63,6.6-5.88l0.72-6.28a12,12,0,0,1-7.69,2.68c-7.2,0-10.17-5.53-10.17-12.16,0-11.21,6.71-21.92,19.76-21.92a24.48,24.48,0,0,1,7.14,1.32l4.67-1.32L1030,302.31c-1.27,10.14-10.11,12.7-17.83,12.7a24.64,24.64,0,0,1-7.72-1.3l1.47-6.19A15.68,15.68,0,0,0,1013.75,310.15Zm7.87-16.59,3.31-22.62a9.69,9.69,0,0,0-2.65-.32c-7,0-9.1,9.88-9.1,17.57,0,4.72,1.64,7.46,4.26,7.46A6,6,0,0,0,1021.61,293.56Z" fill="#959594"/><path d="M1050.22,297l4-.86,4.84-36.24-4.26-.75,0.4-3.17h9.1c3.49,0,5.59-.46,8.56-0.46,12.24,0,16.42,4.15,16.65,11.73,0.35,11.32-7.43,18-20.25,18a29.72,29.72,0,0,1-3.37-.12l-1.33,11,8,0.86-0.23,3.05H1049.9Zm19.27-15.56c6.14-.09,9.88-5.82,9.91-14,0-5.93-3-8.3-7.58-8.3a12,12,0,0,0-2.56.26l-2.94,21.81A11.35,11.35,0,0,0,1069.49,281.48Z" fill="#959594"/><path d="M1109.82,266.59a23.43,23.43,0,0,1,6.86,1.24l4.38-1.24-3.72,27c-0.17,1.55.26,2.19,1.12,2.19,0.55,0,1.3-.26,2.68-1.33l0.81,2.1a10.26,10.26,0,0,1-8.07,4.15c-2.85,0-4.81-1.27-4.9-3.63a12.14,12.14,0,0,1-8.76,3.63c-7.2,0-10.17-5.53-10.17-12.16C1090.06,277.31,1096.77,266.59,1109.82,266.59Zm-1.9,27.48,3.17-23.28a10.78,10.78,0,0,0-2-.17c-7,0-9.1,9.88-9.1,17.57,0,4.72,1.64,7.46,4.26,7.46A5.56,5.56,0,0,0,1107.92,294.07Z" fill="#959594"/><path d="M1127.17,288.63l2.33-17.17h-3.43l0.69-3.14,3.52-1.35c1.73-1.44,3.43-4.78,4.64-7.66h5.44l-1,7.52h6l-0.66,4.64h-5.93l-2.39,17.4a33.13,33.13,0,0,0-.43,4c0,1.55.66,2.33,2.1,2.33a7.7,7.7,0,0,0,4.87-1.64l0.72,2.3c-1.67,1.9-5.44,4.81-11.73,4.81-2.82,0-5.56-1.21-5.56-5.16A60.54,60.54,0,0,1,1127.17,288.63Z" fill="#959594"/><path d="M1148,288.63l2.33-17.17h-3.43l0.69-3.14,3.52-1.35c1.73-1.44,3.43-4.78,4.64-7.66h5.44l-1,7.52h6l-0.66,4.64h-5.93l-2.39,17.4a33.13,33.13,0,0,0-.43,4c0,1.55.66,2.33,2.1,2.33a7.7,7.7,0,0,0,4.87-1.64l0.72,2.3c-1.67,1.9-5.44,4.81-11.73,4.81-2.82,0-5.56-1.21-5.56-5.16A60.54,60.54,0,0,1,1148,288.63Z" fill="#959594"/><path d="M1185.5,266.59c6.57,0,9.31,3.14,9.48,7.2,0.29,9.51-10.57,13-17.83,13.2,0,6,2,8.53,5.39,8.53a10.28,10.28,0,0,0,8.59-4.49l1.84,3c-1.58,2.54-6.14,6.68-13.54,6.68-9.25,0-12.59-6.4-12.62-13C1166.75,275.41,1174.93,266.59,1185.5,266.59Zm0.23,8c-0.12-2.62-.83-4-2.36-4-4.44,0-5.91,7.61-6.22,13C1180.52,283.33,1185.91,280.24,1185.73,274.57Z" fill="#959594"/><path d="M1201.35,272.38l-3.08-1.73,0.49-2.56,9.45-1.5,1.53,0.69,0.58,7.86c1.3-4.55,3.86-8.56,8.5-8.56a3.62,3.62,0,0,1,2,.58l-2,10.28a5.37,5.37,0,0,0-3.08-.89,10.48,10.48,0,0,0-5.88,1.64l-3,21.89h-9.3Z" fill="#959594"/><path d="M1225.55,272.38l-3.08-1.73,0.46-2.56,10.77-1.5,1.5,0.69-0.46,6c2.54-4,6.25-6.74,10.8-6.74s7.63,2.25,7.63,8.7c0,1.73-.86,7-1.41,10.26a67.45,67.45,0,0,0-1.21,8.61c0,1.38.55,1.58,1.12,1.58s1.21-.29,2.59-1.33l0.81,2.1a10.88,10.88,0,0,1-8.64,4.18c-5.19,0-5.85-2.71-5.85-4.93a68.51,68.51,0,0,1,1.33-8.44,65,65,0,0,0,1.3-11c-0.06-3.17-.75-4-2.28-4-2.28,0-5.19,3.23-7,7l-2.85,20.77h-9.33Z" fill="#959594"/><path d="M1273.08,288.77H1279l0.32,6.37a9.47,9.47,0,0,0,5.88,1.9c5.76,0,7.32-2.59,7.32-5.85,0-3.69-2.1-5.91-7.46-9.33-5.1-3.25-9.36-7.52-9.36-13.51,0-8.35,6.91-12.88,16.39-12.88,6.25,0,9.65,1.07,11.5,2.13l-1.56,8.7h-5.5l-0.87-5.7a7.77,7.77,0,0,0-4.87-1.5c-4.18,0-6,2.1-6,5.13,0,4.18,2.54,6.71,8.15,10.26,4.84,3.05,9,7.09,9,12.88,0,6.94-5.39,13.4-16.91,13.4-6.45,0-12.42-1.76-13.71-2.82Z" fill="#959594"/><path d="M1310.24,310.15c3.57,0,5.88-2.13,9.07-8h-5.5l-6-28.69c-0.26-1.18-.6-1.61-1.24-1.61a3.47,3.47,0,0,0-2.16,1l-0.84-2.33c0.58-.81,3.77-3.89,7.78-3.89,3.66,0,5.21,1.5,5.7,3.95,1.47,7.55,2.71,15.12,3.89,22.67l0.52,4.58,1.76-3.57a34,34,0,0,0,3.86-15.36c0-4.09-1-4.67-1-8.3,0-2.22,1.56-4,4.58-4,3.92,0,5,2.71,5,6.22,0,5.33-3.43,13.22-6.28,18.72-5.7,11-7,13.71-9.1,16.8-2.42,3.49-5.7,6.68-11.52,6.68a23.52,23.52,0,0,1-7.72-1.3l1.47-6.19A15.68,15.68,0,0,0,1310.24,310.15Z" fill="#959594"/><path d="M1336.95,292.89a12.14,12.14,0,0,0,7.69,3.34c2.07,0,4.55-.89,4.55-3.54,0-2.33-1.93-4.06-5.21-6.34-2.68-1.84-5.65-4.64-5.65-10,0-6.37,5.91-9.74,13.51-9.74a25.09,25.09,0,0,1,7.49,1.07l-1.24,6a8,8,0,0,0-5.88-2.88c-2.45,0-4.61,1.07-4.61,3.37s1.64,3.86,5.19,6.4c3.08,2.22,5.82,5.24,5.82,10.11,0,7.2-6.86,10.05-13.8,10.05-3.72,0-8.15-1.12-9.25-2Z" fill="#959594"/><path d="M1364.46,288.63l2.33-17.17h-3.43l0.69-3.14,3.52-1.35c1.73-1.44,3.43-4.78,4.64-7.66h5.44l-1,7.52h6l-0.66,4.64h-5.93l-2.39,17.4a33.13,33.13,0,0,0-.43,4c0,1.55.66,2.33,2.1,2.33a7.7,7.7,0,0,0,4.87-1.64l0.72,2.3c-1.67,1.9-5.44,4.81-11.73,4.81-2.82,0-5.56-1.21-5.56-5.16A60.54,60.54,0,0,1,1364.46,288.63Z" fill="#959594"/><path d="M1401.94,266.59c6.57,0,9.31,3.14,9.48,7.2,0.29,9.51-10.57,13-17.83,13.2,0,6,2,8.53,5.39,8.53a10.28,10.28,0,0,0,8.59-4.49l1.84,3c-1.58,2.54-6.14,6.68-13.54,6.68-9.25,0-12.59-6.4-12.62-13C1383.19,275.41,1391.37,266.59,1401.94,266.59Zm0.23,8c-0.12-2.62-.83-4-2.36-4-4.44,0-5.91,7.61-6.22,13C1397,283.33,1402.35,280.24,1402.17,274.57Z" fill="#959594"/><path d="M1417.7,272.38l-3.11-1.73,0.49-2.56,10.72-1.5,1.53,0.69-0.46,6.11c2.36-3.83,6-6.8,10.43-6.8,4.21,0,7.26,1.84,7.84,7.12,2.51-4.52,6.45-7.12,11.44-7.12,4.44,0,7.63,2.25,7.63,8.7,0,1.73-.86,7-1.41,10.26a67.46,67.46,0,0,0-1.21,8.61c0,1.38.55,1.58,1.12,1.58s1.21-.29,2.59-1.33l0.81,2.1a10.88,10.88,0,0,1-8.64,4.18c-5.19,0-5.85-2.71-5.85-4.93a68.47,68.47,0,0,1,1.33-8.44,65.12,65.12,0,0,0,1.3-11c-0.06-3.17-.75-4-2.28-4-2.22,0-5,2.39-6.83,6-0.12,2.39-.37,5.07-0.69,7.29l-1.7,14.55h-9.65l1.64-12.76a78.5,78.5,0,0,0,.86-10.86c-0.09-3.6-.86-4.18-2.68-4.18-2,0-5,2.91-6.77,6.42l-2.94,21.38h-9.3Z" fill="#959594"/></svg>
