<svg xmlns="http://www.w3.org/2000/svg" viewBox="0 0 28.91 28.91"><title>o-icon__gallery</title><path d="M3.14,24.72h22v2a.51.51,0,0,1-.51.51H.51A.51.51,0,0,1,0,26.7V5.8a.51.51,0,0,1,.51-.51H2.62V24.21A.51.51,0,0,0,3.14,24.72ZM28.91,2.21V23.1a.51.51,0,0,1-.51.52H4.24a.51.51,0,0,1-.51-.52V2.21a.51.51,0,0,1,.51-.51H28.4A.51.51,0,0,1,28.91,2.21ZM7.79,6.31A2.71,2.71,0,1,0,10.5,3.6,2.7,2.7,0,0,0,7.79,6.31ZM27.25,17.08l-6-11.79-2.93,6.07-3.24-2.3-2.79,4.79-2.4-1.62L5.67,17.1v.21H27.25Z" fill="#fff"/></svg>
