<svg xmlns="http://www.w3.org/2000/svg" viewBox="0 0 20 20"><title>o-icon__audio</title><path d="M8.31,2.48,4.51,5.33H1a1,1,0,0,0-1,1v7.25a1,1,0,0,0,1,1H4.51l3.8,2.84A1,1,0,0,0,10,16.67V3.31A1,1,0,0,0,8.31,2.48Z" fill="#fff"/><path d="M13.41,4.18A1.22,1.22,0,0,0,11.69,5.9a5.77,5.77,0,0,1,0,8.17,1.23,1.23,0,0,0,0,1.72,1.2,1.2,0,0,0,.85.34,1.17,1.17,0,0,0,.85-.36A8.16,8.16,0,0,0,13.41,4.18Z" fill="#fff"/><path d="M14.76,1.46a1.23,1.23,0,0,0,0,1.72,9.62,9.62,0,0,1,0,13.63,1.22,1.22,0,0,0,.85,2.08,1.19,1.19,0,0,0,.85-.35,12,12,0,0,0,0-17.06A1.18,1.18,0,0,0,14.76,1.46Z" fill="#fff"/></svg>