<svg xmlns="http://www.w3.org/2000/svg" viewBox="0 0 150.84 145.21"><title>Asset 1</title><path d="M68.64,69.42V65.94h4.94v-.33c0-3.49-1.61-6-12.68-4.12L42.68,64.74,32.2,79.28l25.15-4.46c7.54-1.29,14.15-1.56,16.23,4.43V69.42Z" style="fill:#fff"/><path d="M77,79.24c0-4.74,2.8-8,8.52-13.72l4-4L108,64.74l10.5,14.52L94.34,75.09C86.15,73.52,79.21,73,77,79.24Z" style="fill:#fff"/><path d="M78,65.93C79.87,62,83.75,58.48,86,56.24l1.59-1.62c6.76-6.76,8.06-9.56,8.48-14.22,0-.24.37.91.47,1.73a15.06,15.06,0,0,1-.79,7.49c-1.39,4.11-4.7,7.38-9,11.67l-4.66,4.64Z" style="fill:#fff"/><path d="M82,9.21s.11-.06.11,0V14.6c0,4.88-6.27,10.51-8.77,13l-9.19,9.21C61,40,54.59,46.25,57.26,52.31c.09.2.17.37-.17.13-.68-.48-1.71-2.18-2-5.27-.49-5.52,3.27-10.46,7.91-15.09l8.76-8.77C80.67,14.41,81.54,12.84,82,9.21Z" style="fill:#fff"/><path d="M73.32,36.83c2.5-2.48,8.77-8.11,8.77-13v-5.4c0-.06-.11,0-.11,0-.43,3.64-1.3,5.2-10.19,14.09l-8.14,8.15c-3,3-5.67,6.06-5.54,11.06.08,3.07,1.62,5.61,3.94,6.21,1,.21.9.08.67,0-3.28-1.55-3-7.47,2.26-12.76Z" style="fill:#fff"/><path d="M63.1,28.67c-6.76,6.76-8.06,9.56-8.48,14.22,0,.24-.37-.91-.47-1.73a15,15,0,0,1,.79-7.49c1.39-4.11,4.7-7.38,9-11.67l7.86-7.88C80.67,5.24,81.54,3.67,82,0c0,0,.11-.06.11,0v5.4c0,4.88-6.27,10.51-8.77,13Z" style="fill:#fff"/><path d="M77.14,74.79s-.12,0-.12,0V69.42h2.24A11.6,11.6,0,0,0,77.14,74.79Z" style="fill:#fff"/><path d="M77.15,65.94s-.11,0-.11,0V60.48c0-4.1,4-8.53,8-12.49l2.58-2.58C89.71,43.32,96.08,37,93.41,31c-.09-.2-.17-.37.17-.13.68.48,1.71,2.18,2,5.27.49,5.52-3.27,10.46-7.91,15.09l-2.39,2.4C79.5,59.38,77.59,62,77.15,65.94Z" style="fill:#fff"/><path d="M77.15,56.47s-.11,0-.11,0V50.93c0-3.91,3.88-8.13,5.76-10L85.71,38C91,32.71,91.24,26.79,88,25.25c-.23-.1-.29-.22.67,0,2.32.6,3.86,3.14,3.94,6.21.13,5-2.54,8.09-5.5,11l-2.36,2.36C79.76,49.8,77.6,52.69,77.15,56.47Z" style="fill:#fff"/><path d="M25.24,140.73c-.1-.49,0-.75.27-.75s.34.29.46.8a5.2,5.2,0,0,0,5.11,3.65c2.31,0,4.58-1.29,4.58-3.85,0-4.7-9.89-2.07-9.89-8.42,0-3.09,2.61-4.58,5.41-4.58a8.61,8.61,0,0,1,4.09.88c.22,0,.27-.27.51-.27s.27.07.29.34l.37,3.31c0,.19,0,.37-.27.37s-.44-.51-.51-.73A4.65,4.65,0,0,0,31,128.31c-1.92,0-4,.93-4,3.16,0,4.58,9.89,1.9,9.89,8.62,0,2-1.44,5.11-7,5.11-1.8,0-4-.9-4.11-1.34Z" style="fill:#fff"/><path d="M40.92,137.23c0,.64,0,.64.71.64h2c1.94,0,1.44-1.49,1.89-1.49.15,0,.21.21.21.35,0,.65,0,1.29,0,1.89s0,1,0,1.48c0,.17-.07.24-.21.24-.58,0,.06-1.64-1.51-1.64H41.25c-.39,0-.34.32-.34.6v3.44c0,1.1-.15,1.55,1.42,1.55,4.32,0,5-1.92,5.19-1.92s.15.19.15.22a3,3,0,0,1-.93,1.81c-.6.67-1,.64-1.83.64-1.42,0-2.84-.11-4.26-.07-.75,0-1.53.07-2.28.07-.17,0-.28,0-.28-.19s.22-.19.82-.49.52-.75.52-1.62V134.2c0-.84,0-1.74-1-1.89-.15,0-.56-.07-.56-.3s.11-.22.65-.22c3.53,0,4.5.07,5.29.07.37,0,2.09-.07,2.67-.07.15,0,.19.19.19.41,0,2.07-.26,2.22-.37,2.22-.45,0-.15-.9-.45-1.33-.49-.64-2.43-.52-3.18-.52-1.79,0-1.76-.07-1.76,1.18Z" style="fill:#fff"/><path d="M52.46,133.68c0-.13.07-.84-.19-.86h-3c-1.16,0-1.2.28-1.53,1.31-.06.19-.07.43-.32.43s-.19-.13-.19-.22l.21-1.81c0-.22,0-.73.34-.73,1.46,0,2.9.07,5.31.07,3.38,0,5.1-.07,5.47-.07s.52.11.54.54l.09,1.5c0,.19,0,.41-.21.41-.69,0,.32-1.42-1.59-1.42H54.69c-.84,0-.75-.07-.75.92v9.53c0,1.57,1.51,1,1.51,1.53,0,.06,0,.22-.17.22-.45,0-1-.07-1.51-.07a25.15,25.15,0,0,0-2.56.07c-.17,0-.22-.06-.22-.24,0-.45,1.48-.26,1.48-1.38Z" style="fill:#fff"/><path d="M61.11,133.4c0-1.36-1.51-1-1.51-1.4,0-.17,0-.21.19-.21.69,0,1.36.07,2.06.07s1.16-.07,1.74-.07c.3,0,.35,0,.35.19,0,.45-1.35,0-1.35,1.42v10c0,1.27,1.66.84,1.66,1.4,0,.13-.06.19-.37.19s-1.23-.07-2-.07c-1.14,0-1.53.07-1.79.07s-.39-.09-.39-.28c0-.54,1.46.07,1.46-1.77Z" style="fill:#fff"/><path d="M80.32,143.3c.09,1.57,1.48.88,1.48,1.53,0,.19-.24.19-.45.19-.36,0-1-.07-1.76-.07-.58,0-1.18.07-1.64.07-.17,0-.21-.09-.21-.17,0-.56,1.18-.15,1.16-1.53l-.19-7.25c0-.47-.09-.73-.21-.73s-.3.17-.49.56l-3.87,7.88c-.09.17-.39.93-.58.93s-.32-.41-.37-.54l-4-8.33c-.06-.15-.15-.21-.22-.21s-.11.09-.13.28l-.22,6.56c-.09,2.48,1.68,1.66,1.68,2.34,0,.19-.2.21-.47.21s-1.08-.07-1.64-.07c-1,0-1.29.07-1.63.07-.13,0-.19-.09-.19-.22,0-.64,1.2.13,1.33-1.81.22-3,.45-5,.45-7,0-4.39-1.77-3.34-1.77-4,0-.17.15-.21.32-.21.34,0,.67.07,1,.07s.67-.07,1-.07.3.32.39.52l4.45,9.49c.2.39.28.56.41.56s.28-.39.58-1L79,132.43c.11-.21.26-.65.49-.64s.79.07.88.07c.43,0,.6-.07.9-.07a.21.21,0,0,1,.19.22c0,.6-1.49-.21-1.42,2Z" style="fill:#fff"/><path d="M82.56,138.33a6.64,6.64,0,0,1,6.86-6.71,6.5,6.5,0,0,1,6.75,6.61c0,4.2-2.9,6.91-7.06,6.91S82.56,142.27,82.56,138.33Zm1.36-.54c0,3.46,2.26,6.8,6,6.8,2.73,0,4.91-2.19,4.91-5.64s-2.3-6.71-5.94-6.71C85.72,132.24,83.93,134.84,83.93,137.79Z" style="fill:#fff"/><path d="M101.18,108.48c.91,0,1.77.11,2.69.11s1.56-.11,2.31-.11c.38,0,.48.05.48.21,0,.59-1.77.05-1.77,1.88V123.8c0,1.72,2.15,1.13,2.15,1.88,0,.16-.05.21-.48.21s-1.61-.05-2.69-.05c-1.5,0-2,.05-2.36.05s-.48-.11-.48-.38c0-.7,1.88.11,1.88-2.31V110.58c0-1.77-2-1.29-2-1.83C100.92,108.54,101,108.48,101.18,108.48Z" style="fill:#fff"/><path d="M62.17,116.49c2.58,0,1.93-2,2.53-2,.16,0,.27.27.27.48,0,.86-.05,1.67-.05,2.47,0,.65.05,1.29.05,1.93,0,.21-.11.32-.27.32-.75,0,.05-2.15-2-2.15H59.06c-.54,0-.43.43-.43.81v4.51c0,1.45-.22,2,1.83,2,5.7,0,6.56-2.53,6.88-2.53.16,0,.16.21.16.27a4.13,4.13,0,0,1-1.18,2.42c-.81.86-1.34.81-2.42.81-1.88,0-3.76-.11-5.64-.05-1,0-2,.05-3,.05-.21,0-.38-.05-.38-.21.05-.32.32-.27,1.07-.65s.7-1,.7-2.15V111.65c0-1.13,0-2.31-1.29-2.47-.21-.05-.75-.11-.75-.43,0-.16.16-.27.86-.27,4.62,0,5.91.11,7,.11.48,0,2.74-.11,3.49-.11.22,0,.27.21.27.54,0,2.74-.38,2.9-.48,2.9-.59,0-.21-1.18-.59-1.72-.64-.86-3.22-.7-4.19-.7-2.36,0-2.31-.11-2.31,1.56v4.57c0,.86-.05.86.91.86Z" style="fill:#fff"/><path d="M67.6,108.48c.43,0,.81.11,1.18.11s.75-.11,1.13-.11.48.38.64.54l11.77,13.11c.11.16.21.27.27.27s.11-.11.11-.27V111.81c0-3.22-2.74-2.26-2.74-3.12,0-.16.11-.21.27-.21.7,0,1.45.11,2.2.11s1.93-.11,2.53-.11a.2.2,0,0,1,.21.21c0,.64-1.45.21-1.45,2v14.24c0,.75,0,1.07-.21,1.07s-.43-.11-.91-.7L72,113.37c-.05,0-.38-.43-.54-.43s-.16.05-.16.54v10.1c0,2.2,2.15,1.34,2.15,2,0,.16,0,.32-.27.32-.59,0-1.29-.05-2.47-.05-.86,0-2.15.05-2.31.05-.32,0-.32-.11-.32-.27,0-.86,2.15.21,2.15-3.22v-9.08c0-5.1-3-3.71-3-4.62C67.28,108.59,67.49,108.48,67.6,108.48Z" style="fill:#fff"/><path d="M87.81,109.82c-1.56,0-1.61.38-2,1.72-.11.27-.11.59-.43.59-.16,0-.22-.21-.22-.32l.27-2.36c0-.32,0-1,.43-1,1.93,0,3.82.11,7,.11,4.46,0,6.72-.11,7.2-.11s.7.16.75.7l.11,2c0,.21.05.54-.27.54-.91,0,.43-1.88-2.1-1.88H95c-.91,0-1,.05-1,1.18v12.57c0,2.1,2,1.29,2,2,0,.05.05.27-.21.27-.59,0-1.29-.05-2-.05-2.74,0-3.22.05-3.38.05s-.27-.05-.27-.32c0-.59,1.93-.32,1.93-1.83V111c0-.16.05-1.13-.32-1.13Z" style="fill:#fff"/><path d="M47.18,124.87c-.27.64-.43,1.45-.81,1.45s-.7-1.08-.91-1.56l-6.07-14.4c-.59-1.45-1.93-1-1.93-1.56,0-.21.16-.32.38-.32.75,0,1.5.11,2.26.11s1.61-.11,1.93-.11c.16,0,.32.11.32.21.05.38-1,.38-1,1.29a2.83,2.83,0,0,0,.21,1l4.3,10.1c.59,1.34.7,1.88,1,1.88s.32-.38.48-.7l4.25-10.53A3.46,3.46,0,0,0,52,110c0-1.13-1.61-.7-1.61-1.24,0-.27.16-.32.38-.32.54,0,1.07.11,1.67.11,1.18,0,1.5-.11,1.88-.11s.43.11.43.32c0,.54-.7-.11-1.4,1.56Z" style="fill:#fff"/><path d="M25.63,125.84c-.16,0-1.5.05-2.26.05-1.34,0-2.15-.05-3.22-.05-.91,0-1.77.11-2.69.11-.16,0-.7,0-.7-.32,0-.81,1.93-.48,1.93-1.72a13.28,13.28,0,0,0-1-3.06l-1.07-2.69c-.32-.75-.48-1.24-1.4-1.24H8.06c-.64,0-1.24,0-1.56.7l-2,4.57a2.89,2.89,0,0,0-.27,1.13c0,2.26,2.31,1.29,2.31,2.15,0,.59-.43.48-.86.48-.91,0-1.83-.11-2.74-.11s-1.77.11-2.63.11c-.16,0-.27-.16-.27-.38,0-.65,1.5-.11,2.36-2L10.16,107c1.93-4.14,2-4.67,2.47-4.67s.59,1,.7,1.24l6.77,16.82a22.12,22.12,0,0,0,1.61,3.71,1.93,1.93,0,0,0,1.67,1c.54,0,1-.64,1-1.72V111.11c0-2.53-2-1.72-2-2.42,0-.16.16-.21.32-.21.75,0,1.5.11,2.2.11,1.67,0,3.22-.11,5.37-.11,4.35,0,8.65,3.28,8.65,7.85,0,5.64-2.69,9.56-9.51,9.56C28.1,125.89,26.87,125.84,25.63,125.84Zm.64-15.21v11.71c0,.38-.05,1.56.16,1.77a6.27,6.27,0,0,0,3.81,1.13c3.49,0,6.82-1.88,6.82-7.58,0-5.48-3.65-8.54-8.33-8.6C26.38,109.07,26.28,109.5,26.28,110.63ZM11.55,107l-3.71,7.9c-.21.48,0,.59.43.59h6.45c.75,0,.7-.21.54-.64L12.09,107C11.93,106.55,11.77,106.55,11.55,107Z" style="fill:#fff"/><path d="M135.47,109.18l.11,2c0,.21.05.54-.27.54-.91,0,.43-1.88-2.1-1.88h-3.55c-1,0-1,.05-1,1.18v12.57c0,2.1,2,1.29,2,2,0,.05.05.27-.22.27-.59,0-1.29-.05-2-.05-2.74,0-3.22.05-3.39.05s-.27-.05-.27-.32c0-.59,1.93-.32,1.93-1.83V111c0-.16.05-1.13-.32-1.13h-5.1c-1.5,0-1.45.54-1.45,1.4,0,.27.21,1.34-.27,1.34-.27,0-.43-.54-.54-.75-.75-2.1-2.47-2.85-4.62-2.85-2,0-4,1-4,3.22,0,4.62,10,1.93,10,8.7,0,2.1-1.45,5.21-7,5.21-1.83,0-4.08-.91-4.19-1.4l-.59-3.17c-.11-.48,0-.75.27-.75s.32.32.48.81a5.24,5.24,0,0,0,5.16,3.71c2.36,0,4.62-1.29,4.62-3.92,0-4.73-10-2.1-10-8.49,0-3.12,2.63-4.62,5.48-4.62a9.22,9.22,0,0,1,4.14.86c.38,0,.43-.64.91-.64,1.93,0,4.67.11,7.84.11,4.46,0,6.72-.11,7.2-.11S135.42,108.64,135.47,109.18Z" style="fill:#fff"/><path d="M144.87,120c-.25-.56-.39-.93-1.08-.93h-5.4c-.47,0-.91,0-1.15.52L135.67,123a2.53,2.53,0,0,0-.17.86c0,1.72,1.74,1,1.74,1.62,0,.44-.34.37-.66.37-.69,0-1.37-.1-2.06-.1s-1.33.1-2,.1c-.15,0-.22-.12-.22-.27,0-.52,1.15-.1,1.79-1.5L140,111.59c1.45-3.09,1.52-3.49,1.84-3.49s.44.71.52.91l5.11,12.64a15.57,15.57,0,0,0,1.23,2.8c.74,1.13,2.16.59,2.16,1.2,0,.22-.17.22-.34.22-1,0-2-.1-3-.1-.66,0-1.33.1-2,.1-.15,0-.54,0-.54-.25,0-.59,1.47-.34,1.47-1.28a10.24,10.24,0,0,0-.76-2.33Zm-6.63-2.46c-.17.34,0,.44.32.44h4.86c.54,0,.52-.17.39-.49l-2.41-5.92c-.12-.29-.25-.29-.39,0Z" style="fill:#fff"/><path d="M8.68,132.83c0-1-.82-.7-.82-1,0-.07.08-.1.14-.1.31,0,.6,0,.9,0,.66,0,1.31,0,2.18,0A3.42,3.42,0,0,1,14.6,135c0,2.31-1.09,3.9-3.87,3.9-.51,0-1,0-1.53,0l-1.12,0c-.08,0-.1,0-.1-.1,0-.23.71,0,.71-.93Zm.79,4.57c0,.16,0,.64.06.73a2.52,2.52,0,0,0,1.54.45c1.42,0,2.78-.76,2.78-3.08a3.26,3.26,0,0,0-3.39-3.5c-1,0-1,.16-1,.63Z" style="fill:#fff"/><path d="M15.43,135.26a3.56,3.56,0,0,1,3.68-3.6,3.49,3.49,0,0,1,3.62,3.55,3.55,3.55,0,0,1-3.79,3.71A3.39,3.39,0,0,1,15.43,135.26Zm.73-.29a3.4,3.4,0,0,0,3.2,3.65,2.74,2.74,0,0,0,2.64-3,3.38,3.38,0,0,0-3.19-3.6A2.72,2.72,0,0,0,16.16,135Z" style="fill:#fff"/><path d="M51.57,93.69c0-1.08-1.2-.79-1.2-1.11,0-.13,0-.16.15-.16.55,0,1.08.06,1.63.06s.92-.06,1.38-.06c.24,0,.28,0,.28.15,0,.36-1.07,0-1.07,1.13v8c0,1,1.32.67,1.32,1.11,0,.1,0,.15-.3.15s-1-.06-1.62-.06c-.9,0-1.22.06-1.42.06s-.31-.07-.31-.22c0-.43,1.16.06,1.16-1.41Z" style="fill:#fff"/><path d="M65.6,97.4c.12,0,.4-.06.4.13s-.76,0-.76,1v3c-1.53.49-1.93,1.5-4.57,1.5a4.93,4.93,0,0,1-5.31-5.32,5.3,5.3,0,0,1,5.55-5.41c2.56,0,3.31,1,3.72,1,.16,0,.22-.27.39-.27s.15.22.16.34l.15,1.94c0,.12,0,.27-.16.27-.39,0-1.05-2.86-4.55-2.86-2.67,0-4,2.25-4,4.7,0,2.62,1.51,5.13,4.37,5.13,1.35,0,3.08-.67,3.08-1.93v-2.3c0-.7-1.29-.39-1.29-.76,0-.19.21-.16.34-.16Z" style="fill:#fff"/><path d="M74.89,101.3c1.07,1.63,1.79,1.08,1.79,1.44,0,.18-.83.18-1,.18-1.08,0-1.66-.76-2.22-1.6l-1.65-2.59c-.53-.83-.31-.79-2-.79-.47,0-.39.27-.39.42v3.13c0,1.27,1.54.82,1.54,1.32,0,.15-.13.12-.25.12s-.47-.06-1.71-.06c-.56,0-1.13.06-1.69.06a.15.15,0,0,1-.15-.16c0-.37,1.08-.16,1.08-1.29V93.92c0-1.42-1.28-.82-1.28-1.32,0-.09.12-.18.3-.18a8.38,8.38,0,0,0,.95.06c.86,0,1.7-.06,2.48-.06.24,0,3.51-.3,3.51,2.56a2.87,2.87,0,0,1-1.87,2.57Zm-5.4-4.08c0,.28.92.21,1.62.21a1.93,1.93,0,0,0,2.06-2.11c0-1.81-1.38-2.42-2.83-2.42-.53,0-.85,0-.85.55Z" style="fill:#fff"/><path d="M79.16,96.73c0,.5,0,.5.56.5h1.6c1.54,0,1.14-1.19,1.5-1.19.12,0,.16.16.16.28,0,.52,0,1,0,1.5s0,.77,0,1.17c0,.13-.06.19-.16.19-.46,0,0-1.3-1.2-1.3h-2.2c-.31,0-.27.25-.27.47v2.73c0,.88-.12,1.23,1.13,1.23,3.43,0,3.93-1.53,4.12-1.53s.12.15.12.18a2.34,2.34,0,0,1-.74,1.44c-.47.53-.8.5-1.45.5-1.13,0-2.25-.09-3.38-.06-.59,0-1.22.06-1.81.06-.13,0-.22,0-.22-.15s.18-.15.65-.39.41-.59.41-1.29V94.33c0-.67,0-1.38-.8-1.5-.12,0-.45-.06-.45-.24s.09-.18.52-.18c2.8,0,3.57.06,4.2.06.3,0,1.66-.06,2.12-.06.12,0,.15.15.15.33,0,1.65-.21,1.76-.3,1.76-.36,0-.12-.71-.36-1.05-.38-.5-1.93-.42-2.52-.42-1.42,0-1.39-.06-1.39.93Z" style="fill:#fff"/><path d="M87.58,94c0-1.48-1.44-1-1.44-1.44,0-.12.08-.16.22-.16.62,0,.93.06,1.6.06s1-.06,1.38-.06c.15,0,.28,0,.28.21,0,.33-.87-.09-.87,1.07v7.87c0,2.31-1.27,4.12-2.88,4.12-.46,0-.58-.1-.58-.53,0-.21.12-.83.33-.83s.5.59.92.59c.62,0,1-.85,1-2.15Z" style="fill:#fff"/><path d="M97.37,99.37c-.15-.34-.24-.56-.65-.56H93.46c-.28,0-.55,0-.7.31l-.95,2.08a1.51,1.51,0,0,0-.1.52c0,1,1.05.59,1.05,1s-.21.22-.4.22c-.41,0-.83-.06-1.25-.06s-.8.06-1.19.06c-.09,0-.13-.07-.13-.16,0-.31.7-.06,1.08-.9l3.54-7.56c.87-1.87.92-2.11,1.11-2.11s.27.43.31.55l3.08,7.64a9.4,9.4,0,0,0,.74,1.69c.44.68,1.3.36,1.3.73,0,.13-.1.13-.21.13-.61,0-1.22-.06-1.82-.06-.4,0-.8.06-1.2.06-.09,0-.33,0-.33-.15,0-.36.89-.21.89-.77a6.2,6.2,0,0,0-.46-1.41Zm-4-1.48c-.1.21,0,.27.19.27H96.5c.33,0,.31-.1.24-.3l-1.45-3.57c-.07-.18-.15-.18-.24,0Z" style="fill:#fff"/><path d="M101.47,130.43c0-2.48-2-1.7-2-2.36,0-.17.19-.24.34-.24.75,0,1.46.1,2.19.1,1.6,0,3.18-.1,5.27-.1,4.3,0,8.53,3.25,8.53,7.75,0,5.59-2.65,9.45-9.37,9.45-1.24,0-2.48-.1-3.72-.1L100,145c-.19,0-.24-.1-.24-.24,0-.56,1.72,0,1.72-2.26Zm1.92,11.08c0,.39-.07,1.55.15,1.77.8.8,2.65,1.09,3.74,1.09,3.45,0,6.73-1.85,6.73-7.46,0-5.39-3.59-8.45-8.21-8.48-2.31,0-2.41.39-2.41,1.53Z" style="fill:#fff"/><path d="M118.94,133.4c0-1.36-1.51-1-1.51-1.4,0-.17,0-.21.19-.21.69,0,1.36.07,2.05.07s1.16-.07,1.74-.07c.3,0,.35,0,.35.19,0,.45-1.34,0-1.34,1.42v10c0,1.27,1.66.84,1.66,1.4,0,.13-.06.19-.37.19s-1.23-.07-2-.07c-1.14,0-1.53.07-1.79.07s-.39-.09-.39-.28c0-.54,1.46.07,1.46-1.77Z" style="fill:#fff"/><path d="M131.19,140.55c-.19-.43-.3-.71-.82-.71h-4.11c-.36,0-.69,0-.88.39l-1.2,2.62a1.9,1.9,0,0,0-.13.65c0,1.31,1.33.75,1.33,1.23s-.26.28-.5.28c-.52,0-1-.07-1.57-.07s-1,.07-1.49.07c-.11,0-.17-.09-.17-.21,0-.39.88-.07,1.36-1.14l4.47-9.53c1.1-2.35,1.16-2.65,1.4-2.65s.34.54.39.69l3.89,9.62a11.92,11.92,0,0,0,.93,2.13c.56.86,1.64.45,1.64.92,0,.17-.13.17-.26.17-.77,0-1.53-.07-2.3-.07-.5,0-1,.07-1.51.07-.11,0-.41,0-.41-.19,0-.45,1.12-.26,1.12-1a7.84,7.84,0,0,0-.58-1.78Zm-5-1.87c-.13.26,0,.34.24.34h3.7c.41,0,.39-.13.3-.37l-1.83-4.5c-.09-.22-.19-.22-.3,0Z" style="fill:#fff"/><path d="M41.39,130.67,44.12,128a1.07,1.07,0,0,1,.76-.43.66.66,0,0,1,.59.69c0,.44-.7.74-1,.94L42,130.67Z" style="fill:#fff"/><path d="M147.21,104.43a2.47,2.47,0,0,1,0,4.94,2.34,2.34,0,0,1-1.88-.87,2.47,2.47,0,0,1,0-3.2A2.37,2.37,0,0,1,147.21,104.43Zm0,.27a2.19,2.19,0,1,0,1.55.64A2.11,2.11,0,0,0,147.21,104.71Zm.31,2.19.55.8.07.1c.17.25.33.38.46.39h.06s.06,0,.06.06-.11.1-.32.1a.81.81,0,0,1-.66-.44l-.52-.78,0,0a.15.15,0,0,0-.14-.07h-.31v.76a.52.52,0,0,0,.06.31.46.46,0,0,0,.29.1c.07,0,.1,0,.1.07s0,.07-.1.07h-1c-.06,0-.09,0-.09-.07s0-.06.08-.07a.27.27,0,0,0,.2-.14,1.38,1.38,0,0,0,0-.44v-1.68c0-.2-.07-.3-.21-.32h-.1c-.06,0-.09,0-.09-.08s0-.07.1-.07H147q1,0,1,.73A.8.8,0,0,1,147.52,106.9Zm-.65-.09h.23a.47.47,0,0,0,.54-.53.56.56,0,0,0-.21-.45.73.73,0,0,0-.5-.18c-.12,0-.19,0-.19.15v.89a.19.19,0,0,0,0,.1A.16.16,0,0,0,146.86,106.81Z" style="fill:#fff"/><path d="M119.38,68.67a2.47,2.47,0,0,1,0,4.94,2.34,2.34,0,0,1-1.88-.87,2.47,2.47,0,0,1,0-3.2A2.37,2.37,0,0,1,119.38,68.67Zm0,.27a2.19,2.19,0,1,0,1.55.64A2.11,2.11,0,0,0,119.38,68.94Zm.31,2.19.55.8.07.1c.17.25.33.38.46.39h.07s.06,0,.06.06-.11.1-.32.1a.81.81,0,0,1-.66-.44l-.52-.78,0,0a.15.15,0,0,0-.14-.07h-.31V72a.51.51,0,0,0,.06.31.46.46,0,0,0,.29.1c.07,0,.1,0,.1.07s0,.07-.1.07h-1c-.06,0-.09,0-.09-.07s0-.06.08-.07a.27.27,0,0,0,.2-.14,1.35,1.35,0,0,0,0-.44V70.18c0-.2-.07-.3-.21-.32h-.1c-.06,0-.09,0-.09-.08s0-.07.1-.07h.95c.66,0,1,.24,1,.73A.79.79,0,0,1,119.69,71.13ZM119,71h.23a.47.47,0,0,0,.54-.53.57.57,0,0,0-.21-.45.73.73,0,0,0-.5-.18c-.12,0-.19,0-.19.15v.89a.18.18,0,0,0,0,.1A.16.16,0,0,0,119,71Z" style="fill:#fff"/></svg>