<svg xmlns="http://www.w3.org/2000/svg" viewBox="0 0 390.21 243.11"><defs><style>.a{fill:#fff;}</style></defs><title>Albanian</title><path class="a" d="M8.88,177v9.59q0,3,.81,4T13.42,192q.76.13.79.55t-.63.5l-1.42-.1q-.87-.08-3.12-.08l-2.1,0-1.86.05q-1.1,0-1.44,0-1.39.13-1.57.13-.86,0-.86-.61,0-.41.76-.49a2.59,2.59,0,0,0,2.27-1.55,12.13,12.13,0,0,0,.64-4.68V163.4a9,9,0,0,0-.6-3.93A3.2,3.2,0,0,0,2,158l-1.28-.26q-.68-.15-.68-.54,0-.54.71-.54a6.11,6.11,0,0,1,.94.09,35.92,35.92,0,0,0,4.19.17l1,0,2-.05q.79,0,1.36,0,1-.1,1.26-.1.63,0,.63.49,0,.36-.63.61a3.87,3.87,0,0,0-2.08,1.61A9.63,9.63,0,0,0,8.88,163v10.22q0,.55.24.55l.42-.29.39-.31,11.25-10.07q2.59-2.3,2.59-3.69,0-1.2-1.89-1.54-1.21-.18-1.21-.67c0-.36.27-.54.81-.54l.71,0q1.1.08,2.47.08l2.42.06,2,0a21.12,21.12,0,0,0,2.18-.07,6.76,6.76,0,0,1,.81-.09q.71,0,.76.51t-1.26.72q-2.36.6-9,6.62l-9,8.11a1.6,1.6,0,0,0-.6.84q0,.39.63,1.1l13.65,14.28A9.06,9.06,0,0,0,32,191.64l1.15.24q.6.13.6.51,0,.64-.81.59a4.93,4.93,0,0,1-.63-.05,19.12,19.12,0,0,0-2.25-.08q-1.57,0-2.27.05c-.52,0-.92.05-1.2.05a2,2,0,0,1-1.54-.71l-.45-.5L10.51,177.25l-.53-.58a.94.94,0,0,0-.63-.29Q8.88,176.39,8.88,177Z"/><path class="a" d="M41,171.78v14.61a12.41,12.41,0,0,0,.33,3.61,3,3,0,0,0,1,1.41,4.19,4.19,0,0,0,1.8.59q1,.13,1,.48c0,.31-.2.46-.6.46a5.33,5.33,0,0,1-.74-.07,16.76,16.76,0,0,0-2.06-.09l-2.82,0-2.3.14q-.56.06-.94.06-.53,0-.53-.4t.6-.44a2.53,2.53,0,0,0,1.91-1,7.86,7.86,0,0,0,.43-3.25v-16.7a6.49,6.49,0,0,0-.56-3.26,3.36,3.36,0,0,0-2.37-1.13q-.6-.11-.62-.46c0-.28.18-.42.57-.42l.35,0a32.49,32.49,0,0,0,3.78.17q1.44,0,2.47-.07l1.31-.11.49,0q.53,0,.53.36c0,.23-.17.4-.51.51l-1,.39Q41,167.66,41,171.78Z"/><path class="a" d="M56.26,165.57a9.14,9.14,0,0,1,3.53.6l1.34.56a.85.85,0,0,0,.35.08.73.73,0,0,0,.47-.19l.27-.23a.26.26,0,0,1,.21-.08q.49,0,.49,1,0,.33.25,2l.31,2a7.79,7.79,0,0,1,.1.8q0,.6-.42.6t-.64-.94a6.54,6.54,0,0,0-2.85-3.48,8.73,8.73,0,0,0-4.79-1.37,5.11,5.11,0,0,0-3.5,1.24A4,4,0,0,0,50,171.19,4.5,4.5,0,0,0,50.9,174a5.17,5.17,0,0,0,1.74,1.48,48.27,48.27,0,0,0,4.64,1.7q7.2,2.36,7.2,7.73a7.55,7.55,0,0,1-2.65,6,10,10,0,0,1-6.8,2.32,14.37,14.37,0,0,1-3.3-.43,8.38,8.38,0,0,1-2.64-1,1.23,1.23,0,0,1-.47-.5,9.36,9.36,0,0,1-.35-1.35l-.49-1.77a10.5,10.5,0,0,1-.51-2.49q0-.58.4-.56t.63,1a7.56,7.56,0,0,0,3,4.06,8.15,8.15,0,0,0,4.9,1.64,6.76,6.76,0,0,0,4.54-1.58,4.87,4.87,0,0,0,1.86-3.84,4.64,4.64,0,0,0-1.71-3.65,19.57,19.57,0,0,0-5.06-2.16,16.31,16.31,0,0,1-6.12-3.23,6.17,6.17,0,0,1-1.8-4.6,6.42,6.42,0,0,1,2.35-5.14A9,9,0,0,1,56.26,165.57Z"/><path class="a" d="M75.78,178.16H87.27a2.35,2.35,0,0,0,1.09-.16q.23-.16.23-.7v-6.67a5.76,5.76,0,0,0-.52-2.85,2.82,2.82,0,0,0-1.9-1.15c-.39-.08-.58-.23-.56-.46s.18-.32.49-.32.71,0,1.33.1a25.91,25.91,0,0,0,2.73.14,24.35,24.35,0,0,0,2.92-.12,6.08,6.08,0,0,1,.72-.08q.47,0,.47.38t-.47.4l-.8.18a1.53,1.53,0,0,0-1,.87,3.55,3.55,0,0,0-.41,1.72v18.84a5.14,5.14,0,0,0,.58,2.88,3,3,0,0,0,2.24,1q.6.08.62.38,0,.46-.55.46a6.91,6.91,0,0,1-1-.1,15,15,0,0,0-1.95-.08l-1.44,0-1.46,0q-.35,0-.93.06l-1.34.1q-.49,0-.47-.38t.66-.44q2-.35,2-3.34l0-.76v-7.16c0-.61-.06-1-.18-1.07a2.39,2.39,0,0,0-1.17-.16H75.78a2.59,2.59,0,0,0-1.38.22q-.27.22-.27,1.14v7.15a4.73,4.73,0,0,0,.64,2.84,3.42,3.42,0,0,0,2.4,1c.48.05.73.22.74.5s-.18.4-.56.4a9.17,9.17,0,0,1-1-.09,18.62,18.62,0,0,0-2.34-.09l-1.64,0-1.29,0q-.49,0-1.23.07c-.68.06-1.08.09-1.23.09q-.49,0-.49-.36t.51-.46l1-.23a1.62,1.62,0,0,0,1.17-1.29,15.93,15.93,0,0,0,.31-3.83V170a3.79,3.79,0,0,0-.64-2.46,3.65,3.65,0,0,0-2.3-1c-.38-.05-.56-.19-.56-.42s.17-.39.51-.38.64.05,1.17.12a31.74,31.74,0,0,0,3.57.17,20.28,20.28,0,0,0,2.59-.16,6,6,0,0,1,.82-.08q.56,0,.56.4t-.53.44a3,3,0,0,0-1.75.95,3.6,3.6,0,0,0-.45,2.06v7q0,1.11.22,1.33A2.67,2.67,0,0,0,75.78,178.16Z"/><path class="a" d="M112.61,182.52h-7.05a4.05,4.05,0,0,0-1.79.23,4.24,4.24,0,0,0-.93,1.56l-1.28,2.87a8.33,8.33,0,0,0-.87,2.93,1.7,1.7,0,0,0,.46,1.33,4.22,4.22,0,0,0,1.8.7q.58.11.6.46c0,.21-.17.32-.54.32l-.66,0-1.87-.11q-.93,0-2.16,0-.56,0-.87,0l-1.09.11c-.35,0-.52-.12-.52-.36a.41.41,0,0,1,.33-.42l.72-.21a2.76,2.76,0,0,0,1.05-.94A8.92,8.92,0,0,0,99,189.22l.57-1.29,10-22.24q.25-.58.57-.59t.53.57l8.38,21.46.43,1.05a9.44,9.44,0,0,0,1.52,2.94,5,5,0,0,0,2.46.91q.6.11.58.48t-.55.32l-.74,0q-1-.1-3.6-.1a28.12,28.12,0,0,0-3.39.12,3.63,3.63,0,0,1-.6.08q-.51,0-.51-.4c0-.2.16-.34.49-.4l.6-.14a1.18,1.18,0,0,0,1-1.33,15,15,0,0,0-1.19-4.12l-1-2.58a3.41,3.41,0,0,0-.64-1.24A3,3,0,0,0,112.61,182.52Zm.23-3.14-3.06-7.71-.16-.41q-.23-.62-.51-.64c-.09,0-.19.11-.31.37l-3.8,8.44a2.33,2.33,0,0,0-.25.72q0,.51.9.51l.53,0h5.88q1,0,1-.49a1.73,1.73,0,0,0-.1-.45Z"/><path class="a" d="M154.74,179h-9.49a5.45,5.45,0,0,0-2.41.32,5.71,5.71,0,0,0-1.26,2.1l-1.72,3.86a11.21,11.21,0,0,0-1.16,3.94,2.29,2.29,0,0,0,.62,1.79,5.67,5.67,0,0,0,2.42.95q.79.15.81.61t-.73.43l-.89,0-2.51-.15q-1.26-.06-2.9-.06-.76,0-1.18,0l-1.46.15q-.71,0-.71-.48a.55.55,0,0,1,.45-.56l1-.29a3.73,3.73,0,0,0,1.42-1.27,12.08,12.08,0,0,0,1.47-2.32l.76-1.73,13.47-29.92q.34-.79.76-.79t.71.76l11.27,28.87.58,1.42a12.7,12.7,0,0,0,2,3.95,6.79,6.79,0,0,0,3.3,1.22q.81.15.79.64t-.73.44l-1-.05q-1.36-.13-4.85-.13a37.9,37.9,0,0,0-4.56.16,4.8,4.8,0,0,1-.81.1q-.68,0-.68-.54t.66-.54l.81-.18a1.58,1.58,0,0,0,1.31-1.79,20.1,20.1,0,0,0-1.6-5.54l-1.31-3.47a4.55,4.55,0,0,0-.86-1.67A4.06,4.06,0,0,0,154.74,179Zm.31-4.22-4.11-10.38-.21-.55q-.32-.84-.68-.86-.18,0-.42.5l-5.11,11.35a3.14,3.14,0,0,0-.34,1q0,.68,1.21.68l.71,0H154q1.31,0,1.31-.66a2.34,2.34,0,0,0-.13-.6Z"/><path class="a" d="M174.12,170.74a5,5,0,0,0-.66-2.89,2.92,2.92,0,0,0-2.2-1.07q-.64-.06-.64-.4t.51-.38l1.54.08q.23,0,1.36,0,2,0,3.06-.1l1.81-.18q1.17-.1,2.57-.1,8,0,12,4a12.73,12.73,0,0,1,3.64,9.37,14.45,14.45,0,0,1-1.6,6.76,12.24,12.24,0,0,1-4.44,4.85,14.5,14.5,0,0,1-7.83,2.24q-.51,0-1.79-.1-2.61-.18-4.54-.18a26.71,26.71,0,0,0-3.62.21q-.7.1-1.11.12-.68,0-.68-.44,0-.32.55-.44a2.39,2.39,0,0,0,1.71-1,6.86,6.86,0,0,0,.39-2.87Zm3-1.55v20.05a1.64,1.64,0,0,0,1.19,1.63,15.39,15.39,0,0,0,2.64.68,15.58,15.58,0,0,0,2.71.29,11,11,0,0,0,6-1.67q4.51-2.8,4.51-9.53a15.93,15.93,0,0,0-1.41-6.73,11.77,11.77,0,0,0-3.88-4.82,12.27,12.27,0,0,0-7.34-2.16q-3.07,0-3.91.66A2,2,0,0,0,177.1,169.19Z"/><path class="a" d="M203.9,170.68l7.49,17.19c.18.43.35.64.51.62s.36-.37.7-1.11l.31-.72,4.27-10.15q2.76-6.54,2.76-8.41a1.18,1.18,0,0,0-.29-.91,2.68,2.68,0,0,0-1.19-.44q-1.09-.21-1.07-.53t.65-.36l.57,0,1.74.08h.8l.88,0h.49l1.66,0q.39,0,.39.34t-.41.42a3.78,3.78,0,0,0-2.12,2.26l-.53,1.26-9.68,22.68q-.41,1-.79,1t-.83-1L200.32,170a8.78,8.78,0,0,0-1.27-2.2,2.63,2.63,0,0,0-1.54-.8,7.9,7.9,0,0,1-1.2-.28.32.32,0,0,1-.19-.31q0-.38.55-.38l.56,0q.33,0,2,0l1.85,0,1.3,0q.41,0,1.25-.08l.55,0c.35,0,.53.12.53.36s-.13.32-.39.42a3.21,3.21,0,0,0-1,.5,1,1,0,0,0-.2.71A8.14,8.14,0,0,0,203.9,170.68Z"/><path class="a" d="M231.78,169.14V177a2,2,0,0,0,.17,1.08q.16.19,1,.19h3a17.52,17.52,0,0,0,3.23-.23,2.6,2.6,0,0,0,1.36-.56,4,4,0,0,0,.56-1.64q.1-.49.5-.47c.25,0,.38.19.38.52,0,.09,0,.23,0,.43q-.17,1.89-.17,3.44a23.37,23.37,0,0,0,.12,2.35q0,.39,0,.56,0,.49-.38.49a.46.46,0,0,1-.5-.43l-.12-.55a2.56,2.56,0,0,0-.93-1.77,4.46,4.46,0,0,0-2.37-.47h-4.3a2.76,2.76,0,0,0-1.27.19.84.84,0,0,0-.32.78l0,.64v7.18q0,1.66.59,2.07a6.58,6.58,0,0,0,3,.41q7.64,0,9.82-3.45c.15-.22.29-.34.44-.35s.36.16.36.5a5.15,5.15,0,0,1-1.42,3,5.36,5.36,0,0,1-4.33,2.1q-.56,0-1.52-.08-3.72-.35-6.16-.35a33.65,33.65,0,0,0-4.81.23,6.79,6.79,0,0,1-1,.14q-.62,0-.62-.42c0-.22.17-.37.51-.46l.74-.21q1.4-.39,1.4-2.73l0-1.27V171.4a7.76,7.76,0,0,0-.61-3.76,2.61,2.61,0,0,0-2.39-1q-.57,0-.56-.36,0-.53.88-.53a11.73,11.73,0,0,1,1.31.1,61.42,61.42,0,0,0,6.7.31q2.38,0,4.21-.08l2.77-.14q1.15,0,1.4-.08a5.86,5.86,0,0,1,.78-.08q.64,0,.64.56a2.27,2.27,0,0,1-.06.45q-.06.27-.16,1.55l-.08,1.15a7.79,7.79,0,0,1-.2,1.41.44.44,0,0,1-.44.3q-.38,0-.38-.58v-.51a3.07,3.07,0,0,0-.23-1.19,2.05,2.05,0,0,0-1.5-1.17,19.35,19.35,0,0,0-4.14-.29h-3.05a2.63,2.63,0,0,0-1.56.3A1.81,1.81,0,0,0,231.78,169.14Z"/><path class="a" d="M272.34,173.56v16.33a20.29,20.29,0,0,1-.1,2.68.49.49,0,0,1-.55.46.67.67,0,0,1-.45-.18l-.43-.51L254.4,173.56l-.19-.21a.37.37,0,0,0-.27-.12q-.37,0-.37.88v13.22l0,.82.06,1.38a2.79,2.79,0,0,0,.66,1.77,4.08,4.08,0,0,0,2.06.72q.64.08.64.5t-.41.38a4.86,4.86,0,0,1-.58,0q-.21,0-1.69-.12l-2-.1-.93,0a11.27,11.27,0,0,0-1.44.09,6,6,0,0,1-.72.07q-.51,0-.55-.36t.55-.48a4,4,0,0,0,2.21-1.51,6.12,6.12,0,0,0,.57-3.05V174.19a11,11,0,0,0-1.07-5.31,4,4,0,0,0-3.1-2.21q-.53-.08-.53-.44t.43-.36l.31,0,.8,0,1.31,0,.31,0,.72,0a1.34,1.34,0,0,1,1,.56l17.92,20.3q.43.49.54.47c.13,0,.2-.14.21-.37v-9.64l0-2.63-.23-4.48a3.64,3.64,0,0,0-1-2.35,5.66,5.66,0,0,0-2.78-1c-.38-.06-.56-.22-.56-.48s.19-.36.56-.36q.25,0,.82.05a36,36,0,0,0,3.6.14,12.58,12.58,0,0,0,1.93-.12,5.61,5.61,0,0,1,1-.12q.51,0,.55.41c0,.17-.12.29-.39.37a2.31,2.31,0,0,0-1.57,1,5.84,5.84,0,0,0-.38,2.55v2.1Z"/><path class="a" d="M297,168.12h-5.47a1.63,1.63,0,0,0-1.08.23,1.87,1.87,0,0,0-.22,1.15v19.12l0,.76a2.69,2.69,0,0,0,2.55,2.71q.68.11.68.44t-.55.42a7.53,7.53,0,0,1-1-.12,15.61,15.61,0,0,0-1.76-.06l-1.42,0-1.52,0q-.82,0-1.39.06-1.11.12-1.31.12-.59,0-.59-.42t.64-.38a3.1,3.1,0,0,0,2-.83,3.66,3.66,0,0,0,.53-2.27V169.72l0-.51a1.32,1.32,0,0,0-.2-.9,1.5,1.5,0,0,0-.95-.19h-5.16a3.4,3.4,0,0,0-2.29.63,4.52,4.52,0,0,0-1.1,2.39q-.17.76-.53.74t-.35-.52a8.58,8.58,0,0,1,.23-1.5,11.71,11.71,0,0,0,.29-2.31,2.23,2.23,0,0,1,.2-1.17,1,1,0,0,1,.87-.28h21q1.07,0,1.3.23a2.45,2.45,0,0,1,.22,1.38,10.07,10.07,0,0,0,.1,1.67c.06.44.1.76.12,1q0,.58-.41.62t-.47-.6a2.86,2.86,0,0,0-.82-1.8A4,4,0,0,0,297,168.12Z"/><path class="a" d="M308.9,171.78v14.61a12.41,12.41,0,0,0,.33,3.61,3,3,0,0,0,1,1.41,4.19,4.19,0,0,0,1.8.59q1,.13,1,.48t-.6.46a5.33,5.33,0,0,1-.74-.07,16.75,16.75,0,0,0-2.06-.09l-2.82,0-2.3.14c-.38,0-.69.06-.93.06s-.53-.13-.53-.4.2-.37.6-.44a2.53,2.53,0,0,0,1.91-1,7.86,7.86,0,0,0,.43-3.25v-16.7a6.5,6.5,0,0,0-.56-3.26,3.36,3.36,0,0,0-2.37-1.13q-.6-.11-.62-.46c0-.28.18-.42.57-.42l.35,0a32.49,32.49,0,0,0,3.78.17q1.44,0,2.47-.07l1.3-.11.49,0q.53,0,.53.36c0,.23-.17.4-.51.51l-1,.39Q308.9,167.66,308.9,171.78Z"/><path class="a" d="M324.12,165.57a9.13,9.13,0,0,1,3.53.6l1.34.56a.85.85,0,0,0,.35.08.73.73,0,0,0,.47-.19l.27-.23a.26.26,0,0,1,.22-.08q.49,0,.49,1,0,.33.25,2l.31,2a7.79,7.79,0,0,1,.1.8q0,.6-.42.6t-.64-.94a6.54,6.54,0,0,0-2.85-3.48,8.72,8.72,0,0,0-4.79-1.37,5.11,5.11,0,0,0-3.5,1.24,4,4,0,0,0-1.41,3.09,4.5,4.5,0,0,0,.91,2.83,5.17,5.17,0,0,0,1.74,1.48,48.26,48.26,0,0,0,4.64,1.7q7.2,2.36,7.2,7.73a7.55,7.55,0,0,1-2.65,6,10,10,0,0,1-6.8,2.32,14.37,14.37,0,0,1-3.3-.43,8.38,8.38,0,0,1-2.64-1,1.23,1.23,0,0,1-.47-.5,9.36,9.36,0,0,1-.35-1.35l-.49-1.77a10.5,10.5,0,0,1-.51-2.49q0-.58.4-.56t.63,1a7.56,7.56,0,0,0,3,4.06,8.15,8.15,0,0,0,4.9,1.64,6.76,6.76,0,0,0,4.54-1.58,4.87,4.87,0,0,0,1.86-3.84,4.64,4.64,0,0,0-1.71-3.65,19.58,19.58,0,0,0-5.06-2.16,16.31,16.31,0,0,1-6.12-3.23,6.17,6.17,0,0,1-1.8-4.6,6.42,6.42,0,0,1,2.35-5.14A9,9,0,0,1,324.12,165.57Z"/><path class="a" d="M354.66,168.12h-5.47a1.63,1.63,0,0,0-1.08.23,1.87,1.87,0,0,0-.22,1.15v19.12l0,.76a2.69,2.69,0,0,0,2.55,2.71q.68.11.68.44t-.55.42a7.53,7.53,0,0,1-1-.12,15.61,15.61,0,0,0-1.76-.06l-1.42,0-1.52,0q-.82,0-1.39.06-1.11.12-1.31.12-.59,0-.59-.42t.64-.38a3.1,3.1,0,0,0,2-.83,3.66,3.66,0,0,0,.53-2.27V169.72l0-.51a1.32,1.32,0,0,0-.2-.9,1.5,1.5,0,0,0-.95-.19h-5.16a3.4,3.4,0,0,0-2.29.63,4.52,4.52,0,0,0-1.1,2.39q-.17.76-.53.74c-.23,0-.35-.19-.35-.52a8.57,8.57,0,0,1,.23-1.5,11.71,11.71,0,0,0,.29-2.31,2.23,2.23,0,0,1,.2-1.17,1,1,0,0,1,.87-.28h21q1.07,0,1.3.23a2.45,2.45,0,0,1,.22,1.38,10.06,10.06,0,0,0,.1,1.67c.06.44.1.76.12,1q0,.58-.41.62t-.47-.6a2.86,2.86,0,0,0-.82-1.8A4,4,0,0,0,354.66,168.12Z"/><path class="a" d="M366.53,169.14V177a2,2,0,0,0,.17,1.08q.16.19,1,.19h3a17.52,17.52,0,0,0,3.23-.23,2.6,2.6,0,0,0,1.36-.56,4,4,0,0,0,.56-1.64q.1-.49.5-.47c.25,0,.38.19.38.52,0,.09,0,.23,0,.43q-.17,1.89-.17,3.44a23.37,23.37,0,0,0,.12,2.35q0,.39,0,.56,0,.49-.38.49a.46.46,0,0,1-.5-.43l-.12-.55a2.56,2.56,0,0,0-.93-1.77,4.46,4.46,0,0,0-2.37-.47h-4.3a2.76,2.76,0,0,0-1.27.19.84.84,0,0,0-.32.78l0,.64v7.18q0,1.66.59,2.07a6.58,6.58,0,0,0,3,.41q7.64,0,9.82-3.45c.15-.22.29-.34.44-.35s.36.16.36.5a5.15,5.15,0,0,1-1.42,3A5.36,5.36,0,0,1,375,193q-.56,0-1.52-.08-3.72-.35-6.16-.35a33.65,33.65,0,0,0-4.81.23,6.8,6.8,0,0,1-1,.14c-.42,0-.62-.14-.62-.42s.17-.37.51-.46l.74-.21q1.4-.39,1.4-2.73l0-1.27V171.4a7.76,7.76,0,0,0-.61-3.76,2.61,2.61,0,0,0-2.39-1c-.38,0-.57-.12-.57-.36s.29-.53.88-.53a11.73,11.73,0,0,1,1.31.1,61.41,61.41,0,0,0,6.7.31q2.38,0,4.21-.08l2.77-.14q1.15,0,1.4-.08a5.86,5.86,0,0,1,.78-.08q.64,0,.64.56a2.25,2.25,0,0,1-.06.45q-.06.27-.16,1.55l-.08,1.15a7.79,7.79,0,0,1-.2,1.41.44.44,0,0,1-.44.3q-.38,0-.38-.58v-.51a3.08,3.08,0,0,0-.23-1.19,2.05,2.05,0,0,0-1.5-1.17,19.34,19.34,0,0,0-4.14-.29h-3.05a2.63,2.63,0,0,0-1.56.3A1.81,1.81,0,0,0,366.53,169.14Z"/><path class="a" d="M93.23,210.46v22a27.14,27.14,0,0,1-.13,3.6.66.66,0,0,1-.73.62.91.91,0,0,1-.6-.24l-.58-.68L69.1,210.46l-.26-.29a.5.5,0,0,0-.37-.16q-.5,0-.5,1.18V229l0,1.1.08,1.86a3.76,3.76,0,0,0,.89,2.39,5.49,5.49,0,0,0,2.78,1c.58.07.87.29.87.67s-.18.51-.55.51a6.41,6.41,0,0,1-.79-.05q-.29-.05-2.28-.16l-2.67-.13-1.26,0a15,15,0,0,0-1.94.12,8.19,8.19,0,0,1-1,.1q-.68,0-.73-.49t.73-.64a5.36,5.36,0,0,0,3-2,8.24,8.24,0,0,0,.77-4.11V211.3a14.86,14.86,0,0,0-1.44-7.15,5.42,5.42,0,0,0-4.17-3q-.71-.1-.71-.59c0-.32.19-.49.58-.49l.42,0,1.07,0,1.76.05.42,0,1,0a1.8,1.8,0,0,1,1.31.76l24.11,27.31q.58.66.73.63t.29-.5v-13l0-3.54-.32-6a4.9,4.9,0,0,0-1.3-3.16,7.6,7.6,0,0,0-3.73-1.38q-.76-.13-.76-.64t.76-.49c.23,0,.59,0,1.1.07q1.81.19,4.85.19a16.92,16.92,0,0,0,2.59-.16,7.58,7.58,0,0,1,1.28-.16q.68,0,.73.55,0,.34-.52.5a3.11,3.11,0,0,0-2.11,1.31,7.86,7.86,0,0,0-.51,3.43v2.83Z"/><path class="a" d="M107,212.64v7.86a2.05,2.05,0,0,0,.17,1.09q.16.19,1,.19h3a17.53,17.53,0,0,0,3.23-.23,2.6,2.6,0,0,0,1.36-.56,4,4,0,0,0,.56-1.64q.1-.49.5-.47t.38.52c0,.09,0,.23,0,.43q-.17,1.89-.17,3.44a23.36,23.36,0,0,0,.12,2.35c0,.26,0,.45,0,.56q0,.49-.38.49a.46.46,0,0,1-.5-.43l-.12-.55a2.56,2.56,0,0,0-.93-1.77,4.46,4.46,0,0,0-2.37-.47h-4.3a2.76,2.76,0,0,0-1.27.19.84.84,0,0,0-.32.78l0,.64v7.18q0,1.66.59,2.07a6.57,6.57,0,0,0,3,.41q7.65,0,9.82-3.45c.15-.22.29-.34.44-.35s.36.16.36.5a5.15,5.15,0,0,1-1.42,3,5.36,5.36,0,0,1-4.33,2.1q-.56,0-1.52-.08-3.72-.35-6.16-.35a33.7,33.7,0,0,0-4.81.23,6.8,6.8,0,0,1-1,.14c-.42,0-.62-.14-.62-.42s.17-.37.51-.46l.74-.21q1.4-.39,1.4-2.73l0-1.27V214.91a7.76,7.76,0,0,0-.61-3.76,2.62,2.62,0,0,0-2.39-1q-.57,0-.57-.36,0-.53.88-.53a11.7,11.7,0,0,1,1.31.1,61.41,61.41,0,0,0,6.7.31q2.38,0,4.21-.08l2.77-.14q1.15,0,1.4-.08a5.86,5.86,0,0,1,.78-.08q.64,0,.64.56a2.24,2.24,0,0,1-.06.45q-.06.27-.16,1.55l-.08,1.14a7.82,7.82,0,0,1-.2,1.41.44.44,0,0,1-.44.3q-.38,0-.38-.58v-.51a3.08,3.08,0,0,0-.23-1.19,2.05,2.05,0,0,0-1.5-1.17A19.35,19.35,0,0,0,112,211H108.9a2.62,2.62,0,0,0-1.56.3A1.81,1.81,0,0,0,107,212.64Zm.07-10.25q.39,0,1.09.79a2.58,2.58,0,0,1,.74,1.28,2.43,2.43,0,0,1-.67,1.34q-.69.87-1.1.87t-1.13-.87a2.53,2.53,0,0,1-.75-1.3,2.32,2.32,0,0,1,.7-1.3Q106.64,202.39,107.07,202.39Zm7.13,0q.39,0,1.09.8a2.44,2.44,0,0,1,.73,1.27,2.38,2.38,0,0,1-.67,1.35q-.69.86-1.09.86t-1.12-.85a2.62,2.62,0,0,1-.76-1.32,2.21,2.21,0,0,1,.69-1.29Q113.77,202.39,114.2,202.39Z"/><path class="a" d="M149.39,199.71a12.29,12.29,0,0,1,4.74.81l1.81.76a1.15,1.15,0,0,0,.47.1,1,1,0,0,0,.63-.26l.37-.31a.34.34,0,0,1,.29-.1q.66,0,.66,1.28,0,.45.34,2.65l.42,2.7a10.5,10.5,0,0,1,.13,1.07q0,.81-.56.81t-.85-1.26a8.8,8.8,0,0,0-3.83-4.68,11.74,11.74,0,0,0-6.44-1.84,6.88,6.88,0,0,0-4.72,1.67,5.31,5.31,0,0,0-1.89,4.16,6.06,6.06,0,0,0,1.23,3.8,7,7,0,0,0,2.34,2,65.37,65.37,0,0,0,6.24,2.28q9.68,3.17,9.68,10.4a10.16,10.16,0,0,1-3.56,8,13.39,13.39,0,0,1-9.15,3.12,19.3,19.3,0,0,1-4.44-.58,11.27,11.27,0,0,1-3.55-1.34,1.66,1.66,0,0,1-.63-.67,12.65,12.65,0,0,1-.47-1.82q-.05-.21-.66-2.38a14.15,14.15,0,0,1-.68-3.35q0-.79.53-.76t.85,1.29a10.17,10.17,0,0,0,4,5.47,11,11,0,0,0,6.59,2.21,9.09,9.09,0,0,0,6.1-2.12,6.55,6.55,0,0,0,2.5-5.17,6.24,6.24,0,0,0-2.3-4.91q-1.18-1-6.8-2.91-5.81-2-8.23-4.35a8.29,8.29,0,0,1-2.42-6.18,8.64,8.64,0,0,1,3.16-6.91A12.17,12.17,0,0,1,149.39,199.71Z"/><path class="a" d="M172.3,221.66h11.49a2.34,2.34,0,0,0,1.09-.16c.16-.1.23-.34.23-.7v-6.67a5.77,5.77,0,0,0-.52-2.85,2.82,2.82,0,0,0-1.9-1.15c-.39-.08-.58-.23-.56-.46s.18-.32.49-.32.71,0,1.33.1a25.89,25.89,0,0,0,2.73.14,24.41,24.41,0,0,0,2.92-.12,6,6,0,0,1,.72-.08q.47,0,.47.38t-.47.4l-.8.18a1.52,1.52,0,0,0-1,.87,3.54,3.54,0,0,0-.41,1.72v18.84a5.14,5.14,0,0,0,.58,2.88,3,3,0,0,0,2.24,1q.6.08.62.38,0,.46-.55.46a6.85,6.85,0,0,1-1-.1,15,15,0,0,0-1.95-.08l-1.44,0-1.46,0q-.35,0-.93.06l-1.34.1c-.33,0-.48-.11-.47-.38s.23-.37.66-.44q2-.35,2-3.34l0-.76v-7.16c0-.61-.06-1-.18-1.07a2.39,2.39,0,0,0-1.17-.16H172.3a2.59,2.59,0,0,0-1.38.22q-.27.22-.27,1.14v7.15a4.72,4.72,0,0,0,.64,2.84,3.42,3.42,0,0,0,2.4,1c.48.05.73.22.74.5s-.18.4-.57.4a9.28,9.28,0,0,1-1-.09,18.58,18.58,0,0,0-2.34-.09l-1.64,0-1.28,0q-.49,0-1.23.07c-.68.06-1.08.09-1.23.09q-.49,0-.49-.36t.51-.46l1-.23a1.62,1.62,0,0,0,1.17-1.29,15.93,15.93,0,0,0,.31-3.83V213.5A3.79,3.79,0,0,0,167,211a3.65,3.65,0,0,0-2.3-1c-.38-.05-.56-.19-.56-.42s.17-.39.51-.38.64.05,1.17.12a31.74,31.74,0,0,0,3.56.17,20.28,20.28,0,0,0,2.59-.16,6,6,0,0,1,.82-.08q.57,0,.57.4t-.53.44a3,3,0,0,0-1.75.95,3.6,3.6,0,0,0-.45,2.06v7q0,1.11.22,1.33A2.67,2.67,0,0,0,172.3,221.66Z"/><path class="a" d="M200.55,234.48a13.78,13.78,0,0,1-5.79-11.4,14.37,14.37,0,0,1,3.18-9.41q3.78-4.6,10.64-4.6a13.14,13.14,0,0,1,13.73,13.8,14.8,14.8,0,0,1-1.77,7.19,12.51,12.51,0,0,1-4.85,5,15.83,15.83,0,0,1-4.62,1.62q2,1,2.75,1.47l1.81,1.19,1.48,1a5.66,5.66,0,0,0,2.79,1.1,5.83,5.83,0,0,0,2.84-.66,1.59,1.59,0,0,1,.54-.21c.22,0,.34.08.35.29q0,.72-1.84,1.5a9.37,9.37,0,0,1-3.61.78,11.37,11.37,0,0,1-5.51-1.86q-2.84-1.66-3.35-1.93l-3.27-1.74a10.8,10.8,0,0,0-4.28-1.54,3.09,3.09,0,0,0-2.18,1,4,4,0,0,0-1.21,2.32c-.08.47-.24.7-.48.7s-.5-.21-.48-.62a6.1,6.1,0,0,1,1-3A4.65,4.65,0,0,1,200.55,234.48Zm6.87-24.25a8.67,8.67,0,0,0-6.91,3.09,11.91,11.91,0,0,0-2.65,8q0,7.18,4.51,11.29a11,11,0,0,0,7.55,3.06,8.78,8.78,0,0,0,6.94-3,11.58,11.58,0,0,0,2.64-7.92,15.59,15.59,0,0,0-3.52-10.3A10.75,10.75,0,0,0,207.42,210.22Z"/><path class="a" d="M231.93,215.28v14.61a12.42,12.42,0,0,0,.33,3.61,3,3,0,0,0,1,1.41,4.19,4.19,0,0,0,1.8.59q1,.13,1,.48t-.6.46a5.34,5.34,0,0,1-.74-.07,16.74,16.74,0,0,0-2.07-.09l-2.82,0-2.3.14q-.56.06-.93.06-.53,0-.53-.4t.6-.44a2.53,2.53,0,0,0,1.91-1,7.85,7.85,0,0,0,.43-3.25v-16.7a6.49,6.49,0,0,0-.56-3.26,3.36,3.36,0,0,0-2.37-1.13q-.6-.11-.62-.46t.57-.42l.35,0a32.6,32.6,0,0,0,3.78.17q1.44,0,2.47-.07l1.31-.11.49,0q.53,0,.53.36c0,.23-.17.4-.51.51l-1,.39Q231.93,211.16,231.93,215.28Z"/><path class="a" d="M245,212.68v16.26l0,1.89.06,1.64q.22,2.36,1.75,2.75a6.77,6.77,0,0,0,1.62.29q.58,0,.6.34,0,.5-.68.49-.33,0-1.31-.08-.62,0-2,0l-1.38,0-1.52,0a14.13,14.13,0,0,0-1.73.08,9.88,9.88,0,0,1-1.11.1q-.51,0-.51-.38t.64-.46a2.49,2.49,0,0,0,2.07-1.71,17.27,17.27,0,0,0,.56-5.33V216.69a16.25,16.25,0,0,0-.49-5.17q-.49-1.08-2.43-1.29-.53,0-.51-.4t.76-.46a6.78,6.78,0,0,1,1,.1,14.88,14.88,0,0,0,2,.18q1.25,0,3.62-.21,1.23-.1,2-.1a10.54,10.54,0,0,1,6.61,2,6.16,6.16,0,0,1,2.54,5.11,7,7,0,0,1-3.12,6,8.48,8.48,0,0,1-4.95,1.64,8.94,8.94,0,0,1-2.25-.27q-1-.27-1-.57c0-.16.15-.23.37-.23a1.66,1.66,0,0,1,.39.06,5.42,5.42,0,0,0,1.44.14,6.36,6.36,0,0,0,4.48-1.54,5.3,5.3,0,0,0,1.68-4.1,6.21,6.21,0,0,0-2.22-4.89,8.24,8.24,0,0,0-5.62-1.93,1.5,1.5,0,0,0-1.07.29,1.59,1.59,0,0,0-.29,1.11Z"/><path class="a" d="M266.12,212.64v7.86a2.05,2.05,0,0,0,.17,1.09q.17.19,1,.19h3a17.52,17.52,0,0,0,3.23-.23,2.6,2.6,0,0,0,1.36-.56,4,4,0,0,0,.56-1.64q.1-.49.5-.47c.25,0,.38.19.38.52,0,.09,0,.23,0,.43q-.17,1.89-.17,3.44a23.33,23.33,0,0,0,.12,2.35q0,.39,0,.56c0,.32-.13.49-.38.49a.46.46,0,0,1-.5-.43l-.12-.55a2.56,2.56,0,0,0-.93-1.77,4.45,4.45,0,0,0-2.37-.47h-4.3a2.76,2.76,0,0,0-1.27.19.84.84,0,0,0-.32.78l0,.64v7.18q0,1.66.59,2.07a6.58,6.58,0,0,0,3,.41q7.65,0,9.82-3.45c.15-.22.29-.34.44-.35s.36.16.36.5a5.15,5.15,0,0,1-1.42,3,5.36,5.36,0,0,1-4.33,2.1q-.56,0-1.52-.08-3.72-.35-6.16-.35a33.7,33.7,0,0,0-4.81.23,6.8,6.8,0,0,1-1,.14c-.42,0-.62-.14-.62-.42s.17-.37.51-.46l.74-.21q1.4-.39,1.4-2.73l0-1.27V214.91a7.76,7.76,0,0,0-.61-3.76,2.62,2.62,0,0,0-2.39-1q-.57,0-.57-.36,0-.53.88-.53a11.7,11.7,0,0,1,1.31.1,61.41,61.41,0,0,0,6.7.31q2.38,0,4.21-.08l2.77-.14q1.15,0,1.4-.08a5.86,5.86,0,0,1,.78-.08q.64,0,.64.56a2.24,2.24,0,0,1-.06.45q-.06.27-.16,1.55L278,213a7.8,7.8,0,0,1-.2,1.41.44.44,0,0,1-.44.3q-.38,0-.38-.58v-.51a3.08,3.08,0,0,0-.23-1.19,2.05,2.05,0,0,0-1.5-1.17,19.35,19.35,0,0,0-4.14-.29H268a2.62,2.62,0,0,0-1.56.3A1.81,1.81,0,0,0,266.12,212.64Zm.07-10.25q.39,0,1.08.79a2.57,2.57,0,0,1,.74,1.28,2.43,2.43,0,0,1-.67,1.34q-.69.87-1.1.87t-1.13-.87a2.53,2.53,0,0,1-.75-1.3,2.33,2.33,0,0,1,.7-1.3Q265.76,202.39,266.19,202.39Zm7.13,0q.39,0,1.09.8a2.44,2.44,0,0,1,.73,1.27,2.38,2.38,0,0,1-.67,1.35q-.69.86-1.09.86t-1.12-.85a2.61,2.61,0,0,1-.76-1.32,2.21,2.21,0,0,1,.69-1.29Q272.89,202.39,273.32,202.39Z"/><path class="a" d="M296.55,222.84l5.38,7.93.62.93q2.49,3.65,4.6,3.79l.62,0c.23,0,.34.11.33.28s-.3.38-.87.54a7.12,7.12,0,0,1-1.92.24,5.39,5.39,0,0,1-3.15-1,11.46,11.46,0,0,1-2.84-3.15l-4.85-7.4-.27-.43a1.63,1.63,0,0,0-1.52-.8H290.1l-.43.08q-.23.14-.23.63v6.1l0,.78a10.44,10.44,0,0,0,.17,2.3,2.12,2.12,0,0,0,.79,1.1,5,5,0,0,0,2.59.84q.7.08.72.44t-.64.38q-.27,0-1.15-.09t-2.47-.09l-1.87,0-1,0a15.87,15.87,0,0,0-1.6.1q-.76.08-1.05.08-.49,0-.49-.4c0-.19.16-.32.49-.38a2.54,2.54,0,0,0,2-1.41,13,13,0,0,0,.49-4.42v-14l0-2q0-3-2.12-3.39l-.92-.14q-.62-.11-.62-.46c0-.27.22-.4.66-.4l1.36.08q.7.06,1.73.06t3.06-.14q1.56-.1,2.75-.1,4.48,0,6.76,1.69a5.85,5.85,0,0,1,2.28,5Q301.36,220.44,296.55,222.84Zm-5.72-.42H293a5.56,5.56,0,0,0,4-1.41,5.09,5.09,0,0,0,1.46-3.85,6.05,6.05,0,0,0-2-4.66,7.22,7.22,0,0,0-5.08-1.83,2.48,2.48,0,0,0-1.59.38,1.77,1.77,0,0,0-.44,1.38l0,.64V221a1.8,1.8,0,0,0,.24,1.16A1.75,1.75,0,0,0,290.82,222.42Z"/><path class="a" d="M315.62,215.28v14.61a12.42,12.42,0,0,0,.33,3.61,3,3,0,0,0,1,1.41,4.19,4.19,0,0,0,1.8.59q1,.13,1,.48t-.6.46a5.34,5.34,0,0,1-.74-.07,16.74,16.74,0,0,0-2.07-.09l-2.82,0-2.3.14q-.56.06-.93.06-.53,0-.53-.4t.6-.44a2.53,2.53,0,0,0,1.91-1,7.86,7.86,0,0,0,.43-3.25v-16.7a6.49,6.49,0,0,0-.56-3.26,3.36,3.36,0,0,0-2.37-1.13q-.6-.11-.62-.46t.57-.42l.35,0a32.6,32.6,0,0,0,3.78.17q1.44,0,2.47-.07l1.31-.11.49,0q.53,0,.53.36c0,.23-.17.4-.51.51l-1,.39Q315.62,211.16,315.62,215.28Z"/><path class="a" d="M178.39,124.22V118h8.84v-.59c0-6.24-2.88-10.81-22.7-7.38l-32.6,5.81-18.75,26,45-8c13.48-2.31,25.32-2.8,29,7.92V124.22Z"/><path class="a" d="M193.38,141.78c0-8.49,5-14.32,15.25-24.55l7.21-7.21,33,5.81,18.79,26-43.22-7.46C209.72,131.55,197.29,130.56,193.38,141.78Z"/><path class="a" d="M195.21,118c3.27-7,10.22-13.34,14.22-17.34l2.84-2.89c12.1-12.1,14.43-17.11,15.16-25.45,0-.43.66,1.63.84,3.1a26.93,26.93,0,0,1-1.41,13.4c-2.5,7.35-8.41,13.21-16.07,20.88l-8.34,8.3Z"/><path class="a" d="M202.24,16.48c0-.06.2-.1.2,0v9.65c0,8.73-11.22,18.8-15.69,23.24L170.31,65.85c-5.68,5.68-17.06,16.91-12.28,27.73.16.36.3.67-.3.24-1.22-.86-3.06-3.89-3.55-9.43-.88-9.87,5.85-18.71,14.15-27L184,41.69C199.91,25.79,201.46,23,202.24,16.48Z"/><path class="a" d="M186.75,65.89c4.47-4.44,15.69-14.51,15.69-23.24V33c0-.1-.2-.07-.2,0-.77,6.51-2.32,9.31-18.23,25.21L169.45,72.8c-5.29,5.29-10.14,10.84-9.92,19.8.14,5.49,2.9,10,7,11.11,1.71.37,1.6.15,1.2,0-5.86-2.77-5.44-13.36,4-22.84Z"/><path class="a" d="M168.46,51.29C156.36,63.4,154,68.4,153.3,76.74c0,.44-.66-1.63-.84-3.1a26.92,26.92,0,0,1,1.41-13.4c2.5-7.35,8.41-13.21,16.07-20.88L184,25.27C199.91,9.37,201.46,6.57,202.24.06c0-.07.2-.1.2,0V9.72c0,8.73-11.22,18.8-15.69,23.24Z"/><path class="a" d="M193.59,133.81c0,.07-.21.07-.21,0v-9.59h4A20.74,20.74,0,0,0,193.59,133.81Z"/><path class="a" d="M193.62,118c0,.07-.21.07-.21,0v-9.77c0-7.34,7.19-15.27,14.32-22.35l4.63-4.62c3.73-3.73,15.13-15,10.35-25.8-.16-.36-.3-.67.3-.24,1.22.86,3.06,3.89,3.55,9.43.88,9.87-5.85,18.71-14.15,27l-4.27,4.3C197.82,106.25,194.39,110.87,193.62,118Z"/><path class="a" d="M193.61,101c0,.07-.21.08-.21,0V91.13c0-7,6.94-14.54,10.3-17.91L208.93,68c9.48-9.48,9.9-20.07,4-22.84-.41-.17-.51-.4,1.2,0,4.15,1.07,6.91,5.62,7,11.11.22,9-4.55,14.47-9.84,19.76l-4.23,4.23C198.29,89.1,194.41,94.27,193.61,101Z"/><path class="a" d="M267.59,119.49a4.73,4.73,0,0,1,0,9.46,4.48,4.48,0,0,1-3.6-1.67,4.73,4.73,0,0,1,0-6.13A4.53,4.53,0,0,1,267.59,119.49Zm0,.52a4.2,4.2,0,1,0,3,1.23A4.06,4.06,0,0,0,267.59,120Zm.6,4.2,1.05,1.54.13.19q.5.72.89.74h.13c.08,0,.12,0,.12.12s-.22.19-.62.19a1.56,1.56,0,0,1-1.26-.84l-1-1.49-.05-.09a.28.28,0,0,0-.27-.13h-.59l0,.08v1.38a1,1,0,0,0,.13.61.9.9,0,0,0,.55.19c.13,0,.2.06.2.14s-.06.13-.19.13l-.24,0-.5,0h-.59l-.33,0-.2,0c-.11,0-.17,0-.17-.14s0-.11.15-.13a.52.52,0,0,0,.39-.27,2.71,2.71,0,0,0,.08-.85v-3.21c0-.37-.13-.58-.4-.62l-.19,0c-.11,0-.17-.07-.17-.15s.06-.13.18-.13l.29,0H266l.62,0,.56,0c1.27,0,1.9.46,1.9,1.4A1.53,1.53,0,0,1,268.18,124.21Zm-1.25-.17h.44a.9.9,0,0,0,1-1,1.1,1.1,0,0,0-.39-.85,1.39,1.39,0,0,0-1-.35c-.24,0-.37.1-.37.29v1.7a.35.35,0,0,0,0,.19S266.83,124,266.93,124Z"/><path class="a" d="M385.48,156.64a4.73,4.73,0,0,1,0,9.46,4.48,4.48,0,0,1-3.6-1.67,4.73,4.73,0,0,1,0-6.13A4.53,4.53,0,0,1,385.48,156.64Zm0,.52a4.2,4.2,0,1,0,3,1.23A4.06,4.06,0,0,0,385.48,157.16Zm.6,4.2,1.05,1.54.13.19q.5.72.89.74h.13c.08,0,.12,0,.12.12s-.22.19-.62.19a1.56,1.56,0,0,1-1.26-.84l-1-1.49-.05-.09a.29.29,0,0,0-.27-.13h-.59l0,.08v1.38a1,1,0,0,0,.13.61.91.91,0,0,0,.55.19c.13,0,.2.06.2.14s-.06.13-.19.13l-.24,0-.5,0H384l-.33,0-.2,0c-.11,0-.17,0-.17-.14s0-.11.15-.13a.53.53,0,0,0,.39-.27,2.72,2.72,0,0,0,.08-.85v-3.21c0-.37-.13-.58-.4-.62l-.19,0c-.11,0-.17-.07-.17-.15s.06-.13.18-.13l.29,0h.35l.62,0,.56,0c1.27,0,1.9.46,1.9,1.4A1.53,1.53,0,0,1,386.08,161.36Zm-1.25-.17h.44a.9.9,0,0,0,1-1,1.1,1.1,0,0,0-.39-.85,1.39,1.39,0,0,0-1-.35c-.24,0-.37.1-.37.29V161a.35.35,0,0,0,0,.19S384.72,161.19,384.82,161.19Z"/></svg>
