<svg xmlns="http://www.w3.org/2000/svg" viewBox="0 0 423.2 313.28"><defs><style>.a{fill:#fff;}</style></defs><title>Asset 1</title><path class="a" d="M68.9,291.67a62.53,62.53,0,0,1-6.2-2.3,7,7,0,0,1-2.3-2,6.15,6.15,0,0,1-1.2-3.8,5,5,0,0,1,1.9-4.1,7,7,0,0,1,4.7-1.7,11.65,11.65,0,0,1,6.4,1.8,8.65,8.65,0,0,1,3.8,4.7c.3.8.6,1.3.9,1.3s.6-.3.6-.8a6.61,6.61,0,0,0-.1-1.1L77,281c-.2-1.5-.3-2.3-.3-2.6,0-.9-.2-1.3-.7-1.3a.37.37,0,0,0-.3.1l-.4.3a.86.86,0,0,1-.6.3.9.9,0,0,1-.5-.1l-1.8-.8a13.19,13.19,0,0,0-4.7-.8,12,12,0,0,0-8.1,2.7,8.64,8.64,0,0,0-3.1,6.9,8.44,8.44,0,0,0,2.4,6.2c1.6,1.6,4.3,3,8.2,4.3,3.7,1.3,6,2.2,6.8,2.9a6.36,6.36,0,0,1,2.3,4.9,6.67,6.67,0,0,1-2.5,5.2,9.23,9.23,0,0,1-6.1,2.1,11.27,11.27,0,0,1-10.6-7.7c-.2-.8-.5-1.3-.9-1.3s-.5.2-.5.8a11.35,11.35,0,0,0,.7,3.3c.4,1.4.6,2.2.7,2.4a8.89,8.89,0,0,0,.5,1.8,1.87,1.87,0,0,0,.6.7,11.19,11.19,0,0,0,3.5,1.3,18.48,18.48,0,0,0,4.4.6,13.06,13.06,0,0,0,9.1-3.1,10.07,10.07,0,0,0,3.6-8C78.6,297.17,75.3,293.77,68.9,291.67Z"/><path class="a" d="M91.8,311.67a3.8,3.8,0,0,1-1.8-.6,3.16,3.16,0,0,1-1-1.4,13.74,13.74,0,0,1-.3-3.6v-14.6c0-2.7.5-4.3,1.4-4.7l1-.4c.3-.1.5-.3.5-.5a.46.46,0,0,0-.5-.4h-.5l-1.3.1c-.7,0-1.5.1-2.5.1a36.25,36.25,0,0,1-3.8-.2h-.4c-.4,0-.6.1-.6.4s.2.4.6.5a3.84,3.84,0,0,1,2.4,1.1,6.15,6.15,0,0,1,.6,3.3v16.7a7.3,7.3,0,0,1-.4,3.2,2.34,2.34,0,0,1-1.9,1c-.4.1-.6.2-.6.4s.2.4.5.4a3.08,3.08,0,0,0,.9-.1l2.3-.1h2.8a11,11,0,0,1,2.1.1c.3,0,.5.1.7.1.4,0,.6-.2.6-.5C92.8,312,92.5,311.77,91.8,311.67Z"/><path class="a" d="M115.7,307.17a.54.54,0,0,0-.4.3c-1.5,2.3-4.7,3.4-9.8,3.4a6.25,6.25,0,0,1-3-.4q-.6-.45-.6-2.1v-7.7c0-.4.1-.7.3-.8a3.09,3.09,0,0,1,1.3-.2h4.3a4.77,4.77,0,0,1,2.4.5,2.24,2.24,0,0,1,.9,1.8l.1.5c.1.3.2.4.5.4s.4-.2.4-.5v-.6a19.27,19.27,0,0,1-.1-2.4c0-1,.1-2.2.2-3.4v-.4c0-.3-.1-.5-.4-.5s-.4.1-.5.5a3.69,3.69,0,0,1-.6,1.6,3.77,3.77,0,0,1-1.4.6,14.7,14.7,0,0,1-3.2.2h-3a1.6,1.6,0,0,1-1-.2,2,2,0,0,1-.2-1.1v-7.9a1.88,1.88,0,0,1,.3-1.3,2.75,2.75,0,0,1,1.6-.3h3.1a18.16,18.16,0,0,1,4.1.3,2.08,2.08,0,0,1,1.5,1.2,2.54,2.54,0,0,1,.2,1.2v.5c0,.4.1.6.4.6s.4-.1.4-.3a8.79,8.79,0,0,0,.2-1.4l.1-1.1a9,9,0,0,1,.2-1.6c0-.2.1-.3.1-.4a.53.53,0,0,0-.6-.6,2.81,2.81,0,0,0-.8.1,13.8,13.8,0,0,1-1.4.1l-2.8.1c-1.2.1-2.6.1-4.2.1a64.54,64.54,0,0,1-6.7-.3,6.64,6.64,0,0,0-1.3-.1c-.6,0-.9.2-.9.5s.2.4.6.4a2.5,2.5,0,0,1,2.4,1,7.91,7.91,0,0,1,.6,3.8v17.8c0,1.6-.5,2.5-1.4,2.7l-.7.2c-.3.1-.5.2-.5.5s.2.4.6.4a4.59,4.59,0,0,0,1-.1,28.45,28.45,0,0,1,4.8-.2,52.69,52.69,0,0,1,6.2.4,8.64,8.64,0,0,0,1.5.1,5.3,5.3,0,0,0,4.3-2.1,5.62,5.62,0,0,0,1.4-3C116,307.27,115.9,307.17,115.7,307.17Z"/><path class="a" d="M129.5,285.47a21.75,21.75,0,0,0-2.6.1l-1.8.2a25.45,25.45,0,0,1-3.1.1h-1.4l-1.5-.1c-.3,0-.5.1-.5.4s.2.4.6.4a2.93,2.93,0,0,1,2.2,1.1,5.36,5.36,0,0,1,.7,2.9v17.5a6.56,6.56,0,0,1-.4,2.9,2.37,2.37,0,0,1-1.7,1c-.4.1-.5.2-.5.4s.2.5.7.4c.3,0,.6-.1,1.1-.1a35.29,35.29,0,0,1,3.6-.2c1.3,0,2.8.1,4.5.2a15.26,15.26,0,0,0,1.8.1,14.4,14.4,0,0,0,7.8-2.2,12,12,0,0,0,4.4-4.8A13.94,13.94,0,0,0,145,299a13,13,0,0,0-3.6-9.4C138.8,286.77,134.8,285.47,129.5,285.47Zm8.2,24.4a11.32,11.32,0,0,1-6,1.7,15.73,15.73,0,0,1-2.7-.3,12,12,0,0,1-2.6-.7,1.59,1.59,0,0,1-1.2-1.6V289a2.17,2.17,0,0,1,.5-1.6,7.8,7.8,0,0,1,3.9-.7,11.72,11.72,0,0,1,7.3,2.2,13.31,13.31,0,0,1,3.9,4.8,16.39,16.39,0,0,1,1.4,6.7C142.2,304.87,140.7,308.07,137.7,309.87Z"/><path class="a" d="M178.8,311.77a2.7,2.7,0,0,1-2-.9,3,3,0,0,1-.5-2.1l-.1-2.5-.4-10.6-.1-4.7a8.22,8.22,0,0,1,.4-3.2,1.72,1.72,0,0,1,1.4-1.2l.8-.2c.3-.1.4-.2.4-.5s-.1-.4-.4-.4h-.6a10.93,10.93,0,0,1-2,.1h-.6a5.53,5.53,0,0,1-.9-.1.75.75,0,0,0-.5.1,5.56,5.56,0,0,0-.4.8L164.2,306l-.2.4-.2.5c-.1.2-.2.4-.3.4s-.2-.2-.3-.5l-1-2-8.1-17.5-.2-.4c-.4-.8-.8-1.2-1.4-1.2a2,2,0,0,0-.7.1h-3.9c-.3,0-.5.1-.5.4s.2.4.6.5a4.32,4.32,0,0,1,3.1,2.1,11.07,11.07,0,0,1,.9,5.1q0,1.65-.3,7.8l-.3,5.7a8.28,8.28,0,0,1-.7,3.4,2.67,2.67,0,0,1-2,1.3c-.3.1-.5.2-.5.4s.2.4.6.4a1.76,1.76,0,0,0,.6-.1,24.52,24.52,0,0,1,2.7-.2c.8,0,1.9.1,3.4.2h.7c.4,0,.6-.1.6-.4s-.4-.4-1.2-.6c-1.6-.2-2.4-1.5-2.4-3.8s0-4,.1-4.8l.4-9.6,7.3,15.8.4.8a6.42,6.42,0,0,1,.5,1.1c.3.6.6,1,.9,1s.6-.3.8-.9c.1-.1.2-.4.4-.7.3-.6.6-1.3,1.1-2.2,1-2.2,1.5-3.4,1.6-3.7l2-4.1,1.7-3.7c.4-.8,1.1-2.1,2.2-4l.5,12.4.1,3.2a5.14,5.14,0,0,1-.4,2.5,2.38,2.38,0,0,1-1.5,1c-.3.1-.5.2-.5.4s.2.3.6.3c.2,0,1,0,2.3-.1a15.76,15.76,0,0,1,1.9-.1,8.08,8.08,0,0,1,1.6.1l1.5.2h.5c.5,0,.7-.1.7-.4S179.5,311.87,178.8,311.77Z"/><path class="a" d="M202.8,307.17a.54.54,0,0,0-.4.3c-1.5,2.3-4.7,3.4-9.8,3.4a6.25,6.25,0,0,1-3-.4q-.6-.45-.6-2.1v-7.7c0-.4.1-.7.3-.8a3.09,3.09,0,0,1,1.3-.2h4.3a4.77,4.77,0,0,1,2.4.5,2.24,2.24,0,0,1,.9,1.8l.1.5c.1.3.2.4.5.4s.4-.2.4-.5v-.6a19.27,19.27,0,0,1-.1-2.4c0-1,.1-2.2.2-3.4v-.4c0-.3-.1-.5-.4-.5s-.4.1-.5.5a3.69,3.69,0,0,1-.6,1.6,3.77,3.77,0,0,1-1.4.6,14.7,14.7,0,0,1-3.2.2h-3a1.6,1.6,0,0,1-1-.2,2,2,0,0,1-.2-1.1v-7.9a1.88,1.88,0,0,1,.3-1.3,2.75,2.75,0,0,1,1.6-.3H194a18.16,18.16,0,0,1,4.1.3,2.08,2.08,0,0,1,1.5,1.2,2.54,2.54,0,0,1,.2,1.2v.5c0,.4.1.6.4.6s.4-.1.4-.3a8.79,8.79,0,0,0,.2-1.4l.1-1.1a9,9,0,0,1,.2-1.6c0-.2.1-.3.1-.4a.53.53,0,0,0-.6-.6,2.81,2.81,0,0,0-.8.1,13.8,13.8,0,0,1-1.4.1l-2.8.1c-1.2.1-2.6.1-4.2.1a64.54,64.54,0,0,1-6.7-.3,6.64,6.64,0,0,0-1.3-.1c-.6,0-.9.2-.9.5s.2.4.6.4a2.5,2.5,0,0,1,2.4,1,7.91,7.91,0,0,1,.6,3.8v17.8c0,1.6-.5,2.5-1.4,2.7l-.7.2c-.3.1-.5.2-.5.5s.2.4.6.4a4.59,4.59,0,0,0,1-.1,28.45,28.45,0,0,1,4.8-.2,52.69,52.69,0,0,1,6.2.4,8.64,8.64,0,0,0,1.5.1,5.3,5.3,0,0,0,4.3-2.1,5.62,5.62,0,0,0,1.4-3C203.1,307.27,203,307.17,202.8,307.17Z"/><path class="a" d="M232.5,311.87a2.71,2.71,0,0,1-2.2-1,5,5,0,0,1-.6-2.9v-18.8a3.29,3.29,0,0,1,.4-1.7,1.71,1.71,0,0,1,1-.9l.8-.2c.3-.1.5-.2.5-.4s-.2-.4-.5-.4a2.25,2.25,0,0,0-.7.1,21.1,21.1,0,0,1-2.9.1,22.62,22.62,0,0,1-2.7-.1,7.77,7.77,0,0,0-1.3-.1c-.3,0-.5.1-.5.3s.2.4.6.5a2.66,2.66,0,0,1,1.9,1.2,6.54,6.54,0,0,1,.5,2.9v6.7a1,1,0,0,1-.2.7,2.33,2.33,0,0,1-1.1.2H214a3,3,0,0,1-1.4-.2c-.2-.1-.2-.6-.2-1.3v-7a4.81,4.81,0,0,1,.4-2.1,3,3,0,0,1,1.8-.9c.4-.1.5-.2.5-.4s-.2-.4-.6-.4a2.48,2.48,0,0,0-.8.1,21.11,21.11,0,0,1-2.6.2c-1.4,0-2.5-.1-3.6-.2a5.74,5.74,0,0,0-1.2-.1c-.3,0-.5.1-.5.4s.2.4.6.4a3.8,3.8,0,0,1,2.3,1,4,4,0,0,1,.6,2.5v16.7a16.23,16.23,0,0,1-.3,3.8,1.61,1.61,0,0,1-1.2,1.3l-1,.2c-.3.1-.5.2-.5.5a.46.46,0,0,0,.5.4,7.5,7.5,0,0,0,1.2-.1c.5,0,.9-.1,1.2-.1h2.9a11.66,11.66,0,0,1,2.3.1,4.59,4.59,0,0,0,1,.1c.4,0,.6-.1.6-.4s-.3-.4-.7-.5a3.37,3.37,0,0,1-2.4-1,4.84,4.84,0,0,1-.6-2.8v-7.1c0-.6.1-1,.3-1.1s.6-.2,1.4-.2h11.5a2.53,2.53,0,0,1,1.2.2,2,2,0,0,1,.2,1.1v8c0,2-.7,3.1-2,3.3-.4.1-.7.2-.7.4s.1.4.5.4a10.3,10.3,0,0,0,1.3-.1c.4,0,.7-.1.9-.1h2.9a8.2,8.2,0,0,1,1.9.1,4.14,4.14,0,0,0,1,.1c.4,0,.6-.2.5-.5C233.1,312.07,232.9,311.87,232.5,311.87Z"/><path class="a" d="M250.5,285.27a15.62,15.62,0,0,0-5.7,1.1,11.51,11.51,0,0,0-4.6,3,13.26,13.26,0,0,0-2.8,4.4,14.22,14.22,0,0,0-1,5.3,13.33,13.33,0,0,0,3.9,10,14.13,14.13,0,0,0,10.2,3.8,13.56,13.56,0,0,0,10.1-4,14.11,14.11,0,0,0,3.9-10.2,12.74,12.74,0,0,0-3.9-9.6A14.22,14.22,0,0,0,250.5,285.27Zm8.1,23.2a9.57,9.57,0,0,1-7.5,3.3,10.6,10.6,0,0,1-8.4-4,14.71,14.71,0,0,1-3.4-9.9,11.92,11.92,0,0,1,2.7-8.2,9.21,9.21,0,0,1,7.2-3,11.47,11.47,0,0,1,8.8,3.9,14.08,14.08,0,0,1,3.5,9.7A11.18,11.18,0,0,1,258.6,308.47Z"/><path class="a" d="M292.6,276.27c-1.3,0-2.4,0-3.4.1l-2.4.2c-1,.1-2.3.1-4.1.1h-1.8l-2.1-.1c-.5,0-.7.2-.7.5s.3.5.9.5a3.91,3.91,0,0,1,3,1.4,6.59,6.59,0,0,1,.9,3.9v23.6a10,10,0,0,1-.5,3.8,3,3,0,0,1-2.3,1.3c-.5.1-.7.3-.7.6s.3.6.9.6a10.4,10.4,0,0,0,1.5-.2,34.75,34.75,0,0,1,4.9-.3c1.7,0,3.8.1,6.1.2,1.1.1,2,.1,2.4.1a19.43,19.43,0,0,0,10.5-3,17.89,17.89,0,0,0,6-6.5,20,20,0,0,0,2.1-9.1,17,17,0,0,0-4.9-12.6C305.1,278.07,299.7,276.27,292.6,276.27Zm11,32.8a14.83,14.83,0,0,1-8,2.2,17.13,17.13,0,0,1-3.6-.4,34.63,34.63,0,0,1-3.5-.9,2.14,2.14,0,0,1-1.6-2.2v-26.9c0-1.1.2-1.8.7-2.1.7-.6,2.5-.9,5.2-.9a16.48,16.48,0,0,1,9.8,2.9,16.16,16.16,0,0,1,5.2,6.5,20.76,20.76,0,0,1,1.9,9C309.6,302.27,307.6,306.57,303.6,309.07Z"/><path class="a" d="M342.8,285.57a4.59,4.59,0,0,0-1,.1,10.32,10.32,0,0,1-1.9.1c-1.5,0-2.7-.1-3.6-.1a5.38,5.38,0,0,1-.8-.1c-.4,0-.6.1-.6.4s.2.4.6.5a6.34,6.34,0,0,1,2.8,1,4.11,4.11,0,0,1,1,2.3l.2,4.5v12.2c0,.2-.1.4-.2.4s-.3-.1-.5-.5l-17.9-20.3a1.37,1.37,0,0,0-1-.6h-3.4c-.3,0-.4.1-.4.4a.46.46,0,0,0,.5.4,4.1,4.1,0,0,1,3.1,2.2,11.3,11.3,0,0,1,1.1,5.3V307a5.62,5.62,0,0,1-.6,3,4.26,4.26,0,0,1-2.2,1.5c-.4.1-.6.3-.5.5a.46.46,0,0,0,.5.4,2.25,2.25,0,0,0,.7-.1,6.6,6.6,0,0,1,1.4-.1h.9l2,.1a15.44,15.44,0,0,1,1.7.1h.6c.3,0,.4-.1.4-.4s-.2-.4-.6-.5a5.61,5.61,0,0,1-2.1-.7,2.52,2.52,0,0,1-.7-1.8l-.1-1.4v-14c0-.6.1-.9.4-.9a.37.37,0,0,1,.3.1l.2.2,16.4,18.8.4.5a.76.76,0,0,0,.4.2c.3,0,.5-.1.5-.5a15,15,0,0,0,.1-2.7v-19.4a5.61,5.61,0,0,1,.4-2.6,2.36,2.36,0,0,1,1.6-1c.3-.1.4-.2.4-.4S343.1,285.57,342.8,285.57Z"/><path class="a" d="M371.9,311.77a5,5,0,0,1-2.5-.9,10.26,10.26,0,0,1-1.5-2.9l-.4-1.1-8.4-21.4c-.1-.4-.3-.6-.5-.6s-.4.2-.6.6l-10,22.2-.6,1.3a9.91,9.91,0,0,1-1.1,1.7c-.4.6-.8.9-1.1.9l-.7.2c-.2.1-.3.2-.3.4a.46.46,0,0,0,.5.4,7.47,7.47,0,0,0,1.1-.1h3.1l1.9.1h.7c.4,0,.6-.1.5-.3s-.2-.4-.6-.5a3.9,3.9,0,0,1-1.8-.7,1.73,1.73,0,0,1-.5-1.3,8.11,8.11,0,0,1,.9-2.9l1.3-2.9a6.13,6.13,0,0,1,.9-1.6c.2-.2.8-.2,1.8-.2h7a2.75,2.75,0,0,1,1.3.2q.3.15.6,1.2l1,2.6a15.09,15.09,0,0,1,1.2,4.1c0,.8-.3,1.2-1,1.3l-.6.1c-.3.1-.5.2-.5.4s.2.4.5.4a1.76,1.76,0,0,0,.6-.1,25.66,25.66,0,0,1,3.4-.1,32.41,32.41,0,0,1,3.6.1h.7c.3,0,.5-.1.5-.3C372.5,312,372.3,311.87,371.9,311.77Zm-11.4-11.4h-6.4c-.6,0-.9-.2-.9-.5a1.74,1.74,0,0,1,.3-.7l3.8-8.4c.1-.3.2-.4.3-.4s.4.2.5.6l.2.4,3.1,7.7.1.4a1,1,0,0,1,.1.4C361.5,300.27,361.1,300.37,360.5,300.37Z"/><path class="a" d="M328.4,277.77a1.76,1.76,0,0,0-.6.1l-.9.3c-.4.1-.6.3-.5.5a7.45,7.45,0,0,0,1.1,1.4l1.8,2a3.52,3.52,0,0,0,1,.9,2.51,2.51,0,0,0,1,.2,2,2,0,0,0,.9-.2,2.44,2.44,0,0,0,.8-.9l1.7-2.2.7-.8a1.69,1.69,0,0,0,.2-.5.91.91,0,0,0-.3-.5,1,1,0,0,0-.7-.2c-.2,0-.6.3-.9.9-1,1.5-1.7,2.3-1.9,2.3s-.2-.1-.4-.3l-.6-.6-.8-.9-.7-.7-.4-.5A.55.55,0,0,0,328.4,277.77Z"/><path class="a" d="M155.8,197.57c3.7,0,6.7,1.9,8.8,5.7.3.5.5.7.6.7s.2-.1.3-.2l.1-.2-.1-.4-.6-4.2c-.1-.4-.2-.7-.4-.7a.91.91,0,0,0-.5.3.37.37,0,0,1-.3.1l-.3-.1-.3-.1-.7-.4a14.28,14.28,0,0,0-6.8-1.7,11.83,11.83,0,0,0-8.9,3.6,12.21,12.21,0,0,0-3.6,9,11.83,11.83,0,0,0,3.4,8.8,12.48,12.48,0,0,0,9,3.3,16.5,16.5,0,0,0,8.9-2.6c.5-.3.8-.6.8-.9l.1-.3.4-2.1.1-.4v-.2a.27.27,0,0,0-.3-.3c-.2,0-.4.3-.7.9a8.22,8.22,0,0,1-3.5,3.4,10.89,10.89,0,0,1-5.1,1.4,8.77,8.77,0,0,1-7.3-3.5,13.55,13.55,0,0,1-2.8-8.9,10.68,10.68,0,0,1,2.6-7.5A10.23,10.23,0,0,1,155.8,197.57Z"/><path class="a" d="M171.3,219.37a2,2,0,0,1-1.7.9c-.4.1-.5.2-.5.4a.46.46,0,0,0,.5.4,2.48,2.48,0,0,0,.8-.1l2.1-.1H175a7.67,7.67,0,0,1,1.8.1c.3,0,.5.1.7.1.4,0,.5-.1.5-.4s-.3-.3-.9-.4a4.3,4.3,0,0,1-1.6-.5,3.62,3.62,0,0,1-.9-1.3,10.75,10.75,0,0,1-.3-3.2v-13.1c0-2.5.4-3.8,1.3-4.2l.9-.3c.3-.1.5-.3.5-.5s-.2-.3-.5-.3h-.4l-1.2.1c-.6,0-1.4.1-2.2.1a16.73,16.73,0,0,1-3.4-.2H169c-.3,0-.5.1-.5.4s.2.3.6.4c1.1.2,1.8.5,2.1,1a6.24,6.24,0,0,1,.5,2.9v14.9A6.29,6.29,0,0,1,171.3,219.37Z"/><path class="a" d="M186.3,209.87l.4-.1H189a1.51,1.51,0,0,1,1.4.7l.2.4,4.3,6.6a11.9,11.9,0,0,0,2.5,2.8,4.68,4.68,0,0,0,2.8.9,8.81,8.81,0,0,0,1.7-.2c.5-.1.8-.3.8-.5s-.1-.2-.3-.2h-.6c-1.3-.1-2.6-1.2-4.1-3.4l-.6-.8-4.8-7.1c2.9-1.4,4.3-3.5,4.3-6.1a5.35,5.35,0,0,0-2-4.5,10.23,10.23,0,0,0-6-1.5,23.55,23.55,0,0,0-2.5.1c-1.3.1-2.2.1-2.7.1a8.08,8.08,0,0,1-1.6-.1,8.37,8.37,0,0,1-1.2-.1c-.4,0-.6.1-.6.4s.2.3.6.4l.8.1c1.3.2,1.9,1.2,1.9,3v14.3a12,12,0,0,1-.4,4,2.31,2.31,0,0,1-1.8,1.3c-.3.1-.4.2-.4.3a.37.37,0,0,0,.4.4,3.44,3.44,0,0,0,.9-.1,7.6,7.6,0,0,1,1.4-.1H186a12.84,12.84,0,0,1,2.2.1,5.13,5.13,0,0,0,1,.1q.6,0,.6-.3c0-.2-.2-.3-.6-.4a4.44,4.44,0,0,1-2.3-.8,1.69,1.69,0,0,1-.7-1,10.41,10.41,0,0,1-.1-2.1v-6.2C186.1,210.07,186.1,210,186.3,209.87Zm-.3-10.3c0-.6.1-1,.4-1.2a2.42,2.42,0,0,1,1.4-.3,6.21,6.21,0,0,1,4.5,1.6,5.45,5.45,0,0,1,1.8,4.2,4.24,4.24,0,0,1-1.3,3.4,5.27,5.27,0,0,1-3.6,1.3h-2a.92.92,0,0,1-1.2-1.2v-7.8Z"/><path class="a" d="M209.8,210a.76.76,0,0,1,.4.2l.3.4,9.4,9.6.3.3a1.39,1.39,0,0,0,1,.5h2.3a5,5,0,0,1,1.5.1h.4c.4,0,.5-.1.5-.4s-.1-.3-.4-.3l-.8-.2a6.36,6.36,0,0,1-3.2-1.9l-9.1-9.5a1.26,1.26,0,0,1-.4-.7c0-.1.1-.3.4-.6l6-5.4c3-2.7,5-4.1,6-4.4.6-.1.8-.3.8-.5s-.2-.3-.5-.3a1.09,1.09,0,0,0-.5.1h-4.3a7.59,7.59,0,0,1-1.6-.1h-.5c-.4,0-.5.1-.5.4s.3.4.8.4c.8.2,1.3.5,1.3,1s-.6,1.4-1.7,2.5l-7.5,6.7-.3.2-.3.2c-.1,0-.2-.1-.2-.4v-6.8a6.24,6.24,0,0,1,.3-2.4,2.75,2.75,0,0,1,1.4-1.1c.3-.1.4-.2.4-.4s-.1-.3-.4-.3a3.22,3.22,0,0,0-.8.1h-2.8a20.24,20.24,0,0,1-2.8-.1c-.2,0-.5-.1-.6-.1-.3,0-.5.1-.5.4s.1.3.5.4l.9.2c.8.2,1.3.5,1.5,1a5.61,5.61,0,0,1,.4,2.6v14.8a7.64,7.64,0,0,1-.4,3.1,1.64,1.64,0,0,1-1.5,1c-.3,0-.5.1-.5.3s.2.4.6.4a5.81,5.81,0,0,0,1-.1h3.6a11,11,0,0,1,2.1.1,5.53,5.53,0,0,1,.9.1c.3,0,.4-.1.4-.3s-.2-.3-.5-.4a3.91,3.91,0,0,1-2.5-1c-.4-.4-.5-1.3-.5-2.6v-6.4C209.4,210.07,209.6,210,209.8,210Z"/><path class="a" d="M230,217.67c0,1.4-.4,2.2-1.3,2.4l-.7.2c-.3.1-.4.2-.4.4s.2.4.6.4a3.44,3.44,0,0,0,.9-.1,38,38,0,0,1,4.3-.2c1.5,0,3.3.1,5.5.3.6,0,1,.1,1.4.1a5.6,5.6,0,0,0,5.2-4.6c0-.3-.1-.5-.3-.4a.54.54,0,0,0-.4.3c-1.3,2.1-4.2,3.1-8.8,3.1a5.32,5.32,0,0,1-2.7-.4c-.4-.2-.5-.9-.5-1.8v-7c0-.4.1-.6.3-.7a2.68,2.68,0,0,1,1.1-.2H238a3.69,3.69,0,0,1,2.1.4,2.23,2.23,0,0,1,.8,1.6l.1.5a.37.37,0,0,0,.4.4c.2,0,.3-.1.3-.4v-.5a14.77,14.77,0,0,1-.1-2.1,17.78,17.78,0,0,1,.2-3.1v-.4c0-.3-.1-.5-.3-.5a.37.37,0,0,0-.4.4,4.11,4.11,0,0,1-.5,1.5,2.25,2.25,0,0,1-1.2.5,20.68,20.68,0,0,1-2.9.2h-2.7a1.44,1.44,0,0,1-.9-.2c-.1-.1-.1-.4-.1-1v-7a1.74,1.74,0,0,1,.3-1.2,2.21,2.21,0,0,1,1.4-.3h2.7a15.24,15.24,0,0,1,3.7.3,1.74,1.74,0,0,1,1.3,1,3.59,3.59,0,0,1,.2,1.1v.5c0,.4.1.5.3.5s.3-.1.4-.3a7,7,0,0,0,.2-1.3l.1-1a10.33,10.33,0,0,0,.1-1.4c0-.2.1-.3.1-.4,0-.3-.2-.5-.6-.5a2,2,0,0,0-.7.1,8.47,8.47,0,0,0-1.3.1l-2.5.1c-1.1,0-2.3.1-3.8.1a52.13,52.13,0,0,1-6-.3,5.74,5.74,0,0,0-1.2-.1c-.5,0-.8.2-.8.5s.2.3.5.3q1.65,0,2.1.9c.4.6.5,1.7.5,3.4v14.7Z"/><path class="a" d="M268.8,199.57a3.42,3.42,0,0,1,1.9-2c.2-.1.4-.2.4-.4a.27.27,0,0,0-.3-.3h-3.5a13.61,13.61,0,0,1-1.6-.1h-.5q-.6,0-.6.3c0,.2.3.4,1,.5a2.3,2.3,0,0,1,1.1.4,1,1,0,0,1,.3.8c0,1.1-.8,3.6-2.5,7.5l-3.8,9.1-.3.6c-.3.7-.5,1-.6,1s-.3-.2-.5-.6L252.6,201a6.43,6.43,0,0,1-.7-2.4.85.85,0,0,1,.2-.6,1.87,1.87,0,0,1,.9-.4c.2-.1.3-.2.3-.4s-.2-.3-.5-.3h-.5c-.5,0-.9.1-1.1.1H246c-.3,0-.5.1-.5.3s.1.2.2.3a4.17,4.17,0,0,0,1.1.2,2.35,2.35,0,0,1,1.4.7,8.35,8.35,0,0,1,1.1,2l8.8,20.5c.3.6.5.9.7.9s.5-.3.7-.9l8.7-20.3Z"/><path class="a" d="M53.7,269q-3.6-.6-4.8-1.8c-.8-.7-1.8-2.7-3-5.7l-.8-2.1-16.3-41.8c-.3-.7-.6-1.1-1-1.1s-.8.4-1.1,1.1L7.2,260.87l-1.1,2.5a23.94,23.94,0,0,1-2.1,3.4c-.9,1.1-1.5,1.7-2,1.8L.6,269a.76.76,0,0,0-.6.8c0,.5.3.7,1,.7.1,0,.8-.1,2.1-.2.4,0,1-.1,1.7-.1,1.6,0,3,0,4.2.1l3.6.2h1.3c.7,0,1.1-.2,1.1-.6s-.4-.7-1.2-.9a7.81,7.81,0,0,1-3.5-1.4,3.27,3.27,0,0,1-.9-2.6,17.38,17.38,0,0,1,1.7-5.7l2.5-5.6a9.92,9.92,0,0,1,1.8-3,7.84,7.84,0,0,1,3.5-.5H32.6a6.44,6.44,0,0,1,2.6.3,7.27,7.27,0,0,1,1.3,2.4l1.9,5c1.5,4,2.3,6.7,2.3,8a2.29,2.29,0,0,1-1.9,2.6l-1.2.3c-.6.1-.9.4-.9.8s.3.8,1,.8a3.23,3.23,0,0,0,1.2-.2,47.69,47.69,0,0,1,6.6-.2c3.4,0,5.7.1,7,.2.7,0,1.2.1,1.4.1.7,0,1-.2,1.1-.6A2.05,2.05,0,0,0,53.7,269Zm-22.2-22.1H19.1c-1.2,0-1.7-.3-1.7-1a5.93,5.93,0,0,1,.5-1.4l7.4-16.4c.2-.5.4-.7.6-.7.4,0,.7.4,1,1.3l.3.8,6,15,.2.7a5.07,5.07,0,0,1,.2.9C33.4,246.57,32.8,246.87,31.5,246.87Z"/><path class="a" d="M71.4,231c-1.4,0-2.6,0-3.7.1l-2.6.3c-1.1.1-2.5.1-4.5.1h-2l-2.2-.1c-.5,0-.7.2-.7.6s.3.5.9.6a4.3,4.3,0,0,1,3.2,1.6,7.62,7.62,0,0,1,1,4.2V264a9.67,9.67,0,0,1-.6,4.2,3.23,3.23,0,0,1-2.5,1.4c-.5.1-.8.3-.8.6,0,.5.3.7,1,.6a13.7,13.7,0,0,0,1.6-.2,41.06,41.06,0,0,1,5.3-.3q2.85,0,6.6.3c1.2.1,2.1.1,2.6.1a21,21,0,0,0,11.4-3.3,17.85,17.85,0,0,0,6.5-7.1,20.51,20.51,0,0,0,2.3-9.8,18.94,18.94,0,0,0-5.3-13.7C84.9,233,79.1,231,71.4,231Zm11.9,35.7a16.27,16.27,0,0,1-8.7,2.4,21.49,21.49,0,0,1-4-.4,20.45,20.45,0,0,1-3.8-1,2.27,2.27,0,0,1-1.7-2.4v-29.2c0-1.2.2-1.9.7-2.3.8-.6,2.7-1,5.7-1a17.8,17.8,0,0,1,10.7,3.1,17.3,17.3,0,0,1,5.7,7,23,23,0,0,1,2.1,9.8C89.8,259.27,87.6,263.87,83.3,266.67Z"/><path class="a" d="M98.8,237.17l14.4,33.3c.4.9.8,1.4,1.2,1.4s.8-.5,1.2-1.4l14.1-33,.8-1.8a5.36,5.36,0,0,1,3.1-3.3q.6-.15.6-.6c0-.3-.2-.5-.6-.5H128c-.3,0-1.1,0-2.5-.1h-.8c-.6,0-.9.2-.9.5s.5.6,1.6.8a5.17,5.17,0,0,1,1.7.6,1.7,1.7,0,0,1,.4,1.3c0,1.8-1.3,5.9-4,12.3l-6.2,14.8-.5,1.1c-.5,1.1-.8,1.6-1,1.6s-.5-.3-.7-.9l-10.9-25.1a11.68,11.68,0,0,1-1.2-4,1.33,1.33,0,0,1,.3-1,5.24,5.24,0,0,1,1.5-.7.73.73,0,0,0,.6-.6c0-.4-.3-.5-.8-.5a2.81,2.81,0,0,0-.8.1,13.57,13.57,0,0,1-1.8.1H97.4a18,18,0,0,1-2.9-.1,5.38,5.38,0,0,1-.8-.1c-.5,0-.8.2-.8.6a.55.55,0,0,0,.3.5,14.67,14.67,0,0,0,1.7.4,4,4,0,0,1,2.2,1.2A13.12,13.12,0,0,1,98.8,237.17Z"/><path class="a" d="M157,270.77a7.76,7.76,0,0,0,6.3-3.1c1.4-1.7,2.1-3.2,2.1-4.4,0-.5-.2-.8-.5-.7s-.4.2-.6.5c-2.1,3.3-6.9,5-14.3,5-2.3,0-3.8-.2-4.4-.6s-.9-1.4-.9-3v-11.4a1.17,1.17,0,0,1,.5-1.1,3.82,3.82,0,0,1,1.9-.3h6.3a6.33,6.33,0,0,1,3.5.7,4,4,0,0,1,1.4,2.6l.2.8a.66.66,0,0,0,.7.6c.4,0,.6-.2.6-.7a2.81,2.81,0,0,0-.1-.8c-.1-1.1-.2-2.3-.2-3.4a46,46,0,0,1,.3-5v-.6a.7.7,0,0,0-.6-.8c-.4,0-.6.2-.7.7a5.92,5.92,0,0,1-.8,2.4,4.26,4.26,0,0,1-2,.8,29.09,29.09,0,0,1-4.7.3h-4.4a2.37,2.37,0,0,1-1.5-.3c-.2-.2-.2-.7-.2-1.6v-11.5a3,3,0,0,1,.5-2,3.85,3.85,0,0,1,2.3-.4h4.4a27.44,27.44,0,0,1,6,.4,3.27,3.27,0,0,1,2.2,1.7,4.67,4.67,0,0,1,.3,1.7v.7c0,.6.2.9.6.8a.68.68,0,0,0,.6-.4,12.24,12.24,0,0,0,.3-2.1l.1-1.7c.1-1.2.2-2,.2-2.3a2,2,0,0,0,.1-.7c0-.5-.3-.8-.9-.8a5.38,5.38,0,0,0-1.1.1c-.2,0-.9.1-2,.1l-4,.2c-1.8.1-3.8.1-6.1.1a89.7,89.7,0,0,1-9.8-.5,14.16,14.16,0,0,0-1.9-.1c-.9,0-1.3.3-1.3.8s.3.5.8.5c1.7,0,2.9.5,3.5,1.4s.9,2.8.9,5.5v25.8c0,2.3-.7,3.6-2,4l-1.1.3c-.5.1-.7.4-.7.7s.3.6.9.6c.3,0,.8-.1,1.5-.2a55.87,55.87,0,0,1,7-.3c2.4,0,5.4.2,9,.5A2.5,2.5,0,0,0,157,270.77Z"/><path class="a" d="M207.2,231.77c0-.4-.3-.6-.8-.6a11.48,11.48,0,0,0-1.4.2,19.09,19.09,0,0,1-2.8.2c-2.2,0-3.9-.1-5.2-.2a5.74,5.74,0,0,0-1.2-.1c-.5,0-.8.2-.8.5s.3.6.8.7a7.57,7.57,0,0,1,4,1.5,5.66,5.66,0,0,1,1.4,3.4l.3,6.5v17.9c0,.3-.1.5-.3.5s-.4-.2-.8-.7L174.3,232a1.73,1.73,0,0,0-1.4-.8h-1.6l-1.9-.1h-1.7c-.4,0-.6.2-.6.5s.3.6.8.6a5.75,5.75,0,0,1,4.5,3.2,16.64,16.64,0,0,1,1.6,7.7v19.3a9.55,9.55,0,0,1-.8,4.4A5.71,5.71,0,0,1,170,269c-.5.2-.8.4-.8.7s.3.5.8.5a5.38,5.38,0,0,0,1.1-.1,14.77,14.77,0,0,1,2.1-.1l1.4-.1,2.9.1a19.13,19.13,0,0,1,2.5.2c.3,0,.6.1.9.1a.53.53,0,0,0,.6-.6c0-.4-.3-.6-.9-.7a6.4,6.4,0,0,1-3-1,4.54,4.54,0,0,1-1-2.6l-.1-2v-20.5c0-.8.2-1.3.5-1.3a.52.52,0,0,1,.4.2l.3.3,23.9,27.4.6.7c.2.2.4.2.7.3a.76.76,0,0,0,.8-.7,32.62,32.62,0,0,0,.1-3.9v-23.8l.1-1.9v-3.1a7.7,7.7,0,0,1,.6-3.7,3.28,3.28,0,0,1,2.3-1.4C207.1,232.17,207.3,232.07,207.2,231.77Z"/><path class="a" d="M233.6,269.47c-2.4-.4-3.6-1.7-3.7-4v-29a2.94,2.94,0,0,1,.3-1.7c.2-.2.7-.3,1.6-.3h8a5.73,5.73,0,0,1,3.2.6,4.82,4.82,0,0,1,1.2,2.6c.1.6.3.9.7.9s.6-.3.6-.9c0-.3-.1-.7-.2-1.4a14.89,14.89,0,0,1-.1-2.4,3.77,3.77,0,0,0-.3-2c-.2-.2-.8-.3-1.9-.3H212.4c-.6,0-1.1.1-1.3.4a3.17,3.17,0,0,0-.3,1.7,16.14,16.14,0,0,1-.4,3.4,14.94,14.94,0,0,0-.3,2.2c0,.5.2.7.5.8s.6-.3.8-1.1a6.71,6.71,0,0,1,1.6-3.5,5,5,0,0,1,3.3-.9h7.5a2.21,2.21,0,0,1,1.4.3,1.88,1.88,0,0,1,.3,1.3v28.9a5.28,5.28,0,0,1-.8,3.3,4.68,4.68,0,0,1-3,1.2q-.9.15-.9.6t.9.6c.2,0,.8-.1,1.9-.2a11.52,11.52,0,0,1,2-.1h4.3a15.69,15.69,0,0,1,2.6.1c.7.1,1.2.2,1.4.2.5,0,.8-.2.8-.6S234.3,269.57,233.6,269.47Z"/><path class="a" d="M252.1,267.87c-.4.7-1.3,1.2-2.8,1.5q-.9.15-.9.6c0,.4.3.6.8.6a7.6,7.6,0,0,0,1.4-.1l3.3-.2,4.1.1a22.81,22.81,0,0,1,3,.1,4.48,4.48,0,0,0,1.1.1c.6,0,.9-.2.9-.7,0-.3-.5-.6-1.4-.7a6,6,0,0,1-2.6-.9,4.46,4.46,0,0,1-1.4-2,19,19,0,0,1-.5-5.3v-21.3c0-4,.7-6.3,2.1-6.8l1.5-.6c.5-.2.7-.4.7-.8s-.3-.5-.8-.5h-.7l-1.9.2c-1,.1-2.2.1-3.6.1-2.3,0-4.1-.1-5.5-.2h-.5c-.6,0-.8.2-.8.6s.3.6.9.7c1.8.3,2.9.8,3.4,1.6a9.84,9.84,0,0,1,.8,4.7V263C252.7,265.57,252.5,267.17,252.1,267.87Z"/><path class="a" d="M291.2,259c0-5.2-3.5-9-10.5-11.3a67.29,67.29,0,0,1-6.8-2.5,7.37,7.37,0,0,1-2.5-2.2,6.48,6.48,0,0,1-1.3-4.1,5.68,5.68,0,0,1,2.1-4.5,7.57,7.57,0,0,1,5.1-1.8,13,13,0,0,1,7,2,8.85,8.85,0,0,1,4.1,5.1c.3.9.6,1.4.9,1.4s.6-.3.6-.9a10.53,10.53,0,0,1-.1-1.2l-.5-2.9c-.2-1.6-.4-2.5-.4-2.9,0-.9-.2-1.4-.7-1.4-.2,0-.3,0-.3.1l-.4.3a1.08,1.08,0,0,1-.7.3.9.9,0,0,1-.5-.1l-2-.8a12.93,12.93,0,0,0-5.1-.9,13.32,13.32,0,0,0-8.8,2.9,10,10,0,0,0-.8,14.2c1.7,1.7,4.7,3.3,8.9,4.7s6.5,2.4,7.4,3.2a6.58,6.58,0,0,1,2.5,5.3,7.05,7.05,0,0,1-2.7,5.6,10,10,0,0,1-6.6,2.3,11.7,11.7,0,0,1-7.1-2.4,11.23,11.23,0,0,1-4.3-5.9c-.3-.9-.6-1.4-.9-1.4s-.6.3-.6.8a14.28,14.28,0,0,0,.7,3.6c.4,1.6.7,2.4.7,2.6a13.39,13.39,0,0,0,.5,2,1.2,1.2,0,0,0,.7.7,13.27,13.27,0,0,0,3.8,1.4,21.69,21.69,0,0,0,4.8.6,14.36,14.36,0,0,0,9.9-3.4A10.44,10.44,0,0,0,291.2,259Z"/><path class="a" d="M317.8,270.67c.5,0,.8-.2.8-.6s-.3-.5-1-.6c-2.4-.4-3.6-1.7-3.7-4v-29a2.94,2.94,0,0,1,.3-1.7c.2-.2.7-.3,1.6-.3h8a5.73,5.73,0,0,1,3.2.6,4.82,4.82,0,0,1,1.2,2.6c.1.6.3.9.7.9s.6-.3.6-.9c0-.3-.1-.7-.2-1.4a14.89,14.89,0,0,1-.1-2.4,3.77,3.77,0,0,0-.3-2c-.2-.2-.8-.3-1.9-.3H296.4c-.6,0-1.1.1-1.3.4a3.17,3.17,0,0,0-.3,1.7,16.14,16.14,0,0,1-.4,3.4,14.94,14.94,0,0,0-.3,2.2c0,.5.2.7.5.8s.6-.3.8-1.1a6.71,6.71,0,0,1,1.6-3.5,5,5,0,0,1,3.3-.9h7.5a2.21,2.21,0,0,1,1.4.3,1.88,1.88,0,0,1,.3,1.3v28.9a5.28,5.28,0,0,1-.8,3.3,4.68,4.68,0,0,1-3,1.2q-.9.15-.9.6t.9.6c.2,0,.8-.1,1.9-.2a11.52,11.52,0,0,1,2-.1h4.3a15.69,15.69,0,0,1,2.6.1A7.78,7.78,0,0,0,317.8,270.67Z"/><path class="a" d="M351.4,271.07c6,0,10.9-1.9,14.7-5.8s5.7-8.8,5.7-14.9a18.84,18.84,0,0,0-5.7-14.1c-3.8-3.7-8.7-5.5-14.6-5.5a22.38,22.38,0,0,0-8.4,1.6,20.29,20.29,0,0,0-6.8,4.3,18.83,18.83,0,0,0-4,6.4,21.2,21.2,0,0,0-1.5,7.8c0,6,1.9,10.9,5.7,14.6S345.3,271.07,351.4,271.07Zm-12.1-34c2.6-3,6.1-4.4,10.5-4.4a16.5,16.5,0,0,1,12.8,5.7,20.37,20.37,0,0,1,5.1,14.1,17.5,17.5,0,0,1-4.3,12.2,14,14,0,0,1-10.9,4.8,15.48,15.48,0,0,1-12.2-5.9,21.83,21.83,0,0,1-5-14.5C335.4,244,336.7,240,339.3,237.07Z"/><path class="a" d="M411.3,231.27h-5.6c-.3,0-1.1,0-2.5-.1h-.8c-.6,0-.9.2-.9.5s.5.6,1.6.8a5.17,5.17,0,0,1,1.7.6,1.7,1.7,0,0,1,.4,1.3c0,1.8-1.3,5.9-4,12.3l-6.2,14.8-.5,1.1c-.5,1.1-.8,1.6-1,1.6s-.5-.3-.7-.9l-11-25.1a11.68,11.68,0,0,1-1.2-4,1.33,1.33,0,0,1,.3-1,5.24,5.24,0,0,1,1.5-.7.73.73,0,0,0,.6-.6c0-.4-.3-.5-.8-.5a2.81,2.81,0,0,0-.8.1,13.57,13.57,0,0,1-1.8.1H375a18,18,0,0,1-2.9-.1,5.38,5.38,0,0,1-.8-.1c-.5,0-.8.2-.8.6a.55.55,0,0,0,.3.5,14.67,14.67,0,0,0,1.7.4,4,4,0,0,1,2.2,1.2,12.39,12.39,0,0,1,1.8,3.2l14.4,33.3c.4.9.8,1.4,1.2,1.4s.8-.5,1.1-1.4l14.1-33,.8-1.8a5.36,5.36,0,0,1,3.1-3.3q.6-.15.6-.6C411.9,231.47,411.7,231.27,411.3,231.27Z"/><path class="a" d="M203,166.27v-20.6H192.6v-7.4H203v-.7c0-7.3-3.4-12.7-26.6-8.7l-38.2,6.8-22,30.5,52.8-9.4C184.7,154.17,198.6,153.67,203,166.27Z"/><path class="a" d="M228.1,137.47c-12,12-17.9,18.8-17.9,28.8,4.6-13.2,19.2-12,36.3-8.7l50.7,8.7-22-30.5L236.5,129Z"/><path class="a" d="M229,118c-4.7,4.7-12.8,12.1-16.7,20.3h8.5l9.8-9.7c9-9,15.9-15.9,18.9-24.5a31.47,31.47,0,0,0,1.7-15.7c-.2-1.7-1-4.1-1-3.6-.9,9.8-3.6,15.6-17.8,29.8Z"/><path class="a" d="M183.1,77.17l19.3-19.3c5.2-5.2,18.4-17,18.4-27.3V19.27c0-.1-.2-.1-.2,0-.9,7.6-2.7,10.9-21.4,29.6l-18.4,18.4c-9.7,9.7-17.6,20.1-16.6,31.7.6,6.5,2.7,10,4.2,11.1.7.5.5.1.4-.3C163.1,97,176.5,83.87,183.1,77.17Z"/><path class="a" d="M202.4,77.17c5.2-5.2,18.4-17,18.4-27.3V38.57c0-.1-.2-.1-.2,0-.9,7.6-2.7,10.9-21.4,29.6l-17.1,17.1c-6.2,6.2-11.9,12.7-11.6,23.2.2,6.4,3.4,11.8,8.3,13,2,.4,1.9.2,1.4,0-6.9-3.2-6.4-15.7,4.7-26.8Z"/><path class="a" d="M163.2,90c.9-9.8,3.6-15.6,17.8-29.8l21.4-21.5c5.2-5.2,18.4-17,18.4-27.3V.08c0-.1-.2-.1-.2,0-.9,7.6-2.7,10.9-21.4,29.6l-16.5,16.5c-9,9-15.9,15.9-18.9,24.5a31.47,31.47,0,0,0-1.7,15.7C162.4,88,163.1,90.47,163.2,90Z"/><path class="a" d="M210.4,156.87a24.2,24.2,0,0,1,4.5-11.3h-4.7v11.3C210.2,157,210.4,157,210.4,156.87Z"/><path class="a" d="M232.4,95.27l-5.4,5.4c-8.4,8.3-16.8,17.6-16.8,26.2v11.4c0,.1.2.1.2,0,.9-8.3,4.9-13.8,17-25.8l5-5c9.7-9.7,17.6-20.1,16.6-31.7-.6-6.5-2.7-10.1-4.2-11.1-.7-.5-.5-.1-.4.3C250.2,77.67,236.8,90.87,232.4,95.27Z"/><path class="a" d="M210.2,118.47c0,.1.2.1.2,0,.9-7.9,5.5-14,15.9-24.4l5-5c6.2-6.2,11.8-12.7,11.5-23.2-.2-6.4-3.4-11.8-8.3-13-2-.4-1.9-.2-1.4,0,6.9,3.2,6.4,15.7-4.7,26.8l-6.1,6.1c-3.9,3.9-12.1,12.8-12.1,21Z"/><path class="a" d="M295.3,152a4.16,4.16,0,0,0,3.1-1.3,4,4,0,0,0,1.3-3.1,4.16,4.16,0,0,0-1.3-3.1,4,4,0,0,0-3.1-1.3,4.13,4.13,0,0,0-3.3,1.5,4.19,4.19,0,0,0-1,2.8,4,4,0,0,0,1,2.8A3.68,3.68,0,0,0,295.3,152Zm-2.8-7.1a3.62,3.62,0,0,1,2.7-1.1,3.89,3.89,0,0,1,2.7,6.6,3.62,3.62,0,0,1-2.7,1.1,3.69,3.69,0,0,1-2.7-1.1,3.62,3.62,0,0,1-1.1-2.7A4.11,4.11,0,0,1,292.5,144.87Z"/><path class="a" d="M293.2,145.37h.2c.2,0,.4.2.4.6v3c0,.4,0,.7-.1.8a.52.52,0,0,1-.4.2.1.1,0,0,0-.1.1c0,.1.1.1.2.1h1.7c.1,0,.2,0,.2-.1s-.1-.1-.2-.1a.59.59,0,0,1-.5-.2c-.1-.1-.1-.3-.1-.6v-1.4h.6c.1,0,.2,0,.2.1v.1l.9,1.4a1.41,1.41,0,0,0,1.2.8c.4,0,.6-.1.6-.2s0-.1-.1-.1h-.1c-.2,0-.5-.2-.8-.7l-.1-.2-1-1.4a1.38,1.38,0,0,0,.9-1.3c0-.9-.6-1.3-1.8-1.3h-1.7c-.1,0-.2,0-.2.1S293.1,145.37,293.2,145.37Zm1.6.1a1.4,1.4,0,0,1,.9.3,1.23,1.23,0,0,1,.4.8c0,.6-.3.9-1,.9h-.6v-1.7C294.4,145.57,294.6,145.47,294.8,145.47Z"/><path class="a" d="M421.3,233.47h-.1c-.2,0-.5-.2-.8-.7l-.1-.2-1-1.4a1.38,1.38,0,0,0,.9-1.3c0-.9-.6-1.3-1.8-1.3h-1.7c-.1,0-.2,0-.2.1s.1.1.2.1h.2c.2,0,.4.2.4.6v3c0,.4,0,.7-.1.8a.52.52,0,0,1-.4.2.1.1,0,0,0-.1.1c0,.1.1.1.2.1h1.7c.1,0,.2,0,.2-.1s-.1-.1-.2-.1a.59.59,0,0,1-.5-.2c-.1-.1-.1-.3-.1-.6v-1.4h.6c.1,0,.2,0,.2.1v.1l.9,1.4a1.41,1.41,0,0,0,1.2.8c.4,0,.6-.1.6-.2C421.5,233.47,421.4,233.47,421.3,233.47Zm-2.7-2.4H418v-1.7a.27.27,0,0,1,.3-.3,1.4,1.4,0,0,1,.9.3,1.23,1.23,0,0,1,.4.8A1,1,0,0,1,418.6,231.07Z"/><path class="a" d="M421.9,228.07a4,4,0,0,0-3.1-1.3,4.13,4.13,0,0,0-3.3,1.5,4.19,4.19,0,0,0-1,2.8,4,4,0,0,0,1,2.8,4.27,4.27,0,0,0,3.3,1.5,4.44,4.44,0,0,0,4.4-4.4A5.07,5.07,0,0,0,421.9,228.07Zm-.4,5.9a3.62,3.62,0,0,1-2.7,1.1,3.69,3.69,0,0,1-2.7-1.1,3.62,3.62,0,0,1-1.1-2.7,4.11,4.11,0,0,1,1.1-2.8,3.62,3.62,0,0,1,2.7-1.1,3.76,3.76,0,0,1,3.8,3.9A3.62,3.62,0,0,1,421.5,234Z"/></svg>