<svg xmlns="http://www.w3.org/2000/svg" viewBox="0 0 490.7 406.82"><defs><style>.a{fill:#fff;}</style></defs><title>Asset 1</title><path class="a" d="M179.6,400.22a.66.66,0,0,0-.5.4c-1.7,2.7-5.7,4.1-11.7,4.1a8.41,8.41,0,0,1-3.6-.5c-.5-.3-.7-1.2-.7-2.5v-9.4c0-.5.1-.8.4-.9a3,3,0,0,1,1.5-.2h5.1a4.84,4.84,0,0,1,2.8.6,3,3,0,0,1,1.1,2.1l.1.7a.63.63,0,0,0,.6.5c.3,0,.5-.2.5-.6v-.7a26.2,26.2,0,0,1-.1-2.8c0-1.2.1-2.6.2-4.1v-.5c0-.4-.2-.6-.5-.6s-.5.2-.6.6a4.44,4.44,0,0,1-.7,2,3,3,0,0,1-1.6.7,19.17,19.17,0,0,1-3.9.3h-3.6a2.23,2.23,0,0,1-1.2-.2,2.75,2.75,0,0,1-.2-1.3v-9.4c0-.8.1-1.4.4-1.6a3.54,3.54,0,0,1,1.9-.4h3.6a27.52,27.52,0,0,1,5,.3,2.41,2.41,0,0,1,1.8,1.4,3.53,3.53,0,0,1,.3,1.4v.6c0,.5.2.7.5.7s.4-.1.5-.4a5,5,0,0,0,.2-1.7l.1-1.4a15.38,15.38,0,0,1,.2-1.9,4.33,4.33,0,0,1,.1-.5.71.71,0,0,0-.8-.7,3.44,3.44,0,0,0-.9.1c-.2,0-.8.1-1.7.1l-3.3.2c-1.5.1-3.1.1-5,.1a61.71,61.71,0,0,1-8-.4,10.36,10.36,0,0,0-1.6-.1c-.7,0-1,.2-1,.6s.2.4.7.4a3.19,3.19,0,0,1,2.9,1.2c.5.8.7,2.3.7,4.5v21.2c0,1.9-.6,3-1.7,3.3l-.9.3c-.4.1-.6.3-.6.5s.2.5.7.5c.2,0,.6-.1,1.2-.2a37.3,37.3,0,0,1,5.8-.3c1.9,0,4.4.1,7.4.4a13.57,13.57,0,0,0,1.8.1,7.31,7.31,0,0,0,6.9-6.1A.63.63,0,0,0,179.6,400.22Z"/><path class="a" d="M215.1,389.72c-.2,0-.8,0-1.9.1h-6.9c-.5,0-.8.1-.8.4s.3.5.9.6a4.38,4.38,0,0,1,2.5.7,2.4,2.4,0,0,1,.6,1.9v5.2a5.23,5.23,0,0,1-.7,3.2,10.38,10.38,0,0,1-8.5,3.8,11.83,11.83,0,0,1-9.5-4.6c-2.6-3-3.8-6.8-3.8-11.4,0-4.2,1.1-7.7,3.3-10.3a10.57,10.57,0,0,1,8.6-4,15.43,15.43,0,0,1,8,2.3,15.28,15.28,0,0,1,5.6,6,.51.51,0,0,0,.5.4c.3,0,.5-.2.5-.6a2,2,0,0,0-.1-.7l-.3-1.8-.2-2.2a10.36,10.36,0,0,1-.1-1.6c0-.7-.1-1.1-.4-1.1a.37.37,0,0,0-.3.1l-.6.4c-.2.1-.3.2-.4.2s-.2-.1-.4-.2a16.08,16.08,0,0,0-4.9-2,25.18,25.18,0,0,0-5.8-.8,15.77,15.77,0,0,0-11.9,4.9,16.66,16.66,0,0,0-4.7,12.2,15.4,15.4,0,0,0,16,16,20,20,0,0,0,9.8-2.6l1.5-.9a5.06,5.06,0,0,1,1.9-.8c.4-.1.6-.1.7-.2l.1-.3v-8.9a2.36,2.36,0,0,1,1.8-2.6c.5-.1.7-.3.7-.6A1.88,1.88,0,0,0,215.1,389.72Z"/><path class="a" d="M245.1,374.62c-.2,0-.6.1-1.2.1-.4,0-1.4.1-3,.1a24.72,24.72,0,0,1-3.3-.1,6.82,6.82,0,0,0-1.2-.1c-.3,0-.5.1-.5.4s.2.4.6.5c2,.5,2.9,1.2,2.9,2.3,0,.6-.5,1.7-1.6,3.5l-1.1,1.8-3.4,5.1-.2.4c-.2.2-.3.3-.5.3a.54.54,0,0,1-.4-.3l-.3-.5-4.9-7.7-.7-1.1a5.21,5.21,0,0,1-1-2.2c0-.7.5-1.3,1.6-1.6.4-.1.5-.3.5-.5s-.2-.5-.7-.5a8.33,8.33,0,0,0-1.2.1,42.72,42.72,0,0,1-4.4.1c-1.1,0-2.2-.1-3.2-.2-.4,0-.8-.1-1.2-.1s-.7.2-.7.5.2.4.7.4a4.42,4.42,0,0,1,2.4.7,5.5,5.5,0,0,1,1.9,1.8l.8,1.3,6.5,10.3a9.05,9.05,0,0,1,1,2,11,11,0,0,1,.2,2.2v7.9a7.38,7.38,0,0,1-.5,3.3,3.44,3.44,0,0,1-2.5,1c-.5.1-.8.3-.8.6s.2.4.5.4a4.4,4.4,0,0,0,.9-.1,12.89,12.89,0,0,1,2.3-.1l1.8-.1,1.8.1a11.56,11.56,0,0,0,1.7.1,6.82,6.82,0,0,0,1.2.1c.5,0,.8-.2.8-.5s-.2-.4-.7-.5c-1.4-.1-2.2-.4-2.5-.8s-.4-1.5-.4-3.3v-9.8a4,4,0,0,1,.9-2.3l.6-.8,5.7-8.4,1.5-2.3a6.55,6.55,0,0,1,3.4-2.6c.4-.1.6-.3.6-.5A.53.53,0,0,0,245.1,374.62Z"/><path class="a" d="M278.6,405.82a3.45,3.45,0,0,1-2.7-1.2,5.74,5.74,0,0,1-.7-3.4v-22.5a4.65,4.65,0,0,1,.5-2.1,1.68,1.68,0,0,1,1.2-1l1-.2c.4-.1.6-.2.6-.5s-.2-.5-.6-.5a3.87,3.87,0,0,0-.9.1,30.37,30.37,0,0,1-3.5.1c-1.2,0-2.2-.1-3.3-.2a11,11,0,0,0-1.6-.1c-.4,0-.6.1-.6.4s.2.5.7.5a3.52,3.52,0,0,1,2.3,1.4,7.1,7.1,0,0,1,.6,3.4v8c0,.4-.1.7-.3.8a3.09,3.09,0,0,1-1.3.2H256.3c-1,0-1.5-.1-1.7-.3s-.3-.7-.3-1.6v-8.3a4.94,4.94,0,0,1,.5-2.5,3.49,3.49,0,0,1,2.1-1.1c.4-.1.6-.3.6-.5s-.2-.5-.7-.5a4.14,4.14,0,0,0-1,.1,30.28,30.28,0,0,1-3.1.2c-1.6,0-3.1-.1-4.3-.2a8.17,8.17,0,0,0-1.4-.1c-.4,0-.6.1-.6.5s.2.4.7.5a4.86,4.86,0,0,1,2.8,1.2,4.56,4.56,0,0,1,.8,2.9v20a16.62,16.62,0,0,1-.4,4.6c-.3.9-.7,1.4-1.4,1.5l-1.2.3c-.4.1-.6.3-.6.5s.2.4.6.4a11.45,11.45,0,0,0,1.5-.1,8.64,8.64,0,0,1,1.5-.1l1.5-.1h2a18,18,0,0,1,2.8.1,5.94,5.94,0,0,0,1.1.1c.5,0,.7-.2.7-.5s-.3-.5-.9-.6a4.62,4.62,0,0,1-2.9-1.2,5.85,5.85,0,0,1-.8-3.4v-8.5a2.21,2.21,0,0,1,.3-1.4,2.75,2.75,0,0,1,1.6-.3H270a3,3,0,0,1,1.4.2,2.75,2.75,0,0,1,.2,1.3v9.5c0,2.4-.8,3.7-2.4,4-.5.1-.8.2-.8.5s.2.5.6.5c.1,0,.6,0,1.6-.1.5,0,.8-.1,1.1-.1h3.4a11.66,11.66,0,0,1,2.3.1,5.74,5.74,0,0,0,1.2.1c.5,0,.7-.2.7-.5C279.3,406,279.1,405.82,278.6,405.82Z"/><path class="a" d="M313.4,405.72c-1.5-.3-2.5-.6-2.9-1.1a10.54,10.54,0,0,1-1.8-3.5l-.5-1.3-10-25.7c-.2-.4-.4-.7-.6-.7s-.5.2-.7.7l-12,26.6-.7,1.5a12,12,0,0,1-1.3,2.1,2.43,2.43,0,0,1-1.3,1.1l-.9.3c-.3.1-.4.2-.4.5s.2.4.6.4a10.3,10.3,0,0,0,1.3-.1h1a20.93,20.93,0,0,1,2.6.1l2.2.1h.8c.4,0,.7-.1.7-.4s-.3-.5-.7-.5a5.33,5.33,0,0,1-2.2-.8,1.94,1.94,0,0,1-.5-1.6,9.45,9.45,0,0,1,1-3.5l1.5-3.4a5.32,5.32,0,0,1,1.1-1.9,4.54,4.54,0,0,1,2.1-.3h8.4a4.23,4.23,0,0,1,1.6.2c.2.1.4.6.8,1.5l1.2,3.1a20.15,20.15,0,0,1,1.4,4.9,1.46,1.46,0,0,1-1.2,1.6l-.7.2c-.4.1-.6.2-.6.5s.2.5.6.5a2,2,0,0,0,.7-.1,34.75,34.75,0,0,1,4-.1c2.1,0,3.5,0,4.3.1h.9c.4,0,.6-.1.7-.4S313.8,405.82,313.4,405.72Zm-13.7-13.6h-7.6c-.7,0-1.1-.2-1.1-.6a4.18,4.18,0,0,1,.3-.9l4.5-10.1c.1-.3.3-.5.4-.4s.4.3.6.8l.2.5,3.7,9.2.1.4a1.09,1.09,0,0,1,.1.5Q300.9,392.12,299.7,392.12Z"/><path class="a" d="M301,365.72a10.45,10.45,0,0,0-2.2.1,1.13,1.13,0,0,0-.6.6l-.5,1.2c-.1.3-.4.9-.9,1.9l-.5,1.1a2.3,2.3,0,0,0-.3.9c0,.3.1.5.4.5a4.51,4.51,0,0,0,1.7-.9l3-3.3a2,2,0,0,0,.7-1.1C302,366,301.6,365.72,301,365.72Z"/><path class="a" d="M337.3,401.42q-.3,0-1.5,1.2a5.22,5.22,0,0,1-2.5,1.4,14.37,14.37,0,0,1-4.1.4h-7.5c-.9,0-1.3-.3-1.3-.8a1.08,1.08,0,0,1,.3-.7l.3-.5,15.2-26.2a1.42,1.42,0,0,0,.2-.6c0-.6-.5-.9-1.4-.9H317.6a1.36,1.36,0,0,0-1.2.5,6.89,6.89,0,0,0-.4,2.4,7.18,7.18,0,0,1-.2,1.7,6.93,6.93,0,0,0-.3,1.6c0,.4.1.6.5.6s.5-.2.6-.6a6.6,6.6,0,0,1,1.5-2.4,4.42,4.42,0,0,1,1.8-1.4,9.41,9.41,0,0,1,2.8-.3h7.9c.7,0,1,.2,1,.5a1.69,1.69,0,0,1-.2.5l-.2.3-15.8,27.2a1.33,1.33,0,0,0-.3.7q0,.6,1.2.6H334a3.09,3.09,0,0,0,1.3-.2,3,3,0,0,0,.7-.8l.8-1.6.7-1.5a1.42,1.42,0,0,0,.2-.6C337.7,401.52,337.6,401.42,337.3,401.42Z"/><path class="a" d="M94.6,247.52c2,.3,3.4.9,4.1,1.8a6.61,6.61,0,0,1,1.2,4.4v30a26.83,26.83,0,0,1-.6,6.9,2.93,2.93,0,0,1-2.1,2.3l-1.7.4c-.6.1-.9.4-.9.8s.3.7.9.7c.3,0,1-.1,2.2-.2a18.55,18.55,0,0,1,2.2-.1l2.3-.1h2.9a30.82,30.82,0,0,1,4.2.2c.8.1,1.4.2,1.7.2.7,0,1-.2,1-.7s-.5-.8-1.3-.9c-2.1-.2-3.5-.8-4.3-1.8s-1.2-2.7-1.2-5.1v-12.8c0-1.1.2-1.8.5-2a4.44,4.44,0,0,1,2.5-.4h20.6a4,4,0,0,1,2.1.3c.2.2.3.8.3,1.9v14.2c0,3.6-1.2,5.6-3.7,6-.8.1-1.2.4-1.2.8s.3.7.8.7c.2,0,1-.1,2.4-.2a11.56,11.56,0,0,1,1.7-.1l2.6-.1h2.6a28.47,28.47,0,0,1,3.5.1,16.24,16.24,0,0,0,1.8.2c.7,0,1-.3,1-.8s-.4-.6-1.1-.7c-2-.2-3.3-.8-4-1.7s-1-2.7-1-5.2v-33.8a6.17,6.17,0,0,1,.7-3.1,3,3,0,0,1,1.8-1.6l1.4-.3c.6-.1.8-.4.8-.7,0-.5-.3-.7-.8-.7-.2,0-.7.1-1.3.1-1,.1-2.7.2-5.2.2-1.7,0-3.4-.1-4.9-.2-1.1-.1-1.9-.2-2.4-.2s-.8.2-.9.6.3.7,1,.8a5,5,0,0,1,3.4,2.1,10.52,10.52,0,0,1,.9,5.1v11.9c0,.7-.1,1.1-.4,1.3a4,4,0,0,1-2,.3H108.1c-1.4,0-2.3-.1-2.6-.4s-.4-1.1-.4-2.4V253a6.76,6.76,0,0,1,.8-3.7,5.61,5.61,0,0,1,3.1-1.7c.6-.2.9-.4.9-.8s-.3-.7-1-.7a9.89,9.89,0,0,0-1.5.1,33.33,33.33,0,0,1-4.6.3,59.81,59.81,0,0,1-6.4-.3c-1-.1-1.7-.2-2.1-.2-.6,0-.9.2-.9.7A1.13,1.13,0,0,0,94.6,247.52Z"/><path class="a" d="M152.3,289.72c0,2.1-.6,3.3-1.9,3.6l-1,.3c-.5.1-.7.3-.7.6s.3.6.8.6c.2,0,.7-.1,1.4-.2a46.11,46.11,0,0,1,6.4-.3c2.2,0,4.9.2,8.2.5a15.56,15.56,0,0,0,2,.1,7.24,7.24,0,0,0,5.8-2.8c1.3-1.6,1.9-2.9,1.9-4,0-.5-.2-.7-.5-.7s-.4.2-.6.5c-1.9,3.1-6.3,4.6-13.1,4.6a10.12,10.12,0,0,1-4-.5c-.5-.4-.8-1.3-.8-2.8v-10.5c0-.5.1-.9.4-1a3.42,3.42,0,0,1,1.7-.3H164a6.47,6.47,0,0,1,3.2.6,3.42,3.42,0,0,1,1.2,2.4l.2.7a.66.66,0,0,0,.7.6c.3,0,.5-.2.5-.6a2.81,2.81,0,0,0-.1-.8c-.1-1-.2-2.1-.2-3.1,0-1.4.1-2.9.2-4.6V272c0-.5-.2-.7-.5-.7a.66.66,0,0,0-.7.6,4.79,4.79,0,0,1-.8,2.2,3.78,3.78,0,0,1-1.8.8,24.64,24.64,0,0,1-4.3.3h-4a2.75,2.75,0,0,1-1.3-.2,3.71,3.71,0,0,1-.2-1.4v-10.5a2.57,2.57,0,0,1,.5-1.8c.3-.3,1-.4,2.1-.4h4.1a22.84,22.84,0,0,1,5.5.4,2.79,2.79,0,0,1,2,1.6,4.15,4.15,0,0,1,.3,1.6v.7c0,.5.2.8.5.8a.68.68,0,0,0,.6-.4,9,9,0,0,0,.3-1.9l.1-1.5c.1-1.1.2-1.8.2-2.1a1.27,1.27,0,0,0,.1-.6c0-.5-.3-.8-.9-.8a4.14,4.14,0,0,0-1,.1c-.2,0-.8.1-1.9.1l-3.7.2c-1.6.1-3.5.1-5.6.1a78.16,78.16,0,0,1-9-.4,11.56,11.56,0,0,0-1.7-.1c-.8,0-1.2.2-1.2.7,0,.3.3.5.8.5,1.6,0,2.6.4,3.2,1.3a11,11,0,0,1,.8,5v22Z"/><path class="a" d="M195.2,261.92a2.21,2.21,0,0,1,1.4-.3h7.3a4.79,4.79,0,0,1,2.9.6,3.84,3.84,0,0,1,1.1,2.4c.1.6.3.8.6.8s.6-.3.5-.8a10.5,10.5,0,0,0-.2-1.3,12.84,12.84,0,0,1-.1-2.2,3.12,3.12,0,0,0-.3-1.8,2.94,2.94,0,0,0-1.7-.3h-28c-.6,0-1,.1-1.2.4a3,3,0,0,0-.3,1.6,13.76,13.76,0,0,1-.4,3.1,11.89,11.89,0,0,0-.3,2c0,.4.2.7.5.7s.5-.3.7-1a5.32,5.32,0,0,1,1.5-3.2,4.43,4.43,0,0,1,3.1-.8h6.9a1.88,1.88,0,0,1,1.3.3,1.74,1.74,0,0,1,.3,1.2v26.3c0,1.5-.2,2.5-.7,3a4.25,4.25,0,0,1-2.7,1.1c-.6.1-.9.2-.9.5s.3.6.8.6c.2,0,.8-.1,1.7-.2.5,0,1.1-.1,1.9-.1h3.9a11.66,11.66,0,0,1,2.3.1c.6.1,1.1.2,1.3.2.5,0,.7-.2.7-.6s-.3-.5-.9-.6c-2.2-.4-3.3-1.6-3.4-3.6v-26.5A4,4,0,0,1,195.2,261.92Z"/><path class="a" d="M215.8,289.72c0,2.1-.6,3.3-1.9,3.6l-1,.3c-.5.1-.7.3-.7.6s.3.6.8.6c.2,0,.7-.1,1.4-.2a46.12,46.12,0,0,1,6.4-.3c2.2,0,4.9.2,8.2.5a15.56,15.56,0,0,0,2,.1,7.24,7.24,0,0,0,5.8-2.8c1.3-1.6,1.9-2.9,1.9-4,0-.5-.2-.7-.5-.7s-.4.2-.6.5c-1.9,3.1-6.3,4.6-13.1,4.6a9.76,9.76,0,0,1-4-.5c-.5-.4-.8-1.3-.8-2.8v-10.5c0-.5.1-.9.4-1a3.42,3.42,0,0,1,1.7-.3h5.7a6.47,6.47,0,0,1,3.2.6,3.42,3.42,0,0,1,1.2,2.4l.2.7a.66.66,0,0,0,.7.6c.3,0,.5-.2.5-.6a2.81,2.81,0,0,0-.1-.8c-.1-1-.2-2.1-.2-3.1,0-1.4.1-2.9.2-4.6V272c0-.5-.2-.7-.5-.7a.66.66,0,0,0-.7.6,4.79,4.79,0,0,1-.8,2.2,3.78,3.78,0,0,1-1.8.8,24.64,24.64,0,0,1-4.3.3h-4a2.75,2.75,0,0,1-1.3-.2,3.71,3.71,0,0,1-.2-1.4v-10.5a2.58,2.58,0,0,1,.5-1.8c.3-.3,1-.4,2.1-.4h4.1a22.84,22.84,0,0,1,5.5.4,2.79,2.79,0,0,1,2,1.6,4.15,4.15,0,0,1,.3,1.6v.7c0,.5.2.8.5.8a.68.68,0,0,0,.6-.4,9,9,0,0,0,.3-1.9l.1-1.5c.1-1.1.2-1.8.2-2.1a1.27,1.27,0,0,0,.1-.6c0-.5-.3-.8-.9-.8a4.14,4.14,0,0,0-1,.1c-.2,0-.8.1-1.9.1l-3.7.2c-1.6.1-3.5.1-5.6.1a78.16,78.16,0,0,1-9-.4,11.56,11.56,0,0,0-1.7-.1c-.8,0-1.2.2-1.2.7,0,.3.2.5.8.5,1.6,0,2.6.4,3.2,1.3a11,11,0,0,1,.8,5v22Z"/><path class="a" d="M272.9,263.82c-3.6-3.6-8.9-5.4-16-5.4-1.2,0-2.4,0-3.4.1l-2.4.2c-1,.1-2.3.1-4.1.1h-1.8l-2.1-.1c-.5,0-.7.2-.7.5s.3.5.9.5a3.53,3.53,0,0,1,2.9,1.4,6.59,6.59,0,0,1,.9,3.9v23.6a10,10,0,0,1-.5,3.8,3,3,0,0,1-2.3,1.3c-.5.1-.7.3-.7.6s.3.6.9.6a10.4,10.4,0,0,0,1.5-.2,34.25,34.25,0,0,1,4.8-.3c1.7,0,3.7.1,6.1.2,1.1.1,1.9.1,2.4.1a19.43,19.43,0,0,0,10.5-3,16.15,16.15,0,0,0,5.9-6.5,19.55,19.55,0,0,0,2.1-9A17.54,17.54,0,0,0,272.9,263.82Zm-5.1,27.3a14.59,14.59,0,0,1-8,2.2,17.13,17.13,0,0,1-3.6-.4,34.63,34.63,0,0,1-3.5-.9,2.14,2.14,0,0,1-1.6-2.2V263c0-1.1.2-1.8.7-2.1.7-.6,2.5-.9,5.2-.9a15.61,15.61,0,0,1,15,9.3,20.45,20.45,0,0,1,1.9,9C273.8,284.42,271.8,288.62,267.8,291.12Z"/><path class="a" d="M285,262.62c1,1.7,1.4,4.1,1.4,7.1v17.7a8.44,8.44,0,0,1-.8,4.1,5.44,5.44,0,0,1-3,2c-.5.2-.7.4-.7.6s.3.5.7.5a4.59,4.59,0,0,0,1-.1,11.48,11.48,0,0,1,1.9-.1h1.2l2.7.1a16.3,16.3,0,0,1,2.3.2c.3,0,.5.1.8.1s.5-.2.5-.5-.3-.6-.9-.7a5,5,0,0,1-2.8-1,3.37,3.37,0,0,1-.9-2.4l-.1-1.8v-18.8c0-.8.2-1.2.5-1.2a.76.76,0,0,1,.4.2l.3.3L311.4,294l.6.7a.85.85,0,0,0,.6.2.66.66,0,0,0,.7-.6,26.66,26.66,0,0,0,.1-3.6v-21.8l.1-1.7v-2.8a8.26,8.26,0,0,1,.5-3.4,3.06,3.06,0,0,1,2.1-1.3c.4-.1.5-.3.5-.5,0-.4-.3-.5-.7-.5a10.5,10.5,0,0,0-1.3.2,16.12,16.12,0,0,1-2.6.2c-2,0-3.6-.1-4.8-.2-.5,0-.9-.1-1.1-.1-.5,0-.8.2-.8.5s.2.6.8.6a7.68,7.68,0,0,1,3.7,1.4,5,5,0,0,1,1.3,3.1l.3,6v16.4c0,.3-.1.5-.3.5s-.3-.2-.7-.6l-23.9-27.1a1.88,1.88,0,0,0-1.3-.8h-1.4l-1.7-.1h-1.5c-.4,0-.6.2-.6.5s.2.5.7.6A5.13,5.13,0,0,1,285,262.62Z"/><path class="a" d="M355,293.62a7.6,7.6,0,0,1-3.3-1.2,12.94,12.94,0,0,1-2-3.9l-.6-1.4-11.2-28.7c-.2-.5-.4-.8-.7-.8s-.5.3-.8.8L323,288.12l-.8,1.7a11.35,11.35,0,0,1-1.5,2.3,4.9,4.9,0,0,1-1.4,1.3l-1,.3a.55.55,0,0,0-.4.6c0,.3.2.5.7.5a13.58,13.58,0,0,0,1.5-.1h1.2a25.32,25.32,0,0,1,2.9.1l2.5.1h.9c.5,0,.7-.1.7-.4s-.3-.5-.8-.6a7.48,7.48,0,0,1-2.4-.9,2.44,2.44,0,0,1-.6-1.8,10.75,10.75,0,0,1,1.2-3.9l1.7-3.8a2.7,2.7,0,0,1,3.6-2.4h9.4a5.25,5.25,0,0,1,1.8.2,4.5,4.5,0,0,1,.9,1.7l1.3,3.4a18.48,18.48,0,0,1,1.6,5.5,1.59,1.59,0,0,1-1.3,1.8l-.8.2c-.4.1-.6.3-.6.5,0,.4.2.5.7.5a2.81,2.81,0,0,0,.8-.1,34.29,34.29,0,0,1,4.5-.2c2.3,0,3.9,0,4.8.1.5,0,.8.1,1,.1.5,0,.7-.1.7-.4C355.8,293.92,355.5,293.72,355,293.62Zm-15.3-15.2h-8.6c-.8,0-1.2-.2-1.2-.7a3.26,3.26,0,0,1,.3-1l5.1-11.3c.2-.3.3-.5.4-.5s.5.3.7.9l.2.5,4.1,10.3.1.5a1.76,1.76,0,0,1,.1.6C341,278.22,340.6,278.42,339.7,278.42Z"/><path class="a" d="M366.7,258.72q-3.15.3-4.8.3c-.7,0-1.6-.1-2.7-.2a7.17,7.17,0,0,0-1.3-.1c-.7,0-1,.2-1,.6s.2.5.7.5c1.7.2,2.8.8,3.3,1.7s.7,3.3.7,6.9v15.8c0,3.4-.2,5.8-.7,7.1a3.35,3.35,0,0,1-2.8,2.3q-.9.15-.9.6c0,.3.2.5.7.5a9.89,9.89,0,0,0,1.5-.1,14.17,14.17,0,0,1,2.3-.1h2l1.8.1h2.7a13.92,13.92,0,0,0,1.7.1c.6,0,.9-.2.9-.7,0-.3-.3-.5-.8-.5a7.87,7.87,0,0,1-2.2-.4c-1.4-.4-2.2-1.6-2.3-3.7l-.1-2.2v-25a2.08,2.08,0,0,1,.4-1.5,1.81,1.81,0,0,1,1.4-.4,11.21,11.21,0,0,1,7.5,2.6,8.2,8.2,0,0,1,3,6.5,7.45,7.45,0,0,1-2.2,5.5,8.44,8.44,0,0,1-6,2.1,7.75,7.75,0,0,1-1.9-.2,1.09,1.09,0,0,0-.5-.1c-.3,0-.5.1-.5.3s.4.5,1.3.8a13.61,13.61,0,0,0,3,.4,11.12,11.12,0,0,0,6.6-2.2,9.28,9.28,0,0,0,4.2-8,8,8,0,0,0-3.4-6.8,14.37,14.37,0,0,0-8.8-2.6C368.7,258.62,367.8,258.62,366.7,258.72Z"/><path class="a" d="M397.3,294.72a3.75,3.75,0,0,0,1,.1c.5,0,.8-.2.8-.6s-.4-.5-1.3-.6a5.57,5.57,0,0,1-2.4-.8,4.85,4.85,0,0,1-1.3-1.9,16.93,16.93,0,0,1-.4-4.8v-19.5c0-3.7.6-5.7,1.9-6.2l1.4-.5c.4-.2.7-.4.7-.7s-.2-.5-.7-.5h-.7l-1.7.1a32.18,32.18,0,0,1-3.3.1c-2.1,0-3.8-.1-5.1-.2h-.5c-.5,0-.8.2-.8.6s.3.5.8.6a5,5,0,0,1,3.2,1.5c.5.7.7,2.2.7,4.4v22.3c0,2.2-.2,3.7-.6,4.3s-1.2,1.1-2.6,1.4c-.5.1-.8.3-.8.6s.2.5.7.5a5.74,5.74,0,0,0,1.2-.1l3.1-.2,3.8.1A13.46,13.46,0,0,1,397.3,294.72Z"/><path class="a" d="M240.3,222.22v-27.5H226.4v-9.8h13.9V184c0-9.8-4.5-16.9-35.6-11.6l-51.1,9.1-29.4,40.8,70.6-12.5C215.9,206.22,234.4,205.42,240.3,222.22Z"/><path class="a" d="M273.8,183.72c-16,16-23.9,25.2-23.9,38.5,6.1-17.6,25.6-16,48.6-11.6l67.8,11.7-29.5-40.7-51.7-9.1Z"/><path class="a" d="M275,157.72c-6.3,6.3-17.2,16.2-22.3,27.2h11.4l13.1-13c12-12,21.3-21.2,25.2-32.7a42.17,42.17,0,0,0,2.2-21c-.3-2.3-1.3-5.5-1.3-4.9-1.2,13.1-4.8,20.9-23.8,39.9Z"/><path class="a" d="M239.5,77.32c7-7,24.6-22.8,24.6-36.4V25.82c0-.2-.3-.1-.3,0-1.2,10.2-3.6,14.6-28.6,39.5l-24.6,24.6c-13,13-23.6,26.9-22.2,42.3.8,8.7,3.7,13.4,5.6,14.8,1,.7.7.2.5-.4-7.5-17,10.3-34.6,19.3-43.5Z"/><path class="a" d="M239.5,103.22c7-7,24.6-22.8,24.6-36.4V51.72c0-.2-.3-.1-.3,0-1.2,10.2-3.6,14.6-28.6,39.5l-22.8,22.9c-8.3,8.3-15.9,17-15.6,31,.2,8.6,4.5,15.7,11.1,17.4,2.7.6,2.5.2,1.9,0-9.2-4.3-8.5-20.9,6.3-35.8Z"/><path class="a" d="M187.1,120.22c1.2-13.1,4.8-20.9,23.8-39.9l28.7-28.7c7-7,24.6-22.8,24.6-36.4V.12c0-.2-.3-.1-.3,0-1.2,10.2-3.6,14.6-28.6,39.5l-22.1,22.1c-12,12-21.3,21.2-25.2,32.7a42.17,42.17,0,0,0-2.2,21C186,117.72,187,120.92,187.1,120.22Z"/><path class="a" d="M250.2,209.72a32.08,32.08,0,0,1,6-15h-6.3v15C249.9,209.82,250.2,209.82,250.2,209.72Z"/><path class="a" d="M279.6,127.32l-7.2,7.2c-11.2,11.1-22.4,23.5-22.4,35v15.3c0,.1.3.1.3,0,1.2-11.2,6.6-18.4,22.7-34.6l6.7-6.7c13-13,23.6-26.9,22.2-42.3-.8-8.7-3.7-13.4-5.6-14.8-.9-.7-.7-.2-.5.4C303.4,103.82,285.5,121.52,279.6,127.32Z"/><path class="a" d="M249.9,158.32c0,.1.3.1.3,0,1.3-10.6,7.3-18.7,21.2-32.6l6.6-6.6c8.3-8.3,15.8-16.9,15.4-31-.2-8.6-4.5-15.7-11.1-17.4-2.7-.6-2.5-.2-1.9,0,9.2,4.3,8.5,20.9-6.3,35.8l-8.2,8.2c-5.3,5.3-16.2,17.1-16.2,28.1v15.5Z"/><path class="a" d="M363.6,203.22a5.8,5.8,0,0,0,0-11.6,5.56,5.56,0,0,0-4.4,2,5.86,5.86,0,0,0,0,7.6A5.56,5.56,0,0,0,363.6,203.22Zm-3.6-9.5a5,5,0,0,1,3.7-1.5,5.14,5.14,0,0,1,3.7,1.5,5,5,0,0,1,1.5,3.7,5.14,5.14,0,0,1-1.5,3.7,5,5,0,0,1-3.7,1.5,5.14,5.14,0,0,1-3.7-1.5,5,5,0,0,1-1.5-3.7A4.44,4.44,0,0,1,360,193.72Z"/><path class="a" d="M360.9,194.32h.2c.3.1.5.3.5.8v4a2.24,2.24,0,0,1-.1,1,.46.46,0,0,1-.5.3.2.2,0,0,0,0,.4h2.2c.2,0,.2-.1.2-.2a.22.22,0,0,0-.2-.2,1,1,0,0,1-.7-.2,1.17,1.17,0,0,1-.2-.7v-1.8h.8c.2,0,.3.1.3.2l.1.1,1.2,1.8a1.94,1.94,0,0,0,1.6,1c.5,0,.8-.1.8-.2s0-.1-.1-.1h-.2c-.3,0-.7-.3-1.1-.9l-.2-.2-1.3-1.9a1.89,1.89,0,0,0,1.2-1.7c0-1.2-.8-1.7-2.3-1.7h-2.2c-.2,0-.2.1-.2.2C360.7,194.22,360.8,194.32,360.9,194.32Zm2.1.1a1.59,1.59,0,0,1,1.2.4,1.43,1.43,0,0,1,.5,1.1c0,.8-.4,1.2-1.3,1.2h-.7v-2.3C362.5,194.62,362.7,194.42,363,194.42Z"/><path class="a" d="M72.1,358.52c-3.2-.6-5.3-1.4-6.4-2.4s-2.4-3.5-4-7.6l-1.1-2.7L38.8,290c-.4-1-.8-1.5-1.4-1.5s-1,.5-1.5,1.5L9.8,347.92l-1.5,3.3a21.11,21.11,0,0,1-2.8,4.5,8,8,0,0,1-2.7,2.5l-1.9.6c-.6.2-.9.5-.9,1.1s.5.9,1.4.9c.2,0,1.1-.1,2.8-.3.5,0,1.3-.1,2.3-.1,2.1,0,4,0,5.6.1l4.9.3c.8,0,1.3.1,1.7.1,1,0,1.4-.3,1.4-.8s-.6-1-1.6-1.2a11.36,11.36,0,0,1-4.7-1.8,4.49,4.49,0,0,1-1.2-3.5c0-1.7.8-4.2,2.3-7.6l3.3-7.5c1-2.3,1.8-3.7,2.4-4.1s2.2-.6,4.7-.6H43.6c1.9,0,3,.1,3.4.4a9.16,9.16,0,0,1,1.7,3.2l2.5,6.7c2.1,5.3,3.1,8.9,3.1,10.7,0,2-.8,3.1-2.5,3.5l-1.6.4c-.8.2-1.3.5-1.3,1,0,.7.4,1,1.3,1,.3,0,.9-.1,1.6-.2a73.89,73.89,0,0,1,8.8-.3c4.5,0,7.6.1,9.4.3a17.67,17.67,0,0,0,1.9.1c.9,0,1.4-.3,1.4-.8C73.6,359.22,73.1,358.72,72.1,358.52ZM42.4,329H27.1l-1.4-.1c-1.6,0-2.3-.4-2.3-1.3a5.5,5.5,0,0,1,.7-1.9l9.9-21.9c.3-.7.6-1,.8-1,.5,0,.9.6,1.3,1.7l.4,1.1,8,20.1.3.9a3.46,3.46,0,0,1,.3,1.2Q44.8,329,42.4,329Z"/><path class="a" d="M95.6,307.82c-1.8,0-3.5.1-5,.2l-3.5.3c-1.4.1-3.4.2-6,.2H78.4l-3-.2c-.7,0-1,.2-1,.7s.4.7,1.3.8a5.75,5.75,0,0,1,4.3,2.1c.9,1.2,1.3,3.1,1.3,5.6v34.2c0,2.8-.3,4.7-.8,5.6s-1.6,1.5-3.3,1.9c-.7.2-1.1.4-1.1.9s.4.9,1.3.9c.5,0,1.3-.1,2.2-.2a48.66,48.66,0,0,1,7.1-.4c2.5,0,5.5.1,8.8.3,1.7.1,2.8.2,3.5.2a28.65,28.65,0,0,0,15.3-4.4,23.91,23.91,0,0,0,8.7-9.4,27.93,27.93,0,0,0,3.1-13.2c0-7.4-2.4-13.5-7.1-18.3Q111.2,307.82,95.6,307.82Zm15.9,47.6a21.54,21.54,0,0,1-11.7,3.3,29.49,29.49,0,0,1-5.3-.6,31,31,0,0,1-5.1-1.3,3.21,3.21,0,0,1-2.3-3.2v-39.1c0-1.6.3-2.6,1-3.1,1.1-.9,3.6-1.3,7.6-1.3a22.66,22.66,0,0,1,21.9,13.6,31.66,31.66,0,0,1,2.7,13.1C120.3,345.62,117.4,351.72,111.5,355.42Z"/><path class="a" d="M174.6,314a7.46,7.46,0,0,1,4.1-4.4c.5-.2.8-.5.8-.8a.71.71,0,0,0-.8-.7h-7.5c-.4,0-1.5-.1-3.4-.2h-1.1c-.8,0-1.2.2-1.3.7s.7.8,2.1,1a4.18,4.18,0,0,1,2.3.9,2.16,2.16,0,0,1,.6,1.8c0,2.4-1.8,7.9-5.4,16.4l-8.3,19.8-.6,1.4c-.7,1.4-1.1,2.2-1.4,2.2s-.6-.4-1-1.2l-14.6-33.5a15.09,15.09,0,0,1-1.6-5.3,1.81,1.81,0,0,1,.4-1.4,5.86,5.86,0,0,1,2-1c.5-.2.8-.5.8-.8,0-.5-.3-.7-1-.7a5.38,5.38,0,0,0-1.1.1c-1.1.1-1.9.2-2.4.2h-6.1a29.59,29.59,0,0,1-3.8-.1c-.5,0-.9-.1-1.1-.1-.7,0-1.1.2-1.1.7a.55.55,0,0,0,.4.6,12,12,0,0,0,2.3.5,4.44,4.44,0,0,1,3,1.6,16.67,16.67,0,0,1,2.5,4.3l19.2,44.6c.6,1.3,1.1,1.9,1.6,1.9s1-.6,1.5-1.9l18.9-44.2Z"/><path class="a" d="M185.8,360.62a63.73,63.73,0,0,1,9.4-.5,117.49,117.49,0,0,1,12,.7c1.2.1,2.2.2,3,.2a10.42,10.42,0,0,0,8.4-4.1c1.8-2.3,2.8-4.2,2.8-5.9,0-.7-.2-1-.7-1-.3,0-.6.3-.9.7-2.8,4.5-9.2,6.7-19.1,6.7-3.1,0-5.1-.3-5.9-.8s-1.2-1.9-1.2-4v-15.3q0-1.2.6-1.5a4.66,4.66,0,0,1,2.5-.4h8.4a8.6,8.6,0,0,1,4.6.9,5.09,5.09,0,0,1,1.8,3.5l.2,1.1c.1.6.4.8,1,.8s.7-.3.7-.9a5.38,5.38,0,0,0-.1-1.1,34.64,34.64,0,0,1-.2-4.6c0-2,.1-4.3.3-6.7v-.8c0-.7-.2-1-.7-1s-.8.3-1,.9a7.51,7.51,0,0,1-1.1,3.2,4.91,4.91,0,0,1-2.7,1.1,33.21,33.21,0,0,1-6.3.5h-5.8c-1.1,0-1.7-.1-2-.4a4,4,0,0,1-.3-2.1v-15.3c0-1.3.2-2.2.7-2.6a5.17,5.17,0,0,1,3-.6h5.9a36.46,36.46,0,0,1,8.1.6,3.88,3.88,0,0,1,2.9,2.3,5.93,5.93,0,0,1,.5,2.3v1c0,.8.2,1.2.7,1.1a1,1,0,0,0,.9-.6,15.73,15.73,0,0,0,.4-2.7l.2-2.2a19.18,19.18,0,0,1,.3-3,3.08,3.08,0,0,0,.1-.9c0-.7-.4-1.1-1.3-1.1a5,5,0,0,0-1.5.2,24.55,24.55,0,0,1-2.7.2l-5.4.3c-2.4.1-5.1.2-8.2.2a123,123,0,0,1-13.1-.6c-1.1-.1-1.9-.2-2.5-.2-1.1,0-1.7.3-1.7,1,0,.5.4.7,1.1.7,2.3,0,3.9.6,4.6,1.9s1.2,3.7,1.2,7.3v34.6c0,3-.9,4.8-2.7,5.3l-1.4.4c-.7.2-1,.5-1,.9s.4.8,1.2.8A4.44,4.44,0,0,1,185.8,360.62Z"/><path class="a" d="M236.1,324.12c0-1.1.2-1.7.7-1.7a.76.76,0,0,1,.5.2l.4.4,32,36.6.8,1a1.22,1.22,0,0,0,.9.3c.6,0,.9-.3,1.1-.9a44.08,44.08,0,0,0,.2-5.2V323l.1-2.5v-4.1c0-2.4.2-4.1.7-5a4.51,4.51,0,0,1,3.1-1.9c.5-.2.8-.4.8-.7,0-.5-.4-.8-1.1-.8-.4,0-1,.1-1.9.2a20.08,20.08,0,0,1-3.8.2,64.14,64.14,0,0,1-7-.3,11,11,0,0,0-1.6-.1c-.7,0-1.1.2-1.1.7s.4.8,1.1.9c2.6.4,4.4,1.1,5.4,2s1.6,2.4,1.9,4.6l.5,8.7v23.9c0,.5-.2.7-.4.7s-.5-.3-1.1-.9l-34.9-39.5a2.73,2.73,0,0,0-1.9-1.1h-2l-2.5-.1h-2.2c-.6,0-.8.2-.8.7s.3.8,1,.9a8,8,0,0,1,6,4.3c1.4,2.5,2.1,6,2.1,10.3v25.8a12.3,12.3,0,0,1-1.1,5.9,7.6,7.6,0,0,1-4.3,2.9c-.7.2-1.1.6-1.1.9,0,.5.4.7,1.1.7a8.8,8.8,0,0,0,1.4-.1,24.58,24.58,0,0,1,2.8-.2l1.8-.1,3.9.2c1.9.1,3,.2,3.3.2s.8.1,1.1.1c.5,0,.8-.2.8-.7s-.4-.9-1.3-1a8.21,8.21,0,0,1-4-1.4c-.7-.6-1.1-1.8-1.3-3.5l-.1-2.7v-27Z"/><path class="a" d="M307.9,312.92a3.16,3.16,0,0,1,2.1-.5h10.7a8.27,8.27,0,0,1,4.3.8,5.43,5.43,0,0,1,1.6,3.5q.3,1.2.9,1.2c.6,0,.8-.5.8-1.2,0-.4-.1-1-.2-1.9a23.28,23.28,0,0,1-.2-3.2c0-1.5-.1-2.4-.4-2.7a4,4,0,0,0-2.5-.5H284.1a2.28,2.28,0,0,0-1.7.5,4.05,4.05,0,0,0-.4,2.3,21.47,21.47,0,0,1-.6,4.5,19.1,19.1,0,0,0-.5,2.9c0,.7.2,1,.7,1s.8-.5,1-1.4c.5-2.3,1.2-3.8,2.1-4.6s2.4-1.2,4.5-1.2h10.1c1,0,1.6.1,1.8.4s.4.8.4,1.7v38.7c0,2.1-.3,3.6-1,4.4a5.92,5.92,0,0,1-3.9,1.6c-.8.1-1.3.3-1.3.7s.4.8,1.1.8c.3,0,1.1-.1,2.5-.2a21,21,0,0,1,2.7-.1h5.8a25.66,25.66,0,0,1,3.4.1,8.44,8.44,0,0,0,1.9.2c.7,0,1.1-.3,1.1-.8s-.4-.7-1.3-.9c-3.2-.6-4.8-2.3-5-5.3V315C307.5,313.92,307.6,313.22,307.9,312.92Z"/><path class="a" d="M349.9,358.92a8,8,0,0,1-3.5-1.1,5.86,5.86,0,0,1-1.9-2.7c-.4-1.1-.6-3.5-.6-7v-28.4c0-5.3.9-8.4,2.8-9.1l2-.8c.7-.2,1-.6,1-1s-.3-.7-1-.7h-.9l-2.5.2c-1.3.1-2.9.1-4.8.1a72.57,72.57,0,0,1-7.4-.3h-.7c-.8,0-1.1.3-1.1.8s.4.7,1.2.9c2.3.4,3.9,1.1,4.6,2.2s1.1,3.2,1.1,6.3v32.5c0,3.2-.3,5.3-.8,6.3s-1.8,1.7-3.7,2q-1.2.15-1.2.9c0,.5.3.8,1,.8a12.13,12.13,0,0,0,1.8-.1l4.5-.3,5.5.1a33.12,33.12,0,0,1,4,.2,8.17,8.17,0,0,0,1.4.1q1.2,0,1.2-.9C351.8,359.42,351.1,359.12,349.9,358.92Z"/><path class="a" d="M375.5,330.12a93.37,93.37,0,0,1-9-3.3,10.15,10.15,0,0,1-3.4-2.9,8.66,8.66,0,0,1-1.8-5.5,7.7,7.7,0,0,1,2.7-6,9.91,9.91,0,0,1,6.8-2.4,16.84,16.84,0,0,1,9.3,2.7,12.49,12.49,0,0,1,5.5,6.8q.6,1.8,1.2,1.8c.5,0,.8-.4.8-1.2,0-.2-.1-.7-.2-1.6l-.4-3.9c-.3-2.1-.5-3.4-.5-3.8,0-1.3-.3-1.9-.9-1.9a.52.52,0,0,0-.4.2l-.5.5a1.22,1.22,0,0,1-.9.4,1,1,0,0,1-.7-.2l-2.6-1.1a20,20,0,0,0-18.7,2.7,12.68,12.68,0,0,0-4.6,10,12,12,0,0,0,3.5,8.9c2.3,2.3,6.3,4.4,11.9,6.3q8.1,2.7,9.9,4.2a9.05,9.05,0,0,1,3.3,7.1,9.66,9.66,0,0,1-3.6,7.5,13,13,0,0,1-8.8,3.1,16,16,0,0,1-9.5-3.2,15.47,15.47,0,0,1-5.8-7.9c-.4-1.2-.8-1.8-1.2-1.9s-.8.3-.8,1.1a18.78,18.78,0,0,0,1,4.9,33.49,33.49,0,0,1,.9,3.5,11.63,11.63,0,0,0,.7,2.6,4.06,4.06,0,0,0,.9,1,16.06,16.06,0,0,0,5.1,1.9,25.43,25.43,0,0,0,6.4.8q8.1,0,13.2-4.5a14.89,14.89,0,0,0,5.2-11.6C389.5,338.22,384.8,333.12,375.5,330.12Z"/><path class="a" d="M420.2,312.92a3.16,3.16,0,0,1,2.1-.5H433a8.27,8.27,0,0,1,4.3.8,5.43,5.43,0,0,1,1.6,3.5q.3,1.2.9,1.2c.6,0,.8-.5.8-1.2,0-.4-.1-1-.2-1.9a23.28,23.28,0,0,1-.2-3.2c0-1.5-.1-2.4-.4-2.7a4,4,0,0,0-2.5-.5H396.4a2.28,2.28,0,0,0-1.7.5,4.05,4.05,0,0,0-.4,2.3,21.47,21.47,0,0,1-.6,4.5,19.1,19.1,0,0,0-.5,2.9c0,.7.2,1,.7,1s.8-.5,1-1.4c.5-2.3,1.2-3.8,2.1-4.6s2.4-1.2,4.5-1.2h10.1c1,0,1.6.1,1.8.4s.4.8.4,1.7v38.7c0,2.1-.3,3.6-1,4.4a5.92,5.92,0,0,1-3.9,1.6c-.8.1-1.3.3-1.3.7s.4.8,1.1.8c.3,0,1.1-.1,2.5-.2a21,21,0,0,1,2.7-.1h5.8a25.66,25.66,0,0,1,3.4.1,8.44,8.44,0,0,0,1.9.2c.7,0,1.1-.3,1.1-.8s-.4-.7-1.3-.9c-3.2-.6-4.8-2.3-5-5.3V315C419.8,313.92,419.9,313.22,420.2,312.92Z"/><path class="a" d="M489.4,359q-3.6-.6-4.8-1.8c-.8-.7-1.8-2.7-3-5.7l-.8-2.1-16.3-41.8c-.3-.7-.6-1.1-1-1.1s-.8.4-1.1,1.1l-19.5,43.3-1.1,2.5a23.94,23.94,0,0,1-2.1,3.4c-.9,1.1-1.5,1.7-2,1.8l-1.4.4a.76.76,0,0,0-.6.8c0,.5.3.7,1,.7.1,0,.8-.1,2.1-.2.4,0,1-.1,1.7-.1,1.6,0,3,0,4.2.1l3.6.2h1.3c.7,0,1.1-.2,1.1-.6s-.4-.7-1.2-.9a7.81,7.81,0,0,1-3.5-1.4,3.27,3.27,0,0,1-.9-2.6,17.38,17.38,0,0,1,1.7-5.7l2.5-5.6a9.92,9.92,0,0,1,1.8-3,7.84,7.84,0,0,1,3.5-.5h13.7a6.44,6.44,0,0,1,2.6.3,7.27,7.27,0,0,1,1.3,2.4l1.9,5c1.5,4,2.3,6.7,2.3,8a2.29,2.29,0,0,1-1.9,2.6l-1.2.3c-.6.1-.9.4-.9.8s.3.8,1,.8a3.23,3.23,0,0,0,1.2-.2,47.69,47.69,0,0,1,6.6-.2c3.4,0,5.7.1,7,.2a9.51,9.51,0,0,0,1.4.1c.7,0,1-.2,1.1-.6C490.6,359.42,490.2,359.12,489.4,359Zm-22.2-22.1H454.7c-1.2,0-1.7-.3-1.7-1a5.93,5.93,0,0,1,.5-1.4l7.4-16.4c.2-.5.4-.7.6-.7.4,0,.7.4,1,1.3l.3.8,6,15,.2.7a5.08,5.08,0,0,1,.2.9C469.1,336.52,468.5,336.92,467.2,336.92Z"/><path class="a" d="M478.9,314.32a5.8,5.8,0,0,0,0-11.6,5.56,5.56,0,0,0-4.4,2,5.86,5.86,0,0,0,0,7.6A5.56,5.56,0,0,0,478.9,314.32Zm-3.7-9.5a5,5,0,0,1,3.7-1.5,5.14,5.14,0,0,1,3.7,1.5,5,5,0,0,1,1.5,3.7,5.14,5.14,0,0,1-1.5,3.7,5,5,0,0,1-3.7,1.5,5.14,5.14,0,0,1-3.7-1.5,5.31,5.31,0,0,1,0-7.4Z"/><path class="a" d="M476.2,305.42h.2c.3,0,.5.3.5.8v4a2.25,2.25,0,0,1-.1,1,.46.46,0,0,1-.5.3.2.2,0,0,0,0,.4h2.2c.2,0,.2-.1.2-.2a.22.22,0,0,0-.2-.2,1,1,0,0,1-.7-.2,1.17,1.17,0,0,1-.2-.7v-1.8h.8c.2,0,.3.1.3.2l.1.1,1.2,1.8a1.94,1.94,0,0,0,1.6,1c.5,0,.8-.1.8-.2s0-.1-.1-.1h-.2c-.3,0-.7-.3-1.1-.9l-.2-.2-1.3-1.9a1.89,1.89,0,0,0,1.2-1.7c0-1.2-.8-1.7-2.3-1.7h-2.2c-.2,0-.2.1-.2.2C476,305.32,476.1,305.42,476.2,305.42Zm2.1.1a1.59,1.59,0,0,1,1.2.4,1.43,1.43,0,0,1,.5,1.1c0,.8-.4,1.2-1.3,1.2H478v-2.3C477.8,305.62,478,305.52,478.3,305.52Z"/></svg>