<svg xmlns="http://www.w3.org/2000/svg" viewBox="0 0 98 128"><title>file-doc-lg</title><path d="M16,0a1,1,0,0,0-1,1V127a1,1,0,0,0,1,1h96a1,1,0,0,0,1-1V98H52a1,1,0,0,1-1-1V69a1,1,0,0,1,1-1h61V26H88a1,1,0,0,1-1-1V0H16ZM89,0V23a1,1,0,0,0,1,1h23ZM79.81,78.88a5.5,5.5,0,0,0-4.12,1.53,6.57,6.57,0,0,0,0,8.28,5.5,5.5,0,0,0,4.13,1.53A5.57,5.57,0,0,0,84,88.69a6.52,6.52,0,0,0,0-8.28A5.52,5.52,0,0,0,79.81,78.88Zm12.72,0a6.59,6.59,0,0,0-2.31.41,4.78,4.78,0,0,0-1.75,1.13,5,5,0,0,0-1.12,1.81,6.71,6.71,0,0,0-.41,2.34A6.82,6.82,0,0,0,87.34,87a4.63,4.63,0,0,0,2.94,2.84,6.82,6.82,0,0,0,2.25.38,7.61,7.61,0,0,0,1.28-.09,9.08,9.08,0,0,0,1-.22,6.49,6.49,0,0,0,.78-0.28l0.78-.34V86.66H96.09l-0.53.44a6,6,0,0,1-.66.44A4,4,0,0,1,94,88a3.32,3.32,0,0,1-1,.16,3.76,3.76,0,0,1-1.09-.19,2.68,2.68,0,0,1-1-.56,3.06,3.06,0,0,1-.72-1.09,4.53,4.53,0,0,1-.28-1.72,4.62,4.62,0,0,1,.25-1.66,3.19,3.19,0,0,1,.72-1.12,2.57,2.57,0,0,1,1-.59A3.52,3.52,0,0,1,93,81a3,3,0,0,1,1,.19,4.88,4.88,0,0,1,.88.38,6.32,6.32,0,0,1,.69.5c0.21,0.16.39,0.29,0.53,0.41h0.31V79.78l-0.69-.31a7.08,7.08,0,0,0-.91-0.31,8.35,8.35,0,0,0-1-.19,8.16,8.16,0,0,0-1.22-.09h0Zm-30.12.22V90h3.84a11.6,11.6,0,0,0,2.25-.19,5.4,5.4,0,0,0,1.75-.69A5.06,5.06,0,0,0,72,87.28a5.33,5.33,0,0,0,.69-2.72A5.55,5.55,0,0,0,72,81.81a4.9,4.9,0,0,0-1.75-1.87,5.26,5.26,0,0,0-1.62-.62,10.36,10.36,0,0,0-2.31-.22H62.41Zm17.44,1.84a2.58,2.58,0,0,1,1,.19,2.22,2.22,0,0,1,.88.63,3.32,3.32,0,0,1,.59,1.13,5.31,5.31,0,0,1,.22,1.66,5.68,5.68,0,0,1-.22,1.59,3.32,3.32,0,0,1-.59,1.19,2.26,2.26,0,0,1-.84.66,2.92,2.92,0,0,1-2.06,0,2.37,2.37,0,0,1-.87-0.66,3.25,3.25,0,0,1-.59-1.09,5.48,5.48,0,0,1-.22-1.66,5.67,5.67,0,0,1,.22-1.69A3.1,3.1,0,0,1,78,81.75a2.29,2.29,0,0,1,.84-0.62A2.82,2.82,0,0,1,79.84,80.94Zm-14.62.19h0.69a8.25,8.25,0,0,1,1.38.09,3.07,3.07,0,0,1,.88.28,2.71,2.71,0,0,1,1.25,1.19,4,4,0,0,1,.38,1.84,4.26,4.26,0,0,1-.34,1.84,2.67,2.67,0,0,1-1.12,1.16,3.47,3.47,0,0,1-.94.34,8.58,8.58,0,0,1-1.47.09H65.22V81.13h0Z" transform="translate(-15)"/></svg>