<svg viewBox="0 0 591 133" xmlns="http://www.w3.org/2000/svg">
  <g fill="#fff" fill-rule="evenodd">
    <path d="M195.11 56.796V52.32h-4.6998V21.268h3.0213l1.6785-4.42h-14.435v4.42h4.6998V52.32h-3.0213l-1.6785 4.476h14.435zm14.435 13.428c-6.9938 0-12.141-2.4058-12.141-8.3366 0-3.8606 2.182-6.3224 6.5462-7.3854-1.7344-.83925-2.6296-2.294-2.6296-4.1962 0-2.0702 1.2309-3.8046 3.6368-5.2593-3.413-1.3988-5.2034-4.9796-5.2034-8.4484 0-6.9938 4.3641-10.351 11.19-10.351 1.5666 0 2.9094.16785 4.0844.5595h10.351l-1.4547 3.8046h-3.9165c1.175 1.5666 1.7904 3.5248 1.7904 5.8188 0 6.2104-4.532 9.6234-11.022 9.6234-1.0071 0-1.7904-.05595-2.3499-.16785-1.8464 1.0071-2.7416 2.238-2.7416 3.6368 0 1.5106 1.5106 2.294 4.42 2.294h5.0914c6.0426 0 9.7912 2.7416 9.7912 8.1128 0 6.8818-5.1474 10.295-15.442 10.295zm1.2868-27.583c4.0844 0 6.0986-2.1261 6.0986-6.2664 0-4.3641-2.0702-6.5462-6.1545-6.5462s-6.1545 2.238-6.1545 6.6021c0 4.1403 2.0702 6.2104 6.2104 6.2104zm-1.3428 23.835c7.2176 0 10.798-2.0142 10.798-6.0986 0-1.6226-.4476-2.6856-1.3428-3.2451-.95115-.5595-2.7416-.83925-5.4272-.83925h-5.1474c-4.1962 0-6.2664 1.7904-6.2664 5.4272 0 3.1332 2.4618 4.7558 7.3854 4.7558zm34.633-40.228c-4.1962 0-7.2735 2.7416-9.1758 6.0426h-.2238l-.5595-5.4831h-4.0284v29.989h4.9236v-16.002c0-6.0426 4.0844-10.071 8.7282-10.071 1.0071 0 2.294.16785 3.2451.39165l.61545-4.532c-1.0071-.2238-2.4058-.3357-3.5248-.3357zM261.47 26.247c7.6652 0 12.365 5.3712 12.365 13.54v2.9654h-20.534c.16785 6.77 3.5808 10.407 9.5674 10.407 2.9094 0 5.8748-.5595 8.2246-1.4547l1.3988 3.6927c-3.0772 1.3428-5.7628 1.9582-9.8472 1.9582-8.5604 0-14.435-5.3152-14.435-15.33 0-9.8472 5.3152-15.778 13.26-15.778zm-.05595 4.0284c-4.6998 0-7.4973 3.1892-8.0008 8.5604h15.274c-.05595-5.0914-2.294-8.5604-7.2735-8.5604zM278.98 18.694c0 2.1261 1.2868 3.1332 2.9094 3.1332 1.5106 0 2.8534-1.0071 2.8534-3.1332 0-2.182-1.3428-3.1332-2.8534-3.1332-1.6226 0-2.9094.95115-2.9094 3.1332zm-1.9582 51.53c5.7069-2.182 7.2735-6.8259 7.2735-12.701V26.806h-4.9236v30.437c0 5.3152-.72735 7.4414-3.9165 8.896l1.5666 4.0844zM302.93 26.303c7.2735 0 10.742 3.0772 10.742 10.071v20.422h-3.5808l-.95115-4.2522h-.2238c-2.6296 3.301-5.0355 4.8117-10.071 4.8117-5.4272 0-9.4556-2.7975-9.4556-8.896 0-5.9866 4.5879-9.2877 14.379-9.5674l5.0914-.16785v-1.7904c0-4.9796-2.294-6.658-6.2104-6.658-3.1332 0-5.9866 1.119-8.4484 2.294l-1.5106-3.6927c2.6296-1.3988 6.3224-2.5737 10.239-2.5737zm5.8748 15.834l-4.42.16785c-7.4973.27975-9.9032 2.4058-9.9032 6.2104 0 3.357 2.238 4.8676 5.4831 4.8676 5.0355 0 8.8401-2.7416 8.8401-8.5604v-2.6856zm52.201 14.659l-4.8117-12.365h-15.834l-4.7558 12.365h-5.0914l15.61-40.116h4.532l15.554 40.116h-5.2034zm-6.3224-16.841l-4.476-12.085c-.3357-.8952-1.5106-4.5879-1.9023-5.9866-.5595 2.294-1.2868 4.6998-1.7344 5.9866l-4.532 12.085h12.645zM379.47 57.355c-7.4414 0-12.309-5.2034-12.309-15.498s4.9236-15.61 12.365-15.61c4.6438 0 7.4414 1.9582 9.2877 4.42h.3357c-.1119-.95115-.3357-3.301-.3357-4.42V16.176l4.9236-1.9023v42.522h-3.9724l-.72735-4.0284h-.2238c-1.7904 2.5737-4.6438 4.5879-9.3436 4.5879zm.7833-4.0844c6.3224 0 8.6163-3.4689 8.6163-10.463v-.8952c0-7.4414-2.0142-11.582-8.6722-11.582-5.3152 0-7.9449 4.532-7.9449 11.638 0 7.1616 2.6296 11.302 8.0008 11.302zM409.18 56.796h5.651l11.414-29.989h-5.2593l-6.3783 17.68c-.83925 2.4058-2.1261 6.0986-2.5178 7.9449h-.2238c-.3357-1.8464-1.5106-5.4831-2.4058-7.9449l-6.3783-17.68h-5.2593l11.358 29.989zM441.29 26.247c7.6652 0 12.365 5.3712 12.365 13.54v2.9654h-20.534c.16785 6.77 3.5808 10.407 9.5674 10.407 2.9094 0 5.8748-.5595 8.2246-1.4547l1.3988 3.6927c-3.0772 1.3428-5.7628 1.9582-9.8472 1.9582-8.5604 0-14.435-5.3152-14.435-15.33 0-9.8472 5.3152-15.778 13.26-15.778zm-.05595 4.0284c-4.6998 0-7.4973 3.1892-8.0008 8.5604h15.274c-.05595-5.0914-2.294-8.5604-7.2735-8.5604zM473.41 26.247c-3.8046 0-7.4973 1.5106-9.4556 4.6438h-.27975l-.72735-4.0844h-3.9724v29.989h4.9236v-15.554c0-6.9938 2.1261-10.854 8.7842-10.854 4.5879 0 6.714 2.4058 6.714 7.2176v19.191h4.8676V37.269c0-7.7211-3.6927-11.022-10.854-11.022zm27.583 27.08c-2.7416 0-4.6998-1.7344-4.6998-5.3712v-17.344h8.6722v-3.8046h-8.6722v-6.8818l-4.9236 1.8464v26.296c0 7.2735 4.0844 9.2877 8.7842 9.2877 2.294 0 4.42-.5595 5.4831-1.2309l-1.3428-3.5248c-.6714.3357-2.182.72735-3.301.72735zM513.69 15.561c-1.6226 0-2.9094.95115-2.9094 3.1332 0 2.1261 1.2868 3.1332 2.9094 3.1332 1.5106 0 2.8534-1.0071 2.8534-3.1332 0-2.182-1.3428-3.1332-2.8534-3.1332zm2.4058 11.246h-4.9236v29.989h4.9236V26.807zm27.919 21.709c0-4.8117-3.301-6.77-9.008-8.896-5.7628-2.182-7.7211-3.1892-7.7211-5.7069 0-2.238 2.182-3.6368 6.2104-3.6368 2.9094 0 5.8188.83925 8.3925 1.9582l1.5106-3.9724c-2.7975-1.2309-5.9307-2.0142-9.5674-2.0142-6.714 0-11.246 2.8534-11.246 7.9449 0 4.9236 3.4689 6.714 9.2877 8.952 5.8748 2.238 7.3854 3.5808 7.3854 5.8188 0 2.6856-2.1261 4.42-7.1056 4.42-2.8534 0-6.0986-.8952-8.0568-1.7344l-1.4547 3.8046c2.294 1.2309 5.2034 1.9023 9.3996 1.9023 7.3294 0 11.973-3.0213 11.973-8.8401zM559.68 53.327c-2.7416 0-4.6998-1.7344-4.6998-5.3712v-17.344h8.6722v-3.8046h-8.6722v-6.8818l-4.9236 1.8464v26.296c0 7.2735 4.0844 9.2877 8.7842 9.2877 2.294 0 4.42-.5595 5.4831-1.2309l-1.3428-3.5248c-.6714.3357-2.182.72735-3.301.72735zm20.422-27.024c7.2735 0 10.742 3.0772 10.742 10.071v20.422h-3.5808l-.95115-4.2522h-.2238c-2.6296 3.301-5.0355 4.8117-10.071 4.8117-5.4272 0-9.4556-2.7975-9.4556-8.896 0-5.9866 4.5879-9.2877 14.379-9.5674l5.0914-.16785v-1.7904c0-4.9796-2.294-6.658-6.2104-6.658-3.1332 0-5.9866 1.119-8.4484 2.294l-1.5106-3.6927c2.6296-1.3988 6.3224-2.5737 10.239-2.5737zm5.8748 15.834l-4.42.16785c-7.4973.27975-9.9032 2.4058-9.9032 6.2104 0 3.357 2.238 4.8676 5.4831 4.8676 5.0355 0 8.8401-2.7416 8.8401-8.5604v-2.6856zM191.59 117.33c-7.4414 0-12.309-5.2034-12.309-15.498 0-10.295 4.9236-15.61 12.365-15.61 4.6438 0 7.4414 1.9582 9.2877 4.42h.3357c-.1119-.95115-.3357-3.301-.3357-4.42V76.151l4.9236-1.9023v42.522h-3.9724l-.72735-4.0284h-.2238c-1.7904 2.5737-4.6438 4.5879-9.3436 4.5879zm.7833-4.0844c6.3224 0 8.6163-3.4689 8.6163-10.463v-.8952c0-7.4414-2.0142-11.582-8.6722-11.582-5.3152 0-7.9449 4.532-7.9449 11.638 0 7.1616 2.6296 11.302 8.0008 11.302zM238.64 101.72c0 9.9591-5.4272 15.61-13.988 15.61-7.9449 0-13.764-5.651-13.764-15.61 0-9.9032 5.3152-15.498 13.932-15.498 8.1128 0 13.82 5.595 13.82 15.498zm-22.66 0c0 7.1056 2.6856 11.526 8.7842 11.526 6.0426 0 8.7842-4.42 8.7842-11.526 0-7.1057-2.7416-11.358-8.8401-11.358s-8.7282 4.2522-8.7282 11.358zM279.82 106.09c0-6.2664-3.8606-8.8961-10.91-11.526-6.4902-2.4058-8.7282-4.0284-8.7282-8.0568 0-3.4689 2.5737-5.8188 7.5532-5.8188 3.4689 0 6.714.95115 9.5115 2.1261l1.6226-4.3082c-3.0213-1.3428-6.658-2.238-11.022-2.238-7.5532 0-12.757 3.8606-12.757 10.183 0 6.2104 3.4689 9.3996 10.295 11.861 7.2176 2.6297 9.3996 4.3082 9.3996 8.2247 0 3.9724-3.0772 6.4342-9.008 6.4342-4.2522 0-7.889-.8952-9.6234-1.6785l-1.5666 4.1403c2.5178 1.2309 6.4902 1.9023 10.966 1.9023 8.7282 0 14.267-4.1403 14.267-11.246zM304.05 73.917h-5.9307c-1.2868 2.5178-3.6927 6.2104-5.3152 8.2806v.6714h3.2451c2.6296-2.0142 6.6021-6.3224 8.0008-8.3925v-.5595zm-7.4973 12.309c7.6652 0 12.365 5.3712 12.365 13.54v2.9654h-20.534c.16785 6.77 3.5808 10.407 9.5674 10.407 2.9094 0 5.8748-.5595 8.2246-1.4547l1.3988 3.6927c-3.0772 1.3428-5.7628 1.9582-9.8472 1.9582-8.5604 0-14.435-5.3152-14.435-15.33 0-9.8472 5.3152-15.778 13.26-15.778zm-.05595 4.0284c-4.6998 0-7.4973 3.1892-8.0008 8.5604h15.274c-.05595-5.0914-2.294-8.5604-7.2735-8.5604zM323.8 113.31c-2.7416 0-4.6998-1.7344-4.6998-5.3712v-17.345h8.6722v-3.8046h-8.6722v-6.8818l-4.9236 1.8464v26.297c0 7.2735 4.0844 9.2877 8.7842 9.2877 2.294 0 4.42-.5595 5.4831-1.2309l-1.3428-3.5248c-.6714.3357-2.182.72735-3.301.72735zM336.5 75.539c-1.6226 0-2.9094.95115-2.9094 3.1332 0 2.1261 1.2868 3.1332 2.9094 3.1332 1.5106 0 2.8534-1.0071 2.8534-3.1332 0-2.182-1.3428-3.1332-2.8534-3.1332zm2.4058 11.246h-4.9236v29.989h4.9236V86.785zM379.97 86.226c-3.9165 0-7.6092 1.6226-9.6234 5.0355h-.27975c-1.4547-3.413-4.5879-5.0355-9.1758-5.0355-3.5808 0-6.9938 1.5106-8.8401 4.6438h-.27975l-.72735-4.0844h-3.9724v29.989h4.9236v-15.554c0-6.9938 1.9582-10.854 8.0008-10.854 4.1962 0 6.1545 2.4058 6.1545 7.1056v19.303h4.8676v-16.561c0-6.3783 2.294-9.8472 8.1128-9.8472 4.1403 0 6.0986 2.4058 6.0986 7.1056v19.303h4.8676v-19.527c0-7.7211-3.357-11.022-10.127-11.022zM423.22 101.72c0 9.9591-5.4272 15.61-13.988 15.61-7.9449 0-13.764-5.651-13.764-15.61 0-9.9032 5.3152-15.498 13.932-15.498 8.1128 0 13.82 5.595 13.82 15.498zm-22.66 0c0 7.1056 2.6856 11.526 8.7842 11.526 6.0426 0 8.7842-4.42 8.7842-11.526 0-7.1057-2.7416-11.358-8.8401-11.358s-8.7282 4.2522-8.7282 11.358zM473.74 96.409c0 13.484-7.7211 20.366-20.869 20.366h-11.134V76.827h12.309c12.029 0 19.694 6.77 19.694 19.582zm-5.3152.16785c0-10.63-5.4831-15.442-15.106-15.442h-6.5462v31.332h5.4272c10.798 0 16.226-5.3712 16.226-15.89zM482.19 75.539c-1.6226 0-2.9094.95115-2.9094 3.1332 0 2.1261 1.2868 3.1332 2.9094 3.1332 1.5106 0 2.8534-1.0071 2.8534-3.1332 0-2.182-1.3428-3.1332-2.8534-3.1332zm2.4058 11.246h-4.9236v29.989h4.9236V86.785zM503.23 86.282c7.2735 0 10.742 3.0772 10.742 10.071v20.422h-3.5808l-.95115-4.2522h-.2238c-2.6296 3.301-5.0355 4.8117-10.071 4.8117-5.4272 0-9.4556-2.7975-9.4556-8.896 0-5.9866 4.5879-9.2877 14.379-9.5675l5.0914-.16785v-1.7904c0-4.9796-2.294-6.658-6.2104-6.658-3.1332 0-5.9866 1.119-8.4484 2.294l-1.5106-3.6927c2.6296-1.3988 6.3224-2.5737 10.239-2.5737zm5.8748 15.834l-4.42.16785c-7.4973.27975-9.9032 2.4058-9.9032 6.2104 0 3.357 2.238 4.8676 5.4831 4.8676 5.0355 0 8.8401-2.7416 8.8401-8.5604v-2.6856zM515.15 78.56c0-2.182 1.5106-3.7486 3.6927-3.7486 2.0702 0 3.6927 1.5666 3.6927 3.7486 0 2.1261-1.5666 3.6927-3.6927 3.6927-2.182 0-3.6927-1.5666-3.6927-3.6927zm6.8259 0c0-1.7344-1.2868-3.1892-3.1332-3.1892s-3.1332 1.3428-3.1332 3.1892c0 1.7344 1.2868 3.1332 3.1332 3.1332 1.7344 0 3.1332-1.2868 3.1332-3.1332zm-4.532-2.238h1.2868c1.119 0 1.6226.4476 1.6226 1.3428 0 .61545-.39165.95115-.7833 1.119l1.175 1.9582h-.8952l-1.0071-1.7344h-.61545v1.7344h-.7833v-4.42zm1.2868 2.0702c.50355 0 .83925-.27975.83925-.72735s-.27975-.6714-.83925-.6714h-.50355v1.3988h.50355zM76.926 124.35c0 .541.62.543.732 0 .824-3.998 2.076-6.662 4.033-9.249l-4.401.002c-.201 0-.364.164-.364.364v8.883zm32.32-55.485c-.181-.585-.687-.623-.682-.011.05 5.779-1.612 10.745-12.16 21.294l-8.344 8.336c-3.797 3.797-7.211 7.265-9.229 10.73h8.24c.316-.317.64-.64.974-.975l11.97-11.982c9.969-9.969 11.359-20.514 9.231-27.392zm-11.187 35.249l-9.999 10.007c-6.052 6.053-11.134 11.268-11.134 16.971l.006 1.588c0 .431.536.499.701.048 1.869-5.106 8.112-10.556 19.564-8.624 0 0 49.891 8.621 50.31 8.658.487.043.728-.437.414-.811-.189-.224-23.22-23.254-23.22-23.254l-26.642-4.583zm-36.093 10.987c-.201 0-.364-.163-.364-.364v-5.162c0-.201.163-.364.364-.364l8.732.002c.201 0 .364-.163.364-.363-.023-4.638-3.518-7.789-17.523-5.351l-30.24 5.198S.267 131.727.078 131.951c-.314.374-.073.854.414.811.42-.037 50.31-8.658 50.31-8.658 11.453-1.932 17.696 3.518 19.564 8.624.165.451.702.383.702-.048 0-.311.001-17.215.001-17.215 0-.201-.163-.364-.364-.364h-8.739zM48.027 42.949c-9.969 9.969-11.359 20.514-9.23 27.392.18.585.686.623.681.011-.05-5.779 1.613-10.746 12.161-21.294l22.74-22.733c6.052-6.053 11.134-11.268 11.134-16.971V.459c0-.541-.62-.543-.732 0-1.496 7.259-4.399 10.123-10.387 16.111L48.027 42.949zm37.508-17.973V16.02c0-.541-.62-.543-.732 0-1.496 7.26-4.392 10.169-10.38 16.157L50.54 56.04c-11.59 11.59-13.596 22.808-7.701 30.016.393.48.816.192.56-.388-3.898-8.818 5.448-18.167 9.898-22.617l21.104-21.105c6.052-6.052 11.134-11.267 11.134-16.97zM51.195 71.02c-11.591 11.592-6.261 22.787.5 25.868.593.271.829-.211.375-.604-5.421-4.696-3.775-12.597 3.043-19.414l19.264-19.265c6.052-6.052 11.133-11.267 11.133-16.97V31.74c0-.541-.62-.543-.731 0-1.496 7.259-4.394 10.111-10.381 16.099L51.195 71.02zm25.71 28.813v8.955c0 .541.62.543.731 0 1.497-7.259 4.393-10.168 10.38-16.156l9.487-9.466c11.59-11.59 13.595-22.808 7.7-30.016-.393-.48-.816-.193-.559.387 3.897 8.818-5.448 18.168-9.898 22.618l-6.707 6.707c-6.053 6.053-11.134 11.268-11.134 16.971zM88.042 76.97c-5.988 5.988-8.886 8.84-10.381 16.099-.112.543-.732.541-.732 0v-8.895c0-5.703 5.081-10.918 11.134-16.97l4.867-4.868c6.818-6.818 8.464-14.718 3.042-19.415-.453-.392-.217-.874.376-.603 6.761 3.081 12.091 14.276.499 25.867l-8.805 8.785zM144.24 115.77c.525 0 .839-.293.839-.718 0-.474-.263-.677-.849-.677h-.495v1.395h.505zm-1.272-2.041h1.293c1.1 0 1.595.435 1.595 1.304 0 .635-.384.989-.788 1.151l1.172 1.96h-.868l-1.011-1.748h-.626v1.748h-.767v-4.415zm4.515 2.202c0-1.747-1.304-3.172-3.132-3.172s-3.141 1.324-3.141 3.172c0 1.748 1.313 3.172 3.141 3.172 1.728 0 3.132-1.323 3.132-3.172zm-6.839 0c0-2.151 1.556-3.707 3.707-3.707 2.051 0 3.707 1.556 3.707 3.707 0 2.152-1.555 3.707-3.707 3.707-2.151 0-3.707-1.555-3.707-3.707z"/>
  </g>
</svg>
