<svg viewBox="0 0 615 147" xmlns="http://www.w3.org/2000/svg" xmlns:xlink="http://www.w3.org/1999/xlink">
  <defs>
    <path id="a" d="M0 180h900V0H0z"/>
  </defs>
  <g transform="translate(0 -17)" fill="#004A6C" fill-rule="evenodd">
    <path d="M204.4 37.739c-1.399 2.07-5.372 6.379-8.001 8.393h-3.246v-.671c1.623-2.071 4.029-5.764 5.316-8.281h5.931v.559zM184.872 90V50.049h22.326v4.42h-17.29v12.478h14.995v4.365h-14.995V85.58h18.521L206.75 90h-21.878zM230.08 69.577c0-4.364-2.07-6.546-6.155-6.546-4.084 0-6.155 2.238-6.155 6.602 0 4.141 2.071 6.211 6.211 6.211 4.085 0 6.099-2.126 6.099-6.267m3.357 24.004c0-1.623-.447-2.685-1.342-3.245-.952-.559-2.743-.839-5.428-.839h-5.148c-4.196 0-6.267 1.79-6.267 5.427 0 3.134 2.462 4.756 7.386 4.756 7.218 0 10.799-2.014 10.799-6.099m-22.885 1.511c0-3.86 2.182-6.323 6.547-7.386-1.735-.839-2.63-2.294-2.63-4.196 0-2.071 1.231-3.805 3.637-5.26-3.413-1.399-5.204-4.98-5.204-8.449 0-6.995 4.365-10.351 11.191-10.351 1.567 0 2.91.168 4.085.559h10.351l-1.455 3.805h-3.916c1.174 1.567 1.79 3.525 1.79 5.819 0 6.211-4.532 9.624-11.023 9.624-1.007 0-1.79-.056-2.35-.168-1.847 1.008-2.742 2.238-2.742 3.637 0 1.511 1.511 2.294 4.421 2.294h5.092c6.043 0 9.792 2.742 9.792 8.114 0 6.882-5.148 10.295-15.444 10.295-6.994 0-12.142-2.406-12.142-8.337M243.28 90V49.377l4.92-1.902V90z"/>
    <mask id="b" fill="#fff">
      <use xlink:href="#a"/>
    </mask>
    <path d="M256.6 90h4.924V60.009H256.6V90zm5.371-38.104c0 2.125-1.343 3.133-2.854 3.133-1.622 0-2.909-1.008-2.909-3.133 0-2.183 1.287-3.134 2.909-3.134 1.511 0 2.854.951 2.854 3.134zM277.46 90.56c-4.197 0-7.106-.671-9.4-1.902l1.454-3.806c1.959.84 5.204 1.735 8.058 1.735 4.98 0 7.106-1.735 7.106-4.42 0-2.238-1.511-3.581-7.386-5.819-5.819-2.239-9.289-4.029-9.289-8.953 0-5.092 4.533-7.945 11.248-7.945 3.636 0 6.77.783 9.567 2.014l-1.51 3.972c-2.574-1.119-5.484-1.958-8.393-1.958-4.029 0-6.211 1.399-6.211 3.637 0 2.518 1.958 3.526 7.721 5.708 5.708 2.126 9.009 4.084 9.009 8.896 0 5.82-4.644 8.841-11.974 8.841M298.95 72.039h15.275c-.056-5.092-2.294-8.561-7.274-8.561-4.7 0-7.498 3.189-8.001 8.561m20.423.952v2.965h-20.535c.168 6.771 3.581 10.407 9.568 10.407 2.91 0 5.876-.559 8.226-1.454l1.398 3.692c-3.077 1.343-5.763 1.959-9.848 1.959-8.561 0-14.436-5.315-14.436-15.332 0-9.847 5.316-15.778 13.261-15.778 7.666 0 12.366 5.371 12.366 13.541M354.23 61.072c-.336-.895-1.511-4.588-1.902-5.987-.56 2.294-1.287 4.7-1.735 5.987l-4.532 12.086h12.646l-4.477-12.086zm5.987 16.562h-15.835L339.626 90h-5.092l15.612-40.119h4.532L370.233 90h-5.204l-4.812-12.366zM394.51 76.012v-.896c0-7.441-2.014-11.582-8.673-11.582-5.315 0-7.945 4.532-7.945 11.639 0 7.162 2.63 11.302 8.001 11.302 6.323 0 8.617-3.469 8.617-10.463m-21.71-.952c0-10.295 4.924-15.61 12.366-15.61 4.644 0 7.442 1.958 9.288 4.42h.336c-.112-.951-.336-3.301-.336-4.42V49.378l4.924-1.903V90h-3.972l-.728-4.029h-.224c-1.791 2.575-4.644 4.589-9.344 4.589-7.442 0-12.31-5.204-12.31-15.5M403.57 60.009h5.26l6.379 17.681c.895 2.463 2.07 6.099 2.405 7.946h.224c.392-1.847 1.679-5.54 2.518-7.946l6.379-17.681h5.26L420.58 90h-5.651L403.57 60.009zM439.16 72.039h15.276c-.057-5.092-2.295-8.561-7.275-8.561-4.7 0-7.498 3.189-8.001 8.561m20.423.952v2.965h-20.535c.168 6.771 3.581 10.407 9.568 10.407 2.91 0 5.876-.559 8.225-1.454l1.4 3.692c-3.079 1.343-5.764 1.959-9.849 1.959-8.561 0-14.436-5.315-14.436-15.332 0-9.847 5.316-15.778 13.261-15.778 7.666 0 12.366 5.371 12.366 13.541M491.36 70.472V90h-4.867V70.807c0-4.812-2.127-7.217-6.715-7.217-6.658 0-8.785 3.861-8.785 10.855V90h-4.924V60.009h3.973l.727 4.084h.28c1.958-3.133 5.652-4.644 9.457-4.644 7.162 0 10.854 3.301 10.854 11.023M511.39 85.803l1.343 3.525c-1.063.672-3.19 1.231-5.484 1.231-4.7 0-8.784-2.014-8.784-9.288V54.972l4.924-1.846v6.883h8.673v3.804h-8.673v17.346c0 3.637 1.958 5.372 4.7 5.372 1.119 0 2.63-.392 3.301-.728M517.15 90h4.924V60.009h-4.924V90zm5.373-38.104c0 2.125-1.343 3.133-2.854 3.133-1.623 0-2.91-1.008-2.91-3.133 0-2.183 1.287-3.134 2.91-3.134 1.511 0 2.854.951 2.854 3.134zM538.02 90.56c-4.196 0-7.105-.671-9.4-1.902l1.455-3.806c1.959.84 5.204 1.735 8.057 1.735 4.98 0 7.107-1.735 7.107-4.42 0-2.238-1.511-3.581-7.387-5.819-5.818-2.239-9.288-4.029-9.288-8.953 0-5.092 4.532-7.945 11.247-7.945 3.637 0 6.771.783 9.568 2.014l-1.51 3.972c-2.575-1.119-5.484-1.958-8.394-1.958-4.028 0-6.211 1.399-6.211 3.637 0 2.518 1.959 3.526 7.722 5.708 5.707 2.126 9.009 4.084 9.009 8.896 0 5.82-4.645 8.841-11.975 8.841M567.84 85.803l1.343 3.525c-1.063.672-3.19 1.231-5.484 1.231-4.7 0-8.784-2.014-8.784-9.288V54.972l4.924-1.846v6.883h8.673v3.804h-8.673v17.346c0 3.637 1.958 5.372 4.7 5.372 1.119 0 2.63-.392 3.301-.728M577.12 72.039h15.275c-.055-5.092-2.294-8.561-7.274-8.561-4.7 0-7.497 3.189-8.001 8.561m20.423.952v2.965h-20.535c.168 6.771 3.581 10.407 9.568 10.407 2.91 0 5.875-.559 8.226-1.454l1.398 3.692c-3.077 1.343-5.763 1.959-9.848 1.959-8.56 0-14.436-5.315-14.436-15.332 0-9.847 5.316-15.778 13.262-15.778 7.665 0 12.365 5.371 12.365 13.541M604.09 49.545h1.118l1.287 3.469 1.287-3.469h1.12v4.42h-.784v-3.413h-.055l-1.232 3.413h-.671l-1.231-3.413h-.056V53.965h-.783v-4.42zm-2.574.671h-1.287v-.671h3.413v.671h-1.343v3.749h-.783v-3.749zM204.79 135.99v-.896c0-7.441-2.014-11.582-8.673-11.582-5.315 0-7.945 4.533-7.945 11.638 0 7.162 2.63 11.303 8.001 11.303 6.323 0 8.617-3.469 8.617-10.463m-21.71-.951c0-10.296 4.924-15.611 12.366-15.611 4.644 0 7.442 1.958 9.288 4.419h.336c-.112-.951-.336-3.3-.336-4.419v-10.073l4.924-1.902v42.525h-3.972l-.728-4.028h-.224c-1.791 2.573-4.644 4.588-9.344 4.588-7.442 0-12.31-5.204-12.31-15.499M243.67 149.98h-4.029l-.727-3.973h-.224c-1.958 3.134-5.651 4.533-9.512 4.533-7.218 0-10.911-3.302-10.911-10.912v-19.639h4.98v19.303c0 4.813 2.126 7.163 6.658 7.163 6.659 0 8.841-3.861 8.841-10.855v-15.611h4.924v29.991zM275.11 150.54c-4.477 0-8.449-.672-10.967-1.902l1.567-4.141c1.734.783 5.371 1.679 9.624 1.679 5.931 0 9.008-2.462 9.008-6.435 0-3.917-2.182-5.596-9.4-8.225-6.827-2.462-10.295-5.652-10.295-11.863 0-6.322 5.203-10.183 12.757-10.183 4.364 0 8.001.895 11.023 2.238l-1.623 4.309c-2.798-1.175-6.043-2.126-9.512-2.126-4.98 0-7.554 2.349-7.554 5.818 0 4.029 2.238 5.651 8.729 8.058 7.05 2.629 10.911 5.259 10.911 11.526 0 7.106-5.539 11.247-14.268 11.247M299.73 132.02h15.275c-.056-5.092-2.294-8.562-7.274-8.562-4.7 0-7.498 3.19-8.001 8.562m20.423.951v2.965h-20.535c.168 6.771 3.581 10.408 9.568 10.408 2.91 0 5.876-.559 8.226-1.455l1.398 3.693c-3.077 1.343-5.763 1.959-9.848 1.959-8.561 0-14.436-5.316-14.436-15.332 0-9.848 5.316-15.779 13.261-15.779 7.666 0 12.366 5.371 12.366 13.541M331.57 133.98v.951c0 7.386 2.014 11.527 8.561 11.527 5.427 0 8.001-4.869 8.001-11.582 0-6.827-2.574-11.303-8.113-11.303-6.099 0-8.337 3.413-8.449 10.407m21.654.951c0 10.239-4.924 15.611-12.366 15.611-4.644 0-7.554-2.014-9.288-4.364h-.336c.112 1.287.336 3.526.336 4.924v12.31h-4.924v-43.42h4.028l.672 4.085h.224c1.791-2.575 4.476-4.645 9.344-4.645 7.386 0 12.31 5.148 12.31 15.499M371.79 145.78l1.343 3.524c-1.063.672-3.189 1.232-5.484 1.232-4.699 0-8.784-2.015-8.784-9.288v-26.299l4.924-1.847v6.883h8.673v3.805h-8.673v17.345c0 3.637 1.958 5.373 4.7 5.373 1.119 0 2.63-.392 3.301-.728M377.56 149.98h4.924v-29.991h-4.924v29.991zm5.372-38.105c0 2.126-1.344 3.133-2.854 3.133-1.623 0-2.91-1.007-2.91-3.133 0-2.183 1.287-3.134 2.91-3.134 1.51 0 2.854.951 2.854 3.134zM405.98 115.4v.671h-3.301c-2.574-2.015-6.659-6.322-7.946-8.393v-.559h5.875c1.231 2.517 3.637 6.211 5.372 8.281m-11.583 16.618h15.276c-.056-5.092-2.294-8.561-7.274-8.561-4.7 0-7.498 3.189-8.002 8.561m20.424.951v2.965h-20.535c.168 6.771 3.581 10.408 9.568 10.408 2.909 0 5.875-.559 8.225-1.455l1.399 3.694c-3.078 1.342-5.764 1.958-9.848 1.958-8.561 0-14.436-5.316-14.436-15.331 0-9.849 5.315-15.78 13.261-15.78 7.666 0 12.366 5.371 12.366 13.541M464.34 130.45v19.528h-4.868v-19.303c0-4.701-1.959-7.107-6.1-7.107-5.819 0-8.113 3.469-8.113 9.848v16.562h-4.868v-19.303c0-4.701-1.958-7.107-6.155-7.107-6.042 0-8.001 3.861-8.001 10.855v15.555h-4.924v-29.991h3.973l.727 4.085h.28c1.846-3.134 5.259-4.644 8.841-4.644 4.588 0 7.721 1.623 9.176 5.036h.28c2.014-3.413 5.707-5.036 9.624-5.036 6.771 0 10.128 3.3 10.128 11.022M476.03 132.02h15.275c-.055-5.092-2.294-8.562-7.274-8.562-4.7 0-7.497 3.19-8.001 8.562m20.423.951v2.965h-20.535c.168 6.771 3.581 10.408 9.568 10.408 2.91 0 5.875-.559 8.226-1.455l1.398 3.693c-3.077 1.343-5.763 1.959-9.848 1.959-8.56 0-14.436-5.316-14.436-15.332 0-9.848 5.316-15.779 13.262-15.779 7.665 0 12.365 5.371 12.365 13.541M512.73 156.3c2.35-1.119 4.028-3.021 4.028-8.449v-37.825h5.036v37.825c0 6.994-2.349 10.351-7.441 12.757l-1.623-4.308zM542.72 146.45c6.043 0 8.785-4.42 8.785-11.526 0-7.107-2.742-11.359-8.841-11.359s-8.729 4.252-8.729 11.359c0 7.106 2.686 11.526 8.785 11.526m-.112 4.085c-7.946 0-13.765-5.651-13.765-15.611 0-9.904 5.316-15.499 13.933-15.499 8.113 0 13.821 5.595 13.821 15.499 0 9.96-5.428 15.611-13.989 15.611M588.32 149.98h-4.028l-.728-3.973h-.223c-1.959 3.134-5.652 4.533-9.513 4.533-7.218 0-10.911-3.302-10.911-10.912v-19.639h4.98v19.303c0 4.813 2.126 7.163 6.658 7.163 6.66 0 8.841-3.861 8.841-10.855v-15.611h4.924v29.991zM614.22 119.76l-.615 4.532c-.951-.223-2.239-.391-3.245-.391-4.645 0-8.73 4.028-8.73 10.071v16.003h-4.924v-29.991h4.03l.559 5.483h.224c1.902-3.302 4.979-6.043 9.176-6.043 1.119 0 2.518.111 3.525.336M144.25 130.73h1.119l1.287 3.47 1.287-3.47h1.119v4.421h-.783v-3.414h-.056l-1.231 3.414h-.672l-1.231-3.414h-.056V135.151h-.783v-4.421zm-2.574.672h-1.287v-.672h3.413v.672h-1.343v3.749h-.783v-3.749zm-63.75 9.954c0 .541.62.543.732 0 .823-3.998 2.076-6.662 4.033-9.249l-4.401.002c-.201 0-.364.163-.364.364v8.883zm32.32-55.485c-.181-.585-.687-.623-.682-.011.05 5.779-1.612 10.745-12.161 21.294l-8.343 8.336c-3.797 3.797-7.211 7.265-9.229 10.73h8.24c.316-.317.639-.64.974-.975l11.97-11.982c9.969-9.969 11.359-20.514 9.231-27.392zM99.059 121.12l-9.999 10.007c-6.052 6.053-11.134 11.268-11.134 16.971l.006 1.588c0 .431.536.499.701.048 1.868-5.106 8.112-10.556 19.564-8.624 0 0 49.89 8.621 50.31 8.658.487.043.728-.437.414-.811-.189-.224-23.22-23.254-23.22-23.254l-26.642-4.583zm-36.093 10.987c-.201 0-.364-.163-.364-.364v-5.162c0-.201.163-.364.364-.364l8.732.002c.201 0 .364-.163.364-.364-.023-4.637-3.519-7.788-17.523-5.35l-30.24 5.198s-23.032 23.03-23.221 23.254c-.314.374-.073.854.414.811.42-.037 50.31-8.658 50.31-8.658 11.452-1.932 17.696 3.518 19.564 8.624.165.451.702.383.702-.048 0-.311.001-17.215.001-17.215 0-.201-.163-.364-.364-.364h-8.739zM49.027 59.955c-9.969 9.969-11.359 20.514-9.231 27.392.181.585.687.623.682.011-.05-5.779 1.612-10.746 12.161-21.294l22.74-22.733c6.052-6.053 11.134-11.268 11.134-16.971v-8.895c0-.541-.62-.543-.732 0-1.496 7.259-4.4 10.123-10.387 16.111L49.027 59.955zm37.508-17.973v-8.956c0-.541-.62-.543-.732 0-1.496 7.26-4.392 10.169-10.38 16.157L51.54 73.046c-11.59 11.59-13.596 22.808-7.701 30.016.393.48.816.192.559-.388-3.897-8.818 5.449-18.167 9.898-22.617L75.4 58.952c6.053-6.052 11.135-11.267 11.135-16.97zm-34.34 46.044c-11.591 11.592-6.261 22.787.5 25.868.593.271.828-.211.375-.604-5.422-4.696-3.776-12.597 3.042-19.414l19.264-19.265c6.053-6.052 11.134-11.267 11.134-16.97v-8.895c0-.541-.62-.543-.732 0-1.495 7.259-4.393 10.111-10.381 16.099L52.195 88.026zm25.709 28.813v8.955c0 .541.62.543.732 0 1.496-7.259 4.392-10.168 10.38-16.156l9.486-9.466c11.591-11.59 13.596-22.808 7.701-30.016-.393-.48-.816-.193-.559.387 3.897 8.818-5.449 18.168-9.898 22.618l-6.707 6.707c-6.053 6.053-11.135 11.268-11.135 16.971zm11.138-22.863c-5.988 5.988-8.886 8.84-10.381 16.099-.112.543-.732.541-.732 0v-8.895c0-5.703 5.081-10.918 11.133-16.971l4.868-4.867c6.818-6.818 8.464-14.718 3.042-19.415-.453-.392-.218-.874.376-.603 6.76 3.081 12.09 14.276.499 25.867l-8.805 8.785z" mask="url(#b)"/>
  </g>
</svg>
