<svg xmlns="http://www.w3.org/2000/svg" viewBox="0 0 592.09 105.21"><defs><style>.a{fill:#fff;}</style></defs><title>Asset 1</title><path class="a" d="M149.81,43.5a3.35,3.35,0,0,0-.68.08,21.6,21.6,0,0,1-2.38.18l-2.85.14q-1.11.06-5,.06-4.35,0-6.17-.18-1-.1-1.27-.1-.86,0-.82.52,0,.32.51.36a5.11,5.11,0,0,1,1.7.35,2.32,2.32,0,0,1,.9.94,5.82,5.82,0,0,1,.64,3V67.36a6.1,6.1,0,0,1-.47,2.83,2.55,2.55,0,0,1-1.78,1.11q-.64.14-.64.46t.6.36l1-.06q.88-.08,1.4-.08l1.58,0,1.42,0a16.19,16.19,0,0,1,2,.09,11.87,11.87,0,0,0,1.25.09c.44,0,.64-.15.62-.46s-.25-.4-.72-.4a2.94,2.94,0,0,1-2.32-1,3.76,3.76,0,0,1-.86-2.6V60.1a5.38,5.38,0,0,1,.1-1.24q.08-.37.81-.47a29.23,29.23,0,0,1,3.18-.1,17.42,17.42,0,0,1,4,.35,1.61,1.61,0,0,1,1,.55,4.36,4.36,0,0,1,.53,1.48q.22,1,.63,1c.25,0,.38-.16.38-.49,0-.12,0-.31,0-.57q-.08-.65-.08-3c0-.57,0-1,0-1.25l.12-2q0-.63-.36-.63t-.42.49a2.7,2.7,0,0,1-1.08,1.94,5.12,5.12,0,0,1-2.74.56l-2.41,0-.67,0-1.76,0q-1.08,0-1.16-.55v-.53l0-.39V47.08q0-1.23.55-1.53a7.88,7.88,0,0,1,2.84-.3q1.76,0,2.9.1l2.41.25A4,4,0,0,1,148,46a2.45,2.45,0,0,1,.66,1.34,8.9,8.9,0,0,1,.22,1.29q0,.51.36.51.55,0,.55-.95a14.74,14.74,0,0,1,.35-3.58,3.14,3.14,0,0,0,.1-.68Q150.26,43.5,149.81,43.5Z"/><path class="a" d="M165.65,71.54a4,4,0,0,0,2.32.71,5.23,5.23,0,0,0,1.41-.18q.62-.17.64-.39c0-.13-.07-.19-.24-.2l-.46,0q-1.55-.1-3.39-2.79l-.46-.69-4-5.84q3.55-1.77,3.55-5a4.31,4.31,0,0,0-1.68-3.7,8.33,8.33,0,0,0-5-1.24q-.88,0-2,.07-1.59.1-2.25.1t-1.28,0l-1-.06q-.49,0-.49.29t.46.34l.67.1q1.56.26,1.56,2.5l0,1.5V67.31a9.6,9.6,0,0,1-.36,3.26,1.87,1.87,0,0,1-1.51,1c-.24,0-.36.14-.36.28s.12.29.36.29.4,0,.77-.06a11.66,11.66,0,0,1,1.18-.07h.75l1.38,0q1.23,0,1.82.06c.43,0,.71.06.85.06.33,0,.49-.09.47-.28s-.19-.29-.53-.32A3.66,3.66,0,0,1,157,71a1.56,1.56,0,0,1-.58-.81,7.68,7.68,0,0,1-.12-1.69V63.38c0-.24.06-.39.17-.46l.32-.06h1.91a1.2,1.2,0,0,1,1.12.59l.2.32,3.57,5.46A8.44,8.44,0,0,0,165.65,71.54Zm-6.73-9.73h-1.63a1.29,1.29,0,0,1-.84-.18,1.33,1.33,0,0,1-.18-.86V54.45a1.3,1.3,0,0,1,.32-1,1.83,1.83,0,0,1,1.17-.28,5.32,5.32,0,0,1,3.74,1.35A4.46,4.46,0,0,1,163,57.94a3.75,3.75,0,0,1-1.08,2.84A4.1,4.1,0,0,1,158.91,61.81Z"/><path class="a" d="M181.5,72.22a4,4,0,0,0,3.19-1.54,3.8,3.8,0,0,0,1-2.22q0-.39-.27-.37c-.11,0-.22.1-.32.26q-1.61,2.54-7.24,2.54a4.83,4.83,0,0,1-2.21-.3q-.44-.3-.44-1.52V63.29a.62.62,0,0,1,.24-.58,2,2,0,0,1,.94-.14h3.17a3.29,3.29,0,0,1,1.75.34,1.89,1.89,0,0,1,.69,1.31l.09.4a.34.34,0,0,0,.37.32q.28,0,.28-.36,0-.13,0-.42a17.3,17.3,0,0,1-.09-1.73q0-1.15.13-2.54c0-.14,0-.25,0-.31q0-.37-.28-.39c-.2,0-.32.11-.37.34a2.91,2.91,0,0,1-.42,1.21,1.91,1.91,0,0,1-1,.42,13,13,0,0,1-2.38.17h-2.21q-.62,0-.74-.14a1.51,1.51,0,0,1-.12-.8V54.61a1.33,1.33,0,0,1,.26-1,1.93,1.93,0,0,1,1.15-.22h2.25a14.28,14.28,0,0,1,3.05.21,1.51,1.51,0,0,1,1.1.86,2.27,2.27,0,0,1,.17.88v.37q0,.45.28.43a.33.33,0,0,0,.32-.22,5.75,5.75,0,0,0,.15-1l.06-.84q.07-.94.11-1.14a1.62,1.62,0,0,0,0-.33q0-.41-.47-.41a4.23,4.23,0,0,0-.57.06c-.12,0-.47,0-1,.06l-2,.1q-1.35.06-3.1.06a45.25,45.25,0,0,1-4.94-.23,8.57,8.57,0,0,0-1-.07c-.43,0-.65.13-.65.39s.14.27.42.27a1.93,1.93,0,0,1,1.76.71,5.72,5.72,0,0,1,.45,2.77V69.36q0,1.73-1,2l-.55.16q-.37.1-.37.34t.46.31a5,5,0,0,0,.75-.1,24.71,24.71,0,0,1,3.55-.17q1.79,0,4.54.26Q181.08,72.22,181.5,72.22Z"/><path class="a" d="M195.16,71.8q0-.25-.72-.35a3.09,3.09,0,0,1-1.33-.43,2.23,2.23,0,0,1-.71-1,9.14,9.14,0,0,1-.24-2.66V56.55q0-3,1.06-3.44l.75-.29c.25-.08.37-.21.37-.38s-.13-.27-.39-.27l-.36,0-1,.08q-.76,0-1.82,0A24.15,24.15,0,0,1,188,52.2l-.26,0q-.43,0-.42.31t.46.34a2.48,2.48,0,0,1,1.74.83,4.79,4.79,0,0,1,.41,2.4V68.37a5.79,5.79,0,0,1-.32,2.39,1.86,1.86,0,0,1-1.41.75c-.3,0-.44.16-.44.32s.13.29.39.29a6.77,6.77,0,0,0,.69,0l1.69-.1,2.08,0a12.44,12.44,0,0,1,1.52.06,3.88,3.88,0,0,0,.55,0Q195.16,72.13,195.16,71.8Z"/><path class="a" d="M211.84,72.08q.39,0,1.25,0a10.55,10.55,0,0,1,1.23,0l.34,0q.44,0,.44-.32t-.33-.28l-.63-.13a5,5,0,0,1-2.6-1.54L204.06,62q-.36-.39-.34-.6A.88.88,0,0,1,204,61L209,56.52q3.66-3.29,5-3.62.7-.17.69-.39t-.42-.28l-.45,0a11.53,11.53,0,0,1-1.19,0h-1.08l-1.32,0q-.75,0-1.35,0l-.39,0c-.3,0-.45.1-.45.29s.22.3.66.37q1,.19,1,.85t-1.42,2l-6.16,5.52-.22.17-.23.16q-.13,0-.13-.3V55.7a5.28,5.28,0,0,1,.24-2,2.12,2.12,0,0,1,1.14-.88q.34-.14.34-.34t-.34-.27l-.69.06h-.75l-1.08,0h-.53a19.49,19.49,0,0,1-2.3-.1,3.44,3.44,0,0,0-.52,0q-.39,0-.39.29c0,.14.12.24.37.29l.7.14a1.75,1.75,0,0,1,1.26.81,4.93,4.93,0,0,1,.33,2.15V68.15a6.65,6.65,0,0,1-.35,2.56,1.42,1.42,0,0,1-1.24.85c-.28,0-.42.12-.42.27s.16.34.47.34l.86-.07h.79l1,0h1.15q1.23,0,1.71,0l.77.06q.36,0,.34-.27t-.43-.3a3.49,3.49,0,0,1-2-.79,3.65,3.65,0,0,1-.44-2.18V63.36c0-.22.09-.33.26-.33a.52.52,0,0,1,.34.16l.29.32,7.71,7.94.24.27a1.11,1.11,0,0,0,.84.39Z"/><path class="a" d="M216,52.83a2.48,2.48,0,0,1,1.74.83,4.79,4.79,0,0,1,.41,2.4V68.37a5.78,5.78,0,0,1-.32,2.39,1.86,1.86,0,0,1-1.41.75c-.3,0-.44.16-.44.32s.13.29.39.29a6.76,6.76,0,0,0,.69,0l1.69-.1,2.08,0a12.44,12.44,0,0,1,1.52.06,3.88,3.88,0,0,0,.55,0q.45,0,.45-.34t-.72-.35a3.09,3.09,0,0,1-1.33-.43,2.23,2.23,0,0,1-.71-1,9.14,9.14,0,0,1-.24-2.66V56.55q0-3,1.06-3.44l.75-.29c.25-.08.37-.21.37-.38s-.13-.27-.39-.27l-.36,0-1,.08q-.76,0-1.82,0a24.15,24.15,0,0,1-2.79-.13l-.26,0q-.43,0-.42.31T216,52.83Z"/><path class="a" d="M232.83,71.9q0-.27-.53-.32a3.66,3.66,0,0,1-1.91-.62,1.56,1.56,0,0,1-.58-.81,7.68,7.68,0,0,1-.12-1.69V63.38c0-.24.06-.39.17-.46l.32-.06h1.91a1.2,1.2,0,0,1,1.12.59l.2.32L237,69.22a8.44,8.44,0,0,0,2.09,2.32,4,4,0,0,0,2.32.71,5.23,5.23,0,0,0,1.41-.18q.62-.17.64-.39c0-.13-.07-.19-.24-.2l-.46,0q-1.55-.1-3.39-2.79l-.46-.69-4-5.84q3.55-1.77,3.55-5a4.31,4.31,0,0,0-1.68-3.7,8.33,8.33,0,0,0-5-1.24q-.88,0-2,.07-1.59.1-2.25.1t-1.28,0l-1-.06q-.49,0-.49.29t.46.34l.67.1q1.56.26,1.56,2.5l0,1.5V67.31a9.6,9.6,0,0,1-.36,3.26,1.87,1.87,0,0,1-1.51,1c-.24,0-.36.14-.36.28s.12.29.36.29.4,0,.77-.06a11.66,11.66,0,0,1,1.18-.07h.75l1.38,0q1.23,0,1.82.06c.43,0,.71.06.85.06C232.69,72.18,232.85,72.09,232.83,71.9ZM230,53.44a1.83,1.83,0,0,1,1.17-.28,5.32,5.32,0,0,1,3.74,1.35,4.46,4.46,0,0,1,1.47,3.44,3.75,3.75,0,0,1-1.08,2.84,4.1,4.1,0,0,1-3,1H230.7a1.29,1.29,0,0,1-.84-.18,1.33,1.33,0,0,1-.18-.86V54.45A1.3,1.3,0,0,1,230,53.44Z"/><path class="a" d="M252.89,72.34a13.33,13.33,0,0,0,7.31-2.11q.62-.4.67-.77l.06-.26.33-1.76.06-.32V67c0-.19-.08-.28-.23-.27s-.33.27-.57.78a6.62,6.62,0,0,1-2.89,2.79,8.66,8.66,0,0,1-4.24,1.15,7.48,7.48,0,0,1-6-2.85A11.14,11.14,0,0,1,245,61.23a8.63,8.63,0,0,1,2.11-6.15,7.54,7.54,0,0,1,5.78-2.25q4.6,0,7.29,4.7.34.62.52.6a.26.26,0,0,0,.22-.14l0-.14,0-.36L260.46,54q-.07-.55-.3-.55a1,1,0,0,0-.43.23.42.42,0,0,1-.22.12l-.24-.09-.23-.1-.57-.3A11.59,11.59,0,0,0,252.89,52a9.91,9.91,0,0,0-7.35,3,10.15,10.15,0,0,0-2.93,7.44,9.59,9.59,0,0,0,2.83,7.22A10.25,10.25,0,0,0,252.89,72.34Z"/><path class="a" d="M267.87,72a13.52,13.52,0,0,1,1.72.07,6.9,6.9,0,0,0,.7.06c.29,0,.43-.1.42-.29s-.19-.33-.55-.37a2.52,2.52,0,0,1-1.77-.75,3.49,3.49,0,0,1-.47-2.1V63.36c0-.45.07-.73.2-.84a1.91,1.91,0,0,1,1-.17h8.46a1.75,1.75,0,0,1,.86.12q.13.11.13.79V69.1q0,2.2-1.51,2.46-.47.07-.49.32c0,.2.11.29.34.28l1-.07q.43,0,.69,0l1.08,0h1.06a11.14,11.14,0,0,1,1.44.06,5.05,5.05,0,0,0,.75.07q.43,0,.4-.34c0-.15-.16-.24-.46-.28a2.25,2.25,0,0,1-1.65-.72,3.79,3.79,0,0,1-.43-2.12V54.82a2.61,2.61,0,0,1,.3-1.27,1.13,1.13,0,0,1,.75-.64l.59-.13c.23,0,.34-.15.34-.29s-.11-.28-.34-.28a4.44,4.44,0,0,0-.53.06,18.27,18.27,0,0,1-2.15.09,19,19,0,0,1-2-.1q-.67-.07-1-.07c-.23,0-.35.08-.36.24s.13.28.42.34a2.08,2.08,0,0,1,1.4.85,4.25,4.25,0,0,1,.38,2.1v4.91q0,.4-.17.52a1.73,1.73,0,0,1-.8.12h-8.47a2,2,0,0,1-1.06-.16q-.16-.16-.17-1V55a2.65,2.65,0,0,1,.33-1.52,2.24,2.24,0,0,1,1.29-.7q.39-.1.39-.32t-.42-.29a4.43,4.43,0,0,0-.6.06,14.84,14.84,0,0,1-1.91.12,23.07,23.07,0,0,1-2.63-.13l-.86-.09c-.25,0-.37.08-.37.28s.14.27.42.31a2.7,2.7,0,0,1,1.69.75,2.8,2.8,0,0,1,.47,1.81V67.59a11.76,11.76,0,0,1-.23,2.82,1.19,1.19,0,0,1-.86.95l-.72.17q-.37.08-.37.34t.36.27l.9-.06q.55,0,.9,0l.95,0Z"/><path class="a" d="M295.26,72.16q.7.06,1.12.06a4,4,0,0,0,3.19-1.54,3.79,3.79,0,0,0,1-2.22q0-.39-.26-.37c-.11,0-.22.1-.32.26q-1.61,2.54-7.24,2.54a4.83,4.83,0,0,1-2.21-.3q-.44-.3-.44-1.52V63.29a.62.62,0,0,1,.24-.58,2,2,0,0,1,.94-.14h3.17a3.29,3.29,0,0,1,1.75.34,1.88,1.88,0,0,1,.69,1.31l.09.4a.34.34,0,0,0,.37.32c.19,0,.28-.12.28-.36q0-.13,0-.42-.09-.86-.09-1.73,0-1.15.13-2.54c0-.14,0-.25,0-.31q0-.37-.28-.39c-.2,0-.32.11-.37.34a2.91,2.91,0,0,1-.42,1.21,1.9,1.9,0,0,1-1,.42,13,13,0,0,1-2.38.17H291q-.62,0-.74-.14a1.5,1.5,0,0,1-.12-.8V54.61a1.33,1.33,0,0,1,.26-1,1.93,1.93,0,0,1,1.15-.22h2.25a14.29,14.29,0,0,1,3.05.21,1.51,1.51,0,0,1,1.1.86,2.27,2.27,0,0,1,.17.88v.37c0,.3.09.44.28.43a.33.33,0,0,0,.32-.22,5.74,5.74,0,0,0,.15-1l.06-.84q.07-.94.11-1.14a1.58,1.58,0,0,0,0-.33c0-.28-.16-.41-.47-.41a4.24,4.24,0,0,0-.57.06c-.12,0-.47,0-1,.06l-2,.1q-1.35.06-3.1.06a45.25,45.25,0,0,1-4.94-.23,8.58,8.58,0,0,0-1-.07c-.43,0-.65.13-.65.39s.14.27.42.27a1.93,1.93,0,0,1,1.76.71,5.72,5.72,0,0,1,.45,2.77V69.36q0,1.73-1,2l-.55.16c-.25.07-.37.18-.37.34s.15.31.46.31a5,5,0,0,0,.75-.1,24.71,24.71,0,0,1,3.55-.17Q292.52,71.91,295.26,72.16Z"/><path class="a" d="M313.51,44.69a3.07,3.07,0,0,1,2.32,1.13,5.25,5.25,0,0,1,.7,3V67.34a7.21,7.21,0,0,1-.41,3,2.51,2.51,0,0,1-1.8,1c-.38.08-.57.23-.57.46s.24.49.72.46q.43,0,1.17-.12a28.06,28.06,0,0,1,3.81-.23q2,0,4.78.18,1.35.1,1.89.1a15.26,15.26,0,0,0,8.24-2.36A12.88,12.88,0,0,0,339,64.79a15.22,15.22,0,0,0,1.68-7.12,13.4,13.4,0,0,0-3.83-9.86q-4.2-4.22-12.61-4.22-1.48,0-2.71.1l-1.91.18q-1.15.1-3.22.1-1.19,0-1.44,0l-1.62-.08q-.53,0-.53.4T313.51,44.69Zm6.15,2.54a2.06,2.06,0,0,1,.53-1.68q.88-.7,4.12-.7A12.93,12.93,0,0,1,332,47.12a12.41,12.41,0,0,1,4.09,5.08,16.78,16.78,0,0,1,1.49,7.08q0,7.09-4.75,10a11.63,11.63,0,0,1-6.31,1.76,19.7,19.7,0,0,1-5.63-1,1.72,1.72,0,0,1-1.25-1.72Z"/><path class="a" d="M358.07,68.09c-.11,0-.22.1-.32.26q-1.61,2.54-7.24,2.54a4.82,4.82,0,0,1-2.21-.3q-.44-.3-.44-1.52V63.29a.62.62,0,0,1,.24-.58,2,2,0,0,1,.94-.14h3.17a3.29,3.29,0,0,1,1.75.34,1.88,1.88,0,0,1,.69,1.31l.09.4a.34.34,0,0,0,.37.32c.19,0,.28-.12.28-.36q0-.13,0-.42-.08-.86-.09-1.73,0-1.15.13-2.54c0-.14,0-.25,0-.31q0-.37-.28-.39c-.2,0-.32.11-.37.34a2.91,2.91,0,0,1-.42,1.21,1.9,1.9,0,0,1-1,.42,13,13,0,0,1-2.38.17h-2.21c-.41,0-.66,0-.74-.14a1.51,1.51,0,0,1-.12-.8V54.61a1.33,1.33,0,0,1,.26-1,1.92,1.92,0,0,1,1.15-.22h2.25a14.29,14.29,0,0,1,3.05.21,1.51,1.51,0,0,1,1.1.86,2.27,2.27,0,0,1,.17.88v.37c0,.3.09.44.28.43a.33.33,0,0,0,.32-.22,5.76,5.76,0,0,0,.15-1l.06-.84q.07-.94.11-1.14a1.58,1.58,0,0,0,0-.33c0-.28-.16-.41-.47-.41a4.24,4.24,0,0,0-.57.06c-.12,0-.47,0-1,.06l-2,.1q-1.35.06-3.1.06a45.24,45.24,0,0,1-4.94-.23,8.58,8.58,0,0,0-1-.07c-.43,0-.65.13-.65.39s.14.27.42.27a1.93,1.93,0,0,1,1.76.71,5.72,5.72,0,0,1,.45,2.77V69.36q0,1.73-1,2l-.54.16q-.37.1-.37.34t.46.31a5,5,0,0,0,.75-.1,24.71,24.71,0,0,1,3.55-.17q1.79,0,4.54.26c.47,0,.84.06,1.12.06a4,4,0,0,0,3.19-1.54,3.79,3.79,0,0,0,1-2.22Q358.33,68.07,358.07,68.09Z"/><path class="a" d="M374.13,71.54a4,4,0,0,0,2.32.71,5.22,5.22,0,0,0,1.41-.18q.62-.17.64-.39c0-.13-.07-.19-.24-.2l-.46,0q-1.55-.1-3.39-2.79l-.46-.69-4-5.84q3.55-1.77,3.55-5a4.31,4.31,0,0,0-1.68-3.7,8.33,8.33,0,0,0-5-1.24q-.88,0-2,.07-1.59.1-2.25.1t-1.28,0l-1-.06q-.49,0-.49.29t.46.34l.67.1q1.56.26,1.56,2.5l0,1.5V67.31a9.59,9.59,0,0,1-.36,3.26,1.87,1.87,0,0,1-1.51,1c-.24,0-.36.14-.36.28s.12.29.36.29.4,0,.78-.06a11.65,11.65,0,0,1,1.18-.07h.75l1.38,0q1.23,0,1.82.06c.43,0,.71.06.85.06.33,0,.49-.09.47-.28s-.19-.29-.53-.32a3.67,3.67,0,0,1-1.91-.62,1.56,1.56,0,0,1-.58-.81,7.7,7.7,0,0,1-.12-1.69V63.38q0-.36.17-.46l.32-.06h1.91a1.2,1.2,0,0,1,1.12.59l.2.32L372,69.22A8.44,8.44,0,0,0,374.13,71.54Zm-6.73-9.73h-1.63a1.29,1.29,0,0,1-.84-.18,1.33,1.33,0,0,1-.18-.86V54.45a1.3,1.3,0,0,1,.32-1,1.83,1.83,0,0,1,1.17-.28A5.32,5.32,0,0,1,370,54.5a4.46,4.46,0,0,1,1.47,3.44,3.75,3.75,0,0,1-1.08,2.84A4.1,4.1,0,0,1,367.39,61.81Z"/><path class="a" d="M140.81,88.05a50.85,50.85,0,0,1-4.88-1.79,5.45,5.45,0,0,1-1.83-1.56,4.75,4.75,0,0,1-1-3,4.16,4.16,0,0,1,1.48-3.25,5.39,5.39,0,0,1,3.69-1.3,9.18,9.18,0,0,1,5,1.44,6.88,6.88,0,0,1,3,3.66q.33,1,.67,1t.44-.64a8.2,8.2,0,0,0-.1-.84L147,79.67q-.27-1.72-.27-2.07,0-1-.51-1a.27.27,0,0,0-.23.08l-.29.25a.77.77,0,0,1-.49.21.9.9,0,0,1-.37-.08l-1.41-.59a10.88,10.88,0,0,0-10.08,1.45,6.76,6.76,0,0,0-2.47,5.41,6.49,6.49,0,0,0,1.89,4.84,17.17,17.17,0,0,0,6.44,3.4q4.4,1.48,5.32,2.28a4.88,4.88,0,0,1,1.8,3.84,5.13,5.13,0,0,1-2,4,7.11,7.11,0,0,1-4.78,1.66,8.58,8.58,0,0,1-5.15-1.73,8,8,0,0,1-3.11-4.28q-.29-1-.67-1t-.42.59a11.07,11.07,0,0,0,.53,2.63l.51,1.87a10,10,0,0,0,.37,1.43,1.3,1.3,0,0,0,.49.52,8.82,8.82,0,0,0,2.78,1,15.12,15.12,0,0,0,3.48.45,10.48,10.48,0,0,0,7.16-2.44,8,8,0,0,0,2.79-6.27Q148.39,90.53,140.81,88.05Z"/><path class="a" d="M157.87,103.85a3.09,3.09,0,0,1-1.33-.43,2.23,2.23,0,0,1-.71-1,9.15,9.15,0,0,1-.24-2.66V89q0-3,1.06-3.44l.75-.29c.25-.08.37-.21.37-.38s-.13-.27-.39-.27l-.36,0-1,.08q-.76,0-1.82,0a24.16,24.16,0,0,1-2.79-.13l-.26,0q-.43,0-.42.31t.46.34a2.48,2.48,0,0,1,1.74.83,4.79,4.79,0,0,1,.41,2.4v12.31a5.79,5.79,0,0,1-.32,2.39,1.86,1.86,0,0,1-1.41.75c-.3,0-.44.16-.44.32s.13.29.39.29a6.77,6.77,0,0,0,.69,0l1.69-.1,2.08,0a12.45,12.45,0,0,1,1.52.06,3.88,3.88,0,0,0,.55,0q.45,0,.45-.34T157.87,103.85Z"/><path class="a" d="M175.14,100.49c-.11,0-.22.1-.32.26q-1.61,2.54-7.24,2.54a4.83,4.83,0,0,1-2.21-.3q-.44-.3-.44-1.52V95.69a.62.62,0,0,1,.24-.58,2,2,0,0,1,.94-.14h3.17a3.29,3.29,0,0,1,1.75.34,1.89,1.89,0,0,1,.69,1.31l.09.4a.34.34,0,0,0,.37.32q.28,0,.28-.36,0-.13,0-.42a17.31,17.31,0,0,1-.09-1.73q0-1.15.13-2.54c0-.14,0-.25,0-.31q0-.37-.28-.39c-.2,0-.32.11-.37.34a2.91,2.91,0,0,1-.42,1.21,1.91,1.91,0,0,1-1,.42,13,13,0,0,1-2.38.17h-2.21q-.62,0-.74-.14a1.51,1.51,0,0,1-.12-.8V87a1.33,1.33,0,0,1,.26-1,1.93,1.93,0,0,1,1.15-.22h2.25a14.28,14.28,0,0,1,3.05.21,1.51,1.51,0,0,1,1.1.86,2.27,2.27,0,0,1,.17.88v.37q0,.45.28.43a.33.33,0,0,0,.32-.22,5.76,5.76,0,0,0,.15-1l.06-.84q.07-.94.11-1.14a1.62,1.62,0,0,0,0-.33q0-.41-.47-.41a4.23,4.23,0,0,0-.57.06q-.19,0-1,.06l-2,.1q-1.35.06-3.1.06a45.27,45.27,0,0,1-4.94-.23,8.58,8.58,0,0,0-1-.07q-.65,0-.65.39t.42.27a1.93,1.93,0,0,1,1.76.71,5.72,5.72,0,0,1,.45,2.77v13.08q0,1.73-1,2l-.55.16q-.37.1-.37.34t.46.31a5.06,5.06,0,0,0,.75-.1,24.69,24.69,0,0,1,3.55-.17q1.79,0,4.54.26.7.06,1.12.06a4,4,0,0,0,3.19-1.54,3.8,3.8,0,0,0,1-2.22Q175.4,100.47,175.14,100.49Z"/><path class="a" d="M188.74,93.74q-.73-.16-.75-.3c0-.06.06-.13.2-.22l.62-.43a4.26,4.26,0,0,0,.08-7,8.61,8.61,0,0,0-5-1.26q-.67,0-1.44,0l-1.61.1q-.57,0-1.64,0-.76,0-1.19,0l-.73,0q-.57,0-.57.32t.59.31a1.9,1.9,0,0,1,1.74.9,5.43,5.43,0,0,1,.56,2.8V100a12.83,12.83,0,0,1-.22,2.56,1.57,1.57,0,0,1-1.45,1.35c-.29,0-.43.14-.43.29s.13.31.4.31a9.05,9.05,0,0,0,1-.09,9.77,9.77,0,0,1,1.15-.06q.67,0,1.82.07l1.16.07,1.34.06,1.11,0a7.21,7.21,0,0,0,4.95-1.71,5.55,5.55,0,0,0,1.95-4.35,5.08,5.08,0,0,0-1-3.13A4.38,4.38,0,0,0,188.74,93.74Zm-6.93-6.94a1.58,1.58,0,0,1,.32-1.17,2.11,2.11,0,0,1,1.31-.28,5.52,5.52,0,0,1,3.8,1.36,4.32,4.32,0,0,1,1.54,3.36q0,3.24-3.61,3.24h-2.37a1.57,1.57,0,0,1-.81-.13c-.11-.09-.17-.3-.17-.63Zm7.2,15.87a4.91,4.91,0,0,1-3.51,1.18,9.31,9.31,0,0,1-2.6-.27,1.44,1.44,0,0,1-1-.88l-.09-.56,0-.66V94.86q0-.36.14-.45a1.4,1.4,0,0,1,.65-.09h2.83a4.59,4.59,0,0,1,3.46,1.43,5,5,0,0,1,1.37,3.61A4.33,4.33,0,0,1,189,102.66Z"/><path class="a" d="M209.47,100.49c-.11,0-.22.1-.32.26q-1.61,2.54-7.24,2.54a4.83,4.83,0,0,1-2.21-.3q-.44-.3-.44-1.52V95.69a.62.62,0,0,1,.24-.58,2,2,0,0,1,.94-.14h3.17a3.29,3.29,0,0,1,1.75.34,1.89,1.89,0,0,1,.69,1.31l.09.4a.34.34,0,0,0,.37.32q.28,0,.28-.36,0-.13,0-.42a17.31,17.31,0,0,1-.09-1.73q0-1.15.13-2.54c0-.14,0-.25,0-.31q0-.37-.28-.39c-.2,0-.32.11-.37.34a2.92,2.92,0,0,1-.42,1.21,1.91,1.91,0,0,1-1,.42,13,13,0,0,1-2.38.17h-2.21q-.62,0-.74-.14a1.5,1.5,0,0,1-.12-.8V87a1.33,1.33,0,0,1,.26-1,1.93,1.93,0,0,1,1.15-.22h2.25A14.28,14.28,0,0,1,206,86a1.51,1.51,0,0,1,1.1.86,2.27,2.27,0,0,1,.17.88v.37q0,.45.28.43a.33.33,0,0,0,.32-.22,5.76,5.76,0,0,0,.15-1l.06-.84q.07-.94.11-1.14a1.62,1.62,0,0,0,0-.33q0-.41-.47-.41a4.23,4.23,0,0,0-.57.06q-.19,0-1,.06l-2,.1q-1.35.06-3.1.06a45.27,45.27,0,0,1-4.94-.23,8.58,8.58,0,0,0-1-.07q-.65,0-.65.39t.42.27a1.93,1.93,0,0,1,1.76.71,5.72,5.72,0,0,1,.45,2.77v13.08q0,1.73-1,2l-.55.16q-.37.1-.37.34t.46.31a5.05,5.05,0,0,0,.75-.1,24.69,24.69,0,0,1,3.55-.17q1.79,0,4.54.26.7.06,1.12.06a4,4,0,0,0,3.19-1.54,3.8,3.8,0,0,0,1-2.22Q209.74,100.47,209.47,100.49Z"/><path class="a" d="M230.2,84.6a4.2,4.2,0,0,0-.7.09,9.27,9.27,0,0,1-1.42.09q-1.67,0-2.66-.1l-.6,0c-.28,0-.42.09-.42.27s.14.3.42.35a4.16,4.16,0,0,1,2,.75,2.68,2.68,0,0,1,.71,1.73l.17,3.3v9q0,.26-.16.27t-.4-.34L214,85a1,1,0,0,0-.72-.42h-.76l-1,0h-.82q-.32,0-.32.27t.39.32a3,3,0,0,1,2.28,1.63,8.15,8.15,0,0,1,.79,3.91v9.77a4.52,4.52,0,0,1-.42,2.25,2.94,2.94,0,0,1-1.63,1.11c-.28.09-.41.21-.4.35s.15.27.4.27a4.37,4.37,0,0,0,.53-.05,8.36,8.36,0,0,1,1.06-.07l.69,0,1.46.07q1.09.06,1.25.09l.43,0q.3,0,.3-.28c0-.21-.16-.33-.47-.37a3,3,0,0,1-1.52-.53A2.06,2.06,0,0,1,215,102l0-1V90.67c0-.43.09-.65.27-.65a.27.27,0,0,1,.2.09l.14.16,12.1,13.84.32.37a.5.5,0,0,0,.33.13.36.36,0,0,0,.4-.34,14.84,14.84,0,0,0,.07-2v-12l0-.95V87.77a4.3,4.3,0,0,1,.28-1.88,1.7,1.7,0,0,1,1.16-.72q.3-.09.29-.27T230.2,84.6Z"/><path class="a" d="M249.46,86a1.8,1.8,0,0,0-.17-1q-.16-.17-1-.17H232.88a.76.76,0,0,0-.64.21,1.65,1.65,0,0,0-.15.87,8.65,8.65,0,0,1-.22,1.7,6.35,6.35,0,0,0-.17,1.1q0,.37.26.39t.39-.55a3.32,3.32,0,0,1,.81-1.76,2.5,2.5,0,0,1,1.69-.47h3.8a1.1,1.1,0,0,1,.7.14,1,1,0,0,1,.15.66v14.62a2.7,2.7,0,0,1-.39,1.67,2.29,2.29,0,0,1-1.49.61q-.47.06-.47.28t.43.31l1-.09a10,10,0,0,1,1,0h2.17a11.21,11.21,0,0,1,1.29,0,5.76,5.76,0,0,0,.71.09c.27,0,.4-.1.4-.31s-.17-.27-.5-.32a2,2,0,0,1-1.88-2V87.28a1.38,1.38,0,0,1,.17-.85,1.2,1.2,0,0,1,.8-.17h4a3,3,0,0,1,1.62.31,2.11,2.11,0,0,1,.6,1.33q.09.46.34.45c.21,0,.31-.17.3-.46s0-.38-.09-.7A7.41,7.41,0,0,1,249.46,86Z"/><path class="a" d="M265.41,100.49c-.11,0-.22.1-.32.26q-1.61,2.54-7.24,2.54a4.83,4.83,0,0,1-2.21-.3q-.44-.3-.44-1.52V95.69a.62.62,0,0,1,.24-.58,2,2,0,0,1,.94-.14h3.17a3.29,3.29,0,0,1,1.75.34,1.89,1.89,0,0,1,.69,1.31l.09.4a.34.34,0,0,0,.37.32q.28,0,.28-.36,0-.13,0-.42a17.31,17.31,0,0,1-.09-1.73q0-1.15.13-2.54c0-.14,0-.25,0-.31q0-.37-.28-.39c-.2,0-.32.11-.37.34a2.91,2.91,0,0,1-.42,1.21,1.91,1.91,0,0,1-1,.42,13,13,0,0,1-2.38.17h-2.21q-.62,0-.74-.14a1.51,1.51,0,0,1-.12-.8V87a1.33,1.33,0,0,1,.26-1,1.93,1.93,0,0,1,1.15-.22h2.25a14.28,14.28,0,0,1,3.05.21,1.51,1.51,0,0,1,1.1.86,2.27,2.27,0,0,1,.17.88v.37q0,.45.28.43a.33.33,0,0,0,.32-.22,5.75,5.75,0,0,0,.15-1l.06-.84q.07-.94.11-1.14a1.62,1.62,0,0,0,0-.33q0-.41-.47-.41a4.23,4.23,0,0,0-.57.06q-.19,0-1,.06l-2,.1q-1.35.06-3.1.06a45.27,45.27,0,0,1-4.94-.23,8.58,8.58,0,0,0-1-.07q-.65,0-.65.39t.42.27a1.93,1.93,0,0,1,1.76.71,5.72,5.72,0,0,1,.45,2.77v13.08q0,1.73-1,2l-.55.16q-.37.1-.37.34t.46.31a5.05,5.05,0,0,0,.75-.1,24.69,24.69,0,0,1,3.55-.17q1.79,0,4.54.26.7.06,1.12.06a4,4,0,0,0,3.19-1.54,3.8,3.8,0,0,0,1-2.22Q265.68,100.47,265.41,100.49Z"/><path class="a" d="M286.14,84.6a4.2,4.2,0,0,0-.7.09,9.27,9.27,0,0,1-1.42.09q-1.67,0-2.66-.1l-.6,0c-.28,0-.42.09-.42.27s.14.3.42.35a4.16,4.16,0,0,1,2,.75,2.68,2.68,0,0,1,.71,1.73l.17,3.3v9q0,.26-.16.27t-.4-.34L269.9,85a1,1,0,0,0-.72-.42h-.76l-1,0h-.82q-.32,0-.32.27t.39.32A3,3,0,0,1,269,86.82a8.14,8.14,0,0,1,.79,3.91v9.77a4.52,4.52,0,0,1-.42,2.25,3,3,0,0,1-1.63,1.11q-.42.14-.4.35t.4.27a4.37,4.37,0,0,0,.53-.05,8.35,8.35,0,0,1,1.06-.07l.69,0,1.46.07q1.09.06,1.25.09l.43,0q.3,0,.3-.28c0-.21-.16-.33-.47-.37a3,3,0,0,1-1.52-.53A2.06,2.06,0,0,1,271,102l0-1V90.67c0-.43.09-.65.27-.65a.27.27,0,0,1,.2.09l.14.16,12.1,13.84.32.37a.5.5,0,0,0,.33.13.36.36,0,0,0,.4-.34,14.83,14.83,0,0,0,.07-2v-12l0-.95V87.77a4.3,4.3,0,0,1,.28-1.88,1.7,1.7,0,0,1,1.16-.72q.3-.09.29-.27T286.14,84.6Z"/><path class="a" d="M295.52,92.86l-.25.08q-.35.17-1.41.54l-2.21.76q-1.7.62-2.19.77a3.49,3.49,0,0,0-1.57.75,4,4,0,0,0-.24,1.8q0,.73.29.69a1.06,1.06,0,0,0,.39-.18,3.35,3.35,0,0,1,.8-.31q.68-.16,3-1,1-.35,2.38-.82a2.63,2.63,0,0,0,1.15-.55,4,4,0,0,0,.14-1.46Q295.74,92.86,295.52,92.86Z"/><path class="a" d="M318.29,81.48c.3,0,.44-.25.43-.65q0-.31-.12-1a10.68,10.68,0,0,1-.1-1.76,2.59,2.59,0,0,0-.24-1.45q-.24-.24-1.37-.25H294.81a1.09,1.09,0,0,0-.91.3,2.35,2.35,0,0,0-.22,1.24,12.33,12.33,0,0,1-.31,2.43,9.08,9.08,0,0,0-.25,1.57q0,.53.37.55t.55-.78a4.75,4.75,0,0,1,1.16-2.51,3.58,3.58,0,0,1,2.41-.67h5.43a1.58,1.58,0,0,1,1,.21,1.39,1.39,0,0,1,.22.95l0,.53v20.36a3.85,3.85,0,0,1-.55,2.39,3.27,3.27,0,0,1-2.13.87c-.45.05-.68.19-.68.4s.21.44.62.44q.2,0,1.38-.12a14.48,14.48,0,0,1,1.46-.06l1.6,0,1.5,0a16.18,16.18,0,0,1,1.85.06,8,8,0,0,0,1,.12c.38,0,.58-.15.58-.44s-.24-.38-.72-.46a2.83,2.83,0,0,1-2.69-2.86l0-.8V80a2,2,0,0,1,.24-1.21,1.72,1.72,0,0,1,1.14-.25h5.76a4.22,4.22,0,0,1,2.32.44,3,3,0,0,1,.86,1.9Q317.92,81.5,318.29,81.48Z"/><path class="a" d="M338,103.88a3.73,3.73,0,0,1-1.81-.67,7,7,0,0,1-1.12-2.16l-.32-.78-6.17-15.81q-.16-.42-.39-.42t-.42.43l-7.38,16.39-.42.95a6.62,6.62,0,0,1-.8,1.27,2,2,0,0,1-.78.7l-.53.16a.3.3,0,0,0-.24.31q0,.27.39.26l.8-.08.64,0q.9,0,1.59,0l1.38.08.49,0q.41,0,.4-.24c0-.17-.16-.28-.44-.34a3.09,3.09,0,0,1-1.33-.52,1.25,1.25,0,0,1-.34-1,6.15,6.15,0,0,1,.64-2.16l.94-2.11a3.13,3.13,0,0,1,.69-1.15,3,3,0,0,1,1.32-.17H330a2.21,2.21,0,0,1,1,.12,2.47,2.47,0,0,1,.47.91l.72,1.9a11,11,0,0,1,.88,3,.87.87,0,0,1-.72,1l-.45.1q-.36.07-.36.29c0,.2.12.29.37.29a2.69,2.69,0,0,0,.45-.06,20.68,20.68,0,0,1,2.5-.09q1.91,0,2.66.07l.55,0q.39,0,.4-.24C338.48,104,338.33,103.93,338,103.88Zm-8.41-8.37H324.9q-.66,0-.66-.37a1.7,1.7,0,0,1,.19-.53l2.8-6.22c.09-.19.16-.28.23-.27s.26.17.37.47l.11.3,2.25,5.68.07.26a1.28,1.28,0,0,1,.07.33Q330.34,95.51,329.62,95.51Z"/><path class="a" d="M357.09,94l-1.15.07q-.36,0-2.58,0h-1.65q-.5,0-.49.27c0,.21.2.33.57.37a2.91,2.91,0,0,1,1.53.4,1.5,1.5,0,0,1,.38,1.19v3.23a3.21,3.21,0,0,1-.46,2,6.3,6.3,0,0,1-5.21,2.35,7.34,7.34,0,0,1-5.85-2.82,10.53,10.53,0,0,1-2.36-7,9.6,9.6,0,0,1,2.05-6.36,6.59,6.59,0,0,1,5.3-2.47,9.26,9.26,0,0,1,4.93,1.43,9,9,0,0,1,3.45,3.72q.13.26.32.24c.19,0,.29-.13.29-.36a1.64,1.64,0,0,0-.07-.42,11,11,0,0,1-.2-1.09l-.14-1.35a8.34,8.34,0,0,1-.09-1q0-.68-.26-.67a.31.31,0,0,0-.2.09l-.34.26a.35.35,0,0,1-.52,0,10.44,10.44,0,0,0-3-1.22,14.51,14.51,0,0,0-3.6-.49,9.76,9.76,0,0,0-7.31,3,10.4,10.4,0,0,0-2.92,7.54,9.45,9.45,0,0,0,9.82,9.83,11.79,11.79,0,0,0,6-1.62l.95-.56a4,4,0,0,1,1.19-.52,1,1,0,0,0,.42-.12l.09-.22,0-.46V96.21A1.41,1.41,0,0,1,357,94.63q.43-.11.43-.35T357.09,94Z"/><path class="a" d="M366.4,92.94A35.6,35.6,0,0,1,363,91.69a3.8,3.8,0,0,1-1.28-1.09,3.32,3.32,0,0,1-.67-2.08,2.91,2.91,0,0,1,1-2.28,3.77,3.77,0,0,1,2.58-.91,6.43,6.43,0,0,1,3.53,1,4.83,4.83,0,0,1,2.1,2.56q.23.69.47.69t.31-.45a5.81,5.81,0,0,0-.07-.59l-.23-1.48q-.19-1.21-.19-1.45,0-.72-.36-.7A.19.19,0,0,0,370,85l-.2.17a.54.54,0,0,1-.34.14.64.64,0,0,1-.26-.06l-1-.42a6.74,6.74,0,0,0-2.6-.44,6.66,6.66,0,0,0-4.46,1.46,4.73,4.73,0,0,0-1.73,3.79A4.54,4.54,0,0,0,360.78,93a12,12,0,0,0,4.51,2.38A14.42,14.42,0,0,1,369,97a3.42,3.42,0,0,1,1.26,2.69,3.59,3.59,0,0,1-1.37,2.83,5,5,0,0,1-3.34,1.16,6,6,0,0,1-3.61-1.21,5.57,5.57,0,0,1-2.18-3q-.2-.69-.47-.7t-.29.42a7.74,7.74,0,0,0,.37,1.84l.36,1.31a7,7,0,0,0,.26,1,.9.9,0,0,0,.34.37,6.18,6.18,0,0,0,1.95.73,10.61,10.61,0,0,0,2.43.32,7.33,7.33,0,0,0,5-1.71,5.57,5.57,0,0,0,2-4.39Q371.7,94.68,366.4,92.94Z"/><path class="a" d="M380.68,93.95q0-1.09-.23-1.09l-.25.08q-.35.17-1.42.54l-2.21.76q-1.7.62-2.19.77a3.48,3.48,0,0,0-1.57.75,4,4,0,0,0-.24,1.8q0,.73.29.69a1.06,1.06,0,0,0,.39-.18,3.35,3.35,0,0,1,.8-.31q.68-.16,3-1,1-.35,2.38-.82a2.63,2.63,0,0,0,1.15-.55A4,4,0,0,0,380.68,93.95Z"/><path class="a" d="M409.61,103.67a5.31,5.31,0,0,1-2.58-1,9.93,9.93,0,0,1-1.6-3.09L405,98.51l-8.82-22.59q-.23-.6-.55-.6t-.59.62L384.47,99.36l-.59,1.35a9.44,9.44,0,0,1-1.15,1.82,2.91,2.91,0,0,1-1.11,1l-.76.23a.43.43,0,0,0-.35.44q0,.38.55.38l1.15-.11q.33,0,.92,0,1.29,0,2.27,0l2,.12.7,0q.59,0,.57-.34t-.64-.48a4.45,4.45,0,0,1-1.9-.74,1.79,1.79,0,0,1-.48-1.4,8.77,8.77,0,0,1,.91-3.08l1.34-3a4.47,4.47,0,0,1,1-1.64,4.26,4.26,0,0,1,1.89-.25h7.42a3.17,3.17,0,0,1,1.39.17,3.56,3.56,0,0,1,.68,1.3l1,2.71a15.73,15.73,0,0,1,1.25,4.34,1.24,1.24,0,0,1-1,1.4l-.64.14q-.51.1-.51.42c0,.28.18.42.53.42a3.79,3.79,0,0,0,.64-.08,29.61,29.61,0,0,1,3.57-.12q2.73,0,3.79.1l.78,0q.55,0,.57-.34T409.61,103.67Zm-12-12H391.4l-.55,0q-.94,0-.94-.53a2.45,2.45,0,0,1,.27-.76l4-8.88q.18-.41.33-.39t.53.68l.16.43,3.22,8.12.1.37a1.83,1.83,0,0,1,.1.47Q398.62,91.71,397.59,91.71Z"/><path class="a" d="M418.09,84.5q-1,0-1.89.07l-1.34.13q-.8.07-2.25.07h-1l-1.13-.06c-.25,0-.37.09-.37.28s.16.27.47.29a2.15,2.15,0,0,1,1.62.79,3.68,3.68,0,0,1,.49,2.13v12.94a5,5,0,0,1-.29,2.11,1.75,1.75,0,0,1-1.26.72q-.4.08-.4.32t.5.32q.3,0,.82-.09a19.61,19.61,0,0,1,2.67-.16q1.42,0,3.34.13.95.07,1.32.07a10.68,10.68,0,0,0,5.77-1.65,9,9,0,0,0,3.27-3.57,10.66,10.66,0,0,0,1.18-5,9.38,9.38,0,0,0-2.68-6.91Q424,84.5,418.09,84.5Zm6,18a8.14,8.14,0,0,1-4.42,1.23,13.78,13.78,0,0,1-3.94-.72,1.21,1.21,0,0,1-.87-1.2V87a1.43,1.43,0,0,1,.37-1.17,5.36,5.36,0,0,1,2.88-.49A9,9,0,0,1,423.53,87a8.68,8.68,0,0,1,2.86,3.55,11.74,11.74,0,0,1,1,5Q427.43,100.45,424.11,102.51Z"/><path class="a" d="M449.26,84.64h-2.82l-1.28-.06h-.42c-.31,0-.47.09-.47.27s.25.29.79.39a2,2,0,0,1,.88.32.87.87,0,0,1,.21.67q0,1.38-2,6.2L441,99.92l-.23.53q-.37.82-.52.82t-.37-.46l-5.52-12.67a6,6,0,0,1-.6-2,.73.73,0,0,1,.15-.53,2.35,2.35,0,0,1,.74-.37c.19-.08.29-.18.29-.31s-.13-.27-.39-.27l-.4,0c-.41,0-.72.06-.92.06h-2.33q-1.21,0-1.45,0l-.42,0q-.4,0-.4.28a.23.23,0,0,0,.14.23,5.87,5.87,0,0,0,.88.2,1.94,1.94,0,0,1,1.13.59,6.47,6.47,0,0,1,.93,1.62L439,104.49q.31.72.61.72t.58-.7l7.13-16.71.39-.93a2.78,2.78,0,0,1,1.57-1.66c.2-.07.3-.17.3-.31S449.45,84.64,449.26,84.64Z"/><path class="a" d="M464.8,100.49c-.11,0-.22.1-.32.26q-1.61,2.54-7.24,2.54A4.82,4.82,0,0,1,455,103q-.44-.3-.44-1.52V95.69a.62.62,0,0,1,.24-.58,2,2,0,0,1,.94-.14h3.17a3.29,3.29,0,0,1,1.75.34,1.88,1.88,0,0,1,.69,1.31l.09.4a.34.34,0,0,0,.37.32c.19,0,.28-.12.28-.36q0-.13,0-.42-.09-.86-.09-1.73,0-1.15.13-2.54c0-.14,0-.25,0-.31q0-.37-.28-.39c-.2,0-.32.11-.37.34a2.91,2.91,0,0,1-.42,1.21,1.9,1.9,0,0,1-1,.42,13,13,0,0,1-2.38.17h-2.21c-.41,0-.66,0-.74-.14a1.51,1.51,0,0,1-.12-.8V87a1.33,1.33,0,0,1,.26-1A1.92,1.92,0,0,1,456,85.8h2.25a14.29,14.29,0,0,1,3.05.21,1.51,1.51,0,0,1,1.1.86,2.27,2.27,0,0,1,.17.88v.37c0,.3.09.44.28.43a.33.33,0,0,0,.32-.22,5.75,5.75,0,0,0,.15-1l.06-.84q.07-.94.11-1.14a1.58,1.58,0,0,0,0-.33c0-.28-.16-.41-.47-.41a4.24,4.24,0,0,0-.57.06q-.19,0-1,.06l-2,.1q-1.35.06-3.1.06a45.25,45.25,0,0,1-4.94-.23,8.59,8.59,0,0,0-1-.07q-.65,0-.65.39t.42.27a1.93,1.93,0,0,1,1.76.71,5.72,5.72,0,0,1,.45,2.77v13.08q0,1.73-1,2l-.54.16q-.37.1-.37.34t.46.31a5,5,0,0,0,.75-.1,24.69,24.69,0,0,1,3.55-.17q1.79,0,4.54.26.7.06,1.12.06a4,4,0,0,0,3.19-1.54,3.79,3.79,0,0,0,1-2.22Q465.06,100.47,464.8,100.49Z"/><path class="a" d="M485.53,84.6a4.21,4.21,0,0,0-.7.09,9.25,9.25,0,0,1-1.42.09q-1.67,0-2.66-.1l-.6,0c-.28,0-.42.09-.42.27s.14.3.42.35a4.16,4.16,0,0,1,2,.75,2.68,2.68,0,0,1,.71,1.73l.17,3.3v9c0,.17-.06.26-.16.27s-.19-.11-.4-.34L469.29,85a1,1,0,0,0-.72-.42h-.76l-1,0H466c-.21,0-.32.09-.32.27s.13.29.39.32a3,3,0,0,1,2.28,1.63,8.14,8.14,0,0,1,.79,3.91v9.77a4.51,4.51,0,0,1-.42,2.25,2.94,2.94,0,0,1-1.63,1.11q-.42.14-.4.35t.4.27a4.37,4.37,0,0,0,.53-.05,8.36,8.36,0,0,1,1.06-.07l.69,0,1.46.07q1.09.06,1.25.09l.43,0q.3,0,.3-.28c0-.21-.16-.33-.47-.37a3,3,0,0,1-1.52-.53,2.07,2.07,0,0,1-.49-1.31l0-1V90.67c0-.43.09-.65.27-.65a.27.27,0,0,1,.2.09l.14.16,12.1,13.84.32.37a.5.5,0,0,0,.33.13.36.36,0,0,0,.4-.34,14.82,14.82,0,0,0,.07-2v-12l0-.95V87.77a4.3,4.3,0,0,1,.28-1.88,1.7,1.7,0,0,1,1.16-.72q.3-.09.29-.27C485.91,84.7,485.77,84.6,485.53,84.6Z"/><path class="a" d="M504.78,86a1.81,1.81,0,0,0-.17-1q-.17-.17-1-.17H488.2a.76.76,0,0,0-.64.21,1.64,1.64,0,0,0-.15.87,8.65,8.65,0,0,1-.22,1.7,6.39,6.39,0,0,0-.17,1.1q0,.37.26.39t.39-.55a3.32,3.32,0,0,1,.81-1.76,2.51,2.51,0,0,1,1.69-.47H494a1.1,1.1,0,0,1,.7.14,1,1,0,0,1,.15.66v14.62a2.7,2.7,0,0,1-.39,1.67A2.29,2.29,0,0,1,493,104q-.47.06-.47.28t.43.31l1-.09a10,10,0,0,1,1,0h2.17a11.22,11.22,0,0,1,1.29,0,5.77,5.77,0,0,0,.7.09c.27,0,.4-.1.4-.31s-.17-.27-.5-.32a2,2,0,0,1-1.88-2V87.28a1.38,1.38,0,0,1,.16-.85,1.2,1.2,0,0,1,.8-.17h4a3,3,0,0,1,1.62.31,2.11,2.11,0,0,1,.6,1.33c.06.31.17.46.34.45s.31-.17.3-.46,0-.38-.09-.7A7.48,7.48,0,0,1,504.78,86Z"/><path class="a" d="M512.81,103.85a3.09,3.09,0,0,1-1.33-.43,2.22,2.22,0,0,1-.71-1,9.15,9.15,0,0,1-.24-2.66V89q0-3,1.06-3.44l.75-.29c.25-.08.37-.21.37-.38s-.13-.27-.39-.27l-.36,0-1,.08q-.76,0-1.82,0a24.14,24.14,0,0,1-2.78-.13l-.26,0q-.43,0-.42.31t.46.34a2.48,2.48,0,0,1,1.74.83,4.79,4.79,0,0,1,.41,2.4v12.31a5.8,5.8,0,0,1-.32,2.39,1.86,1.86,0,0,1-1.41.75c-.3,0-.45.16-.45.32s.13.29.39.29a6.78,6.78,0,0,0,.69,0l1.69-.1,2.08,0a12.45,12.45,0,0,1,1.52.06,3.88,3.88,0,0,0,.55,0q.44,0,.44-.34T512.81,103.85Z"/><path class="a" d="M522.2,92.94a35.57,35.57,0,0,1-3.42-1.25,3.8,3.8,0,0,1-1.28-1.09,3.32,3.32,0,0,1-.67-2.08,2.91,2.91,0,0,1,1-2.28,3.77,3.77,0,0,1,2.58-.91,6.43,6.43,0,0,1,3.53,1,4.83,4.83,0,0,1,2.1,2.56q.23.69.47.69t.31-.45a5.82,5.82,0,0,0-.07-.59l-.23-1.48q-.19-1.21-.19-1.45,0-.72-.36-.7a.19.19,0,0,0-.16.06l-.2.17a.54.54,0,0,1-.34.14.64.64,0,0,1-.26-.06l-1-.42a6.74,6.74,0,0,0-2.6-.44A6.66,6.66,0,0,0,517,85.84a4.73,4.73,0,0,0-1.73,3.79A4.54,4.54,0,0,0,516.59,93a12,12,0,0,0,4.51,2.38A14.42,14.42,0,0,1,524.83,97a3.42,3.42,0,0,1,1.26,2.69,3.59,3.59,0,0,1-1.37,2.83,5,5,0,0,1-3.34,1.16,6,6,0,0,1-3.61-1.21,5.57,5.57,0,0,1-2.18-3q-.21-.69-.47-.7t-.29.42a7.73,7.73,0,0,0,.37,1.84l.36,1.31a6.94,6.94,0,0,0,.26,1,.9.9,0,0,0,.34.37,6.18,6.18,0,0,0,1.95.73,10.61,10.61,0,0,0,2.43.32,7.33,7.33,0,0,0,5-1.71,5.57,5.57,0,0,0,2-4.39Q527.51,94.68,522.2,92.94Z"/><path class="a" d="M546.38,86a1.81,1.81,0,0,0-.17-1q-.17-.17-1-.17H529.8a.76.76,0,0,0-.64.21,1.64,1.64,0,0,0-.15.87,8.66,8.66,0,0,1-.22,1.7,6.39,6.39,0,0,0-.17,1.1c0,.25.09.38.26.39s.3-.17.39-.55a3.32,3.32,0,0,1,.81-1.76,2.51,2.51,0,0,1,1.69-.47h3.8a1.1,1.1,0,0,1,.7.14,1,1,0,0,1,.15.66v14.62a2.7,2.7,0,0,1-.39,1.67,2.29,2.29,0,0,1-1.49.61q-.47.06-.47.28c0,.21.14.31.43.31l1-.09a10,10,0,0,1,1,0h2.17a11.22,11.22,0,0,1,1.29,0,5.77,5.77,0,0,0,.7.09c.27,0,.4-.1.4-.31s-.17-.27-.5-.32a2,2,0,0,1-1.88-2V87.28a1.38,1.38,0,0,1,.17-.85,1.2,1.2,0,0,1,.8-.17h4a3,3,0,0,1,1.62.31,2.11,2.11,0,0,1,.6,1.33c.06.31.17.46.34.45s.31-.17.3-.46,0-.38-.09-.7A7.47,7.47,0,0,1,546.38,86Z"/><path class="a" d="M562.33,100.49c-.11,0-.22.1-.32.26q-1.61,2.54-7.24,2.54a4.82,4.82,0,0,1-2.21-.3q-.44-.3-.44-1.52V95.69a.62.62,0,0,1,.24-.58,2,2,0,0,1,.94-.14h3.17a3.29,3.29,0,0,1,1.75.34,1.88,1.88,0,0,1,.69,1.31l.09.4a.34.34,0,0,0,.37.32c.19,0,.28-.12.28-.36q0-.13,0-.42-.08-.86-.09-1.73,0-1.15.13-2.54c0-.14,0-.25,0-.31,0-.25-.09-.38-.28-.39s-.32.11-.37.34a2.91,2.91,0,0,1-.42,1.21,1.9,1.9,0,0,1-1,.42,13,13,0,0,1-2.38.17H553c-.41,0-.66,0-.74-.14a1.51,1.51,0,0,1-.12-.8V87a1.33,1.33,0,0,1,.26-1,1.92,1.92,0,0,1,1.15-.22h2.25a14.29,14.29,0,0,1,3.05.21,1.51,1.51,0,0,1,1.1.86,2.27,2.27,0,0,1,.17.88v.37c0,.3.09.44.28.43a.33.33,0,0,0,.32-.22,5.76,5.76,0,0,0,.15-1l.06-.84q.07-.94.11-1.14a1.58,1.58,0,0,0,0-.33c0-.28-.16-.41-.47-.41a4.24,4.24,0,0,0-.57.06q-.19,0-1,.06l-2,.1q-1.35.06-3.1.06a45.26,45.26,0,0,1-4.94-.23,8.58,8.58,0,0,0-1-.07q-.65,0-.65.39t.42.27a1.93,1.93,0,0,1,1.76.71,5.72,5.72,0,0,1,.45,2.77v13.08q0,1.73-1,2l-.54.16q-.37.1-.37.34t.46.31a5,5,0,0,0,.75-.1,24.69,24.69,0,0,1,3.55-.17q1.79,0,4.54.26c.47,0,.84.06,1.12.06a4,4,0,0,0,3.19-1.54,3.79,3.79,0,0,0,1-2.22Q562.59,100.47,562.33,100.49Z"/><path class="a" d="M583.06,84.6a4.22,4.22,0,0,0-.7.09,9.25,9.25,0,0,1-1.42.09q-1.67,0-2.66-.1l-.6,0c-.28,0-.42.09-.42.27s.14.3.42.35a4.16,4.16,0,0,1,2,.75,2.68,2.68,0,0,1,.71,1.73l.17,3.3v9c0,.17-.06.26-.16.27s-.19-.11-.4-.34L566.82,85a1,1,0,0,0-.72-.42h-.76l-1,0h-.82c-.21,0-.32.09-.32.27s.13.29.39.32a3,3,0,0,1,2.28,1.63,8.14,8.14,0,0,1,.79,3.91v9.77a4.51,4.51,0,0,1-.42,2.25,2.94,2.94,0,0,1-1.63,1.11q-.42.14-.4.35t.4.27a4.36,4.36,0,0,0,.53-.05,8.36,8.36,0,0,1,1.06-.07l.69,0,1.46.07q1.09.06,1.25.09l.43,0q.3,0,.3-.28c0-.21-.16-.33-.47-.37a3,3,0,0,1-1.52-.53,2.07,2.07,0,0,1-.49-1.31l0-1V90.67c0-.43.09-.65.27-.65a.27.27,0,0,1,.2.09l.14.16,12.1,13.84.32.37a.5.5,0,0,0,.33.13.36.36,0,0,0,.4-.34,14.82,14.82,0,0,0,.07-2v-12l0-.95V87.77a4.3,4.3,0,0,1,.28-1.88,1.7,1.7,0,0,1,1.16-.72q.3-.09.29-.27C583.44,84.7,583.3,84.6,583.06,84.6Z"/><path class="a" d="M591.51,82.68a3,3,0,0,0-.6-.85,3,3,0,0,0-4.62,3.84,3.13,3.13,0,0,0,.46.73,2.87,2.87,0,0,0,2.31,1.07,3,3,0,0,0,2.46-4.79Zm0,1.29a2.6,2.6,0,0,1-.79,1.9l-.08.07a1,1,0,0,1-.24-.21c.17,0,.28,0,.28-.11s0-.07-.08-.08h-.08c-.17,0-.36-.17-.57-.48l-.08-.12-.36-.53a1,1,0,0,0,.57-.86.77.77,0,0,0-.33-.68c-.09-.45-.47-.69-1.17-.69h-.36l-.4,0h-.24a2.71,2.71,0,0,1,3.42.33,2.85,2.85,0,0,1,.25.31A2.66,2.66,0,0,1,591.46,84Zm-4.59,1.9a2.89,2.89,0,0,1-.31-.37,2.66,2.66,0,0,1-.21-1,2.6,2.6,0,0,1,.79-1.91c.07-.07.14-.11.21-.17h0l.12,0c.13,0,.2.13.23.28h-.06c-.08,0-.12,0-.12.08s0,.08.11.1h.1v2a1.79,1.79,0,0,1-.05.54.33.33,0,0,1-.25.17c-.06,0-.09,0-.09.09s0,.08.11.08h.12l.21,0h.2a.74.74,0,0,1,0,.17.33.33,0,0,1-.25.17q-.09,0-.09.09c0,.06,0,.09.11.09h.13l.21,0h.86c.08,0,.12,0,.12-.08s0-.08-.13-.09a.57.57,0,0,1-.36-.12.42.42,0,0,1-.06-.2h.16c.08,0,.12,0,.12-.08s0-.08-.13-.09l-.16,0V84.6h.38a.18.18,0,0,1,.17.09l0,.06.64,1a1.18,1.18,0,0,0,.58.5,2.57,2.57,0,0,1-1.52.48A2.6,2.6,0,0,1,586.87,85.88Zm1.34-3.25c0-.12.08-.18.24-.18a.88.88,0,0,1,.61.22l0,0a2.27,2.27,0,0,0-.26,0h-.61Zm1.39,1.06a.58.58,0,0,1-.26.54l-.18-.26a1.22,1.22,0,0,0,.42-.35A.71.71,0,0,1,589.59,83.69Zm-1.11-.59c0-.12.08-.19.24-.19a.91.91,0,0,1,.56.19.72.72,0,0,1,0,.11.58.58,0,0,1-.67.65h-.15V83.1Zm0,1h.12a.19.19,0,0,1,.17.08l0,.06.05.08h-.23a.21.21,0,0,1-.12,0s0-.05,0-.12Zm-1.62-2a2.68,2.68,0,0,1,3.12-.49,3.06,3.06,0,0,0-.93-.15,2.91,2.91,0,0,0-2.31,1.06,3,3,0,0,0-.64,1.3A2.6,2.6,0,0,1,586.87,82.07ZM591,86.36a2.68,2.68,0,0,1-3.19.46,3.08,3.08,0,0,0,1,.17,2.91,2.91,0,0,0,2-.79c.08,0,.12-.05.12-.1h0a2.92,2.92,0,0,0,.82-1.5A2.59,2.59,0,0,1,591,86.36Z"/><path class="a" d="M37.56,80.48,13.72,84.73,0,103.75l32.92-5.84c9.86-1.69,18.52-2,21.24,5.8V90.86H47.69V86.3h6.47v-.43C54.16,81.31,52.06,78,37.56,80.48Z"/><path class="a" d="M75.09,80.48l-5.27,5.27c-7.49,7.49-11.15,11.75-11.15,18,2.86-8.21,11.95-7.49,22.67-5.43l31.61,5.45-13.74-19Z"/><path class="a" d="M70.4,73.61c-2.92,2.92-8,7.56-10.4,12.68h5.3l6.1-6.08c5.61-5.61,9.93-9.89,11.76-15.27a19.7,19.7,0,0,0,1-9.8c-.14-1.07-.59-2.58-.62-2.27C83,59,81.33,62.64,72.48,71.5Z"/><path class="a" d="M53.81,36.11c3.27-3.25,11.48-10.62,11.48-17V12.05c0-.07-.15,0-.15,0-.57,4.76-1.7,6.81-13.33,18.44L40.34,42C34.27,48,29.34,54.51,30,61.73c.36,4.05,1.71,6.27,2.6,6.9.44.32.34.09.22-.17-3.49-7.92,4.83-16.13,9-20.29Z"/><path class="a" d="M65.29,24.14c0-.07-.15,0-.15,0-.57,4.76-1.7,6.81-13.33,18.44L41.15,53.25c-3.87,3.87-7.42,7.93-7.26,14.48.1,4,2.12,7.34,5.16,8.13,1.25.27,1.17.11.88,0-4.29-2-4-9.77,3-16.71L53.81,48.2c3.27-3.25,11.48-10.62,11.48-17Z"/><path class="a" d="M29.34,56.13c.54-6.1,2.24-9.76,11.09-18.61L53.81,24.11c3.27-3.25,11.48-10.61,11.48-17V0c0-.07-.15,0-.15,0-.57,4.76-1.7,6.81-13.33,18.44L41.51,28.8c-5.61,5.61-9.93,9.89-11.76,15.27a19.7,19.7,0,0,0-1,9.8C28.86,54.94,29.32,56.45,29.34,56.13Z"/><path class="a" d="M58.66,97.88c0,.05.14.05.15,0a15.17,15.17,0,0,1,2.79-7H58.66Z"/><path class="a" d="M72.54,59.43l-3.38,3.38c-5.21,5.18-10.47,11-10.47,16.35V86.3c0,.05.14.05.15,0,.57-5.2,3.07-8.58,10.61-16.12L72.57,67c6.07-6.07,11-12.54,10.35-19.76-.36-4.05-1.71-6.27-2.6-6.9-.44-.32-.34-.09-.22.17C83.6,48.48,75.27,56.7,72.54,59.43Z"/><path class="a" d="M58.67,73.91c0,.06.14.06.15,0,.59-5,3.42-8.74,9.9-15.22l3.1-3.09c3.87-3.87,7.36-7.9,7.2-14.45-.1-4-2.12-7.34-5.16-8.13-1.25-.27-1.17-.11-.88,0,4.29,2,4,9.77-3,16.71l-3.82,3.81c-2.46,2.46-7.54,8-7.54,13.1Z"/><path class="a" d="M114.22,93.68c-.17,0-.36-.17-.57-.48l-.08-.12-.68-1a1,1,0,0,0,.6-.88q0-.89-1.21-.89h-.36l-.4,0h-.4c-.08,0-.12,0-.12.08s0,.08.12.1l.12,0c.17,0,.25.16.25.4V93a1.77,1.77,0,0,1-.05.54.33.33,0,0,1-.25.17c-.06,0-.09,0-.09.09s0,.08.11.08h.12l.21,0h.86c.08,0,.12,0,.12-.08s0-.08-.13-.09a.57.57,0,0,1-.36-.12.65.65,0,0,1-.08-.39v-.88l0-.05h.37a.19.19,0,0,1,.17.08l0,.06.63,1a1,1,0,0,0,.8.54c.26,0,.39,0,.4-.12s0-.07-.08-.08ZM112.37,92h-.28a.21.21,0,0,1-.12,0,.23.23,0,0,1,0-.12V90.76c0-.12.08-.18.24-.18a.88.88,0,0,1,.61.22.7.7,0,0,1,.25.55A.58.58,0,0,1,112.37,92Z"/><path class="a" d="M112.51,89.08a2.89,2.89,0,0,0-2.31,1.06,2.92,2.92,0,0,0-.72,2,3,3,0,0,0,.72,2,2.87,2.87,0,0,0,2.3,1.06,3,3,0,1,0,0-6Zm1.9,4.93a2.69,2.69,0,1,1,.79-1.9A2.59,2.59,0,0,1,114.41,94Z"/></svg>