<svg xmlns="http://www.w3.org/2000/svg" viewBox="0 0 557.8 126.87"><defs><style>.a{fill:#fff;}</style></defs><title>Asset 1</title><path class="a" d="M45.7,98.08l-29,5.2L0,126.48l40.1-7.1c12-2.1,22.6-2.5,25.9,7.1v-15.7H58.1v-5.6H66v-.5C65.9,99.08,63.3,95,45.7,98.08Z"/><path class="a" d="M91.4,98.08l-6.4,6.4c-9.1,9.1-13.6,14.3-13.6,21.9,3.5-10,14.6-9.1,27.6-6.6l38.5,6.6-16.7-23.2Z"/><path class="a" d="M85.7,89.67c-3.6,3.6-9.8,9.2-12.7,15.4h6.5l7.4-7.4c6.8-6.8,12.1-12,14.3-18.6a24.52,24.52,0,0,0,1.3-11.9c-.2-1.3-.7-3.1-.8-2.8-.7,7.4-2.7,11.9-13.5,22.7Z"/><path class="a" d="M65.5,44c4-4,14-12.9,14-20.7v-8.6c0-.1-.2-.1-.2,0-.7,5.8-2.1,8.3-16.2,22.5l-14,14c-7.4,7.4-13.4,15.3-12.6,24.1.4,4.9,2.1,7.6,3.2,8.4.5.4.4.1.3-.2-4.3-9.6,5.9-19.6,10.9-24.7Z"/><path class="a" d="M79.4,29.37c0-.1-.2-.1-.2,0-.7,5.8-2.1,8.3-16.2,22.5l-13,13c-4.7,4.7-9,9.7-8.8,17.6.1,4.9,2.6,8.9,6.3,9.9,1.5.3,1.4.1,1.1,0-5.2-2.5-4.8-11.9,3.6-20.3l13.3-13.3c4-4,14-12.9,14-20.7v-8.7Z"/><path class="a" d="M35.7,68.37c.7-7.4,2.7-11.9,13.5-22.7l16.3-16.3c4-4,14-12.9,14-20.7V.08c0-.1-.2-.1-.2,0-.7,5.8-2.1,8.3-16.2,22.5L50.5,35.08c-6.8,6.8-12.1,12-14.3,18.6a24.52,24.52,0,0,0-1.3,11.9C35.1,67,35.6,68.78,35.7,68.37Z"/><path class="a" d="M71.4,119.28c0,.1.2.1.2,0a18.35,18.35,0,0,1,3.4-8.5H71.4Z"/><path class="a" d="M88.3,72.37l-4.1,4.1c-6.4,6.3-12.8,13.4-12.8,19.9v8.7c0,.1.2.1.2,0,.7-6.3,3.7-10.5,12.9-19.6l3.8-3.8c7.4-7.4,13.4-15.3,12.6-24.1-.4-4.9-2.1-7.6-3.2-8.4-.5-.4-.4-.1-.3.2C101.8,59.08,91.6,69.08,88.3,72.37Z"/><path class="a" d="M71.4,90.08c0,.1.2.1.2,0,.7-6,4.2-10.6,12.1-18.5l3.8-3.8c4.7-4.7,9-9.6,8.8-17.6-.1-4.9-2.6-8.9-6.3-9.9-1.5-.3-1.4-.1-1.1,0,5.2,2.5,4.8,11.9-3.6,20.3l-4.6,4.6c-3,3-9.2,9.7-9.2,16v8.9Z"/><path class="a" d="M192.2,125.08a6.24,6.24,0,0,1-3-1.1,11.42,11.42,0,0,1-1.8-3.6l-.6-1.3-10.2-26c-.2-.5-.4-.7-.6-.7s-.5.2-.7.7l-12.2,27-.7,1.6a12,12,0,0,1-1.3,2.1c-.5.7-1,1.1-1.3,1.1l-.9.3a.51.51,0,0,0-.4.5c0,.3.2.4.6.4a10.3,10.3,0,0,0,1.3-.1h1.1a20.13,20.13,0,0,1,2.6.1l2.3.1h.8c.5,0,.7-.1.7-.4s-.3-.5-.7-.6a4.14,4.14,0,0,1-2.2-.9,2,2,0,0,1-.6-1.6,10.53,10.53,0,0,1,1.1-3.6l1.6-3.5a7.6,7.6,0,0,1,1.1-1.9,4.77,4.77,0,0,1,2.2-.3H179a4.23,4.23,0,0,1,1.6.2c.2.1.4.6.8,1.5l1.2,3.1a16.57,16.57,0,0,1,1.4,5c0,.9-.4,1.5-1.2,1.6l-.7.2c-.4.1-.6.2-.6.5s.2.5.6.5a2,2,0,0,0,.7-.1,36.94,36.94,0,0,1,4.1-.1c2.1,0,3.6,0,4.4.1h.9c.4,0,.6-.1.7-.4C192.9,125.37,192.7,125.17,192.2,125.08Zm-13.9-13.8h-7.7c-.7,0-1.1-.2-1.1-.6a4.18,4.18,0,0,1,.3-.9l4.6-10.2c.1-.3.3-.5.4-.4s.4.3.6.8l.2.5,3.7,9.4.1.4a1.34,1.34,0,0,1,.1.5C179.5,111.08,179.1,111.28,178.3,111.28Z"/><path class="a" d="M203,101.67a17,17,0,0,0-2.3.1l-1.6.2a21,21,0,0,1-2.7.1h-1.2l-1.4-.1c-.3,0-.5.1-.5.3s.2.3.6.4a2.6,2.6,0,0,1,2,1,4.33,4.33,0,0,1,.6,2.6V122a7.54,7.54,0,0,1-.3,2.6,2.15,2.15,0,0,1-1.5.9c-.3.1-.5.2-.5.4s.2.4.6.4a4.14,4.14,0,0,0,1-.1,28.8,28.8,0,0,1,3.2-.2c1.2,0,2.5.1,4.1.2a11.8,11.8,0,0,0,1.6.1,13.25,13.25,0,0,0,7-2,11.81,11.81,0,0,0,4-4.3,12.46,12.46,0,0,0,1.4-6.1,11.38,11.38,0,0,0-3.3-8.4C211.4,102.87,207.8,101.67,203,101.67Zm7.3,21.9a10,10,0,0,1-5.4,1.5,11.21,11.21,0,0,1-2.4-.3c-1-.2-1.7-.4-2.4-.6a1.59,1.59,0,0,1-1.1-1.5v-18a1.67,1.67,0,0,1,.5-1.4c.5-.4,1.7-.6,3.5-.6a11,11,0,0,1,6.6,1.9,10.73,10.73,0,0,1,3.5,4.3,14.65,14.65,0,0,1,1.3,6C214.4,119.08,213,122,210.3,123.58Z"/><path class="a" d="M241.2,101.87h-3.4a13.62,13.62,0,0,1-1.6-.1h-.5q-.6,0-.6.3c0,.2.3.4,1,.5a2.3,2.3,0,0,1,1.1.4,1,1,0,0,1,.3.8c0,1.1-.8,3.6-2.5,7.5l-3.8,9.1-.3.6c-.3.7-.5,1-.6,1s-.3-.2-.5-.6L223.1,106a6.43,6.43,0,0,1-.7-2.4.85.85,0,0,1,.2-.6,1.87,1.87,0,0,1,.9-.4c.2-.1.3-.2.3-.4s-.2-.3-.5-.3h-.5c-.5,0-.9.1-1.1.1h-5.2c-.3,0-.5.1-.5.3s.1.2.2.3a4.17,4.17,0,0,0,1.1.2,2.35,2.35,0,0,1,1.4.7,8.35,8.35,0,0,1,1.1,2l8.8,20.5c.3.6.5.9.7.9s.5-.3.7-.9l8.7-20.3.5-1.1a3.42,3.42,0,0,1,1.9-2c.2-.1.4-.2.4-.4S241.5,101.87,241.2,101.87Z"/><path class="a" d="M260.5,121.17a.54.54,0,0,0-.4.3c-1.3,2.1-4.2,3.1-8.8,3.1a5.32,5.32,0,0,1-2.7-.4c-.4-.2-.5-.9-.5-1.9v-7a.78.78,0,0,1,.3-.7,2.68,2.68,0,0,1,1.1-.2h3.8a3.69,3.69,0,0,1,2.1.4,2.23,2.23,0,0,1,.8,1.6l.1.5a.37.37,0,0,0,.4.4c.2,0,.3-.1.3-.4v-.5a14.77,14.77,0,0,1-.1-2.1c0-.9.1-2,.2-3.1v-.4c0-.3-.1-.5-.3-.5a.37.37,0,0,0-.4.4,4.11,4.11,0,0,1-.5,1.5,2.25,2.25,0,0,1-1.2.5,20.69,20.69,0,0,1-2.9.2h-2.7a1.44,1.44,0,0,1-.9-.2c-.1-.1-.1-.4-.1-1v-7a1.74,1.74,0,0,1,.3-1.2,2.21,2.21,0,0,1,1.4-.3h2.7a15.24,15.24,0,0,1,3.7.3,1.74,1.74,0,0,1,1.3,1,3.6,3.6,0,0,1,.2,1.1v.5c0,.4.1.5.3.5s.3-.1.4-.3a7,7,0,0,0,.2-1.3l.1-1a10.33,10.33,0,0,0,.1-1.4c0-.2.1-.3.1-.4,0-.3-.2-.5-.6-.5a2,2,0,0,0-.7.1,8.47,8.47,0,0,0-1.3.1l-2.5.1c-1.1,0-2.3.1-3.8.1a52.13,52.13,0,0,1-6-.3,5.74,5.74,0,0,0-1.2-.1c-.5,0-.8.2-.8.5s.2.3.5.3q1.65,0,2.1.9c.4.6.5,1.7.5,3.4v15.9c0,1.4-.4,2.2-1.3,2.4l-.7.2c-.3.1-.5.2-.5.4s.2.4.6.4a3.45,3.45,0,0,0,.9-.1,38,38,0,0,1,4.3-.2c1.5,0,3.3.1,5.5.3.6,0,1,.1,1.4.1a5.6,5.6,0,0,0,5.2-4.6C260.8,121.28,260.7,121.17,260.5,121.17Z"/><path class="a" d="M286,101.87a3.45,3.45,0,0,0-.9.1,8.12,8.12,0,0,1-1.7.1,29.19,29.19,0,0,1-3.2-.1h-.7c-.3,0-.5.1-.5.3a.46.46,0,0,0,.5.4,5.46,5.46,0,0,1,2.5.9,3.43,3.43,0,0,1,.9,2.1l.2,4v11c0,.2-.1.3-.2.3s-.2-.1-.5-.4l-16-18.2a1.38,1.38,0,0,0-.9-.5h-3.1c-.3,0-.4.1-.4.3s.2.3.5.4a3.78,3.78,0,0,1,2.8,2,10.4,10.4,0,0,1,1,4.8v11.9a5.57,5.57,0,0,1-.5,2.7,3.56,3.56,0,0,1-2,1.4c-.3.1-.5.3-.5.4s.2.3.5.3a1.76,1.76,0,0,0,.6-.1,5.28,5.28,0,0,1,1.3-.1h.8l1.8.1a11.93,11.93,0,0,1,1.5.1h.5c.2,0,.4-.1.4-.3s-.2-.4-.6-.4a4.08,4.08,0,0,1-1.8-.6,2.67,2.67,0,0,1-.6-1.6l-.1-1.2v-12.5c0-.5.1-.8.3-.8s.2,0,.2.1l.2.2,14.7,16.8.4.5c.1.1.2.1.4.2s.4-.1.5-.4a12.31,12.31,0,0,0,.1-2.4V106a6,6,0,0,1,.3-2.3,2.15,2.15,0,0,1,1.4-.9c.2-.1.4-.2.3-.3C286.5,102,286.3,101.87,286,101.87Z"/><path class="a" d="M309.8,103.48a2.23,2.23,0,0,0-.2-1.2,2.23,2.23,0,0,0-1.2-.2H289.6c-.4,0-.7.1-.8.3a2.33,2.33,0,0,0-.2,1.1,10.39,10.39,0,0,1-.3,2.1c-.1.6-.2,1.1-.2,1.3s.1.5.3.5.4-.2.5-.7a3.72,3.72,0,0,1,1-2.1,2.81,2.81,0,0,1,2-.6h4.6a.8.8,0,0,1,1,1v17.8a3,3,0,0,1-.5,2,2.52,2.52,0,0,1-1.8.7c-.4,0-.6.2-.6.3a.46.46,0,0,0,.5.4,8.33,8.33,0,0,0,1.2-.1c.3,0,.8-.1,1.2-.1h2.7a5.79,5.79,0,0,1,1.6.1,3.45,3.45,0,0,0,.9.1c.3,0,.5-.1.5-.4s-.2-.3-.6-.4a2.48,2.48,0,0,1-2.3-2.4v-17.9a.92.92,0,0,1,1.2-1.2h4.9a3.32,3.32,0,0,1,2,.4,2.66,2.66,0,0,1,.7,1.6c.1.4.2.6.4.5s.4-.2.4-.6a3.45,3.45,0,0,0-.1-.9C309.8,104.67,309.8,104.17,309.8,103.48Z"/><path class="a" d="M319.9,125.17a4.29,4.29,0,0,1-1.6-.5,3.62,3.62,0,0,1-.9-1.3,10.75,10.75,0,0,1-.3-3.2v-13.1c0-2.5.4-3.9,1.3-4.2l.9-.3c.3-.1.5-.3.5-.5s-.2-.3-.5-.3h-.4l-1.2.1c-.6,0-1.4.1-2.2.1a29.59,29.59,0,0,1-3.4-.2h-.3c-.3,0-.5.1-.5.4s.2.3.6.4c1.1.2,1.8.5,2.1,1a6.24,6.24,0,0,1,.5,2.9v15a6.29,6.29,0,0,1-.4,2.9,2,2,0,0,1-1.7.9c-.4.1-.5.2-.5.4a.46.46,0,0,0,.5.4,2.49,2.49,0,0,0,.8-.1l2.1-.1h2.5a7.67,7.67,0,0,1,1.8.1c.3,0,.5.1.7.1.4,0,.5-.1.5-.4S320.5,125.28,319.9,125.17Z"/><path class="a" d="M331.6,112a38,38,0,0,1-4.2-1.5,4.84,4.84,0,0,1-1.6-1.3,4.38,4.38,0,0,1-.8-2.5,3.54,3.54,0,0,1,1.3-2.8,4.69,4.69,0,0,1,3.1-1.1,8,8,0,0,1,4.3,1.2,5.72,5.72,0,0,1,2.5,3.1c.2.6.4.8.6.8a.46.46,0,0,0,.4-.5,2.64,2.64,0,0,0-.1-.7l-.3-1.8a8.79,8.79,0,0,1-.2-1.8c0-.6-.1-.9-.4-.9-.1,0-.2,0-.2.1l-.2.2a.76.76,0,0,1-.4.2.37.37,0,0,1-.3-.1l-1.2-.5a7.69,7.69,0,0,0-3.2-.5,8,8,0,0,0-5.4,1.8,5.74,5.74,0,0,0-2.1,4.6,5.28,5.28,0,0,0,1.6,4.1,14.55,14.55,0,0,0,5.5,2.9,17.69,17.69,0,0,1,4.5,1.9,4.27,4.27,0,0,1,1.5,3.3,4.22,4.22,0,0,1-1.7,3.4,6.36,6.36,0,0,1-4.1,1.4,7.31,7.31,0,0,1-4.4-1.5,7,7,0,0,1-2.6-3.6c-.2-.6-.4-.8-.6-.9a.46.46,0,0,0-.4.5,10.17,10.17,0,0,0,.5,2.2,10.18,10.18,0,0,1,.4,1.6,3.1,3.1,0,0,0,.3,1.2.78.78,0,0,0,.4.4,10.16,10.16,0,0,0,2.4.9,11.28,11.28,0,0,0,3,.4,8.87,8.87,0,0,0,6.1-2.1,6.79,6.79,0,0,0,2.4-5.3C338.1,115.67,335.9,113.37,331.6,112Z"/><path class="a" d="M361.4,103.48a2.23,2.23,0,0,0-.2-1.2,2.23,2.23,0,0,0-1.2-.2H341.2c-.4,0-.7.1-.8.3a2.33,2.33,0,0,0-.2,1.1,10.39,10.39,0,0,1-.3,2.1c-.1.6-.2,1.1-.2,1.3s.1.5.3.5.4-.2.5-.7a3.72,3.72,0,0,1,1-2.1,2.81,2.81,0,0,1,2-.6h4.6a.8.8,0,0,1,1,1v17.8a3,3,0,0,1-.5,2,2.52,2.52,0,0,1-1.8.7c-.4,0-.6.2-.6.3a.46.46,0,0,0,.5.4,8.33,8.33,0,0,0,1.2-.1c.3,0,.8-.1,1.2-.1h2.7a5.79,5.79,0,0,1,1.6.1,3.45,3.45,0,0,0,.9.1c.3,0,.5-.1.5-.4s-.2-.3-.6-.4a2.48,2.48,0,0,1-2.3-2.4v-17.9a.92.92,0,0,1,1.2-1.2H358a3.32,3.32,0,0,1,2,.4,2.66,2.66,0,0,1,.7,1.6c.1.4.2.6.4.5s.4-.2.4-.6a3.45,3.45,0,0,0-.1-.9C361.4,104.67,361.4,104.17,361.4,103.48Z"/><path class="a" d="M387.2,101.87a3.22,3.22,0,0,0-.8.1c-.3,0-1.1.1-2.4.1a8.08,8.08,0,0,1-1.6-.1,5.39,5.39,0,0,0-1.1-.1c-.2,0-.3.1-.3.4s.2.3.5.4a2.71,2.71,0,0,1,2.1,1.1,6.47,6.47,0,0,1,.6,3.2v9c0,3.1-.7,5.3-2.1,6.9a8,8,0,0,1-6.2,2.3q-4.65,0-6.6-2.7c-.9-1.3-1.4-3.4-1.4-6.4v-9.9a6,6,0,0,1,.3-2.3,2.15,2.15,0,0,1,1.4-.9c.4-.1.6-.2.6-.4s-.1-.3-.4-.3a3.45,3.45,0,0,0-.9.1c-.5,0-.8.1-1,.1h-2.6a6.82,6.82,0,0,1-1.2-.1h-1.2c-.4,0-.7.1-.7.4s.2.3.5.4a4.12,4.12,0,0,1,2.1.9,5.11,5.11,0,0,1,.5,2.6v9.9a12.63,12.63,0,0,0,1.2,5.9,7.15,7.15,0,0,0,3.5,3.1,11.78,11.78,0,0,0,5.3,1.2,11.17,11.17,0,0,0,4.8-1,7.57,7.57,0,0,0,3.4-2.6c1.3-1.7,1.9-4.2,1.9-7.3v-8.6a10.06,10.06,0,0,1,.3-3,2.44,2.44,0,0,1,1.4-1.2c.2-.1.4-.2.4-.4C387.6,102,387.4,101.87,387.2,101.87Z"/><path class="a" d="M419.3,108.37c-.8-.2-1.2-.3-1.2-.5s.1-.2.3-.4l1-.7a6.53,6.53,0,0,0,3.1-5.8,6.61,6.61,0,0,0-3-5.7c-2-1.4-4.7-2.1-8.2-2.1a20.94,20.94,0,0,0-2.4.1l-2.6.2h-5.9c-.6,0-.9.2-.9.5s.3.5,1,.5a3.27,3.27,0,0,1,2.9,1.5,9.09,9.09,0,0,1,.9,4.6v18.3a16.58,16.58,0,0,1-.4,4.2,2.56,2.56,0,0,1-2.4,2.2c-.5.1-.7.2-.7.5s.2.5.7.5a11,11,0,0,0,1.6-.1,10.89,10.89,0,0,1,1.9-.1c.7,0,1.7,0,3,.1l1.9.1,2.2.1,1.8.1a11.58,11.58,0,0,0,8.1-2.8,9.34,9.34,0,0,0,3.2-7.2,8.24,8.24,0,0,0-1.7-5.1A6.57,6.57,0,0,0,419.3,108.37Zm-11.4-11.5a2.7,2.7,0,0,1,.5-1.9,3.51,3.51,0,0,1,2.2-.5,9.14,9.14,0,0,1,6.3,2.2,7,7,0,0,1,2.5,5.5c0,3.6-2,5.3-5.9,5.3h-3.9a2.75,2.75,0,0,1-1.3-.2c-.2-.1-.3-.5-.3-1v-9.4Zm11.8,26.2a8.12,8.12,0,0,1-5.8,1.9,15.51,15.51,0,0,1-4.3-.4,2.37,2.37,0,0,1-1.7-1.5l-.1-.9v-12a1,1,0,0,1,.2-.7,2.33,2.33,0,0,1,1.1-.2h4.7a7.48,7.48,0,0,1,5.7,2.4,8.4,8.4,0,0,1,2.3,5.9A7.09,7.09,0,0,1,419.7,123.08Z"/><path class="a" d="M451.4,125.28a5.33,5.33,0,0,1-2.2-.8,7.88,7.88,0,0,1-1.4-2.6l-.4-.9-7.5-19.2c-.1-.3-.3-.5-.5-.5s-.4.2-.5.5l-9,19.9-.5,1.2a13,13,0,0,1-1,1.5c-.4.5-.7.8-.9.8l-.6.2c-.2.1-.3.2-.3.4s.2.3.5.3a5.81,5.81,0,0,0,1-.1h2.7l1.7.1h.6c.3,0,.5-.1.5-.3s-.2-.3-.5-.4a5.35,5.35,0,0,1-1.6-.6c-.3-.2-.4-.6-.4-1.2a7.92,7.92,0,0,1,.8-2.6l1.1-2.6a3.08,3.08,0,0,1,.8-1.4,4.23,4.23,0,0,1,1.6-.2h6.3a3.14,3.14,0,0,1,1.2.1,7.37,7.37,0,0,1,.6,1.1l.9,2.3a14.13,14.13,0,0,1,1.1,3.7,1,1,0,0,1-.9,1.2l-.5.1c-.3.1-.4.2-.4.4a.46.46,0,0,0,.5.4,1.09,1.09,0,0,0,.5-.1,19.58,19.58,0,0,1,3-.1,25.54,25.54,0,0,1,3.2.1h.7c.3,0,.5-.1.5-.3C451.9,125.48,451.8,125.28,451.4,125.28Zm-10.2-10.2h-5.8c-.5,0-.8-.2-.8-.5a3.93,3.93,0,0,1,.2-.6l3.4-7.6q.15-.3.3-.3c.2,0,.3.2.5.6l.1.4,2.7,6.9.1.3a.76.76,0,0,1,.1.4C442.1,115,441.8,115.08,441.2,115.08Z"/><path class="a" d="M469.3,122.08c-.2,0-.5.3-1.2.9a4.53,4.53,0,0,1-1.9,1.1,11.86,11.86,0,0,1-3.1.3h-5.6q-1.05,0-.9-.6c0-.2.1-.3.2-.6l.2-.3,11.4-19.6a.76.76,0,0,0,.1-.4c0-.4-.4-.7-1.1-.7H454.3c-.5,0-.8.1-.9.4a7.58,7.58,0,0,0-.3,1.8,4.44,4.44,0,0,1-.2,1.3,7.39,7.39,0,0,0-.2,1.2c0,.3.1.4.3.4a.46.46,0,0,0,.4-.5,6.19,6.19,0,0,1,1.1-1.8,3.48,3.48,0,0,1,1.3-1,5.15,5.15,0,0,1,2.1-.3h5.9c.5,0,.8.1.8.3a.76.76,0,0,1-.1.4l-.1.2-11.6,20.3a1.69,1.69,0,0,0-.2.5c0,.3.3.5.9.5h13.3a2.51,2.51,0,0,0,1-.1c.2-.1.3-.3.5-.6l.6-1.2.5-1.1a.9.9,0,0,0,.1-.5C469.6,122.17,469.5,122.08,469.3,122.08Z"/><path class="a" d="M493.9,101.87a3.45,3.45,0,0,0-.9.1,8.12,8.12,0,0,1-1.7.1,29.19,29.19,0,0,1-3.2-.1h-.7c-.3,0-.5.1-.5.3a.46.46,0,0,0,.5.4,5.46,5.46,0,0,1,2.5.9,3.43,3.43,0,0,1,.9,2.1l.2,4v11c0,.2-.1.3-.2.3s-.2-.1-.5-.4l-16-18.2a1.38,1.38,0,0,0-.9-.5h-3.1c-.3,0-.4.1-.4.3s.2.3.5.4a3.78,3.78,0,0,1,2.8,2,10.4,10.4,0,0,1,1,4.8v11.9a5.57,5.57,0,0,1-.5,2.7,3.56,3.56,0,0,1-2,1.4c-.3.1-.5.3-.5.4s.2.3.5.3a1.76,1.76,0,0,0,.6-.1,5.28,5.28,0,0,1,1.3-.1h.8l1.8.1a11.93,11.93,0,0,1,1.5.1h.5c.2,0,.4-.1.4-.3s-.2-.4-.6-.4a4.08,4.08,0,0,1-1.8-.6,2.67,2.67,0,0,1-.6-1.6l-.1-1.2v-12.5c0-.5.1-.8.3-.8s.2,0,.2.1l.2.2,14.7,16.8.4.5c.1.1.2.1.4.2s.4-.1.5-.4a12.31,12.31,0,0,0,.1-2.4V106a6,6,0,0,1,.3-2.3,2.15,2.15,0,0,1,1.4-.9c.2-.1.4-.2.3-.3C494.4,102,494.2,101.87,493.9,101.87Z"/><path class="a" d="M506,125.17a4.29,4.29,0,0,1-1.6-.5,3.62,3.62,0,0,1-.9-1.3,10.75,10.75,0,0,1-.3-3.2v-13.1c0-2.5.4-3.9,1.3-4.2l.9-.3c.3-.1.5-.3.5-.5s-.2-.3-.5-.3H505l-1.2.1c-.6,0-1.4.1-2.2.1a29.59,29.59,0,0,1-3.4-.2h-.3c-.3,0-.5.1-.5.4s.2.3.6.4c1.1.2,1.8.5,2.1,1a6.24,6.24,0,0,1,.5,2.9v15a6.29,6.29,0,0,1-.4,2.9,2,2,0,0,1-1.7.9c-.4.1-.5.2-.5.4a.46.46,0,0,0,.5.4,2.49,2.49,0,0,0,.8-.1l2.1-.1h2.5a7.67,7.67,0,0,1,1.8.1c.3,0,.5.1.7.1.4,0,.5-.1.5-.4S506.6,125.28,506,125.17Z"/><path class="a" d="M531.7,119.48c-.2,0-.4.3-.7.9a8.22,8.22,0,0,1-3.5,3.4,11,11,0,0,1-5.2,1.4,9,9,0,0,1-7.3-3.5,13.6,13.6,0,0,1-2.9-8.9,10.68,10.68,0,0,1,2.6-7.5,9.27,9.27,0,0,1,7-2.7c3.7,0,6.7,1.9,8.9,5.7.3.5.5.7.6.7s.2-.1.3-.2l.1-.2-.1-.4-.6-4.2c-.1-.4-.2-.7-.4-.7a.91.91,0,0,0-.5.3.37.37,0,0,1-.3.1l-.3-.1-.3-.1-.7-.4a14.28,14.28,0,0,0-6.8-1.7,11.83,11.83,0,0,0-8.9,3.6,12.21,12.21,0,0,0-3.6,9,11.83,11.83,0,0,0,3.4,8.8,12.56,12.56,0,0,0,9.1,3.3,16.5,16.5,0,0,0,8.9-2.6c.5-.3.8-.6.8-.9l.1-.3.4-2.1.1-.4v-.2C532,119.58,531.9,119.37,531.7,119.48Z"/><path class="a" d="M557.1,125.28a5.33,5.33,0,0,1-2.2-.8,7.88,7.88,0,0,1-1.4-2.6l-.4-.9-7.5-19.2c-.1-.3-.3-.5-.5-.5s-.4.2-.5.5l-9,19.9-.5,1.2a13,13,0,0,1-1,1.5c-.4.5-.7.8-.9.8l-.6.2c-.2.1-.3.2-.3.4s.2.3.5.3a5.81,5.81,0,0,0,1-.1h2.7l1.7.1h.6c.3,0,.5-.1.5-.3s-.2-.3-.5-.4a5.35,5.35,0,0,1-1.6-.6c-.3-.2-.4-.6-.4-1.2a7.92,7.92,0,0,1,.8-2.6l1.1-2.6a3.08,3.08,0,0,1,.8-1.4,4.23,4.23,0,0,1,1.6-.2h6.3a3.14,3.14,0,0,1,1.2.1,7.37,7.37,0,0,1,.6,1.1l.9,2.3a14.13,14.13,0,0,1,1.1,3.7,1,1,0,0,1-.9,1.2l-.5.1c-.3.1-.4.2-.4.4a.46.46,0,0,0,.5.4,1.09,1.09,0,0,0,.5-.1,19.58,19.58,0,0,1,3-.1,25.54,25.54,0,0,1,3.2.1h.7c.3,0,.5-.1.5-.3A.72.72,0,0,0,557.1,125.28Zm-10.2-10.2h-5.8c-.5,0-.8-.2-.8-.5a3.93,3.93,0,0,1,.2-.6l3.4-7.6q.15-.3.3-.3c.2,0,.3.2.5.6l.1.4,2.7,6.9.1.3a.76.76,0,0,1,.1.4C547.8,115,547.5,115.08,546.9,115.08Z"/><path class="a" d="M164.4,84.28a11.19,11.19,0,0,0,.4,1.6,1.7,1.7,0,0,0,.6.6,8.22,8.22,0,0,0,3.2,1.2,20.76,20.76,0,0,0,4,.5,12.1,12.1,0,0,0,8.3-2.8,9.34,9.34,0,0,0,3.2-7.2c0-4.3-2.9-7.5-8.7-9.4a44.31,44.31,0,0,1-5.6-2.1,6,6,0,0,1-2.1-1.8,5.75,5.75,0,0,1-1.1-3.4,5.17,5.17,0,0,1,1.7-3.8,6.26,6.26,0,0,1,4.3-1.5,10.64,10.64,0,0,1,5.8,1.7,8.33,8.33,0,0,1,3.5,4.2c.3.8.5,1.1.8,1.1s.5-.2.5-.7a5.81,5.81,0,0,0-.1-1l-.4-2.4a23.61,23.61,0,0,1-.3-2.4q0-1.2-.6-1.2a.37.37,0,0,0-.3.1l-.3.3a.73.73,0,0,1-.6.2.6.6,0,0,1-.4-.1l-1.6-.7a11.08,11.08,0,0,0-4.3-.7A10.88,10.88,0,0,0,167,57a7.73,7.73,0,0,0-2.8,6.2,7.46,7.46,0,0,0,2.2,5.6,20.77,20.77,0,0,0,7.4,3.9c3.4,1.1,5.4,2,6.1,2.6a5.63,5.63,0,0,1,2.1,4.4,6.11,6.11,0,0,1-2.3,4.7,8,8,0,0,1-5.5,1.9,10,10,0,0,1-5.9-2,9.56,9.56,0,0,1-3.6-4.9c-.2-.8-.5-1.1-.8-1.2s-.5.2-.5.7a12.71,12.71,0,0,0,.6,3C164.2,83.48,164.4,84.17,164.4,84.28Z"/><path class="a" d="M187.8,64.37q1.65,0,2.1.9c.4.6.5,1.7.5,3.4v15.9c0,1.4-.4,2.2-1.3,2.4l-.7.2c-.3.1-.5.2-.5.4s.2.4.6.4a3.45,3.45,0,0,0,.9-.1,38,38,0,0,1,4.3-.2c1.5,0,3.3.1,5.5.3.6,0,1,.1,1.4.1a5.6,5.6,0,0,0,5.2-4.6c0-.3-.1-.5-.3-.5a.54.54,0,0,0-.4.3c-1.3,2.1-4.2,3.1-8.8,3.1a5.32,5.32,0,0,1-2.7-.4c-.4-.2-.5-.9-.5-1.9v-7a.78.78,0,0,1,.3-.7,2.68,2.68,0,0,1,1.1-.2h3.8a3.69,3.69,0,0,1,2.1.4,2.23,2.23,0,0,1,.8,1.6l.1.5a.37.37,0,0,0,.4.4c.2,0,.3-.1.3-.4v-.5a14.77,14.77,0,0,1-.1-2.1c0-.9.1-2,.2-3.1v-.4c0-.3-.1-.5-.3-.5a.37.37,0,0,0-.4.4,4.11,4.11,0,0,1-.5,1.5,2.25,2.25,0,0,1-1.2.5,20.69,20.69,0,0,1-2.9.2h-2.7a1.44,1.44,0,0,1-.9-.2c-.1-.1-.1-.4-.1-1v-7a1.74,1.74,0,0,1,.3-1.2,2.21,2.21,0,0,1,1.4-.3h2.7a15.24,15.24,0,0,1,3.7.3,1.74,1.74,0,0,1,1.3,1,3.6,3.6,0,0,1,.2,1.1v.5c0,.4.1.5.3.5s.3-.1.4-.3a7,7,0,0,0,.2-1.3l.1-1a10.33,10.33,0,0,0,.1-1.4c0-.2.1-.3.1-.4,0-.3-.2-.5-.6-.5a2,2,0,0,0-.7.1,8.47,8.47,0,0,0-1.3.1l-2.5.1c-1.1,0-2.3.1-3.8.1a52.13,52.13,0,0,1-6-.3,5.74,5.74,0,0,0-1.2-.1c-.5,0-.8.2-.8.5A1,1,0,0,0,187.8,64.37Z"/><path class="a" d="M208.8,64.37c1.2.1,1.9.5,2.2,1.2a14.44,14.44,0,0,1,.4,4.6v10.6a16.81,16.81,0,0,1-.5,4.8,2.14,2.14,0,0,1-1.9,1.5c-.4.1-.6.2-.6.4s.2.3.5.3a4.59,4.59,0,0,0,1-.1c.3,0,.9-.1,1.6-.1h4.4c.6,0,1,.1,1.2.1.4,0,.6-.1.6-.4s-.2-.3-.5-.3a5,5,0,0,1-1.4-.3c-.9-.2-1.4-1.1-1.6-2.5l-.1-1.5V65.87a1.1,1.1,0,0,1,1.3-1.3,7.56,7.56,0,0,1,5,1.7,5.71,5.71,0,0,1,2,4.4,4.82,4.82,0,0,1-1.5,3.7,5.72,5.72,0,0,1-4,1.4,4.51,4.51,0,0,1-1.3-.1,1,1,0,0,1-.3-.1c-.2,0-.3.1-.3.2s.3.4.9.5a6.48,6.48,0,0,0,2,.2,7.31,7.31,0,0,0,4.4-1.5,6.15,6.15,0,0,0,2.8-5.4,5.64,5.64,0,0,0-2.3-4.6,9.22,9.22,0,0,0-5.9-1.8,12.14,12.14,0,0,0-1.8.1c-1.4.1-2.5.2-3.2.2a14,14,0,0,1-1.8-.2,3.45,3.45,0,0,0-.9-.1c-.4,0-.7.1-.7.4C208.3,64.28,208.5,64.37,208.8,64.37Z"/><path class="a" d="M226.1,69c.2,0,.4-.2.5-.7a3.72,3.72,0,0,1,1-2.1,2.81,2.81,0,0,1,2-.6h4.6a.8.8,0,0,1,1,1v17.8a3,3,0,0,1-.5,2,2.52,2.52,0,0,1-1.8.7c-.4,0-.6.2-.6.3a.46.46,0,0,0,.5.4,8.33,8.33,0,0,0,1.2-.1c.3,0,.8-.1,1.2-.1h2.7a5.79,5.79,0,0,1,1.6.1,3.45,3.45,0,0,0,.9.1c.3,0,.5-.1.5-.4s-.2-.3-.6-.4a2.48,2.48,0,0,1-2.3-2.4V66.78a1.85,1.85,0,0,1,.2-1,1.86,1.86,0,0,1,1-.2h4.9a3.32,3.32,0,0,1,2,.4,2.66,2.66,0,0,1,.7,1.6c.1.4.2.6.4.5s.4-.2.4-.6a3.45,3.45,0,0,0-.1-.9,5.76,5.76,0,0,1-.1-1.5,2.23,2.23,0,0,0-.2-1.2,2.23,2.23,0,0,0-1.2-.2H227.2c-.4,0-.7.1-.8.3a2.33,2.33,0,0,0-.2,1.1,10.39,10.39,0,0,1-.3,2.1c-.1.6-.2,1.1-.2,1.3C225.8,68.87,225.9,69,226.1,69Z"/><path class="a" d="M256,64.78l.9-.3c.3-.1.5-.3.5-.5s-.2-.3-.5-.3h-.4l-1.2.1c-.6,0-1.4.1-2.2.1a29.59,29.59,0,0,1-3.4-.2h-.3c-.3,0-.5.1-.5.4s.2.3.6.4c1.1.2,1.8.5,2.1,1a6.24,6.24,0,0,1,.5,2.9v15a6.29,6.29,0,0,1-.4,2.9,2,2,0,0,1-1.7.9c-.4.1-.5.2-.5.4a.46.46,0,0,0,.5.4,2.49,2.49,0,0,0,.8-.1l2.1-.1h2.5a7.67,7.67,0,0,1,1.8.1c.3,0,.5.1.7.1.4,0,.5-.1.5-.4s-.3-.3-.9-.4a4.29,4.29,0,0,1-1.6-.5,3.62,3.62,0,0,1-.9-1.3,10.75,10.75,0,0,1-.3-3.2V69.08C254.7,66.48,255.1,65.08,256,64.78Z"/><path class="a" d="M267.7,65.67a.8.8,0,0,1,1,1v17.8a3,3,0,0,1-.5,2,2.52,2.52,0,0,1-1.8.7c-.4,0-.6.2-.6.3a.46.46,0,0,0,.5.4,8.33,8.33,0,0,0,1.2-.1c.3,0,.8-.1,1.2-.1h2.7a5.79,5.79,0,0,1,1.6.1,3.45,3.45,0,0,0,.9.1c.3,0,.5-.1.5-.4s-.2-.3-.6-.4a2.48,2.48,0,0,1-2.3-2.4V66.87a1.85,1.85,0,0,1,.2-1,1.86,1.86,0,0,1,1-.2h4.9a3.32,3.32,0,0,1,2,.4,2.66,2.66,0,0,1,.7,1.6c.1.4.2.6.4.5s.4-.2.4-.6a3.45,3.45,0,0,0-.1-.9,5.76,5.76,0,0,1-.1-1.5,2.23,2.23,0,0,0-.2-1.2,2.23,2.23,0,0,0-1.2-.2H260.7c-.4,0-.7.1-.8.3a2.33,2.33,0,0,0-.2,1.1,10.39,10.39,0,0,1-.3,2.1c-.1.6-.2,1.1-.2,1.3s.1.5.3.5.4-.2.5-.7a3.72,3.72,0,0,1,1-2.1,2.81,2.81,0,0,1,2-.6h4.7Z"/><path class="a" d="M294.9,78.67a7.37,7.37,0,0,1,.6,1.1l.9,2.3a14.13,14.13,0,0,1,1.1,3.7,1,1,0,0,1-.9,1.2l-.5.1c-.3.1-.4.2-.4.4a.46.46,0,0,0,.5.4,1.09,1.09,0,0,0,.5-.1,19.58,19.58,0,0,1,3-.1,25.54,25.54,0,0,1,3.2.1h.7c.3,0,.5-.1.5-.3a.46.46,0,0,0-.5-.4,5.33,5.33,0,0,1-2.2-.8,7.88,7.88,0,0,1-1.4-2.6l-.4-.9-7.5-19.2c-.1-.3-.3-.5-.5-.5s-.4.2-.5.5l-9,19.9-.5,1.2a13,13,0,0,1-1,1.5c-.4.5-.7.8-.9.8l-.6.2c-.2.1-.3.2-.3.4s.2.3.5.3a5.81,5.81,0,0,0,1-.1H283l1.7.1h.6c.3,0,.5-.1.5-.3s-.2-.3-.5-.4a5.35,5.35,0,0,1-1.6-.6c-.3-.2-.4-.6-.4-1.2a7.92,7.92,0,0,1,.8-2.6l1.1-2.6a3.08,3.08,0,0,1,.8-1.4,4.23,4.23,0,0,1,1.6-.2h6.3A2.25,2.25,0,0,1,294.9,78.67Zm-6.9-1.8h-.5c-.5,0-.8-.2-.8-.5a3.93,3.93,0,0,1,.2-.6l3.4-7.6q.15-.3.3-.3c.2,0,.3.2.5.6l.1.4,2.7,6.9.1.3a.76.76,0,0,1,.1.4c0,.3-.3.4-.9.4H288Z"/><path class="a" d="M319.7,80.67c0-3.2-2.1-5.5-6.4-6.9a38,38,0,0,1-4.2-1.5,4.84,4.84,0,0,1-1.6-1.3,4.38,4.38,0,0,1-.8-2.5,3.54,3.54,0,0,1,1.3-2.8,4.69,4.69,0,0,1,3.1-1.1,8,8,0,0,1,4.3,1.2,5.72,5.72,0,0,1,2.5,3.1c.2.6.4.8.6.8a.46.46,0,0,0,.4-.5,2.64,2.64,0,0,0-.1-.7l-.3-1.8a8.79,8.79,0,0,1-.2-1.8c0-.6-.1-.9-.4-.9-.1,0-.2,0-.2.1l-.2.2a.76.76,0,0,1-.4.2.37.37,0,0,1-.3-.1l-1.2-.5a7.69,7.69,0,0,0-3.2-.5,8,8,0,0,0-5.4,1.8,5.74,5.74,0,0,0-2.1,4.6,5.28,5.28,0,0,0,1.6,4.1,14.55,14.55,0,0,0,5.5,2.9,17.69,17.69,0,0,1,4.5,1.9A4.27,4.27,0,0,1,318,82a4.22,4.22,0,0,1-1.7,3.4,6.36,6.36,0,0,1-4.1,1.4,7.31,7.31,0,0,1-4.4-1.5,7,7,0,0,1-2.6-3.6c-.2-.6-.4-.8-.6-.9a.46.46,0,0,0-.4.5,10.17,10.17,0,0,0,.5,2.2,10.18,10.18,0,0,1,.4,1.6,3.1,3.1,0,0,0,.3,1.2.78.78,0,0,0,.4.4,10.16,10.16,0,0,0,2.4.9,11.28,11.28,0,0,0,3,.4,8.87,8.87,0,0,0,6.1-2.1A6.19,6.19,0,0,0,319.7,80.67Z"/><path class="a" d="M359.7,59.78c-3.2-3.2-8.1-4.9-14.5-4.9a30.1,30.1,0,0,0-3.1.1l-2.2.2c-.9.1-2.1.1-3.7.1h-1.7l-1.9-.1c-.4,0-.6.2-.6.5s.3.4.8.5a3.87,3.87,0,0,1,2.7,1.3,6.22,6.22,0,0,1,.8,3.5v21.3a8.5,8.5,0,0,1-.5,3.5,2.7,2.7,0,0,1-2.1,1.2c-.4.1-.7.3-.7.5,0,.4.3.6.8.5.3,0,.8-.1,1.3-.1a27.61,27.61,0,0,1,4.4-.3c1.6,0,3.4.1,5.5.2a21.33,21.33,0,0,0,2.2.1,17.75,17.75,0,0,0,9.5-2.7,14.68,14.68,0,0,0,5.4-5.9,17.38,17.38,0,0,0,1.9-8.2A15.22,15.22,0,0,0,359.7,59.78ZM355,84.58a13.16,13.16,0,0,1-7.3,2,14.66,14.66,0,0,1-3.3-.4,16.48,16.48,0,0,1-3.2-.8,1.93,1.93,0,0,1-1.4-2V59.08c0-1,.2-1.6.6-1.9.7-.5,2.3-.8,4.7-.8A15.1,15.1,0,0,1,354,59a13.9,13.9,0,0,1,4.7,5.9,20,20,0,0,1,1.7,8.2C360.5,78.48,358.7,82.37,355,84.58Z"/><path class="a" d="M367.9,64.37c1.1.2,1.8.5,2.1,1a6.24,6.24,0,0,1,.5,2.9v15a6.29,6.29,0,0,1-.4,2.9,2,2,0,0,1-1.7.9c-.4.1-.5.2-.5.4a.46.46,0,0,0,.5.4,2.49,2.49,0,0,0,.8-.1l2.1-.1h2.5a7.67,7.67,0,0,1,1.8.1c.3,0,.5.1.7.1.4,0,.5-.1.5-.4s-.3-.3-.9-.4a4.29,4.29,0,0,1-1.6-.5,3.62,3.62,0,0,1-.9-1.3,10.75,10.75,0,0,1-.3-3.2V69c0-2.5.4-3.9,1.3-4.2l.9-.3c.3-.1.5-.3.5-.5s-.2-.3-.5-.3h-.4l-1.2.1c-.6,0-1.4.1-2.2.1a29.59,29.59,0,0,1-3.4-.2h-.3c-.3,0-.5.1-.5.4A.86.86,0,0,0,367.9,64.37Z"/><path class="a" d="M397.3,83a.54.54,0,0,0-.4.3c-1.3,2.1-4.2,3.1-8.8,3.1a5.32,5.32,0,0,1-2.7-.4c-.4-.2-.5-.9-.5-1.9v-7a.78.78,0,0,1,.3-.7,2.68,2.68,0,0,1,1.1-.2h3.8a3.69,3.69,0,0,1,2.1.4,2.23,2.23,0,0,1,.8,1.6l.1.5a.37.37,0,0,0,.4.4c.2,0,.3-.1.3-.4v-.5a14.77,14.77,0,0,1-.1-2.1c0-.9.1-2,.2-3.1v-.4c0-.3-.1-.5-.3-.5a.37.37,0,0,0-.4.4,4.11,4.11,0,0,1-.5,1.5,2.25,2.25,0,0,1-1.2.5,20.69,20.69,0,0,1-2.9.2h-2.7a1.44,1.44,0,0,1-.9-.2c-.1-.1-.1-.4-.1-1v-7a1.74,1.74,0,0,1,.3-1.2,2.21,2.21,0,0,1,1.4-.3h2.7a15.24,15.24,0,0,1,3.7.3,1.74,1.74,0,0,1,1.3,1,3.6,3.6,0,0,1,.2,1.1v.5c0,.4.1.5.3.5s.3-.1.4-.3a7,7,0,0,0,.2-1.3l.1-1a10.33,10.33,0,0,0,.1-1.4c0-.2.1-.3.1-.4,0-.3-.2-.5-.6-.5a2,2,0,0,0-.7.1,8.47,8.47,0,0,0-1.3.1l-2.5.1c-1.1,0-2.3.1-3.8.1a52.13,52.13,0,0,1-6-.3,5.74,5.74,0,0,0-1.2-.1c-.5,0-.8.2-.8.5s.2.3.5.3q1.65,0,2.1.9c.4.6.5,1.7.5,3.4v15.9c0,1.4-.4,2.2-1.3,2.4l-.7.2c-.3.1-.5.2-.5.4s.2.4.6.4a3.45,3.45,0,0,0,.9-.1,38,38,0,0,1,4.3-.2c1.5,0,3.3.1,5.5.3.6,0,1,.1,1.4.1a5.6,5.6,0,0,0,5.2-4.6C397.6,83.08,397.5,83,397.3,83Z"/><path class="a" d="M402,66.37a10.4,10.4,0,0,1,1,4.8v11.9a5.57,5.57,0,0,1-.5,2.7,3.56,3.56,0,0,1-2,1.4c-.3.1-.5.3-.5.4s.2.3.5.3a1.76,1.76,0,0,0,.6-.1,5.28,5.28,0,0,1,1.3-.1h.8l1.8.1a11.93,11.93,0,0,1,1.5.1h.5c.2,0,.4-.1.4-.3s-.2-.4-.6-.4a4.08,4.08,0,0,1-1.8-.6,2.67,2.67,0,0,1-.6-1.6l-.1-1.2V71.28c0-.5.1-.8.3-.8s.2,0,.2.1l.2.2,14.7,16.8.4.5c.1.1.2.1.4.2s.4-.1.5-.4a12.31,12.31,0,0,0,.1-2.4V67.78a6,6,0,0,1,.3-2.3,2.15,2.15,0,0,1,1.4-.9c.2-.1.4-.2.3-.3a.46.46,0,0,0-.5-.4,3.45,3.45,0,0,0-.9.1,8.12,8.12,0,0,1-1.7.1,29.19,29.19,0,0,1-3.2-.1h-.7c-.3,0-.5.1-.5.3a.46.46,0,0,0,.5.4,5.46,5.46,0,0,1,2.5.9,3.43,3.43,0,0,1,.9,2.1l.2,4v11c0,.2-.1.3-.2.3s-.2-.1-.5-.4l-16-18.2a1.38,1.38,0,0,0-.9-.5H399c-.3,0-.4.1-.4.3s.2.3.5.4A2.83,2.83,0,0,1,402,66.37Z"/><path class="a" d="M430,87.87h.6c.3,0,.5-.1.5-.3s-.2-.3-.5-.4a5.35,5.35,0,0,1-1.6-.6c-.3-.2-.4-.6-.4-1.2a7.92,7.92,0,0,1,.8-2.6l1.1-2.6a3.08,3.08,0,0,1,.8-1.4,4.23,4.23,0,0,1,1.6-.2h6.3a3.14,3.14,0,0,1,1.2.1,7.37,7.37,0,0,1,.6,1.1l.9,2.3a14.13,14.13,0,0,1,1.1,3.7,1,1,0,0,1-.9,1.2l-.5.1c-.3.1-.4.2-.4.4a.46.46,0,0,0,.5.4,1.09,1.09,0,0,0,.5-.1,19.58,19.58,0,0,1,3-.1,25.54,25.54,0,0,1,3.2.1h.7c.3,0,.5-.1.5-.3a.46.46,0,0,0-.5-.4,5.33,5.33,0,0,1-2.2-.8,7.88,7.88,0,0,1-1.4-2.6l-.4-.9-7.5-19.2c-.1-.3-.3-.5-.5-.5s-.4.2-.5.5l-9,19.9-.5,1.2a13,13,0,0,1-1,1.5c-.4.5-.7.8-.9.8l-.6.2c-.2.1-.3.2-.3.4s.2.3.5.3a5.81,5.81,0,0,0,1-.1h2.7Zm2.4-12.1,3.4-7.6q.15-.3.3-.3c.2,0,.3.2.5.6l.1.4,2.7,6.9.1.3a.76.76,0,0,1,.1.4c0,.3-.3.4-.9.4h-5.8c-.5,0-.8-.2-.8-.5A1.63,1.63,0,0,0,432.4,75.78Z"/><path class="a" d="M450.7,85.17a3.1,3.1,0,0,0,.3,1.2.78.78,0,0,0,.4.4,10.16,10.16,0,0,0,2.4.9,11.28,11.28,0,0,0,3,.4,8.87,8.87,0,0,0,6.1-2.1,6.79,6.79,0,0,0,2.4-5.3c0-3.2-2.1-5.5-6.4-6.9a38,38,0,0,1-4.2-1.5,4.84,4.84,0,0,1-1.6-1.3,4.38,4.38,0,0,1-.8-2.5,3.54,3.54,0,0,1,1.3-2.8,4.69,4.69,0,0,1,3.1-1.1,8,8,0,0,1,4.3,1.2,5.72,5.72,0,0,1,2.5,3.1c.2.6.4.8.6.8a.46.46,0,0,0,.4-.5,2.64,2.64,0,0,0-.1-.7l-.3-1.8a8.79,8.79,0,0,1-.2-1.8c0-.6-.1-.9-.4-.9-.1,0-.2,0-.2.1l-.2.2a.76.76,0,0,1-.4.2.37.37,0,0,1-.3-.1l-1.2-.5a7.69,7.69,0,0,0-3.2-.5,8,8,0,0,0-5.4,1.8,5.74,5.74,0,0,0-2.1,4.6,5.28,5.28,0,0,0,1.6,4.1,14.55,14.55,0,0,0,5.5,2.9,17.69,17.69,0,0,1,4.5,1.9,4.27,4.27,0,0,1,1.5,3.3,4.22,4.22,0,0,1-1.7,3.4,6.36,6.36,0,0,1-4.1,1.4,7.31,7.31,0,0,1-4.4-1.5,7,7,0,0,1-2.6-3.6c-.2-.6-.4-.8-.6-.9a.46.46,0,0,0-.4.5,10.17,10.17,0,0,0,.5,2.2C450.5,84.58,450.7,85.08,450.7,85.17Z"/><path class="a" d="M249.4,61.48h7.3s.6.2.6-.6v-.8a.59.59,0,0,0-.6-.6h-7.3s-.6,0-.6.5v1A.63.63,0,0,0,249.4,61.48Z"/><path class="a" d="M287.7,61.48H295s.6.2.6-.6v-.8a.59.59,0,0,0-.6-.6h-7.3s-.6,0-.6.5v1A.63.63,0,0,0,287.7,61.48Z"/><path class="a" d="M498,99.67h7.3s.6.2.6-.6v-.8a.59.59,0,0,0-.6-.6H498s-.6,0-.6.5v1A.63.63,0,0,0,498,99.67Z"/><path class="a" d="M139.8,117.08h-.1a1,1,0,0,1-.7-.6l-.1-.2L138,115a1.4,1.4,0,0,0,.8-1.1c0-.8-.5-1.2-1.6-1.2h-1.5c-.1,0-.2,0-.2.1s0,.1.1.1h.2c.2,0,.3.2.3.5V116c0,.4,0,.6-.1.7s-.2.2-.3.2a.1.1,0,0,0-.1.1c0,.1,0,.1.1.1h1.6c.1,0,.2,0,.2-.1s-.1-.1-.2-.1a.76.76,0,0,1-.5-.2c-.1-.1-.1-.2-.1-.5V115h.4c.1,0,.2,0,.2.1v.1l.8,1.2a1.26,1.26,0,0,0,1,.7c.6.2.8.2.7,0Zm-2.5-2.2h-.6v-1.6c0-.2.1-.2.3-.2a1.14,1.14,0,0,1,.8.3.91.91,0,0,1,.3.7C138.2,114.58,137.9,114.87,137.3,114.87Z"/><path class="a" d="M137.5,111.08a3.89,3.89,0,0,0-3,1.4,3.92,3.92,0,0,0,0,5,3.89,3.89,0,0,0,3,1.4,4.11,4.11,0,0,0,2.8-1.1,3.69,3.69,0,0,0,1.1-2.8,3.76,3.76,0,0,0-3.9-3.9Zm2.4,6.4a3.63,3.63,0,1,1,1-2.5A3,3,0,0,1,139.9,117.48Z"/><path class="a" d="M395.1,103.58H395a1,1,0,0,1-.7-.6l-.1-.2-.9-1.3a1.4,1.4,0,0,0,.8-1.1c0-.8-.5-1.2-1.6-1.2H391c-.1,0-.2,0-.2.1s0,.1.1.1h.2c.2,0,.3.2.3.5v2.6c0,.4,0,.6-.1.7s-.2.2-.3.2a.1.1,0,0,0-.1.1c0,.1,0,.1.1.1h1.6c.1,0,.2,0,.2-.1s-.1-.1-.2-.1a.76.76,0,0,1-.5-.2c-.1-.1-.1-.2-.1-.5v-1.2h.4c.1,0,.2,0,.2.1v.1l.8,1.2a1.26,1.26,0,0,0,1,.7c.6.3.8.2.7,0C395.2,103.67,395.2,103.58,395.1,103.58Zm-2.5-2.2H392v-1.6c0-.2.1-.2.3-.2a1.14,1.14,0,0,1,.8.3.91.91,0,0,1,.3.7C393.5,101.17,393.2,101.37,392.6,101.37Z"/><path class="a" d="M392.8,97.67a3.89,3.89,0,0,0-3,1.4,3.92,3.92,0,0,0,0,5,3.89,3.89,0,0,0,3,1.4,4.11,4.11,0,0,0,2.8-1.1,3.69,3.69,0,0,0,1.1-2.8,3.76,3.76,0,0,0-3.9-3.9Zm2.4,6.4a3.63,3.63,0,1,1,1-2.5A3,3,0,0,1,395.2,104.08Z"/></svg>