<svg xmlns="http://www.w3.org/2000/svg" viewBox="0 0 1466.1 413.93"><path fill="#bcb09b" d="M208.72 256.16l19.74-53.8 45.67 89.77 39.28 56.96-150.16-41.43 45.47-51.5z"/><path fill="#f9f9f9" d="M310.35 178.74l-22.05-31.1L268.61 0l100 116.53-58.26 62.21z"/><path fill="#605a4e" d="M419.8 191.34l-67.11 124.01-42.34-136.61 58.26-62.21 51.19 74.81z"/><path fill="#eaeaea" d="M228.46 202.36L189.87 88.19l23.91-30.67 74.52 90.12-59.84 54.72z"/><path fill="#605a4e" d="M144.21 155.12l45.66-66.93 38.59 114.17-84.25-47.24z"/><path fill="#605a4e" opacity=".6" d="M96.96 189.76l47.25-34.64 84.25 47.24-19.74 53.8-111.76-66.4z"/><path fill="#605a4e" opacity=".3" d="M72.92 229.44l24.04-39.68 111.76 66.4-45.47 51.5-90.33-78.22z"/><path fill="#898071" opacity=".1" d="M0 300.09l72.92-70.65 90.33 78.22L132 337.09l-132-37z"/><path fill="#705e45" opacity=".15" d="M132 337.09l31.25-29.43 150.16 41.43-62.37 64.84L132 337.09z"/><path fill="#8c846f" opacity=".55" d="M359.3 403.38l-45.89-54.29 39.28-33.74 82.24 33.74-75.63 54.29z"/><path fill="#7a7262" d="M228.46 202.36l59.84-54.72 22.05 31.1-36.22 113.39-45.67-89.77z"/><path fill="#8c846f" d="M274.13 292.13l36.22-113.39 42.34 136.61-39.28 33.74-39.28-56.96z"/><path fill="#8c846f" d="M352.69 315.35l67.11-124.01 39.16 42.75-24.03 115-82.24-33.74z"/><path fill="#c1b59a" opacity=".5" d="M434.93 349.09l24.03-115 51.94 101.55-35.95 26.64-40.02-13.19z"/><path fill="#f4f4f4" d="M288.3 147.64l-74.52-90.12L268.61 0l19.69 147.64z"/><path d="M637.44 92.63l55.77 114.46H669.7v-.44l-52.41-24.53-12 25h-23.04zm-12.56 73.88l33.29 16.06-20.73-43.8zM779.5 188v19.13h-65.85V97.59h20.15V188h45.7zm104.38-48.21a43.42 43.42 0 01-3.07 16.28 40.69 40.69 0 01-8.69 13.43 41.48 41.48 0 01-13.36 9.13 42.44 42.44 0 01-17.07 3.37h-14v25.11h-20.16V97.59h34.16a44.15 44.15 0 0117.59 3.41A39.21 39.21 0 01881 123.51a45.37 45.37 0 012.88 16.28zm-42.19 23.51a24.88 24.88 0 0010.51-2 18.09 18.09 0 006.79-5.26 20.43 20.43 0 003.65-7.52 34.82 34.82 0 001.09-8.76 26.2 26.2 0 00-1.39-8.47 22.63 22.63 0 00-4.16-7.37 20.32 20.32 0 00-6.93-5.26 22.1 22.1 0 00-9.56-2h-14v46.57h14zm104.1-23.66a123.49 123.49 0 0114.6 6.21 44.7 44.7 0 0110.8 7.52 29.33 29.33 0 016.72 9.78 33.34 33.34 0 012.34 13 32.59 32.59 0 01-2.77 13.58 30.78 30.78 0 01-7.74 10.51 35.93 35.93 0 01-12 6.86 46.75 46.75 0 01-15.55 2.48 39.38 39.38 0 01-15.19-2.85 38.15 38.15 0 01-12-7.73 35.07 35.07 0 01-8-11.39 34.34 34.34 0 01-2.85-13.94h20.73a16.58 16.58 0 001.39 6.79 17.23 17.23 0 003.8 5.48 17.71 17.71 0 005.55 3.65 16.66 16.66 0 006.5 1.31q9.2 0 13.21-4t4-11.31a14 14 0 00-1.17-6 11.94 11.94 0 00-3.65-4.38 31.15 31.15 0 00-6.28-3.58q-3.8-1.68-9.2-3.72a107.42 107.42 0 01-11.9-5.4 42.13 42.13 0 01-9.49-6.79 30.9 30.9 0 01-6.42-8.83 27.19 27.19 0 01-2.55-11.39 32.17 32.17 0 012.33-12.28 27.12 27.12 0 016.5-9.56 29.68 29.68 0 0110.5-6.28 41.59 41.59 0 0114.16-2.26 40.74 40.74 0 0114.38 2.34 29.86 29.86 0 0110.37 6.35 27.09 27.09 0 016.35 9.42 32.9 32.9 0 012.34 11.68h-20.32a13.64 13.64 0 00-3.87-8q-3.14-3.07-9.71-3.07-5.69 0-9.12 2.92t-3 8.18a14.66 14.66 0 00.8 5.18 9 9 0 002.7 3.72 21.12 21.12 0 005 3 68.74 68.74 0 007.71 2.8z" fill="#47443c"/><path d="M602.21 256h10l7.12 40.1 4.67.9-.17 3.05h-19.89l.14-3.05 4.52-.83-1.15-8.1h-14.68l-3.6 8.07 5.42.86-.23 3.05h-16.08l.23-3.05 4-.83zm4.64 27.74l-2.25-15.85-.26-5.73-9.65 21.58h12.16zm17.49 4.77c0-11.21 6.17-21.92 19.5-21.92a21.41 21.41 0 012.94.26l1.38-9.45-4.49-1.24.55-2.39 12.45-1.21 1.61.78-5.82 40.16c-.2 1.38.09 2.25 1 2.25.55 0 1.24-.26 2.65-1.33l.81 2.1a10.45 10.45 0 01-8 4.15c-3.43 0-4.84-1.67-5.07-4.81a11.61 11.61 0 01-9.56 4.81c-7.29 0-9.95-5.53-9.95-12.16zm18.66 4.18l3.17-21.61a9 9 0 00-3-.46c-7 0-9 9.88-9 17.57 0 4.72 1.53 7.46 4.15 7.46 1.95.01 3.56-1.4 4.68-2.96zm22.82-2.82l-3.54-16.42c-.23-1.18-.61-1.58-1.24-1.61a3.79 3.79 0 00-2.16 1l-.83-2.3c.55-.69 3.6-3.89 7.72-3.89 3.46 0 5.36 1.41 5.76 3.95l3.05 16.4.84 6.22 2.13-3.69c2.16-4.09 3.92-7.75 3.92-12.53 0-2-1-4.35-1-6.42 0-2.25 1.55-4 4.55-4 4.26 0 4.93 3.11 5 6.22.09 5.33-5 14-9 19.1l-7.37 8.44-5.53.35zm44.6-23.28c6.57 0 9.31 3.14 9.48 7.2.29 9.51-10.57 13-17.83 13.2 0 6 2 8.53 5.39 8.53A10.28 10.28 0 00716 291l1.84 3c-1.58 2.54-6.14 6.68-13.54 6.68-9.25 0-12.59-6.4-12.62-13-.01-12.27 8.17-21.09 18.74-21.09zm.23 8c-.12-2.62-.83-4-2.36-4-4.44 0-5.91 7.61-6.22 13 3.37-.26 8.75-3.35 8.58-9.02zm15.53-2.21l-3.08-1.73.46-2.56 10.77-1.5 1.5.69-.46 6c2.54-4 6.25-6.74 10.8-6.74s7.63 2.25 7.63 8.7c0 1.73-.86 7-1.41 10.26a67.45 67.45 0 00-1.21 8.61c0 1.38.55 1.58 1.12 1.58s1.21-.29 2.59-1.33l.81 2.1a10.88 10.88 0 01-8.64 4.18c-5.19 0-5.85-2.71-5.85-4.93a68.51 68.51 0 011.33-8.44 65 65 0 001.3-11c-.06-3.17-.75-4-2.28-4-2.28 0-5.19 3.23-7 7l-2.85 20.77h-9.33zm35.23 16.25l2.33-17.17h-3.43l.69-3.14 3.52-1.35c1.73-1.44 3.43-4.78 4.64-7.66h5.44l-1 7.52h6l-.6 4.63h-5.93l-2.39 17.4a33.13 33.13 0 00-.43 4c0 1.55.66 2.33 2.1 2.33a7.7 7.7 0 004.87-1.64l.72 2.3c-1.67 1.9-5.44 4.81-11.73 4.81-2.82 0-5.56-1.21-5.56-5.16a60.54 60.54 0 01.76-6.87zm23.39-16.77l-4.72-1.47.52-2.33 12.85-1.47 1.58.69-3.69 26.27c-.2 1.41.14 2.19 1 2.19.66 0 1.33-.35 2.65-1.33l.81 2.1a10.89 10.89 0 01-8.53 4.15c-4.09 0-6.11-1.79-5.73-4.29.7-4.57 1.79-13.45 3.26-24.51zm1.58-15.12a5.48 5.48 0 015.7-5.65 4.68 4.68 0 014.9 4.64c-.09 3.2-1.84 5.82-5.93 5.82a4.89 4.89 0 01-4.66-4.81zm12.8 36.15a12.14 12.14 0 007.69 3.34c2.07 0 4.55-.89 4.55-3.54 0-2.33-1.93-4.06-5.21-6.34-2.68-1.84-5.65-4.64-5.65-10 0-6.37 5.91-9.74 13.51-9.74a25.09 25.09 0 017.49 1.07l-1.24 6a8 8 0 00-5.88-2.88c-2.45 0-4.61 1.07-4.61 3.37s1.64 3.86 5.19 6.4c3.08 2.22 5.82 5.24 5.82 10.11 0 7.2-6.86 10.05-13.8 10.05-3.72 0-8.15-1.12-9.25-2zm27.51-4.26l2.31-17.17h-3.4l.69-3.14 3.51-1.32c1.73-1.44 3.43-4.78 4.64-7.66h5.45l-1 7.52h6l-.66 4.64h-5.94l-2.39 17.4a32.88 32.88 0 00-.43 4c0 1.55.66 2.33 2.1 2.33a7.69 7.69 0 004.87-1.64l.72 2.3c-1.67 1.9-5.45 4.81-11.72 4.81-2.82 0-5.56-1.21-5.56-5.16a60.62 60.62 0 01.81-6.91zM857.4 297l4-.86 4.75-36.24-4.21-.75.36-3.15h19.56l-.35 3.17-5.24.75-4.78 36.44 10.05-.58 5.5-13 5.21.66-2.42 16.62h-32.77zm43.27-25.14l-4.72-1.47.52-2.33 12.85-1.47 1.58.69-3.69 26.27c-.2 1.41.14 2.19 1 2.19.66 0 1.32-.35 2.65-1.33l.81 2.1a10.89 10.89 0 01-8.53 4.15c-4.09 0-6.11-1.79-5.73-4.29.7-4.57 1.79-13.45 3.26-24.51zm1.58-15.12a5.48 5.48 0 015.7-5.65 4.68 4.68 0 014.9 4.64c-.09 3.2-1.84 5.82-5.93 5.82a4.89 4.89 0 01-4.66-4.81zm18.39 33.13l-3.54-16.42c-.23-1.18-.6-1.58-1.24-1.61a3.79 3.79 0 00-2.16 1l-.84-2.3c.55-.69 3.6-3.89 7.72-3.89 3.46 0 5.36 1.41 5.76 3.95l3.05 16.4.83 6.22 2.13-3.69c2.16-4.09 3.92-7.75 3.92-12.53 0-2-1-4.35-1-6.42 0-2.25 1.56-4 4.55-4 4.26 0 4.93 3.11 5 6.22.09 5.33-5 14-9 19.1l-7.37 8.44-5.53.35zm30.5-18.01l-4.72-1.47.52-2.33 12.85-1.47 1.58.69-3.69 26.27c-.2 1.41.14 2.19 1 2.19.66 0 1.32-.35 2.65-1.33l.81 2.1a10.89 10.89 0 01-8.53 4.15c-4.09 0-6.11-1.79-5.73-4.29.7-4.57 1.8-13.45 3.26-24.51zm1.58-15.12a5.48 5.48 0 015.7-5.65 4.68 4.68 0 014.9 4.64c-.09 3.2-1.84 5.82-5.93 5.82a4.89 4.89 0 01-4.66-4.81zm17.35 15.64l-3.07-1.73.46-2.56 10.77-1.5 1.5.69-.46 6c2.54-4 6.25-6.74 10.8-6.74s7.63 2.25 7.63 8.7c0 1.73-.86 7-1.41 10.26a67.45 67.45 0 00-1.21 8.61c0 1.38.55 1.58 1.12 1.58s1.21-.29 2.59-1.33l.81 2.1a10.88 10.88 0 01-8.6 4.24c-5.19 0-5.85-2.71-5.85-4.93a68.51 68.51 0 011.33-8.44 65 65 0 001.3-11c-.06-3.17-.75-4-2.28-4-2.28 0-5.19 3.23-7 7l-2.85 20.77h-9.35zm43.68 37.77c3.92 0 6-.63 6.6-5.88l.72-6.28a12 12 0 01-7.69 2.68c-7.2 0-10.17-5.53-10.17-12.16 0-11.21 6.71-21.92 19.76-21.92a24.48 24.48 0 017.14 1.32l4.67-1.32-4.78 35.72c-1.27 10.14-10.11 12.7-17.83 12.7a24.64 24.64 0 01-7.72-1.3l1.47-6.19a15.68 15.68 0 007.83 2.63zm7.87-16.59l3.31-22.62a9.69 9.69 0 00-2.65-.32c-7 0-9.1 9.88-9.1 17.57 0 4.72 1.64 7.46 4.26 7.46a6 6 0 004.17-2.09zm28.6 3.44l4-.86 4.84-36.24-4.26-.75.4-3.17h9.1c3.49 0 5.59-.46 8.56-.46 12.24 0 16.42 4.15 16.65 11.73.35 11.32-7.43 18-20.25 18a29.72 29.72 0 01-3.37-.12l-1.33 11 8 .86-.23 3.05h-22.43zm19.27-15.56c6.14-.09 9.88-5.82 9.91-14 0-5.93-3-8.3-7.58-8.3a12 12 0 00-2.56.26l-2.94 21.81a11.35 11.35 0 003.17.27zm40.33-14.85a23.43 23.43 0 016.86 1.24l4.38-1.24-3.72 27c-.17 1.55.26 2.19 1.12 2.19.55 0 1.3-.26 2.68-1.33l.81 2.1a10.26 10.26 0 01-8.07 4.15c-2.85 0-4.81-1.27-4.9-3.63a12.14 12.14 0 01-8.76 3.63c-7.2 0-10.17-5.53-10.17-12.16.01-11.23 6.72-21.95 19.77-21.95zm-1.9 27.48l3.17-23.28a10.78 10.78 0 00-2-.17c-7 0-9.1 9.88-9.1 17.57 0 4.72 1.64 7.46 4.26 7.46a5.56 5.56 0 003.67-1.58zm19.25-5.44l2.33-17.17h-3.43l.69-3.14 3.52-1.35c1.73-1.44 3.43-4.78 4.64-7.66h5.44l-1 7.52h6l-.66 4.64h-5.93l-2.39 17.4a33.13 33.13 0 00-.43 4c0 1.55.66 2.33 2.1 2.33a7.7 7.7 0 004.87-1.64l.72 2.3c-1.67 1.9-5.44 4.81-11.73 4.81-2.82 0-5.56-1.21-5.56-5.16a60.54 60.54 0 01.82-6.88zm20.83 0l2.33-17.17h-3.43l.69-3.14 3.52-1.35c1.73-1.44 3.43-4.78 4.64-7.66h5.44l-1 7.52h6l-.66 4.64h-5.93l-2.39 17.4a33.13 33.13 0 00-.43 4c0 1.55.66 2.33 2.1 2.33a7.7 7.7 0 004.87-1.64l.72 2.3c-1.67 1.9-5.44 4.81-11.73 4.81-2.82 0-5.56-1.21-5.56-5.16a60.54 60.54 0 01.82-6.88zm37.5-22.04c6.57 0 9.31 3.14 9.48 7.2.29 9.51-10.57 13-17.83 13.2 0 6 2 8.53 5.39 8.53a10.28 10.28 0 008.59-4.49l1.84 3c-1.58 2.54-6.14 6.68-13.54 6.68-9.25 0-12.59-6.4-12.62-13-.06-12.3 8.12-21.12 18.69-21.12zm.23 8c-.12-2.62-.83-4-2.36-4-4.44 0-5.91 7.61-6.22 13 3.37-.26 8.76-3.35 8.58-9.02zm15.62-2.21l-3.08-1.73.49-2.56 9.45-1.5 1.53.69.58 7.86c1.3-4.55 3.86-8.56 8.5-8.56a3.62 3.62 0 012 .58l-2 10.28a5.37 5.37 0 00-3.08-.89 10.48 10.48 0 00-5.88 1.64l-3 21.89h-9.3zm24.2 0l-3.08-1.73.46-2.56 10.77-1.5 1.5.69-.46 6c2.54-4 6.25-6.74 10.8-6.74s7.63 2.25 7.63 8.7c0 1.73-.86 7-1.41 10.26a67.45 67.45 0 00-1.21 8.61c0 1.38.55 1.58 1.12 1.58s1.21-.29 2.59-1.33l.81 2.1a10.88 10.88 0 01-8.64 4.18c-5.19 0-5.85-2.71-5.85-4.93a68.51 68.51 0 011.33-8.44 65 65 0 001.3-11c-.06-3.17-.75-4-2.28-4-2.28 0-5.19 3.23-7 7l-2.85 20.77h-9.33zm47.53 16.39h5.92l.32 6.37a9.47 9.47 0 005.88 1.9c5.76 0 7.32-2.59 7.32-5.85 0-3.69-2.1-5.91-7.46-9.33-5.1-3.25-9.36-7.52-9.36-13.51 0-8.35 6.91-12.88 16.39-12.88 6.25 0 9.65 1.07 11.5 2.13l-1.56 8.7h-5.5l-.87-5.7a7.77 7.77 0 00-4.87-1.5c-4.18 0-6 2.1-6 5.13 0 4.18 2.54 6.71 8.15 10.26 4.84 3.05 9 7.09 9 12.88 0 6.94-5.39 13.4-16.91 13.4-6.45 0-12.42-1.76-13.71-2.82zm37.16 21.38c3.57 0 5.88-2.13 9.07-8h-5.5l-6-28.69c-.26-1.18-.6-1.61-1.24-1.61a3.47 3.47 0 00-2.16 1l-.84-2.33c.58-.81 3.77-3.89 7.78-3.89 3.66 0 5.21 1.5 5.7 3.95 1.47 7.55 2.71 15.12 3.89 22.67l.52 4.58 1.76-3.57a34 34 0 003.86-15.36c0-4.09-1-4.67-1-8.3 0-2.22 1.56-4 4.58-4 3.92 0 5 2.71 5 6.22 0 5.33-3.43 13.22-6.28 18.72-5.7 11-7 13.71-9.1 16.8-2.42 3.49-5.7 6.68-11.52 6.68a23.52 23.52 0 01-7.72-1.3l1.47-6.19a15.68 15.68 0 007.73 2.62zm26.71-17.26a12.14 12.14 0 007.69 3.34c2.07 0 4.55-.89 4.55-3.54 0-2.33-1.93-4.06-5.21-6.34-2.68-1.84-5.65-4.64-5.65-10 0-6.37 5.91-9.74 13.51-9.74a25.09 25.09 0 017.49 1.07l-1.24 6a8 8 0 00-5.88-2.88c-2.45 0-4.61 1.07-4.61 3.37s1.64 3.86 5.19 6.4c3.08 2.22 5.82 5.24 5.82 10.11 0 7.2-6.86 10.05-13.8 10.05-3.72 0-8.15-1.12-9.25-2zm27.51-4.26l2.33-17.17h-3.43l.69-3.14 3.52-1.35c1.73-1.44 3.43-4.78 4.64-7.66h5.44l-1 7.52h6l-.66 4.64h-5.93l-2.39 17.4a33.13 33.13 0 00-.43 4c0 1.55.66 2.33 2.1 2.33a7.7 7.7 0 004.87-1.64l.72 2.3c-1.67 1.9-5.44 4.81-11.73 4.81-2.82 0-5.56-1.21-5.56-5.16a60.54 60.54 0 01.82-6.88zm37.48-22.04c6.57 0 9.31 3.14 9.48 7.2.29 9.51-10.57 13-17.83 13.2 0 6 2 8.53 5.39 8.53a10.28 10.28 0 008.59-4.49l1.84 3c-1.58 2.54-6.14 6.68-13.54 6.68-9.25 0-12.59-6.4-12.62-13-.06-12.3 8.12-21.12 18.69-21.12zm.23 8c-.12-2.62-.83-4-2.36-4-4.44 0-5.91 7.61-6.22 13 3.41-.26 8.76-3.35 8.58-9.02zm15.53-2.21l-3.11-1.73.49-2.56 10.72-1.5 1.53.69-.46 6.11c2.36-3.83 6-6.8 10.43-6.8 4.21 0 7.26 1.84 7.84 7.12 2.51-4.52 6.45-7.12 11.44-7.12 4.44 0 7.63 2.25 7.63 8.7 0 1.73-.86 7-1.41 10.26a67.46 67.46 0 00-1.21 8.61c0 1.38.55 1.58 1.12 1.58s1.21-.29 2.59-1.33l.81 2.1a10.88 10.88 0 01-8.64 4.18c-5.19 0-5.85-2.71-5.85-4.93a68.47 68.47 0 011.33-8.44 65.12 65.12 0 001.3-11c-.06-3.17-.75-4-2.28-4-2.22 0-5 2.39-6.83 6-.12 2.39-.37 5.07-.69 7.29l-1.7 14.55h-9.65l1.64-12.76a78.5 78.5 0 00.86-10.86c-.09-3.6-.86-4.18-2.68-4.18-2 0-5 2.91-6.77 6.42l-2.94 21.38h-9.3z" fill="#959594"/></svg>