<svg xmlns="http://www.w3.org/2000/svg" viewBox="0 0 952 176"><g fill-rule="evenodd"><path d="M225.362 147.943l-10.575-17.346-10.743 17.346h-5.317l13.262-20.814-12.422-19.137h5.596l9.792 15.667 9.847-15.667h5.316l-12.366 19.024 13.317 20.927zm14.488-16.003v.951c0 7.386 2.016 11.527 8.563 11.527 5.426 0 8-4.869 8-11.582 0-6.827-2.574-11.303-8.113-11.303-6.098 0-8.337 3.413-8.45 10.407m21.655.951c0 10.24-4.924 15.611-12.366 15.611-4.643 0-7.554-2.014-9.288-4.364h-.336c.112 1.287.336 3.526.336 4.924v12.31h-4.924v-43.42h4.028l.672 4.085h.224c1.79-2.575 4.477-4.645 9.345-4.645 7.385 0 12.309 5.148 12.309 15.5m11.355 3.357c0 1.398-.224 5.315-.336 6.826l16.06-25.123h6.043v29.991h-4.589v-17.681c0-1.735.112-5.931.223-7.386l-15.946 25.067h-6.098v-29.991h4.644v18.297zm28.534-3.134c0-11.078 5.987-15.723 14.045-15.723 3.02 0 6.154.728 7.945 1.623l-1.567 4.084c-1.79-.67-4.42-1.398-6.49-1.398-5.988 0-8.841 3.86-8.841 11.358 0 7.218 2.91 11.191 8.56 11.191 2.519 0 4.7-.56 6.66-1.454l1.51 3.916c-1.678 1.063-4.7 1.791-8.113 1.791-8.002 0-13.71-4.756-13.71-15.388m38.327-11.022v25.85h-4.868v-25.85h-9.68l1.567-4.141h22.773v4.14zm19.246 14.156c0 1.398-.225 5.315-.336 6.826l16.059-25.123h6.043v29.991h-4.588v-17.681c0-1.735.11-5.931.223-7.386l-15.947 25.067h-6.1v-29.991h4.646v18.297zm43.024-2.798c-7.497.28-9.903 2.406-9.903 6.211 0 3.357 2.238 4.868 5.483 4.868 5.036 0 8.841-2.742 8.841-8.56v-2.687l-4.42.168zm9.29-5.93v20.422h-3.582l-.95-4.253h-.225c-2.63 3.302-5.036 4.813-10.072 4.813-5.428 0-9.456-2.798-9.456-8.897 0-5.987 4.588-9.289 14.38-9.568l5.092-.168v-1.79c0-4.98-2.294-6.659-6.21-6.659-3.134 0-5.988 1.12-8.45 2.294l-1.51-3.693c2.63-1.399 6.322-2.574 10.24-2.574 7.272 0 10.742 3.078 10.742 10.072zm13.09 2.909h16.282v-12.478h4.924v29.992h-4.924V134.57H424.37v13.373h-4.924v-29.992h4.924zm40.451-8.618c-.504 7.61-3.134 16.62-7.05 21.99h13.708v-21.99h-6.658zm11.414 21.99h4.364v14.548h-4.756v-10.407h-20.87v10.407h-4.7v-14.548h2.405c5.148-7.106 7.666-16.618 7.778-25.85h15.78v25.85zm21.931-10.351c-7.497.28-9.903 2.406-9.903 6.211 0 3.357 2.238 4.868 5.483 4.868 5.036 0 8.841-2.742 8.841-8.56v-2.687l-4.42.168zm9.29-5.93v20.422h-3.582l-.95-4.253h-.225c-2.63 3.302-5.036 4.813-10.072 4.813-5.428 0-9.456-2.798-9.456-8.897 0-5.987 4.588-9.289 14.38-9.568l5.092-.168v-1.79c0-4.98-2.294-6.659-6.21-6.659-3.134 0-5.988 1.12-8.45 2.294l-1.51-3.693c2.63-1.399 6.322-2.574 10.24-2.574 7.272 0 10.742 3.078 10.742 10.072zm13.089 4.419v.951c0 7.386 2.015 11.527 8.562 11.527 5.426 0 8-4.869 8-11.582 0-6.827-2.574-11.303-8.113-11.303-6.098 0-8.337 3.413-8.449 10.407m21.654.951c0 10.24-4.924 15.611-12.366 15.611-4.643 0-7.554-2.014-9.288-4.364h-.336c.112 1.287.336 3.526.336 4.924v12.31h-4.924v-43.42h4.028l.672 4.085h.224c1.791-2.575 4.477-4.645 9.345-4.645 7.385 0 12.309 5.148 12.309 15.5m35.808 15.051h4.924v-29.991h-4.924v29.991zm-17.066-3.972c4.252 0 7.218-1.287 7.218-4.924 0-3.637-2.574-4.7-7.162-4.7h-7.162v9.624h7.106zm-12.03-26.019h4.924v12.31h7.777c7.778 0 11.414 2.853 11.414 8.505 0 5.595-3.413 9.176-11.637 9.176h-12.478v-29.991zm47.333 12.478h16.283v-12.478h4.924v29.992h-4.924V134.57h-16.283v13.373h-4.924v-29.992h4.924zm58.693 17.513h4.925v-29.991h-4.925v29.991zm-17.066-3.972c4.252 0 7.218-1.287 7.218-4.924 0-3.637-2.574-4.7-7.162-4.7h-7.162v9.624h7.106zm-12.03-26.019h4.924v12.31h7.777c7.778 0 11.415 2.853 11.415 8.505 0 5.595-3.413 9.176-11.639 9.176h-12.477v-29.991zm47.334 12.478h16.282v-12.478h4.924v29.992h-4.924V134.57h-16.282v13.373h-4.924v-29.992h4.924zm66.859 17.513v-16.395c-4.308 1.511-7.777 2.518-12.365 2.518-7.498 0-11.75-3.58-11.75-10.127v-15.947h5.035v15.22c0 4.308 2.127 6.434 7.22 6.434 4.42 0 7.44-.84 11.86-2.294v-19.36h5.036v39.951h-5.036zm18.743-11.694c0 1.398-.226 5.315-.337 6.826l16.06-25.123h6.043v29.991h-4.588v-17.681c0-1.735.11-5.931.222-7.386l-15.947 25.067h-6.099v-29.991h4.646v18.297zm35.135-4.309v.951c0 7.386 2.014 11.527 8.561 11.527 5.427 0 8.001-4.869 8.001-11.582 0-6.827-2.574-11.303-8.114-11.303-6.098 0-8.337 3.413-8.448 10.407m21.654.951c0 10.24-4.925 15.611-12.366 15.611-4.644 0-7.554-2.014-9.288-4.364h-.336c.111 1.287.336 3.526.336 4.924v12.31h-4.924v-43.42h4.028l.671 4.085h.225c1.79-2.575 4.476-4.645 9.344-4.645 7.385 0 12.31 5.148 12.31 15.5m29.821-14.94l-12.813 14.436 13.875 15.555h-5.707l-13.541-15.22v15.22h-4.923v-29.99h4.923V132.5l12.814-14.548zm16.448 26.466c6.043 0 8.785-4.42 8.785-11.526 0-7.107-2.742-11.36-8.84-11.36-6.099 0-8.729 4.253-8.729 11.36 0 7.106 2.685 11.526 8.784 11.526m-.11 4.085c-7.948 0-13.766-5.651-13.766-15.611 0-9.904 5.315-15.5 13.933-15.5 8.113 0 13.82 5.596 13.82 15.5 0 9.96-5.428 15.61-13.988 15.61m18.966-15.387c0-11.078 5.986-15.723 14.044-15.723 3.02 0 6.155.728 7.945 1.623l-1.566 4.084c-1.791-.67-4.42-1.398-6.49-1.398-5.988 0-8.841 3.86-8.841 11.358 0 7.218 2.909 11.191 8.56 11.191 2.518 0 4.7-.56 6.659-1.454l1.51 3.916c-1.678 1.063-4.7 1.791-8.113 1.791-8.001 0-13.708-4.756-13.708-15.388m27.973-15.163l6.491 17.065c1.12 3.022 2.071 5.708 2.518 8.17h.223c.45-1.846 1.511-5.148 2.575-8.225l6.098-17.01h5.317l-12.926 34.132c-2.126 5.651-4.028 7.722-8 9.288l-1.512-3.973c2.294-1.062 3.245-2.126 4.476-5.37l1.567-3.973-12.086-30.104h5.26zM199.12 47.992h5.594l15.275 19.36v-19.36h4.813v19.36l15.275-19.36h5.596l-15.5 19.36 16.003 20.591h-5.763l-15.61-20.255v20.255h-4.814V67.688l-15.667 20.255h-5.763l16.06-20.535zm54.326 21.99h15.275c-.055-5.092-2.294-8.562-7.273-8.562-4.7 0-7.498 3.19-8.002 8.562m20.424.951v2.965h-20.535c.168 6.771 3.581 10.408 9.567 10.408 2.91 0 5.876-.559 8.226-1.455l1.398 3.693c-3.077 1.343-5.763 1.96-9.848 1.96-8.56 0-14.435-5.317-14.435-15.333 0-9.848 5.315-15.779 13.261-15.779 7.666 0 12.366 5.371 12.366 13.541m17.399-8.84v25.85h-4.867v-25.85h-9.681l1.568-4.141h22.772v4.14zm19.246 14.156c0 1.398-.224 5.315-.336 6.826l16.06-25.123h6.043v29.991h-4.59V70.262c0-1.735.113-5.931.224-7.386L311.97 87.943h-6.1V57.952h4.645v18.297zm35.135-5.819h16.284V57.952h4.923v29.992h-4.924V74.57H345.65v13.373h-4.924V57.952h4.924zm33.906-1.567c0 3.524 2.015 5.147 5.763 5.147 3.749 0 6.602-1.23 9.792-3.189V57.952h4.924v29.991h-4.924V74.57c-3.357 2.183-6.267 3.47-10.8 3.47-6.154 0-9.68-3.47-9.68-8.84V57.951h4.925v10.911zm33.514 7.386c0 1.398-.225 5.315-.337 6.826l16.06-25.123h6.043v29.991h-4.588V70.262c0-1.735.11-5.931.223-7.386l-15.947 25.067h-6.1V57.952h4.645v18.297zm67.418 11.694l-18.073-20.255v20.255h-5.035v-39.95h5.035v19.36l17.626-19.36h5.707l-17.346 19.415 18.13 20.535z"/><path d="M490.725 57.952l6.49 17.065c1.12 3.022 2.072 5.708 2.519 8.17h.223c.449-1.846 1.51-5.148 2.575-8.225l6.098-17.01h5.317L501.02 92.084c-2.126 5.651-4.028 7.722-8.001 9.288l-1.511-3.973c2.294-1.062 3.245-2.126 4.476-5.37l1.567-3.973-12.086-30.104h5.259zm31.78 12.478h16.282V57.952h4.924v29.992h-4.924V74.57h-16.282v13.373h-4.924V57.952h4.924zm40.451-8.618c-.504 7.61-3.134 16.62-7.05 21.99h13.708v-21.99h-6.658zm11.415 21.99h4.364V98.35h-4.756V87.943h-20.87V98.35h-4.7V83.802h2.405c5.148-7.106 7.665-16.618 7.778-25.85h15.78v25.85zm9.677-25.85l6.49 17.065c1.119 3.022 2.071 5.708 2.519 8.17h.223c.448-1.846 1.511-5.148 2.575-8.225l6.098-17.01h5.316l-12.925 34.132c-2.127 5.651-4.029 7.722-8.002 9.288l-1.511-3.973c2.294-1.062 3.245-2.126 4.477-5.37l1.566-3.973-12.086-30.104h5.26zm49.965 0L621.2 72.388l13.875 15.555h-5.707l-13.541-15.22v15.22h-4.923v-29.99h4.923V72.5l12.814-14.548zm33.735 1.064c-.336-.896-1.51-4.59-1.902-5.987-.56 2.294-1.287 4.7-1.735 5.987l-4.532 12.086h12.646l-4.477-12.086zm5.987 16.562H657.9l-4.756 12.366h-5.09l15.61-40.12h4.532l15.555 40.12h-5.203l-4.813-12.366z"/><path d="M698.296 61.812c-.504 7.61-3.134 16.62-7.05 21.99h13.708v-21.99h-6.658zm11.415 21.99h4.364V98.35h-4.756V87.943h-20.871V98.35h-4.7V83.802h2.406c5.148-7.106 7.665-16.618 7.778-25.85h15.779v25.85zm21.371-9.455h-7.33v9.624h7.442c4.924 0 7.61-1.287 7.61-4.812 0-3.414-2.686-4.812-7.722-4.812m.336-12.31h-7.666v8.225h6.77c4.87 0 7.443-1.287 7.443-4.141 0-2.797-1.959-4.084-6.547-4.084m5.54 9.959v.225c3.692.503 6.937 2.462 6.937 6.938 0 5.09-3.525 8.785-12.14 8.785h-12.927V57.952h12.87c6.378 0 11.246 1.847 11.246 7.554 0 3.749-2.462 5.764-5.987 6.49m16.505-2.014h15.275c-.056-5.092-2.294-8.562-7.274-8.562-4.7 0-7.498 3.19-8.001 8.562m20.423.951v2.965H753.35c.168 6.771 3.581 10.408 9.568 10.408 2.909 0 5.875-.559 8.226-1.455l1.398 3.693c-3.077 1.343-5.764 1.96-9.848 1.96-8.561 0-14.436-5.317-14.436-15.333 0-9.848 5.315-15.779 13.261-15.779 7.666 0 12.366 5.371 12.366 13.541m11.412-.503h16.283V57.952h4.924v29.992h-4.924V74.57h-16.283v13.373h-4.924V57.952h4.924zm40.508-8.337v25.85h-4.868v-25.85h-9.68l1.567-4.141h22.773v4.14zm19.245 14.156c0 1.398-.224 5.315-.335 6.826l16.059-25.123h6.043v29.991h-4.588V70.262c0-1.735.11-5.931.223-7.386l-15.947 25.067h-6.1V57.952h4.646v18.297zm28.534-3.134c0-11.078 5.986-15.723 14.044-15.723 3.021 0 6.155.728 7.945 1.623l-1.566 4.084c-1.79-.67-4.42-1.398-6.49-1.398-5.988 0-8.84 3.86-8.84 11.358 0 7.218 2.908 11.191 8.56 11.191 2.517 0 4.7-.56 6.658-1.454l1.51 3.916c-1.678 1.063-4.7 1.791-8.113 1.791-8 0-13.708-4.756-13.708-15.388m38.326-11.022v25.85h-4.868v-25.85h-9.68l1.567-4.141h22.772v4.14zm14.657-14.605h1.12l1.286 3.47 1.287-3.47h1.12v4.421h-.784v-3.413h-.056l-1.231 3.413h-.671l-1.231-3.413h-.057v3.413h-.783v-4.42zm-2.573.672h-1.288v-.672h3.413v.672h-1.342v3.75h-.784v-3.75zM163.313 128.672h1.12l1.286 3.47 1.287-3.47h1.12v4.42h-.784v-3.413h-.056l-1.23 3.414h-.673l-1.23-3.414h-.057v3.414h-.783v-4.421zm-2.574.672h-1.287v-.672h3.413v.672h-1.343v3.749h-.783v-3.75zm-63.75 9.954c0 .54.62.543.732 0 .823-3.998 2.076-6.662 4.033-9.25l-4.4.003a.364.364 0 00-.365.364v8.883zm32.32-55.485c-.18-.585-.687-.623-.682-.011.05 5.779-1.612 10.745-12.16 21.294l-8.344 8.336c-3.797 3.797-7.21 7.265-9.229 10.73h8.24l.974-.975 11.97-11.982c9.97-9.97 11.36-20.514 9.231-27.392zm-11.187 35.249l-9.999 10.007c-6.052 6.053-11.134 11.268-11.134 16.97l.006 1.589c0 .43.536.499.701.048 1.868-5.106 8.112-10.556 19.564-8.624 0 0 49.89 8.62 50.31 8.658.487.043.728-.437.414-.811-.189-.224-23.22-23.254-23.22-23.254l-26.642-4.583zM82.03 130.049a.364.364 0 01-.364-.364v-5.162c0-.201.163-.364.364-.364l8.732.002a.364.364 0 00.364-.364c-.023-4.637-3.519-7.788-17.523-5.35l-30.24 5.198s-23.032 23.03-23.22 23.254c-.315.374-.074.854.413.81.42-.036 50.31-8.657 50.31-8.657 11.452-1.932 17.696 3.518 19.564 8.624.165.45.702.383.702-.048l.001-17.215a.364.364 0 00-.364-.364H82.03zM68.09 57.897c-9.969 9.969-11.359 20.514-9.23 27.392.18.585.686.623.681.01-.05-5.778 1.612-10.745 12.161-21.293l22.74-22.733c6.052-6.053 11.134-11.268 11.134-16.971v-8.895c0-.541-.62-.543-.732 0-1.496 7.259-4.4 10.123-10.387 16.11L68.09 57.898zm37.508-17.973v-8.956c0-.541-.62-.543-.732 0-1.496 7.26-4.392 10.169-10.38 16.157L70.603 70.988c-11.59 11.59-13.596 22.808-7.7 30.016.392.48.815.192.558-.388-3.897-8.818 5.45-18.167 9.898-22.617l21.104-21.105c6.053-6.052 11.135-11.267 11.135-16.97zm-34.34 46.044c-11.59 11.592-6.26 22.787.5 25.868.593.27.828-.211.375-.604-5.422-4.696-3.776-12.597 3.042-19.414L94.44 72.553c6.053-6.052 11.134-11.267 11.134-16.97v-8.895c0-.541-.62-.543-.732 0-1.495 7.259-4.393 10.11-10.38 16.099l-23.203 23.18zm25.71 28.813v8.955c0 .54.62.543.731 0 1.496-7.26 4.392-10.168 10.38-16.156l9.486-9.466c11.591-11.59 13.596-22.808 7.701-30.016-.393-.48-.816-.193-.559.387 3.897 8.818-5.449 18.168-9.898 22.618l-6.707 6.707c-6.053 6.053-11.135 11.268-11.135 16.97zm11.137-22.863c-5.988 5.988-8.886 8.84-10.38 16.099-.113.543-.733.54-.733 0v-8.895c0-5.703 5.081-10.918 11.134-16.971l4.867-4.867c6.818-6.818 8.464-14.718 3.042-19.415-.453-.392-.218-.874.376-.603 6.76 3.08 12.09 14.276.5 25.867l-8.806 8.785z"/></g></svg>
