<svg width="94" height="49" viewBox="0 0 94 49" fill="none" xmlns="http://www.w3.org/2000/svg">
  <rect width="94" height="49" rx="7.66667" fill="#D6E4FF"/>
  <path d="M28.7602 7.11736L12.8974 32.2101C12.4719 32.8833 12.8714 33.7725 13.6574 33.9013L14.4853 34.037C14.9508 34.1132 15.4137 33.8875 15.6402 33.4738L28.7005 9.62409C29.0769 8.93679 30.0166 8.82153 30.5479 9.3975L36.2324 15.5598C36.4897 15.8387 36.8684 15.9722 37.2437 15.9162L74.0052 10.433C74.6286 10.3401 75.21 10.7679 75.3067 11.3907L78.4931 31.9191C78.5512 32.2933 78.7904 32.6147 79.1323 32.7777L80.7078 33.529C81.258 33.7913 81.8721 33.3143 81.7539 32.7163L76.6952 7.11337C76.5733 6.49673 75.9775 6.09333 75.3597 6.20918L38.4789 13.1254C38.1386 13.1893 37.7876 13.0958 37.5241 12.8711L30.4724 6.85773C29.9416 6.4051 29.1329 6.52772 28.7602 7.11736Z" fill="url(#paint0_linear)"/>
  <path d="M47.3035 31.5484C47.8253 31.5484 48.2483 31.9714 48.2483 32.4933V32.4933C48.2483 33.0151 47.8253 33.4381 47.3035 33.4381H40.0132C39.3804 33.4381 38.8673 32.9251 38.8673 32.2922V18.9391C38.8673 18.3365 39.3558 17.848 39.9584 17.848V17.848C40.561 17.848 41.0495 18.3365 41.0495 18.9391V30.8073C41.0495 31.2166 41.3813 31.5484 41.7906 31.5484H47.3035Z" fill="#061C47"/>
  <path d="M54.6723 17.6906C56.862 17.6906 58.5417 18.1105 59.7115 18.9504C60.8964 19.7752 61.4888 21.0126 61.4888 22.6623C61.4888 23.5622 61.3238 24.3345 60.9938 24.9794C60.6789 25.6093 60.214 26.1268 59.5991 26.5317C58.9992 26.9216 58.2643 27.2066 57.3944 27.3866C56.5245 27.5665 55.5422 27.6565 54.4474 27.6565H53.4563C53.047 27.6565 52.7151 27.9883 52.7151 28.3977V32.347C52.7151 32.9496 52.2266 33.4381 51.624 33.4381V33.4381C51.0215 33.4381 50.533 32.9496 50.533 32.347V18.973C50.533 18.4448 50.8936 17.9795 51.416 17.9006C51.7841 17.8451 52.1721 17.805 52.5802 17.7806C53.345 17.7206 54.0424 17.6906 54.6723 17.6906ZM54.8523 19.6028C54.4469 19.6028 54.0828 19.607 53.76 19.6156C53.1675 19.6313 52.7151 20.1241 52.7151 20.7168V24.6434C52.7151 25.2763 53.2282 25.7893 53.8611 25.7893H54.3574C55.1073 25.7893 55.7822 25.7443 56.3821 25.6543C56.982 25.5493 57.4844 25.3844 57.8893 25.1594C58.3093 24.9194 58.6317 24.597 58.8567 24.1921C59.0816 23.7871 59.1941 23.2697 59.1941 22.6398C59.1941 22.0399 59.0741 21.545 58.8342 21.155C58.6092 20.7651 58.2943 20.4576 57.8893 20.2327C57.4994 19.9927 57.042 19.8277 56.517 19.7377C55.9921 19.6478 55.4372 19.6028 54.8523 19.6028Z" fill="#061C47"/>
  <path d="M67.8417 31.8859C70.1214 31.8859 71.2612 31.106 71.2612 29.5462C71.2612 29.0663 71.1562 28.6614 70.9463 28.3314C70.7513 27.9865 70.4813 27.694 70.1364 27.4541C69.7914 27.1991 69.394 26.9816 68.9441 26.8017C68.5091 26.6217 68.0442 26.4417 67.5493 26.2617C66.9794 26.0668 66.4395 25.8493 65.9295 25.6093C65.4196 25.3544 64.9772 25.0619 64.6022 24.732C64.2273 24.387 63.9274 23.9821 63.7024 23.5172C63.4924 23.0522 63.3874 22.4898 63.3874 21.8299C63.3874 20.4651 63.8524 19.4003 64.7822 18.6354C65.7121 17.8705 66.9944 17.4881 68.6291 17.4881C69.574 17.4881 70.4288 17.5931 71.1937 17.803C71.5885 17.9017 71.9295 18.0062 72.2167 18.1164C72.6349 18.277 72.7867 18.7529 72.6231 19.1699V19.1699C72.406 19.7232 71.725 19.9662 71.1596 19.783C71.0428 19.7451 70.9191 19.7075 70.7888 19.6703C70.1739 19.4753 69.454 19.3778 68.6291 19.3778C68.2092 19.3778 67.8192 19.4228 67.4593 19.5128C67.0994 19.6028 66.7844 19.7377 66.5144 19.9177C66.2445 20.0977 66.027 20.3302 65.8621 20.6151C65.7121 20.8851 65.6371 21.2075 65.6371 21.5825C65.6371 22.0024 65.7196 22.3548 65.8845 22.6398C66.0495 22.9248 66.282 23.1797 66.5819 23.4047C66.8819 23.6146 67.2268 23.8096 67.6168 23.9896C68.0217 24.1696 68.4641 24.3495 68.9441 24.5295C69.619 24.7995 70.2339 25.0694 70.7888 25.3394C71.3587 25.6093 71.8461 25.9318 72.2511 26.3067C72.671 26.6817 72.9934 27.1316 73.2184 27.6565C73.4434 28.1664 73.5559 28.7888 73.5559 29.5237C73.5559 30.8885 73.0534 31.9384 72.0486 32.6732C71.0587 33.4081 69.6565 33.7756 67.8417 33.7756C67.2268 33.7756 66.6569 33.7306 66.132 33.6406C65.6221 33.5656 65.1647 33.4756 64.7597 33.3706C64.3548 33.2507 64.0023 33.1307 63.7024 33.0107V33.0107C63.3101 32.8249 63.1368 32.3718 63.2847 31.9638L63.302 31.916C63.4997 31.3706 64.1489 31.1198 64.6916 31.3246C64.8644 31.3899 65.0521 31.457 65.2546 31.5259C65.9595 31.7659 66.8219 31.8859 67.8417 31.8859Z" fill="#061C47"/>
  <path d="M53.9002 41.1089V41.7937H50.5005V36.1438H51.2913V41.1089H53.9002ZM55.6005 41.7937H54.8423V37.5542H55.6005V41.7937ZM55.2173 36.7879C55.0814 36.7879 54.9646 36.7444 54.8667 36.6574C54.7743 36.565 54.7281 36.4427 54.7281 36.2906C54.7281 36.1384 54.7743 36.0188 54.8667 35.9318C54.9646 35.8394 55.0814 35.7932 55.2173 35.7932C55.3532 35.7932 55.4673 35.8394 55.5597 35.9318C55.6576 36.0188 55.7065 36.1384 55.7065 36.2906C55.7065 36.4427 55.6576 36.565 55.5597 36.6574C55.4673 36.7444 55.3532 36.7879 55.2173 36.7879ZM57.8256 37.7418C57.918 37.682 58.0566 37.6195 58.2414 37.5542C58.4316 37.489 58.6491 37.4564 58.8936 37.4564C59.198 37.4564 59.4671 37.5108 59.7008 37.6195C59.9399 37.7282 60.141 37.8804 60.3041 38.076C60.4671 38.2717 60.5894 38.5054 60.671 38.7772C60.7579 39.0489 60.8014 39.3479 60.8014 39.674C60.8014 40.0164 60.7498 40.3262 60.6465 40.6034C60.5487 40.8752 60.4073 41.1061 60.2225 41.2964C60.0378 41.4866 59.8149 41.6334 59.554 41.7366C59.2931 41.8399 58.9996 41.8915 58.6735 41.8915C58.3202 41.8915 58.0077 41.8671 57.7359 41.8182C57.4642 41.7692 57.2413 41.7203 57.0674 41.6714V35.5976L57.8256 35.4671V37.7418ZM57.8256 41.1333C57.9017 41.1551 58.0077 41.1768 58.1436 41.1985C58.2849 41.2149 58.4588 41.223 58.6654 41.223C59.073 41.223 59.3991 41.0898 59.6437 40.8235C59.8883 40.5518 60.0106 40.1686 60.0106 39.674C60.0106 39.4566 59.9888 39.2527 59.9454 39.0625C59.9019 38.8723 59.8312 38.7092 59.7334 38.5733C59.6355 38.432 59.5078 38.3233 59.3502 38.2472C59.198 38.1657 59.0132 38.1249 58.7958 38.1249C58.5893 38.1249 58.399 38.1603 58.2251 38.2309C58.0512 38.3016 57.918 38.375 57.8256 38.4511V41.1333ZM63.5967 37.4646C63.6619 37.4646 63.7353 37.47 63.8169 37.4809C63.9038 37.4863 63.9881 37.4972 64.0696 37.5135C64.1511 37.5243 64.2245 37.5379 64.2897 37.5542C64.3604 37.5651 64.412 37.576 64.4446 37.5869L64.3142 38.2472C64.2544 38.2255 64.1538 38.201 64.0125 38.1739C63.8766 38.1412 63.7 38.1249 63.4826 38.1249C63.3413 38.1249 63.2 38.1412 63.0586 38.1739C62.9228 38.201 62.8331 38.2201 62.7896 38.2309V41.7937H62.0314V37.7336C62.2107 37.6684 62.4336 37.6086 62.6999 37.5542C62.9662 37.4945 63.2652 37.4646 63.5967 37.4646ZM66.7742 41.2475C66.9536 41.2475 67.1112 41.2447 67.2471 41.2393C67.3884 41.2284 67.5053 41.2121 67.5977 41.1904V39.9267C67.5433 39.8995 67.4536 39.8778 67.3286 39.8615C67.209 39.8397 67.0623 39.8289 66.8884 39.8289C66.7742 39.8289 66.6519 39.837 66.5215 39.8533C66.3965 39.8696 66.2796 39.905 66.1709 39.9593C66.0676 40.0082 65.9807 40.0789 65.91 40.1713C65.8394 40.2583 65.804 40.3751 65.804 40.5219C65.804 40.7936 65.891 40.9839 66.0649 41.0926C66.2389 41.1958 66.4753 41.2475 66.7742 41.2475ZM66.709 37.4483C67.0134 37.4483 67.2688 37.489 67.4754 37.5705C67.6873 37.6466 67.8558 37.7581 67.9808 37.9048C68.1113 38.0461 68.2037 38.2173 68.258 38.4184C68.3124 38.6141 68.3396 38.8315 68.3396 39.0707V41.7203C68.2743 41.7312 68.1819 41.7475 68.0624 41.7692C67.9482 41.7855 67.8178 41.8019 67.671 41.8182C67.5243 41.8345 67.3639 41.8481 67.19 41.8589C67.0215 41.8752 66.853 41.8834 66.6845 41.8834C66.4454 41.8834 66.2253 41.8589 66.0242 41.81C65.8231 41.7611 65.6491 41.685 65.5024 41.5817C65.3556 41.473 65.2415 41.3317 65.16 41.1578C65.0784 40.9839 65.0377 40.7746 65.0377 40.53C65.0377 40.2963 65.0839 40.0952 65.1763 39.9267C65.2741 39.7582 65.4045 39.6223 65.5676 39.5191C65.7307 39.4158 65.9209 39.3397 66.1383 39.2908C66.3557 39.2419 66.584 39.2174 66.8231 39.2174C66.8992 39.2174 66.978 39.2229 67.0596 39.2337C67.1411 39.2392 67.2172 39.25 67.2878 39.2663C67.3639 39.2772 67.4292 39.2881 67.4835 39.2989C67.5379 39.3098 67.5759 39.318 67.5977 39.3234V39.1114C67.5977 38.9864 67.5841 38.8641 67.5569 38.7446C67.5297 38.6195 67.4808 38.5108 67.4101 38.4184C67.3395 38.3206 67.2416 38.2445 67.1166 38.1902C66.9971 38.1304 66.8394 38.1005 66.6438 38.1005C66.3938 38.1005 66.1736 38.1195 65.9834 38.1576C65.7986 38.1902 65.66 38.2255 65.5676 38.2635L65.4779 37.6358C65.5758 37.5923 65.7388 37.5515 65.9671 37.5135C66.1954 37.47 66.4427 37.4483 66.709 37.4483ZM71.3272 37.4646C71.3925 37.4646 71.4658 37.47 71.5474 37.4809C71.6343 37.4863 71.7186 37.4972 71.8001 37.5135C71.8816 37.5243 71.955 37.5379 72.0202 37.5542C72.0909 37.5651 72.1425 37.576 72.1751 37.5869L72.0447 38.2472C71.9849 38.2255 71.8843 38.201 71.743 38.1739C71.6072 38.1412 71.4305 38.1249 71.2131 38.1249C71.0718 38.1249 70.9305 38.1412 70.7892 38.1739C70.6533 38.201 70.5636 38.2201 70.5201 38.2309V41.7937H69.7619V37.7336C69.9413 37.6684 70.1641 37.6086 70.4304 37.5542C70.6968 37.4945 70.9957 37.4646 71.3272 37.4646ZM72.7477 42.5845C72.8075 42.6117 72.8836 42.6362 72.976 42.6579C73.0738 42.6851 73.1689 42.6987 73.2613 42.6987C73.5602 42.6987 73.794 42.6307 73.9624 42.4948C74.1309 42.3644 74.2831 42.1497 74.419 41.8508C74.0766 41.1985 73.7559 40.5083 73.457 39.78C73.1635 39.0462 72.9189 38.3043 72.7232 37.5542H73.5385C73.5983 37.7988 73.6689 38.0624 73.7505 38.3451C73.8374 38.6277 73.9325 38.9185 74.0358 39.2174C74.1391 39.5164 74.2505 39.8153 74.3701 40.1142C74.4897 40.4132 74.6147 40.7012 74.7451 40.9784C74.9516 40.4077 75.131 39.8425 75.2832 39.2826C75.4354 38.7228 75.5794 38.1467 75.7153 37.5542H76.498C76.3023 38.3532 76.0849 39.1223 75.8457 39.8615C75.6066 40.5952 75.3484 41.2828 75.0712 41.9241C74.9625 42.1687 74.8484 42.378 74.7288 42.5519C74.6147 42.7313 74.4869 42.878 74.3456 42.9922C74.2043 43.1063 74.044 43.1905 73.8646 43.2449C73.6907 43.2993 73.4923 43.3264 73.2695 43.3264C73.2097 43.3264 73.1472 43.321 73.0819 43.3101C73.0167 43.3047 72.9515 43.2938 72.8863 43.2775C72.8265 43.2666 72.7694 43.2531 72.7151 43.2367C72.6661 43.2204 72.6308 43.2069 72.6091 43.196L72.7477 42.5845Z" fill="#223150"/>
  <path fill-rule="evenodd" clip-rule="evenodd" d="M32.5441 28.0039C32.8381 28.0039 33.1044 28.1777 33.2227 28.4468L35.3053 33.1851C35.4236 33.4543 35.6898 33.628 35.9838 33.628H36.336C36.8758 33.628 37.2345 33.0696 37.0101 32.5787L30.2909 17.8805C29.9764 17.1658 28.9607 17.1648 28.6487 17.8805L21.9295 32.5787C21.7051 33.0696 22.0638 33.628 22.6035 33.628H23.0183C23.3112 33.628 23.5766 33.4556 23.6956 33.1879L25.8043 28.444C25.9233 28.1764 26.1887 28.0039 26.4816 28.0039H32.5441ZM29.9482 20.6368C29.8279 20.3162 29.3744 20.3163 29.2542 20.637L27.5668 25.1403C27.476 25.3825 27.6551 25.6409 27.9138 25.6409H29.601H31.2913C31.5501 25.6409 31.7292 25.3824 31.6383 25.1401L30.7136 22.6762L29.9482 20.6368Z" fill="#061C47"/>
  <defs>
    <linearGradient id="paint0_linear" x1="19.8675" y1="11.0067" x2="82.637" y2="30.355" gradientUnits="userSpaceOnUse">
      <stop stop-color="#074BC5"/>
      <stop offset="0.557292" stop-color="#080EA2"/>
      <stop offset="1" stop-color="#3908A2"/>
    </linearGradient>
  </defs>
</svg>
