<svg width="217" height="109" viewBox="0 0 217 109" fill="none" xmlns="http://www.w3.org/2000/svg">
  <path d="M43.1929 1.98433L1.3035 79.0223C0.941175 79.6886 1.42354 80.5 2.18202 80.5H114.935C115.666 80.5 116.15 79.7427 115.843 79.08L89.3727 21.8857C89.0207 21.1252 87.9455 21.1089 87.5708 21.8585L76.0722 44.8555C75.3786 46.2427 73.4385 46.3468 72.6005 45.0417L44.9129 1.92171C44.5021 1.28202 43.556 1.31646 43.1929 1.98433Z" fill="url(#paint0_linear)"/>
  <path d="M98.5452 62.1326C98.2119 61.4402 97.5114 61 96.743 61H79.7924C79.0058 61 78.2922 61.4611 77.969 62.1783L71.74 76H67.12L86.32 34L88.5 29L90.7 34L109.9 76H105.22L98.5452 62.1326Z" fill="white"/>
  <path d="M147.18 70.96V76H122.16V34.42H127.98V70.96H147.18ZM164.313 34C170.153 34 174.633 35.12 177.753 37.36C180.913 39.56 182.493 42.86 182.493 47.26C182.493 49.66 182.053 51.72 181.173 53.44C180.333 55.12 179.093 56.5 177.453 57.58C175.853 58.62 173.893 59.38 171.573 59.86C169.253 60.34 166.633 60.58 163.713 60.58H159.093V76H153.273V35.02C154.913 34.62 156.733 34.36 158.733 34.24C160.773 34.08 162.633 34 164.313 34ZM164.793 39.1C162.313 39.1 160.413 39.16 159.093 39.28V55.6H163.473C165.473 55.6 167.273 55.48 168.873 55.24C170.473 54.96 171.813 54.52 172.893 53.92C174.013 53.28 174.873 52.42 175.473 51.34C176.073 50.26 176.373 48.88 176.373 47.2C176.373 45.6 176.053 44.28 175.413 43.24C174.813 42.2 173.973 41.38 172.893 40.78C171.853 40.14 170.633 39.7 169.233 39.46C167.833 39.22 166.353 39.1 164.793 39.1ZM199.437 71.86C205.517 71.86 208.557 69.78 208.557 65.62C208.557 64.34 208.277 63.26 207.717 62.38C207.197 61.46 206.477 60.68 205.557 60.04C204.637 59.36 203.577 58.78 202.377 58.3C201.217 57.82 199.977 57.34 198.657 56.86C197.137 56.34 195.697 55.76 194.337 55.12C192.977 54.44 191.797 53.66 190.797 52.78C189.797 51.86 188.997 50.78 188.397 49.54C187.837 48.3 187.557 46.8 187.557 45.04C187.557 41.4 188.797 38.56 191.277 36.52C193.757 34.48 197.177 33.46 201.537 33.46C204.057 33.46 206.337 33.74 208.377 34.3C210.457 34.82 211.977 35.4 212.937 36.04L211.077 40.78C210.237 40.26 208.977 39.76 207.297 39.28C205.657 38.76 203.737 38.5 201.537 38.5C200.417 38.5 199.377 38.62 198.417 38.86C197.457 39.1 196.617 39.46 195.897 39.94C195.177 40.42 194.597 41.04 194.157 41.8C193.757 42.52 193.557 43.38 193.557 44.38C193.557 45.5 193.777 46.44 194.217 47.2C194.657 47.96 195.277 48.64 196.077 49.24C196.877 49.8 197.797 50.32 198.837 50.8C199.917 51.28 201.097 51.76 202.377 52.24C204.177 52.96 205.817 53.68 207.297 54.4C208.817 55.12 210.117 55.98 211.197 56.98C212.317 57.98 213.177 59.18 213.777 60.58C214.377 61.94 214.677 63.6 214.677 65.56C214.677 69.2 213.337 72 210.657 73.96C208.017 75.92 204.277 76.9 199.437 76.9C197.797 76.9 196.277 76.78 194.877 76.54C193.517 76.34 192.297 76.1 191.217 75.82C190.137 75.5 189.197 75.18 188.397 74.86C187.637 74.5 187.037 74.2 186.597 73.96L188.337 69.16C189.257 69.68 190.657 70.26 192.537 70.9C194.417 71.54 196.717 71.86 199.437 71.86Z" fill="url(#paint1_linear)"/>
  <path d="M89.928 102.344C92.36 102.344 93.576 101.512 93.576 99.848C93.576 99.336 93.464 98.904 93.24 98.552C93.032 98.184 92.744 97.872 92.376 97.616C92.008 97.344 91.584 97.112 91.104 96.92C90.64 96.728 90.144 96.536 89.616 96.344C89.008 96.136 88.432 95.904 87.888 95.648C87.344 95.376 86.872 95.064 86.472 94.712C86.072 94.344 85.752 93.912 85.512 93.416C85.288 92.92 85.176 92.32 85.176 91.616C85.176 90.16 85.672 89.024 86.664 88.208C87.656 87.392 89.024 86.984 90.768 86.984C91.776 86.984 92.688 87.096 93.504 87.32C94.336 87.528 94.944 87.76 95.328 88.016L94.584 89.912C94.248 89.704 93.744 89.504 93.072 89.312C92.416 89.104 91.648 89 90.768 89C90.32 89 89.904 89.048 89.52 89.144C89.136 89.24 88.8 89.384 88.512 89.576C88.224 89.768 87.992 90.016 87.816 90.32C87.656 90.608 87.576 90.952 87.576 91.352C87.576 91.8 87.664 92.176 87.84 92.48C88.016 92.784 88.264 93.056 88.584 93.296C88.904 93.52 89.272 93.728 89.688 93.92C90.12 94.112 90.592 94.304 91.104 94.496C91.824 94.784 92.48 95.072 93.072 95.36C93.68 95.648 94.2 95.992 94.632 96.392C95.08 96.792 95.424 97.272 95.664 97.832C95.904 98.376 96.024 99.04 96.024 99.824C96.024 101.28 95.488 102.4 94.416 103.184C93.36 103.968 91.864 104.36 89.928 104.36C89.272 104.36 88.664 104.312 88.104 104.216C87.56 104.136 87.072 104.04 86.64 103.928C86.208 103.8 85.832 103.672 85.512 103.544C85.208 103.4 84.968 103.28 84.792 103.184L85.488 101.264C85.856 101.472 86.416 101.704 87.168 101.96C87.92 102.216 88.84 102.344 89.928 102.344ZM102.701 91.52H107.429V93.392H102.701V99.152C102.701 99.776 102.749 100.296 102.845 100.712C102.941 101.112 103.085 101.432 103.277 101.672C103.469 101.896 103.709 102.056 103.997 102.152C104.285 102.248 104.621 102.296 105.005 102.296C105.677 102.296 106.213 102.224 106.613 102.08C107.029 101.92 107.317 101.808 107.477 101.744L107.909 103.592C107.685 103.704 107.293 103.84 106.733 104C106.173 104.176 105.533 104.264 104.813 104.264C103.965 104.264 103.261 104.16 102.701 103.952C102.157 103.728 101.717 103.4 101.381 102.968C101.045 102.536 100.805 102.008 100.661 101.384C100.533 100.744 100.469 100.008 100.469 99.176V88.04L102.701 87.656V91.52ZM122.878 97.76C122.878 98.752 122.734 99.648 122.446 100.448C122.158 101.248 121.75 101.936 121.222 102.512C120.71 103.088 120.094 103.536 119.374 103.856C118.654 104.16 117.87 104.312 117.022 104.312C116.174 104.312 115.39 104.16 114.67 103.856C113.95 103.536 113.326 103.088 112.798 102.512C112.286 101.936 111.886 101.248 111.598 100.448C111.31 99.648 111.166 98.752 111.166 97.76C111.166 96.784 111.31 95.896 111.598 95.096C111.886 94.28 112.286 93.584 112.798 93.008C113.326 92.432 113.95 91.992 114.67 91.688C115.39 91.368 116.174 91.208 117.022 91.208C117.87 91.208 118.654 91.368 119.374 91.688C120.094 91.992 120.71 92.432 121.222 93.008C121.75 93.584 122.158 94.28 122.446 95.096C122.734 95.896 122.878 96.784 122.878 97.76ZM120.55 97.76C120.55 96.352 120.23 95.24 119.59 94.424C118.966 93.592 118.11 93.176 117.022 93.176C115.934 93.176 115.07 93.592 114.43 94.424C113.806 95.24 113.494 96.352 113.494 97.76C113.494 99.168 113.806 100.288 114.43 101.12C115.07 101.936 115.934 102.344 117.022 102.344C118.11 102.344 118.966 101.936 119.59 101.12C120.23 100.288 120.55 99.168 120.55 97.76ZM132.546 91.256C132.738 91.256 132.954 91.272 133.194 91.304C133.45 91.32 133.698 91.352 133.938 91.4C134.178 91.432 134.394 91.472 134.586 91.52C134.794 91.552 134.946 91.584 135.042 91.616L134.658 93.56C134.482 93.496 134.186 93.424 133.77 93.344C133.37 93.248 132.85 93.2 132.21 93.2C131.794 93.2 131.378 93.248 130.962 93.344C130.562 93.424 130.298 93.48 130.17 93.512V104H127.938V92.048C128.466 91.856 129.122 91.68 129.906 91.52C130.69 91.344 131.57 91.256 132.546 91.256ZM138.167 106.328C138.343 106.408 138.567 106.48 138.839 106.544C139.127 106.624 139.407 106.664 139.679 106.664C140.559 106.664 141.247 106.464 141.743 106.064C142.239 105.68 142.687 105.048 143.087 104.168C142.079 102.248 141.135 100.216 140.255 98.072C139.391 95.912 138.671 93.728 138.095 91.52H140.495C140.671 92.24 140.879 93.016 141.119 93.848C141.375 94.68 141.655 95.536 141.959 96.416C142.263 97.296 142.591 98.176 142.943 99.056C143.295 99.936 143.663 100.784 144.047 101.6C144.655 99.92 145.183 98.256 145.631 96.608C146.079 94.96 146.503 93.264 146.903 91.52H149.207C148.631 93.872 147.991 96.136 147.287 98.312C146.583 100.472 145.823 102.496 145.007 104.384C144.687 105.104 144.351 105.72 143.999 106.232C143.663 106.76 143.287 107.192 142.871 107.528C142.455 107.864 141.983 108.112 141.455 108.272C140.943 108.432 140.359 108.512 139.703 108.512C139.527 108.512 139.343 108.496 139.151 108.464C138.959 108.448 138.767 108.416 138.575 108.368C138.399 108.336 138.231 108.296 138.071 108.248C137.927 108.2 137.823 108.16 137.759 108.128L138.167 106.328ZM155.713 92.072C155.985 91.896 156.393 91.712 156.937 91.52C157.497 91.328 158.137 91.232 158.857 91.232C159.753 91.232 160.545 91.392 161.233 91.712C161.937 92.032 162.529 92.48 163.009 93.056C163.489 93.632 163.849 94.32 164.089 95.12C164.345 95.92 164.473 96.8 164.473 97.76C164.473 98.768 164.321 99.68 164.017 100.496C163.729 101.296 163.313 101.976 162.769 102.536C162.225 103.096 161.569 103.528 160.801 103.832C160.033 104.136 159.169 104.288 158.209 104.288C157.169 104.288 156.249 104.216 155.449 104.072C154.649 103.928 153.993 103.784 153.481 103.64V85.76L155.713 85.376V92.072ZM155.713 102.056C155.937 102.12 156.249 102.184 156.649 102.248C157.065 102.296 157.577 102.32 158.185 102.32C159.385 102.32 160.345 101.928 161.065 101.144C161.785 100.344 162.145 99.216 162.145 97.76C162.145 97.12 162.081 96.52 161.953 95.96C161.825 95.4 161.617 94.92 161.329 94.52C161.041 94.104 160.665 93.784 160.201 93.56C159.753 93.32 159.209 93.2 158.569 93.2C157.961 93.2 157.401 93.304 156.889 93.512C156.377 93.72 155.985 93.936 155.713 94.16V102.056ZM180.55 97.76C180.55 98.752 180.406 99.648 180.118 100.448C179.83 101.248 179.422 101.936 178.894 102.512C178.382 103.088 177.766 103.536 177.046 103.856C176.326 104.16 175.542 104.312 174.694 104.312C173.846 104.312 173.062 104.16 172.342 103.856C171.622 103.536 170.998 103.088 170.47 102.512C169.958 101.936 169.558 101.248 169.27 100.448C168.982 99.648 168.838 98.752 168.838 97.76C168.838 96.784 168.982 95.896 169.27 95.096C169.558 94.28 169.958 93.584 170.47 93.008C170.998 92.432 171.622 91.992 172.342 91.688C173.062 91.368 173.846 91.208 174.694 91.208C175.542 91.208 176.326 91.368 177.046 91.688C177.766 91.992 178.382 92.432 178.894 93.008C179.422 93.584 179.83 94.28 180.118 95.096C180.406 95.896 180.55 96.784 180.55 97.76ZM178.222 97.76C178.222 96.352 177.902 95.24 177.262 94.424C176.638 93.592 175.782 93.176 174.694 93.176C173.606 93.176 172.742 93.592 172.102 94.424C171.478 95.24 171.166 96.352 171.166 97.76C171.166 99.168 171.478 100.288 172.102 101.12C172.742 101.936 173.606 102.344 174.694 102.344C175.782 102.344 176.638 101.936 177.262 101.12C177.902 100.288 178.222 99.168 178.222 97.76ZM196.626 97.76C196.626 98.752 196.482 99.648 196.194 100.448C195.906 101.248 195.498 101.936 194.97 102.512C194.458 103.088 193.842 103.536 193.122 103.856C192.402 104.16 191.618 104.312 190.77 104.312C189.922 104.312 189.138 104.16 188.418 103.856C187.698 103.536 187.074 103.088 186.546 102.512C186.034 101.936 185.634 101.248 185.346 100.448C185.058 99.648 184.914 98.752 184.914 97.76C184.914 96.784 185.058 95.896 185.346 95.096C185.634 94.28 186.034 93.584 186.546 93.008C187.074 92.432 187.698 91.992 188.418 91.688C189.138 91.368 189.922 91.208 190.77 91.208C191.618 91.208 192.402 91.368 193.122 91.688C193.842 91.992 194.458 92.432 194.97 93.008C195.498 93.584 195.906 94.28 196.194 95.096C196.482 95.896 196.626 96.784 196.626 97.76ZM194.298 97.76C194.298 96.352 193.978 95.24 193.338 94.424C192.714 93.592 191.858 93.176 190.77 93.176C189.682 93.176 188.818 93.592 188.178 94.424C187.554 95.24 187.242 96.352 187.242 97.76C187.242 99.168 187.554 100.288 188.178 101.12C188.818 101.936 189.682 102.344 190.77 102.344C191.858 102.344 192.714 101.936 193.338 101.12C193.978 100.288 194.298 99.168 194.298 97.76ZM206.198 97.136C206.678 97.504 207.182 97.96 207.71 98.504C208.254 99.048 208.782 99.64 209.294 100.28C209.822 100.904 210.318 101.544 210.782 102.2C211.246 102.84 211.638 103.44 211.958 104H209.342C209.006 103.44 208.614 102.872 208.166 102.296C207.734 101.704 207.278 101.144 206.798 100.616C206.318 100.072 205.83 99.576 205.334 99.128C204.838 98.68 204.366 98.304 203.918 98V104H201.686V85.76L203.918 85.376V96.752C204.302 96.368 204.726 95.944 205.19 95.48C205.654 95.016 206.11 94.544 206.558 94.064C207.006 93.584 207.43 93.128 207.83 92.696C208.23 92.248 208.574 91.856 208.862 91.52H211.478C211.11 91.92 210.71 92.36 210.278 92.84C209.846 93.32 209.398 93.808 208.934 94.304C208.47 94.784 207.998 95.272 207.518 95.768C207.054 96.248 206.614 96.704 206.198 97.136Z" fill="#131D2F"/>
  <path d="M88.7436 39L96.1671 54.7347C96.3879 55.2027 95.8396 55.6567 95.421 55.3525L89.3319 50.9275C88.9812 50.6727 88.5061 50.6728 88.1556 50.928L82.0786 55.351C81.6602 55.6555 81.1115 55.2018 81.332 54.7337L88.7436 39Z" fill="url(#paint2_linear)"/>
  <defs>
    <linearGradient id="paint0_linear" x1="25.5" y1="24" x2="106.5" y2="86.5" gradientUnits="userSpaceOnUse">
      <stop stop-color="#314363"/>
      <stop offset="1" stop-color="#131D2F"/>
    </linearGradient>
    <linearGradient id="paint1_linear" x1="167.431" y1="19.4312" x2="167" y2="88" gradientUnits="userSpaceOnUse">
      <stop stop-color="#27344D"/>
      <stop offset="1" stop-color="#131D2F"/>
    </linearGradient>
    <linearGradient id="paint2_linear" x1="88.8211" y1="39.1094" x2="88.6529" y2="56.4991" gradientUnits="userSpaceOnUse">
      <stop stop-color="#27344D"/>
      <stop offset="1" stop-color="#131D2F"/>
    </linearGradient>
  </defs>
</svg>
