<svg width="189" height="101" viewBox="0 0 189 101" fill="none" xmlns="http://www.w3.org/2000/svg">
  <path d="M45.2267 3.01513L2.42169 70.7269C1.27329 72.5435 2.35154 74.943 4.47242 75.2905L6.70659 75.6566C7.96255 75.8623 9.21167 75.2532 9.82296 74.137L45.0656 9.77945C46.0812 7.92481 48.6171 7.61379 50.0508 9.16802L65.39 25.7967C66.0844 26.5494 67.1063 26.9096 68.1191 26.7585L167.319 11.9624C169.001 11.7115 170.57 12.866 170.83 14.5465L179.429 69.9415C179.586 70.9513 180.231 71.8185 181.154 72.2584L185.405 74.2857C186.89 74.9937 188.547 73.7065 188.228 72.0928L174.577 3.00437C174.248 1.34041 172.641 0.251837 170.974 0.564462L71.4522 19.2277C70.5338 19.3999 69.5868 19.1476 68.8758 18.5413L49.8469 2.31454C48.4146 1.09314 46.2325 1.42402 45.2267 3.01513Z" fill="url(#paint0_linear)"/>
  <path d="M95.2647 68.9412C96.6728 68.9412 97.8143 70.0827 97.8143 71.4908V71.4908C97.8143 72.899 96.6728 74.0405 95.2647 74.0405H75.5923C73.8844 74.0405 72.5 72.656 72.5 70.9482V34.9155C72.5 33.2895 73.8182 31.9713 75.4442 31.9713V31.9713C77.0703 31.9713 78.3884 33.2895 78.3884 34.9155V66.9412C78.3884 68.0457 79.2839 68.9412 80.3884 68.9412H95.2647Z" fill="white"/>
  <path d="M115.149 31.5464C121.058 31.5464 125.591 32.6795 128.747 34.9459C131.944 37.1718 133.543 40.5106 133.543 44.9624C133.543 47.3906 133.098 49.4748 132.208 51.2151C131.358 52.9148 130.103 54.3111 128.444 55.4038C126.825 56.456 124.842 57.2249 122.495 57.7106C120.147 58.1962 117.496 58.4391 114.542 58.4391H111.868C110.763 58.4391 109.868 59.3345 109.868 60.4391V71.0962C109.868 72.7223 108.55 74.0405 106.924 74.0405V74.0405C105.297 74.0405 103.979 72.7223 103.979 71.0962V35.0071C103.979 33.5815 104.953 32.326 106.362 32.1132C107.355 31.9632 108.402 31.8552 109.504 31.7892C111.568 31.6273 113.449 31.5464 115.149 31.5464ZM115.635 36.7064C114.541 36.7064 113.558 36.7179 112.687 36.741C111.089 36.7834 109.868 38.1131 109.868 39.7124V50.3082C109.868 52.016 111.252 53.4005 112.96 53.4005H114.299C116.323 53.4005 118.144 53.2791 119.763 53.0362C121.382 52.7529 122.737 52.3078 123.83 51.7007C124.963 51.0532 125.833 50.1831 126.44 49.0904C127.048 47.9976 127.351 46.6014 127.351 44.9016C127.351 43.2828 127.027 41.9473 126.38 40.8951C125.773 39.8428 124.923 39.0132 123.83 38.4061C122.778 37.7586 121.544 37.3134 120.127 37.0706C118.711 36.8278 117.213 36.7064 115.635 36.7064Z" fill="white"/>
  <path d="M150.686 69.8518C156.838 69.8518 159.914 67.7473 159.914 63.5383C159.914 62.2433 159.63 61.1506 159.064 60.2602C158.538 59.3294 157.809 58.5402 156.878 57.8927C155.947 57.2047 154.875 56.6179 153.661 56.1322C152.487 55.6466 151.233 55.1609 149.897 54.6753C148.359 54.1492 146.902 53.5624 145.526 52.9148C144.15 52.2268 142.956 51.4376 141.945 50.5473C140.933 49.6165 140.123 48.5238 139.516 47.2692C138.95 46.0146 138.667 44.4969 138.667 42.7162C138.667 39.0334 139.921 36.16 142.43 34.096C144.939 32.032 148.4 31 152.811 31C155.361 31 157.667 31.2833 159.731 31.8499C160.797 32.1162 161.717 32.3981 162.492 32.6955C163.62 33.1287 164.03 34.413 163.589 35.5383V35.5383C163.003 37.0313 161.165 37.6872 159.639 37.1926C159.324 37.0903 158.991 36.989 158.639 36.8885C156.979 36.3624 155.037 36.0993 152.811 36.0993C151.678 36.0993 150.626 36.2207 149.654 36.4635C148.683 36.7064 147.833 37.0706 147.105 37.5562C146.376 38.0419 145.789 38.6692 145.344 39.4381C144.939 40.1666 144.737 41.0367 144.737 42.0485C144.737 43.1816 144.96 44.1327 145.405 44.9016C145.85 45.6706 146.477 46.3586 147.287 46.9656C148.096 47.5322 149.027 48.0584 150.079 48.544C151.172 49.0296 152.366 49.5153 153.661 50.0009C155.482 50.7294 157.141 51.4579 158.639 52.1864C160.177 52.9148 161.492 53.7849 162.585 54.7967C163.718 55.8085 164.588 57.0226 165.195 58.4391C165.802 59.8151 166.106 61.4946 166.106 63.4776C166.106 67.1605 164.75 69.9934 162.038 71.9765C159.367 73.9595 155.583 74.9511 150.686 74.9511C149.027 74.9511 147.489 74.8296 146.073 74.5868C144.697 74.3845 143.462 74.1416 142.37 73.8583C141.277 73.5346 140.326 73.2108 139.516 72.8871V72.8871C138.458 72.3857 137.99 71.1631 138.389 70.062L138.436 69.933C138.969 68.4613 140.721 67.7845 142.186 68.3373C142.652 68.5134 143.159 68.6944 143.705 68.8805C145.607 69.528 147.934 69.8518 150.686 69.8518Z" fill="white"/>
  <path d="M113.066 94.152V96H103.892V80.754H106.026V94.152H113.066ZM117.654 96H115.608V84.56H117.654V96ZM116.62 82.492C116.254 82.492 115.938 82.3747 115.674 82.14C115.425 81.8907 115.3 81.5607 115.3 81.15C115.3 80.7393 115.425 80.4167 115.674 80.182C115.938 79.9327 116.254 79.808 116.62 79.808C116.987 79.808 117.295 79.9327 117.544 80.182C117.808 80.4167 117.94 80.7393 117.94 81.15C117.94 81.5607 117.808 81.8907 117.544 82.14C117.295 82.3747 116.987 82.492 116.62 82.492ZM123.659 85.066C123.908 84.9047 124.282 84.736 124.781 84.56C125.294 84.384 125.881 84.296 126.541 84.296C127.362 84.296 128.088 84.4427 128.719 84.736C129.364 85.0293 129.907 85.44 130.347 85.968C130.787 86.496 131.117 87.1267 131.337 87.86C131.571 88.5933 131.689 89.4 131.689 90.28C131.689 91.204 131.549 92.04 131.271 92.788C131.007 93.5213 130.625 94.1447 130.127 94.658C129.628 95.1713 129.027 95.5673 128.323 95.846C127.619 96.1247 126.827 96.264 125.947 96.264C124.993 96.264 124.15 96.198 123.417 96.066C122.683 95.934 122.082 95.802 121.613 95.67V79.28L123.659 78.928V85.066ZM123.659 94.218C123.864 94.2767 124.15 94.3353 124.517 94.394C124.898 94.438 125.367 94.46 125.925 94.46C127.025 94.46 127.905 94.1007 128.565 93.382C129.225 92.6487 129.555 91.6147 129.555 90.28C129.555 89.6933 129.496 89.1433 129.379 88.63C129.261 88.1167 129.071 87.6767 128.807 87.31C128.543 86.9287 128.198 86.6353 127.773 86.43C127.362 86.21 126.863 86.1 126.277 86.1C125.719 86.1 125.206 86.1953 124.737 86.386C124.267 86.5767 123.908 86.7747 123.659 86.98V94.218ZM139.232 84.318C139.408 84.318 139.606 84.3327 139.826 84.362C140.06 84.3767 140.288 84.406 140.508 84.45C140.728 84.4793 140.926 84.516 141.102 84.56C141.292 84.5893 141.432 84.6187 141.52 84.648L141.168 86.43C141.006 86.3713 140.735 86.3053 140.354 86.232C139.987 86.144 139.51 86.1 138.924 86.1C138.542 86.1 138.161 86.144 137.78 86.232C137.413 86.3053 137.171 86.3567 137.054 86.386V96H135.008V85.044C135.492 84.868 136.093 84.7067 136.812 84.56C137.53 84.3987 138.337 84.318 139.232 84.318ZM147.806 94.526C148.29 94.526 148.715 94.5187 149.082 94.504C149.463 94.4747 149.779 94.4307 150.028 94.372V90.962C149.881 90.8887 149.639 90.83 149.302 90.786C148.979 90.7273 148.583 90.698 148.114 90.698C147.806 90.698 147.476 90.72 147.124 90.764C146.787 90.808 146.471 90.9033 146.178 91.05C145.899 91.182 145.665 91.3727 145.474 91.622C145.283 91.8567 145.188 92.172 145.188 92.568C145.188 93.3013 145.423 93.8147 145.892 94.108C146.361 94.3867 146.999 94.526 147.806 94.526ZM147.63 84.274C148.451 84.274 149.141 84.384 149.698 84.604C150.27 84.8093 150.725 85.11 151.062 85.506C151.414 85.8873 151.663 86.3493 151.81 86.892C151.957 87.42 152.03 88.0067 152.03 88.652V95.802C151.854 95.8313 151.605 95.8753 151.282 95.934C150.974 95.978 150.622 96.022 150.226 96.066C149.83 96.11 149.397 96.1467 148.928 96.176C148.473 96.22 148.019 96.242 147.564 96.242C146.919 96.242 146.325 96.176 145.782 96.044C145.239 95.912 144.77 95.7067 144.374 95.428C143.978 95.1347 143.67 94.7533 143.45 94.284C143.23 93.8147 143.12 93.25 143.12 92.59C143.12 91.9593 143.245 91.4167 143.494 90.962C143.758 90.5073 144.11 90.1407 144.55 89.862C144.99 89.5833 145.503 89.378 146.09 89.246C146.677 89.114 147.293 89.048 147.938 89.048C148.143 89.048 148.356 89.0627 148.576 89.092C148.796 89.1067 149.001 89.136 149.192 89.18C149.397 89.2093 149.573 89.2387 149.72 89.268C149.867 89.2973 149.969 89.3193 150.028 89.334V88.762C150.028 88.4247 149.991 88.0947 149.918 87.772C149.845 87.4347 149.713 87.1413 149.522 86.892C149.331 86.628 149.067 86.4227 148.73 86.276C148.407 86.1147 147.982 86.034 147.454 86.034C146.779 86.034 146.185 86.0853 145.672 86.188C145.173 86.276 144.799 86.3713 144.55 86.474L144.308 84.78C144.572 84.6627 145.012 84.5527 145.628 84.45C146.244 84.3327 146.911 84.274 147.63 84.274ZM160.092 84.318C160.268 84.318 160.466 84.3327 160.686 84.362C160.921 84.3767 161.148 84.406 161.368 84.45C161.588 84.4793 161.786 84.516 161.962 84.56C162.153 84.5893 162.292 84.6187 162.38 84.648L162.028 86.43C161.867 86.3713 161.596 86.3053 161.214 86.232C160.848 86.144 160.371 86.1 159.784 86.1C159.403 86.1 159.022 86.144 158.64 86.232C158.274 86.3053 158.032 86.3567 157.914 86.386V96H155.868V85.044C156.352 84.868 156.954 84.7067 157.672 84.56C158.391 84.3987 159.198 84.318 160.092 84.318ZM163.925 98.134C164.087 98.2073 164.292 98.2733 164.541 98.332C164.805 98.4053 165.062 98.442 165.311 98.442C166.118 98.442 166.749 98.2587 167.203 97.892C167.658 97.54 168.069 96.9607 168.435 96.154C167.511 94.394 166.646 92.5313 165.839 90.566C165.047 88.586 164.387 86.584 163.859 84.56H166.059C166.221 85.22 166.411 85.9313 166.631 86.694C166.866 87.4567 167.123 88.2413 167.401 89.048C167.68 89.8547 167.981 90.6613 168.303 91.468C168.626 92.2747 168.963 93.052 169.315 93.8C169.873 92.26 170.357 90.7347 170.767 89.224C171.178 87.7133 171.567 86.1587 171.933 84.56H174.045C173.517 86.716 172.931 88.7913 172.285 90.786C171.64 92.766 170.943 94.6213 170.195 96.352C169.902 97.012 169.594 97.5767 169.271 98.046C168.963 98.53 168.619 98.926 168.237 99.234C167.856 99.542 167.423 99.7693 166.939 99.916C166.47 100.063 165.935 100.136 165.333 100.136C165.172 100.136 165.003 100.121 164.827 100.092C164.651 100.077 164.475 100.048 164.299 100.004C164.138 99.9747 163.984 99.938 163.837 99.894C163.705 99.85 163.61 99.8133 163.551 99.784L163.925 98.134Z" fill="#BDCDEC"/>
  <path fill-rule="evenodd" clip-rule="evenodd" d="M55.22 59.3764C56.0003 59.3764 56.7094 59.8302 57.0362 60.5388L62.9639 73.3906C63.2908 74.0991 63.9998 74.5529 64.7801 74.5529H65.67C67.1264 74.5529 68.0945 73.046 67.4889 71.7214L49.3575 32.0588C48.5089 30.1303 45.768 30.1275 44.9259 32.0588L26.7945 71.7214C26.1889 73.046 27.157 74.5529 28.6134 74.5529H29.22C30.0003 74.5529 30.7094 74.0991 31.0362 73.3906L36.9639 60.5388C37.2908 59.8302 37.9998 59.3764 38.7801 59.3764H55.22ZM48.4324 39.4966C48.1077 38.6315 46.8839 38.6318 46.5597 39.4971L42.0062 51.6491C41.7613 52.3028 42.2446 53 42.9427 53H47.4954H52.0567C52.755 53 53.2383 52.3024 52.9929 51.6486L50.4977 45L48.4324 39.4966Z" fill="white"/>
  <defs>
    <linearGradient id="paint0_linear" x1="21.2301" y1="13.5105" x2="190.611" y2="65.7209" gradientUnits="userSpaceOnUse">
      <stop stop-color="#95BAFD"/>
      <stop offset="0.557292" stop-color="#7B7FF3"/>
      <stop offset="1" stop-color="#946BED"/>
    </linearGradient>
  </defs>
</svg>
