<?xml version="1.0" encoding="utf-8"?>
<!-- Generator: Adobe Illustrator 19.2.0, SVG Export Plug-In . SVG Version: 6.00 Build 0)  -->
<svg version="1.1" id="Layer_1" xmlns="http://www.w3.org/2000/svg" xmlns:xlink="http://www.w3.org/1999/xlink" x="0px" y="0px"
	 width="230.8px" height="219.3px" viewBox="0 0 230.8 219.3" style="enable-background:new 0 0 230.8 219.3;" xml:space="preserve"
	>
<style type="text/css">
	.st0{fill:#FFFFFF;}
</style>
<title>Seventh-Day Adventist Church Logo</title>
<path class="st0" d="M158.5,139.5c0.9,0,1.7,0.2,2.4,0.2c1.8,0,3.6-0.2,6-0.2c5,0,9.8,3.8,9.8,8.8c0,6.3-3,10.7-10.7,10.7
	c-1.4,0-2.9-0.2-4.2-0.2l-3,0.2c-0.2,0-0.3-0.1-0.3-0.3c0-0.6,2,0.2,2-2.6v-13.6c0-2.9-2.3-2-2.3-2.7
	C158,139.6,158.2,139.5,158.5,139.5z M167,158.3c3.9,0,7.7-2.1,7.7-8.6c0-6.2-4.1-9.7-9.4-9.7c-2.7,0-2.7,0.5-2.7,1.8v13.3
	c-0.1,0.7-0.1,1.3,0.2,2C163.9,158,165.4,158.4,167,158.3z M181.9,151.4c-0.5-0.1-1.1,0.1-1.4,0.6l-1.8,3.9
	c-0.2,0.3-0.3,0.6-0.3,0.9c0,2,2,1.1,2,1.8c0,0.8-0.5,0.5-0.8,0.5c-0.8,0-1.5-0.2-2.3-0.2c-0.8,0-1.5,0.2-2.3,0.2
	c-0.2,0-0.3-0.1-0.3-0.3c0-0.6,1.4-0.2,2-1.8l6.6-14c1.7-3.5,1.7-3.9,2.1-3.9c0.3,0.2,0.5,0.6,0.6,0.9l5.9,14.3
	c0.4,1.1,0.8,2.2,1.4,3.2c0.9,1.2,2.4,0.6,2.4,1.4c0,0.1,0,0.3-0.2,0.3c0,0-0.1,0-0.1,0c-1.2,0-2.3-0.2-3.5-0.2
	c-0.8,0-1.5,0.2-2.3,0.2c-0.2,0-0.6,0-0.6-0.3c0-0.8,1.7-0.3,1.7-1.4c-0.2-0.9-0.5-1.8-0.8-2.7l-0.9-2.3c-0.1-0.6-0.6-1-1.2-1.1
	H181.9L181.9,151.4z M187.5,150.2c0.6,0,0.6-0.2,0.5-0.5l-2.7-6.6c-0.2-0.3-0.3-0.3-0.5,0l-3,6.8c-0.2,0.3,0,0.5,0.3,0.5h5.4
	C187.5,150.3,187.5,150.2,187.5,150.2z M192.8,139.5c0.8,0,1.2,0.2,3,0.2c0.9,0,1.7-0.2,2-0.2c0.3,0,0.6,0,0.6,0.3
	c0,0.3-1.2,0.5-1.2,1.2c0.1,0.4,0.2,0.8,0.5,1.2l3.3,5.4c0.2,0.2,0.4,0.4,0.6,0.6c0.3-0.1,0.5-0.3,0.6-0.6l2.9-4.5
	c0.3-0.4,0.6-1,0.6-1.5c0-1.4-2.1-0.8-2.1-1.5c0-0.3,0.3-0.3,0.6-0.3c0.6,0,1.4,0.2,2,0.2c0.6,0,1.7-0.2,2.4-0.2
	c0.2,0,0.3,0.1,0.3,0.3c-0.1,0.3-0.3,0.5-0.6,0.5c-0.7,0.5-1.2,1.2-1.5,2l-3.9,6c-0.3,0.3-0.6,0.7-0.6,1.2v6.8
	c0,2.4,2.3,1.7,2.3,2.4c0,0.3-0.2,0.3-0.6,0.3c-0.5,0-2-0.2-3-0.2c-1.1,0-2.3,0.2-2.6,0.2c-0.1,0-0.3,0-0.3-0.2c0,0,0-0.1,0-0.1
	c0-0.8,2.1,0,2.1-2V150c-0.1-0.5-0.3-1-0.6-1.4l-4.7-7.4c-0.8-1.2-2-0.8-2-1.4C192.3,139.8,192.5,139.5,192.8,139.5z M166.2,166
	c1.5,0,2.9,0.2,4.4,0.2c1.5,0,2.6-0.2,3.8-0.2c0.6,0,0.8,0.2,0.8,0.3c0,0.9-2.9,0.2-2.9,3v21.7c0,2.9,3.5,1.8,3.5,3
	c0,0.3-0.2,0.3-0.8,0.3c-0.9,0-2.7-0.2-4.4-0.2c-2.4,0-3.3,0.2-3.9,0.2c-0.6,0-0.8-0.2-0.8-0.6c0-1.2,3,0.2,3-3.8v-20.7
	c0-2.9-3.3-2.1-3.3-3C165.7,166.1,166,166,166.2,166z M151,201.6c0.9,0,1.8,0.2,2.7,0.2s1.7-0.2,2.3-0.2c0.6,0,0.5,0.2,0.5,0.2
	c0,0.6-1.8,0.2-1.8,2v5.3c0,0.3,0,0.5,0.3,0.5h9.1c0.3,0,0.2-0.6,0.2-0.8v-5c0-1.8-1.8-1.4-1.8-1.8c0-0.2,0.2-0.3,0.4-0.3
	c0,0,0,0,0,0c0.8,0,2.1,0.2,2.6,0.2c0.9,0,1.2-0.2,1.8-0.2s0.8,0.2,0.8,0.3c0,0.5-1.7,0-1.7,1.8v13c0,1.8,2.3,1.4,2.3,2
	c0,0.2-0.1,0.3-0.3,0.3c-0.6,0-1.4-0.2-2.3-0.2c-1.7,0-2.3,0.2-2.7,0.2c-0.2,0-0.5,0.2-0.5-0.3s1.7-0.2,1.7-1.8V211
	c0-0.3,0.2-0.6-0.2-0.6h-9.1c-0.3,0-0.3,0.2-0.3,0.5v6c0,1.7,2.3,1.2,2.3,2c0,0.2-0.2,0.2-0.3,0.2c-0.2,0-2.1-0.2-3.5-0.2
	c-0.7,0-1.4,0-2.1,0.2c-0.2,0-0.3-0.1-0.3-0.3c0-0.8,2,0.2,2-2.4v-12.5c0-1.8-2.3-1.4-2.3-1.8S150.6,201.6,151,201.6z M85.4,148.5
	c2.9,0,2.1-2.3,2.9-2.3c0.3,0,0.3,0.3,0.3,0.6v5c0,0.1,0,0.3-0.2,0.3c0,0-0.1,0-0.1,0c-0.9,0,0.2-2.4-2.3-2.4H82
	c-0.6,0-0.6,0.5-0.6,0.9v4.9c0,1.7-0.2,2.4,2.1,2.4c6.5,0,7.4-2.9,7.7-2.9s0.2,0.3,0.2,0.3c-0.2,1-0.6,2-1.4,2.7
	c-0.7,0.8-1.7,1.1-2.7,0.9c-2.1,0-4.2-0.2-6.3-0.2c-1.2,0-2.3,0.2-3.3,0.2c-0.2,0-0.4-0.1-0.4-0.3c0,0,0,0,0,0
	c0.3-0.4,0.7-0.6,1.2-0.8c0.8-0.3,0.8-1.2,0.8-2.4V143c0-1.2,0-2.6-1.5-2.9c-0.4,0-0.7-0.1-0.9-0.5c0-0.2,0.2-0.3,0.9-0.3
	c5.3,0,6.6,0.2,7.8,0.2c0.6,0,3-0.2,3.9-0.2c0.3,0,0.3,0.3,0.3,0.6c0,3-0.3,3.3-0.6,3.3c-0.8,0-0.2-1.4-0.8-2
	c-0.8-0.9-3.6-0.8-4.7-0.8c-2.7,0-2.7-0.2-2.7,1.8v5.1c0,0.9,0,0.9,1.1,0.9L85.4,148.5L85.4,148.5z M91,139.5c0.5,0,0.9,0.2,1.4,0.2
	s0.8-0.2,1.2-0.2c0.3,0.1,0.6,0.3,0.8,0.6l13.3,14.6l0.3,0.3c0.1-0.1,0.1-0.2,0.2-0.3v-11.6c0-3.6-3-2.6-3-3.5
	c0-0.2,0.1-0.3,0.3-0.3c0.8,0,1.7,0.2,2.4,0.2c0.8,0,2.1-0.2,2.9-0.2c0.1,0,0.2,0.1,0.3,0.2c0,0.8-1.7,0.3-1.7,2.3v16
	c0.1,0.4,0,0.8-0.2,1.2c-0.5-0.1-0.9-0.3-1.1-0.8l-11.9-13.4c-0.2,0-0.5-0.5-0.6-0.5s-0.2,0.2-0.2,0.8v11.3c0,2.6,2.4,1.7,2.4,2.3
	c0,0.1,0,0.3-0.2,0.3c0,0-0.1,0-0.1,0c-0.8,0-1.4-0.2-2.9-0.2c-0.9,0-2.4,0.2-2.6,0.2c-0.1,0-0.3,0-0.3-0.2c0,0,0-0.1,0-0.1
	c0-0.9,2.4,0.3,2.4-3.8v-10.3c0-5.7-3.3-4.1-3.3-5.1C90.6,139.6,90.9,139.5,91,139.5z M113.8,141c-1.8,0-1.8,0.5-2.3,2
	c-0.2,0.3-0.2,0.6-0.5,0.6c-0.2,0-0.3-0.1-0.3-0.3l0.3-2.8c0.2-0.3,0-1.1,0.6-1.1c2.1,0,4.4,0.2,7.8,0.2c5,0,7.5-0.2,8.2-0.2
	s0.8,0.2,0.8,0.8l0.2,2.3c0,0.3,0,0.6-0.3,0.6c-0.9,0,0.5-2.1-2.3-2.1h-3.9c-1.2,0-1.2-0.2-1.2,1.4v14.2c0,2.3,2.3,1.4,2.3,2.3
	c0,0.1,0,0.3-0.2,0.3c0,0-0.1,0-0.1,0c-0.8,0-1.5-0.2-2.3-0.2c-1.3,0-2.5,0-3.8,0.2c-0.1,0-0.3,0-0.3-0.2c0,0,0-0.1,0-0.1
	c0-0.8,2.3-0.3,2.3-2v-14.5c0-0.2,0.2-1.2-0.3-1.2L113.8,141L113.8,141L113.8,141z M128.5,139.5c1.1,0,2,0.2,3,0.2
	c1.1,0,1.8-0.2,2.6-0.2c0.5,0,0.5,0.2,0.5,0.3c0,0.5-2,0-2,2.1v6c0,0.3,0,0.5,0.3,0.5H143c0.3,0,0.3-0.8,0.3-0.8V142
	c0-2-2.1-1.5-2.1-2.1c0-0.2,0.2-0.3,0.6-0.3c0.9,0,2.3,0.2,2.9,0.2c1.1,0,1.5-0.2,2-0.2c0.8,0,0.8,0.3,0.8,0.5c0,0.5-1.8,0-1.8,2
	v14.6c0,2,2.4,1.5,2.4,2.3c0,0.2-0.1,0.3-0.3,0.3c-0.8,0-1.7-0.2-2.7-0.2c-1.8,0-2.6,0.2-3,0.2c-0.2,0-0.6,0.2-0.6-0.3
	c0-0.8,2-0.3,2-2V150c0-0.5,0.2-0.8-0.3-0.8h-10.3c-0.3,0-0.3,0.2-0.3,0.5v6.9c0,2,2.6,1.4,2.6,2.3c0,0.2-0.2,0.2-0.5,0.2
	c-0.3,0-2.4-0.2-3.8-0.2c-0.8,0-1.6,0-2.4,0.2c-0.3,0-0.3-0.2-0.3-0.5c0-0.8,2.3,0.2,2.3-2.6v-14.2c0-2-2.4-1.5-2.4-2.1
	C128,139.5,128.2,139.4,128.5,139.5z M157.1,149.3c0,1.4,0.2,1.4-0.9,1.7l-5.6,2c-0.4,0.2-0.8,0.3-1.2,0.5c-0.5,0-0.3-0.5-0.3-0.8
	c0-1.4-0.2-1.4,0.9-1.8l5.6-2c0.4-0.2,0.8-0.3,1.2-0.5C157.3,148.4,157.1,149,157.1,149.3z M102.2,179.1c4.2,0,3.2-3.3,4.1-3.3
	c0.3,0.1,0.5,0.4,0.5,0.8c0,1.4-0.2,2.7-0.2,4.1c0,1.1,0.2,2.1,0.2,3.2c0,0.3-0.2,0.6-0.4,0.6c0,0,0,0,0,0c-1.2,0,0.2-3.5-3.3-3.5
	h-6c-0.9,0-0.8,0.8-0.8,1.4v7.4c0,2.4-0.3,3.3,3,3.3c9.4,0,10.7-4.1,11.3-4.1c0.2,0,0.3,0.2,0.3,0.4c0,0,0,0,0,0
	c-0.2,1.5-0.9,2.9-2,3.9c-1,1.1-2.5,1.6-3.9,1.4c-3,0-6.2-0.2-9.2-0.2c-1.7,0-3.3,0.2-5,0.2c-0.2,0-0.5-0.1-0.6-0.3
	c0.2-0.5,0.6-0.5,1.8-1.1c1.2-0.6,1.2-1.5,1.2-3.5v-18.4c0-1.8,0-3.8-2.1-4.1c-0.3-0.2-1.2-0.2-1.2-0.8c0-0.3,0.3-0.5,1.4-0.5
	c7.5,0,9.7,0.2,11.5,0.2c0.8,0,4.5-0.2,5.7-0.2c0.3,0,0.5,0.3,0.5,0.9c0,4.5-0.6,4.8-0.8,4.8c-0.9,0-0.3-2-0.9-2.9
	c-1.1-1.4-5.3-1.2-6.9-1.2c-3.9,0-3.8-0.2-3.8,2.6v7.5c0,1.4-0.2,1.4,1.5,1.4h4.2C102.2,179.3,102.2,179.1,102.2,179.1z M111.1,166
	c0.8,0,1.4,0.2,2,0.2s1.2-0.2,1.8-0.2c0.4,0.2,0.8,0.5,1.1,0.9l19.3,21.4c0.1,0.2,0.2,0.4,0.5,0.5c0.2,0,0.2-0.2,0.2-0.5v-16.9
	c0-5.3-4.5-3.8-4.5-5.1c0-0.3,0.2-0.3,0.5-0.3c1.2,0,2.4,0.2,3.6,0.2s3.2-0.2,4.1-0.2c0.2,0,0.3,0.1,0.3,0.3c0,1.1-2.4,0.3-2.4,3.3
	V193c0,1.2,0,1.8-0.3,1.8c-0.7-0.1-1.2-0.6-1.5-1.2L118.2,174c-0.3-0.3-0.6-0.5-0.9-0.8c-0.2,0-0.3,0.2-0.3,0.9v16.6
	c0,3.6,3.5,2.3,3.5,3.3c0,0.3,0,0.6-0.5,0.6c-0.9,0-2.1-0.2-4.1-0.2c-1.4,0-3.5,0.2-3.8,0.2c-0.6,0-0.6-0.2-0.6-0.5
	c0-1.4,3.5,0.3,3.5-5.3V174c0-8.3-4.8-6-4.8-7.5C110.6,166.3,111,166,111.1,166z M144.3,168.3c-2.6,0-2.7,0.6-3.3,2.9
	c-0.2,0.5-0.2,0.9-0.8,0.9c-0.3,0-0.3-0.3-0.3-0.6l0.5-3.9c0-0.5,0-1.7,0.8-1.7c3.2,0,6.2,0.2,11.5,0.2c7.2,0,11-0.2,11.8-0.2
	c0.5-0.1,1.1,0.2,1.2,0.7c0,0.2,0,0.3,0,0.5l0.2,3.3c0,0.3,0.2,0.9-0.5,0.9c-1.5,0,0.8-3-3.5-3h-5.9c-1.5,0-1.7,0.2-1.7,2v20.5
	c0,3.5,3.3,2.1,3.3,3.3c0,0.2,0.2,0.5-0.3,0.5c-0.9,0-2.1-0.2-3.3-0.2c-4.5,0-5.3,0.2-5.6,0.2c-0.3,0-0.5-0.2-0.5-0.6
	c0-0.9,3.2-0.6,3.2-3v-21c0-0.3,0.2-1.8-0.6-1.8h-6.2V168.3L144.3,168.3z M79.1,201.6c0.9,0,1.8,0.2,2.7,0.2s1.5-0.2,2.3-0.2
	c0.5,0,0.5,0.2,0.5,0.2c0,0.6-1.8,0.2-1.8,2v5.3c0,0.3,0,0.5,0.3,0.5h9.1c0.3,0,0.3-0.6,0.3-0.8v-5c0-1.8-1.8-1.4-1.8-1.8
	c0-0.1,0-0.3,0.2-0.3c0,0,0.1,0,0.1,0c0.9,0,2.1,0.2,2.6,0.2c0.9,0,1.4-0.2,1.8-0.2s0.6,0.2,0.6,0.3c0,0.5-1.7,0-1.7,1.8v13
	c0,1.8,2.3,1.4,2.3,2c0,0.2-0.1,0.3-0.3,0.3c-0.8,0-1.4-0.2-2.3-0.2c-1.7,0-2.3,0.2-2.7,0.2s-0.6,0.2-0.6-0.3c0-0.5,1.8-0.2,1.8-1.8
	V211c0-0.3,0.2-0.6-0.3-0.6H83c-0.3,0-0.3,0.2-0.3,0.5v6c0,1.7,2.4,1.2,2.4,2c0,0.2-0.2,0.2-0.5,0.2c-0.3,0-2.1-0.2-3.5-0.2
	c-0.7-0.1-1.3,0-2,0.2c-0.1,0-0.3,0-0.3-0.2c0,0,0-0.1,0-0.1c0-0.8,2,0.2,2-2.4v-12.5c0-1.8-2.1-1.4-2.1-1.8c0-0.1,0-0.3,0.2-0.3
	C79,201.6,79.1,201.6,79.1,201.6L79.1,201.6z M112.9,212.2v-8c0-2.6-2.3-1.5-2.3-2.4c0-0.2,0.2-0.2,0.3-0.2c0.9,0,1.8,0.2,2.9,0.2
	c0.5,0,0.9-0.2,1.4-0.2c0.2,0,0.3,0.1,0.3,0.3c0,0.8-1.4,0.2-1.4,2.4v7.5c0,1.2,0.3,7.2-6.9,7.2c-6.5,0-7.7-3.6-7.7-7.4v-8.3
	c0-1.4-2-0.9-2-1.7c0.2-0.1,0.4-0.2,0.6-0.2c0.6,0,1.2,0.2,2,0.2c0.8,0,1.7-0.2,2.3-0.2c0.2,0,0.8-0.2,0.8,0.2c0,0.8-1.7,0-1.7,1.8
	v8.8c0,3.9,2.6,5.7,5.9,5.7C111.9,218.1,112.9,215.1,112.9,212.2L112.9,212.2z M131.2,218.9c-1.7-0.1-3.1-1.2-3.8-2.7l-2.7-4.4
	c-0.9-1.4-0.6-1.4-3.3-1.4c-0.8,0-0.6,0.5-0.6,0.8v5.1c0,2.1,2.6,1.4,2.6,2.3c0,0.3-0.3,0.2-0.5,0.2c-1-0.1-1.9-0.2-2.9-0.2
	c-0.9,0-1.8,0.2-2.9,0.2c-0.2,0-0.3-0.1-0.3-0.3c0-0.6,1.8-0.3,1.8-2.1v-12.5c0-2.4-2.1-1.4-2.1-2.3c0-0.2,0.2-0.3,0.4-0.3
	c0,0,0,0,0,0c0.5,0.1,1.1,0.1,1.7,0.2c1.4,0,2.9-0.2,4.1-0.2c0.5,0,5.9-0.6,5.9,4.2c-0.1,1.9-1.3,3.6-3.2,4.2l4.1,6.2
	c1.8,2.7,3,1.8,3,2.4C132.8,218.9,131.5,218.9,131.2,218.9z M127,206.3c0-3-2.3-3.9-4.8-3.9c-0.9,0-1.4-0.2-1.4,0.9v6.2
	c0,0.5,1.5,0.3,2.7,0.3c1.7,0.2,3.3-1,3.5-2.7C127,206.8,127,206.6,127,206.3L127,206.3z M148.5,202.9c0.3,0,0.3,0.3,0.3,2
	c0,1.4,0.3,2.1-0.2,2.1c-0.5,0-0.5-0.6-0.6-0.8c-1.5-2.7-3.3-4.2-6.5-4.2c-4.8,0-7.1,3.2-7.1,7.7s2.4,8.6,7.1,8.6
	c2.7,0.1,5.2-1.2,6.6-3.5l0.3-0.3c0.2,0,0.3,0.1,0.3,0.3l-0.6,2.4c0,0.2-1.8,2-7.2,2c-4.6,0.3-8.5-3.2-8.7-7.8c0-0.3,0-0.5,0-0.8
	c-0.2-4.9,3.7-9,8.6-9.2c0.1,0,0.2,0,0.3,0c4.5,0,5.9,2,6.6,2C148.2,203.3,148.4,203,148.5,202.9L148.5,202.9z M68.5,157.8
	c-0.1,0.6-0.4,1.2-0.9,1.7c-0.5,0-0.8-1.2-1.1-1.8l-6.9-16.2c-0.8-1.7-2.1-1.2-2.1-1.8c0-0.3,0.2-0.3,0.5-0.3c0.8,0,1.7,0.2,2.6,0.2
	c0.9,0,1.8-0.2,2.1-0.2c0.2,0,0.4,0.1,0.5,0.3c0,0.3-1.2,0.3-1.2,1.4c0,0.4,0.1,0.7,0.3,1.1l4.8,11.5c0.6,1.4,0.8,2,1.1,2
	c0.3-0.2,0.5-0.4,0.6-0.8l4.8-11.9c0.3-0.6,0.4-1.3,0.3-2c0-1.2-1.8-0.8-1.8-1.4c0-0.3,0.2-0.3,0.5-0.3c0.6,0,1.2,0.2,1.8,0.2
	c1.4,0,1.8-0.2,2.3-0.2c0.2,0,0.4,0.1,0.4,0.3c0,0,0,0,0,0c0,0.6-0.8-0.2-1.7,1.8L68.5,157.8z M54.8,159c-2.1,0-4.2-0.2-6.3-0.2
	c-1.1,0-2.3,0.2-3.3,0.2c-0.2,0-0.4-0.1-0.4-0.3c0,0,0,0,0,0c0.3-0.4,0.7-0.6,1.2-0.8c0.8-0.3,0.8-1.2,0.8-2.4V143
	c0-1.2,0-2.6-1.5-2.9c-0.4,0-0.7-0.1-0.9-0.5c0-0.2,0.2-0.3,0.9-0.3c5.3,0,6.6,0.2,7.8,0.2c0.6,0,3-0.2,3.9-0.2
	c0.3,0,0.3,0.3,0.3,0.6c0,3-0.3,3.3-0.6,3.3c-0.8,0-0.2-1.4-0.8-2c-0.6-0.9-3.5-0.8-4.7-0.8c-2.7,0-2.6-0.2-2.6,1.8v5.1
	c0,0.9-0.2,0.9,0.9,0.9h3c2.9,0,2.3-2.3,2.9-2.3c0.3,0,0.3,0.3,0.3,0.6c0,0.9-0.2,1.8-0.2,2.7c0,0.9,0.2,1.5,0.2,2.3
	c0,0.1,0,0.3-0.2,0.3c0,0-0.1,0-0.1,0c-0.9,0,0.2-2.4-2.3-2.4h-4.1c-0.6,0-0.5,0.5-0.5,0.9v5c0,1.7-0.3,2.4,2,2.4
	c6.5,0,7.4-2.9,7.7-2.9c0.3,0,0.2,0.3,0.2,0.3c-0.2,1-0.6,2-1.4,2.7C56.6,159.2,56,159.1,54.8,159L54.8,159z M77.6,192.8
	c-0.5,1.1-0.8,2.4-1.4,2.4s-1.2-1.8-1.5-2.6l-10-23.5c-0.9-2.4-3.2-1.7-3.2-2.6c0-0.3,0.3-0.6,0.6-0.6c1.2,0,2.4,0.2,3.8,0.2
	c1.1,0,2.7-0.2,3.2-0.2c0.2,0,0.5,0.1,0.6,0.3c0.2,0.6-1.7,0.6-1.7,2.1c0,0.6,0.1,1.1,0.3,1.7l7.1,16.6c0.9,2.3,1.2,3,1.7,3
	c0.5-0.2,0.8-0.7,0.8-1.2l6.9-17.2c0.4-0.8,0.6-1.8,0.6-2.7c0-1.8-2.7-1.2-2.7-2c0-0.3,0.2-0.6,0.5-0.6c0,0,0.1,0,0.1,0
	c0.9,0,1.8,0.2,2.7,0.2c2,0,2.4-0.2,3-0.2c0.3-0.1,0.7,0.1,0.7,0.4c0,0.1,0,0.1,0,0.2c0,0.9-1.2-0.2-2.3,2.6L77.6,192.8z
	 M27.3,157.2l-0.9-4.8c-0.2-0.8,0-1.2,0.3-1.2c0.6,0,0.6,0.5,0.8,1.2c1.1,3.4,4.2,5.6,7.7,5.6c3.5,0,6.9-2,6.9-5.9
	c0-7.1-14.9-3.2-14.9-12.8c0-4.7,3.9-6.9,8.2-6.9c2.1-0.1,4.3,0.4,6.2,1.4c0.3,0,0.5-0.5,0.8-0.5c0.3,0,0.5,0.2,0.5,0.6l0.6,5
	c0.1,0.2,0.1,0.4-0.1,0.5c-0.1,0-0.1,0.1-0.2,0.1c-0.5-0.2-0.8-0.7-0.8-1.2c-1-3-3.9-5-7.1-4.8c-2.9,0-6,1.4-6,4.8
	c0,6.9,14.9,2.9,14.9,13c0,3.2-2.3,7.7-10.6,7.7C30.8,159.4,27.5,158,27.3,157.2L27.3,157.2z M69.7,219.1c-4.5,0.2-8.4-3.3-8.6-7.9
	c0-0.2,0-0.5,0-0.7c-0.2-4.8,3.5-9,8.3-9.2c0.1,0,0.3,0,0.4,0c4.5,0,5.9,2,6.6,2c0.2-0.1,0.4-0.2,0.6-0.3c0.3,0,0.3,0.3,0.3,2
	c0,1.4,0.3,2.1-0.2,2.1c-0.3-0.2-0.5-0.4-0.6-0.8c-1.7-2.7-3.3-4.2-6.5-4.2c-4.8,0-7.1,3.2-7.1,7.7s2.4,8.6,7.1,8.6
	c3.9,0,6.3-2.4,6.6-3.5c0-0.2,0.1-0.3,0.3-0.3c0.2,0,0.2,0.2,0.2,0.3l-0.6,2.4C77,217.2,75.3,219.1,69.7,219.1L69.7,219.1z
	 M42.3,194.5c-0.3,0-2.4,0.2-3.8,0.2c-2.3,0-3.5-0.2-5.3-0.2c-1.5,0-2.9,0.2-4.4,0.2c-0.3,0-1.2,0-1.2-0.5c0-1.4,3.2-0.8,3.2-2.9
	c-0.3-1.7-0.9-3.4-1.7-5l-1.8-4.4c-0.6-1.2-0.8-2-2.3-2H13.3c-1-0.2-2.1,0.3-2.6,1.2l-3.3,7.5c-0.3,0.6-0.4,1.2-0.5,1.8
	c0,3.8,3.8,2.1,3.8,3.5c0,0.9-0.8,0.8-1.4,0.8c-1.5,0-3-0.2-4.5-0.2s-2.9,0.1-4.4,0.1c-0.3,0-0.5-0.3-0.5-0.6c0,0,0,0,0,0
	c0-1.1,2.4-0.2,3.9-3.3l12.8-27.2c3.2-6.8,3.3-7.7,4.1-7.7s0.9,1.7,1.2,2l11.2,27.6c0.7,2.1,1.6,4.1,2.7,6c0.5,1,1.6,1.6,2.7,1.7
	c0.9,0,1.7-1.1,1.7-2.9v-20.1c0-4.1-3.3-2.9-3.3-3.9c0-0.3,0.3-0.3,0.6-0.3c1.2,0,2.4,0.2,3.6,0.2c2.7,0,5.3-0.2,8.8-0.2
	c7.1,0,14.2,5.4,14.2,12.8c0,9.2-4.4,15.7-15.5,15.7C46.3,194.5,44.4,194.5,42.3,194.5z M43.3,169.6v19.1c0,0.6-0.2,2.6,0.3,2.9
	c1.4,1.4,4.4,1.8,6.2,1.8c5.7,0,11.2-3,11.2-12.4c0-9.1-6-14-13.6-14C43.5,167.1,43.3,167.6,43.3,169.6z M19.2,163.6l-6,13
	c-0.3,0.8,0,0.9,0.8,0.9h10.6c1.2,0,1.2-0.3,0.9-1.1l-5.3-12.8C19.8,162.8,19.6,162.8,19.2,163.6z M222.3,167.2l0.2,3.3
	c0,0.3,0.2,0.9-0.5,0.9c-1.5,0,0.8-3-3.5-3h-5.9c-1.7,0-1.7,0.2-1.7,2v20.4c0,3.5,3.3,2.1,3.3,3.3c0,0.2,0.2,0.5-0.3,0.5
	c-0.9,0-2.1-0.2-3.3-0.2c-4.5,0-5.3,0.2-5.6,0.2c-0.3,0-0.5-0.2-0.5-0.6c0-0.9,3.2-0.6,3.2-3v-21c0-0.3,0.2-1.8-0.6-1.8H199
	c-2.4,0-2.4,0.9-2.4,2.3c0,0.5,0.3,2.3-0.5,2.3c-0.5-0.3-0.8-0.7-0.9-1.2c-1.2-3.5-4.1-4.7-7.5-4.7c-3.5,0-6.6,1.5-6.6,5.3
	c0,7.5,16.5,3.2,16.5,14.3c0,3.5-2.4,8.6-11.5,8.6c-3,0-6.6-1.5-6.9-2.3l-0.9-5.1c-0.2-0.8,0-1.2,0.5-1.2c0.5,0,0.6,0.5,0.8,1.4
	c1.1,3.7,4.6,6.2,8.5,6c3.9,0,7.5-2.1,7.5-6.5c0-7.7-16.5-3.5-16.5-13.9c0-5.1,4.4-7.5,9.1-7.5c2.3-0.1,4.7,0.4,6.8,1.4
	c0.6,0,0.8-1.1,1.5-1.1c3.2,0,7.7,0.2,12.8,0.2c7.2,0,11-0.2,11.8-0.2C222.2,166,222.3,166.3,222.3,167.2z"/>
<path class="st0" d="M104.2,104.9v-5.3h7.4v-0.5c0-5.3-2.4-9.1-19.2-6.2l-27.5,4.8l-15.7,22l38-6.8c11.3-2,21.4-2.4,24.5,6.6v-14.8
	C111.7,104.9,104.2,104.9,104.2,104.9z"/>
<path class="st0" d="M116.8,119.7c0-7.1,4.2-12.1,12.8-20.7l6-6l27.8,4.8l15.8,21.9l-36.5-6.4C130.6,111.1,120.2,110.3,116.8,119.7z
	"/>
<path class="st0" d="M118.3,99.6c2.7-5.9,8.6-11.3,11.9-14.6l2.4-2.4c10.3-10.3,12.2-14.5,12.8-21.4c0.4,0.8,0.7,1.7,0.8,2.6
	c0.5,3.8,0.1,7.7-1.2,11.3c-2.1,6.2-7.1,11.2-13.6,17.7l-7.1,6.9H118.3z"/>
<path class="st0" d="M124.2,14c0,0,0.2-0.2,0.2,0v8.2c0,7.4-9.5,15.8-13.3,19.6L97.2,55.7c-4.8,4.8-14.3,14.2-10.4,23.4
	c0.2,0.3,0.3,0.6-0.3,0.2c-1.1-0.8-2.6-3.3-3-8c-0.8-8.3,5-15.8,11.9-22.8l13.3-13.3C122.3,21.9,123.6,19.6,124.2,14z"/>
<path class="st0" d="M111.3,55.7c3.8-3.8,13.3-12.2,13.3-19.6v-8.2c0-0.2-0.2,0-0.2,0c-0.6,5.4-2,7.8-15.4,21.3L96.8,61.6
	c-4.5,4.5-8.6,9.2-8.3,16.8c0.2,4.7,2.4,8.5,5.9,9.4c1.5,0.3,1.4,0.2,1.1,0c-5-2.3-4.5-11.3,3.5-19.3L111.3,55.7z"/>
<path class="st0" d="M95.9,43.4C85.6,53.7,83.6,57.9,83,64.9c-0.4-0.8-0.7-1.7-0.8-2.6c-0.5-3.8-0.1-7.7,1.2-11.3
	c2.1-6.2,7.1-11.2,13.6-17.7L109,21.4C122.4,8,123.8,5.6,124.4,0.1c0,0,0.2-0.2,0.2,0v8.2c0,7.4-9.5,15.8-13.3,19.6L95.9,43.4z"/>
<path class="st0" d="M117,113h-0.2v-8.2h3.3C118.5,107.3,117.4,110.1,117,113z"/>
<path class="st0" d="M117,99.6h-0.2v-8.3c0-6.2,6-12.8,12.1-18.9l3.9-3.9c3.2-3.2,12.8-12.7,8.8-21.7c-0.2-0.3-0.3-0.6,0.3-0.2
	c1.1,0.8,2.6,3.3,3,8c0.8,8.3-5,15.8-11.9,22.8l-3.6,3.6C120.6,89.8,117.6,93.7,117,99.6z"/>
<path class="st0" d="M117,85.4h-0.2V77c0-5.9,5.9-12.2,8.8-15.1l4.4-4.4c8-8,8.3-16.9,3.5-19.3c-0.3-0.2-0.5-0.3,1.1,0
	c3.5,0.9,5.9,4.7,5.9,9.4c0.2,7.5-3.8,12.2-8.3,16.6l-3.6,3.6C120.9,75.3,117.7,79.7,117,85.4z"/>
<path class="st0" d="M179.8,104c1.8,0,3.2,1.4,3.2,3.2c0,1.8-1.4,3.2-3.2,3.2c0,0,0,0,0,0c-0.9,0-1.8-0.4-2.4-1.1
	c-0.5-0.6-0.7-1.3-0.8-2c0-0.8,0.3-1.5,0.8-2.1C177.9,104.3,178.8,103.9,179.8,104z M179.8,104.3c-0.7,0-1.4,0.3-2,0.8
	c-0.5,0.5-0.8,1.2-0.8,2c0,0.7,0.3,1.4,0.8,2c0.5,0.5,1.2,0.8,2,0.8c0.7,0,1.4-0.3,2-0.8c0.5-0.5,0.8-1.2,0.8-2
	c0.1-1.4-1-2.7-2.4-2.8C180,104.2,179.9,104.2,179.8,104.3L179.8,104.3z M180.1,107.1l0.8,1.1l0.2,0.2c0.1,0.2,0.3,0.4,0.6,0.5h0.2
	c0.1,0,0.2,0.1,0.2,0.2c0,0.2-0.2,0.2-0.5,0.2c-0.4,0-0.7-0.3-0.9-0.6l-0.6-1.1l0,0l-0.2-0.2h-0.3v0.9c0,0.2,0,0.3,0.2,0.5
	c0.1,0.1,0.2,0.1,0.3,0.2c0.2,0,0.2,0,0.2,0.2c0,0.1-0.1,0.2-0.2,0.2h-1.2c-0.2,0-0.2,0-0.2-0.2l0.2-0.2c0.2,0,0.2-0.2,0.3-0.2
	s0-0.3,0-0.6v-2.1c0-0.2-0.1-0.4-0.3-0.4c0,0,0,0,0,0h-0.2c-0.2,0-0.2,0-0.2-0.2c0-0.1,0.1-0.2,0.2-0.2h1.2c0.9,0,1.2,0.3,1.2,0.9
	C180.8,106.5,180.5,106.9,180.1,107.1z M179.3,107h0.3c0.3,0.1,0.7-0.1,0.7-0.4c0-0.1,0-0.1,0-0.2c0-0.2-0.1-0.5-0.3-0.6
	c-0.2-0.2-0.4-0.3-0.6-0.3c-0.2,0-0.3,0-0.3,0.2v0.1L179.3,107C179.2,106.8,179.2,106.9,179.3,107L179.3,107L179.3,107z"/>
<path class="st0" d="M227.6,160.9c1.8,0,3.2,1.4,3.2,3.2c0,1.8-1.4,3.2-3.2,3.2c0,0,0,0,0,0c-0.9,0-1.8-0.4-2.4-1.1
	c-0.5-0.5-0.7-1.2-0.8-2c0-0.8,0.3-1.5,0.8-2.1C225.7,161.3,226.7,160.8,227.6,160.9z M227.6,161.2c-0.7,0-1.4,0.3-2,0.8
	c-0.5,0.5-0.8,1.2-0.8,2c0,0.7,0.3,1.4,0.8,2c0.5,0.5,1.2,0.8,2,0.8c0.7,0,1.4-0.3,2-0.8c0.5-0.5,0.8-1.2,0.8-2c0-0.7-0.3-1.4-0.8-2
	C229,161.5,228.4,161.2,227.6,161.2z M227.9,163.9l0.8,1.1l0.2,0.2c0.1,0.2,0.3,0.4,0.6,0.5h0.2c0.1,0,0.2,0.1,0.2,0.2c0,0,0,0,0,0
	c0,0.2-0.2,0.2-0.5,0.2c-0.4,0-0.7-0.3-0.9-0.6l-0.6-1.1l0,0l-0.2-0.2h-0.3v0.9c0,0.2,0,0.3,0.2,0.5c0.1,0.1,0.2,0.1,0.3,0.2
	c0.2,0,0.2,0,0.2,0.2c0,0.1-0.1,0.2-0.2,0.2l0,0h-1.2c-0.2,0-0.2,0-0.2-0.2l0.2-0.2c0.2,0,0.2-0.2,0.3-0.2v-2.7
	c0-0.2-0.1-0.4-0.3-0.4c0,0,0,0,0,0h-0.2c-0.2,0-0.2,0-0.2-0.2c0-0.1,0.1-0.2,0.2-0.2l0,0h1.2c0.9,0,1.2,0.3,1.2,0.9
	C228.7,163.3,228.4,163.7,227.9,163.9z M227.2,163.9h0.3c0.3,0.1,0.7-0.1,0.7-0.4c0-0.1,0-0.1,0-0.2c0-0.2-0.1-0.5-0.3-0.6
	c-0.2-0.2-0.4-0.3-0.6-0.3c-0.2,0-0.3,0-0.3,0.2v0.2L227.2,163.9L227.2,163.9L227.2,163.9z"/>
</svg>
