<svg xmlns="http://www.w3.org/2000/svg" viewBox="0 0 310.1 84.94"><defs><style>.a{fill:#fff;}</style></defs><title>Asset 1</title><path class="a" d="M28.8,61.74,10.5,65,0,79.64l25.3-4.5c7.6-1.3,14.2-1.6,16.3,4.4v-9.9h-5v-3.5h5v-.3C41.5,62.34,39.9,59.84,28.8,61.74Z"/><path class="a" d="M57.6,61.74l-4,4c-5.7,5.7-8.6,9-8.6,13.8,2.2-6.3,9.2-5.7,17.4-4.2l24.3,4.2L76.2,64.94Z"/><path class="a" d="M54,56.44c-2.2,2.2-6.1,5.8-8,9.7h4.1l4.7-4.7c4.3-4.3,7.6-7.6,9-11.7a16.25,16.25,0,0,0,.8-7.5c-.1-.8-.5-2-.5-1.7-.4,4.7-1.7,7.5-8.5,14.3Z"/><path class="a" d="M41.3,27.74c2.5-2.5,8.8-8.1,8.8-13V9.34c0-.1-.1,0-.1,0-.4,3.7-1.3,5.2-10.2,14.1L31,32.24c-4.7,4.7-8.4,9.6-7.9,15.2.3,3.1,1.3,4.8,2,5.3.3.2.3.1.2-.1-2.7-6.1,3.7-12.4,6.9-15.6Z"/><path class="a" d="M50.1,18.54c0-.1-.1,0-.1,0-.4,3.7-1.3,5.2-10.2,14.1l-8.2,8.2c-3,3-5.7,6.1-5.6,11.1.1,3.1,1.6,5.6,4,6.2,1,.2.9.1.7,0-3.3-1.6-3.1-7.5,2.3-12.8l8.4-8.4c2.5-2.5,8.8-8.1,8.8-13v-5.4Z"/><path class="a" d="M22.5,43c.4-4.7,1.7-7.5,8.5-14.3l10.3-10.3c2.5-2.5,8.8-8.1,8.8-13V0c0-.1-.1,0-.1,0-.4,3.7-1.3,5.2-10.2,14.1L31.9,22c-4.3,4.3-7.6,7.6-9,11.7a16.25,16.25,0,0,0-.8,7.5C22.1,42.14,22.5,43.34,22.5,43Z"/><path class="a" d="M45,75h.1a12.16,12.16,0,0,1,2.1-5.4H44.9V75Z"/><path class="a" d="M55.6,45.54,53,48.14c-4,4-8,8.4-8,12.5v5.5h.1c.4-4,2.4-6.6,8.1-12.4l2.4-2.4c4.7-4.7,8.4-9.6,7.9-15.2-.3-3.1-1.3-4.8-2-5.3-.3-.2-.3-.1-.2.1C64.1,37.14,57.7,43.54,55.6,45.54Z"/><path class="a" d="M45,56.74h.1c.5-3.8,2.6-6.7,7.6-11.7l2.4-2.4c3-3,5.6-6.1,5.5-11.1-.1-3.1-1.6-5.6-4-6.2-1-.2-.9-.1-.7,0,3.3,1.6,3.1,7.5-2.3,12.8L50.7,41c-1.9,1.9-5.8,6.1-5.8,10.1v5.6Z"/><path class="a" d="M265.4,41.64v11c0,2.1-1.6,1.4-1.6,2,0,.2,0,.3.4.3h4.4c.4,0,.4,0,.4-.2,0-.7-1.9-.1-1.9-1.6V41.64c0-1.6,1.5-1.1,1.5-1.6,0-.1-.1-.2-.4-.2-.7,0-1.3.1-2,.1s-1.5-.1-2.3-.1c-.2,0-.2,0-.2.2C263.6,40.54,265.4,40,265.4,41.64Z"/><path class="a" d="M234.3,51.94c-.3,0-1,2.2-6,2.2-1.8,0-1.6-.5-1.6-1.8v-3.9c0-.3-.1-.7.4-.7h3.2c1.8,0,1.1,1.9,1.7,1.9.1,0,.2-.1.2-.3v-3.9c0-.2-.1-.4-.2-.4-.5,0,0,1.7-2.2,1.7h-2.3c-.8,0-.8,0-.8-.7V42c0-1.5,0-1.4,2-1.4.8,0,3.1-.1,3.7.6.3.5,0,1.5.5,1.5.1,0,.4-.1.4-2.5,0-.3,0-.5-.2-.5-.7,0-2.6.1-3,.1-.9,0-2.1-.1-6.1-.1a1.73,1.73,0,0,0-.7.1.37.37,0,0,0-.3-.1c-.3,0-.6.1-1.6.1-.5,0-1-.1-1.5-.1-.2,0-.3,0-.3.3,0,.5,1.4.1,1.4,1.1a4,4,0,0,1-.3,1.5l-3.7,9.2c-.1.3-.2.6-.4.6s-.3-.5-.8-1.6L212.1,42a2.35,2.35,0,0,1-.2-.8c0-.8.9-.8.8-1.1,0-.1-.1-.2-.3-.2s-1.1.1-1.7.1-1.3-.1-2-.1a.27.27,0,0,0-.3.3c0,.5,1.2.1,1.7,1.4l5.3,12.6c.2.4.4,1.4.8,1.4s.5-.7.7-1.3l5.3-12.7c.5-1.3,1.1-1,1.2-1.2a1.07,1.07,0,0,0,.6.2c1.1.1,1.1,1.2,1.1,2.2v9.8c0,1,0,1.6-.6,1.9s-.9.3-.9.6c0,.1.1.2.3.2h7.5a2.38,2.38,0,0,0,2.1-.7,3.46,3.46,0,0,0,1-2.1C234.5,52.14,234.5,51.94,234.3,51.94Z"/><path class="a" d="M305,51.94c-.3,0-1,2.2-6,2.2-1.8,0-1.6-.5-1.6-1.8v-3.9c0-.3-.1-.7.4-.7H301c1.8,0,1.1,1.9,1.7,1.9.1,0,.2-.1.2-.3v-3.9c0-.2-.1-.4-.2-.4-.5,0,0,1.7-2.2,1.7h-2.3c-.8,0-.8,0-.8-.7V42c0-1.5,0-1.4,2-1.4.8,0,3.1-.1,3.7.6.3.5,0,1.5.5,1.5.1,0,.4-.1.4-2.5,0-.3,0-.5-.2-.5-.7,0-2.6.1-3,.1-.9,0-2.1-.1-6.1-.1-.6,0-.7.1-.7.2,0,.3.5.3.7.4,1.1.1,1.1,1.2,1.1,2.2v9.8c0,1,0,1.6-.6,1.9s-.9.3-.9.6c0,.1.1.2.3.2h7.5a2.38,2.38,0,0,0,2.1-.7,3.46,3.46,0,0,0,1-2.1C305.1,52.14,305.1,51.94,305,51.94Z"/><path class="a" d="M239.4,54.94c.2,0,.2-.1.2-.3,0-.6-1.9.2-1.9-1.7v-8.8c0-.4,0-.5.1-.5s.4.4.5.4l9.2,10.4c.4.5.7.6.8.6s.2-.3.2-.9V41.74c0-1.5,1.3-1.2,1.3-1.7a.22.22,0,0,0-.2-.2c-.5,0-1.5.1-2.2.1s-1.3-.1-1.9-.1c-.1,0-.2,0-.2.2,0,.8,2.4-.1,2.4,2.7v9c0,.1,0,.2-.1.2l-.2-.2-10.3-11.4c-.1-.1-.3-.5-.6-.5s-.7.1-1,.1-.7-.1-1-.1c-.1,0-.3.1-.3.2,0,.8,2.6-.4,2.6,4v7.9c0,3-1.9,2.1-1.9,2.8,0,.1,0,.2.3.2h4.2Z"/><path class="a" d="M263.3,42.64c.3,0,.2-.3.2-.5l-.1-1.7c0-.5-.1-.6-.7-.6-.4,0-2.4.1-6.3.1-2.8,0-4.4-.1-6.1-.1-.4,0-.4.6-.4.8l-.2,2.1c0,.1,0,.3.2.3s.3-.3.4-.5c.4-1.2.4-1.5,1.8-1.5h3.4c.3,0,.3.8.3,1v11.2c0,1.3-1.7,1.1-1.7,1.6,0,.2,0,.3.2.3H259a.2.2,0,0,0,.2-.2c0-.7-1.7,0-1.7-1.8v-11c0-1,0-1,.8-1h3.1C263.7,40.94,262.5,42.64,263.3,42.64Z"/><path class="a" d="M196,54.94h5.3c6,0,8.3-3.4,8.3-8.3,0-4-3.7-6.8-7.5-6.8-1.9,0-3.2.1-4.7.1-.6,0-1.3-.1-1.9-.1-.1,0-.3,0-.3.2,0,.6,1.7-.1,1.7,2.1v10.7c0,.9-.4,1.5-.8,1.5a1.67,1.67,0,0,1-1.5-.9,14.84,14.84,0,0,1-1.4-3.2l-5.9-14.7c-.1-.2-.3-1.1-.6-1.1s-.5.5-2.2,4.1L177.7,53c-.8,1.6-2.1,1.2-2.1,1.7,0,.2.1.3.2.3.7,0,1.5-.1,2.3-.1s1.6.1,2.4.1c.4,0,.7.1.7-.4,0-.8-2,.1-2-1.9a2.51,2.51,0,0,1,.2-1l1.8-4c.3-.6.8-.6,1.4-.6h6.3c.8,0,.9.4,1.2,1.1l.9,2.3a11.43,11.43,0,0,1,.8,2.7c0,1.1-1.7.8-1.7,1.5,0,.3.5.3.6.3.8,0,1.5-.1,2.3-.1Zm2.5-3V41.64c0-1,.1-1.4,2.2-1.4,4.1,0,7.3,2.7,7.3,7.5,0,5-2.9,6.6-6,6.6a5.38,5.38,0,0,1-3.3-1C198.5,53.24,198.5,52.24,198.5,51.94Zm-10-6h-5.6c-.4,0-.6-.1-.4-.5l3.2-6.9c.2-.4.3-.4.5,0l2.8,6.8C189.1,45.74,189.1,45.94,188.5,45.94Z"/><path class="a" d="M293.7,40.44c0-.5-.1-.6-.7-.6-.4,0-2.4.1-6.3.1-2.8,0-5.2-.1-6.8-.1-.4,0-.5.6-.8.6a7.33,7.33,0,0,0-3.6-.8c-2.5,0-4.8,1.3-4.8,4,0,5.6,8.7,3.3,8.7,7.4,0,2.3-2,3.4-4,3.4a4.45,4.45,0,0,1-4.5-3.2c-.1-.4-.1-.7-.4-.7s-.3.2-.2.7l.5,2.8c.1.4,2.1,1.2,3.7,1.2,4.9,0,6.1-2.7,6.1-4.5,0-5.9-8.7-3.6-8.7-7.6,0-2,1.8-2.8,3.5-2.8,1.9,0,3.4.7,4,2.5.1.2.2.7.5.7s.2-.9.2-1.2c0-.7,0-1.2,1.3-1.2h4.5c.3,0,.3.8.3,1v11.2c0,1.3-1.7,1.1-1.7,1.6,0,.2,0,.3.2.3h4.7a.2.2,0,0,0,.2-.2c0-.7-1.7,0-1.7-1.8v-11c0-1,0-1,.8-1h3.1c2.2,0,1,1.6,1.8,1.6.3,0,.2-.3.2-.5Z"/><path class="a" d="M101.4,38.84v12.8c0,1.3-.1,2.1-.8,2.4-.9.4-1.2.4-1.2.7s.2.3.4.3c1.1,0,2.3-.1,3.4-.1,2.1-.1,4.2.1,6.4.1,1.2,0,1.8.1,2.7-1a4.2,4.2,0,0,0,1.4-2.7c0-.1,0-.3-.2-.3-.4,0-1.3,2.9-7.8,2.9-2.3,0-2.1-.7-2.1-2.3v-5.1c0-.4-.1-.9.5-.9h4.1c2.3,0,1.4,2.5,2.3,2.5.2,0,.3-.1.3-.4,0-.8-.1-1.5-.1-2.2,0-.9.1-1.8.1-2.8,0-.2-.1-.5-.3-.5-.7,0,.1,2.2-2.8,2.2h-3c-1.1,0-1.1,0-1.1-1v-5.2c0-1.9-.1-1.8,2.6-1.8,1.1,0,4-.2,4.8.8.4.6,0,2,.7,2,.2,0,.6-.2.6-3.3,0-.3-.1-.6-.3-.6-.9,0-3.4.1-4,.1-1.2,0-2.6-.1-7.9-.1-.8,0-1,.1-1,.3s.6.4.8.4C101.4,36.24,101.4,37.64,101.4,38.84Z"/><path class="a" d="M121.6,55.14c3.8,0,4.4-1.5,6.6-2.2v-4.3c0-1.4,1.1-.9,1.1-1.4,0-.3-.4-.2-.6-.2h-3.6c-.2,0-.5,0-.5.2,0,.5,1.9.1,1.9,1.1v3.3c0,1.8-2.5,2.8-4.5,2.8-4.1,0-6.3-3.6-6.3-7.4,0-3.5,1.9-6.8,5.8-6.8,5.1,0,6,4.1,6.6,4.1.2,0,.2-.2.2-.4l-.2-2.8c0-.2.1-.5-.2-.5s-.3.4-.6.4c-.6,0-1.7-1.5-5.4-1.5a7.62,7.62,0,0,0-8,7.8C113.9,52.24,116.9,55.14,121.6,55.14Z"/><path class="a" d="M138.6,55a2.38,2.38,0,0,0,2.1-.7,3.6,3.6,0,0,0,1.1-2.1s0-.3-.2-.3-1,2.2-6,2.2c-1.8,0-1.6-.5-1.6-1.8V41.94c0-1.9,1.6-1.3,1.6-1.8,0-.3-.1-.3-.4-.3s-.8.1-2.1.1c-1.1,0-1.7-.1-2.2-.1-.3,0-.4,0-.4.3s1.8.3,1.8,1.4v10.9c0,1,0,1.6-.6,1.9s-.9.3-.9.6.1.2.3.2c.9,0,1.8-.1,2.6-.1A40.05,40.05,0,0,1,138.6,55Z"/><path class="a" d="M145.7,53.14V41.64c0-1.6,1.5-1.1,1.5-1.6,0-.2-.1-.2-.4-.2-.7,0-1.3.1-2,.1s-1.6-.1-2.4-.1c-.2,0-.2,0-.2.2,0,.5,1.7,0,1.7,1.6v11c0,2.1-1.7,1.4-1.7,2,0,.2.1.3.5.3s.8-.1,2.1-.1c.9,0,1.8.1,2.3.1s.4-.1.4-.2C147.6,54.14,145.7,54.64,145.7,53.14Z"/><path class="a" d="M150.9,43c0-2,1.8-2.8,3.5-2.8a4,4,0,0,1,4.1,2.8c.1.2.2.6.5.6s.3-.2.2-.3l-.3-2.9a.27.27,0,0,0-.3-.3c-.2,0-.3.2-.5.2a7.33,7.33,0,0,0-3.6-.8c-2.5,0-4.8,1.3-4.8,4,0,5.6,8.7,3.3,8.7,7.4,0,2.3-2,3.4-4,3.4a4.45,4.45,0,0,1-4.5-3.2c-.1-.5-.1-.7-.4-.7s-.3.2-.2.7l.5,2.8c.1.4,2,1.2,3.6,1.2,4.9,0,6.1-2.7,6.1-4.5C159.6,44.74,150.9,47,150.9,43Z"/><path class="a" d="M161.6,40.44c1.2.2,1.2,1.2,1.2,2.2v9.8c0,1,0,1.6-.6,1.9s-.9.3-.9.6.1.2.3.2c.9,0,1.8-.1,2.6-.1,1.6,0,3.3.1,4.9.1a2.38,2.38,0,0,0,2.1-.7,3.6,3.6,0,0,0,1.1-2.1s0-.3-.2-.3-1,2.2-6,2.2c-1.8,0-1.6-.5-1.6-1.8v-4c0-.3-.1-.7.4-.7h3.2c1.8,0,1.1,1.9,1.7,1.9.2,0,.2-.1.2-.3v-3.9c0-.2-.1-.4-.2-.4-.5,0,.1,1.7-2.2,1.7h-2.3c-.9,0-.8,0-.8-.7V42c0-1.4,0-1.4,2-1.4.9,0,3.1-.1,3.7.6.3.5,0,1.5.5,1.5.1,0,.4-.2.4-2.6,0-.3,0-.5-.2-.5-.7,0-2.6.1-3.1.1-.9,0-2-.1-6.1-.1-.6,0-.8.1-.8.3C160.9,40.34,161.4,40.34,161.6,40.44Z"/><path class="a" d="M135.7,64c0-2.6,2.4-3.6,4.6-3.6a5.2,5.2,0,0,1,5.3,3.6c.1.3.3.8.6.8s.3-.2.3-.4l-.4-3.8c0-.3-.2-.4-.3-.4-.3,0-.3.3-.6.3a9.92,9.92,0,0,0-4.7-1c-3.2,0-6.2,1.7-6.2,5.3,0,7.3,11.4,4.3,11.4,9.7,0,2.9-2.6,4.4-5.3,4.4a6,6,0,0,1-5.9-4.2c-.1-.6-.1-.9-.5-.9s-.4.3-.3.9l.7,3.6c.1.5,2.7,1.5,4.7,1.5,6.4,0,8-3.5,8-5.9C147,66.24,135.7,69.24,135.7,64Z"/><path class="a" d="M159.3,76.54c-.3,0-1,2.2-6,2.2-1.8,0-1.6-.5-1.6-1.8v-4c0-.3-.1-.7.4-.7h3.2c1.8,0,1.1,1.9,1.7,1.9.2,0,.2-.1.2-.3v-3.9c0-.2-.1-.4-.2-.4-.5,0,.1,1.7-2.2,1.7h-2.3c-.9,0-.8,0-.8-.7v-4c0-1.4,0-1.4,2-1.4.9,0,3.1-.1,3.7.6.3.5,0,1.5.5,1.5.1,0,.4-.2.4-2.6,0-.3,0-.5-.2-.5-.7,0-2.6.1-3.1.1-.9,0-2-.1-6.1-.1-.6,0-.8.1-.8.3s.5.3.6.3c1.2.2,1.2,1.2,1.2,2.2v9.8c0,1,0,1.6-.6,1.9s-.9.3-.9.6.1.2.3.2c.9,0,1.8-.1,2.6-.1,1.6,0,3.3.1,4.9.1a2.38,2.38,0,0,0,2.1-.7,3.6,3.6,0,0,0,1.1-2.1C159.4,76.74,159.4,76.54,159.3,76.54Z"/><path class="a" d="M182.5,65c0-.5-.1-.6-.6-.6s-2.4.1-6.3.1c-2.8,0-4.4-.1-6.1-.1-.4,0-.4.6-.4.8v.2a7.8,7.8,0,0,0-4.1-1c-1,0-1.4.1-2.5.1s-2-.1-2.2-.1a.32.32,0,0,0-.3.3c0,.8,1.8-.5,1.8,2V77c0,2.4-1.7,1.7-1.7,2.3a.32.32,0,0,0,.3.3c.6,0,1.3-.1,2.3-.1,1.3,0,1.6.1,2.3.1.5,0,.6-.1.6-.3,0-.7-2.3.4-2.3-2.7V65.74c0-.6.5-.6,1.2-.6,2.5,0,4.5,1.4,4.5,4,0,1.9-1.3,3-3.5,3a13.8,13.8,0,0,1-1.4-.1c-.1,0-.2,0-.2.2,0,.4,1.2.5,1.5.5,4.6,0,5.2-3.3,5.2-4.1a3.33,3.33,0,0,0-.9-2.5c.2-.3.6-.5,1.4-.5h3.5c.3,0,.2.8.2,1v11.2c0,1.3-1.7,1.1-1.7,1.6a.27.27,0,0,0,.3.3,22.94,22.94,0,0,1,2.9-.1c.6,0,1.2.1,1.7.1.2,0,.2-.2.2-.3,0-.7-1.7,0-1.7-1.8v-11c0-1.1-.1-1.1.9-1.1h3.1c2.2,0,1,1.6,1.8,1.6.3,0,.3-.3.2-.5Z"/><path class="a" d="M186.6,77.74V66.24c0-1.6,1.5-1.1,1.5-1.6,0-.2-.1-.2-.4-.2-.7,0-1.3.1-2,.1s-1.6-.1-2.4-.1c-.2,0-.2,0-.2.2,0,.5,1.7,0,1.7,1.6v11c0,2.1-1.7,1.4-1.7,2,0,.2.1.3.5.3s.8-.1,2.1-.1c.9,0,1.8.1,2.3.1s.4-.1.4-.2C188.5,78.74,186.6,79.24,186.6,77.74Z"/><path class="a" d="M202,76.54c-.3,0-1,2.2-6,2.2-1.8,0-1.6-.5-1.6-1.8v-4c0-.3-.1-.7.4-.7H198c1.8,0,1.1,1.9,1.7,1.9.1,0,.2-.1.2-.3v-3.9c0-.2-.1-.4-.2-.4-.5,0,.1,1.7-2.2,1.7h-2.3c-.9,0-.8,0-.8-.7v-4c0-1.4,0-1.4,2-1.4.9,0,3.1-.1,3.7.6.3.5,0,1.5.5,1.5.1,0,.4-.2.4-2.6,0-.3,0-.5-.2-.5-.7,0-2.6.1-3.1.1-.9,0-2-.1-6.1-.1-.6,0-.8.1-.8.3s.5.3.6.3c1.2.2,1.2,1.2,1.2,2.2v9.8c0,1,0,1.6-.6,1.9s-.9.3-.9.6.1.2.3.2c.9,0,1.8-.1,2.6-.1,1.6,0,3.3.1,4.9.1a2.38,2.38,0,0,0,2.1-.7,3.6,3.6,0,0,0,1.1-2.1C202.1,76.74,202.1,76.54,202,76.54Z"/><path class="a" d="M219,77.64l-.3-10.7c-.1-2.6,1.6-1.6,1.6-2.3,0-.1-.1-.3-.2-.3-.3,0-.5.1-1,.1-.1,0-.8-.1-1-.1s-.4.5-.6.7l-5.1,10.3a3.1,3.1,0,0,1-.7,1.2c-.2,0-.2-.2-.5-.6L206.1,65c-.1-.2-.1-.6-.5-.6s-.8.1-1.2.1-.8-.1-1.2-.1c-.2,0-.4,0-.4.2,0,.7,2-.5,2,4.6,0,2.3-.3,4.6-.5,8.1-.2,2.2-1.5,1.4-1.5,2.1,0,.2.1.3.2.3.4,0,.8-.1,1.9-.1.6,0,1.6.1,1.9.1s.5,0,.5-.2c0-.8-2,.2-1.9-2.7l.3-7.5c0-.2.1-.3.2-.3s.2.1.3.2l4.6,9.6c.1.2.2.6.4.6s.6-.9.7-1.1l4.4-9.1c.2-.5.4-.6.6-.6s.2.3.2.8l.2,8.3c0,1.6-1.3,1.1-1.3,1.8,0,.1,0,.2.2.2.5,0,1.2-.1,1.9-.1.9,0,1.6.1,2,.1.2,0,.5,0,.5-.2C220.7,78.64,219.1,79.44,219,77.64Z"/><path class="a" d="M233.4,76.54c-.3,0-1,2.2-6,2.2-1.8,0-1.6-.5-1.6-1.8v-4c0-.3-.1-.7.4-.7h3.2c1.8,0,1.1,1.9,1.7,1.9.2,0,.2-.1.2-.3v-3.9c0-.2-.1-.4-.2-.4-.5,0,.1,1.7-2.2,1.7h-2.3c-.9,0-.8,0-.8-.7v-4c0-1.4,0-1.4,2-1.4.9,0,3.1-.1,3.7.6.3.5,0,1.5.5,1.5.1,0,.4-.2.4-2.6,0-.3,0-.5-.2-.5-.7,0-2.6.1-3.1.1-.9,0-2-.1-6.1-.1-.6,0-.8.1-.8.3s.5.3.6.3c1.2.2,1.2,1.2,1.2,2.2v9.8c0,1,0,1.6-.6,1.9s-.9.3-.9.6.1.2.3.2c.9,0,1.8-.1,2.6-.1,1.6,0,3.3.1,4.9.1a2.38,2.38,0,0,0,2.1-.7,3.6,3.6,0,0,0,1.1-2.1C233.6,76.74,233.6,76.54,233.4,76.54Z"/><path class="a" d="M244.5,59.84c-.6,0-1.3.1-2.6.1s-1.8-.1-3-.1c-.3,0-.4.1-.4.3,0,.8,2.7-.1,2.7,2.7v16.5c0,2.5-.8,4.1-2,4.1-.8,0-1.3-1.1-1.7-1.1s-.6,1.2-.6,1.6c0,.8.2,1,1.1,1,3,0,5.4-3.4,5.4-7.8V62.34c0-2.2,1.6-1.4,1.6-2C245.1,59.94,244.8,59.84,244.5,59.84Z"/><path class="a" d="M254.2,64.14a7.63,7.63,0,0,0-7.9,7.7c0,4.5,2.9,7.8,7.5,7.8,4.8,0,8.1-3.1,8.1-8C262,67.34,258.6,64.14,254.2,64.14Zm.6,15c-4.3,0-6.9-3.8-6.9-7.8,0-3.4,2.1-6.4,5.7-6.4,4.2,0,6.8,3.8,6.8,7.7S257.9,79.14,254.8,79.14Z"/><path class="a" d="M278.4,64.34c-.4,0-.8.1-1.2.1-.8,0-1.7-.1-2.5-.1a.22.22,0,0,0-.2.2c0,.8,2-.1,2,2.1v7c0,2.5-.9,5.2-5,5.2-2.9,0-5.1-1.6-5.1-5v-7.7c0-1.5,1.4-.9,1.4-1.5,0-.3-.6-.2-.7-.2-.7,0-1.4.1-2,.1s-1.1-.1-1.7-.1c-.1,0-.5.1-.5.2,0,.7,1.7.2,1.7,1.4v7.2c0,3.3,1.1,6.5,6.7,6.5,6.3,0,6-5.3,6-6.4v-6.7c0-2,1.3-1.5,1.3-2.1C278.7,64.44,278.5,64.34,278.4,64.34Z"/><path class="a" d="M291.2,77.24l-3.6-5.4a4.11,4.11,0,0,0,2.7-3.7c0-4.1-4.8-3.7-5.1-3.7-1.1,0-2.3.1-3.6.1a11.35,11.35,0,0,1-1.4-.1c-.3,0-.4.1-.4.3,0,.7,1.8-.2,1.8,1.9v10.9c0,1.6-1.6,1.3-1.6,1.9a.22.22,0,0,0,.2.2c.8,0,1.6-.1,2.5-.1,1.8,0,2.3.1,2.5.1s.4,0,.4-.2c0-.7-2.2-.1-2.2-1.9V73c0-.2-.1-.6.6-.6,2.4,0,2.1-.1,2.9,1.1l2.4,3.8c.8,1.2,1.7,2.3,3.2,2.3.2,0,1.4,0,1.4-.3C293.8,78.84,292.7,79.64,291.2,77.24Zm-5.5-5.6c-1,0-2.3.1-2.3-.3v-5.5c0-.8.5-.8,1.2-.8,2.1,0,4.1.9,4.1,3.5A2.85,2.85,0,0,1,285.7,71.64Z"/><path class="a" d="M106.2,64.34c-1.8,0-3.2.1-4.7.1-.6,0-1.3-.1-1.9-.1-.1,0-.3.1-.3.2,0,.6,1.8-.1,1.8,2.1v10.7c0,2-1.5,1.5-1.5,2,0,.1,0,.2.2.2l2.4-.1c1.1,0,2.2.1,3.3.1,6,0,8.3-3.4,8.3-8.4C113.7,67.24,110,64.34,106.2,64.34Zm0,14.7a5.38,5.38,0,0,1-3.3-1c-.2-.2-.1-1.2-.1-1.6V66.24c0-1,.1-1.4,2.1-1.4,4.1,0,7.3,2.7,7.3,7.5C112.1,77.34,109.2,79,106.2,79Z"/><path class="a" d="M129,64.34c-.4,0-.8.1-1.2.1-.8,0-1.7-.1-2.5-.1a.22.22,0,0,0-.2.2c0,.8,2-.1,2,2.1v7c0,2.5-.9,5.2-5,5.2-2.9,0-5.1-1.6-5.1-5v-7.7c0-1.5,1.4-.9,1.4-1.5,0-.3-.6-.2-.7-.2-.7,0-1.4.1-2,.1s-1.1-.1-1.7-.1c-.1,0-.5.1-.5.2,0,.7,1.7.2,1.7,1.4v7.2c0,3.3,1.1,6.5,6.7,6.5,6.3,0,6-5.3,6-6.4v-6.7c0-2,1.3-1.5,1.3-2.1C129.3,64.44,129.2,64.34,129,64.34Z"/><path class="a" d="M309.3,35.94a2.79,2.79,0,0,0-2-.8,2.39,2.39,0,0,0-2.1,1,2.88,2.88,0,0,0-.7,1.8,2.41,2.41,0,0,0,.7,1.8,2.66,2.66,0,0,0,2.1,1,3,3,0,0,0,2-.8,2.79,2.79,0,0,0,.8-2A2.57,2.57,0,0,0,309.3,35.94Zm-.2,3.7a2.34,2.34,0,0,1-1.7.7,2.06,2.06,0,0,1-1.7-.7,2.34,2.34,0,0,1-.7-1.7,2.06,2.06,0,0,1,.7-1.7,2.34,2.34,0,0,1,1.7-.7,2.06,2.06,0,0,1,1.7.7,2.34,2.34,0,0,1,.7,1.7A2.19,2.19,0,0,1,309.1,39.64Z"/><path class="a" d="M308.9,39.34c-.2,0-.3-.2-.5-.4l-.1-.1-.6-.9a.82.82,0,0,0,.5-.8c0-.5-.4-.8-1.1-.8H306c-.1,0-.1,0-.1.1a.1.1,0,0,0,.1.1h.1c.2,0,.2.1.2.4v2.3c0,.1-.1.1-.2.2s-.1,0-.1.1,0,.1.1.1h1c.1,0,.1,0,.1-.1a.1.1,0,0,0-.1-.1.44.44,0,0,1-.3-.1c0-.1-.1-.2-.1-.4v-.8h.3c.1,0,.1,0,.2.1v.1l.6.9a1,1,0,0,0,.7.5c.2,0,.4,0,.4-.1.2-.3.2-.3,0-.3Zm-1.6-1.5h-.4v-1.1a.22.22,0,0,1,.2-.2,1.42,1.42,0,0,1,.6.2c.2.1.2.3.2.5A.53.53,0,0,1,307.3,37.84Z"/><path class="a" d="M87,68.84a2.39,2.39,0,0,0-2.1,1,2.88,2.88,0,0,0-.7,1.8,2.41,2.41,0,0,0,.7,1.8,2.66,2.66,0,0,0,2.1,1,3,3,0,0,0,2-.8,2.79,2.79,0,0,0,.8-2,3,3,0,0,0-.8-2A2.44,2.44,0,0,0,87,68.84Zm1.8,4.5a2.34,2.34,0,0,1-1.7.7,2.06,2.06,0,0,1-1.7-.7,2.34,2.34,0,0,1-.7-1.7,2.06,2.06,0,0,1,.7-1.7,2.34,2.34,0,0,1,1.7-.7,2.06,2.06,0,0,1,1.7.7,2.41,2.41,0,0,1,0,3.4Z"/><path class="a" d="M88.6,73c-.2,0-.3-.2-.5-.4l-.1-.1-.6-.9a.82.82,0,0,0,.5-.8c0-.5-.4-.8-1.1-.8H85.7c-.1,0-.1,0-.1.1a.1.1,0,0,0,.1.1h.1c.2,0,.2.1.2.4v2.3c0,.1-.1.1-.2.2s-.1,0-.1.1,0,.1.1.1h1c.1,0,.1,0,.1-.1a.1.1,0,0,0-.1-.1.44.44,0,0,1-.3-.1c0-.1-.1-.2-.1-.4v-.8h.3c.1,0,.1,0,.2.1V72l.6.9a1,1,0,0,0,.7.5c.2,0,.4,0,.4-.1.2-.3.1-.3,0-.3Zm-1.7-1.6h-.4v-1.1a.22.22,0,0,1,.2-.2,1.42,1.42,0,0,1,.6.2c.2.1.2.3.2.5A.53.53,0,0,1,86.9,71.44Z"/></svg>