<svg xmlns="http://www.w3.org/2000/svg" viewBox="0 0 595.5 153.28"><defs><style>.a{fill:#fff;}</style></defs><title>Asset 1</title><path class="a" d="M55.2,118.38l-35,6.2L0,152.58,48.4,144c14.5-2.5,27.2-3,31.2,8.5v-18.8H70.1V127h9.5v-.6C79.6,119.58,76.5,114.68,55.2,118.38Z"/><path class="a" d="M110.3,118.38l-7.8,7.8c-11,11-16.4,17.3-16.4,26.4,4.2-12.1,17.6-11,33.3-8l46.5,8-20.1-27.9Z"/><path class="a" d="M103.4,108.27c-4.3,4.3-11.8,11.1-15.3,18.6h7.8l9-8.9c8.2-8.2,14.6-14.5,17.3-22.4a28.56,28.56,0,0,0,1.5-14.4c-.2-1.6-.9-3.8-.9-3.3-.8,9-3.3,14.3-16.3,27.4Z"/><path class="a" d="M79.1,53.18c4.8-4.8,16.9-15.6,16.9-25V17.77c0-.1-.2-.1-.2,0-.8,7-2.5,10-19.6,27.1L59.3,61.77c-8.9,8.9-16.2,18.4-15.2,29,.5,6,2.5,9.2,3.8,10.1.7.5.5.1.3-.3-5.1-11.6,7.1-23.7,13.2-29.8Z"/><path class="a" d="M95.9,35.58c0-.1-.2-.1-.2,0-.8,7-2.5,10-19.6,27.1L60.4,78.38c-5.7,5.7-10.9,11.7-10.7,21.3.1,5.9,3.1,10.8,7.6,11.9,1.8.4,1.7.2,1.3,0-6.3-3-5.9-14.4,4.3-24.6L79,70.88c4.8-4.8,16.9-15.6,16.9-25V35.58Z"/><path class="a" d="M43.1,82.58c.8-9,3.3-14.3,16.3-27.4l19.7-19.7c4.8-4.8,16.9-15.6,16.9-25V.08c0-.1-.2-.1-.2,0-.8,7-2.5,10-19.6,27.1L61.1,42.38c-8.2,8.2-14.6,14.5-17.3,22.4a28.56,28.56,0,0,0-1.5,14.4C42.4,80.88,43.1,83.08,43.1,82.58Z"/><path class="a" d="M86.2,144c0,.1.2.1.2,0a22.77,22.77,0,0,1,4.1-10.3H86.2V144Z"/><path class="a" d="M106.6,87.47l-5,5c-7.7,7.6-15.4,16.1-15.4,24V127c0,.1.2.1.2,0,.8-7.6,4.5-12.6,15.6-23.7l4.6-4.6c8.9-8.9,16.2-18.4,15.2-29-.5-6-2.5-9.2-3.8-10.1-.7-.5-.5-.1-.3.3C122.9,71.38,110.6,83.47,106.6,87.47Z"/><path class="a" d="M86.2,108.77c0,.1.2.1.2,0,.9-7.3,5-12.8,14.5-22.4l4.5-4.5c5.7-5.7,10.8-11.6,10.6-21.2-.1-5.9-3.1-10.8-7.6-11.9-1.8-.4-1.7-.2-1.3,0,6.3,3,5.9,14.4-4.3,24.6L97.2,79c-3.6,3.6-11.1,11.7-11.1,19.3v10.5Z"/><path class="a" d="M207.1,112.47c-1.4,0-2.6,0-3.8.1l-2.7.3c-1.1.1-2.6.1-4.5.1h-2l-2.3-.1c-.5,0-.7.2-.7.6s.3.5.9.6a4.3,4.3,0,0,1,3.2,1.6,7.62,7.62,0,0,1,1,4.2v25.7a9.67,9.67,0,0,1-.6,4.2,3.23,3.23,0,0,1-2.5,1.4c-.5.1-.8.3-.8.6,0,.5.3.7,1,.6a13.69,13.69,0,0,0,1.6-.2,41.06,41.06,0,0,1,5.3-.3q2.85,0,6.6.3c1.3.1,2.1.1,2.6.1a21.35,21.35,0,0,0,11.5-3.3,17.85,17.85,0,0,0,6.5-7.1,20.64,20.64,0,0,0,2.3-9.9,18.78,18.78,0,0,0-5.3-13.7C220.7,114.38,214.9,112.47,207.1,112.47Zm11.9,35.8a16.37,16.37,0,0,1-8.8,2.4,21.49,21.49,0,0,1-4-.4,21.78,21.78,0,0,1-3.9-1,2.27,2.27,0,0,1-1.7-2.4v-29.4c0-1.2.2-2,.7-2.3.8-.6,2.7-1,5.7-1a17.85,17.85,0,0,1,10.7,3.2,17.62,17.62,0,0,1,5.7,7.1,23.12,23.12,0,0,1,2.1,9.9C225.7,140.88,223.5,145.58,219,148.27Z"/><path class="a" d="M261.3,151.27a5.84,5.84,0,0,1-2.7-1,10,10,0,0,1-1.6-3.2l-.5-1.1-9.1-23.2c-.2-.4-.3-.6-.6-.6s-.4.2-.6.6l-10.8,24-.6,1.4a10,10,0,0,1-1.2,1.9,4.07,4.07,0,0,1-1.1,1l-.8.2c-.2.1-.4.2-.4.5s.2.4.6.4a8.33,8.33,0,0,0,1.2-.1h3.2l2,.1h.7q.6,0,.6-.3c0-.2-.2-.4-.7-.5a3.78,3.78,0,0,1-1.9-.8,2,2,0,0,1-.5-1.4,9.82,9.82,0,0,1,.9-3.2l1.4-3.1a5.11,5.11,0,0,1,1-1.7,3.82,3.82,0,0,1,1.9-.3h7.6a3,3,0,0,1,1.4.2c.2.1.4.6.7,1.3l1.1,2.8a14.88,14.88,0,0,1,1.3,4.4,1.26,1.26,0,0,1-1.1,1.4l-.7.1c-.4.1-.5.2-.5.4s.2.4.5.4a2.25,2.25,0,0,0,.7-.1,29.55,29.55,0,0,1,3.7-.1,36.79,36.79,0,0,1,3.9.1h.8c.4,0,.6-.1.6-.4C261.9,151.47,261.7,151.27,261.3,151.27ZM249,139h-7c-.6,0-1-.2-1-.5a2.71,2.71,0,0,1,.3-.8l4.1-9.1c.1-.3.2-.4.3-.4s.4.2.5.7l.2.4,3.3,8.3.1.4a1.09,1.09,0,0,1,.1.5C250,138.77,249.7,139,249,139Z"/><path class="a" d="M289.7,136.77a16,16,0,0,0-1.7.1h-6.2c-.5,0-.7.1-.7.4s.3.5.8.5a4.14,4.14,0,0,1,2.2.6,2.06,2.06,0,0,1,.6,1.7v4.7a4.42,4.42,0,0,1-.7,2.9,9.22,9.22,0,0,1-7.6,3.5,10.94,10.94,0,0,1-8.6-4.1,15.67,15.67,0,0,1-3.5-10.3,14,14,0,0,1,3-9.3,9.67,9.67,0,0,1,7.8-3.6,13.4,13.4,0,0,1,7.2,2.1,12.85,12.85,0,0,1,5.1,5.5.51.51,0,0,0,.5.4c.3,0,.4-.2.4-.5a1.27,1.27,0,0,0-.1-.6c-.1-.5-.2-1.1-.3-1.6l-.2-2a8.17,8.17,0,0,1-.1-1.4c0-.7-.1-1-.4-1a.37.37,0,0,0-.3.1l-.5.4c-.2.1-.3.2-.4.2s-.2-.1-.4-.2a16.14,16.14,0,0,0-4.5-1.8,20.35,20.35,0,0,0-5.3-.7,14.32,14.32,0,0,0-10.7,4.4,14.92,14.92,0,0,0-4.3,11,13.87,13.87,0,0,0,14.4,14.5,17.13,17.13,0,0,0,8.8-2.4l1.4-.8c.8-.4,1.4-.7,1.7-.8a.85.85,0,0,0,.6-.2l.1-.3V140c0-1.3.5-2.1,1.6-2.3.4-.1.6-.3.6-.5C290.2,136.88,290,136.77,289.7,136.77Z"/><path class="a" d="M303.7,135.18c-2.7-.9-4.3-1.5-5-1.8a5.61,5.61,0,0,1-1.9-1.6,4.8,4.8,0,0,1-1-3.1,4.27,4.27,0,0,1,1.5-3.3,5.49,5.49,0,0,1,3.8-1.3,9.55,9.55,0,0,1,5.2,1.5,7.16,7.16,0,0,1,3.1,3.8c.2.7.5,1,.7,1s.5-.2.5-.7a4.4,4.4,0,0,0-.1-.9l-.3-2.2q-.3-1.8-.3-2.1c0-.7-.2-1-.5-1-.1,0-.2,0-.2.1l-.3.3c-.2.1-.3.2-.5.2a.76.76,0,0,1-.4-.1l-1.5-.6a10.31,10.31,0,0,0-3.8-.7,9.76,9.76,0,0,0-6.5,2.1,6.89,6.89,0,0,0-2.5,5.6,6.78,6.78,0,0,0,1.9,5c1.3,1.3,3.5,2.4,6.6,3.5a25.54,25.54,0,0,1,5.5,2.3,5.12,5.12,0,0,1,1.8,3.9,5.61,5.61,0,0,1-2,4.2,7.48,7.48,0,0,1-4.9,1.7,8.7,8.7,0,0,1-5.3-1.8,8.17,8.17,0,0,1-3.2-4.4c-.2-.7-.4-1-.7-1s-.4.2-.4.6a16,16,0,0,0,.5,2.7c.3,1.2.5,1.8.5,1.9a12.68,12.68,0,0,0,.4,1.5,1.2,1.2,0,0,0,.5.5,9.24,9.24,0,0,0,2.9,1.1,16.34,16.34,0,0,0,3.6.5,10.45,10.45,0,0,0,7.3-2.5,8.22,8.22,0,0,0,2.9-6.4C311.5,139.68,308.9,136.88,303.7,135.18Z"/><path class="a" d="M363.4,151a8,8,0,0,1-3.6-1.3,14.43,14.43,0,0,1-2.2-4.3l-.6-1.5-12.3-31.4c-.2-.6-.5-.8-.8-.8s-.6.3-.8.9L328.4,145l-.8,1.9a13.25,13.25,0,0,1-1.6,2.5,4.34,4.34,0,0,1-1.5,1.4l-1.1.3a.63.63,0,0,0-.5.6c0,.4.3.5.8.5.1,0,.6-.1,1.6-.2h1.3c1.2,0,2.2,0,3.2.1l2.7.2h1c.5,0,.8-.2.8-.5s-.3-.6-.9-.7a6,6,0,0,1-2.6-1,2.56,2.56,0,0,1-.7-1.9,11.39,11.39,0,0,1,1.3-4.3l1.9-4.2c.6-1.3,1-2.1,1.4-2.3a6.44,6.44,0,0,1,2.6-.3h10.1a5.57,5.57,0,0,1,1.9.2,6.91,6.91,0,0,1,.9,1.8l1.4,3.8a19.85,19.85,0,0,1,1.7,6c0,1.1-.5,1.8-1.4,1.9l-.9.2c-.5.1-.7.3-.7.6s.2.6.7.6a3.45,3.45,0,0,0,.9-.1,42.31,42.31,0,0,1,5-.2c2.5,0,4.3,0,5.3.1a10.42,10.42,0,0,1,1.1.1c.5,0,.8-.2.8-.5S364,151.08,363.4,151Zm-16.8-16.6h-9.4c-.9,0-1.3-.2-1.3-.7a2.88,2.88,0,0,1,.4-1.1l5.6-12.4c.2-.4.3-.6.5-.5s.5.3.7.9l.2.6,4.5,11.3.1.5a2,2,0,0,1,.1.7C348.1,134.08,347.6,134.38,346.6,134.38Z"/><path class="a" d="M376.4,122.77a25.29,25.29,0,0,0-2.8.1l-2,.2a30.22,30.22,0,0,1-3.3.1h-1.5l-1.7-.1c-.4,0-.5.1-.5.4s.2.4.7.4a3.12,3.12,0,0,1,2.4,1.2,5.27,5.27,0,0,1,.7,3.1v6h-3.1a1.07,1.07,0,0,0-.8.6v1.9a.53.53,0,0,0,.5.6s1.4,0,3.3.1v9.8a7,7,0,0,1-.4,3.1,2.69,2.69,0,0,1-1.9,1.1c-.4.1-.6.2-.6.5s.2.5.7.5c.3,0,.7-.1,1.2-.1a23,23,0,0,1,3.9-.2c1.4,0,3,.1,4.9.2a16.68,16.68,0,0,0,1.9.1,15.83,15.83,0,0,0,8.5-2.4,14.15,14.15,0,0,0,4.8-5.2,15.1,15.1,0,0,0,1.7-7.3,13.72,13.72,0,0,0-3.9-10.1C386.5,124.27,382.2,122.77,376.4,122.77Zm8.9,26.5a12,12,0,0,1-6.5,1.8,16.78,16.78,0,0,1-2.9-.3,22.56,22.56,0,0,1-2.8-.7,1.72,1.72,0,0,1-1.3-1.8v-10.8c3.5,0,7.1,0,7.4-.1.5-.2.5-.9.5-.9v-1.7c0-.7-.6-.6-.6-.6h-7.2v-7.7a2.28,2.28,0,0,1,.5-1.7c.6-.5,2-.7,4.2-.7a13.41,13.41,0,0,1,7.9,2.3,12.75,12.75,0,0,1,4.2,5.2,17.33,17.33,0,0,1,1.5,7.3C390.1,143.77,388.5,147.18,385.3,149.27Z"/><path class="a" d="M422.6,123.08h-4.2c-.2,0-.8,0-1.9-.1h-.6c-.5,0-.7.1-.7.4s.4.4,1.2.6a2.69,2.69,0,0,1,1.3.5,1.33,1.33,0,0,1,.3,1c0,1.3-1,4.4-3,9.1l-4.6,11-.3.8c-.4.8-.6,1.2-.8,1.2s-.3-.2-.5-.7l-8.1-18.6a8.47,8.47,0,0,1-.9-3,1.55,1.55,0,0,1,.2-.8,3.83,3.83,0,0,1,1.1-.5.51.51,0,0,0,.4-.5c0-.3-.2-.4-.6-.4h-.6a7.78,7.78,0,0,1-1.3.1h-6.1c-.4,0-.6.1-.6.4s.1.3.2.3a4,4,0,0,0,1.3.3,2.59,2.59,0,0,1,1.7.9,7.86,7.86,0,0,1,1.4,2.4l10.7,24.7c.3.7.6,1.1.9,1.1s.6-.3.9-1l10.5-24.5.6-1.4a3.91,3.91,0,0,1,2.3-2.4.51.51,0,0,0,.4-.5A.72.72,0,0,0,422.6,123.08Z"/><path class="a" d="M445.8,146.27c-.2,0-.3.1-.5.4-1.6,2.5-5.1,3.7-10.6,3.7-1.7,0-2.8-.1-3.2-.4s-.6-1-.6-2.2v-8.5c0-.4.1-.7.3-.8a3.71,3.71,0,0,1,1.4-.2h4.6a5.39,5.39,0,0,1,2.6.5,2.87,2.87,0,0,1,1,1.9l.1.6c.1.3.2.5.5.5s.4-.2.4-.5v-.6a20.91,20.91,0,0,1-.1-2.5c0-1.1.1-2.4.2-3.7V134c0-.4-.1-.6-.4-.6a.47.47,0,0,0-.5.5,6,6,0,0,1-.6,1.8,2.11,2.11,0,0,1-1.5.6,16.22,16.22,0,0,1-3.5.3h-3.2a2,2,0,0,1-1.1-.2,2.23,2.23,0,0,1-.2-1.2v-8.5c0-.7.1-1.2.4-1.4a3.17,3.17,0,0,1,1.7-.3h3.3a22,22,0,0,1,4.5.3,2,2,0,0,1,1.6,1.3,2.77,2.77,0,0,1,.3,1.3v.5c0,.4.1.6.4.6a.55.55,0,0,0,.5-.3,8.81,8.81,0,0,0,.2-1.5l.1-1.2a10.84,10.84,0,0,1,.2-1.7,4.33,4.33,0,0,1,.1-.5c0-.4-.2-.6-.7-.6a2.49,2.49,0,0,0-.8.1c-.2,0-.7.1-1.5.1l-3,.1c-1.3.1-2.8.1-4.5.1q-4.2,0-7.2-.3a8.17,8.17,0,0,0-1.4-.1q-.9,0-.9.6c0,.3.2.4.6.4a2.88,2.88,0,0,1,2.6,1,8.77,8.77,0,0,1,.7,4.1v19.2q0,2.55-1.5,3l-.8.2c-.4.1-.5.3-.5.5s.2.5.7.5a5.39,5.39,0,0,0,1.1-.1,30.22,30.22,0,0,1,5.2-.3,60.48,60.48,0,0,1,6.7.4,10.37,10.37,0,0,0,1.6.1,6,6,0,0,0,4.7-2.3,5.65,5.65,0,0,0,1.5-3.2C446.2,146.47,446,146.27,445.8,146.27Z"/><path class="a" d="M476.6,123a4.14,4.14,0,0,0-1,.1,12.17,12.17,0,0,1-2.1.1,21.82,21.82,0,0,1-3.9-.2c-.4,0-.7-.1-.9-.1-.4,0-.6.1-.6.4s.2.4.6.5a6.08,6.08,0,0,1,3,1.1,3.42,3.42,0,0,1,1,2.5l.3,4.8v13.5c0,.3-.1.4-.2.4s-.3-.2-.6-.5l-19.4-21.9a1.54,1.54,0,0,0-1.1-.6H448c-.3,0-.5.1-.5.4s.2.4.6.5a4.12,4.12,0,0,1,3.3,2.4,11.5,11.5,0,0,1,1.2,5.7v14.3a6.92,6.92,0,0,1-.6,3.3,4.07,4.07,0,0,1-2.4,1.6c-.4.1-.6.3-.6.5s.2.4.6.4a2.81,2.81,0,0,0,.8-.1,8.08,8.08,0,0,1,1.6-.1h1l2.1.1c1.1.1,1.7.1,1.8.1h.6c.3,0,.4-.1.4-.4s-.2-.5-.7-.5c-1.1-.2-1.9-.4-2.2-.8a3,3,0,0,1-.7-1.9l-.1-1.5v-15.2c0-.6.1-.9.4-.9a.37.37,0,0,1,.3.1l.2.2,17.7,20.3.5.5a.76.76,0,0,0,.5.2.63.63,0,0,0,.6-.5,17.25,17.25,0,0,0,.1-2.9v-21.3a6.33,6.33,0,0,1,.4-2.8,2.8,2.8,0,0,1,1.7-1.1c.3-.1.4-.2.4-.4C477.2,123.08,477,123,476.6,123Z"/><path class="a" d="M505.3,125a4,4,0,0,0-.2-1.5c-.2-.2-.6-.3-1.4-.3H481q-.75,0-.9.3a3.09,3.09,0,0,0-.2,1.3,12.89,12.89,0,0,1-.3,2.5,8,8,0,0,0-.3,1.6c0,.4.1.6.4.6s.4-.3.6-.8a5.24,5.24,0,0,1,1.2-2.6,3.4,3.4,0,0,1,2.5-.7h5.6a.92.92,0,0,1,1.2,1.2V148a4,4,0,0,1-.6,2.5,3,3,0,0,1-2.2.9c-.5.1-.7.2-.7.4s.2.5.6.5a11.31,11.31,0,0,0,1.4-.1c.4,0,.9-.1,1.5-.1h3.1a8.2,8.2,0,0,1,1.9.1,5.13,5.13,0,0,0,1,.1c.4,0,.6-.1.6-.5,0-.2-.2-.4-.7-.5a2.94,2.94,0,0,1-2.8-2.9v-21.5a2.23,2.23,0,0,1,.2-1.2c.2-.2.5-.3,1.2-.3h5.9a4.27,4.27,0,0,1,2.4.5,3.36,3.36,0,0,1,.9,1.9c.1.5.3.7.5.7s.5-.2.4-.7c0-.2-.1-.6-.1-1S505.3,125.77,505.3,125Z"/><path class="a" d="M517.5,151.18a3.85,3.85,0,0,1-1.9-.6,2.84,2.84,0,0,1-1-1.5,14,14,0,0,1-.4-3.9v-15.8c0-3,.5-4.6,1.6-5l1.1-.4c.4-.1.5-.3.5-.6s-.2-.4-.6-.4h-.5l-1.4.1c-.7,0-1.6.1-2.7.1-1.7,0-3.1-.1-4.1-.2h-.4c-.4,0-.6.2-.6.5s.2.4.7.5a3.73,3.73,0,0,1,2.6,1.2,7,7,0,0,1,.6,3.5v18a8.17,8.17,0,0,1-.5,3.5c-.3.6-1,.9-2.1,1.1-.4.1-.7.2-.7.5s.2.4.6.4a3.75,3.75,0,0,0,1-.1l2.5-.1h3.1a11.62,11.62,0,0,1,2.2.1c.3,0,.6.1.8.1.4,0,.7-.2.7-.5S518.2,151.27,517.5,151.18Z"/><path class="a" d="M531.7,135.18c-2.7-.9-4.3-1.5-5-1.8a5.61,5.61,0,0,1-1.9-1.6,4.8,4.8,0,0,1-1-3.1,4.27,4.27,0,0,1,1.5-3.3,5.49,5.49,0,0,1,3.8-1.3,9.55,9.55,0,0,1,5.2,1.5,7.16,7.16,0,0,1,3.1,3.8c.2.7.5,1,.7,1s.4-.2.4-.7a4.4,4.4,0,0,0-.1-.9l-.3-2.2q-.3-1.8-.3-2.1c0-.7-.2-1-.5-1-.1,0-.2,0-.2.1l-.3.3c-.2.1-.3.2-.5.2a.6.6,0,0,1-.4-.1l-1.5-.6a10.31,10.31,0,0,0-3.8-.7,9.76,9.76,0,0,0-6.5,2.1,6.89,6.89,0,0,0-2.5,5.6,6.78,6.78,0,0,0,1.9,5c1.3,1.3,3.5,2.4,6.6,3.5a25.54,25.54,0,0,1,5.5,2.3,5.12,5.12,0,0,1,1.8,3.9,5.61,5.61,0,0,1-2,4.2,7.48,7.48,0,0,1-4.9,1.7,8.7,8.7,0,0,1-5.3-1.8,8.17,8.17,0,0,1-3.2-4.4c-.2-.7-.4-1-.7-1s-.4.2-.4.6a16,16,0,0,0,.5,2.7c.3,1.2.5,1.8.5,1.9a12.68,12.68,0,0,0,.4,1.5,1.2,1.2,0,0,0,.5.5,9.24,9.24,0,0,0,2.9,1.1,16.34,16.34,0,0,0,3.6.5,10.45,10.45,0,0,0,7.3-2.5,8.22,8.22,0,0,0,2.9-6.4C539.4,139.68,536.8,136.88,531.7,135.18Z"/><path class="a" d="M556.5,125.68c.2-.2.5-.3,1.2-.3h5.9a4.27,4.27,0,0,1,2.4.5,3.36,3.36,0,0,1,.9,1.9c.1.5.3.7.5.7s.5-.2.4-.7c0-.2-.1-.6-.1-1a8.67,8.67,0,0,1-.1-1.8,4,4,0,0,0-.2-1.5c-.2-.2-.6-.3-1.4-.3H543.3q-.75,0-.9.3a3.09,3.09,0,0,0-.2,1.3,12.89,12.89,0,0,1-.3,2.5,8,8,0,0,0-.3,1.6c0,.4.1.6.4.6s.4-.3.6-.8a5.24,5.24,0,0,1,1.2-2.6,3.4,3.4,0,0,1,2.5-.7h5.6a.92.92,0,0,1,1.2,1.2V148a4,4,0,0,1-.6,2.5,3,3,0,0,1-2.2.9c-.5.1-.7.2-.7.4s.2.5.6.5a11.31,11.31,0,0,0,1.4-.1c.4,0,.9-.1,1.5-.1h3.1a8.2,8.2,0,0,1,1.9.1,5.13,5.13,0,0,0,1,.1c.4,0,.6-.1.6-.5,0-.2-.2-.4-.7-.5a2.94,2.94,0,0,1-2.8-2.9v-21.5A1.74,1.74,0,0,1,556.5,125.68Z"/><path class="a" d="M594.9,151.27a5.84,5.84,0,0,1-2.7-1,10,10,0,0,1-1.6-3.2l-.5-1.1-9-23.2c-.2-.4-.3-.6-.6-.6s-.4.2-.6.6l-10.8,24-.6,1.4a10,10,0,0,1-1.2,1.9,4.07,4.07,0,0,1-1.1,1l-.8.2c-.2.1-.4.2-.4.5s.2.4.6.4a8.33,8.33,0,0,0,1.2-.1H570l2,.1h.7q.6,0,.6-.3c0-.2-.2-.4-.7-.5a3.78,3.78,0,0,1-1.9-.8,2,2,0,0,1-.5-1.4,9.82,9.82,0,0,1,.9-3.2l1.4-3.1a5.11,5.11,0,0,1,1-1.7,3.82,3.82,0,0,1,1.9-.3H583a3,3,0,0,1,1.4.2c.2.1.4.6.7,1.3l1.1,2.8a14.88,14.88,0,0,1,1.3,4.4,1.26,1.26,0,0,1-1.1,1.4l-.7.1c-.3.1-.5.2-.5.4s.2.4.5.4a2.25,2.25,0,0,0,.7-.1,29.55,29.55,0,0,1,3.7-.1,36.79,36.79,0,0,1,3.9.1h.8c.4,0,.6-.1.6-.4C595.5,151.47,595.3,151.27,594.9,151.27ZM582.5,139h-7c-.6,0-1-.2-1-.5a2.71,2.71,0,0,1,.3-.8l4.1-9.1c.1-.3.2-.4.3-.4s.4.2.5.7l.2.4,3.3,8.3.1.4a1.09,1.09,0,0,1,.1.5C583.6,138.77,583.2,139,582.5,139Z"/><path class="a" d="M229.6,104.58l-1.3-.3a9.83,9.83,0,0,1-5.2-3.1l-14.9-15.5a1.91,1.91,0,0,1-.7-1.2c0-.2.2-.5.7-.9l9.8-8.8c4.9-4.4,8.1-6.8,9.8-7.2.9-.2,1.4-.5,1.4-.8s-.3-.6-.8-.6a3.87,3.87,0,0,0-.9.1c-.4,0-1.2.1-2.4.1H223l-2.6-.1a22.63,22.63,0,0,1-2.7-.1h-.8q-.9,0-.9.6c0,.4.4.6,1.3.7,1.4.2,2.1.8,2.1,1.7s-.9,2.3-2.8,4l-12.2,11-.4.3-.5.3q-.3,0-.3-.6V73.08a11,11,0,0,1,.5-3.9c.3-.7,1.1-1.2,2.3-1.8.5-.2.7-.4.7-.7s-.2-.5-.7-.5a10.33,10.33,0,0,0-1.4.1h-1.5l-2.1.1h-1.1c-2.1,0-3.6-.1-4.6-.2a3.75,3.75,0,0,0-1-.1c-.5,0-.8.2-.8.6s.2.5.7.6l1.4.3a3.57,3.57,0,0,1,2.5,1.6,10.14,10.14,0,0,1,.7,4.3v24.3a12.54,12.54,0,0,1-.7,5.1,2.89,2.89,0,0,1-2.5,1.7c-.6.1-.8.2-.8.5s.3.7.9.7c.1,0,.7,0,1.7-.1H199l2-.1h2.3a28.41,28.41,0,0,1,3.4.1,11.45,11.45,0,0,0,1.5.1c.5,0,.7-.2.7-.5s-.3-.5-.9-.6c-2.1-.3-3.5-.9-4-1.6s-.9-2.1-.9-4.3V88.37c0-.4.2-.7.5-.7a1.08,1.08,0,0,1,.7.3l.6.6,15.3,15.8.5.5a2.29,2.29,0,0,0,1.7.8,7.18,7.18,0,0,0,1.3-.1c.5,0,1.3-.1,2.5-.1a12.31,12.31,0,0,1,2.4.1c.3,0,.5.1.7.1q.9,0,.9-.6C230.3,104.88,230.1,104.68,229.6,104.58Z"/><path class="a" d="M234.3,78.68a7,7,0,0,1,.6,3.5v18a8.17,8.17,0,0,1-.5,3.5c-.3.6-1,.9-2.1,1.1-.4.1-.7.2-.7.5s.2.4.6.4a3.75,3.75,0,0,0,1-.1l2.5-.1h3.1a11.62,11.62,0,0,1,2.2.1c.3,0,.6.1.8.1.4,0,.7-.2.7-.5s-.4-.4-1.1-.5a3.85,3.85,0,0,1-1.9-.6,2.84,2.84,0,0,1-1-1.5,14,14,0,0,1-.4-3.9V82.88c0-3,.5-4.6,1.6-5l1.1-.4c.4-.1.5-.3.5-.6s-.2-.4-.6-.4h-.5l-1.4.1c-.7,0-1.6.1-2.7.1-1.7,0-3.1-.1-4.1-.2h-.4c-.4,0-.6.2-.6.5s.2.4.7.5A3.52,3.52,0,0,1,234.3,78.68Z"/><path class="a" d="M245.7,77.47l1,.1c1.5.3,2.3,1.5,2.3,3.7v17.4a15.84,15.84,0,0,1-.5,4.8,2.66,2.66,0,0,1-2.2,1.5c-.4.1-.5.2-.5.4s.2.4.5.4a5.39,5.39,0,0,0,1.1-.1,10.9,10.9,0,0,1,1.7-.1h3.1a19.41,19.41,0,0,1,2.7.1,6.82,6.82,0,0,0,1.2.1c.5,0,.7-.1.7-.4s-.3-.4-.8-.5a4.87,4.87,0,0,1-2.8-.9,3.45,3.45,0,0,1-.9-1.2,12.15,12.15,0,0,1-.2-2.5v-7.4a1,1,0,0,1,.2-.7l.5-.1h2.8a1.6,1.6,0,0,1,1.6.9l.3.5,5.2,8a11.62,11.62,0,0,0,3.1,3.4,5.68,5.68,0,0,0,3.4,1,6.65,6.65,0,0,0,2.1-.3q.9-.3.9-.6c0-.2-.1-.3-.4-.3h-.7c-1.5-.1-3.2-1.5-5-4.1l-.7-1L259.6,91c3.5-1.7,5.2-4.2,5.2-7.3a6.14,6.14,0,0,0-2.5-5.4c-1.6-1.2-4.1-1.8-7.3-1.8-.9,0-1.8,0-3,.1-1.6.1-2.7.1-3.3.1a10.89,10.89,0,0,1-1.9-.1,13.59,13.59,0,0,0-1.5-.1c-.5,0-.7.1-.7.4C245.1,77.27,245.3,77.47,245.7,77.47Zm7,.9a2.5,2.5,0,0,1,1.7-.4,7.91,7.91,0,0,1,5.5,2,6.65,6.65,0,0,1,2.2,5,5.5,5.5,0,0,1-1.6,4.2,6.09,6.09,0,0,1-4.3,1.5h-2.4c-.6,0-1.1-.1-1.2-.3a1.88,1.88,0,0,1-.3-1.3v-9.3C252.3,79.08,252.4,78.58,252.7,78.38Z"/><path class="a" d="M274,77.38l1,.2a2.88,2.88,0,0,1,1.9,1.2,7.48,7.48,0,0,1,.5,3.2v17.9a11.13,11.13,0,0,1-.5,3.8,2,2,0,0,1-1.8,1.2c-.4,0-.6.2-.6.4s.2.5.7.5a10.3,10.3,0,0,0,1.3-.1h4.4a15.64,15.64,0,0,1,2.5.1,10.42,10.42,0,0,1,1.1.1c.3,0,.5-.1.5-.4s-.2-.4-.6-.4c-1.6-.3-2.6-.6-3-1.2a5.55,5.55,0,0,1-.7-3.2V93c0-.3.1-.5.4-.5s.3.1.5.2l.4.5,11.3,11.6.4.4a1.56,1.56,0,0,0,1.2.6h2.8a7.67,7.67,0,0,1,1.8.1h.5c.4,0,.6-.1.6-.5,0-.2-.2-.3-.5-.4l-.9-.2a7,7,0,0,1-3.8-2.3L284.4,91a1.35,1.35,0,0,1-.5-.9c0-.2.2-.4.5-.7l7.2-6.5c3.6-3.2,6-5,7.3-5.3.7-.2,1-.4,1-.6s-.2-.4-.6-.4a2.64,2.64,0,0,0-.7.1c-.3,0-.9.1-1.8.1h-3.5a12.75,12.75,0,0,1-2-.1h-.6c-.4,0-.7.1-.7.4s.3.4,1,.5q1.5.3,1.5,1.2,0,1.05-2.1,3l-9,8.1-.3.3-.3.2c-.1,0-.2-.1-.2-.4v-8.3a9.29,9.29,0,0,1,.3-2.9c.2-.5.8-.9,1.7-1.3.3-.1.5-.3.5-.5s-.2-.4-.5-.4a5.81,5.81,0,0,0-1,.1h-3.5a30.3,30.3,0,0,1-3.4-.1c-.3,0-.5-.1-.8-.1s-.6.1-.6.4A.67.67,0,0,0,274,77.38Z"/><path class="a" d="M302.6,111.47a2.12,2.12,0,0,1-1.8-1,1.49,1.49,0,0,0-.7-.6c-.4,0-.6.4-.8,1.3-.1.4-.1.7-.2.8a1.09,1.09,0,0,0-.1.5c0,.3.2.5.5.8a2.38,2.38,0,0,0,1.2.3,6.81,6.81,0,0,0,4.8-2.3,12,12,0,0,0,3-5.8l.3-2.8V80.57a4.09,4.09,0,0,1,.4-2.2,2.71,2.71,0,0,1,1.6-.9c.4-.1.6-.3.6-.5s-.1-.4-.4-.4a8.33,8.33,0,0,0-1.2.1c-.4,0-1.2.1-2.7.1a33.43,33.43,0,0,1-3.6-.1,9.89,9.89,0,0,0-1.5-.1c-.5,0-.7.1-.7.5s.2.5.6.6l1.3.3a2.31,2.31,0,0,1,1.8,1.3,8.85,8.85,0,0,1,.5,3.5v21.4l.1,2.1a9.49,9.49,0,0,1-.8,4A3.27,3.27,0,0,1,302.6,111.47Z"/><path class="a" d="M331.7,94.68c.2.1.4.6.7,1.3l1.1,2.8a14.46,14.46,0,0,1,1.3,4.5,1.26,1.26,0,0,1-1.1,1.4l-.7.1c-.4.1-.5.2-.5.4s.2.4.5.4a2.25,2.25,0,0,0,.7-.1,29.55,29.55,0,0,1,3.7-.1,36.79,36.79,0,0,1,3.9.1h.8q.6,0,.6-.3c0-.3-.2-.4-.6-.5a5.84,5.84,0,0,1-2.7-1,10,10,0,0,1-1.6-3.2l-.5-1.1-9.1-23.2c-.2-.4-.3-.6-.6-.6s-.4.2-.6.6l-10.8,24-.6,1.4a10,10,0,0,1-1.2,1.9,4.07,4.07,0,0,1-1.1,1l-.8.2c-.2.1-.4.2-.4.5s.2.4.6.4a8.33,8.33,0,0,0,1.2-.1h3.2l2,.1h.7c.4,0,.6-.1.6-.4s-.2-.4-.7-.5a3.78,3.78,0,0,1-1.9-.8,2,2,0,0,1-.5-1.4,9.82,9.82,0,0,1,.9-3.2l1.4-3.1a5.11,5.11,0,0,1,1-1.7,3.82,3.82,0,0,1,1.9-.3h7.6C331.1,94.47,331.5,94.58,331.7,94.68Zm-8.4-2.2h-.6c-.6,0-1-.2-1-.5a2.71,2.71,0,0,1,.3-.8l4.1-9.1c.1-.3.2-.4.3-.4s.4.2.5.7l.2.4,3.3,8.3.1.4a1.09,1.09,0,0,1,.1.5c0,.4-.4.5-1.1.5h-6.2Z"/><path class="a" d="M355.7,101.47a13.39,13.39,0,0,0,.5,2,1.2,1.2,0,0,0,.7.7,12.62,12.62,0,0,0,3.9,1.5,22.42,22.42,0,0,0,4.8.6,14.62,14.62,0,0,0,10-3.4,11.12,11.12,0,0,0,3.9-8.7c0-5.2-3.5-9-10.5-11.3a58.5,58.5,0,0,1-6.8-2.5,7.37,7.37,0,0,1-2.5-2.2,6.48,6.48,0,0,1-1.3-4.1,5.68,5.68,0,0,1,2.1-4.5,7.57,7.57,0,0,1,5.1-1.8,13,13,0,0,1,7,2,9.45,9.45,0,0,1,4.2,5.1c.3.9.6,1.4.9,1.4s.6-.3.6-.9a7.5,7.5,0,0,0-.1-1.2l-.5-2.9c-.2-1.6-.4-2.6-.4-2.9,0-1-.2-1.4-.7-1.4-.2,0-.3,0-.3.1l-.4.3a1.08,1.08,0,0,1-.7.3.9.9,0,0,1-.5-.1l-2-.8a13.11,13.11,0,0,0-5.2-.9,13.6,13.6,0,0,0-8.9,2.9,9.21,9.21,0,0,0-3.4,7.5,9,9,0,0,0,2.6,6.7c1.8,1.7,4.7,3.3,9,4.7,4.1,1.4,6.6,2.4,7.4,3.2a6.58,6.58,0,0,1,2.5,5.3,7.05,7.05,0,0,1-2.7,5.6,10,10,0,0,1-6.6,2.3,12,12,0,0,1-7.2-2.4,11.09,11.09,0,0,1-4.3-6c-.3-.9-.6-1.4-.9-1.4s-.6.3-.6.8a15.64,15.64,0,0,0,.7,3.7A24.85,24.85,0,0,1,355.7,101.47Z"/><path class="a" d="M381.3,113.27a2.38,2.38,0,0,0,1.2.3,6.81,6.81,0,0,0,4.8-2.3,12,12,0,0,0,3-5.8l.3-2.8V80.57a4.09,4.09,0,0,1,.4-2.2,2.71,2.71,0,0,1,1.6-.9c.4-.1.6-.3.6-.5s-.1-.4-.4-.4a8.33,8.33,0,0,0-1.2.1c-.4,0-1.2.1-2.7.1a33.43,33.43,0,0,1-3.6-.1,9.89,9.89,0,0,0-1.5-.1c-.5,0-.7.1-.7.5s.2.5.6.6l1.3.3a2.31,2.31,0,0,1,1.8,1.3,8.85,8.85,0,0,1,.5,3.5v21.4l.1,2.1a9.49,9.49,0,0,1-.8,4c-.6,1.1-1.2,1.6-2.1,1.6a2.12,2.12,0,0,1-1.8-1,1.49,1.49,0,0,0-.7-.6c-.4,0-.6.4-.8,1.3-.1.4-.1.7-.2.8a1.09,1.09,0,0,0-.1.5C380.8,112.77,380.9,113.08,381.3,113.27Z"/><path class="a" d="M408.2,73.58q.45,0,1.2-.9a2.53,2.53,0,0,0,.7-1.4,2.93,2.93,0,0,0-.8-1.4q-.75-.9-1.2-.9t-1.2.9c-.5.6-.8,1.1-.7,1.4a2.93,2.93,0,0,0,.8,1.4Q407.75,73.57,408.2,73.58Z"/><path class="a" d="M415.9,73.58q.45,0,1.2-.9a2.47,2.47,0,0,0,.7-1.5,2.93,2.93,0,0,0-.8-1.4q-.75-.9-1.2-.9t-1.2.9c-.5.6-.8,1.1-.7,1.4a2.93,2.93,0,0,0,.8,1.4C415.2,73.27,415.6,73.58,415.9,73.58Z"/><path class="a" d="M412,106.08a14.69,14.69,0,0,0,10.9-4.3,15.33,15.33,0,0,0,4.3-11,13.86,13.86,0,0,0-4.2-10.4,15,15,0,0,0-10.8-4.1,16.68,16.68,0,0,0-6.2,1.2,14.84,14.84,0,0,0-5,3.2,16.35,16.35,0,0,0-3,4.8,16.58,16.58,0,0,0-1.1,5.8q0,6.75,4.2,10.8A15.22,15.22,0,0,0,412,106.08Zm-9-25.2a9.77,9.77,0,0,1,7.8-3.3,12.23,12.23,0,0,1,9.5,4.2,15.22,15.22,0,0,1,3.8,10.5,13,13,0,0,1-3.2,9,10.27,10.27,0,0,1-8.1,3.6,11.27,11.27,0,0,1-9-4.4,15.84,15.84,0,0,1-3.7-10.7C400.1,86,401.1,83.08,403,80.88Z"/><path class="a" d="M430.3,77.58a4.17,4.17,0,0,1,2.5,1.1,5.79,5.79,0,0,1,.6,3.1v11.9a14.67,14.67,0,0,0,1.5,7.1,9.77,9.77,0,0,0,4.2,3.8,15,15,0,0,0,6.4,1.4,14.35,14.35,0,0,0,5.8-1.2,10.49,10.49,0,0,0,4.2-3.1c1.5-2.1,2.3-5,2.3-8.8V82.47a10,10,0,0,1,.4-3.6,3.2,3.2,0,0,1,1.7-1.5.51.51,0,0,0,.4-.5.37.37,0,0,0-.4-.4,4.4,4.4,0,0,0-.9.1c-.4,0-1.3.1-2.9.1a10.89,10.89,0,0,1-1.9-.1,10.51,10.51,0,0,0-1.3-.2c-.3,0-.4.1-.4.4s.2.4.6.5a3.23,3.23,0,0,1,2.6,1.4,7.41,7.41,0,0,1,.8,3.8v10.9c0,3.7-.8,6.4-2.5,8.3s-4.2,2.7-7.5,2.7c-3.7,0-6.4-1.1-8-3.3-1.1-1.5-1.7-4.1-1.7-7.7v-12a6.05,6.05,0,0,1,.4-2.8,2.45,2.45,0,0,1,1.6-1.1c.4-.1.7-.3.7-.5s-.2-.3-.5-.3a5.39,5.39,0,0,0-1.1.1,6.82,6.82,0,0,1-1.2.1h-3.2a8.17,8.17,0,0,1-1.4-.1h-1.5c-.5,0-.8.2-.8.5S429.9,77.58,430.3,77.58Z"/><path class="a" d="M463.1,77.38a4.12,4.12,0,0,1,3.3,2.4,11.5,11.5,0,0,1,1.2,5.7v14.3a6.92,6.92,0,0,1-.6,3.3,4.07,4.07,0,0,1-2.4,1.6c-.4.1-.6.3-.6.5s.2.4.6.4a2.81,2.81,0,0,0,.8-.1,8.08,8.08,0,0,1,1.6-.1h1l2.1.1c1.1.1,1.7.1,1.8.1h.6c.3,0,.4-.1.4-.4s-.2-.5-.7-.5c-1.1-.2-1.9-.4-2.2-.8a3,3,0,0,1-.7-1.9l-.1-1.5V85.27c0-.6.1-.9.4-.9a.37.37,0,0,1,.3.1l.2.2L487.8,105l.5.5a.76.76,0,0,0,.5.2.63.63,0,0,0,.6-.5,17.25,17.25,0,0,0,.1-2.9V81a6.33,6.33,0,0,1,.4-2.8,2.8,2.8,0,0,1,1.7-1.1c.3-.1.4-.2.4-.4s-.2-.4-.6-.4a4.14,4.14,0,0,0-1,.1,12.17,12.17,0,0,1-2.1.1,38.43,38.43,0,0,1-3.9-.2c-.4,0-.7-.1-.9-.1-.4,0-.6.1-.6.4s.2.4.6.5a6.08,6.08,0,0,1,3,1.1,3.42,3.42,0,0,1,1,2.5l.3,4.8v13.2c0,.3-.1.4-.2.4s-.3-.2-.6-.5l-19.4-21.9a1.54,1.54,0,0,0-1.1-.6h-3.7c-.3,0-.5.1-.5.4C462.5,77.18,462.7,77.27,463.1,77.38Z"/><path class="a" d="M524.5,90.77a13.72,13.72,0,0,0-3.9-10.1c-2.9-2.9-7.2-4.3-12.9-4.3a25.29,25.29,0,0,0-2.8.1l-2,.2a30.22,30.22,0,0,1-3.3.1h-1.5l-1.7-.1c-.4,0-.5.1-.5.4s.2.4.7.4a3.12,3.12,0,0,1,2.4,1.2,5.27,5.27,0,0,1,.7,3.1v19a7,7,0,0,1-.4,3.1,2.69,2.69,0,0,1-1.9,1.1c-.4.1-.6.2-.6.5s.2.5.7.5c.3,0,.7-.1,1.2-.1a23,23,0,0,1,3.9-.2c1.4,0,3,.1,4.9.2a16.68,16.68,0,0,0,1.9.1,15.83,15.83,0,0,0,8.5-2.4,14.15,14.15,0,0,0,4.8-5.2A16.08,16.08,0,0,0,524.5,90.77Zm-8.1,12a12,12,0,0,1-6.5,1.8,16.78,16.78,0,0,1-2.9-.3,22.56,22.56,0,0,1-2.8-.7,1.72,1.72,0,0,1-1.3-1.8V80.07a2.28,2.28,0,0,1,.5-1.7c.6-.5,2-.7,4.2-.7a13.41,13.41,0,0,1,7.9,2.3,12.75,12.75,0,0,1,4.2,5.2,17.33,17.33,0,0,1,1.5,7.3C521.3,97.38,519.7,100.77,516.4,102.77Z"/><path class="a" d="M523.4,105.27c0,.3.2.4.6.4a8.33,8.33,0,0,0,1.2-.1h3.2l2,.1h.7c.4,0,.6-.1.6-.4s-.2-.4-.7-.5a3.78,3.78,0,0,1-1.9-.8,2,2,0,0,1-.5-1.4,9.82,9.82,0,0,1,.9-3.2l1.4-3.1a5.11,5.11,0,0,1,1-1.7,3.82,3.82,0,0,1,1.9-.3h7.6a3,3,0,0,1,1.4.2c.2.1.4.6.7,1.3l1.1,2.8a14.46,14.46,0,0,1,1.3,4.5,1.26,1.26,0,0,1-1.1,1.4l-.7.1c-.3.1-.5.2-.5.4s.2.4.5.4a2.25,2.25,0,0,0,.7-.1,29.55,29.55,0,0,1,3.7-.1,36.79,36.79,0,0,1,3.9.1h.8q.6,0,.6-.3c0-.3-.2-.4-.6-.5a5.84,5.84,0,0,1-2.7-1,10,10,0,0,1-1.6-3.2l-.5-1.1-9-23.2c-.2-.4-.3-.6-.6-.6s-.4.2-.6.6l-10.8,24-.6,1.4a10,10,0,0,1-1.2,1.9,4.07,4.07,0,0,1-1.1,1l-.8.2C523.5,105,523.4,105.08,523.4,105.27Zm9.9-14.1,4.1-9.1c.1-.3.2-.4.3-.4s.4.2.5.7l.2.4,3.3,8.3.1.4a1.09,1.09,0,0,1,.1.5c0,.4-.4.5-1.1.5h-7c-.6,0-1-.2-1-.5A2.77,2.77,0,0,0,533.3,91.18Z"/><path class="a" d="M168.6,140h-.1c-.2,0-.5-.2-.8-.7l-.1-.2-1-1.4a1.38,1.38,0,0,0,.9-1.3c0-.9-.6-1.3-1.8-1.3H164c-.1,0-.2,0-.2.1s.1.1.2.1h.2c.2,0,.4.2.4.6v3c0,.4,0,.7-.1.8a1.38,1.38,0,0,1-.4.3.1.1,0,0,0-.1.1c0,.1.1.1.2.1H166c.1,0,.2,0,.2-.1s-.1-.1-.2-.1a.59.59,0,0,1-.5-.2c-.1-.1-.1-.3-.1-.6v-1.4h.6c.1,0,.2,0,.2.1v.1l.9,1.4a1.41,1.41,0,0,0,1.2.8c.4,0,.6-.1.6-.2C168.7,140.08,168.7,140,168.6,140Zm-2.8-2.5h-.6v-1.8a.27.27,0,0,1,.3-.3,1.2,1.2,0,0,1,1.3,1.1A.9.9,0,0,1,165.8,137.47Z"/><path class="a" d="M166,133.27a4.12,4.12,0,0,0-3.4,1.6,4.36,4.36,0,0,0-1.1,2.9,4.56,4.56,0,0,0,1.1,2.9,4.42,4.42,0,0,0,3.4,1.6,4,4,0,0,0,3.1-1.3,4.16,4.16,0,0,0,1.3-3.1,4,4,0,0,0-1.3-3.1A3.61,3.61,0,0,0,166,133.27Zm2.8,7.2a3.87,3.87,0,1,1,1.2-2.8A4.74,4.74,0,0,1,168.8,140.47Z"/><path class="a" d="M589,124.27h.2c.2,0,.4.2.4.6v3c0,.4,0,.7-.1.8a1.38,1.38,0,0,1-.4.3.1.1,0,0,0-.1.1c0,.1.1.1.2.1H591c.1,0,.2,0,.2-.1s-.1-.1-.2-.1a.59.59,0,0,1-.5-.2c-.1-.1-.1-.3-.1-.6v-1.4h.6c.1,0,.2,0,.2.1v.1l.9,1.4a1.41,1.41,0,0,0,1.2.8c.4,0,.6-.1.6-.2s0-.1-.1-.1h-.1c-.2,0-.5-.2-.8-.7l-.1-.2-1-1.4a1.38,1.38,0,0,0,.9-1.3c0-.9-.6-1.3-1.8-1.3h-1.7c-.1,0-.2,0-.2.1C588.8,124.18,588.9,124.27,589,124.27Zm1.6.1a1.2,1.2,0,0,1,1.3,1.1c0,.6-.3.9-1,.9h-.7v-1.8C590.2,124.38,590.4,124.38,590.6,124.38Z"/><path class="a" d="M591.1,131a4,4,0,0,0,3.1-1.3,4.16,4.16,0,0,0,1.3-3.1,4,4,0,0,0-1.3-3.1,4.38,4.38,0,0,0-6.5.3,4.36,4.36,0,0,0-1.1,2.9,4.27,4.27,0,0,0,4.5,4.3Zm-2.8-7.2a4,4,0,1,1,0,5.6,3.69,3.69,0,0,1-1.1-2.8A3.36,3.36,0,0,1,588.3,123.77Z"/></svg>