<svg xmlns="http://www.w3.org/2000/svg" viewBox="0 0 143.96 160.24"><title>ADRA</title><path d="M72.22,111.79a54.59,54.59,0,0,0,10.29-.92v-7.21A85.69,85.69,0,0,0,111,95.3V107a42.55,42.55,0,0,0,16.87-8.76V83.34c8.65-9,13.79-20,13.79-31.18C141.63,23.43,110.45,0,72.22,0S2.79,23.43,2.79,52.16c0,11.21,5.15,22.16,13.77,31.18V98.26A42.71,42.71,0,0,0,33.43,107V95.3a85.66,85.66,0,0,0,28.48,8.36v7.21a54.32,54.32,0,0,0,10.31.92h0ZM59.7,7.47c-23.82,3.34-43,16.75-48.54,33.74,2.19,4.51,5.4,7.24,10.15,8-6.41-7.1-3.71-18.42,3.62-18.42,6.84,0,9.66,11,3.74,18.42C45.29,44.31,35.87,25,59.7,7.47h0Zm25,0c23.82,3.34,43,16.75,48.57,33.74-2.18,4.51-5.43,7.24-10.2,8,6.46-7.1,3.76-18.42-3.6-18.42-6.81,0-9.66,11-3.71,18.42C99.12,44.31,108.52,25,84.7,7.47h0Zm-68,66.07A37.09,37.09,0,0,1,9.35,52.16v-0.4a13.35,13.35,0,0,0,7.21,3.9L16.7,73.54h0Zm111,0a37.26,37.26,0,0,0,7.35-21.38v-0.4a13.41,13.41,0,0,1-7.24,3.9l-0.12,17.88h0ZM58.95,96.71A78.35,78.35,0,0,1,33.43,88V56a7.7,7.7,0,0,0,4.51-3.2c1.43,19.17,8,34.12,21,43.89h0Zm26.53,0A78,78,0,0,0,111,88V56a7.77,7.77,0,0,1-4.51-3.2c-1.41,19.17-8,34.12-21,43.89h0ZM61.91,89C49.69,78.43,44.64,64.78,45.53,48c4.91,3.71,10.31,6.81,16.38,7.85V89h0Zm20.61,0C94.73,78.43,99.76,64.78,98.84,48,94,51.76,88.57,54.86,82.51,55.9V89h0ZM72.22,30.92c10.15,0,13,13.28,4.49,18.14A37.12,37.12,0,0,0,97.2,38.65C93.58,24.72,83.66,12,72.22,7.71c-11.47,4.25-21.38,17-25,30.94A37.11,37.11,0,0,0,67.71,49.06C59.2,44.2,62,30.92,72.22,30.92h0Z" fill="#fff" fill-rule="evenodd"/><path d="M19.66,127L15,141.16h9.92L19.66,127h0Zm37.59,33.25H26.47c-2.47,0-2.47-2.21,0-2.21,3-.26,4.14-1.67,3.48-4.37-1.29-3.1-2.7-6.18-4-9.26H14.12c-1.17,3.31-2.33,6.81-3.48,10.27-0.49,2.35,1.15,3.5,5.55,3.5,1.41,0,1.15,2.07,0,2.07H1.5c-2.07,0-1.93-1.67,0-1.67,3.34-.28,5.64-2.44,7-6.46,3.34-9.26,6.56-18.56,9.92-27.82A22.29,22.29,0,0,0,17.1,122h5.76c4.16,10.81,8.27,21.47,12.38,32.33,0.89,2.44,2.19,3.59,4.25,3.71a1.31,1.31,0,0,0,1.29-1.55V127.79c0-2.47-2.21-3.62-5.55-3.76-1.81,0-1.81-1.95,0-2h22C65.5,122,77,128.55,77,141.68c0,11.72-12.1,18.56-19.71,18.56h0Zm0-35.95H45.53v29.23c0.14,3,.92,4.51,5.05,4.51h6.67c7.35,0,13.91-5.8,13.79-16.35,0-10.95-7.21-17.39-13.79-17.39h0Zm64.26,2.7-4.6,14.17h9.77L121.51,127h0Zm-29.23-2.7H86.22v15.32c0,1.69.4,2.44,2.61,2.44h3.45c4,0,7.35-3.1,7.21-8.6,0-5.8-3.71-9.16-7.21-9.16h0Zm-6.06,29.23v-9.4h5.17a26,26,0,0,0,3-.12c1.29,3,8.39,16.24,18.56,16.24h5a1,1,0,0,0,0-2.07c-4.25,0-5.92-1.15-5.4-3.5,1.15-3.45,2.33-7,3.5-10.27h11.82c1.29,3.08,2.58,6.16,4,9.26,0.52,2.7-.63,4.11-3.45,4.37-2.61,0-2.61,2.21,0,2.21h12.88c3.74,0,3.48-2.33,0-2.21-2-.12-3.36-1.27-4.11-3.71C133,143.46,128.87,132.8,124.62,122H119a23,23,0,0,1,1.32,2.3c-3.36,9.26-6.72,18.56-10.06,27.82a15.45,15.45,0,0,1-1.06,2.7c-4.51-3.08-7-7.19-9.4-12.5,3.24-1.55,5.94-4.37,5.94-8.86C105.56,124.29,99.64,122,91.39,122H75.67c-1.55,0-1.81,2,.26,2,4.65,0,5.43,2.56,5.43,4v28.45c-0.14,1.81-1.69,1.43-3.64,1.55-2.42,0-2.42,2.21,0,2.21H91.13c3.1,0,3.1-2.21,0-2.21-4.11,0-4.91-1.55-4.91-4.51h0Z" fill="#fff" fill-rule="evenodd"/></svg>