<svg xmlns="http://www.w3.org/2000/svg" viewBox="0 0 71.6 69.8"><title>Adventist Health Ministries</title><path d="M13.7,27.3L26.3,14.7C33.2,7.8,36.7,4,38.6,1.1,37.7,1.1,36.8,1,36,1H35.3a82.5,82.5,0,0,1-7,7.2l-15,15.1C3.5,33.1,1.4,37.2.8,43.8a35.85,35.85,0,0,0,1.6,5.6,0.9,0.9,0,0,0-.1-0.5C1.6,41,7.1,33.9,13.7,27.3Z" transform="translate(-0.2 -1)" style="fill:#fff"/><path d="M58.8,32.4s1.1-4.5,1.4-5.9c0.2-1,.1-11.5.2-12.8a3.84,3.84,0,0,1,.8-2.3A38,38,0,0,0,53,5.3c-0.1-.1-0.3-0.1-0.4-0.2L52,4.8c-0.6-.3-1.2-0.6-1.9-0.9-0.1,0-.1-0.1-0.2-0.1a34.89,34.89,0,0,0-8.7-2.4V2.1c0,7-9,15.1-12.6,18.7L15.3,34.1C11.1,38.3,2.8,46.5,4.9,54.7a34.47,34.47,0,0,0,2,3.2c-0.1-.7-0.2-1.5-0.3-2.2-0.2-7.2,3.7-11.7,8-15.9L26.3,28.1C36.9,17.4,40.1,13.1,41,9.4c0-.1.1-0.2,0.1,0v6c0,7-9,15.1-12.6,18.7l-12,12C10.1,52.5,8.8,59.6,11.4,63a32.88,32.88,0,0,0,4.1,3.3c0.2,0.2.5,0.3,0.7,0.5l0.9,0.6c0.4,0.2.7,0.4,1.1,0.6a0.76,0.76,0,0,0,.4.2c0.8,0.5,1.7.9,2.5,1.3V69.3c-2.2-4.1-5.9-9.5,2.9-19.4,2.7-3,5.6-5,8-7.2a87.27,87.27,0,0,0,6.3-6.8c1.7-2,1.9-3.8,2.4-5.3s6.5,0.7,3.8,7.7c-0.7,1.8-2,4.1-5,8.3-1.8,2.4-4.2,5.9-2.7,6.4s4.7,0.2,7.6-2.7,10.8-11.2,12.5-14S58.8,32.4,58.8,32.4Zm-6.5,6.3S48.2,31.5,47,25.8s2-7.1,2.3-6.5,2.4,5.2,2.6,6.8c0.1,1.2.7,12.1,0.8,12.4S52.6,39,52.3,38.7Zm2-1.9c-0.1-1.4-.4-6.2-0.6-8.8-0.2-3.2-1.2-4.9-1.1-9,0.2-6.9,4.2-7.2,4.3-6.6s1.3,7.8,1.4,8.8a30.82,30.82,0,0,1,.2,4.2c-0.5,2.5-.9,5-1.2,6.6a52.78,52.78,0,0,1-2.7,5A0.34,0.34,0,0,1,54.3,36.8Z" transform="translate(-0.2 -1)" style="fill:#fff"/><path d="M14.4,13.5L25.3,2.6A35.81,35.81,0,0,0,.2,34.5a36.05,36.05,0,0,1,1-3.8C3.3,24.6,8.1,19.8,14.4,13.5Z" transform="translate(-0.2 -1)" style="fill:#fff"/><path d="M65.4,16.5l0.3,2.7s0.8,8.5.8,8.9a67,67,0,0,1-.3,8.2,27.62,27.62,0,0,1-3.8,9c-1.7,2.6-6.3,8.8-7.6,10.7s-8.5,11.3-7.1,14.8A35.84,35.84,0,0,0,65.4,16.5Z" transform="translate(-0.2 -1)" style="fill:#fff"/></svg>
