<svg xmlns="http://www.w3.org/2000/svg" viewBox="0 0 139.3 121.6"><title>Adventist Health Ministries</title><path d="M37.6,53.9a35.85,35.85,0,0,0,1.6,5.6,0.9,0.9,0,0,0-.1-0.5c-0.7-7.8,4.7-15,11.4-21.6L63.1,24.8C69.9,18,73.5,14.2,75.4,11.3a24.38,24.38,0,0,0-2.7-.1H72a82.5,82.5,0,0,1-7,7.2l-15,15C40.2,43.2,38.2,47.3,37.6,53.9Z" transform="translate(-1.9 -11.2)" style="fill:#fff"/><path d="M51.2,23.6L62,12.7A35.85,35.85,0,0,0,37,44.6a36.06,36.06,0,0,1,1-3.8C40,34.7,44.9,29.9,51.2,23.6Z" transform="translate(-1.9 -11.2)" style="fill:#fff"/><path d="M99.2,55.4c-1.7,2.6-6.3,8.8-7.6,10.7s-8.5,11.3-7.1,14.8a35.84,35.84,0,0,0,17.7-54.3l0.3,2.7s0.8,8.5.8,8.9a67,67,0,0,1-.3,8.2A27.62,27.62,0,0,1,99.2,55.4Z" transform="translate(-1.9 -11.2)" style="fill:#fff"/><path d="M65.3,30.9L52.1,44.2c-4.3,4.3-12.5,12.4-10.5,20.6a34.48,34.48,0,0,0,2,3.2c-0.1-.7-0.2-1.5-0.3-2.2-0.2-7.2,3.7-11.7,8-15.9L63.1,38C73.6,27.5,76.9,23.2,77.8,19.5c0-.1.1-0.2,0.1,0v6c0,7-9,15.1-12.6,18.7l-12,12c-6.4,6.4-7.7,13.5-5.1,16.9a32.89,32.89,0,0,0,4.1,3.3c0.2,0.2.5,0.3,0.7,0.5l0.9,0.6c0.4,0.2.7,0.4,1.1,0.6a0.76,0.76,0,0,0,.4.2c0.8,0.5,1.7.9,2.5,1.3V79.4C55.7,75.3,52,69.9,60.8,60c2.7-3,5.6-5,8-7.2A87.26,87.26,0,0,0,75.1,46c1.7-2,1.9-3.8,2.4-5.3s6.5,0.7,3.8,7.7c-0.7,1.8-2,4.1-5,8.3-1.8,2.4-4.2,5.9-2.7,6.4s4.7,0.2,7.6-2.7S92,49.2,93.7,46.4s1.8-3.9,1.8-3.9,1.1-4.5,1.4-5.9c0.2-1,.1-11.5.2-12.8a3.84,3.84,0,0,1,.8-2.3,38,38,0,0,0-8.2-6.1c-0.1-.1-0.3-0.1-0.4-0.2l-0.6-.3c-0.6-.3-1.2-0.6-1.9-0.9-0.1,0-.1-0.1-0.2-0.1a34.89,34.89,0,0,0-8.7-2.4v0.7C77.9,19.2,68.9,27.3,65.3,30.9Zm28.4-8.4c0.1,0.6,1.3,7.8,1.4,8.8a30.82,30.82,0,0,1,.2,4.2c-0.5,2.5-.9,5-1.2,6.6a52.8,52.8,0,0,1-2.7,5,0.25,0.25,0,0,1-.3-0.2c-0.1-1.4-.4-6.2-0.6-8.8-0.2-3.2-1.2-4.9-1.1-9C89.6,22.2,93.6,21.9,93.7,22.5Zm-7.6,6.9c0.3,0.7,2.4,5.2,2.6,6.8,0.1,1.2.7,12.1,0.8,12.4s-0.1.5-.4,0.2c0,0-4.1-7.2-5.3-12.9S85.8,28.8,86.1,29.4Z" transform="translate(-1.9 -11.2)" style="fill:#fff"/><path d="M19.4,127v-4.2l1.3-.6,0.1-.5H16.6l-0.1.4,0.8,0.6v3.6h-5v-3.6l0.8-.5,0.1-.5H9l-0.1.2,1.3,0.6v4.2c0,2.1-.1,4.4-0.1,4.8l-1.2.6-0.1.4h4.3l0.1-.4-0.9-.6v-4.3h3a10.94,10.94,0,0,0,2-.1v4.4l-0.7.6-0.1.5h4.4l0.1-.4-1.5-.6C19.4,131.4,19.4,128.9,19.4,127Z" transform="translate(-1.9 -11.2)" style="fill:#fff"/><path d="M25.6,125a3.91,3.91,0,0,0-3.8,4,3.49,3.49,0,0,0,3.7,3.8,6.53,6.53,0,0,0,1.7-.3,3.64,3.64,0,0,0,1.2-1.5l-0.1-.3a11.57,11.57,0,0,0-1.6,1.1,0.9,0.9,0,0,1-.5.1c-1.4,0-2.4-1.1-2.4-2.8v-0.3h3a3.77,3.77,0,0,0,1.7-.3c0.2,0,.2-0.3.2-0.5A2.91,2.91,0,0,0,25.6,125Zm0.8,3.2H23.8c0-.9.5-2.4,1.5-2.4,0.8,0,1.2.8,1.2,1.9A4.34,4.34,0,0,1,26.4,128.2Z" transform="translate(-1.9 -11.2)" style="fill:#fff"/><path d="M36,131.3v-3.7a2.42,2.42,0,0,0-2.6-2.5,2.66,2.66,0,0,0-1.2.3,7.28,7.28,0,0,0-2.3,1.3,2.84,2.84,0,0,0,1.3,1.5l0.1-.1c0.1-.4.2-1.3,0.3-1.9a2.39,2.39,0,0,1,.9-0.2c0.7,0,1.4.4,1.4,1.8l0.1,0.4a21.44,21.44,0,0,0-3.4,1.2,1.19,1.19,0,0,0-.7,1.3,2.2,2.2,0,0,0,2.2,2.1,3.46,3.46,0,0,0,2-.9,1.57,1.57,0,0,0,1.7.9,2.44,2.44,0,0,0,1.3-.4l0.1-.2A2.91,2.91,0,0,1,36,131.3Zm-2.2-.3a0.48,0.48,0,0,1-.1.4,1.08,1.08,0,0,1-.7.3,1.15,1.15,0,0,1-1.2-1.2,1,1,0,0,1,.5-1,6.9,6.9,0,0,1,1.5-.7V131Z" transform="translate(-1.9 -11.2)" style="fill:#fff"/><path d="M40.6,126.1v-4.9a19.23,19.23,0,0,0-2.9.5l-0.1.4,0.9,0.4v9.3l-1,.5-0.1.4h4.3l0.1-.5-1.2-.4v-5.7Z" transform="translate(-1.9 -11.2)" style="fill:#fff"/><path d="M45.2,122.8a3.82,3.82,0,0,0-1.3.4,8.36,8.36,0,0,0-.8,2H42.3l-0.2.6,1,0.3v4.2a2.19,2.19,0,0,0,.4,1.7,2.74,2.74,0,0,0,1.9.7,2.58,2.58,0,0,0,2.2-1v-0.6H47.5a2,2,0,0,1-1.3.4,1.88,1.88,0,0,1-.8-0.2,1,1,0,0,1-.2-0.7v-4.5l2.2-.2,0.3-.6v-0.1H45.1Z" transform="translate(-1.9 -11.2)" style="fill:#fff"/><path d="M55.9,131.3H56v-3.6a2.43,2.43,0,0,0-2.5-2.6,3.17,3.17,0,0,0-2.2.9v-4.9a16.85,16.85,0,0,0-3,.5l-0.1.3,1,0.5v9.2l-0.9.6-0.1.4h4.1l0.1-.4-1.2-.6v-5a2.14,2.14,0,0,1,1.2-.4c0.9,0,1.5.5,1.5,2.1a29.68,29.68,0,0,1-.2,4.2c0.9,0.1,2.4.1,3.2,0.1l0.1-.4-0.8-.4A0.46,0.46,0,0,1,55.9,131.3Z" transform="translate(-1.9 -11.2)" style="fill:#fff"/><path d="M74.4,122.6l1.4-.5,0.1-.4H72.3a1.63,1.63,0,0,1,0,.7c-1.5,3.1-2.9,5.9-3.3,6.8-1.7-3.5-3-6-3.3-6.8a1.1,1.1,0,0,1-.1-0.7H62.3l-0.4.4c1.3,0.5,1.4.4,1.6,1-0.3,2.8-.8,7.5-1,8.4l-1.2.6-0.1.4H65l0.1-.4-1.5-.6c0.1-1,.3-5.3.5-7.7,2.3,5.3,3,7,3.8,8.9l0.4-.1c1.9-4.5,3.2-7.2,4-9.1h0.1c0,2.5.1,5.5,0.1,8l-1,.6-0.1.4h4.8l0.1-.4-1.5-.6C74.7,131,74.4,124.4,74.4,122.6Z" transform="translate(-1.9 -11.2)" style="fill:#fff"/><path d="M79.3,121.5H79.1a5.7,5.7,0,0,0-1.1,1.1v0.2a3.46,3.46,0,0,0,1,1.1h0.2a3.84,3.84,0,0,0,1.1-1.1v-0.2A2.71,2.71,0,0,0,79.3,121.5Z" transform="translate(-1.9 -11.2)" style="fill:#fff"/><path d="M80.2,128.5v-3.4a18.38,18.38,0,0,0-2.8.5l-0.2.5,0.9,0.4v5.2l-0.9.5-0.1.5h4.1l0.1-.5-1.1-.5v-3.2Z" transform="translate(-1.9 -11.2)" style="fill:#fff"/><path d="M89.9,131.2v-3.7c0-1.2-.5-2.6-2.3-2.6a4.61,4.61,0,0,0-2.5,1.3l0.1-1.2a11.9,11.9,0,0,0-2.7.7l-0.1.4,0.8,0.4v5l-0.9.5-0.1.4H86l0.1-.4-0.8-.5v-4.7a2.51,2.51,0,0,1,1.4-.6c0.8,0,1.3.5,1.3,1.6,0,2.1-.1,3.2-0.1,3.7l-0.7.5-0.1.4H91l0.1-.4-0.9-.4A0.42,0.42,0,0,1,89.9,131.2Z" transform="translate(-1.9 -11.2)" style="fill:#fff"/><path d="M94.8,128.5v-3.4a18.38,18.38,0,0,0-2.8.5l-0.2.5,0.9,0.4v5.2l-0.9.5-0.1.5h4.1l0.1-.5-1.1-.5v-3.2Z" transform="translate(-1.9 -11.2)" style="fill:#fff"/><path d="M93.7,121.5a5.71,5.71,0,0,0-1.1,1.1v0.2a3.46,3.46,0,0,0,1,1.1h0.2a3.84,3.84,0,0,0,1.1-1.1v-0.2a2.71,2.71,0,0,0-1-1.1H93.7Z" transform="translate(-1.9 -11.2)" style="fill:#fff"/><path d="M101.5,128.5c-0.6-.3-1.3-0.6-2-1a0.94,0.94,0,0,1-.6-0.8,1,1,0,0,1,1.1-.9,1.41,1.41,0,0,1,1,.3,5.17,5.17,0,0,0,.6,1.3l0.3-.1a7.19,7.19,0,0,0,.4-2.2l-0.2-.1a3.13,3.13,0,0,0-1,.5,2.42,2.42,0,0,0-1.3-.4,2.5,2.5,0,0,0-2.7,2.2,2.31,2.31,0,0,0,1.6,2.1c0.6,0.3,1.1.6,1.5,0.8a0.9,0.9,0,0,1,.6.9,1.17,1.17,0,0,1-1.3,1.1,2.39,2.39,0,0,1-.9-0.2c-0.3-.5-0.7-1.5-1-2l-0.2.1a11.79,11.79,0,0,0-.4,2,5.31,5.31,0,0,0,2.5.7c1.1,0,3.2-.5,3.2-2.5A2,2,0,0,0,101.5,128.5Z" transform="translate(-1.9 -11.2)" style="fill:#fff"/><path d="M106.4,122.8a3.82,3.82,0,0,0-1.3.4,8.36,8.36,0,0,0-.8,2h-0.8l-0.2.6,1,0.3v4.2a2.19,2.19,0,0,0,.4,1.7,2.74,2.74,0,0,0,1.9.7,2.58,2.58,0,0,0,2.2-1v-0.6h-0.1a2,2,0,0,1-1.3.4,1.88,1.88,0,0,1-.8-0.2,1,1,0,0,1-.2-0.7v-4.5l2.2-.2,0.3-.6v-0.1h-2.6Z" transform="translate(-1.9 -11.2)" style="fill:#fff"/><path d="M112.5,126.6a6.8,6.8,0,0,0-.2-1.5,11.15,11.15,0,0,0-2.6.6l0.2,0.4,0.9,0.5c0,0.7,0,3.4-.1,5.1l-0.9.5-0.1.4h4.6l0.1-.4-1.7-.5v-4.3a1.36,1.36,0,0,1,1.1-1c0.1,0,.1.1,0.2,0.1a5.35,5.35,0,0,0,.7,1.2l0.2-.1a7,7,0,0,0,.7-2.2,1.22,1.22,0,0,0-.9-0.3A2.9,2.9,0,0,0,112.5,126.6Z" transform="translate(-1.9 -11.2)" style="fill:#fff"/><path d="M119.2,128.5v-3.4a18.38,18.38,0,0,0-2.8.5l-0.2.5,0.9,0.4v5.2l-0.9.5-0.1.5h4.1l0.1-.5-1.1-.5v-3.2Z" transform="translate(-1.9 -11.2)" style="fill:#fff"/><path d="M118.2,123.9a3.84,3.84,0,0,0,1.1-1.1v-0.2a2.71,2.71,0,0,0-1-1.1h-0.2a5.7,5.7,0,0,0-1.1,1.1v0.2a3.46,3.46,0,0,0,1,1.1h0.2Z" transform="translate(-1.9 -11.2)" style="fill:#fff"/><path d="M125.2,125a3.91,3.91,0,0,0-3.8,4,3.49,3.49,0,0,0,3.7,3.8,6.53,6.53,0,0,0,1.7-.3A3.64,3.64,0,0,0,128,131l-0.1-.3a11.57,11.57,0,0,0-1.6,1.1,0.9,0.9,0,0,1-.5.1c-1.4,0-2.4-1.1-2.4-2.8v-0.3h3a3.77,3.77,0,0,0,1.7-.3c0.2,0,.2-0.3.2-0.5A2.91,2.91,0,0,0,125.2,125Zm0.8,3.2h-2.6c0-.9.5-2.4,1.5-2.4,0.8,0,1.2.8,1.2,1.9A4.34,4.34,0,0,1,126,128.2Z" transform="translate(-1.9 -11.2)" style="fill:#fff"/><path d="M133.8,128.5c-0.6-.3-1.3-0.6-2-1a0.94,0.94,0,0,1-.6-0.8,1,1,0,0,1,1.1-.9,1.41,1.41,0,0,1,1,.3,5.17,5.17,0,0,0,.6,1.3l0.3-.1a7.19,7.19,0,0,0,.4-2.2l-0.2-.1a3.13,3.13,0,0,0-1,.5,2.64,2.64,0,0,0-4,1.8,2.31,2.31,0,0,0,1.6,2.1c0.6,0.3,1.1.6,1.5,0.8a0.9,0.9,0,0,1,.6.9,1.17,1.17,0,0,1-1.3,1.1,2.39,2.39,0,0,1-.9-0.2c-0.3-.5-0.7-1.5-1-2l-0.2.1a11.8,11.8,0,0,0-.4,2,5.31,5.31,0,0,0,2.5.7c1.1,0,3.2-.5,3.2-2.5A2,2,0,0,0,133.8,128.5Z" transform="translate(-1.9 -11.2)" style="fill:#fff"/><path d="M10.6,113.8l-3.4-1.2c0.7-1.8,1.3-3.4,2.8-7.2a78.49,78.49,0,0,0,8.6-.2c1.6,3.9,2.7,6.6,3,7.6l-1.4,1.1-0.2.8h8.1l0.3-.8c-2.5-.7-3.1-1.1-3.8-1.8C21.2,103.6,17,93,16.4,91.4a9.14,9.14,0,0,1-.5-2.6l-0.2-.2L13,90.3l0.4,1a1.88,1.88,0,0,1-.2,1.2c-3,8-7.3,17.7-8.4,20l-2.7,1.2-0.2.9h8.5Zm3.9-19.9c1.2,2.9,2.3,6,3.8,9.9-1.7,0-6.4-.2-7.4-0.2C11.7,101.1,12.8,98.4,14.5,93.9Z" transform="translate(-1.9 -11.2)" style="fill:#fff"/><path d="M40.3,113a4,4,0,0,0,3.6,2.2,2.81,2.81,0,0,0,1.5-.3l0.3-.7a7.7,7.7,0,0,1-3-2.3V99.5c0-4.2,0-7.8.1-12a20.58,20.58,0,0,0-4.9,1.2l-0.3.7,2.4,1c0.1,3.2.1,5.4,0.1,8.3a6.93,6.93,0,0,0-3.3-1.2,9.21,9.21,0,0,0-9.2,9.2,8.17,8.17,0,0,0,8.1,8.5C37.3,115.2,39.6,113.5,40.3,113Zm-9.7-6.8c0-3.6,2.5-7.1,6.4-7.1a5.61,5.61,0,0,1,3.1.9v11.8a5.83,5.83,0,0,1-3.4,1.3C33.1,113.1,30.6,109.9,30.6,106.2Z" transform="translate(-1.9 -11.2)" style="fill:#fff"/><path d="M62.9,97.8H57l-0.3.9,1.9,1.1c-2.7,7.5-3.4,9.2-4.2,11.1H54.3c-2.1-5.2-3.6-8.9-4.4-11.2l1.2-.9,0.3-.9H44.9l-0.2.8a4.25,4.25,0,0,1,2.6,1.8c2.3,5.5,5.7,14.1,6,14.8h0.3a16,16,0,0,0,1.1-1.9c1.4-3.6,4.9-11.8,5.5-13a4.39,4.39,0,0,1,2.4-1.7Z" transform="translate(-1.9 -11.2)" style="fill:#fff"/><path d="M72,105.8a10.22,10.22,0,0,0,3.5-.5,1.34,1.34,0,0,0,.4-1.2c0-4.2-2.9-6.5-6.2-6.5-4.2,0-8.1,3.7-8.1,9.2,0,5.2,3.4,8.5,7.9,8.5a10.64,10.64,0,0,0,4-1,8.18,8.18,0,0,0,2-2.5l-0.2-.6a19.88,19.88,0,0,0-3,1.9,5.21,5.21,0,0,1-1.4.2c-3.5,0-6.3-2.6-6.3-7.1v-0.4H72Zm-2.6-7c2.4,0,3.6,2.2,3.6,4.4a3.59,3.59,0,0,1-.2,1.1v0.1H64.6C64.7,102.9,65.9,98.8,69.4,98.8Z" transform="translate(-1.9 -11.2)" style="fill:#fff"/><path d="M78.7,112.9l-2.1,1-0.3.8h7.1l0.3-.9-2.2-1c-0.1-.8-0.1-8.1-0.1-11,0.9-.9,2.8-2.3,4.6-2.3,2,0,3.8,1.2,3.8,4.3,0,5-.1,7.8-0.2,8.9l-1.5,1.1-0.3.9H95l0.3-.8-2.4-1a0.67,0.67,0,0,1-.5-0.7v-8.7c0-2.9-1.2-6.1-5.1-6.1-1.5,0-3,.5-6.1,3.1H81.1l0.2-3.1a18.46,18.46,0,0,0-4.5,1.4l-0.3.7,2.1,0.9h0.2v3.5C78.8,108.8,78.8,112.3,78.7,112.9Z" transform="translate(-1.9 -11.2)" style="fill:#fff"/><path d="M105.2,99.2l0.7-1.3V97.8h-5.8l0.1-5.5a3.1,3.1,0,0,0-2,1.2c-0.4,1.4-.6,3.2-0.8,4.3H95.5l-0.7,1.3,2.6,0.4v9.8c0,2.5.3,3.3,0.9,4.2a4.68,4.68,0,0,0,3.4,1.5,5.49,5.49,0,0,0,4.2-1.8v-1.1h-0.2a5.43,5.43,0,0,1-3.1.9,3.05,3.05,0,0,1-1.9-.6,2.61,2.61,0,0,1-.7-1.9V99.6Z" transform="translate(-1.9 -11.2)" style="fill:#fff"/><path d="M111.1,94l0.3-.1a7,7,0,0,0,1.8-2l0.1-.3a5.52,5.52,0,0,0-1.8-1.9h-0.1a6.12,6.12,0,0,0-1.9,2l-0.1.3A5.51,5.51,0,0,0,111.1,94Z" transform="translate(-1.9 -11.2)" style="fill:#fff"/><path d="M112.7,105.1V97.4a28.92,28.92,0,0,0-4.5,1.1l-0.2.6,2.1,1V105c0,3-.1,6.4-0.1,7.7l-2.2,1.1-0.3.8h7.8l0.3-.8-2.8-1.1C112.7,111.6,112.7,109.4,112.7,105.1Z" transform="translate(-1.9 -11.2)" style="fill:#fff"/><path d="M125.7,105.8c-1.2-.6-3.5-1.6-4.5-2.1a2.33,2.33,0,0,1-1.3-2.2,2.82,2.82,0,0,1,3.1-2.8,3.31,3.31,0,0,1,2.2.6c0.4,0.9.9,2.1,1.3,2.9l0.5-.2a17.91,17.91,0,0,0,1-4.4l-0.3-.3a17.39,17.39,0,0,0-1.9,1,5.14,5.14,0,0,0-2.8-.9,5.59,5.59,0,0,0-5.9,4.9c0,2.1,1.2,3.5,3.2,4.4,1.5,0.7,2.8,1.3,3.8,1.8a2.29,2.29,0,0,1,1.6,2.4c0,1.6-1.6,2.9-3.7,2.9a7.46,7.46,0,0,1-2.4-.4,36.07,36.07,0,0,0-1.6-4.2l-0.5.3a17.87,17.87,0,0,0-.9,4,11.07,11.07,0,0,0,5.5,1.6c2.3,0,6.5-1.2,6.5-5.2C128.6,108.2,127.8,106.8,125.7,105.8Z" transform="translate(-1.9 -11.2)" style="fill:#fff"/><path d="M140.5,99.2l0.7-1.3V97.8h-5.8l0.1-5.5a3.1,3.1,0,0,0-2,1.2c-0.4,1.4-.6,3.2-0.8,4.3h-1.9l-0.7,1.3,2.6,0.4v9.8c0,2.5.3,3.3,0.9,4.2A4.68,4.68,0,0,0,137,115a5.49,5.49,0,0,0,4.2-1.8v-1.1H141a5.43,5.43,0,0,1-3.1.9,3.05,3.05,0,0,1-1.9-.6,2.61,2.61,0,0,1-.7-1.9V99.6Z" transform="translate(-1.9 -11.2)" style="fill:#fff"/></svg>
