<?xml version="1.0" encoding="utf-8"?>
<!-- Generator: Adobe Illustrator 19.2.1, SVG Export Plug-In . SVG Version: 6.00 Build 0)  -->
<svg version="1.1" id="Layer_1" xmlns="http://www.w3.org/2000/svg" xmlns:xlink="http://www.w3.org/1999/xlink" x="0px" y="0px"
	 viewBox="0 0 447 185.6" style="enable-background:new 0 0 447 185.6;" xml:space="preserve">
<style type="text/css">
	.st0{fill:#FFFFFF;}
</style>
<title>Adventist Family Ministry</title>
<path class="st0" d="M183.6,95.5c1.8,0,3,0,4,0.1c0.3-0.2,0.4-0.6,0.2-0.9c0-0.1-0.1-0.1-0.1-0.1l-1.3-0.1c-0.9-0.1-1.1-0.3-1.1-0.8
	c0.2-1.1,0.4-2.2,0.9-3.2l1.4-4c0.3-0.8,0.5-0.9,1.5-0.9h5.8c1.1,0,1.3,0.1,1.6,1l1.7,5.2c0.3,0.6,0.4,1.3,0.5,2
	c0,0.4-0.5,0.6-1.4,0.7l-1.1,0.1c-0.3,0.2-0.3,0.7,0,0.9c0,0,0.1,0.1,0.1,0.1c1.1,0,2.6-0.1,4.4-0.1s3.1,0,4.7,0.1
	c0.3-0.3,0.3-0.7,0-1l-1-0.1c-1.7-0.2-2.2-0.8-3.3-4.1L195.6,75c-0.6-1.7-1.2-3.5-1.7-5.2c-0.1-0.2-0.3-0.4-0.6-0.4
	c-0.5,0.7-1.2,1.2-2,1.5c0,1-0.2,1.9-0.6,2.7l-3.9,10.4c-1.6,4.3-2.7,6.8-3.4,8.6c-0.3,1.1-1.2,1.8-2.3,1.9l-1.3,0.1
	c-0.2,0.3-0.2,0.7,0.1,1C180.9,95.6,182.3,95.5,183.6,95.5z M188.7,83.2l2.4-6.7c0.3-0.8,0.6-1.5,0.9-2.3h0.1
	c0.3,0.8,0.6,1.6,0.9,2.4l2.1,6.3c0.4,1,0.3,1.2-0.9,1.2h-4.7C188.4,84.1,188.4,84,188.7,83.2L188.7,83.2z"/>
<path class="st0" d="M212.2,96.1c1.8,0,3.5-0.7,4.9-1.8h0.1c0.1,0.4,0.1,0.8,0.1,1.2v0.6c0,0.2,0.2,0.3,0.4,0.3
	c1.7-0.6,3.4-1,5.1-1.2c0.3-0.4,0.3-0.9,0-1.2c-0.5,0.2-1.1,0.3-1.7,0.4c-1.1,0-1.1-1.4-1.1-4.5V73c0-1.7,0.1-3.6,0.1-4.8
	c-0.1-0.1-0.2-0.2-0.4-0.2c-1.3,0.7-2.7,1.2-4.2,1.6c-0.2,0.2-0.2,0.5,0,0.8l0.4,0.2c1.1,0.7,1.2,0.9,1.2,3.2v5.8
	c0,0.3,0,0.5-0.2,0.5c-0.8-0.3-1.7-0.4-2.6-0.4c-5.2,0-9.3,3.5-9.3,8.9c-0.2,3.9,2.9,7.2,6.8,7.4C212,96.1,212.1,96.1,212.2,96.1z
	 M213.6,81c1.3,0,2.5,0.6,3.2,1.6c0.3,0.4,0.5,1,0.4,1.5v7.6c0.1,0.5,0,1-0.3,1.4c-0.8,0.7-1.9,1.1-3,1.1c-3.8,0-5.7-3.3-5.7-6.8
	C208.3,84,210.1,81,213.6,81z"/>
<path class="st0" d="M231.4,96.1c0.1,0,0.3,0,0.4-0.1c0.5-1.3,0.9-2.2,1.3-3.2c0.6-1.6,3-7.2,3.5-8.2c1.1-2.2,1.5-3.2,2.8-3.4
	l0.6-0.1c0.3-0.3,0.2-0.7-0.1-1c-1.1,0.1-1.7,0.1-2.7,0.1c-0.7,0-1.7,0-2.9-0.1c-0.3,0.2-0.3,0.7-0.1,1c0,0,0,0,0,0l0.9,0.1
	c0.5,0.1,0.7,0.2,0.7,0.6c-0.1,0.8-0.3,1.6-0.7,2.4c-0.4,1-1.7,4.4-2.2,5.7c-0.2,0.5-0.4,1-0.7,1.5c-0.2-0.4-0.5-0.8-0.6-1.2
	c-0.9-2-2-4.7-2.9-7.4c-0.4-1.1-0.4-1.4,0.9-1.5l0.5-0.1c0.3-0.3,0.3-0.7,0-1c0,0,0,0,0,0c-1.3,0.1-2.1,0.1-3.1,0.1
	c-1.3,0-2.7,0-3.6-0.1c-0.3,0.2-0.4,0.6-0.2,0.9c0,0,0,0.1,0.1,0.1l0.8,0.1c1.4,0.2,1.7,1.4,2.3,2.9l3.2,7.8c0.6,1.4,1.1,2.9,1.5,4
	C231,96.1,231.2,96.1,231.4,96.1z"/>
<path class="st0" d="M247.6,96.1c2.5,0,4.8-1.4,6-3.6c0-0.3-0.2-0.5-0.5-0.5c-0.1,0-0.1,0-0.2,0c-0.8,1.2-2.1,1.9-3.5,1.9
	c-4.1,0-6.4-3.3-6.4-7.2c0-1,0-1,1-1h7.1c1.6,0,2.2,0,2.3-0.3c0.1-0.3,0.2-0.7,0.2-1c0-2.3-2.2-4.6-5.5-4.6c-4.6,0-7.7,4-7.7,8.7
	c0,1.8,0.5,3.6,1.6,5C243.3,95.2,245.4,96.2,247.6,96.1z M247.7,81c2.2,0,3,1.4,3,2.4c0.1,0.3,0,0.5-0.2,0.7c-0.3,0.2-1.2,0.4-4,0.4
	h-2.7c-0.3,0-0.3-0.1-0.3-0.2C243.4,83,245.4,81,247.7,81L247.7,81z"/>
<path class="st0" d="M259.1,95.5c1.4,0,2.5,0,3.5,0.1c0.3-0.2,0.3-0.7,0.1-1c0,0,0,0,0,0l-0.7-0.1c-1.4-0.2-1.5-0.6-1.5-3.4v-5.9
	c-0.1-0.8,0.1-1.6,0.6-2.3c0.8-0.9,2-1.4,3.3-1.4c2.6,0,3.6,1.6,3.6,3.8v5.7c0,2.8,0,3.1-1.5,3.4l-0.7,0.1c-0.3,0.3-0.2,0.7,0,0.9
	c0,0,0,0,0.1,0.1c1-0.1,2.2-0.1,3.6-0.1s2.5,0,3.6,0.1c0.3-0.2,0.3-0.7,0.1-1c0,0,0,0,0,0l-0.9-0.1c-1.4-0.2-1.5-0.6-1.5-3.4v-6.6
	c0-2.6-1.3-4.8-4.5-4.8c-1.9,0.2-3.8,0.8-5.4,2c-0.2,0-0.4-0.2-0.4-0.4c0,0,0,0,0,0c0-0.4,0-0.9,0.1-1.8c-0.1-0.2-0.2-0.3-0.4-0.3
	c-1.2,0.8-2.5,1.4-3.9,1.9c-0.2,0.2-0.2,0.5,0,0.7l0.3,0.2c1,0.7,1,0.9,1,2.4v6.7c0,2.8,0,3.2-1.5,3.4l-0.8,0.1
	c-0.3,0.3-0.2,0.7,0,1c0,0,0,0,0,0C256.6,95.5,257.7,95.5,259.1,95.5z"/>
<path class="st0" d="M276.3,82c0.8,0,0.8,0.1,0.8,1.1v8.8c0,2.3,0.7,4.2,4,4.2c1.5,0,3-0.6,4-1.8c0.1-0.3-0.1-0.6-0.3-0.6
	c0,0,0,0-0.1,0c-0.1,0-0.6,0.4-1,0.5c-0.3,0.1-0.7,0.2-1,0.2c-2.5,0-2.8-2-2.8-4.3v-7.2c0-0.8,0-0.9,0.7-0.9h4.4
	c0.4-0.5,0.4-1.2,0-1.6h-4.3c-0.6,0-0.7,0-0.7-0.7v-1.7c-0.2-0.2-0.5-0.3-0.8-0.2c-0.4,0.8-1,1.6-1.6,2.3c-0.7,0.5-1.6,0.9-2.5,1.2
	c-0.2,0.3-0.1,0.6,0.1,0.8H276.3L276.3,82z"/>
<path class="st0" d="M293.2,94.5c-1.4-0.2-1.5-0.6-1.5-3.4v-6.9c0-1.6,0.1-3.4,0.2-4.8c-0.1-0.2-0.2-0.2-0.4-0.2
	c-1.3,0.7-2.6,1.4-4,1.9c-0.2,0.2-0.2,0.5,0,0.7l0.4,0.2c1,0.7,1,0.9,1,2.4v6.7c0,2.8,0,3.2-1.5,3.4l-0.8,0.1
	c-0.3,0.3-0.2,0.7,0,0.9c0,0,0,0,0.1,0.1c1.1-0.1,2.2-0.1,3.6-0.1s2.5,0,3.6,0.1c0.3-0.2,0.4-0.6,0.1-0.9c0,0,0,0-0.1-0.1
	L293.2,94.5z"/>
<path class="st0" d="M290.1,74c1.1-0.2,1.8-1.2,1.7-2.3c-0.1-0.8-0.7-1.5-1.5-1.6c-1.1,0-2,0.8-2.1,1.9c0,0,0,0.1,0,0.1
	c0,1,0.8,1.9,1.8,1.9C290,74,290,74,290.1,74z"/>
<path class="st0" d="M306,91.7c0-2.7-1.9-4-3.9-5.2c-1.4-0.8-3-1.6-3-3.2c0-1.3,0.9-2.3,2.2-2.4c0.1,0,0.2,0,0.3,0
	c1.6,0,2.7,1.1,3.4,2.8c0.3,0.2,0.7,0.2,0.9-0.1c0-1.1-0.2-2.1-0.6-3.1c-1.1-0.5-2.2-0.8-3.4-0.7c-2.9,0-5.2,1.6-5.2,4.4
	c0,2.1,1.6,3.5,3.8,4.7c1.4,0.8,3,1.8,3,3.5c0.1,1.3-1,2.4-2.3,2.5c-0.1,0-0.2,0-0.3,0c-2.2,0-3.4-1.9-4.1-4c-0.3-0.2-0.6-0.2-0.9,0
	c-0.1,1.3,0.1,2.6,0.5,3.9c1.2,0.8,2.7,1.3,4.1,1.2C303.3,96.1,306,94.6,306,91.7z"/>
<path class="st0" d="M309.3,82c0.8,0,0.8,0.1,0.8,1.1v8.8c0,2.3,0.7,4.2,4,4.2c1.5,0,3-0.6,4-1.8c0.1-0.3-0.1-0.6-0.3-0.6
	c0,0,0,0-0.1,0c-0.1,0-0.6,0.4-1,0.5c-0.3,0.1-0.7,0.2-1,0.2c-2.5,0-2.8-2-2.8-4.3v-7.2c0-0.8,0-0.9,0.7-0.9h4.4
	c0.4-0.5,0.4-1.2,0-1.6h-4.3c-0.7,0-0.7,0-0.7-0.7v-1.7c-0.2-0.2-0.5-0.3-0.8-0.2c-0.4,0.8-1,1.6-1.6,2.3c-0.7,0.5-1.6,0.9-2.5,1.2
	c-0.2,0.3-0.1,0.6,0.1,0.8H309.3L309.3,82z"/>
<path class="st0" d="M208.3,117.3l-0.7,1.4c-1.2,2.2-2.4,2.6-5.3,2.6h-6l4.4-13.8c0.4-1.2,0.6-1.3,1.1-1.3s2,0.3,3.6,0.5
	c1.7,0.2,3.3,0.3,5,0.3c3.2,0,5.9-0.9,7.4-3.2c0-0.5-0.4-0.9-0.9-0.9c0,0-0.1,0-0.1,0c-0.5,1-1.1,1.6-3.8,1.6
	c-2.4,0-5.2-0.2-9.5-0.6c-3-0.3-5.9-0.5-8.9-0.6c-4.3,0-9.4,0.3-14.4,3.6c-3.2,2-5.2,5.3-5.5,9c-0.1,2.7,1.8,4.4,3.4,4.4
	c1.3,0.1,2.5-1,2.5-2.3c0,0,0,0,0,0c0.2-0.7-0.2-1.5-0.9-1.8c-1.1-0.4-1.8-1.4-1.8-2.6c0-1.8,1-4.1,3.9-5.8c2.9-1.6,6.1-2.4,9.4-2.4
	c2.2,0,4.3,0.1,4.9,0.2c0.9,0.1,1,0.3,0.8,0.9l-8.3,26c-1.8,5.6-2.4,6.2-5,6.5l-2,0.2c-0.4,0.4-0.4,0.9,0,1.3c0,0,0,0,0.1,0.1
	c2.5-0.1,4.4-0.2,6.6-0.2s4.2,0.1,7.2,0.2c0.4-0.3,0.5-0.9,0.2-1.4l-2-0.2c-2.8-0.3-2.6-1.3-0.9-6.5l3-9.5h6.1
	c2.5,0,3.5,0.6,3.3,2.5l-0.2,2c0.4,0.4,1,0.4,1.4,0.1c0.3-1.3,0.9-3.4,1.6-5.4s1.4-3.9,1.8-4.9C209.7,117,208.6,116.9,208.3,117.3z"
	/>
<path class="st0" d="M228,115.3c-0.5-0.6-1.3-1-2.2-0.9c-0.3,0-0.5,0-0.8,0.1l-1,2.2c-0.2-0.3-0.5-0.5-0.8-0.7
	c-0.3-0.1-0.6-0.2-0.9-0.3c-1.1,0-2.1,0.3-3,0.9c-1.8,1-3.4,2.3-4.8,3.8c-3,3.4-4.5,7.2-4.5,8.7c-0.1,1.2,0.8,2.2,2,2.3c0,0,0,0,0,0
	c2.2,0,6.1-2.8,8.8-6.5h0.1l-1.4,3.7c-0.2,0.5-0.3,1-0.4,1.6c0,0.7,0.6,1.2,1.2,1.2c0,0,0,0,0,0c2.5,0,5.5-2.2,7.2-4.3
	c0-0.3-0.2-0.7-0.5-0.7c0,0-0.1,0-0.1,0c-1.7,1.6-3.3,2.5-3.9,2.5c-0.2,0-0.4-0.2-0.2-0.7C224.4,124.1,226.9,117.8,228,115.3z
	 M218.8,125.8c-1.7,1.7-3.3,3.1-3.9,3.1c-0.3-0.1-0.5-0.4-0.5-0.8c0.1-2.5,2.1-6.9,4.2-9.2c1.2-1.3,1.9-1.7,2.7-1.7
	c0.8,0,1.5,0.6,1.7,1.4C222.1,121.3,220.7,123.7,218.8,125.8L218.8,125.8z"/>
<path class="st0" d="M255.4,126.1c-1.1,1.2-2.9,2.6-3.5,2.6c-0.3,0-0.3-0.3-0.1-0.8c0.7-1.5,2.5-5.7,3.2-7.6c0.4-1,0.6-2,0.7-3
	c0.1-1.2-0.9-2.2-2-2.2c-0.1,0-0.2,0-0.4,0c-2.7,0-5.8,2.8-8.9,7.9h-0.1c0.6-1.5,1.5-3.7,1.7-4.5c0.3-1.2,0.4-3.4-1.9-3.4
	c-3,0-6.4,4-8.8,7.7h-0.1l2.2-5.7c0.4-0.9,0.2-2-1.2-2c-2.8-0.1-5.4,1.5-6.7,4c0,0.4,0.3,0.7,0.7,0.7l0,0c0.8-0.9,2-2.2,3.2-2.2
	c0.5,0,0.6,0.3,0.3,1.3s-3.9,10.9-4,11.3c-0.3,0.9,0.8,1.2,1.9,1.2c0.5,0.1,1-0.2,1.1-0.7c1.8-3.8,3.6-7.5,5.5-10s3.4-3.5,4.3-3.5
	c0.4,0,0.6,0.3,0.6,0.8c-0.1,0.8-0.4,1.5-0.7,2.2c-0.9,2-3.9,9.9-3.9,10.1c-0.3,0.9,0.8,1.2,1.9,1.2c0.5,0.1,1-0.2,1.2-0.7
	c2-3.8,3.8-7.5,5.8-10.1c1.9-2.4,3.3-3.5,4-3.5c0.3,0,0.6,0.2,0.6,0.5c0,0.1,0,0.1,0,0.2c-0.1,0.8-0.3,1.6-0.6,2.3
	c-0.9,2.4-2.2,5.5-3.2,7.8c-0.4,0.7-0.6,1.5-0.8,2.3c0.1,0.7,0.7,1.2,1.4,1.2c3.1-0.2,5.8-1.9,7.4-4.6c0.1-0.3-0.1-0.6-0.4-0.7
	C255.7,126,255.6,126,255.4,126.1z"/>
<path class="st0" d="M267.8,105.8c-1.5,0-2.7,1.3-2.6,2.8c0,0,0,0,0,0c-0.1,1,0.7,1.8,1.6,1.9c0.1,0,0.1,0,0.2,0
	c1.5,0,2.7-1.3,2.6-2.8c0,0,0,0,0,0c0.1-0.9-0.5-1.8-1.5-1.9C268,105.8,267.9,105.8,267.8,105.8z"/>
<path class="st0" d="M267.3,117.8c0.3-0.5,0.5-1.1,0.4-1.7c-0.2-0.6-0.7-1-1.3-1.1c-1.7,0-5,1.7-7.1,4.1c-0.1,0.3,0.1,0.7,0.4,0.8
	c0,0,0.1,0,0.1,0c1-0.9,2.1-1.6,3.3-2.1c0.2,0,0.2,0.2,0.1,0.6l-4.3,10.1c-0.2,0.5-0.3,1-0.4,1.5c0.1,0.6,0.6,1.1,1.2,1.2
	c2.9,0,6.6-3,7.7-4.6c0.1-0.4-0.2-0.7-0.5-0.8c0,0-0.1,0-0.1,0c-1.1,1.2-3.2,2.7-3.9,2.7c-0.3,0-0.3-0.4-0.1-0.7L267.3,117.8z"/>
<path class="st0" d="M278.6,126.2c0.1-0.3-0.1-0.6-0.5-0.7c-0.1,0-0.2,0-0.2,0c-1.3,1.5-3.4,3.7-4.2,3.7c-0.5,0-0.5-0.5-0.2-1.5
	l6.2-18.2c1-3.1,1.5-4.3,2-5.9c0-0.1-0.1-0.2-0.2-0.3c-2.1,0.2-4.2,0.6-6.2,1.2c-0.2,0.2-0.2,0.5-0.1,0.8l0.9,0.5
	c0.7,0.4,0.9,0.8,0.2,2.8l-6.4,18.6c-0.4,0.9-0.6,1.9-0.7,2.9c0,0.6,0.5,1.4,2,1.4C275.2,131.4,277.5,128.3,278.6,126.2z"/>
<path class="st0" d="M293.7,115.6c-0.4-0.2-0.9-0.4-1.4-0.4c-0.5,0-1,0.2-1.1,1.4c-0.2,1.6-0.4,3.2-0.8,4.7c-0.8,3-1.9,5.9-3.4,8.6
	h-0.1c0.4-2.6,0.6-5.3,0.5-8c-0.1-4-1-6.8-3-6.8c-2.7,0-4.4,3.3-5.1,5.6c0.1,0.4,0.5,0.6,0.9,0.4c0,0,0.1,0,0.1-0.1
	c0.7-1.5,1.5-3,2.4-3s1.4,2.2,1.4,6.6c0.2,2.8,0,5.7-0.7,8.5c-0.4,1.7-1.2,3.3-2.4,4.6c-0.6,0.6-1.3,1-2.2,1c-0.6-0.1-1.1-0.5-1.4-1
	c-0.3-0.5-0.8-0.8-1.3-0.8c-1.1,0-2,1-1.9,2.1c0,0,0,0.1,0,0.1c0.2,1.2,1.3,2.1,2.5,2c1.5,0,3.7-0.7,6.5-3.7
	c2.5-2.9,4.7-6.1,6.5-9.4c3.4-5.9,4.5-10.6,4.5-11.5C294.3,116.2,294.1,115.8,293.7,115.6z"/>
<path class="st0" d="M334.7,129.9c-1.8-0.2-1.8-1.2-1.9-3.1c-0.3-5.6-0.4-12.7-0.4-16.8c0-2.7,0.3-3.4,2.7-3.7l0.8-0.1
	c0.2-0.3,0.2-0.7,0-1c-1.2,0.1-2.5,0.1-3.4,0.1c-0.8,0-1.6,0-2.9-0.1c-0.1,1.8-1.1,3.9-2.9,7.4l-3.6,7.4c-1,2-1.9,4-3,5.8H320
	c-0.9-1.7-1.8-3.5-2.7-5.3l-4.4-8.9c-1.2-2.5-2.2-4.9-2-6.4c-1.3,0.1-2.3,0.1-3.2,0.1s-1.9,0-3-0.1c-0.3,0.2-0.4,0.7-0.2,1l0.6,0.1
	c2.4,0.4,2.7,0.9,2.6,3.3c-0.1,2.1-0.2,5.4-0.4,8.6c-0.2,3.8-0.4,5.9-0.6,8.5c-0.2,2.7-0.8,3-2.4,3.2l-0.9,0.1
	c-0.2,0.3-0.2,0.7,0.1,1c1.3-0.1,2.7-0.1,3.9-0.1c1.5,0,3,0,4.3,0.1c0.3-0.2,0.3-0.7,0.1-0.9c0,0,0,0-0.1-0.1l-1.5-0.1
	c-1.5-0.1-1.7-0.7-1.7-3.6c0-3.3,0.2-6.7,0.3-9.1s0.2-4.5,0.4-6.9h0.1c0.9,1.8,1.7,3.8,2.5,5.6l3.5,7.4c0.9,1.9,2.7,5.7,3.4,7.7
	c0.1,0.1,0.2,0.1,0.4,0.1c0.1,0,0.3,0,0.4-0.1c0.7-1.8,2.4-5.4,4.2-8.8l3.4-6.7c0.8-1.5,2.2-4.6,2.5-5h0.1l0.1,16
	c0,2.5,0,3.1-1.9,3.3l-1.1,0.1c-0.3,0.3-0.2,0.7,0.1,1c1.6-0.1,3.3-0.1,4.7-0.1s3,0,4.5,0.1c0.3-0.3,0.3-0.7,0.1-1L334.7,129.9z"/>
<path class="st0" d="M344.7,129.9c-1.4-0.2-1.5-0.6-1.5-3.4v-6.9c0-1.6,0.1-3.4,0.2-4.8c-0.1-0.2-0.2-0.2-0.4-0.2
	c-1.3,0.7-2.6,1.4-4,1.9c-0.2,0.2-0.2,0.5,0,0.7l0.4,0.2c1,0.7,1,0.9,1,2.4v6.7c0,2.8,0,3.2-1.5,3.3l-0.8,0.1c-0.3,0.3-0.2,0.7,0,1
	c0,0,0,0,0,0c1.1-0.1,2.2-0.1,3.6-0.1s2.5,0,3.6,0.1c0.3-0.2,0.4-0.6,0.1-0.9c0,0,0,0-0.1-0.1L344.7,129.9z"/>
<path class="st0" d="M341.5,109.3c1.1-0.2,1.8-1.2,1.7-2.3c-0.1-0.8-0.7-1.5-1.5-1.6c-1.1,0-2,0.8-2.1,1.9c0,0,0,0.1,0,0.1
	c0,1,0.8,1.9,1.8,1.9C341.4,109.3,341.5,109.3,341.5,109.3z"/>
<path class="st0" d="M364.5,129.9c-1.4-0.2-1.5-0.6-1.5-3.4v-6.6c0-2.6-1.3-4.8-4.5-4.8c-1.9,0.2-3.8,0.8-5.4,2
	c-0.2,0-0.4-0.2-0.4-0.4c0,0,0,0,0,0c0-0.4,0-0.9,0.1-1.8c-0.1-0.2-0.2-0.3-0.4-0.3c-1.2,0.8-2.5,1.4-3.9,1.9
	c-0.2,0.2-0.2,0.5,0,0.7l0.3,0.2c1,0.7,1,0.9,1,2.4v6.7c0,2.8,0,3.2-1.5,3.4l-0.8,0.1c-0.3,0.3-0.2,0.7,0,1c0,0,0,0,0,0
	c1.1-0.1,2.2-0.1,3.6-0.1s2.5,0,3.5,0.1c0.3-0.2,0.3-0.7,0.1-1c0,0,0,0,0,0l-0.7-0.1c-1.4-0.2-1.5-0.6-1.5-3.4v-5.9
	c-0.1-0.8,0.1-1.6,0.6-2.3c0.8-0.9,2-1.4,3.3-1.4c2.6,0,3.6,1.6,3.6,3.8v5.7c0,2.8,0,3.1-1.5,3.4l-0.7,0.1c-0.3,0.3-0.2,0.7,0,0.9
	c0,0,0,0,0.1,0.1c1-0.1,2.2-0.1,3.6-0.1s2.5,0,3.6,0.1c0.3-0.2,0.3-0.7,0.1-1c0,0,0,0,0,0L364.5,129.9z"/>
<path class="st0" d="M374,129.9c-1.4-0.2-1.5-0.6-1.5-3.4v-6.9c0-1.6,0.1-3.4,0.1-4.8c-0.1-0.2-0.2-0.3-0.4-0.2
	c-1.3,0.7-2.6,1.4-4,1.9c-0.2,0.2-0.2,0.5,0,0.7l0.3,0.2c1,0.7,1,0.9,1,2.4v6.7c0,2.8,0,3.2-1.5,3.3l-0.8,0.1c-0.3,0.3-0.2,0.7,0,1
	c0,0,0,0,0,0c1.1-0.1,2.2-0.1,3.6-0.1s2.5,0,3.6,0.1c0.3-0.2,0.3-0.7,0.1-1c0,0,0,0,0,0L374,129.9z"/>
<path class="st0" d="M370.9,109.3c1.1-0.2,1.8-1.2,1.7-2.3c-0.1-0.8-0.7-1.5-1.5-1.6c-1.1,0-2,0.8-2.1,1.9c0,0,0,0.1,0,0.1
	c0,1,0.8,1.9,1.8,1.9C370.8,109.3,370.8,109.3,370.9,109.3z"/>
<path class="st0" d="M382.8,121.8c-1.4-0.8-3-1.6-3-3.2c0-1.3,0.9-2.3,2.2-2.4c0.1,0,0.2,0,0.3,0c1.6,0,2.7,1.1,3.4,2.8
	c0.3,0.2,0.7,0.2,0.9-0.1c0-1.1-0.2-2.1-0.6-3.1c-1.1-0.5-2.2-0.8-3.4-0.7c-2.9,0-5.2,1.6-5.2,4.4c0,2.1,1.6,3.5,3.8,4.7
	c1.4,0.8,3,1.8,3,3.5c0.1,1.3-1,2.4-2.3,2.5c-0.1,0-0.2,0-0.3,0c-2.2,0-3.4-1.9-4.1-4c-0.3-0.2-0.6-0.2-0.9,0
	c-0.1,1.3,0.1,2.6,0.5,3.9c1.2,0.8,2.7,1.3,4.1,1.2c2.9,0,5.5-1.5,5.5-4.4C386.8,124.2,384.9,122.9,382.8,121.8z"/>
<path class="st0" d="M394.5,117.3h4.4c0.4-0.5,0.4-1.2,0-1.6h-4.3c-0.6,0-0.7,0-0.7-0.7v-1.7c-0.2-0.2-0.5-0.3-0.8-0.2
	c-0.4,0.8-1,1.6-1.6,2.3c-0.7,0.5-1.6,0.9-2.5,1.2c-0.2,0.3-0.1,0.6,0.1,0.8h1.1c0.8,0,0.8,0.1,0.8,1.1v8.8c0,2.3,0.7,4.2,4,4.2
	c1.5,0,3-0.6,4-1.8c0.1-0.3-0.1-0.6-0.3-0.6c0,0,0,0-0.1,0c-0.1,0-0.6,0.4-1,0.5c-0.3,0.1-0.7,0.2-1,0.2c-2.5,0-2.8-2-2.8-4.3v-7.2
	C393.8,117.4,393.8,117.3,394.5,117.3z"/>
<path class="st0" d="M409.9,115.1c-1.4,0-2.9,1.2-4.2,2.3c-0.1-0.1-0.1-0.2-0.1-0.4v-2.2c0-0.2-0.2-0.3-0.3-0.3
	c-1.2,0.7-2.5,1.3-3.9,1.9c-0.2,0.2-0.2,0.5,0,0.7l0.4,0.2c1,0.7,1,0.9,1,2.4v6.7c0,2.8,0,3.1-1.5,3.4l-0.7,0.1
	c-0.3,0.3-0.2,0.7,0,1c0,0,0,0,0,0c1-0.1,2.2-0.1,3.5-0.1s2.5,0,4.3,0.1c0.3-0.2,0.3-0.7,0.1-1c0,0,0,0,0,0l-1.4-0.1
	c-1.5-0.1-1.5-0.6-1.5-3.4v-5.2c-0.1-1,0.1-2.1,0.5-3c0.3-0.5,0.8-0.8,1.4-0.8c0.6,0,1.2,0.3,1.7,0.6c0.2,0.2,0.5,0.3,0.9,0.3
	c0.9,0,1.7-0.8,1.7-1.8c0,0,0,0,0,0C411.6,115.7,410.9,115,409.9,115.1C410,115.1,410,115.1,409.9,115.1z"/>
<path class="st0" d="M419.4,129.9c-1.4-0.2-1.5-0.6-1.5-3.4v-6.9c0-1.6,0.1-3.4,0.2-4.8c-0.1-0.2-0.2-0.3-0.4-0.2
	c-1.3,0.7-2.6,1.4-4,1.9c-0.2,0.2-0.2,0.5,0,0.7l0.4,0.2c1,0.7,1,0.9,1,2.4v6.7c0,2.8,0,3.2-1.5,3.3l-0.8,0.1
	c-0.3,0.3-0.2,0.7,0,0.9c0,0,0,0,0.1,0.1c1.1-0.1,2.2-0.1,3.6-0.1s2.5,0,3.6,0.1c0.3-0.2,0.4-0.6,0.1-0.9c0,0,0,0-0.1-0.1
	L419.4,129.9z"/>
<path class="st0" d="M416.3,109.3c1.1-0.2,1.8-1.2,1.7-2.3c-0.1-0.8-0.7-1.5-1.5-1.6c-1.1,0-2,0.8-2.1,1.9c0,0,0,0.1,0,0.1
	c0,1,0.8,1.9,1.8,1.9C416.2,109.3,416.2,109.3,416.3,109.3z"/>
<path class="st0" d="M434.8,127.3c-0.8,1.2-2.1,1.9-3.5,1.9c-4.1,0-6.4-3.3-6.4-7.2c0-1,0-1,1-1h7.1c1.6,0,2.2,0,2.3-0.3
	c0.1-0.3,0.2-0.7,0.2-1c0-2.3-2.2-4.6-5.5-4.6c-4.6,0-7.7,4-7.7,8.7c0,1.8,0.5,3.6,1.6,5c1.4,1.7,3.4,2.6,5.6,2.5
	c2.5,0,4.8-1.4,6-3.6C435.4,127.5,435.2,127.3,434.8,127.3C434.8,127.3,434.8,127.3,434.8,127.3z M429.6,116.3c2.2,0,3,1.4,3,2.4
	c0.1,0.3,0,0.5-0.2,0.7c-0.3,0.2-1.2,0.4-4,0.4h-2.7c-0.3,0-0.3-0.1-0.3-0.2C425.3,118.3,427.3,116.3,429.6,116.3z"/>
<path class="st0" d="M443.1,121.8c-1.4-0.8-3-1.6-3-3.2c0-1.3,0.9-2.3,2.2-2.4c0.1,0,0.2,0,0.3,0c1.6,0,2.7,1.1,3.4,2.8
	c0.3,0.2,0.7,0.2,0.9-0.1c0-1.1-0.2-2.1-0.6-3.1c-1.1-0.5-2.2-0.8-3.4-0.7c-2.9,0-5.2,1.6-5.2,4.4c0,2.1,1.6,3.5,3.8,4.7
	c1.4,0.8,3,1.8,3,3.5c0.1,1.3-1,2.4-2.3,2.5c-0.1,0-0.2,0-0.3,0c-2.2,0-3.4-1.9-4.1-4c-0.2-0.2-0.6-0.2-0.9,0
	c-0.1,1.3,0.1,2.6,0.5,3.9c1.2,0.8,2.7,1.3,4.1,1.2c2.9,0,5.6-1.5,5.6-4.4C447,124.2,445.1,122.9,443.1,121.8z"/>
<path class="st0" d="M90.9,132.7c0.3-2-0.2-21.5-1.3-39.2h1.7c2.2-0.1,4.3-0.5,6.4-1.2c-2.2,8.5-3.1,20.1-1.8,34
	c1.2,13.5,6.2-22.1,6.2-22.1c2.5,10.4,7.3,24.2,8.4,22.1c2.2-4.2-4.5-33.1-4.5-33.1c2.2,0.8,4.4,1.4,6.6,1.9
	c6.3,1,15.1,1.5,13.1,0.1c-4.8-3.2-15.2-5.9-20.8-5.5c0,0,2.2-1.4,2.2-5.9c0-2.4-2.3-5.4-4.8-5.4s-4.8,2.8-4.8,5.3
	c0,2,0.5,4,1.4,5.7c-3.2-0.6-6.4-0.8-9.6-0.7c-0.1-1.4-0.2-2.9-0.3-4.2c2.9-0.3,4.8-0.7,4.5-1c-0.7-0.7-2.4-1.4-4.7-1.9
	c-0.3-2.9-0.6-5.5-0.9-7.9c9.6,1.9,19.3,3.3,29,4.1c5.2,0.4-12-9.6-31.5-8.2c0,0,2-2.5,1.8-8.2c-0.2-3-2.6-5.4-5.6-5.7
	c-2.9-0.1-5.9,2.4-6.1,5.2c-0.4,6.2,2.3,8.8,2.3,8.8c-4.7-0.2-9.4,0.2-14,1.2c-1.9-2.1-5.1-2.4-7.3-0.5c-1,0.9-1.6,2.1-1.7,3.4
	c-2.5,1-5.2,2.2-8.1,3.6s1.8,1,8.1,0.2c0.3,1.7,1.1,3.4,2.2,4.7c-7.9-0.1-17.3,4-23.5,7.8c-4,2.4,15.7-0.9,20.8-3.8
	c0,0-3.7,21.7-3.2,38.1c0.3,10.7,6-8.6,8.4-22.1c0,0,5.8,35.5,7.7,27c0.6-2.8,0.2-26.1-2.3-43.9c0,0,5.5,0.4,7.9,0.4h1
	c-1.4,12.1-3.2,31.8-2.2,47.6c0.9,15.1,9.9-35.2,9.9-35.2S88.8,149.2,90.9,132.7z M63.6,81.5c0.8-1.8,1.3-3.7,1.5-5.6
	c5.6-0.9,10.1-1.7,10.2-1.7s-0.3,2.2-0.8,5.9C70.8,80,67.2,80.5,63.6,81.5L63.6,81.5z"/>
<path class="st0" d="M128.9,160.8c18-15.5,22-25.3,21.9-27.9c-0.1-3.1-5.7,4-5.7,4C131,153.6,125,154.6,125,154.6
	c0.3-1.7,2.8-3.8,2.8-3.8c15.3-11.9,23.1-24.9,22.7-28c-0.5-3.8-5.8,4.6-14.1,12.9c-9.8,9.9-14.6,10.7-14.6,10.7
	c0.3-1.2,1-2.3,2.1-3c17.2-12.7,21.4-22.9,20.8-24.7s-1.4-1.5-6.9,4.8c-10.1,11.4-19.1,15.7-24.6,18.7s-7.2,4-7.2,4
	c0-1.7,5.9-4.9,9.7-7.4c3.7-2.3,6.1-6.3,6.4-10.6c0.1-3.3-1.6-2.2-2.8-1.1c-1.1,1.1-1.8,1.8-5.3,5.1c-7.3,6.8-12.8,5.7-22.1,15
	c-2.9,2.9-4.8,7.5-6.1,13.6c-2.8,11.7-2,24.9-2,24.9s16,0,35.7-9.7c21.5-10.5,29.4-26.7,29.5-29.4s-4.7,2.6-4.7,2.6
	c-10,11.2-16.8,15.1-16.8,15.1C127.1,162.5,128.9,160.8,128.9,160.8z"/>
<path class="st0" d="M70,147.2c-9.3-9.3-14.8-8.2-22.1-15c-3.5-3.3-4.2-4-5.3-5.1c-1.1-1.1-2.8-2.2-2.8,1.1
	c0.3,4.3,2.7,8.3,6.4,10.6c3.8,2.5,9.7,5.7,9.7,7.4c0,0-1.7-1-7.2-4s-14.4-7.3-24.6-18.8c-5.5-6.2-6.3-6.5-6.9-4.8s3.6,12,20.8,24.7
	c1.1,0.7,1.8,1.8,2.1,3c0,0-4.8-0.8-14.6-10.6c-8.3-8.4-13.6-16.7-14.1-12.9c-0.4,3.1,7.4,16.1,22.7,28c0,0,2.5,2.1,2.8,3.8
	c0,0-6.1-1-20.2-17.7c0,0-5.6-7.1-5.7-4c-0.1,2.6,3.8,12.4,21.9,27.9c0,0,1.9,1.7,1.7,3.4c0,0-6.8-4-16.8-15.1c0,0-4.8-5.3-4.7-2.6
	s8.1,18.9,29.5,29.4c19.7,9.6,35.6,9.7,35.6,9.7s0.9-13.2-2-24.9C74.9,154.7,72.9,150,70,147.2z"/>
<path class="st0" d="M80.8,29.8c-8.3,0.5-58.9,43.9-58.9,43.9s-1.2,1.4-0.6,2.3c2.5,3.2,57.4-31.4,59.6-32.8
	c2.2,1.4,57.1,36,59.6,32.8c0.7-0.9-0.6-2.3-0.6-2.3S89.3,30.2,80.9,29.8H80.8z"/>
<polygon class="st0" points="3.2,58.2 2.8,59.7 2.4,61.2 22.1,65 "/>
<polygon class="st0" points="155.3,112.9 155.9,111.4 156.5,110 137.3,104 "/>
<polygon class="st0" points="5.2,110 5.8,111.4 6.4,112.9 24.4,104 "/>
<polygon class="st0" points="0,84.2 0.1,85.8 0.2,87.4 20.1,84.7 "/>
<polygon class="st0" points="129.9,16.7 128.7,15.8 117.8,32.6 131.2,17.6 "/>
<polygon class="st0" points="161.6,87.4 161.6,85.8 161.7,84.2 141.6,84.7 "/>
<polygon class="st0" points="14.6,34.5 13.8,35.8 12.9,37.1 30.4,47 "/>
<polygon class="st0" points="159.3,61.2 158.9,59.7 158.5,58.2 139.6,65 "/>
<polygon class="st0" points="147.9,35.8 147.1,34.5 131.4,47 148.8,37.1 "/>
<polygon class="st0" points="106.8,4.3 105.3,3.8 100.4,23.3 108.2,4.8 "/>
<polygon class="st0" points="82.4,0 80.9,0 79.3,0 80.9,20 "/>
<polygon class="st0" points="33,15.8 31.8,16.7 30.5,17.6 43.9,32.6 "/>
<polygon class="st0" points="56.4,3.8 55,4.3 53.5,4.8 61.3,23.3 "/>
</svg>
