<?xml version="1.0" encoding="utf-8"?>
<!-- Generator: Adobe Illustrator 19.2.1, SVG Export Plug-In . SVG Version: 6.00 Build 0)  -->
<svg version="1.1" id="Layer_1" xmlns="http://www.w3.org/2000/svg" xmlns:xlink="http://www.w3.org/1999/xlink" x="0px" y="0px"
	 viewBox="0 0 272.4 268.7" style="enable-background:new 0 0 272.4 268.7;" xml:space="preserve">
<style type="text/css">
	.st0{fill:#FFFFFF;}
</style>
<title>Adventist Family Ministry</title>
<path class="st0" d="M142.4,132.7c0.3-2-0.2-21.5-1.3-39.2h1.7c2.2-0.1,4.3-0.5,6.4-1.2c-2.2,8.5-3.1,20.1-1.8,34
	c1.2,13.4,6.2-22.1,6.2-22.1c2.5,10.4,7.3,24.2,8.4,22.1c2.2-4.2-4.5-33.1-4.5-33.1c2.2,0.8,4.4,1.4,6.6,1.9
	c6.3,1,15.1,1.5,13.1,0.1c-4.8-3.2-15.2-5.9-20.8-5.5c0,0,2.2-1.4,2.2-5.9c0-2.4-2.3-5.4-4.8-5.4s-4.8,2.8-4.8,5.3
	c0,2,0.5,4,1.5,5.7c-3.2-0.6-6.4-0.8-9.6-0.7c-0.1-1.4-0.2-2.8-0.3-4.2c2.9-0.3,4.8-0.7,4.5-1c-0.7-0.7-2.4-1.4-4.7-1.9
	c-0.3-2.9-0.6-5.5-0.9-7.9c9.6,1.9,19.3,3.3,29,4.1c5.2,0.4-12-9.6-31.5-8.2c0,0,2-2.5,1.8-8.2c-0.2-3-2.6-5.4-5.6-5.7
	c-2.9-0.1-5.9,2.4-6.1,5.2c-0.4,6.2,2.3,8.8,2.3,8.8c-4.7-0.2-9.4,0.2-14,1.2c-1.9-2.1-5.1-2.4-7.3-0.5c-1,0.9-1.6,2.1-1.7,3.4
	c-2.5,1-5.2,2.2-8.1,3.6s1.8,1,8.1,0.2c0.3,1.7,1.1,3.4,2.2,4.7c-7.9-0.1-17.3,4-23.5,7.8c-4,2.4,15.7-0.9,20.8-3.8
	c0,0-3.8,21.7-3.2,38.1c0.4,10.7,6-8.6,8.4-22.1c0,0,5.8,35.5,7.7,27c0.6-2.8,0.2-26.1-2.3-43.9c0,0,5.5,0.4,7.9,0.4h1
	c-1.4,12.1-3.2,31.8-2.2,47.6c0.9,15.1,9.9-35.2,9.9-35.2S140.3,149.2,142.4,132.7z M115.1,81.5c0.8-1.8,1.3-3.7,1.5-5.6
	c5.5-0.9,10.1-1.7,10.2-1.7s-0.3,2.2-0.8,5.9C122.3,80,118.7,80.5,115.1,81.5L115.1,81.5z"/>
<path class="st0" d="M180.4,160.8c18-15.5,22-25.3,21.9-27.9c-0.1-3.1-5.7,4-5.7,4c-14.1,16.7-20.1,17.7-20.1,17.7
	c0.3-1.7,2.8-3.8,2.8-3.8c15.3-11.9,23.1-24.9,22.7-28c-0.5-3.8-5.8,4.6-14.1,12.9c-9.8,9.9-14.6,10.6-14.6,10.6
	c0.3-1.2,1-2.3,2.1-3c17.2-12.7,21.4-22.9,20.8-24.7s-1.4-1.5-6.9,4.8c-10.1,11.5-19.1,15.7-24.6,18.8s-7.2,4-7.2,4
	c0-1.7,5.9-4.9,9.7-7.4c3.7-2.3,6.1-6.3,6.4-10.6c0.1-3.3-1.6-2.2-2.8-1.1c-1.1,1.1-1.8,1.8-5.3,5.1c-7.3,6.8-12.8,5.7-22.1,15
	c-2.9,2.9-4.8,7.5-6.1,13.6c-2.8,11.7-2,24.9-2,24.9s16,0,35.6-9.7c21.5-10.5,29.4-26.7,29.5-29.4c0.1-2.7-4.7,2.6-4.7,2.6
	c-9.9,11.2-16.8,15.2-16.8,15.2C178.5,162.5,180.4,160.8,180.4,160.8z"/>
<path class="st0" d="M127.6,160.7c-1.3-6.1-3.2-10.7-6.1-13.6c-9.3-9.3-14.8-8.2-22.1-15c-3.5-3.3-4.2-4-5.3-5.1
	c-1.1-1.1-2.9-2.2-2.8,1.1c0.3,4.4,2.6,8.3,6.4,10.6c3.8,2.5,9.7,5.7,9.7,7.4c0,0-1.7-1-7.2-4s-14.4-7.3-24.6-18.8
	c-5.5-6.2-6.3-6.5-6.9-4.8s3.6,12,20.8,24.7c1.1,0.7,1.8,1.8,2.1,3c0,0-4.8-0.8-14.6-10.6c-8.3-8.4-13.6-16.7-14.1-12.9
	c-0.4,3.1,7.4,16.1,22.7,28c0,0,2.5,2.1,2.8,3.8c0,0-6.1-1-20.2-17.7c0,0-5.6-7.1-5.7-4c-0.1,2.6,3.8,12.4,21.9,27.9
	c0,0,1.9,1.7,1.7,3.4c0,0-6.8-4-16.8-15.1c0,0-4.8-5.3-4.7-2.6c0.1,2.7,8.1,18.9,29.5,29.4c19.7,9.6,35.6,9.7,35.6,9.7
	S130.4,172.4,127.6,160.7z"/>
<path class="st0" d="M132.4,29.7h-0.1c-8.3,0.5-58.9,43.9-58.9,43.9s-1.2,1.4-0.6,2.3c2.5,3.2,57.4-31.4,59.6-32.8
	c2.2,1.4,57.1,36,59.6,32.8c0.7-0.9-0.6-2.3-0.6-2.3S140.7,30.2,132.4,29.7z"/>
<path class="st0" d="M82.5,222.1c-1.7-0.2-2.2-0.8-3.3-4.1l-5.3-15.5c-0.6-1.7-1.2-3.5-1.7-5.2c-0.1-0.2-0.3-0.4-0.6-0.3
	c-0.5,0.7-1.2,1.2-2,1.5c0,1-0.2,1.9-0.6,2.7l-3.9,10.4c-1.6,4.3-2.7,6.8-3.4,8.6c-0.3,1.1-1.2,1.8-2.3,1.9l-1.3,0.1
	c-0.2,0.3-0.2,0.7,0.1,1c1,0,2.4-0.1,3.7-0.1c1.8,0,3,0,4,0.1c0.3-0.2,0.4-0.6,0.2-0.9c0-0.1-0.1-0.1-0.1-0.1l-1.3-0.1
	c-0.9-0.1-1.1-0.3-1.1-0.8c0.2-1.1,0.4-2.2,0.9-3.2l1.4-4c0.3-0.8,0.5-0.9,1.5-0.9h5.8c1.2,0,1.3,0.1,1.6,1l1.7,5.2
	c0.3,0.6,0.4,1.3,0.5,2c0,0.4-0.5,0.6-1.4,0.7l-1.1,0.1c-0.3,0.2-0.3,0.6,0,0.9c0,0,0.1,0.1,0.1,0.1c1.1,0,2.6-0.1,4.4-0.1
	s3.1,0,4.7,0.1c0.3-0.3,0.3-0.7,0-1L82.5,222.1z M72.5,211.6h-4.7c-1.1,0-1.1,0-0.8-0.9l2.4-6.7c0.3-0.8,0.6-1.5,0.9-2.3h0.1
	c0.2,0.5,0.6,1.5,0.9,2.4l2.1,6.3C73.7,211.5,73.6,211.6,72.5,211.6z"/>
<path class="st0" d="M96.1,224c1.7-0.6,3.4-1,5.1-1.2c0.3-0.4,0.3-0.9,0-1.2c-0.5,0.2-1.1,0.3-1.7,0.4c-1.1,0-1.1-1.4-1.1-4.5v-16.9
	c0-1.7,0.1-3.6,0.1-4.8c-0.1-0.1-0.2-0.2-0.4-0.2c-1.3,0.7-2.7,1.2-4.2,1.6c-0.2,0.2-0.2,0.5,0,0.8l0.4,0.2c1.2,0.7,1.2,0.9,1.2,3.2
	v5.8c0,0.3,0,0.5-0.2,0.5c-0.8-0.3-1.7-0.4-2.6-0.4c-5.2,0-9.3,3.5-9.3,8.9c-0.2,3.9,2.8,7.2,6.8,7.4c0.1,0,0.3,0,0.4,0
	c1.8,0,3.5-0.7,4.9-1.8h0.1c0.1,0.4,0.1,0.8,0.1,1.2v0.6C95.6,223.9,95.8,224,96.1,224C96,224,96.1,224,96.1,224z M95.5,219.3
	c0.1,0.5,0,1-0.3,1.4c-0.8,0.7-1.9,1.1-3,1.1c-3.8,0-5.7-3.3-5.7-6.8c0-3.4,1.8-6.4,5.3-6.4c1.3,0,2.5,0.6,3.2,1.6
	c0.3,0.4,0.5,1,0.4,1.5L95.5,219.3L95.5,219.3z"/>
<path class="st0" d="M104.5,211.7l3.2,7.8c0.6,1.4,1.1,2.9,1.5,4c0.1,0.1,0.3,0.2,0.5,0.1c0.1,0,0.3,0,0.4-0.1
	c0.5-1.3,0.9-2.2,1.3-3.2c0.6-1.6,3-7.2,3.5-8.2c1.1-2.2,1.5-3.2,2.8-3.4l0.6-0.1c0.3-0.3,0.2-0.7-0.1-1c-1.1,0.1-1.7,0.1-2.7,0.1
	c-0.7,0-1.7,0-2.9-0.1c-0.3,0.2-0.3,0.7-0.1,1c0,0,0,0,0,0l0.9,0.1c0.5,0.1,0.7,0.2,0.7,0.6c-0.1,0.8-0.3,1.6-0.7,2.4
	c-0.4,1-1.7,4.4-2.2,5.7c-0.2,0.5-0.4,1-0.7,1.5c-0.3-0.4-0.5-0.8-0.6-1.2c-0.9-2-2-4.7-2.9-7.4c-0.4-1.1-0.4-1.4,0.9-1.5l0.5-0.1
	c0.3-0.2,0.3-0.7,0.1-0.9c0,0,0,0-0.1-0.1c-1.3,0.1-2.1,0.1-3.1,0.1c-1.3,0-2.7,0-3.6-0.1c-0.3,0.2-0.4,0.6-0.2,0.9
	c0,0,0,0.1,0.1,0.1l0.8,0.1C103.5,209,103.9,210.3,104.5,211.7z"/>
<path class="st0" d="M131.9,220c0-0.3-0.2-0.5-0.5-0.5c-0.1,0-0.1,0-0.2,0c-0.8,1.2-2.1,1.9-3.5,1.9c-4.1,0-6.4-3.3-6.4-7.2
	c0-1,0-1,1-1h7.1c1.6,0,2.2,0,2.3-0.3c0.1-0.3,0.2-0.7,0.1-1c0-2.3-2.2-4.6-5.5-4.6c-4.6,0-7.7,4-7.7,8.7c0,1.8,0.5,3.6,1.6,5
	c1.4,1.7,3.4,2.6,5.6,2.5C128.4,223.7,130.8,222.3,131.9,220z M126,208.5c2.2,0,3,1.4,3,2.4c0.1,0.3,0,0.5-0.2,0.7
	c-0.3,0.2-1.2,0.4-4,0.4H122c-0.3,0-0.3-0.1-0.3-0.2C121.8,210.6,123.7,208.5,126,208.5L126,208.5z"/>
<path class="st0" d="M144.8,222.1l-0.7,0.1c-0.3,0.3-0.2,0.7,0,0.9c0,0,0,0,0.1,0.1c1-0.1,2.2-0.1,3.6-0.1s2.5,0,3.6,0.1
	c0.3-0.2,0.3-0.7,0.1-1c0,0,0,0,0,0l-0.9-0.1c-1.4-0.2-1.5-0.6-1.5-3.4v-6.6c0-2.6-1.3-4.8-4.5-4.8c-1.9,0.2-3.8,0.8-5.4,2
	c-0.2,0-0.4-0.2-0.4-0.4c0,0,0,0,0,0c0-0.4,0-0.9,0.1-1.8c-0.1-0.2-0.2-0.3-0.4-0.3c-1.2,0.8-2.5,1.4-3.9,1.9
	c-0.2,0.2-0.2,0.5,0,0.7l0.4,0.2c1,0.7,1,0.9,1,2.4v6.7c0,2.8,0,3.2-1.5,3.4l-0.8,0.1c-0.3,0.3-0.2,0.7,0,0.9c0,0,0,0,0.1,0.1
	c1.1-0.1,2.2-0.1,3.6-0.1s2.5,0,3.5,0.1c0.3-0.2,0.4-0.6,0.1-0.9c0,0,0,0-0.1-0.1l-0.7-0.1c-1.4-0.2-1.5-0.6-1.5-3.4v-5.9
	c-0.1-0.8,0.1-1.6,0.6-2.3c0.8-0.9,2-1.4,3.3-1.4c2.6,0,3.6,1.6,3.6,3.8v5.7C146.3,221.5,146.3,221.9,144.8,222.1z"/>
<path class="st0" d="M163.1,221.2c-0.1,0-0.6,0.4-1,0.5c-0.3,0.1-0.7,0.2-1,0.2c-2.5,0-2.8-2-2.8-4.3v-7.2c0-0.8,0-0.9,0.7-0.9h4.4
	c0.4-0.5,0.4-1.2,0-1.6H159c-0.6,0-0.7,0-0.7-0.7v-1.7c-0.2-0.2-0.5-0.3-0.8-0.2c-0.4,0.8-1,1.6-1.6,2.3c-0.7,0.5-1.6,0.9-2.5,1.2
	c-0.2,0.3-0.1,0.6,0.1,0.8h1.1c0.8,0,0.8,0.1,0.8,1.1v8.8c0,2.3,0.7,4.2,4,4.2c1.5,0,3-0.6,4-1.8
	C163.5,221.6,163.4,221.3,163.1,221.2C163.1,221.2,163.1,221.2,163.1,221.2z"/>
<path class="st0" d="M171.5,222.1c-1.4-0.2-1.5-0.6-1.5-3.4v-6.9c0-1.6,0.1-3.4,0.1-4.8c-0.1-0.2-0.2-0.3-0.4-0.2
	c-1.3,0.7-2.6,1.4-4,1.9c-0.2,0.2-0.2,0.5,0,0.7l0.4,0.2c1,0.7,1,0.9,1,2.4v6.7c0,2.8,0,3.2-1.5,3.4l-0.8,0.1
	c-0.3,0.3-0.2,0.7,0,0.9c0,0,0,0,0.1,0.1c1.1-0.1,2.2-0.1,3.6-0.1s2.5,0,3.6,0.1c0.3-0.2,0.3-0.7,0.1-1c0,0,0,0,0,0L171.5,222.1z"/>
<path class="st0" d="M166.4,199.6c0,1.1,0.9,2,2,2c1.1,0,2-0.9,2-2c0-1.1-0.8-2-1.9-2C167.4,197.6,166.5,198.4,166.4,199.6
	C166.4,199.5,166.4,199.6,166.4,199.6z"/>
<path class="st0" d="M179.1,222.5c-2.2,0-3.4-1.9-4.1-4c-0.3-0.2-0.6-0.2-0.9,0c-0.1,1.3,0.1,2.6,0.5,3.9c1.2,0.8,2.7,1.2,4.1,1.1
	c2.9,0,5.5-1.5,5.5-4.4c0-2.7-1.9-4-3.9-5.2c-1.4-0.8-3-1.6-3-3.2c0-1.3,0.9-2.3,2.2-2.4c0.1,0,0.2,0,0.3,0c1.6,0,2.7,1.1,3.4,2.8
	c0.3,0.2,0.7,0.2,0.9-0.1c0-1.1-0.2-2.1-0.6-3.1c-1.1-0.5-2.2-0.8-3.4-0.7c-2.9,0-5.2,1.6-5.2,4.4c0,2.1,1.6,3.5,3.8,4.7
	c1.4,0.8,3,1.8,3,3.5c0.1,1.3-0.9,2.5-2.2,2.6C179.4,222.5,179.3,222.5,179.1,222.5z"/>
<path class="st0" d="M196.5,221.8c0.1-0.3-0.1-0.6-0.3-0.6c0,0,0,0-0.1,0c-0.1,0-0.6,0.4-1,0.5c-0.3,0.1-0.7,0.2-1,0.2
	c-2.5,0-2.8-2-2.8-4.3v-7.2c0-0.8,0-0.9,0.7-0.9h4.4c0.4-0.5,0.4-1.2,0-1.6h-4.3c-0.6,0-0.7,0-0.7-0.7v-1.7
	c-0.2-0.2-0.5-0.3-0.8-0.2c-0.4,0.8-1,1.6-1.6,2.3c-0.7,0.5-1.6,0.9-2.5,1.2c-0.2,0.3-0.1,0.6,0.1,0.8h1.1c0.8,0,0.8,0.1,0.8,1.1
	v8.8c0,2.3,0.7,4.2,4,4.2C194.1,223.6,195.5,223,196.5,221.8z"/>
<path class="st0" d="M33.7,244.8l-0.7,1.5c-1.2,2.2-2.4,2.6-5.3,2.6h-6l4.4-13.8c0.4-1.2,0.6-1.3,1.1-1.3s2,0.3,3.6,0.5
	c1.7,0.2,3.3,0.3,5,0.3c3.2,0,5.9-0.9,7.4-3.2c0-0.5-0.4-0.9-0.9-0.9c0,0-0.1,0-0.1,0c-0.6,1-1.1,1.6-3.8,1.6
	c-2.4,0-5.2-0.2-9.5-0.6c-3-0.3-5.9-0.5-8.9-0.5c-4.3,0-9.4,0.3-14.4,3.6c-3.2,2-5.2,5.3-5.5,9C0,246.3,1.8,248,3.4,248
	c1.3,0.1,2.5-1,2.5-2.3c0,0,0,0,0,0c0.2-0.7-0.2-1.5-0.9-1.8c-1.1-0.4-1.8-1.4-1.8-2.6c0-1.8,1-4.1,3.9-5.8c2.9-1.6,6.1-2.4,9.4-2.4
	c2.2,0,4.3,0.1,4.9,0.2c0.9,0.1,1,0.3,0.8,0.9l-8.3,26c-1.8,5.6-2.4,6.1-5,6.5l-2,0.2c-0.4,0.4-0.4,0.9,0,1.3c0,0,0,0,0.1,0.1
	c2.5-0.1,4.4-0.2,6.6-0.2s4.2,0.1,7.2,0.2c0.4-0.3,0.5-0.9,0.2-1.4l-2-0.2c-2.8-0.3-2.6-1.3-0.9-6.5l3-9.5h6.1
	c2.5,0,3.5,0.6,3.3,2.5l-0.2,2c0.4,0.4,1,0.4,1.4,0.1c0.3-1.3,0.9-3.4,1.6-5.4s1.4-3.9,1.8-4.9C35.1,244.5,34,244.4,33.7,244.8z"/>
<path class="st0" d="M53.4,242.8c-0.5-0.6-1.3-1-2.2-0.9c-0.3,0-0.5,0-0.8,0.1l-1,2.2c-0.2-0.3-0.5-0.5-0.8-0.7
	c-0.3-0.1-0.6-0.2-0.9-0.3c-1.1,0-2.1,0.3-3,0.9c-1.8,1-3.4,2.3-4.8,3.8c-3,3.4-4.5,7.2-4.5,8.7c-0.1,1.2,0.8,2.2,2,2.3c0,0,0,0,0,0
	c2.2,0,6.1-2.8,8.8-6.5h0.1l-1.4,3.7c-0.2,0.5-0.3,1-0.4,1.6c0,0.7,0.6,1.2,1.2,1.2c0,0,0,0,0,0c2.5,0,5.5-2.2,7.2-4.3
	c0-0.3-0.2-0.7-0.5-0.7c0,0-0.1,0-0.1,0c-1.7,1.6-3.3,2.5-3.9,2.5c-0.2,0-0.4-0.2-0.2-0.7C49.8,251.6,52.3,245.3,53.4,242.8z
	 M44.2,253.4c-1.7,1.7-3.3,3.1-3.9,3.1c-0.3-0.1-0.5-0.4-0.5-0.8c0.1-2.5,2.1-6.9,4.2-9.2c1.2-1.3,1.9-1.7,2.7-1.7
	c0.8,0,1.5,0.6,1.7,1.4C47.5,248.8,46,251.3,44.2,253.4L44.2,253.4z"/>
<path class="st0" d="M80.8,253.6c-1.1,1.2-2.9,2.6-3.5,2.6c-0.3,0-0.3-0.3-0.1-0.8c0.7-1.5,2.5-5.7,3.2-7.6c0.4-1,0.6-2,0.7-3
	c0.1-1.2-0.9-2.2-2-2.2c-0.1,0-0.2,0-0.4,0c-2.7,0-5.8,2.8-8.9,7.9h-0.1c0.6-1.5,1.5-3.7,1.7-4.5c0.3-1.2,0.4-3.4-1.9-3.4
	c-3,0-6.4,4-8.8,7.7h-0.1l2.2-5.7c0.4-0.9,0.1-2-1.2-2c-2.8-0.1-5.4,1.5-6.7,4c0,0.4,0.3,0.7,0.7,0.7l0,0c0.8-0.9,2-2.2,3.2-2.2
	c0.5,0,0.6,0.3,0.3,1.3s-3.9,10.9-4,11.3c-0.3,0.9,0.8,1.2,1.9,1.2c0.5,0.1,1-0.2,1.2-0.7c1.8-3.8,3.6-7.5,5.6-10s3.4-3.5,4.3-3.5
	c0.4,0,0.6,0.3,0.6,0.8c-0.1,0.8-0.4,1.5-0.7,2.2c-0.9,2-3.9,9.9-3.9,10.1c-0.3,0.9,0.9,1.2,1.9,1.2c0.5,0.1,1-0.2,1.2-0.7
	c2-3.8,3.8-7.5,5.8-10.1c1.9-2.4,3.3-3.5,4-3.5c0.3,0,0.6,0.2,0.6,0.5c0,0.1,0,0.1,0,0.2c-0.1,0.8-0.3,1.6-0.6,2.3
	c-0.9,2.4-2.2,5.5-3.2,7.8c-0.4,0.7-0.6,1.5-0.8,2.3c0.1,0.7,0.7,1.2,1.4,1.2c3.1-0.2,5.8-2,7.4-4.6c0.1-0.3-0.2-0.6-0.5-0.7
	C81,253.6,80.9,253.6,80.8,253.6z"/>
<path class="st0" d="M93.1,233.4c-1.5,0-2.7,1.3-2.6,2.8c0,0,0,0,0,0c-0.1,1,0.7,1.8,1.6,1.9c0.1,0,0.1,0,0.2,0
	c1.5-0.1,2.7-1.3,2.6-2.8c0.1-0.9-0.5-1.8-1.5-1.9C93.4,233.3,93.3,233.3,93.1,233.4z"/>
<path class="st0" d="M92.7,245.4c0.3-0.5,0.5-1.1,0.4-1.7c-0.2-0.6-0.7-1-1.3-1.1c-1.7,0-5,1.7-7.1,4.1c-0.1,0.3,0.1,0.7,0.4,0.8
	c0,0,0.1,0,0.1,0c1-0.9,2.1-1.6,3.3-2.1c0.2,0,0.2,0.2,0.1,0.6l-4.3,10.1c-0.2,0.5-0.3,1-0.4,1.5c0.1,0.6,0.6,1.1,1.2,1.2
	c2.9,0,6.6-3,7.7-4.6c0.1-0.4-0.2-0.7-0.5-0.8c0,0-0.1,0-0.1,0c-1.1,1.2-3.2,2.7-3.9,2.7c-0.3,0-0.3-0.4-0.1-0.7L92.7,245.4z"/>
<path class="st0" d="M103.9,253.7c0.1-0.3-0.1-0.6-0.4-0.7c-0.1,0-0.2,0-0.2,0c-1.3,1.5-3.4,3.7-4.2,3.7c-0.5,0-0.5-0.5-0.1-1.5
	l6.2-18.2c1-3.1,1.5-4.3,2-5.9c0-0.1-0.1-0.2-0.2-0.3c-2.1,0.2-4.2,0.6-6.2,1.2c-0.2,0.2-0.2,0.5-0.1,0.8l0.9,0.5
	c0.7,0.4,0.9,0.8,0.1,2.8l-6.4,18.6c-0.4,0.9-0.6,1.9-0.7,2.9c0,0.6,0.5,1.4,2,1.4C100.5,258.9,102.8,255.8,103.9,253.7z"/>
<path class="st0" d="M119.1,243.1c-0.4-0.2-0.9-0.4-1.4-0.4c-0.5,0-1,0.2-1.1,1.4c-0.2,1.6-0.4,3.2-0.9,4.7c-0.8,3-1.9,5.9-3.4,8.6
	h-0.1c0.4-2.6,0.6-5.3,0.5-8c-0.1-4-1-6.8-3-6.8c-2.7,0-4.4,3.3-5.1,5.6c0.1,0.4,0.5,0.6,0.9,0.4c0,0,0.1,0,0.1-0.1
	c0.7-1.5,1.5-3,2.4-3s1.4,2.2,1.4,6.6c0.2,2.8,0,5.7-0.6,8.5c-0.4,1.7-1.2,3.3-2.4,4.6c-0.6,0.6-1.3,1-2.2,1c-0.6-0.1-1.1-0.5-1.4-1
	c-0.3-0.5-0.8-0.8-1.3-0.8c-1.1,0-2,1-1.9,2.1c0,0,0,0.1,0,0.1c0.2,1.2,1.3,2.1,2.5,2c1.5,0,3.7-0.7,6.5-3.7
	c2.5-2.9,4.7-6.1,6.5-9.4c3.4-5.9,4.5-10.6,4.5-11.5C119.6,243.7,119.4,243.3,119.1,243.1z"/>
<path class="st0" d="M160.1,257.4c-1.8-0.2-1.8-1.2-1.9-3.1c-0.3-5.5-0.4-12.7-0.4-16.8c0-2.7,0.3-3.4,2.7-3.7l0.8-0.1
	c0.2-0.3,0.2-0.7,0-1c-1.2,0.1-2.5,0.1-3.4,0.1c-0.8,0-1.6,0-2.9-0.1c-0.1,1.8-1.2,3.9-2.9,7.4l-3.6,7.4c-1,2-1.9,4-3,5.8h-0.1
	c-0.9-1.7-1.8-3.5-2.7-5.3l-4.4-8.9c-1.2-2.5-2.2-4.9-2-6.4c-1.3,0.1-2.3,0.1-3.2,0.1s-1.9,0-3-0.1c-0.3,0.2-0.4,0.7-0.1,1l0.6,0.1
	c2.4,0.4,2.7,0.9,2.6,3.3c-0.1,2.1-0.2,5.4-0.4,8.6c-0.2,3.8-0.4,5.9-0.7,8.5c-0.2,2.7-0.8,3-2.4,3.2l-0.9,0.1
	c-0.2,0.3-0.2,0.7,0.1,1c1.3-0.1,2.7-0.1,3.9-0.1c1.5,0,3,0,4.3,0.1c0.3-0.2,0.3-0.7,0.1-0.9c0,0,0,0-0.1-0.1l-1.5-0.1
	c-1.5-0.1-1.7-0.7-1.7-3.6c0-3.3,0.1-6.7,0.3-9.1s0.2-4.5,0.4-6.9h0.1c0.9,1.8,1.7,3.8,2.5,5.5l3.4,7.4c0.9,1.9,2.7,5.7,3.4,7.7
	c0.1,0.1,0.2,0.2,0.3,0.2c0.1,0,0.3,0,0.4-0.2c0.7-1.8,2.4-5.4,4.2-8.8l3.4-6.7c0.8-1.5,2.2-4.6,2.5-5h0.1l0.1,16.1
	c0,2.5,0,3.1-1.9,3.3l-1.1,0.1c-0.3,0.3-0.2,0.7,0.1,1c1.6-0.1,3.3-0.1,4.7-0.1s3,0,4.5,0.1c0.3-0.3,0.3-0.7,0.1-1L160.1,257.4z"/>
<path class="st0" d="M168.9,234.8c0.1-1-0.7-1.9-1.7-2c-0.1,0-0.1,0-0.2,0c-1.1,0-2,0.8-2.1,1.9c0,0,0,0.1,0,0.1
	c0.1,1.1,1.1,1.9,2.2,1.7C168.1,236.4,168.8,235.7,168.9,234.8z"/>
<path class="st0" d="M170,257.4c-1.4-0.2-1.5-0.6-1.5-3.4v-6.9c0-1.6,0.1-3.4,0.1-4.8c-0.1-0.2-0.2-0.3-0.4-0.2
	c-1.3,0.7-2.6,1.4-4,1.9c-0.2,0.2-0.2,0.5,0,0.7l0.4,0.2c1,0.7,1,0.9,1,2.4v6.7c0,2.8,0,3.2-1.5,3.4l-0.8,0.1
	c-0.3,0.3-0.2,0.7,0,0.9c0,0,0,0,0.1,0.1c1.1-0.1,2.2-0.1,3.6-0.1s2.5,0,3.6,0.1c0.3-0.2,0.4-0.6,0.1-0.9c0,0,0,0-0.1-0.1L170,257.4
	z"/>
<path class="st0" d="M189.9,257.4c-1.4-0.2-1.5-0.6-1.5-3.4v-6.6c0-2.6-1.3-4.8-4.5-4.8c-1.9,0.2-3.8,0.8-5.4,2
	c-0.2,0-0.4-0.2-0.4-0.4c0,0,0,0,0,0c0-0.4,0-0.9,0.1-1.8c-0.1-0.2-0.2-0.3-0.4-0.3c-1.2,0.8-2.5,1.4-3.9,1.9
	c-0.2,0.2-0.2,0.5,0,0.7l0.4,0.2c1,0.7,1,0.9,1,2.4v6.7c0,2.8,0,3.2-1.5,3.4l-0.8,0.1c-0.3,0.3-0.2,0.7,0,0.9c0,0,0,0,0.1,0.1
	c1.1-0.1,2.2-0.1,3.6-0.1s2.5,0,3.5,0.1c0.3-0.2,0.4-0.6,0.1-0.9c0,0,0,0-0.1-0.1l-0.7-0.1c-1.4-0.2-1.5-0.6-1.5-3.4v-5.9
	c-0.1-0.8,0.1-1.6,0.6-2.3c0.8-0.9,2-1.4,3.3-1.4c2.6,0,3.6,1.6,3.6,3.8v5.7c0,2.8,0,3.1-1.5,3.4l-0.7,0.1c-0.3,0.3-0.2,0.7,0,0.9
	c0,0,0,0,0.1,0.1c1-0.1,2.2-0.1,3.6-0.1s2.5,0,3.6,0.1c0.3-0.2,0.4-0.6,0.1-0.9c0,0,0,0-0.1-0.1L189.9,257.4z"/>
<path class="st0" d="M199.4,257.4c-1.4-0.2-1.5-0.6-1.5-3.4v-6.9c0-1.6,0.1-3.4,0.1-4.8c-0.1-0.2-0.2-0.3-0.4-0.2
	c-1.3,0.7-2.6,1.4-4,1.9c-0.2,0.2-0.2,0.5,0,0.7l0.4,0.2c1,0.7,1,0.9,1,2.4v6.7c0,2.8,0,3.2-1.5,3.4l-0.8,0.1
	c-0.3,0.3-0.2,0.7,0,0.9c0,0,0,0,0.1,0.1c1.1-0.1,2.2-0.1,3.6-0.1s2.5,0,3.6,0.1c0.3-0.2,0.3-0.7,0.1-1c0,0,0,0,0,0L199.4,257.4z"/>
<path class="st0" d="M194.3,234.9c0,1.1,0.9,2,2,2c1.1,0,2-0.9,2-2c0-1.1-0.8-2-1.9-2C195.3,232.9,194.3,233.7,194.3,234.9
	C194.3,234.8,194.3,234.9,194.3,234.9z"/>
<path class="st0" d="M208.2,249.3c-1.4-0.8-3-1.6-3-3.2c0-1.3,0.9-2.3,2.2-2.4c0.1,0,0.2,0,0.3,0c1.6,0,2.7,1.1,3.4,2.8
	c0.3,0.2,0.7,0.2,0.9-0.1c0-1.1-0.2-2.1-0.6-3.1c-1.1-0.5-2.2-0.8-3.4-0.7c-2.9,0-5.2,1.6-5.2,4.4c0,2.1,1.6,3.5,3.8,4.7
	c1.4,0.8,3,1.8,3,3.5c0.1,1.3-1,2.4-2.3,2.5c-0.1,0-0.2,0-0.3,0c-2.2,0-3.4-1.9-4.1-4c-0.3-0.2-0.6-0.2-0.9,0
	c-0.1,1.3,0.1,2.6,0.5,3.9c1.2,0.8,2.7,1.3,4.1,1.2c2.9,0,5.5-1.5,5.5-4.4C212.1,251.8,210.2,250.5,208.2,249.3z"/>
<path class="st0" d="M219.8,244.8h4.4c0.4-0.5,0.4-1.2,0-1.6h-4.3c-0.6,0-0.7,0-0.7-0.7v-1.7c-0.2-0.2-0.5-0.3-0.8-0.2
	c-0.4,0.8-1,1.6-1.6,2.3c-0.7,0.5-1.6,0.9-2.5,1.2c-0.2,0.3-0.1,0.6,0.1,0.8h1.1c0.8,0,0.8,0.1,0.8,1.1v8.8c0,2.3,0.7,4.2,4,4.2
	c1.5,0,3-0.6,4-1.8c0.1-0.3-0.1-0.6-0.3-0.6c0,0,0,0,0,0c-0.1,0-0.6,0.4-1,0.5c-0.3,0.1-0.7,0.2-1,0.2c-2.5,0-2.8-2-2.8-4.3v-7.2
	C219.1,244.9,219.2,244.8,219.8,244.8z"/>
<path class="st0" d="M235.3,242.6c-1.4,0-2.9,1.2-4.2,2.3c-0.1-0.1-0.1-0.2-0.1-0.4v-2.2c0-0.2-0.2-0.3-0.3-0.3
	c-1.2,0.7-2.5,1.3-3.9,1.9c-0.2,0.2-0.2,0.5,0,0.7l0.4,0.2c1,0.7,1,0.9,1,2.4v6.7c0,2.8,0,3.1-1.5,3.4l-0.7,0.1
	c-0.3,0.3-0.2,0.7,0,0.9c0,0,0,0,0.1,0.1c1-0.1,2.2-0.1,3.5-0.1s2.5,0,4.3,0.1c0.3-0.2,0.3-0.7,0.1-1c0,0,0,0,0,0l-1.4-0.1
	c-1.5-0.1-1.5-0.6-1.5-3.4v-5.2c-0.1-1,0.1-2.1,0.5-3c0.3-0.5,0.8-0.8,1.4-0.8c0.6,0,1.2,0.2,1.7,0.6c0.2,0.2,0.5,0.3,0.9,0.3
	c0.9,0,1.7-0.8,1.7-1.8c0,0,0,0,0,0C237,243.3,236.2,242.6,235.3,242.6C235.3,242.6,235.3,242.6,235.3,242.6z"/>
<path class="st0" d="M244.8,257.4c-1.4-0.2-1.5-0.6-1.5-3.4v-6.9c0-1.6,0.1-3.4,0.1-4.8c-0.1-0.2-0.2-0.3-0.4-0.2
	c-1.3,0.7-2.6,1.4-4,1.9c-0.2,0.2-0.2,0.5,0,0.7l0.4,0.2c1,0.7,1,0.9,1,2.4v6.7c0,2.8,0,3.2-1.5,3.4l-0.8,0.1
	c-0.3,0.3-0.2,0.7,0,0.9c0,0,0,0,0.1,0.1c1.1-0.1,2.2-0.1,3.6-0.1s2.5,0,3.6,0.1c0.3-0.2,0.4-0.6,0.1-0.9c0,0,0,0-0.1-0.1
	L244.8,257.4z"/>
<path class="st0" d="M241.7,236.8c1.1-0.2,1.8-1.2,1.7-2.3c-0.1-0.8-0.7-1.5-1.5-1.6c-1.1,0-2,0.8-2.1,1.9c0,0,0,0.1,0,0.1
	c0,1,0.8,1.9,1.8,1.9C241.5,236.8,241.6,236.8,241.7,236.8z"/>
<path class="st0" d="M260.1,254.9c-0.8,1.2-2.1,1.9-3.5,1.9c-4.1,0-6.4-3.3-6.4-7.2c0-1,0-1,1-1h7.1c1.6,0,2.2,0,2.3-0.3
	c0.1-0.3,0.2-0.7,0.1-1c0-2.3-2.2-4.6-5.5-4.6c-4.6,0-7.7,4-7.7,8.7c0,1.8,0.5,3.6,1.6,5c1.4,1.7,3.4,2.6,5.6,2.5
	c2.5,0,4.8-1.4,6-3.6C260.7,255.1,260.5,254.8,260.1,254.9C260.2,254.8,260.2,254.8,260.1,254.9z M254.9,243.8c2.2,0,3,1.4,3,2.4
	c0.1,0.3,0,0.5-0.2,0.7c-0.3,0.2-1.2,0.4-4,0.4h-2.7c-0.3,0-0.3-0.1-0.3-0.2C250.7,245.9,252.6,243.8,254.9,243.8L254.9,243.8z"/>
<path class="st0" d="M268.5,249.3c-1.4-0.8-3-1.6-3-3.2c0-1.3,0.9-2.3,2.2-2.4c0.1,0,0.2,0,0.3,0c1.6,0,2.7,1.1,3.4,2.8
	c0.3,0.2,0.7,0.2,0.9-0.1c0-1.1-0.2-2.1-0.6-3.1c-1.1-0.5-2.2-0.8-3.4-0.7c-2.9,0-5.2,1.6-5.2,4.4c0,2.1,1.6,3.5,3.8,4.7
	c1.4,0.8,3,1.8,3,3.5c0.1,1.3-1,2.4-2.3,2.5c-0.1,0-0.2,0-0.3,0c-2.2,0-3.4-1.9-4.1-4c-0.3-0.2-0.6-0.2-0.9,0
	c-0.1,1.3,0.1,2.6,0.5,3.9c1.2,0.8,2.7,1.3,4.1,1.2c2.9,0,5.5-1.5,5.5-4.4C272.4,251.8,270.5,250.5,268.5,249.3z"/>
<polygon class="st0" points="210.8,61.2 210.4,59.7 210,58.2 191.1,65 "/>
<polygon class="st0" points="213,87.4 213.1,85.8 213.2,84.2 193.1,84.7 "/>
<polygon class="st0" points="107.9,3.8 106.4,4.3 105,4.8 112.8,23.3 "/>
<polygon class="st0" points="84.5,15.8 83.3,16.7 82,17.6 95.4,32.6 "/>
<polygon class="st0" points="66.1,34.5 65.3,35.8 64.4,37.1 81.8,47 "/>
<polygon class="st0" points="51.7,87.4 71.6,84.7 51.5,84.2 51.6,85.8 "/>
<polygon class="st0" points="133.9,0 132.4,0 130.8,0 132.4,20 "/>
<polygon class="st0" points="54.7,58.2 54.3,59.7 53.9,61.2 73.6,65 "/>
<polygon class="st0" points="56.7,110 57.3,111.4 57.9,112.9 75.9,104 "/>
<polygon class="st0" points="158.2,4.3 156.8,3.8 151.9,23.3 159.7,4.8 "/>
<polygon class="st0" points="207.4,111.4 208,110 188.8,104 206.8,112.9 "/>
<polygon class="st0" points="199.4,35.8 198.6,34.5 182.9,47 200.3,37.1 "/>
<polygon class="st0" points="181.4,16.7 180.2,15.8 169.3,32.6 182.7,17.6 "/>
</svg>
