<svg xmlns="http://www.w3.org/2000/svg" viewBox="0 0 670.54 458.82"><title>SLIGOLOGO2015_ONECOLOR</title><path d="M178.87,119.53a38.79,38.79,0,0,0,5.1-1.32l5.27-1.36q5.3-1.34,10.64-2.54c7.13-1.61,14.3-3.07,21.49-4.44,14.33-2.74,28.73-5,43.16-7.1q6-.86,12-1.64l6.32-.78c1-.12,2-0.22,3-0.35,0.66-.09,1.26-0.18,1.27-1a14.5,14.5,0,0,1,2.15,2.28l2.59,3,4.67,5.32,9.63,10.94L311,126c0.71,0.8,1.35,1.31,1.29,2.42s-0.21,2.42-.31,3.63c-0.37,4.79-.7,9.57-1.07,14.36s-0.73,9.66-1.1,14.49c-0.18,2.37-.39,4.73-0.59,7.09,0,0.58-.47,2.44,0,2.85a2.37,2.37,0,0,0,1.27,0c0.68,0,1.36-.05,2-0.06,4.85-.09,9.71-0.18,14.56-0.24l3.27,0c0.67,0,2.33.33,2.77-.3a3,3,0,0,0,.12-1.27c0-.52.09-1,0.12-1.57,0.07-1.22.14-2.45,0.2-3.67q0.79-14.46,1.54-28.92a17.54,17.54,0,0,1,.16-3c0.17-.73.7-0.58,1.38-0.6l7.1-.2q3.56-.1,7.12-0.22l3.52-.13c0.5,0,2.19-.37,2.61,0s0.09,1.86.08,2.32c0,1.31-.08,2.63-0.12,3.94q-0.13,3.49-.25,7-0.25,7.23-.5,14.46-0.12,3.63-.25,7.25c0,1.18-.09,2.35-0.12,3.53,0,0.71-.11,1,0.64,1.1a66.32,66.32,0,0,0,7,0l7.27,0,7.2,0a1.21,1.21,0,0,0,1.07-.23,1.88,1.88,0,0,0,0-.79c0-.62,0-1.23,0-1.85q0-7.36,0-14.71t0-14.71c0-2.35-.1-4.73,0-7.08,0-.69.13-0.77,0.82-0.79,1.31,0,2.64,0,3.95,0h16.19a4.71,4.71,0,0,1,1.31,0c0.6,0.21.41,0.94,0.41,1.5q0,3.67,0,7.33,0,14.57,0,29.14c0,0.44-.21,1.59.16,1.93s2,0.11,2.6.13c2.35,0.08,4.71.09,7.06,0.13s5,0,7.5.09c1.09,0,2.18.1,3.28,0.1h1.72a2.16,2.16,0,0,0,1-.07c0.42-.37.05-1.72,0-2.2-0.08-1.23-.11-2.47-0.16-3.7q-0.15-3.63-.27-7.26c-0.15-4.9-.39-9.79-0.57-14.69-0.09-2.46-.17-4.92-0.25-7.37,0-1.11,0-2.24-.09-3.35s-0.11-1.17.91-1.16c4.8,0.07,9.6.3,14.41,0.41l3.54,0.09c0.63,0,2.41-.24,2.9.24s0.26,2.27.29,2.92c0.07,1.32.14,2.64,0.2,4,0.19,4.8.4,9.6,0.6,14.4s0.47,9.6.63,14.4q0,0.89.06,1.79a6.12,6.12,0,0,0,.06,1.6c0.29,0.78,1.72.51,2.45,0.54,2.41,0.11,4.84.12,7.25,0.16l7.29,0.14,3.44,0.09,1.51,0a4.65,4.65,0,0,0,1.61,0c0.51-.27.27-1,0.23-1.55-0.08-1.28-.18-2.57-0.28-3.85q-0.28-3.58-.56-7.16c-0.74-9.5-1.42-19-2.19-28.51-0.07-.91-0.45-2.25-0.09-3.12a11.84,11.84,0,0,1,2.14-2.54l4.75-5.4c3.23-3.67,6.46-7.33,9.67-11,1.51-1.73,3-3.46,4.56-5.17a39.86,39.86,0,0,1,4-4.45c0,0.88.47,1,1.22,1.11l3.37,0.39c2.26,0.27,4.52.53,6.77,0.82,4.56,0.57,9.1,1.26,13.65,1.9,9.1,1.28,18.15,2.77,27.21,4.31,18.25,3.1,36.38,6.92,54.27,11.68l1.7,0.45a2.68,2.68,0,0,0,1.18.23c0.6-.24.1-1.54,0-2-0.19-1.07-.36-2.16-0.58-3.22a4.9,4.9,0,0,0-1.45-2.43c-1.45-1.51-3.29-2.13-5.19-2.88q-3.26-1.29-6.53-2.54-12.72-4.86-25.68-9A435.64,435.64,0,0,0,509.75,83.5c-9-1.69-18-3-27.08-4.23s-18.38-2.3-27.59-3.12c-18.5-1.64-37-2.43-55.6-2.58s-37.11.47-55.61,1.73S307,78.66,288.71,81.38a466.81,466.81,0,0,0-54.25,11.15q-13.17,3.59-26.09,8-6.48,2.24-12.88,4.73a97,97,0,0,0-12.42,5.34c-1.6.91-3.07,2-3.59,3.83-0.29,1-.53,2-0.77,3.06C178.62,117.93,177.91,119.64,178.87,119.53Z" transform="translate(-54.7 -65.63)" style="fill:#fff"/><path d="M492.43,105.44a15.29,15.29,0,0,0-.38-3.32c-0.5,0-1,.95-1.32,1.28l-1.26,1.42-2.9,3.3-5.76,6.55-5.89,6.7-2.62,3a30.81,30.81,0,0,0-2.51,2.9,2.48,2.48,0,0,0-.42,1.52c0,1.31.23,2.65,0.34,4,0.24,2.8.46,5.61,0.65,8.42,0.39,5.74.9,11.47,1.33,17.2,0.21,2.86.4,5.72,0.64,8.57,0.05,0.62.08,1.24,0.12,1.86a4.29,4.29,0,0,0,.25,1.92c0.53,0.7,2.46.33,3.3,0.35,5.6,0.16,11.26.56,16.87,0.39a33.31,33.31,0,0,0,4.19-.37,2,2,0,0,0,1-.26,2.45,2.45,0,0,0,0-1.4q-0.38-4.38-.75-8.77c-0.48-5.64-1-11.27-1.5-16.91-0.52-6.28-1.11-12.56-1.65-18.84-0.56-6.48-1-13-1.72-19.45h0Z" transform="translate(-54.7 -65.63)" style="fill:#fff"/><path d="M310.87,128.69c0.11-1.2-1.58-2.47-2.3-3.3l-3-3.36-5.93-6.75q-5.77-6.56-11.56-13.11c-1.6,18-3.12,36-4.72,53.94-0.4,4.52-.82,9-1.21,13.55-0.06.68-.3,1.36,0.48,1.58a25.72,25.72,0,0,0,3.5.44,36.5,36.5,0,0,0,6.38-.19c4.61-.22,9.24-0.43,13.85-0.48,1,0,1.22,0,1.3-1,0.09-1.17.18-2.34,0.27-3.51q0.28-3.5.55-7c0.8-10.25,1.45-20.52,2.36-30.76h0Z" transform="translate(-54.7 -65.63)" style="fill:#fff"/><path d="M216.3,95a487.88,487.88,0,0,1,70.14-16.16,641.88,641.88,0,0,1,71.76-7.5c23.89-1.13,47.83-.86,71.71.31a602.36,602.36,0,0,1,71,7.72c23.62,4,47.09,9.36,69.81,17l4.06,1.4a21.08,21.08,0,0,0,3.89,1.3,3.61,3.61,0,0,0-1.44-.76l-2.11-.91q-2.11-.89-4.24-1.74-4.26-1.7-8.59-3.22-8.8-3.1-17.78-5.66c-12-3.46-24.22-6.29-36.48-8.71-12.11-2.4-24.36-4.46-36.63-5.91-12.52-1.47-25-2.91-37.59-3.83a614.26,614.26,0,0,0-75.33-.4,562.53,562.53,0,0,0-74.3,8.39c-24.48,4.53-48.78,10.61-72.1,19.39q-2,.75-4,1.52c-1.15.45-2.83,0.79-3.76,1.65a7.46,7.46,0,0,0,2.62-.81L210.12,97q3.08-1,6.17-2h0Z" transform="translate(-54.7 -65.63)" style="fill:#fff"/><path d="M578.69,99.11c-0.07,0,0,0,0,0h0Z" transform="translate(-54.7 -65.63)" style="fill:#fff"/><path d="M204.33,98.91c-0.06,0,0,0,0,0S204.33,98.91,204.33,98.91Z" transform="translate(-54.7 -65.63)" style="fill:#fff"/><path d="M203.55,98.41c23.77-9.85,48.86-16.46,74.06-21.45a562.49,562.49,0,0,1,76.71-9.44,652.69,652.69,0,0,1,78.15.11c12.88,0.8,25.72,2.32,38.52,3.9s25.71,3.67,38.45,6.2,25.15,5.5,37.5,9.13A244.75,244.75,0,0,1,582.37,100q2.06,1,4.09,2a25.43,25.43,0,0,0,3.85,1.83c-0.32-1.27-2.1-1.76-3.14-2.29q-2.18-1.11-4.39-2.16-4.33-2.05-8.77-3.88c-6.07-2.5-12.26-4.71-18.5-6.74A391.8,391.8,0,0,0,516.6,78.48q-20-4.27-40.2-7c-6.59-.9-13.21-1.55-19.81-2.38s-13.37-1.43-20.07-1.9c-13.51-1-27-1.42-40.56-1.53-6.77-.06-13.53.16-20.3,0.27s-13.56.42-20.32,0.82c-13.41.79-26.77,2-40.12,3.47s-26.71,3.8-39.9,6.44S248.93,82.49,236,86.3a303.44,303.44,0,0,0-37.19,13.34q-2.21,1-4.38,2c-1.07.53-3,1.06-3.34,2.38,0.89,0,2-.88,2.74-1.28q1.58-.81,3.2-1.56c2.16-1,4.35-1.91,6.54-2.82h0Z" transform="translate(-54.7 -65.63)" style="fill:#fff"/><path d="M552.15,134.89c18.19,3,36.33,6.36,54.49,9.53l3.27,0.57a10.63,10.63,0,0,0,3,.51c0.63-.12.48-0.55,0.4-1.13a7,7,0,0,0-.47-2.3,1.29,1.29,0,0,0-1-.58c-1.06-.23-2.14-0.4-3.21-0.59l-7-1.29q-13.72-2.54-27.44-5.13-7.7-1.45-15.39-2.88a15.24,15.24,0,0,0-3.69-.63c-1,.09-2.19,1.21-3,1.76l-1.64,1a7.15,7.15,0,0,0-1.64,1c-0.38.51,0.85,0.16,1.2,0.12a7.57,7.57,0,0,1,2.14,0h0Z" transform="translate(-54.7 -65.63)" style="fill:#fff"/><path d="M225.6,131.39c-0.68-.44-2,0.09-2.7.22l-3.45.65-6.72,1.25L199.11,136c-9.05,1.69-18.1,3.4-27.16,5.07l-3.1.57c-1.05.19-1.56,0.28-1.72,1.41-0.08.53-.15,1.06-0.23,1.59a2.27,2.27,0,0,0-.11.86c0.24,0.48,1.11.16,1.58,0.09,4.43-.66,8.83-1.57,13.24-2.34q13.52-2.36,27-4.72,7.72-1.36,15.44-2.69c1.18-.21,2.36-0.44,3.55-0.62a9.34,9.34,0,0,1,1.76-.14,5.59,5.59,0,0,0,1.65.19c0.63-.23-0.11-0.49-0.45-0.71l-1.67-1.07-3.33-2.14h0Z" transform="translate(-54.7 -65.63)" style="fill:#fff"/><path d="M229.44,138.64q0,2.23,0,4.46a16,16,0,0,0,0,2.13c0.3,0.11.58-1.52,0.67-1.86l1.13-4.17c0.14-.5.33-0.63-0.09-0.89a2.36,2.36,0,0,0-.86-0.17c-0.43,0-.85-0.05-0.85.49C229.45,140.84,229.44,138.23,229.44,138.64Z" transform="translate(-54.7 -65.63)" style="fill:#fff"/><path d="M549.41,137.91c-1.22.13,0,2.65,0.19,3.36l0.68,2.46c0.07,0.25.11,1.07,0.45,0.92a6.44,6.44,0,0,0,0-1.2c0-1.6.14-3.26,0-4.86-0.08-.9-0.5-0.78-1.32-0.69h0Z" transform="translate(-54.7 -65.63)" style="fill:#fff"/><path d="M204.31,98.92v0C204.23,99,204.21,98.92,204.31,98.92Z" transform="translate(-54.7 -65.63)" style="fill:#fff"/><path d="M277.83,75.42c-0.06.06,0,0,0,0h0Z" transform="translate(-54.7 -65.63)" style="fill:#fff"/><path d="M277.8,75.45c-0.08,0-.07.06,0,0h0Z" transform="translate(-54.7 -65.63)" style="fill:#fff"/><path d="M183.36,182.14a24,24,0,0,0-6.3,2.36A24.42,24.42,0,0,0,171.7,188c-0.7.68-.44,1.86-0.44,2.75s-0.29,2.57.13,3.52c0.35,0.79.81,0.92,1.34,0.32a31.29,31.29,0,0,1,2.31-2.37c3.33-3,7.6-5.27,12.21-5.15a15.64,15.64,0,0,1,6.65,1.74,8.62,8.62,0,0,0,1.41.76c0.51,0.14.28,0.18,0.52-.25a2.28,2.28,0,0,0,.09-0.8c0-.54.05-1.07,0.11-1.61a5.53,5.53,0,0,0,.19-1.62c-0.19-.95-1.4-1.46-2.16-1.85a14.68,14.68,0,0,0-3.44-1.3,16.6,16.6,0,0,0-7.29,0h0Z" transform="translate(-54.7 -65.63)" style="fill:#fff"/><path d="M195.25,191.21c-4-2.5-8.31-3.63-12.85-2a18.68,18.68,0,0,0-5.16,2.94,16.15,16.15,0,0,0-4.24,4.43c2.31,0.74,4.68,1.29,7,2,0.78,0.23,1.87.79,2.6,0.17s1.37-1.57,2.12-2.26a18.62,18.62,0,0,1,5.39-3.53,14.49,14.49,0,0,1,3.35-.94c0.28,0,2.9-.11,1.78-0.81h0Z" transform="translate(-54.7 -65.63)" style="fill:#fff"/><path d="M596.24,187.08a19.7,19.7,0,0,1,9,4.87c0.67,0.61,1.3,1.26,1.92,1.93a4.61,4.61,0,0,0,.86,1,1.64,1.64,0,0,0,.79-0.76,4.67,4.67,0,0,0,.15-2.24c0-1,.14-2.08,0-3.08-0.16-1.51-2.4-2.5-3.54-3.24a30.22,30.22,0,0,0-4.8-2.51,18.4,18.4,0,0,0-10.37-1.31,14,14,0,0,0-5.25,2.12c-1,.67-1,1.08-0.93,2.26s0.27,2.27.43,3.39a25,25,0,0,1,5.6-2.35,14,14,0,0,1,6.17,0h0Z" transform="translate(-54.7 -65.63)" style="fill:#fff"/><path d="M594.47,195a21,21,0,0,1,2.57,2.44c0.92,1,1.17,1.17,2.52.78,2.46-.72,5.1-1.17,7.48-2.13a16.72,16.72,0,0,0-4.32-4.35,17.89,17.89,0,0,0-5.74-3,13,13,0,0,0-6.39-.26,14.46,14.46,0,0,0-3,1,7.83,7.83,0,0,0-2.8,1.67,7.42,7.42,0,0,0,2.35.35,14.61,14.61,0,0,1,2.63.73,18.11,18.11,0,0,1,4.74,2.76h0Z" transform="translate(-54.7 -65.63)" style="fill:#fff"/><path d="M54.71,246.05c0,1.25,0,1,1,1H724.1c0.66,0,1.33.29,1.09-.68-0.13-.52.1-0.21-0.27-0.32a3.47,3.47,0,0,0-.85,0H54.71Z" transform="translate(-54.7 -65.63)" style="fill:#fff"/><path d="M725,242.65l-9.54-1.85-21.85-4.22-24-4.64-15.94-3.08a9,9,0,0,0-2.08-.33c-1.25.06-2.51,0.32-3.75,0.46q-4.16.49-8.33,0.93l-2.84.3-1.34.14c-0.73.07-.62-0.07-0.74-0.74-0.35-2.06-.66-4.12-1-6.18q-1-6.1-2-12.19c-1.31-8.17-2.6-16.34-3.92-24.51s-2.61-16.23-3.92-24.34q-0.48-3-1-5.93c-0.32-2-.52-4.07-1-6a0.93,0.93,0,0,0-.92-0.84c-1-.23-2.08-0.36-3.12-0.53L611.64,148c-16.44-2.8-32.88-5.58-49.3-8.43l-6.07-1.05c-1-.18-2.08-0.39-3.13-0.54-0.52-.07-0.81-0.18-1,0.37a9.94,9.94,0,0,0,0,2.57c0,1.09,0,2.18,0,3.26,0,2-.1,3.95,0,5.91,0.21,4,.78,8.06,1.23,12.07,0.46,4.17.86,8.35,1.33,12.52,1.84,16.37,3.42,32.76,5.22,49.13,0.44,4.06.83,8.13,1.31,12.18a6.28,6.28,0,0,1-1.06.06c-0.46-.06-0.38-0.11-0.43-0.6-0.1-.87-0.18-1.74-0.27-2.61q-0.24-2.4-.48-4.79c-0.35-3.41-.75-6.82-1.12-10.23q-1.07-10-2.12-19.92c-1.41-13.39-2.79-26.78-4.24-40.17a61.83,61.83,0,0,0-1.53-9.76q-0.68-2.48-1.35-5l-0.62-2.3c-0.11-.39-0.23-1.74-0.63-2s-1.5.78-1.87,1l-2.17,1.4c-1.4.9-2.78,1.81-4.18,2.7a1.26,1.26,0,0,0-.85,1.33c0,0.85.18,1.72,0.27,2.57,0.18,1.71.35,3.42,0.53,5.14,1.38,13.18,2.8,26.35,4.11,39.54s2.66,26.23,4.11,39.32c0.18,1.64.44,3.31,0.51,5a4.26,4.26,0,0,1-1.06.05c-0.5-.14-0.35,0-0.39-0.63,0-.74-0.14-1.48-0.22-2.22q-0.28-2.56-.54-5.12c-0.32-3.13-.62-6.26-1-9.39-0.68-6.28-1.29-12.58-2-18.86-1.34-12.62-2.61-25.24-3.93-37.86-0.34-3.24-.68-6.47-1-9.71-0.33-3-.83-6.06-0.94-9.08A3.73,3.73,0,0,1,537,142a4,4,0,0,1,1.52-1.11c1.43-.87,2.94-1.7,4.29-2.68a1.16,1.16,0,0,0,.57-1.13,1.82,1.82,0,0,1,1.06-1.14c1.32-.85,2.64-1.68,4-2.52l4-2.53a13.56,13.56,0,0,1,1.91-1.21,3.64,3.64,0,0,1,2.16,0l9.36,1.74q9.48,1.76,19,3.56t19,3.55l4.68,0.86a35.66,35.66,0,0,1,5.07.93c1.07,0.37.9,1.88,1.06,2.84s0,2.32.9,2.7a9,9,0,0,0,2,.36l2.25,0.38c0.77,0.13,2.57.1,3.14,0.75,0.4,0.46.27,1.51,0.35,2.08,0.25,1.66.52,3.31,0.78,5,1,6.25,2,12.5,3,18.75q3,18.81,6,37.62c0.52,3.21,1,6.42,1.57,9.64q0.34,2.08.67,4.17a4.5,4.5,0,0,0,.36,1.9c0.44,0.41,1.48,0,2-.1,0.36-.06,2.08-0.11,2.28-0.38s-0.29-1.92-.35-2.28q-0.38-2.45-.76-4.89-0.74-4.7-1.49-9.4c-2-12.6-3.91-25.22-6-37.82-1-6.3-2-12.62-3-18.93-0.5-3.16-1-6.31-1.5-9.47a6.71,6.71,0,0,0-.38-1.79,5.86,5.86,0,0,0-1.19-1.41,2.36,2.36,0,0,1-.6-0.77c0.07-.27.48-0.16,0.65-0.22,0.47-.17.48-0.1,0.45-0.63a28,28,0,0,0-.88-4.23,7.07,7.07,0,0,0-2.11-3,1.43,1.43,0,0,0,1.23-.4,3,3,0,0,0-.2-1.17,6.48,6.48,0,0,0-.34-1.57c-0.36-.7-1.32-0.86-2-1.1l-3.27-1.14c-4.31-1.47-8.65-2.82-13-4.08-8.88-2.56-17.85-4.77-26.87-6.78-17.81-4-35.81-7.16-53.85-9.86-9.12-1.37-18.26-2.63-27.41-3.71A16.5,16.5,0,0,0,494,101c-0.73.06-.46,0.72-0.42,1.35,0.14,2.21.36,4.41,0.56,6.61,0.41,4.55.8,9.11,1.21,13.66,1.63,18,3.13,36.11,4.76,54.15,1.65,18.26,3.19,36.53,4.81,54.79q0.31,3.44.62,6.88a3.66,3.66,0,0,1-1.21,0,1.55,1.55,0,0,1-.27-1.17q-0.13-1.57-.27-3.14-0.25-2.88-.5-5.76c-0.33-3.86-.71-7.71-1-11.57-0.66-7.82-1.37-15.64-2-23.46Q499.6,186.71,499,180c-0.85,3.12-.19,6.7,0,9.89q0.33,5.07.64,10.15,0.62,10.16,1.21,20.32c0.19,3.35.37,6.7,0.56,10.05,0.1,1.67.19,3.34,0.31,5,0.05,0.74.11,1.48,0.14,2.22a1,1,0,0,1-.15.93,4.12,4.12,0,0,1-1.25,0,4.75,4.75,0,0,1-.07-1.33l-0.06-1.14q-0.06-1.24-.13-2.47-0.14-2.5-.3-5c-0.22-3.34-.47-6.67-0.68-10q-0.66-10.06-1.28-20.13c-0.2-3.27-.36-6.54-0.57-9.81-0.11-1.66-.26-3.32-0.36-5a23.83,23.83,0,0,1,.31-4.72c0.2-1.49.46-3,.52-4.54,0-.62,0-0.92-0.6-1.06a13.22,13.22,0,0,0-2.25-.1c-3.31-.16-6.63-0.17-9.95-0.28-6.6-.23-13.22-0.4-19.82-0.46s-13.41-.3-20.11-0.44l-20.06-.4c-13.56-.27-27.1-0.38-40.67-0.25s-27.28,0-40.92.29q-10.2.2-20.42,0.27c-6.68.05-13.35,0.31-20,.45-3.31.07-6.61,0.22-9.92,0.36-1.71.07-3.41,0.17-5.12,0.2s-3.24-.1-4.85,0c-0.42,0-.58,0-0.74.39a6.1,6.1,0,0,0,0,2.13c0.07,1.64.25,3.27,0.37,4.9a76.53,76.53,0,0,1-.27,9.79c-0.73,13.34-1.56,26.67-2.29,40l-0.26,4.78-0.14,2.59a1.13,1.13,0,0,1-.23,1,4.08,4.08,0,0,1-1.2,0c1.06-15.45,1.7-30.93,2.67-46.38,0.12-1.87.24-3.74,0.35-5.62,0-.88.08-1.76,0.11-2.64a9.44,9.44,0,0,0,0-2.89c-0.18-.55-0.27-0.32-0.32.22L281,182.57q-0.13,1.39-.24,2.79c-0.16,1.91-.31,3.82-0.48,5.74-0.69,7.72-1.4,15.43-2,23.15-0.35,4.23-.77,8.45-1.15,12.67-0.2,2.22-.36,4.43-0.55,6.65-0.09,1-.19,2.06-0.28,3.1a5.75,5.75,0,0,1-.13,1.68c-0.2.33-.94,0.16-1.4,0.14,0.58-8.95,1.53-17.88,2.32-26.81s1.64-17.91,2.37-26.87c1.48-18.11,3.14-36.21,4.77-54.3,0.8-8.88,1.61-17.75,2.38-26.63,0-.57.52-2.22-0.07-2.52a3.08,3.08,0,0,0-1.22.07l-1.94.23q-3.3.39-6.59,0.83c-4.52.6-9,1.21-13.55,1.85-18,2.57-35.91,5.58-53.68,9.29-8.84,1.85-17.65,3.89-26.39,6.19-4.37,1.15-8.71,2.37-13,3.7q-3.24,1-6.45,2.07a63.05,63.05,0,0,0-6.34,2.22c-0.81.37-.73,1.21-0.88,2a4.91,4.91,0,0,0-.28,1.41c0.22,0.31,1,.09,1.27.31-0.54.58-1.15,1.13-1.63,1.75a5.66,5.66,0,0,0-.71,2.36c-0.19.88-.38,1.75-0.57,2.63-0.1.44-.37,0.82,0.06,1s0.73,0,1.06.14c-0.63,1-1.79,1.66-2.06,2.9-0.33,1.52-.47,3.11-0.71,4.65l-1.47,9.3q-1.44,9.11-2.87,18.21-2.91,18.45-5.82,36.89-0.71,4.52-1.45,9c-0.25,1.57-.52,3.15-0.76,4.72a1.73,1.73,0,0,0,0,1.1c0.28,0.39,1.31.36,1.72,0.42s2,0.62,2.42.1a2.73,2.73,0,0,0,.28-1.22c0.13-.88.28-1.75,0.42-2.63q0.71-4.45,1.43-8.89,3-18.53,6-37.06c1-6,2-11.95,2.9-17.93,0.47-3,1.13-6,1.42-9a8.77,8.77,0,0,1,.12-2.13,0.83,0.83,0,0,1,.81-0.47c1.55-.35,3.14-0.57,4.71-0.83,1-.16,2.37,0,2.68-1.13,0.36-1.31.15-2.91,0.68-4.17,0.39-.91,1.74-0.82,2.6-1l4.66-.86,18.35-3.4,18.83-3.52,9-1.69,4.69-.89a3,3,0,0,1,1.66-.07,13.35,13.35,0,0,1,2.16,1.36c2.62,1.67,5.22,3.36,7.84,5a2.16,2.16,0,0,1,.94.72c0.21,0.53-.06.87,0.44,1.34a24,24,0,0,0,3.53,2.24c0.64,0.41,1.3.8,1.93,1.22a1.13,1.13,0,0,1,.68,1.19,29.63,29.63,0,0,1-.31,4.64c-0.35,3-.63,6.06-0.92,9.09-2.38,24.23-5.08,48.43-7.54,72.65q-0.22,2.14-.44,4.28L233.87,236l0,0.39q0.14,0.58-.39.38a4.09,4.09,0,0,1-1-.05c1.3-13.27,2.71-26.54,4.1-39.8s2.82-26.66,4.16-40q0.5-5,1.06-10a5.68,5.68,0,0,0,.13-2,2.42,2.42,0,0,0-1.3-1.21c-1.4-.88-2.8-1.78-4.19-2.68l-2.09-1.35c-0.49-.32-1.23-1.1-1.61-0.48a8.7,8.7,0,0,0-.59,2.16l-0.71,2.65a58.37,58.37,0,0,0-2.17,9.47c-1.26,13.19-2.75,26.36-4.21,39.52s-2.78,26.45-4.2,39.67c-0.09.81-.21,1.61-0.27,2.42a0.9,0.9,0,0,1-.25.89A4.27,4.27,0,0,1,219,236c1.78-16.09,3.44-32.2,5.13-48.3,0.86-8.19,1.69-16.38,2.59-24.57,0.45-4.07,1.09-8.18,1.34-12.27,0.13-2.07.09-4.16,0.09-6.23a49.79,49.79,0,0,0,0-6c-0.07-.55-0.2-0.51-0.73-0.44-1.07.14-2.14,0.37-3.2,0.55l-6,1q-6.21,1.06-12.43,2.13c-8.22,1.43-16.45,2.8-24.66,4.22l-12.4,2.16-6.11,1-2.87.48c-0.86.14-1.26,0.18-1.44,1.08-0.81,4-1.31,8.16-2,12.22s-1.31,8.19-2,12.28q-4,24.47-7.9,48.94-0.23,1.4-.46,2.81l-0.24,1.47a5.52,5.52,0,0,1-.27,1.65,1.47,1.47,0,0,1-1.2.07l-1.49-.15-2.77-.29q-4.12-.44-8.24-0.92a17.9,17.9,0,0,0-4.22-.43c-4.14.55-8.27,1.6-12.37,2.39l-23,4.45-23.31,4.51-13.5,2.61-0.65.13,6.57,0,18.11-.08,27.69-.13,34.8-.16,40-.19,43-.21,43.64-.22,42.52-.23,38.75-.22,33.26-.21c10-.07,20,0,30.06.11l36.4,0.22,41,0.23,43.26,0.23L577.48,242l41.59,0.2,37.63,0.18,31.39,0.15,22.92,0.1,12.45,0.06H725ZM519.55,139.92c0.91,0.12.73,2.36,0.81,3.1,0.16,1.54.29,3.08,0.43,4.62q0.4,4.48.81,9c0.56,6,1.13,12,1.69,18Q525,192.29,526.64,210q0.43,4.52.87,9l0.43,4.37c0.07,0.66.66,2.77,0,3.15a4.25,4.25,0,0,1-1.7,0,7.05,7.05,0,0,1-1.83,0c-1-.31-0.71-2.56-0.8-3.43q-0.45-4.47-.86-8.94-1.65-17.62-3.25-35.25c-0.61-6.63-1.21-13.25-1.84-19.88s-1.36-13.05-1.76-19.59a31.52,31.52,0,0,1,3.64.39h0ZM252.08,226.09c0.39-6.09,1.17-12.17,1.72-18.24s1.13-12.15,1.69-18.22q1.71-18.43,3.5-36.85c0.28-2.91.53-5.83,0.8-8.75,0.07-.8.15-1.59,0.21-2.39a1.55,1.55,0,0,1,.44-1.39,5.39,5.39,0,0,1,1.8-.25c0.42-.05,1.58-0.43,1.95-0.17s-0.09,2.89-.13,3.38q-0.22,2.36-.46,4.73c-0.31,3.1-.6,6.21-0.9,9.32-1.16,12.31-2.32,24.63-3.4,36.95-0.61,6.88-1.27,13.76-1.93,20.63q-0.48,5-.91,10c0,0.52.12,1.74-.36,2.08a4.61,4.61,0,0,1-1.93.07,5,5,0,0,1-1.83,0c-0.36-.2-0.3-0.44-0.28-0.85h0Zm335.83,6.58c-0.83-8.87-1.88-17.72-2.82-26.58q-0.7-6.57-1.39-13.15-0.34-3.26-.69-6.53a7.21,7.21,0,0,1-.11-2.81,4.37,4.37,0,0,1,1.61-1.87c5.92-4.89,13.85-4.52,20.32-.89a37.78,37.78,0,0,1,4.74,3.22,5.57,5.57,0,0,1,2.25,4.39c0.55,4.38,1.07,8.76,1.61,13.14,1.25,10.16,2.52,20.31,3.75,30.47a2.93,2.93,0,0,1-.91.08C616,232,616,231.77,616,231.37l-0.19-1.57-0.47-3.93c-0.3-2.48-.59-5-0.89-7.44-0.59-4.76-1.22-9.51-1.78-14.27s-1.18-9.71-1.78-14.57a13.14,13.14,0,0,0-.44-3.16c-0.34-.85-1.51-1.51-2.21-2a29.75,29.75,0,0,0-5.13-3.23,19.89,19.89,0,0,0-7-2,14.89,14.89,0,0,0-3.88.19c-1.06.19-2.81,0.45-3.6,1.25a5.65,5.65,0,0,0,2-.31,17.14,17.14,0,0,1,2.6-.18,19.8,19.8,0,0,1,4.74.65,28.25,28.25,0,0,1,8.12,3.64,36.37,36.37,0,0,1,3.52,2.5c1.2,1,.68,3.15.68,4.56,0,0.75,0,1.51,0,2.26a1.9,1.9,0,0,1-.71,1.63,1.11,1.11,0,0,0-.4.68c0,0.3.27,0.49,0.25,0.75s-0.28.54-.31,0.79a5.32,5.32,0,0,1-.11,1.22c-0.37-.52-0.7-1.33-1.4-1.37a11.16,11.16,0,0,0-2.89.78c-1.9.53-3.81,1-5.7,1.57-0.78.22-.85,0.3-0.78,1.11,0.09,1,.18,1.92.28,2.89,0.2,1.92.42,3.83,0.64,5.74,0.89,8,1.75,15.91,2.63,23.87a5.45,5.45,0,0,1-1,.08c-0.58-.08-0.23.08-0.39-0.37a2.85,2.85,0,0,1-.06-0.59L600,229.7q-0.29-2.66-.57-5.31-0.56-5.33-1.17-10.65t-1.16-10.65c-0.16-1.57-.1-3.21-1.06-4.53a13.83,13.83,0,0,0-3-3,15.19,15.19,0,0,0-3.88-2.11,13.77,13.77,0,0,0-2.27-.55c-0.41-.07-1.48-0.43-1.84-0.16s0,1.11,0,1.42c0.09,0.89.17,1.78,0.27,2.67,0.08,0.73.18,1.45,0.2,2.17a1.77,1.77,0,0,0,.45,1.55,3.12,3.12,0,0,0,1.77.24c0.89,0,1.78.06,2.66,0.1a43.14,43.14,0,0,1,5.14.2c0.66,0.11.71,0.4,0.79,1,0.1,0.88.19,1.77,0.29,2.65,0.18,1.65.37,3.3,0.54,5,0.42,4,.83,8,1.27,12.07s1,7.77,1.3,11.67l-6.51.48-3.21.23a5.71,5.71,0,0,1-1.73.12,3.28,3.28,0,0,1-.33-1.63h0ZM484.83,195.95c1.72,0.11,3.44.12,5.16,0.1l2.49,0a5.88,5.88,0,0,1,2.17.1c1.07,0.46.77,2.72,0.83,3.64,0.11,1.77.2,3.54,0.3,5.31,0.4,7.11.76,14.23,1.27,21.33,0.25,3.48.45,7,.67,10.46a10,10,0,0,1,0,1.12c0,0.54,0,.73-0.53.75s-0.45-.07-0.48-0.57l-0.11-1.57q-0.18-2.65-.35-5.3c-0.43-6.91-.78-13.83-1.22-20.75-0.22-3.49-.43-7-0.62-10.46a12.06,12.06,0,0,0-.13-2.44c-0.2-.7-0.89-0.51-1.53-0.53l-5.18-.11a6.21,6.21,0,0,0-2.13,0c-0.73.46,1,.41,1.17,0.41h5.19c1.1,0,1.76-.21,1.85,1,0.14,1.8.16,3.61,0.27,5.41,0.44,7,.82,14,1.26,21.07,0.22,3.55.4,7.11,0.66,10.67,0.06,0.82.12,1.64,0.14,2.47,0,0.64.09,0.76-.57,0.78l-1.35,0-5.26.16-1.38,0a3.74,3.74,0,0,1-1.18,0,4.44,4.44,0,0,1-.08-1.33q0-.68-0.09-1.36c-0.11-1.75-.2-3.51-0.28-5.27q-0.24-5.3-.5-10.59c-0.34-7-.71-14-1-20.95,0-.74-0.72-3.7.55-3.62h0Zm-59.86.81c0-1.41.85-2,2-2.57q2.17-1.08,4.43-1.95a52.79,52.79,0,0,1,8.84-2.54A50.65,50.65,0,0,1,469,192.2c1.52,0.6,3,1.27,4.49,2,1,0.49,2.93,1.08,3.45,2.14a4.75,4.75,0,0,1,.14,1.9c0,0.91.12,1.82,0.16,2.73,0.08,1.7.09,3.41,0.17,5.12,0.15,3.44.31,6.87,0.42,10.31,0.26,7.63.67,15.27,1.11,22.89q-18.29.47-36.59,0.73l-9.7.13-4.34,0c-0.39,0-2.13.27-2.38,0s-0.12-1.68-.14-2.08c-0.16-3.19-.19-6.36-0.23-9.55s-0.25-6.49-.28-9.74c-0.06-7.35-.43-14.71-0.31-22.06h0Zm-62.49,18.4c0-4.22.16-8.43,0.23-12.64,0-2-.09-4.1,0-6.13,0.07-1.72,2.45-2.52,3.79-3.17a51.33,51.33,0,0,1,21.93-5.08,58.86,58.86,0,0,1,22.38,4.38,46.65,46.65,0,0,1,5.25,2.4c1.6,0.89,1.2,2.71,1.2,4.3,0,4.25,0,8.5,0,12.75,0,4.78.2,9.56,0.23,14.35s-0.27,9.34,0,14q-21.56.16-43.12,0.07l-12.05-.07c0.08-3.71,0-7.43,0-11.15,0.07-4.66.2-9.31,0.18-14C362.45,209,362.51,222.5,362.48,215.15Zm-61,10.39q0.56-10.11,1.08-20.23c0.08-1.68.17-3.36,0.22-5,0-1.32-.16-3.31.63-4.45a4.16,4.16,0,0,1,1.51-1.07c0.71-.4,1.42-0.81,2.16-1.16,1.43-.69,2.92-1.28,4.41-1.83a50.6,50.6,0,0,1,36.11.29q2.15,0.85,4.22,1.88c1,0.52,2.53,1,2.86,2.27s0,3.1,0,4.49c0,1.68,0,3.36-.06,5-0.14,6.73-.17,13.47-0.33,20.2-0.08,3.42-.2,6.84-0.2,10.25,0,1.17.1,2.41,0,3.53-0.06.64-.28,0.48-0.85,0.47H352l-2.56,0q-9.9-.11-19.79-0.27-9.43-.16-18.86-0.37l-9.17-.22a0.87,0.87,0,0,1-.87-0.2,3,3,0,0,1,0-1.08c0.06-.84.16-1.67,0.19-2.51,0.07-1.62.11-3.25,0.19-4.87s0.18-3.39.28-5.08h0Zm-19.25,12.1c0-3.32.39-6.69,0.59-10s0.4-6.52.6-9.78c0.42-6.58.79-13.16,1.2-19.74,0-.73-0.17-2,0.72-2.24a7.52,7.52,0,0,1,1.8,0h2.51c1.67,0,3.35,0,5,0,1.06,0,1.28.09,1.27,1.17,0,3.35-.28,6.69-0.47,10s-0.22,6.41-.46,9.61c-0.28,3.75-.39,7.51-0.59,11.27-0.1,1.92-.18,3.83-0.27,5.75a50.46,50.46,0,0,0-.28,5.4l-5.85-.17-2.89-.09a4.69,4.69,0,0,1-1.34,0,4.1,4.1,0,0,1,.08-1.36c0.29-3.89.56-7.78,0.79-11.67,0.47-7.8,1.09-15.6,1.55-23.4q0.08-1.35.16-2.71c0-.48-0.12-1.67.23-2.08s1.25-.17,1.63-0.17h5.95c0.6,0,.91-0.37.17-0.48a17.05,17.05,0,0,0-2.49,0l-3,0c-0.74,0-2.6-.36-3.06.44a4.71,4.71,0,0,0-.18,1.73L285.41,202q-0.37,5.89-.68,11.78c-0.24,4.32-.52,8.65-0.81,13q-0.22,3.31-.41,6.62c-0.06,1.1-.12,2.2-0.2,3.3,0,0.52-.07,1-0.12,1.55a2.77,2.77,0,0,1-.06.55,3.21,3.21,0,0,1-1,0,4.17,4.17,0,0,0,.1-1.09h0ZM164.5,221.1c1.17-9,2.26-18.06,3.36-27.1,0.28-2.28.4-4.64,0.82-6.89,0.3-1.63,2.5-2.85,3.77-3.77a24.35,24.35,0,0,1,9.37-4.32,16.4,16.4,0,0,1,10.75,1.23,16.1,16.1,0,0,1,4.3,3.06,2.44,2.44,0,0,1,.47,2.25q-0.18,1.77-.37,3.53-1.42,13.48-2.88,27c-0.55,5.09-1.07,10.17-1.62,15.26-0.07.69,0,2.77-.63,3a6.84,6.84,0,0,1-2-.14l-1.75-.12-7.47-.54c0.57-3.61.82-7.3,1.2-10.94s0.77-7.18,1.17-10.76q0.3-2.7.57-5.39c0.09-.84.17-1.68,0.26-2.52a5.11,5.11,0,0,1,.27-1.87c0.48-.73,2.47-0.4,3.19-0.42,1.79-.07,3.59-0.16,5.38-0.26,0.51,0,1.43.12,1.81-.29s0.31-1.8.37-2.38a43.3,43.3,0,0,0,.48-4.73c0-1-.94-0.56-1.65-0.45a14.58,14.58,0,0,0-3.93,1.15,13.71,13.71,0,0,0-6,5.25,5.65,5.65,0,0,0-.4,2.14c-0.11,1-.21,2-0.31,3-0.19,1.85-.39,3.69-0.59,5.54-0.44,4.06-.93,8.12-1.37,12.18q-0.34,3.12-.66,6.23c-0.1,1-.2,1.93-0.31,2.89a4.87,4.87,0,0,1-.19,1.46c-0.21.31-.93,0.11-1.39,0.08,0.65-5.77,1.26-11.54,1.92-17.3q0.48-4.19,1-8.38c0.15-1.4.31-2.8,0.46-4.2,0.07-.64.56-2.35,0.07-2.88a2.77,2.77,0,0,0-1.13-.39l-1.87-.52-4.5-1.25c-0.69-.19-1.9-0.83-2.53-0.35a2.23,2.23,0,0,1-.66.75,2.88,2.88,0,0,1-.36-1.51,3.22,3.22,0,0,0,.09-1.24,7.54,7.54,0,0,0-.89-1.09,3.15,3.15,0,0,1-.12-1.45q0-1.13,0-2.26t0-2.26a2.72,2.72,0,0,1,.17-1.44,4.37,4.37,0,0,1,1.19-1q1-.75,2-1.45a30.42,30.42,0,0,1,7.9-3.87,22.73,22.73,0,0,1,9-.68,6.67,6.67,0,0,0-3.09-.81,15.25,15.25,0,0,0-3.59,0,20.1,20.1,0,0,0-6.06,1.82,29.55,29.55,0,0,0-5,3.06,16.34,16.34,0,0,0-2.32,1.85c-0.61.66-.5,1.89-0.61,2.74-1.18,9.34-2.3,18.7-3.48,28q-0.5,4-1,7.93l-0.46,3.88-0.26,2.13a2.2,2.2,0,0,1-.09.78,1.22,1.22,0,0,1-1.13.1c0.46-3.67.87-7.35,1.35-11h0Z" transform="translate(-54.7 -65.63)" style="fill:#fff"/><path d="M54.71,463.65H724.24a2.5,2.5,0,0,0,.76,0,0.93,0.93,0,0,0,.16,0,2.37,2.37,0,0,0,0-1,4,4,0,0,0-1.27,0H55.58C54.61,462.65,54.71,462.45,54.71,463.65Z" transform="translate(-54.7 -65.63)" style="fill:#fff"/><path d="M54.71,471H724.24a2.5,2.5,0,0,0,.76,0,0.93,0.93,0,0,0,.16,0,2.37,2.37,0,0,0,0-1,4,4,0,0,0-1.27,0H55.58C54.61,470,54.71,469.79,54.71,471Z" transform="translate(-54.7 -65.63)" style="fill:#fff"/><path d="M73.24,508.47a22.79,22.79,0,0,0-5.31-6.07c-2.15-1.83-4.4-3.66-5.38-6.42-0.73-2.06-.68-5.79,1.93-6.53,3-.84,4.33,2.24,4.58,4.64l2.85-.52,1.81-.33a3.29,3.29,0,0,0,1-.19,3.77,3.77,0,0,0-.19-1.43,11.45,11.45,0,0,0-.5-1.8,9.35,9.35,0,0,0-1.86-3.1,8.91,8.91,0,0,0-5.67-2.67c-4.39-.47-8.54,1.58-10,5.92s-0.05,9,2.94,12.42c1.59,1.83,3.43,3.45,5.19,5.12,1.53,1.44,3.19,2.82,4,4.85a5.2,5.2,0,0,1-.95,5.55,3.37,3.37,0,0,1-5.13-.45,7,7,0,0,1-1.11-2.37c-0.15-.53-0.21-2.11-0.56-2.27a3.8,3.8,0,0,0-1.27.09l-2.2.16a10.91,10.91,0,0,0-1.65.12,1.42,1.42,0,0,0-.37,0,3.63,3.63,0,0,0,.1,1.44,12.93,12.93,0,0,0,2.58,6.44,10.14,10.14,0,0,0,13.52,1.39,9.89,9.89,0,0,0,3.29-6.25,12,12,0,0,0-1.66-7.78h0Z" transform="translate(-54.7 -65.63)" style="fill:#fff"/><path d="M81.65,523.91H97.84c0.91,0,.74,0,0.74-1v-2.61a8.18,8.18,0,0,0,0-2.1c-0.12-.39.11-0.19-0.29-0.29a7.14,7.14,0,0,0-1.62,0H89.13a4.3,4.3,0,0,1-1.39,0c-0.34-.18-0.14-1.51-0.14-1.95v-7.52a3.76,3.76,0,0,1,0-1.23c0.25-.32,2.31-0.06,2.75-0.06,1.6,0,3.2,0,4.8,0,0.38,0,.35.07,0.47-0.17a6.33,6.33,0,0,0,0-2v-2.65a3.35,3.35,0,0,0,0-1.13,4,4,0,0,0-1.21,0H89.28a4.65,4.65,0,0,1-1.56,0c-0.34-.21-0.13-1.73-0.13-2.19v-7.47a3.21,3.21,0,0,1,0-1.06c0.24-.28,2.09,0,2.47,0h7.44a3.25,3.25,0,0,0,1,0,2.65,2.65,0,0,0,0-1v-2.61a8,8,0,0,0,0-2.15c-0.12-.35.09-0.12-0.19-0.25a3.78,3.78,0,0,0-1.15,0H83a3.66,3.66,0,0,0-1.15,0c-0.26.13-.19,0.07-0.19,0.49v39Z" transform="translate(-54.7 -65.63)" style="fill:#fff"/><path d="M116.37,515.22l-2.24-13.89L112.47,491l-0.63-3.91a16.14,16.14,0,0,0-.36-2.25,1.21,1.21,0,0,0-.06-0.36,5.12,5.12,0,0,0-1.67,0h-4.56L108,500.2l3.87,21.62a6.13,6.13,0,0,0,.35,2c0.3,0.38,2,.12,2.56.12h3.1a8.55,8.55,0,0,0,2.29,0c0.4-.14.31-0.32,0.4-0.83l3.61-19.86,2.13-11.7,0.78-4.29a12.6,12.6,0,0,0,.44-2.42,1.67,1.67,0,0,1,.06-0.32h-3.91c-0.49,0-2.06-.24-2.35.11a5.33,5.33,0,0,0-.28,1.75l-0.58,3.55-3.24,20Z" transform="translate(-54.7 -65.63)" style="fill:#fff"/><path d="M134.2,523.91h16.19c0.91,0,.74,0,0.74-1v-2.61a8.18,8.18,0,0,0,0-2.1c-0.12-.39.11-0.19-0.29-0.29a7.14,7.14,0,0,0-1.62,0h-7.54a4.3,4.3,0,0,1-1.39,0c-0.34-.18-0.14-1.51-0.14-1.95v-7.52a3.76,3.76,0,0,1,0-1.23c0.25-.32,2.31-0.06,2.75-0.06,1.6,0,3.2,0,4.8,0,0.38,0,.35.07,0.47-0.17a6.33,6.33,0,0,0,0-2v-2.65a3.35,3.35,0,0,0,0-1.13,4,4,0,0,0-1.21,0h-5.12a4.65,4.65,0,0,1-1.56,0c-0.34-.21-0.13-1.73-0.13-2.19v-7.47a3.21,3.21,0,0,1,0-1.06c0.24-.28,2.09,0,2.47,0h7.44a3.25,3.25,0,0,0,1,0,2.65,2.65,0,0,0,0-1v-2.61a8,8,0,0,0,0-2.15c-0.12-.35.09-0.12-0.19-0.25a3.78,3.78,0,0,0-1.15,0H135.55a3.66,3.66,0,0,0-1.15,0c-0.26.13-.19,0.07-0.19,0.49v39Z" transform="translate(-54.7 -65.63)" style="fill:#fff"/><path d="M172.3,511l-6.59-22.15c-0.39-1.3-.67-2.71-1.18-4a0.49,0.49,0,0,0-.23-0.39,3.21,3.21,0,0,0-1,0h-1.79c-1.09,0-2.2-.06-3.29,0-0.41,0-.32-0.07-0.44.16a3.05,3.05,0,0,0,0,1v34.86a14,14,0,0,0,0,3.17c0.08,0.29-.08.18,0.13,0.29a3.31,3.31,0,0,0,1.07,0h3.62a3.37,3.37,0,0,0,1.07,0,1,1,0,0,0,.05-0.57V498.65l7.08,21.87,0.69,2.14a3.86,3.86,0,0,0,.37,1.15,1.62,1.62,0,0,0,1,.1h3.55a6,6,0,0,0,1.84,0,1.72,1.72,0,0,0,0-.56V486.82c0-.35.25-2,0-2.32a3.63,3.63,0,0,0-1.37,0h-3.53a1.68,1.68,0,0,0-1,.1,3.43,3.43,0,0,0,0,1.14V511Z" transform="translate(-54.7 -65.63)" style="fill:#fff"/><path d="M184.87,490.47h4.68a4.48,4.48,0,0,1,1.45,0c0.28,0.13.13,0,.19,0.39a11.78,11.78,0,0,1,0,1.63v30.7a2.26,2.26,0,0,0,0,.72,2.33,2.33,0,0,0,.75,0h3.83a3.76,3.76,0,0,0,1.29,0c0.29-.23.08-1.87,0.08-2.28V492.86c0-.37-0.25-2.12,0-2.39a3.34,3.34,0,0,1,1,0H202a4.09,4.09,0,0,0,1.34,0c0.31-.21.12-1.47,0.12-1.91v-2.15a6.66,6.66,0,0,0,0-1.62c-0.12-.4-0.07-0.29-0.59-0.29H185.75a1.59,1.59,0,0,0-.89.08,3.39,3.39,0,0,0,0,1.13v4.77Z" transform="translate(-54.7 -65.63)" style="fill:#fff"/><path d="M223.16,501.23h-4.95a6.67,6.67,0,0,1-2.16,0,0.92,0.92,0,0,1-.06-0.57V489.37a26.89,26.89,0,0,0,0-4.52c-0.08-.44.12-0.25-0.29-0.36a11.62,11.62,0,0,0-2.78,0c-0.59,0-2.64-.3-2.87.17a7.38,7.38,0,0,0,0,2.33v34.14a9.53,9.53,0,0,0,0,2.52,0.44,0.44,0,0,0,.05.26c0.29,0.25,1.94,0,2.33,0h3c0.46,0,.42.08,0.56-0.19a4.83,4.83,0,0,0,0-1.52V508a2.39,2.39,0,0,1,0-.78,5.55,5.55,0,0,1,1.77,0h3.18a6.6,6.6,0,0,1,2.16,0c0.3,0.25.06,2.11,0.06,2.54v12.13a8.71,8.71,0,0,0,0,1.71c0.09,0.43-.12.2,0.29,0.33a10.74,10.74,0,0,0,2.78,0h1.51a3.77,3.77,0,0,0,1.16,0c0.35-.16.2-0.58,0.2-1.06V485.7a2.44,2.44,0,0,0-.08-1.21,2.46,2.46,0,0,0-.82,0h-4.56c-0.48,0-.37-0.08-0.5.22a5.27,5.27,0,0,0,0,1.56v15Z" transform="translate(-54.7 -65.63)" style="fill:#fff"/><path d="M235.72,507.21h15.47a12.28,12.28,0,0,0,1.77,0c0.46-.07.24,0.11,0.37-0.29a10.54,10.54,0,0,0,0-2.8v-1.68a3.31,3.31,0,0,0,0-1.08c-0.2-.36-1.88-0.13-2.35-0.13H236.26c-0.48,0-.43-0.1-0.54.25a5.24,5.24,0,0,0,0,1.39v4.34Z" transform="translate(-54.7 -65.63)" style="fill:#fff"/><path d="M269.29,484.46h-7.46a5.52,5.52,0,0,0-1.82,0,2.39,2.39,0,0,0-.07,1.13V522.7a2.92,2.92,0,0,0,0,1.21,5.5,5.5,0,0,0,1.76,0h3.06c1.49,0,3,0,4.47,0a9.46,9.46,0,0,0,8.28-5c1.55-2.89,1.07-6.66,1.07-9.84V496.69c0-.94,0-1.87,0-2.81a9.56,9.56,0,0,0-4.54-8.11A9.13,9.13,0,0,0,269.29,484.46Zm3.55,30.14a3.46,3.46,0,0,1-3.58,3.43h-1.88a5.28,5.28,0,0,1-1.48,0,2.37,2.37,0,0,1,0-.83v-25a4.78,4.78,0,0,1,0-1.51c0.18-.35,1.26-0.15,1.69-0.15,1.41,0,2.89-.19,4,0.8a3.72,3.72,0,0,1,1.22,3c0,1.93,0,3.86,0,5.78v14.5Z" transform="translate(-54.7 -65.63)" style="fill:#fff"/><path d="M291.95,484.49l-2.26,13.31L286.08,519l-0.83,4.88H289a8.91,8.91,0,0,0,2.13,0c0.38-.11.17,0.09,0.32-0.3a8.49,8.49,0,0,0,.27-1.71l0.4-2.52,0.4-2.52a6.92,6.92,0,0,1,.28-1.75c0.17-.35-0.07-0.17.37-0.26a10.76,10.76,0,0,1,2.09,0h2.55a4,4,0,0,1,1.24,0,3,3,0,0,1,.15,1l0.34,2.2,0.75,4.86a3.13,3.13,0,0,0,.17,1,5.17,5.17,0,0,0,1.67,0h4.57l-3-17.94-2.23-13.3-0.83-4.93a26.14,26.14,0,0,0-.48-2.87,1,1,0,0,0-.09-0.39,2.45,2.45,0,0,0-.78,0h-7.38Zm1.86,24.57,2.2-15.54,2.2,15.54h-4.4Z" transform="translate(-54.7 -65.63)" style="fill:#fff"/><path d="M320.44,498.62l-2.61-8.4-1.5-4.83a2.9,2.9,0,0,0-.29-0.92,3.59,3.59,0,0,0-1.25,0H309.5l6.29,18.12,1.35,3.9a4.45,4.45,0,0,1,.32,1.22c0.22,3.41,0,6.91,0,10.32v5a2.73,2.73,0,0,0,0,.89,4.45,4.45,0,0,0,1.45,0H322a4.06,4.06,0,0,0,1.37,0,2.9,2.9,0,0,0,0-.93v-13.7a10.38,10.38,0,0,1,0-2,20.17,20.17,0,0,1,.88-2.53L331.22,485l0.17-.5h-4.54a6,6,0,0,0-2,0,1.07,1.07,0,0,0-.21.53l-3.14,10.18Z" transform="translate(-54.7 -65.63)" style="fill:#fff"/><path d="M355.17,484.49l-2.26,13.31L349.3,519l-0.83,4.88h3.78a8.91,8.91,0,0,0,2.13,0c0.38-.11.17,0.09,0.32-0.3a8.49,8.49,0,0,0,.27-1.71l0.4-2.52,0.4-2.52a6.92,6.92,0,0,1,.28-1.75c0.17-.35-0.07-0.17.37-0.26a10.76,10.76,0,0,1,2.09,0h2.55a4,4,0,0,1,1.24,0,3,3,0,0,1,.15,1l0.34,2.2,0.75,4.86a3.13,3.13,0,0,0,.17,1,5.17,5.17,0,0,0,1.67,0H370l-3-17.94-2.23-13.3-0.83-4.93a26.14,26.14,0,0,0-.48-2.87,1,1,0,0,0-.09-0.39,2.45,2.45,0,0,0-.78,0h-7.38ZM357,509.06l2.2-15.54,2.2,15.54H357Z" transform="translate(-54.7 -65.63)" style="fill:#fff"/><path d="M385.91,484.46h-7.46a5.52,5.52,0,0,0-1.82,0,2.39,2.39,0,0,0-.07,1.13V522.7a2.92,2.92,0,0,0,0,1.21,5.5,5.5,0,0,0,1.76,0h3.06c1.49,0,3,0,4.47,0a9.46,9.46,0,0,0,8.28-5c1.55-2.89,1.07-6.66,1.07-9.84V496.69c0-.94,0-1.87,0-2.81a9.56,9.56,0,0,0-4.54-8.11A9.13,9.13,0,0,0,385.91,484.46Zm3.55,30.14a3.46,3.46,0,0,1-3.58,3.43H384a5.28,5.28,0,0,1-1.48,0,2.37,2.37,0,0,1,0-.83v-25a4.78,4.78,0,0,1,0-1.51c0.18-.35,1.26-0.15,1.69-0.15,1.41,0,2.89-.19,4,0.8a3.72,3.72,0,0,1,1.22,3c0,1.93,0,3.86,0,5.78v14.5Z" transform="translate(-54.7 -65.63)" style="fill:#fff"/><path d="M413,515.22l-2.24-13.89L409.15,491l-0.63-3.91a16.14,16.14,0,0,0-.36-2.25,1.21,1.21,0,0,0-.06-0.36,5.12,5.12,0,0,0-1.67,0h-4.56l2.81,15.71,3.87,21.62a6.13,6.13,0,0,0,.35,2c0.3,0.38,2,.12,2.56.12h3.1a8.55,8.55,0,0,0,2.29,0c0.4-.14.31-0.32,0.4-0.83l3.61-19.86,2.13-11.7,0.78-4.29a12.6,12.6,0,0,0,.44-2.42,1.67,1.67,0,0,1,.06-0.32h-3.91c-0.49,0-2.06-.24-2.35.11a5.33,5.33,0,0,0-.28,1.75l-0.58,3.55-3.24,20Z" transform="translate(-54.7 -65.63)" style="fill:#fff"/><path d="M430.88,523.91h16.19c0.91,0,.74,0,0.74-1v-2.61a8.18,8.18,0,0,0,0-2.1c-0.12-.39.11-0.19-0.29-0.29a7.14,7.14,0,0,0-1.62,0h-7.54a4.3,4.3,0,0,1-1.39,0c-0.34-.18-0.14-1.51-0.14-1.95v-7.52a3.76,3.76,0,0,1,0-1.23c0.25-.32,2.31-0.06,2.75-0.06,1.6,0,3.2,0,4.8,0,0.38,0,.35.07,0.47-0.17a6.33,6.33,0,0,0,0-2v-2.65a3.35,3.35,0,0,0,0-1.13,4,4,0,0,0-1.21,0h-5.12a4.65,4.65,0,0,1-1.56,0c-0.34-.21-0.13-1.73-0.13-2.19v-7.47a3.21,3.21,0,0,1,0-1.06c0.24-.28,2.09,0,2.47,0h7.44a3.25,3.25,0,0,0,1,0,2.65,2.65,0,0,0,0-1v-2.61a8,8,0,0,0,0-2.15c-0.12-.35.09-0.12-0.19-0.25a3.78,3.78,0,0,0-1.15,0H432.23a3.66,3.66,0,0,0-1.15,0c-0.26.13-.19,0.07-0.19,0.49v39Z" transform="translate(-54.7 -65.63)" style="fill:#fff"/><path d="M469,511l-6.59-22.15c-0.39-1.3-.67-2.71-1.18-4a0.49,0.49,0,0,0-.23-0.39,3.21,3.21,0,0,0-1,0h-1.79c-1.09,0-2.2-.06-3.29,0-0.41,0-.32-0.07-0.44.16a3.05,3.05,0,0,0,0,1v34.86a14,14,0,0,0,0,3.17c0.08,0.29-.08.18,0.13,0.29a3.31,3.31,0,0,0,1.07,0h3.62a3.37,3.37,0,0,0,1.07,0,1,1,0,0,0,.05-0.57V498.65l7.08,21.87,0.69,2.14a3.86,3.86,0,0,0,.37,1.15,1.62,1.62,0,0,0,1,.1h3.55a6,6,0,0,0,1.84,0,1.72,1.72,0,0,0,0-.56V486.82c0-.35.25-2,0-2.32a3.63,3.63,0,0,0-1.37,0H470a1.68,1.68,0,0,0-1,.1,3.43,3.43,0,0,0,0,1.14V511Z" transform="translate(-54.7 -65.63)" style="fill:#fff"/><path d="M481.55,490.47h4.68a4.48,4.48,0,0,1,1.45,0c0.28,0.13.13,0,.19,0.39a11.78,11.78,0,0,1,0,1.63v30.7a2.26,2.26,0,0,0,0,.72,2.33,2.33,0,0,0,.75,0h3.83a3.76,3.76,0,0,0,1.29,0c0.29-.23.08-1.87,0.08-2.28V492.86c0-.37-0.25-2.12,0-2.39a3.34,3.34,0,0,1,1,0h3.85a4.09,4.09,0,0,0,1.34,0c0.31-.21.12-1.47,0.12-1.91v-2.15a6.66,6.66,0,0,0,0-1.62c-0.12-.4-0.07-0.29-0.59-0.29H482.43a1.59,1.59,0,0,0-.89.08,3.39,3.39,0,0,0,0,1.13v4.77Z" transform="translate(-54.7 -65.63)" style="fill:#fff"/><path d="M506.72,523.91h5c0.9,0,1,.2,1-0.62V486.6a6,6,0,0,0,0-2,0.63,0.63,0,0,0-.56-0.08h-4.34a2.88,2.88,0,0,0-1,0c-0.12.09,0,.06-0.08,0.24a8.61,8.61,0,0,0,0,2.37v36.81Z" transform="translate(-54.7 -65.63)" style="fill:#fff"/><path d="M537.15,508.47a22.79,22.79,0,0,0-5.31-6.07c-2.15-1.83-4.4-3.66-5.38-6.42-0.73-2.06-.68-5.79,1.93-6.53,3-.84,4.33,2.24,4.58,4.64l2.85-.52,1.81-.33a3.29,3.29,0,0,0,1-.19,3.77,3.77,0,0,0-.19-1.43,11.44,11.44,0,0,0-.5-1.8,9.35,9.35,0,0,0-1.86-3.1,8.91,8.91,0,0,0-5.67-2.67c-4.39-.47-8.54,1.58-10,5.92s-0.05,9,2.94,12.42c1.59,1.83,3.43,3.45,5.19,5.12,1.52,1.44,3.19,2.82,4,4.85a5.2,5.2,0,0,1-.95,5.55,3.37,3.37,0,0,1-5.13-.45,7,7,0,0,1-1.11-2.37c-0.15-.53-0.21-2.11-0.56-2.27a3.8,3.8,0,0,0-1.27.09l-2.2.16a10.91,10.91,0,0,0-1.65.12,1.42,1.42,0,0,0-.37,0,3.63,3.63,0,0,0,.1,1.44A12.93,12.93,0,0,0,522,521.1a10.13,10.13,0,0,0,13.52,1.39,9.89,9.89,0,0,0,3.29-6.25,12,12,0,0,0-1.66-7.78C536.35,507,537.53,509.14,537.15,508.47Z" transform="translate(-54.7 -65.63)" style="fill:#fff"/><path d="M543.63,490.47h4.68a4.48,4.48,0,0,1,1.45,0c0.28,0.13.13,0,.19,0.39a11.78,11.78,0,0,1,0,1.63v30.7a2.26,2.26,0,0,0,0,.72,2.33,2.33,0,0,0,.75,0h3.83a3.76,3.76,0,0,0,1.29,0c0.29-.23.08-1.87,0.08-2.28V492.86c0-.37-0.25-2.12,0-2.39a3.34,3.34,0,0,1,1,0h3.85a4.09,4.09,0,0,0,1.34,0c0.31-.21.12-1.47,0.12-1.91v-2.15a6.66,6.66,0,0,0,0-1.62c-0.12-.4-0.07-0.29-0.59-0.29H544.52a1.59,1.59,0,0,0-.89.08,3.39,3.39,0,0,0,0,1.13v4.77Z" transform="translate(-54.7 -65.63)" style="fill:#fff"/><path d="M586.78,484.05a9.5,9.5,0,0,0-9.15,7,19.46,19.46,0,0,0-.28,4.71v14.82c0,1.43,0,2.86,0,4.3a9.42,9.42,0,0,0,16.6,6.2c2.11-2.43,2.24-5.25,2.24-8.28v-1.91a4.16,4.16,0,0,0,0-1.35c-0.2-.25-1.46-0.08-1.84-0.08h-3.74c-0.81,0-.59.15-0.59,1,0,2.27.67,5.78-1.48,7.28a3.45,3.45,0,0,1-5.1-1.49,4.8,4.8,0,0,1-.25-1.9V494.6c0-.4,0-0.81,0-1.21a3.41,3.41,0,1,1,6.83,0c0,1,0,2.1,0,3.14a4.16,4.16,0,0,0,0,1.34c0.1,0.15.22,0.09,0.48,0.1H594c0.38,0,1.95.23,2.21,0a3.59,3.59,0,0,0,0-1.08v-2.11a14.37,14.37,0,0,0-.34-3.91,9.56,9.56,0,0,0-3.53-5A9.2,9.2,0,0,0,586.78,484.05Z" transform="translate(-54.7 -65.63)" style="fill:#fff"/><path d="M615.92,501.23H611a6.67,6.67,0,0,1-2.16,0,0.92,0.92,0,0,1-.06-0.57V489.37a26.89,26.89,0,0,0,0-4.52c-0.08-.44.12-0.25-0.29-0.36a11.62,11.62,0,0,0-2.78,0c-0.59,0-2.64-.3-2.87.17a7.38,7.38,0,0,0,0,2.33v34.14a9.53,9.53,0,0,0,0,2.52,0.44,0.44,0,0,0,.05.26c0.29,0.25,1.94,0,2.33,0h3c0.46,0,.42.08,0.56-0.19a4.83,4.83,0,0,0,0-1.52V508a2.39,2.39,0,0,1,0-.78,5.55,5.55,0,0,1,1.77,0h3.18a6.6,6.6,0,0,1,2.16,0c0.3,0.25.06,2.11,0.06,2.54v12.13a8.71,8.71,0,0,0,0,1.71c0.09,0.43-.12.2,0.29,0.33a10.74,10.74,0,0,0,2.78,0h1.51a3.77,3.77,0,0,0,1.16,0c0.35-.16.2-0.58,0.2-1.06V485.7a2.44,2.44,0,0,0-.08-1.21,2.46,2.46,0,0,0-.82,0h-4.56c-0.48,0-.37-0.08-0.5.22a5.27,5.27,0,0,0,0,1.56v15Z" transform="translate(-54.7 -65.63)" style="fill:#fff"/><path d="M641.13,514.91a3.44,3.44,0,0,1-6,2.18,4,4,0,0,1-.79-2.81v-27a15.06,15.06,0,0,0,0-2.4,1.24,1.24,0,0,0,0-.35,3.75,3.75,0,0,0-1.22,0h-2.66a5.58,5.58,0,0,0-1.86,0,1.86,1.86,0,0,0-.08,1v27.34c0,2.63,0,5.17,1.63,7.45a9.59,9.59,0,0,0,14.87.91c2.06-2.28,2.34-5,2.34-7.9V485.88a4.4,4.4,0,0,0,0-1.38,3.42,3.42,0,0,0-1.08,0h-2.51c-0.46,0-2.37-.25-2.61.08a5.47,5.47,0,0,0,0,1.83v28.51Z" transform="translate(-54.7 -65.63)" style="fill:#fff"/><path d="M672.66,499.62c0-4.95.93-11.78-4.54-14.24-2.24-1-4.71-.89-7.11-0.89h-3.84a15.87,15.87,0,0,0-2.89,0c-0.41.08-.2-0.08-0.33,0.17a3.29,3.29,0,0,0,0,1V523a0.76,0.76,0,0,0,1.2.92h3.62a1.28,1.28,0,0,0,1.12-.17,6.13,6.13,0,0,0,0-2V511a5.59,5.59,0,0,1,0-1.84c0.19-.32,1.48-0.12,1.91-0.12s1.84-.18,2.08.12a5.94,5.94,0,0,1,.44,1.82l1.68,6.94,0.84,3.48a11.72,11.72,0,0,0,.53,2.19c0.21,0.43.16,0.32,0.77,0.32h5.74l-2-7.83-1.46-5.69-0.57-2.23a5.21,5.21,0,0,1-.32-1.26,1.37,1.37,0,0,1-.05-0.2,5.17,5.17,0,0,1,1-1,9.74,9.74,0,0,0,.8-1.07A9.28,9.28,0,0,0,672.66,499.62Zm-5.79.13a3.48,3.48,0,0,1-3.72,3.43h-2a4.16,4.16,0,0,1-1.3,0,5.93,5.93,0,0,1,0-2v-8.45a6.77,6.77,0,0,1,0-2.14,3,3,0,0,1,.93,0H663c1.38,0,2.84.2,3.5,1.59,0.55,1.15.35,2.7,0.35,3.95v3.65Z" transform="translate(-54.7 -65.63)" style="fill:#fff"/><path d="M689.93,484.05a9.5,9.5,0,0,0-9.15,7,19.44,19.44,0,0,0-.28,4.71v14.82c0,1.43,0,2.86,0,4.3a9.42,9.42,0,0,0,16.6,6.2c2.11-2.43,2.24-5.25,2.24-8.28v-1.91a4.16,4.16,0,0,0,0-1.35c-0.2-.25-1.46-0.08-1.84-0.08h-3.74c-0.81,0-.59.15-0.59,1,0,2.27.67,5.78-1.47,7.28a3.45,3.45,0,0,1-5.1-1.49,4.8,4.8,0,0,1-.25-1.9V494.6c0-.4,0-0.81,0-1.21a3.41,3.41,0,1,1,6.83,0c0,1,0,2.1,0,3.14a4.16,4.16,0,0,0,0,1.34c0.1,0.15.22,0.09,0.48,0.1h3.48c0.38,0,1.95.23,2.21,0a3.59,3.59,0,0,0,0-1.08v-2.11a14.36,14.36,0,0,0-.34-3.91,9.57,9.57,0,0,0-3.54-5A9.2,9.2,0,0,0,689.93,484.05Z" transform="translate(-54.7 -65.63)" style="fill:#fff"/><path d="M719.07,501.23h-4.95a6.67,6.67,0,0,1-2.16,0,0.92,0.92,0,0,1-.06-0.57V489.37a26.89,26.89,0,0,0,0-4.52c-0.08-.44.12-0.25-0.29-0.36a11.62,11.62,0,0,0-2.78,0c-0.59,0-2.64-.3-2.87.17a7.38,7.38,0,0,0,0,2.33v34.14a9.53,9.53,0,0,0,0,2.52,0.44,0.44,0,0,0,.05.26c0.29,0.25,1.94,0,2.33,0h3c0.46,0,.42.08,0.56-0.19a4.83,4.83,0,0,0,0-1.52V508a2.39,2.39,0,0,1,0-.78,5.55,5.55,0,0,1,1.77,0h3.18a6.6,6.6,0,0,1,2.16,0c0.3,0.25.06,2.11,0.06,2.54v12.13a8.71,8.71,0,0,0,0,1.71c0.09,0.43-.12.2,0.29,0.33a10.74,10.74,0,0,0,2.78,0h1.51a3.77,3.77,0,0,0,1.16,0c0.35-.16.2-0.58,0.2-1.06V485.7a2.44,2.44,0,0,0-.08-1.21,2.46,2.46,0,0,0-.82,0h-4.56c-0.48,0-.37-0.08-0.5.22a5.27,5.27,0,0,0,0,1.56v15Z" transform="translate(-54.7 -65.63)" style="fill:#fff"/><path d="M572.67,486.46c-1.06,0-2.15-2.24-2.67-3,1.08-.57,1.68-2.19.48-3a3.41,3.41,0,0,0-2-.36,7.48,7.48,0,0,0-1.88,0c-0.63.27,0.34,0.35,0.52,0.53a1.68,1.68,0,0,1,.18,1.11c0,0.81,0,1.63,0,2.44,0,0.3,0,.6,0,0.9a3.23,3.23,0,0,1,0,.8,1.21,1.21,0,0,1-.54.59c-0.35.47,0.32,0.29,0.7,0.27s0.88,0.06,1.3,0c0.17,0,.48.13,0.52-0.13s-0.59-.22-0.66-0.26a1.2,1.2,0,0,1-.4-1.25c0-.66-0.32-1.47.51-1.4s1.11,1,1.51,1.62a3.88,3.88,0,0,0,1,1.21,1.51,1.51,0,0,0,1.13.25C572.48,486.8,573.11,486.49,572.67,486.46ZM569,483.26a0.9,0.9,0,0,1-.78-0.16,1.51,1.51,0,0,1,0-.61,6.19,6.19,0,0,1,0-1.49c0.27-.93,1.66-0.19,2,0.46A1.22,1.22,0,0,1,569,483.26Z" transform="translate(-54.7 -65.63)" style="fill:#fff"/><path d="M569.28,477.75a5.73,5.73,0,1,0,5.73,5.73A5.75,5.75,0,0,0,569.28,477.75Zm3.6,9.34a5.1,5.1,0,1,1,0-7.22,5.12,5.12,0,0,1,0,7.22h0Z" transform="translate(-54.7 -65.63)" style="fill:#fff"/><path d="M110.23,442.48c-15,0-33.47-3.83-41.49-18a29.13,29.13,0,0,1-3.62-12.64c-0.06-1.11-.08-2.22-0.08-3.33a4.11,4.11,0,0,0-.37-2.35c-0.8-1.11-2.73-.72-3.37.34-0.77,1.29-.74,3-0.87,4.46s-0.28,3-.41,4.44c-0.39,4.45-.69,8.9-0.85,13.36-0.09,2.71-.14,5.42-0.11,8.13a15.6,15.6,0,0,0,.48,4.77c1,2.93,5.13,3.81,7.66,4.68,10,3.44,20.63,4.86,31.18,5.21,19.89,0.65,41.69-2.34,57.64-15.22,10.44-8.43,17.73-21.19,18.21-34.76A48.67,48.67,0,0,0,172.35,386a47,47,0,0,0-7.85-15c-9.56-12.53-23.18-21.63-36.25-30.09-5.9-3.82-11.84-7.59-17.6-11.63C104.59,325,98.48,320.54,93.5,315a29.19,29.19,0,0,1-7.08-12.64,27.89,27.89,0,0,1,1.37-17.24c2.8-6.45,8.31-11.21,14.62-14.1,7.76-3.54,16.32-4.29,24.75-3.9,7.47,0.34,15.12,1.5,22,4.59a27.09,27.09,0,0,1,9.49,6.7c3.43,4,4.36,9.55,5.25,14.56,0.25,1.4,1,3.19,2.82,2.55,1.31-.46,1.42-2.47,1.51-3.6,0.2-2.64.07-5.31,0.12-8q0.06-3.44.21-6.89c0.13-3.13.33-6.26,0.6-9.38,0.11-1.27.35-2.58,0.34-3.86,0-1.69-1.64-1.74-3-1.76a39.43,39.43,0,0,1-4-.25c-4.12-.47-8.17-1.38-12.26-2a141.78,141.78,0,0,0-28.46-1.29,86.54,86.54,0,0,0-24.67,4.76c-12.41,4.51-23.75,13-28.46,25.74a42.89,42.89,0,0,0,1.81,32.83A60.34,60.34,0,0,0,82.07,337.7a148.3,148.3,0,0,0,22.42,18.08c9.62,6.55,19.49,12.82,28.6,20.07,5.61,4.46,11.14,9.39,15,15.51A33.3,33.3,0,0,1,153,408a29.34,29.34,0,0,1-4.17,16.41,35,35,0,0,1-14.54,13C126.85,441.07,118.47,442.48,110.23,442.48Z" transform="translate(-54.7 -65.63)" style="fill:#fff"/><path d="M235.87,280.08c0.18-3.09.47-6.44,2-9.21a9.32,9.32,0,0,1,6-4.47,33.63,33.63,0,0,1,5.87-.89c0.93-.08,1.87-0.15,2.81-0.19a4.93,4.93,0,0,0,2.37-.33c1.3-.78.69-2.37-0.5-2.82a12.14,12.14,0,0,0-4.33-.32c-6.15.06-12.29,0.3-18.44,0.51-3.3.12-6.55,0.23-9.84,0.11-7.16-.28-14.33-0.54-21.5-0.61a20.28,20.28,0,0,0-5.52.22c-1.1.31-2.12,1.53-1.16,2.62a3,3,0,0,0,2.3.61c0.91,0,1.82.06,2.73,0.12a32.93,32.93,0,0,1,5,.62c2.78,0.61,5.66,1.58,7.59,3.79s2.45,4.89,2.77,7.57,0.42,5.68.5,8.51c0.27,8.62.21,17.26,0.21,25.88q0,14.81,0,29.61v28.73c0,11.39,0,22.79-.1,34.18-0.08,7-.19,14.06-0.69,21.07a72.76,72.76,0,0,1-1.16,9.21c-0.58,2.85-1.43,6.23-3.92,8a10.94,10.94,0,0,1-4.7,1.51c-1,.18-2,0.32-3,0.43a16.26,16.26,0,0,0-3.06.23,1.54,1.54,0,0,0-.44,2.74c1.34,1,3.72.61,5.24,0.59,9.25-.1,18.46-0.79,27.72-0.7,19,0.17,38,1.3,57,1.44a100.3,100.3,0,0,0,11.7-.28c1.79-.2,3.83-0.51,5.18-1.81a9.89,9.89,0,0,0,2.15-4.47,77.24,77.24,0,0,0,1.89-9.22q0.81-5,1.37-10a41.08,41.08,0,0,0,.43-6.74c-0.06-1.13-.22-2.58-1.68-2.42-1.67.17-1.82,2.16-2,3.46a33.91,33.91,0,0,1-4.15,11.27,18.06,18.06,0,0,1-7.09,7.19,28.57,28.57,0,0,1-9.87,2.83,100.75,100.75,0,0,1-12.31.62c-4.42,0-8.84,0-13.25-.23-5-.26-10.55-0.57-15.2-2.74a10.83,10.83,0,0,1-5.55-5.26,34.28,34.28,0,0,1-2.29-9.85c-0.72-5.73-1-11.52-1.14-17.29-0.34-10.89-.31-21.78-0.31-32.67V342.58q0-14.44,0-28.87c0-9-.06-18.09.2-27.12q0.09-3.26.29-6.51C236.36,271.46,235.38,288,235.87,280.08Z" transform="translate(-54.7 -65.63)" style="fill:#fff"/><path d="M357.11,280.08c0.26-4.61.87-10.32,5.38-12.79,2.36-1.29,5.26-1.6,7.88-1.88,1.09-.12,2.84.19,3.64-0.71a1.58,1.58,0,0,0-.61-2.42,8.58,8.58,0,0,0-3.77-.43c-1.2,0-2.4,0-3.61.05-2.77.06-5.54,0.15-8.32,0.25-3.8.14-7.61,0.42-11.41,0.43-3.64,0-7.3-.28-10.94-0.41-2.88-.1-5.75-0.2-8.63-0.26-1.31,0-2.62-.05-3.94-0.06a13.23,13.23,0,0,0-4,.26,1.7,1.7,0,0,0-1.35,2.08c0.43,1.4,2.41,1.09,3.53,1.16,2.86,0.17,6.1.52,8.67,1.89,4.64,2.47,5.46,8.32,5.75,13,0.26,4.26.35,8.53,0.4,12.8,0.11,9.63.08,19.27,0.08,28.9q0,10.28,0,20.56v24.14q0,10.13,0,20.27c0,12.83.13,25.73-.79,38.53-0.17,2.41-.41,4.81-0.82,7.2-0.47,2.77-1.07,5.72-2.61,8.12s-3.7,3.11-6.38,3.51a47.31,47.31,0,0,1-4.78.38c-0.92,0-2.22.22-2.35,1.35-0.3,2.53,3.86,2.1,5.35,2.09,2.62,0,5.24-.1,7.86-0.18,4.62-.15,9.24-0.35,13.86-0.52,3-.11,5.94.15,8.9,0.25,6.93,0.24,13.86.42,20.79,0.46,1.15,0,6.68.33,5.5-2.39-0.46-1.06-2.11-1-3.05-1.06-1.18,0-2.37-.14-3.55-0.25-5.22-.48-11.37-0.51-14-5.86-2.07-4.17-2.15-9.4-2.45-14-0.38-5.7-.51-11.42-0.6-17.13-0.17-10.92-.14-21.85-0.14-32.77V334.25q0-15.38,0-30.75c0-6,0-12.1.22-18.15q0.09-2.63.25-5.26C357.6,271.46,356.62,288,357.11,280.08Z" transform="translate(-54.7 -65.63)" style="fill:#fff"/><path d="M433.39,283.78A64.44,64.44,0,0,1,464,268.85a102.94,102.94,0,0,1,30.94-.51c9.47,1.19,19,3.72,27.34,8.49a39.82,39.82,0,0,1,8.28,6.13,24.85,24.85,0,0,1,5.83,9.24,42.26,42.26,0,0,1,2.09,7.87c0.34,2,.18,4.42.89,6.36,0.55,1.51,2.25,1.18,2.75-.17a9.64,9.64,0,0,0,.38-3.11c0-1.63,0-3.25,0-4.88,0.06-8.25.3-16.51,1-24.73,0.15-1.69.36-3.38,0.47-5.07a4,4,0,0,0-.2-2.23c-0.53-.92-1.77-1.11-2.73-1.18-1.32-.09-2.63-0.16-3.95-0.27-9-.8-17.74-3.18-26.67-4.53a156.59,156.59,0,0,0-33-1.52,105.38,105.38,0,0,0-32.07,6.61,77.18,77.18,0,0,0-25.54,16.19,86,86,0,0,0-15.81,21,102.34,102.34,0,0,0-10.21,28.77,118.14,118.14,0,0,0-1.6,35.67,109.38,109.38,0,0,0,8.9,32.89,83.26,83.26,0,0,0,15.39,23.59,86.37,86.37,0,0,0,26.55,18.49A106,106,0,0,0,470.58,450,138,138,0,0,0,493,451.59a114.66,114.66,0,0,0,30.14-4.22,74.29,74.29,0,0,0,15.3-6c2-1.1,3.59-2,4-4.41,0.58-3.25.36-6.72,0.36-10q0-3.06,0-6.11V402.15c0-8.14-.06-16.28.27-24.41,0.18-4.39,0-9.49,2.19-13.48,2-3.68,5.95-4.42,9.78-4.92,0.94-.12,2.22.07,3.08-0.35a1.57,1.57,0,0,0,.6-2.28c-1-1.48-3.91-1-5.41-1-4.38.07-8.76,0.25-13.14,0.44-2.39.1-4.8,0.34-7.19,0.27-3.55-.09-7.09-0.3-10.64-0.42q-4-.14-7.91-0.23a56.32,56.32,0,0,0-7.79,0,2.41,2.41,0,0,0-2.1,1.12,1.55,1.55,0,0,0,1.05,2.19,17.8,17.8,0,0,0,3.32.18,36.81,36.81,0,0,1,3.7.39,15.85,15.85,0,0,1,7.14,3,10.14,10.14,0,0,1,3.22,5.89c1.33,6,1,12.39,1,18.5v35.15c0,4.73.59,10.14-3.84,13.22-3.94,2.74-9,3.82-13.68,4.57A79.77,79.77,0,0,1,491,441a77.06,77.06,0,0,1-30.12-7.09A83.59,83.59,0,0,1,434.37,414a77.82,77.82,0,0,1-10.83-16.29,111,111,0,0,1-9.83-27.41,117.4,117.4,0,0,1-2-35.53,98.21,98.21,0,0,1,7.66-31c3.32-7.45,7.86-14.55,14.05-19.94C450.46,269,420.36,295.11,433.39,283.78Z" transform="translate(-54.7 -65.63)" style="fill:#fff"/><path d="M721.78,350.81A127,127,0,0,0,717.95,319a93.82,93.82,0,0,0-10.79-25.78,75.36,75.36,0,0,0-16.59-19,69.82,69.82,0,0,0-21.48-11.83,76.47,76.47,0,0,0-25.34-3.92,66.3,66.3,0,0,0-47.8,20.26A88.79,88.79,0,0,0,581,299.15a115,115,0,0,0-9.43,23.76A123.3,123.3,0,0,0,567.44,347a130.91,130.91,0,0,0,7,51.17,98.58,98.58,0,0,0,11.83,23.38,73,73,0,0,0,18,18.26,65,65,0,0,0,24.51,10.37,73,73,0,0,0,28.52,0,67.44,67.44,0,0,0,24.13-10.12,78.32,78.32,0,0,0,19-18.4,100.83,100.83,0,0,0,13.43-25.11,126.46,126.46,0,0,0,7-30A142.86,142.86,0,0,0,721.78,350.81Zm-136-3a138,138,0,0,1,3.25-31.11,83.82,83.82,0,0,1,9-23.53A56.28,56.28,0,0,1,612.07,277a48.63,48.63,0,0,1,17.76-8.64,51.41,51.41,0,0,1,19.83-1.16,47.34,47.34,0,0,1,17.85,6.53,59,59,0,0,1,15.57,14.14A82.77,82.77,0,0,1,695,309.43,121.12,121.12,0,0,1,701.77,338a173.26,173.26,0,0,1,.61,34.19,125.82,125.82,0,0,1-5,27.55,76.75,76.75,0,0,1-9,19.52,54.94,54.94,0,0,1-11.3,12.61A47.75,47.75,0,0,1,665,439a45.45,45.45,0,0,1-11.28,2.94,46,46,0,0,1-15.14-.73,50.74,50.74,0,0,1-19-8.45A65,65,0,0,1,604,416.57a93.06,93.06,0,0,1-11.35-23.22,132.44,132.44,0,0,1-6.05-29.25C586.08,358.7,585.83,353.27,585.83,347.85Z" transform="translate(-54.7 -65.63)" style="fill:#fff"/></svg>