<svg id="Layer_1" data-name="Layer 1" xmlns="http://www.w3.org/2000/svg" viewBox="0 0 63 63"><title>icon-services</title><path d="M55.79,29.12v4.93A10.69,10.69,0,0,1,45.18,44.8H40.33a9,9,0,0,1-17.66,0H17.73A10.69,10.69,0,0,1,7.12,34.06v-5A9.17,9.17,0,0,1,9,11a9.17,9.17,0,0,1,1.73,18.15v4.92a7,7,0,0,0,6.95,7h4.9a9.12,9.12,0,0,1,7-7.21V29.12a9,9,0,1,1,3.66,0v4.76a9.12,9.12,0,0,1,7,7.21h4.81a7,7,0,0,0,6.95-7V29.12a9,9,0,1,1,3.66,0Zm-41.36-9A5.39,5.39,0,1,0,9,25.61,5.43,5.43,0,0,0,14.43,20.16Zm22.46,0a5.39,5.39,0,1,0-5.38,5.45A5.43,5.43,0,0,0,36.88,20.16ZM31.5,37.39a5.45,5.45,0,1,0,5.38,5.45A5.43,5.43,0,0,0,31.5,37.39ZM54,14.7a5.46,5.46,0,1,0,5.39,5.46A5.43,5.43,0,0,0,54,14.7Z" fill="#fff"/></svg>