<svg xmlns="http://www.w3.org/2000/svg" viewBox="0 0 100.38 100.38"><title>icon-search</title><path d="M98.13,85.21l-24-24a39.11,39.11,0,0,0,5.71-20.4C79.82,19.09,61,.28,39.3.28A39.31,39.31,0,0,0,0,39.59C0,61.3,18.81,80.1,40.51,80.1A39.11,39.11,0,0,0,60.3,74.75L84.44,98.89a6,6,0,0,0,8.55,0l6-6C101.35,90.54,100.49,87.57,98.13,85.21Zm-86-45.62A27.21,27.21,0,0,1,39.3,12.38c15,0,28.42,13.39,28.42,28.42A27.21,27.21,0,0,1,40.51,68C25.49,68,12.1,54.62,12.1,39.59Z" transform="translate(0 -0.28)" fill="#fff"/></svg>