<svg xmlns="http://www.w3.org/2000/svg" viewBox="0 0 100 100">
  <g fill="#000" fill-rule="evenodd">
    <path d="M90.6992 70.2043c-.222 4.875-1.037 7.522-1.722 9.284-.906 2.334-1.99 4-3.74 5.749-1.749 1.75-3.415 2.833-5.749 3.74-1.762.685-4.409 1.499-9.284 1.722-5.272.24-6.853.292-20.204.292-13.352 0-14.933-.052-20.204-.292-4.875-.223-7.523-1.037-9.285-1.722-2.333-.907-4-1.99-5.749-3.74-1.75-1.749-2.833-3.415-3.74-5.749-.685-1.762-1.499-4.409-1.721-9.284-.241-5.272-.292-6.854-.292-20.204 0-13.351.051-14.932.292-20.205.222-4.875 1.036-7.522 1.721-9.284.907-2.334 1.99-3.999 3.74-5.749 1.749-1.749 3.416-2.833 5.749-3.74 1.762-.685 4.41-1.5 9.285-1.722 5.272-.241 6.853-.291 20.204-.291 13.35 0 14.931.05 20.204.291 4.875.222 7.522 1.037 9.284 1.722 2.334.907 4 1.991 5.749 3.74 1.75 1.75 2.834 3.415 3.74 5.749.685 1.762 1.5 4.409 1.722 9.284.241 5.273.292 6.854.292 20.205 0 13.35-.051 14.932-.292 20.204m9-40.819c-.243-5.322-1.088-8.957-2.324-12.137-1.278-3.288-2.988-6.076-5.767-8.857-2.78-2.779-5.568-4.489-8.856-5.766-3.181-1.236-6.816-2.082-12.137-2.324-5.333-.243-7.036-.301-20.615-.301-13.579 0-15.282.058-20.615.301-5.322.242-8.957 1.088-12.137 2.324-3.288 1.277-6.076 2.987-8.856 5.766-2.78 2.78-4.489 5.569-5.767 8.857-1.237 3.18-2.082 6.815-2.324 12.137-.244 5.333-.301 7.036-.301 20.615 0 13.579.057 15.282.301 20.614.242 5.322 1.087 8.957 2.324 12.138 1.278 3.288 2.987 6.076 5.767 8.856 2.78 2.78 5.568 4.489 8.856 5.767 3.18 1.236 6.815 2.081 12.137 2.324 5.333.243 7.036.301 20.615.301 13.579 0 15.282-.058 20.615-.301 5.321-.243 8.956-1.088 12.137-2.324 3.288-1.277 6.076-2.987 8.856-5.767 2.779-2.78 4.489-5.568 5.767-8.856 1.236-3.181 2.081-6.816 2.324-12.138.243-5.332.301-7.035.301-20.614s-.058-15.282-.301-20.615"/>
    <path d="M50 66.6672c-9.205 0-16.667-7.463-16.667-16.667 0-9.205 7.462-16.667 16.667-16.667 9.205 0 16.667 7.462 16.667 16.667 0 9.204-7.462 16.667-16.667 16.667m0-42.343c-14.18 0-25.676 11.495-25.676 25.676S35.82 75.6762 50 75.6762c14.181 0 25.676-11.495 25.676-25.676S64.181 24.3242 50 24.3242M76.6904 17.3098c-3.313 0-6 2.687-6 6 0 3.314 2.687 6 6 6s6-2.686 6-6c0-3.313-2.687-6-6-6"/>
  </g>
</svg>
