<svg id="Layer_1" data-name="Layer 1" xmlns="http://www.w3.org/2000/svg" viewBox="0 0 67 67"><title>icon-spirituality</title><path d="M33.5,0a33.5,33.5,0,0,0-.25,67h.25a33.5,33.5,0,0,0,0-67ZM6.56,21l14.28,7.21.37-.82L8.38,17.67A30,30,0,0,1,16.76,9L26,22.53l.84-.49L20,7A29.5,29.5,0,0,1,31.68,3.85L33,20.5H34L35.47,3.87A29.49,29.49,0,0,1,47.09,7.09L40.33,22l.77.44L50.34,9a30,30,0,0,1,8.32,8.69L45.38,26.63l.46.8,14.64-6.35a29.49,29.49,0,0,1,2.71,11.4H45.42a12,12,0,0,0-23.69,0H3.82A29.51,29.51,0,0,1,6.56,21Zm35,11.47H31v0l-.08,0h-5.3a8.21,8.21,0,0,1,16,0ZM3.93,36.26H28.67c-5,2.53-9.37,6-9.62,11-.23,4.57,3,9.44,6.5,14.6l.21.31A29.77,29.77,0,0,1,3.93,36.26ZM33.5,63.21c-.87,0-1.74,0-2.6-.12-.73-1.13-1.47-2.24-2.2-3.33-3.1-4.62-6.54-10.08-6.44-13.4.16-5.53,6.71-9,8.83-10.1h3c-3.41,3.22-4.19,6-4.2,8.18,0,3.09,2.4,5.58,5.32,7.61,4,2.78,7.29,5.23,11.59,8A29.52,29.52,0,0,1,33.5,63.21Zm17-5.34c-4.7-2.78-8.64-5.5-13.14-8.39-1.1-.71-3.6-2.54-4.36-4.83-.93-2.81-.2-5.49,3.28-8.38H63.07A29.71,29.71,0,0,1,50.47,57.86Z" fill="#fff"/></svg>