<?xml version="1.0" encoding="utf-8"?>
<!-- Generator: Adobe Illustrator 19.2.0, SVG Export Plug-In . SVG Version: 6.00 Build 0)  -->
<svg version="1.1" id="Layer_1" xmlns="http://www.w3.org/2000/svg" xmlns:xlink="http://www.w3.org/1999/xlink" x="0px" y="0px"
	 width="324.3px" height="79.9px" viewBox="0 0 324.3 79.9" style="enable-background:new 0 0 324.3 79.9;" xml:space="preserve">
<style type="text/css">
	.st0{fill:#FFFFFF;}
</style>
<title>BW_A</title>
<path class="st0" d="M36.6,69.7v-3.5h5v-0.3c0-3.5-1.6-6.1-12.7-4.1L10.6,65L0,79.6l25.3-4.5c7.6-1.3,14.2-1.6,16.3,4.5v-9.9
	L36.6,69.7L36.6,69.7z"/>
<path class="st0" d="M45,79.6c0-4.8,2.8-8,8.6-13.8l4-4l18.5,3.3l10.5,14.6l-24.2-4.2C54.2,73.8,47.2,73.3,45,79.6z"/>
<path class="st0" d="M46.1,66.2c1.8-3.9,5.7-7.5,8-9.7l1.6-1.6c6.8-6.8,8.1-9.6,8.5-14.3c0.3,0.5,0.4,1.1,0.5,1.7
	c0.4,2.5,0.1,5.1-0.8,7.5c-1.4,4.1-4.7,7.4-9,11.7l-4.8,4.7H46.1z"/>
<path class="st0" d="M50,9.3c0,0,0.1-0.1,0.1,0v5.4c0,4.9-6.3,10.5-8.8,13L32.1,37c-3.2,3.2-9.6,9.5-6.9,15.6
	c0.1,0.2,0.2,0.4-0.2,0.1c-0.7-0.5-1.7-2.2-2-5.3c-0.5-5.5,3.3-10.5,7.9-15.2l8.8-8.8C48.7,14.5,49.5,12.9,50,9.3z"/>
<path class="st0" d="M41.3,37c2.5-2.5,8.8-8.1,8.8-13v-5.4c0-0.1-0.1,0-0.1,0c-0.4,3.6-1.3,5.2-10.2,14.1l-8.2,8.2
	c-3,3-5.7,6.1-5.6,11.1c0.1,3.1,1.6,5.6,4,6.2c1,0.2,0.9,0.1,0.7,0c-3.3-1.5-3.1-7.5,2.3-12.8L41.3,37z"/>
<path class="st0" d="M31.1,28.8c-6.8,6.8-8.1,9.6-8.5,14.3c-0.3-0.6-0.5-1.2-0.5-1.8c-0.4-2.5-0.1-5.1,0.8-7.5
	c1.4-4.1,4.7-7.4,9-11.7l7.9-7.9C48.7,5.2,49.5,3.6,50,0c0,0,0.1-0.1,0.1,0v5.4c0,4.9-6.3,10.5-8.8,13L31.1,28.8z"/>
<path class="st0" d="M45.1,75.1H45v-5.4h2.2C46.1,71.3,45.4,73.1,45.1,75.1z"/>
<path class="st0" d="M45.1,66.2H45v-5.5c0-4.1,4-8.6,8-12.5l2.6-2.6c2.1-2.1,8.5-8.4,5.8-14.5c-0.1-0.2-0.2-0.4,0.2-0.1
	c0.7,0.5,1.7,2.2,2,5.3c0.5,5.5-3.3,10.5-7.9,15.2l-2.4,2.4C47.5,59.6,45.6,62.2,45.1,66.2z"/>
<path class="st0" d="M45.1,56.7H45v-5.6c0-3.9,3.9-8.2,5.8-10l2.9-2.9c5.3-5.3,5.6-11.3,2.3-12.8c-0.2-0.1-0.3-0.2,0.7,0
	c2.3,0.6,3.9,3.1,4,6.2c0.1,5-2.6,8.1-5.5,11.1l-2.4,2.4C47.8,50,45.6,52.9,45.1,56.7z"/>
<path class="st0" d="M246.8,66.1c0-1.6-1.9-1.1-1.9-1.6c0-0.2,0.2-0.2,0.4-0.2c0.8,0,1.6,0.1,2.4,0.1s1.4-0.1,2-0.1
	c0.4,0,0.4,0.1,0.4,0.2c0,0.4-1.6,0-1.6,1.6v4.7c0,0.3,0,0.4,0.3,0.4h7.9c0.2,0,0.2-0.5,0.2-0.6v-4.5c0-1.5-1.6-1.1-1.6-1.6
	c0-0.1,0-0.2,0.4-0.2c0.7,0,1.8,0.1,2.3,0.1c0.8,0,1.1-0.1,1.6-0.1s0.6,0.2,0.6,0.4c0,0.4-1.5,0-1.5,1.5v11.5c0,1.6,2,1.2,2,1.7
	c0,0.1-0.1,0.2-0.2,0.3c-0.6,0-1.3-0.1-2-0.1c-1.4,0-2,0.1-2.4,0.1c-0.2,0-0.5,0.1-0.5-0.3c0-0.5,1.5-0.2,1.5-1.6v-5.2
	c0-0.4,0.1-0.5-0.2-0.5h-8c-0.3,0-0.3,0.1-0.3,0.4v5.4c0,1.5,2.1,1,2.1,1.7c0,0.1-0.1,0.2-0.4,0.2s-1.9-0.1-3-0.1
	c-0.6,0-1.3,0-1.9,0.1c-0.2,0-0.2-0.1-0.2-0.3c0-0.6,1.7,0.1,1.7-2.1L246.8,66.1L246.8,66.1z"/>
<path class="st0" d="M264.9,73.8c0,3.5,2.3,5,5.2,5c4.1,0,5-2.7,5-5.2v-7c0-2.2-2-1.3-2-2.1c0-0.1,0.1-0.2,0.2-0.2
	c0.9,0,1.7,0.1,2.5,0.1c0.4,0,0.8-0.1,1.2-0.1c0.1,0,0.3,0.1,0.3,0.2c0,0.6-1.3,0.1-1.3,2.1v6.7c0,1.1,0.3,6.4-6,6.4
	c-5.7,0-6.8-3.2-6.8-6.5v-7.3c0-1.3-1.8-0.8-1.8-1.5c0.1-0.2,0.3-0.2,0.5-0.2c0.6,0,1.1,0.1,1.7,0.1s1.4-0.1,2.1-0.1
	c0.1,0,0.7,0,0.7,0.2c0,0.6-1.5,0-1.5,1.6V73.8L264.9,73.8z"/>
<path class="st0" d="M290.1,77.2c1.6,2.4,2.6,1.6,2.6,2.1c0,0.3-1.2,0.3-1.4,0.3c-1.6,0-2.4-1.1-3.2-2.3l-2.4-3.8
	c-0.8-1.2-0.5-1.1-2.9-1.1c-0.7,0-0.6,0.4-0.6,0.6v4.6c0,1.9,2.3,1.2,2.3,1.9c0,0.2-0.2,0.2-0.4,0.2s-0.7-0.1-2.5-0.1
	c-0.8,0-1.6,0.1-2.5,0.1c-0.1,0-0.2-0.1-0.2-0.2c0,0,0,0,0,0c0-0.5,1.6-0.2,1.6-1.9v-11c0-2.1-1.9-1.2-1.9-1.9
	c0.1-0.2,0.2-0.3,0.4-0.3c0.5,0.1,0.9,0.1,1.4,0.1c1.3,0,2.5-0.1,3.6-0.1c0.4,0,5.1-0.4,5.1,3.8c-0.1,1.7-1.1,3.2-2.7,3.8
	L290.1,77.2z M282.2,71.2c0,0.4,1.4,0.3,2.4,0.3c1.6,0.1,2.9-1.1,3-2.6c0-0.1,0-0.3,0-0.4c0-2.6-2-3.5-4.1-3.5c-0.8,0-1.2,0-1.2,0.8
	L282.2,71.2L282.2,71.2z"/>
<path class="st0" d="M300.3,64c4.1,0,5.2,1.7,5.8,1.7c0.2,0,0.3-0.2,0.5-0.2s0.2,0.4,0.3,1.8c0,1.1,0.2,1.9-0.1,1.9
	c-0.3-0.2-0.4-0.4-0.5-0.7c-1.3-2.3-2.9-3.7-5.7-3.7c-4.2,0-6.3,2.8-6.3,6.9c0,3.8,2.2,7.5,6.3,7.5c3.4,0,5.5-2.2,5.9-3.2
	c0-0.1,0.2-0.3,0.3-0.3c0.1,0,0.2,0.1,0.2,0.2c0,0,0,0,0,0l-0.5,2.2c0,0.1-1.6,1.7-6.4,1.7c-4,0.2-7.4-2.9-7.6-6.9
	c0-0.2,0-0.4,0-0.7c-0.2-4.3,3.2-8,7.5-8.1C300.1,64,300.2,64,300.3,64z"/>
<path class="st0" d="M310.4,66.1c0-1.6-1.9-1.1-1.9-1.6c0-0.2,0.2-0.2,0.4-0.2c0.8,0,1.6,0.1,2.4,0.1s1.3-0.1,2-0.1
	c0.4,0,0.4,0.1,0.4,0.2c0,0.4-1.6,0-1.6,1.6v4.7c0,0.3,0,0.4,0.3,0.4h7.9c0.2,0,0.2-0.5,0.2-0.6v-4.5c0-1.5-1.6-1.1-1.6-1.6
	c0-0.1,0-0.2,0.4-0.2c0.7,0,1.8,0.1,2.3,0.1c0.8,0,1.1-0.1,1.6-0.1s0.6,0.2,0.6,0.4c0,0.4-1.5,0-1.5,1.5v11.5c0,1.6,2,1.2,2,1.7
	c0,0.1-0.1,0.2-0.2,0.3c-0.6,0-1.3-0.1-2-0.1c-1.4,0-2,0.1-2.4,0.1c-0.2,0-0.5,0.1-0.5-0.3c0-0.5,1.5-0.2,1.5-1.6v-5.2
	c0-0.4,0.1-0.5-0.2-0.5h-8c-0.3,0-0.3,0.1-0.3,0.4v5.4c0,1.5,2.1,1,2.1,1.7c0,0.1-0.1,0.2-0.4,0.2s-1.9-0.1-3-0.1
	c-0.6,0-1.3,0-1.9,0.1c-0.2,0-0.2-0.1-0.2-0.3c0-0.6,1.7,0.1,1.7-2.1L310.4,66.1L310.4,66.1z"/>
<path class="st0" d="M206.7,39.8c0.7,0,1.3,0.1,1.9,0.1c1.5,0,2.8-0.1,4.7-0.1c3.9,0,7.7,2.9,7.7,6.9c0,5-2.4,8.5-8.5,8.5
	c-1.1,0-2.2-0.1-3.3-0.1l-2.4,0.1c-0.1,0-0.2,0-0.2-0.1c0,0,0,0,0-0.1c0-0.5,1.5,0.1,1.5-2V42c0-2.2-1.7-1.5-1.7-2.1
	C206.4,39.8,206.5,39.7,206.7,39.8C206.7,39.7,206.7,39.7,206.7,39.8z M213.3,54.6c3.1,0,6-1.7,6-6.7c0-4.9-3.2-7.6-7.4-7.6
	c-2.1,0-2.1,0.4-2.1,1.4V52c-0.1,0.5,0,1,0.1,1.5C210.9,54.3,212.1,54.6,213.3,54.6z"/>
<path class="st0" d="M225.1,49.1c-0.4-0.1-0.8,0.1-1,0.5l-1.4,3c-0.1,0.2-0.2,0.5-0.2,0.8c0,1.5,1.6,0.8,1.6,1.4s-0.4,0.4-0.6,0.4
	c-0.6,0-1.2-0.1-1.8-0.1s-1.2,0.1-1.7,0.1c-0.1,0-0.2,0-0.2-0.1c0,0,0,0,0-0.1c0-0.5,1-0.1,1.6-1.4l5.2-11.1c1.2-2.7,1.3-3,1.7-3
	c0.2,0.2,0.4,0.5,0.4,0.8l4.6,11.2c0.3,0.9,0.6,1.7,1,2.5c0.7,1,1.9,0.5,1.9,1c0,0.2-0.1,0.2-0.3,0.2c-0.9,0-1.8-0.1-2.7-0.1
	c-0.6,0-1.2,0.1-1.8,0.1c-0.1,0-0.5,0-0.5-0.2c0-0.6,1.3-0.3,1.3-1.1c-0.1-0.7-0.3-1.4-0.6-2.1l-0.7-1.8c-0.1-0.5-0.5-0.8-1-0.8
	L225.1,49.1L225.1,49.1z M229.5,48.1c0.5,0,0.5-0.1,0.4-0.4l-2.1-5.3c-0.1-0.3-0.2-0.3-0.4,0l-2.4,5.3c-0.1,0.3,0,0.4,0.3,0.4H229.5
	z"/>
<path class="st0" d="M233.9,39.8c0.5,0,1,0.1,2.4,0.1c0.8,0,1.3-0.1,1.5-0.1s0.4,0,0.4,0.2s-1,0.4-1,1c0,0.3,0.2,0.6,0.4,0.9
	l2.6,4.2c0.1,0.2,0.3,0.4,0.5,0.4c0.2-0.1,0.3-0.3,0.4-0.5l2.2-3.6c0.3-0.3,0.4-0.7,0.5-1.2c0-1.1-1.7-0.6-1.7-1.2
	c0-0.3,0.2-0.3,0.5-0.3c0.5,0,1,0.1,1.6,0.1s1.2-0.1,1.9-0.1c0.1,0,0.2,0.1,0.2,0.2c-0.1,0.2-0.3,0.4-0.5,0.4
	c-0.5,0.4-1,0.9-1.2,1.5l-3,4.8c-0.3,0.3-0.5,0.6-0.5,1v5.3c0,1.9,1.7,1.2,1.7,1.9c0,0.2-0.1,0.2-0.5,0.2s-1.6-0.1-2.4-0.1
	c-1,0-1.8,0.1-2,0.1c-0.1,0-0.2,0-0.3-0.2c0,0,0-0.1,0-0.1c0-0.6,1.7,0,1.7-1.6v-5.3c-0.1-0.4-0.2-0.8-0.5-1.1l-3.7-5.8
	c-0.6-0.9-1.6-0.6-1.6-1c-0.1-0.1,0-0.3,0.1-0.3C233.8,39.7,233.9,39.7,233.9,39.8z"/>
<path class="st0" d="M189.1,64.2c0.8,0,1.6,0.1,2.4,0.1s1.4-0.1,2-0.1c0.3,0,0.4,0,0.4,0.2c0,0.5-1.6,0-1.6,1.7v11.6
	c0,1.5,1.9,1,1.9,1.7c0,0.1,0,0.2-0.4,0.2s-1.4,0-2.4,0c-1.3,0-1.8,0-2.1,0s-0.4-0.1-0.4-0.3c0-0.6,1.7,0.1,1.7-2V66.1
	c0-1.6-1.8-1.1-1.8-1.6C188.9,64.3,188.9,64.2,189.1,64.2z"/>
<path class="st0" d="M149.2,46.8c2.3,0,1.7-1.7,2.2-1.7c0.2,0,0.2,0.2,0.2,0.4v3.9c0,0.2-0.1,0.3-0.2,0.3c-0.7,0,0.1-1.9-1.7-1.9
	h-3.3c-0.5,0-0.4,0.4-0.4,0.7v4c0,1.3-0.1,1.9,1.7,1.9c5.1,0,5.8-2.3,6.1-2.3s0.1,0.2,0.1,0.3c-0.1,0.8-0.5,1.5-1.1,2.1
	c-0.5,0.6-1.3,0.9-2.1,0.8c-1.7,0-3.3-0.1-5-0.1c-0.9,0-1.8,0.1-2.6,0.1c-0.2,0-0.4-0.1-0.4-0.2s0.3-0.2,1-0.6s0.6-0.9,0.6-1.9v-9.9
	c0-1,0-2-1.2-2.2c-0.2,0-0.7-0.1-0.7-0.4s0.1-0.2,0.8-0.2c4.2,0,5.3,0.1,6.2,0.1c0.4,0,2.4-0.1,3.1-0.1c0.2,0,0.2,0.2,0.2,0.4
	c0,2.4-0.3,2.6-0.4,2.6c-0.5,0-0.1-1-0.5-1.5c-0.6-0.8-2.8-0.6-3.7-0.6c-2.1,0-2.1-0.1-2.1,1.4v4c0,0.8,0,0.8,0.8,0.8L149.2,46.8
	L149.2,46.8z"/>
<path class="st0" d="M153.6,39.8c0.4,0,0.7,0.1,1,0.1s0.6-0.1,1-0.1c0.2,0.1,0.4,0.3,0.6,0.5l10.4,11.6c0.1,0.1,0.2,0.2,0.3,0.2
	c0.1,0,0.1-0.1,0.1-0.2v-9.2c0-2.8-2.4-2-2.4-2.7c0-0.1,0.1-0.2,0.3-0.2c0,0,0,0,0,0c0.6,0,1.2,0.1,1.9,0.1s1.7-0.1,2.2-0.1
	c0.1,0,0.2,0,0.2,0.1c0,0,0,0,0,0c0,0.6-1.3,0.2-1.3,1.8v12.6c0,0.6,0,0.9-0.1,0.9c-0.4,0-0.7-0.2-0.8-0.6L157.5,44
	c-0.1-0.2-0.3-0.3-0.5-0.4c-0.1,0-0.1,0.1-0.1,0.5V53c0,2,1.9,1.2,1.9,1.8c0,0.1,0,0.3-0.2,0.3c-0.6,0-1.1-0.1-2.2-0.1
	c-0.8,0-1.9,0.1-2,0.1S154,55,154,54.9c0-0.8,1.9,0.2,1.9-2.9v-8c0-4.5-2.6-3.3-2.6-4C153.3,39.8,153.4,39.7,153.6,39.8z"/>
<path class="st0" d="M171.5,40.9c-1.4,0-1.4,0.4-1.8,1.5c-0.1,0.2-0.1,0.5-0.4,0.5c-0.1,0-0.2-0.1-0.2-0.3c0,0,0,0,0,0l0.2-2.1
	c0.1-0.3,0-0.8,0.4-0.8c1.7,0,3.4,0.1,6.2,0.1c4,0,6-0.1,6.4-0.1s0.5,0.1,0.6,0.6l0.1,1.7c0,0.2,0,0.5-0.3,0.5
	c-0.8,0,0.4-1.7-1.8-1.7h-3.1c-1,0-0.9-0.1-0.9,1v11.2c0,1.8,1.8,1.1,1.8,1.7c0,0.1-0.1,0.2-0.2,0.3c0,0,0,0,0,0
	c-0.5,0-1.2-0.1-1.8-0.1c-2.4,0-2.8,0.1-3,0.1c-0.1,0-0.2,0-0.3-0.2c0,0,0-0.1,0-0.1c0-0.6,1.7-0.3,1.7-1.6V41.9c0-0.1,0.1-1-0.2-1
	L171.5,40.9L171.5,40.9z"/>
<path class="st0" d="M183,39.8c0.8,0,1.6,0.1,2.4,0.1s1.4-0.1,2-0.1c0.4,0,0.4,0.1,0.4,0.2c0,0.4-1.5,0-1.5,1.7v4.7
	c0,0.3,0,0.4,0.3,0.4h8c0.3,0,0.2-0.5,0.2-0.6v-4.4c0-1.5-1.7-1.2-1.7-1.7c0-0.1,0.1-0.2,0.4-0.2c0.7,0,1.8,0.1,2.2,0.1
	c0.8,0,1.2-0.1,1.6-0.1s0.6,0.2,0.6,0.4c0,0.4-1.5,0-1.5,1.5v11.5c0,1.6,1.9,1.2,1.9,1.7c0,0.1-0.1,0.2-0.2,0.3
	c-0.6,0-1.2-0.1-2.1-0.1c-1.4,0-2,0.1-2.4,0.1c-0.1,0-0.5,0.1-0.5-0.3c0-0.6,1.5-0.2,1.5-1.6V48c0-0.4,0.1-0.5-0.2-0.5h-8
	c-0.2,0-0.2,0.1-0.2,0.4v5.5c0,1.5,2,1,2,1.7c-0.1,0.1-0.2,0.2-0.4,0.1c-0.3,0-1.9-0.1-3-0.1c-0.6,0-1.2,0-1.9,0.1
	c-0.2,0-0.3-0.1-0.3-0.4c0-0.6,1.7,0.1,1.7-2V41.6c0-1.6-1.9-1.2-1.9-1.7C182.7,39.8,182.9,39.8,183,39.8z"/>
<path class="st0" d="M205.7,47.4c0,1,0.1,1-0.8,1.3l-4.4,1.5c-0.3,0.1-0.7,0.3-1,0.4c-0.4,0-0.3-0.4-0.3-0.6c0-1.1-0.1-1.1,0.8-1.4
	l4.4-1.5c0.3-0.2,0.7-0.3,1-0.4C205.8,46.7,205.7,47.2,205.7,47.4z"/>
<path class="st0" d="M154.7,71.3c2.3,0,1.7-1.8,2.2-1.8c0.2,0.1,0.3,0.2,0.2,0.4c0,0.8,0,1.5,0,2.2s0,1.1,0,1.7
	c0,0.1-0.1,0.3-0.2,0.3c0,0,0,0,0,0c-0.7,0,0-1.9-1.8-1.9H152c-0.5,0-0.4,0.4-0.4,0.7v4c0,1.3-0.2,1.8,1.6,1.8c5,0,5.8-2.2,6.1-2.2
	s0.1,0.2,0.1,0.2c-0.1,0.8-0.4,1.6-1,2.1c-0.5,0.6-1.3,0.9-2.1,0.7c-1.7,0-3.3-0.1-5,0c-0.9,0-1.8,0-2.6,0c-0.2,0-0.3,0-0.3-0.2
	s0.3-0.2,1-0.6s0.6-0.9,0.6-1.9V67c0-1,0-2-1.1-2.2c-0.2,0-0.7-0.1-0.7-0.4s0.1-0.2,0.8-0.2c4.1,0,5.2,0.1,6.2,0.1
	c0.4,0,2.4-0.1,3.1-0.1c0.2,0,0.2,0.2,0.2,0.5c0,2.4-0.3,2.6-0.4,2.6c-0.5,0-0.2-1-0.5-1.5c-0.6-0.8-2.8-0.6-3.7-0.6
	c-2.1,0-2-0.1-2,1.4v4c0,0.8,0,0.8,0.8,0.8L154.7,71.3L154.7,71.3z"/>
<path class="st0" d="M159.5,64.2c0.4,0,0.7,0.1,1,0.1s0.7-0.1,1-0.1c0.2,0.1,0.4,0.3,0.6,0.5l10.4,11.6c0.1,0.1,0.1,0.2,0.2,0.2
	c0.1,0,0.1-0.1,0.1-0.2v-9.1c0-2.8-2.4-2-2.4-2.8c0-0.1,0.1-0.2,0.2-0.2c0,0,0,0,0.1,0c0.6,0,1.3,0.1,1.9,0.1s1.7-0.1,2.2-0.1
	c0.1,0,0.2,0.1,0.2,0.1c0,0,0,0,0,0c0,0.6-1.3,0.2-1.3,1.8v12.5c0,0.7,0,1-0.2,1c-0.3-0.1-0.6-0.3-0.8-0.6l-9.3-10.5
	c-0.1-0.1-0.3-0.3-0.5-0.4c-0.1,0-0.1,0-0.1,0.5v8.9c0,1.9,1.9,1.2,1.9,1.8c0,0.1,0,0.3-0.2,0.3c-0.5,0-1.1,0-2.2,0
	c-0.8,0-1.9,0-2,0s-0.3-0.1-0.3-0.2c0-0.8,1.9,0.2,1.9-2.8v-8c0-4.5-2.6-3.3-2.6-4.1C159.3,64.3,159.4,64.3,159.5,64.2z"/>
<path class="st0" d="M177.3,65.4c-1.4,0-1.4,0.3-1.8,1.5c-0.1,0.2-0.1,0.5-0.4,0.5c-0.1,0-0.2-0.2-0.2-0.3l0.2-2.1
	c0-0.3,0-0.9,0.4-0.9c1.7,0,3.4,0.1,6.2,0.1c3.9,0,5.9-0.1,6.3-0.1c0.3-0.1,0.6,0.1,0.7,0.4c0,0.1,0,0.2,0,0.3l0.1,1.8
	c0,0.2,0,0.5-0.2,0.5c-0.8,0,0.4-1.7-1.9-1.7h-3.1c-0.8,0-0.9,0-0.9,1v11.1c0,1.9,1.8,1.1,1.8,1.8c0,0.1,0,0.2-0.1,0.2
	c0,0-0.1,0-0.1,0c-0.5,0-1.1,0-1.8,0c-2.4,0-2.8,0-3,0s-0.2,0-0.2-0.3c0-0.5,1.7-0.3,1.7-1.6V66.4c0-0.1,0-1-0.3-1L177.3,65.4
	L177.3,65.4z"/>
<path class="st0" d="M135.8,54.3c-0.2,0.5-0.4,1.2-0.7,1.2s-0.6-0.9-0.8-1.4l-5.4-12.7c-0.6-1.3-1.7-0.9-1.7-1.4
	c0-0.2,0.1-0.3,0.3-0.3c0,0,0.1,0,0.1,0c0.6,0,1.3,0.1,2,0.1s1.4-0.1,1.7-0.1c0.2,0,0.3,0.1,0.4,0.2c0,0.3-0.9,0.3-0.9,1.1
	c0,0.3,0.1,0.6,0.2,0.8l3.8,9c0.5,1.1,0.6,1.6,0.8,1.6c0.2-0.1,0.4-0.3,0.4-0.6l3.8-9.4c0.2-0.5,0.3-1,0.3-1.5c0-1-1.4-0.5-1.4-1
	c0-0.2,0.1-0.3,0.3-0.3c0,0,0.1,0,0.1,0c0.5,0,1,0.1,1.4,0.1c1.1,0,1.4-0.1,1.7-0.1c0.1,0,0.3,0.1,0.3,0.2c0,0,0,0.1,0,0.1
	c0,0.5-0.6-0.1-1.2,1.4L135.8,54.3z"/>
<path class="st0" d="M125.1,55.1c-1.7,0-3.3-0.1-5-0.1c-0.8,0-1.8,0.1-2.6,0.1c-0.2,0-0.4-0.1-0.4-0.2s0.3-0.2,1-0.6
	s0.6-0.9,0.6-1.9v-9.9c0-1,0-2-1.2-2.2c-0.2,0-0.7-0.1-0.7-0.4s0.1-0.2,0.8-0.2c4.2,0,5.3,0.1,6.2,0.1c0.5,0,2.4-0.1,3.1-0.1
	c0.2,0,0.2,0.2,0.2,0.4c0,2.4-0.3,2.6-0.4,2.6c-0.5,0-0.1-1-0.5-1.5c-0.5-0.8-2.8-0.6-3.7-0.6c-2.1,0-2-0.1-2,1.4v4
	c0,0.8-0.1,0.8,0.8,0.8h2.4c2.3,0,1.7-1.7,2.2-1.7c0.2,0,0.3,0.2,0.3,0.4c0,0,0,0,0,0c0,0.8-0.1,1.5-0.1,2.1s0.1,1.2,0.1,1.7
	c0,0.1-0.1,0.3-0.2,0.3c0,0,0,0-0.1,0c-0.7,0,0.1-1.9-1.7-1.9h-3.3c-0.4,0-0.4,0.4-0.4,0.7v4c0,1.3-0.2,1.9,1.6,1.9
	c5.1,0,5.8-2.3,6.1-2.3s0.1,0.2,0.1,0.3c-0.1,0.8-0.4,1.5-1,2.1C126.7,55.1,125.9,55.3,125.1,55.1z"/>
<path class="st0" d="M141.5,78.7c-0.2,0.6-0.4,1.3-0.7,1.3s-0.6-1-0.8-1.4l-5.4-12.7c-0.5-1.3-1.7-0.9-1.7-1.4
	c0-0.2,0.1-0.3,0.3-0.3c0,0,0,0,0,0c0.7,0,1.3,0.1,2,0.1s1.4-0.1,1.7-0.1c0.1,0,0.2,0.1,0.3,0.2c0,0.3-0.9,0.3-0.9,1.1
	c0,0.3,0.1,0.6,0.2,0.9l3.8,8.9c0.5,1.2,0.6,1.7,0.9,1.7c0.2-0.1,0.4-0.4,0.4-0.6l3.7-9.3c0.2-0.5,0.3-1,0.3-1.5
	c0-1-1.4-0.6-1.4-1.1c0-0.1,0.1-0.3,0.3-0.3c0,0,0.1,0,0.1,0c0.5,0,1,0.1,1.5,0.1c1,0,1.3-0.1,1.7-0.1c0.2,0,0.3,0.1,0.4,0.2
	c0,0,0,0,0,0c0,0.5-0.6-0.1-1.2,1.4L141.5,78.7z"/>
<path class="st0" d="M103.4,53.8l-0.7-3.8c-0.1-0.6,0-0.9,0.3-0.9s0.4,0.4,0.6,1c0.8,2.7,3.3,4.4,6.1,4.4c2.8,0,5.5-1.5,5.5-4.6
	c0-5.6-11.8-2.5-11.8-10.1c0-3.7,3.1-5.5,6.4-5.5c1.7-0.1,3.3,0.3,4.9,1c0.3,0,0.4-0.4,0.6-0.4c0.2,0,0.4,0.1,0.4,0.3
	c0,0,0,0.1,0,0.1l0.4,4c0.1,0.3,0,0.5-0.3,0.5c-0.4-0.2-0.6-0.5-0.6-0.9c-0.8-2.4-3.1-3.9-5.6-3.8c-2.3,0-4.7,1.1-4.7,3.8
	c0,5.5,11.8,2.3,11.8,10.3c0,2.5-1.7,6.1-8.3,6.1C106.2,55.4,103.5,54.3,103.4,53.8z"/>
<path class="st0" d="M122.5,79.5c-0.1,0-1.3,0-2,0c-1.2,0-1.9,0-2.8,0s-1.6,0.1-2.4,0.1c-0.1,0-0.6,0-0.6-0.3c0-0.7,1.7-0.4,1.7-1.5
	c-0.2-0.9-0.5-1.8-0.9-2.7l-1-2.4c-0.3-0.7-0.4-1.1-1.2-1.1h-6.3c-0.5-0.1-1.1,0.1-1.4,0.6l-1.8,4c-0.1,0.3-0.2,0.7-0.2,1
	c0,2,2,1.1,2,1.9c0,0.5-0.4,0.4-0.8,0.4c-0.8,0-1.6-0.1-2.4-0.1s-1.6,0.1-2.3,0.1c-0.2,0-0.3-0.2-0.2-0.3c0,0,0,0,0,0
	c0-0.6,1.3-0.1,2.1-1.8l6.9-14.6c1.7-3.6,1.8-4.1,2.2-4.1c0.4,0,0.5,0.9,0.6,1.1l6,14.8c0.4,1.1,0.8,2.2,1.4,3.3
	c0.3,0.5,0.9,0.9,1.5,0.9c0.5,0,0.9-0.6,0.9-1.5V66.5c0-2.2-1.8-1.5-1.8-2.1c0-0.1,0.1-0.2,0.3-0.2c0,0,0,0,0,0
	c0.7,0,1.3,0.1,1.9,0.1c1.5,0,2.8-0.1,4.7-0.1c3.8,0,7.6,2.9,7.6,6.9c0,5-2.4,8.4-8.4,8.4C124.7,79.6,123.6,79.5,122.5,79.5z
	 M123.1,66.1v10.3c-0.1,0.5,0,1.1,0.1,1.6c1,0.7,2.2,1,3.4,1c3.1,0,6-1.7,6-6.7c0-4.8-3.2-7.5-7.3-7.6
	C123.2,64.8,123.1,65.1,123.1,66.1L123.1,66.1z M110.1,62.4l-3.3,7c-0.2,0.4,0,0.5,0.4,0.5h5.7c0.7,0,0.6-0.2,0.5-0.6l-2.8-6.9
	C110.4,62,110.3,62,110.1,62.4L110.1,62.4z"/>
<path class="st0" d="M219.3,64.9l0.1,1.8c0,0.2,0,0.5-0.2,0.5c-0.8,0,0.4-1.7-1.9-1.7h-3.1c-0.9,0-0.9,0-0.9,1v11.1
	c0,1.9,1.8,1.1,1.8,1.8c0,0.1,0,0.2-0.1,0.2c0,0-0.1,0-0.1,0c-0.5,0-1.1,0-1.8,0c-2.4,0-2.8,0-3,0s-0.2,0-0.2-0.3
	c0-0.5,1.7-0.3,1.7-1.6V66.4c0-0.1,0-1-0.3-1h-4.5c-1.3,0-1.3,0.5-1.3,1.2c0,0.2,0.2,1.2-0.2,1.2c-0.2-0.1-0.4-0.4-0.5-0.7
	c-0.7-1.9-2.2-2.5-4.1-2.5s-3.5,0.9-3.5,2.8c0,4.1,8.8,1.7,8.8,7.7c0,1.9-1.3,4.6-6.2,4.6c-1.6,0-3.6-0.8-3.7-1.2l-0.5-2.8
	c-0.1-0.4,0-0.7,0.2-0.7s0.3,0.3,0.4,0.7c0.6,2,2.5,3.3,4.5,3.3c2.1,0,4.1-1.1,4.1-3.5c0-4.2-8.8-1.9-8.8-7.5c0-2.8,2.3-4.1,4.8-4.1
	c1.3,0,2.5,0.2,3.6,0.8c0.3,0,0.4-0.6,0.8-0.6c1.7,0,4.1,0.1,6.9,0.1c3.9,0,5.9-0.1,6.3-0.1c0.3-0.1,0.6,0.1,0.7,0.4
	C219.3,64.7,219.3,64.8,219.3,64.9z"/>
<path class="st0" d="M235.5,59c5.4,0,6.9,2.2,7.7,2.2c0.2,0,0.4-0.3,0.7-0.3s0.3,0.5,0.4,2.3c0.1,1.5,0.3,2.5-0.2,2.5
	c-0.3-0.2-0.6-0.6-0.7-1c-1.8-3.1-3.8-5-7.5-5c-5.6,0-8.3,3.7-8.3,9.1c0,5,2.9,10,8.4,10c4.5,0,7.3-2.9,7.8-4.2
	c0-0.2,0.2-0.3,0.4-0.4c0.2,0,0.3,0.2,0.3,0.3c0,0,0,0,0,0l-0.7,2.9c0,0.1-2.1,2.3-8.5,2.3c-5.9,0-10.1-4-10.1-10S229.5,59,235.5,59
	z"/>
<path class="st0" d="M221.4,61.1c1-0.1,1.9,0.7,2,1.7c0.1,1-0.7,1.9-1.7,2c-0.1,0-0.2,0-0.3,0c-0.5,0-1.1-0.2-1.4-0.6
	c-0.6-0.7-0.6-1.7,0-2.4C220.3,61.3,220.8,61.1,221.4,61.1z M221.4,61.3c-0.9,0-1.6,0.7-1.6,1.7c0,0.9,0.7,1.6,1.7,1.6
	c0.9,0,1.6-0.7,1.6-1.7c0-0.4-0.2-0.9-0.5-1.2C222.2,61.5,221.8,61.3,221.4,61.3L221.4,61.3z M221.6,63l0.4,0.6l0,0.1
	c0.1,0.1,0.2,0.2,0.4,0.3l0,0l0,0c0,0-0.1,0.1-0.2,0.1c-0.2,0-0.4-0.1-0.5-0.3l-0.4-0.6l0,0c0,0-0.1-0.1-0.1,0h-0.1v0.6
	c0,0.1,0,0.2,0,0.2c0.1,0,0.1,0.1,0.2,0.1c0,0,0.1,0,0.1,0.1c0,0,0,0,0,0c0,0,0,0-0.1,0h-0.7c0,0-0.1,0-0.1,0c0,0,0,0,0,0
	c0,0,0-0.1,0.1,0c0.1,0,0.1-0.1,0.1-0.1c0-0.1,0-0.2,0-0.3v-1.2c0-0.1,0-0.2-0.2-0.2c0,0,0,0,0,0h-0.1c0,0-0.1,0-0.1-0.1
	c0,0,0,0,0.1,0h0.7c0.5,0,0.8,0.2,0.8,0.5C221.9,62.7,221.8,62.9,221.6,63L221.6,63z M221.1,62.9h0.2c0.2,0,0.4-0.1,0.4-0.3
	c0,0,0-0.1,0-0.1c0-0.1-0.1-0.3-0.1-0.3c-0.1-0.1-0.2-0.1-0.4-0.1c-0.1,0-0.1,0-0.1,0.1c0,0,0,0,0,0v0.7
	C221,62.8,221,62.8,221.1,62.9L221.1,62.9L221.1,62.9z"/>
<path class="st0" d="M84.6,67.1c1.2-0.1,2.3,0.8,2.4,2.1c0.1,1.2-0.8,2.3-2.1,2.4c-0.1,0-0.2,0-0.3,0c-0.7,0-1.3-0.3-1.7-0.8
	c-0.7-0.8-0.7-2,0-2.9C83.4,67.4,84,67.1,84.6,67.1z M84.6,67.4c-1.1,0-2,0.9-2,2c0,1.1,0.9,2,2,2c1.1,0,2-0.9,2-2
	c0-0.5-0.2-1.1-0.6-1.4C85.7,67.6,85.2,67.4,84.6,67.4L84.6,67.4z M84.9,69.4l0.5,0.7l0.1,0.1c0.1,0.2,0.2,0.3,0.4,0.4h0.1
	c0,0.1-0.1,0.1-0.3,0.1c-0.3,0-0.5-0.2-0.6-0.4l-0.5-0.7l0,0c0,0-0.1-0.1-0.1-0.1h-0.3v0.7c0,0.1,0,0.2,0.1,0.3
	c0.1,0.1,0.2,0.1,0.3,0.1c0,0,0.1,0,0.1,0.1c0,0,0,0,0,0c0,0,0,0.1-0.1,0.1h-0.9c-0.1,0-0.1,0-0.1-0.1c0,0,0-0.1,0.1-0.1
	c0.1,0,0.1-0.1,0.2-0.1c0-0.1,0-0.3,0-0.4v-1.5c0-0.1,0-0.3-0.2-0.3c0,0,0,0,0,0h-0.1c0,0-0.1,0-0.1-0.1c0,0,0-0.1,0.1-0.1h0.9
	c0.6,0,0.9,0.2,0.9,0.6C85.3,69,85.1,69.2,84.9,69.4L84.9,69.4z M84.3,69.3h0.2c0.2,0,0.4-0.1,0.5-0.3c0,0,0-0.1,0-0.1
	c0-0.2-0.1-0.3-0.2-0.4c-0.1-0.1-0.3-0.2-0.4-0.2c-0.1,0-0.2,0-0.2,0.1c0,0,0,0,0,0v0.8C84.2,69.2,84.2,69.2,84.3,69.3L84.3,69.3z"
	/>
</svg>
