<?xml version="1.0" encoding="utf-8"?>
<!-- Generator: Adobe Illustrator 19.2.0, SVG Export Plug-In . SVG Version: 6.00 Build 0)  -->
<svg version="1.1" id="Layer_1" xmlns="http://www.w3.org/2000/svg" xmlns:xlink="http://www.w3.org/1999/xlink" x="0px" y="0px"
	 width="152.6px" height="145.1px" viewBox="0 0 152.6 145.1" style="enable-background:new 0 0 152.6 145.1;" xml:space="preserve"
	>
<style type="text/css">
	.st0{fill:#FFFFFF;}
</style>
<title>BW_3</title>
<path class="st0" d="M104.8,92.3c0.6,0,1.1,0.1,1.6,0.1c1.2,0,2.4-0.1,4-0.1c3.3,0,6.5,2.5,6.5,5.8c0,4.2-2,7.1-7.1,7.1
	c-0.9,0-1.9-0.1-2.8-0.1l-2,0.1c-0.1,0-0.2,0-0.2-0.1c0,0,0,0,0,0c0-0.4,1.3,0.1,1.3-1.7v-9.1c0-1.9-1.5-1.3-1.5-1.8
	C104.6,92.4,104.7,92.3,104.8,92.3C104.8,92.3,104.8,92.3,104.8,92.3z M110.4,104.8c2.6,0,5.1-1.4,5.1-5.7c0-4.1-2.7-6.4-6.2-6.4
	c-1.8,0-1.8,0.3-1.8,1.2v8.8c-0.1,0.4,0,0.9,0.1,1.3C108.4,104.5,109.4,104.9,110.4,104.8L110.4,104.8z M120.3,100.2
	c-0.4-0.1-0.7,0.1-0.9,0.4l-1.2,2.6c-0.1,0.2-0.2,0.4-0.2,0.6c0,1.3,1.3,0.7,1.3,1.2s-0.3,0.3-0.5,0.3c-0.5,0-1-0.1-1.5-0.1
	s-1,0.1-1.5,0.1c-0.1,0-0.2,0-0.2-0.1c0,0,0,0,0,0c0-0.4,0.9-0.1,1.3-1.2l4.4-9.3c1-2.3,1.1-2.6,1.4-2.6c0.2,0.2,0.3,0.4,0.4,0.6
	l3.9,9.5c0.2,0.7,0.5,1.4,0.9,2.1c0.6,0.8,1.6,0.4,1.6,0.9c0,0.2-0.1,0.2-0.2,0.2c-0.8,0-1.5-0.1-2.3-0.1c-0.5,0-1,0.1-1.5,0.1
	c-0.1,0-0.4,0-0.4-0.2c0-0.5,1.1-0.2,1.1-0.9c-0.1-0.6-0.3-1.2-0.5-1.8l-0.6-1.5c-0.1-0.4-0.4-0.7-0.8-0.7L120.3,100.2L120.3,100.2z
	 M124,99.4c0.4,0,0.4-0.1,0.3-0.4l-1.8-4.4c-0.1-0.2-0.2-0.2-0.3,0l-2,4.5c-0.1,0.2,0,0.3,0.2,0.3L124,99.4L124,99.4z M127.5,92.3
	c0.5,0,0.8,0.1,2,0.1c0.6,0,1.1-0.1,1.3-0.1s0.4,0,0.4,0.2s-0.8,0.3-0.8,0.8c0,0.3,0.1,0.5,0.3,0.8l2.2,3.6c0.1,0.2,0.2,0.3,0.4,0.4
	c0.2-0.1,0.3-0.2,0.4-0.4l1.9-3c0.2-0.3,0.4-0.6,0.4-1c0-0.9-1.4-0.5-1.4-1c0-0.2,0.2-0.2,0.4-0.2c0.4,0,0.9,0.1,1.3,0.1
	s1-0.1,1.6-0.1c0.1,0,0.2,0.1,0.2,0.2c-0.1,0.2-0.2,0.3-0.4,0.4c-0.5,0.3-0.8,0.8-1,1.3l-2.6,4c-0.2,0.2-0.4,0.5-0.4,0.8v4.5
	c0,1.6,1.5,1,1.5,1.6c0,0.2-0.1,0.2-0.4,0.2s-1.3-0.1-2-0.1c-0.8,0-1.5,0.1-1.7,0.1c-0.1,0-0.2,0-0.2-0.1c0,0,0-0.1,0-0.1
	c0-0.5,1.4,0,1.4-1.3v-4.4c-0.1-0.3-0.2-0.7-0.4-0.9l-3.1-4.9c-0.5-0.8-1.3-0.5-1.3-0.9c-0.1-0.1,0-0.2,0.1-0.3
	C127.4,92.3,127.4,92.3,127.5,92.3L127.5,92.3z M109.9,109.9c1,0,1.9,0.1,2.9,0.1s1.7-0.1,2.5-0.1c0.4,0,0.5,0.1,0.5,0.2
	c0,0.6-1.9,0.1-1.9,2v14.4c0,1.9,2.3,1.2,2.3,2c0,0.2-0.1,0.2-0.5,0.2s-1.8-0.1-2.9-0.1c-1.6,0-2.2,0.1-2.6,0.1s-0.5-0.1-0.5-0.4
	c0-0.8,2,0.1,2-2.5v-13.6c0-1.9-2.2-1.4-2.2-2C109.6,110,109.7,109.9,109.9,109.9L109.9,109.9z M99.8,133.4c0.6,0,1.2,0.1,1.8,0.1
	s1-0.1,1.5-0.1c0.3,0,0.4,0.1,0.4,0.1c0,0.4-1.2,0.1-1.2,1.3v3.5c0,0.2,0,0.3,0.2,0.3h6c0.2,0,0.1-0.4,0.1-0.5v-3.3
	c0-1.2-1.2-0.9-1.2-1.2c0-0.1,0.1-0.2,0.3-0.2c0.5,0,1.4,0.1,1.7,0.1c0.6,0,0.8-0.1,1.2-0.1s0.5,0.1,0.5,0.2c0,0.3-1.1,0-1.1,1.2
	v8.6c0,1.2,1.5,0.9,1.5,1.3c0,0.1-0.1,0.2-0.2,0.2c-0.4,0-0.9-0.1-1.5-0.1c-1,0-1.5,0.1-1.8,0.1c-0.1,0-0.4,0.1-0.4-0.2
	s1.1-0.1,1.1-1.2v-3.9c0-0.2,0.1-0.4-0.1-0.4h-6c-0.2,0-0.2,0.1-0.2,0.3v4c0,1.1,1.5,0.8,1.5,1.3c0,0.1-0.1,0.1-0.2,0.1
	c-0.2,0-1.4-0.1-2.3-0.1c-0.5,0-0.9,0-1.4,0.1c-0.1,0-0.2-0.1-0.2-0.2c0-0.5,1.3,0.1,1.3-1.6v-8.3c0-1.2-1.5-0.9-1.5-1.2
	C99.5,133.5,99.7,133.5,99.8,133.4L99.8,133.4z M56.4,98.3c1.9,0,1.4-1.5,1.9-1.5c0.2,0,0.2,0.2,0.2,0.4v3.3c0,0.2-0.1,0.2-0.2,0.2
	c-0.6,0,0.1-1.6-1.5-1.6h-2.7c-0.4,0-0.4,0.3-0.4,0.6v3.3c0,1.1-0.1,1.6,1.4,1.6c4.3,0,4.9-1.9,5.1-1.9s0.1,0.2,0.1,0.2
	c-0.1,0.7-0.4,1.3-0.9,1.8c-0.4,0.5-1.1,0.8-1.8,0.6c-1.4,0-2.8-0.1-4.2-0.1c-0.8,0-1.5,0.1-2.2,0.1c-0.2,0-0.3-0.1-0.3-0.2
	s0.2-0.2,0.8-0.5s0.5-0.8,0.5-1.6v-8.4c0-0.8,0-1.7-1-1.9c-0.2,0-0.6-0.1-0.6-0.3s0.1-0.2,0.6-0.2c3.5,0,4.4,0.1,5.2,0.1
	c0.4,0,2-0.1,2.6-0.1c0.2,0,0.2,0.2,0.2,0.4c0,2-0.2,2.2-0.4,2.2c-0.5,0-0.1-0.9-0.5-1.3c-0.5-0.6-2.4-0.5-3.1-0.5
	c-1.8,0-1.8-0.1-1.8,1.2v3.4c0,0.6,0,0.6,0.7,0.6L56.4,98.3L56.4,98.3z M60.1,92.3c0.3,0,0.6,0.1,0.9,0.1s0.5-0.1,0.8-0.1
	c0.2,0.1,0.4,0.2,0.5,0.4l8.8,9.8c0.1,0.1,0.1,0.1,0.2,0.2c0.1,0,0.1-0.1,0.1-0.2v-7.7c0-2.4-2-1.7-2-2.3c0-0.1,0.1-0.2,0.2-0.2
	c0,0,0,0,0,0c0.5,0,1,0.1,1.6,0.1s1.4-0.1,1.9-0.1c0.1,0,0.2,0,0.2,0.1c0,0,0,0,0,0c0,0.5-1.1,0.2-1.1,1.5v10.6c0,0.5,0,0.8-0.1,0.8
	c-0.3,0-0.6-0.2-0.7-0.5l-7.9-8.9c-0.1-0.1-0.3-0.2-0.4-0.4c-0.1,0-0.1,0.1-0.1,0.5v7.5c0,1.7,1.6,1,1.6,1.5c0,0.1,0,0.2-0.2,0.2
	c-0.5,0-0.9-0.1-1.9-0.1c-0.6,0-1.6,0.1-1.7,0.1s-0.2-0.1-0.2-0.2c0-0.6,1.6,0.2,1.6-2.5v-6.7c0-3.8-2.2-2.7-2.2-3.4
	C59.9,92.4,60,92.3,60.1,92.3L60.1,92.3z M75.2,93.3c-1.2,0-1.2,0.3-1.5,1.3c-0.1,0.2-0.1,0.4-0.3,0.4c-0.1,0-0.2-0.1-0.2-0.2
	c0,0,0,0,0,0l0.2-1.8c0.1-0.2,0-0.7,0.4-0.7c1.4,0,2.9,0.1,5.2,0.1c3.3,0,5-0.1,5.4-0.1s0.5,0.1,0.5,0.5l0.1,1.5
	c0,0.2,0,0.4-0.2,0.4c-0.6,0,0.4-1.4-1.5-1.4h-2.6c-0.8,0-0.8-0.1-0.8,0.9v9.4c0,1.5,1.5,0.9,1.5,1.5c0,0.1,0,0.2-0.1,0.2
	c0,0,0,0,0,0c-0.5,0-1-0.1-1.5-0.1c-2,0-2.4,0.1-2.5,0.1c-0.1,0-0.2,0-0.2-0.1c0,0,0-0.1,0-0.1c0-0.5,1.5-0.2,1.5-1.3v-9.6
	c0-0.1,0.1-0.8-0.2-0.8L75.2,93.3L75.2,93.3z M84.9,92.3c0.7,0,1.3,0.1,2,0.1s1.2-0.1,1.7-0.1c0.4,0,0.4,0.1,0.4,0.2
	c0,0.4-1.3,0-1.3,1.4v4c0,0.2,0,0.3,0.2,0.3h6.7c0.2,0,0.2-0.5,0.2-0.5v-3.7c0-1.3-1.4-1-1.4-1.4c0-0.1,0.1-0.2,0.4-0.2
	c0.6,0,1.5,0.1,1.9,0.1c0.7,0,1-0.1,1.3-0.1s0.5,0.2,0.5,0.3c0,0.3-1.2,0-1.2,1.3v9.7c0,1.3,1.6,1,1.6,1.5c0,0.1-0.1,0.2-0.2,0.2
	c-0.5,0-1-0.1-1.8-0.1c-1.2,0-1.7,0.1-2,0.1c-0.1,0-0.4,0.1-0.4-0.2c0-0.5,1.3-0.2,1.3-1.3v-4.4c0-0.3,0.1-0.5-0.2-0.5h-6.8
	c-0.2,0-0.2,0.1-0.2,0.3v4.5c0,1.3,1.7,0.9,1.7,1.5c-0.1,0.1-0.2,0.1-0.3,0.1c-0.2,0-1.6-0.1-2.5-0.1c-0.5,0-1.1,0-1.6,0.1
	c-0.2,0-0.2-0.1-0.2-0.3c0-0.5,1.5,0.1,1.5-1.7v-9.4c0-1.3-1.6-1-1.6-1.4C84.6,92.3,84.8,92.3,84.9,92.3L84.9,92.3z M104,98.7
	c0,0.9,0.1,0.9-0.6,1.1l-3.7,1.3c-0.3,0.1-0.5,0.2-0.8,0.3c-0.3,0-0.2-0.4-0.2-0.5c0-0.9-0.1-0.9,0.6-1.2l3.7-1.3
	c0.3-0.1,0.5-0.2,0.8-0.3C104,98.2,104,98.6,104,98.7L104,98.7z M67.5,118.6c2.8,0,2.1-2.2,2.7-2.2c0.2,0.1,0.3,0.3,0.3,0.5
	c0,0.9-0.1,1.8-0.1,2.7c0,0.7,0.1,1.4,0.1,2.1c0,0.2-0.1,0.3-0.2,0.3c0,0,0,0,0,0c-0.8,0,0.1-2.3-2.2-2.3h-4c-0.6,0-0.5,0.5-0.5,0.9
	v4.9c0,1.6-0.2,2.2,2,2.2c6.2,0,7.1-2.7,7.5-2.7c0.2,0,0.2,0.2,0.2,0.3c-0.1,1-0.6,1.9-1.3,2.6c-0.9,0.9-1.5,0.9-2.6,0.9
	c-2,0-4.1-0.1-6.1-0.1c-1,0-2.2,0.1-3.3,0.1c-0.2,0-0.4-0.1-0.4-0.2c0.1-0.4,0.4-0.3,1.2-0.7s0.8-1,0.8-2.3v-12.2
	c0-1.2,0-2.5-1.4-2.7c-0.2-0.1-0.8-0.1-0.8-0.5c0-0.2,0.2-0.3,0.9-0.3c5,0,6.4,0.1,7.6,0.1c0.5,0,3-0.1,3.8-0.1
	c0.2,0,0.3,0.2,0.3,0.6c0,3-0.4,3.1-0.5,3.1c-0.6,0-0.2-1.3-0.6-1.9c-0.7-0.9-3.5-0.8-4.5-0.8c-2.6,0-2.5-0.1-2.5,1.7v5
	c0,0.9-0.1,0.9,1,0.9L67.5,118.6L67.5,118.6z M73.4,109.9c0.5,0,0.9,0.1,1.3,0.1s0.8-0.1,1.2-0.1c0.3,0.1,0.5,0.3,0.7,0.6l12.8,14.2
	c0.1,0.1,0.2,0.2,0.3,0.3c0.1-0.1,0.1-0.2,0.1-0.3v-11.2c0-3.5-3-2.5-3-3.4c0-0.1,0.1-0.2,0.2-0.2c0,0,0,0,0.1,0
	c0.8,0,1.6,0.1,2.4,0.1s2.1-0.1,2.7-0.1c0.1,0,0.2,0.1,0.2,0.2c0,0,0,0,0,0c0,0.7-1.6,0.2-1.6,2.2v15.5c0,0.8,0,1.2-0.2,1.2
	c-0.4-0.1-0.8-0.4-1-0.8l-11.5-13c-0.2-0.2-0.4-0.3-0.6-0.5c-0.1,0-0.2,0.1-0.2,0.6v11c0,2.4,2.3,1.5,2.3,2.2c0,0.2,0,0.4-0.3,0.4
	c-0.6,0-1.4-0.1-2.7-0.1c-0.9,0-2.3,0.1-2.5,0.1c-0.4,0-0.4-0.1-0.4-0.3c0-0.9,2.3,0.2,2.3-3.5v-9.9c0-5.5-3.2-4-3.2-5
	C73.1,110,73.3,109.9,73.4,109.9L73.4,109.9z M95.4,111.3c-1.7,0-1.8,0.4-2.2,1.9c-0.1,0.3-0.1,0.6-0.5,0.6c-0.2,0-0.3-0.2-0.2-0.4
	l0.3-2.6c0-0.4,0-1,0.5-1c2.1,0,4.1,0.1,7.6,0.1c4.8,0,7.3-0.1,7.8-0.1c0.4-0.1,0.7,0.1,0.8,0.5c0,0.1,0,0.2,0,0.3l0.1,2.2
	c0,0.2,0.1,0.6-0.3,0.6c-1,0,0.5-2-2.3-2h-3.9c-1,0-1,0.1-1,1.3v13.6c0,2.3,2.2,1.4,2.2,2.2c0,0.1,0,0.2-0.1,0.3c0,0-0.1,0-0.1,0
	c-0.6,0-1.4-0.1-2.2-0.1c-3,0-3.5,0.1-3.7,0.1s-0.3-0.1-0.3-0.4c0-0.6,2.1-0.4,2.1-2v-13.8c0-0.2,0.1-1.2-0.4-1.2L95.4,111.3
	L95.4,111.3z M52.2,133.4c0.6,0,1.2,0.1,1.8,0.1s1-0.1,1.5-0.1c0.3,0,0.3,0.1,0.3,0.1c0,0.4-1.2,0.1-1.2,1.3v3.5
	c0,0.2,0,0.3,0.2,0.3h6c0.2,0,0.2-0.4,0.2-0.5v-3.3c0-1.2-1.2-0.9-1.2-1.2c0-0.1,0-0.2,0.2-0.2c0.6,0,1.4,0.1,1.7,0.1
	c0.6,0,0.9-0.1,1.2-0.1s0.4,0.1,0.4,0.2c0,0.3-1,0-1,1.2v8.6c0,1.2,1.5,0.9,1.5,1.3c0,0.1-0.1,0.2-0.2,0.2c-0.5,0-0.9-0.1-1.5-0.1
	c-1,0-1.5,0.1-1.8,0.1s-0.4,0.1-0.4-0.2s1.2-0.1,1.2-1.2v-3.9c0-0.2,0.1-0.4-0.2-0.4h-6c-0.2,0-0.2,0.1-0.2,0.3v4
	c0,1.1,1.6,0.8,1.6,1.3c-0.1,0.1-0.2,0.1-0.3,0.1c-0.2,0-1.4-0.1-2.3-0.1c-0.4,0-0.9,0-1.3,0.1c-0.1,0-0.2,0-0.2-0.1
	c0,0,0-0.1,0-0.1c0-0.5,1.3,0.1,1.3-1.6v-8.3c0-1.2-1.4-0.9-1.4-1.2C52,133.5,52.1,133.5,52.2,133.4L52.2,133.4z M74.6,140.4v-5.2
	c0-1.7-1.5-1-1.5-1.6c0-0.1,0.1-0.1,0.2-0.1c0.6,0,1.2,0.1,1.9,0.1c0.3,0,0.6-0.1,0.9-0.1c0.1,0,0.2,0.1,0.2,0.2c0,0,0,0,0,0
	c0,0.5-0.9,0.1-0.9,1.6v5c0,0.8,0.2,4.8-4.5,4.8c-4.3,0-5.1-2.4-5.1-4.9v-5.5c0-0.9-1.3-0.6-1.3-1.1c0.1-0.1,0.2-0.1,0.4-0.1
	c0.4,0,0.8,0.1,1.3,0.1s1-0.1,1.5-0.1c0.1,0,0.5-0.1,0.5,0.1c0,0.5-1,0-1,1.2v5.8c-0.1,1.9,1.3,3.6,3.3,3.8c0.2,0,0.4,0,0.6,0
	C73.9,144.4,74.6,142.4,74.6,140.4L74.6,140.4z M86.8,144.9c-1.1-0.1-2-0.8-2.5-1.8l-1.8-2.8c-0.6-0.9-0.4-0.9-2.2-0.9
	c-0.5,0-0.4,0.3-0.4,0.5v3.4c0,1.4,1.7,0.9,1.7,1.5c0,0.2-0.2,0.1-0.3,0.1s-0.5-0.1-1.9-0.1c-0.6,0-1.2,0.1-1.9,0.1
	c-0.1,0-0.2,0-0.2-0.1c0,0,0,0,0,0c0-0.4,1.2-0.2,1.2-1.4V135c0-1.6-1.4-0.9-1.4-1.5c0-0.1,0.1-0.2,0.3-0.2s0.2,0.1,1,0.1
	s1.9-0.1,2.7-0.1c0.3,0,3.9-0.4,3.9,2.8c-0.1,1.3-0.9,2.4-2.1,2.8l2.7,4.1c1.2,1.8,2,1.2,2,1.6C87.5,144.9,87.1,145,86.8,144.9
	L86.8,144.9z M84,136.5c0-2-1.5-2.6-3.1-2.6c-0.6,0-0.9-0.1-0.9,0.6v4.1c0,0.3,1,0.2,1.8,0.2c1.2,0.1,2.2-0.8,2.3-2
	C84,136.8,84,136.7,84,136.5L84,136.5z M98.3,134.3c0.2,0,0.2,0.2,0.2,1.3c0,0.9,0.2,1.4-0.1,1.4c-0.2-0.1-0.4-0.3-0.4-0.5
	c-1-1.8-2.2-2.8-4.3-2.8c-3.1,0-4.7,2.1-4.7,5.1c0,2.9,1.6,5.7,4.7,5.7c1.8,0.1,3.5-0.8,4.4-2.3c0-0.1,0.1-0.2,0.2-0.2
	c0.1,0,0.2,0.1,0.2,0.2l-0.4,1.6c0,0.1-1.2,1.3-4.8,1.3c-3,0.2-5.6-2.1-5.8-5.1c0-0.2,0-0.4,0-0.6c-0.1-3.3,2.4-6,5.7-6.1
	c0.1,0,0.1,0,0.2,0c3,0,3.9,1.3,4.4,1.3C98,134.6,98.1,134.4,98.3,134.3L98.3,134.3z M45.2,104.5c-0.1,0.4-0.3,0.8-0.6,1
	c-0.3,0-0.5-0.8-0.7-1.2l-4.5-10.7c-0.5-1.1-1.4-0.8-1.4-1.2c0-0.1,0.1-0.2,0.2-0.2c0,0,0,0,0,0c0.5,0,1.1,0.1,1.7,0.1
	s1.2-0.1,1.4-0.1c0.1,0,0.2,0.1,0.3,0.2c0,0.2-0.8,0.2-0.8,0.9c0,0.2,0.1,0.5,0.2,0.7l3.2,7.6c0.4,0.9,0.5,1.3,0.7,1.3
	c0.2-0.1,0.3-0.3,0.4-0.5l3.2-7.9c0.2-0.4,0.2-0.8,0.2-1.3c0-0.8-1.2-0.5-1.2-0.9c0-0.1,0.1-0.2,0.2-0.2c0,0,0,0,0,0
	c0.4,0,0.8,0.1,1.2,0.1c0.9,0,1.2-0.1,1.5-0.1c0.1,0,0.3,0.1,0.3,0.2c0,0,0,0,0,0c0,0.4-0.5-0.1-1,1.2L45.2,104.5z M36.2,105.2
	c-1.4,0-2.8-0.1-4.2-0.1c-0.7,0-1.5,0.1-2.2,0.1c-0.2,0-0.3-0.1-0.3-0.2s0.2-0.2,0.8-0.5s0.5-0.8,0.5-1.6v-8.4c0-0.8,0-1.7-1-1.9
	c-0.2,0-0.6-0.1-0.6-0.3s0.1-0.2,0.6-0.2c3.5,0,4.4,0.1,5.2,0.1c0.4,0,2-0.1,2.6-0.1c0.2,0,0.2,0.2,0.2,0.4c0,2-0.2,2.2-0.4,2.2
	c-0.5,0-0.1-0.9-0.5-1.3C36.7,92.9,34.7,93,34,93c-1.8,0-1.7-0.1-1.7,1.2v3.4c0,0.6-0.1,0.6,0.6,0.6h2c1.9,0,1.5-1.5,1.9-1.5
	c0.2,0,0.3,0.2,0.2,0.3c0,0,0,0,0,0c0,0.6-0.1,1.2-0.1,1.8s0.1,1,0.1,1.5c0,0.1-0.1,0.2-0.2,0.2c0,0,0,0,0,0c-0.6,0,0.1-1.6-1.5-1.6
	h-2.8c-0.4,0-0.3,0.3-0.3,0.6v3.3c0,1.1-0.2,1.6,1.3,1.6c4.3,0,4.9-1.9,5.1-1.9s0.1,0.2,0.1,0.2c-0.1,0.7-0.4,1.3-0.9,1.8
	C37.5,105.2,36.8,105.4,36.2,105.2L36.2,105.2z M51.3,127.7c-0.3,0.7-0.5,1.6-0.9,1.6s-0.8-1.2-1-1.7l-6.6-15.6
	c-0.6-1.6-2.1-1.1-2.1-1.7c0-0.2,0.2-0.4,0.3-0.4c0,0,0,0,0.1,0c0.8,0,1.6,0.1,2.5,0.1s1.8-0.1,2.1-0.1c0.2,0,0.3,0.1,0.4,0.2
	c0.1,0.4-1,0.4-1,1.4c0,0.4,0.1,0.7,0.2,1l4.7,11c0.6,1.5,0.8,2,1,2c0.3-0.2,0.5-0.4,0.5-0.8l4.6-11.4c0.3-0.6,0.4-1.2,0.4-1.8
	c0-1.2-1.8-0.8-1.8-1.3c0-0.2,0.1-0.3,0.3-0.4c0,0,0.1,0,0.1,0c0.6,0,1.2,0.1,1.8,0.1c1.3,0,1.6-0.1,2-0.1c0.2,0,0.4,0.1,0.5,0.3
	c0,0,0,0,0,0.1c0,0.6-0.8-0.1-1.5,1.7L51.3,127.7z M18,104.1l-0.6-3.1c-0.1-0.5,0-0.8,0.2-0.8s0.4,0.3,0.5,0.8
	c0.7,2.2,2.8,3.7,5.1,3.7c2.3,0,4.6-1.3,4.6-3.9c0-4.7-9.9-2.1-9.9-8.5c0-3.1,2.6-4.6,5.4-4.6c1.4-0.1,2.8,0.2,4.1,0.9
	c0.2,0,0.3-0.3,0.5-0.3c0.2,0,0.3,0.1,0.3,0.3c0,0,0,0,0,0l0.4,3.3c0.1,0.2,0,0.4-0.2,0.4c-0.3-0.1-0.5-0.4-0.5-0.8
	c-0.7-2-2.6-3.3-4.7-3.1c-1.9,0-4,0.9-4,3.1c-0.1,4.6,9.9,2,9.9,8.6c0,2.1-1.5,5.1-7,5.1C20.3,105.5,18,104.6,18,104.1L18,104.1z
	 M46.1,145c-3,0.2-5.6-2.1-5.7-5.1c0-0.2,0-0.3,0-0.5c-0.1-3.2,2.4-5.9,5.6-6c0,0,0.1,0,0.1,0c3,0,3.9,1.3,4.4,1.3
	c0.1-0.1,0.3-0.1,0.4-0.2c0.2,0,0.2,0.2,0.2,1.3c0,0.9,0.2,1.4-0.1,1.4c-0.2-0.1-0.3-0.3-0.4-0.5c-1-1.8-2.2-2.8-4.3-2.8
	c-3.2,0-4.7,2.1-4.7,5.1c0,2.9,1.6,5.7,4.7,5.7c1.8,0.1,3.5-0.8,4.4-2.3c0-0.1,0.1-0.2,0.2-0.2c0.1,0,0.1,0.1,0.1,0.2l-0.4,1.6
	C50.8,143.8,49.7,145.1,46.1,145L46.1,145z M27.9,128.7c-0.2,0-1.6,0.1-2.5,0.1c-1.5,0-2.3-0.1-3.5-0.1c-1,0-1.9,0.1-2.9,0.1
	c-0.2,0-0.8,0-0.8-0.4c0-0.9,2.1-0.5,2.1-1.9c-0.2-1.1-0.6-2.3-1-3.3l-1.2-2.9c-0.4-0.8-0.5-1.3-1.5-1.3H8.8
	c-0.7-0.2-1.4,0.2-1.7,0.8l-2.2,5c-0.2,0.4-0.3,0.8-0.3,1.2c0,2.5,2.5,1.4,2.5,2.3c0,0.6-0.5,0.5-0.9,0.5c-1,0-2-0.1-3-0.1
	s-1.9,0.1-2.9,0.1c-0.2,0-0.3-0.2-0.3-0.4c0,0,0,0,0,0c0-0.7,1.6-0.1,2.6-2.2l8.5-18c2.1-4.5,2.2-5.1,2.7-5.1s0.6,1,0.8,1.3
	l7.3,18.3c0.5,1.4,1,2.7,1.8,4c0.4,0.7,1.1,1.1,1.8,1.1c0.6,0,1-0.7,1-1.9v-13.4c0-2.7-2.2-1.9-2.2-2.6c0-0.2,0.2-0.3,0.3-0.2
	c0,0,0,0,0,0c0.8,0,1.6,0.1,2.4,0.1c1.8,0,3.5-0.1,5.8-0.1c4.7,0,9.4,3.6,9.4,8.5c0,6.1-2.9,10.4-10.3,10.4
	C30.5,128.8,29.2,128.8,27.9,128.7L27.9,128.7z M28.6,112.2v12.7c-0.1,0.6,0,1.3,0.2,1.9c0.9,0.9,2.9,1.2,4.1,1.2
	c3.8,0,7.4-2,7.4-8.2c0-6-4-9.3-9-9.3C28.7,110.6,28.5,111,28.6,112.2L28.6,112.2z M12.6,108.2l-4,8.6c-0.2,0.5,0,0.6,0.5,0.6h7
	c0.8,0,0.8-0.2,0.6-0.7l-3.5-8.4C13,107.8,12.8,107.8,12.6,108.2L12.6,108.2z M147.1,110.7l0.1,2.2c0,0.2,0.1,0.6-0.3,0.6
	c-1,0,0.5-2-2.3-2h-3.9c-1,0-1,0.1-1,1.3v13.6c0,2.3,2.2,1.4,2.2,2.2c0,0.1,0,0.2-0.1,0.3c0,0-0.1,0-0.1,0c-0.6,0-1.4-0.1-2.2-0.1
	c-3,0-3.5,0.1-3.7,0.1s-0.3-0.1-0.3-0.4c0-0.6,2.1-0.4,2.1-2v-13.8c0-0.2,0.1-1.2-0.4-1.2h-5.5c-1.6,0-1.6,0.6-1.6,1.5
	c0,0.3,0.2,1.5-0.3,1.5c-0.3-0.2-0.5-0.5-0.6-0.8c-0.8-2.3-2.7-3.1-5-3.1c-2.2,0-4.4,1-4.4,3.5c0,5,10.9,2.1,10.9,9.5
	c0,2.3-1.6,5.7-7.6,5.7c-2,0-4.4-1-4.5-1.5l-0.6-3.4c-0.1-0.5,0-0.8,0.3-0.8s0.4,0.4,0.5,0.9c0.8,2.4,3,4.1,5.6,4c2.6,0,5-1.4,5-4.3
	c0-5.1-10.9-2.3-10.9-9.2c0-3.4,2.9-5,6-5c1.5,0,3.1,0.3,4.5,0.9c0.4,0,0.5-0.7,1-0.7c2.1,0,5.1,0.1,8.5,0.1c4.8,0,7.3-0.1,7.8-0.1
	c0.4-0.1,0.7,0.2,0.8,0.5C147.1,110.5,147.1,110.6,147.1,110.7z"/>
<path class="st0" d="M68.8,69.4v-3.5h4.9v-0.3c0-3.5-1.6-6-12.7-4.1l-18.2,3.2L32.4,79.3l25.1-4.5c7.5-1.3,14.1-1.6,16.2,4.4v-9.8
	L68.8,69.4L68.8,69.4z"/>
<path class="st0" d="M77.2,79.2c0-4.7,2.8-8,8.5-13.7l4-4l18.4,3.2l10.5,14.6l-24.1-4.2C86.3,73.5,79.4,73,77.2,79.2z"/>
<path class="st0" d="M78.2,65.9c1.8-3.9,5.7-7.5,7.9-9.7l1.6-1.6c6.8-6.8,8.1-9.6,8.5-14.2c0.3,0.5,0.4,1.1,0.5,1.7
	c0.4,2.5,0.1,5.1-0.8,7.5c-1.4,4.1-4.7,7.4-9,11.7l-4.7,4.6L78.2,65.9L78.2,65.9z"/>
<path class="st0" d="M82.1,9.2c0,0,0.1-0.1,0.1,0v5.4c0,4.9-6.3,10.5-8.8,13l-9.2,9.2c-3.2,3.2-9.5,9.5-6.9,15.5
	c0.1,0.2,0.2,0.4-0.2,0.1c-0.7-0.5-1.7-2.2-2-5.3c-0.5-5.5,3.3-10.5,7.9-15.1l8.8-8.8C80.8,14.4,81.7,12.9,82.1,9.2z"/>
<path class="st0" d="M73.5,36.8c2.5-2.5,8.8-8.1,8.8-13v-5.4c0-0.1-0.1,0-0.1,0c-0.4,3.6-1.3,5.2-10.2,14.1l-8.1,8.1
	c-3,3-5.7,6.1-5.5,11.1c0.1,3.1,1.6,5.6,3.9,6.2c1,0.2,0.9,0.1,0.7,0c-3.3-1.5-3-7.5,2.3-12.8L73.5,36.8z"/>
<path class="st0" d="M63.3,28.7c-6.8,6.8-8.1,9.6-8.5,14.2c-0.3-0.5-0.4-1.1-0.5-1.7c-0.4-2.5-0.1-5.1,0.8-7.5
	c1.4-4.1,4.7-7.4,9-11.7l7.9-7.9C80.9,5.2,81.7,3.7,82.2,0c0,0,0.1-0.1,0.1,0v5.4c0,4.9-6.3,10.5-8.8,13L63.3,28.7z"/>
<path class="st0" d="M77.3,74.8h-0.1v-5.4h2.2C78.3,71,77.6,72.8,77.3,74.8z"/>
<path class="st0" d="M77.3,65.9h-0.1v-5.5c0-4.1,4-8.5,8-12.5l2.6-2.6c2.1-2.1,8.5-8.4,5.8-14.4c-0.1-0.2-0.2-0.4,0.2-0.1
	c0.7,0.5,1.7,2.2,2,5.3c0.5,5.5-3.3,10.5-7.9,15.1l-2.4,2.4C79.7,59.4,77.8,62,77.3,65.9z"/>
<path class="st0" d="M77.3,56.5h-0.1v-5.5c0-3.9,3.9-8.1,5.8-10l2.9-2.9c5.3-5.3,5.5-11.2,2.3-12.8c-0.2-0.1-0.3-0.2,0.7,0
	c2.3,0.6,3.9,3.1,3.9,6.2c0.1,5-2.5,8.1-5.5,11l-2.4,2.4C79.9,49.8,77.8,52.7,77.3,56.5z"/>
<path class="st0" d="M118.9,68.8c1.1,0,2.1,0.9,2.1,2.1c0,1.1-0.9,2.1-2.1,2.1c-0.6,0-1.2-0.3-1.6-0.7c-0.7-0.8-0.7-1.9,0-2.7
	C117.7,69,118.3,68.8,118.9,68.8z M118.9,69c-1,0-1.8,0.8-1.8,1.9s0.8,1.8,1.9,1.8c1,0,1.8-0.8,1.8-1.9c0-0.5-0.2-1-0.5-1.3
	C119.9,69.2,119.4,69,118.9,69z M119.2,70.9l0.5,0.7l0.1,0.1c0.1,0.2,0.2,0.3,0.4,0.3h0c0,0.1-0.1,0.1-0.3,0.1
	c-0.2,0-0.4-0.2-0.5-0.4l-0.4-0.6l0,0c0,0-0.1-0.1-0.1-0.1h-0.3v0.6c0,0.1,0,0.2,0,0.3c0.1,0.1,0.2,0.1,0.2,0.1c0,0,0.1,0,0.1,0.1
	c0,0,0,0.1-0.1,0.1H118c0,0-0.1,0-0.1,0c0,0,0,0,0,0c0,0,0-0.1,0.1-0.1c0.1,0,0.1-0.1,0.2-0.1c0-0.1,0-0.2,0-0.4V70
	c0-0.1,0-0.2-0.2-0.3h-0.1c0,0-0.1,0-0.1-0.1c0,0,0,0,0,0c0,0,0-0.1,0.1-0.1h0.8c0.6,0,0.8,0.2,0.8,0.6
	C119.5,70.5,119.4,70.8,119.2,70.9L119.2,70.9z M118.6,70.8h0.2c0.2,0,0.4-0.1,0.5-0.3c0,0,0-0.1,0-0.1c0-0.1-0.1-0.3-0.2-0.4
	c-0.1-0.1-0.3-0.2-0.4-0.1c-0.1,0-0.1,0-0.2,0.1c0,0,0,0,0,0v0.8c0,0,0,0.1,0,0.1L118.6,70.8L118.6,70.8z"/>
<path class="st0" d="M150.6,106.5c1.1,0,2.1,0.9,2.1,2.1c0,1.1-0.9,2.1-2.1,2.1c-0.6,0-1.2-0.3-1.6-0.7c-0.7-0.8-0.7-1.9,0-2.7
	C149.4,106.7,150,106.4,150.6,106.5z M150.6,106.7c-1,0-1.8,0.8-1.8,1.9s0.8,1.8,1.9,1.8c1,0,1.8-0.8,1.8-1.9c0-0.5-0.2-1-0.5-1.3
	C151.5,106.9,151.1,106.7,150.6,106.7L150.6,106.7z M150.8,108.5l0.5,0.7l0.1,0.1c0.1,0.2,0.2,0.3,0.4,0.3h0c0,0.1-0.1,0.1-0.3,0.1
	c-0.2,0-0.4-0.2-0.5-0.4l-0.4-0.6l0,0c0,0-0.1-0.1-0.1-0.1h-0.3v0.7c0,0.1,0,0.2,0,0.3c0.1,0.1,0.2,0.1,0.2,0.1c0,0,0.1,0,0.1,0.1
	c0,0,0,0.1-0.1,0.1h-0.8c0,0-0.1,0-0.1,0c0,0,0,0,0,0c0,0,0-0.1,0.1-0.1c0.1,0,0.1-0.1,0.2-0.1c0-0.1,0-0.2,0-0.4v-1.4
	c0-0.1,0-0.2-0.2-0.3h-0.1c0,0-0.1,0-0.1-0.1c0,0,0,0,0,0c0,0,0-0.1,0.1-0.1h0.8c0.6,0,0.8,0.2,0.8,0.6
	C151.2,108.2,151,108.4,150.8,108.5L150.8,108.5z M150.3,108.5h0.2c0.2,0,0.4-0.1,0.5-0.3c0,0,0-0.1,0-0.1c0-0.1-0.1-0.3-0.2-0.4
	c-0.1-0.1-0.3-0.2-0.4-0.1c-0.1,0-0.1,0-0.2,0.1c0,0,0,0,0,0v0.8c0,0,0,0.1,0,0.1L150.3,108.5z"/>
</svg>
