<svg xmlns="http://www.w3.org/2000/svg" viewBox="0 0 448.58 132.8"><defs><style>.a{fill:#fff;}.b{fill:none;}</style></defs><title>logo-nad-2017</title><path class="a" d="M58.28,51c-4,4-5.9,5.9-6.9,10.7-.1.4-.5.4-.5,0V55.8c0-3.8,3.4-7.2,7.4-11.2l3.2-3.2c4.5-4.5,5.3-9.6,2-12.9-.3-.3-.1-.6.2-.4,4.5,2,8,9.5.3,17.1Z"/><path class="a" d="M58.28,54.9l4.4-4.4c2.9-2.9,8.8-8.9,6.6-15-.1-.4.1-.6.4-.3,3.9,4.8,2.6,12.2-5.1,19.9l-6.3,6.3c-4,4-5.9,5.9-6.9,10.7-.1.4-.5.4-.5,0V66.2C51,62.4,54.28,58.9,58.28,54.9Z"/><path class="a" d="M49.28,31.7c4-4,5.9-5.9,6.9-10.7.1-.4.5-.4.5,0v5.9c0,3.8-3.4,7.2-7.4,11.2L37.08,50.4c-4.5,4.5-5.6,10.1-2.6,13.4.3.3.1.6-.2.4-4.5-2-7.4-10,.3-17.7Z"/><path class="a" d="M49.28,27.8l-13,13c-2.9,2.9-9.7,9.6-7.5,16,.1.4-.1.6-.4.3-4-5.4-2.3-12.4,5.8-20.6l15.1-15.1c4-4,5.9-5.9,6.9-10.7.1-.4.5-.4.5,0v5.9C56.68,20.4,53.28,23.8,49.28,27.8Z"/><path class="a" d="M49.28,11c4-4,5.9-5.9,6.9-10.7.1-.4.5-.4.5,0V6.2c0,3.8-3.4,7.2-7.4,11.2L34.18,32.5c-6.3,6.3-7.8,10-8.1,14.1,0,.4-.3.4-.5,0-1.3-4.5-.4-11.5,6.2-18.1Z"/><path class="a" d="M41.08,76.3a.22.22,0,0,1-.2-.2V72.7a.22.22,0,0,1,.2-.2h5.8a.22.22,0,0,0,.2-.2c0-3.1-2.3-5.2-11.6-3.5l-20,3.4L.08,87.6a.3.3,0,0,0,.3.5c.3,0,33.3-5.7,33.3-5.7,7.6-1.3,11.7,2.3,13,5.7.1.3.5.3.5,0V76.7a.22.22,0,0,0-.2-.2h-5.9Z"/><path class="a" d="M15.48,72,.08,87.4a.3.3,0,0,0,.3.5c.3,0,33.3-5.7,33.3-5.7"/><path class="a" d="M82.58,72,98,87.4a.3.3,0,0,1-.3.5c-.3,0-33.3-5.7-33.3-5.7-7.6-1.3-11.7,2.3-13,5.7-.1.3-.5.3-.5,0V86.8c0-3.8,3.4-7.2,7.4-11.2l6.6-6.6Z"/><path class="a" d="M72.38,45.7c-.1-.4-.4-.4-.5,0-.1,3.9-1.1,7.1-8.1,14.1l-5.5,5.5c-2.5,2.5-4.8,4.8-6.1,7.1h5.5l.6-.6,7.9-7.9C72.88,57.2,73.78,50.2,72.38,45.7Z"/><path class="a" d="M51,76.5a.22.22,0,0,1,.2-.2h2.9a14.9,14.9,0,0,0-2.7,6.1c-.1.4-.5.4-.5,0V76.5Z"/><path class="a" d="M133.18,41.7a19.92,19.92,0,0,1-8.5-1.5l1.2-3.2a19.57,19.57,0,0,0,7.4,1.3c4.6,0,7-1.9,7-5S138.58,29,133,27c-5.3-1.9-7.9-4.4-7.9-9.2s4-7.9,9.8-7.9a21,21,0,0,1,8.5,1.7l-1.3,3.3a19.47,19.47,0,0,0-7.3-1.6c-3.8,0-5.8,1.8-5.8,4.5,0,3.1,1.7,4.4,6.7,6.2,5.4,2,8.4,4.1,8.4,8.9C144.18,38.5,140,41.7,133.18,41.7Zm33.5-13.5v2.3h-15.8c.1,5.2,2.8,8,7.4,8a18.1,18.1,0,0,0,6.3-1.1l1.1,2.9a17.77,17.77,0,0,1-7.6,1.5c-6.6,0-11.1-4.1-11.1-11.8s4.1-12.2,10.2-12.2C163.08,17.7,166.68,21.9,166.68,28.2Zm-15.8-.8h11.8c0-3.9-1.8-6.6-5.6-6.6C153.48,20.8,151.28,23.3,150.88,27.4ZM168,18.1h4.1L177,31.7a58.1,58.1,0,0,1,1.9,6.1h.2c.3-1.4,1.3-4.3,1.9-6.1l4.9-13.6H190l-8.8,23.1h-4.4Zm43,10.1v2.3h-15.8c.1,5.2,2.8,8,7.4,8a18.1,18.1,0,0,0,6.3-1.1l1.1,2.9a17.77,17.77,0,0,1-7.6,1.5c-6.6,0-11.1-4.1-11.1-11.8s4.1-12.2,10.2-12.2C207.38,17.7,211,21.9,211,28.2Zm-15.7-.8h11.8c0-3.9-1.8-6.6-5.6-6.6S195.68,23.3,195.28,27.4Zm39.4-1.2V41.3h-3.8V26.5c0-3.7-1.6-5.6-5.2-5.6-5.1,0-6.8,3-6.8,8.4v12h-3.8V18.1h3.1l.6,3.2h.2a8.48,8.48,0,0,1,7.3-3.6C231.78,17.7,234.68,20.3,234.68,26.2ZM250.18,38l1,2.7a9,9,0,0,1-4.2.9c-3.6,0-6.8-1.6-6.8-7.2V14.3l3.8-1.4v5.2h6.7v3H244V34.5c0,2.8,1.5,4.1,3.6,4.1A6.64,6.64,0,0,0,250.18,38Zm8.6-19.9a30.48,30.48,0,0,1-.2,3.2h.3a8.19,8.19,0,0,1,7.2-3.6c5.6,0,8.5,2.5,8.5,8.5V41.3h-3.8V26.5c0-3.7-1.6-5.6-5.2-5.6-5.2,0-6.8,3-6.8,8.4v12H255V9.9l3.8-1.4Zm19.4,9.9h10.4l1.3,3.4h-10.4ZM293,29.8c0-7.9,3.8-12,9.5-12a8.5,8.5,0,0,1,7.2,3.4h.3a33.1,33.1,0,0,1-.3-3.4V9.9l3.8-1.5V41.2h-3.1l-.6-3.1h-.2a8.18,8.18,0,0,1-7.2,3.5C296.78,41.7,293,37.7,293,29.8Zm16.8.7v-.7c0-5.7-1.6-8.9-6.7-8.9-4.1,0-6.1,3.5-6.1,9s2,8.7,6.2,8.7C308,38.6,309.78,35.9,309.78,30.5Zm26-5V41.3H333l-.7-3.3h-.2c-2,2.5-3.9,3.7-7.8,3.7-4.2,0-7.3-2.2-7.3-6.9s3.5-7.1,11.1-7.4l3.9-.1V25.9c0-3.8-1.8-5.1-4.8-5.1a15.33,15.33,0,0,0-6.5,1.8l-1.2-2.8a17.05,17.05,0,0,1,7.9-2C333.08,17.8,335.78,20.1,335.78,25.5Zm-7.2,4.6c-5.8.2-7.6,1.9-7.6,4.8,0,2.6,1.7,3.8,4.2,3.8,3.9,0,6.8-2.1,6.8-6.6V30Zm13-12,5,13.2a31.41,31.41,0,0,1,1.9,6.3h.2a48,48,0,0,1,2-6.3l4.7-13.1h4.1l-10,26.3c-1.6,4.4-3.1,6-6.2,7.2l-1.2-3.1c1.8-.8,2.5-1.6,3.5-4.1l1.2-3.1-9.2-23.3Z"/><path class="b" d="M207.48,67.6c-3.6,0-5.8,2.5-6.2,6.6h11.8C213.08,70.3,211.38,67.6,207.48,67.6Z"/><path class="b" d="M160.38,67.7c-4.1,0-6.1,3.5-6.1,9s2,8.7,6.2,8.7c4.9,0,6.6-2.7,6.6-8.1v-.7C167.08,70.9,165.58,67.7,160.38,67.7Z"/><path class="b" d="M135.88,61.1c-.4,1.8-1,3.6-1.3,4.6L131,75.1h9.8l-3.5-9.3C137.08,65.1,136.18,62.2,135.88,61.1Z"/><path class="a" d="M187.08,78.6c-.6,1.9-1.6,4.7-1.9,6.1H185a58.1,58.1,0,0,0-1.9-6.1L178.18,65h-4.1l8.8,23.1h4.4l8.8-23.1H192Z"/><path class="a" d="M134.18,57.1l-12,31h3.9l3.7-9.5H142l3.7,9.5h4l-12-31Zm-3.2,18,3.5-9.3c.3-1,.9-2.9,1.3-4.6.3,1.1,1.2,3.9,1.5,4.6l3.5,9.3Z"/><path class="a" d="M207.58,64.5c-6.1,0-10.2,4.6-10.2,12.2s4.5,11.8,11.1,11.8a17.77,17.77,0,0,0,7.6-1.5L215,84.1a18.1,18.1,0,0,1-6.3,1.1c-4.6,0-7.3-2.8-7.4-8h15.8V74.9C217.08,68.7,213.48,64.5,207.58,64.5Zm-6.2,9.7c.4-4.1,2.5-6.6,6.2-6.6s5.6,2.7,5.6,6.6Z"/><path class="a" d="M167.08,64.5a33.1,33.1,0,0,0,.3,3.4h-.3a8.36,8.36,0,0,0-7.2-3.4c-5.7,0-9.5,4.1-9.5,12s3.8,12,9.5,12a8.42,8.42,0,0,0,7.2-3.5h.2l.6,3.1H171V55.3l-3.8,1.5v7.7Zm0,12.8c0,5.4-1.8,8.1-6.6,8.1-4.1,0-6.2-3.2-6.2-8.7s2-9,6.1-9c5.1,0,6.7,3.2,6.7,8.9Z"/><path class="a" d="M279.88,74.8c-4.4-1.7-6-2.5-6-4.4,0-1.7,1.7-2.8,4.8-2.8a16.26,16.26,0,0,1,6.5,1.5l1.2-3.1a17.49,17.49,0,0,0-7.4-1.6c-5.2,0-8.7,2.2-8.7,6.1s2.7,5.2,7.2,6.9,5.7,2.8,5.7,4.5c0,2.1-1.6,3.4-5.5,3.4a18.36,18.36,0,0,1-6.2-1.3l-1.1,2.9a15.61,15.61,0,0,0,7.3,1.5c5.7,0,9.2-2.3,9.2-6.8C286.88,78,284.28,76.5,279.88,74.8Z"/><path class="a" d="M299,85.4c-2.1,0-3.6-1.3-3.6-4.1V67.9h6.7V65h-6.7V59.7l-3.8,1.4V81.4c0,5.6,3.2,7.2,6.8,7.2a8.74,8.74,0,0,0,4.2-.9l-1-2.7A17.82,17.82,0,0,1,299,85.4Z"/><path class="b" d="M306.58,57.4h-.4v1.1h.4a.53.53,0,0,0,.6-.6C307.18,57.6,307,57.4,306.58,57.4Z"/><path class="b" d="M306.68,56.1a2.34,2.34,0,0,0-2.4,2.5,2.4,2.4,0,1,0,4.8,0A2.45,2.45,0,0,0,306.68,56.1Zm.7,4.2-.8-1.3h-.5v1.3h-.6V56.9h1c.9,0,1.3.3,1.3,1a1,1,0,0,1-.6.9l.9,1.5Z"/><path class="a" d="M307.78,57.9c0-.7-.4-1-1.3-1h-1v3.4h.6V59h.5l.8,1.3h.7l-.9-1.5A1,1,0,0,0,307.78,57.9Zm-1.2.6h-.4V57.4h.4c.4,0,.6.2.6.5A.58.58,0,0,1,306.58,58.5Z"/><path class="a" d="M306.68,55.7a2.7,2.7,0,0,0-2.8,2.9,2.73,2.73,0,0,0,2.8,2.8,2.82,2.82,0,0,0,2.9-2.8A2.9,2.9,0,0,0,306.68,55.7Zm0,5.3a2.37,2.37,0,0,1-2.4-2.4,2.4,2.4,0,1,1,4.8,0A2.37,2.37,0,0,1,306.68,61Z"/><rect class="a" x="261.58" y="64.9" width="3.8" height="23.1"/><path class="a" d="M253.68,85.4c-2.1,0-3.6-1.3-3.6-4.1V67.9h6.7V65h-6.7V59.7l-3.8,1.4V81.4c0,5.6,3.2,7.2,6.8,7.2a8.74,8.74,0,0,0,4.2-.9l-1-2.7A15.89,15.89,0,0,1,253.68,85.4Z"/><path class="a" d="M232.38,64.5a8.48,8.48,0,0,0-7.3,3.6h-.2l-.6-3.2h-3.1V88.1H225v-12c0-5.4,1.6-8.4,6.8-8.4,3.5,0,5.2,1.9,5.2,5.6V88.1h3.8V73C240.78,67.1,237.88,64.5,232.38,64.5Z"/><path class="a" d="M263.48,56.3c-1.3,0-2.2.7-2.2,2.4a2.21,2.21,0,1,0,4.4,0A2.11,2.11,0,0,0,263.48,56.3Z"/><path class="a" d="M320.18,72.7c0,7.6,3.5,12.4,10.6,12.4a19.17,19.17,0,0,0,7.9-1.6l1.1,3a19.76,19.76,0,0,1-9.6,2c-9.5,0-14.2-6.2-14.2-15.9,0-9.3,5.3-15.8,14.8-15.8a17.42,17.42,0,0,1,8.2,1.7l-1.3,3.4a16,16,0,0,0-7-1.7C324.28,60.2,320.18,64.9,320.18,72.7Zm27.2-7.8a30.48,30.48,0,0,1-.2,3.2h.3a8.19,8.19,0,0,1,7.2-3.6c5.6,0,8.5,2.5,8.5,8.5V88.1h-3.8V73.3c0-3.7-1.6-5.6-5.2-5.6-5.2,0-6.8,3-6.8,8.4v12h-3.8V56.7l3.8-1.4Zm40.5,23.2h-3.1l-.6-3.1H384c-1.5,2.4-4.4,3.5-7.3,3.5-5.6,0-8.4-2.5-8.4-8.4V64.9h3.8V79.8c0,3.7,1.6,5.5,5.1,5.5,5.1,0,6.8-3,6.8-8.4v-12h3.8V88.1Zm19.4-23.3-.5,3.5a10.07,10.07,0,0,0-2.5-.3c-3.6,0-6.7,3.1-6.7,7.8V88.1h-3.8V64.9h3.1l.4,4.2h.2c1.5-2.5,3.8-4.7,7.1-4.7A25.12,25.12,0,0,1,407.28,64.8Zm.7,11.8c0-8.5,4.6-12.1,10.8-12.1a14.92,14.92,0,0,1,6.1,1.3l-1.2,3.2a16.54,16.54,0,0,0-5-1.1c-4.6,0-6.8,3-6.8,8.8,0,5.6,2.2,8.6,6.6,8.6a11.94,11.94,0,0,0,5.1-1.1l1.2,3a12.76,12.76,0,0,1-6.3,1.4C412.38,88.5,408,84.8,408,76.6Zm24.8-11.7a30.48,30.48,0,0,1-.2,3.2h.3a8.19,8.19,0,0,1,7.2-3.6c5.6,0,8.5,2.5,8.5,8.5V88.1h-3.8V73.3c0-3.7-1.6-5.6-5.2-5.6-5.2,0-6.8,3-6.8,8.4v12H429V56.7l3.8-1.4Z"/><path class="a" d="M133.38,132.6l-6.9-10.7h-.1c.1.8.1,2.2.1,3.5v7.2H125V119.7h1.9l6.9,10.6h.1c0-.6-.1-2.2-.1-3.4v-7.3h1.5v12.9h-1.9Z"/><path class="a" d="M147.88,132.8c-4,0-5.9-2.7-5.9-6.6s1.9-6.6,6-6.6c3.9,0,5.9,2.6,5.9,6.6S151.68,132.8,147.88,132.8Zm0-1.4c2.9,0,4.2-2,4.2-5.2s-1.3-5.2-4.2-5.2-4.3,1.9-4.3,5.2S145,131.4,147.88,131.4Z"/><path class="a" d="M168.58,123.4a3.32,3.32,0,0,1-2.6,3.4l3.5,5.8h-1.9l-3.1-5.3h-2.6v5.3h-1.6V119.7h3.5C167.08,119.8,168.58,121,168.58,123.4Zm-6.7-2.2V126h1.9c2.1,0,3-.8,3-2.5s-1-2.3-3.1-2.3Z"/><path class="a" d="M177.88,132.6V121.2h-4l.5-1.4h9.1v1.4h-4v11.4Z"/><path class="a" d="M197.48,132.6v-6h-6.6v6h-1.6V119.7h1.6v5.4h6.6v-5.4h1.6v12.9Z"/><path class="a" d="M220.38,128.7h-5.1l-1.5,4h-1.6l5-12.9h1.5l5,12.9H222Zm-2-5.4c-.1-.3-.5-1.5-.6-1.9a14.49,14.49,0,0,1-.6,1.9l-1.5,3.9h4.1Z"/><path class="a" d="M230.68,121.4h0c0,.7.1,2.1.1,3.5v7.8h-1.5V119.8h2.4l4,10.5h.1l4-10.5h2.4v12.9h-1.6v-7.9c0-1.2.1-2.6.1-3.4h-.1l-4.3,11.3H235Z"/><path class="a" d="M249.28,132.6V119.7h7.2v1.4h-5.6v4h4.8v1.4h-4.8v4.6h6l-.5,1.4h-7.1Z"/><path class="a" d="M271.18,123.4a3.32,3.32,0,0,1-2.6,3.4l3.5,5.8h-1.9l-3.1-5.3h-2.6v5.3H263V119.7h3.5C269.68,119.8,271.18,121,271.18,123.4Zm-6.6-2.2V126h1.9c2.1,0,3-.8,3-2.5s-1-2.3-3.1-2.3Z"/><path class="a" d="M277.38,132.6l.5-1.4h1v-10h-1.5v-1.4H282l-.5,1.4h-1v10H282v1.4Z"/><path class="a" d="M289.08,126.2c0,3.2,1.5,5.2,4.4,5.2a10.78,10.78,0,0,0,3.3-.6l.5,1.2a7.78,7.78,0,0,1-4,.8c-3.9,0-5.9-2.6-5.9-6.6s2.2-6.6,6.2-6.6a7.12,7.12,0,0,1,3.4.7l-.5,1.4a6.53,6.53,0,0,0-2.9-.7C290.78,121,289.08,123,289.08,126.2Z"/><path class="a" d="M310.48,128.7h-5.1l-1.5,4h-1.6l5-12.9h1.5l5,12.9H312Zm-1.9-5.4c-.1-.3-.5-1.5-.6-1.9a14.5,14.5,0,0,1-.6,1.9l-1.5,3.9H310Z"/><path class="a" d="M327.68,132.6l-6.9-10.7h-.1c.1.8.1,2.2.1,3.5v7.2h-1.5V119.7h1.9l6.9,10.6h.1c0-.6-.1-2.2-.1-3.4v-7.3h1.5v12.9h-1.9Z"/><path class="a" d="M347.88,132.6h-3.6V119.7h4c3.9,0,6.3,2.2,6.3,6.3C354.58,130.4,352.08,132.6,347.88,132.6Zm.1-11.4h-2.1v10.1h1.7c3.5,0,5.2-1.7,5.2-5.1S351.08,121.2,348,121.2Z"/><path class="a" d="M359.88,132.6l.5-1.4h1v-10h-1.5v-1.4h4.6l-.5,1.4h-1v10h1.5v1.4Z"/><path class="a" d="M375.88,132.6h-1.6l-4.6-12.9h1.7l2.9,8.3a25.54,25.54,0,0,1,.8,2.8,20.52,20.52,0,0,1,.8-2.8l2.9-8.2h1.7Z"/><path class="a" d="M385.58,132.6l.5-1.4h1v-10h-1.5v-1.4h4.6l-.5,1.4h-1v10h1.5v1.4Z"/><path class="a" d="M399.48,132.8a8.47,8.47,0,0,1-3.5-.6l.5-1.3a7.6,7.6,0,0,0,3.1.5c1.9,0,2.9-.8,2.9-2.1s-.7-1.8-3-2.7-3.3-1.8-3.3-3.8,1.7-3.3,4.1-3.3a9.61,9.61,0,0,1,3.6.7l-.5,1.4a7.45,7.45,0,0,0-3.1-.7c-1.6,0-2.4.8-2.4,1.9,0,1.3.7,1.8,2.8,2.6,2.3.8,3.5,1.7,3.5,3.7C404.08,131.5,402.28,132.8,399.48,132.8Z"/><path class="a" d="M409.68,132.6l.5-1.4h1v-10h-1.5v-1.4h4.6l-.5,1.4h-1v10h1.5v1.4Z"/><path class="a" d="M425.58,132.8c-4,0-5.9-2.7-5.9-6.6s1.9-6.6,6-6.6c3.9,0,5.9,2.6,5.9,6.6S429.48,132.8,425.58,132.8Zm0-1.4c2.9,0,4.2-2,4.2-5.2s-1.3-5.2-4.2-5.2-4.3,1.9-4.3,5.2S422.68,131.4,425.58,131.4Z"/><path class="a" d="M446.38,132.6l-6.9-10.7h-.1c.1.8.1,2.2.1,3.5v7.2H438V119.7h1.9l6.9,10.6h.1c0-.6-.1-2.2-.1-3.4v-7.3h1.5v12.9h-1.9Z"/><path class="b" d="M96,77h-.4v1.1H96a.53.53,0,0,0,.6-.6C96.58,77.2,96.38,77,96,77Z"/><path class="b" d="M96,75.8a2.34,2.34,0,0,0-2.4,2.5,2.4,2.4,0,1,0,4.8,0A2.28,2.28,0,0,0,96,75.8Zm.8,4.1L96,78.6h-.5v1.3H95V76.5h1c.9,0,1.3.3,1.3,1a1,1,0,0,1-.6.9l.9,1.5Z"/><path class="a" d="M97.18,77.5c0-.7-.4-1-1.3-1h-1v3.4h.6V78.6H96l.8,1.3h.7l-.9-1.5A.91.91,0,0,0,97.18,77.5Zm-1.2.6h-.4V77H96c.4,0,.6.2.6.5A.58.58,0,0,1,96,78.1Z"/><path class="a" d="M96,75.3a2.7,2.7,0,0,0-2.8,2.9A2.73,2.73,0,0,0,96,81a2.85,2.85,0,1,0,0-5.7Zm0,5.3a2.37,2.37,0,0,1-2.4-2.4,2.4,2.4,0,1,1,4.8,0A2.26,2.26,0,0,1,96,80.6Z"/></svg>