<?xml version="1.0" encoding="utf-8"?>
<!-- Generator: Adobe Illustrator 21.0.2, SVG Export Plug-In . SVG Version: 6.00 Build 0)  -->
<svg version="1.1" id="Layer_2" xmlns="http://www.w3.org/2000/svg" xmlns:xlink="http://www.w3.org/1999/xlink" x="0px" y="0px"
	 viewBox="0 0 448.5 132.7" style="enable-background:new 0 0 448.5 132.7;" xml:space="preserve">
<style type="text/css">
	.st0{fill:#FFFFFF;}
	.st1{fill:none;}
</style>
<g>
	<g>
		<g>
			<g>
				<g>
					<g>
						<g>
							<path class="st0" d="M58.3,50.9c-4,4-5.9,5.9-6.9,10.7c-0.1,0.4-0.5,0.4-0.5,0v-5.9c0-3.8,3.4-7.2,7.4-11.2l3.2-3.2
								c4.5-4.5,5.3-9.6,2-12.9c-0.3-0.3-0.1-0.6,0.2-0.4c4.5,2,8,9.5,0.3,17.1L58.3,50.9z"/>
							<path class="st0" d="M58.3,54.8l4.4-4.4c2.9-2.9,8.8-8.9,6.6-15c-0.1-0.4,0.1-0.6,0.4-0.3c3.9,4.8,2.6,12.2-5.1,19.9
								l-6.3,6.3c-4,4-5.9,5.9-6.9,10.7c-0.1,0.4-0.5,0.4-0.5,0v-5.9C51,62.3,54.3,58.8,58.3,54.8z"/>
							<path class="st0" d="M49.3,31.6c4-4,5.9-5.9,6.9-10.7c0.1-0.4,0.5-0.4,0.5,0v5.9c0,3.8-3.4,7.2-7.4,11.2L37.1,50.3
								c-4.5,4.5-5.6,10.1-2.6,13.4c0.3,0.3,0.1,0.6-0.2,0.4c-4.5-2-7.4-10,0.3-17.7L49.3,31.6z"/>
							<path class="st0" d="M49.3,27.7l-13,13c-2.9,2.9-9.7,9.6-7.5,16c0.1,0.4-0.1,0.6-0.4,0.3c-4-5.4-2.3-12.4,5.8-20.6l15.1-15.1
								c4-4,5.9-5.9,6.9-10.7c0.1-0.4,0.5-0.4,0.5,0v5.9C56.7,20.3,53.3,23.7,49.3,27.7z"/>
							<path class="st0" d="M49.3,10.9c4-4,5.9-5.9,6.9-10.7c0.1-0.4,0.5-0.4,0.5,0v5.9c0,3.8-3.4,7.2-7.4,11.2L34.2,32.4
								c-6.3,6.3-7.8,10-8.1,14.1c0,0.4-0.3,0.4-0.5,0C24.3,42,25.2,35,31.8,28.4L49.3,10.9z"/>
							<path class="st0" d="M41.1,76.2c-0.1,0-0.2-0.1-0.2-0.2v-3.4c0-0.1,0.1-0.2,0.2-0.2l5.8,0c0.1,0,0.2-0.1,0.2-0.2
								c0-3.1-2.3-5.2-11.6-3.5l-20,3.4c0,0-15.2,15.2-15.4,15.4c-0.2,0.2,0,0.6,0.3,0.5c0.3,0,33.3-5.7,33.3-5.7
								c7.6-1.3,11.7,2.3,13,5.7c0.1,0.3,0.5,0.3,0.5,0c0-0.2,0-11.4,0-11.4c0-0.1-0.1-0.2-0.2-0.2H41.1z"/>
							<path class="st0" d="M15.5,71.9c0,0-15.2,15.2-15.4,15.4c-0.2,0.2,0,0.6,0.3,0.5c0.3,0,33.3-5.7,33.3-5.7"/>
							<path class="st0" d="M82.6,71.9c0,0,15.2,15.2,15.4,15.4c0.2,0.2,0,0.6-0.3,0.5c-0.3,0-33.3-5.7-33.3-5.7
								c-7.6-1.3-11.7,2.3-13,5.7c-0.1,0.3-0.5,0.3-0.5,0l0-1.1c0-3.8,3.4-7.2,7.4-11.2l6.6-6.6L82.6,71.9z"/>
							<g>
								<path class="st0" d="M72.4,45.6c-0.1-0.4-0.4-0.4-0.5,0c-0.1,3.9-1.1,7.1-8.1,14.1l-5.5,5.5c-2.5,2.5-4.8,4.8-6.1,7.1h5.5
									c0.2-0.2,0.4-0.4,0.6-0.6l7.9-7.9C72.9,57.1,73.8,50.1,72.4,45.6z"/>
							</g>
							<path class="st0" d="M51,76.4c0-0.1,0.1-0.2,0.2-0.2l2.9,0c-1.3,1.7-2.1,3.5-2.7,6.1c-0.1,0.4-0.5,0.4-0.5,0V76.4z"/>
						</g>
					</g>
				</g>
			</g>
		</g>
		<g>
			<path class="st0" d="M133.2,41.6c-3.5,0-6.5-0.5-8.5-1.5l1.2-3.2c1.3,0.6,4.1,1.3,7.4,1.3c4.6,0,7-1.9,7-5c0-3-1.7-4.3-7.3-6.3
				c-5.3-1.9-7.9-4.4-7.9-9.2c0-4.9,4-7.9,9.8-7.9c3.4,0,6.2,0.7,8.5,1.7l-1.3,3.3c-2.2-0.9-4.7-1.6-7.3-1.6c-3.8,0-5.8,1.8-5.8,4.5
				c0,3.1,1.7,4.4,6.7,6.2c5.4,2,8.4,4.1,8.4,8.9C144.2,38.4,140,41.6,133.2,41.6z M166.7,28.1v2.3h-15.8c0.1,5.2,2.8,8,7.4,8
				c2.2,0,4.5-0.4,6.3-1.1l1.1,2.9c-2.4,1-4.4,1.5-7.6,1.5c-6.6,0-11.1-4.1-11.1-11.8c0-7.6,4.1-12.2,10.2-12.2
				C163.1,17.6,166.7,21.8,166.7,28.1z M150.9,27.3h11.8c0-3.9-1.8-6.6-5.6-6.6C153.5,20.7,151.3,23.2,150.9,27.3z M168,18h4.1
				l4.9,13.6c0.7,1.9,1.6,4.7,1.9,6.1h0.2c0.3-1.4,1.3-4.3,1.9-6.1l4.9-13.6h4.1l-8.8,23.1h-4.4L168,18z M211,28.1v2.3h-15.8
				c0.1,5.2,2.8,8,7.4,8c2.2,0,4.5-0.4,6.3-1.1l1.1,2.9c-2.4,1-4.4,1.5-7.6,1.5c-6.6,0-11.1-4.1-11.1-11.8c0-7.6,4.1-12.2,10.2-12.2
				C207.4,17.6,211,21.8,211,28.1z M195.3,27.3h11.8c0-3.9-1.8-6.6-5.6-6.6C197.8,20.7,195.7,23.2,195.3,27.3z M234.7,26.1v15.1
				h-3.8V26.4c0-3.7-1.6-5.6-5.2-5.6c-5.1,0-6.8,3-6.8,8.4v12h-3.8V18h3.1l0.6,3.2h0.2c1.5-2.4,4.4-3.6,7.3-3.6
				C231.8,17.6,234.7,20.2,234.7,26.1z M250.2,37.9l1,2.7c-0.8,0.5-2.5,0.9-4.2,0.9c-3.6,0-6.8-1.6-6.8-7.2V14.2l3.8-1.4V18h6.7V21
				H244v13.4c0,2.8,1.5,4.1,3.6,4.1C248.5,38.5,249.6,38.2,250.2,37.9z M258.8,18c0,1.1-0.1,2.3-0.2,3.2h0.3
				c1.5-2.4,4.2-3.6,7.2-3.6c5.6,0,8.5,2.5,8.5,8.5v15.1h-3.8V26.4c0-3.7-1.6-5.6-5.2-5.6c-5.2,0-6.8,3-6.8,8.4v12H255V9.8l3.8-1.4
				V18z M278.2,27.9h10.4l1.3,3.4h-10.4L278.2,27.9z M293,29.7c0-7.9,3.8-12,9.5-12c3.6,0,5.7,1.5,7.2,3.4h0.3
				c-0.1-0.7-0.3-2.5-0.3-3.4V9.8l3.8-1.5v32.8h-3.1l-0.6-3.1h-0.2c-1.4,2-3.6,3.5-7.2,3.5C296.8,41.6,293,37.6,293,29.7z
				 M309.8,30.4v-0.7c0-5.7-1.6-8.9-6.7-8.9c-4.1,0-6.1,3.5-6.1,9c0,5.5,2,8.7,6.2,8.7C308,38.5,309.8,35.8,309.8,30.4z M335.8,25.4
				v15.8H333l-0.7-3.3h-0.2c-2,2.5-3.9,3.7-7.8,3.7c-4.2,0-7.3-2.2-7.3-6.9c0-4.6,3.5-7.1,11.1-7.4l3.9-0.1v-1.4
				c0-3.8-1.8-5.1-4.8-5.1c-2.4,0-4.6,0.9-6.5,1.8l-1.2-2.8c2-1.1,4.9-2,7.9-2C333.1,17.7,335.8,20,335.8,25.4z M328.6,30
				c-5.8,0.2-7.6,1.9-7.6,4.8c0,2.6,1.7,3.8,4.2,3.8c3.9,0,6.8-2.1,6.8-6.6v-2.1L328.6,30z M341.6,18l5,13.2
				c0.9,2.3,1.6,4.4,1.9,6.3h0.2c0.3-1.4,1.1-4,2-6.3l4.7-13.1h4.1l-10,26.3c-1.6,4.4-3.1,6-6.2,7.2l-1.2-3.1
				c1.8-0.8,2.5-1.6,3.5-4.1l1.2-3.1L337.6,18H341.6z"/>
			<g>
				<path class="st1" d="M207.5,67.5c-3.6,0-5.8,2.5-6.2,6.6h11.8C213.1,70.2,211.4,67.5,207.5,67.5z"/>
				<path class="st1" d="M160.4,67.6c-4.1,0-6.1,3.5-6.1,9c0,5.5,2,8.7,6.2,8.7c4.9,0,6.6-2.7,6.6-8.1v-0.7
					C167.1,70.8,165.6,67.6,160.4,67.6z"/>
				<path class="st1" d="M135.9,61c-0.4,1.8-1,3.6-1.3,4.6L131,75h9.8l-3.5-9.3C137.1,65,136.2,62.1,135.9,61z"/>
				<path class="st0" d="M187.1,78.5c-0.6,1.9-1.6,4.7-1.9,6.1H185c-0.3-1.4-1.2-4.2-1.9-6.1l-4.9-13.6h-4.1l8.8,23.1h4.4l8.8-23.1
					H192L187.1,78.5z"/>
				<path class="st0" d="M134.2,57l-12,31h3.9l3.7-9.5H142l3.7,9.5h4l-12-31H134.2z M131,75l3.5-9.3c0.3-1,0.9-2.9,1.3-4.6
					c0.3,1.1,1.2,3.9,1.5,4.6l3.5,9.3H131z"/>
				<path class="st0" d="M207.6,64.4c-6.1,0-10.2,4.6-10.2,12.2c0,7.7,4.5,11.8,11.1,11.8c3.2,0,5.2-0.5,7.6-1.5l-1.1-2.9
					c-1.8,0.7-4.1,1.1-6.3,1.1c-4.6,0-7.3-2.8-7.4-8h15.8v-2.3C217.1,68.6,213.5,64.4,207.6,64.4z M201.4,74.1
					c0.4-4.1,2.5-6.6,6.2-6.6c3.8,0,5.6,2.7,5.6,6.6H201.4z"/>
				<path class="st0" d="M167.1,64.4c0,0.9,0.2,2.7,0.3,3.4h-0.3c-1.4-1.9-3.6-3.4-7.2-3.4c-5.7,0-9.5,4.1-9.5,12s3.8,12,9.5,12
					c3.6,0,5.8-1.6,7.2-3.5h0.2l0.6,3.1h3.1V55.2l-3.8,1.5V64.4z M167.1,77.2c0,5.4-1.8,8.1-6.6,8.1c-4.1,0-6.2-3.2-6.2-8.7
					c0-5.5,2-9,6.1-9c5.1,0,6.7,3.2,6.7,8.9V77.2z"/>
				<path class="st0" d="M279.9,74.7c-4.4-1.7-6-2.5-6-4.4c0-1.7,1.7-2.8,4.8-2.8c2.2,0,4.5,0.6,6.5,1.5l1.2-3.1
					c-2.2-1-4.6-1.6-7.4-1.6c-5.2,0-8.7,2.2-8.7,6.1c0,3.8,2.7,5.2,7.2,6.9c4.5,1.7,5.7,2.8,5.7,4.5c0,2.1-1.6,3.4-5.5,3.4
					c-2.2,0-4.7-0.7-6.2-1.3l-1.1,2.9c1.8,0.9,4,1.5,7.3,1.5c5.7,0,9.2-2.3,9.2-6.8C286.9,77.9,284.3,76.4,279.9,74.7z"/>
				<path class="st0" d="M299,85.3c-2.1,0-3.6-1.3-3.6-4.1V67.8h6.7v-2.9h-6.7v-5.3l-3.8,1.4v20.3c0,5.6,3.2,7.2,6.8,7.2
					c1.8,0,3.4-0.4,4.2-0.9l-1-2.7C301,85,299.8,85.3,299,85.3z"/>
				<g>
					<path class="st1" d="M306.6,57.3h-0.4v1.1h0.4c0.4,0,0.6-0.2,0.6-0.6C307.2,57.5,307,57.3,306.6,57.3z"/>
					<path class="st1" d="M306.7,56c-1.4,0-2.4,1-2.4,2.5c0,1.3,1,2.4,2.4,2.4c1.3,0,2.4-1,2.4-2.4C309.1,57.2,308.1,56,306.7,56z
						 M307.4,60.2l-0.8-1.3h-0.5v1.3h-0.6v-3.4h1c0.9,0,1.3,0.3,1.3,1c0,0.5-0.3,0.7-0.6,0.9l0.9,1.5H307.4z"/>
					<path class="st0" d="M307.8,57.8c0-0.7-0.4-1-1.3-1h-1v3.4h0.6v-1.3h0.5l0.8,1.3h0.7l-0.9-1.5
						C307.5,58.5,307.8,58.3,307.8,57.8z M306.6,58.4h-0.4v-1.1h0.4c0.4,0,0.6,0.2,0.6,0.5C307.2,58.1,307,58.4,306.6,58.4z"/>
					<path class="st0" d="M306.7,55.6c-1.7,0-2.8,1.2-2.8,2.9c0,1.6,1.2,2.8,2.8,2.8c1.6,0,2.9-1.2,2.9-2.8
						C309.5,56.8,308.3,55.6,306.7,55.6z M306.7,60.9c-1.4,0-2.4-1.1-2.4-2.4c0-1.4,1-2.5,2.4-2.5c1.4,0,2.4,1.1,2.4,2.5
						C309.1,59.9,308,60.9,306.7,60.9z"/>
				</g>
				<rect x="261.6" y="64.8" class="st0" width="3.8" height="23.1"/>
				<path class="st0" d="M253.7,85.3c-2.1,0-3.6-1.3-3.6-4.1V67.8h6.7v-2.9h-6.7v-5.3l-3.8,1.4v20.3c0,5.6,3.2,7.2,6.8,7.2
					c1.8,0,3.4-0.4,4.2-0.9l-1-2.7C255.7,85,254.6,85.3,253.7,85.3z"/>
				<path class="st0" d="M232.4,64.4c-2.9,0-5.8,1.2-7.3,3.6h-0.2l-0.6-3.2h-3.1V88h3.8V76c0-5.4,1.6-8.4,6.8-8.4
					c3.5,0,5.2,1.9,5.2,5.6V88h3.8V72.9C240.8,67,237.9,64.4,232.4,64.4z"/>
				<path class="st0" d="M263.5,56.2c-1.3,0-2.2,0.7-2.2,2.4c0,1.6,1,2.4,2.2,2.4c1.2,0,2.2-0.8,2.2-2.4
					C265.7,56.9,264.7,56.2,263.5,56.2z"/>
			</g>
			<path class="st0" d="M320.2,72.6c0,7.6,3.5,12.4,10.6,12.4c2.7,0,6-0.6,7.9-1.6l1.1,3c-3.5,1.6-5.7,2-9.6,2
				c-9.5,0-14.2-6.2-14.2-15.9c0-9.3,5.3-15.8,14.8-15.8c3.2,0,5.9,0.5,8.2,1.7l-1.3,3.4c-1.9-0.9-4.2-1.7-7-1.7
				C324.3,60.1,320.2,64.8,320.2,72.6z M347.4,64.8c0,1.1-0.1,2.3-0.2,3.2h0.3c1.5-2.4,4.2-3.6,7.2-3.6c5.6,0,8.5,2.5,8.5,8.5V88
				h-3.8V73.2c0-3.7-1.6-5.6-5.2-5.6c-5.2,0-6.8,3-6.8,8.4v12h-3.8V56.6l3.8-1.4V64.8z M387.9,88h-3.1l-0.6-3.1H384
				c-1.5,2.4-4.4,3.5-7.3,3.5c-5.6,0-8.4-2.5-8.4-8.4V64.8h3.8v14.9c0,3.7,1.6,5.5,5.1,5.5c5.1,0,6.8-3,6.8-8.4v-12h3.8V88z
				 M407.3,64.7l-0.5,3.5c-0.7-0.2-1.7-0.3-2.5-0.3c-3.6,0-6.7,3.1-6.7,7.8V88h-3.8V64.8h3.1l0.4,4.2h0.2c1.5-2.5,3.8-4.7,7.1-4.7
				C405.4,64.4,406.5,64.5,407.3,64.7z M408,76.5c0-8.5,4.6-12.1,10.8-12.1c2.3,0,4.7,0.6,6.1,1.3l-1.2,3.2c-1.4-0.5-3.4-1.1-5-1.1
				c-4.6,0-6.8,3-6.8,8.8c0,5.6,2.2,8.6,6.6,8.6c1.9,0,3.6-0.4,5.1-1.1l1.2,3c-1.3,0.8-3.6,1.4-6.3,1.4
				C412.4,88.4,408,84.7,408,76.5z M432.8,64.8c0,1.1-0.1,2.3-0.2,3.2h0.3c1.5-2.4,4.2-3.6,7.2-3.6c5.6,0,8.5,2.5,8.5,8.5V88h-3.8
				V73.2c0-3.7-1.6-5.6-5.2-5.6c-5.2,0-6.8,3-6.8,8.4v12H429V56.6l3.8-1.4V64.8z"/>
		</g>
		<g>
			<path class="st0" d="M133.4,132.5l-6.9-10.7h-0.1c0.1,0.8,0.1,2.2,0.1,3.5v7.2h-1.5v-12.9h1.9l6.9,10.6h0.1
				c0-0.6-0.1-2.2-0.1-3.4v-7.3h1.5v12.9H133.4z"/>
			<path class="st0" d="M147.9,132.7c-4,0-5.9-2.7-5.9-6.6c0-3.9,1.9-6.6,6-6.6c3.9,0,5.9,2.6,5.9,6.6
				C153.8,130.1,151.7,132.7,147.9,132.7z M147.9,131.3c2.9,0,4.2-2,4.2-5.2c0-3.2-1.3-5.2-4.2-5.2c-2.9,0-4.3,1.9-4.3,5.2
				C143.6,129.3,145,131.3,147.9,131.3z"/>
			<path class="st0" d="M168.6,123.3c0,2.1-1.3,3-2.6,3.4l3.5,5.8h-1.9l-3.1-5.3h-2.6v5.3h-1.6v-12.9h3.5
				C167.1,119.7,168.6,120.9,168.6,123.3z M161.9,121.1v4.8h1.9c2.1,0,3-0.8,3-2.5c0-1.7-1-2.3-3.1-2.3H161.9z"/>
			<path class="st0" d="M177.9,132.5v-11.4h-4l0.5-1.4h9.1v1.4h-4v11.4H177.9z"/>
			<path class="st0" d="M197.5,132.5v-6h-6.6v6h-1.6v-12.9h1.6v5.4h6.6v-5.4h1.6v12.9H197.5z"/>
			<path class="st0" d="M220.4,128.6h-5.1l-1.5,4h-1.6l5-12.9h1.5l5,12.9h-1.7L220.4,128.6z M218.4,123.2c-0.1-0.3-0.5-1.5-0.6-1.9
				c-0.2,0.7-0.4,1.5-0.6,1.9l-1.5,3.9h4.1L218.4,123.2z"/>
			<path class="st0" d="M230.7,121.3L230.7,121.3c0,0.7,0.1,2.1,0.1,3.5v7.8h-1.5v-12.9h2.4l4,10.5h0.1l4-10.5h2.4v12.9h-1.6v-7.9
				c0-1.2,0.1-2.6,0.1-3.4h-0.1l-4.3,11.3H235L230.7,121.3z"/>
			<path class="st0" d="M249.3,132.5v-12.9h7.2v1.4h-5.6v4h4.8v1.4h-4.8v4.6h6l-0.5,1.4H249.3z"/>
			<path class="st0" d="M271.2,123.3c0,2.1-1.3,3-2.6,3.4l3.5,5.8h-1.9l-3.1-5.3h-2.6v5.3H263v-12.9h3.5
				C269.7,119.7,271.2,120.9,271.2,123.3z M264.6,121.1v4.8h1.9c2.1,0,3-0.8,3-2.5c0-1.7-1-2.3-3.1-2.3H264.6z"/>
			<path class="st0" d="M277.4,132.5l0.5-1.4h1v-10h-1.5v-1.4h4.6l-0.5,1.4h-1v10h1.5v1.4H277.4z"/>
			<path class="st0" d="M289.1,126.1c0,3.2,1.5,5.2,4.4,5.2c1.1,0,2.5-0.3,3.3-0.6l0.5,1.2c-1.4,0.7-2.4,0.8-4,0.8
				c-3.9,0-5.9-2.6-5.9-6.6c0-3.9,2.2-6.6,6.2-6.6c1.3,0,2.5,0.2,3.4,0.7l-0.5,1.4c-0.8-0.4-1.8-0.7-2.9-0.7
				C290.8,120.9,289.1,122.9,289.1,126.1z"/>
			<path class="st0" d="M310.5,128.6h-5.1l-1.5,4h-1.6l5-12.9h1.5l5,12.9H312L310.5,128.6z M308.6,123.2c-0.1-0.3-0.5-1.5-0.6-1.9
				c-0.2,0.7-0.4,1.5-0.6,1.9l-1.5,3.9h4.1L308.6,123.2z"/>
			<path class="st0" d="M327.7,132.5l-6.9-10.7h-0.1c0.1,0.8,0.1,2.2,0.1,3.5v7.2h-1.5v-12.9h1.9l6.9,10.6h0.1
				c0-0.6-0.1-2.2-0.1-3.4v-7.3h1.5v12.9H327.7z"/>
			<path class="st0" d="M347.9,132.5h-3.6v-12.9h4c3.9,0,6.3,2.2,6.3,6.3C354.6,130.3,352.1,132.5,347.9,132.5z M348,121.1h-2.1
				v10.1h1.7c3.5,0,5.2-1.7,5.2-5.1C352.9,122.6,351.1,121.1,348,121.1z"/>
			<path class="st0" d="M359.9,132.5l0.5-1.4h1v-10h-1.5v-1.4h4.6l-0.5,1.4h-1v10h1.5v1.4H359.9z"/>
			<path class="st0" d="M375.9,132.5h-1.6l-4.6-12.9h1.7l2.9,8.3c0.4,1.1,0.6,2,0.8,2.8c0.2-0.8,0.4-1.8,0.8-2.8l2.9-8.2h1.7
				L375.9,132.5z"/>
			<path class="st0" d="M385.6,132.5l0.5-1.4h1v-10h-1.5v-1.4h4.6l-0.5,1.4h-1v10h1.5v1.4H385.6z"/>
			<path class="st0" d="M399.5,132.7c-1.4,0-2.7-0.2-3.5-0.6l0.5-1.3c0.6,0.3,1.7,0.5,3.1,0.5c1.9,0,2.9-0.8,2.9-2.1
				c0-1.3-0.7-1.8-3-2.7c-2.2-0.8-3.3-1.8-3.3-3.8c0-2,1.7-3.3,4.1-3.3c1.4,0,2.6,0.3,3.6,0.7l-0.5,1.4c-0.9-0.4-1.9-0.7-3.1-0.7
				c-1.6,0-2.4,0.8-2.4,1.9c0,1.3,0.7,1.8,2.8,2.6c2.3,0.8,3.5,1.7,3.5,3.7C404.1,131.4,402.3,132.7,399.5,132.7z"/>
			<path class="st0" d="M409.7,132.5l0.5-1.4h1v-10h-1.5v-1.4h4.6l-0.5,1.4h-1v10h1.5v1.4H409.7z"/>
			<path class="st0" d="M425.6,132.7c-4,0-5.9-2.7-5.9-6.6c0-3.9,1.9-6.6,6-6.6c3.9,0,5.9,2.6,5.9,6.6
				C431.6,130.1,429.5,132.7,425.6,132.7z M425.6,131.3c2.9,0,4.2-2,4.2-5.2c0-3.2-1.3-5.2-4.2-5.2c-2.9,0-4.3,1.9-4.3,5.2
				C421.4,129.3,422.7,131.3,425.6,131.3z"/>
			<path class="st0" d="M446.4,132.5l-6.9-10.7h-0.1c0.1,0.8,0.1,2.2,0.1,3.5v7.2h-1.5v-12.9h1.9l6.9,10.6h0.1
				c0-0.6-0.1-2.2-0.1-3.4v-7.3h1.5v12.9H446.4z"/>
		</g>
	</g>
	<g>
		<path class="st1" d="M96,76.9h-0.4V78H96c0.4,0,0.6-0.2,0.6-0.6C96.6,77.1,96.4,76.9,96,76.9z"/>
		<path class="st1" d="M96,75.7c-1.4,0-2.4,1-2.4,2.5c0,1.3,1,2.4,2.4,2.4c1.3,0,2.4-1,2.4-2.4C98.5,76.8,97.5,75.7,96,75.7z
			 M96.8,79.8L96,78.5h-0.5v1.3H95v-3.4h1c0.9,0,1.3,0.3,1.3,1c0,0.5-0.3,0.7-0.6,0.9l0.9,1.5H96.8z"/>
		<path class="st0" d="M97.2,77.4c0-0.7-0.4-1-1.3-1h-1v3.4h0.6v-1.3H96l0.8,1.3h0.7l-0.9-1.5C96.9,78.2,97.2,77.9,97.2,77.4z
			 M96,78h-0.4v-1.1H96c0.4,0,0.6,0.2,0.6,0.5C96.6,77.8,96.3,78,96,78z"/>
		<path class="st0" d="M96,75.2c-1.7,0-2.8,1.2-2.8,2.9c0,1.6,1.2,2.8,2.8,2.8c1.6,0,2.9-1.2,2.9-2.8C98.9,76.4,97.6,75.2,96,75.2z
			 M96,80.5c-1.4,0-2.4-1.1-2.4-2.4c0-1.4,1-2.5,2.4-2.5c1.4,0,2.4,1.1,2.4,2.5C98.5,79.5,97.4,80.5,96,80.5z"/>
	</g>
</g>
</svg>
