<svg xmlns="http://www.w3.org/2000/svg" viewBox="0 0 632.9 132.88"><defs><style>.a{fill:#fff;}</style></defs><title>Asset 1</title><path class="a" d="M47.9,102.47l-30.4,5.4L0,132.07l41.9-7.4c12.6-2.2,23.6-2.6,27,7.4v-16.4H60.7v-5.8h8.2v-.5C69,103.57,66.3,99.27,47.9,102.47Z"/><path class="a" d="M95.7,102.47l-6.8,6.8c-9.5,9.5-14.2,15-14.2,22.9,3.6-10.5,15.2-9.5,28.9-6.9l40.3,6.9L126.4,108Z"/><path class="a" d="M89.7,93.77c-3.7,3.7-10.2,9.6-13.2,16.1h6.7l7.8-7.7c7.1-7.1,12.6-12.6,15-19.4a24.47,24.47,0,0,0,1.3-12.5c-.2-1.4-.8-3.3-.8-2.9-.7,7.8-2.8,12.4-14.1,23.7Z"/><path class="a" d="M68.6,46c4.2-4.1,14.6-13.5,14.6-21.6v-9c0-.1-.2-.1-.2,0-.7,6.1-2.2,8.7-17,23.5L51.4,53.47c-7.7,7.7-14,16-13.2,25.2.5,5.2,2.2,8,3.3,8.8.6.4.4.1.3-.2-4.4-10.1,6.1-20.5,11.4-25.8Z"/><path class="a" d="M83.2,30.77c0-.1-.2-.1-.2,0-.7,6.1-2.2,8.7-17,23.5L52.4,67.87c-4.9,4.9-9.4,10.1-9.2,18.4.1,5.1,2.7,9.3,6.6,10.3,1.6.3,1.5.1,1.1,0-5.5-2.6-5.1-12.4,3.8-21.3l13.9-13.9c4.2-4.1,14.6-13.5,14.6-21.6v-9Z"/><path class="a" d="M37.4,71.47c.7-7.8,2.9-12.4,14.1-23.7l17-17.1c4.2-4.1,14.6-13.5,14.6-21.6v-9c0-.1-.2-.1-.2,0-.7,6.1-2.2,8.7-17,23.5l-13,13.1c-7.1,7.1-12.6,12.6-15,19.4a24.47,24.47,0,0,0-1.3,12.5C36.8,70,37.4,71.87,37.4,71.47Z"/><path class="a" d="M74.7,124.67c0,.1.2.1.2,0a19.52,19.52,0,0,1,3.5-8.9H74.7Z"/><path class="a" d="M92.4,75.67,88.1,80c-6.6,6.6-13.3,14-13.3,20.8v9.1c0,.1.2.1.2,0,.7-6.6,3.9-10.9,13.5-20.5l4-4c7.7-7.7,14-16,13.2-25.2-.5-5.2-2.2-8-3.3-8.8-.6-.4-.4-.1-.3.2C106.5,61.77,95.9,72.27,92.4,75.67Z"/><path class="a" d="M74.8,94.17c0,.1.2.1.2,0,.8-6.3,4.4-11.1,12.6-19.4l3.9-3.9c4.9-4.9,9.4-10.1,9.2-18.4-.1-5.1-2.7-9.3-6.6-10.3-1.6-.3-1.5-.1-1.1,0,5.5,2.6,5.1,12.4-3.8,21.3l-4.9,4.9c-3.1,3.1-9.6,10.2-9.6,16.7v9.1Z"/><path class="a" d="M169.7,58.57l1.2.2a3,3,0,0,1,2.2,1.4,8,8,0,0,1,.6,3.7V85a11.45,11.45,0,0,1-.6,4.4,2.41,2.41,0,0,1-2.1,1.5c-.5,0-.7.2-.7.5s.3.6.8.6a13.59,13.59,0,0,0,1.5-.1h5.2a20.31,20.31,0,0,1,2.9.1,8.47,8.47,0,0,0,1.3.1c.4,0,.6-.1.6-.5s-.3-.4-.7-.5c-1.8-.3-3-.8-3.5-1.4s-.8-1.9-.8-3.8v-9c0-.4.1-.6.4-.6a.86.86,0,0,1,.6.3l.5.5,13.3,13.7.4.5a2.13,2.13,0,0,0,1.5.7h3.2a9.86,9.86,0,0,1,2.1.1c.2,0,.4.1.6.1.5,0,.8-.2.8-.6,0-.2-.2-.4-.6-.5l-1.1-.2a8.73,8.73,0,0,1-4.5-2.6l-12.9-13.8a1.83,1.83,0,0,1-.6-1c0-.2.2-.5.6-.8l8.5-7.7c4.2-3.8,7-5.9,8.5-6.2.8-.2,1.2-.4,1.2-.7s-.3-.5-.7-.5a3.22,3.22,0,0,0-.8.1c-.3,0-1,.1-2.1.1h-1.9l-2.3-.1a16.23,16.23,0,0,1-2.3-.1h-.7c-.5,0-.8.2-.8.5s.4.5,1.1.6q1.8.3,1.8,1.5c0,.9-.8,2-2.4,3.5l-10.6,9.5-.4.3-.4.3c-.1,0-.2-.2-.2-.5v-9.6a8.76,8.76,0,0,1,.4-3.4,3.3,3.3,0,0,1,2-1.5q.6-.3.6-.6c0-.3-.2-.5-.6-.5a8.33,8.33,0,0,0-1.2.1h-4.1a35.9,35.9,0,0,1-4-.2,2.77,2.77,0,0,0-.9-.1c-.4,0-.7.2-.7.5A1.24,1.24,0,0,0,169.7,58.57Z"/><path class="a" d="M204.5,89.77a2.32,2.32,0,0,1-1.9,1.3c-.3.1-.5.2-.5.4a.46.46,0,0,0,.5.4,4.59,4.59,0,0,0,1-.1,8.64,8.64,0,0,1,1.5-.1h2.7a14.17,14.17,0,0,1,2.3.1,5.39,5.39,0,0,0,1.1.1c.4,0,.6-.1.6-.4s-.2-.4-.7-.4a4.5,4.5,0,0,1-2.4-.8,1.69,1.69,0,0,1-.7-1,9.1,9.1,0,0,1-.2-2.1v-6.4a.85.85,0,0,1,.2-.6l.4-.1h2.4a1.42,1.42,0,0,1,1.4.7l.3.4,4.5,6.9a9.59,9.59,0,0,0,2.7,2.9,5,5,0,0,0,2.9.9,9,9,0,0,0,1.8-.2c.5-.1.8-.3.8-.5s-.1-.2-.3-.3h-.6c-1.3-.1-2.7-1.3-4.3-3.5l-.6-.9-5-7.4c3-1.5,4.5-3.6,4.5-6.4a5.54,5.54,0,0,0-2.1-4.7c-1.4-1.1-3.5-1.6-6.3-1.6a25.36,25.36,0,0,0-2.6.1c-1.3.1-2.3.1-2.9.1a7.59,7.59,0,0,1-1.6-.1,8.87,8.87,0,0,1-1.3-.1c-.4,0-.6.1-.6.4s.2.4.6.4l.9.1c1.3.2,2,1.3,2,3.2v15A15.79,15.79,0,0,1,204.5,89.77ZM208.1,68a2.7,2.7,0,0,1,1.5-.4,7.21,7.21,0,0,1,4.8,1.7,5.81,5.81,0,0,1,1.9,4.4,4.9,4.9,0,0,1-1.4,3.6,5.17,5.17,0,0,1-3.8,1.3H209a2.33,2.33,0,0,1-1.1-.2c-.2-.2-.2-.5-.2-1.1v-8A2.23,2.23,0,0,1,208.1,68Z"/><path class="a" d="M232.5,63.37a7.32,7.32,0,0,0,.9.9,2,2,0,0,0,.9.2,1.55,1.55,0,0,0,.8-.2,2.94,2.94,0,0,0,.8-.8l1.6-2.1.6-.8a1.69,1.69,0,0,0,.2-.5.54.54,0,0,0-.3-.4,1.42,1.42,0,0,0-.6-.2c-.2,0-.5.3-.9.8-1,1.4-1.5,2.2-1.8,2.2-.1,0-.2-.1-.4-.3l-.5-.5-.7-.8-.6-.7-.4-.4a.86.86,0,0,0-.6-.3,1.76,1.76,0,0,0-.6.1l-.8.3c-.4.1-.5.3-.5.5a4,4,0,0,0,1,1.3Z"/><path class="a" d="M226.7,89c.1.7.3,1.1.3,1.3s.2.3.4.5a5.46,5.46,0,0,0,2.5.9,12,12,0,0,0,3.1.4,9.23,9.23,0,0,0,6.4-2.2,6.89,6.89,0,0,0,2.5-5.6c0-3.4-2.2-5.8-6.7-7.2a40.06,40.06,0,0,1-4.3-1.6,5.21,5.21,0,0,1-1.6-1.4,3.92,3.92,0,0,1-.9-2.6,3.6,3.6,0,0,1,1.3-2.9,4.79,4.79,0,0,1,3.3-1.2,7.89,7.89,0,0,1,4.5,1.3,6.65,6.65,0,0,1,2.7,3.3q.3.9.6.9c.3,0,.4-.2.4-.6a2.64,2.64,0,0,0-.1-.7l-.3-1.9a8.79,8.79,0,0,1-.2-1.8c0-.6-.2-.9-.5-.9-.1,0-.2,0-.2.1l-.3.2a.76.76,0,0,1-.4.2.37.37,0,0,1-.3-.1l-1.3-.5a8.11,8.11,0,0,0-3.3-.6,8.36,8.36,0,0,0-5.7,1.9,6.31,6.31,0,0,0-.5,9.1,14.82,14.82,0,0,0,5.7,3,21.75,21.75,0,0,1,4.7,2,4.25,4.25,0,0,1,1.6,3.4,4.75,4.75,0,0,1-1.7,3.6,6.36,6.36,0,0,1-4.2,1.5,7.89,7.89,0,0,1-4.6-1.5,7.46,7.46,0,0,1-2.8-3.8q-.3-.9-.6-.9a.46.46,0,0,0-.4.5,10.7,10.7,0,0,0,.5,2.3A8,8,0,0,1,226.7,89Z"/><path class="a" d="M258,92.07a16.84,16.84,0,0,0,9.3-2.7,2,2,0,0,0,.9-1l.1-.3.4-2.2.1-.4v-.2c0-.2-.1-.4-.3-.3s-.4.3-.7,1a7.9,7.9,0,0,1-3.7,3.5,11,11,0,0,1-5.4,1.5,9.62,9.62,0,0,1-7.7-3.6,14,14,0,0,1-3-9.3,10.88,10.88,0,0,1,2.7-7.8,9.56,9.56,0,0,1,7.3-2.9q5.85,0,9.3,6c.3.5.5.8.7.8s.2-.1.3-.2l.1-.2-.1-.5-.6-4.4c-.1-.5-.2-.7-.4-.7a.91.91,0,0,0-.5.3.37.37,0,0,1-.3.1l-.3-.1-.3-.1-.7-.4a14.33,14.33,0,0,0-7.1-1.7,12.51,12.51,0,0,0-9.3,3.8,12.82,12.82,0,0,0-3.7,9.4,12.35,12.35,0,0,0,3.6,9.2A12.78,12.78,0,0,0,258,92.07Z"/><path class="a" d="M275.8,91.77c.4,0,.5-.1.5-.3s-.2-.4-.6-.4a3.92,3.92,0,0,1-1.7-.7,1.59,1.59,0,0,1-.4-1.2,8.31,8.31,0,0,1,.8-2.7l1.2-2.7a6.94,6.94,0,0,1,.9-1.5,5,5,0,0,1,1.7-.2h6.6a2.23,2.23,0,0,1,1.2.2,5.91,5.91,0,0,1,.6,1.2l.9,2.4a14.83,14.83,0,0,1,1.1,3.9,1,1,0,0,1-.9,1.2l-.6.1c-.3.1-.5.2-.5.4a.46.46,0,0,0,.5.4,1.76,1.76,0,0,0,.6-.1,22.1,22.1,0,0,1,3.2-.1,29.35,29.35,0,0,1,3.4.1h.7c.3,0,.5-.1.5-.3a.46.46,0,0,0-.5-.4,4.18,4.18,0,0,1-2.3-.9,7.94,7.94,0,0,1-1.4-2.7l-.4-1-7.8-20.1c-.1-.4-.3-.5-.5-.5s-.4.2-.5.5l-9.4,20.8-.5,1.2a8.63,8.63,0,0,1-1,1.6,2.57,2.57,0,0,1-1,.9l-.7.2c-.2.1-.3.2-.3.4s.2.3.5.3a5.81,5.81,0,0,0,1-.1h2.8l1.7.1Zm1.9-12.6,3.6-7.9c.1-.2.2-.4.3-.3s.3.2.5.6l.1.4,2.9,7.2.1.3a.76.76,0,0,1,.1.4c0,.3-.3.5-.9.5h-6c-.6,0-.8-.2-.8-.5S277.6,79.47,277.7,79.17Z"/><path class="a" d="M303.1,91.67h.5c.3,0,.4-.1.4-.4s-.2-.4-.6-.5a3.12,3.12,0,0,1-1.9-.7,3,3,0,0,1-.6-1.7l-.1-1.3V73.87c0-.5.1-.8.3-.8a.37.37,0,0,1,.3.1l.2.2L317,91l.4.5a.52.52,0,0,0,.4.2c.3,0,.5-.1.5-.4a13,13,0,0,0,.1-2.5V70.27a4.46,4.46,0,0,1,.4-2.4,2.15,2.15,0,0,1,1.5-.9c.3-.1.4-.2.4-.3,0-.3-.2-.4-.5-.4a3.45,3.45,0,0,0-.9.1,9.72,9.72,0,0,1-1.8.1,33.26,33.26,0,0,1-3.4-.1h-.8c-.4,0-.5.1-.5.3a.46.46,0,0,0,.5.4,4.54,4.54,0,0,1,2.6,1,3.22,3.22,0,0,1,.9,2.2l.2,4.2V86c0,.2-.1.3-.2.3s-.2-.1-.5-.4l-16.8-19a1.06,1.06,0,0,0-.9-.5h-3.2c-.3,0-.4.1-.4.3a.46.46,0,0,0,.5.4,3.89,3.89,0,0,1,2.9,2.1,10.09,10.09,0,0,1,1,5v12.4a6.86,6.86,0,0,1-.5,2.9,3.4,3.4,0,0,1-2.1,1.4c-.4.1-.5.3-.5.4s.2.3.5.3a2.25,2.25,0,0,0,.7-.1,6.15,6.15,0,0,1,1.4-.1h.9l1.9.1A5.77,5.77,0,0,0,303.1,91.67Z"/><path class="a" d="M339.6,84.27c0-3.4-2.2-5.8-6.7-7.2a40.06,40.06,0,0,1-4.3-1.6,5.21,5.21,0,0,1-1.6-1.4,3.92,3.92,0,0,1-.9-2.6,3.6,3.6,0,0,1,1.3-2.9,4.79,4.79,0,0,1,3.3-1.2,8.12,8.12,0,0,1,4.5,1.3,6.65,6.65,0,0,1,2.7,3.3q.3.9.6.9c.3,0,.4-.2.4-.6a2.64,2.64,0,0,0-.1-.7l-.3-1.9a8.79,8.79,0,0,1-.2-1.8c0-.6-.2-.9-.5-.9-.1,0-.2,0-.2.1l-.3.2a.76.76,0,0,1-.4.2.37.37,0,0,1-.3-.1l-1.3-.5a8.11,8.11,0,0,0-3.3-.6,8.36,8.36,0,0,0-5.7,1.9,6.31,6.31,0,0,0-.5,9.1,14.82,14.82,0,0,0,5.7,3,21.75,21.75,0,0,1,4.7,2,4.25,4.25,0,0,1,1.6,3.4,4.75,4.75,0,0,1-1.7,3.6,6.36,6.36,0,0,1-4.2,1.5,7.89,7.89,0,0,1-4.6-1.5,7.46,7.46,0,0,1-2.8-3.8q-.3-.9-.6-.9a.46.46,0,0,0-.4.5,10.7,10.7,0,0,0,.5,2.3,14.33,14.33,0,0,0,.5,1.7c.1.7.3,1.1.3,1.3a1.76,1.76,0,0,0,.4.5,5.46,5.46,0,0,0,2.5.9,12,12,0,0,0,3.1.4,9.23,9.23,0,0,0,6.4-2.2A7.63,7.63,0,0,0,339.6,84.27Z"/><path class="a" d="M390.6,91a4.18,4.18,0,0,1-2.3-.9,7.94,7.94,0,0,1-1.4-2.7l-.4-1-7.8-20.1c-.1-.4-.3-.5-.5-.5s-.4.2-.5.5l-9.4,20.8-.5,1.2a8.63,8.63,0,0,1-1,1.6,2.57,2.57,0,0,1-1,.9l-.4.1-.5-.1a5.83,5.83,0,0,1-3.3-2l-9.5-9.9a1.2,1.2,0,0,1-.4-.8c0-.1.2-.3.4-.6l6.2-5.6c3.1-2.8,5.2-4.3,6.3-4.6.6-.1.9-.3.9-.5a.46.46,0,0,0-.5-.4,1.76,1.76,0,0,0-.6.1h-4.6a9.15,9.15,0,0,1-1.7-.1h-.5c-.4,0-.6.1-.6.4s.3.4.8.5c.9.2,1.3.5,1.3,1.1s-.6,1.5-1.8,2.6l-7.8,7-.3.2-.3.2c-.1,0-.2-.1-.2-.4v-7.1a6.87,6.87,0,0,1,.3-2.5,2.66,2.66,0,0,1,1.5-1.1c.3-.1.4-.3.4-.4s-.1-.4-.4-.3a4.4,4.4,0,0,0-.9.1h-3a21.92,21.92,0,0,1-2.9-.1c-.3,0-.5-.1-.7-.1s-.5.1-.5.4.2.3.5.4l.9.2a2.36,2.36,0,0,1,1.6,1,5.83,5.83,0,0,1,.4,2.7v15.5a12.17,12.17,0,0,1-.4,3.3,1.93,1.93,0,0,1-1.6,1.1c-.4,0-.5.1-.5.3s.2.4.6.4a6.61,6.61,0,0,0,1.1-.1h3.8a12.22,12.22,0,0,1,2.2.1c.5,0,.8.1,1,.1s.4-.1.4-.3-.2-.3-.5-.4a5,5,0,0,1-2.6-1,4.63,4.63,0,0,1-.6-2.8v-6.7c0-.3.1-.4.3-.4a.76.76,0,0,1,.4.2l.4.4L359.7,91l.3.3a1.61,1.61,0,0,0,1.1.5h2.4a6.22,6.22,0,0,1,1.6.1h.4c.2,0,.3,0,.4-.1h3.2l1.7.1h.6c.4,0,.5-.1.5-.3s-.2-.4-.6-.4a3.92,3.92,0,0,1-1.7-.7,1.59,1.59,0,0,1-.4-1.2,8.31,8.31,0,0,1,.8-2.7l1.2-2.7a6.94,6.94,0,0,1,.9-1.5,5,5,0,0,1,1.7-.2h6.6a2.23,2.23,0,0,1,1.2.2,5.91,5.91,0,0,1,.6,1.2l.9,2.4a14.83,14.83,0,0,1,1.1,3.9,1,1,0,0,1-.9,1.2l-.6.1c-.3.1-.5.2-.5.4a.46.46,0,0,0,.5.4,1.76,1.76,0,0,0,.6-.1,22.1,22.1,0,0,1,3.2-.1,29.35,29.35,0,0,1,3.4.1h.7c.3,0,.5-.1.5-.3C391.1,91.17,390.9,91,390.6,91Zm-10.7-10.7h-6c-.6,0-.8-.2-.8-.5,0-.1.1-.3.2-.7l3.6-7.9c.1-.2.2-.4.3-.3s.3.2.5.6l.1.4,2.9,7.2.1.3a.76.76,0,0,1,.1.4C380.8,80.17,380.5,80.27,379.9,80.27Z"/><path class="a" d="M201,131.07a6.14,6.14,0,0,1-3.1-1.2,10.72,10.72,0,0,1-1.9-3.7l-.5-1.3-10.6-27.2c-.2-.5-.4-.7-.7-.7s-.5.2-.7.7l-12.7,28.2-.7,1.6a10.23,10.23,0,0,1-1.4,2.2,4.14,4.14,0,0,1-1.3,1.2l-.9.3a.51.51,0,0,0-.4.5c0,.3.2.5.7.5a12.53,12.53,0,0,0,1.4-.1h1.1a22.63,22.63,0,0,1,2.7.1l2.4.1h.8c.5,0,.7-.1.7-.4s-.3-.5-.8-.6a4.55,4.55,0,0,1-2.3-.9,2.06,2.06,0,0,1-.6-1.7,11.56,11.56,0,0,1,1.1-3.7l1.6-3.6a5.79,5.79,0,0,1,1.2-2,5.32,5.32,0,0,1,2.3-.3h8.9a5,5,0,0,1,1.7.2,3.63,3.63,0,0,1,.8,1.6l1.2,3.3a19.6,19.6,0,0,1,1.5,5.2,1.5,1.5,0,0,1-1.2,1.7l-.8.2c-.4.1-.6.2-.6.5s.2.5.6.5a2.81,2.81,0,0,0,.8-.1,40.38,40.38,0,0,1,4.3-.1c2.2,0,3.7,0,4.6.1a5.53,5.53,0,0,1,.9.1c.4,0,.7-.1.7-.4C201.8,131.37,201.5,131.17,201,131.07Zm-14.5-14.4h-8.2c-.8,0-1.1-.2-1.1-.6a2.94,2.94,0,0,1,.3-.9l4.8-10.7c.1-.3.3-.5.4-.5s.4.3.6.8l.2.5,3.9,9.8.1.4a1.76,1.76,0,0,1,.1.6C187.8,116.47,187.3,116.67,186.5,116.67Z"/><path class="a" d="M212.3,106.67a17.73,17.73,0,0,0-2.4.1l-1.7.2a22.75,22.75,0,0,1-2.9.1H204l-1.4-.1c-.3,0-.5.1-.5.4s.2.3.6.4a2.82,2.82,0,0,1,2.1,1,4.91,4.91,0,0,1,.6,2.7v16.4a5.57,5.57,0,0,1-.4,2.7,2.42,2.42,0,0,1-1.6.9c-.3.1-.5.2-.5.4s.2.4.6.4a3.75,3.75,0,0,0,1-.1,32.81,32.81,0,0,1,3.4-.2c1.2,0,2.6.1,4.2.2a13.06,13.06,0,0,0,1.7.1,13.24,13.24,0,0,0,7.3-2.1,11.38,11.38,0,0,0,4.2-4.5,13.32,13.32,0,0,0,1.5-6.3,11.83,11.83,0,0,0-3.4-8.8C221,107.87,217.3,106.67,212.3,106.67Zm7.7,22.9a10.75,10.75,0,0,1-5.6,1.6,12.89,12.89,0,0,1-2.5-.3c-1-.2-1.8-.4-2.5-.6a1.59,1.59,0,0,1-1.1-1.5V110c0-.8.2-1.3.5-1.5.5-.4,1.7-.6,3.7-.6a12,12,0,0,1,6.9,2,10.77,10.77,0,0,1,3.6,4.5,14.51,14.51,0,0,1,1.3,6.3C224.2,124.77,222.8,127.77,220,129.57Z"/><path class="a" d="M252.3,106.87h-3.7a13.62,13.62,0,0,1-1.6-.1h-.5q-.6,0-.6.3c0,.2.3.4,1,.5a1.93,1.93,0,0,1,1.1.4,1,1,0,0,1,.3.8c0,1.2-.9,3.8-2.6,7.9l-4,9.5-.3.7c-.3.7-.5,1-.7,1s-.3-.2-.5-.6l-7-16.1a7.92,7.92,0,0,1-.8-2.6,1.45,1.45,0,0,1,.2-.7,3.05,3.05,0,0,1,.9-.5c.2-.1.4-.2.4-.4s-.2-.3-.5-.3h-.5c-.5,0-.9.1-1.2.1h-5.2c-.3,0-.5.1-.5.4,0,.1.1.2.2.3a11,11,0,0,0,1.1.3,2.65,2.65,0,0,1,1.4.7,9,9,0,0,1,1.2,2.1l9.2,21.4c.3.6.5.9.8.9s.5-.3.7-.9l9.1-21.2.5-1.2a3.47,3.47,0,0,1,2-2.1c.3-.1.4-.2.4-.4S252.5,106.87,252.3,106.87Z"/><path class="a" d="M272.4,127a.54.54,0,0,0-.4.3c-1.4,2.2-4.4,3.2-9.2,3.2a5.54,5.54,0,0,1-2.8-.4c-.4-.3-.6-.9-.6-1.9v-7.3c0-.4.1-.6.3-.7a2.87,2.87,0,0,1,1.2-.2h4a4.09,4.09,0,0,1,2.2.4,2.71,2.71,0,0,1,.9,1.7l.1.5c0,.3.2.4.5.4a.46.46,0,0,0,.4-.5V122a16.21,16.21,0,0,1-.1-2.2c0-1,.1-2,.2-3.2v-.4c0-.3-.1-.5-.4-.5a.51.51,0,0,0-.5.4,4.11,4.11,0,0,1-.5,1.5,2.3,2.3,0,0,1-1.3.5,22.34,22.34,0,0,1-3,.2h-2.8a1.44,1.44,0,0,1-.9-.2,1.86,1.86,0,0,1-.2-1v-7.4a2.06,2.06,0,0,1,.3-1.3,2.37,2.37,0,0,1,1.5-.3h2.9a16.66,16.66,0,0,1,3.9.3,1.81,1.81,0,0,1,1.4,1.1,4.25,4.25,0,0,1,.2,1.1v.5c0,.4.1.6.4.5s.3-.1.4-.3a7,7,0,0,0,.2-1.3l.1-1.1a11.45,11.45,0,0,0,.1-1.5c0-.2.1-.3.1-.4,0-.4-.2-.5-.6-.5a2,2,0,0,0-.7.1,8.47,8.47,0,0,0-1.3.1l-2.6.1c-1.1,0-2.5.1-3.9.1a57.83,57.83,0,0,1-6.3-.3,5.74,5.74,0,0,0-1.2-.1c-.5,0-.8.2-.8.5s.2.3.5.3c1.1,0,1.9.3,2.2.9a7,7,0,0,1,.6,3.5v16.6c0,1.5-.4,2.3-1.3,2.6l-.7.2c-.3.1-.5.2-.5.4s.2.4.6.4a3.45,3.45,0,0,0,.9-.1,42.44,42.44,0,0,1,4.5-.2c1.5,0,3.4.1,5.8.3.6,0,1.1.1,1.4.1a4.93,4.93,0,0,0,4-2,4.62,4.62,0,0,0,1.3-2.8C272.7,127.07,272.6,127,272.4,127Z"/><path class="a" d="M299.1,106.77a3.45,3.45,0,0,0-.9.1,9.72,9.72,0,0,1-1.8.1,33.26,33.26,0,0,1-3.4-.1h-.8c-.4,0-.5.1-.5.3a.46.46,0,0,0,.5.4,4.54,4.54,0,0,1,2.6,1,3.22,3.22,0,0,1,.9,2.2l.2,4.2v11.5c0,.2-.1.3-.2.3s-.2-.1-.5-.4l-16.8-19a1.06,1.06,0,0,0-.9-.5h-3.2c-.3,0-.4.1-.4.3a.46.46,0,0,0,.5.4,3.89,3.89,0,0,1,2.9,2.1,10.09,10.09,0,0,1,1,5v12.4a6.86,6.86,0,0,1-.5,2.9,3.72,3.72,0,0,1-2.1,1.4c-.4.1-.5.3-.5.4s.2.3.5.3a2.25,2.25,0,0,0,.7-.1,5.7,5.7,0,0,1,1.3-.1h.9l1.9.1a14.79,14.79,0,0,1,1.6.1h.5c.3,0,.4-.1.4-.4s-.2-.4-.6-.5a3.12,3.12,0,0,1-1.9-.7,3,3,0,0,1-.6-1.7l-.1-1.3v-13.2c0-.5.1-.8.3-.8a.37.37,0,0,1,.3.1l.2.2,15.4,17.6.4.5a.52.52,0,0,0,.4.2c.3,0,.5-.1.5-.4a13,13,0,0,0,.1-2.5v-18.5a4.46,4.46,0,0,1,.4-2.4,2.15,2.15,0,0,1,1.5-.9c.3-.1.4-.2.4-.3A.61.61,0,0,0,299.1,106.77Z"/><path class="a" d="M323.9,108.47a3.09,3.09,0,0,0-.2-1.3,2.23,2.23,0,0,0-1.2-.2H302.9c-.4,0-.7.1-.8.3a2.33,2.33,0,0,0-.2,1.1,10.33,10.33,0,0,1-.3,2.2c-.1.7-.2,1.1-.2,1.4s.1.5.3.5.4-.2.5-.7a4.1,4.1,0,0,1,1-2.2,3.1,3.1,0,0,1,2.1-.6h4.8a1.44,1.44,0,0,1,.9.2,1.29,1.29,0,0,1,.2.8v18.6a3.58,3.58,0,0,1-.5,2.1,2.81,2.81,0,0,1-1.9.8c-.4,0-.6.2-.6.4s.2.4.5.4a8.33,8.33,0,0,0,1.2-.1c.4,0,.8-.1,1.3-.1h2.7a5.38,5.38,0,0,1,1.6.1,4.4,4.4,0,0,0,.9.1c.3,0,.5-.1.5-.4s-.2-.3-.6-.4a2.59,2.59,0,0,1-2.4-2.5v-18.6a2.33,2.33,0,0,1,.2-1.1,1.86,1.86,0,0,1,1-.2h5.1a3.69,3.69,0,0,1,2.1.4,2.69,2.69,0,0,1,.8,1.7c.1.4.2.6.4.6s.4-.2.4-.6a3.45,3.45,0,0,0-.1-.9A5,5,0,0,0,323.9,108.47Z"/><path class="a" d="M334.5,131.27a4.94,4.94,0,0,1-1.7-.5,2.54,2.54,0,0,1-.9-1.3,12,12,0,0,1-.3-3.4v-13.8c0-2.6.4-4,1.3-4.4l1-.4c.3-.1.5-.3.5-.5s-.2-.3-.5-.3h-.5l-1.2.1c-.6,0-1.4.1-2.3.1a28.68,28.68,0,0,1-3.5-.2h-.3c-.4,0-.5.1-.5.4s.2.4.6.4c1.1.2,1.9.5,2.2,1.1a6.44,6.44,0,0,1,.5,3v15.6a6.52,6.52,0,0,1-.4,3,2.61,2.61,0,0,1-1.8,1c-.4.1-.6.2-.6.4a.46.46,0,0,0,.5.4,3.45,3.45,0,0,0,.9-.1l2.2-.1h2.6a8.71,8.71,0,0,1,1.9.1c.3,0,.5.1.7.1.4,0,.6-.1.6-.4A1.41,1.41,0,0,0,334.5,131.27Z"/><path class="a" d="M346.8,117.37a40.06,40.06,0,0,1-4.3-1.6,5.21,5.21,0,0,1-1.6-1.4,3.92,3.92,0,0,1-.9-2.6,3.6,3.6,0,0,1,1.3-2.9,4.79,4.79,0,0,1,3.3-1.2,8.12,8.12,0,0,1,4.5,1.3,6.65,6.65,0,0,1,2.7,3.3q.3.9.6.9c.3,0,.4-.2.4-.6a2.64,2.64,0,0,0-.1-.7l-.3-1.9a8.79,8.79,0,0,1-.2-1.8c0-.6-.2-.9-.5-.9-.1,0-.2,0-.2.1l-.3.2a.76.76,0,0,1-.4.2.37.37,0,0,1-.3-.1l-1.3-.5a8.11,8.11,0,0,0-3.3-.6,8.36,8.36,0,0,0-5.7,1.9,6.31,6.31,0,0,0-.5,9.1,14.82,14.82,0,0,0,5.7,3,21.75,21.75,0,0,1,4.7,2,4.25,4.25,0,0,1,1.6,3.4,4.75,4.75,0,0,1-1.7,3.6,6.36,6.36,0,0,1-4.2,1.5,7.89,7.89,0,0,1-4.6-1.5,7.46,7.46,0,0,1-2.8-3.8q-.3-.9-.6-.9a.46.46,0,0,0-.4.5,10.7,10.7,0,0,0,.5,2.3,14.33,14.33,0,0,0,.5,1.7c.1.7.3,1.1.3,1.3a1.76,1.76,0,0,0,.4.5,5.46,5.46,0,0,0,2.5.9,12,12,0,0,0,3.1.4,9.23,9.23,0,0,0,6.4-2.2,6.89,6.89,0,0,0,2.5-5.6C353.5,121.27,351.3,118.87,346.8,117.37Z"/><path class="a" d="M377.9,108.47a3.09,3.09,0,0,0-.2-1.3,2.23,2.23,0,0,0-1.2-.2H356.9c-.4,0-.7.1-.8.3a2.33,2.33,0,0,0-.2,1.1,10.33,10.33,0,0,1-.3,2.2c-.1.7-.2,1.1-.2,1.4s.1.5.3.5.4-.2.5-.7a4.1,4.1,0,0,1,1-2.2,3.1,3.1,0,0,1,2.1-.6h4.8a1.44,1.44,0,0,1,.9.2,1.29,1.29,0,0,1,.2.8v18.6a3.58,3.58,0,0,1-.5,2.1,2.81,2.81,0,0,1-1.9.8c-.4,0-.6.2-.6.4s.2.4.5.4a8.33,8.33,0,0,0,1.2-.1c.4,0,.8-.1,1.3-.1h2.7a5.38,5.38,0,0,1,1.6.1,3.87,3.87,0,0,0,.9.1c.3,0,.5-.1.5-.4s-.2-.3-.6-.4a2.59,2.59,0,0,1-2.4-2.5v-18.6a2.33,2.33,0,0,1,.2-1.1,1.86,1.86,0,0,1,1-.2h5.1a3.69,3.69,0,0,1,2.1.4,2.69,2.69,0,0,1,.8,1.7c.1.4.2.6.4.6s.4-.2.4-.6a3.45,3.45,0,0,0-.1-.9A9.18,9.18,0,0,0,377.9,108.47Z"/><path class="a" d="M388.5,131.27a4.94,4.94,0,0,1-1.7-.5,2.54,2.54,0,0,1-.9-1.3,12,12,0,0,1-.3-3.4v-13.8c0-2.6.4-4,1.4-4.4l.9-.4c.3-.1.5-.3.5-.5s-.2-.3-.5-.3h-.5l-1.2.1c-.6,0-1.4.1-2.3.1a28.68,28.68,0,0,1-3.5-.2h-.3c-.4,0-.5.1-.5.4s.2.4.6.4c1.1.2,1.9.5,2.2,1.1a6.44,6.44,0,0,1,.5,3v15.6a6.52,6.52,0,0,1-.4,3,2.61,2.61,0,0,1-1.8,1c-.4.1-.6.2-.6.4a.46.46,0,0,0,.5.4,3.45,3.45,0,0,0,.9-.1l2.2-.1h2.6a8.71,8.71,0,0,1,1.9.1c.3,0,.5.1.7.1.4,0,.6-.1.6-.4A1.41,1.41,0,0,0,388.5,131.27Z"/><path class="a" d="M415.3,125.17c-.2,0-.4.3-.7,1a7.9,7.9,0,0,1-3.7,3.5,11,11,0,0,1-5.4,1.5,9.62,9.62,0,0,1-7.7-3.6,14,14,0,0,1-3-9.3,10.88,10.88,0,0,1,2.7-7.8,9.56,9.56,0,0,1,7.3-2.9q5.85,0,9.3,6c.3.5.5.8.7.8s.2-.1.3-.2l.1-.2-.1-.5-.6-4.4c-.1-.5-.2-.7-.4-.7a.91.91,0,0,0-.5.3.37.37,0,0,1-.3.1l-.3-.1-.3-.1-.8-.3a14.33,14.33,0,0,0-7.1-1.7,12.51,12.51,0,0,0-9.3,3.8,12.82,12.82,0,0,0-3.7,9.4,12.35,12.35,0,0,0,3.6,9.2,13.08,13.08,0,0,0,9.5,3.5,16.84,16.84,0,0,0,9.3-2.7,2,2,0,0,0,.9-1l.1-.3.4-2.2.1-.4v-.2C415.6,125.27,415.5,125.17,415.3,125.17Z"/><path class="a" d="M442.2,106.77a3.45,3.45,0,0,0-.9.1,9.72,9.72,0,0,1-1.8.1,33.26,33.26,0,0,1-3.4-.1h-.8c-.4,0-.5.1-.5.3a.46.46,0,0,0,.5.4,4.54,4.54,0,0,1,2.6,1,3.22,3.22,0,0,1,.9,2.2l.2,4.2v11.5c0,.2-.1.3-.2.3s-.2-.1-.5-.4l-16.8-19a1.06,1.06,0,0,0-.9-.5h-3.2c-.3,0-.4.1-.4.3a.46.46,0,0,0,.5.4,3.89,3.89,0,0,1,2.9,2.1,10.09,10.09,0,0,1,1,5v12.4a6.86,6.86,0,0,1-.5,2.9,3.4,3.4,0,0,1-2.1,1.4c-.4.1-.5.3-.5.4s.2.3.5.3a2.25,2.25,0,0,0,.7-.1,6.15,6.15,0,0,1,1.4-.1h.9l1.9.1a14.79,14.79,0,0,1,1.6.1h.5c.3,0,.4-.1.4-.4s-.2-.4-.6-.5a3.12,3.12,0,0,1-1.9-.7,3,3,0,0,1-.6-1.7l-.1-1.3v-13.2c0-.5.1-.8.3-.8a.37.37,0,0,1,.3.1l.2.2,15.4,17.6.4.5a.52.52,0,0,0,.4.2c.3,0,.5-.1.5-.4a13,13,0,0,0,.1-2.5v-18.5a4.46,4.46,0,0,1,.4-2.4,2.15,2.15,0,0,1,1.5-.9c.3-.1.4-.2.4-.3C442.6,106.87,442.5,106.77,442.2,106.77Z"/><path class="a" d="M469.4,131.27a5.33,5.33,0,0,1-2.3-.8,7.94,7.94,0,0,1-1.4-2.7l-.4-1-7.8-20.1c-.1-.4-.3-.5-.5-.5s-.4.2-.5.5l-9.4,20.8-.5,1.2a8.63,8.63,0,0,1-1,1.6,2.57,2.57,0,0,1-1,.9l-.7.2c-.2.1-.3.2-.3.4s.2.3.5.3a5.81,5.81,0,0,0,1-.1h2.8l1.7.1h.6c.4,0,.5-.1.5-.3s-.2-.4-.6-.4a3.92,3.92,0,0,1-1.7-.7,1.59,1.59,0,0,1-.4-1.2,8.31,8.31,0,0,1,.8-2.7l1.2-2.7a6.94,6.94,0,0,1,.9-1.5,5,5,0,0,1,1.7-.2h6.6a2.23,2.23,0,0,1,1.2.2,5.91,5.91,0,0,1,.6,1.2l.9,2.4a14.83,14.83,0,0,1,1.1,3.9,1,1,0,0,1-.9,1.2l-.6.1c-.3.1-.5.2-.5.4a.46.46,0,0,0,.5.4,1.76,1.76,0,0,0,.6-.1,22.1,22.1,0,0,1,3.2-.1,29.35,29.35,0,0,1,3.4.1h.7c.3,0,.5-.1.5-.3S469.8,131.37,469.4,131.27Zm-10.6-10.6h-6c-.6,0-.8-.2-.8-.5,0-.1.1-.3.2-.7l3.6-7.9c.1-.2.2-.4.3-.3s.3.2.5.6l.1.4,2.9,7.2.1.3a.76.76,0,0,1,.1.4C459.7,120.47,459.4,120.67,458.8,120.67Z"/><path class="a" d="M512.4,122.77c-.2,0-.6.5-1,1.3a11.1,11.1,0,0,1-5,4.8,15.15,15.15,0,0,1-7.3,2,12.83,12.83,0,0,1-10.4-4.9c-2.7-3.3-4-7.5-4-12.6,0-4.5,1.2-8,3.6-10.6s5.7-3.9,9.9-3.9c5.3,0,9.5,2.7,12.5,8.1.4.7.7,1.1.9,1a.52.52,0,0,0,.4-.2l.1-.2-.1-.6-.8-5.9c-.1-.6-.3-.9-.5-.9a1.26,1.26,0,0,0-.7.4c-.2.1-.3.2-.4.2l-.4-.1-.4-.2-1-.5a19.47,19.47,0,0,0-9.6-2.3,17.27,17.27,0,0,0-17.7,17.9c0,5.1,1.6,9.3,4.9,12.4s7.5,4.7,12.8,4.7a23.12,23.12,0,0,0,12.6-3.6c.7-.5,1.1-.9,1.2-1.3l.1-.4.6-3,.1-.5v-.3C512.8,123,512.7,122.77,512.4,122.77Z"/><path class="a" d="M535,127a.54.54,0,0,0-.4.3c-1.4,2.2-4.4,3.2-9.2,3.2a5.54,5.54,0,0,1-2.8-.4c-.4-.3-.6-.9-.6-1.9v-7.3c0-.4.1-.6.3-.7a2.87,2.87,0,0,1,1.2-.2h4a4.09,4.09,0,0,1,2.2.4,2.71,2.71,0,0,1,.9,1.7l.1.5c.1.3.2.4.5.4a.46.46,0,0,0,.4-.5V122a16.21,16.21,0,0,1-.1-2.2c0-1,.1-2,.2-3.2v-.4c0-.3-.1-.5-.4-.5a.51.51,0,0,0-.5.4,4.11,4.11,0,0,1-.5,1.5,2.3,2.3,0,0,1-1.3.5,22.34,22.34,0,0,1-3,.2h-2.8a1.44,1.44,0,0,1-.9-.2,1.86,1.86,0,0,1-.2-1v-7.4a2.06,2.06,0,0,1,.3-1.3,2.37,2.37,0,0,1,1.5-.3h2.9a16.66,16.66,0,0,1,3.9.3,1.81,1.81,0,0,1,1.4,1.1,4.25,4.25,0,0,1,.2,1.1v.5c0,.4.1.6.4.5s.3-.1.4-.3a7,7,0,0,0,.2-1.3l.1-1.1a11.45,11.45,0,0,0,.1-1.5c0-.2.1-.3.1-.4,0-.4-.2-.5-.6-.5a2,2,0,0,0-.7.1,8.47,8.47,0,0,0-1.3.1l-2.6.1c-1.1,0-2.5.1-3.9.1a57.83,57.83,0,0,1-6.3-.3,5.74,5.74,0,0,0-1.2-.1c-.5,0-.8.2-.8.5s.2.3.5.3a2.41,2.41,0,0,1,2.2.9,7,7,0,0,1,.6,3.5v16.6c0,1.5-.4,2.3-1.3,2.6l-.7.2c-.3.1-.5.2-.5.4s.2.4.6.4a3.45,3.45,0,0,0,.9-.1,42.44,42.44,0,0,1,4.5-.2c1.5,0,3.4.1,5.8.3.6,0,1.1.1,1.4.1a4.93,4.93,0,0,0,4-2,4.62,4.62,0,0,0,1.3-2.8C535.3,127.07,535.2,127,535,127Z"/><path class="a" d="M561,131.27h-.6c-1.3-.1-2.7-1.3-4.3-3.5l-.6-.9-5-7.4c3-1.5,4.5-3.6,4.5-6.4a5.54,5.54,0,0,0-2.1-4.7c-1.4-1.1-3.5-1.6-6.3-1.6a25.36,25.36,0,0,0-2.6.1c-1.3.1-2.3.1-2.9.1a7.59,7.59,0,0,1-1.6-.1,8.87,8.87,0,0,1-1.3-.1c-.4,0-.6.1-.6.4s.2.4.6.4l.9.1c1.3.2,2,1.3,2,3.2v15a11.53,11.53,0,0,1-.5,4.1,2.32,2.32,0,0,1-1.9,1.3c-.3.1-.5.2-.5.4a.46.46,0,0,0,.5.4,4.59,4.59,0,0,0,1-.1,8.64,8.64,0,0,1,1.5-.1h2.7a14.17,14.17,0,0,1,2.3.1,5.39,5.39,0,0,0,1.1.1c.4,0,.6-.1.6-.4s-.2-.4-.7-.4a4.5,4.5,0,0,1-2.4-.8,1.69,1.69,0,0,1-.7-1,9.1,9.1,0,0,1-.2-2.1V121a.85.85,0,0,1,.2-.6l.4-.1h2.4a1.42,1.42,0,0,1,1.4.7l.3.4,4.5,6.9a9.59,9.59,0,0,0,2.7,2.9,5.21,5.21,0,0,0,2.9.9,9,9,0,0,0,1.8-.2c.5-.1.8-.3.8-.5A.44.44,0,0,0,561,131.27ZM547.2,119h-2.1a2.33,2.33,0,0,1-1.1-.2c-.2-.2-.2-.5-.2-1.1v-8c0-.6.1-1.1.4-1.3a2.7,2.7,0,0,1,1.5-.4,7.21,7.21,0,0,1,4.8,1.7,5.81,5.81,0,0,1,1.9,4.4,4.9,4.9,0,0,1-1.4,3.6A5.17,5.17,0,0,1,547.2,119Z"/><path class="a" d="M585.2,131.37l-.8-.2a5.83,5.83,0,0,1-3.3-2l-9.5-9.9a1.2,1.2,0,0,1-.4-.8c0-.1.2-.3.4-.6l6.2-5.6c3.1-2.8,5.2-4.3,6.3-4.6.6-.1.9-.3.9-.5a.46.46,0,0,0-.5-.4,1.76,1.76,0,0,0-.6.1h-4.6a9.15,9.15,0,0,1-1.7-.1h-.5c-.4,0-.6.1-.6.4s.3.4.8.5c.9.2,1.3.5,1.3,1.1s-.6,1.5-1.8,2.6l-7.8,7-.3.2-.3.2c-.1,0-.2-.1-.2-.4v-7.1a6.87,6.87,0,0,1,.3-2.5,2.66,2.66,0,0,1,1.5-1.1c.3-.1.4-.3.4-.4s-.1-.4-.4-.3a4.4,4.4,0,0,0-.9.1h-3a21.92,21.92,0,0,1-2.9-.1c-.3,0-.5-.1-.7-.1s-.5.1-.5.4.2.3.5.4l.9.2a2.36,2.36,0,0,1,1.6,1,5.83,5.83,0,0,1,.4,2.7v15.5a9.15,9.15,0,0,1-.4,3.3,1.93,1.93,0,0,1-1.6,1.1c-.4,0-.5.1-.5.3s.2.4.6.4a6.61,6.61,0,0,0,1.1-.1h3.8a12.22,12.22,0,0,1,2.2.1c.5,0,.8.1,1,.1s.4-.1.4-.3-.2-.3-.5-.4a5,5,0,0,1-2.6-1,4.63,4.63,0,0,1-.6-2.8v-6.7c0-.3.1-.4.3-.4a.76.76,0,0,1,.4.2l.4.4,9.8,10.1.3.3a1.61,1.61,0,0,0,1.1.5H583a6.22,6.22,0,0,1,1.6.1h.4c.4,0,.6-.1.6-.4S585.5,131.37,585.2,131.37Z"/><path class="a" d="M605.6,127a.54.54,0,0,0-.4.3c-1.4,2.2-4.4,3.2-9.2,3.2a5.54,5.54,0,0,1-2.8-.4c-.4-.3-.6-.9-.6-1.9v-7.3c0-.4.1-.6.3-.7a2.87,2.87,0,0,1,1.2-.2h4a4.09,4.09,0,0,1,2.2.4,2.71,2.71,0,0,1,.9,1.7l.1.5c.1.3.2.4.5.4a.46.46,0,0,0,.4-.5V122a16.21,16.21,0,0,1-.1-2.2c0-1,.1-2,.2-3.2v-.4c0-.3-.1-.5-.4-.5a.51.51,0,0,0-.5.4,4.11,4.11,0,0,1-.5,1.5,2.3,2.3,0,0,1-1.3.5,22.34,22.34,0,0,1-3,.2h-2.8a1.44,1.44,0,0,1-.9-.2,1.86,1.86,0,0,1-.2-1v-7.4a2.06,2.06,0,0,1,.3-1.3,2.37,2.37,0,0,1,1.5-.3h2.9a16.66,16.66,0,0,1,3.9.3,1.81,1.81,0,0,1,1.4,1.1,4.25,4.25,0,0,1,.2,1.1v.5c0,.4.1.6.4.5s.3-.1.4-.3a7,7,0,0,0,.2-1.3l.1-1.1a11.45,11.45,0,0,0,.1-1.5c0-.2.1-.3.1-.4,0-.4-.2-.5-.6-.5a2,2,0,0,0-.7.1,8.47,8.47,0,0,0-1.3.1l-2.6.1c-1.1,0-2.5.1-3.9.1a57.83,57.83,0,0,1-6.3-.3,5.74,5.74,0,0,0-1.2-.1c-.5,0-.8.2-.8.5s.2.3.5.3c1.1,0,1.9.3,2.2.9a7,7,0,0,1,.6,3.5v16.6c0,1.5-.4,2.3-1.3,2.6l-.7.2c-.3.1-.5.2-.5.4s.2.4.6.4a3.45,3.45,0,0,0,.9-.1,42.44,42.44,0,0,1,4.5-.2c1.5,0,3.4.1,5.8.3.6,0,1.1.1,1.4.1a4.93,4.93,0,0,0,4-2,4.62,4.62,0,0,0,1.3-2.8C605.9,127.07,605.8,127,605.6,127Z"/><path class="a" d="M632.4,106.87h-3.5a13.62,13.62,0,0,1-1.6-.1h-.5q-.6,0-.6.3c0,.2.3.4,1,.5a1.93,1.93,0,0,1,1.1.4,1,1,0,0,1,.3.8c0,1.2-.9,3.8-2.6,7.9l-4,9.5-.3.7c-.3.7-.5,1-.7,1s-.3-.2-.5-.6l-7-16.1a7.92,7.92,0,0,1-.8-2.6,1.45,1.45,0,0,1,.2-.7,3.05,3.05,0,0,1,.9-.5c.2-.1.4-.2.4-.4s-.2-.3-.5-.3h-.5c-.5,0-.9.1-1.2.1h-5.2c-.3,0-.5.1-.5.4,0,.1.1.2.2.3a11,11,0,0,0,1.1.3,2.65,2.65,0,0,1,1.4.7,9,9,0,0,1,1.2,2.1l9.2,21.4c.3.6.5.9.8.9s.5-.3.7-.9l9.1-21.2.5-1.2a3.47,3.47,0,0,1,2-2.1c.3-.1.4-.2.4-.4A.59.59,0,0,0,632.4,106.87Z"/><path class="a" d="M402.4,103.67a7.32,7.32,0,0,0,.9.9,2,2,0,0,0,.9.2,1.55,1.55,0,0,0,.8-.2,2.94,2.94,0,0,0,.8-.8l1.6-2.1.6-.8a1.69,1.69,0,0,0,.2-.5.54.54,0,0,0-.3-.4,1.42,1.42,0,0,0-.6-.2c-.2,0-.5.3-.9.8-1,1.4-1.5,2.2-1.8,2.2-.1,0-.2-.1-.4-.3l-.5-.5-.7-.8-.6-.7-.4-.4a.86.86,0,0,0-.6-.3,1.76,1.76,0,0,0-.6.1l-.8.3c-.4.1-.5.3-.5.5a4,4,0,0,0,1,1.3Z"/><path class="a" d="M255.7,63.27a7.32,7.32,0,0,0,.9.9,2,2,0,0,0,.9.2,1.55,1.55,0,0,0,.8-.2,2.94,2.94,0,0,0,.8-.8l1.6-2.1.6-.8a1.69,1.69,0,0,0,.2-.5.54.54,0,0,0-.3-.4,1.42,1.42,0,0,0-.6-.2c-.2,0-.5.3-.9.8-1,1.4-1.5,2.2-1.7,2.2s-.2-.1-.4-.3l-.5-.5-.7-.8-.6-.7-.4-.4a.86.86,0,0,0-.6-.3,1.76,1.76,0,0,0-.6.1l-.8.3c-.4.1-.5.3-.5.5a4,4,0,0,0,1,1.3Z"/><path class="a" d="M146.1,121.37h0c-.3,0-.5-.2-.8-.6l-.1-.1-.8-1.2a1.17,1.17,0,0,0,.7-1.1c0-.7-.5-1.1-1.5-1.1h-1.4c-.1,0-.1,0-.1.1s0,.1.1.1h.1c.2,0,.3.2.3.5v2.5c0,.3,0,.6-.1.7s-.1.2-.3.2a.1.1,0,0,0-.1.1c0,.1,0,.1.1.1h1.6c.1,0,.1,0,.1-.1s-.1-.1-.2-.1a1,1,0,0,1-.4-.1c-.1-.1-.1-.2-.1-.5v-1.2h.4c.1,0,.2,0,.2.1v.1l.8,1.2c.3.4.6.7,1,.7s.5-.1.5-.3Zm-2.4-2.1h-.4v-1.4c0-.2.1-.2.3-.2a1.33,1.33,0,0,1,.8.3.91.91,0,0,1,.3.7A1,1,0,0,1,143.7,119.27Z"/><path class="a" d="M143.9,115.77a3.41,3.41,0,0,0-2.8,1.3,3.65,3.65,0,0,0,0,4.8,3.41,3.41,0,0,0,2.8,1.3,3.68,3.68,0,0,0,2.6-6.3A3.27,3.27,0,0,0,143.9,115.77Zm2.3,6a3.26,3.26,0,0,1-2.3,1,2.9,2.9,0,0,1-2.3-1,3.26,3.26,0,0,1-1-2.3,2.9,2.9,0,0,1,1-2.3,3.26,3.26,0,0,1,2.3-1,2.9,2.9,0,0,1,2.3,1,3.26,3.26,0,0,1,1,2.3A3.45,3.45,0,0,1,146.2,121.77Z"/><path class="a" d="M466.3,102.77a3.41,3.41,0,0,0-2.8,1.3,3.65,3.65,0,0,0,0,4.8,3.41,3.41,0,0,0,2.8,1.3,3.7,3.7,0,0,0,0-7.4Zm2.3,6.1a3.26,3.26,0,0,1-2.3,1,2.9,2.9,0,0,1-2.3-1,3.26,3.26,0,0,1-1-2.3,2.9,2.9,0,0,1,1-2.3,3.26,3.26,0,0,1,2.3-1,2.9,2.9,0,0,1,2.3,1,3.26,3.26,0,0,1,1,2.3A3,3,0,0,1,468.6,108.87Z"/><path class="a" d="M468.5,108.47h0c-.3,0-.5-.2-.8-.6l-.1-.1-.8-1.2a1.17,1.17,0,0,0,.7-1.1c0-.7-.5-1.1-1.5-1.1h-1.4c-.1,0-.1,0-.1.1s0,.1.1.1h.1c.2,0,.3.2.3.5v2.5c0,.3,0,.6-.1.7s-.1.2-.3.2a.1.1,0,0,0-.1.1c0,.1,0,.1.1.1h1.6c.1,0,.1,0,.1-.1s-.1-.1-.2-.1a1,1,0,0,1-.4-.1c-.1-.1-.1-.2-.1-.5v-1.2h.4c.1,0,.2,0,.2.1v.1l.8,1.2c.3.4.6.7,1,.7s.6-.1.5-.3Zm-2.4-2.1h-.4V105c0-.2.1-.2.3-.2a1.33,1.33,0,0,1,.8.3.91.91,0,0,1,.3.7A1.05,1.05,0,0,1,466.1,106.37Z"/></svg>