<svg xmlns="http://www.w3.org/2000/svg" viewBox="0 0 504.88 377.18"><defs><style>.a{fill:#fff;}</style></defs><title>Asset 1</title><path class="a" d="M104.6,331.17c.2,0,1-.1,2.6-.3.5,0,1.2-.1,2.1-.1,2,0,3.7,0,5.2.1l4.5.3c.7,0,1.2.1,1.6.1.9,0,1.3-.3,1.3-.8s-.5-.9-1.5-1.1c-2.2-.5-3.6-1-4.3-1.7a4.26,4.26,0,0,1-1.1-3.2c0-1.5.7-3.9,2.1-7.1l3.1-6.9c.9-2.1,1.7-3.4,2.3-3.8s2-.6,4.3-.6h17c1.8,0,2.8.1,3.2.4a9,9,0,0,1,1.6,3l2.4,6.2c1.9,5,2.9,8.3,2.9,9.9,0,1.8-.8,2.9-2.3,3.2l-1.5.3c-.8.2-1.2.5-1.2,1s.4,1,1.2,1c.3,0,.8-.1,1.5-.2a63.76,63.76,0,0,1,8.2-.3c4.2,0,7.1.1,8.7.2a15.26,15.26,0,0,0,1.8.1c.8,0,1.3-.3,1.3-.8s-.4-1-1.4-1.1c-3-.5-5-1.3-5.9-2.2s-2.2-3.3-3.7-7.1l-1-2.5-20.2-51.8c-.3-.9-.8-1.4-1.3-1.4s-1,.5-1.4,1.4l-24.2,53.7-1.4,3.1a31.92,31.92,0,0,1-2.6,4.2,7.77,7.77,0,0,1-2.5,2.3l-1.7.5a1.05,1.05,0,0,0-.8,1C103.4,330.88,103.8,331.17,104.6,331.17Zm20.9-32.5,9.2-20.4c.3-.6.5-.9.8-.9s.8.5,1.2,1.6l.4,1,7.4,18.6.2.8a2.8,2.8,0,0,1,.2,1.1q0,1.2-2.4,1.2H127c-1.4,0-2.2-.4-2.2-1.2A18.68,18.68,0,0,1,125.5,298.67Z"/><path class="a" d="M210,327.08a23.43,23.43,0,0,0,8.2-8.9,26,26,0,0,0,2.9-12.4c0-7-2.2-12.8-6.7-17.2-4.9-4.9-12.3-7.4-22.1-7.4-1.7,0-3.3.1-4.7.2l-3.3.3c-1.3.1-3.2.2-5.6.2h-2.5l-2.8-.1c-.6,0-.9.2-.9.7s.4.7,1.2.7a5.41,5.41,0,0,1,4.1,2c.8,1.1,1.2,2.9,1.2,5.3v32.3c0,2.7-.2,4.4-.7,5.3s-1.5,1.5-3.2,1.8c-.7.1-1,.4-1,.8,0,.6.4.9,1.3.8a19.09,19.09,0,0,0,2-.2,43.83,43.83,0,0,1,6.7-.4q3.6,0,8.4.3c1.6.1,2.7.2,3.3.2A28.06,28.06,0,0,0,210,327.08Zm-18.6,1.6a30.78,30.78,0,0,1-4.9-1.3,3.05,3.05,0,0,1-2.2-3v-36.9c0-1.5.3-2.5.9-2.9q1.5-1.2,7.2-1.2a22.25,22.25,0,0,1,13.5,4,21.17,21.17,0,0,1,7.1,8.9,29.93,29.93,0,0,1,2.6,12.4c0,8.3-2.8,14.1-8.3,17.5a19.87,19.87,0,0,1-11,3.1C195,329.17,193.3,329,191.4,328.67Z"/><path class="a" d="M219.7,282.88a12.2,12.2,0,0,0,2.2.5,4.53,4.53,0,0,1,2.8,1.5A14.39,14.39,0,0,1,227,289l18.2,42.1q.75,1.8,1.5,1.8t1.5-1.8l17.8-41.7,1-2.3a7.38,7.38,0,0,1,3.9-4.2c.5-.2.8-.4.8-.8s-.2-.6-.7-.6h-7.1c-.4,0-1.4,0-3.2-.1h-1c-.8,0-1.2.2-1.2.7s.6.7,2,1a5.33,5.33,0,0,1,2.2.8c.4.3.5.9.5,1.7,0,2.3-1.7,7.5-5.1,15.5l-7.9,18.7-.6,1.3c-.6,1.4-1,2-1.3,2s-.6-.4-.9-1.2l-13.8-31.7a14.91,14.91,0,0,1-1.5-5c0-.6.1-1.1.4-1.3a5.71,5.71,0,0,1,1.8-.9c.5-.2.7-.4.7-.8s-.3-.7-1-.7a4.59,4.59,0,0,0-1,.1,22,22,0,0,1-2.3.1h-5.8a26.66,26.66,0,0,1-3.6-.1c-.5,0-.8-.1-1-.1-.7,0-1,.2-1,.7S219.5,282.77,219.7,282.88Z"/><path class="a" d="M310.5,321.08c-.3,0-.5.2-.8.6-2.7,4.2-8.7,6.3-18.1,6.3-3,0-4.8-.2-5.5-.8s-1.1-1.8-1.1-3.8V309c0-.7.2-1.2.6-1.4a5.54,5.54,0,0,1,2.3-.4h7.9a8,8,0,0,1,4.4.9,4.75,4.75,0,0,1,1.7,3.3l.2,1a.88.88,0,0,0,.9.8c.5,0,.7-.3.7-.9a4.14,4.14,0,0,0-.1-1c-.1-1.4-.2-2.9-.2-4.3q0-2.85.3-6.3v-.8c0-.6-.2-.9-.7-1s-.8.3-.9.9a8.23,8.23,0,0,1-1,3,4.55,4.55,0,0,1-2.5,1,31.85,31.85,0,0,1-6,.4h-5.5a3.12,3.12,0,0,1-1.8-.3,3.77,3.77,0,0,1-.3-2v-14.5a3.61,3.61,0,0,1,.6-2.5c.4-.4,1.4-.6,2.9-.6h5.6a40.88,40.88,0,0,1,7.6.5,4,4,0,0,1,2.8,2.2,5.38,5.38,0,0,1,.4,2.2v.9c0,.7.2,1.1.7,1.1a.76.76,0,0,0,.8-.6c.1-.3.2-1.2.4-2.6l.1-2.1a20.82,20.82,0,0,1,.3-2.9,2.48,2.48,0,0,0,.1-.8c0-.7-.4-1-1.2-1a8.17,8.17,0,0,0-1.4.1c-.3,0-1.2.1-2.6.1l-5.1.2c-2.2.1-4.8.1-7.7.1a107.4,107.4,0,0,1-12.3-.6c-1-.1-1.8-.2-2.4-.2-1.1,0-1.6.3-1.6,1,0,.4.3.7,1,.7,2.2,0,3.6.6,4.4,1.8s1.1,3.5,1.1,6.9V324c0,2.9-.9,4.5-2.6,5l-1.4.4c-.6.2-.9.4-.9.8s.4.8,1.1.8a11.18,11.18,0,0,0,1.9-.3,61.5,61.5,0,0,1,8.9-.4c3,0,6.8.2,11.3.6,1.2.1,2.1.1,2.8.1a9.89,9.89,0,0,0,8-3.9c1.7-2.1,2.6-4,2.6-5.5A.54.54,0,0,0,310.5,321.08Z"/><path class="a" d="M359.5,330.48a38.81,38.81,0,0,0,.2-4.9v-30.1l.1-2.4v-3.9c0-2.3.2-3.9.7-4.7a4.56,4.56,0,0,1,2.9-1.8c.5-.1.7-.4.7-.7,0-.5-.4-.8-1-.8-.4,0-1,.1-1.8.2a32.08,32.08,0,0,1-3.6.2,56.23,56.23,0,0,1-6.6-.3,9.89,9.89,0,0,0-1.5-.1c-.7,0-1,.2-1,.7s.3.8,1,.9c2.5.4,4.2,1,5.1,1.9a7.18,7.18,0,0,1,1.8,4.3l.4,8.2v22.6c0,.4-.2.7-.4.7a2.91,2.91,0,0,1-1-.9l-33-37.4a2.39,2.39,0,0,0-1.8-1h-1.9l-2.4-.1h-2.1c-.5,0-.8.2-.8.7s.3.7,1,.8a7.28,7.28,0,0,1,5.7,4.1c1.3,2.4,2,5.6,2,9.8v24.4a11,11,0,0,1-1.1,5.6,7.29,7.29,0,0,1-4.1,2.8c-.7.2-1,.5-1,.9s.4.7,1,.7a7.17,7.17,0,0,0,1.3-.1,21.3,21.3,0,0,1,2.7-.2l1.7-.1,3.7.2c1.8.1,2.9.2,3.1.2.4,0,.7.1,1.1.1s.8-.2.8-.7-.4-.8-1.2-.9c-1.9-.3-3.2-.7-3.8-1.3a5.09,5.09,0,0,1-1.2-3.3l-.1-2.5v-25.8c0-1.1.2-1.6.7-1.6a.76.76,0,0,1,.5.2l.4.4,30.2,34.6.8.9a1.14,1.14,0,0,0,.8.3C359,331.38,359.4,331.08,359.5,330.48Z"/><path class="a" d="M411.5,290.67c.5,0,.8-.4.8-1.1,0-.4-.1-.9-.2-1.8a20.51,20.51,0,0,1-.2-3.1c0-1.4-.1-2.3-.4-2.5s-1.1-.4-2.4-.4H370.5a2.17,2.17,0,0,0-1.6.5,3.67,3.67,0,0,0-.4,2.2,28.35,28.35,0,0,1-.5,4.3,13.83,13.83,0,0,0-.4,2.8c0,.6.2.9.6,1s.8-.4,1-1.4a9,9,0,0,1,2-4.4,6.2,6.2,0,0,1,4.2-1.2h9.5c.9,0,1.5.1,1.7.4s.4.8.4,1.7v36.5c0,2-.3,3.4-1,4.2s-1.9,1.3-3.7,1.5c-.8.1-1.2.3-1.2.7s.4.8,1.1.8c.2,0,1-.1,2.4-.2a19.34,19.34,0,0,1,2.6-.1h5.4a22.1,22.1,0,0,1,3.2.1c.9.1,1.5.2,1.8.2.7,0,1-.3,1-.8s-.4-.7-1.3-.8c-3-.5-4.6-2.2-4.7-5v-36.6c0-1.1.1-1.8.4-2.1s.9-.4,2-.4h10.1a7.66,7.66,0,0,1,4.1.8q1.05.75,1.5,3.3C410.8,290.38,411.1,290.67,411.5,290.67Z"/><path class="a" d="M158.8,250.67c.3-.1.4-.2.4-.4a.27.27,0,0,0-.3-.3,8.33,8.33,0,0,0-1.2.1h-4.3c-.3,0-.5.1-.5.3s.2.3.6.4a3,3,0,0,1,1.5.4c.3.2.4.6.4,1.2v3.3a3.44,3.44,0,0,1-.5,2,6.38,6.38,0,0,1-5.3,2.4,7.38,7.38,0,0,1-5.9-2.9,10.71,10.71,0,0,1-2.4-7.1,9.49,9.49,0,0,1,2.1-6.4,6.63,6.63,0,0,1,5.4-2.5,9.82,9.82,0,0,1,8.5,5.3c.1.2.2.3.3.2s.3-.1.3-.4a.76.76,0,0,0-.1-.4,4.25,4.25,0,0,1-.2-1.1l-.1-1.4a4.14,4.14,0,0,1-.1-1c0-.5-.1-.7-.3-.7s-.1,0-.2.1l-.3.3a.37.37,0,0,1-.3.1.31.31,0,0,1-.2-.1,10,10,0,0,0-3.1-1.2,16.34,16.34,0,0,0-3.6-.5,9.67,9.67,0,0,0-7.4,3.1,10.41,10.41,0,0,0-3,7.6,9.72,9.72,0,0,0,2.8,7.2,9.57,9.57,0,0,0,7.2,2.8,11.84,11.84,0,0,0,6.1-1.6l1-.6a2.77,2.77,0,0,1,1.2-.5,1,1,0,0,0,.4-.1l.1-.2v-5.7C157.7,251.48,158,250.88,158.8,250.67Z"/><path class="a" d="M164,258c0,1.2-.3,1.8-1,2l-.6.2c-.3.1-.4.2-.4.3s.2.3.5.3a3.22,3.22,0,0,0,.8-.1,26.74,26.74,0,0,1,3.6-.2,45.41,45.41,0,0,1,4.6.3c.5,0,.9.1,1.1.1a3.76,3.76,0,0,0,3.2-1.6,4.07,4.07,0,0,0,1.1-2.2c0-.3-.1-.4-.3-.4s-.2.1-.3.3c-1.1,1.7-3.5,2.6-7.3,2.6a4.77,4.77,0,0,1-2.2-.3c-.3-.2-.4-.7-.4-1.5v-5.9a.85.85,0,0,1,.2-.6,2.51,2.51,0,0,1,1-.1h3.2a4.18,4.18,0,0,1,1.8.3,2,2,0,0,1,.7,1.3l.1.4c0,.2.2.3.4.3s.3-.1.3-.4v-.4a10.87,10.87,0,0,1-.1-1.8,24.4,24.4,0,0,1,.1-2.6V248c0-.2-.1-.4-.3-.4s-.3.1-.4.3a4,4,0,0,1-.4,1.2,1.88,1.88,0,0,1-1,.4,14.36,14.36,0,0,1-2.4.2h-2.2c-.4,0-.7,0-.7-.1s-.1-.4-.1-.8v-5.9a1.33,1.33,0,0,1,.3-1,2.87,2.87,0,0,1,1.2-.2h2.3a19.48,19.48,0,0,1,3.1.2,1.3,1.3,0,0,1,1.1.9,2.92,2.92,0,0,1,.2.9v.4c0,.3.1.4.3.4s.3-.1.3-.2a7.72,7.72,0,0,0,.1-1l.1-.9c0-.6.1-1,.1-1.2v-.3c0-.3-.2-.4-.5-.4a1.76,1.76,0,0,0-.6.1,5.13,5.13,0,0,0-1,.1l-2.1.1c-.9,0-2,.1-3.1.1-1.9,0-3.6-.1-5-.2-.4,0-.7-.1-1-.1s-.7.1-.7.4.1.3.4.3c.9,0,1.5.2,1.8.7a5.75,5.75,0,0,1,.5,2.8v12.3Z"/><path class="a" d="M183.8,251.38l.3-.1H186a1.15,1.15,0,0,1,1.1.6l.2.3,3.6,5.5A6.84,6.84,0,0,0,193,260a3.89,3.89,0,0,0,2.3.7,5.9,5.9,0,0,0,1.4-.2c.4-.1.6-.3.6-.4a.22.22,0,0,0-.2-.2h-.5c-1-.1-2.2-1-3.4-2.8l-.5-.7-4-5.9q3.6-1.8,3.6-5.1a4.26,4.26,0,0,0-1.7-3.7,8.53,8.53,0,0,0-5-1.3,14.08,14.08,0,0,0-2,.1,23,23,0,0,1-2.3.1H180a5.85,5.85,0,0,1-1-.1c-.3,0-.5.1-.5.3s.2.3.5.3l.7.1c1.1.2,1.6,1,1.6,2.5v12a8.48,8.48,0,0,1-.4,3.3,2,2,0,0,1-1.5,1.1c-.2,0-.4.1-.4.3s.1.3.4.3a3.22,3.22,0,0,0,.8-.1c.5,0,.9-.1,1.2-.1h2.2a8.66,8.66,0,0,1,1.8.1c.4,0,.7.1.9.1s.5-.1.5-.3-.2-.3-.5-.3a3.85,3.85,0,0,1-1.9-.6,1.56,1.56,0,0,1-.6-.8,7.16,7.16,0,0,1-.1-1.7v-5.2C183.6,251.67,183.7,251.48,183.8,251.38Zm-.2-8.5a1.33,1.33,0,0,1,.3-1,1.74,1.74,0,0,1,1.2-.3,5.56,5.56,0,0,1,3.8,1.4,4.54,4.54,0,0,1,1.5,3.5,4,4,0,0,1-1.1,2.9,4.08,4.08,0,0,1-3,1.1h-1.6a2,2,0,0,1-.9-.2,1.44,1.44,0,0,1-.2-.9v-6.5Z"/><path class="a" d="M200.9,258c0,1.2-.3,1.8-1,2l-.6.2c-.3.1-.4.2-.4.3s.2.3.5.3a3.22,3.22,0,0,0,.8-.1,26.74,26.74,0,0,1,3.6-.2,45.41,45.41,0,0,1,4.6.3c.5,0,.9.1,1.1.1a3.76,3.76,0,0,0,3.2-1.6,4.07,4.07,0,0,0,1.1-2.2c0-.3-.1-.4-.3-.4s-.2.1-.3.3c-1.1,1.7-3.5,2.6-7.3,2.6a4.77,4.77,0,0,1-2.2-.3c-.3-.2-.4-.7-.4-1.5v-5.9a.85.85,0,0,1,.2-.6,2.51,2.51,0,0,1,1-.1h3.2a4.18,4.18,0,0,1,1.8.3,2,2,0,0,1,.7,1.3l.1.4c0,.2.2.3.4.3s.3-.1.3-.4v-.4a10.87,10.87,0,0,1-.1-1.8,24.4,24.4,0,0,1,.1-2.6V248c0-.2-.1-.4-.3-.4s-.3.1-.4.3a4,4,0,0,1-.4,1.2,1.88,1.88,0,0,1-1,.4,14.36,14.36,0,0,1-2.4.2h-2.2c-.4,0-.7,0-.7-.1s-.1-.4-.1-.8v-5.9a1.33,1.33,0,0,1,.3-1,2.87,2.87,0,0,1,1.2-.2h2.3a19.48,19.48,0,0,1,3.1.2,1.3,1.3,0,0,1,1.1.9,2.92,2.92,0,0,1,.2.9v.4c0,.3.1.4.3.4s.3-.1.3-.2a7.72,7.72,0,0,0,.1-1l.1-.9c0-.6.1-1,.1-1.2v-.3c0-.3-.2-.4-.5-.4a1.76,1.76,0,0,0-.6.1,5.13,5.13,0,0,0-1,.1l-2.1.1c-.9,0-2,.1-3.1.1-1.9,0-3.6-.1-5-.2-.4,0-.7-.1-1-.1s-.7.1-.7.4.1.3.4.3c.9,0,1.5.2,1.8.7a5.75,5.75,0,0,1,.5,2.8v12.3Z"/><path class="a" d="M216.4,264.67a1.57,1.57,0,0,1-1.3-.7c-.2-.3-.4-.4-.5-.4s-.4.3-.6.9a1.75,1.75,0,0,0-.1.5,1,1,0,0,1-.1.3.51.51,0,0,0,.4.5,2,2,0,0,0,.9.2,4.35,4.35,0,0,0,3.3-1.6,8,8,0,0,0,2-4l.2-1.9v-15.1a2.81,2.81,0,0,1,.3-1.5,1.68,1.68,0,0,1,1.1-.6c.3-.1.4-.2.4-.4a.27.27,0,0,0-.3-.3,3.22,3.22,0,0,0-.8.1h-1.8a16.33,16.33,0,0,1-2.5-.1,5.13,5.13,0,0,0-1-.1c-.3,0-.5.1-.5.3s.1.3.4.4l.9.2a1.76,1.76,0,0,1,1.3.9,6.24,6.24,0,0,1,.3,2.4v16.2a5.4,5.4,0,0,1-.6,2.7A1.44,1.44,0,0,1,216.4,264.67Z"/><path class="a" d="M237.9,260l-.5.1c-.2,0-.4.1-.4.3s.1.3.4.3a1.34,1.34,0,0,0,.5-.1,13.62,13.62,0,0,1,2.5-.1,17.89,17.89,0,0,1,2.7.1h.6c.3,0,.4-.1.4-.2s-.1-.3-.4-.4a3.9,3.9,0,0,1-1.8-.7,6.08,6.08,0,0,1-1.1-2.2l-.3-.8-6.3-16c-.1-.3-.2-.4-.4-.4s-.3.1-.4.4l-7.5,16.6-.4,1a9.13,9.13,0,0,1-.8,1.3,2.3,2.3,0,0,1-.8.7l-.5.2c-.2,0-.2.2-.2.3s.1.3.4.3a4.53,4.53,0,0,0,.8-.1h2.3l1.4.1h.5c.3,0,.4-.1.4-.2s-.2-.3-.5-.3a2.3,2.3,0,0,1-1.3-.5,1.33,1.33,0,0,1-.3-1,6.61,6.61,0,0,1,.6-2.2l1-2.1a3.66,3.66,0,0,1,.7-1.2,3.09,3.09,0,0,1,1.3-.2h5.3a2.24,2.24,0,0,1,1,.1,3.05,3.05,0,0,1,.5.9l.7,1.9a10.94,10.94,0,0,1,.9,3.1C238.6,259.58,238.4,260,237.9,260Zm-2.8-8.4h-4.8c-.4,0-.7-.1-.7-.4a1.69,1.69,0,0,1,.2-.5l2.8-6.3a1.24,1.24,0,0,1,.2-.3c.1,0,.3.2.4.5l.1.3,2.3,5.8.1.3a.44.44,0,0,0,.1.3C235.9,251.48,235.6,251.58,235.1,251.58Z"/><path class="a" d="M273.6,260.67l1.1.1h.4c.4,0,.5-.1.5-.3s-.3-.3-.8-.4a2.62,2.62,0,0,1-1.5-.6,2.2,2.2,0,0,1-.4-1.6l-.1-1.8-.3-7.9-.1-3.5a7,7,0,0,1,.3-2.4,1.3,1.3,0,0,1,1-.9l.6-.2a.32.32,0,0,0,.3-.3.27.27,0,0,0-.3-.3h-.4c-.4,0-.9.1-1.5.1h-.5a2.18,2.18,0,0,1-.6-.1c-.2,0-.3,0-.4.1a1.63,1.63,0,0,0-.3.6l-6.8,14.6-.1.3-.2.4a1.24,1.24,0,0,1-.2.3,1.09,1.09,0,0,1-.2-.4l-.7-1.5-6.1-13.1-.2-.3c-.3-.6-.6-.9-1-.9h-3.5c-.2,0-.4.1-.4.3s.1.3.4.4a3.18,3.18,0,0,1,2.3,1.5,7.55,7.55,0,0,1,.7,3.8c0,.8-.1,2.7-.2,5.8l-.2,4.2a6.33,6.33,0,0,1-.5,2.5,2.38,2.38,0,0,1-1.5,1,.32.32,0,0,0-.3.3c0,.2.1.3.4.3h.5a12.75,12.75,0,0,1,2-.1c.6,0,1.4,0,2.5.1h.5c.3,0,.4-.1.4-.3s-.3-.3-.9-.4c-1.2-.2-1.8-1.1-1.8-2.8v-3.5l.3-7.2,5.5,11.8.3.6a5.44,5.44,0,0,1,.4.8c.2.5.4.7.7.7s.4-.2.6-.7a1.55,1.55,0,0,1,.3-.6c.2-.4.5-1,.8-1.7.7-1.6,1.1-2.6,1.2-2.7l1.5-3.1,1.3-2.8c.3-.6.8-1.6,1.6-3l.4,9.2.1,2.4a3.61,3.61,0,0,1-.3,1.8,2.42,2.42,0,0,1-1.1.8c-.2.1-.4.2-.4.3s.1.3.4.3a16,16,0,0,0,1.7-.1c.6,0,1.1-.1,1.4-.1A11.3,11.3,0,0,1,273.6,260.67Z"/><path class="a" d="M290.8,260l-.5.1c-.2,0-.4.1-.4.3s.1.3.4.3a1.34,1.34,0,0,0,.5-.1,13.62,13.62,0,0,1,2.5-.1,17.89,17.89,0,0,1,2.7.1h.6c.3,0,.4-.1.4-.2s-.1-.3-.4-.4a3.9,3.9,0,0,1-1.8-.7,6.08,6.08,0,0,1-1.1-2.2l-.3-.8-6.2-16c-.1-.3-.2-.4-.4-.4s-.3.1-.4.4l-7.5,16.6-.4,1a9.13,9.13,0,0,1-.8,1.3,2.3,2.3,0,0,1-.8.7l-.5.2c-.2,0-.2.2-.2.3s.1.3.4.3a4.53,4.53,0,0,0,.8-.1h2.3l1.4.1h.5c.3,0,.4-.1.4-.2s-.2-.3-.5-.3a2.3,2.3,0,0,1-1.3-.5,1.33,1.33,0,0,1-.3-1,6.61,6.61,0,0,1,.6-2.2l1-2.1a3.66,3.66,0,0,1,.7-1.2,3.09,3.09,0,0,1,1.3-.2h5.3a2.24,2.24,0,0,1,1,.1,3.05,3.05,0,0,1,.5.9l.7,1.9a10.94,10.94,0,0,1,.9,3.1C291.5,259.58,291.3,260,290.8,260Zm-2.8-8.4h-4.8c-.4,0-.7-.1-.7-.4a1.69,1.69,0,0,1,.2-.5l2.8-6.3a1.24,1.24,0,0,1,.2-.3c.1,0,.3.2.4.5l.1.3,2.3,5.8.1.3a.44.44,0,0,0,.1.3C288.7,251.48,288.5,251.58,288,251.58Z"/><path class="a" d="M303.9,259.88a6.51,6.51,0,0,1-3.7-1.2,5.39,5.39,0,0,1-2.2-3c-.1-.5-.3-.7-.5-.7s-.3.1-.3.4a6.34,6.34,0,0,0,.4,1.9,4.79,4.79,0,0,0,.4,1.3,3,3,0,0,0,.3,1c.1.1.2.3.3.4a5.68,5.68,0,0,0,2,.7,11.34,11.34,0,0,0,2.5.3,7.65,7.65,0,0,0,5.1-1.7,5.71,5.71,0,0,0,2-4.4c0-2.7-1.8-4.6-5.4-5.8a25.23,25.23,0,0,1-3.5-1.3,3.34,3.34,0,0,1-1.3-1.1,3.14,3.14,0,0,1-.7-2.1,2.9,2.9,0,0,1,1-2.3,3.92,3.92,0,0,1,2.6-.9,6.53,6.53,0,0,1,3.6,1,4.42,4.42,0,0,1,2.1,2.6c.2.5.3.7.5.7s.3-.1.3-.4a1.76,1.76,0,0,0-.1-.6l-.2-1.5c-.1-.8-.2-1.3-.2-1.5,0-.5-.1-.7-.4-.7-.1,0-.1,0-.2.1l-.2.2a.5.5,0,0,1-.6,0l-1-.4a6.69,6.69,0,0,0-2.6-.5,6.79,6.79,0,0,0-4.5,1.5,4.78,4.78,0,0,0-1.8,3.8,4.52,4.52,0,0,0,1.3,3.4,11.41,11.41,0,0,0,4.6,2.4,15.15,15.15,0,0,1,3.8,1.6,3.23,3.23,0,0,1,1.3,2.7,3.85,3.85,0,0,1-1.4,2.9A4.79,4.79,0,0,1,303.9,259.88Z"/><path class="a" d="M317.9,260.48a45.41,45.41,0,0,1,4.6.3c.5,0,.9.1,1.1.1a3.76,3.76,0,0,0,3.2-1.6,4.07,4.07,0,0,0,1.1-2.2c0-.3-.1-.4-.3-.4s-.2.1-.3.3c-1.1,1.7-3.5,2.6-7.3,2.6a4.77,4.77,0,0,1-2.2-.3c-.3-.2-.4-.7-.4-1.5v-5.9a.85.85,0,0,1,.2-.6,2.22,2.22,0,0,1,.9-.1h3.2a4.18,4.18,0,0,1,1.8.3,2,2,0,0,1,.7,1.3l.1.4c0,.2.2.3.4.3s.3-.1.3-.4v-.4a10.87,10.87,0,0,1-.1-1.8,24.4,24.4,0,0,1,.1-2.6V248c0-.2-.1-.4-.3-.4s-.3.1-.4.3a4,4,0,0,1-.4,1.2,1.88,1.88,0,0,1-1,.4,14.36,14.36,0,0,1-2.4.2h-2.2c-.4,0-.7,0-.7-.1s-.1-.4-.1-.8v-5.9a1.33,1.33,0,0,1,.3-1,2.87,2.87,0,0,1,1.2-.2h2.3a19.48,19.48,0,0,1,3.1.2,1.3,1.3,0,0,1,1.1.9,2.92,2.92,0,0,1,.2.9v.4c0,.3.1.4.3.4s.3-.1.3-.2a2.24,2.24,0,0,0,.1-1l.1-.9c0-.6.1-1,.1-1.2v-.3c0-.3-.2-.4-.5-.4a1.76,1.76,0,0,0-.6.1,5.13,5.13,0,0,0-1,.1l-2.1.1c-.9,0-2,.1-3.1.1-1.9,0-3.6-.1-5-.2-.4,0-.7-.1-1-.1s-.7.1-.7.4.1.3.4.3c.9,0,1.5.2,1.8.7a5.75,5.75,0,0,1,.5,2.8V258c0,1.2-.3,1.8-1,2l-.6.2c-.3.1-.4.2-.4.3s.2.3.5.3a3.22,3.22,0,0,0,.8-.1A18.71,18.71,0,0,1,317.9,260.48Z"/><path class="a" d="M345.5,257.67c0,1.5-.5,2.3-1.5,2.5-.3,0-.5.2-.5.3a.27.27,0,0,0,.3.3,5.81,5.81,0,0,0,1-.1h2.9a5.76,5.76,0,0,1,1.5.1c.3,0,.6.1.8.1s.4-.1.4-.3-.2-.2-.5-.3a2.45,2.45,0,0,1-1.7-.7,3.87,3.87,0,0,1-.4-2.2v-14.1a2.77,2.77,0,0,1,.3-1.3.94.94,0,0,1,.8-.6l.6-.1c.2-.1.3-.1.3-.3a.27.27,0,0,0-.3-.3,1.09,1.09,0,0,0-.5.1,11.62,11.62,0,0,1-2.2.1,12.75,12.75,0,0,1-2-.1c-.5,0-.8-.1-1-.1s-.4.1-.4.2.1.3.4.3c.7.2,1.2.4,1.4.9a3.69,3.69,0,0,1,.4,2.1v5a.59.59,0,0,1-.2.5c-.1.1-.4.1-.8.1H336a2,2,0,0,1-1.1-.2,1.6,1.6,0,0,1-.2-1v-5.2a2.81,2.81,0,0,1,.3-1.5,2.61,2.61,0,0,1,1.3-.7c.3-.1.4-.2.4-.3s-.1-.3-.4-.3a1.76,1.76,0,0,0-.6.1,11.48,11.48,0,0,1-1.9.1,22.62,22.62,0,0,1-2.7-.1c-.4,0-.7-.1-.9-.1s-.4.1-.4.3.1.3.4.3a2.48,2.48,0,0,1,1.7.8,3,3,0,0,1,.5,1.8v12.5a17.47,17.47,0,0,1-.2,2.9c-.2.5-.4.9-.9,1l-.7.2c-.3.1-.4.2-.4.3s.1.3.4.3a4.4,4.4,0,0,0,.9-.1h3.1a6.25,6.25,0,0,1,1.7.1,5.64,5.64,0,0,1,.7.1c.3,0,.4-.1.4-.3s-.2-.3-.6-.4c-.9-.1-1.5-.3-1.8-.8a3.58,3.58,0,0,1-.5-2.1v-5.3a1.69,1.69,0,0,1,.2-.9,1.85,1.85,0,0,1,1-.2h8.6c.5,0,.8,0,.9.1s.1.3.1.8v5.3Z"/><path class="a" d="M354.9,259.38c-.2.4-.7.6-1.4.8-.3,0-.5.2-.5.3s.1.3.4.3h.7l1.7-.1h2.1a5.76,5.76,0,0,1,1.5.1h.5c.3,0,.5-.1.5-.3s-.2-.3-.7-.4a2.83,2.83,0,0,1-1.3-.4,2.55,2.55,0,0,1-.7-1,8.34,8.34,0,0,1-.2-2.7v-10.9c0-2.1.4-3.2,1.1-3.5l.8-.3c.3-.1.4-.2.4-.4s-.1-.3-.4-.3H359l-1,.1h-1.8a21.85,21.85,0,0,1-2.8-.1h-.3c-.3,0-.4.1-.4.3s.2.3.5.3a2.53,2.53,0,0,1,1.8.8,4.47,4.47,0,0,1,.4,2.4v12.5A5.54,5.54,0,0,1,354.9,259.38Z"/><path class="a" d="M245.3,210.48v-26.1H232.2v-9.3h13.1v-.9c0-9.3-4.3-16.1-33.7-11l-48.4,8.6-27.8,38.6,66.8-11.9C222.2,195.27,239.8,194.58,245.3,210.48Z"/><path class="a" d="M277.1,174c-15.2,15.2-22.6,23.9-22.6,36.5,5.8-16.7,24.3-15.2,46-11l64.2,11.1L336.8,172l-48.9-8.6Z"/><path class="a" d="M278.2,149.38c-5.9,5.9-16.3,15.3-21.1,25.7h10.8l12.4-12.3c11.4-11.4,20.2-20.1,23.9-31a40.1,40.1,0,0,0,2.1-19.9c-.3-2.2-1.2-5.2-1.3-4.6-1.1,12.4-4.5,19.8-22.5,37.8Z"/><path class="a" d="M220.2,97.68l24.4-24.5c6.6-6.6,23.3-21.5,23.3-34.5V24.38c0-.2-.3-.1-.3,0-1.1,9.7-3.5,13.8-27.1,37.4l-23.3,23.3c-12.3,12.3-22.3,25.4-21,40.1.7,8.2,3.5,12.7,5.3,14,.9.6.7.2.4-.4C194.8,122.77,211.7,106.18,220.2,97.68Z"/><path class="a" d="M244.6,97.77c6.6-6.6,23.3-21.5,23.3-34.5V49c0-.2-.3-.1-.3,0-1.1,9.7-3.5,13.8-27.1,37.4l-21.6,21.7c-7.9,7.9-15.1,16.1-14.7,29.4.2,8.1,4.3,14.9,10.5,16.5,2.5.5,2.4.2,1.8,0-8.7-4.1-8.1-19.8,6-33.9Z"/><path class="a" d="M194.9,113.88c1.1-12.4,4.5-19.8,22.5-37.8l27.2-27.2c6.6-6.6,23.3-21.5,23.3-34.5V.07c0-.1-.3-.1-.3,0-1.1,9.7-3.5,13.8-27.1,37.4l-20.9,20.9c-11.4,11.4-20.2,20.1-23.9,31a40.1,40.1,0,0,0-2.1,19.9C193.9,111.48,194.9,114.48,194.9,113.88Z"/><path class="a" d="M254.7,198.58a30.86,30.86,0,0,1,5.7-14.2h-6v14.2C254.4,198.67,254.7,198.67,254.7,198.58Z"/><path class="a" d="M282.6,120.57l-6.9,6.9c-10.6,10.5-21.3,22.3-21.3,33.2v14.5c0,.1.3.1.3,0,1.2-10.6,6.2-17.4,21.5-32.7l6.3-6.4c12.3-12.3,22.3-25.4,21-40.1-.7-8.2-3.5-12.7-5.3-14-.9-.6-.7-.2-.4.4C305,98.38,288.1,115,282.6,120.57Z"/><path class="a" d="M254.4,150c0,.1.3.1.3,0,1.2-10.1,6.9-17.7,20.1-30.9l6.3-6.3c7.9-7.9,14.9-16,14.6-29.3-.2-8.1-4.3-14.9-10.5-16.5-2.5-.5-2.4-.2-1.8,0,8.7,4.1,8.1,19.8-6,33.9l-7.8,7.7c-5,5-15.3,16.2-15.3,26.6V150Z"/><path class="a" d="M366.5,195.77a7.85,7.85,0,0,0,5.8-2.4,8,8,0,0,0,2.4-5.8,7.85,7.85,0,0,0-2.4-5.8,8,8,0,0,0-5.8-2.4,8.17,8.17,0,0,0-6.3,2.9,8.16,8.16,0,0,0,0,10.7A7.8,7.8,0,0,0,366.5,195.77Zm-5.2-13.4a7.26,7.26,0,0,1,5.2-2.2,7.35,7.35,0,0,1,5.2,12.5,7.26,7.26,0,0,1-5.2,2.2,6.88,6.88,0,0,1-5.2-2.2,7.17,7.17,0,0,1-2.1-5.2A6.58,6.58,0,0,1,361.3,182.38Z"/><path class="a" d="M362.7,183.17h.3c.5.1.7.4.7,1.1v5.6c0,.8-.1,1.3-.1,1.5a1,1,0,0,1-.7.5c-.2,0-.3.1-.3.2s.1.2.3.2h3.2c.2,0,.3-.1.3-.2s-.1-.2-.4-.3a4.05,4.05,0,0,1-1-.3c-.2-.2-.2-.5-.2-1.1v-2.5h1a.76.76,0,0,1,.5.2l.1.2,1.7,2.6a2.8,2.8,0,0,0,2.2,1.5c.7,0,1.1-.1,1.1-.3a.22.22,0,0,0-.2-.2H371c-.5,0-1-.5-1.6-1.3l-.2-.3-1.8-2.7a2.64,2.64,0,0,0,1.6-2.4q0-2.4-3.3-2.4h-3.2c-.2,0-.3.1-.3.2A.59.59,0,0,0,362.7,183.17Zm2.9.2a2.52,2.52,0,0,1,1.7.6,2.13,2.13,0,0,1,.7,1.5,1.59,1.59,0,0,1-1.8,1.8h-.8c-.2,0-.3,0-.3-.1a.44.44,0,0,1-.1-.3V184Q364.85,183.38,365.6,183.38Z"/><path class="a" d="M30.6,370.08A3.52,3.52,0,0,1,28,369a6.21,6.21,0,0,1-.7-3.3v-21.6a4.55,4.55,0,0,1,.5-2,1.68,1.68,0,0,1,1.2-1l.9-.2c.4-.1.5-.2.5-.5s-.2-.4-.5-.4a3.22,3.22,0,0,0-.8.1,27.4,27.4,0,0,1-3.3.1,30.28,30.28,0,0,1-3.1-.2,9.89,9.89,0,0,0-1.5-.1c-.4,0-.5.1-.6.4s.2.4.6.5a3.2,3.2,0,0,1,2.2,1.3,6.39,6.39,0,0,1,.6,3.3V353c0,.4-.1.7-.3.8a2.87,2.87,0,0,1-1.2.2H9.3a3.84,3.84,0,0,1-1.6-.2,3,3,0,0,1-.3-1.5v-8a4.77,4.77,0,0,1,.5-2.4,3.39,3.39,0,0,1,2-1.1c.4-.1.6-.3.6-.5s-.2-.5-.6-.5a3.44,3.44,0,0,0-.9.1,26.61,26.61,0,0,1-3,.2c-1.6,0-2.9-.1-4.1-.2a7.77,7.77,0,0,0-1.3-.1c-.4,0-.6.1-.6.4s.2.4.6.5a4,4,0,0,1,2.6,1.2,4.28,4.28,0,0,1,.7,2.8v19.2a15.43,15.43,0,0,1-.4,4.4,2,2,0,0,1-1.3,1.5l-1.1.3c-.4.1-.6.3-.6.5s.2.4.6.4a10.33,10.33,0,0,0,1.4-.1,7.6,7.6,0,0,1,1.4-.1l1.5-.1H7.3a16.44,16.44,0,0,1,2.7.1,5.38,5.38,0,0,0,1.1.1c.4,0,.7-.2.6-.5s-.3-.5-.8-.6a3.29,3.29,0,0,1-2.7-1.2,5.38,5.38,0,0,1-.7-3.3v-7.9a1.88,1.88,0,0,1,.3-1.3c.2-.2.7-.3,1.6-.3H22.5a2.44,2.44,0,0,1,1.3.2,2.23,2.23,0,0,1,.2,1.2v9.1c0,2.3-.8,3.6-2.3,3.8-.5.1-.7.2-.8.5s.2.5.5.4a13.58,13.58,0,0,0,1.5-.1c.4,0,.8-.1,1.1-.1h3.3a11,11,0,0,1,2.2.1,5.74,5.74,0,0,0,1.2.1c.4,0,.7-.2.6-.5S31.1,370.17,30.6,370.08Z"/><path class="a" d="M55.9,370.17a4.17,4.17,0,0,1-2.1-.8,8.75,8.75,0,0,1-1.3-2.5l-.4-.9L45,347.88c-.1-.3-.3-.5-.4-.5s-.3.2-.5.5l-8.5,18.8-.5,1.1a6,6,0,0,1-.9,1.5,2.75,2.75,0,0,1-.9.8l-.6.2c-.2.1-.3.2-.3.4s.1.3.4.3a4.4,4.4,0,0,0,.9-.1h2.5l1.6.1h.6c.3,0,.5-.1.5-.3s-.2-.3-.5-.4a3.69,3.69,0,0,1-1.5-.6,1.25,1.25,0,0,1-.4-1.1,6.79,6.79,0,0,1,.7-2.5l1.1-2.4a3.18,3.18,0,0,1,.8-1.3,4,4,0,0,1,1.5-.2h6a2.53,2.53,0,0,1,1.1.1,2.8,2.8,0,0,1,.5,1l.8,2.2a11.2,11.2,0,0,1,1,3.5,1,1,0,0,1-.8,1.1l-.5.1c-.3.1-.4.2-.4.3s.1.3.4.3a1.09,1.09,0,0,0,.5-.1,18,18,0,0,1,2.9-.1,21.17,21.17,0,0,1,3,.1h.6c.3,0,.5-.1.5-.3C56.4,370.38,56.2,370.27,55.9,370.17Zm-9.7-9.6H40.8c-.5,0-.8-.1-.8-.4a3.93,3.93,0,0,1,.2-.6l3.3-7.2q.15-.3.3-.3c.2,0,.3.2.4.5l.1.3,2.6,6.5.1.3a.76.76,0,0,1,.1.4C47,360.48,46.8,360.58,46.2,360.58Z"/><path class="a" d="M78,370.17h-.5c-1.2-.1-2.5-1.1-3.9-3.2l-.5-.8-4.5-6.7c2.7-1.4,4.1-3.3,4.1-5.7a4.72,4.72,0,0,0-1.9-4.2c-1.3-1-3.2-1.4-5.7-1.4a19.3,19.3,0,0,0-2.3.1c-1.2.1-2.1.1-2.6.1H58.7a8.37,8.37,0,0,1-1.2-.1q-.6,0-.6.3c0,.2.2.3.5.4l.8.1c1.2.2,1.8,1.2,1.8,2.9v13.4a10,10,0,0,1-.4,3.7,2.45,2.45,0,0,1-1.7,1.2c-.3.1-.4.2-.4.3s.1.3.4.3a3.44,3.44,0,0,0,.9-.1,7.08,7.08,0,0,1,1.4-.1h2.5a12.17,12.17,0,0,1,2.1.1c.5,0,.8.1,1,.1.4,0,.6-.1.5-.3s-.2-.3-.6-.4a4.08,4.08,0,0,1-2.2-.7,1.85,1.85,0,0,1-.7-.9,8.71,8.71,0,0,1-.1-1.9v-5.9c0-.3.1-.5.2-.5l.4-.1h2.2a1.36,1.36,0,0,1,1.3.7l.2.4,4.1,6.3a10.89,10.89,0,0,0,2.4,2.7,5,5,0,0,0,2.7.8,7.77,7.77,0,0,0,1.6-.2c.5-.1.7-.3.7-.5C78.3,370.27,78.2,370.17,78,370.17Zm-12.5-11.1H63.6a2.15,2.15,0,0,1-1-.2,1.85,1.85,0,0,1-.2-1v-7.2c0-.6.1-1,.4-1.2a2.06,2.06,0,0,1,1.3-.3,6.26,6.26,0,0,1,4.3,1.5,5.07,5.07,0,0,1,1.7,3.9,4.46,4.46,0,0,1-1.2,3.3A4.55,4.55,0,0,1,65.5,359.08Z"/><path class="a" d="M87.2,370.17a3.71,3.71,0,0,1-1.5-.5,2.28,2.28,0,0,1-.8-1.2,10,10,0,0,1-.3-3.1V353q0-3.45,1.2-3.9l.9-.3c.3-.1.4-.2.4-.4s-.1-.3-.4-.3h-.4l-1.1.1c-.6,0-1.3.1-2.1.1a29.18,29.18,0,0,1-3.2-.1h-.3c-.3,0-.5.1-.5.4s.2.3.5.4a2.9,2.9,0,0,1,2,1,5.75,5.75,0,0,1,.5,2.8v14.1a6.06,6.06,0,0,1-.4,2.8,2.42,2.42,0,0,1-1.6.9c-.3.1-.5.2-.5.4s.1.3.4.3h.8l1.9-.1h2.4a7.16,7.16,0,0,1,1.7.1,3.54,3.54,0,0,1,.6.1c.3,0,.5-.1.5-.4C88.1,370.38,87.8,370.27,87.2,370.17Z"/><path class="a" d="M127.1,370.08l-1-.2a7.35,7.35,0,0,1-4-2.4l-11.6-12.2a1.35,1.35,0,0,1-.5-.9c0-.2.2-.4.5-.7l7.6-6.9c3.8-3.4,6.4-5.3,7.7-5.6.7-.2,1.1-.4,1.1-.6s-.2-.4-.6-.4a2.25,2.25,0,0,0-.7.1c-.3,0-.9.1-1.9.1H122l-2.1-.1a13.42,13.42,0,0,1-2.1-.1h-.6c-.5,0-.7.2-.7.5s.3.5,1,.6c1.1.2,1.6.6,1.6,1.3s-.7,1.8-2.2,3.1l-9.6,8.6-.3.3-.4.2c-.1,0-.2-.2-.2-.5v-8.7a6.8,6.8,0,0,1,.4-3,3,3,0,0,1,1.8-1.4c.4-.1.5-.3.5-.5s-.2-.4-.5-.4a6.61,6.61,0,0,0-1.1.1h-3.7a34.43,34.43,0,0,1-3.6-.1c-.3,0-.6-.1-.8-.1-.4,0-.6.2-.6.5s.2.4.6.5l1.1.2a2.67,2.67,0,0,1,2,1.3,8,8,0,0,1,.5,3.3v19a12.08,12.08,0,0,1-.5,4,2.22,2.22,0,0,1-1.9,1.3c-.4,0-.6.2-.6.4s.2.5.7.5a10.3,10.3,0,0,0,1.3-.1h4.6a17.89,17.89,0,0,1,2.7.1c.6,0,1,.1,1.2.1.4,0,.5-.1.5-.4s-.2-.4-.7-.5a6.6,6.6,0,0,1-3.2-1.2c-.5-.5-.7-1.7-.7-3.4v-8.4c0-.3.1-.5.4-.5a.76.76,0,0,1,.5.2l.4.5,12,12.3.4.4a1.76,1.76,0,0,0,1.3.6h2.9a8.2,8.2,0,0,1,1.9.1h.5c.5,0,.7-.1.7-.5C127.6,370.27,127.5,370.17,127.1,370.08Z"/><path class="a" d="M145.5,366.27c-.1,0-.2.1-.4.3-1.2,1.9-4,2.9-8.3,2.9a5.84,5.84,0,0,1-2.5-.3c-.3-.2-.5-.8-.5-1.8v-6.5a.78.78,0,0,1,.3-.7,2.33,2.33,0,0,1,1.1-.2h3.6a3.52,3.52,0,0,1,2,.4,2.19,2.19,0,0,1,.8,1.5l.1.5a.43.43,0,0,0,.4.4c.2,0,.3-.1.3-.4v-.5a13.4,13.4,0,0,1-.1-2c0-.9,0-1.8.1-2.9v-.4c0-.3-.1-.4-.3-.4a.37.37,0,0,0-.4.4,2.73,2.73,0,0,1-.5,1.4,2.25,2.25,0,0,1-1.2.5,18.7,18.7,0,0,1-2.7.2h-2.5c-.5,0-.8-.1-.8-.2s-.1-.4-.1-.9v-6.7c0-.6.1-1,.3-1.1a1.88,1.88,0,0,1,1.3-.3h2.6a23.85,23.85,0,0,1,3.5.2,2,2,0,0,1,1.3,1,3.55,3.55,0,0,1,.2,1v.4c0,.3.1.5.3.5s.3-.1.4-.3a7.07,7.07,0,0,0,.2-1.2l.1-1a9.29,9.29,0,0,0,.1-1.3v-.4a.47.47,0,0,0-.5-.5,2.25,2.25,0,0,0-.7.1,8.33,8.33,0,0,0-1.2.1l-2.3.1c-1,0-2.2.1-3.6.1a46.73,46.73,0,0,1-5.7-.3,4.91,4.91,0,0,0-1.1-.1c-.5,0-.7.2-.7.4s.2.3.5.3a2.22,2.22,0,0,1,2,.8,7.16,7.16,0,0,1,.5,3.2v15c0,1.3-.4,2.1-1.2,2.3l-.6.2c-.3.1-.4.2-.4.4a.46.46,0,0,0,.5.4,3.87,3.87,0,0,0,.9-.1,33.81,33.81,0,0,1,4.1-.2c1.4,0,3.1.1,5.2.3.5,0,1,.1,1.3.1a4.59,4.59,0,0,0,3.7-1.8,4.33,4.33,0,0,0,1.2-2.5C145.8,366.48,145.7,366.27,145.5,366.27Z"/><path class="a" d="M167.1,349.58a2.87,2.87,0,0,0-.2-1.2,2,2,0,0,0-1.1-.2H148.1a1,1,0,0,0-.7.2,2.15,2.15,0,0,0-.2,1,19.09,19.09,0,0,1-.2,2,10.5,10.5,0,0,0-.2,1.3c0,.3.1.4.3.4s.3-.2.4-.6a3.38,3.38,0,0,1,.9-2,2.55,2.55,0,0,1,1.9-.5h4.4a.8.8,0,0,1,1,1v16.8a3,3,0,0,1-.4,1.9,2.45,2.45,0,0,1-1.7.7c-.4,0-.5.2-.5.3a.46.46,0,0,0,.5.4,6.61,6.61,0,0,0,1.1-.1c.3,0,.7-.1,1.2-.1h2.5a5,5,0,0,1,1.5.1,3.22,3.22,0,0,0,.8.1c.3,0,.5-.1.5-.4s-.2-.3-.6-.4a2.3,2.3,0,0,1-2.2-2.3v-16.8a2.15,2.15,0,0,1,.2-1,1.44,1.44,0,0,1,.9-.2h4.6a3.16,3.16,0,0,1,1.9.4c.3.2.5.7.7,1.5.1.4.2.5.4.5a.35.35,0,0,0,.3-.5,2.81,2.81,0,0,0-.1-.8A3,3,0,0,1,167.1,349.58Z"/><path class="a" d="M191.5,348.08h-3a6.62,6.62,0,0,1-1.5-.1,4.91,4.91,0,0,0-1.1-.1.27.27,0,0,0-.3.3c0,.2.2.3.5.4a2.4,2.4,0,0,1,2,1.1,5.62,5.62,0,0,1,.6,3v8.5c0,2.9-.6,5-1.9,6.5a7.76,7.76,0,0,1-5.9,2.2c-2.9,0-5-.9-6.3-2.6-.9-1.2-1.3-3.2-1.3-6.1v-9.4a5.39,5.39,0,0,1,.3-2.2,1.57,1.57,0,0,1,1.3-.8c.4-.1.5-.2.5-.4s-.1-.3-.4-.3h-.8a5.53,5.53,0,0,0-.9.1h-4.8c-.4,0-.6.1-.6.4s.1.3.4.3a2.7,2.7,0,0,1,2,.9,4.51,4.51,0,0,1,.5,2.4v9.3a11.35,11.35,0,0,0,1.2,5.6,8.08,8.08,0,0,0,3.3,3,11.81,11.81,0,0,0,5,1.1,11.3,11.3,0,0,0,4.5-.9,8.32,8.32,0,0,0,3.3-2.4q1.8-2.4,1.8-6.9v-8.2a8.54,8.54,0,0,1,.3-2.8,2.22,2.22,0,0,1,1.3-1.2c.2-.1.3-.2.3-.4S191.7,348.08,191.5,348.08Z"/><path class="a" d="M202,348.08a4.4,4.4,0,0,0-.9.1H199a20.24,20.24,0,0,1-2.8-.1,6.82,6.82,0,0,0-1.2-.1c-.4,0-.5.1-.5.4a.46.46,0,0,0,.5.4l1,.2a1.93,1.93,0,0,1,1.4,1,7.6,7.6,0,0,1,.4,2.7v18.4a7.14,7.14,0,0,1-.6,3.1,2,2,0,0,1-1.6,1.3,1.87,1.87,0,0,1-1.4-.8c-.3-.3-.4-.4-.6-.4s-.5.3-.6,1c-.1.3-.1.5-.2.6s-.1.3-.1.4a.72.72,0,0,0,.4.6,1.69,1.69,0,0,0,1,.3,5,5,0,0,0,3.7-1.8,8.82,8.82,0,0,0,2.3-4.5l.2-2.2v-17.4a3.42,3.42,0,0,1,.3-1.7,1.79,1.79,0,0,1,1.3-.7c.3-.1.5-.2.5-.4S202.2,348.08,202,348.08Z"/><path class="a" d="M228.1,348.08h-3a6.62,6.62,0,0,1-1.5-.1,4.91,4.91,0,0,0-1.1-.1.27.27,0,0,0-.3.3c0,.2.2.3.5.4a2.4,2.4,0,0,1,2,1.1,5.62,5.62,0,0,1,.6,3v8.5c0,2.9-.6,5-1.9,6.5a7.76,7.76,0,0,1-5.9,2.2c-2.9,0-5-.9-6.3-2.6-.9-1.2-1.3-3.2-1.3-6.1v-9.4a5.39,5.39,0,0,1,.3-2.2,1.57,1.57,0,0,1,1.3-.8c.4-.1.5-.2.5-.4s-.1-.3-.4-.3h-.8a5.53,5.53,0,0,0-.9.1h-4.8c-.4,0-.6.1-.6.4s.1.3.4.3a2.7,2.7,0,0,1,2,.9,4.51,4.51,0,0,1,.5,2.4v9.3a11.35,11.35,0,0,0,1.2,5.6,8.08,8.08,0,0,0,3.3,3,10.49,10.49,0,0,0,5,1.1,11.3,11.3,0,0,0,4.5-.9,8.32,8.32,0,0,0,3.3-2.4q1.8-2.4,1.8-6.9v-8.2a8.54,8.54,0,0,1,.3-2.8,2.22,2.22,0,0,1,1.3-1.2c.2-.1.3-.2.3-.4A.27.27,0,0,0,228.1,348.08Z"/><path class="a" d="M253.9,370.27a2.81,2.81,0,0,1-1.9-.8,4.51,4.51,0,0,1-.5-2.4v-15.9a4,4,0,0,1,.3-1.5,1.07,1.07,0,0,1,.9-.7l.7-.1c.3-.1.4-.2.4-.3s-.1-.3-.4-.3a1.76,1.76,0,0,0-.6.1,15.63,15.63,0,0,1-2.5.1,17,17,0,0,1-2.3-.1,5.38,5.38,0,0,0-1.1-.1c-.3,0-.4.1-.4.3s.1.3.5.4a2.36,2.36,0,0,1,1.6,1,4.94,4.94,0,0,1,.4,2.4V358a.85.85,0,0,1-.2.6c-.1.1-.4.1-.9.1h-9.7a2.23,2.23,0,0,1-1.2-.2,2,2,0,0,1-.2-1.1v-5.9a2.5,2.5,0,0,1,.4-1.7,3,3,0,0,1,1.5-.8c.3-.1.4-.2.4-.4s-.2-.3-.5-.3a2,2,0,0,0-.7.1,15.48,15.48,0,0,1-2.2.1,26.27,26.27,0,0,1-3-.1,4.59,4.59,0,0,0-1-.1c-.3,0-.4.1-.4.3s.2.3.5.4a2.46,2.46,0,0,1,1.9.9,3,3,0,0,1,.5,2.1v14.2a11.71,11.71,0,0,1-.3,3.2c-.2.6-.5,1-1,1.1l-.8.2c-.3.1-.4.2-.4.4s.1.3.4.3a5.13,5.13,0,0,0,1-.1c.4,0,.8-.1,1-.1h2.5a9.27,9.27,0,0,1,2,.1,3.22,3.22,0,0,0,.8.1c.3,0,.5-.1.5-.3s-.2-.4-.6-.4a2.52,2.52,0,0,1-2-.9,3.91,3.91,0,0,1-.5-2.4v-6a2.15,2.15,0,0,1,.2-1,2.53,2.53,0,0,1,1.2-.2h9.7c.6,0,.9,0,1,.1s.1.4.1.9v6.7c0,1.7-.6,2.6-1.7,2.8-.4.1-.5.2-.6.4s.1.3.4.3a6.61,6.61,0,0,0,1.1-.1h3.2a5.79,5.79,0,0,1,1.6.1,3.08,3.08,0,0,0,.9.1c.3,0,.5-.1.5-.4C254.4,370.38,254.2,370.27,253.9,370.27Z"/><path class="a" d="M278.4,339.88a25.32,25.32,0,0,0-2.9.1l-2.1.2a33.33,33.33,0,0,1-3.5.1h-1.6l-1.8-.1c-.4,0-.6.1-.6.4s.2.4.7.5a3.17,3.17,0,0,1,2.5,1.2,5.71,5.71,0,0,1,.8,3.3v20.1a10.55,10.55,0,0,1-.4,3.3,2.94,2.94,0,0,1-2,1.1c-.4.1-.6.3-.6.5,0,.4.3.5.8.5.3,0,.7-.1,1.3-.1a26.17,26.17,0,0,1,4.1-.2c1.5,0,3.2.1,5.2.2a19.7,19.7,0,0,0,2.1.1,17.1,17.1,0,0,0,9-2.6,13.8,13.8,0,0,0,5.1-5.6,16.49,16.49,0,0,0,1.8-7.7,14.39,14.39,0,0,0-4.2-10.7C289.1,341.48,284.5,339.88,278.4,339.88Zm9.4,28a12.34,12.34,0,0,1-6.9,1.9,20,20,0,0,1-3.1-.3,16,16,0,0,1-3-.8,1.92,1.92,0,0,1-1.4-1.9v-22.9a2.16,2.16,0,0,1,.6-1.8c.6-.5,2.1-.8,4.5-.8a13.71,13.71,0,0,1,8.4,2.5,12.7,12.7,0,0,1,4.4,5.5,17.7,17.7,0,0,1,1.6,7.7C292.9,362.08,291.2,365.77,287.8,367.88Z"/><path class="a" d="M307.5,370.17a3.71,3.71,0,0,1-1.5-.5,2.28,2.28,0,0,1-.8-1.2,10,10,0,0,1-.3-3.1V353q0-3.45,1.2-3.9l.9-.3c.3-.1.4-.2.4-.4s-.1-.3-.4-.3h-.4l-1.1.1c-.6,0-1.3.1-2.1.1a29.18,29.18,0,0,1-3.2-.1h-.3c-.3,0-.5.1-.5.4s.2.3.5.4a2.9,2.9,0,0,1,2,1,5.75,5.75,0,0,1,.5,2.8v14.1a6.06,6.06,0,0,1-.4,2.8,2.42,2.42,0,0,1-1.6.9c-.3.1-.5.2-.5.4s.1.3.4.3h.8l1.9-.1h2.4a7.16,7.16,0,0,1,1.7.1,3.54,3.54,0,0,1,.6.1c.3,0,.5-.1.5-.4C308.4,370.38,308.1,370.27,307.5,370.17Z"/><path class="a" d="M330.4,370a5.17,5.17,0,0,1-2.1-.7,3.44,3.44,0,0,1-1.1-1.6,12.31,12.31,0,0,1-.4-4.1v-16.7c0-3.1.5-4.9,1.6-5.3l1.2-.4q.6-.15.6-.6c0-.3-.2-.4-.6-.4H329l-1.5.1c-.8,0-1.7.1-2.8.1-1.8,0-3.2-.1-4.3-.2H320c-.4,0-.7.2-.6.5s.3.4.7.5a3.8,3.8,0,0,1,2.7,1.3,7.7,7.7,0,0,1,.6,3.7v19.1a9.34,9.34,0,0,1-.5,3.7,2.93,2.93,0,0,1-2.2,1.2c-.5.1-.7.2-.7.5s.2.5.6.5a4.91,4.91,0,0,0,1.1-.1l2.6-.2,3.2.1a14.89,14.89,0,0,1,2.4.1c.3,0,.6.1.8.1.5,0,.7-.2.7-.5S331.1,370.08,330.4,370Z"/><path class="a" d="M355.5,348.08a2.48,2.48,0,0,0-.8.1,7.59,7.59,0,0,1-1.6.1,27.25,27.25,0,0,1-3.1-.1h-.7c-.3,0-.5.1-.5.3s.2.3.5.4a4.55,4.55,0,0,1,2.3.9,3.37,3.37,0,0,1,.8,2l.2,3.8V366c0,.2-.1.3-.2.3s-.2-.1-.5-.4l-15.2-17.2a1.46,1.46,0,0,0-.8-.5h-3c-.2,0-.4.1-.4.3s.1.3.4.4a3.57,3.57,0,0,1,2.6,1.9,9.45,9.45,0,0,1,.9,4.5v11.2a5.68,5.68,0,0,1-.5,2.6,3.19,3.19,0,0,1-1.9,1.3c-.3.1-.5.2-.5.4s.2.3.5.3a1.76,1.76,0,0,0,.6-.1,4.87,4.87,0,0,1,1.2-.1h.8l1.7.1a11.35,11.35,0,0,1,1.4.1h.5a.27.27,0,0,0,.3-.3.46.46,0,0,0-.5-.4c-.9-.1-1.5-.3-1.7-.6a2.62,2.62,0,0,1-.6-1.5v-13.1c0-.5.1-.7.3-.7s.2,0,.2.1l.2.2,13.9,15.9.4.4c.1.1.2.1.4.1s.4-.1.5-.4a11.06,11.06,0,0,0,.1-2.3v-16.7a5.39,5.39,0,0,1,.3-2.2,1.74,1.74,0,0,1,1.3-.8q.3-.15.3-.3C356,348.17,355.8,348.08,355.5,348.08Z"/><path class="a" d="M368.1,348a15.48,15.48,0,0,0-2.2.1l-1.5.2a18.58,18.58,0,0,1-2.6.1h-1.2l-1.3-.1c-.3,0-.4.1-.4.3s.2.3.5.3a2.64,2.64,0,0,1,1.9.9,3.84,3.84,0,0,1,.6,2.4v14.9a6.24,6.24,0,0,1-.3,2.4,1.82,1.82,0,0,1-1.5.8c-.3.1-.5.2-.5.4s.2.4.6.4a3.44,3.44,0,0,0,.9-.1,26.89,26.89,0,0,1,3.1-.2c1.1,0,2.4.1,3.8.1a9.89,9.89,0,0,0,1.5.1,11.82,11.82,0,0,0,6.6-1.9,10.72,10.72,0,0,0,3.8-4.1,12,12,0,0,0,1.4-5.7,10.47,10.47,0,0,0-3.1-7.9C376,349.08,372.6,348,368.1,348Zm6.9,20.6a9.75,9.75,0,0,1-5.1,1.4c-.6,0-1.4-.1-2.3-.2a21.78,21.78,0,0,1-2.2-.6,1.38,1.38,0,0,1-1-1.4v-17c0-.7.1-1.1.4-1.3a5.92,5.92,0,0,1,3.3-.6,10.55,10.55,0,0,1,6.2,1.8,9.7,9.7,0,0,1,3.3,4.1,13.22,13.22,0,0,1,1.2,5.7C378.8,364.38,377.5,367.08,375,368.58Z"/><path class="a" d="M395.9,347.77a13.72,13.72,0,0,0-4.9.9,10.93,10.93,0,0,0-3.9,2.5,9.31,9.31,0,0,0-2.3,3.7,12,12,0,0,0-.9,4.5,11.45,11.45,0,0,0,3.3,8.5,11.62,11.62,0,0,0,8.6,3.2,11.15,11.15,0,0,0,8.5-3.4,11.84,11.84,0,0,0,3.3-8.6,11.08,11.08,0,0,0-3.3-8.2A11.73,11.73,0,0,0,395.9,347.77Zm6.9,19.7a8.07,8.07,0,0,1-6.3,2.8,9,9,0,0,1-7.1-3.4,12.79,12.79,0,0,1-2.9-8.4,10,10,0,0,1,2.2-6.9,7.71,7.71,0,0,1,6.1-2.6,9.51,9.51,0,0,1,7.4,3.3,11.68,11.68,0,0,1,3,8.2A9.67,9.67,0,0,1,402.8,367.48Z"/><path class="a" d="M432,348.08a2.48,2.48,0,0,0-.8.1,7.11,7.11,0,0,1-1.6.1,27.25,27.25,0,0,1-3.1-.1h-.7c-.3,0-.5.1-.5.3s.2.3.5.4a4.55,4.55,0,0,1,2.3.9,3.37,3.37,0,0,1,.8,2l.2,3.8V366c0,.2-.1.3-.2.3s-.2-.1-.5-.4l-15.2-17.2a1.46,1.46,0,0,0-.8-.5h-3c-.2,0-.4.1-.4.3s.1.3.4.4a3.57,3.57,0,0,1,2.6,1.9,9.45,9.45,0,0,1,.9,4.5v11.2a5.68,5.68,0,0,1-.5,2.6,3.19,3.19,0,0,1-1.9,1.3c-.3.1-.5.2-.5.4s.2.3.5.3a1.76,1.76,0,0,0,.6-.1,4.87,4.87,0,0,1,1.2-.1h.8l1.7.1a11.35,11.35,0,0,1,1.4.1h.5a.27.27,0,0,0,.3-.3.46.46,0,0,0-.5-.4,2.75,2.75,0,0,1-1.7-.6,2.62,2.62,0,0,1-.6-1.5l-.1-1.2v-11.9c0-.5.1-.7.3-.7s.2,0,.2.1l.2.2,13.9,15.9.4.4c.1.1.2.1.4.1s.4-.1.5-.4a11.06,11.06,0,0,0,.1-2.3v-16.7a5.39,5.39,0,0,1,.3-2.2,1.74,1.74,0,0,1,1.3-.8q.3-.15.3-.3C432.4,348.17,432.3,348.08,432,348.08Z"/><path class="a" d="M452.6,366.27c-.1,0-.2.1-.4.3-1.2,1.9-4,2.9-8.3,2.9a5.84,5.84,0,0,1-2.5-.3c-.3-.2-.5-.8-.5-1.8v-6.5a.78.78,0,0,1,.3-.7,2.33,2.33,0,0,1,1.1-.2h3.6a3.52,3.52,0,0,1,2,.4,2.19,2.19,0,0,1,.8,1.5l.1.5a.43.43,0,0,0,.4.4c.2,0,.3-.1.3-.4v-.5a13.4,13.4,0,0,1-.1-2c0-.9.1-1.8.1-2.9v-.4c0-.3-.1-.4-.3-.4a.37.37,0,0,0-.4.4,2.73,2.73,0,0,1-.5,1.4,2.25,2.25,0,0,1-1.2.5,18.7,18.7,0,0,1-2.7.2h-2.5c-.5,0-.8-.1-.8-.2s-.1-.4-.1-.9v-6.7c0-.6.1-1,.3-1.1a1.88,1.88,0,0,1,1.3-.3h2.6a23.85,23.85,0,0,1,3.5.2,2,2,0,0,1,1.3,1,3.55,3.55,0,0,1,.2,1v.4c0,.3.1.5.3.5s.3-.1.4-.3a7.07,7.07,0,0,0,.2-1.2l.1-1a9.29,9.29,0,0,0,.1-1.3c0-.2.1-.3.1-.4a.47.47,0,0,0-.5-.5,2.25,2.25,0,0,0-.7.1,8.33,8.33,0,0,0-1.2.1l-2.3.1c-1,0-2.2.1-3.6.1a46.73,46.73,0,0,1-5.7-.3,4.91,4.91,0,0,0-1.1-.1c-.5,0-.7.2-.7.4s.2.3.5.3a2.22,2.22,0,0,1,2,.8,7.16,7.16,0,0,1,.5,3.2v15c0,1.3-.4,2.1-1.2,2.3l-.6.2c-.3.1-.4.2-.4.4a.46.46,0,0,0,.5.4,3.87,3.87,0,0,0,.9-.1,33.81,33.81,0,0,1,4.1-.2c1.4,0,3.1.1,5.2.3.5,0,1,.1,1.3.1a4.59,4.59,0,0,0,3.7-1.8,4.33,4.33,0,0,0,1.2-2.5C452.9,366.48,452.8,366.27,452.6,366.27Z"/><path class="a" d="M463.2,357.67c-2.1-.7-3.4-1.2-3.9-1.4a5.8,5.8,0,0,1-1.5-1.3,4.07,4.07,0,0,1-.8-2.4,3.37,3.37,0,0,1,1.2-2.6,4.36,4.36,0,0,1,3-1,7,7,0,0,1,4,1.2,6,6,0,0,1,2.4,2.9c.2.5.4.8.5.8a.46.46,0,0,0,.4-.5,2.64,2.64,0,0,0-.1-.7l-.3-1.7c-.1-.9-.2-1.5-.2-1.7,0-.5-.1-.8-.4-.8-.1,0-.2,0-.2.1l-.2.2a.76.76,0,0,1-.4.2.37.37,0,0,1-.3-.1l-1.1-.5a8.53,8.53,0,0,0-3-.5,7.65,7.65,0,0,0-5.1,1.7,5.5,5.5,0,0,0-2,4.3,5.28,5.28,0,0,0,1.5,3.9,13,13,0,0,0,5.2,2.7,18.07,18.07,0,0,1,4.3,1.8,4.06,4.06,0,0,1-.2,6.3,5.49,5.49,0,0,1-3.8,1.3,6.77,6.77,0,0,1-4.1-1.4,6.34,6.34,0,0,1-2.5-3.4c-.2-.5-.3-.8-.5-.8s-.3.2-.3.5a8,8,0,0,0,.4,2.1,8,8,0,0,1,.4,1.5,3,3,0,0,0,.3,1.1c.1.1.2.3.4.4a6.81,6.81,0,0,0,2.2.8,14.52,14.52,0,0,0,2.8.4,8.69,8.69,0,0,0,5.8-2,6.32,6.32,0,0,0,2.2-5C469.3,361.17,467.3,359,463.2,357.67Z"/><path class="a" d="M480.1,370.17a3.71,3.71,0,0,1-1.5-.5,2.29,2.29,0,0,1-.8-1.2,10,10,0,0,1-.3-3.1V353q0-3.45,1.2-3.9l.9-.3c.3-.1.4-.2.4-.4s-.1-.3-.4-.3h-.4l-1.1.1c-.6,0-1.3.1-2.1.1a29.18,29.18,0,0,1-3.2-.1h-.3c-.3,0-.5.1-.5.4s.2.3.5.4a2.9,2.9,0,0,1,2,1,5.75,5.75,0,0,1,.5,2.8v14.1a6.05,6.05,0,0,1-.4,2.8,2.42,2.42,0,0,1-1.6.9c-.3.1-.5.2-.5.4s.2.3.4.3h.8l1.9-.1H478a7.16,7.16,0,0,1,1.7.1,3.54,3.54,0,0,1,.6.1c.3,0,.5-.1.5-.4C480.9,370.38,480.6,370.27,480.1,370.17Z"/><path class="a" d="M504.5,370.17a4.17,4.17,0,0,1-2.1-.8,8.75,8.75,0,0,1-1.3-2.5l-.4-.9-7.1-18.1c-.1-.3-.3-.5-.4-.5s-.3.2-.5.5l-8.5,18.8-.5,1.1a6,6,0,0,1-.9,1.5,2.75,2.75,0,0,1-.9.8l-.6.2c-.2.1-.3.2-.3.4s.1.3.4.3a4.4,4.4,0,0,0,.9-.1h2.5l1.6.1h.6c.3,0,.5-.1.5-.3s-.2-.3-.5-.4a3.69,3.69,0,0,1-1.5-.6,1.25,1.25,0,0,1-.4-1.1,6.79,6.79,0,0,1,.7-2.5l1.1-2.4a3.18,3.18,0,0,1,.8-1.3,4,4,0,0,1,1.5-.2h6a2.53,2.53,0,0,1,1.1.1,2.8,2.8,0,0,1,.5,1l.8,2.2a11.2,11.2,0,0,1,1,3.5,1,1,0,0,1-.8,1.1l-.5.1c-.3.1-.4.2-.4.3s.1.3.4.3a1.09,1.09,0,0,0,.5-.1,18,18,0,0,1,2.9-.1,21.17,21.17,0,0,1,3,.1h.6c.3,0,.5-.1.5-.3C505,370.38,504.8,370.27,504.5,370.17Zm-9.7-9.6h-5.4c-.5,0-.8-.1-.8-.4a3.93,3.93,0,0,1,.2-.6l3.2-7.1q.15-.3.3-.3c.2,0,.3.2.4.5l.1.3,2.6,6.5.1.3a.76.76,0,0,1,.1.4C495.6,360.48,495.4,360.58,494.8,360.58Z"/><path class="a" d="M424.2,273.48a8.17,8.17,0,0,0-6.3,2.9,8.16,8.16,0,0,0,0,10.7,8.25,8.25,0,0,0,12.1.5,8,8,0,0,0,2.4-5.8A7.85,7.85,0,0,0,430,276,7.58,7.58,0,0,0,424.2,273.48Zm5.2,13.5a7.26,7.26,0,0,1-5.2,2.2A6.88,6.88,0,0,1,419,287a7.49,7.49,0,0,1,0-10.4,7.26,7.26,0,0,1,5.2-2.2,7.43,7.43,0,0,1,5.2,12.6Z"/><path class="a" d="M429.1,286.08h-.2c-.5,0-1-.5-1.6-1.3l-.2-.3-1.8-2.7a2.64,2.64,0,0,0,1.6-2.4q0-2.4-3.3-2.4h-3.2c-.2,0-.3.1-.3.2s.1.2.3.3h.3c.5.1.7.4.7,1.1v5.6c0,.8-.1,1.3-.1,1.5a1,1,0,0,1-.7.5c-.2,0-.3.1-.3.2s.1.2.3.2h3.2c.2,0,.3-.1.3-.2s-.1-.2-.4-.3a4.05,4.05,0,0,1-1-.3c-.2-.2-.2-.5-.2-1.1v-2.5h1a.76.76,0,0,1,.5.2l.1.2,1.7,2.6a2.8,2.8,0,0,0,2.2,1.5c.7,0,1.1-.1,1.1-.3C429.3,286.17,429.2,286.08,429.1,286.08Zm-5.3-4.6H423c-.2,0-.3,0-.3-.1a.44.44,0,0,1-.1-.3v-2.9c0-.3.2-.5.6-.5a2.52,2.52,0,0,1,1.7.6,2.13,2.13,0,0,1,.7,1.5C425.6,280.88,425,281.48,423.8,281.48Z"/></svg>