<svg viewBox="0 0 463 134" xmlns="http://www.w3.org/2000/svg"><g fill="#000000" fill-rule="evenodd"><path d="M34.696 89.598c-.336-.896-1.51-4.59-1.902-5.987-.56 2.294-1.287 4.7-1.736 5.987l-4.532 12.086h12.647l-4.477-12.086zm5.987 16.562H24.848l-4.756 12.366H15l15.611-40.12h4.532l15.556 40.12h-5.204l-4.812-12.366zM74.98 104.537v-.896c0-7.44-2.015-11.582-8.674-11.582-5.314 0-7.944 4.533-7.944 11.638 0 7.162 2.63 11.303 8.002 11.303 6.321 0 8.615-3.469 8.615-10.463m-21.71-.95c0-10.297 4.925-15.612 12.367-15.612 4.644 0 7.442 1.958 9.288 4.42h.336c-.113-.952-.337-3.3-.337-4.42V77.902L79.847 76v42.525h-3.971l-.729-4.028h-.224c-1.79 2.573-4.643 4.588-9.343 4.588-7.442 0-12.31-5.204-12.31-15.499M84.041 88.534h5.26l6.379 17.682c.895 2.462 2.07 6.098 2.406 7.945h.224c.391-1.847 1.678-5.54 2.517-7.945l6.379-17.682h5.26l-11.414 29.991H95.4l-11.359-29.99zM119.626 100.564h15.275c-.056-5.091-2.294-8.561-7.274-8.561-4.7 0-7.498 3.19-8.001 8.561m20.423.952v2.964h-20.535c.168 6.772 3.581 10.409 9.568 10.409 2.909 0 5.875-.56 8.226-1.455l1.398 3.693c-3.077 1.343-5.764 1.959-9.848 1.959-8.561 0-14.436-5.316-14.436-15.332 0-9.849 5.315-15.78 13.261-15.78 7.666 0 12.366 5.372 12.366 13.542M171.828 98.997v19.528h-4.868V99.333c0-4.812-2.126-7.218-6.714-7.218-6.659 0-8.785 3.861-8.785 10.855v15.555h-4.924v-29.99h3.973l.727 4.084h.28c1.958-3.134 5.651-4.644 9.457-4.644 7.162 0 10.854 3.3 10.854 11.022M191.856 114.33l1.344 3.523c-1.064.672-3.19 1.232-5.485 1.232-4.699 0-8.784-2.015-8.784-9.288V83.498l4.924-1.847v6.883h8.673v3.805h-8.673v17.345c0 3.637 1.958 5.373 4.7 5.373 1.12 0 2.63-.392 3.301-.728M197.618 118.525h4.924V88.534h-4.924v29.991zm5.372-38.104c0 2.126-1.344 3.133-2.854 3.133-1.622 0-2.909-1.007-2.909-3.133 0-2.183 1.287-3.134 2.909-3.134 1.51 0 2.854.951 2.854 3.134zM218.487 119.085c-4.196 0-7.106-.672-9.4-1.902l1.455-3.805c1.958.839 5.204 1.734 8.057 1.734 4.98 0 7.106-1.734 7.106-4.421 0-2.237-1.51-3.581-7.386-5.818-5.819-2.238-9.288-4.029-9.288-8.953 0-5.092 4.532-7.945 11.247-7.945 3.637 0 6.771.783 9.567 2.014l-1.51 3.973c-2.574-1.119-5.484-1.959-8.393-1.959-4.029 0-6.21 1.399-6.21 3.638 0 2.517 1.957 3.524 7.721 5.707 5.707 2.126 9.01 4.085 9.01 8.896 0 5.82-4.646 8.841-11.976 8.841M248.309 114.33l1.343 3.523c-1.064.672-3.19 1.232-5.484 1.232-4.7 0-8.785-2.015-8.785-9.288V83.498l4.924-1.847v6.883h8.674v3.805h-8.674v17.345c0 3.637 1.959 5.373 4.7 5.373 1.119 0 2.63-.392 3.302-.728M254.014 80.14c.504 0 .84-.278.84-.727 0-.447-.28-.67-.84-.67h-.503v1.398h.503zm-1.287-2.07h1.287c1.119 0 1.623.449 1.623 1.343 0 .617-.392.953-.783 1.12l1.175 1.959h-.896l-1.007-1.735h-.615v1.735h-.784V78.07zm4.532 2.239c0-1.734-1.286-3.19-3.133-3.19-1.846 0-3.133 1.343-3.133 3.19 0 1.734 1.287 3.134 3.133 3.134 1.735 0 3.133-1.287 3.133-3.134zm-6.826 0c0-2.182 1.51-3.75 3.693-3.75 2.07 0 3.693 1.568 3.693 3.75 0 2.127-1.567 3.693-3.693 3.693-2.182 0-3.693-1.566-3.693-3.693zM278.52 98.55c0 9.904 4.588 16.115 13.764 16.115 3.469 0 7.721-.784 10.296-2.014l1.454 3.86c-4.476 2.07-7.442 2.574-12.477 2.574-12.255 0-18.353-8.001-18.353-20.591 0-12.086 6.827-20.48 19.192-20.48 4.084 0 7.666.673 10.686 2.183l-1.678 4.42c-2.462-1.12-5.483-2.181-9.065-2.181-8.56 0-13.82 6.098-13.82 16.114M313.712 88.479c0 1.454-.112 3.02-.28 4.196h.336c1.902-3.077 5.483-4.644 9.344-4.644 7.274 0 10.967 3.302 10.967 10.967v19.528h-4.868V99.333c0-4.811-2.126-7.217-6.715-7.217-6.714 0-8.784 3.917-8.784 10.91v15.5h-4.924v-40.68L313.712 76v12.479zM367.313 118.525h-4.029l-.727-3.973h-.224c-1.959 3.134-5.651 4.533-9.513 4.533-7.217 0-10.91-3.302-10.91-10.912V88.534h4.98v19.303c0 4.813 2.125 7.163 6.658 7.163 6.659 0 8.84-3.86 8.84-10.855v-15.61h4.925v29.99zM393.216 88.31l-.615 4.533c-.951-.223-2.24-.391-3.245-.391-4.645 0-8.73 4.028-8.73 10.07v16.004h-4.923V88.535h4.029l.559 5.483h.224c1.902-3.302 4.979-6.043 9.177-6.043 1.119 0 2.517.11 3.524.336M394.894 103.697c0-11.078 5.987-15.723 14.045-15.723 3.02 0 6.154.728 7.945 1.623l-1.567 4.084c-1.79-.67-4.42-1.398-6.49-1.398-5.988 0-8.841 3.86-8.841 11.358 0 7.218 2.91 11.191 8.56 11.191 2.519 0 4.7-.56 6.66-1.454l1.51 3.916c-1.678 1.063-4.7 1.791-8.113 1.791-8.002 0-13.71-4.756-13.71-15.388M427.232 88.479c0 1.454-.11 3.02-.279 4.196h.335c1.903-3.077 5.484-4.644 9.344-4.644 7.275 0 10.967 3.302 10.967 10.967v19.528h-4.868V99.333c0-4.811-2.126-7.217-6.714-7.217-6.715 0-8.785 3.917-8.785 10.91v15.5h-4.924v-40.68L427.232 76v12.479z"/><g><path d="M29.38 59.085c-4.476 0-8.448-.672-10.967-1.902l1.568-4.141c1.734.783 5.37 1.679 9.624 1.679 5.93 0 9.008-2.462 9.008-6.435 0-3.917-2.182-5.596-9.4-8.225-6.827-2.462-10.296-5.652-10.296-11.863 0-6.322 5.204-10.183 12.758-10.183 4.364 0 8 .895 11.022 2.238l-1.622 4.309c-2.798-1.175-6.043-2.126-9.512-2.126-4.98 0-7.554 2.349-7.554 5.818 0 4.029 2.238 5.651 8.728 8.058 7.05 2.629 10.912 5.259 10.912 11.526 0 7.106-5.54 11.247-14.268 11.247M53.998 40.564h15.275c-.056-5.092-2.294-8.562-7.274-8.562-4.7 0-7.498 3.19-8.001 8.562m20.423.951v2.965H53.886c.168 6.771 3.581 10.408 9.568 10.408 2.909 0 5.875-.559 8.226-1.455l1.398 3.693c-3.077 1.343-5.764 1.96-9.848 1.96-8.561 0-14.436-5.317-14.436-15.333 0-9.848 5.315-15.779 13.261-15.779 7.666 0 12.366 5.371 12.366 13.541M75.035 28.534h5.26l6.38 17.682c.893 2.462 2.07 6.098 2.404 7.945h.224c.392-1.847 1.678-5.54 2.518-7.945l6.38-17.682h5.26L92.044 58.525h-5.652l-11.358-29.99zM110.62 40.564h15.274c-.055-5.092-2.294-8.562-7.273-8.562-4.7 0-7.498 3.19-8.002 8.562m20.424.951v2.965h-20.535c.168 6.771 3.581 10.408 9.567 10.408 2.91 0 5.876-.559 8.226-1.455l1.398 3.693c-3.077 1.343-5.763 1.96-9.848 1.96-8.56 0-14.435-5.317-14.435-15.333 0-9.848 5.315-15.779 13.261-15.779 7.666 0 12.366 5.371 12.366 13.541M162.822 38.997v19.528h-4.868V39.333c0-4.812-2.126-7.218-6.715-7.218-6.658 0-8.784 3.861-8.784 10.855v15.555h-4.924v-29.99h3.973l.726 4.084h.28c1.958-3.134 5.652-4.644 9.457-4.644 7.162 0 10.855 3.3 10.855 11.022M182.85 54.33l1.344 3.523c-1.064.672-3.19 1.232-5.484 1.232-4.7 0-8.785-2.015-8.785-9.288V23.498l4.924-1.847v6.883h8.674v3.805h-8.674v17.345c0 3.637 1.959 5.373 4.7 5.373 1.119 0 2.63-.392 3.302-.728M193.536 28.479c0 1.454-.112 3.02-.28 4.196h.336c1.902-3.077 5.483-4.644 9.344-4.644 7.274 0 10.967 3.302 10.967 10.967v19.528h-4.868V39.333c0-4.811-2.126-7.217-6.715-7.217-6.714 0-8.784 3.917-8.784 10.91v15.5h-4.924v-40.68L193.536 16v12.479zM218.712 41.348h13.54l1.68 4.364H220.39zM259.557 44.537v-.896c0-7.44-2.015-11.582-8.673-11.582-5.315 0-7.945 4.533-7.945 11.638 0 7.162 2.63 11.303 8 11.303 6.324 0 8.618-3.469 8.618-10.463m-21.71-.95c0-10.297 4.924-15.612 12.365-15.612 4.645 0 7.443 1.958 9.288 4.42h.336c-.111-.952-.336-3.3-.336-4.42V17.902L264.425 16v42.525h-3.972l-.728-4.028h-.225c-1.79 2.573-4.643 4.588-9.343 4.588-7.443 0-12.31-5.204-12.31-15.499M286.188 44.033c-7.498.28-9.904 2.406-9.904 6.211 0 3.357 2.238 4.868 5.483 4.868 5.036 0 8.84-2.742 8.84-8.56v-2.687l-4.42.168zm9.288-5.93v20.422h-3.582l-.95-4.253h-.225c-2.63 3.302-5.036 4.813-10.07 4.813-5.428 0-9.458-2.798-9.458-8.897 0-5.987 4.59-9.289 14.382-9.568l5.091-.168v-1.79c0-4.98-2.293-6.659-6.21-6.659-3.135 0-5.988 1.12-8.45 2.294l-1.51-3.693c2.63-1.399 6.321-2.574 10.238-2.574 7.274 0 10.743 3.078 10.743 10.072zM304.201 28.534l6.491 17.065c1.12 3.022 2.071 5.708 2.518 8.17h.223c.45-1.846 1.511-5.148 2.575-8.225l6.098-17.01h5.317l-12.926 34.132c-2.126 5.651-4.028 7.722-8 9.288l-1.512-3.973c2.294-1.062 3.245-2.126 4.476-5.37l1.567-3.973-12.086-30.104h5.26z"/></g></g></svg>
