<?xml version="1.0" encoding="utf-8"?>
<!-- Generator: Adobe Illustrator 21.0.2, SVG Export Plug-In . SVG Version: 6.00 Build 0)  -->
<svg version="1.1" id="Layer_1" xmlns="http://www.w3.org/2000/svg" xmlns:xlink="http://www.w3.org/1999/xlink" x="0px" y="0px"
	 viewBox="0 0 253.6 227.7" style="enable-background:new 0 0 253.6 227.7;" xml:space="preserve">
<style type="text/css">
	.st0{fill:#FFFFFF;}
</style>
<title>Seventh-day Adventist Church</title>
<path class="st0" d="M150.9,131.7c-10.2,10.2-15.2,15.1-17.8,27.6c-0.2,0.9-1.2,0.9-1.2,0V144c0-9.8,8.7-18.7,19.1-29l8.3-8.3
	c11.7-11.7,14.5-25.2,5.2-33.2c-0.8-0.7-0.4-1.5,0.6-1c11.6,5.3,20.7,24.4,0.9,44.3L150.9,131.7z M131.8,170.8v15.3
	c0,0.9,1.1,0.9,1.2,0c2.6-12.4,7.5-17.4,17.8-27.7l16.2-16.2c19.8-19.8,23.3-39,13.2-51.4c-0.7-0.8-1.4-0.3-1,0.7
	c6.7,15.1-9.3,31.1-16.9,38.7l-11.4,11.5C140.5,152.1,131.8,161.1,131.8,170.8L131.8,170.8z M87.8,121.5
	c-19.8,19.8-10.7,39,0.9,44.3c1,0.5,1.4-0.4,0.6-1c-9.3-8-6.5-21.6,5.2-33.2l33-33c10.4-10.4,19.1-19.3,19.1-29V54.2
	c0-0.9-1.1-0.9-1.2,0c-2.6,12.4-7.5,17.3-17.8,27.6L87.8,121.5z M146.6,42.7V27.3c0-0.9-1.1-0.9-1.2,0c-2.6,12.4-7.5,17.4-17.8,27.7
	L86.7,95.8c-19.8,19.8-23.3,39-13.2,51.4c0.7,0.8,1.4,0.3,1-0.7c-6.7-15.1,9.3-31.1,16.9-38.7l36.1-36.1
	C137.9,61.4,146.5,52.5,146.6,42.7L146.6,42.7z M82.3,73.5c-17.1,17-19.5,35.1-15.8,46.9c0.3,1,1.2,1.1,1.2,0
	c-0.1-9.9,2.8-18.4,20.8-36.4l39-39c10.4-10.4,19.1-19.3,19.1-29V0.7c0-0.9-1.1-0.9-1.2,0c-2.6,12.4-7.5,17.3-17.8,27.6L82.3,73.5z
	 M106.2,197c-0.3,0-0.6-0.3-0.6-0.6v-8.9c0-0.3,0.3-0.6,0.6-0.6h15c0.3,0,0.6-0.3,0.6-0.6c0-7.9-6-13.3-30-9.2L40,186
	c0,0-39.4,39.4-39.7,39.8c-0.3,0.3-0.4,0.8-0.1,1.1c0.2,0.2,0.5,0.3,0.8,0.2c0.7-0.1,86.1-14.8,86.1-14.8c19.6-3.3,30.3,6,33.5,14.8
	c0.3,0.8,1.2,0.7,1.2-0.1v-29.5c0-0.3-0.3-0.6-0.6-0.6L106.2,197z M168,178.2l-17.1,17.1c-10.4,10.4-19,19.3-19,29v2.7
	c0,0.7,0.9,0.9,1.2,0.1c3.2-8.7,13.9-18.1,33.5-14.8c0,0,85.4,14.8,86.1,14.8c0.4,0.1,0.9-0.2,1-0.6c0.1-0.3,0-0.6-0.2-0.8
	c-0.3-0.4-39.8-39.8-39.8-39.8L168,178.2z M187.1,117.8c-0.3-1-1.2-1.1-1.2,0c0.1,9.9-2.8,18.4-20.8,36.4l-14.3,14.2
	c-6.5,6.5-12.3,12.4-15.8,18.4h14.1l1.7-1.7l20.5-20.5C188.4,147.7,190.8,129.6,187.1,117.8L187.1,117.8z M131.8,212.8
	c0,0.9,1.1,0.9,1.2,0c1-5.8,3.4-11.2,6.9-15.8h-7.5c-0.3,0-0.6,0.3-0.6,0.6L131.8,212.8z"/>
<g>
	<path class="st0" d="M240.8,197.9c0-3.7,2.7-6.3,6.3-6.3c3.5,0,6.3,2.7,6.3,6.3c0,3.7-2.7,6.3-6.3,6.3S240.8,201.5,240.8,197.9z
		 M252.5,197.9c0-3-2.2-5.4-5.3-5.4s-5.4,2.3-5.4,5.4c0,3,2.2,5.4,5.4,5.4C250.1,203.3,252.5,201,252.5,197.9z M244.8,194.1h2.2
		c1.9,0,2.7,0.7,2.7,2.2c0,1.1-0.7,1.7-1.3,2l2,3.3h-1.5l-1.7-3h-1.1v3h-1.3V194.1z M246.9,197.6c0.9,0,1.4-0.5,1.4-1.2
		c0-0.8-0.4-1.2-1.4-1.2h-0.8v2.4H246.9z"/>
</g>
</svg>
