<svg xmlns="http://www.w3.org/2000/svg" viewBox="0 0 602.67 384.4"><title>azurehills-logo</title><path d="M183.6,92c1.11,2.74,2.39,5.44,2.66,8.44,0.94,10.14.56,20.29,0.21,30.44-0.26,7.35-.89,14.68-1.55,22A3.52,3.52,0,0,1,183,156c-1.53.89-3.22,1.62-4.37,3.17,1,0.75,2,.42,2.9.42a283.06,283.06,0,0,1,46.4,2.64A412.19,412.19,0,0,1,281.5,173.1a4.4,4.4,0,0,0,3-.18,574.13,574.13,0,0,1,59.94-21.07,300.15,300.15,0,0,1,41.18-9.15c1.83-.25,3.81.11,5.55-0.89a1.78,1.78,0,0,0-.24-0.55,1.22,1.22,0,0,0-.61-0.34c-2.64-.17-3.14-2-3.3-4.17-0.36-4.62-.56-9.26-1.09-13.86-0.73-6.21-.52-12.46-0.73-18.68-0.25-8.77,0-17.47,3.75-25.84,3.54-7.86,6.17-16.13,9.17-24.22a3.2,3.2,0,0,0,.22-2.83c-1.51,2.58-2.82,4.75-4,7-2.75,5.24-5.45,10.51-8.16,15.77-3.2,6.21-10.12,9.2-16.7,4.71a54.06,54.06,0,0,0-12.67-6.25c-0.76-.27-1.52-0.86-2.52-0.38a2.6,2.6,0,0,0,1.3,1.37,79.29,79.29,0,0,1,12.62,11.74,10.24,10.24,0,0,1,2.38,6.82c0.24,13.43-2,26.59-4.07,39.78-0.58,3.71-.64,3.71-4.49,3-8.81-1.61-17.67-2.9-26.59-3.67-6.76-.58-13.53-1.23-20.3-1.68-2.3-.15-2.38-1-1.7-2.84,3.65-9.92,6.71-20,9.47-30.21,0.57-2.07,1.2-4.13,2-6.71,2,5.23,3.67,9.92,5.43,14.5s3.71,9,5.45,13.58c2.67,7,5.17,11.94,6.76,12.87a7.69,7.69,0,0,0,0-1.21c-1.29-7.64-2.71-15.27-3.87-22.93-2.2-14.63-4-29.3-3.65-44.16a13.49,13.49,0,0,1,3-8.61,100.6,100.6,0,0,1,19.63-18.22c0.69-.5,1.6-0.78,2-2.23a42.4,42.4,0,0,0-8.87,3c-6.06,2.56-11.59,6.12-17.38,9.19A12.4,12.4,0,0,1,325,47c-6.4-1.24-10.68-5.19-13.49-10.85q-8-16.27-17-32c-0.2-.35-0.31-1-1-0.69a2.34,2.34,0,0,0,.27,1.85c4.39,12.19,8.92,24.37,13.69,36.37,2.06,5.19,4.8,10.21,5.38,15.85,0.59,5.8.87,11.64,1,17.47,0.39,17.28-.82,34.51-1.88,51.74-0.12,1.9-.79,2.69-2.79,2.69q-7.92-.11-15.84,0c-1.74,0-2.46-.68-2.56-2.35-0.24-3.9-.71-7.8-0.78-11.71-0.12-9-.76-17.85-0.12-26.85a9.29,9.29,0,0,1,1.71-5.12c3.75-5.09,7.72-10,11.82-14.81,1.35-1.59,3-3,4.12-5.28-2.58.35-4.23,1.79-6,2.89-5.32,3.31-9.9,7.57-14.77,11.46a8,8,0,0,1-9.62.55c-6.31-4.25-12.9-8-19.44-11.89-0.88-.5-1.66-1.24-2.88-1.15a1.92,1.92,0,0,0,.24.68,15.84,15.84,0,0,0,1.44,1.26A77.91,77.91,0,0,1,270,80.94a15.54,15.54,0,0,1,3.32,8.75c0.29,4.82-.23,9.58-0.23,14.37a147.9,147.9,0,0,1-2.2,25s0,0.05,0,.08a1.85,1.85,0,0,1-1.93,1.77c-5.23.68-10.45,1.43-15.67,2.18-1.77.25-2.64-.2-2.77-2.2-0.45-7.57-1.08-15.13-1.45-22.72-0.7-14.48-.57-28.94.15-43.4a40.18,40.18,0,0,1,2.7-13.08c6.6-16.56,13.06-33.19,19-50A1.29,1.29,0,0,0,270.8,0c-0.51.75-1,1.42-1.45,2.16-3,5.39-6,10.76-8.89,16.19C256.85,25,253.74,32,249.85,38.48c-5.28,8.77-15.44,12.92-25.07,6.77A99.9,99.9,0,0,0,201.1,33.79c-0.77-.24-1.54-0.89-2.48-0.34,0.06,1,.93,1.25,1.54,1.7a148.45,148.45,0,0,1,18,15.46c5.1,5.21,8,10.93,7.58,18.59S225,84.83,224.2,92.63c-1.24,12.78-3.21,25.41-5.47,38-0.58,3.24-1.06,6.49-1.58,9.73l0.72,0.2c7.21-14.62,12.92-29.88,18.67-45.75,0.42,1,.64,1.39.77,1.81,3.59,11.73,7.28,23.48,11.67,35,0.61,1.59,0,2.15-1.47,2.45-4.08.82-8.15,1.69-12.21,2.57a228.43,228.43,0,0,0-26.62,7.85c-1.59.6-2.12,0.34-2.27-1.4s-0.62-3.46-.93-5.19c-2-11.34-3.87-22.69-3.87-34.26a7.94,7.94,0,0,1,1.63-5.14A49.86,49.86,0,0,1,211,90.36l7-5.7c-1.06-.63-1.78-0.08-2.49.16A61.68,61.68,0,0,0,202.81,91c-7,4.31-13.2,2.59-17-4.69q-5.27-10.11-10.59-20.18c-0.37-.7-0.5-1.71-1.61-1.82a2.25,2.25,0,0,0,.26,1.87C177,74.81,180.14,83.44,183.6,92Zm184.87,41.4c2.68-6.06,5.11-12.23,7.43-18.44l1.65-4.44c2.3,8.29,4.25,16.09,6.84,23.71,0.46,1.36.94,2.72,1.4,4.08,0.38,1.12,0,1.46-1.14,1.21l-15.44-3.36C367.17,135.68,368,134.36,368.47,133.36Zm-95.75-4.23a132.87,132.87,0,0,0,8.72-22c2.28,7,4.34,13.91,7.51,20.46,0.56,1.06.19,1.68-1,1.78-4.84.39-9.68,0.8-14.53,1.16C272.26,130.63,272.33,129.9,272.72,129.13Zm-78.08-6.25c0.79,2.08,1.41,3.57,2,5.08a84.9,84.9,0,0,0,8,16c0.84,1.27.72,1.78-.77,2.36A165,165,0,0,0,186,154.45l0,0C189.58,143.81,192,133.66,194.64,122.88Z" transform="translate(0.01 0.03)" style="fill:#fff"/><path d="M602.66,180.36a58.6,58.6,0,0,0-10.18-5.61,317.63,317.63,0,0,0-123.26-30.4,380,380,0,0,0-65.32,3.11A426.66,426.66,0,0,0,339,161.56a384,384,0,0,0-52.21,19.83,6.6,6.6,0,0,1-4.87.36c-4.77-1.37-9.54-2.72-14.35-3.93A423.76,423.76,0,0,0,179,165.44a364.69,364.69,0,0,0-44.8,1.49,373.34,373.34,0,0,0-48.79,7.49c-28,6.19-55,15.19-80.63,28.19a9,9,0,0,0-3.29,2.24c1.14,0.51,1.76-.19,2.45-0.49a393.59,393.59,0,0,1,64.32-21.43,433.41,433.41,0,0,1,47.66-8.57A426.63,426.63,0,0,1,162,171.25a452.26,452.26,0,0,1,48.14,1.89c11.06,1,22.06,2.32,33.06,4.11A478.58,478.58,0,0,1,296.55,189c10.31,2.92,20.54,6.06,30.6,9.77,3.62,1.32,7.08,3.15,11,3.48-16.66-7.56-33.89-13.62-51.74-19.34,4.84-2.28,9.45-3.81,14-5.51a446.69,446.69,0,0,1,99.29-24.2c14-1.77,28-2.69,42-3.08,8.71-.24,17.42-0.1,26.14.27q16.66,0.69,33.2,2.69A357.75,357.75,0,0,1,537,159.25a347.61,347.61,0,0,1,48.65,14.46C591.36,175.87,596.91,178.3,602.66,180.36Z" transform="translate(0.01 0.03)" style="fill:#fff"/><path d="M463.19,316c0,2.62.93,3.36,3.33,2.84,2-.44,1.51-2,1.51-3.29V264.95a83.08,83.08,0,0,0-1-12.65c-1.11-7.25-3.54-14-8.54-19.49-8.39-9.28-19.34-10.89-30.82-9-14.35,2.37-23.76,11.31-29.76,24.56q0-1.42,0-2.84v-77c0-1.9-1.24-2.09-2.8-2.13s-2.45.56-2.4,2.23v148A2,2,0,0,0,395,319c2.44,0,2.93-.38,2.93-3.16,0-14.56.06-29.12,0-43.67a55.06,55.06,0,0,1,1.59-14.49c3.21-12.06,9.22-22.09,21.12-27.21,10.06-4.32,20.25-4.67,29.71,1.89,6.6,4.55,10,11.25,11.42,19A97.59,97.59,0,0,1,463.19,269v47Z" transform="translate(0.01 0.03)" style="fill:#fff"/><path d="M352.82,305.56c1.35-1.57,1.38-2.55-.36-3.92s-2.55-.26-3.48.93c-0.5.62-1,1.23-1.57,1.81-9.12,9.73-20.56,13.44-33.56,12.73s-23-6.58-30.25-17.26c-5.27-7.84-7.27-16.76-8-26-0.17-2.19,1.14-2.25,2.72-2.25h76.46c3.09,0,3.26-.13,3.2-3.27,0-2.23-.18-4.47-0.44-6.69-1.15-9.89-4.66-18.77-11.66-26-10.45-10.83-23.61-14.11-38-11.83C289.79,226.64,278.62,238,273.1,255c-4.14,12.74-3.43,25.6,1.42,38.09A43.49,43.49,0,0,0,297,317.57c8.59,4.08,17.59,5,26.91,3.86C335.69,320,345.13,314.44,352.82,305.56Zm-76.74-41.31c2.22-18,15.49-34.94,34.61-36.48,24.89-2.06,40.26,14.43,42.15,35.43,0,0.43.11,0.95,0.17,1.43,0.32,2.58,0,2.92-2.63,2.92H314.65v0H279.16C276.08,267.53,275.71,267.25,276.08,264.25Z" transform="translate(0.01 0.03)" style="fill:#fff"/><path d="M64.3,264.27c-5.12-.11-10.25-0.19-15.36,0-8.23.29-16.4,0.8-24.4,3.29a40.74,40.74,0,0,0-16.45,9.52C2.18,282.8.88,290,1.38,297.8a22.2,22.2,0,0,0,8.38,16.39c8.83,7.17,19.15,8.89,30.1,6.89,9.36-1.75,17.3-6.14,22.85-14.14,1.87-2.69,3.24-5.69,5-8.69,0,0.87-.06,1.73,0,2.62q0.66,8.12,1.37,16.24c0.22,2.1,1.76,2,3.22,1.88,1.82-.08,1.72-1.39,1.52-2.61-1.3-7.92-1.26-15.92-1.35-23.92-0.15-14.15.81-28.33-.51-42.44-1-10.16-5.58-18.19-15.13-22.92-6.67-3.31-13.72-4-21-3.71a46,46,0,0,0-27,10c-1.4,1.08-1.5,1.9-.5,3.34,1.43,2.13,2.56,1,3.88,0,10.66-8.25,22.51-11.23,35.66-8,8.34,2.09,14.52,6.75,17.62,15.09,2.13,5.74,1.58,11.66,1.77,17.55C67.35,263.69,66.41,264.27,64.3,264.27Zm3,7.21c-0.1,1.91,0,3.83,0,6.06a45.55,45.55,0,0,1-4.36,21.83c-4.18,8.44-10.68,14.27-19.89,16.75-8.29,2.23-16.49,2-24.37-1.66-9.41-4.31-13.58-12.57-12.3-22.87,1.26-10.14,8-15.16,16.54-18.66,6-2.46,12.36-3.21,18.73-3.81,7.57-.72,15.17-0.46,22.76-0.56C66.62,268.48,67.45,269.3,67.3,271.48Z" transform="translate(0.01 0.03)" style="fill:#fff"/><path d="M213.3,307.49A48.26,48.26,0,0,0,220.11,296c0,6.85.48,13.63,0.79,20.44,0,2.19,1.09,2.63,3,2.63,2.07,0,2-1.19,1.91-2.71-0.22-6.55-.64-13.09-0.64-19.65,0-17.54,0-35,0-52.54,0-5.19-.06-10.39,0-15.59,0-2-.82-2.67-2.74-2.67-2.33,0-2.52,1.34-2.52,3.13,0,14.79-.08,29.59,0,44.38a53.29,53.29,0,0,1-3.53,19.93c-5.13,13.15-14.12,21.58-28.39,23.94A26.85,26.85,0,0,1,157.91,300c-2.3-6.1-2.89-12.41-2.89-18.84v-52.3c0-2.59-.77-3.13-3.12-3s-2.07,1.8-2.07,3.29v48.46a103.48,103.48,0,0,0,.93,14.82c2.17,15.36,11.78,27.93,28.42,29.22C193,322.73,204.46,318.29,213.3,307.49Z" transform="translate(0.01 0.03)" style="fill:#fff"/><path d="M135.36,233.54L86.53,300.91l-8.86,12.24a5,5,0,0,0-.62,5c0.6,1.45,2.27.83,3.47,0.83h62.19c1.85,0,3-.43,2.72-2.61s-2-1.75-3.32-1.75H85.73c-0.82,0-2,.52-2.39-0.48-0.36-.7.55-1.37,1-2l31.63-44q12.84-17.93,25.75-35.83c1.17-1.62,1.73-3.34.91-5.16S140,226,138.57,226H81.71c-1.42,0-1.91.81-2,2.14-0.16,2.58,1.47,2.58,3.29,2.58h51.58c0.7,0,1.62-.32,2,0.41s-0.5,1.25-.81,1.86A4.66,4.66,0,0,1,135.36,233.54Z" transform="translate(0.01 0.03)" style="fill:#fff"/><path d="M581.41,319.58a25,25,0,0,0,16.85-14.89c3.27-8,3.14-19.79-5.26-26.62a40,40,0,0,0-12.18-6.54c-6.65-2.35-13.57-3.7-20.27-5.85-8.54-2.76-14.44-7.6-14.54-17.53-0.06-6.25,1.67-11.4,6.67-15.4,5.38-4.24,11.75-5.42,18.29-5.24,8.77,0.24,16.38,3.38,21.93,10.55l0,0a1.79,1.79,0,0,0,2.46.58c2.8-1.34,3-2,.91-4.34-6.92-7.92-15.76-11.37-26-11-7.79,0-12.22,1.16-17.91,4.21-14.48,7.7-14.69,28.24-4,36.7,4.31,3.41,9.37,5.08,14.49,6.68,6.71,2.1,13.7,3.31,20.11,6.31,5,2.38,9.37,5.6,11.21,11.18a20.86,20.86,0,0,1-10.5,25.2c-7.79,4.12-16,4.12-24.29,2.12-7.1-1.68-12.63-5.71-17.1-11.27-1.56-2-2.51-.62-3.76.15-1.61,1-.79,1.91,0,2.91a33.25,33.25,0,0,0,6.36,6.16C556.1,321.58,568.41,323.38,581.41,319.58Z" transform="translate(0.01 0.03)" style="fill:#fff"/><path d="M509.39,242.63q0-34.31,0-68.65v-5.52c0-1.56-.82-2.12-2.21-2.12s-2.64.19-2.64,2v148c-0.14,2,.86,2.61,2.76,2.61,2.4,0,2.11-1.67,2.11-3.18V242.63Z" transform="translate(0.01 0.03)" style="fill:#fff"/><path d="M531,169.6c0-2.81-1-3.68-3.34-3.15-2.12.5-1.54,2.18-1.54,3.5v145.9c0,2.84.46,3.22,2.86,3.14s2-1.8,2-3.26V242.78Q531,206.19,531,169.6Z" transform="translate(0.01 0.03)" style="fill:#fff"/><path d="M283.72,225.48a1.76,1.76,0,0,0-1.91-2.17c-10.49-.5-19.27,3.06-26.2,11-3.59,4.13-5.67,9-7.42,14.13l-0.92,0q0-9.34,0-18.68a9.56,9.56,0,0,0-.22-2.38c-0.49-1.87-2-1.43-3.36-1.39s-1.7,1-1.57,2.16c1.21,11.57.82,23.17,0.82,34.76v52.79c0,3,.48,3.34,3,3.34,2.25,0,2.25-1.54,2.25-3.13V269.78a56.44,56.44,0,0,1,2-15.4c4.1-14.72,13.88-27.3,31.88-26.9C283.63,227.55,283.72,226.59,283.72,225.48Z" transform="translate(0.01 0.03)" style="fill:#fff"/><path d="M488.16,272.37c0-14.46,0-28.93.09-43.39,0-2-.43-3.19-2.76-3.15S483,227.18,483,229v88.22s0,0.08,0,.12a1.75,1.75,0,0,0,1.85,1.65c2.64,0.3,3.34-.31,3.34-3.2Q488.16,294.07,488.16,272.37Z" transform="translate(0.01 0.03)" style="fill:#fff"/><path d="M235.23,45.95a11.35,11.35,0,0,0,11.59-11.11V34.78A11.35,11.35,0,1,0,235.23,45.95Z" transform="translate(0.01 0.03)" style="fill:#fff"/><path d="M326.75,45.34a10.55,10.55,0,0,0,0-21.09A10.76,10.76,0,0,0,316.3,35,10.63,10.63,0,0,0,326.75,45.34Z" transform="translate(0.01 0.03)" style="fill:#fff"/><path d="M314.84,367.64V331.93c0-.65,0-1.65-1-1.65s-0.88,1-.88,1.66v19.78c-6.35-8.66-15.13-7.3-19.56-3.3-5.27,4.72-5.86,14.25-1.17,19.62,5.31,6.08,12.73,5.65,20.4-1.35,0.67,1,.19,2,0.32,2.95,0.14,0.68,0,1.65,1,1.61s0.89-1.05.89-1.69v-1.92Zm-13.16,3.14c-6.39,0-10.78-5-10.78-12.08,0-6.77,4.69-11.75,11-11.77,6.08,0,11.1,5.35,11.08,12.1S308.07,370.8,301.68,370.78Z" transform="translate(0.01 0.03)" style="fill:#fff"/><path d="M202.4,330.38h0a0.75,0.75,0,0,0-.7.8,21.12,21.12,0,0,0-.09,2.39v17.89c-7.83-7.28-15.07-8-20.34-2.28a14.45,14.45,0,0,0,.82,20.1c5.54,5,13.07,3.88,19.54-3.23,0,1.5,0,2.66,0,3.89,0,0.54,0,1.35.7,1.35,1,0.07.75-.82,0.83-1.4a7.12,7.12,0,0,0,0-1v-36c0-.55,0-1.11-0.08-1.67A0.78,0.78,0,0,0,202.4,330.38Zm-12.17,40.4c-6.34,0-10.71-4.86-10.71-11.86h0c0-7,4.56-11.89,10.72-12s11.33,5.31,11.33,11.87C201.6,365.65,196.57,370.82,190.23,370.78Z" transform="translate(0.01 0.03)" style="fill:#fff"/><path d="M376.3,80h0.1a7.08,7.08,0,0,0,7-7.14,7.17,7.17,0,1,0-14.34.14q0,0.11,0,.22A7,7,0,0,0,376.3,80Z" transform="translate(0.01 0.03)" style="fill:#fff"/><path d="M281.3,78.07h0.57a6.84,6.84,0,0,0,6.67-7,7.4,7.4,0,0,0-7.24-7.37,7.58,7.58,0,0,0-7.1,7.37A7.06,7.06,0,0,0,281.3,78.07Z" transform="translate(0.01 0.03)" style="fill:#fff"/><path d="M195.94,92.42a7.31,7.31,0,0,0,7-7.28A7.54,7.54,0,0,0,195.66,78a7.36,7.36,0,0,0-7,7.33A7.26,7.26,0,0,0,195.94,92.42Z" transform="translate(0.01 0.03)" style="fill:#fff"/><path d="M159.33,357.84a29.84,29.84,0,0,0-.5-5c-1-5-4.41-7.7-9.53-7.49-3.76.16-6.37,2.26-8.65,5.35a5.17,5.17,0,0,1-.39-3V332.37c0-.79.26-2.09-0.93-2.06s-0.92,1.3-1,2.13v34.78a18.58,18.58,0,0,0,0,1.92c0.09,0.85-.06,2.1,1.15,2,1-.07.75-1.25,0.75-2V358.35a13.37,13.37,0,0,1,2.73-8,8.46,8.46,0,0,1,11-2.14c2.77,1.73,3.4,4.54,3.47,7.49,0.06,4.55.06,9.11,0.06,13.67,0,0.73-.17,1.89.89,1.88s1-1.16,1-1.9C159.33,365.51,159.4,361.68,159.33,357.84Z" transform="translate(0.01 0.03)" style="fill:#fff"/><path d="M600.5,354.57c-0.27-6.54-4.76-10.17-11.07-9.11-3.08.51-5.34,2.38-7.26,5.11a4.94,4.94,0,0,1-.36-2.84V332.39c0-.8.19-2.06-1.06-2-1,.08-0.8,1.25-0.8,2q0,18.46,0,36.92c0,0.77-.29,2,1,2,1-.08.85-1.25,0.85-2V358a12.21,12.21,0,0,1,2.4-7.4c2-2.75,6.11-4.31,9.11-3.42,3.38,1,5,3.64,5.38,7.64,0.42,4.79-.1,9.56,0,14.33,0,0.82-.14,1.89.86,2,1.22,0.14,1-1,1-1.76C600.58,364.48,600.71,359.52,600.5,354.57Z" transform="translate(0.01 0.03)" style="fill:#fff"/><path d="M37.39,346.57c-4-1.91-8.06-1.89-11.86.66-6,4-7.67,12.92-3.77,19.26a12.58,12.58,0,0,0,19.65,2.14c0.46-.49,1.41-1,0.76-1.75-0.79-.85-1.37.17-1.93,0.67-0.12.1-.21,0.24-0.33,0.34a10.89,10.89,0,0,1-11.21,2.18c-3.94-1.34-6-4.52-6.94-8.52-0.39-1.7.16-2.76,2.16-2.7,2.87,0.06,5.75,0,8.63,0h9.16c1.5,0,2.15-.74,2-2.23C43.27,352.23,41.56,348.57,37.39,346.57Zm1.94,10.68H23.57c-1.47,0-2-.62-1.7-2.1,0.82-4.17,5.36-8.07,9.73-8.26a10.21,10.21,0,0,1,10,7.37C42.24,356.79,41.81,357.25,39.33,357.25Z" transform="translate(0.01 0.03)" style="fill:#fff"/><path d="M84.88,346.43a11.31,11.31,0,0,0-11.64.85c-4.88,3.27-6.2,8.15-5.53,13.64,0.58,4.72,2.83,8.58,7.4,10.42s9.09,1.53,13.09-1.73c0.82-.67,2.44-1.57,1.66-2.51-1-1.26-1.82.55-2.56,1.15a10.88,10.88,0,0,1-17.53-6.06c-0.55-2.67-.06-3.34,2.66-3.34h8.15l0,0H89.4c1.43,0,2.32-.43,2.16-2.08C91.11,352.19,89.16,348.43,84.88,346.43Zm2.61,10.87c-2.64-.06-5.27,0-7.91,0l0,0c-2.64,0-5.3,0-8,0-1.75,0-2.23-.79-1.9-2.42a10.61,10.61,0,0,1,9.68-7.94,10.12,10.12,0,0,1,10.07,7.65C90,356.35,89.56,357.36,87.49,357.3Z" transform="translate(0.01 0.03)" style="fill:#fff"/><path d="M358.06,346.4a11.33,11.33,0,0,0-11.84,1c-4.69,3.31-6,8.14-5.33,13.53,0.57,4.85,3.17,8.73,7.66,10.49s9,1.37,12.87-1.82c0.8-.66,2.41-1.54,1.6-2.54-1-1.22-1.8.6-2.57,1.19a11.17,11.17,0,0,1-11.09,1.67c-3.7-1.32-5.69-4.25-6.48-8-0.52-2.43,0-3.07,2.48-3.07H362.6c1.44,0,2.3-.47,2.14-2.1C364.29,352.15,362.37,348.4,358.06,346.4Zm2.59,10.9c-2.64-.06-5.27,0-7.91,0l0,0c-2.64,0-5.27,0-7.81,0-1.79,0-2.2-.86-1.86-2.45a10.66,10.66,0,0,1,9.72-7.91,10.13,10.13,0,0,1,10,7.69C363.15,356.41,362.65,357.36,360.65,357.3Z" transform="translate(0.01 0.03)" style="fill:#fff"/><path d="M284.19,354.67c-0.09-4.51-1.77-7.46-5.43-8.71a11.88,11.88,0,0,0-11.54,1.92c-0.43.34-.93,0.79-0.43,1.39h0a0.91,0.91,0,0,0,1.28-.07,14.57,14.57,0,0,1,5-2.11c4-.75,7.88,1.34,8.88,4.73,1.09,3.79.55,4.52-3.32,4.52-3.37,0-6.7.07-9.79,1.7-3.27,1.72-4.76,4.36-4.37,7.8a7.21,7.21,0,0,0,5.92,6.11c5,1.1,9-.37,12.11-5.13,0.09,1.48.12,2.36,0.19,3.22,0.06,0.65.35,1.39,1.06,1.3s0.67-.78.61-1.35C283.93,364.89,284.3,359.78,284.19,354.67Zm-1.93,6.89c-0.39,6.19-4.29,9.71-10.14,9.19-3.27-.31-5.55-2.31-5.88-5.31a6.26,6.26,0,0,1,4.48-6.34,29.45,29.45,0,0,1,7.38-1.17h0C282.5,357.87,282.5,357.87,282.26,361.56Z" transform="translate(0.01 0.03)" style="fill:#fff"/><path d="M508.21,354.74c-0.24-4-1.79-7.57-6.08-8.93s-8-.14-11.1,3.15c-0.46.5-.68,1.28-1.52,1.44a4.3,4.3,0,0,1-.24-2.56V332.25c0-.67.2-1.79-0.7-1.79-1.18,0-.78,1.14-0.87,1.85a13.23,13.23,0,0,0,0,1.68q-0.09,17.75-.09,35.49c0,0.74-.29,1.66.75,1.74s0.92-.94.92-1.61c0-3.27-.06-6.55,0-9.83a17,17,0,0,1,1.49-7.46c1.88-3.73,6-6,9.66-5.19s5.8,3.68,6,8.42v13.91c0,0.74-.14,1.84,1,1.84,1,0,.87-1,0.87-1.7C508.31,364.65,508.5,359.68,508.21,354.74Z" transform="translate(0.01 0.03)" style="fill:#fff"/><path d="M222.87,345.88a12.26,12.26,0,0,0-11.17,1.82c-0.5.35-1.25,0.77-.8,1.51s1.13,0.26,1.67-.08a14,14,0,0,1,5.08-2.06c4.58-.78,8.64,2,8.94,6.09,0.17,2.83-.14,3.2-3,3.2-3.36,0-6.7-.07-9.86,1.44-3.53,1.68-5.43,4.79-4.86,8.23a7.9,7.9,0,0,0,7.51,6.26c4.22,0.27,7.65-1.21,10.36-5.39,0.19,1.68.27,2.62,0.45,3.56,0,0,0,0,0,.06a0.88,0.88,0,0,0,.91.85c0.64-.09.64-0.59,0.64-1.09-0.09-5.59-.09-11.18-0.31-16.77A7.79,7.79,0,0,0,222.87,345.88Zm3.75,15.27c-0.14,6.6-5.11,10.8-11.2,9.41-2.32-.53-4.17-1.65-4.58-4.26-0.53-3.17.37-5.21,3-6.64,3-1.62,6.34-1.4,9-1.76v0C226.45,357.89,226.64,358.08,226.62,361.15Z" transform="translate(0.01 0.03)" style="fill:#fff"/><path d="M117.54,352.73c-1.21-5.19-4.63-7.83-9.88-7.34-3.67.34-6.26,2.54-8.81,5.28,0-.79.14-1.67,0.08-2.37s0-1.65-1-1.63-0.85,1-.85,1.67q-0.06,10.55,0,21.1c0,0.74-.09,1.88,1,1.85s0.89-1.17.89-1.91V359.07a14.38,14.38,0,0,1,2.42-8.39c1.78-2.57,5.81-4.23,8.63-3.57a7,7,0,0,1,5.79,6.47,39.3,39.3,0,0,1,.36,4v11.51c0,0.82-.37,2,0.9,2.14s1-1.2,1-2V360.6A34.22,34.22,0,0,0,117.54,352.73Z" transform="translate(0.01 0.03)" style="fill:#fff"/><path d="M376.27,347a21.37,21.37,0,0,0-3.86,3.6,6.53,6.53,0,0,1-.74-2.91c-0.15-.53-0.31-1.13-1-1a0.93,0.93,0,0,0-.65,1.13q0.09,11,.21,22c0,0.62,0,1.46.82,1.52,1,0.08,1-.87,1-1.55v-11.5a12.8,12.8,0,0,1,2-7.27c3.11-4.77,9.74-5.39,13.11-1.23a8.54,8.54,0,0,1,1.66,5.63c0.06,4.72.06,9.43,0.06,14.14,0,0.69.12,1.62,1,1.69s0.88-.8.88-1.4c0-5.43.32-10.89-.18-16.28C389.9,346.18,382.49,343,376.27,347Z" transform="translate(0.01 0.03)" style="fill:#fff"/><path d="M534.64,346.33c-1,.13-0.86,1.25-0.86,2v10.55a15.59,15.59,0,0,1-1.17,6.32,9.19,9.19,0,0,1-10.14,5.5c-3.55-.68-5.49-3.67-5.55-8.41V348.14c0-.7-0.1-1.61-1-1.7s-0.9.77-.9,1.38c0,5.43-.22,10.89.18,16.3,0.39,5.22,3.75,8.09,8.6,8.22,4.43,0.12,7.62-1.91,10.1-6.09,0.14,1.71.21,2.9,0.31,4.1a0.93,0.93,0,0,0,1,1,0.94,0.94,0,0,0,.57-1.16c-0.06-7.35-.11-14.71-0.19-22.06C535.64,347.39,535.69,346.2,534.64,346.33Z" transform="translate(0.01 0.03)" style="fill:#fff"/><path d="M251.83,346.21c-1.22-.53-1.52.8-1.84,1.66-0.87,2.33-1.68,4.67-2.53,7-1.69,4.64-3.39,9.27-5.31,14.5-0.53-1.12-.85-1.55-1-2-2.42-6.31-4.82-12.66-7.26-19-0.34-.9-0.52-2.5-1.78-2.06s-0.15,1.66.14,2.44c2.6,6.87,5.26,13.72,7.9,20.58,0.54,1.27,1.08,2.51.54,3.93-0.71,1.86-1.37,3.75-2.07,5.62-0.94,2.49-2.47,4.28-5.47,4-0.53-.05-1.32-0.07-1.32.66,0,0.92.88,0.74,1.47,0.79,3.55,0.29,5.4-1,6.87-5q5.8-15.5,11.55-31C252,347.64,252.76,346.61,251.83,346.21Z" transform="translate(0.01 0.03)" style="fill:#fff"/><path d="M11.33,358.27c-2.06-.62-4.16-1.22-6.16-2a4,4,0,0,1-2.67-4.14,4.35,4.35,0,0,1,2.75-4.37,7.85,7.85,0,0,1,8.91,1.36c0.53,0.45,1.13,1.2,1.79.35,0.48-.62-0.19-1.18-0.63-1.62a8.2,8.2,0,0,0-6.25-2.55c-4.4-.1-7.66,2.12-8.21,5.5-0.63,3.8,1.39,6.44,6.09,7.8,1.3,0.37,2.65.62,3.93,1.06,3.26,1.11,4.75,3.12,4.36,5.73-0.43,2.9-2.61,4.68-5.9,4.9a9,9,0,0,1-7.08-2.28c-0.58-.52-1.28-1.5-2-0.71s0.44,1.5,1,2a10.45,10.45,0,0,0,9.56,2.56c3.84-.77,6.38-3.6,6.44-7C17.33,361.91,15,359.38,11.33,358.27Z" transform="translate(0.01 0.03)" style="fill:#fff"/><path d="M430.2,358.47c-2.18-.79-4.44-1.32-6.61-2.12-2-.73-2.65-2.29-2.65-4.37a4.32,4.32,0,0,1,2.88-4.26,7.9,7.9,0,0,1,8.72,1.35c0.53,0.43,1,1.43,1.79.57s-0.22-1.45-.75-1.93a8.42,8.42,0,0,0-6.22-2.36c-4.42,0-7.58,2.08-8.19,5.64s1.35,6.07,5.84,7.5c1.64,0.55,3.38.89,5,1.55,2.74,1.12,4.11,3.27,3.74,5.46a6.18,6.18,0,0,1-5.58,4.82,9.26,9.26,0,0,1-7.92-2.57c-0.46-.45-1-1-1.6-0.3-0.49.56,0.16,1,.51,1.42,2.86,3.39,9,4.44,12.74,2.08a6.74,6.74,0,0,0,3.5-5.42C435.62,362,434.14,359.89,430.2,358.47Z" transform="translate(0.01 0.03)" style="fill:#fff"/><path d="M480.92,369.17c-7.15,3.79-15.17.06-16.53-7.86-0.84-4.91.29-9.29,4.59-12.29,4.1-2.83,8.37-2.79,12.51.12a5,5,0,0,0,.8.53l0.06,0a0.71,0.71,0,0,0,.94-0.36,1,1,0,0,0-.08-0.86,6.42,6.42,0,0,0-1.28-1.06,11.78,11.78,0,0,0-12.28-.8c-5.17,2.44-7,6.87-7.48,12.18,0.31,5.14,2.13,9.45,6.79,11.89a12.71,12.71,0,0,0,12.62,0c0.82-.44,2.41-0.94,1.76-2.09S481.67,368.77,480.92,369.17Z" transform="translate(0.01 0.03)" style="fill:#fff"/><path d="M573.67,368.85c-5,2.81-10.51,2.34-14.12-1.39s-4.25-10.74-1.51-15.19,9.56-7.56,15.64-3.1c0.56,0.41,1.2,1.1,1.79.15,0.45-.73-0.26-1.19-0.76-1.54a11.49,11.49,0,0,0-7.12-2.43c-6.68-.1-11.8,4.42-13,11.39a13.84,13.84,0,0,0,6,13.7c4,2.57,10.09,2.53,13.85-.13,0.59-.41,1.65-0.91,1.12-1.75S574.26,368.52,573.67,368.85Z" transform="translate(0.01 0.03)" style="fill:#fff"/><path d="M405.72,370.42c-3.62-.11-4.78-1.16-4.86-5-0.06-4.64,0-9.27,0-13.91,0-3.67,0-3.6,3.72-3.72,1.13,0,3.18.76,3.18-.87s-2.06-1-3.25-1c-3.63-.1-3.57-0.06-3.69-3.56,0-1.14.72-3.18-.9-3.2s-1.06,2-1,3.18c0.14,2.41-.38,3.93-3.23,3.59-0.66-.1-1.65-0.1-1.66.9s1,1,1.64.9c2.8-.34,3.51,1.09,3.23,3.54a16.06,16.06,0,0,0,0,2.4c0.17,4.63-.44,9.28.4,13.88a5.33,5.33,0,0,0,5.71,4.7,3.4,3.4,0,0,0,.72-0.05c0.8-.23,2.13-0.11,2.13-1.11C407.81,369.85,406.48,370.42,405.72,370.42Z" transform="translate(0.01 0.03)" style="fill:#fff"/><path d="M448.39,370.34c-4.14-.11-5.16-1.1-5.26-5.31v-7.18c0-2.6,0-5.27,0-7.79,0-1.5.58-2.17,2.12-2.17,1.28,0,2.56,0,3.83-.08h0.16a0.82,0.82,0,0,0,.77-0.87,0.88,0.88,0,0,0-.8-0.76,8.77,8.77,0,0,0-1.42-.17c-4.53-.23-4.53-0.23-4.66-4.69a2.16,2.16,0,0,0,0-.24c-0.11-.74.21-1.92-0.87-1.92-1.24,0-1.06,1.18-1.06,2-0.07,1.33.31,2.83-.17,4-0.66,1.57-2.44.44-3.66,0.85h-0.23a0.93,0.93,0,0,0-.83.73,0.84,0.84,0,0,0,.87.92,7.66,7.66,0,0,0,1.67.11c1.78-.12,2.44.76,2.35,2.45-0.06,1,0,2.11,0,3.11,0.17,4.77-.48,9.59.43,14.33a5.39,5.39,0,0,0,7,4.36c0.66-.17,1.71-0.13,1.59-1.1S449,370.34,448.39,370.34Z" transform="translate(0.01 0.03)" style="fill:#fff"/><path d="M132.71,370.36c-3.79,0-5-1.14-5-5V353.13c0-5,0-5,5-5.32,0.73,0,1.87.09,1.83-.93s-1.17-.87-1.93-0.93c-4.59-.38-4.59-0.38-4.9-5v-0.24c-0.11-.69,0-1.64-1-1.61s-0.92,1-.92,1.67c0.13,2.88.48,5.88-4,5.26h-0.21a0.8,0.8,0,0,0-.68.91,0.84,0.84,0,0,0,.82.73,8.09,8.09,0,0,0,1.67.11c1.75-.12,2.42.66,2.42,2.4,0,2.55,0,5.11,0,7.67,0,1.6,0,3.19-.11,4.82a20.51,20.51,0,0,0,.35,5c0.82,3.43,3.48,5.13,6.82,4.43,0.73-.13,1.94-0.05,1.84-1.13S133.43,370.36,132.71,370.36Z" transform="translate(0.01 0.03)" style="fill:#fff"/><path d="M338.87,346.26c-1.06-.48-1.26.61-1.57,1.31-0.16.37-.29,0.75-0.43,1.12l-7.8,20.56a18.8,18.8,0,0,1-.82-1.9c-2.59-6.54-5.16-13.08-7.77-19.61-0.27-.68-0.41-1.87-1.49-1.45s-0.33,1.42-.08,2.09c1.45,3.81,3,7.6,4.45,11.39l3.88,9.81c0.36,0.92.75,1.93,1.84,1.92s1.3-.93,1.64-1.82,0.66-1.79,1-2.69q3.62-9.4,7.2-18.81C339.16,347.54,339.73,346.66,338.87,346.26Z" transform="translate(0.01 0.03)" style="fill:#fff"/><path d="M65.63,346.25c-0.8-.33-1.11.41-1.35,1-0.51,1.25-1,2.53-1.46,3.8L56.13,368.7l-0.55-.05c-2.72-6.91-5.42-13.82-8.17-20.71-0.29-.73-0.4-2.09-1.62-1.54-1,.42-0.27,1.45,0,2.14q4.2,10.71,8.41,21.41c0.3,0.76.63,1.54,1.57,1.61,1.15,0.08,1.43-.87,1.74-1.68q1.94-5.14,3.94-10.3c1.48-3.89,3-7.77,4.39-11.67C66,347.35,66.43,346.58,65.63,346.25Z" transform="translate(0.01 0.03)" style="fill:#fff"/><path d="M485.67,191.72a5.34,5.34,0,0,0,4.78-5.38,5.06,5.06,0,0,0-4.93-5.15A5.28,5.28,0,0,0,485.67,191.72Z" transform="translate(0.01 0.03)" style="fill:#fff"/><path d="M554.88,346.17c0-.74-0.72-0.79-1.27-0.79a5.73,5.73,0,0,0-2.56.46,13.16,13.16,0,0,0-5.75,4.82c0-.95,0-1.9,0-2.86,0-.56-0.14-1.21-0.89-1.18s-0.75.66-.75,1.24q0.09,10.77.18,21.53c0,0.67-.17,1.79.71,1.79,1.21,0,.82-1.15.82-1.84,0.08-3.59-.14-7.19.08-10.76,0.41-5.91,2.22-10.66,8.41-11.66C554.31,346.85,554.92,346.91,554.88,346.17Z" transform="translate(0.01 0.03)" style="fill:#fff"/><path d="M412.52,346.42c-0.94,0-1,1-1,1.67v21.5c0,0.69,0,1.64,1,1.61s0.84-1,.84-1.68V358.77c0-3.52,0-7,.07-10.51C413.42,347.55,413.7,346.42,412.52,346.42Z" transform="translate(0.01 0.03)" style="fill:#fff"/></svg>