<svg xmlns="http://www.w3.org/2000/svg" viewBox="0 0 245.2 245.2"><title>icon-atom</title><circle cx="122.6" cy="122.6" r="115.1" fill="none" stroke="#000" stroke-miterlimit="10" stroke-width="15"/><circle cx="122.6" cy="122.6" r="110.1" fill="#fff"/><circle cx="122.6" cy="122.6" r="66.3" fill="#ababab"/><path d="M241.4,51.3a28.2,28.2,0,1,1-28.2-28.2A28.17,28.17,0,0,1,241.4,51.3Z" fill="#ababab"/><path d="M118.5,126.53H99.38a3.93,3.93,0,1,1,0-7.87H118.5V99.77a4.1,4.1,0,0,1,8.19,0v18.9h19.23a3.93,3.93,0,0,1,0,7.87H126.7v18.9a4.1,4.1,0,0,1-8.19,0v-18.9Z" fill="#fff"/></svg>