<svg xmlns="http://www.w3.org/2000/svg" viewBox="0 0 245.2 245.2"><title>icon-atom</title><circle cx="122.6" cy="122.6" r="115.1" fill="none" stroke="#000" stroke-miterlimit="10" stroke-width="15"/><circle cx="122.6" cy="122.6" r="110.1" fill="#fff"/><circle cx="122.6" cy="122.6" r="66.3" fill="#ababab"/><path d="M241.4,51.3a28.2,28.2,0,1,1-28.2-28.2A28.17,28.17,0,0,1,241.4,51.3Z" fill="#ababab"/><path d="M116.92,122.48L103.4,109A3.93,3.93,0,1,1,109,103.4l13.52,13.52,13.36-13.36a4.1,4.1,0,0,1,5.79,5.79l-13.36,13.36,13.6,13.6a3.93,3.93,0,0,1-5.56,5.56l-13.6-13.6-13.36,13.36a4.1,4.1,0,0,1-5.79-5.79Z" fill="#fff"/></svg>