<svg xmlns="http://www.w3.org/2000/svg" viewBox="0 0 323.2 65.37"><title>logo__church--no-logo--horiz</title><path d="M29,61.43h4V61.19c0-2.78-1.27-4.84-10.08-3.25L8.34,60.56,0,72.18l20.08-3.6c6-1,11.27-1.27,12.94,3.49V64.21H29V61.43Z" transform="translate(0 -9)" fill="#fff"/><path d="M45.65,58l-3.18,3.18c-4.6,4.6-6.83,7.14-6.83,11,1.75-5,7.3-4.6,13.73-3.25l19.29,3.33L60.33,60.59Z" transform="translate(0 -9)" fill="#fff"/><path d="M42.79,53.76c-1.83,1.75-4.92,4.6-6.35,7.7h3.25l3.73-3.73c3.41-3.41,6-6,7.14-9.29a11.74,11.74,0,0,0,.64-6,3.72,3.72,0,0,0-.4-1.35c-0.32,3.73-1.35,6-6.75,11.35Z" transform="translate(0 -9)" fill="#fff"/><path d="M31.44,27.29l-7,7C20.8,38,17.78,42,18.18,46.35c0.24,2.46,1,3.81,1.59,4.21,0.32,0.24.24,0.08,0.16-.08-2.14-4.84,2.94-9.84,5.48-12.38l7.3-7.3c2-1.91,7-6.43,7-10.32V16.18c0-.08-0.08,0-0.08,0C39.22,19.15,38.58,20.42,31.44,27.29Z" transform="translate(0 -9)" fill="#fff"/><path d="M39.69,23.67c0-.08-0.08,0-0.08,0-0.32,2.94-1,4.13-8.1,11.19L25,41.38c-2.38,2.38-4.52,4.84-4.45,8.81,0.08,2.46,1.27,4.45,3.18,4.92,0.79,0.16.71,0.08,0.56,0-2.62-1.27-2.46-6,1.83-10.16l6.59-6.67c2-2,7-6.43,7-10.32V23.67Z" transform="translate(0 -9)" fill="#fff"/><path d="M17.78,43.12c0.32-3.73,1.35-6,6.75-11.35l8.1-8.1c2-1.91,7-6.43,7-10.32V9c0-.08-0.08,0-0.08,0-0.32,2.86-1,4.13-8.1,11.19L25.16,26.5c-3.41,3.41-6,6-7.14,9.29a11.74,11.74,0,0,0-.64,6A3.72,3.72,0,0,0,17.78,43.12Z" transform="translate(0 -9)" fill="#fff"/><path d="M35.64,68.53h0.08a9,9,0,0,1,1.75-4.29H35.64v4.29Z" transform="translate(0 -9)" fill="#fff"/><path d="M44.06,45.11l-2.06,2c-3.18,3.1-6.35,6.67-6.35,9.92v4.37h0.08c0.4-3.18,1.91-5.24,6.51-9.76l1.91-1.91c3.65-3.73,6.67-7.7,6.27-12.07-0.24-2.46-1-3.81-1.59-4.21-0.32-.24-0.24-0.08-0.16.08C50.81,38.41,45.72,43.44,44.06,45.11Z" transform="translate(0 -9)" fill="#fff"/><path d="M35.64,53.92h0.08c0.4-3,2.06-5.32,6.11-9.29l1.91-1.91c2.3-2.38,4.45-4.84,4.37-8.81C48,31.53,46.76,29.47,44.93,29c-0.79-.16-0.71-0.08-0.56,0,2.62,1.19,2.38,6-1.83,10.16l-2.3,2.3c-1.51,1.51-4.6,4.92-4.6,8v4.45Z" transform="translate(0 -9)" fill="#fff"/><path d="M70.33,64.48A1.59,1.59,0,0,0,69.14,64a1.44,1.44,0,0,0-1.27.64,1.9,1.9,0,0,0-.4,1.11,1.67,1.67,0,0,0,.4,1,1.59,1.59,0,0,0,1.27.56A1.68,1.68,0,0,0,70.33,64.48Zm-0.1,2.06H70.18a0.43,0.43,0,0,1-.32-0.24l-0.08-.11-0.4-.56a3.45,3.45,0,0,0,.48-0.56c0-.32-0.16-0.48-0.64-0.48H68.59a0.08,0.08,0,0,0-.08.08c0,0.08,0,.08.08,0.08h0.08a0.2,0.2,0,0,1,.16.23h0v1.11c0,0.16.08,0.32,0,.32s-0.08.08-.16,0.08l-0.08.08c0,0.08,0,.08.08,0.08H69.3a0.08,0.08,0,0,0,.08-0.08c0-.08,0-0.08-0.08-0.08a0.28,0.28,0,0,1-.16-0.08,0.29,0.29,0,0,1-.08-0.24V65.72h0.16l0.08,0.08,0.32,0.56a0.59,0.59,0,0,0,.44.31,1.59,1.59,0,0,1-.92.33,1.32,1.32,0,0,1-1-.4,1.67,1.67,0,0,1-.4-1,1.32,1.32,0,0,1,.4-1,1.67,1.67,0,0,1,1-.4,1.36,1.36,0,0,1,1.43,1.28,1.38,1.38,0,0,1,0,.15A1.33,1.33,0,0,1,70.24,66.54ZM68.83,65V64.87c0-.08.08-0.08,0.16-0.08a0.6,0.6,0,0,1,.32.16,0.41,0.41,0,0,1,.16.32,0.32,0.32,0,0,1-.31.33H68.9c-0.08,0-.08-0.08,0,0Z" transform="translate(0 -9)" fill="#fff"/><path d="M85.6,49.31H79.13l7.16-38.91h8.3l7.16,38.91H95.29L94.11,40.7H86.76Zm2.15-14.44h5.39l-2.64-16.7H90.39Z" transform="translate(0 -9)" fill="#fff"/><path d="M106.28,16.22V10.41H124v6.36L111.68,43.49H124v5.82H104.77V43l12.45-26.73H106.28Z" transform="translate(0 -9)" fill="#fff"/><path d="M129.56,10.41h6.68V39.78c0,2.86,1.13,4.26,3.56,4.26s3.56-1.4,3.56-4.26V10.41H150V39.5c0,6.68-3.88,10.35-10.24,10.35s-10.24-3.66-10.24-10.35V10.41Z" transform="translate(0 -9)" fill="#fff"/><path d="M163.19,49.31H156.5V10.41h9.38c7.49,0,11.32,3.18,11.32,11.48,0,6.25-2.45,8.78-4.69,9.79l5.65,17.63h-6.79l-4.73-16.1a32.27,32.27,0,0,1-3.45.16V49.31Zm0-21.44h2.37c3.61,0,5-1.35,5-6s-1.35-6-5-6h-2.37v12Z" transform="translate(0 -9)" fill="#fff"/><path d="M183.45,49.31V10.41h17.89v5.82H190.13v10h8.63v5.82h-8.63V43.49h12v5.82H183.45Z" transform="translate(0 -9)" fill="#fff"/><path d="M219.34,49.31V10.41H226V26.25h7.12V10.41h6.68V49.31h-6.68V32.07H226V49.31h-6.67Z" transform="translate(0 -9)" fill="#fff"/><path d="M247.2,49.31V10.41h6.68V49.31H247.2Z" transform="translate(0 -9)" fill="#fff"/><path d="M260.94,49.31V10.41h6.68V43.49h10.51v5.82H260.94Z" transform="translate(0 -9)" fill="#fff"/><path d="M281.9,49.31V10.41h6.68V43.49h10.54v5.82H281.9Z" transform="translate(0 -9)" fill="#fff"/><path d="M315.37,20c-0.27-3.34-2-4.31-3.56-4.31-2.15,0-3.34,1.4-3.34,3.83,0,6.63,13.58,9.79,13.58,20.4,0,6.41-4.31,10-10.56,10s-9.79-5-10-10.78l6.36-.91c0.27,3.93,1.84,5.88,4,5.88,2.32,0,3.88-1.24,3.88-3.56,0-7.7-13.58-9.79-13.58-20.91,0-6.24,3.76-9.74,10.33-9.74,5.44,0,8.71,3.93,9.27,9.43Z" transform="translate(0 -9)" fill="#fff"/><path d="M83.26,63.07c-0.1-1.26-.82-1.63-1.35-1.63a1.24,1.24,0,0,0-1.26,1.44c0,2.51,5.14,3.71,5.14,7.71,0,2.45-1.63,3.77-4,3.77S78.11,72.48,78,70.28l2.41-.34c0.11,1.49.69,2.22,1.51,2.22a1.3,1.3,0,0,0,1.47-1.35c0-2.91-5.14-3.69-5.14-7.91,0-2.34,1.43-3.67,3.92-3.67,2.06,0,3.26,1.49,3.51,3.57Z" transform="translate(0 -9)" fill="#fff"/><path d="M87.71,74.16V59.48h6.77v2.2H90.24v3.79H93.5v2.2H90.24V72h4.53v2.2H87.71v0Z" transform="translate(0 -9)" fill="#fff"/><path d="M101.92,59.44h2.45L101.3,74.12H98.81L95.73,59.44h2.45L100,69.65h0Z" transform="translate(0 -9)" fill="#fff"/><path d="M105.82,74.16V59.48h6.77v2.2h-4.24v3.79h3.26v2.2h-3.26V72h4.53v2.2h-7.06v0Z" transform="translate(0 -9)" fill="#fff"/><path d="M114.88,74.16V59.48h2.34l3.08,8.38h0V59.44h2.28V74.12h-2.2L117.17,65h0v9.2h-2.28Z" transform="translate(0 -9)" fill="#fff"/><path d="M126.55,61.64H124.1v-2.2h7.43v2.2h-2.45V74.16h-2.53V61.64Z" transform="translate(0 -9)" fill="#fff"/><path d="M133,74.16V59.48h2.53v6h2.69v-6h2.53V74.12h-2.53V67.6h-2.69v6.53H133v0Z" transform="translate(0 -9)" fill="#fff"/><path d="M142.89,69.61V67.74h5v1.88h-5Z" transform="translate(0 -9)" fill="#fff"/><path d="M150,59.44h3.75c2.61,0,4,1.43,4,4.45v5.83c0,3-1.39,4.45-4,4.45H150V59.44Zm2.53,12.65h0.88c1.35,0,1.81-.51,1.81-2.06V63.61c0-1.55-.47-2.06-1.81-2.06h-0.88V72.08Z" transform="translate(0 -9)" fill="#fff"/><path d="M161.68,74.16h-2.45l2.71-14.69h3.14l2.71,14.69h-2.45l-0.45-3.26h-2.77Zm0.82-5.47h2l-1-6.32h0Z" transform="translate(0 -9)" fill="#fff"/><path d="M172.71,74.16H170.2V68l-3.06-8.61h2.57L171.49,65h0l1.69-5.61h2.57L172.73,68v6.12h0Z" transform="translate(0 -9)" fill="#fff"/><path d="M183.2,74.16h-2.45l2.71-14.69h3.14l2.71,14.69h-2.45l-0.45-3.26h-2.77ZM184,68.7h2l-1-6.32h0Z" transform="translate(0 -9)" fill="#fff"/><path d="M190.78,59.44h3.75c2.61,0,4,1.43,4,4.45v5.83c0,3-1.39,4.45-4,4.45h-3.75V59.44Zm2.53,12.65h0.88c1.35,0,1.81-.51,1.81-2.06V63.61c0-1.55-.47-2.06-1.81-2.06h-0.88V72.08Z" transform="translate(0 -9)" fill="#fff"/><path d="M206.11,59.44h2.45l-3.08,14.69H203l-3.08-14.69h2.45l1.84,10.22h0Z" transform="translate(0 -9)" fill="#fff"/><path d="M210,74.16V59.48h6.77v2.2h-4.24v3.79h3.26v2.2h-3.26V72h4.53v2.2H210v0Z" transform="translate(0 -9)" fill="#fff"/><path d="M219.1,74.16V59.48h2.34l3.08,8.42h0V59.44h2.28V74.12h-2.2l-3.22-9.2h0v9.24H219.1Z" transform="translate(0 -9)" fill="#fff"/><path d="M230.77,61.64h-2.45v-2.2h7.43v2.2H233.3V74.16h-2.53V61.64Z" transform="translate(0 -9)" fill="#fff"/><path d="M237.58,74.16V59.48h2.53V74.16h-2.53Z" transform="translate(0 -9)" fill="#fff"/><path d="M247.52,63.07c-0.1-1.26-.82-1.63-1.35-1.63a1.24,1.24,0,0,0-1.26,1.44c0,2.51,5.14,3.71,5.14,7.71,0,2.45-1.63,3.77-4,3.77s-3.69-1.88-3.79-4.08l2.41-.34c0.11,1.49.69,2.22,1.51,2.22a1.3,1.3,0,0,0,1.47-1.35c0-2.91-5.14-3.69-5.14-7.91,0-2.34,1.43-3.67,3.92-3.67,2.06,0,3.26,1.49,3.51,3.57Z" transform="translate(0 -9)" fill="#fff"/><path d="M253.43,61.64H251v-2.2h7.43v2.2H256V74.16h-2.53V61.64Z" transform="translate(0 -9)" fill="#fff"/><path d="M269.53,64.36V63.21c0-1.24-.57-1.77-1.22-1.77-1,0-1.35.53-1.35,1.63v7.47c0,1.1.33,1.63,1.35,1.63s1.22-.53,1.22-1.49V68.9h2.53v1.69a3.5,3.5,0,0,1-3.75,3.77,3.54,3.54,0,0,1-3.88-3.77V63a3.54,3.54,0,0,1,3.88-3.77c2.65,0,3.75,1.84,3.75,4v1.08h-2.53Z" transform="translate(0 -9)" fill="#fff"/><path d="M274.65,74.16V59.48h2.53v6h2.69v-6h2.53V74.12h-2.53V67.6h-2.69v6.53h-2.53v0Z" transform="translate(0 -9)" fill="#fff"/><path d="M284.82,59.44h2.53V70.55c0,1.09.43,1.63,1.35,1.63s1.35-.53,1.35-1.63V59.44h2.55v11a3.88,3.88,0,1,1-7.75,0v-11h0Z" transform="translate(0 -9)" fill="#fff"/><path d="M297.55,74.16H295V59.48h3.55c2.83,0,4.28,1.2,4.28,4.34,0,2.37-.91,3.32-1.77,3.71l2.1,6.63h-2.57l-1.8-6.1a12.24,12.24,0,0,1-1.31.06v6h0Zm0-8.12h0.9c1.36,0,1.88-.51,1.88-2.26s-0.51-2.26-1.88-2.26h-0.9V66Z" transform="translate(0 -9)" fill="#fff"/><path d="M310.32,64.36V63.21c0-1.24-.57-1.77-1.22-1.77-1,0-1.35.53-1.35,1.63v7.47c0,1.1.33,1.63,1.35,1.63s1.22-.53,1.22-1.49V68.9h2.53v1.69a3.5,3.5,0,0,1-3.75,3.77,3.54,3.54,0,0,1-3.88-3.77V63a3.54,3.54,0,0,1,3.88-3.77c2.65,0,3.75,1.84,3.75,4v1.08h-2.53Z" transform="translate(0 -9)" fill="#fff"/><path d="M315.45,74.16V59.48H318v6h2.69v-6h2.53V74.12h-2.53V67.6H318v6.53h-2.53v0Z" transform="translate(0 -9)" fill="#fff"/></svg>