<svg xmlns="http://www.w3.org/2000/svg" viewBox="0 0 323.2 74.15"><title>sda-logo--horiz</title><path d="M34,65.54h4.66V65.26c0-3.26-1.49-5.68-11.83-3.82L9.78,64.51,0,78.15l23.57-4.23c7.08-1.21,13.23-1.49,15.19,4.1V68.8H34V65.54Z" transform="translate(0 -4)" fill="#fff"/><path d="M53.57,61.47L49.85,65.2c-5.4,5.4-8,8.39-8,12.86,2-5.87,8.57-5.4,16.12-3.82L80.6,78.15l-9.78-13.6Z" transform="translate(0 -4)" fill="#fff"/><path d="M50.22,56.54c-2.14,2-5.78,5.4-7.45,9h3.82L51,61.19c4-4,7.08-7.08,8.39-10.9a13.78,13.78,0,0,0,.75-7,4.37,4.37,0,0,0-.47-1.58C59.26,46.1,58,48.71,51.71,55Z" transform="translate(0 -4)" fill="#fff"/><path d="M36.9,25.47l-8.2,8.2c-4.29,4.38-7.83,9-7.36,14.16,0.28,2.89,1.21,4.47,1.86,4.94,0.37,0.28.28,0.09,0.19-.09C20.87,47,26.83,41.12,29.82,38.14l8.57-8.57c2.33-2.24,8.2-7.55,8.2-12.11v-5c0-.09-0.09,0-0.09,0C46,15.91,45.28,17.4,36.9,25.47Z" transform="translate(0 -4)" fill="#fff"/><path d="M46.59,21.22c0-.09-0.09,0-0.09,0-0.37,3.45-1.21,4.85-9.5,13.14L29.35,42c-2.8,2.8-5.31,5.68-5.22,10.34,0.09,2.89,1.49,5.22,3.73,5.78,0.93,0.19.84,0.09,0.65,0-3.07-1.49-2.89-7,2.14-11.93l7.73-7.83c2.33-2.33,8.2-7.55,8.2-12.11v-5Z" transform="translate(0 -4)" fill="#fff"/><path d="M20.87,44.05c0.37-4.38,1.58-7,7.92-13.32l9.5-9.5c2.33-2.24,8.2-7.55,8.2-12.11V4c0-.09-0.09,0-0.09,0C46,7.4,45.19,8.89,36.9,17.18l-7.36,7.36c-4,4-7.08,7.08-8.39,10.9a13.78,13.78,0,0,0-.75,7A4.37,4.37,0,0,0,20.87,44.05Z" transform="translate(0 -4)" fill="#fff"/><path d="M41.83,73.87h0.09a10.52,10.52,0,0,1,2-5H41.83v5Z" transform="translate(0 -4)" fill="#fff"/><path d="M51.71,46.38l-2.42,2.39c-3.73,3.63-7.45,7.83-7.45,11.65v5.12h0.09c0.47-3.73,2.24-6.15,7.64-11.46l2.24-2.24c4.29-4.38,7.83-9,7.36-14.16C58.89,34.79,58,33.2,57.3,32.74c-0.37-.28-0.28-0.09-0.19.09C59.63,38.52,53.67,44.42,51.71,46.38Z" transform="translate(0 -4)" fill="#fff"/><path d="M41.83,56.72h0.09c0.47-3.54,2.42-6.24,7.17-10.9l2.24-2.24c2.7-2.8,5.22-5.68,5.12-10.34-0.09-2.8-1.58-5.22-3.73-5.78-0.93-.19-0.84-0.09-0.65,0,3.07,1.4,2.8,7-2.14,11.93l-2.7,2.7c-1.77,1.77-5.4,5.78-5.4,9.41v5.22Z" transform="translate(0 -4)" fill="#fff"/><path d="M82.55,69.11a1.86,1.86,0,0,0-1.4-.56,1.7,1.7,0,0,0-1.49.75,2.23,2.23,0,0,0-.47,1.3,2,2,0,0,0,.47,1.21,1.86,1.86,0,0,0,1.49.65A2,2,0,0,0,82.55,69.11Zm-0.11,2.42H82.37A0.5,0.5,0,0,1,82,71.26l-0.09-.13-0.47-.65A4.05,4.05,0,0,0,82,69.82c0-.37-0.19-0.56-0.75-0.56H80.5a0.09,0.09,0,0,0-.09.09c0,0.09,0,.09.09,0.09H80.6a0.23,0.23,0,0,1,.19.27h0V71c0,0.19.09,0.37,0,.37s-0.09.09-.19,0.09l-0.09.09c0,0.09,0,.09.09,0.09h0.75a0.09,0.09,0,0,0,.09-0.09c0-.09,0-0.09-0.09-0.09a0.33,0.33,0,0,1-.19-0.09,0.34,0.34,0,0,1-.09-0.28V70.57h0.19l0.09,0.09,0.37,0.65a0.69,0.69,0,0,0,.52.36,1.86,1.86,0,0,1-1.08.38,1.55,1.55,0,0,1-1.21-.47,2,2,0,0,1-.47-1.21,1.55,1.55,0,0,1,.47-1.21,2,2,0,0,1,1.21-.47,1.59,1.59,0,0,1,1.68,1.5,1.61,1.61,0,0,1,0,.17A1.56,1.56,0,0,1,82.44,71.54Zm-1.66-1.86V69.58c0-.09.09-0.09,0.19-0.09a0.71,0.71,0,0,1,.37.19,0.48,0.48,0,0,1,.19.37,0.37,0.37,0,0,1-.36.38H80.87c-0.09,0-.09-0.09,0,0Z" transform="translate(0 -4)" fill="#fff"/><path d="M101.7,48.48h-6l6.68-36.27h7.74l6.68,36.27h-6l-1.1-8h-6.85Zm2-13.46h5l-2.46-15.57h-0.1Z" transform="translate(0 -4)" fill="#fff"/><path d="M121,17.63V12.21h16.48v5.93L126,43.06h11.46v5.42H119.58V42.55l11.61-24.92H121Z" transform="translate(0 -4)" fill="#fff"/><path d="M142.69,12.21h6.23V39.6c0,2.66,1.06,4,3.32,4s3.32-1.31,3.32-4V12.21h6.23V39.34c0,6.23-3.62,9.65-9.55,9.65s-9.55-3.42-9.55-9.65V12.21Z" transform="translate(0 -4)" fill="#fff"/><path d="M174,48.48H167.8V12.21h8.74c7,0,10.55,3,10.55,10.7,0,5.83-2.28,8.18-4.37,9.13L188,48.47h-6.33l-4.41-15a30.08,30.08,0,0,1-3.22.15V48.48Zm0-20h2.21c3.37,0,4.62-1.26,4.62-5.58s-1.26-5.58-4.62-5.58H174V28.49Z" transform="translate(0 -4)" fill="#fff"/><path d="M192.92,48.48V12.21H209.6v5.42H199.15V27h8v5.42h-8V43.06H210.3v5.42H192.92Z" transform="translate(0 -4)" fill="#fff"/><path d="M226.38,48.48V12.21h6.23V27h6.63V12.21h6.23V48.48h-6.23V32.41H232.6V48.48h-6.22Z" transform="translate(0 -4)" fill="#fff"/><path d="M252.35,48.48V12.21h6.23V48.48h-6.23Z" transform="translate(0 -4)" fill="#fff"/><path d="M265.16,48.48V12.21h6.23V43.06h9.8v5.42h-16Z" transform="translate(0 -4)" fill="#fff"/><path d="M284.7,48.48V12.21h6.23V43.06h9.83v5.42H284.7Z" transform="translate(0 -4)" fill="#fff"/><path d="M315.9,21.16c-0.25-3.11-1.91-4-3.32-4-2,0-3.11,1.31-3.11,3.57,0,6.18,12.66,9.13,12.66,19,0,6-4,9.3-9.84,9.3s-9.13-4.62-9.34-10l5.93-.85c0.25,3.67,1.71,5.48,3.72,5.48,2.16,0,3.62-1.16,3.62-3.32,0-7.18-12.66-9.13-12.66-19.49,0-5.82,3.51-9.08,9.63-9.08,5.07,0,8.12,3.67,8.64,8.79Z" transform="translate(0 -4)" fill="#fff"/><path d="M99.53,61.4a1.37,1.37,0,0,0-1.26-1.52,1.16,1.16,0,0,0-1.18,1.35c0,2.34,4.79,3.46,4.79,7.19,0,2.28-1.52,3.51-3.73,3.51s-3.44-1.75-3.54-3.8l2.24-.32c0.1,1.39.65,2.07,1.41,2.07a1.21,1.21,0,0,0,1.37-1.26c0-2.72-4.79-3.44-4.79-7.38,0-2.18,1.33-3.42,3.65-3.42,1.92,0,3,1.38,3.27,3.32Z" transform="translate(0 -4)" fill="#fff"/><path d="M103.67,71.75V58.06H110v2.05h-4v3.54h3V65.7h-3v4h4.22v2.05h-6.58v0Z" transform="translate(0 -4)" fill="#fff"/><path d="M116.92,58h2.28l-2.87,13.69H114L111.15,58h2.28l1.73,9.52h0Z" transform="translate(0 -4)" fill="#fff"/><path d="M120.56,71.75V58.06h6.31v2.05h-4v3.54h3V65.7h-3v4h4.22v2.05h-6.58v0Z" transform="translate(0 -4)" fill="#fff"/><path d="M129,71.75V58.06h2.18l2.88,7.81h0V58h2.13V71.71h-2.05l-3-8.54h0v8.58H129Z" transform="translate(0 -4)" fill="#fff"/><path d="M139.88,60.07H137.6V58h6.92v2.05h-2.28V71.75h-2.36V60.07Z" transform="translate(0 -4)" fill="#fff"/><path d="M145.9,71.75V58.06h2.36v5.59h2.51V58h2.36V71.71h-2.36V65.63h-2.51v6.09H145.9v0Z" transform="translate(0 -4)" fill="#fff"/><path d="M155.11,67.5V65.75h4.66V67.5h-4.66Z" transform="translate(0 -4)" fill="#fff"/><path d="M161.75,58h3.5c2.43,0,3.73,1.33,3.73,4.15V67.6c0,2.81-1.29,4.15-3.73,4.15h-3.5V58Zm2.36,11.79h0.82c1.26,0,1.69-.47,1.69-1.92v-6c0-1.45-.44-1.92-1.69-1.92h-0.82v9.81Z" transform="translate(0 -4)" fill="#fff"/><path d="M172.63,71.75h-2.28l2.53-13.69h2.93l2.53,13.69H176l-0.42-3H173Zm0.76-5.1h1.86l-0.93-5.9h0Z" transform="translate(0 -4)" fill="#fff"/><path d="M182.91,71.75h-2.34V66l-2.85-8h2.4l1.65,5.23h0L183.38,58h2.4l-2.85,8v5.7h0Z" transform="translate(0 -4)" fill="#fff"/><path d="M192.69,71.75H190.4l2.53-13.69h2.93l2.53,13.69H196.1l-0.42-3H193.1Zm0.76-5.1h1.9l-0.93-5.9h0Z" transform="translate(0 -4)" fill="#fff"/><path d="M199.76,58h3.5c2.43,0,3.73,1.33,3.73,4.15V67.6c0,2.81-1.29,4.15-3.73,4.15h-3.5V58Zm2.36,11.79h0.82c1.26,0,1.69-.47,1.69-1.92v-6c0-1.45-.44-1.92-1.69-1.92h-0.82v9.81Z" transform="translate(0 -4)" fill="#fff"/><path d="M214,58h2.28l-2.87,13.69H211.1L208.23,58h2.28l1.71,9.52h0Z" transform="translate(0 -4)" fill="#fff"/><path d="M217.71,71.75V58.06H224v2.05h-4v3.54h3V65.7h-3v4h4.22v2.05h-6.58v0Z" transform="translate(0 -4)" fill="#fff"/><path d="M226.15,71.75V58.06h2.18l2.87,7.85h0V58h2.13V71.71h-2.05l-3-8.57h0v8.61h-2.12Z" transform="translate(0 -4)" fill="#fff"/><path d="M237,60.07h-2.28V58h6.92v2.05h-2.28V71.75H237V60.07Z" transform="translate(0 -4)" fill="#fff"/><path d="M243.38,71.75V58.06h2.36V71.75h-2.36Z" transform="translate(0 -4)" fill="#fff"/><path d="M252.65,61.4a1.37,1.37,0,0,0-1.26-1.52,1.16,1.16,0,0,0-1.18,1.35c0,2.34,4.79,3.46,4.79,7.19,0,2.28-1.52,3.51-3.73,3.51s-3.44-1.75-3.54-3.8l2.24-.32c0.1,1.39.65,2.07,1.41,2.07a1.21,1.21,0,0,0,1.37-1.26c0-2.72-4.79-3.44-4.79-7.38,0-2.18,1.33-3.42,3.65-3.42,1.92,0,3,1.38,3.27,3.32Z" transform="translate(0 -4)" fill="#fff"/><path d="M258.16,60.07h-2.28V58h6.92v2.05h-2.28V71.75h-2.36V60.07Z" transform="translate(0 -4)" fill="#fff"/><path d="M273.16,62.61V61.54c0-1.16-.53-1.65-1.14-1.65-1,0-1.26.49-1.26,1.52v7c0,1,.3,1.52,1.26,1.52s1.14-.49,1.14-1.38V66.84h2.36v1.57a3.26,3.26,0,0,1-3.5,3.51,3.3,3.3,0,0,1-3.61-3.51V61.34A3.3,3.3,0,0,1,272,57.83c2.47,0,3.5,1.71,3.5,3.77v1h-2.36Z" transform="translate(0 -4)" fill="#fff"/><path d="M277.94,71.75V58.06h2.36v5.59h2.51V58h2.36V71.71h-2.36V65.63H280.3v6.09h-2.36v0Z" transform="translate(0 -4)" fill="#fff"/><path d="M287.43,58h2.36V68.38c0,1,.4,1.52,1.26,1.52s1.26-.49,1.26-1.52V58h2.38V68.29a3.61,3.61,0,1,1-7.23,0V58h0Z" transform="translate(0 -4)" fill="#fff"/><path d="M299.29,71.75H297V58.06h3.31c2.64,0,4,1.12,4,4,0,2.21-.85,3.1-1.65,3.46l2,6.18h-2.4l-1.67-5.68a11.41,11.41,0,0,1-1.22.05v5.63h0Zm0-7.57h0.84c1.27,0,1.75-.47,1.75-2.11S301.41,60,300.13,60h-0.84v4.21Z" transform="translate(0 -4)" fill="#fff"/><path d="M311.2,62.61V61.54c0-1.16-.53-1.65-1.14-1.65-1,0-1.26.49-1.26,1.52v7c0,1,.3,1.52,1.26,1.52s1.14-.49,1.14-1.38V66.84h2.36v1.57a3.26,3.26,0,0,1-3.5,3.51,3.3,3.3,0,0,1-3.61-3.51V61.34a3.3,3.3,0,0,1,3.61-3.51c2.47,0,3.5,1.71,3.5,3.77v1H311.2Z" transform="translate(0 -4)" fill="#fff"/><path d="M316,71.75V58.06h2.36v5.59h2.51V58h2.36V71.71h-2.36V65.63h-2.51v6.09H316v0Z" transform="translate(0 -4)" fill="#fff"/></svg>