<svg xmlns="http://www.w3.org/2000/svg" viewBox="0 0 320.99 79.84"><title>logo__church--no-logo--horiz</title><path d="M51.79,79.84a39,39,0,0,0,7.35-.65V74a61.2,61.2,0,0,0,20.32-6v8.37a30.39,30.39,0,0,0,12-6.26V59.52c6.17-6.44,9.85-14.26,9.85-22.27C101.36,16.73,79.09,0,51.79,0S2.21,16.73,2.21,37.25c0,8,3.67,15.82,9.83,22.27V70.17a30.5,30.5,0,0,0,12,6.26V68.06a61.18,61.18,0,0,0,20.34,6v5.15a38.79,38.79,0,0,0,7.37.65h0ZM42.85,5.34c-17,2.38-30.71,12-34.67,24.1,1.56,3.22,3.86,5.17,7.25,5.71C10.85,30.07,12.78,22,18,22c4.88,0,6.9,7.84,2.67,13.16,11.88-3.49,5.15-17.3,22.17-29.8h0Zm17.85,0c17,2.38,30.72,12,34.68,24.1a9.38,9.38,0,0,1-7.28,5.71C92.72,30.07,90.79,22,85.54,22c-4.87,0-6.9,7.84-2.65,13.16C71,31.65,77.72,17.84,60.7,5.34h0ZM12.14,52.52A26.49,26.49,0,0,1,6.89,37.25V37A9.53,9.53,0,0,0,12,39.75l0.1,12.77h0Zm79.29,0a26.61,26.61,0,0,0,5.25-15.27V37a9.58,9.58,0,0,1-5.17,2.79L91.43,52.52h0ZM42.31,69.07a56,56,0,0,1-18.22-6.24V40a5.5,5.5,0,0,0,3.22-2.28c1,13.69,5.71,24.36,15,31.35h0Zm18.94,0a55.72,55.72,0,0,0,18.21-6.24V40a5.55,5.55,0,0,1-3.22-2.28c-1,13.69-5.69,24.36-15,31.35h0Zm-16.83-5.5C35.7,56,32.09,46.26,32.73,34.32c3.51,2.65,7.37,4.87,11.7,5.6V63.56h0Zm14.72,0C67.87,56,71.46,46.26,70.8,34.32a27,27,0,0,1-11.66,5.6V63.56h0ZM51.79,22.08c7.25,0,9.28,9.48,3.21,13A26.51,26.51,0,0,0,69.63,27.6C67,17.65,60,8.54,51.79,5.5c-8.19,3-15.27,12.15-17.85,22.1A26.51,26.51,0,0,0,48.57,35c-6.07-3.47-4-13,3.22-13h0Z" transform="translate(-2.21)" fill="#fff" fill-rule="evenodd"/><path d="M142.82,20.82l-6.75,20.56h14.39l-7.64-20.56h0Zm54.56,48.25H152.71c-3.58,0-3.58-3.21,0-3.21,4.33-.38,6-2.42,5-6.34-1.88-4.5-3.92-9-5.8-13.43H134.77c-1.71,4.81-3.38,9.89-5,14.9-0.72,3.41,1.67,5.08,8,5.08,2,0,1.67,3,0,3H116.46c-3,0-2.8-2.42,0-2.42,4.84-.41,8.18-3.55,10.09-9.38,4.84-13.43,9.51-26.94,14.39-40.37a32.35,32.35,0,0,0-1.84-3.34h8.35c6,15.68,12,31.16,18,46.92,1.3,3.55,3.17,5.22,6.17,5.39,1.13,0,1.88-.75,1.88-2.25V22c0-3.58-3.21-5.25-8-5.46-2.63,0-2.63-2.83,0-3h31.95c12,0,28.61,9.51,28.61,28.57,0,17-17.56,26.94-28.61,26.94h0Zm0-52.17h-17V59.32c0.2,4.3,1.33,6.55,7.33,6.55h9.68c10.67,0,20.19-8.42,20-23.73,0-15.89-10.47-25.23-20-25.23h0Zm93.26,3.92-6.68,20.56h14.18l-7.5-20.56h0ZM248.21,16.9h-8.8V39.13c0,2.45.58,3.55,3.78,3.55h5c5.8,0,10.67-4.5,10.47-12.48,0-8.42-5.39-13.3-10.47-13.3h0Zm-8.8,42.42V45.68h7.5a37.69,37.69,0,0,0,4.3-.17c1.88,4.3,12.17,23.56,26.94,23.56h7.26a1.5,1.5,0,0,0,0-3c-6.17,0-8.59-1.67-7.84-5.08,1.67-5,3.38-10.09,5.08-14.9H299.8c1.88,4.47,3.75,8.93,5.8,13.43,0.75,3.92-.92,6-5,6.34-3.78,0-3.78,3.21,0,3.21h18.69c5.42,0,5-3.38,0-3.21-2.83-.17-4.88-1.84-6-5.39-6-15.75-12-31.23-18.17-46.92h-8.22a33.37,33.37,0,0,1,1.91,3.34c-4.88,13.43-9.75,26.94-14.59,40.37a22.43,22.43,0,0,1-1.53,3.92c-6.55-4.47-10.09-10.43-13.64-18.14,4.71-2.25,8.63-6.34,8.63-12.85-0.2-13.3-8.8-16.64-20.77-16.64H224.11c-2.25,0-2.63,3,.37,3,6.75,0,7.88,3.72,7.88,5.8V63.61c-0.2,2.63-2.46,2.08-5.28,2.25-3.51,0-3.51,3.21,0,3.21h19.47c4.5,0,4.5-3.21,0-3.21-6,0-7.13-2.25-7.13-6.55h0Z" transform="translate(-2.21)" fill="#fff" fill-rule="evenodd"/></svg>