<svg xmlns="http://www.w3.org/2000/svg" viewBox="0 0 239.57 18.55"><title>ADRA</title><path d="M0,18.3v-18H3.1v18H0Z" fill="#fff"/><path d="M6.53,18.3v-18H9.4l3.77,10.32h0.05V0.25H16v18h-2.7L9.38,7H9.32V18.3H6.53Z" fill="#fff"/><path d="M20.83,2.95h-3V0.25h9.1v2.7h-3V18.3h-3.1V2.95Z" fill="#fff"/><path d="M28.75,18.3v-18H37v2.7h-5.2V7.6h4v2.7h-4v5.3H37.4v2.7H28.75Z" fill="#fff"/><path d="M42.95,18.3h-3.1v-18H44.2c3.47,0,5.25,1.47,5.25,5.32,0,2.9-1.12,4.07-2.17,4.55L49.9,18.3H46.75l-2.2-7.47a15,15,0,0,1-1.6.07v7.4Zm0-9.95H44c1.67,0,2.3-.62,2.3-2.77S45.72,2.8,44,2.8h-1.1V8.35Z" fill="#fff"/><path d="M51.95,12.72v-2.3h6.12v2.3H51.95Z" fill="#fff"/><path d="M60.68,18.3v-18H69v2.7h-5.2V7.6h4v2.7h-4v5.3h5.55v2.7H60.68Z" fill="#fff"/><path d="M71.77,0.25h3.1V13.87c0,1.32.53,2,1.65,2s1.65-.65,1.65-2V0.25h3.1v13.5c0,3.1-1.8,4.8-4.75,4.8s-4.75-1.7-4.75-4.8V0.25Z" fill="#fff"/><path d="M87.37,18.3h-3.1v-18h4.35c3.47,0,5.25,1.47,5.25,5.32,0,2.9-1.12,4.07-2.17,4.55l2.62,8.17H91.17L89,10.82a15,15,0,0,1-1.6.07v7.4Zm0-9.95h1.1c1.67,0,2.3-.62,2.3-2.77S90.15,2.8,88.47,2.8h-1.1V8.35Z" fill="#fff"/><path d="M96.77,4.62c0-2.55,1.5-4.62,4.75-4.62s4.75,2.07,4.75,4.62v9.3c0,2.55-1.5,4.62-4.75,4.62s-4.75-2.07-4.75-4.62V4.62Zm3.1,9.22c0,1.35.4,2,1.65,2s1.65-.65,1.65-2V4.7c0-1.35-.4-2-1.65-2s-1.65.65-1.65,2v9.15Z" fill="#fff"/><path d="M109.27,18.3v-18h4.45c3.82,0,5.6,1.47,5.6,5.32s-1.77,5.32-5.6,5.32h-1.35v7.4h-3.1Zm3.1-9.95h1.2c2,0,2.65-.62,2.65-2.77S115.6,2.8,113.57,2.8h-1.2V8.35Z" fill="#fff"/><path d="M121.77,18.3v-18h8.3v2.7h-5.2V7.6h4v2.7h-4v5.3h5.55v2.7h-8.65Z" fill="#fff"/><path d="M134.67,18.3h-3l3.32-18h3.85l3.32,18h-3l-0.55-4h-3.4Zm1-6.7h2.5l-1.23-7.75h0Z" fill="#fff"/><path d="M144,18.3v-18h2.87l3.77,10.32h0V0.25h2.8v18h-2.7L146.82,7h0V18.3H144Z" fill="#fff"/><path d="M162,0.25h4.6c3.2,0,4.9,1.75,4.9,5.45v7.15c0,3.7-1.7,5.45-4.9,5.45H162v-18Zm3.1,15.5h1.08c1.65,0,2.22-.62,2.22-2.52V5.32c0-1.9-.58-2.52-2.22-2.52h-1.08V15.75Z" fill="#fff"/><path d="M174.95,18.3v-18H178v18h-3.1Z" fill="#fff"/><path d="M187.8,0.25h3l-3.77,18H184l-3.77-18h3l2.25,12.52h0Z" fill="#fff"/><path d="M193,18.3v-18h3.1v18H193Z" fill="#fff"/><path d="M205.17,4.7c-0.12-1.55-1-2-1.65-2A1.52,1.52,0,0,0,202,4.47c0,3.07,6.3,4.55,6.3,9.45,0,3-2,4.62-4.9,4.62s-4.52-2.3-4.65-5l2.95-.42c0.13,1.82.85,2.72,1.85,2.72a1.59,1.59,0,0,0,1.8-1.65c0-3.57-6.3-4.52-6.3-9.7,0-2.87,1.75-4.5,4.8-4.5,2.52,0,4,1.82,4.3,4.37Z" fill="#fff"/><path d="M211,18.3v-18h3.1v18H211Z" fill="#fff"/><path d="M217.57,4.62c0-2.55,1.5-4.62,4.75-4.62s4.75,2.07,4.75,4.62v9.3c0,2.55-1.5,4.62-4.75,4.62s-4.75-2.07-4.75-4.62V4.62Zm3.1,9.22c0,1.35.4,2,1.65,2s1.65-.65,1.65-2V4.7c0-1.35-.4-2-1.65-2s-1.65.65-1.65,2v9.15Z" fill="#fff"/><path d="M230.07,18.3v-18h2.87l3.77,10.32h0V0.25h2.8v18h-2.7L232.92,7h0V18.3h-2.8Z" fill="#fff"/></svg>