<svg xmlns="http://www.w3.org/2000/svg" viewBox="0 0 300.47 79.18"><title>ADRA</title><path d="M9.31,48.34H1.38L10.16,0.66H20.33l8.78,47.68H21.19L19.74,37.78h-9Zm2.64-17.7h6.6L15.31,10.17H15.18Z" fill="#fff"/><path d="M34.66,7.79V0.66H56.33V8.45L41.27,41.21H56.33v7.13H32.81V40.55L48.07,7.79H34.66Z" fill="#fff"/><path d="M63.19,0.66h8.19v36c0,3.5,1.39,5.22,4.36,5.22s4.36-1.72,4.36-5.22v-36h8.19V36.32C88.29,44.51,83.53,49,75.74,49S63.19,44.51,63.19,36.32V0.66Z" fill="#fff"/><path d="M104.4,48.34H96.21V0.66H107.7c9.18,0,13.87,3.9,13.87,14.07,0,7.66-3,10.76-5.75,12l6.93,21.6h-8.32L108.63,28.6a39.55,39.55,0,0,1-4.23.2V48.34Zm0-26.28h2.91c4.43,0,6.08-1.65,6.08-7.33s-1.65-7.33-6.08-7.33H104.4V22.06Z" fill="#fff"/><path d="M129.23,48.34V0.66h21.93V7.79H137.42V20.08H148v7.13H137.42v14h14.66v7.13H129.23Z" fill="#fff"/><path d="M173.22,48.34V0.66h8.19V20.08h8.72V0.66h8.19V48.34h-8.19V27.21H181.4V48.34h-8.19Z" fill="#fff"/><path d="M207.36,48.34V0.66h8.19V48.34h-8.19Z" fill="#fff"/><path d="M224.2,48.34V0.66h8.19V41.21h12.88v7.13H224.2Z" fill="#fff"/><path d="M249.89,48.34V0.66h8.19V41.21H271v7.13H249.89Z" fill="#fff"/><path d="M290.9,12.42c-0.33-4.09-2.51-5.28-4.36-5.28-2.64,0-4.09,1.72-4.09,4.69,0,8.12,16.64,12,16.64,25,0,7.86-5.28,12.22-12.94,12.22s-12-6.08-12.28-13.21l7.79-1.12c0.33,4.82,2.25,7.2,4.89,7.2,2.84,0,4.76-1.52,4.76-4.36,0-9.44-16.64-12-16.64-25.62C274.65,4.29,279.28,0,287.33,0,294,0,298,4.82,298.69,11.56Z" fill="#fff"/><path d="M6.45,65.33c-0.12-1.55-1-2-1.65-2a1.52,1.52,0,0,0-1.55,1.77c0,3.07,6.3,4.55,6.3,9.45,0,3-2,4.62-4.9,4.62s-4.52-2.3-4.65-5l2.95-.42c0.13,1.83.85,2.72,1.85,2.72a1.59,1.59,0,0,0,1.8-1.65c0-3.57-6.3-4.52-6.3-9.7,0-2.87,1.75-4.5,4.8-4.5,2.52,0,4,1.82,4.3,4.37Z" fill="#fff"/><path d="M11.9,78.93v-18h8.3v2.7H15v4.65h4v2.7H15v5.3h5.55v2.7H11.9Z" fill="#fff"/><path d="M29.32,60.88h3l-3.77,18H25.5l-3.77-18h3L27,73.4h0.05Z" fill="#fff"/><path d="M34.1,78.93v-18h8.3v2.7H37.2v4.65h4v2.7h-4v5.3h5.55v2.7H34.1Z" fill="#fff"/><path d="M45.2,78.93v-18h2.87L51.85,71.2H51.9V60.88h2.8v18H52L48,67.65H48V78.93H45.2Z" fill="#fff"/><path d="M59.5,63.58h-3v-2.7h9.1v2.7h-3V78.93H59.5V63.58Z" fill="#fff"/><path d="M67.42,78.93v-18h3.1v7.35h3.3V60.88h3.1v18h-3.1v-8h-3.3v8h-3.1Z" fill="#fff"/><path d="M79.52,73.35v-2.3h6.12v2.3H79.52Z" fill="#fff"/><path d="M88.25,60.88h4.6c3.2,0,4.9,1.75,4.9,5.45v7.15c0,3.7-1.7,5.45-4.9,5.45h-4.6v-18Zm3.1,15.5h1.08c1.65,0,2.22-.62,2.22-2.52V66c0-1.9-.58-2.52-2.22-2.52H91.35V76.38Z" fill="#fff"/><path d="M102.55,78.93h-3l3.32-18h3.85l3.32,18h-3l-0.55-4h-3.4Zm1-6.7H106l-1.22-7.75h0Z" fill="#fff"/><path d="M116.07,78.93H113v-7.5l-3.75-10.55h3.15l2.17,6.87h0.05l2.07-6.87h3.15l-3.75,10.55v7.5Z" fill="#fff"/><path d="M128.92,78.93h-3l3.32-18h3.85l3.32,18h-3l-0.55-4h-3.4Zm1-6.7h2.5l-1.22-7.75h0Z" fill="#fff"/><path d="M138.22,60.88h4.6c3.2,0,4.9,1.75,4.9,5.45v7.15c0,3.7-1.7,5.45-4.9,5.45h-4.6v-18Zm3.1,15.5h1.08c1.65,0,2.22-.62,2.22-2.52V66c0-1.9-.58-2.52-2.22-2.52h-1.08V76.38Z" fill="#fff"/><path d="M157,60.88h3l-3.77,18h-3.1l-3.77-18h3l2.25,12.52h0Z" fill="#fff"/><path d="M161.82,78.93v-18h8.3v2.7h-5.2v4.65h4v2.7h-4v5.3h5.55v2.7h-8.65Z" fill="#fff"/><path d="M172.92,78.93v-18h2.87l3.77,10.32h0V60.88h2.8v18h-2.7l-3.95-11.27h0V78.93h-2.8Z" fill="#fff"/><path d="M187.22,63.58h-3v-2.7h9.1v2.7h-3V78.93h-3.1V63.58Z" fill="#fff"/><path d="M195.57,78.93v-18h3.1v18h-3.1Z" fill="#fff"/><path d="M207.75,65.33c-0.12-1.55-1-2-1.65-2a1.52,1.52,0,0,0-1.55,1.77c0,3.07,6.3,4.55,6.3,9.45,0,3-2,4.62-4.9,4.62s-4.52-2.3-4.65-5l2.95-.42c0.13,1.83.85,2.72,1.85,2.72a1.59,1.59,0,0,0,1.8-1.65c0-3.57-6.3-4.52-6.3-9.7,0-2.87,1.75-4.5,4.8-4.5,2.52,0,4,1.82,4.3,4.37Z" fill="#fff"/><path d="M215,63.58h-3v-2.7h9.1v2.7h-3V78.93H215V63.58Z" fill="#fff"/><path d="M234.72,66.91v-1.4c0-1.52-.7-2.17-1.5-2.17-1.25,0-1.65.65-1.65,2v9.15c0,1.35.4,2,1.65,2s1.5-.65,1.5-1.82V72.48h3.1v2.07a4.29,4.29,0,0,1-4.6,4.62c-3.25,0-4.75-2.07-4.75-4.62v-9.3c0-2.55,1.5-4.62,4.75-4.62s4.6,2.25,4.6,4.95v1.32h-3.1Z" fill="#fff"/><path d="M241,78.93v-18h3.1v7.35h3.3V60.88h3.1v18h-3.1v-8h-3.3v8H241Z" fill="#fff"/><path d="M253.47,60.88h3.1V74.5c0,1.33.53,2,1.65,2s1.65-.65,1.65-2V60.88H263v13.5c0,3.1-1.8,4.8-4.75,4.8s-4.75-1.7-4.75-4.8V60.88Z" fill="#fff"/><path d="M269.07,78.93H266v-18h4.35c3.47,0,5.25,1.47,5.25,5.32,0,2.9-1.12,4.07-2.17,4.55L276,78.93h-3.15l-2.2-7.47a15,15,0,0,1-1.6.07v7.4Zm0-9.95h1.1c1.67,0,2.3-.62,2.3-2.77s-0.62-2.77-2.3-2.77h-1.1V69Z" fill="#fff"/><path d="M284.72,66.91v-1.4c0-1.52-.7-2.17-1.5-2.17-1.25,0-1.65.65-1.65,2v9.15c0,1.35.4,2,1.65,2s1.5-.65,1.5-1.82V72.48h3.1v2.07a4.29,4.29,0,0,1-4.6,4.62c-3.25,0-4.75-2.07-4.75-4.62v-9.3c0-2.55,1.5-4.62,4.75-4.62s4.6,2.25,4.6,4.95v1.32h-3.1Z" fill="#fff"/><path d="M291,78.93v-18h3.1v7.35h3.3V60.88h3.1v18h-3.1v-8h-3.3v8H291Z" fill="#fff"/></svg>