<svg xmlns="http://www.w3.org/2000/svg" viewBox="0 0 89.2 79.58"><title>sda-logo--no-text</title><path d="M36.5,66h5V65.7c0-3.5-1.6-6.1-12.7-4.1L10.5,64.9,0,79.54,25.3,75c7.6-1.3,14.2-1.6,16.3,4.4V69.5H36.5V66Z" transform="translate(0 0.04)" fill="#fff"/><path d="M57.5,61.64l-4,4c-5.8,5.8-8.6,9-8.6,13.8,2.2-6.3,9.2-5.8,17.3-4.1l24.3,4.2L76,64.94Z" transform="translate(0 0.04)" fill="#fff"/><path d="M53.9,56.34c-2.3,2.2-6.2,5.8-8,9.7H50l4.7-4.7c4.3-4.3,7.6-7.6,9-11.7a14.79,14.79,0,0,0,.8-7.5,4.69,4.69,0,0,0-.5-1.7c-0.4,4.7-1.7,7.5-8.5,14.3Z" transform="translate(0 0.04)" fill="#fff"/><path d="M39.6,23l-8.8,8.8c-4.6,4.7-8.4,9.7-7.9,15.2,0.3,3.1,1.3,4.8,2,5.3,0.4,0.3.3,0.1,0.2-.1-2.7-6.1,3.7-12.4,6.9-15.6l9.2-9.2c2.5-2.4,8.8-8.1,8.8-13V9c0-.1-0.1,0-0.1,0C49.4,12.74,48.6,14.34,39.6,23Z" transform="translate(0 0.04)" fill="#fff"/><path d="M50,18.44c0-.1-0.1,0-0.1,0-0.4,3.7-1.3,5.2-10.2,14.1l-8.2,8.2c-3,3-5.7,6.1-5.6,11.1,0.1,3.1,1.6,5.6,4,6.2,1,0.2.9,0.1,0.7,0-3.3-1.6-3.1-7.5,2.3-12.8l8.3-8.4c2.5-2.5,8.8-8.1,8.8-13v-5.4Z" transform="translate(0 0.04)" fill="#fff"/><path d="M22.4,42.94c0.4-4.7,1.7-7.5,8.5-14.3l10.2-10.2c2.5-2.4,8.8-8.1,8.8-13V0c0-.1-0.1,0-0.1,0-0.4,3.6-1.3,5.2-10.2,14.1L31.7,22c-4.3,4.3-7.6,7.6-9,11.7a14.79,14.79,0,0,0-.8,7.5A4.69,4.69,0,0,0,22.4,42.94Z" transform="translate(0 0.04)" fill="#fff"/><path d="M44.9,74.94H45a11.29,11.29,0,0,1,2.2-5.4H44.9v5.4Z" transform="translate(0 0.04)" fill="#fff"/><path d="M55.5,45.44L52.9,48c-4,3.9-8,8.4-8,12.5V66H45c0.5-4,2.4-6.6,8.2-12.3l2.4-2.4c4.6-4.7,8.4-9.7,7.9-15.2-0.3-3.1-1.3-4.8-2-5.3-0.4-.3-0.3-0.1-0.2.1C64,37,57.6,43.34,55.5,45.44Z" transform="translate(0 0.04)" fill="#fff"/><path d="M44.9,56.54H45c0.5-3.8,2.6-6.7,7.7-11.7l2.4-2.4c2.9-3,5.6-6.1,5.5-11.1-0.1-3-1.7-5.6-4-6.2-1-.2-0.9-0.1-0.7,0,3.3,1.5,3,7.5-2.3,12.8l-2.9,2.9c-1.9,1.9-5.8,6.2-5.8,10.1v5.6Z" transform="translate(0 0.04)" fill="#fff"/><path d="M88.6,69.84a2,2,0,0,0-1.5-.6,1.82,1.82,0,0,0-1.6.8,2.39,2.39,0,0,0-.5,1.4,2.11,2.11,0,0,0,.5,1.3,2,2,0,0,0,1.6.7A2.12,2.12,0,0,0,88.6,69.84Zm-0.12,2.6H88.4a0.54,0.54,0,0,1-.4-0.3L87.9,72l-0.5-.7a4.35,4.35,0,0,0,.6-0.7c0-.4-0.2-0.6-0.8-0.6H86.4a0.1,0.1,0,0,0-.1.1c0,0.1,0,.1.1,0.1h0.1a0.25,0.25,0,0,1,.2.29h0v1.4c0,0.2.1,0.4,0,.4s-0.1.1-.2,0.1l-0.1.1c0,0.1,0,.1.1,0.1h0.8a0.1,0.1,0,0,0,.1-0.1c0-.1,0-0.1-0.1-0.1a0.35,0.35,0,0,1-.2-0.1A0.37,0.37,0,0,1,87,72V71.4h0.2l0.1,0.1,0.4,0.7a0.74,0.74,0,0,0,.56.39A2,2,0,0,1,87.1,73a1.66,1.66,0,0,1-1.3-.5,2.11,2.11,0,0,1-.5-1.3,1.66,1.66,0,0,1,.5-1.3,2.11,2.11,0,0,1,1.3-.5,1.71,1.71,0,0,1,1.8,1.8A1.67,1.67,0,0,1,88.48,72.44Zm-1.78-2v-0.1c0-.1.1-0.1,0.2-0.1a0.76,0.76,0,0,1,.4.2,0.52,0.52,0,0,1,.2.4,0.4,0.4,0,0,1-.39.41H86.8c-0.1,0-.1-0.1,0,0Z" transform="translate(0 0.04)" fill="#fff"/></svg>