<svg xmlns="http://www.w3.org/2000/svg" viewBox="0 0 558.2 413.22"><defs><style>.a{fill:#fff;}</style></defs><title>Asset 1</title><path class="a" d="M61.6,260.72l.9.2a2.36,2.36,0,0,1,1.6,1,5.83,5.83,0,0,1,.4,2.7v15.2a8.54,8.54,0,0,1-.4,3.2,1.92,1.92,0,0,1-1.5,1.1c-.3,0-.5.1-.5.3s.2.4.6.4a7.47,7.47,0,0,0,1.1-.1h3.7a11,11,0,0,1,2.1.1c.5,0,.8.1,1,.1s.4-.1.4-.3-.2-.3-.5-.4c-1.3-.2-2.2-.5-2.5-1a4.08,4.08,0,0,1-.6-2.7V274c0-.3.1-.4.3-.4a.76.76,0,0,1,.4.2l.4.4L78,284l.3.3a1.39,1.39,0,0,0,1,.5h2.3a5,5,0,0,1,1.5.1h.4c.4,0,.5-.1.5-.4s-.1-.3-.4-.3l-.8-.2a6,6,0,0,1-3.2-1.9l-9.3-9.7a1.26,1.26,0,0,1-.4-.7c0-.1.1-.3.4-.6l6.1-5.5c3-2.7,5.1-4.2,6.1-4.5.6-.1.9-.3.9-.5s-.2-.3-.5-.3a1.76,1.76,0,0,0-.6.1H77.9a9.15,9.15,0,0,1-1.7-.1h-.5c-.4,0-.6.1-.6.4s.3.4.8.5c.9.2,1.3.5,1.3,1s-.6,1.5-1.8,2.5l-7.6,6.8-.3.2-.3.2c-.1,0-.2-.1-.2-.4v-6.9a6.24,6.24,0,0,1,.3-2.4,2.75,2.75,0,0,1,1.4-1.1c.3-.1.4-.3.4-.4s-.1-.3-.4-.3a4.4,4.4,0,0,0-.9.1H64.9a20.24,20.24,0,0,1-2.8-.1c-.2,0-.5-.1-.6-.1-.3,0-.5.1-.5.4C61.2,260.52,61.3,260.62,61.6,260.72Z"/><path class="a" d="M85.4,260.72a2.41,2.41,0,0,1,2.2.9,6.58,6.58,0,0,1,.6,3.4v16.3c0,1.4-.4,2.3-1.3,2.5l-.7.2c-.3.1-.5.2-.5.4s.2.4.6.4a3.44,3.44,0,0,0,.9-.1,40.18,40.18,0,0,1,4.4-.2c1.5,0,3.4.1,5.6.3.6,0,1,.1,1.4.1a5.6,5.6,0,0,0,5.2-4.6c0-.3-.1-.5-.3-.5a.54.54,0,0,0-.4.3c-1.3,2.1-4.3,3.1-9,3.1-1.5,0-2.4-.1-2.7-.4s-.5-.9-.5-1.9v-7.2c0-.4.1-.6.3-.7a2.87,2.87,0,0,1,1.2-.2h3.9a4.32,4.32,0,0,1,2.2.4,2.71,2.71,0,0,1,.9,1.6l.1.5c0,.3.2.4.5.4s.3-.1.3-.4v-.5a14.77,14.77,0,0,1-.1-2.1c0-.9.1-2,.2-3.1v-.4c0-.3-.1-.5-.3-.5a.51.51,0,0,0-.5.4,4.11,4.11,0,0,1-.5,1.5,2.25,2.25,0,0,1-1.2.5,21.13,21.13,0,0,1-3,.2H92.2a1.44,1.44,0,0,1-.9-.2,1.6,1.6,0,0,1-.2-1v-7.2a1.74,1.74,0,0,1,.3-1.2,2.21,2.21,0,0,1,1.4-.3h2.8a16.23,16.23,0,0,1,3.8.3,2,2,0,0,1,1.4,1.1,3.59,3.59,0,0,1,.2,1.1v.5c0,.4.1.5.3.5s.3-.1.4-.3a7,7,0,0,0,.2-1.3l.1-1a11.31,11.31,0,0,0,.1-1.4c0-.2.1-.3.1-.4,0-.3-.2-.5-.6-.5a2,2,0,0,0-.7.1,8.47,8.47,0,0,0-1.3.1l-2.5.1c-1.1,0-2.4.1-3.8.1a52.77,52.77,0,0,1-6.1-.3A5.74,5.74,0,0,0,86,260c-.5,0-.8.2-.8.5C84.9,260.62,85.1,260.72,85.4,260.72Z"/><path class="a" d="M106.6,260.82l.8.1c1.3.2,1.9,1.2,1.9,3.1v14.7a11.6,11.6,0,0,1-.4,4A2.32,2.32,0,0,1,107,284c-.3.1-.4.2-.4.3a.37.37,0,0,0,.4.4,4.59,4.59,0,0,0,1-.1,8.64,8.64,0,0,1,1.5-.1h2.6a14.17,14.17,0,0,1,2.3.1,5.13,5.13,0,0,0,1,.1q.6,0,.6-.3c0-.2-.2-.4-.7-.4a4.5,4.5,0,0,1-2.4-.8,1.69,1.69,0,0,1-.7-1,9.1,9.1,0,0,1-.2-2.1v-6.3a.85.85,0,0,1,.2-.6l.4-.1H115a1.51,1.51,0,0,1,1.4.7l.2.4L121,281a10.8,10.8,0,0,0,2.6,2.9,4.76,4.76,0,0,0,2.9.9,9.91,9.91,0,0,0,1.8-.2c.5-.1.8-.3.8-.5s-.1-.2-.3-.3h-.6c-1.3-.1-2.7-1.2-4.2-3.5l-.6-.9-4.9-7.2c2.9-1.5,4.4-3.5,4.4-6.2a5.35,5.35,0,0,0-2.1-4.6c-1.4-1-3.4-1.5-6.2-1.5a22.63,22.63,0,0,0-2.5.1c-1.3.1-2.2.1-2.8.1a7.59,7.59,0,0,1-1.6-.1,8.37,8.37,0,0,1-1.2-.1c-.4,0-.6.1-.6.4A1.16,1.16,0,0,0,106.6,260.82Zm6,.7a2.81,2.81,0,0,1,1.5-.3,6.52,6.52,0,0,1,4.6,1.7,5.51,5.51,0,0,1,1.8,4.3,4.46,4.46,0,0,1-1.3,3.5,4.92,4.92,0,0,1-3.7,1.3h-2a1.85,1.85,0,0,1-1-.2,2,2,0,0,1-.2-1.1v-7.8C112.2,262.12,112.3,261.72,112.6,261.52Z"/><path class="a" d="M130.5,260.72l.9.2a2.36,2.36,0,0,1,1.6,1,5.83,5.83,0,0,1,.4,2.7v15.2a8.54,8.54,0,0,1-.4,3.2,1.92,1.92,0,0,1-1.5,1.1c-.3,0-.5.1-.5.3s.2.4.6.4a7.47,7.47,0,0,0,1.1-.1h3.7a11,11,0,0,1,2.1.1c.5,0,.8.1,1,.1s.4-.1.4-.3-.2-.3-.5-.4c-1.3-.2-2.2-.5-2.5-1a4.08,4.08,0,0,1-.6-2.7V274c0-.3.1-.4.3-.4a.76.76,0,0,1,.4.2l.4.4L147,284l.3.3a1.39,1.39,0,0,0,1,.5h2.3a5,5,0,0,1,1.5.1h.4c.4,0,.5-.1.5-.4s-.1-.3-.4-.3l-.8-.2a6,6,0,0,1-3.2-1.9l-9.3-9.7a1.26,1.26,0,0,1-.4-.7c0-.1.1-.3.4-.6l6.1-5.5c3-2.7,5.1-4.2,6.1-4.5.6-.1.9-.3.9-.5s-.2-.3-.5-.3a1.76,1.76,0,0,0-.6.1h-4.4a9.15,9.15,0,0,1-1.7-.1h-.5c-.4,0-.6.1-.6.4s.3.4.8.5c.9.2,1.3.5,1.3,1s-.6,1.5-1.8,2.5l-7.6,6.8-.3.2-.3.2c-.1,0-.2-.1-.2-.4v-6.9a6.24,6.24,0,0,1,.3-2.4,2.75,2.75,0,0,1,1.4-1.1c.3-.1.4-.3.4-.4s-.1-.3-.4-.3a4.4,4.4,0,0,0-.9.1h-2.9a20.24,20.24,0,0,1-2.8-.1c-.2,0-.5-.1-.6-.1-.3,0-.5.1-.5.4C130,260.52,130.2,260.62,130.5,260.72Z"/><path class="a" d="M173,282.22a3.72,3.72,0,0,1,1.5-.6,2,2,0,0,0,.5-.1l.1-.3v-6.9a1.88,1.88,0,0,1,1.4-2c.4-.1.5-.2.5-.4s-.1-.3-.4-.3a11.31,11.31,0,0,0-1.4.1H170q-.6,0-.6.3c0,.3.2.4.7.5,1,.1,1.6.2,1.9.5a2.07,2.07,0,0,1,.5,1.5v4a3.47,3.47,0,0,1-.6,2.4,8,8,0,0,1-6.5,2.9,9,9,0,0,1-7.2-3.5,12.72,12.72,0,0,1-2.9-8.7,12.06,12.06,0,0,1,2.5-7.9,8.35,8.35,0,0,1,6.6-3.1,11.39,11.39,0,0,1,6.1,1.8,11.85,11.85,0,0,1,4.3,4.6c.1.2.2.3.4.3a.43.43,0,0,0,.4-.4,1.09,1.09,0,0,0-.1-.5,6.75,6.75,0,0,1-.2-1.4l-.2-1.7a5.74,5.74,0,0,1-.1-1.2c0-.6-.1-.8-.3-.8s-.2,0-.2.1l-.4.3a.49.49,0,0,1-.3.1.37.37,0,0,1-.3-.1,12.5,12.5,0,0,0-3.8-1.5,18.6,18.6,0,0,0-4.5-.6,12.29,12.29,0,0,0-9.1,3.7,12.91,12.91,0,0,0-3.6,9.3,11.65,11.65,0,0,0,12.2,12.2,15.31,15.31,0,0,0,7.5-2Z"/><path class="a" d="M195.7,264.82c.2,0,.3-.1.4-.3a7,7,0,0,0,.2-1.3l.1-1a11.31,11.31,0,0,0,.1-1.4c0-.2.1-.3.1-.4,0-.3-.2-.5-.6-.5a2,2,0,0,0-.7.1,8.47,8.47,0,0,0-1.3.1l-2.5.1c-1.1,0-2.4.1-3.8.1a52.77,52.77,0,0,1-6.1-.3,5.74,5.74,0,0,0-1.2-.1c-.5,0-.8.2-.8.5s.2.3.5.3a2.41,2.41,0,0,1,2.2.9,6.58,6.58,0,0,1,.6,3.4v16.3c0,1.4-.4,2.3-1.3,2.5l-.7.2c-.3.1-.5.2-.5.4s.2.4.6.4a3.44,3.44,0,0,0,.9-.1,40.18,40.18,0,0,1,4.4-.2c1.5,0,3.4.1,5.6.3.6,0,1,.1,1.4.1a5.6,5.6,0,0,0,5.2-4.6c0-.3-.1-.5-.3-.5a.54.54,0,0,0-.4.3c-1.3,2.1-4.3,3.1-9,3.1-1.5,0-2.4-.1-2.7-.4s-.5-.9-.5-1.9v-7.2c0-.4.1-.6.3-.7a2.87,2.87,0,0,1,1.2-.2H191a4.32,4.32,0,0,1,2.2.4,2.71,2.71,0,0,1,.9,1.6l.1.5c0,.3.2.4.5.4s.3-.1.3-.4v-.5a14.77,14.77,0,0,1-.1-2.1c0-.9.1-2,.2-3.1v-.4c0-.3-.1-.5-.3-.5a.51.51,0,0,0-.5.4,4.11,4.11,0,0,1-.5,1.5,2.25,2.25,0,0,1-1.2.5,21.13,21.13,0,0,1-3,.2h-2.7a1.44,1.44,0,0,1-.9-.2c-.1-.1-.1-.4-.1-1v-7.2a1.74,1.74,0,0,1,.3-1.2,2.21,2.21,0,0,1,1.4-.3h2.8a16.23,16.23,0,0,1,3.8.3,2,2,0,0,1,1.4,1.1,3.59,3.59,0,0,1,.2,1.1v.5C195.4,264.72,195.5,264.92,195.7,264.82Z"/><path class="a" d="M207.6,284.62h.5c.2,0,.4-.1.4-.3s-.2-.4-.6-.5a3.42,3.42,0,0,1-1.9-.7,2.67,2.67,0,0,1-.6-1.6l-.1-1.3v-12.9c0-.5.1-.8.3-.8s.2,0,.2.1l.2.2,15,17.1.4.5c.1.1.2.1.4.2s.4-.1.5-.4a12.31,12.31,0,0,0,.1-2.4v-18a6,6,0,0,1,.3-2.3,2.15,2.15,0,0,1,1.4-.9c.2-.1.4-.2.4-.3a.46.46,0,0,0-.5-.4,3.44,3.44,0,0,0-.9.1,8.66,8.66,0,0,1-1.8.1,30.21,30.21,0,0,1-3.3-.1h-.7c-.3,0-.5.1-.5.3a.46.46,0,0,0,.5.4,5,5,0,0,1,2.5.9,3,3,0,0,1,.9,2.1l.2,4.1V279c0,.2-.1.3-.2.3s-.2-.1-.5-.4l-16.1-18.4a1.38,1.38,0,0,0-.9-.5H200c-.3,0-.4.1-.4.3a.46.46,0,0,0,.5.4,3.61,3.61,0,0,1,2.8,2,9.52,9.52,0,0,1,1,4.8v12.1a6.35,6.35,0,0,1-.5,2.8,3.55,3.55,0,0,1-2,1.4c-.3.1-.5.3-.5.4s.2.3.5.3a2.64,2.64,0,0,0,.7-.1,5.7,5.7,0,0,1,1.3-.1h.9l1.8.1C207,284.52,207.5,284.62,207.6,284.62Z"/><path class="a" d="M240.8,259.72a13.37,13.37,0,0,0-5.2,1,12.67,12.67,0,0,0-4.2,2.7,10.89,10.89,0,0,0-2.5,4,13.72,13.72,0,0,0-.9,4.9,12.28,12.28,0,0,0,3.5,9.1,12.92,12.92,0,0,0,9.3,3.5A12.33,12.33,0,0,0,253.6,272a11.61,11.61,0,0,0-3.6-8.8A12.44,12.44,0,0,0,240.8,259.72Zm7.4,21.1a8.81,8.81,0,0,1-6.8,3,9.37,9.37,0,0,1-7.6-3.7,13.58,13.58,0,0,1-3.1-9.1,11.25,11.25,0,0,1,2.4-7.5,8.13,8.13,0,0,1,6.6-2.8,10.45,10.45,0,0,1,8,3.5,13,13,0,0,1,3.2,8.9A11,11,0,0,1,248.2,280.82Z"/><path class="a" d="M278.5,263.12a12.53,12.53,0,0,0-9.1-3.4,13.37,13.37,0,0,0-5.2,1,12.67,12.67,0,0,0-4.2,2.7,10.89,10.89,0,0,0-2.5,4,13.72,13.72,0,0,0-.9,4.9,12.28,12.28,0,0,0,3.5,9.1,12.92,12.92,0,0,0,9.3,3.5A12.33,12.33,0,0,0,282.2,272,12.12,12.12,0,0,0,278.5,263.12Zm-1.7,17.7a8.81,8.81,0,0,1-6.8,3,9.37,9.37,0,0,1-7.6-3.7,13.58,13.58,0,0,1-3.1-9.1,11.25,11.25,0,0,1,2.4-7.5,8.13,8.13,0,0,1,6.6-2.8,10.45,10.45,0,0,1,8,3.5,13,13,0,0,1,3.2,8.9A11,11,0,0,1,276.8,280.82Z"/><path class="a" d="M296.1,262.22a1.85,1.85,0,0,1,1-.2h5a3.13,3.13,0,0,1,2,.4,2.66,2.66,0,0,1,.7,1.6c.1.4.2.6.4.6s.4-.2.4-.6a3.44,3.44,0,0,0-.1-.9,5.76,5.76,0,0,1-.1-1.5,3.09,3.09,0,0,0-.2-1.3,2.23,2.23,0,0,0-1.2-.2H284.8c-.4,0-.7.1-.8.3a2.33,2.33,0,0,0-.2,1.1,8.82,8.82,0,0,1-.3,2.1c-.1.7-.2,1.1-.2,1.4s.1.5.3.5.4-.2.5-.7a4.1,4.1,0,0,1,1-2.2,2.93,2.93,0,0,1,2.1-.6h4.7a1.69,1.69,0,0,1,.9.2,1.29,1.29,0,0,1,.2.8v18.1a3.58,3.58,0,0,1-.5,2.1,3,3,0,0,1-1.8.8c-.4,0-.6.2-.6.3,0,.3.2.4.5.4a8.33,8.33,0,0,0,1.2-.1c.3,0,.8-.1,1.3-.1h2.7a5.79,5.79,0,0,1,1.6.1,3.44,3.44,0,0,0,.9.1c.3,0,.5-.1.5-.4s-.2-.3-.6-.4c-1.5-.3-2.3-1.1-2.3-2.5v-18.2C295.9,262.72,295.9,262.42,296.1,262.22Z"/><path class="a" d="M315.3,283.62a7.6,7.6,0,0,1-4.5-1.5,6.54,6.54,0,0,1-2.7-3.7q-.3-.9-.6-.9a.46.46,0,0,0-.4.5,10.7,10.7,0,0,0,.5,2.3,10.18,10.18,0,0,1,.4,1.6,3.1,3.1,0,0,0,.3,1.2,1.76,1.76,0,0,0,.4.5,10.16,10.16,0,0,0,2.4.9,11.28,11.28,0,0,0,3,.4,9.13,9.13,0,0,0,6.2-2.1,6.85,6.85,0,0,0,2.4-5.4c0-3.3-2.2-5.6-6.6-7.1a26.72,26.72,0,0,1-4.2-1.6,4.16,4.16,0,0,1-1.6-1.4,3.85,3.85,0,0,1-.8-2.6,3.41,3.41,0,0,1,1.3-2.8,4.47,4.47,0,0,1,3.2-1.1,8.31,8.31,0,0,1,4.4,1.2,5.77,5.77,0,0,1,2.6,3.2q.3.9.6.9c.3,0,.4-.2.4-.6a2.64,2.64,0,0,0-.1-.7l-.3-1.8a8.79,8.79,0,0,1-.2-1.8c0-.6-.1-.9-.4-.9-.1,0-.2,0-.2.1l-.3.2a.76.76,0,0,1-.4.2.37.37,0,0,1-.3-.1l-1.2-.5a7.94,7.94,0,0,0-3.2-.6,8.1,8.1,0,0,0-5.5,1.8,5.94,5.94,0,0,0-2.1,4.7,5.65,5.65,0,0,0,1.6,4.2,13.77,13.77,0,0,0,5.6,2.9c2.5.9,4.1,1.5,4.6,2a4.37,4.37,0,0,1,1.6,3.3,4.55,4.55,0,0,1-1.7,3.5A6,6,0,0,1,315.3,283.62Z"/><path class="a" d="M338.6,260.72c3.8,0,6.8,1.9,9,5.8.3.5.5.8.6.7s.2-.1.3-.2v-.6l-.6-4.3c-.1-.5-.2-.7-.4-.7a.91.91,0,0,0-.5.3.37.37,0,0,1-.3.1l-.3-.1-.3-.1-.7-.4a14.68,14.68,0,0,0-6.9-1.7,12,12,0,0,0-9.1,3.7,12.51,12.51,0,0,0-3.6,9.2,11.82,11.82,0,0,0,3.5,8.9,12.46,12.46,0,0,0,9.2,3.4,17.18,17.18,0,0,0,9.1-2.6,1.43,1.43,0,0,0,.8-1l.1-.3.4-2.2.1-.4V278c0-.2-.1-.4-.3-.3s-.4.3-.7,1a8.69,8.69,0,0,1-3.6,3.5,10.28,10.28,0,0,1-5.3,1.4,9.43,9.43,0,0,1-7.5-3.5,14,14,0,0,1-2.9-9.1,10.77,10.77,0,0,1,2.6-7.6A10,10,0,0,1,338.6,260.72Z"/><path class="a" d="M370.8,280.92c0,1.8-.6,2.8-1.9,3-.4.1-.6.2-.6.4s.1.4.4.3a8.33,8.33,0,0,0,1.2-.1c.4,0,.6-.1.9-.1h2.6a7.67,7.67,0,0,1,1.8.1,3.44,3.44,0,0,0,.9.1c.4,0,.5-.1.5-.4s-.2-.3-.6-.3a2.52,2.52,0,0,1-2-.9,4.42,4.42,0,0,1-.5-2.6v-17.2a2.93,2.93,0,0,1,.4-1.6,1.37,1.37,0,0,1,.9-.8l.7-.2c.3-.1.4-.2.4-.4s-.1-.3-.4-.3a2.64,2.64,0,0,0-.7.1,17.89,17.89,0,0,1-2.7.1,20.08,20.08,0,0,1-2.5-.1,6.82,6.82,0,0,0-1.2-.1c-.3,0-.4.1-.4.3s.2.3.5.4a2.35,2.35,0,0,1,1.7,1.1,5.39,5.39,0,0,1,.5,2.6v6.1a.85.85,0,0,1-.2.6,2.24,2.24,0,0,1-1,.1H359.1a2.75,2.75,0,0,1-1.3-.2,2.23,2.23,0,0,1-.2-1.2v-6.4a3.16,3.16,0,0,1,.4-1.9,2.71,2.71,0,0,1,1.6-.9c.3-.1.5-.2.5-.4a.46.46,0,0,0-.5-.4,2,2,0,0,0-.7.1,17.72,17.72,0,0,1-2.4.1,32.51,32.51,0,0,1-3.3-.2,4.91,4.91,0,0,0-1.1-.1c-.3,0-.5.1-.5.3s.2.3.5.4a4.12,4.12,0,0,1,2.1.9,3.4,3.4,0,0,1,.6,2.2v15.3a13.88,13.88,0,0,1-.3,3.5c-.2.7-.5,1.1-1.1,1.2l-.9.2c-.3.1-.5.2-.5.4s.1.3.4.3a6.61,6.61,0,0,0,1.1-.1c.5,0,.8-.1,1.1-.1h2.7a9.85,9.85,0,0,1,2.1.1,3.44,3.44,0,0,0,.9.1c.4,0,.5-.1.5-.4s-.2-.4-.7-.5a3,3,0,0,1-2.2-.9,4.33,4.33,0,0,1-.6-2.6v-6.5c0-.6.1-.9.3-1a3.09,3.09,0,0,1,1.3-.2h10.5a2.53,2.53,0,0,1,1.1.1,1.6,1.6,0,0,1,.2,1v6.5Z"/><path class="a" d="M395.6,283.82l-.6.1c-.3.1-.4.2-.4.4a.46.46,0,0,0,.5.4,1.76,1.76,0,0,0,.6-.1,20.41,20.41,0,0,1,3.1-.1,26.49,26.49,0,0,1,3.3.1h.7c.3,0,.5-.1.5-.3a.46.46,0,0,0-.5-.4,4.79,4.79,0,0,1-2.2-.8,7.64,7.64,0,0,1-1.4-2.7l-.4-1-7.6-19.6c-.1-.3-.3-.5-.5-.5s-.4.2-.5.5l-9.1,20.3-.5,1.2a14,14,0,0,1-1,1.6,2.57,2.57,0,0,1-1,.9l-.7.2c-.2.1-.3.2-.3.4s.2.3.5.3a5.81,5.81,0,0,0,1-.1h2.8l1.7.1h.6c.3,0,.5-.1.5-.3s-.2-.3-.6-.4a4.38,4.38,0,0,1-1.6-.6,1.59,1.59,0,0,1-.4-1.2,8.31,8.31,0,0,1,.8-2.7l1.2-2.6c.4-.8.6-1.3.9-1.4a4.66,4.66,0,0,1,1.6-.2H393a2.23,2.23,0,0,1,1.2.2,7.37,7.37,0,0,1,.6,1.1l.9,2.4a14.47,14.47,0,0,1,1.1,3.8A2.41,2.41,0,0,1,395.6,283.82Zm-3.4-10.3h-5.9c-.5,0-.8-.2-.8-.5,0-.1.1-.3.2-.7l3.5-7.7q.15-.3.3-.3c.2,0,.3.2.5.6l.1.4,2.8,7,.1.3a.76.76,0,0,1,.1.4C393.1,273.32,392.8,273.52,392.2,273.52Z"/><path class="a" d="M404.6,259.92c-.5,0-.7.1-.7.4s.1.3.5.4c1.2.1,1.9.5,2.2,1.2a15.23,15.23,0,0,1,.4,4.7v10.8a17.66,17.66,0,0,1-.5,4.9,2.4,2.4,0,0,1-1.9,1.6c-.4.1-.6.2-.6.4s.2.3.5.3a4.59,4.59,0,0,0,1-.1c.4,0,.9-.1,1.6-.1h4.5c.6,0,1,.1,1.2.1.4,0,.6-.2.6-.5s-.2-.3-.6-.3a6.36,6.36,0,0,1-1.5-.3c-.9-.2-1.5-1.1-1.6-2.5l-.1-1.5v-17a1.1,1.1,0,0,1,1.3-1.3,7.22,7.22,0,0,1,5.1,1.8,5.59,5.59,0,0,1,2,4.5,4.68,4.68,0,0,1-1.5,3.7,6,6,0,0,1-4.1,1.4,4.51,4.51,0,0,1-1.3-.1c-.1,0-.3-.1-.4-.1s-.3.1-.3.2.3.4.9.5a6.82,6.82,0,0,0,2.1.2,7.6,7.6,0,0,0,4.5-1.5,6.32,6.32,0,0,0,2.8-5.5,5.82,5.82,0,0,0-2.3-4.7,9.52,9.52,0,0,0-6-1.8,12.13,12.13,0,0,0-1.8.1c-1.4.1-2.5.2-3.3.2a14.05,14.05,0,0,1-1.8-.2A1.53,1.53,0,0,1,404.6,259.92Z"/><path class="a" d="M123.2,297.92l-24.1,41.6a1.86,1.86,0,0,0-.4,1.1c0,.6.6.9,1.9.9h27.1a7.47,7.47,0,0,0,2-.2,3.16,3.16,0,0,0,1-1.2l1.3-2.4,1.1-2.3a2.24,2.24,0,0,0,.3-1,.53.53,0,0,0-.6-.6c-.3,0-1.1.7-2.4,1.9a8.64,8.64,0,0,1-3.8,2.2,24.6,24.6,0,0,1-6.3.6h-7.9l-3.5-.1c-1.3,0-2-.4-1.9-1.3a3,3,0,0,1,.4-1.1l.4-.7,23.2-40.1a1.61,1.61,0,0,0,.3-.9c0-.9-.7-1.4-2.2-1.4H102.5c-1,0-1.6.2-1.8.7a9.68,9.68,0,0,0-.6,3.6,14.32,14.32,0,0,1-.3,2.6,21.58,21.58,0,0,0-.5,2.5c0,.6.2.9.7.9s.7-.3.9-1a10.39,10.39,0,0,1,2.3-3.7,6.23,6.23,0,0,1,2.7-2.1,14,14,0,0,1,4.2-.5h12c1.1,0,1.6.2,1.6.7a1.08,1.08,0,0,1-.3.7Z"/><path class="a" d="M140.4,336.62c0,2.2-.7,3.5-2,3.8l-1,.3c-.5.1-.7.3-.7.6s.3.6.9.6c.3,0,.7-.1,1.4-.2a50.35,50.35,0,0,1,6.7-.3c2.3,0,5.1.2,8.6.5a17.86,17.86,0,0,0,2.1.1,7.58,7.58,0,0,0,6-2.9c1.3-1.6,2-3,2-4.2,0-.5-.2-.7-.5-.7s-.4.2-.6.5c-2,3.2-6.6,4.8-13.7,4.8q-3.3,0-4.2-.6c-.6-.4-.8-1.3-.8-2.9v-10.9a1.25,1.25,0,0,1,.4-1.1,3.61,3.61,0,0,1,1.8-.3h6a5.38,5.38,0,0,1,3.3.7,3.36,3.36,0,0,1,1.3,2.5l.2.8a.66.66,0,0,0,.7.6c.4,0,.5-.2.5-.7a2.81,2.81,0,0,0-.1-.8c-.1-1.1-.2-2.2-.2-3.3,0-1.4.1-3,.2-4.8v-.6c0-.5-.2-.7-.5-.7s-.6.2-.7.7a4.83,4.83,0,0,1-.8,2.3,3.78,3.78,0,0,1-1.9.8,26.41,26.41,0,0,1-4.5.3h-4.2c-.8,0-1.2-.1-1.4-.3s-.2-.7-.2-1.5v-11a2.7,2.7,0,0,1,.5-1.9c.3-.3,1-.4,2.2-.4h4.3a25.89,25.89,0,0,1,5.8.4,3.19,3.19,0,0,1,2.1,1.6,4.67,4.67,0,0,1,.3,1.7v.7c0,.6.2.8.5.8a.68.68,0,0,0,.6-.4,10.53,10.53,0,0,0,.3-2l.1-1.6c.1-1.2.2-1.9.2-2.2a1.49,1.49,0,0,0,.1-.6c0-.5-.3-.8-.9-.8a5.38,5.38,0,0,0-1.1.1c-.2,0-.9.1-2,.1l-3.9.2c-1.7.1-3.7.1-5.9.1a85.75,85.75,0,0,1-9.4-.4,13.57,13.57,0,0,0-1.8-.1c-.8,0-1.2.2-1.2.7,0,.3.3.5.8.5,1.7,0,2.8.4,3.3,1.3s.9,2.6.9,5.2v23Z"/><path class="a" d="M165.1,305.32a10.45,10.45,0,0,0,1.7.4,3.56,3.56,0,0,1,2.1,1.1,14.89,14.89,0,0,1,1.8,3.1l13.8,32c.4.9.8,1.4,1.2,1.4s.7-.4,1.1-1.3l13.5-31.7.7-1.8a5.59,5.59,0,0,1,3-3.2q.6-.15.6-.6a.47.47,0,0,0-.5-.5h-5.3c-.3,0-1.1,0-2.4-.1h-.8c-.6,0-.9.2-.9.5s.5.6,1.5.7a6.29,6.29,0,0,1,1.7.6c.3.2.4.7.4,1.3,0,1.7-1.3,5.7-3.9,11.7l-6,14.2-.4,1c-.5,1-.8,1.6-1,1.6s-.5-.3-.7-.9l-10.5-24a10.2,10.2,0,0,1-1.1-3.8,1.33,1.33,0,0,1,.3-1,5.78,5.78,0,0,1,1.4-.7c.4-.1.5-.3.5-.6s-.2-.5-.7-.5a3.22,3.22,0,0,0-.8.1,13.05,13.05,0,0,1-1.7.1h-4.4a15,15,0,0,1-2.7-.1c-.4,0-.6-.1-.8-.1-.5,0-.8.2-.8.5C164.8,305,164.9,305.22,165.1,305.32Z"/><path class="a" d="M210.4,336.62c0,2.2-.7,3.5-2,3.8l-1,.3c-.5.1-.7.3-.7.6s.3.6.9.6c.3,0,.7-.1,1.4-.2a50.35,50.35,0,0,1,6.7-.3c2.3,0,5.1.2,8.6.5a17.86,17.86,0,0,0,2.1.1,7.58,7.58,0,0,0,6-2.9c1.3-1.6,2-3,2-4.2,0-.5-.2-.7-.5-.7s-.4.2-.6.5c-2,3.2-6.6,4.8-13.7,4.8q-3.3,0-4.2-.6c-.6-.4-.8-1.3-.8-2.9v-10.9a1.25,1.25,0,0,1,.4-1.1,3.61,3.61,0,0,1,1.8-.3h6a5.38,5.38,0,0,1,3.3.7,3.36,3.36,0,0,1,1.3,2.5l.2.8a.66.66,0,0,0,.7.6c.4,0,.5-.2.5-.7a2.81,2.81,0,0,0-.1-.8c-.1-1.1-.2-2.2-.2-3.3,0-1.4.1-3,.2-4.8v-.6c0-.5-.2-.7-.5-.7s-.6.2-.7.7a4.83,4.83,0,0,1-.8,2.3,3.78,3.78,0,0,1-1.9.8,26.41,26.41,0,0,1-4.5.3h-4.2c-.8,0-1.2-.1-1.4-.3s-.2-.7-.2-1.5v-11a2.7,2.7,0,0,1,.5-1.9,3.67,3.67,0,0,1,2.2-.4h4.3a25.89,25.89,0,0,1,5.8.4,3,3,0,0,1,2.1,1.6,4.67,4.67,0,0,1,.3,1.7v.7c0,.6.2.8.5.8a.68.68,0,0,0,.6-.4,10.52,10.52,0,0,0,.3-2l.1-1.6c.1-1.2.2-1.9.2-2.2a1.49,1.49,0,0,0,.1-.6c0-.5-.3-.8-.9-.8a5.38,5.38,0,0,0-1.1.1c-.2,0-.9.1-2,.1l-3.9.2c-1.7.1-3.7.1-5.9.1a85.75,85.75,0,0,1-9.4-.4,13.57,13.57,0,0,0-1.8-.1c-.8,0-1.2.2-1.2.7,0,.3.3.5.8.5,1.7,0,2.8.4,3.3,1.3s.9,2.6.9,5.2v23Z"/><path class="a" d="M269.1,333.42c0,.3-.1.5-.3.5s-.4-.2-.8-.7l-25-28.3a2.05,2.05,0,0,0-1.4-.8h-1.4l-1.8-.1h-1.5c-.4,0-.6.2-.6.5s.2.5.7.6a5.7,5.7,0,0,1,4.3,3.1,15.41,15.41,0,0,1,1.5,7.4v18.5a9.08,9.08,0,0,1-.8,4.3,5.33,5.33,0,0,1-3.1,2.1c-.5.2-.8.4-.8.7s.3.5.8.5a4.59,4.59,0,0,0,1-.1,12.75,12.75,0,0,1,2-.1l1.3-.1,2.8.1a16.73,16.73,0,0,1,2.4.2c.3,0,.6.1.8.1.4,0,.6-.2.6-.5s-.3-.6-.9-.7a6.36,6.36,0,0,1-2.9-1,3.87,3.87,0,0,1-.9-2.5l-.1-1.9v-19.6c0-.8.2-1.2.5-1.2a.76.76,0,0,1,.4.2l.3.3,22.9,26.2.6.7a1.07,1.07,0,0,0,.6.2.76.76,0,0,0,.8-.6,28.59,28.59,0,0,0,.1-3.7v-22.8l.1-1.8v-3a9.83,9.83,0,0,1,.5-3.6,3.67,3.67,0,0,1,2.2-1.4c.4-.1.6-.3.5-.5,0-.4-.3-.6-.8-.6a8.32,8.32,0,0,0-1.3.2,18.7,18.7,0,0,1-2.7.2c-2.1,0-3.8-.1-5-.2-.5,0-.9-.1-1.1-.1-.5,0-.8.2-.8.5s.3.6.8.7a8.17,8.17,0,0,1,3.9,1.4,4.61,4.61,0,0,1,1.3,3.3l.3,6.3v17.1Z"/><path class="a" d="M283.3,306.92a7.18,7.18,0,0,1,.9,4v24.5a10.87,10.87,0,0,1-.5,4,3.52,3.52,0,0,1-2.4,1.4c-.5.1-.8.3-.8.6s.3.6,1,.6a13.7,13.7,0,0,0,1.6-.2,36.81,36.81,0,0,1,5.1-.3c1.8,0,3.9.1,6.3.2,1.2.1,2,.1,2.5.1a19.77,19.77,0,0,0,10.9-3.1,17.71,17.71,0,0,0,6.2-6.8,20,20,0,0,0,2.2-9.4,17.79,17.79,0,0,0-5.1-13.1c-3.7-3.7-9.3-5.6-16.7-5.6-1.3,0-2.5,0-3.6.1l-2.5.2c-1,.1-2.4.1-4.3.1h-1.9l-2.1-.1c-.5,0-.7.2-.7.5s.3.5.9.6A4.47,4.47,0,0,1,283.3,306.92Zm5.1,1.8c0-1.1.2-1.9.7-2.2.8-.6,2.6-.9,5.5-.9a17.09,17.09,0,0,1,10.2,3,16.39,16.39,0,0,1,5.4,6.7,22.63,22.63,0,0,1,2,9.4c0,6.3-2.1,10.7-6.3,13.3a15.17,15.17,0,0,1-8.4,2.3,19.62,19.62,0,0,1-3.8-.4c-1.5-.3-2.7-.6-3.7-.9a2.34,2.34,0,0,1-1.7-2.3v-28Z"/><path class="a" d="M325.6,336.62c0,2.2-.7,3.5-2,3.8l-1,.3c-.5.1-.7.3-.7.6s.3.6.9.6c.3,0,.7-.1,1.4-.2a50.35,50.35,0,0,1,6.7-.3c2.3,0,5.1.2,8.6.5a17.86,17.86,0,0,0,2.1.1,7.58,7.58,0,0,0,6-2.9c1.3-1.6,2-3,2-4.2,0-.5-.2-.7-.5-.7s-.4.2-.6.5c-2,3.2-6.6,4.8-13.7,4.8q-3.3,0-4.2-.6c-.6-.4-.8-1.3-.8-2.9v-10.9a1.25,1.25,0,0,1,.4-1.1,3.61,3.61,0,0,1,1.8-.3h6a5.38,5.38,0,0,1,3.3.7,3.36,3.36,0,0,1,1.3,2.5l.2.8a.66.66,0,0,0,.7.6c.4,0,.5-.2.5-.7a2.81,2.81,0,0,0-.1-.8c-.1-1.1-.2-2.2-.2-3.3,0-1.4.1-3,.2-4.8v-.6c0-.5-.2-.7-.5-.7s-.6.2-.7.7a4.83,4.83,0,0,1-.8,2.3,3.78,3.78,0,0,1-1.9.8,26.41,26.41,0,0,1-4.5.3h-4.2c-.8,0-1.2-.1-1.4-.3s-.2-.7-.2-1.5v-11a2.7,2.7,0,0,1,.5-1.9,3.67,3.67,0,0,1,2.2-.4h4.3a25.89,25.89,0,0,1,5.8.4,3,3,0,0,1,2.1,1.6,4.67,4.67,0,0,1,.3,1.7v.7c0,.6.2.8.5.8a.68.68,0,0,0,.6-.4,10.52,10.52,0,0,0,.3-2l.1-1.6c.1-1.2.2-1.9.2-2.2a1.49,1.49,0,0,0,.1-.6c0-.5-.3-.8-.9-.8a5.38,5.38,0,0,0-1.1.1c-.2,0-.9.1-2,.1l-3.9.2c-1.7.1-3.7.1-5.9.1a85.75,85.75,0,0,1-9.4-.4,13.57,13.57,0,0,0-1.8-.1c-.8,0-1.2.2-1.2.7,0,.3.3.5.8.5,1.7,0,2.8.4,3.3,1.3s.9,2.6.9,5.2v23Z"/><path class="a" d="M360.1,330.42c.9-.3,1.4-.5,1.5-.7a5.57,5.57,0,0,0,.2-1.9c0-1-.1-1.4-.3-1.4l-.3.1c-.3.1-.9.4-1.9.7-1.4.5-2.3.8-2.9,1-1.5.5-2.5.9-2.9,1a4.89,4.89,0,0,0-2.1,1,5.57,5.57,0,0,0-.3,2.4c0,.6.1,1,.4.9a1.69,1.69,0,0,0,.5-.2,4.33,4.33,0,0,1,1.1-.4c.6-.1,1.9-.6,3.9-1.3A25.36,25.36,0,0,1,360.1,330.42Z"/><path class="a" d="M410.1,329.12a26.86,26.86,0,0,0,2.9-12.3c0-7-2.2-12.7-6.7-17.1-4.9-4.9-12.2-7.3-21.9-7.3-1.7,0-3.3.1-4.7.2l-3.3.3c-1.3.1-3.2.2-5.6.2h-2.5l-2.8-.1c-.6,0-.9.2-.9.7s.4.7,1.2.7a5,5,0,0,1,4,2c.8,1.1,1.2,2.9,1.2,5.3v32.1c0,2.6-.2,4.4-.7,5.2s-1.5,1.4-3.1,1.8c-.7.1-1,.4-1,.8,0,.6.4.8,1.2.8a19.09,19.09,0,0,0,2-.2,43.28,43.28,0,0,1,6.6-.4c2.3,0,5.1.1,8.3.3,1.6.1,2.7.2,3.3.2a26.72,26.72,0,0,0,14.3-4.1A23.15,23.15,0,0,0,410.1,329.12ZM388.5,340a36.39,36.39,0,0,1-5-.5,41.5,41.5,0,0,1-4.8-1.2,3,3,0,0,1-2.2-3v-36.6c0-1.5.3-2.4.9-2.9,1-.8,3.4-1.2,7.1-1.2a22.57,22.57,0,0,1,13.4,3.9,21.5,21.5,0,0,1,7.1,8.8,29.13,29.13,0,0,1,2.6,12.3c0,8.2-2.7,14-8.2,17.4A20.3,20.3,0,0,1,388.5,340Z"/><path class="a" d="M442.4,332.92c1.1,2.9,1.7,4.8,1.7,5.8a1.71,1.71,0,0,1-1.4,1.9l-.8.2c-.5.1-.7.3-.7.6s.2.6.7.6a2.48,2.48,0,0,0,.8-.1,37.14,37.14,0,0,1,4.7-.2c2.4,0,4.1,0,5,.1a7.72,7.72,0,0,1,1,.1c.5,0,.7-.2.8-.5s-.3-.6-.8-.7c-1.7-.3-2.9-.7-3.4-1.3s-1.3-1.9-2.1-4.1l-.6-1.5-11.7-30c-.2-.5-.4-.8-.7-.8s-.6.3-.8.8l-14,31.1-.8,1.8a15.76,15.76,0,0,1-1.5,2.4,3.21,3.21,0,0,1-1.5,1.3l-1,.3a.63.63,0,0,0-.5.6c0,.3.2.5.7.5.1,0,.6-.1,1.5-.2h1.2a28.12,28.12,0,0,1,3,.1l2.6.2h.9c.5,0,.8-.2.8-.5s-.3-.5-.8-.6a5.47,5.47,0,0,1-2.5-1,2.55,2.55,0,0,1-.6-1.9,11.49,11.49,0,0,1,1.2-4.1l1.8-4a6,6,0,0,1,1.3-2.2,6.17,6.17,0,0,1,2.5-.3h9.8a5.25,5.25,0,0,1,1.8.2,5.68,5.68,0,0,1,.9,1.7Zm-4.9-8.1h-8.9c-.8,0-1.3-.2-1.3-.7a2.18,2.18,0,0,1,.4-1l5.3-11.8c.2-.4.3-.5.4-.5.3,0,.5.3.7.9l.2.6,4.3,10.8.1.5a1.76,1.76,0,0,1,.1.6C438.8,324.52,438.4,324.82,437.5,324.82Z"/><path class="a" d="M487,337.22c.4-.1.7-.1.8-.2l.2-.4-.1-.9v-9.6q0-2.55,2.1-3c.5-.1.8-.4.8-.7s-.2-.5-.6-.5c-.2,0-.9,0-2.2.1-.5,0-2.1.1-4.9.1H480c-.6,0-.9.2-.9.5s.4.6,1.1.7a5.28,5.28,0,0,1,2.9.8,2.88,2.88,0,0,1,.7,2.3v6.1a5.71,5.71,0,0,1-.9,3.7,12,12,0,0,1-9.9,4.5,14.11,14.11,0,0,1-11.1-5.3,20,20,0,0,1-4.5-13.3,18.5,18.5,0,0,1,3.9-12.1,12.46,12.46,0,0,1,10-4.7,17.33,17.33,0,0,1,9.3,2.7,17,17,0,0,1,6.5,7.1c.2.3.4.5.6.5.4,0,.5-.2.5-.7a2.49,2.49,0,0,0-.1-.8,15.53,15.53,0,0,1-.4-2.1l-.3-2.6c-.1-.8-.2-1.5-.2-1.8,0-.9-.2-1.3-.5-1.3a.76.76,0,0,0-.4.2l-.7.5a1.69,1.69,0,0,1-.5.2c-.1,0-.2-.1-.5-.2a20,20,0,0,0-5.8-2.3,28.29,28.29,0,0,0-6.8-.9,18.7,18.7,0,0,0-13.9,5.7,19.69,19.69,0,0,0-5.5,14.3,18.16,18.16,0,0,0,5.2,13.4c3.5,3.5,7.9,5.2,13.4,5.2a21.71,21.71,0,0,0,11.4-3.1l1.8-1.1A13.55,13.55,0,0,1,487,337.22Z"/><path class="a" d="M495.7,337.72a14.69,14.69,0,0,0,.5,1.9,1.54,1.54,0,0,0,.7.7,12.45,12.45,0,0,0,3.7,1.4,20.05,20.05,0,0,0,4.6.6,14.17,14.17,0,0,0,9.5-3.2,10.31,10.31,0,0,0,3.7-8.3c0-5-3.4-8.6-10.1-10.8a48.84,48.84,0,0,1-6.5-2.4,7,7,0,0,1-3.7-6,5.5,5.5,0,0,1,2-4.3,6.82,6.82,0,0,1,4.9-1.7,11.91,11.91,0,0,1,6.7,1.9,9.46,9.46,0,0,1,4,4.9c.3.9.6,1.3.9,1.3s.6-.3.6-.8a6.61,6.61,0,0,0-.1-1.1l-.4-2.8c-.2-1.5-.4-2.4-.4-2.7,0-.9-.2-1.3-.7-1.3a.37.37,0,0,0-.3.1l-.4.3a1.07,1.07,0,0,1-1.2.2l-1.9-.8a12,12,0,0,0-4.9-.8,12.19,12.19,0,0,0-8.4,2.8,8.83,8.83,0,0,0-3.3,7.2,8.44,8.44,0,0,0,2.5,6.4,22.75,22.75,0,0,0,8.5,4.5c3.9,1.3,6.2,2.3,7.1,3a6.54,6.54,0,0,1,2.4,5.1,7,7,0,0,1-2.6,5.4,9.14,9.14,0,0,1-6.3,2.2,11.38,11.38,0,0,1-6.8-2.3,10.06,10.06,0,0,1-4.1-5.7c-.3-.9-.6-1.3-.9-1.3s-.6.2-.6.8a13.76,13.76,0,0,0,.7,3.5C495.4,336.72,495.7,337.52,495.7,337.72Z"/><path class="a" d="M72.1,409.32c-3.2-.6-5.3-1.4-6.4-2.4s-2.4-3.6-4-7.7l-1.1-2.7-21.8-55.9c-.4-1-.8-1.5-1.4-1.5s-1,.5-1.5,1.5L9.8,398.52l-1.5,3.4a21.11,21.11,0,0,1-2.8,4.5,9,9,0,0,1-2.7,2.5l-1.9.6c-.6.2-.9.5-.9,1.1s.5.9,1.4.9c.2,0,1.1-.1,2.8-.3.5,0,1.3-.1,2.3-.1,2.1,0,4,0,5.6.1l4.9.3c.8,0,1.3.1,1.7.1,1,0,1.4-.3,1.4-.8s-.6-1-1.6-1.2a11.36,11.36,0,0,1-4.7-1.8,4.49,4.49,0,0,1-1.2-3.5c0-1.7.8-4.2,2.3-7.6l3.3-7.5c1-2.3,1.8-3.7,2.4-4.1s2.2-.6,4.7-.6H43.7a8.4,8.4,0,0,1,3.5.4,9.16,9.16,0,0,1,1.7,3.2l2.5,6.7c2.1,5.4,3.1,8.9,3.1,10.7,0,2-.8,3.1-2.5,3.5l-1.6.4c-.8.2-1.3.5-1.3,1,0,.7.4,1,1.3,1,.3,0,.9-.1,1.6-.2a73.89,73.89,0,0,1,8.8-.3c4.5,0,7.6.1,9.4.3a17.68,17.68,0,0,0,1.9.1c.9,0,1.4-.3,1.4-.8S73.1,409.52,72.1,409.32Zm-29.8-29.6H27l-1.4-.1c-1.6,0-2.3-.4-2.3-1.3a5.5,5.5,0,0,1,.7-1.9l9.9-22c.3-.7.6-1,.8-1,.5,0,.9.6,1.3,1.7l.4,1.1,8,20.1.3.9a3.46,3.46,0,0,1,.3,1.2C44.9,379.32,44,379.72,42.3,379.72Z"/><path class="a" d="M95.5,358.92c-1.8,0-3.5.1-5,.2l-3.5.3c-1.4.1-3.4.2-5.9.2H78.5l-3-.2c-.7,0-1,.2-1,.7s.4.7,1.2.8A5.75,5.75,0,0,1,80,363c.9,1.2,1.3,3,1.3,5.6v34c0,2.8-.3,4.6-.8,5.5s-1.6,1.5-3.3,1.9c-.7.1-1.1.4-1.1.8,0,.6.4.9,1.3.8.5,0,1.2-.1,2.1-.2a48.08,48.08,0,0,1,7-.4c2.5,0,5.4.1,8.8.3,1.7.1,2.8.2,3.5.2a27.64,27.64,0,0,0,15.1-4.3,23.68,23.68,0,0,0,8.6-9.4,27.53,27.53,0,0,0,3.1-13.1c0-7.4-2.3-13.4-7-18.1C113.5,361.52,105.8,358.92,95.5,358.92Zm15.8,47.3a20.89,20.89,0,0,1-11.6,3.2,27.63,27.63,0,0,1-5.2-.6,31.05,31.05,0,0,1-5.1-1.3,3.21,3.21,0,0,1-2.3-3.2v-38.8c0-1.6.3-2.6,1-3.1,1.1-.9,3.6-1.3,7.6-1.3a23.63,23.63,0,0,1,14.2,4.2,23.1,23.1,0,0,1,7.5,9.3,31.2,31.2,0,0,1,2.7,13C120,396.42,117.1,402.62,111.3,406.22Z"/><path class="a" d="M178,359.32h-7.3a30.85,30.85,0,0,1-3.4-.2h-1.1c-.8,0-1.2.2-1.2.7s.7.8,2.1,1a5.33,5.33,0,0,1,2.3.8,2.16,2.16,0,0,1,.6,1.8c0,2.4-1.8,7.8-5.3,16.3l-8.3,19.6-.6,1.4c-.7,1.4-1.1,2.2-1.4,2.2s-.6-.4-1-1.2l-14.5-33.2a14.55,14.55,0,0,1-1.6-5.3,1.81,1.81,0,0,1,.4-1.4,6.17,6.17,0,0,1,1.9-1c.5-.2.8-.5.8-.8,0-.5-.3-.7-1-.7a5.38,5.38,0,0,0-1.1.1c-1.1.1-1.9.2-2.4.2h-6.1a29.59,29.59,0,0,1-3.8-.1,5.38,5.38,0,0,0-1.1-.1c-.7,0-1.1.2-1.1.7a.55.55,0,0,0,.4.6,12,12,0,0,0,2.3.5,5.07,5.07,0,0,1,3,1.5,17.08,17.08,0,0,1,2.4,4.3l19.1,44.3c.5,1.3,1.1,1.9,1.6,1.9s1-.6,1.5-1.8l18.7-43.9,1-2.4a7.46,7.46,0,0,1,4.1-4.4c.5-.2.8-.4.8-.8S178.5,359.32,178,359.32Z"/><path class="a" d="M219.6,400.92c-.3,0-.6.2-.8.7-2.8,4.4-9.1,6.7-19,6.7-3.1,0-5-.3-5.8-.8s-1.1-1.9-1.1-4v-15.1q0-1.2.6-1.5a4.66,4.66,0,0,1,2.5-.4h8.3a8.6,8.6,0,0,1,4.6.9,4.84,4.84,0,0,1,1.8,3.4l.2,1.1c.1.6.4.8,1,.8s.7-.3.7-.9a5.38,5.38,0,0,0-.1-1.1,33.89,33.89,0,0,1-.2-4.5c0-2,.1-4.2.3-6.7v-.8c0-.7-.2-1-.7-1s-.8.3-1,.9a7.51,7.51,0,0,1-1.1,3.2,4.88,4.88,0,0,1-2.6,1.1,33.21,33.21,0,0,1-6.3.5h-5.8c-1.1,0-1.7-.1-1.9-.4a4,4,0,0,1-.3-2.1v-15.2c0-1.3.2-2.2.7-2.6a5.17,5.17,0,0,1,3-.6h5.9a34.8,34.8,0,0,1,8,.6,3.88,3.88,0,0,1,2.9,2.3,5.93,5.93,0,0,1,.5,2.3v1c0,.8.2,1.2.7,1.1a.76.76,0,0,0,.8-.6,15.72,15.72,0,0,0,.4-2.7l.2-2.2a19.17,19.17,0,0,1,.3-3,3.08,3.08,0,0,0,.1-.9c0-.7-.4-1.1-1.2-1.1-.3,0-.8.1-1.5.2a24.55,24.55,0,0,1-2.7.2l-5.3.3c-2.4.1-5.1.2-8.1.2a121,121,0,0,1-13-.6c-1.1-.1-1.9-.2-2.5-.2-1.1,0-1.7.3-1.7,1,0,.5.4.7,1.1.7,2.3,0,3.8.6,4.6,1.9s1.2,3.7,1.2,7.3v34.4c0,3-.9,4.8-2.7,5.3l-1.4.4c-.7.2-1,.5-1,.9s.4.8,1.2.8a11.88,11.88,0,0,0,2-.3,63.09,63.09,0,0,1,9.3-.5,117.3,117.3,0,0,1,11.9.7c1.2.1,2.2.2,2.9.2a10.42,10.42,0,0,0,8.4-4.1c1.8-2.3,2.7-4.2,2.7-5.8C220.3,401.22,220,400.82,219.6,400.92Z"/><path class="a" d="M274.7,359.22c-.4,0-1,.1-1.8.2a19.48,19.48,0,0,1-3.7.2,65.42,65.42,0,0,1-7-.3,11,11,0,0,0-1.6-.1c-.7,0-1.1.2-1.1.7s.4.8,1.1.9c2.6.4,4.4,1.1,5.4,2a7.25,7.25,0,0,1,1.9,4.5l.5,8.7v23.7c0,.5-.2.7-.4.7s-.5-.3-1.1-.9l-34.8-39.2a2.73,2.73,0,0,0-1.9-1.1h-2l-2.5-.1h-2.1c-.6,0-.8.2-.8.7s.3.7,1,.8a8,8,0,0,1,6,4.3c1.4,2.5,2.1,5.9,2.1,10.3v25.6a12.31,12.31,0,0,1-1.1,5.9,7.6,7.6,0,0,1-4.3,2.9c-.7.2-1.1.6-1.1.9,0,.5.4.7,1.1.7a8.8,8.8,0,0,0,1.4-.1,24.59,24.59,0,0,1,2.8-.2l1.8-.1,3.8.2c1.9.1,3,.2,3.3.2a4.49,4.49,0,0,0,1.1.1c.5,0,.8-.2.8-.7s-.4-.9-1.2-1a8.21,8.21,0,0,1-4-1.4,5.39,5.39,0,0,1-1.3-3.4l-.1-2.7v-27c0-1.1.2-1.7.7-1.7a.76.76,0,0,1,.5.2l.4.4,31.8,36.3.8,1a1.22,1.22,0,0,0,.9.3c.6,0,.9-.3,1.1-.9a42.73,42.73,0,0,0,.2-5.2v-31.6l.1-2.5v-4.1c0-2.4.2-4.1.7-4.9a4.9,4.9,0,0,1,3-1.9c.5-.2.8-.4.8-.7C275.7,359.42,275.4,359.22,274.7,359.22Z"/><path class="a" d="M326,362.72c0-1.5-.1-2.4-.4-2.7a4,4,0,0,0-2.5-.5H282.5a2.28,2.28,0,0,0-1.7.5,4.05,4.05,0,0,0-.4,2.3,21.47,21.47,0,0,1-.6,4.5,19.1,19.1,0,0,0-.5,2.9c0,.7.2,1,.7,1s.8-.5,1-1.4c.5-2.3,1.2-3.8,2.1-4.6a6.61,6.61,0,0,1,4.4-1.2h10c1,0,1.6.1,1.8.4s.4.8.4,1.7V404c0,2.1-.3,3.6-1,4.4a5.92,5.92,0,0,1-3.9,1.6c-.8.1-1.2.3-1.2.7s.4.8,1.1.8c.3,0,1.1-.1,2.5-.2a21,21,0,0,1,2.7-.1h5.7a25.67,25.67,0,0,1,3.4.1,7.74,7.74,0,0,0,1.8.2c.7,0,1.1-.3,1.1-.8s-.4-.7-1.3-.8c-3.2-.6-4.8-2.3-4.9-5.2v-38.5c0-1.2.1-1.9.4-2.2a3.16,3.16,0,0,1,2.1-.5h10.6a8.53,8.53,0,0,1,4.3.8,5.43,5.43,0,0,1,1.6,3.5c.1.8.5,1.2.9,1.2.6,0,.8-.5.8-1.2,0-.4-.1-1-.2-1.8A23.83,23.83,0,0,1,326,362.72Z"/><path class="a" d="M347.9,409.72a8.47,8.47,0,0,1-3.5-1.1,5.86,5.86,0,0,1-1.9-2.7c-.4-1.1-.6-3.5-.6-7v-28.2c0-5.3.9-8.3,2.8-9l2-.8c.7-.2,1-.6,1-1s-.3-.7-1-.7h-.9l-2.5.2c-1.3.1-2.9.1-4.8.1a70.42,70.42,0,0,1-7.3-.3h-.7c-.8,0-1.1.3-1.1.8s.4.7,1.2.9c2.3.4,3.9,1.1,4.6,2.2s1.1,3.2,1.1,6.3v32.3c0,3.2-.3,5.3-.8,6.3s-1.8,1.7-3.7,2c-.8.1-1.2.4-1.2.8s.3.8,1,.8a12.14,12.14,0,0,0,1.8-.1l4.4-.3,5.5.1a33.11,33.11,0,0,1,4,.2,8.17,8.17,0,0,0,1.4.1q1.2,0,1.2-.9C349.8,410.12,349.1,409.82,347.9,409.72Z"/><path class="a" d="M373.3,381.12a93.37,93.37,0,0,1-9-3.3,11.21,11.21,0,0,1-3.4-2.9,8.66,8.66,0,0,1-1.8-5.5,7.7,7.7,0,0,1,2.7-6,9.91,9.91,0,0,1,6.8-2.4,17.62,17.62,0,0,1,9.3,2.6,12.64,12.64,0,0,1,5.5,6.7q.6,1.8,1.2,1.8c.5,0,.8-.4.8-1.2,0-.2-.1-.7-.2-1.5l-.6-3.9c-.3-2.1-.5-3.4-.5-3.8q0-1.95-.9-1.8c-.2,0-.3,0-.4.1l-.5.5a1.8,1.8,0,0,1-.9.4,1.85,1.85,0,0,1-.7-.2l-2.6-1.1a17.24,17.24,0,0,0-6.8-1.2c-4.8,0-8.7,1.3-11.7,3.8a12.53,12.53,0,0,0-4.5,9.9,12.13,12.13,0,0,0,3.5,8.9c2.3,2.3,6.3,4.4,11.8,6.2s8.7,3.2,9.8,4.2a9.05,9.05,0,0,1,3.3,7.1,9.32,9.32,0,0,1-3.6,7.4,13.3,13.3,0,0,1-8.8,3.1,16,16,0,0,1-9.5-3.2,14.38,14.38,0,0,1-5.7-7.9c-.4-1.2-.8-1.8-1.2-1.9s-.8.3-.8,1.1a17.54,17.54,0,0,0,1,4.8c.6,2.1.9,3.2.9,3.4a11.63,11.63,0,0,0,.7,2.6,4.06,4.06,0,0,0,.9,1,16.06,16.06,0,0,0,5.1,1.9,25.44,25.44,0,0,0,6.4.8c5.3,0,9.7-1.5,13.1-4.5a14.6,14.6,0,0,0,5.1-11.5C387.2,389.12,382.6,384.12,373.3,381.12Z"/><path class="a" d="M437.5,362.72c0-1.5-.1-2.4-.4-2.7a4,4,0,0,0-2.5-.5H394a2.28,2.28,0,0,0-1.7.5,4.05,4.05,0,0,0-.4,2.3,21.47,21.47,0,0,1-.6,4.5,19.1,19.1,0,0,0-.5,2.9c0,.7.2,1,.7,1s.8-.5,1-1.4c.5-2.3,1.2-3.8,2.1-4.6a6.61,6.61,0,0,1,4.4-1.2h10c1,0,1.6.1,1.8.4s.4.8.4,1.7V404c0,2.1-.3,3.6-1,4.4a5.92,5.92,0,0,1-3.9,1.6c-.8.1-1.2.3-1.2.7s.4.8,1.1.8c.3,0,1.1-.1,2.5-.2a21,21,0,0,1,2.7-.1h5.7a25.67,25.67,0,0,1,3.4.1,7.74,7.74,0,0,0,1.8.2c.7,0,1.1-.3,1.1-.8s-.4-.7-1.3-.8c-3.2-.6-4.8-2.3-4.9-5.2v-38.5c0-1.2.1-1.9.4-2.2a3.16,3.16,0,0,1,2.1-.5h10.6a8.53,8.53,0,0,1,4.3.8,5.43,5.43,0,0,1,1.6,3.5q.3,1.2.9,1.2c.6,0,.8-.5.8-1.2,0-.4-.1-1-.2-1.8A14.27,14.27,0,0,1,437.5,362.72Z"/><path class="a" d="M480.1,400.92c-.3,0-.6.2-.8.7-2.8,4.4-9.1,6.7-19,6.7-3.1,0-5-.3-5.8-.8s-1.1-1.9-1.1-4v-15.1q0-1.2.6-1.5a4.66,4.66,0,0,1,2.5-.4h8.3a8.6,8.6,0,0,1,4.6.9,4.84,4.84,0,0,1,1.8,3.4l.2,1.1c.1.6.4.8,1,.8s.7-.3.7-.9a5.38,5.38,0,0,0-.1-1.1c-.1-1.5-.2-3-.2-4.5,0-2,.1-4.2.3-6.7v-.8c0-.7-.2-1-.7-1s-.8.3-1,.9a7.51,7.51,0,0,1-1.1,3.2,4.88,4.88,0,0,1-2.6,1.1,33.21,33.21,0,0,1-6.3.5h-5.8c-1.1,0-1.7-.1-1.9-.4a4,4,0,0,1-.3-2.1v-15.2c0-1.3.2-2.2.7-2.6a5.17,5.17,0,0,1,3-.6H463a34.8,34.8,0,0,1,8,.6,3.88,3.88,0,0,1,2.9,2.3,5.93,5.93,0,0,1,.5,2.3v1c0,.8.2,1.2.7,1.1a.76.76,0,0,0,.8-.6,15.73,15.73,0,0,0,.4-2.7l.2-2.2a19.18,19.18,0,0,1,.3-3,3.08,3.08,0,0,0,.1-.9c0-.7-.4-1.1-1.2-1.1-.3,0-.8.1-1.5.2a24.55,24.55,0,0,1-2.7.2l-5.3.3c-2.4.1-5.1.2-8.1.2a121,121,0,0,1-13-.6c-1.1-.1-1.9-.2-2.5-.2-1.1,0-1.7.3-1.7,1,0,.5.4.7,1.1.7,2.3,0,3.8.6,4.6,1.9s1.2,3.7,1.2,7.3v34.4c0,3-.9,4.8-2.7,5.3l-1.4.4c-.7.2-1,.5-1,.9s.4.8,1.2.8a11.88,11.88,0,0,0,2-.3,63.09,63.09,0,0,1,9.3-.5,117.3,117.3,0,0,1,11.9.7c1.2.1,2.2.2,2.9.2a10.42,10.42,0,0,0,8.4-4.1c1.8-2.3,2.8-4.2,2.8-5.8C480.8,401.22,480.6,400.82,480.1,400.92Z"/><path class="a" d="M535.3,359.22c-.4,0-1,.1-1.8.2a19.48,19.48,0,0,1-3.7.2,65.42,65.42,0,0,1-7-.3,11,11,0,0,0-1.6-.1c-.7,0-1.1.2-1.1.7s.4.8,1.1.9c2.6.4,4.4,1.1,5.4,2a7.25,7.25,0,0,1,1.9,4.5l.5,8.7v23.7c0,.5-.2.7-.4.7s-.5-.3-1.1-.9l-34.7-39.2a2.73,2.73,0,0,0-1.9-1.1h-2l-2.5-.1h-2.1c-.6,0-.8.2-.8.7s.3.7,1,.8a8,8,0,0,1,6,4.3c1.4,2.5,2.1,5.9,2.1,10.3v25.6a12.31,12.31,0,0,1-1.1,5.9,7.6,7.6,0,0,1-4.3,2.9c-.7.2-1.1.6-1.1.9.1.5.4.7,1.1.7a8.8,8.8,0,0,0,1.4-.1,24.59,24.59,0,0,1,2.8-.2l1.8-.1,3.8.2c1.9.1,3,.2,3.3.2a4.49,4.49,0,0,0,1.1.1c.5,0,.8-.2.8-.7s-.4-.9-1.2-1a8.21,8.21,0,0,1-4-1.4,5.39,5.39,0,0,1-1.3-3.4l-.1-2.7v-27c0-1.1.2-1.7.7-1.7a.76.76,0,0,1,.5.2l.4.4,31.8,36.3.8,1a1.22,1.22,0,0,0,.9.3c.6,0,.9-.3,1.1-.9a42.74,42.74,0,0,0,.2-5.2v-31.6l.1-2.5v-4.1c0-2.4.2-4.1.7-4.9a4.51,4.51,0,0,1,3-1.9c.5-.2.8-.4.8-.7A1.49,1.49,0,0,0,535.3,359.22Z"/><path class="a" d="M34.7,304.62a2.61,2.61,0,0,1,1.8.9,3.75,3.75,0,0,1,.5,2.3v14.1a5.64,5.64,0,0,1-.3,2.3c-.2.4-.7.6-1.4.8-.3.1-.4.2-.4.4s.2.4.5.4a3.44,3.44,0,0,0,.9-.1,23.28,23.28,0,0,1,2.9-.2c1,0,2.3,0,3.7.1a9.51,9.51,0,0,0,1.4.1,11.56,11.56,0,0,0,6.3-1.8,10.42,10.42,0,0,0,3.6-3.9,11.33,11.33,0,0,0,1.3-5.4,10.17,10.17,0,0,0-2.9-7.5c-2.1-2.2-5.4-3.2-9.7-3.2a14.08,14.08,0,0,0-2.1.1l-1.5.1a17,17,0,0,1-2.5.1H35.7l-1.2-.1c-.3,0-.4.1-.4.3A.85.85,0,0,0,34.7,304.62Zm4.7,2c0-.6.1-1.1.4-1.3.4-.4,1.5-.5,3.2-.5a10.26,10.26,0,0,1,5.9,1.7,8.72,8.72,0,0,1,3.1,3.9,12.15,12.15,0,0,1,1.1,5.4c0,3.6-1.2,6.2-3.6,7.7a8.65,8.65,0,0,1-4.8,1.3c-.6,0-1.3-.1-2.2-.2a16.48,16.48,0,0,1-2.1-.5,1.38,1.38,0,0,1-1-1.3Z"/><path class="a" d="M58.4,304.62a2,2,0,0,1,1.9.8,6.44,6.44,0,0,1,.5,3v14.3c0,1.3-.4,2-1.1,2.2l-.6.2c-.3.1-.4.2-.4.4s.2.3.5.3a3.22,3.22,0,0,0,.8-.1,31.14,31.14,0,0,1,3.9-.2c1.3,0,3,.1,5,.3.5,0,.9.1,1.2.1a4.4,4.4,0,0,0,3.5-1.7,3.66,3.66,0,0,0,1.1-2.4c0-.3-.1-.4-.3-.4s-.2.1-.4.3c-1.2,1.9-3.8,2.8-7.9,2.8a5.58,5.58,0,0,1-2.4-.3c-.3-.2-.5-.8-.5-1.7v-6.3a.6.6,0,0,1,.3-.6,2.15,2.15,0,0,1,1-.2H68a3.16,3.16,0,0,1,1.9.4c.4.2.6.7.8,1.4l.1.4c0,.2.2.3.4.3s.3-.1.3-.4V317a12.1,12.1,0,0,1-.1-1.9c0-.8,0-1.8.1-2.8V312c0-.3-.1-.4-.3-.4s-.3.1-.4.4a2.3,2.3,0,0,1-.5,1.3,2.82,2.82,0,0,1-1.1.5,16.12,16.12,0,0,1-2.6.2H64.2c-.5,0-.7,0-.8-.1s-.1-.4-.1-.9v-6.3a1.44,1.44,0,0,1,.3-1.1c.2-.2.6-.2,1.3-.2h2.5a21.61,21.61,0,0,1,3.3.2,1.93,1.93,0,0,1,1.2.9,3,3,0,0,1,.2,1v.4c0,.3.1.5.3.5a.52.52,0,0,0,.4-.2,5.43,5.43,0,0,0,.2-1.1l.1-.9a8.47,8.47,0,0,0,.1-1.3v-.4a.47.47,0,0,0-.5-.5,1.76,1.76,0,0,0-.6.1,6.61,6.61,0,0,0-1.1.1l-2.2.1c-1,0-2.1.1-3.4.1a41.62,41.62,0,0,1-5.4-.3,4.48,4.48,0,0,0-1.1-.1c-.5,0-.7.1-.7.4C58,304.52,58.1,304.62,58.4,304.62Z"/><path class="a" d="M79.7,304.12H78.3a8,8,0,0,1-1.1-.1c-.4,0-.5.1-.5.3s.2.3.5.4l.7.1c1.1.2,1.7,1.1,1.7,2.7v12.9a9.66,9.66,0,0,1-.4,3.6,1.93,1.93,0,0,1-1.6,1.1c-.3.1-.4.2-.4.3s.1.3.4.3a2.81,2.81,0,0,0,.8-.1,6.15,6.15,0,0,1,1.3-.1H82a10.36,10.36,0,0,1,2,.1,5.53,5.53,0,0,1,.9.1c.4,0,.5-.1.5-.3s-.2-.3-.6-.4a4,4,0,0,1-2.1-.7,2.36,2.36,0,0,1-.6-.9,7.67,7.67,0,0,1-.1-1.8v-5.5a.59.59,0,0,1,.2-.5l.3-.1h2.1a1.21,1.21,0,0,1,1.2.6l.2.3,3.9,6a8.1,8.1,0,0,0,2.3,2.5,4.38,4.38,0,0,0,2.5.8,6.05,6.05,0,0,0,1.5-.2c.5-.1.7-.3.7-.4s-.1-.2-.3-.2h-.5c-1.1-.1-2.4-1.1-3.7-3.1l-.3-.7-4.3-6.4c2.6-1.3,3.9-3.1,3.9-5.5a4.64,4.64,0,0,0-1.8-4,8.94,8.94,0,0,0-5.4-1.4,17.73,17.73,0,0,0-2.2.1C81,304,80.2,304.12,79.7,304.12Zm4,.9a5.75,5.75,0,0,1,4.1,1.5,4.78,4.78,0,0,1,1.6,3.8,4.14,4.14,0,0,1-1.2,3.1,4.32,4.32,0,0,1-3.2,1.1H83.2a.86.86,0,0,1-1.1-1.1v-6.9a1.25,1.25,0,0,1,.4-1.1C82.6,305.12,83,305,83.7,305Z"/><path class="a" d="M266.1,227.42v-28.2H251.9v-10h14.2v-.9c0-10-4.6-17.3-36.4-11.8l-52.2,9.3-30.1,41.7,72.1-12.8C241.2,211,260.1,210.22,266.1,227.42Z"/><path class="a" d="M300.4,188.12c-16.4,16.4-24.4,25.8-24.4,39.4,6.3-18,26.2-16.4,49.7-11.9l69.3,12-30.1-41.7-52.8-9.3Z"/><path class="a" d="M301.7,161.52c-6.4,6.4-17.6,16.6-22.8,27.8h11.6L303.9,176c12.3-12.3,21.8-21.7,25.8-33.5A43,43,0,0,0,332,121c-.3-2.3-1.3-5.7-1.4-5-1.2,13.4-4.9,21.4-24.3,40.8Z"/><path class="a" d="M239,105.72l26.3-26.4c7.2-7.1,25.1-23.3,25.1-37.3V26.52c0-.2-.3-.1-.3,0-1.2,10.4-3.7,14.9-29.2,40.4l-25.1,25.2c-13.3,13.3-24.1,27.5-22.7,43.3.8,8.9,3.7,13.7,5.7,15.1,1,.7.7.2.5-.4C211.6,132.82,229.9,114.82,239,105.72Z"/><path class="a" d="M265.3,105.82c7.2-7.1,25.1-23.3,25.1-37.3V53c0-.2-.3-.1-.3,0-1.2,10.4-3.7,14.9-29.2,40.4l-23.3,23.4c-8.5,8.5-16.3,17.4-15.9,31.7.2,8.8,4.6,16.1,11.3,17.8,2.7.6,2.6.2,1.9,0-9.4-4.4-8.7-21.4,6.5-36.6Z"/><path class="a" d="M211.7,123.12c1.2-13.4,4.9-21.4,24.3-40.8l29.3-29.4c7.2-7.1,25.1-23.3,25.1-37.3V.12c0-.2-.3-.1-.3,0-1.2,10.4-3.7,14.9-29.2,40.4l-22.6,22.6c-12.3,12.3-21.8,21.7-25.8,33.5a43,43,0,0,0-2.3,21.5C210.7,120.52,211.7,123.82,211.7,123.12Z"/><path class="a" d="M276.3,214.62a33.65,33.65,0,0,1,6.1-15.4H276v15.4A.15.15,0,1,0,276.3,214.62Z"/><path class="a" d="M306.4,130.42l-7.4,7.4c-11.4,11.3-23,24.1-23,35.8v15.7c0,.1.3.1.3,0,1.2-11.4,6.7-18.8,23.3-35.3l6.9-6.9c13.3-13.3,24.1-27.5,22.7-43.3-.8-8.9-3.7-13.7-5.7-15.1-1-.7-.7-.2-.5.4C330.6,106.42,312.4,124.42,306.4,130.42Z"/><path class="a" d="M276,162.12c0,.1.3.1.3,0,1.3-10.9,7.5-19.2,21.7-33.3l6.8-6.8c8.5-8.5,16.1-17.3,15.8-31.7-.2-8.8-4.6-16.1-11.3-17.8-2.7-.6-2.6-.2-1.9,0,9.4,4.4,8.7,21.4-6.5,36.6l-8.4,8.3c-5.4,5.4-16.5,17.5-16.5,28.7Z"/><path class="a" d="M392.8,198l.3.1c.5.1.7.5.7,1.2v6.1a4.66,4.66,0,0,1-.2,1.6,1.28,1.28,0,0,1-.7.5.27.27,0,0,0-.3.3c0,.2.1.2.3.2h.4a3.54,3.54,0,0,0,.6-.1h2.5c.2,0,.4-.1.4-.2s-.1-.2-.4-.3c-.5-.1-.9-.2-1-.4s-.2-.6-.2-1.1v-2.8h1.1a.55.55,0,0,1,.5.3l.1.2,1.9,2.8a2.86,2.86,0,0,0,2.4,1.6c.8,0,1.2-.1,1.2-.4a.22.22,0,0,0-.2-.2H402c-.5,0-1.1-.5-1.7-1.4l-.2-.4-2-2.9a2.85,2.85,0,0,0,1.8-2.6c0-1.8-1.2-2.6-3.6-2.6h-3.5c-.2,0-.3.1-.3.2A.27.27,0,0,0,392.8,198Zm3.2.2a2.41,2.41,0,0,1,1.8.7,2,2,0,0,1,.7,1.6c0,1.3-.7,1.9-2,1.9h-.8c-.2,0-.3,0-.4-.1a1,1,0,0,1-.1-.4v-3.2C395.3,198.42,395.5,198.22,396,198.22Z"/><path class="a" d="M396.9,211.62a8.9,8.9,0,1,0-6.8-14.7,9.06,9.06,0,0,0,0,11.6A8.58,8.58,0,0,0,396.9,211.62Zm-5.6-14.5a7.92,7.92,0,0,1,11.2,11.2,7.87,7.87,0,0,1-5.6,2.3,7.92,7.92,0,0,1-5.6-13.5Z"/><path class="a" d="M555.6,352.32a9,9,0,0,0-13.1.5,9.06,9.06,0,0,0,0,11.6,8.44,8.44,0,0,0,6.8,3.1,8.91,8.91,0,0,0,6.3-15.2Zm-.7,11.9a7.47,7.47,0,0,1-5.6,2.3,7.7,7.7,0,0,1-5.6-2.3,7.87,7.87,0,0,1-2.3-5.6,7.9,7.9,0,1,1,13.5,5.6Z"/><path class="a" d="M554.6,363.22h-.2c-.5,0-1.1-.5-1.7-1.4l-.2-.4-2-2.9a2.85,2.85,0,0,0,1.8-2.6c0-1.8-1.2-2.6-3.6-2.6h-3.5c-.2,0-.3.1-.3.2s.1.2.3.3l.3.1c.5.1.7.5.7,1.2v6.1a4.66,4.66,0,0,1-.2,1.6,1.28,1.28,0,0,1-.7.5c-.2,0-.3.1-.3.2a.27.27,0,0,0,.3.3h.4a3.54,3.54,0,0,0,.6-.1h2.5c.2,0,.4-.1.4-.2s-.1-.2-.4-.3c-.5-.1-.9-.2-1-.4s-.2-.6-.2-1.1v-2.8h1.1a.55.55,0,0,1,.5.3l.1.2,1.9,2.8a2.86,2.86,0,0,0,2.4,1.6c.8,0,1.2-.1,1.2-.4A.22.22,0,0,0,554.6,363.22Zm-5.7-5h-.8c-.2,0-.3,0-.4-.1a1,1,0,0,1-.1-.4v-3.2c0-.4.2-.5.7-.5a2.41,2.41,0,0,1,1.8.7,2,2,0,0,1,.7,1.6C550.9,357.62,550.2,358.22,548.9,358.22Z"/></svg>