<svg xmlns="http://www.w3.org/2000/svg" viewBox="0 0 652.04 152.27"><defs><style>.a{fill:#fff;}</style></defs><title>Asset 1</title><path class="a" d="M199.3,111.07h.1a12.16,12.16,0,0,1,2.1-5.4h-2.2Z"/><path class="a" d="M195.3,66.47a4.66,4.66,0,0,1,3.3,1.5,5.57,5.57,0,0,1,.9,3.6v24.3a23.53,23.53,0,0,1-.5,5.6,2.39,2.39,0,0,1-1.7,1.9l-1.4.3c-.5.1-.7.3-.7.7s.2.5.7.5a17.36,17.36,0,0,0,1.8-.1,12.14,12.14,0,0,1,1.8-.1l1.9-.1h2.4a25.67,25.67,0,0,1,3.4.1,8.8,8.8,0,0,0,1.4.1c.6,0,.8-.2.8-.6s-.4-.6-1.1-.7a5,5,0,0,1-3.5-1.5,7.11,7.11,0,0,1-.9-4.1V87.47c0-.9.1-1.4.4-1.7a4,4,0,0,1,2-.3H223a4.51,4.51,0,0,1,1.7.2c.2.2.3.7.3,1.6v11.5q0,4.35-3,4.8c-.6.1-.9.3-1,.6s.2.6.7.6c.1,0,.8,0,2-.1a7.61,7.61,0,0,1,1.4-.1l2.1-.1h2.1a18,18,0,0,1,2.8.1,8.64,8.64,0,0,0,1.5.1c.6,0,.8-.2.8-.7q0-.45-.9-.6c-1.6-.2-2.7-.6-3.3-1.4s-.8-2.2-.8-4.2V70.47A5.14,5.14,0,0,1,230,68a2.67,2.67,0,0,1,1.5-1.3l1.2-.3c.5-.1.7-.3.7-.6s-.2-.6-.7-.6a4.59,4.59,0,0,0-1,.1,35.88,35.88,0,0,1-4.2.2c-1.4,0-2.7-.1-4-.2a15.77,15.77,0,0,0-1.9-.1c-.5,0-.7.2-.7.5s.3.6.8.7a4.37,4.37,0,0,1,2.8,1.7,8.36,8.36,0,0,1,.7,4.1v9.7c0,.5-.1.9-.3,1s-.8.2-1.6.2h-17a4,4,0,0,1-2.1-.3,3.56,3.56,0,0,1-.3-1.9V70.77a4.74,4.74,0,0,1,.7-3,4.23,4.23,0,0,1,2.5-1.4c.5-.1.8-.3.8-.6s-.3-.6-.8-.6a5.74,5.74,0,0,0-1.2.1,23,23,0,0,1-3.8.2,39.43,39.43,0,0,1-5.2-.3c-.8-.1-1.3-.2-1.7-.2s-.7.2-.7.6C194.5,66.17,194.8,66.37,195.3,66.47Z"/><path class="a" d="M238.8,76a2.81,2.81,0,0,1,2.6,1.1,9.08,9.08,0,0,1,.7,4.1v19.4q0,2.55-1.5,3l-.8.2c-.4.1-.6.3-.6.5s.2.5.7.5c.2,0,.6-.1,1.1-.1a31.62,31.62,0,0,1,5.3-.3,60.48,60.48,0,0,1,6.7.4,11.56,11.56,0,0,0,1.7.1,5.82,5.82,0,0,0,4.7-2.3,6.16,6.16,0,0,0,1.6-3.3c0-.4-.1-.6-.4-.6s-.3.1-.5.4c-1.6,2.5-5.2,3.8-10.8,3.8-1.8,0-2.9-.1-3.3-.4s-.6-1.1-.6-2.3v-8.6a1,1,0,0,1,.4-.9,3.71,3.71,0,0,1,1.4-.2h4.7a5.39,5.39,0,0,1,2.6.5,2.87,2.87,0,0,1,1,1.9l.1.6c.1.3.2.5.5.5s.4-.2.4-.5v-.6a22.61,22.61,0,0,1-.1-2.6c0-1.1.1-2.4.2-3.8V86c0-.4-.1-.6-.4-.6a.47.47,0,0,0-.5.5,6,6,0,0,1-.6,1.8,2.11,2.11,0,0,1-1.5.6,16.22,16.22,0,0,1-3.5.3h-3.3a2,2,0,0,1-1.1-.2,2.23,2.23,0,0,1-.2-1.2v-8.6c0-.8.1-1.2.4-1.5a3.17,3.17,0,0,1,1.7-.3h3.3a22,22,0,0,1,4.5.3,2,2,0,0,1,1.6,1.3,2.77,2.77,0,0,1,.3,1.3v.6c0,.4.1.7.4.6a.55.55,0,0,0,.5-.3,8.81,8.81,0,0,0,.2-1.5l.1-1.3a10.84,10.84,0,0,1,.2-1.7,4.33,4.33,0,0,1,.1-.5c0-.4-.2-.6-.7-.6a3.45,3.45,0,0,0-.9.1c-.2,0-.7.1-1.5.1l-3,.1c-1.3.1-2.9.1-4.6.1-2.9,0-5.3-.1-7.3-.3a8.17,8.17,0,0,0-1.4-.1c-.6,0-1,.2-1,.6C238.2,75.87,238.4,76,238.8,76Z"/><path class="a" d="M262.5,81.67c.3,0,.4-.3.6-.8a5.24,5.24,0,0,1,1.2-2.6,3.56,3.56,0,0,1,2.5-.7h5.6a1.85,1.85,0,0,1,1,.2,1.86,1.86,0,0,1,.2,1v21.8a4,4,0,0,1-.6,2.5,3,3,0,0,1-2.2.9c-.5.1-.7.2-.7.4s.2.5.6.5a11.31,11.31,0,0,0,1.4-.1c.4,0,.9-.1,1.5-.1h3.3a7.71,7.71,0,0,1,1.9.1,5.13,5.13,0,0,0,1,.1c.4,0,.6-.2.6-.5s-.2-.4-.7-.5a3,3,0,0,1-2.8-3V79.18a3.09,3.09,0,0,1,.2-1.3,1.74,1.74,0,0,1,1.2-.3h6a4.27,4.27,0,0,1,2.4.5,3.38,3.38,0,0,1,.9,2c.1.5.3.7.5.7s.5-.3.4-.7c0-.2-.1-.6-.1-1a8.67,8.67,0,0,1-.1-1.8,4,4,0,0,0-.2-1.5c-.2-.2-.6-.3-1.4-.3h-23a1.33,1.33,0,0,0-1,.3,3.09,3.09,0,0,0-.2,1.3,12.89,12.89,0,0,1-.3,2.5,8,8,0,0,0-.3,1.6C262.1,81.47,262.2,81.67,262.5,81.67Z"/><path class="a" d="M293.5,77.07a9.08,9.08,0,0,1,.7,4.1v19.4q0,2.55-1.5,3l-.8.2c-.4.1-.6.3-.6.5s.2.5.7.5c.2,0,.6-.1,1.1-.1a31.62,31.62,0,0,1,5.3-.3,60.48,60.48,0,0,1,6.7.4,10.9,10.9,0,0,0,1.7.1,5.82,5.82,0,0,0,4.7-2.3,6.16,6.16,0,0,0,1.6-3.3c0-.4-.1-.6-.4-.6s-.3.1-.5.4c-1.6,2.5-5.2,3.8-10.8,3.8-1.8,0-2.9-.1-3.3-.4s-.6-1.1-.6-2.3v-8.6a1,1,0,0,1,.4-.9,3.71,3.71,0,0,1,1.4-.2H304a5.39,5.39,0,0,1,2.6.5,2.51,2.51,0,0,1,1,1.9l.1.6c.1.3.2.5.5.5s.4-.2.4-.5v-.6a22.61,22.61,0,0,1-.1-2.6c0-1.1.1-2.4.2-3.8V86c0-.4-.1-.6-.4-.6a.47.47,0,0,0-.5.5,6,6,0,0,1-.6,1.8,2.11,2.11,0,0,1-1.5.6,16.22,16.22,0,0,1-3.5.3h-3.3a2,2,0,0,1-1.1-.2,2.23,2.23,0,0,1-.2-1.2v-8.6c0-.8.1-1.2.4-1.5a3.17,3.17,0,0,1,1.7-.3H303a22,22,0,0,1,4.5.3,2,2,0,0,1,1.6,1.3,2.77,2.77,0,0,1,.3,1.3v.6c0,.4.1.7.4.6a.55.55,0,0,0,.5-.3,8.81,8.81,0,0,0,.2-1.5l.1-1.3a10.84,10.84,0,0,1,.2-1.7,4.33,4.33,0,0,1,.1-.5c0-.4-.2-.6-.7-.6a3.45,3.45,0,0,0-.9.1c-.2,0-.7.1-1.5.1l-3,.1c-1.3.1-2.9.1-4.6.1-2.9,0-5.3-.1-7.3-.3a8.17,8.17,0,0,0-1.4-.1c-.6,0-1,.2-1,.6s.2.4.6.4A2.78,2.78,0,0,1,293.5,77.07Z"/><path class="a" d="M316.6,76.07a3.12,3.12,0,0,1,2.4,1.2,5.42,5.42,0,0,1,.7,3.2v19.2a7,7,0,0,1-.4,3.1,2.69,2.69,0,0,1-1.9,1.1c-.4.1-.6.2-.6.5s.2.5.7.5c.3,0,.7-.1,1.2-.1a23.63,23.63,0,0,1,4-.2c1.4,0,3.1.1,5,.2a17.23,17.23,0,0,0,2,.1,15.42,15.42,0,0,0,8.6-2.5,13.89,13.89,0,0,0,4.9-5.3,15.23,15.23,0,0,0,1.7-7.4,13.86,13.86,0,0,0-4-10.3c-2.9-2.9-7.3-4.4-13.1-4.4a24.4,24.4,0,0,0-2.8.1l-2,.2a30.22,30.22,0,0,1-3.3.1h-1.5l-1.7-.1c-.4,0-.6.1-.6.4S316.1,76.07,316.6,76.07Zm6.4,2.7c0-.9.2-1.5.6-1.7.6-.5,2-.7,4.3-.7a13.09,13.09,0,0,1,8,2.4,12.44,12.44,0,0,1,4.2,5.3,17.79,17.79,0,0,1,1.5,7.4c0,4.9-1.6,8.4-4.9,10.4a12.09,12.09,0,0,1-6.6,1.8,18.86,18.86,0,0,1-3-.3c-1.2-.2-2.1-.5-2.9-.7a1.72,1.72,0,0,1-1.3-1.8V78.77Z"/><path class="a" d="M376.8,75.57c0-.3-.2-.4-.6-.4a4.14,4.14,0,0,0-1,.1,12.17,12.17,0,0,1-2.1.1,36.81,36.81,0,0,1-3.9-.2c-.4,0-.7-.1-.9-.1-.4,0-.6.1-.6.4s.2.5.6.5a5.35,5.35,0,0,1,3,1.1,4.2,4.2,0,0,1,1.1,2.6l.3,4.9v13.5c0,.3-.1.4-.2.4s-.3-.2-.6-.5l-19.6-22.2a1.54,1.54,0,0,0-1.1-.6h-3.7c-.3,0-.5.1-.5.4s.2.4.6.5a4.43,4.43,0,0,1,3.4,2.4,11.92,11.92,0,0,1,1.2,5.8v14.5a6.92,6.92,0,0,1-.6,3.3,4.64,4.64,0,0,1-2.4,1.7c-.4.1-.6.3-.6.5s.2.4.6.4a2.81,2.81,0,0,0,.8-.1,8.08,8.08,0,0,1,1.6-.1h1l2.2.1c1.1.1,1.7.1,1.9.1h.6c.3,0,.4-.1.4-.4s-.2-.5-.7-.5a4.64,4.64,0,0,1-2.3-.8,3,3,0,0,1-.7-1.9l-.1-1.5V84.17c0-.6.1-1,.4-1a.37.37,0,0,1,.3.1l.2.2,18,20.6.5.6a.76.76,0,0,0,.5.2.63.63,0,0,0,.6-.5,17.25,17.25,0,0,0,.1-2.9V79.87a6.05,6.05,0,0,1,.4-2.8,2.44,2.44,0,0,1,1.7-1.1A.76.76,0,0,0,376.8,75.57Z"/><path class="a" d="M408.1,103.67a5.4,5.4,0,0,1-2.7-1,11.86,11.86,0,0,1-1.7-3.2l-.5-1.2L394,74.77c-.2-.4-.3-.6-.6-.6s-.4.2-.6.6l-11,24.3-.6,1.4a7.61,7.61,0,0,1-1.2,1.9c-.5.6-.9,1-1.2,1l-.8.2c-.2.1-.4.2-.4.5s.2.4.6.4a8.33,8.33,0,0,0,1.2-.1h3.4l2,.1h.7c.4,0,.6-.1.6-.4s-.2-.4-.7-.5a4.8,4.8,0,0,1-2-.8,2.07,2.07,0,0,1-.5-1.5,9.23,9.23,0,0,1,.9-3.2l1.4-3.1a5.11,5.11,0,0,1,1-1.7,4,4,0,0,1,2-.3h7.7a3,3,0,0,1,1.4.2c.2.1.4.6.7,1.4l1.1,2.8a15.21,15.21,0,0,1,1.3,4.5,1.43,1.43,0,0,1-1.1,1.5l-.7.1c-.4.1-.5.2-.5.4s.2.4.6.4a2.25,2.25,0,0,0,.7-.1,29.55,29.55,0,0,1,3.7-.1,36.79,36.79,0,0,1,3.9.1h.8c.4,0,.6-.1.6-.4C408.8,104,408.5,103.77,408.1,103.67Zm-12.5-12.4h-7c-.7,0-1-.2-1-.6a2.71,2.71,0,0,1,.3-.8l4.2-9.2c.1-.3.2-.4.3-.4s.4.2.6.7l.2.4,3.3,8.4.1.4a1.09,1.09,0,0,1,.1.5C396.7,91.07,396.3,91.27,395.6,91.27Z"/><path class="a" d="M413.5,104.47h5.4a9.51,9.51,0,0,0,1.4.1c.5,0,.8-.2.7-.5s-.2-.4-.7-.4a8.2,8.2,0,0,1-1.8-.3c-1.1-.3-1.8-1.3-1.9-3l-.1-1.8V78.07a1.2,1.2,0,0,1,1.5-1.5,8.87,8.87,0,0,1,6.1,2.1,6.79,6.79,0,0,1,2.4,5.3,5.8,5.8,0,0,1-1.8,4.5,8.67,8.67,0,0,1-6.5,1.6c-.2,0-.3-.1-.4-.1s-.4.1-.4.3.3.4,1.1.6a9.52,9.52,0,0,0,2.5.3,9.21,9.21,0,0,0,5.4-1.8,7.57,7.57,0,0,0,3.4-6.6,6.61,6.61,0,0,0-2.8-5.6,11.81,11.81,0,0,0-7.2-2.1,18.56,18.56,0,0,0-2.2.1,32.72,32.72,0,0,1-4,.2c-.6,0-1.3-.1-2.2-.2a4.91,4.91,0,0,0-1.1-.1c-.5,0-.8.2-.8.5s.2.4.6.4c1.4.2,2.3.6,2.7,1.4s.5,2.7.5,5.7V96a18.57,18.57,0,0,1-.6,5.8,2.82,2.82,0,0,1-2.3,1.9c-.5.1-.7.2-.7.5s.2.4.6.4a5.74,5.74,0,0,0,1.2-.1Z"/><path class="a" d="M433.3,76.07a3.73,3.73,0,0,1,2.6,1.2,7.23,7.23,0,0,1,.6,3.6v18.3a9.09,9.09,0,0,1-.5,3.6c-.3.6-1,.9-2.1,1.1-.4.1-.7.2-.7.5s.2.4.6.4a3.75,3.75,0,0,0,1-.1l2.5-.1h3.1a13.53,13.53,0,0,1,2.3.1c.3,0,.6.1.8.1.4,0,.7-.2.7-.5s-.4-.4-1.1-.5a4.3,4.3,0,0,1-2-.6,3.66,3.66,0,0,1-1.1-1.5,15,15,0,0,1-.4-4v-16c0-3,.5-4.7,1.6-5.1l1.1-.4q.6-.15.6-.6c0-.3-.2-.4-.6-.4h-.5l-1.4.1c-.8,0-1.7.1-2.7.1-1.7,0-3.1-.1-4.1-.2h-.4c-.4,0-.6.2-.6.5C432.6,75.77,432.9,76,433.3,76.07Z"/><path class="a" d="M54.7,117.17,20,123.37,0,151.07l47.9-8.5c14.4-2.5,27-3,30.9,8.4v-18.7H69.4v-6.6h9.4v-.6C78.9,118.37,75.8,113.57,54.7,117.17Z"/><path class="a" d="M109.4,117.17l-7.7,7.7c-10.9,10.9-16.2,17.1-16.2,26.2,4.2-12,17.4-10.9,33-7.9l46,7.9-20-27.7Z"/><path class="a" d="M102.5,107.17c-4.3,4.3-11.7,11-15.1,18.5h7.7l8.9-8.8c8.2-8.2,14.5-14.4,17.1-22.2a28.07,28.07,0,0,0,1.5-14.3c-.2-1.6-.9-3.8-.9-3.3-.8,8.9-3.3,14.2-16.2,27.1Z"/><path class="a" d="M78.4,52.57c4.8-4.7,16.7-15.5,16.7-24.8V17.48c0-.1-.2-.1-.2,0-.8,6.9-2.5,9.9-19.4,26.9L58.8,61.08c-8.8,8.8-16,18.3-15.1,28.8.5,5.9,2.5,9.1,3.8,10,.6.5.5.1.3-.3-5.1-11.5,7-23.5,13.1-29.5Z"/><path class="a" d="M95.1,35.17c0-.1-.2-.1-.2,0-.8,6.9-2.5,9.9-19.4,26.9L60,77.57c-5.6,5.6-10.8,11.5-10.6,21.1.1,5.8,3.1,10.7,7.5,11.8,1.8.4,1.7.2,1.3,0-6.2-3-5.8-14.2,4.3-24.3l15.9-15.9c4.8-4.7,16.7-15.5,16.7-24.8V35.17Z"/><path class="a" d="M42.7,81.77c.8-8.9,3.3-14.2,16.2-27.1l19.5-19.5c4.8-4.7,16.7-15.5,16.7-24.8V.07c0-.1-.2-.1-.2,0C94.1,7,92.4,10,75.5,27l-15,15c-8.2,8.2-14.5,14.4-17.1,22.2a28.07,28.07,0,0,0-1.5,14.3A9.19,9.19,0,0,0,42.7,81.77Z"/><path class="a" d="M105.6,86.57l-4.9,4.9c-7.6,7.5-15.3,16-15.3,23.8v10.4c0,.1.2.1.2,0,.8-7.6,4.5-12.5,15.5-23.5l4.6-4.6c8.8-8.8,16-18.3,15.1-28.8-.5-5.9-2.5-9.1-3.8-10-.6-.5-.5-.1-.3.3C121.8,70.57,109.6,82.57,105.6,86.57Z"/><path class="a" d="M85.4,107.67c0,.1.2.1.2,0,.9-7.2,5-12.7,14.4-22.2l4.5-4.5c5.6-5.6,10.7-11.5,10.5-21.1-.1-5.8-3.1-10.7-7.5-11.8-1.8-.4-1.7-.2-1.3,0,6.2,2.9,5.8,14.2-4.3,24.3l-5.6,5.5c-3.6,3.6-11,11.6-11,19.1v10.7Z"/><path class="a" d="M229.9,150.07a8,8,0,0,1-3.6-1.3,14.43,14.43,0,0,1-2.2-4.3l-.6-1.5-12.2-31.1c-.2-.5-.5-.8-.8-.8s-.6.3-.8.8l-14.4,32.3-.8,1.9a9.63,9.63,0,0,1-1.6,2.5c-.6.8-1.1,1.3-1.5,1.4l-1,.3a.63.63,0,0,0-.5.6c0,.3.3.5.8.5.1,0,.6-.1,1.6-.2h1.3a29.13,29.13,0,0,1,3.1.1l2.7.2h1c.5,0,.8-.2.8-.5s-.3-.6-.9-.7a6,6,0,0,1-2.6-1,2.56,2.56,0,0,1-.7-1.9,11,11,0,0,1,1.3-4.2l1.9-4.2a6.5,6.5,0,0,1,1.4-2.3,6.44,6.44,0,0,1,2.6-.3h10.2a5.57,5.57,0,0,1,1.9.2,6.91,6.91,0,0,1,.9,1.8l1.4,3.7c1.1,3,1.7,5,1.7,6a1.71,1.71,0,0,1-1.4,1.9l-.9.2c-.5.1-.7.3-.7.6s.2.6.7.6a3.45,3.45,0,0,0,.9-.1,41.44,41.44,0,0,1,4.9-.2c2.5,0,4.2,0,5.2.1.5,0,.9.1,1.1.1.5,0,.8-.2.8-.5S230.5,150.17,229.9,150.07Zm-16.5-16.5h-9.3c-.9,0-1.3-.2-1.3-.7a2.18,2.18,0,0,1,.4-1l5.5-12.2c.2-.4.3-.6.5-.5s.5.3.7.9l.2.6,4.4,11.2.1.5a2,2,0,0,1,.1.7C214.8,133.37,214.3,133.57,213.4,133.57Z"/><path class="a" d="M243.2,121.57a24.4,24.4,0,0,0-2.8.1l-2,.2a30.22,30.22,0,0,1-3.3.1h-1.5l-1.7-.1c-.4,0-.6.1-.6.4s.2.4.7.4a3.12,3.12,0,0,1,2.4,1.2,5.42,5.42,0,0,1,.7,3.2v19.2a7,7,0,0,1-.4,3.1,2.69,2.69,0,0,1-1.9,1.1c-.4.1-.6.2-.6.5s.2.5.7.5c.3,0,.7-.1,1.2-.1a23.63,23.63,0,0,1,4-.2c1.4,0,3.1.1,5,.2a17.23,17.23,0,0,0,2,.1,15.42,15.42,0,0,0,8.6-2.5,13.89,13.89,0,0,0,4.9-5.3,15.23,15.23,0,0,0,1.7-7.4,13.86,13.86,0,0,0-4-10.3C253.4,123,249,121.57,243.2,121.57Zm8.9,26.7a12.09,12.09,0,0,1-6.6,1.8,18.86,18.86,0,0,1-3-.3c-1.2-.2-2.1-.5-2.9-.7a1.72,1.72,0,0,1-1.3-1.8v-21.9c0-.9.2-1.5.6-1.7.6-.5,2-.7,4.3-.7a13.09,13.09,0,0,1,8,2.4,12.44,12.44,0,0,1,4.2,5.3,17.79,17.79,0,0,1,1.5,7.4C257,142.77,255.4,146.27,252.1,148.27Z"/><path class="a" d="M289.9,121.77h-4.2c-.2,0-.8,0-1.9-.1h-.6c-.5,0-.7.1-.7.4s.4.4,1.2.6a2.3,2.3,0,0,1,1.3.5,1.33,1.33,0,0,1,.3,1c0,1.4-1,4.4-3,9.2l-4.7,11.1-.3.8c-.4.8-.6,1.2-.8,1.2s-.4-.2-.6-.7L267.7,127a9.08,9.08,0,0,1-.9-3,1.55,1.55,0,0,1,.2-.8,6.14,6.14,0,0,1,1.1-.5.51.51,0,0,0,.4-.5c0-.3-.2-.4-.6-.4h-.6a8.17,8.17,0,0,1-1.4.1h-6.2c-.4,0-.6.1-.6.4s.1.3.2.3a4,4,0,0,0,1.3.3,2.59,2.59,0,0,1,1.7.9,11.68,11.68,0,0,1,1.4,2.4l10.8,25c.3.7.6,1.1.9,1.1s.6-.3.9-1l10.6-24.8.6-1.4a4.1,4.1,0,0,1,2.3-2.5.51.51,0,0,0,.4-.5Q290.35,121.77,289.9,121.77Z"/><path class="a" d="M313.4,145.27c-.2,0-.3.1-.5.4-1.6,2.5-5.2,3.8-10.8,3.8-1.8,0-2.9-.1-3.3-.4s-.6-1.1-.6-2.3v-8.6a1,1,0,0,1,.4-.9,3.71,3.71,0,0,1,1.4-.2h4.7a5.39,5.39,0,0,1,2.6.5,2.87,2.87,0,0,1,1,1.9l.1.6c.1.3.2.5.5.5s.4-.2.4-.5v-.6a22.61,22.61,0,0,1-.1-2.6c0-1.1.1-2.4.2-3.8v-.5c0-.4-.1-.6-.4-.6a.47.47,0,0,0-.5.5,6,6,0,0,1-.6,1.8,2.11,2.11,0,0,1-1.5.6,16.22,16.22,0,0,1-3.5.3h-3.3a2,2,0,0,1-1.1-.2,2.23,2.23,0,0,1-.2-1.2v-8.6c0-.8.1-1.2.4-1.5a3.17,3.17,0,0,1,1.7-.3h3.3a22,22,0,0,1,4.5.3,2,2,0,0,1,1.6,1.3,2.77,2.77,0,0,1,.3,1.3v.6c0,.4.1.7.4.6a.55.55,0,0,0,.5-.3,8.81,8.81,0,0,0,.2-1.5l.1-1.3a10.84,10.84,0,0,1,.2-1.7,4.33,4.33,0,0,1,.1-.5c0-.4-.2-.6-.7-.6a3.45,3.45,0,0,0-.9.1c-.2,0-.7.1-1.5.1l-3,.1c-1.3.1-2.9.1-4.6.1-2.9,0-5.3-.1-7.3-.3a8.17,8.17,0,0,0-1.4-.1c-.6,0-1,.2-1,.6s.2.4.6.4a2.81,2.81,0,0,1,2.6,1.1,9.08,9.08,0,0,1,.7,4.1v19.4q0,2.55-1.5,3l-.8.2c-.4.1-.6.3-.6.5s.2.5.7.5a5.39,5.39,0,0,0,1.1-.1,31.62,31.62,0,0,1,5.3-.3,60.48,60.48,0,0,1,6.7.4,10.9,10.9,0,0,0,1.7.1,5.82,5.82,0,0,0,4.7-2.3,6.16,6.16,0,0,0,1.6-3.3C313.8,145.47,313.7,145.27,313.4,145.27Z"/><path class="a" d="M344.6,121.67a4.14,4.14,0,0,0-1,.1,12.17,12.17,0,0,1-2.1.1,36.81,36.81,0,0,1-3.9-.2c-.4,0-.7-.1-.9-.1-.4,0-.6.1-.6.4s.2.5.6.5a5.35,5.35,0,0,1,3,1.1,4.2,4.2,0,0,1,1.1,2.6l.3,4.9v13.5c0,.3-.1.4-.2.4s-.3-.2-.6-.5l-19.6-22.2a1.54,1.54,0,0,0-1.1-.6h-3.7c-.3,0-.5.1-.5.4s.2.4.6.5a4.43,4.43,0,0,1,3.4,2.4,11.92,11.92,0,0,1,1.2,5.8v14.5a6.92,6.92,0,0,1-.6,3.3,4.64,4.64,0,0,1-2.4,1.7c-.4.1-.6.3-.6.5s.2.4.6.4a2.81,2.81,0,0,0,.8-.1,8.08,8.08,0,0,1,1.6-.1h1l2.2.1c1.1.1,1.7.1,1.9.1h.6c.3,0,.4-.1.4-.4s-.2-.5-.7-.5a4.64,4.64,0,0,1-2.3-.8,3,3,0,0,1-.7-1.9l-.1-1.5v-15.4c0-.6.1-1,.4-1a.37.37,0,0,1,.3.1l.2.2,18,20.6.5.6a.76.76,0,0,0,.5.2.63.63,0,0,0,.6-.5,17.25,17.25,0,0,0,.1-2.9v-21.6a6.05,6.05,0,0,1,.4-2.8,2.44,2.44,0,0,1,1.7-1.1c.3-.1.4-.2.4-.4A1,1,0,0,0,344.6,121.67Z"/><path class="a" d="M373.7,123.67a4,4,0,0,0-.2-1.5c-.2-.2-.6-.3-1.4-.3h-23a1.33,1.33,0,0,0-1,.3,3.09,3.09,0,0,0-.2,1.3,12.89,12.89,0,0,1-.3,2.5,8,8,0,0,0-.3,1.6c0,.4.1.6.4.6s.4-.3.6-.8a5.24,5.24,0,0,1,1.2-2.6,3.56,3.56,0,0,1,2.5-.7h5.6a.92.92,0,0,1,1.2,1.2v21.8a4,4,0,0,1-.6,2.5,3,3,0,0,1-2.2.9c-.5.1-.7.2-.7.4s.2.5.6.5a11.31,11.31,0,0,0,1.4-.1c.4,0,.9-.1,1.5-.1h3.3a7.71,7.71,0,0,1,1.9.1,5.13,5.13,0,0,0,1,.1c.4,0,.6-.2.6-.5s-.2-.4-.7-.5a3,3,0,0,1-2.8-3v-21.7a3.09,3.09,0,0,1,.2-1.3,1.74,1.74,0,0,1,1.2-.3h6a4.27,4.27,0,0,1,2.4.5,3.38,3.38,0,0,1,.9,2c.1.5.3.7.5.7s.5-.3.4-.7c0-.2-.1-.6-.1-1A9.24,9.24,0,0,0,373.7,123.67Z"/><path class="a" d="M386,150.27a4.3,4.3,0,0,1-2-.6,3.66,3.66,0,0,1-1.1-1.5,15,15,0,0,1-.4-4v-16c0-3,.5-4.7,1.6-5.1l1.1-.4q.6-.15.6-.6c0-.3-.2-.4-.6-.4h-.5l-1.4.1c-.8,0-1.7.1-2.7.1-1.7,0-3.1-.1-4.1-.2h-.4c-.4,0-.6.2-.6.5s.2.4.7.5a3.73,3.73,0,0,1,2.6,1.2,7.23,7.23,0,0,1,.6,3.6v18.3a9.09,9.09,0,0,1-.5,3.6c-.3.6-1,.9-2.1,1.1-.4.1-.7.2-.7.5s.2.4.6.4a3.75,3.75,0,0,0,1-.1l2.5-.1h3.1a13.53,13.53,0,0,1,2.3.1c.3,0,.6.1.8.1.4,0,.7-.2.7-.5S386.7,150.37,386,150.27Z"/><path class="a" d="M400.4,134.07a39.61,39.61,0,0,1-5.1-1.9,5.61,5.61,0,0,1-1.9-1.6,4.8,4.8,0,0,1-1-3.1,4.33,4.33,0,0,1,1.5-3.4,5.56,5.56,0,0,1,3.8-1.4,9.31,9.31,0,0,1,5.2,1.5A7.07,7.07,0,0,1,406,128c.2.7.5,1,.7,1s.5-.2.5-.7a4.4,4.4,0,0,0-.1-.9l-.3-2.2a19.41,19.41,0,0,1-.3-2.2c0-.7-.2-1.1-.5-1-.1,0-.2,0-.2.1l-.3.3c-.2.1-.3.2-.5.2a.6.6,0,0,1-.4-.1l-1.5-.6a10.88,10.88,0,0,0-3.9-.7,9.58,9.58,0,0,0-6.6,2.2A7,7,0,0,0,390,129a6.7,6.7,0,0,0,2,5,16.46,16.46,0,0,0,6.7,3.5c3.1,1,4.9,1.8,5.5,2.4a5.29,5.29,0,0,1-.1,8.2,7.24,7.24,0,0,1-5,1.7,9.21,9.21,0,0,1-5.4-1.8,8.55,8.55,0,0,1-3.2-4.4c-.2-.7-.4-1-.7-1s-.4.2-.4.6a11.15,11.15,0,0,0,.6,2.7c.3,1.2.5,1.8.5,1.9a12.68,12.68,0,0,0,.4,1.5,1.2,1.2,0,0,0,.5.5,9.24,9.24,0,0,0,2.9,1.1,16.34,16.34,0,0,0,3.6.5,10.71,10.71,0,0,0,7.4-2.5,8.43,8.43,0,0,0,2.9-6.5C408.3,138.57,405.6,135.77,400.4,134.07Z"/><path class="a" d="M425.5,124.37a1.74,1.74,0,0,1,1.2-.3h6a4.27,4.27,0,0,1,2.4.5,3.38,3.38,0,0,1,.9,2c.1.5.3.7.5.7s.5-.3.4-.7c0-.2-.1-.6-.1-1a8.67,8.67,0,0,1-.1-1.8,4,4,0,0,0-.2-1.5c-.2-.2-.6-.3-1.4-.3h-23a1.33,1.33,0,0,0-1,.3,3.09,3.09,0,0,0-.2,1.3,12.89,12.89,0,0,1-.3,2.5,8,8,0,0,0-.3,1.6c0,.4.1.6.4.6s.4-.3.6-.8a5.24,5.24,0,0,1,1.2-2.6,3.56,3.56,0,0,1,2.5-.7h5.6a.92.92,0,0,1,1.2,1.2v21.8a4,4,0,0,1-.6,2.5,3,3,0,0,1-2.2.9c-.5.1-.7.2-.7.4s.2.5.6.5a11.31,11.31,0,0,0,1.4-.1c.4,0,.9-.1,1.5-.1h3.3a7.71,7.71,0,0,1,1.9.1,5.13,5.13,0,0,0,1,.1c.4,0,.6-.2.6-.5s-.2-.4-.7-.5a3,3,0,0,1-2.8-3v-21.7A9.29,9.29,0,0,1,425.5,124.37Z"/><path class="a" d="M464.4,150.27a5.4,5.4,0,0,1-2.7-1,11.86,11.86,0,0,1-1.7-3.2l-.5-1.2-9.2-23.5c-.2-.4-.3-.6-.6-.6s-.4.2-.6.6l-11,24.3-.6,1.4a7.61,7.61,0,0,1-1.2,1.9c-.5.6-.9,1-1.2,1l-.8.2c-.2.1-.4.2-.4.5s.2.4.6.4a8.33,8.33,0,0,0,1.2-.1h3.4l2,.1h.7c.4,0,.6-.1.6-.4s-.2-.4-.7-.5a4.8,4.8,0,0,1-2-.8,2.07,2.07,0,0,1-.5-1.5,9.23,9.23,0,0,1,.9-3.2l1.4-3.1a5.11,5.11,0,0,1,1-1.7,4,4,0,0,1,2-.3h7.7a3,3,0,0,1,1.4.2c.2.1.4.6.7,1.4l1.1,2.8a15.21,15.21,0,0,1,1.3,4.5,1.43,1.43,0,0,1-1.1,1.5l-.7.1c-.4.1-.5.2-.5.4s.2.4.6.4a2.25,2.25,0,0,0,.7-.1,29.55,29.55,0,0,1,3.7-.1,36.79,36.79,0,0,1,3.9.1h.8c.4,0,.6-.1.6-.4C465.1,150.57,464.9,150.37,464.4,150.27Zm-12.5-12.4h-7c-.7,0-1-.2-1-.6a2.71,2.71,0,0,1,.3-.8l4.2-9.2c.1-.3.2-.4.3-.4s.4.2.6.7l.2.4,3.3,8.4.1.4a1.09,1.09,0,0,1,.1.5C453,137.67,452.6,137.87,451.9,137.87Z"/><path class="a" d="M506.9,143.37c-.2,0-.4.2-.6.5-2.1,3.3-6.9,5-14.3,5-2.3,0-3.8-.2-4.4-.6s-.9-1.4-.9-3V134a1.17,1.17,0,0,1,.5-1.1,3.61,3.61,0,0,1,1.8-.3h6.2a5.74,5.74,0,0,1,3.4.7,4,4,0,0,1,1.4,2.6l.2.8a.66.66,0,0,0,.7.6c.4,0,.5-.2.5-.7a2.81,2.81,0,0,0-.1-.8c-.1-1.1-.2-2.3-.2-3.4a46,46,0,0,1,.3-5v-.6c0-.5-.2-.7-.5-.8s-.6.2-.7.7a5.92,5.92,0,0,1-.8,2.4,4.26,4.26,0,0,1-2,.8,28.25,28.25,0,0,1-4.7.3h-4.4a2.37,2.37,0,0,1-1.5-.3c-.2-.2-.2-.7-.2-1.6v-11.4c0-1,.2-1.7.5-1.9a3.85,3.85,0,0,1,2.3-.4h4.4a27.43,27.43,0,0,1,6,.4,3,3,0,0,1,2.2,1.7,4.67,4.67,0,0,1,.3,1.7v.7c0,.6.2.9.5.8a.68.68,0,0,0,.6-.4,12.29,12.29,0,0,0,.3-2l.1-1.7c.1-1.2.2-2,.2-2.3a1.76,1.76,0,0,0,.1-.6c0-.5-.3-.8-.9-.8a5.39,5.39,0,0,0-1.1.1c-.2,0-.9.1-2,.1l-4,.2c-1.8.1-3.8.1-6.1.1a87.73,87.73,0,0,1-9.7-.5,14.16,14.16,0,0,0-1.9-.1c-.8,0-1.3.3-1.3.8s.3.5.8.5c1.7,0,2.9.5,3.5,1.4s.9,2.8.9,5.5v25.7c0,2.3-.7,3.6-2,4l-1,.3c-.5.1-.7.4-.7.7s.3.6.9.6c.3,0,.8-.1,1.5-.2a55.87,55.87,0,0,1,7-.3c2.4,0,5.3.2,8.9.5a19.43,19.43,0,0,0,2.2.1,8,8,0,0,0,6.3-3c1.4-1.7,2.1-3.1,2.1-4.4C507.4,143.67,507.2,143.37,506.9,143.37Z"/><path class="a" d="M539.8,135.67a16,16,0,0,0-1.7.1h-6.3c-.5,0-.7.1-.7.4s.3.5.9.5a5,5,0,0,1,2.3.6,2.16,2.16,0,0,1,.6,1.8v4.8a4.24,4.24,0,0,1-.7,2.9,9.42,9.42,0,0,1-7.7,3.5,10.93,10.93,0,0,1-8.7-4.2,15.94,15.94,0,0,1-3.5-10.4,14.12,14.12,0,0,1,3.1-9.5,10,10,0,0,1,7.9-3.7,13.73,13.73,0,0,1,7.3,2.1,13.43,13.43,0,0,1,5.1,5.5.51.51,0,0,0,.5.4c.3,0,.4-.2.4-.5a1.27,1.27,0,0,0-.1-.6c-.1-.5-.2-1.1-.3-1.6l-.2-2a8.8,8.8,0,0,1-.1-1.4c0-.7-.1-1-.4-1a.37.37,0,0,0-.3.1l-.5.4c-.2.1-.3.2-.4.2s-.2-.1-.4-.2a16.14,16.14,0,0,0-4.5-1.8,20.91,20.91,0,0,0-5.3-.7,14.63,14.63,0,0,0-10.9,4.5,15.39,15.39,0,0,0-4.3,11.2,14,14,0,0,0,14.6,14.6,17.22,17.22,0,0,0,8.9-2.4l1.4-.8a6.15,6.15,0,0,1,1.8-.8.85.85,0,0,0,.6-.2l.1-.3V139c0-1.3.5-2.1,1.6-2.3.4-.1.6-.3.6-.5C540.3,135.77,540.2,135.67,539.8,135.67Z"/><path class="a" d="M567.3,121.87a5.39,5.39,0,0,0-1.1.1c-.4,0-1.3.1-2.8.1a19.58,19.58,0,0,1-3-.1,5.39,5.39,0,0,0-1.1-.1c-.3,0-.5.1-.5.4s.2.4.5.5q2.7.6,2.7,2.1a8.73,8.73,0,0,1-1.5,3.2l-1,1.7-3.1,4.7-.2.3a.42.42,0,0,1-.8,0l-.3-.4-4.5-7-.6-1a5.66,5.66,0,0,1-.9-2c0-.7.5-1.2,1.4-1.5.3-.1.5-.2.5-.5s-.2-.4-.6-.4a6.61,6.61,0,0,0-1.1.1,35.81,35.81,0,0,1-4,.1,26.41,26.41,0,0,1-2.9-.2c-.4,0-.7-.1-1.1-.1s-.7.2-.7.5.2.4.6.4a4.56,4.56,0,0,1,2.2.6,4.4,4.4,0,0,1,1.7,1.6l.7,1.2,5.9,9.5a7.28,7.28,0,0,1,.9,1.8,8.76,8.76,0,0,1,.2,2v7.3a6.44,6.44,0,0,1-.5,3c-.3.5-1.1.8-2.3,1-.5.1-.7.2-.7.5a.46.46,0,0,0,.5.4,3.22,3.22,0,0,0,.8-.1c.4,0,1.1-.1,2.1-.1h1.7l1.7.1c.7,0,1.2.1,1.6.1a6.61,6.61,0,0,0,1.1.1c.5,0,.7-.2.7-.5s-.2-.4-.7-.4c-1.3-.1-2.1-.4-2.3-.7a6.25,6.25,0,0,1-.4-3v-8.9a4.26,4.26,0,0,1,.8-2.1l.5-.7,5.2-7.7,1.4-2.1a5.85,5.85,0,0,1,3.2-2.4c.4-.1.5-.3.5-.5C567.9,122,567.7,121.77,567.3,121.87Z"/><path class="a" d="M598,150.37a3.46,3.46,0,0,1-2.5-1.1,6,6,0,0,1-.6-3.2v-20.6a4.06,4.06,0,0,1,.4-1.9c.3-.5.7-.9,1.1-.9l.9-.2c.3-.1.5-.2.5-.4s-.2-.4-.5-.4a3.22,3.22,0,0,0-.8.1,25.54,25.54,0,0,1-3.2.1c-1.1,0-2-.1-3-.1a9.51,9.51,0,0,0-1.4-.1c-.3,0-.5.1-.5.4s.2.4.6.5a2.87,2.87,0,0,1,2.1,1.3,6,6,0,0,1,.6,3.1v7.3c0,.4-.1.7-.3.8a2.87,2.87,0,0,1-1.2.2H577.6a4.23,4.23,0,0,1-1.6-.2c-.2-.2-.2-.6-.2-1.5V126a4.35,4.35,0,0,1,.5-2.3,3.38,3.38,0,0,1,1.9-1c.4-.1.6-.3.6-.5s-.2-.4-.6-.4a3.45,3.45,0,0,0-.9.1,24.59,24.59,0,0,1-2.8.2c-1.5,0-2.8-.1-3.9-.2a7.18,7.18,0,0,0-1.3-.1c-.4,0-.6.1-.6.4s.2.4.6.5a4.49,4.49,0,0,1,2.5,1.1,4.15,4.15,0,0,1,.7,2.7v18.3a19.88,19.88,0,0,1-.3,4.2,1.71,1.71,0,0,1-1.3,1.4l-1.1.3c-.4.1-.6.2-.6.5s.2.4.5.4a8.47,8.47,0,0,0,1.3-.1c.5,0,1-.1,1.3-.1h3.2a15.69,15.69,0,0,1,2.6.1,5.13,5.13,0,0,0,1,.1c.4,0,.6-.1.6-.4s-.3-.5-.8-.5a3.34,3.34,0,0,1-2.6-1.1,4.88,4.88,0,0,1-.7-3.1v-7.8q0-1.05.3-1.2c.2-.2.7-.2,1.5-.2H590a2.75,2.75,0,0,1,1.3.2,2.23,2.23,0,0,1,.2,1.2v8.6c0,2.2-.7,3.4-2.2,3.7-.5.1-.7.2-.7.5s.2.4.5.4a13.59,13.59,0,0,0,1.5-.1c.4,0,.8-.1,1-.1h3.2a9.86,9.86,0,0,1,2.1.1,4.91,4.91,0,0,0,1.1.1c.4,0,.6-.2.6-.5C598.6,150.57,598.4,150.47,598,150.37Z"/><path class="a" d="M629.8,150.27a5.4,5.4,0,0,1-2.7-1,11.86,11.86,0,0,1-1.7-3.2l-.5-1.2-9.2-23.5c-.2-.4-.3-.6-.6-.6s-.4.2-.6.6l-11,24.3-.6,1.4a7.61,7.61,0,0,1-1.2,1.9c-.5.6-.9,1-1.2,1l-.8.2c-.2.1-.4.2-.4.5s.2.4.6.4a8.33,8.33,0,0,0,1.2-.1h3.4l2,.1h.7c.4,0,.6-.1.6-.4s-.2-.4-.7-.5a4.8,4.8,0,0,1-2-.8,2.07,2.07,0,0,1-.5-1.5,9.23,9.23,0,0,1,.9-3.2l1.4-3.1a5.11,5.11,0,0,1,1-1.7,4,4,0,0,1,2-.3h7.7a3,3,0,0,1,1.4.2c.2.1.4.6.7,1.4l1.1,2.8a15.21,15.21,0,0,1,1.3,4.5A1.43,1.43,0,0,1,621,150l-.7.1c-.4.1-.5.2-.5.4s.2.4.6.4a2.25,2.25,0,0,0,.7-.1,29.55,29.55,0,0,1,3.7-.1,36.79,36.79,0,0,1,3.9.1h.8c.4,0,.6-.1.6-.4C630.4,150.57,630.2,150.37,629.8,150.27Zm-12.5-12.4h-7c-.7,0-1-.2-1-.6a2.71,2.71,0,0,1,.3-.8l4.2-9.2c.1-.3.2-.4.3-.4s.4.2.6.7l.2.4,3.3,8.4.1.4a1.09,1.09,0,0,1,.1.5C618.4,137.67,618,137.87,617.3,137.87Z"/><path class="a" d="M614.4,119.47a4.31,4.31,0,0,0,1.5-.8l2.8-3.1c.4-.5.6-.8.6-1,0-.6-.3-.8-.9-.8a8.23,8.23,0,0,0-2,.1c-.2,0-.4.2-.5.5l-.5,1.1c-.1.3-.4.9-.8,1.8l-.4,1a1.34,1.34,0,0,0-.2.8A.37.37,0,0,0,614.4,119.47Z"/><path class="a" d="M651.7,146.47c-.2,0-.7.4-1.4,1.1a5.29,5.29,0,0,1-2.3,1.3,16.87,16.87,0,0,1-3.8.4h-6.8c-.8,0-1.2-.3-1.2-.8a2.54,2.54,0,0,1,.2-.7l.3-.4,13.9-24a1.69,1.69,0,0,0,.2-.5c0-.5-.4-.8-1.3-.8H633.6c-.6,0-1,.1-1.1.4a4.77,4.77,0,0,0-.3,2.2,6.26,6.26,0,0,1-.2,1.6,6.36,6.36,0,0,0-.3,1.5c0,.3.1.5.4.5s.4-.2.5-.6a7.16,7.16,0,0,1,1.4-2.2,5.69,5.69,0,0,1,1.6-1.3,7.65,7.65,0,0,1,2.5-.3h7.2c.6,0,1,.1,1,.4a.76.76,0,0,1-.2.4l-.2.3-14.5,24.9a1.08,1.08,0,0,0-.2.7c0,.4.4.6,1.1.6h16.2a3.45,3.45,0,0,0,1.2-.1,1.44,1.44,0,0,0,.6-.7l.8-1.4.7-1.3a1.42,1.42,0,0,0,.2-.6Q652.15,146.32,651.7,146.47Z"/><path class="a" d="M163.9,130a4.07,4.07,0,0,0-3.2,1.5,4.2,4.2,0,0,0,3.2,6.9,4.1,4.1,0,0,0,2.9-7A3.3,3.3,0,0,0,163.9,130Zm2.6,6.7a3.62,3.62,0,1,1,1.1-2.6A3.27,3.27,0,0,1,166.5,136.67Z"/><path class="a" d="M166.4,136.27h-.1c-.2,0-.5-.2-.8-.7l-.1-.2-.9-1.3a1.41,1.41,0,0,0,.8-1.2c0-.8-.6-1.2-1.7-1.2h-1.5c-.1,0-.2,0-.2.1s.1.1.2.1h.2c.2,0,.3.2.3.5v2.9c0,.4,0,.6-.1.7s-.2.2-.3.2a.1.1,0,0,0-.1.1c0,.1.1.1.2.1h1.6c.1,0,.2,0,.2-.1s-.1-.1-.2-.1a.59.59,0,0,1-.5-.2.75.75,0,0,1-.1-.5v-1.3h.6c.1,0,.2,0,.2.1v.1l.9,1.3a1.27,1.27,0,0,0,1.1.7c.4,0,.5-.1.5-.2C166.5,136.27,166.5,136.27,166.4,136.27Zm-2.7-2.3h-.6v-1.7a.27.27,0,0,1,.3-.3,1,1,0,0,1,1.1,1.1C164.7,133.67,164.4,134,163.7,134Z"/><path class="a" d="M460.9,117.77a4.07,4.07,0,0,0-3.2,1.5,4.2,4.2,0,0,0,3.2,6.9,4.1,4.1,0,0,0,2.9-7A3.42,3.42,0,0,0,460.9,117.77Zm2.6,6.8a3.62,3.62,0,1,1,1.1-2.6A3.63,3.63,0,0,1,463.5,124.57Z"/><path class="a" d="M463.4,124.07h-.1c-.2,0-.5-.2-.8-.7l-.1-.2-.9-1.4a1.41,1.41,0,0,0,.8-1.2c0-.8-.6-1.2-1.7-1.2h-1.5c-.1,0-.2,0-.2.1s0,.1.2.1h.2c.2,0,.3.2.3.5V123c0,.4,0,.6-.1.7s-.2.2-.3.2a.1.1,0,0,0-.1.1c0,.1.1.1.2.1h1.6c.1,0,.2,0,.2-.1s-.1-.1-.2-.1a.59.59,0,0,1-.5-.2.75.75,0,0,1-.1-.5v-1.1h.6c.1,0,.2,0,.2.1v.1l.9,1.3a1.27,1.27,0,0,0,1.1.7c.4,0,.5-.1.5-.2A.14.14,0,0,1,463.4,124.07Zm-2.7-2.3h-.6v-1.7a.27.27,0,0,1,.3-.3,1,1,0,0,1,1.1,1.1C461.6,121.47,461.3,121.77,460.7,121.77Z"/></svg>