<svg xmlns="http://www.w3.org/2000/svg" viewBox="0 0 714.9 155.98"><defs><style>.a{fill:#fff;}</style></defs><title>Asset 1</title><path class="a" d="M56.2,120.48l-35.7,6.4L0,155.38l49.3-8.7c14.8-2.5,27.7-3.1,31.8,8.7v-19.2H71.4v-6.8h9.7v-.6C81.1,121.77,77.9,116.77,56.2,120.48Z"/><path class="a" d="M112.4,120.48l-7.9,7.9c-11.2,11.2-16.7,17.6-16.7,26.9,4.3-12.3,17.9-11.2,33.9-8.1l47.3,8.2-20.6-28.5Z"/><path class="a" d="M105.4,110.27c-4.4,4.4-12,11.3-15.6,19h7.9l9.1-9.1c8.4-8.4,14.9-14.8,17.6-22.9a29.72,29.72,0,0,0,1.5-14.7c-.2-1.6-.9-3.9-.9-3.4-.8,9.1-3.4,14.6-16.6,27.9Z"/><path class="a" d="M80.6,54.07c4.9-4.9,17.2-15.9,17.2-25.4V18.07c0-.1-.2-.1-.2,0-.8,7.1-2.5,10.2-20,27.6L60.4,62.87c-9.1,9.1-16.5,18.8-15.5,29.6.5,6.1,2.6,9.4,3.9,10.3.7.5.5.1.3-.3-5.2-11.9,7.2-24.1,13.4-30.4Z"/><path class="a" d="M97.7,36.18c0-.1-.2-.1-.2,0-.8,7.1-2.5,10.2-20,27.6l-15.9,16c-5.8,5.8-11.1,11.9-10.9,21.7.2,6,3.2,11,7.7,12.2,1.9.4,1.8.2,1.3,0-6.4-3-6-14.6,4.4-25l16.4-16.4c4.9-4.9,17.2-15.9,17.2-25.4Z"/><path class="a" d="M43.9,84.07c.8-9.1,3.3-14.6,16.6-27.9l20-20.1c4.9-4.9,17.2-15.9,17.2-25.4V.07c0-.1-.2-.1-.2,0-.8,7.1-2.5,10.2-20,27.6L62.1,43.07c-8.4,8.4-14.9,14.8-17.6,22.9A29.72,29.72,0,0,0,43,80.68C43.2,82.27,43.9,84.57,43.9,84.07Z"/><path class="a" d="M87.8,146.57c0,.1.2.1.2,0a22.57,22.57,0,0,1,4.2-10.5H87.8v10.5Z"/><path class="a" d="M108.6,89l-5.1,5.1c-7.8,7.8-15.7,16.4-15.7,24.5v10.7c0,.1.2.1.2,0,.8-7.8,4.6-12.8,15.9-24.1l4.7-4.7c9.1-9.1,16.5-18.8,15.5-29.6-.5-6.1-2.6-9.4-3.9-10.3-.7-.5-.5-.1-.3.3C125.2,72.57,112.7,84.87,108.6,89Z"/><path class="a" d="M87.8,110.68c0,.1.2.1.2,0,.9-7.4,5.1-13.1,14.8-22.8l4.6-4.6c5.8-5.8,11-11.8,10.8-21.6-.2-6-3.2-11-7.7-12.2-1.9-.4-1.8-.2-1.3,0,6.4,3,6,14.6-4.4,25l-5.7,5.7c-3.7,3.7-11.3,12-11.3,19.6Z"/><path class="a" d="M198.2,68.18a6,6,0,0,1,3.4,1.5,6.06,6.06,0,0,1,1,3.7v25a23.92,23.92,0,0,1-.5,5.7,2.39,2.39,0,0,1-1.7,1.9l-1.5.3c-.5.1-.8.3-.8.7s.2.5.7.5a17.36,17.36,0,0,0,1.8-.1,12.14,12.14,0,0,1,1.8-.1l1.9-.1h2.4a27.55,27.55,0,0,1,3.5.1,9.51,9.51,0,0,0,1.4.1c.6,0,.9-.2.8-.6s-.4-.7-1.1-.7a5.49,5.49,0,0,1-3.6-1.5,7.15,7.15,0,0,1-1-4.2V89.77c0-.9.1-1.5.4-1.7a4.54,4.54,0,0,1,2.1-.3h17.1a4.11,4.11,0,0,1,1.7.2c.2.2.3.7.3,1.6v11.8c0,3-1,4.6-3,5-.6.1-1,.3-1,.7s.2.6.7.6c.1,0,.8,0,2-.1a7.61,7.61,0,0,1,1.4-.1l2.2-.1h2.2a19.53,19.53,0,0,1,2.9.1,8.64,8.64,0,0,0,1.5.1c.6,0,.9-.2.8-.7q0-.45-.9-.6c-1.6-.2-2.8-.7-3.3-1.5s-.9-2.2-.9-4.3V72.38a5.54,5.54,0,0,1,.6-2.6,2.34,2.34,0,0,1,1.5-1.3l1.2-.3c.5-.1.7-.3.7-.6s-.2-.6-.7-.6a5.39,5.39,0,0,0-1.1.1,38.75,38.75,0,0,1-4.4.2c-1.4,0-2.8-.1-4.1-.2a17.23,17.23,0,0,0-2-.1c-.5,0-.7.2-.7.5s.3.6.8.7a4.12,4.12,0,0,1,2.8,1.7,8.8,8.8,0,0,1,.8,4.3v9.9a1.61,1.61,0,0,1-.3,1.1c-.2.2-.8.2-1.6.2H209.3a4,4,0,0,1-2.1-.3,3.77,3.77,0,0,1-.3-2V72.77a5.07,5.07,0,0,1,.7-3.1,4.23,4.23,0,0,1,2.6-1.4c.5-.1.8-.3.8-.7s-.3-.6-.8-.6a5.74,5.74,0,0,0-1.2.1,24.21,24.21,0,0,1-3.9.2,41.06,41.06,0,0,1-5.3-.3c-.8-.1-1.4-.2-1.7-.2-.5,0-.8.2-.8.6S197.6,68.07,198.2,68.18Z"/><path class="a" d="M242.7,78.68l1,.2c1.6.3,2.3,1.5,2.3,3.7v17.6a17.15,17.15,0,0,1-.5,4.9,3.16,3.16,0,0,1-2.2,1.6c-.4.1-.5.2-.5.4s.2.4.5.4a6.82,6.82,0,0,0,1.2-.1,12.14,12.14,0,0,1,1.8-.1h3.2a19.41,19.41,0,0,1,2.7.1,7.78,7.78,0,0,0,1.3.1c.5,0,.7-.1.7-.4s-.3-.4-.8-.5a5.53,5.53,0,0,1-2.9-.9,3.15,3.15,0,0,1-.9-1.2,12.94,12.94,0,0,1-.2-2.5v-7.6c0-.4.1-.6.3-.7l.5-.1h2.9a1.85,1.85,0,0,1,1.7.9l.3.5,5.3,8.1a13.87,13.87,0,0,0,3.1,3.5,6.06,6.06,0,0,0,3.5,1.1,6.65,6.65,0,0,0,2.1-.3c.6-.2.9-.4,1-.6s-.1-.3-.4-.3H269q-2.25-.15-5.1-4.2l-.7-1-5.9-8.7c3.5-1.8,5.3-4.2,5.3-7.5a6.32,6.32,0,0,0-2.5-5.5,12.81,12.81,0,0,0-7.4-1.9c-.9,0-1.9,0-3,.1-1.6.1-2.7.1-3.4.1a10.32,10.32,0,0,1-1.9-.1,13.59,13.59,0,0,0-1.5-.1c-.5,0-.7.1-.7.4S242.3,78.57,242.7,78.68Zm7.2.8a2.5,2.5,0,0,1,1.7-.4,8.16,8.16,0,0,1,5.6,2,6.39,6.39,0,0,1,2.2,5.1,5.36,5.36,0,0,1-1.6,4.2,6.18,6.18,0,0,1-4.4,1.5H251a1.26,1.26,0,0,1-1.6-1.6v-9.2C249.4,80.27,249.5,79.77,249.9,79.48Z"/><path class="a" d="M271.7,78.57a3.73,3.73,0,0,1,2.6,1.2,7.23,7.23,0,0,1,.6,3.6v18.4a9.09,9.09,0,0,1-.5,3.6c-.3.6-1,.9-2.1,1.1-.4.1-.7.2-.7.5s.2.4.6.4a3.75,3.75,0,0,0,1-.1l2.5-.1h3.1a13.53,13.53,0,0,1,2.3.1c.3,0,.6.1.8.1.4,0,.7-.2.7-.5s-.4-.4-1.1-.5a4.3,4.3,0,0,1-2-.6,3.66,3.66,0,0,1-1.1-1.5,15,15,0,0,1-.4-4V84.18c0-3,.5-4.7,1.6-5.1l1.1-.4q.6-.15.6-.6c0-.3-.2-.4-.6-.4h-.5l-1.4.1c-.8,0-1.7.1-2.7.1-1.7,0-3.1-.1-4.2-.2h-.4c-.4,0-.6.2-.6.5S271.3,78.48,271.7,78.57Z"/><path class="a" d="M292.9,74.07a7.36,7.36,0,0,0,1.1,1,3.09,3.09,0,0,0,1.1.2,2.51,2.51,0,0,0,1-.2,4.81,4.81,0,0,0,.9-1l1.9-2.4.7-.9c.2-.2.2-.4.3-.6s-.1-.3-.4-.5a1.33,1.33,0,0,0-.7-.3c-.3,0-.6.3-1,.9-1.1,1.7-1.8,2.5-2.1,2.5-.1,0-.2-.1-.4-.3l-.6-.6-.9-1-.7-.8-.5-.5a1.06,1.06,0,0,0-1.3-.3l-1,.4c-.4.2-.6.3-.6.6s.4.7,1.2,1.5Z"/><path class="a" d="M286.2,104.07a12.68,12.68,0,0,0,.4,1.5,1.2,1.2,0,0,0,.5.5,9.24,9.24,0,0,0,2.9,1.1,16.34,16.34,0,0,0,3.6.5,11.15,11.15,0,0,0,7.5-2.5,8.49,8.49,0,0,0,2.9-6.6c0-3.9-2.6-6.8-7.9-8.5a39.61,39.61,0,0,1-5.1-1.9,5.61,5.61,0,0,1-1.9-1.6,4.8,4.8,0,0,1-1-3.1,4.33,4.33,0,0,1,1.5-3.4,5.64,5.64,0,0,1,3.9-1.4,9.88,9.88,0,0,1,5.3,1.5,7.07,7.07,0,0,1,3.1,3.8c.2.7.5,1,.7,1s.5-.2.5-.7a4.4,4.4,0,0,0-.1-.9l-.3-2.2a19.41,19.41,0,0,1-.3-2.2c0-.7-.2-1.1-.5-1.1-.1,0-.2,0-.2.1l-.3.3c-.2.1-.3.2-.5.2a.6.6,0,0,1-.4-.1l-1.5-.6a11.31,11.31,0,0,0-3.9-.7,10,10,0,0,0-6.7,2.2,7.17,7.17,0,0,0-2.6,5.7,6.93,6.93,0,0,0,2,5.1c1.3,1.3,3.6,2.5,6.7,3.6s4.9,1.8,5.6,2.4a5,5,0,0,1,1.9,4,5.31,5.31,0,0,1-2,4.2,7.24,7.24,0,0,1-5,1.7,9.21,9.21,0,0,1-5.4-1.8,7.91,7.91,0,0,1-3.2-4.5c-.2-.7-.4-1-.7-1.1s-.4.2-.4.6a10.27,10.27,0,0,0,.6,2.7A6.84,6.84,0,0,0,286.2,104.07Z"/><path class="a" d="M322.9,107.68a19.86,19.86,0,0,0,10.9-3.2,2.14,2.14,0,0,0,1-1.2l.1-.4.5-2.6.1-.5v-.2c0-.3-.1-.4-.3-.4s-.5.4-.9,1.2a10.24,10.24,0,0,1-4.3,4.2,13.55,13.55,0,0,1-6.3,1.7,11.09,11.09,0,0,1-9-4.2,16.76,16.76,0,0,1-3.5-10.9,13,13,0,0,1,3.2-9.2,11.44,11.44,0,0,1,8.6-3.4c4.6,0,8.2,2.3,10.9,7,.3.6.6.9.8.9s.2-.1.3-.2l.1-.2-.1-.5-.7-5.1c-.1-.5-.2-.8-.5-.8a1.55,1.55,0,0,0-.6.3,1.44,1.44,0,0,1-.3.2l-.4-.1-.3-.2-.9-.4a16.71,16.71,0,0,0-8.3-2,15,15,0,0,0-11,4.4A15.23,15.23,0,0,0,307.6,93a14.46,14.46,0,0,0,4.2,10.8Q316,107.67,322.9,107.68Z"/><path class="a" d="M356.6,97.48l1.1,2.8a16.06,16.06,0,0,1,1.3,4.5,1.43,1.43,0,0,1-1.1,1.5l-.7.1c-.4.1-.5.2-.5.4s.2.4.6.4a2.25,2.25,0,0,0,.7-.1,29.55,29.55,0,0,1,3.7-.1c1.9,0,3.2,0,4,.1h.8c.4,0,.6-.1.6-.4s-.2-.4-.6-.5a5,5,0,0,1-2.7-1,11.86,11.86,0,0,1-1.7-3.2l-.5-1.2-9.2-23.6q-.3-.6-.6-.6t-.6.6l-11,24.5-.6,1.4a7.61,7.61,0,0,1-1.2,1.9c-.5.6-.9,1-1.2,1l-.8.2c-.2.1-.4.2-.4.5s.2.4.6.4a8.33,8.33,0,0,0,1.2-.1h3.4l2.1.1h.7c.4,0,.6-.1.6-.4s-.2-.4-.7-.5a4.8,4.8,0,0,1-2-.8,2.07,2.07,0,0,1-.5-1.5,7.94,7.94,0,0,1,1-3.2l1.4-3.2a5.11,5.11,0,0,1,1-1.7,4,4,0,0,1,2-.3h7.8a4,4,0,0,1,1.5.2A4.46,4.46,0,0,0,356.6,97.48ZM353.8,94h-7.1c-.7,0-1-.2-1-.6a2.71,2.71,0,0,1,.3-.8l4.2-9.3c.1-.3.2-.4.3-.4s.4.2.6.7l.2.4,3.4,8.5.1.4a1.09,1.09,0,0,1,.1.5C354.9,93.77,354.5,94,353.8,94Z"/><path class="a" d="M395.9,77.68a5.39,5.39,0,0,0-1.1.1,12.17,12.17,0,0,1-2.1.1,39,39,0,0,1-4-.2c-.4,0-.7-.1-.9-.1-.4,0-.6.1-.6.4s.2.5.6.5a6.12,6.12,0,0,1,3.1,1.1,4.2,4.2,0,0,1,1.1,2.6l.3,4.9v13.7c0,.3-.1.4-.2.4s-.3-.2-.6-.5l-19.7-22.3a1.54,1.54,0,0,0-1.1-.6H367c-.3,0-.5.1-.5.4s.2.4.6.5a4.43,4.43,0,0,1,3.4,2.4,11.92,11.92,0,0,1,1.2,5.8v14.6a7.38,7.38,0,0,1-.6,3.4,4.64,4.64,0,0,1-2.4,1.7c-.4.1-.6.3-.6.5s.2.4.6.4a2.81,2.81,0,0,0,.8-.1,8.08,8.08,0,0,1,1.6-.1h1l2.2.1c1.1.1,1.7.1,1.9.1h.6c.3,0,.5-.1.5-.4s-.2-.5-.7-.5a4.64,4.64,0,0,1-2.3-.8,3.12,3.12,0,0,1-.7-2l-.1-1.5V86.88c0-.6.1-1,.4-1a.37.37,0,0,1,.3.1l.2.2,18.1,20.7.5.6a.76.76,0,0,0,.5.2.63.63,0,0,0,.6-.5,18,18,0,0,0,.1-2.9V82.58a6.05,6.05,0,0,1,.4-2.8,2.69,2.69,0,0,1,1.7-1.1c.3-.1.4-.2.4-.4C396.5,77.77,396.3,77.68,395.9,77.68Z"/><path class="a" d="M410.9,90.07a39.61,39.61,0,0,1-5.1-1.9,5.61,5.61,0,0,1-1.9-1.6,4.8,4.8,0,0,1-1-3.1,4.33,4.33,0,0,1,1.5-3.4,5.64,5.64,0,0,1,3.9-1.4,9.88,9.88,0,0,1,5.3,1.5,7.07,7.07,0,0,1,3.1,3.8c.2.7.5,1,.7,1s.5-.2.5-.7a4.4,4.4,0,0,0-.1-.9l-.3-2.2a19.41,19.41,0,0,1-.3-2.2c0-.7-.2-1.1-.5-1.1-.1,0-.2,0-.2.1l-.3.3c-.2.1-.3.2-.5.2a.6.6,0,0,1-.4-.1l-1.5-.6a11.31,11.31,0,0,0-3.9-.7,10,10,0,0,0-6.7,2.2,7.17,7.17,0,0,0-2.6,5.7,6.93,6.93,0,0,0,2,5.1c1.3,1.3,3.6,2.5,6.7,3.6s4.9,1.8,5.6,2.4a5,5,0,0,1,1.9,4,5.31,5.31,0,0,1-2,4.2,7.24,7.24,0,0,1-5,1.7,9.21,9.21,0,0,1-5.4-1.8,7.91,7.91,0,0,1-3.2-4.5c-.2-.7-.4-1-.7-1.1s-.4.2-.4.6a10.27,10.27,0,0,0,.6,2.7c.3,1.2.5,1.8.5,2a12.68,12.68,0,0,0,.4,1.5,1.2,1.2,0,0,0,.5.5A9.24,9.24,0,0,0,405,107a16.34,16.34,0,0,0,3.6.5,11.15,11.15,0,0,0,7.5-2.5,8.49,8.49,0,0,0,2.9-6.6C418.9,94.68,416.2,91.87,410.9,90.07Z"/><path class="a" d="M468.2,96.18c.2.1.4.6.7,1.4l1.1,2.8a16.06,16.06,0,0,1,1.3,4.5,1.43,1.43,0,0,1-1.1,1.5l-.7.1c-.4.1-.5.2-.5.4s.2.4.6.4a2.25,2.25,0,0,0,.7-.1,29.55,29.55,0,0,1,3.7-.1c1.9,0,3.2,0,4,.1h.8c.4,0,.6-.1.6-.4s-.2-.4-.6-.5a5,5,0,0,1-2.7-1,11.86,11.86,0,0,1-1.7-3.2l-.5-1.2-9.2-23.6q-.3-.6-.6-.6t-.6.6l-11,24.5-.6,1.4a7.61,7.61,0,0,1-1.2,1.9c-.5.6-.9,1-1.2,1l-.5.2-.6-.1a7.94,7.94,0,0,1-3.9-2.3l-11.2-11.7a1.35,1.35,0,0,1-.5-.9c0-.2.2-.4.5-.7l7.3-6.6c3.6-3.3,6.1-5.1,7.4-5.4.7-.2,1-.4,1-.6s-.2-.4-.6-.4a2.64,2.64,0,0,0-.7.1c-.3,0-.9.1-1.8.1h-3.6a12.75,12.75,0,0,1-2-.1h-.6c-.4,0-.7.1-.7.4s.3.4,1,.5c1,.2,1.5.6,1.5,1.3s-.7,1.8-2.1,3l-9.2,8.2-.3.3-.3.2c-.1,0-.2-.1-.2-.5v-8.4a6.29,6.29,0,0,1,.4-2.9c.2-.5.8-.9,1.7-1.3.3-.1.5-.3.5-.5s-.2-.4-.5-.4a5.13,5.13,0,0,0-1,.1H427a29.35,29.35,0,0,1-3.4-.1c-.3,0-.6-.1-.8-.1-.4,0-.6.1-.6.4s.2.4.6.4l1,.2a2.66,2.66,0,0,1,1.9,1.2,7.81,7.81,0,0,1,.5,3.2v18.3a10.73,10.73,0,0,1-.5,3.8,2.1,2.1,0,0,1-1.9,1.3c-.4,0-.6.2-.6.4s.2.5.7.5a10.3,10.3,0,0,0,1.3-.1h4.4a17.11,17.11,0,0,1,2.6.1c.6,0,1,.1,1.2.1.4,0,.5-.1.5-.4s-.2-.4-.6-.5q-2.4-.45-3-1.2a5.71,5.71,0,0,1-.7-3.3v-7.8c0-.3.1-.5.4-.5s.3.1.5.2l.4.5,11.5,11.9.4.4a1.76,1.76,0,0,0,1.3.6H447a6.73,6.73,0,0,1,1.8.1h.5a.75.75,0,0,0,.5-.1,1.09,1.09,0,0,0,.5-.1h3.4l2.1.1h.7c.4,0,.6-.1.6-.4s-.2-.4-.7-.5a4.8,4.8,0,0,1-2-.8,2.07,2.07,0,0,1-.5-1.5,7.94,7.94,0,0,1,1-3.2l1.4-3.2a5.11,5.11,0,0,1,1-1.7,4,4,0,0,1,2-.3h7.8A4.14,4.14,0,0,0,468.2,96.18ZM459.7,94h-.6c-.7,0-1-.2-1-.6a2.71,2.71,0,0,1,.3-.8l4.2-9.3c.1-.3.2-.4.3-.4s.4.2.6.7l.2.4,3.4,8.5.1.4a1.09,1.09,0,0,1,.1.5c0,.4-.4.5-1.1.5h-6.5Z"/><path class="a" d="M236.5,153.68a7.26,7.26,0,0,1-3.7-1.4,13.59,13.59,0,0,1-2.3-4.4l-.6-1.6-12.5-32c-.2-.6-.5-.8-.8-.8s-.6.3-.8.9l-14.9,33.2-.8,1.9a18.25,18.25,0,0,1-1.6,2.6c-.7.8-1.2,1.3-1.6,1.4l-1.1.3a.63.63,0,0,0-.5.6c0,.4.3.5.8.5.1,0,.6-.1,1.6-.2H199a31.13,31.13,0,0,1,3.2.1l2.8.2h1c.6,0,.8-.2.8-.5s-.3-.6-.9-.7a7.25,7.25,0,0,1-2.7-1,2.44,2.44,0,0,1-.7-2,11.74,11.74,0,0,1,1.3-4.4l1.9-4.3c.6-1.3,1-2.1,1.4-2.3a6.73,6.73,0,0,1,2.7-.3h10.5a6.91,6.91,0,0,1,2,.2,6.11,6.11,0,0,1,1,1.8l1.5,3.8c1.2,3.1,1.8,5.1,1.8,6.1a1.8,1.8,0,0,1-1.5,2l-1,.4c-.5.1-.7.3-.7.6s.3.6.8.6a3.45,3.45,0,0,0,.9-.1,44.56,44.56,0,0,1,5.1-.2c2.6,0,4.4,0,5.4.1a10.42,10.42,0,0,1,1.1.1c.5,0,.8-.2.8-.5A1.16,1.16,0,0,0,236.5,153.68Zm-17-16.9h-9.6c-.9,0-1.3-.3-1.3-.8a2.88,2.88,0,0,1,.4-1.1l5.7-12.6c.2-.4.3-.6.5-.6s.5.3.8,1l.2.6,4.6,11.5.1.5a2,2,0,0,1,.1.7C220.9,136.48,220.5,136.77,219.5,136.77Z"/><path class="a" d="M249.8,125a24.4,24.4,0,0,0-2.8.1l-2,.2a31.27,31.27,0,0,1-3.4.1h-1.5l-1.7-.1c-.4,0-.6.1-.6.4s.2.4.7.4a3.12,3.12,0,0,1,2.4,1.2,5.42,5.42,0,0,1,.7,3.2v19.3a7.9,7.9,0,0,1-.4,3.2,2.69,2.69,0,0,1-1.9,1.1c-.4.1-.6.2-.6.5s.2.5.8.5c.3,0,.7-.1,1.2-.1a24.24,24.24,0,0,1,4-.2c1.4,0,3.1.1,5,.2a17.23,17.23,0,0,0,2,.1,15.42,15.42,0,0,0,8.6-2.5,13.89,13.89,0,0,0,4.9-5.3,15.57,15.57,0,0,0,1.8-7.4,13.86,13.86,0,0,0-4-10.3C260.1,126.48,255.7,125,249.8,125Zm9,26.9a12.59,12.59,0,0,1-6.6,1.8,18.86,18.86,0,0,1-3-.3,14.8,14.8,0,0,1-2.9-.8,1.72,1.72,0,0,1-1.3-1.8v-22a2.16,2.16,0,0,1,.6-1.8c.6-.5,2-.7,4.3-.7a13.4,13.4,0,0,1,8.1,2.4,14.18,14.18,0,0,1,4.3,5.3,18.19,18.19,0,0,1,1.6,7.4Q263.75,148.87,258.8,151.87Z"/><path class="a" d="M296.8,125.18h-4.2a18.79,18.79,0,0,1-1.9-.1h-.6c-.5,0-.7.1-.7.4s.4.4,1.2.6a2.3,2.3,0,0,1,1.3.5,1.33,1.33,0,0,1,.3,1q0,2.1-3,9.3l-4.7,11.2-.3.8c-.4.8-.6,1.2-.8,1.2s-.4-.2-.6-.7l-8.2-18.9a9.08,9.08,0,0,1-.9-3,1.55,1.55,0,0,1,.2-.8c.1-.2.5-.3,1.1-.5a.51.51,0,0,0,.4-.5c0-.3-.2-.4-.6-.4h-.6a8.17,8.17,0,0,1-1.4.1h-6.2c-.4,0-.6.1-.6.4s.1.3.2.3a4,4,0,0,0,1.3.3,2.59,2.59,0,0,1,1.7.9,11.68,11.68,0,0,1,1.4,2.4l10.9,25.2c.3.7.6,1.1.9,1.1s.6-.4.9-1L294,130l.6-1.4a4.1,4.1,0,0,1,2.3-2.5c.3-.1.5-.3.5-.5C297.2,125.37,297.1,125.18,296.8,125.18Z"/><path class="a" d="M320.4,148.87c-.2,0-.3.1-.5.4-1.6,2.5-5.2,3.8-10.8,3.8a6.78,6.78,0,0,1-3.3-.5,3,3,0,0,1-.7-2.3v-8.6a1,1,0,0,1,.4-.9,3.71,3.71,0,0,1,1.4-.2h4.7a5.39,5.39,0,0,1,2.6.5,2.51,2.51,0,0,1,1,1.9l.1.6c.1.3.2.5.5.5s.4-.2.4-.5V143a22.61,22.61,0,0,1-.1-2.6c0-1.1.1-2.4.2-3.8v-.5c0-.4-.1-.6-.4-.6a.47.47,0,0,0-.5.5,6,6,0,0,1-.6,1.8,2.11,2.11,0,0,1-1.5.6,17.25,17.25,0,0,1-3.6.3h-3.3a2,2,0,0,1-1.1-.2,2.23,2.23,0,0,1-.2-1.2v-8.5c0-.8.1-1.3.4-1.5a3.17,3.17,0,0,1,1.7-.3h3.4a23.89,23.89,0,0,1,4.6.3,2,2,0,0,1,1.6,1.3,3.08,3.08,0,0,1,.3,1.3v.6c0,.4.1.7.4.6a.55.55,0,0,0,.5-.3,8.81,8.81,0,0,0,.2-1.5l.1-1.3a10.84,10.84,0,0,1,.2-1.7,4.33,4.33,0,0,1,.1-.5c0-.4-.2-.6-.7-.6a3.45,3.45,0,0,0-.9.1c-.2,0-.7.1-1.5.1l-3,.2c-1.3.1-2.9.1-4.6.1-2.9,0-5.3-.1-7.4-.3a8.17,8.17,0,0,0-1.4-.1c-.6,0-1,.2-1,.6s.2.4.6.4a2.81,2.81,0,0,1,2.6,1.1,9.08,9.08,0,0,1,.7,4.1V151q0,2.55-1.5,3l-.8.2c-.4.1-.6.3-.6.5s.2.5.7.5a8.91,8.91,0,0,0,1.1-.2,31.62,31.62,0,0,1,5.3-.3,63.47,63.47,0,0,1,6.8.4,11.56,11.56,0,0,0,1.7.1,6.83,6.83,0,0,0,6.4-5.6C320.8,149.07,320.7,148.87,320.4,148.87Z"/><path class="a" d="M351.8,125.18a5.39,5.39,0,0,0-1.1.1,12.17,12.17,0,0,1-2.1.1,39,39,0,0,1-4-.2c-.4,0-.7-.1-.9-.1-.4,0-.6.1-.6.4s.2.5.6.5a6.12,6.12,0,0,1,3.1,1.1,4.2,4.2,0,0,1,1.1,2.6l.3,4.9v13.5c0,.3-.1.4-.2.4s-.3-.2-.6-.5l-19.8-22.2a1.54,1.54,0,0,0-1.1-.6h-3.7c-.3,0-.5.1-.5.4s.2.4.6.5a4.43,4.43,0,0,1,3.4,2.4,11.92,11.92,0,0,1,1.2,5.8v14.6a7.38,7.38,0,0,1-.6,3.4,4.64,4.64,0,0,1-2.4,1.7c-.4.1-.6.3-.6.5s.2.4.6.4a2.81,2.81,0,0,0,.8-.1,8.08,8.08,0,0,1,1.6-.1h1l2.2.1c1.1.1,1.7.1,1.9.1h.6c.3,0,.5-.1.5-.4s-.2-.5-.7-.5a4.64,4.64,0,0,1-2.3-.8,3.12,3.12,0,0,1-.7-2l-.1-1.5v-15.4c0-.6.1-1,.4-1a.37.37,0,0,1,.3.1l.2.2,18.1,20.7.5.6a.76.76,0,0,0,.5.2.63.63,0,0,0,.6-.5,18,18,0,0,0,.1-2.9V130a6.05,6.05,0,0,1,.4-2.8,2.69,2.69,0,0,1,1.7-1.1c.3-.1.4-.2.4-.4C352.4,125.27,352.2,125.18,351.8,125.18Z"/><path class="a" d="M381,127.18a4,4,0,0,0-.2-1.5c-.2-.2-.6-.3-1.4-.3H356.3a1.33,1.33,0,0,0-1,.3c-.2.2-.2.6-.2,1.3a12.89,12.89,0,0,1-.3,2.5,8,8,0,0,0-.3,1.6c0,.4.1.6.4.6s.5-.3.6-.8a4.82,4.82,0,0,1,1.2-2.6,3.56,3.56,0,0,1,2.5-.7h5.7a1.85,1.85,0,0,1,1,.2c.2.1.2.5.2,1v21.9a4,4,0,0,1-.6,2.5,3,3,0,0,1-2.2.9c-.5.1-.7.2-.7.4s.2.5.6.5a11.31,11.31,0,0,0,1.4-.1c.4,0,.9-.1,1.5-.1h3.3a7.71,7.71,0,0,1,1.9.1,5.39,5.39,0,0,0,1.1.1c.4,0,.6-.2.6-.5s-.2-.4-.8-.5a3,3,0,0,1-2.8-3v-21.8a3.09,3.09,0,0,1,.2-1.3,1.74,1.74,0,0,1,1.2-.3h6a4.27,4.27,0,0,1,2.4.5,3.38,3.38,0,0,1,.9,2c.1.5.3.7.5.7s.5-.3.5-.7c0-.2-.1-.6-.1-1S381,128.07,381,127.18Z"/><path class="a" d="M393.4,153.87a4.3,4.3,0,0,1-2-.6,3.66,3.66,0,0,1-1.1-1.5,15,15,0,0,1-.4-4v-16.1c0-3,.5-4.7,1.6-5.1l1.1-.4q.6-.15.6-.6c0-.3-.2-.4-.6-.4h-.5l-1.4.1c-.8,0-1.7.1-2.7.1-1.7,0-3.1-.1-4.2-.2h-.4c-.4,0-.6.2-.6.5s.2.4.7.5a3.73,3.73,0,0,1,2.6,1.2,7.23,7.23,0,0,1,.6,3.6v18.4a9.09,9.09,0,0,1-.5,3.6c-.3.6-1,.9-2.1,1.1-.4.1-.7.2-.7.5s.2.4.6.4a3.75,3.75,0,0,0,1-.1l2.5-.1h3.1a13.53,13.53,0,0,1,2.3.1c.3,0,.6.1.8.1.4,0,.7-.2.7-.5S394.2,154,393.4,153.87Z"/><path class="a" d="M407.9,137.57a39.61,39.61,0,0,1-5.1-1.9,5.61,5.61,0,0,1-1.9-1.6,4.8,4.8,0,0,1-1-3.1,4.33,4.33,0,0,1,1.5-3.4,5.64,5.64,0,0,1,3.9-1.4,9.88,9.88,0,0,1,5.3,1.5,7.07,7.07,0,0,1,3.1,3.8c.2.7.5,1,.7,1s.5-.2.5-.7a4.4,4.4,0,0,0-.1-.9l-.3-2.2a19.41,19.41,0,0,1-.3-2.2c0-.7-.2-1.1-.5-1.1-.1,0-.2,0-.2.1l-.3.3c-.2.1-.3.2-.5.2a.6.6,0,0,1-.4-.1l-1.5-.6a11.31,11.31,0,0,0-3.9-.7,10,10,0,0,0-6.7,2.2,7.17,7.17,0,0,0-2.6,5.7,6.93,6.93,0,0,0,2,5.1c1.3,1.3,3.6,2.5,6.7,3.6s4.9,1.8,5.6,2.4a5,5,0,0,1,1.9,4,5.31,5.31,0,0,1-2,4.2,7.24,7.24,0,0,1-5,1.7,9.21,9.21,0,0,1-5.4-1.8,7.91,7.91,0,0,1-3.2-4.5c-.2-.7-.4-1-.7-1.1s-.4.2-.4.6a10.27,10.27,0,0,0,.6,2.7c.3,1.2.5,1.8.5,2a12.68,12.68,0,0,0,.4,1.5,1.2,1.2,0,0,0,.5.5,9.24,9.24,0,0,0,2.9,1.1,16.34,16.34,0,0,0,3.6.5,11.15,11.15,0,0,0,7.5-2.5,8.49,8.49,0,0,0,2.9-6.6C415.8,142.18,413.2,139.37,407.9,137.57Z"/><path class="a" d="M444.4,127.18a4,4,0,0,0-.2-1.5c-.2-.2-.6-.3-1.4-.3H419.7a1.33,1.33,0,0,0-1,.3c-.2.2-.2.6-.2,1.3a12.89,12.89,0,0,1-.3,2.5,8,8,0,0,0-.3,1.6c0,.4.1.6.4.6s.5-.3.6-.8a4.82,4.82,0,0,1,1.2-2.6,3.56,3.56,0,0,1,2.5-.7h5.7a1.85,1.85,0,0,1,1,.2c.2.1.2.5.2,1v21.9a4,4,0,0,1-.6,2.5,3,3,0,0,1-2.2.9c-.5.1-.7.2-.7.4s.2.5.6.5a11.31,11.31,0,0,0,1.4-.1c.4,0,.9-.1,1.5-.1h3.3a7.71,7.71,0,0,1,1.9.1,5.39,5.39,0,0,0,1.1.1c.4,0,.6-.2.6-.5s-.2-.4-.8-.5a3,3,0,0,1-2.8-3v-21.8a3.09,3.09,0,0,1,.2-1.3,1.74,1.74,0,0,1,1.2-.3h6a4.27,4.27,0,0,1,2.4.5,3.38,3.38,0,0,1,.9,2c.1.5.3.7.5.7s.5-.3.5-.7c0-.2-.1-.6-.1-1A11.6,11.6,0,0,0,444.4,127.18Z"/><path class="a" d="M456.9,153.87a4.3,4.3,0,0,1-2-.6,3.66,3.66,0,0,1-1.1-1.5,15,15,0,0,1-.4-4v-16.1c0-3,.5-4.7,1.6-5.1l1.1-.4q.6-.15.6-.6c0-.3-.2-.4-.6-.4h-.5l-1.4.1c-.8,0-1.7.1-2.7.1-1.7,0-3.1-.1-4.2-.2h-.4c-.4,0-.6.2-.6.5s.2.4.7.5a3.73,3.73,0,0,1,2.6,1.2,7.23,7.23,0,0,1,.6,3.6v18.4a9.09,9.09,0,0,1-.5,3.6c-.3.6-1,.9-2.1,1.1-.4.1-.7.2-.7.5s.2.4.6.4a3.75,3.75,0,0,0,1-.1l2.5-.1h3.1a13.53,13.53,0,0,1,2.3.1c.3,0,.6.1.8.1.4,0,.7-.2.7-.5S457.6,154,456.9,153.87Z"/><path class="a" d="M488.4,146.77q-.3,0-.9,1.2a10.24,10.24,0,0,1-4.3,4.2,13.55,13.55,0,0,1-6.3,1.7,11.09,11.09,0,0,1-9-4.2,16.76,16.76,0,0,1-3.5-10.9,13,13,0,0,1,3.2-9.2,11.44,11.44,0,0,1,8.6-3.4c4.6,0,8.2,2.3,10.9,7,.3.6.6.9.8.9s.2-.1.3-.2l.1-.2-.1-.5-.7-5.1c-.1-.5-.2-.8-.5-.8a1.55,1.55,0,0,0-.6.3c-.1.1-.2.2-.3.2l-.4-.1-.3-.2-.9-.5a16.71,16.71,0,0,0-8.3-2,15,15,0,0,0-15.4,15.5,14.46,14.46,0,0,0,4.2,10.8,15.35,15.35,0,0,0,11.1,4.1,19.86,19.86,0,0,0,10.9-3.2c.6-.4,1-.8,1-1.2l.1-.4.5-2.6.1-.5v-.2C488.7,146.87,488.6,146.77,488.4,146.77Z"/><path class="a" d="M548.3,154a5,5,0,0,1-2.7-1,11.86,11.86,0,0,1-1.7-3.2l-.5-1.2L534.2,125q-.3-.6-.6-.6t-.6.6l-11,24.5-.6,1.4a7.61,7.61,0,0,1-1.2,1.9c-.5.6-.9,1-1.2,1l-.5.2-.6-.1a7.94,7.94,0,0,1-3.9-2.3l-11.2-11.7a1.35,1.35,0,0,1-.5-.9c0-.2.2-.4.5-.7l7.3-6.6c3.6-3.3,6.1-5.1,7.4-5.4.7-.2,1-.4,1-.6s-.2-.4-.6-.4a2.64,2.64,0,0,0-.7.1c-.3,0-.9.1-1.8.1h-3.6a12.75,12.75,0,0,1-2-.1h-.6c-.4,0-.7.1-.7.4s.3.4,1,.5c1,.2,1.5.6,1.5,1.3s-.7,1.8-2.1,3l-9.2,8.2-.3.3-.3.2c-.1,0-.2-.1-.2-.5v-8.4a6.29,6.29,0,0,1,.4-2.9c.2-.5.8-.9,1.7-1.3.3-.1.5-.3.5-.5s-.2-.4-.5-.4a5.13,5.13,0,0,0-1,.1h-3.5a29.35,29.35,0,0,1-3.4-.1c-.3,0-.6-.1-.8-.1-.4,0-.6.1-.6.4s.2.4.6.4l1,.2a2.66,2.66,0,0,1,1.9,1.2,7.81,7.81,0,0,1,.5,3.2v18.3a10.73,10.73,0,0,1-.5,3.8,2.1,2.1,0,0,1-1.9,1.3c-.4,0-.6.2-.6.4s.2.5.7.5a10.3,10.3,0,0,0,1.3-.1h4.4a15,15,0,0,1,2.5.1c.6,0,1,.1,1.2.1.4,0,.5-.1.5-.4s-.2-.4-.6-.5c-1.6-.3-2.6-.6-3-1.2a5.71,5.71,0,0,1-.7-3.3v-7.8c0-.3.1-.5.4-.5s.3.1.5.2l.4.5,11.5,11.9.4.4a1.76,1.76,0,0,0,1.3.6h2.9a6.73,6.73,0,0,1,1.8.1h.5a.75.75,0,0,0,.5-.1,1.09,1.09,0,0,0,.5-.1h3.4l2.1.1h.7c.4,0,.6-.1.6-.4s-.2-.4-.7-.5a4.8,4.8,0,0,1-2-.8,2.07,2.07,0,0,1-.5-1.5,7.94,7.94,0,0,1,1-3.2l1.4-3.2a5.11,5.11,0,0,1,1-1.7,4,4,0,0,1,2-.3h7.8a4,4,0,0,1,1.5.2c.2.1.4.6.7,1.4l1.1,2.8a16.06,16.06,0,0,1,1.3,4.5,1.43,1.43,0,0,1-1.1,1.5l-.7.1c-.4.1-.5.2-.5.4s.2.4.6.4a2.25,2.25,0,0,0,.7-.1,29.55,29.55,0,0,1,3.7-.1c1.9,0,3.2,0,4,.1h.8c.4,0,.6-.1.6-.4C548.9,154.18,548.7,154.07,548.3,154Zm-12.6-12.5h-7.1c-.7,0-1-.2-1-.6a2.71,2.71,0,0,1,.3-.8l4.2-9.3c.1-.3.2-.4.3-.4s.4.2.6.7l.2.5,3.4,8.5.1.4a1.09,1.09,0,0,1,.1.5C536.8,141.27,536.4,141.48,535.7,141.48Z"/><path class="a" d="M598.8,144c-.3,0-.7.5-1.2,1.6a13.85,13.85,0,0,1-5.8,5.7,17.09,17.09,0,0,1-8.6,2.3,14.84,14.84,0,0,1-12.2-5.8c-3.2-3.8-4.8-8.8-4.8-14.8,0-5.3,1.4-9.4,4.3-12.4s6.7-4.6,11.7-4.6c6.2,0,11.1,3.2,14.7,9.5.5.8.8,1.2,1,1.2s.3-.1.4-.3l.1-.3-.1-.7-.9-7c-.1-.7-.3-1.1-.6-1.1s-.4.2-.9.5c-.2.2-.3.2-.4.2l-.4-.2-.5-.2-1.2-.6a23.94,23.94,0,0,0-11.3-2.8,20.12,20.12,0,0,0-14.9,6c-4,4-5.9,9-5.9,15.1s1.9,10.9,5.7,14.6,8.8,5.5,15.1,5.5a26.65,26.65,0,0,0,14.8-4.3,2.89,2.89,0,0,0,1.4-1.6l.1-.5.7-3.6.1-.6v-.3C599.3,144.18,599.1,144,598.8,144Z"/><path class="a" d="M630.2,154h-.7q-2.25-.15-5.1-4.2l-.7-1-5.9-8.7c3.5-1.8,5.3-4.2,5.3-7.5a6.32,6.32,0,0,0-2.5-5.5,12.81,12.81,0,0,0-7.4-1.9c-.9,0-1.9,0-3,.1-1.6.1-2.7.1-3.4.1a10.32,10.32,0,0,1-1.9-.1,13.59,13.59,0,0,0-1.5-.1c-.5,0-.7.1-.7.4s.2.4.7.5l1,.1c1.6.3,2.3,1.5,2.3,3.7v17.6a17.15,17.15,0,0,1-.5,4.9,3.15,3.15,0,0,1-2.3,1.6c-.4.1-.5.2-.5.4s.2.4.5.4a6.82,6.82,0,0,0,1.2-.1,12.14,12.14,0,0,1,1.8-.1h3.2a19.41,19.41,0,0,1,2.7.1,7.78,7.78,0,0,0,1.3.1c.5,0,.7-.1.7-.4s-.3-.4-.8-.5a5.53,5.53,0,0,1-2.9-.9,3.15,3.15,0,0,1-.9-1.2,12.94,12.94,0,0,1-.2-2.5v-7.6c0-.4.1-.6.3-.7l.5-.1h2.9a1.85,1.85,0,0,1,1.7.9l.3.5,5.3,8.1a13.87,13.87,0,0,0,3.1,3.5,6.06,6.06,0,0,0,3.5,1.1,6.65,6.65,0,0,0,2.1-.3c.6-.2.9-.4,1-.6A2,2,0,0,0,630.2,154ZM614,139.48h-2.4a1.26,1.26,0,0,1-1.6-1.6v-9.4a2.07,2.07,0,0,1,.5-1.5,2.65,2.65,0,0,1,1.8-.4,8.16,8.16,0,0,1,5.6,2,6.39,6.39,0,0,1,2.2,5.1,5.36,5.36,0,0,1-1.6,4.2A6.05,6.05,0,0,1,614,139.48Z"/><path class="a" d="M686.2,128.57a4.1,4.1,0,0,1,2.3-2.5c.3-.1.5-.3.5-.5a.37.37,0,0,0-.4-.4h-4.2a18.79,18.79,0,0,1-1.9-.1h-.6c-.5,0-.7.1-.7.4s.4.4,1.2.6a2.3,2.3,0,0,1,1.3.5,1.33,1.33,0,0,1,.3,1q0,2.1-3,9.3l-4.7,11.2-.3.8c-.4.8-.6,1.2-.8,1.2s-.4-.2-.6-.7l-8.2-18.9a9.08,9.08,0,0,1-.9-3,1.55,1.55,0,0,1,.2-.8c.1-.2.5-.3,1.1-.5a.51.51,0,0,0,.4-.5c0-.3-.2-.4-.6-.4H666a8.17,8.17,0,0,1-1.4.1h-6.3a.75.75,0,0,0-.5-.1,2.64,2.64,0,0,0-.7.1c-.3,0-.9.1-1.8.1h-3.6a12.75,12.75,0,0,1-2-.1h-.6c-.4,0-.7.1-.7.4s.3.4,1,.5c1,.2,1.5.6,1.5,1.3s-.7,1.8-2.1,3l-9.2,8.2-.3.3-.3.2c-.1,0-.2-.1-.2-.5v-8.4a6.29,6.29,0,0,1,.4-2.9c.2-.5.8-.9,1.7-1.3.3-.1.5-.3.5-.5s-.2-.4-.5-.4a5.13,5.13,0,0,0-1,.1h-3.5a29.35,29.35,0,0,1-3.4-.1c-.3,0-.6-.1-.8-.1-.4,0-.6.1-.6.4s.2.4.6.4l1,.2a2.66,2.66,0,0,1,1.9,1.2,7.81,7.81,0,0,1,.5,3.2v18.3a10.73,10.73,0,0,1-.5,3.8,2.1,2.1,0,0,1-1.9,1.3c-.4,0-.6.2-.6.4s.2.5.7.5a10.3,10.3,0,0,0,1.3-.1H639a15,15,0,0,1,2.5.1c.6,0,1,.1,1.2.1.4,0,.5-.1.5-.4s-.2-.4-.6-.5c-1.6-.3-2.6-.6-3-1.2a5.71,5.71,0,0,1-.7-3.3v-7.8c0-.3.1-.5.4-.5s.3.1.5.2l.4.5,11.5,11.9.4.4a1.76,1.76,0,0,0,1.3.6h2.9a6.73,6.73,0,0,1,1.8.1h.5c.4,0,.7-.1.7-.5,0-.2-.2-.3-.5-.4l-.9-.2a7.94,7.94,0,0,1-3.9-2.3l-11.2-11.7a1.35,1.35,0,0,1-.5-.9c0-.2.2-.4.5-.7l7.3-6.6c3.6-3.3,6.1-5.1,7.4-5.4a.76.76,0,0,0,.5-.2h0a4,4,0,0,0,1.3.3,2.59,2.59,0,0,1,1.7.9,11.68,11.68,0,0,1,1.4,2.4l10.9,25.2c.3.7.6,1.1.9,1.1s.6-.4.9-1l10.7-25Z"/><path class="a" d="M714.1,154a5,5,0,0,1-2.7-1,11.86,11.86,0,0,1-1.7-3.2l-.5-1.2L700,125q-.3-.6-.6-.6t-.6.6l-11,24.5-.6,1.4a7.61,7.61,0,0,1-1.2,1.9c-.5.6-.9,1-1.2,1l-.8.2c-.2.1-.4.2-.4.5s.2.4.6.4a8.33,8.33,0,0,0,1.2-.1h3.4l2.1.1h.7c.4,0,.6-.1.6-.4s-.2-.4-.7-.5a4.8,4.8,0,0,1-2-.8,2.07,2.07,0,0,1-.5-1.5,7.94,7.94,0,0,1,1-3.2l1.4-3.2a5.11,5.11,0,0,1,1-1.7,4,4,0,0,1,2-.3h7.8a4,4,0,0,1,1.5.2c.2.1.4.6.7,1.4l1.1,2.8a16.06,16.06,0,0,1,1.3,4.5,1.43,1.43,0,0,1-1.1,1.5l-.7.1c-.4.1-.5.2-.5.4s.2.4.6.4a2.25,2.25,0,0,0,.7-.1,29.55,29.55,0,0,1,3.7-.1c1.9,0,3.2,0,4,.1h.8c.4,0,.6-.1.6-.4C714.8,154.18,714.6,154.07,714.1,154Zm-12.5-12.5h-7.1c-.7,0-1-.2-1-.6a2.71,2.71,0,0,1,.3-.8l4.2-9.3c.1-.3.2-.4.3-.4s.4.2.6.7l.2.5,3.4,8.5.1.4a1.09,1.09,0,0,1,.1.5C702.6,141.27,702.3,141.48,701.6,141.48Z"/><path class="a" d="M477,120.48c-.1,0-.2-.1-.4-.3l-.6-.6-.9-1-.7-.8-.5-.5a1.06,1.06,0,0,0-1.3-.3l-1,.4c-.4.2-.6.3-.6.6s.4.7,1.2,1.5l2,2.2a7.36,7.36,0,0,0,1.1,1,3.09,3.09,0,0,0,1.1.2,2.51,2.51,0,0,0,1-.2,4.8,4.8,0,0,0,.9-1l1.9-2.4.7-.9c.2-.2.2-.4.3-.6s-.1-.3-.4-.5a1.33,1.33,0,0,0-.7-.3c-.3,0-.6.3-1,.9C477.9,119.57,477.2,120.48,477,120.48Z"/><path class="a" d="M322.2,75.27a3.63,3.63,0,0,0,1.5-.9l2.8-3.1.3-.4a.86.86,0,0,0,.3-.6c0-.6-.3-.8-.9-.8a8.23,8.23,0,0,0-2,.1c-.2,0-.4.2-.5.5l-.5,1.1c-.1.2-.4.8-.8,1.8l-.4,1a1.34,1.34,0,0,0-.2.8C321.8,75.18,321.9,75.27,322.2,75.27Z"/><path class="a" d="M171.5,144.27h-.1c-.2,0-.5-.2-.8-.7l-.1-.2-.9-1.4a1.24,1.24,0,0,0,.8-1.2c0-.8-.6-1.2-1.7-1.2h-1.6c-.1,0-.2,0-.2.1s0,.1.2.1h.2q.3,0,.3.6v2.9a1.72,1.72,0,0,1-.1.8c0,.1-.2.2-.3.2a.1.1,0,0,0-.1.1c0,.1.1.1.2.1h1.6c.1,0,.2,0,.2-.1s-.1-.1-.2-.1a.59.59,0,0,1-.5-.2.75.75,0,0,1-.1-.5v-1.3h.6c.1,0,.2,0,.2.1v.1l.9,1.3a1.27,1.27,0,0,0,1.1.7c.4,0,.5-.1.5-.2Zm-2.6-2.3h-.6v-1.7a.27.27,0,0,1,.3-.3,1,1,0,0,1,1.1,1.1C169.8,141.68,169.5,142,168.9,142Z"/><path class="a" d="M169.1,137.87a4.2,4.2,0,0,0,0,8.4,4.23,4.23,0,0,0,3-1.2,4.07,4.07,0,0,0,1.2-3,4.23,4.23,0,0,0-1.2-3A4.41,4.41,0,0,0,169.1,137.87Zm2.6,6.9a3.62,3.62,0,1,1,1.1-2.6A3.81,3.81,0,0,1,171.7,144.77Z"/><path class="a" d="M547.2,130.68h-.1c-.2,0-.5-.2-.8-.7l-.1-.2-.9-1.4a1.24,1.24,0,0,0,.8-1.2c0-.8-.6-1.2-1.7-1.2h-1.6c-.1,0-.2,0-.2.1s0,.1.2.1h.2q.3,0,.3.6v2.9a1.72,1.72,0,0,1-.1.8c0,.1-.2.2-.3.2a.1.1,0,0,0-.1.1c0,.1.1.1.2.1h1.6c.1,0,.2,0,.2-.1s-.1-.1-.2-.1a.59.59,0,0,1-.5-.2.75.75,0,0,1-.1-.5v-1.3h.6c.1,0,.2,0,.2.1v.1l.9,1.3a1.27,1.27,0,0,0,1.1.7c.4,0,.5-.1.5-.2C547.3,130.77,547.3,130.68,547.2,130.68Zm-2.7-2.3h-.6v-1.7a.27.27,0,0,1,.3-.3,1,1,0,0,1,1.1,1.1C545.5,128.07,545.2,128.37,544.5,128.37Z"/><path class="a" d="M544.7,124.27a4.2,4.2,0,0,0,0,8.4,4.23,4.23,0,0,0,3-1.2,4.07,4.07,0,0,0,1.2-3,4.23,4.23,0,0,0-1.2-3A4.51,4.51,0,0,0,544.7,124.27Zm2.7,6.9a3.62,3.62,0,1,1,1.1-2.6A3.81,3.81,0,0,1,547.4,131.18Z"/></svg>