<svg xmlns="http://www.w3.org/2000/svg" viewBox="0 0 454.81 320.08"><defs><style>.a{fill:#fff;}</style></defs><title>Asset 1</title><path class="a" d="M27.8,224.58a10.94,10.94,0,0,0,.5,1.9,1.54,1.54,0,0,0,.7.7,12.45,12.45,0,0,0,3.7,1.4,20.18,20.18,0,0,0,4.7.6,14,14,0,0,0,9.6-3.3,10.65,10.65,0,0,0,3.7-8.4c0-5-3.4-8.7-10.1-10.9-3.5-1.2-5.7-2-6.5-2.4a6.85,6.85,0,0,1-2.5-2.1,6,6,0,0,1-1.3-4,5.86,5.86,0,0,1,2-4.4,7,7,0,0,1,4.9-1.7,11.91,11.91,0,0,1,6.7,1.9,9,9,0,0,1,4,4.9c.3.9.6,1.3.9,1.3s.6-.3.6-.9a6.61,6.61,0,0,0-.1-1.1l-.4-2.8c-.2-1.5-.4-2.5-.4-2.8,0-.9-.2-1.4-.7-1.3a.37.37,0,0,0-.3.1l-.4.3a1.07,1.07,0,0,1-1.2.2L44,191a12.5,12.5,0,0,0-5-.8,12.45,12.45,0,0,0-8.5,2.8,9.11,9.11,0,0,0-3.3,7.2,8.66,8.66,0,0,0,2.5,6.5c1.7,1.7,4.6,3.2,8.6,4.6s6.3,2.3,7.1,3.1a6.54,6.54,0,0,1,2.4,5.1,7,7,0,0,1-2.6,5.4,9.4,9.4,0,0,1-6.4,2.2,11.67,11.67,0,0,1-6.9-2.3,11.12,11.12,0,0,1-4.2-5.7c-.3-.9-.6-1.3-.9-1.3s-.6.2-.6.8a13,13,0,0,0,.7,3.5A12.29,12.29,0,0,1,27.8,224.58Z"/><path class="a" d="M55.1,201.18a2.69,2.69,0,0,1,2.5,1,8.69,8.69,0,0,1,.6,3.9v18.6c0,1.6-.5,2.6-1.5,2.9l-.8.2c-.4.1-.5.3-.5.5s.2.4.7.4a5.94,5.94,0,0,0,1.1-.1,32.72,32.72,0,0,1,5.1-.2,57.3,57.3,0,0,1,6.5.4,10.36,10.36,0,0,0,1.6.1,5.49,5.49,0,0,0,4.5-2.2,5.39,5.39,0,0,0,1.5-3.2c0-.4-.1-.5-.4-.5s-.3.1-.5.4c-1.5,2.4-5,3.6-10.3,3.6a7.3,7.3,0,0,1-3.2-.4c-.4-.3-.6-1-.6-2.2v-8.2c0-.4.1-.7.3-.8a3.47,3.47,0,0,1,1.3-.2h4.5a4.94,4.94,0,0,1,2.5.5,2.64,2.64,0,0,1,1,1.9l.1.6c.1.3.2.4.5.4s.4-.2.4-.5v-.6a20.08,20.08,0,0,1-.1-2.5c0-1.1.1-2.3.2-3.6V211c0-.4-.1-.5-.4-.6a.47.47,0,0,0-.5.5,4.35,4.35,0,0,1-.6,1.7,3.77,3.77,0,0,1-1.4.6,16.23,16.23,0,0,1-3.4.2H62.6a2.33,2.33,0,0,1-1.1-.2,2,2,0,0,1-.2-1.1v-8.3c0-.7.1-1.2.4-1.4a2.75,2.75,0,0,1,1.6-.3h3.2a19.71,19.71,0,0,1,4.3.3,2.26,2.26,0,0,1,1.6,1.2,2.54,2.54,0,0,1,.2,1.2v.5c0,.4.1.6.4.6a.55.55,0,0,0,.5-.3,8.81,8.81,0,0,0,.2-1.5l.1-1.2a9,9,0,0,1,.2-1.6c0-.2.1-.3.1-.5,0-.4-.2-.6-.7-.6a2.49,2.49,0,0,0-.8.1c-.2,0-.7.1-1.5.1l-2.9.2c-1.3.1-2.8.1-4.4.1a69.46,69.46,0,0,1-7-.3,7.6,7.6,0,0,0-1.4-.1q-.9,0-.9.6Q54.5,201.17,55.1,201.18Z"/><path class="a" d="M79.7,201.28a3.46,3.46,0,0,1,2.5,1.2,6.58,6.58,0,0,1,.6,3.4v17.5a10.85,10.85,0,0,1-.4,3.4,2.94,2.94,0,0,1-2,1.1c-.4.1-.6.2-.6.5s.2.4.6.4a3.75,3.75,0,0,0,1-.1l2.4-.1h3a12.84,12.84,0,0,1,2.2.1c.3,0,.6.1.8.1.4,0,.6-.2.6-.5s-.3-.4-1-.5a3.85,3.85,0,0,1-1.9-.6,3.56,3.56,0,0,1-1-1.5,15.1,15.1,0,0,1-.3-3.8v-15.3c0-2.9.5-4.5,1.5-4.9l1.1-.4c.4-.1.5-.3.5-.5s-.2-.4-.6-.4h-.5l-1.4.1c-.7,0-1.6.1-2.6.1a39,39,0,0,1-4-.2h-.4c-.4,0-.6.1-.6.4C79,201,79.2,201.18,79.7,201.28Z"/><path class="a" d="M91.5,206.68c.2,0,.4-.2.6-.8a4.83,4.83,0,0,1,1.2-2.5,3.81,3.81,0,0,1,2.4-.7h5.4a2.15,2.15,0,0,1,1,.2,1.69,1.69,0,0,1,.2.9v20.8a3.84,3.84,0,0,1-.6,2.4,4.12,4.12,0,0,1-2.1.9c-.4.1-.7.2-.7.4s.2.4.6.4a11.31,11.31,0,0,0,1.4-.1c.4,0,.9-.1,1.5-.1h3.1a6.73,6.73,0,0,1,1.8.1,4.59,4.59,0,0,0,1,.1c.4,0,.6-.1.6-.4s-.2-.4-.7-.5a2.84,2.84,0,0,1-2.7-2.8v-20.9a2.87,2.87,0,0,1,.2-1.2c.2-.2.5-.2,1.1-.2h5.7a5.54,5.54,0,0,1,2.3.4,3,3,0,0,1,.9,1.9c.1.4.2.6.5.6s.4-.2.4-.7c0-.2-.1-.5-.1-1a8.66,8.66,0,0,1-.1-1.8,3,3,0,0,0-.2-1.4c-.2-.2-.6-.2-1.4-.2h-22q-.75,0-.9.3a2.87,2.87,0,0,0-.2,1.2,12.91,12.91,0,0,1-.3,2.4,6,6,0,0,0-.2,1.6C91.2,206.48,91.3,206.68,91.5,206.68Z"/><path class="a" d="M119.5,225.58a9.31,9.31,0,0,0,.4,1.4.82.82,0,0,0,.5.5,8.78,8.78,0,0,0,2.8,1,15.52,15.52,0,0,0,3.5.5,10.35,10.35,0,0,0,7.1-2.4,7.8,7.8,0,0,0,2.8-6.3c0-3.8-2.5-6.5-7.6-8.1-2.6-.9-4.2-1.5-4.9-1.8a3.9,3.9,0,0,1-1.8-1.6,4.91,4.91,0,0,1-1-3,3.93,3.93,0,0,1,1.5-3.2,5.24,5.24,0,0,1,3.7-1.3,9.66,9.66,0,0,1,5,1.4,7.12,7.12,0,0,1,3,3.7c.2.7.4,1,.7,1s.4-.2.4-.6a3.22,3.22,0,0,0-.1-.8l-.3-2.1a16.21,16.21,0,0,1-.3-2.1c0-.7-.2-1-.5-1-.1,0-.2,0-.2.1l-.3.2c-.2.1-.3.2-.5.2a.76.76,0,0,1-.4-.1l-1.4-.6a9.88,9.88,0,0,0-3.7-.6,9.67,9.67,0,0,0-6.4,2.1,6.94,6.94,0,0,0-2.5,5.4,6.18,6.18,0,0,0,1.9,4.8,17.78,17.78,0,0,0,6.4,3.4c2.9,1,4.7,1.7,5.3,2.3a4.78,4.78,0,0,1,1.8,3.8,5,5,0,0,1-1.9,4,7.21,7.21,0,0,1-4.8,1.7,8.67,8.67,0,0,1-5.1-1.7,8.12,8.12,0,0,1-3.1-4.3c-.2-.7-.4-1-.7-1s-.4.2-.4.6a13.78,13.78,0,0,0,.5,2.6C119.3,224.87,119.5,225.48,119.5,225.58Z"/><path class="a" d="M143,223a9,9,0,0,1-.7,3.6,3,3,0,0,1-2.1,1.4c-.3.1-.5.2-.5.4s.2.4.6.4a1.27,1.27,0,0,0,.6-.1,26.42,26.42,0,0,1,2.9-.2c.8,0,2,.1,3.5.2h.8c.4,0,.6-.2.6-.5s-.4-.5-1.2-.6c-1.7-.3-2.5-1.6-2.5-4s0-4.2.1-5l.5-10.1,7.7,16.6.4.9a7.37,7.37,0,0,0,.6,1.1c.3.7.6,1,.9,1s.6-.3.9-1l.4-.8c.3-.6.7-1.4,1.1-2.3,1-2.3,1.6-3.6,1.7-3.8l2.1-4.3,1.8-3.9c.4-.8,1.2-2.2,2.3-4.2l.5,13,.1,3.3a5.61,5.61,0,0,1-.4,2.6,2.85,2.85,0,0,1-1.6,1.1c-.3.1-.5.2-.5.5s.2.4.6.4c.2,0,1,0,2.4-.1a17.22,17.22,0,0,1,2-.1,9.15,9.15,0,0,1,1.7.1l1.6.2h.5c.5,0,.8-.1.8-.4s-.4-.4-1.1-.5a3,3,0,0,1-2.1-.9,3.4,3.4,0,0,1-.6-2.2l-.1-2.6-.4-11.1-.1-4.9a9.43,9.43,0,0,1,.4-3.4,2.17,2.17,0,0,1,1.5-1.3l.9-.2c.3-.1.4-.2.4-.5s-.1-.4-.4-.4H171a12.17,12.17,0,0,1-2.1.1h-.7a4.4,4.4,0,0,0-.9-.1c-.3,0-.4,0-.5.2a3.77,3.77,0,0,0-.5.8L156.7,222l-.2.4-.2.6c-.1.3-.2.4-.3.4s-.2-.2-.3-.5l-1-2.1-8.5-18.4-.2-.5c-.4-.9-.9-1.3-1.5-1.3a2.81,2.81,0,0,0-.8.1h-4.2c-.3,0-.5.1-.5.4s.2.4.6.5a4.24,4.24,0,0,1,3.2,2.2,12.33,12.33,0,0,1,1,5.4q0,1.65-.3,8.1Z"/><path class="a" d="M179.5,224.78c0,1.6-.5,2.6-1.5,2.9l-.8.2c-.4.1-.5.3-.5.5s.2.4.7.4a5.94,5.94,0,0,0,1.1-.1,32.72,32.72,0,0,1,5.1-.2,57.3,57.3,0,0,1,6.5.4,10.36,10.36,0,0,0,1.6.1,5.49,5.49,0,0,0,4.5-2.2,5.39,5.39,0,0,0,1.5-3.2c0-.4-.1-.5-.4-.5s-.3.1-.5.4c-1.5,2.4-5,3.6-10.3,3.6a7.3,7.3,0,0,1-3.2-.4c-.4-.3-.6-1-.6-2.2v-8.2c0-.4.1-.7.3-.8a3.47,3.47,0,0,1,1.3-.2h4.5a4.94,4.94,0,0,1,2.5.5,2.64,2.64,0,0,1,1,1.9l.1.6c.1.3.2.4.5.4s.4-.2.4-.5v-.6a20.08,20.08,0,0,1-.1-2.5c0-1.1.1-2.3.2-3.6v-.4c0-.4-.1-.5-.4-.6a.47.47,0,0,0-.5.5,4.35,4.35,0,0,1-.6,1.7,3.77,3.77,0,0,1-1.4.6,16.23,16.23,0,0,1-3.4.2h-3.2a2.33,2.33,0,0,1-1.1-.2,2,2,0,0,1-.2-1.1v-8.3c0-.7.1-1.2.4-1.4a2.75,2.75,0,0,1,1.6-.3h3.2a19.71,19.71,0,0,1,4.3.3,2.26,2.26,0,0,1,1.6,1.2,2.54,2.54,0,0,1,.2,1.2v.5c0,.4.1.6.4.6a.55.55,0,0,0,.5-.3,8.81,8.81,0,0,0,.2-1.5l.1-1.2a9,9,0,0,1,.2-1.6c0-.2.1-.3.1-.5,0-.4-.2-.6-.7-.6a2.81,2.81,0,0,0-.8.1c-.2,0-.7.1-1.5.1l-2.9.1c-1.3.1-2.8.1-4.4.1a69.46,69.46,0,0,1-7-.3,7.6,7.6,0,0,0-1.4-.1q-.9,0-.9.6c0,.3.2.4.6.4a2.69,2.69,0,0,1,2.5,1,8.69,8.69,0,0,1,.6,3.9v18.6Z"/><path class="a" d="M205.5,209c0-.6.1-.9.4-.9a.37.37,0,0,1,.3.1l.2.2,17.2,19.7.5.5a.76.76,0,0,0,.5.2c.3,0,.5-.1.6-.5a16.48,16.48,0,0,0,.1-2.8v-20.6a5.83,5.83,0,0,1,.4-2.7,2.36,2.36,0,0,1,1.6-1c.3-.1.4-.2.4-.4s-.2-.4-.6-.4a4.14,4.14,0,0,0-1,.1,11.52,11.52,0,0,1-2,.1c-1.6,0-2.8,0-3.8-.1-.4,0-.7-.1-.9-.1-.4,0-.6.1-.6.4s.2.4.6.5a5.3,5.3,0,0,1,2.9,1.1,3.88,3.88,0,0,1,1,2.5l.2,4.7v12.9c0,.2-.1.4-.2.4s-.3-.2-.6-.5l-18.8-21.3a1.37,1.37,0,0,0-1-.6h-3.6c-.3,0-.4.1-.4.4s.2.4.6.5a4.56,4.56,0,0,1,3.3,2.3,11.16,11.16,0,0,1,1.1,5.6v13.9a6.47,6.47,0,0,1-.6,3.2A4.13,4.13,0,0,1,201,228c-.4.1-.6.3-.6.5s.2.4.6.4a3.22,3.22,0,0,0,.8-.1,7.57,7.57,0,0,1,1.5-.1h1l2.1.1a17.36,17.36,0,0,0,1.8.1h.6c.3,0,.4-.1.4-.4s-.2-.5-.7-.5a4.21,4.21,0,0,1-2.2-.8,2.81,2.81,0,0,1-.7-1.9l-.1-1.5V209Z"/><path class="a" d="M234.6,226.87a2.61,2.61,0,0,1-1.8,1c-.4.1-.6.2-.6.5s.2.5.7.5c.3,0,.7-.1,1.2-.1,1.1-.1,2.3-.2,3.8-.2,1.3,0,2.9.1,4.8.2a15.76,15.76,0,0,0,1.9.1,14.83,14.83,0,0,0,8.2-2.4,12.9,12.9,0,0,0,4.7-5.1,15.49,15.49,0,0,0,1.7-7.1,13.34,13.34,0,0,0-3.8-9.8q-4.2-4.2-12.6-4.2a22.62,22.62,0,0,0-2.7.1l-1.9.2a28.25,28.25,0,0,1-3.2.1h-1.4l-1.6-.1c-.4,0-.5.1-.5.4s.2.4.7.4a3.16,3.16,0,0,1,2.3,1.1,4.93,4.93,0,0,1,.7,3v18.4A10.08,10.08,0,0,1,234.6,226.87Zm3.5-23a2.46,2.46,0,0,1,.5-1.7c.6-.5,2-.7,4.1-.7a13,13,0,0,1,7.7,2.3,12.38,12.38,0,0,1,4.1,5.1A16.74,16.74,0,0,1,256,216c0,4.7-1.6,8-4.7,10a11.56,11.56,0,0,1-6.3,1.8,15.76,15.76,0,0,1-2.8-.3,16.31,16.31,0,0,1-2.8-.7,1.71,1.71,0,0,1-1.2-1.7v-21.2Z"/><path class="a" d="M279,227.78l-.6.1c-.3.1-.5.2-.5.4s.2.4.5.4a1.76,1.76,0,0,0,.6-.1,28.53,28.53,0,0,1,3.6-.1,35.64,35.64,0,0,1,3.8.1h.8q.6,0,.6-.3c0-.3-.2-.4-.6-.5a4.24,4.24,0,0,1-2.6-1,9.09,9.09,0,0,1-1.6-3.1l-.4-1.1-8.8-22.5q-.15-.6-.6-.6t-.6.6l-10.5,23.4-.6,1.3a17.39,17.39,0,0,1-1.1,1.8c-.5.6-.8.9-1.1,1l-.8.2c-.2.1-.3.2-.3.4s.2.4.6.4a7.47,7.47,0,0,0,1.1-.1h3.2l2,.1h.7q.6,0,.6-.3c0-.2-.2-.4-.6-.5a4.42,4.42,0,0,1-1.9-.7,2,2,0,0,1-.5-1.4,8.85,8.85,0,0,1,.9-3.1l1.3-3c.4-.9.7-1.5,1-1.6s.9-.2,1.9-.2h7.4a3.32,3.32,0,0,1,1.4.2c.2.1.4.5.7,1.3l1,2.7a16.76,16.76,0,0,1,1.2,4.3C280,227.18,279.7,227.58,279,227.78Zm-3.9-11.9h-6.8c-.6,0-.9-.2-.9-.5a2.71,2.71,0,0,1,.3-.8l4-8.9c.1-.3.2-.4.3-.4s.4.2.5.7l.2.4,3.2,8.1.1.4a1.09,1.09,0,0,1,.1.5C276.2,215.68,275.8,215.87,275.1,215.87Z"/><path class="a" d="M313,210.18a8.75,8.75,0,0,1-2-.2,1.09,1.09,0,0,0-.5-.1c-.3,0-.5.1-.5.3s.4.6,1.4.8a10.8,10.8,0,0,0,3.2.4,12.2,12.2,0,0,0,7-2.3,10,10,0,0,0,4.4-8.5,8.55,8.55,0,0,0-3.6-7.2,15.12,15.12,0,0,0-9.3-2.8c-.7,0-1.7,0-2.8.1q-3.3.3-5.1.3c-.8,0-1.7-.1-2.9-.2a8.17,8.17,0,0,0-1.4-.1c-.7,0-1.1.2-1.1.6s.2.5.7.6c1.8.2,3,.8,3.4,1.8s.7,3.4.7,7.3v16.7a24.94,24.94,0,0,1-.8,7.5,3.43,3.43,0,0,1-2.9,2.4q-.9.15-.9.6c0,.4.2.5.7.5a11,11,0,0,0,1.6-.1,15.57,15.57,0,0,1,2.4-.1h2.1l2,.1a21.91,21.91,0,0,1,2.9.1,15.26,15.26,0,0,0,1.8.1c.7,0,1-.2,1-.7,0-.3-.3-.5-.9-.5a8.43,8.43,0,0,1-2.3-.4c-1.4-.4-2.3-1.7-2.5-3.9l-.1-2.3v-26.4a2.2,2.2,0,0,1,.4-1.6,2.08,2.08,0,0,1,1.5-.4,11.65,11.65,0,0,1,7.9,2.7,8.64,8.64,0,0,1,3.1,6.9,7.54,7.54,0,0,1-2.4,5.8A8.4,8.4,0,0,1,313,210.18Z"/><path class="a" d="M354.6,228.58h.8q.6,0,.6-.3c0-.3-.2-.4-.6-.5a4.24,4.24,0,0,1-2.6-1,9.09,9.09,0,0,1-1.6-3.1l-.4-1.1-8.8-22.5q-.15-.6-.6-.6t-.6.6l-10.6,23.4-.6,1.3a17.39,17.39,0,0,1-1.1,1.8c-.5.6-.8.9-1.1,1l-.8.2c-.2.1-.3.2-.3.4s.2.4.6.4a7.47,7.47,0,0,0,1.1-.1h3.2l2,.1h.7q.6,0,.6-.3c0-.2-.2-.4-.6-.5a4.42,4.42,0,0,1-1.9-.7,2,2,0,0,1-.5-1.4,8.85,8.85,0,0,1,.9-3.1l1.3-3c.4-.9.7-1.5,1-1.6s.9-.2,1.9-.2H344a3.32,3.32,0,0,1,1.4.2c.2.1.4.5.7,1.3l1,2.7a16.76,16.76,0,0,1,1.2,4.3c0,.8-.3,1.3-1,1.4l-.6.1c-.3.1-.5.2-.5.4s.2.4.5.4a1.76,1.76,0,0,0,.6-.1,28.53,28.53,0,0,1,3.6-.1C352.6,228.48,353.9,228.58,354.6,228.58Zm-11.3-12.7h-6.8c-.6,0-.9-.2-.9-.5a2.71,2.71,0,0,1,.3-.8l4-8.9c.1-.3.2-.4.3-.4s.4.2.5.7l.2.4,3.2,8.1.1.4a1.09,1.09,0,0,1,.1.5C344.3,215.68,344,215.87,343.3,215.87Z"/><path class="a" d="M345.2,197.48q.45,0,1.2-.9a2.53,2.53,0,0,0,.7-1.4,2.38,2.38,0,0,0-.8-1.3c-.5-.6-.9-.8-1.2-.8s-.7.3-1.2.9a2.27,2.27,0,0,0-.7,1.4,2.93,2.93,0,0,0,.8,1.4A2.57,2.57,0,0,0,345.2,197.48Z"/><path class="a" d="M337.7,197.48c.3,0,.7-.3,1.1-.9a3.53,3.53,0,0,0,.7-1.4,2.38,2.38,0,0,0-.8-1.3c-.5-.6-.9-.8-1.1-.8s-.7.3-1.2.9a2.27,2.27,0,0,0-.7,1.4,2.93,2.93,0,0,0,.8,1.4A2.57,2.57,0,0,0,337.7,197.48Z"/><path class="a" d="M357.2,201.18a2.69,2.69,0,0,1,2.5,1,8.69,8.69,0,0,1,.6,3.9v18.6c0,1.6-.5,2.6-1.5,2.9l-.8.2c-.4.1-.5.3-.5.5s.2.4.7.4a5.94,5.94,0,0,0,1.1-.1,32.72,32.72,0,0,1,5.1-.2,57.3,57.3,0,0,1,6.5.4,10.36,10.36,0,0,0,1.6.1,5.49,5.49,0,0,0,4.5-2.2,5.39,5.39,0,0,0,1.5-3.2c0-.4-.1-.5-.4-.5s-.3.1-.5.4c-1.5,2.4-5,3.6-10.3,3.6a7.3,7.3,0,0,1-3.2-.4c-.4-.3-.6-1-.6-2.2v-8.2c0-.4.1-.7.3-.8a3.47,3.47,0,0,1,1.3-.2h4.5a4.94,4.94,0,0,1,2.5.5,2.64,2.64,0,0,1,1,1.9l.1.6c.1.3.2.4.5.4s.4-.2.4-.5v-.6a20.08,20.08,0,0,1-.1-2.5c0-1.1.1-2.3.2-3.6V211c0-.4-.1-.5-.4-.6a.47.47,0,0,0-.5.5,4.35,4.35,0,0,1-.6,1.7,3.77,3.77,0,0,1-1.4.6,16.23,16.23,0,0,1-3.4.2h-3.2a2.33,2.33,0,0,1-1.1-.2,2,2,0,0,1-.2-1.1v-8.3c0-.7.1-1.2.4-1.4a2.75,2.75,0,0,1,1.6-.3h3.2a19.71,19.71,0,0,1,4.3.3,2.26,2.26,0,0,1,1.6,1.2,2.54,2.54,0,0,1,.2,1.2v.5c0,.4.1.6.4.6a.55.55,0,0,0,.5-.3,8.81,8.81,0,0,0,.2-1.5l.1-1.2a9,9,0,0,1,.2-1.6c0-.2.1-.3.1-.5,0-.4-.2-.6-.7-.6a2.81,2.81,0,0,0-.8.1c-.2,0-.7.1-1.5.1l-2.9.1c-1.3.1-2.8.1-4.4.1a69.46,69.46,0,0,1-7-.3,7.6,7.6,0,0,0-1.4-.1q-.9,0-.9.6C356.6,201.08,356.8,201.18,357.2,201.18Z"/><path class="a" d="M378.9,201.18a3.25,3.25,0,0,0,1.3.3,2.72,2.72,0,0,1,1.6.8,8.78,8.78,0,0,1,1.3,2.3l10.4,24c.3.7.6,1,.9,1s.5-.3.8-1l10.2-23.8.6-1.3a4,4,0,0,1,2.2-2.4c.3-.1.4-.2.4-.4a.37.37,0,0,0-.4-.4h-3.9a17.35,17.35,0,0,1-1.8-.1h-.6c-.4,0-.7.1-.7.4s.4.4,1.1.6a2.25,2.25,0,0,1,1.2.5,1.33,1.33,0,0,1,.3,1c0,1.3-1,4.3-2.9,8.8l-4.5,10.7-.3.8c-.4.8-.6,1.2-.7,1.2s-.3-.2-.5-.7l-7.9-18.1a8.11,8.11,0,0,1-.9-2.9,1,1,0,0,1,.2-.7,3.83,3.83,0,0,1,1.1-.5c.3-.1.4-.3.4-.4,0-.3-.2-.4-.6-.4h-.6a7.17,7.17,0,0,1-1.3.1h-6c-.4,0-.6.1-.6.4A.22.22,0,0,0,378.9,201.18Z"/><path class="a" d="M422.6,218c.2.1.4.5.7,1.3l1,2.7a16.76,16.76,0,0,1,1.2,4.3c0,.8-.3,1.3-1,1.4l-.6.1c-.3.1-.5.2-.5.4s.2.4.5.4a1.76,1.76,0,0,0,.6-.1,28.53,28.53,0,0,1,3.6-.1,35.64,35.64,0,0,1,3.8.1h.8q.6,0,.6-.3c0-.3-.2-.4-.6-.5a4.24,4.24,0,0,1-2.6-1,9.09,9.09,0,0,1-1.6-3.1l-.4-1.1L419.3,200q-.15-.6-.6-.6t-.6.6l-10.5,23.4-.6,1.3a17.39,17.39,0,0,1-1.1,1.8c-.5.6-.8.9-1.1,1l-.8.2c-.2.1-.3.2-.3.4s.2.4.6.4a7.47,7.47,0,0,0,1.1-.1h3.2l2,.1h.7q.6,0,.6-.3c0-.2-.2-.4-.6-.5a4.42,4.42,0,0,1-1.9-.7,2,2,0,0,1-.5-1.4,8.85,8.85,0,0,1,.9-3.1l1.3-3c.4-.9.7-1.5,1-1.6s.9-.2,1.9-.2h7.4C421.9,217.87,422.4,217.87,422.6,218Zm-8.2-2.1h-.6c-.6,0-.9-.2-.9-.5a2.71,2.71,0,0,1,.3-.8l4-8.9c.1-.3.2-.4.3-.4s.4.2.5.7l.2.4,3.2,8.1.1.4a1.09,1.09,0,0,1,.1.5c0,.3-.3.5-1,.5h-6.2Z"/><path class="a" d="M224.8,174.78v-21.6H213.9v-7.7h10.9v-.7c0-7.7-3.5-13.3-28-9.1l-40.2,7.2L133.5,175l55.5-9.8C205.7,162.18,220.3,161.58,224.8,174.78Z"/><path class="a" d="M251.2,144.48c-12.6,12.6-18.8,19.8-18.8,30.2,4.8-13.8,20.1-12.6,38.2-9.1l53.3,9.2-23.1-32-40.6-7.2Z"/><path class="a" d="M252.2,124.08c-4.9,4.9-13.5,12.7-17.5,21.4h8.9l10.3-10.2c9.4-9.4,16.7-16.7,19.8-25.7a32.44,32.44,0,0,0,1.7-16.5c-.2-1.8-1-4.4-1-3.8-.9,10.3-3.8,16.4-18.7,31.4Z"/><path class="a" d="M224.2,60.88c5.5-5.5,19.3-17.9,19.3-28.6V20.38c0-.1-.2-.1-.2,0-1,8-2.9,11.5-22.5,31.1l-19.3,19.3c-10.2,10.2-18.5,21.1-17.4,33.3.6,6.8,2.9,10.6,4.4,11.6.7.5.6.2.4-.3-5.9-13.3,8.1-27.2,15.1-34.2Z"/><path class="a" d="M243.6,52.58V40.68c0-.1-.2-.1-.2,0-1,8-2.9,11.5-22.5,31.1l-17.9,18c-6.5,6.5-12.5,13.4-12.2,24.4.2,6.8,3.6,12.4,8.7,13.7,2.1.5,2,.2,1.5,0-7.2-3.4-6.7-16.5,5-28.1l18.4-18.4C229.7,75.78,243.6,63.38,243.6,52.58Z"/><path class="a" d="M183,94.58c.9-10.3,3.8-16.4,18.7-31.4l22.5-22.6c5.5-5.5,19.3-17.9,19.3-28.6V.07c0-.1-.2-.1-.2,0-1,8-2.9,11.5-22.5,31.1l-17.3,17.4c-9.4,9.4-16.7,16.7-19.8,25.7a32.44,32.44,0,0,0-1.7,16.5C182.2,92.58,183,95.18,183,94.58Z"/><path class="a" d="M232.7,165a25.93,25.93,0,0,1,4.7-11.8h-4.9V165C232.4,165.08,232.7,165.08,232.7,165Z"/><path class="a" d="M255.8,100.18l-5.7,5.7c-8.8,8.7-17.6,18.5-17.6,27.5v12c0,.1.2.1.3,0,1-8.8,5.2-14.5,17.9-27.2l5.3-5.3c10.2-10.2,18.5-21.1,17.4-33.3-.6-6.8-2.9-10.6-4.4-11.6-.7-.5-.6-.2-.4.3C274.4,81.68,260.4,95.58,255.8,100.18Z"/><path class="a" d="M232.4,124.58c0,.1.2.1.3,0,1-8.3,5.8-14.7,16.7-25.6l5.2-5.2c6.5-6.5,12.4-13.3,12.1-24.3-.2-6.8-3.6-12.4-8.7-13.7-2.1-.5-2-.2-1.5,0,7.2,3.4,6.7,16.5-5,28.1l-6.4,6.4c-4.1,4.2-12.7,13.5-12.7,22.1Z"/><path class="a" d="M319.7,152.87h.2c.3,0,.4.2.4.6v3.1c0,.4,0,.7-.1.8a1.38,1.38,0,0,1-.4.3.1.1,0,0,0-.1.1c0,.1.1.1.2.1h1.8c.1,0,.2,0,.2-.1s-.1-.1-.2-.1c-.3,0-.5-.1-.5-.2s-.1-.3-.1-.6v-1.4h.6a.37.37,0,0,1,.3.1l.1.1,1,1.4a1.71,1.71,0,0,0,1.2.8c.4,0,.6-.1.6-.2s0-.1-.1-.1h-.1c-.3,0-.5-.3-.9-.7l-.1-.2-1-1.5a1.48,1.48,0,0,0,.9-1.3c0-.9-.6-1.4-1.8-1.4h-1.7c-.1,0-.2,0-.2.1C319.5,152.78,319.6,152.87,319.7,152.87Zm1.6.1a1.22,1.22,0,0,1,.9.3.91.91,0,0,1,.4.8c0,.7-.3,1-1,1H321v-1.8C320.9,153.08,321.1,153,321.3,153Z"/><path class="a" d="M321.8,159.87a4.22,4.22,0,0,0,3.2-1.3,4.38,4.38,0,0,0,1.3-3.2,4.08,4.08,0,0,0-1.3-3.2,4.38,4.38,0,0,0-3.2-1.3,4.31,4.31,0,0,0-3.5,1.6,4.64,4.64,0,0,0,0,6A5.27,5.27,0,0,0,321.8,159.87Zm-2.9-7.5a4.1,4.1,0,1,1-1.2,2.9A4,4,0,0,1,318.9,152.37Z"/><path class="a" d="M56.7,284.68c-2.5-.5-4.2-1.1-5-1.9s-1.9-2.8-3.1-6l-.9-2.2-17.1-43.9c-.3-.8-.7-1.2-1.1-1.2s-.8.4-1.2,1.2L7.8,276.18l-1.2,2.6a18.6,18.6,0,0,1-2.2,3.5c-.9,1.1-1.6,1.8-2.2,1.9l-1.5.4a.8.8,0,0,0-.7.9c0,.5.4.7,1.1.7.1,0,.9-.1,2.2-.2.4,0,1-.1,1.8-.1,1.7,0,3.1,0,4.4.1l3.8.2h1.4c.8,0,1.1-.2,1.1-.7s-.4-.8-1.2-.9a9.74,9.74,0,0,1-3.7-1.4,3.67,3.67,0,0,1-.9-2.7,17,17,0,0,1,1.8-6l2.6-5.9c.8-1.8,1.4-2.9,1.9-3.2a8.65,8.65,0,0,1,3.7-.5H34.4a6.73,6.73,0,0,1,2.7.3,6.45,6.45,0,0,1,1.3,2.5l2,5.3q2.4,6.3,2.4,8.4a2.47,2.47,0,0,1-2,2.7l-1.2.3c-.7.1-1,.4-1,.8s.3.8,1,.8a7.38,7.38,0,0,0,1.2-.2,51.37,51.37,0,0,1,6.9-.2c3.5,0,6,.1,7.4.2a11.45,11.45,0,0,0,1.5.1c.7,0,1.1-.2,1.1-.7C58,285.18,57.6,284.78,56.7,284.68Zm-23.3-23.2H20.3c-1.2,0-1.8-.3-1.8-1A7.93,7.93,0,0,1,19,259l7.8-17.2c.2-.5.5-.8.6-.8.4,0,.7.5,1,1.3l.3.8,6.3,15.8.2.7a5.07,5.07,0,0,1,.2.9C35.4,261.08,34.7,261.48,33.4,261.48Z"/><path class="a" d="M75.3,244.78c-1.4,0-2.7,0-3.9.1l-2.8.3c-1.1.1-2.7.1-4.7.1H61.8l-2.4-.1c-.5,0-.8.2-.8.6s.3.6,1,.6A4.78,4.78,0,0,1,63,248a7.34,7.34,0,0,1,1,4.4v26.9a10.46,10.46,0,0,1-.6,4.4,3.85,3.85,0,0,1-2.6,1.5c-.6.1-.8.3-.8.7s.3.7,1,.7a14.93,14.93,0,0,0,1.7-.2,44.41,44.41,0,0,1,5.5-.3c2,0,4.3.1,7,.3,1.3.1,2.2.1,2.7.1a22.27,22.27,0,0,0,12-3.4,18.67,18.67,0,0,0,6.8-7.4,22.32,22.32,0,0,0,2.4-10.3,19.44,19.44,0,0,0-5.6-14.3C89.5,246.78,83.4,244.78,75.3,244.78Zm12.5,37.4a17,17,0,0,1-9.2,2.6,24.29,24.29,0,0,1-4.2-.4,23.17,23.17,0,0,1-4-1,2.54,2.54,0,0,1-1.8-2.5v-30.7a3,3,0,0,1,.8-2.4c.9-.7,2.8-1,6-1a18.57,18.57,0,0,1,11.2,3.3,17.54,17.54,0,0,1,5.9,7.4,25,25,0,0,1,2.2,10.3Q94.7,277.83,87.8,282.18Z"/><path class="a" d="M140.6,246.18a.73.73,0,0,0,.6-.6c0-.3-.2-.5-.6-.5h-5.7c-.3,0-1.2,0-2.7-.1h-.9c-.6,0-1,.2-1,.6s.5.6,1.6.8a3.9,3.9,0,0,1,1.8.7,1.81,1.81,0,0,1,.4,1.4q0,2.85-4.2,12.9l-6.5,15.5-.5,1.1c-.5,1.1-.9,1.7-1.1,1.7s-.5-.3-.8-1l-11.5-26.3a13.28,13.28,0,0,1-1.3-4.2,1.61,1.61,0,0,1,.3-1.1,4.68,4.68,0,0,1,1.5-.8q.6-.3.6-.6c0-.4-.3-.6-.8-.6a2.81,2.81,0,0,0-.8.1,15.76,15.76,0,0,1-1.9.1h-4.8a18,18,0,0,1-3-.1c-.4,0-.7-.1-.9-.1-.6,0-.8.2-.8.6a.55.55,0,0,0,.3.5,13.35,13.35,0,0,0,1.8.4,4.56,4.56,0,0,1,2.4,1.2,12.31,12.31,0,0,1,1.9,3.4l15.1,35c.4,1,.9,1.5,1.3,1.5s.8-.5,1.2-1.5l14.8-34.7.8-1.9A7,7,0,0,1,140.6,246.18Z"/><path class="a" d="M147.7,280.58q0,3.6-2.1,4.2l-1.1.3c-.5.1-.8.4-.8.7s.3.6,1,.6c.3,0,.8-.1,1.5-.2a55.93,55.93,0,0,1,7.4-.4c2.5,0,5.6.2,9.4.5a21.05,21.05,0,0,0,2.3.1,8.15,8.15,0,0,0,6.6-3.2c1.5-1.8,2.2-3.3,2.2-4.6,0-.5-.2-.8-.6-.8-.2,0-.4.2-.7.5-2.2,3.5-7.2,5.3-15,5.3-2.5,0-4-.2-4.6-.6s-.9-1.5-.9-3.2v-12a1.36,1.36,0,0,1,.5-1.2,4.09,4.09,0,0,1,1.9-.3h6.6a6.5,6.5,0,0,1,3.6.7,3.9,3.9,0,0,1,1.4,2.7l.2.8a.77.77,0,0,0,.8.7c.4,0,.6-.2.6-.7a3.44,3.44,0,0,0-.1-.9c-.1-1.2-.2-2.4-.2-3.6a52.9,52.9,0,0,1,.3-5.3V260c0-.5-.2-.8-.6-.8a.76.76,0,0,0-.8.7,5.67,5.67,0,0,1-.9,2.5c-.3.4-1,.6-2.1.9a30.45,30.45,0,0,1-5,.4h-4.6q-1.35,0-1.5-.3c-.2-.2-.3-.7-.3-1.7v-12a3.36,3.36,0,0,1,.5-2.1,4.27,4.27,0,0,1,2.4-.5h4.7a29.54,29.54,0,0,1,6.3.4,3.11,3.11,0,0,1,2.3,1.8,5.84,5.84,0,0,1,.4,1.8v.8q0,.9.6.9a.75.75,0,0,0,.7-.5,12.31,12.31,0,0,0,.3-2.2l.1-1.8c.1-1.3.2-2.1.2-2.4a2,2,0,0,0,.1-.7c0-.6-.3-.9-1-.9a5.74,5.74,0,0,0-1.2.1c-.3,0-1,.1-2.1.1l-4.2.2c-1.9.1-4,.1-6.4.1a99.87,99.87,0,0,1-10.3-.5,15.56,15.56,0,0,0-2-.1c-.9,0-1.3.3-1.3.8s.3.6.9.6c1.8,0,3,.5,3.7,1.5s.9,2.9.9,5.7v27.8Z"/><path class="a" d="M218,245.58c0-.4-.3-.6-.8-.6-.3,0-.8.1-1.5.2a21.13,21.13,0,0,1-3,.2c-2.3,0-4.1-.1-5.5-.2a7.17,7.17,0,0,0-1.3-.1q-.9,0-.9.6c0,.4.3.6.9.7a8,8,0,0,1,4.2,1.6,5.49,5.49,0,0,1,1.5,3.6l.4,6.9v18.8c0,.4-.1.5-.3.6s-.4-.2-.8-.7l-27.4-31.1a2,2,0,0,0-1.5-.9h-1.6l-2-.1h-1.7c-.4,0-.7.2-.7.6s.3.6.8.7a6.08,6.08,0,0,1,4.7,3.4,16.9,16.9,0,0,1,1.6,8.1v20.3a9.52,9.52,0,0,1-.9,4.7,6,6,0,0,1-3.4,2.3c-.6.2-.9.4-.8.7s.3.6.8.6a5.38,5.38,0,0,0,1.1-.1,15.48,15.48,0,0,1,2.2-.1l1.4-.1,3,.2a19.6,19.6,0,0,1,2.6.2c.3,0,.6.1.9.1a.53.53,0,0,0,.6-.6c0-.4-.3-.7-1-.8a6.17,6.17,0,0,1-3.2-1.1,4.25,4.25,0,0,1-1-2.7l-.1-2.1v-21.8c0-.9.2-1.3.6-1.3a.52.52,0,0,1,.4.2l.3.3,25.1,28.8.7.8c.2.2.4.2.7.3.5,0,.7-.2.8-.7a35.86,35.86,0,0,0,.1-4.1v-25l.1-2v-3.3a8.69,8.69,0,0,1,.6-3.9,3.59,3.59,0,0,1,2.4-1.5C217.8,246.08,218,245.87,218,245.58Z"/><path class="a" d="M245.7,285.08q-3.75-.6-3.9-4.2v-30.3a3.61,3.61,0,0,1,.3-1.8,2.73,2.73,0,0,1,1.7-.4h8.4a6.58,6.58,0,0,1,3.4.6c.6.4,1,1.3,1.3,2.8.1.6.4.9.7.9s.6-.4.6-.9c0-.3-.1-.8-.2-1.5a14.22,14.22,0,0,1-.2-2.6,4,4,0,0,0-.3-2.1,3.45,3.45,0,0,0-2-.4H223.4c-.7,0-1.1.1-1.3.4a3.61,3.61,0,0,0-.3,1.8,17,17,0,0,1-.4,3.5,22.3,22.3,0,0,0-.4,2.3c0,.5.2.8.5.8s.6-.4.8-1.1a7.5,7.5,0,0,1,1.7-3.7,5.41,5.41,0,0,1,3.5-1h7.9c.8,0,1.2.1,1.4.3a2.21,2.21,0,0,1,.3,1.4v30.4a6,6,0,0,1-.8,3.5,5,5,0,0,1-3.1,1.3c-.7.1-1,.3-1,.6s.3.6.9.6c.2,0,.9-.1,2-.2a13.42,13.42,0,0,1,2.1-.1h4.5a16.44,16.44,0,0,1,2.7.1c.7.1,1.2.2,1.5.2.6,0,.8-.2.8-.6C246.8,285.48,246.4,285.28,245.7,285.08Z"/><path class="a" d="M265.1,283.58c-.4.8-1.4,1.3-2.9,1.6-.6.1-.9.3-.9.7s.3.6.8.6a7.08,7.08,0,0,0,1.4-.1l3.5-.2,4.3.1a26.42,26.42,0,0,1,3.2.1,4.91,4.91,0,0,0,1.1.1c.6,0,.9-.2.9-.7s-.5-.6-1.5-.7a7,7,0,0,1-2.8-.9,4.26,4.26,0,0,1-1.5-2.2,20.31,20.31,0,0,1-.5-5.5v-22.4c0-4.2.7-6.6,2.2-7.1l1.6-.6c.5-.2.8-.4.8-.8s-.3-.6-.8-.6h-.7l-2,.2c-1.1.1-2.3.1-3.8.1a45.11,45.11,0,0,1-5.8-.3h-.5q-.9,0-.9.6c0,.3.3.6,1,.7,1.8.3,3.1.9,3.6,1.7s.8,2.5.8,5v25.6C265.8,281.08,265.6,282.78,265.1,283.58Z"/><path class="a" d="M295.2,262.28c-3.8-1.3-6.1-2.1-7.1-2.6a7.24,7.24,0,0,1-2.7-2.3,7.14,7.14,0,0,1-1.4-4.3,5.73,5.73,0,0,1,2.2-4.7,7.59,7.59,0,0,1,5.4-1.9,13.24,13.24,0,0,1,7.3,2.1,10.65,10.65,0,0,1,4.4,5.3c.3,1,.6,1.4,1,1.4s.6-.3.6-.9c0-.2-.1-.6-.1-1.2l-.5-3.1a23.81,23.81,0,0,1-.4-3c0-1-.2-1.5-.7-1.5-.2,0-.3,0-.3.1l-.4.4a1.08,1.08,0,0,1-.7.3.75.75,0,0,1-.5-.1l-2.1-.9a14.53,14.53,0,0,0-5.4-.9,14,14,0,0,0-9.3,3,9.87,9.87,0,0,0-3.6,7.9,9.12,9.12,0,0,0,2.8,7c1.8,1.8,5,3.5,9.4,4.9s6.8,2.5,7.7,3.3a7.26,7.26,0,0,1,2.6,5.6,7.43,7.43,0,0,1-2.8,5.9,10.36,10.36,0,0,1-6.9,2.4,12.3,12.3,0,0,1-7.5-2.5,11.77,11.77,0,0,1-4.5-6.2c-.3-1-.6-1.4-1-1.5s-.6.3-.6.9a17,17,0,0,0,.8,3.8,19.8,19.8,0,0,1,.7,2.7,16.3,16.3,0,0,0,.5,2.1c.1.3.4.5.7.8a12,12,0,0,0,4,1.5,24,24,0,0,0,5.1.7,15.57,15.57,0,0,0,10.4-3.5,11.65,11.65,0,0,0,4.1-9.1C306.2,268.68,302.5,264.68,295.2,262.28Z"/><path class="a" d="M346,247.78a4,4,0,0,0-.3-2.1,3.45,3.45,0,0,0-2-.4H311.6c-.7,0-1.1.1-1.3.4a3.61,3.61,0,0,0-.3,1.8,17,17,0,0,1-.4,3.5,22.3,22.3,0,0,0-.4,2.3c0,.5.2.8.5.8s.6-.4.8-1.1a7.5,7.5,0,0,1,1.7-3.7,5.41,5.41,0,0,1,3.5-1h7.9c.8,0,1.2.1,1.4.3a2.21,2.21,0,0,1,.3,1.4v30.4a6,6,0,0,1-.8,3.5,5,5,0,0,1-3.1,1.3c-.7.1-1,.3-1,.6s.3.6.9.6c.2,0,.9-.1,2-.2a13.42,13.42,0,0,1,2.1-.1h4.5a16.44,16.44,0,0,1,2.7.1c.7.1,1.2.2,1.5.2.6,0,.8-.2.8-.6s-.3-.6-1-.7q-3.75-.6-3.9-4.2v-30.3a3.61,3.61,0,0,1,.3-1.8,2.73,2.73,0,0,1,1.7-.4h8.4a6.58,6.58,0,0,1,3.4.6c.6.4,1,1.3,1.3,2.8.1.6.4.9.7.9s.6-.4.6-.9c0-.3-.1-.8-.2-1.5A12.94,12.94,0,0,1,346,247.78Z"/><path class="a" d="M363.3,285a7,7,0,0,1-2.8-.9,4.26,4.26,0,0,1-1.5-2.2,20.31,20.31,0,0,1-.5-5.5V254c0-4.2.7-6.6,2.2-7.1l1.6-.6c.5-.2.8-.4.8-.8s-.3-.6-.8-.6h-.7l-2,.2c-1.1.1-2.3.1-3.8.1a45.11,45.11,0,0,1-5.8-.3h-.5q-.9,0-.9.6c0,.3.3.6,1,.7,1.8.3,3.1.9,3.6,1.7s.9,2.5.9,5v25.7c0,2.5-.2,4.2-.7,5s-1.4,1.3-2.9,1.6c-.6.1-.9.3-.9.7s.3.6.8.6a7.08,7.08,0,0,0,1.4-.1l3.5-.2,4.3.1a26.42,26.42,0,0,1,3.2.1,4.91,4.91,0,0,0,1.1.1c.6,0,.9-.2.9-.7S364.3,285.08,363.3,285Z"/><path class="a" d="M385.3,244.78c-1.4,0-2.7,0-3.9.1l-2.8.3c-1.1.1-2.7.1-4.7.1h-2.1l-2.4-.1c-.5,0-.8.2-.8.6s.3.6,1,.6A4.78,4.78,0,0,1,373,248a7.34,7.34,0,0,1,1,4.4v26.9a10.46,10.46,0,0,1-.6,4.4,3.85,3.85,0,0,1-2.6,1.5c-.6.1-.8.3-.8.7s.3.7,1,.7a14.93,14.93,0,0,0,1.7-.2,44.41,44.41,0,0,1,5.5-.3q3,0,6.9.3c1.3.1,2.2.1,2.7.1a22.27,22.27,0,0,0,12-3.4,18.67,18.67,0,0,0,6.8-7.4,22.32,22.32,0,0,0,2.4-10.3,19.44,19.44,0,0,0-5.6-14.3C399.6,246.78,393.5,244.78,385.3,244.78Zm12.5,37.4a17,17,0,0,1-9.2,2.6,24.29,24.29,0,0,1-4.2-.4,23.17,23.17,0,0,1-4-1,2.54,2.54,0,0,1-1.8-2.5v-30.7a3,3,0,0,1,.8-2.4c.9-.7,2.8-1,6-1a18.57,18.57,0,0,1,11.2,3.3,17.54,17.54,0,0,1,5.9,7.4,25,25,0,0,1,2.2,10.3Q404.7,277.83,397.8,282.18Z"/><path class="a" d="M445.1,278c-.2,0-.4.2-.7.5-2.2,3.5-7.2,5.3-15,5.3-2.5,0-4-.2-4.6-.6s-.9-1.5-.9-3.2V268a1.36,1.36,0,0,1,.5-1.2,4.31,4.31,0,0,1,2-.3H433a6.5,6.5,0,0,1,3.6.7,3.9,3.9,0,0,1,1.4,2.7l.2.8a.77.77,0,0,0,.8.7c.4,0,.6-.2.6-.7a3.45,3.45,0,0,0-.1-.9c-.1-1.2-.2-2.4-.2-3.6a52.9,52.9,0,0,1,.3-5.3v-.7c0-.5-.2-.8-.6-.8a.76.76,0,0,0-.8.7,5.67,5.67,0,0,1-.9,2.5c-.3.4-1,.6-2.1.9a30.09,30.09,0,0,1-4.9.4h-4.6q-1.35,0-1.5-.3c-.2-.2-.3-.7-.3-1.7v-12a3.36,3.36,0,0,1,.5-2.1,4.27,4.27,0,0,1,2.4-.5h4.7a29.54,29.54,0,0,1,6.3.4,3.11,3.11,0,0,1,2.3,1.8,5.84,5.84,0,0,1,.4,1.8v.8q0,.9.6.9a.75.75,0,0,0,.7-.5,12.32,12.32,0,0,0,.3-2.2l.1-1.8c.1-1.3.2-2.1.2-2.4a2,2,0,0,0,.1-.7c0-.6-.3-.9-1-.9a5.74,5.74,0,0,0-1.2.1c-.3,0-1,.1-2.1.1l-4.2.2c-1.9.1-4,.1-6.4.1a99.87,99.87,0,0,1-10.3-.5,15.56,15.56,0,0,0-2-.1c-.9,0-1.3.3-1.3.8s.3.6.9.6c1.8,0,3,.5,3.7,1.5s.9,2.9.9,5.7v27.1q0,3.6-2.1,4.2l-1.1.3c-.5.1-.8.4-.8.7s.3.6,1,.6c.3,0,.8-.1,1.6-.2a55.93,55.93,0,0,1,7.4-.4c2.5,0,5.6.2,9.4.5a22,22,0,0,0,2.3.1,8.15,8.15,0,0,0,6.6-3.2c1.5-1.8,2.2-3.3,2.2-4.6C445.7,278.18,445.5,278,445.1,278Z"/><path class="a" d="M160.6,318.68l-.8-.2a5.83,5.83,0,0,1-3.3-2l-9.5-10a1.2,1.2,0,0,1-.4-.8c0-.1.2-.3.4-.6l6.3-5.7c3.1-2.8,5.2-4.3,6.3-4.6.6-.1.9-.3.9-.5a.46.46,0,0,0-.5-.4,1.76,1.76,0,0,0-.6.1h-4.6a9.15,9.15,0,0,1-1.7-.1h-.5c-.4,0-.6.1-.6.4s.3.4.8.5c.9.2,1.3.5,1.3,1.1s-.6,1.5-1.8,2.6l-7.9,7-.3.2-.3.2c-.1,0-.2-.1-.2-.4v-6.9a6.87,6.87,0,0,1,.3-2.5,2.66,2.66,0,0,1,1.5-1.1c.3-.1.4-.3.4-.4s-.1-.3-.4-.3a4.4,4.4,0,0,0-.9.1h-3.1a21.91,21.91,0,0,1-2.9-.1c-.3,0-.5-.1-.7-.1s-.5.1-.5.4.2.3.5.4l.9.2a2.36,2.36,0,0,1,1.6,1,5.83,5.83,0,0,1,.4,2.7v15.6a12.18,12.18,0,0,1-.4,3.3,1.93,1.93,0,0,1-1.6,1.1c-.4,0-.5.1-.5.3s.2.4.6.4a6.61,6.61,0,0,0,1.1-.1h3.8a12.22,12.22,0,0,1,2.2.1c.5,0,.8.1,1,.1s.5-.1.4-.3-.2-.3-.6-.4a3,3,0,0,1-3.2-3.8v-6.7c0-.3.1-.4.3-.4a.76.76,0,0,1,.4.2l.4.4,9.8,10.1.3.3a1.61,1.61,0,0,0,1.1.5h2.4a6.22,6.22,0,0,1,1.6.1h.4c.4,0,.6-.1.6-.4C161,318.87,160.9,318.78,160.6,318.68Z"/><path class="a" d="M173.5,293.78a14.73,14.73,0,0,0-5.4,1,12.31,12.31,0,0,0-4.4,2.8,13.07,13.07,0,0,0-2.6,4.1,14.84,14.84,0,0,0-1,5,12.35,12.35,0,0,0,3.7,9.4,13.3,13.3,0,0,0,22.8-9.7,12,12,0,0,0-3.7-9.1A13.33,13.33,0,0,0,173.5,293.78Zm7.6,21.8a8.84,8.84,0,0,1-7,3.1,9.85,9.85,0,0,1-7.8-3.8,14,14,0,0,1-3.2-9.3,11.16,11.16,0,0,1,2.5-7.7,8.62,8.62,0,0,1,6.8-2.9,10.83,10.83,0,0,1,8.3,3.6,13.06,13.06,0,0,1,3.3,9.1A12.1,12.1,0,0,1,181.1,315.58Z"/><path class="a" d="M214.6,306.08a13.58,13.58,0,0,0-1.5.1h-5.4q-.6,0-.6.3c0,.3.3.4.7.5,1,.1,1.6.2,1.9.5a2.07,2.07,0,0,1,.5,1.5v4.1a4,4,0,0,1-.6,2.5,8,8,0,0,1-6.6,3,9.37,9.37,0,0,1-7.5-3.6,13.5,13.5,0,0,1-3-8.9,12.49,12.49,0,0,1,2.6-8.1,8.31,8.31,0,0,1,6.8-3.1,12.06,12.06,0,0,1,6.3,1.8,11.66,11.66,0,0,1,4.4,4.7c.1.2.2.3.4.3a.46.46,0,0,0,.4-.5,1.09,1.09,0,0,0-.1-.5c-.1-.5-.2-.9-.3-1.4l-.2-1.7a6.82,6.82,0,0,1-.1-1.2q0-.9-.3-.9a.37.37,0,0,0-.3.1l-.4.3a.49.49,0,0,1-.3.1.37.37,0,0,1-.3-.1,18.4,18.4,0,0,0-3.9-1.6,18.76,18.76,0,0,0-4.6-.6,12.67,12.67,0,0,0-9.3,3.8,13.28,13.28,0,0,0-3.7,9.6,12,12,0,0,0,12.5,12.5,15.12,15.12,0,0,0,7.7-2.1l1.2-.7a8.48,8.48,0,0,1,1.5-.7,1.21,1.21,0,0,0,.5-.1l.1-.3v-7.1a1.81,1.81,0,0,1,1.4-2c.4-.1.6-.2.6-.4A2,2,0,0,0,214.6,306.08Z"/><path class="a" d="M243.3,294.18a3.22,3.22,0,0,0-.8.1c-.3,0-1.2.1-2.5.1a9.15,9.15,0,0,1-1.7-.1,5.74,5.74,0,0,0-1.2-.1.37.37,0,0,0-.4.4.46.46,0,0,0,.5.4,2.57,2.57,0,0,1,2.2,1.2,6.75,6.75,0,0,1,.7,3.3V309c0,3.2-.7,5.6-2.2,7.2s-3.6,2.4-6.5,2.4c-3.2,0-5.6-1-6.9-2.9-1-1.3-1.5-3.6-1.5-6.7v-10.4a5.14,5.14,0,0,1,.4-2.5,1.62,1.62,0,0,1,1.4-.9c.4-.1.6-.2.6-.4s-.1-.3-.4-.3a3.44,3.44,0,0,0-.9.1,7.72,7.72,0,0,0-1,.1h-2.8a5.74,5.74,0,0,1-1.2-.1h-1.3c-.5,0-.7.1-.7.4s.2.3.5.4a3.48,3.48,0,0,1,2.2,1,4.59,4.59,0,0,1,.5,2.7v10.3a12.67,12.67,0,0,0,1.3,6.2,8.27,8.27,0,0,0,3.6,3.3,12.78,12.78,0,0,0,5.6,1.2,11.76,11.76,0,0,0,5-1,8.55,8.55,0,0,0,3.6-2.7,13.07,13.07,0,0,0,2-7.7v-9.1a10.4,10.4,0,0,1,.3-3.1,2.57,2.57,0,0,1,1.4-1.3c.3-.1.4-.3.4-.4C243.6,294.28,243.5,294.18,243.3,294.18Z"/><path class="a" d="M257,294a17.72,17.72,0,0,0-2.4.1l-1.7.2a22.74,22.74,0,0,1-2.9.1h-1.3l-1.4-.1c-.3,0-.5.1-.5.4s.2.3.6.4a2.65,2.65,0,0,1,2.1,1,4.91,4.91,0,0,1,.6,2.7v16.5a5.32,5.32,0,0,1-.4,2.7,2.42,2.42,0,0,1-1.6.9c-.3.1-.5.2-.5.4s.2.4.6.4a3.75,3.75,0,0,0,1-.1,32.81,32.81,0,0,1,3.4-.2c1.2,0,2.6.1,4.3.2a13.05,13.05,0,0,0,1.7.1,13.82,13.82,0,0,0,7.4-2.1,11,11,0,0,0,4.2-4.6,13.32,13.32,0,0,0,1.5-6.3,11.83,11.83,0,0,0-3.4-8.8C265.8,295.18,262,294,257,294Zm7.7,22.9a10.75,10.75,0,0,1-5.6,1.6,14.75,14.75,0,0,1-2.6-.3c-1-.2-1.8-.4-2.5-.6a1.59,1.59,0,0,1-1.1-1.5v-18.8c0-.8.2-1.3.5-1.5.5-.4,1.7-.6,3.7-.6a12,12,0,0,1,6.9,2,10.77,10.77,0,0,1,3.6,4.5,14.51,14.51,0,0,1,1.3,6.3C268.9,312.18,267.5,315.18,264.7,316.87Z"/><path class="a" d="M300.1,294.18a3.22,3.22,0,0,0-.8.1c-.3,0-1.2.1-2.5.1a9.15,9.15,0,0,1-1.7-.1,5.74,5.74,0,0,0-1.2-.1.37.37,0,0,0-.4.4.46.46,0,0,0,.5.4,2.57,2.57,0,0,1,2.2,1.2,6.75,6.75,0,0,1,.7,3.3V309c0,3.2-.7,5.6-2.2,7.2s-3.6,2.4-6.5,2.4c-3.2,0-5.6-1-6.9-2.9-1-1.3-1.5-3.6-1.5-6.7v-10.4a5.14,5.14,0,0,1,.4-2.5,1.62,1.62,0,0,1,1.4-.9c.4-.1.6-.2.6-.4s-.1-.3-.4-.3a3.44,3.44,0,0,0-.9.1,7.72,7.72,0,0,0-1,.1h-2.8a5.74,5.74,0,0,1-1.2-.1h-1.3c-.5,0-.7.1-.7.4s.2.3.5.4a3.48,3.48,0,0,1,2.2,1,4.59,4.59,0,0,1,.5,2.7v10.3a12.67,12.67,0,0,0,1.3,6.2,8.27,8.27,0,0,0,3.6,3.3,12.78,12.78,0,0,0,5.6,1.2,11.76,11.76,0,0,0,5-1,8.55,8.55,0,0,0,3.6-2.7,13.07,13.07,0,0,0,2-7.7v-9.1a10.4,10.4,0,0,1,.3-3.1,2.57,2.57,0,0,1,1.4-1.3c.3-.1.4-.3.4-.4C300.5,294.28,300.4,294.18,300.1,294.18Z"/><path class="a" d="M312.7,304.68c-2.3-.8-3.8-1.3-4.4-1.6a5.21,5.21,0,0,1-1.6-1.4,4,4,0,0,1-.9-2.7,3.6,3.6,0,0,1,1.3-2.9,4.79,4.79,0,0,1,3.3-1.2,7.68,7.68,0,0,1,4.5,1.3,6.65,6.65,0,0,1,2.7,3.3q.3.9.6.9c.3,0,.4-.2.4-.6a3.75,3.75,0,0,0-.1-.8l-.3-1.9a8.79,8.79,0,0,1-.2-1.8c0-.6-.2-.9-.5-.9-.1,0-.2,0-.2.1l-.3.2a.76.76,0,0,1-.4.2.37.37,0,0,1-.3-.1l-1.3-.5a8.11,8.11,0,0,0-3.3-.6,8.36,8.36,0,0,0-5.7,1.9,5.92,5.92,0,0,0-2.2,4.8,5.8,5.8,0,0,0,1.7,4.3,14.82,14.82,0,0,0,5.7,3,26.83,26.83,0,0,1,4.8,2,4.25,4.25,0,0,1,1.6,3.4,4.75,4.75,0,0,1-1.7,3.6,6.44,6.44,0,0,1-4.3,1.5,7.67,7.67,0,0,1-4.6-1.5,7.46,7.46,0,0,1-2.8-3.8q-.3-.9-.6-.9a.46.46,0,0,0-.4.5,10.7,10.7,0,0,0,.5,2.3,14.32,14.32,0,0,0,.5,1.7c.1.7.3,1.1.3,1.3a1.76,1.76,0,0,0,.4.5,6,6,0,0,0,2.5.9,12,12,0,0,0,3.1.4,9.23,9.23,0,0,0,6.4-2.2,7,7,0,0,0,2.5-5.6C319.5,308.58,317.2,306.18,312.7,304.68Z"/><path class="a" d="M453.5,237.08a4.38,4.38,0,0,0-3.2-1.3,4.31,4.31,0,0,0-3.5,1.6,4.64,4.64,0,0,0,0,6,4.31,4.31,0,0,0,3.5,1.6,4.22,4.22,0,0,0,3.2-1.3,4.38,4.38,0,0,0,1.3-3.2A4.18,4.18,0,0,0,453.5,237.08Zm-.3,6.2a4.1,4.1,0,1,1,1.2-2.9A4,4,0,0,1,453.2,243.28Z"/><path class="a" d="M453,242.78h-.1c-.3,0-.5-.3-.9-.7l-.1-.2-1-1.5a1.48,1.48,0,0,0,.9-1.3c0-.9-.6-1.4-1.8-1.4h-1.7c-.1,0-.2,0-.2.1s.1.1.2.1h.2c.3,0,.4.2.4.6v3.1c0,.4,0,.7-.1.8a1.38,1.38,0,0,1-.4.3.1.1,0,0,0-.1.1c0,.1.1.1.2.1h1.8c.1,0,.2,0,.2-.1s-.1-.1-.2-.1c-.3,0-.5-.1-.5-.2s-.1-.3-.1-.6v-1.4h.6a.37.37,0,0,1,.3.1l.1.1,1,1.4a1.71,1.71,0,0,0,1.2.8c.4,0,.6-.1.6-.2A1.75,1.75,0,0,1,453,242.78Zm-2.9-2.6h-.6v-1.8c0-.2.1-.3.4-.3a1.22,1.22,0,0,1,.9.3.91.91,0,0,1,.4.8A1,1,0,0,1,450.1,240.18Z"/></svg>