<svg xmlns="http://www.w3.org/2000/svg" viewBox="0 0 468 122.18"><defs><style>.a{fill:#fff;}</style></defs><title>Asset 1</title><path class="a" d="M43.9,94.17l-27.9,5L0,121.37l38.5-6.8c11.5-2,21.6-2.4,24.8,6.8v-15H55.7v-5.3h7.6v-.5C63.3,95.17,60.8,91.27,43.9,94.17Z"/><path class="a" d="M87.7,94.17l-6.2,6.2c-8.8,8.7-13,13.7-13,21,3.3-9.6,14-8.8,26.5-6.3l36.9,6.4-16.1-22.2Z"/><path class="a" d="M82.2,86.17C78.8,89.57,72.8,95,70,101h6.2l7.1-7.1c6.6-6.6,11.6-11.6,13.7-17.8a23.93,23.93,0,0,0,1.2-11.5c-.2-1.3-.7-3-.7-2.6-.6,7.1-2.6,11.4-13,21.8Z"/><path class="a" d="M62.9,42.37c3.8-3.8,13.4-12.4,13.4-19.9v-8.3c0-.1-.2-.1-.2,0-.7,5.6-2,8-15.6,21.6L47.1,49.18C40,56.27,34.3,63.88,35,72.27c.4,4.7,2,7.3,3,8.1.5.4.4.1.3-.2-4.1-9.3,5.6-18.9,10.5-23.7Z"/><path class="a" d="M76.3,28.37c0-.1-.2-.1-.2,0-.7,5.6-2,8-15.6,21.6L48,62.47c-4.5,4.5-8.7,9.3-8.5,16.9.1,4.7,2.5,8.6,6,9.5,1.5.3,1.4.1,1,0-5-2.4-4.7-11.4,3.5-19.5l12.8-12.8c3.8-3.8,13.4-12.4,13.4-19.9v-8.3Z"/><path class="a" d="M34.3,65.77c.6-7.1,2.6-11.4,13-21.8l15.6-15.7c3.8-3.8,13.4-12.4,13.4-19.9V.08c0-.1-.2-.1-.2,0-.7,5.6-2,8-15.6,21.6l-12,12c-6.6,6.6-11.6,11.6-13.7,17.8A23.93,23.93,0,0,0,33.6,63C33.7,64.37,34.2,66.17,34.3,65.77Z"/><path class="a" d="M68.5,114.57c0,.1.2.1.2,0a17.14,17.14,0,0,1,3.3-8.2H68.6v8.2Z"/><path class="a" d="M84.8,69.57l-4,4c-6.1,6.1-12.2,12.8-12.2,19.1V101c0,.1.2.1.2,0,.7-6.1,3.6-10,12.4-18.8l3.7-3.7c7.1-7.1,12.8-14.7,12.1-23.1-.4-4.7-2-7.3-3-8.1-.5-.4-.4-.1-.3.2C97.7,56.77,87.9,66.47,84.8,69.57Z"/><path class="a" d="M68.5,86.57c0,.1.2.1.2,0,.7-5.8,4-10.2,11.6-17.8l3.6-3.6c4.5-4.5,8.6-9.2,8.4-16.9-.1-4.7-2.5-8.6-6-9.5-1.5-.3-1.4-.1-1,0,5,2.4,4.7,11.4-3.5,19.5l-4.5,4.5c-2.9,2.9-8.8,9.3-8.8,15.3v8.5Z"/><path class="a" d="M132.1,106a4.33,4.33,0,0,0-3.4,1.5,4.27,4.27,0,0,0-1,2.9,4.11,4.11,0,0,0,1.1,2.8,4.37,4.37,0,0,0,3.3,1.6,4.44,4.44,0,0,0,4.4-4.4,4,4,0,0,0-1.3-3.1A4.16,4.16,0,0,0,132.1,106Zm2.7,7.1a3.69,3.69,0,0,1-2.8,1.1,4.11,4.11,0,0,1-2.8-1.1,3.69,3.69,0,0,1-1.1-2.8,4.11,4.11,0,0,1,1.1-2.8,3.69,3.69,0,0,1,2.8-1.1,4.11,4.11,0,0,1,2.8,1.1,3.69,3.69,0,0,1,1.1,2.8A3.25,3.25,0,0,1,134.8,113.07Z"/><path class="a" d="M134.7,112.57h0c-.3,0-.6-.2-.9-.7l-.1-.2-1-1.4a1.38,1.38,0,0,0,.9-1.3c0-.9-.6-1.3-1.8-1.3h-1.7c-.1,0-.2,0-.2.1s.1.1.2.1h.2c.2,0,.4.2.4.6v3c0,.4,0,.7-.1.8s-.2.2-.4.3a.1.1,0,0,0-.1.1c0,.1.1.1.2.1h1.8c.1,0,.2,0,.2-.1s-.1-.1-.2-.1a.59.59,0,0,1-.5-.2c-.1-.1-.1-.3-.1-.6v-1.4h.6c.1,0,.2,0,.2.1v.1l.9,1.4a1.41,1.41,0,0,0,1.2.8c.4,0,.6-.1.6-.2C134.8,112.67,134.8,112.57,134.7,112.57Zm-2.8-2.4h-.6v-1.8a.27.27,0,0,1,.3-.3,1.2,1.2,0,0,1,1.3,1.1A.9.9,0,0,1,131.9,110.17Z"/><path class="a" d="M155.8,79.77a11.19,11.19,0,0,0,.4,1.6,1.7,1.7,0,0,0,.6.6,14.31,14.31,0,0,0,3.1,1.2,19,19,0,0,0,3.9.5,11.74,11.74,0,0,0,8-2.7,8.84,8.84,0,0,0,3.1-7c0-4.2-2.8-7.3-8.5-9.1-2.9-1-4.7-1.6-5.5-2a7.85,7.85,0,0,1-2.1-1.7,5.24,5.24,0,0,1-1.1-3.3,4.46,4.46,0,0,1,1.7-3.6,5.92,5.92,0,0,1,4.1-1.5,9.68,9.68,0,0,1,5.6,1.6,7.91,7.91,0,0,1,3.4,4.1c.2.7.5,1.1.7,1.1s.5-.2.5-.7a4.4,4.4,0,0,0-.1-.9l-.4-2.4c-.2-1.3-.3-2.1-.3-2.3,0-.8-.2-1.1-.6-1.1a.37.37,0,0,0-.3.1l-.3.3a.73.73,0,0,1-.6.2.6.6,0,0,1-.4-.1l-1.6-.7a10.24,10.24,0,0,0-4.2-.7,10.81,10.81,0,0,0-7.1,2.3,7.84,7.84,0,0,0-2.8,6.1,7.31,7.31,0,0,0,2.1,5.4c1.4,1.4,3.8,2.7,7.2,3.8a28.76,28.76,0,0,1,6,2.5,5.65,5.65,0,0,1,2,4.3,5.49,5.49,0,0,1-2.2,4.5,8.18,8.18,0,0,1-5.3,1.9,9.59,9.59,0,0,1-5.8-1.9,9.13,9.13,0,0,1-3.5-4.8c-.2-.7-.5-1.1-.7-1.1s-.5.2-.5.7a11.31,11.31,0,0,0,.6,2.9A5.93,5.93,0,0,1,155.8,79.77Z"/><path class="a" d="M178,59.77a4.12,4.12,0,0,1,2.1.9,5.11,5.11,0,0,1,.5,2.6v9.9a13.36,13.36,0,0,0,1.2,6,7.15,7.15,0,0,0,3.5,3.1,11.91,11.91,0,0,0,5.4,1.2,11.17,11.17,0,0,0,4.8-1,8.69,8.69,0,0,0,3.5-2.6c1.3-1.7,1.9-4.2,1.9-7.4v-8.7a9.62,9.62,0,0,1,.3-3,2.44,2.44,0,0,1,1.4-1.2c.2-.1.4-.2.4-.4a.27.27,0,0,0-.3-.3,3.22,3.22,0,0,0-.8.1c-.3,0-1.1.1-2.4.1a7.59,7.59,0,0,1-1.6-.1,5.39,5.39,0,0,0-1.1-.1.37.37,0,0,0-.4.4c0,.2.2.3.5.4a2.71,2.71,0,0,1,2.1,1.1,6.47,6.47,0,0,1,.6,3.2v9.1q0,4.65-2.1,6.9c-1.4,1.5-3.5,2.3-6.3,2.3-3.1,0-5.3-.9-6.7-2.7-.9-1.3-1.4-3.4-1.4-6.5V63a7,7,0,0,1,.3-2.4,2.15,2.15,0,0,1,1.4-.9c.4-.1.6-.2.6-.4s-.1-.3-.4-.3a3.45,3.45,0,0,0-.9.1c-.5,0-.8.1-1,.1h-2.7a6.82,6.82,0,0,1-1.2-.1H178c-.4,0-.7.1-.7.4A4.87,4.87,0,0,0,178,59.77Z"/><path class="a" d="M218.8,83.47a12.28,12.28,0,0,0,9.1-3.6,12.51,12.51,0,0,0,3.6-9.2A11.83,11.83,0,0,0,228,62a12.3,12.3,0,0,0-9-3.4,13.37,13.37,0,0,0-5.2,1,12.67,12.67,0,0,0-4.2,2.7,12.37,12.37,0,0,0-2.5,4,13.59,13.59,0,0,0-.9,4.8,11.85,11.85,0,0,0,12.6,12.4Zm-7.5-21a8.31,8.31,0,0,1,6.5-2.7,10.24,10.24,0,0,1,7.9,3.5,12.44,12.44,0,0,1,3.2,8.7,10.62,10.62,0,0,1-2.7,7.5,8.94,8.94,0,0,1-6.7,3,9.19,9.19,0,0,1-7.5-3.7,13.65,13.65,0,0,1-3.1-9A10.71,10.71,0,0,1,211.3,62.47Z"/><path class="a" d="M258.9,83.07a7.57,7.57,0,0,1,1.5.1l1.4.1h.4q.6,0,.6-.3c0-.2-.3-.4-.9-.5a2.53,2.53,0,0,1-1.8-.8,3.09,3.09,0,0,1-.5-1.9l-.1-2.2-.3-9.6-.1-4.2a7.15,7.15,0,0,1,.4-2.9,1.63,1.63,0,0,1,1.3-1.1l.8-.2c.2-.1.4-.2.4-.4s-.1-.4-.4-.3h-.5c-.4,0-1,.1-1.8.1h-.6a5.38,5.38,0,0,1-.8-.1.75.75,0,0,0-.5.1,3.22,3.22,0,0,0-.4.7l-8.3,17.7-.2.4-.2.5q-.15.3-.3.3c-.1,0-.2-.2-.3-.5l-.9-1.8-7.3-15.8-.2-.4A1.56,1.56,0,0,0,238,59a1.27,1.27,0,0,0-.6.1h-3.6c-.3,0-.4.1-.4.4a.46.46,0,0,0,.5.4,3.81,3.81,0,0,1,2.8,1.9,9.24,9.24,0,0,1,.8,4.6c0,1-.1,3.3-.3,7l-.2,5.1a9.31,9.31,0,0,1-.6,3.1,2.45,2.45,0,0,1-1.8,1.2c-.3.1-.4.2-.4.4s.2.4.5.4a1.09,1.09,0,0,0,.5-.1,19.48,19.48,0,0,1,2.5-.2c.7,0,1.7.1,3,.2h.6c.3,0,.5-.1.5-.4s-.4-.4-1.1-.5c-1.5-.2-2.2-1.4-2.2-3.4s0-3.6.1-4.3l.4-8.7,6.6,14.3.4.7c.3.5.4.9.5,1,.3.6.5.9.8.9s.5-.3.7-.8a2.39,2.39,0,0,0,.3-.7c.3-.5.6-1.2,1-2q1.35-3,1.5-3.3l1.8-3.7,1.6-3.4c.3-.7,1-1.9,2-3.6l.5,11.2.1,2.9a3.87,3.87,0,0,1-.4,2.2,2.15,2.15,0,0,1-1.4.9c-.3.1-.4.2-.4.4s.2.3.5.3.9,0,2.1-.1A4.28,4.28,0,0,1,258.9,83.07Z"/><path class="a" d="M265.7,59.57a2.41,2.41,0,0,1,2.2.9,6.58,6.58,0,0,1,.6,3.4v16c0,1.4-.4,2.2-1.3,2.5l-.7.2c-.3.1-.5.2-.5.4s.2.4.6.4a3.45,3.45,0,0,0,.9-.1,38,38,0,0,1,4.3-.2c1.5,0,3.3.1,5.6.3.6,0,1,.1,1.4.1a5.6,5.6,0,0,0,5.2-4.6c0-.3-.1-.5-.3-.5a.54.54,0,0,0-.4.3c-1.3,2.1-4.3,3.1-8.9,3.1-1.5,0-2.4-.1-2.7-.4s-.5-.9-.5-1.9v-7.1c0-.4.1-.6.3-.7a2.68,2.68,0,0,1,1.1-.2h3.9a3.69,3.69,0,0,1,2.1.4,2.23,2.23,0,0,1,.8,1.6l.1.5a.37.37,0,0,0,.4.4c.2,0,.3-.1.3-.4v-.5a14.77,14.77,0,0,1-.1-2.1c0-.9.1-2,.2-3.1v-.4c0-.3-.1-.5-.3-.5a.37.37,0,0,0-.4.4,4.11,4.11,0,0,1-.5,1.5,2.25,2.25,0,0,1-1.2.5,20.69,20.69,0,0,1-2.9.2h-2.7a1.44,1.44,0,0,1-.9-.2c-.1-.1-.1-.4-.1-1v-7.1a1.74,1.74,0,0,1,.3-1.2,2.21,2.21,0,0,1,1.4-.3h2.8a14.68,14.68,0,0,1,3.7.3,2,2,0,0,1,1.4,1.1,3.6,3.6,0,0,1,.2,1.1v.5c0,.4.1.5.3.5s.3-.1.4-.3a7,7,0,0,0,.2-1.3l.1-1a10.33,10.33,0,0,0,.1-1.4c0-.2.1-.3.1-.4,0-.3-.2-.5-.6-.5a2,2,0,0,0-.7.1,8.47,8.47,0,0,0-1.3.1l-2.5.1c-1.1,0-2.4.1-3.8.1a49.74,49.74,0,0,1-6-.3,5.74,5.74,0,0,0-1.2-.1c-.5,0-.8.2-.8.5C265.1,59.47,265.3,59.57,265.7,59.57Z"/><path class="a" d="M285.5,59.57a3.61,3.61,0,0,1,2.8,2,10.71,10.71,0,0,1,1,4.8v12a6.35,6.35,0,0,1-.5,2.8,3.56,3.56,0,0,1-2,1.4c-.3.1-.5.3-.5.4s.2.3.5.3a2.64,2.64,0,0,0,.7-.1,5.28,5.28,0,0,1,1.3-.1h.8l1.8.1a11.93,11.93,0,0,1,1.5.1h.5c.2,0,.4-.1.4-.3s-.2-.4-.6-.4a3.78,3.78,0,0,1-1.9-.7,2.67,2.67,0,0,1-.6-1.6l-.1-1.2V66.47c0-.5.1-.8.3-.8s.2,0,.2.1l.2.2,14.8,16.9.4.5c.1.1.2.1.4.2s.4-.1.5-.4a12.31,12.31,0,0,0,.1-2.4V63a6,6,0,0,1,.3-2.3,2.15,2.15,0,0,1,1.4-.9c.2-.1.4-.2.4-.3a.46.46,0,0,0-.5-.4,3.45,3.45,0,0,0-.9.1,8.12,8.12,0,0,1-1.7.1,31.19,31.19,0,0,1-3.3-.1h-.7c-.3,0-.5.1-.5.3a.46.46,0,0,0,.5.4,5.46,5.46,0,0,1,2.5.9,3,3,0,0,1,.9,2.1l.2,4V78c0,.2-.1.3-.2.3s-.2-.1-.5-.4l-16.2-18.3a1.38,1.38,0,0,0-.9-.5h-3.2c-.3,0-.4.1-.4.3A2.35,2.35,0,0,1,285.5,59.57Z"/><path class="a" d="M184.9,120.27a5.77,5.77,0,0,1-2.9-1.1,10.54,10.54,0,0,1-1.8-3.5l-.5-1.2-9.9-25.3c-.2-.4-.4-.7-.6-.7s-.5.2-.7.7l-11.8,26.2-.7,1.5a8.58,8.58,0,0,1-1.3,2,2.75,2.75,0,0,1-1.2,1.1l-.8.3c-.3.1-.4.2-.4.5s.2.4.6.4a10.3,10.3,0,0,0,1.3-.1h1a18.53,18.53,0,0,1,2.5.1l2.2.1h.8c.4,0,.7-.1.6-.4s-.3-.4-.7-.5a4.28,4.28,0,0,1-2.1-.8c-.4-.3-.5-.8-.5-1.6a8.63,8.63,0,0,1,1-3.4l1.5-3.4c.5-1,.8-1.7,1.1-1.8a4.54,4.54,0,0,1,2.1-.3H172a4.23,4.23,0,0,1,1.6.2c.2.1.4.6.8,1.5l1.1,3a18,18,0,0,1,1.4,4.9,1.47,1.47,0,0,1-1.1,1.6l-.7.2c-.4.1-.6.2-.6.5s.2.5.6.5a2,2,0,0,0,.7-.1,34.75,34.75,0,0,1,4-.1c2,0,3.4,0,4.2.1h.9c.4,0,.6-.1.6-.4C185.6,120.47,185.4,120.37,184.9,120.27Zm-13.5-13.4h-7.5c-.7,0-1.1-.2-1.1-.6a2.71,2.71,0,0,1,.3-.8l4.5-9.9c.1-.3.3-.5.4-.4s.4.3.6.8l.2.5,3.6,9.1.1.4a1.09,1.09,0,0,1,.1.5C172.6,106.67,172.2,106.87,171.4,106.87Z"/><path class="a" d="M195.8,96.67a17,17,0,0,0-2.3.1l-1.6.2a21.85,21.85,0,0,1-2.8.1h-1.2l-1.4-.1c-.3,0-.5.1-.5.3s.2.3.6.4a2.6,2.6,0,0,1,2,1,4.54,4.54,0,0,1,.6,2.6v15.8a5.1,5.1,0,0,1-.4,2.6,2.42,2.42,0,0,1-1.5.9c-.3.1-.5.2-.5.4s.2.4.6.4a4.14,4.14,0,0,0,1-.1,29.17,29.17,0,0,1,3.3-.2c1.2,0,2.5.1,4.1.2a11.8,11.8,0,0,0,1.6.1,13.59,13.59,0,0,0,7.1-2,11.36,11.36,0,0,0,4-4.4,12.73,12.73,0,0,0,1.4-6.1,11.61,11.61,0,0,0-3.3-8.5C204.2,97.87,200.6,96.67,195.8,96.67Zm7.4,22.1a10,10,0,0,1-5.4,1.5,11.21,11.21,0,0,1-2.4-.3,20.77,20.77,0,0,1-2.4-.6,1.59,1.59,0,0,1-1.1-1.5V99.78a1.67,1.67,0,0,1,.5-1.4c.5-.4,1.7-.6,3.5-.6a11,11,0,0,1,6.6,1.9,10.26,10.26,0,0,1,3.5,4.4,15.13,15.13,0,0,1,1.3,6.1C207.3,114.17,205.9,117.07,203.2,118.77Z"/><path class="a" d="M234.3,96.87h-3.4a13.62,13.62,0,0,1-1.6-.1h-.5q-.6,0-.6.3c0,.2.3.4,1,.5a2.3,2.3,0,0,1,1.1.4,1,1,0,0,1,.3.8c0,1.1-.8,3.7-2.5,7.6l-3.9,9.2-.3.7c-.3.7-.5,1-.6,1s-.3-.2-.5-.6l-6.8-15.5a6.79,6.79,0,0,1-.7-2.5.85.85,0,0,1,.2-.6,1.87,1.87,0,0,1,.9-.4c.2-.1.4-.2.4-.4s-.2-.3-.5-.3h-.5c-.5,0-.9.1-1.1.1h-5.2c-.3,0-.5.1-.5.3s.1.2.2.3a4.17,4.17,0,0,0,1.1.2,2.35,2.35,0,0,1,1.4.7,8.35,8.35,0,0,1,1.1,2l8.9,20.7c.3.6.5.9.7.9s.5-.3.7-.9l8.7-20.5.5-1.1a3.42,3.42,0,0,1,1.9-2c.2-.1.4-.2.4-.4S234.6,96.87,234.3,96.87Z"/><path class="a" d="M253.7,116.27a.54.54,0,0,0-.4.3c-1.3,2.1-4.3,3.1-8.9,3.1-1.5,0-2.4-.1-2.7-.4s-.5-.9-.5-1.9v-7.1c0-.4.1-.6.3-.7a2.68,2.68,0,0,1,1.1-.2h3.9a3.69,3.69,0,0,1,2.1.4,2.23,2.23,0,0,1,.8,1.6l.1.5a.37.37,0,0,0,.4.4c.2,0,.3-.1.3-.4v-.5a14.77,14.77,0,0,1-.1-2.1c0-.9.1-2,.2-3.1v-.4c0-.3-.1-.5-.3-.5a.37.37,0,0,0-.4.4,4.11,4.11,0,0,1-.5,1.5,2.25,2.25,0,0,1-1.2.5,20.69,20.69,0,0,1-2.9.2h-2.7a1.44,1.44,0,0,1-.9-.2c-.1-.1-.1-.4-.1-1v-7.1a1.74,1.74,0,0,1,.3-1.2,2.21,2.21,0,0,1,1.4-.3h2.8a14.68,14.68,0,0,1,3.7.3,2,2,0,0,1,1.4,1.1,3.6,3.6,0,0,1,.2,1.1v.5c0,.4.1.5.3.5s.3-.1.4-.3a7,7,0,0,0,.2-1.3l.1-1a10.33,10.33,0,0,0,.1-1.4c0-.2.1-.3.1-.4,0-.3-.2-.5-.6-.5a2,2,0,0,0-.7.1,8.47,8.47,0,0,0-1.3.1l-2.5.1c-1.1,0-2.4.1-3.8.1a49.74,49.74,0,0,1-6-.3,5.74,5.74,0,0,0-1.2-.1c-.5,0-.8.2-.8.5s.2.3.5.3a2.41,2.41,0,0,1,2.2.9,6.58,6.58,0,0,1,.6,3.4v16c0,1.4-.4,2.2-1.3,2.5l-.7.2c-.3.1-.5.2-.5.4s.2.4.6.4a3.45,3.45,0,0,0,.9-.1,38,38,0,0,1,4.3-.2c1.5,0,3.3.1,5.6.3.6,0,1,.1,1.4.1a5.6,5.6,0,0,0,5.2-4.6C254.1,116.37,253.9,116.27,253.7,116.27Z"/><path class="a" d="M279.5,96.77a3.45,3.45,0,0,0-.9.1,8.12,8.12,0,0,1-1.7.1,31.19,31.19,0,0,1-3.3-.1h-.7c-.3,0-.5.1-.5.3a.46.46,0,0,0,.5.4,5.46,5.46,0,0,1,2.5.9,3,3,0,0,1,.9,2.1l.2,4v11.1c0,.2-.1.3-.2.3s-.2-.1-.5-.4l-16.2-18.3a1.38,1.38,0,0,0-.9-.5h-3.2c-.3,0-.4.1-.4.3s.2.3.5.4a3.61,3.61,0,0,1,2.8,2,10.71,10.71,0,0,1,1,4.8v12a6.35,6.35,0,0,1-.5,2.8,3.56,3.56,0,0,1-2,1.4c-.3.1-.5.3-.5.4s.2.3.5.3a2.64,2.64,0,0,0,.7-.1,5.28,5.28,0,0,1,1.3-.1h.8l1.8.1a11.93,11.93,0,0,1,1.5.1h.5c.2,0,.4-.1.4-.3s-.2-.4-.6-.4a3.78,3.78,0,0,1-1.9-.7,2.67,2.67,0,0,1-.6-1.6l-.1-1.2v-12.6c0-.5.1-.8.3-.8s.2,0,.2.1l.2.2,14.8,16.9.4.5c.1.1.2.1.4.2s.4-.1.5-.4a12.31,12.31,0,0,0,.1-2.4v-17.8a6,6,0,0,1,.3-2.3,2.15,2.15,0,0,1,1.4-.9c.2-.1.4-.2.4-.3C279.9,97,279.8,96.77,279.5,96.77Z"/><path class="a" d="M303.5,100a5.76,5.76,0,0,1-.1-1.5,2.23,2.23,0,0,0-.2-1.2,2.23,2.23,0,0,0-1.2-.2H283.1c-.4,0-.7.1-.8.3a2.33,2.33,0,0,0-.2,1.1,10.39,10.39,0,0,1-.3,2.1c-.1.7-.2,1.1-.2,1.3s.1.5.3.5.4-.2.5-.7a4.1,4.1,0,0,1,1-2.2,2.93,2.93,0,0,1,2.1-.6h4.7a2,2,0,0,1,.9.2,1.29,1.29,0,0,1,.2.8v17.9a3.58,3.58,0,0,1-.5,2.1,2.52,2.52,0,0,1-1.8.7c-.4,0-.6.2-.6.3,0,.3.2.4.5.4a8.33,8.33,0,0,0,1.2-.1c.3,0,.8-.1,1.2-.1H294a5.79,5.79,0,0,1,1.6.1,3.45,3.45,0,0,0,.9.1c.3,0,.5-.1.5-.4s-.2-.3-.6-.4a2.48,2.48,0,0,1-2.3-2.4v-18a1.6,1.6,0,0,1,.2-1,1.86,1.86,0,0,1,1-.2h4.9a3.32,3.32,0,0,1,2,.4,2.66,2.66,0,0,1,.7,1.6c.1.4.2.6.4.5s.4-.2.4-.6C303.6,100.67,303.6,100.37,303.5,100Z"/><path class="a" d="M325.3,98.47a2.23,2.23,0,0,0-.2-1.2,2.23,2.23,0,0,0-1.2-.2H305c-.4,0-.7.1-.8.3a2.33,2.33,0,0,0-.2,1.1,10.39,10.39,0,0,1-.3,2.1c-.1.7-.2,1.1-.2,1.3s.1.5.3.5.4-.2.5-.7a4.1,4.1,0,0,1,1-2.2,2.93,2.93,0,0,1,2.1-.6h4.7a2,2,0,0,1,.9.2,1.29,1.29,0,0,1,.2.8v17.9a3.58,3.58,0,0,1-.5,2.1,2.52,2.52,0,0,1-1.8.7c-.4,0-.6.2-.6.3,0,.3.2.4.5.4a8.33,8.33,0,0,0,1.2-.1c.3,0,.8-.1,1.2-.1h2.7a5.79,5.79,0,0,1,1.6.1,3.45,3.45,0,0,0,.9.1c.3,0,.5-.1.5-.4s-.2-.3-.6-.4a2.48,2.48,0,0,1-2.3-2.4v-18a1.6,1.6,0,0,1,.2-1,1.86,1.86,0,0,1,1-.2h4.9a3.32,3.32,0,0,1,2,.4,2.66,2.66,0,0,1,.7,1.6c.1.4.2.6.4.5s.4-.2.4-.6a3.45,3.45,0,0,0-.1-.9C325.3,99.67,325.3,99.17,325.3,98.47Z"/><path class="a" d="M335.5,120.37a4.29,4.29,0,0,1-1.6-.5,3.62,3.62,0,0,1-.9-1.3,11.11,11.11,0,0,1-.3-3.3v-13.2c0-2.5.4-3.9,1.3-4.2l.9-.4c.3-.1.5-.3.5-.5s-.2-.3-.5-.3h-.4l-1.2.1c-.6,0-1.4.1-2.2.1a28.16,28.16,0,0,1-3.4-.2h-.3c-.4,0-.5.1-.5.4s.2.3.6.4c1.1.2,1.8.5,2.1,1a6.24,6.24,0,0,1,.5,2.9v15.1a6,6,0,0,1-.4,2.9,2,2,0,0,1-1.7.9c-.4.1-.5.2-.5.4a.46.46,0,0,0,.5.4,2.49,2.49,0,0,0,.8-.1l2.1-.1h2.5a9.23,9.23,0,0,1,1.9.1c.3,0,.5.1.7.1.4,0,.5-.1.5-.4A2.26,2.26,0,0,0,335.5,120.37Z"/><path class="a" d="M360.8,120.47l-.8-.2a6.36,6.36,0,0,1-3.2-1.9l-9.2-9.6a1.26,1.26,0,0,1-.4-.7c0-.1.1-.3.4-.6l6-5.4c3-2.7,5-4.2,6.1-4.4.6-.1.9-.3.8-.5s-.2-.3-.5-.3a1.09,1.09,0,0,0-.5.1h-4.4a9.15,9.15,0,0,1-1.7-.1h-.5c-.4,0-.5.1-.5.4s.3.4.8.4c.8.2,1.3.5,1.3,1s-.6,1.4-1.7,2.5l-7.5,6.8-.3.2-.3.2c-.1,0-.2-.1-.2-.4v-6.9a6.24,6.24,0,0,1,.3-2.4,2.75,2.75,0,0,1,1.4-1.1c.3-.1.4-.3.4-.4s-.1-.3-.4-.3a3.22,3.22,0,0,0-.8.1h-2.9a20.25,20.25,0,0,1-2.8-.1c-.2,0-.5-.1-.6-.1-.3,0-.5.1-.5.4s.2.3.5.4l.9.2c.8.2,1.3.5,1.5,1a5.61,5.61,0,0,1,.4,2.6v15a7.64,7.64,0,0,1-.4,3.1,1.64,1.64,0,0,1-1.5,1c-.3,0-.5.1-.5.3s.2.4.6.4a7.47,7.47,0,0,0,1.1-.1h3.6a11,11,0,0,1,2.1.1,5.53,5.53,0,0,1,.9.1c.3,0,.4-.1.4-.3s-.2-.3-.5-.4a3.91,3.91,0,0,1-2.5-1c-.4-.4-.5-1.3-.5-2.7v-6.4c0-.3.1-.4.3-.4a.76.76,0,0,1,.4.2l.4.4,9.4,9.7.3.3a1.39,1.39,0,0,0,1,.5h2.3a5,5,0,0,1,1.5.1h.4c.4,0,.5-.1.5-.4S361,120.57,360.8,120.47Z"/><path class="a" d="M370.7,120.37a4.29,4.29,0,0,1-1.6-.5,3.62,3.62,0,0,1-.9-1.3,11.11,11.11,0,0,1-.3-3.3v-13.2c0-2.5.4-3.9,1.3-4.2l.9-.4c.3-.1.5-.3.5-.5s-.2-.3-.5-.3h-.4l-1.2.1c-.6,0-1.4.1-2.2.1a28.16,28.16,0,0,1-3.4-.2h-.3c-.4,0-.5.1-.5.4s.2.3.6.4c1.1.2,1.8.5,2.1,1a6.24,6.24,0,0,1,.5,2.9v15.1a6,6,0,0,1-.4,2.9,2,2,0,0,1-1.7.9c-.4.1-.5.2-.5.4a.46.46,0,0,0,.5.4,2.49,2.49,0,0,0,.8-.1l2.1-.1h2.5a9.23,9.23,0,0,1,1.9.1c.3,0,.5.1.7.1.4,0,.5-.1.5-.4A2.26,2.26,0,0,0,370.7,120.37Z"/><path class="a" d="M396.3,120.47h-.6c-1.3-.1-2.6-1.2-4.1-3.4l-.6-.8-4.9-7.2c2.9-1.4,4.3-3.5,4.3-6.1a5.17,5.17,0,0,0-2.1-4.5,10.36,10.36,0,0,0-6.1-1.5,23.56,23.56,0,0,0-2.5.1c-1.3.1-2.2.1-2.8.1a8.08,8.08,0,0,1-1.6-.1,8.37,8.37,0,0,1-1.2-.1c-.4,0-.6.1-.6.4s.2.3.6.4l.8.1c1.3.2,1.9,1.2,1.9,3.1v14.4a12,12,0,0,1-.4,4,2.31,2.31,0,0,1-1.8,1.3c-.3.1-.4.2-.4.3a.37.37,0,0,0,.4.4,3.45,3.45,0,0,0,.9-.1,7.61,7.61,0,0,1,1.4-.1h2.6a12.22,12.22,0,0,1,2.2.1,5.13,5.13,0,0,0,1,.1q.6,0,.6-.3c0-.2-.2-.3-.7-.4a4.12,4.12,0,0,1-2.3-.8,1.69,1.69,0,0,1-.7-1,11,11,0,0,1-.1-2.1v-6.2a.85.85,0,0,1,.2-.6l.4-.1h2.3a1.51,1.51,0,0,1,1.4.7l.2.4,4.4,6.7a8.93,8.93,0,0,0,2.6,2.8,4.68,4.68,0,0,0,2.8.9,8.8,8.8,0,0,0,1.7-.2c.5-.1.8-.3.8-.5C396.6,120.47,396.5,120.47,396.3,120.47ZM383,108.57h-2a.92.92,0,0,1-1.2-1.2v-7.8c0-.6.1-1,.4-1.2a2.42,2.42,0,0,1,1.4-.3,6.46,6.46,0,0,1,4.6,1.6,5.45,5.45,0,0,1,1.8,4.2,4.6,4.6,0,0,1-1.3,3.5A5.67,5.67,0,0,1,383,108.57Z"/><path class="a" d="M419.6,120.47l-.8-.2a6.36,6.36,0,0,1-3.2-1.9l-9.2-9.6a1.26,1.26,0,0,1-.4-.7c0-.1.1-.3.4-.6l6-5.4c3-2.7,5-4.2,6.1-4.4.6-.1.9-.3.8-.5s-.2-.3-.5-.3a1.09,1.09,0,0,0-.5.1h-4.4a9.15,9.15,0,0,1-1.7-.1h-.5c-.4,0-.5.1-.5.4s.3.4.8.4c.8.2,1.3.5,1.3,1s-.6,1.4-1.7,2.5l-7.5,6.8-.3.2-.3.2c-.1,0-.2-.1-.2-.4v-6.9a6.24,6.24,0,0,1,.3-2.4,2.75,2.75,0,0,1,1.4-1.1c.3-.1.4-.3.4-.4s-.1-.3-.4-.3a3.22,3.22,0,0,0-.8.1h-2.9a20.25,20.25,0,0,1-2.8-.1c-.2,0-.5-.1-.6-.1-.3,0-.5.1-.5.4s.2.3.5.4l.9.2c.8.2,1.3.5,1.5,1a5.61,5.61,0,0,1,.4,2.6v15a7.64,7.64,0,0,1-.4,3.1,1.64,1.64,0,0,1-1.5,1c-.3,0-.5.1-.5.3s.2.4.6.4a7.47,7.47,0,0,0,1.1-.1h3.6a11,11,0,0,1,2.1.1,5.53,5.53,0,0,1,.9.1c.3,0,.4-.1.4-.3s-.2-.3-.5-.4a3.91,3.91,0,0,1-2.5-1c-.4-.4-.5-1.3-.5-2.7v-6.4c0-.3.1-.4.3-.4a.76.76,0,0,1,.4.2l.4.4,9.4,9.7.3.3a1.39,1.39,0,0,0,1,.5h2.3a5,5,0,0,1,1.5.1h.4c.4,0,.5-.1.5-.4S419.9,120.57,419.6,120.47Z"/><path class="a" d="M443,120.47l-.8-.2a6.36,6.36,0,0,1-3.2-1.9l-9.2-9.6a1.26,1.26,0,0,1-.4-.7c0-.1.1-.3.4-.6l6-5.4c3-2.7,5-4.2,6.1-4.4.6-.1.9-.3.8-.5s-.2-.3-.5-.3a1.09,1.09,0,0,0-.5.1h-4.4a9.15,9.15,0,0,1-1.7-.1h-.5c-.4,0-.5.1-.5.4s.3.4.8.4c.8.2,1.3.5,1.3,1s-.6,1.4-1.7,2.5l-7.5,6.8-.3.2-.3.2c-.1,0-.2-.1-.2-.4v-6.9a6.24,6.24,0,0,1,.3-2.4,2.75,2.75,0,0,1,1.4-1.1c.3-.1.4-.3.4-.4s-.1-.3-.4-.3a3.22,3.22,0,0,0-.8.1h-2.9a20.25,20.25,0,0,1-2.8-.1c-.2,0-.5-.1-.6-.1-.3,0-.5.1-.5.4s.2.3.5.4l.9.2c.8.2,1.3.5,1.5,1a5.61,5.61,0,0,1,.4,2.6v15a7.64,7.64,0,0,1-.4,3.1,1.64,1.64,0,0,1-1.5,1c-.3,0-.5.1-.5.3s.2.4.6.4a7.47,7.47,0,0,0,1.1-.1H427a11,11,0,0,1,2.1.1,5.53,5.53,0,0,1,.9.1c.3,0,.4-.1.4-.3s-.2-.3-.5-.4a3.91,3.91,0,0,1-2.5-1c-.4-.4-.5-1.3-.5-2.7v-6.4c0-.3.1-.4.3-.4a.76.76,0,0,1,.4.2l.4.4,9.4,9.7.3.3a1.39,1.39,0,0,0,1,.5H441a5,5,0,0,1,1.5.1h.4c.4,0,.5-.1.5-.4S443.3,120.57,443,120.47Z"/><path class="a" d="M464.4,100a12.3,12.3,0,0,0-9-3.4,13.37,13.37,0,0,0-5.2,1,12.67,12.67,0,0,0-4.2,2.7,12.37,12.37,0,0,0-2.5,4,13.59,13.59,0,0,0-.9,4.8,12.21,12.21,0,0,0,3.5,9,12.46,12.46,0,0,0,9.2,3.4,12.28,12.28,0,0,0,9.1-3.6,12.51,12.51,0,0,0,3.6-9.2A11.59,11.59,0,0,0,464.4,100Zm-1.7,17.5a8.6,8.6,0,0,1-6.7,3,9.19,9.19,0,0,1-7.5-3.7,13.65,13.65,0,0,1-3.1-9,10.8,10.8,0,0,1,2.4-7.4,8.3,8.3,0,0,1,6.5-2.7,10.24,10.24,0,0,1,7.9,3.5,12.44,12.44,0,0,1,3.2,8.7A10.88,10.88,0,0,1,462.7,117.47Z"/></svg>