<svg xmlns="http://www.w3.org/2000/svg" viewBox="0 0 551.1 364.08"><defs><style>.a{fill:#fff;}</style></defs><title>Asset 1</title><path class="a" d="M179,242.27c.2,0,.3.1.5.2l.4.4L190.7,254l.3.4a1.35,1.35,0,0,0,1.2.5h2.6a6.25,6.25,0,0,1,1.7.1h.5c.4,0,.6-.1.6-.4s-.2-.3-.5-.4l-.9-.2a7,7,0,0,1-3.6-2.2l-10.5-10.9c-.3-.4-.5-.6-.5-.8s.2-.4.5-.6l6.9-6.2q5.1-4.65,6.9-5.1c.7-.2,1-.3,1-.5s-.2-.4-.6-.4a1.76,1.76,0,0,0-.6.1c-.3,0-.8.1-1.7.1h-3.3a11.48,11.48,0,0,1-1.9-.1h-.5c-.4,0-.6.1-.6.4s.3.4.9.5c1,.2,1.4.6,1.4,1.2s-.7,1.7-2,2.8l-8.6,7.7-.3.2-.3.2c-.1,0-.2-.1-.2-.4v-7.8a7.45,7.45,0,0,1,.3-2.7,2.62,2.62,0,0,1,1.6-1.2c.3-.1.5-.3.5-.5s-.2-.4-.5-.4a5.81,5.81,0,0,0-1,.1h-3.2a26.42,26.42,0,0,1-3.2-.1c-.3,0-.5-.1-.7-.1-.4,0-.5.1-.5.4s.2.3.5.4l1,.2a2.68,2.68,0,0,1,1.8,1.1,7.06,7.06,0,0,1,.5,3v17.1a9.83,9.83,0,0,1-.5,3.6,2,2,0,0,1-1.7,1.2c-.4,0-.6.2-.6.4s.2.5.7.5a8.33,8.33,0,0,0,1.2-.1h4.1a14.23,14.23,0,0,1,2.4.1c.5,0,.9.1,1.1.1s.5-.1.5-.4-.2-.4-.6-.4a5,5,0,0,1-2.9-1.1,5.34,5.34,0,0,1-.6-3.1V243C178.7,242.37,178.8,242.27,179,242.27Z"/><path class="a" d="M211.3,255.27a14,14,0,0,0,14.5-14.6,13,13,0,0,0-4-9.9,14.19,14.19,0,0,0-10.3-3.9,17.13,17.13,0,0,0-5.9,1.1,14.72,14.72,0,0,0-4.8,3.1,12.75,12.75,0,0,0-2.8,4.5,15,15,0,0,0-1.1,5.5c0,4.3,1.3,7.7,4,10.3S206.9,255.27,211.3,255.27Zm-8.6-24a9.24,9.24,0,0,1,7.4-3.1,11.85,11.85,0,0,1,9.1,4,14.45,14.45,0,0,1,3.6,10,12.52,12.52,0,0,1-3,8.6,9.74,9.74,0,0,1-7.7,3.4,10.74,10.74,0,0,1-8.6-4.2,15.58,15.58,0,0,1-3.5-10.2C199.9,236.17,200.8,233.37,202.7,231.27Z"/><path class="a" d="M242.4,252.17a6.88,6.88,0,0,1-4.7,1.6,8.38,8.38,0,0,1-5-1.7,7.37,7.37,0,0,1-3-4.2c-.2-.6-.4-1-.7-1s-.4.2-.4.6a13.78,13.78,0,0,0,.5,2.6c.3,1.1.5,1.7.5,1.8a9.31,9.31,0,0,0,.4,1.4.82.82,0,0,0,.5.5,9,9,0,0,0,2.7,1,14.24,14.24,0,0,0,3.4.4,10.08,10.08,0,0,0,7-2.4,7.76,7.76,0,0,0,2.7-6.1c0-3.7-2.5-6.3-7.4-8-2.5-.8-4.1-1.4-4.8-1.7a6,6,0,0,1-1.8-1.5,4.76,4.76,0,0,1-.9-2.9,4.07,4.07,0,0,1,1.5-3.2,5.15,5.15,0,0,1,3.6-1.3,9.06,9.06,0,0,1,4.9,1.4,6,6,0,0,1,2.9,3.6c.2.6.4,1,.7,1s.4-.2.4-.6a3.22,3.22,0,0,0-.1-.8l-.3-2.1a18.75,18.75,0,0,1-.3-2c0-.7-.2-1-.5-1-.1,0-.2,0-.2.1l-.3.2c-.2.1-.3.2-.5.2a.76.76,0,0,1-.4-.1l-1.4-.6a10.78,10.78,0,0,0-9.8,1.4,6.65,6.65,0,0,0-2.4,5.3,6.11,6.11,0,0,0,1.9,4.7q1.8,1.8,6.3,3.3a22.19,22.19,0,0,1,5.2,2.2,4.78,4.78,0,0,1,1.8,3.8A5.42,5.42,0,0,1,242.4,252.17Z"/><path class="a" d="M264,228q6.45,0,10.2,6.6c.3.6.6.9.7.8s.2-.1.3-.2l.1-.2-.1-.5-.6-4.8c-.1-.5-.2-.8-.4-.8a1.55,1.55,0,0,0-.6.3c-.1.1-.2.2-.3.2l-.3-.1-.3-.1-.8-.4a16.08,16.08,0,0,0-7.8-1.9,14,14,0,0,0-14.4,14.5,13.26,13.26,0,0,0,4,10.1c2.6,2.6,6.1,3.8,10.4,3.8a18.44,18.44,0,0,0,10.2-3c.6-.4.9-.7.9-1.1l.1-.4.5-2.5.1-.4v-.2c0-.3-.1-.4-.3-.4s-.5.4-.8,1.1a10,10,0,0,1-4,3.9,11.65,11.65,0,0,1-5.9,1.6,10.19,10.19,0,0,1-8.4-4,15.62,15.62,0,0,1-3.3-10.2c0-3.6,1-6.5,3-8.6C257.9,229.07,260.6,228,264,228Z"/><path class="a" d="M281.9,253.07a2.94,2.94,0,0,1-2,1.1c-.4.1-.6.2-.6.4s.2.4.5.4a3.75,3.75,0,0,0,1-.1l2.4-.1h2.9a11,11,0,0,1,2.1.1c.3,0,.6.1.8.1.4,0,.6-.2.6-.5s-.3-.4-1-.5a4.25,4.25,0,0,1-1.9-.6,3.88,3.88,0,0,1-1-1.4,14.15,14.15,0,0,1-.3-3.7v-15q0-4.2,1.5-4.8l1-.4c.3-.1.5-.3.5-.5a.46.46,0,0,0-.5-.4h-.5l-1.3.1c-.7,0-1.6.1-2.5.1a38.44,38.44,0,0,1-3.9-.2h-.4c-.4,0-.6.1-.6.4s.2.4.6.5a3.21,3.21,0,0,1,2.4,1.2,6.58,6.58,0,0,1,.6,3.4v17.2A7.6,7.6,0,0,1,281.9,253.07Z"/><path class="a" d="M296.1,231a12.75,12.75,0,0,0-2.8,4.5,15,15,0,0,0-1.1,5.5c0,4.3,1.3,7.7,4,10.3a14.51,14.51,0,0,0,10.5,3.9,14,14,0,0,0,14.5-14.6,13,13,0,0,0-4-9.9,14.19,14.19,0,0,0-10.3-3.9,17.13,17.13,0,0,0-5.9,1.1A14.19,14.19,0,0,0,296.1,231Zm18.5,1.1a14.45,14.45,0,0,1,3.6,10,12.52,12.52,0,0,1-3,8.6,9.74,9.74,0,0,1-7.7,3.4,10.74,10.74,0,0,1-8.6-4.2,15.58,15.58,0,0,1-3.5-10.2c0-3.5.9-6.4,2.7-8.4a9.24,9.24,0,0,1,7.4-3.1A11.47,11.47,0,0,1,314.6,232.07Z"/><path class="a" d="M307.3,224.27l2.6-2.9.3-.4a.86.86,0,0,0,.3-.6.74.74,0,0,0-.8-.8,7.7,7.7,0,0,0-1.9.1c-.2,0-.4.2-.5.5l-.5,1.1c-.1.2-.3.7-.8,1.7l-.4.9a3.09,3.09,0,0,0-.2.8c0,.3.1.4.4.4A3.61,3.61,0,0,0,307.3,224.27Z"/><path class="a" d="M82,321.67a25.5,25.5,0,0,0-4,.2l-2.8.3c-1.1.1-2.7.2-4.7.2H68.4l-2.4-.1c-.5,0-.8.2-.8.6s.3.6,1,.6a4.49,4.49,0,0,1,3.4,1.7c.7.9,1,2.4,1,4.5v27.1a10.46,10.46,0,0,1-.6,4.4,3.85,3.85,0,0,1-2.6,1.5c-.6.1-.8.3-.8.7s.3.7,1.1.7a14.92,14.92,0,0,0,1.7-.2,46.13,46.13,0,0,1,5.6-.3c2,0,4.3.1,7,.3,1.3.1,2.2.2,2.8.2a22.45,22.45,0,0,0,12.1-3.5,19.25,19.25,0,0,0,6.9-7.5,23.22,23.22,0,0,0,2.5-10.5,19.91,19.91,0,0,0-5.6-14.5C96.4,323.77,90.2,321.67,82,321.67Zm12.6,37.8a17.12,17.12,0,0,1-9.3,2.6,26,26,0,0,1-4.2-.5,23.65,23.65,0,0,1-4.1-1.1,2.54,2.54,0,0,1-1.8-2.5V327a3.24,3.24,0,0,1,.8-2.5c.9-.7,2.9-1,6-1a17.75,17.75,0,0,1,17.3,10.8,24,24,0,0,1,2.2,10.4C101.6,351.67,99.3,356.57,94.6,359.47Z"/><path class="a" d="M139.8,332.47a4.91,4.91,0,0,0-1.1.1,14.12,14.12,0,0,1-2.2.1c-1.7,0-3.1-.1-4.1-.2a7.75,7.75,0,0,1-.9-.1c-.4,0-.7.1-.7.4s.2.5.7.5a6.47,6.47,0,0,1,3.2,1.2,3.78,3.78,0,0,1,1.1,2.7l.3,5.2v14.1c0,.3-.1.4-.2.4s-.3-.2-.6-.5L114.7,333a2,2,0,0,0-1.1-.7h-4c-.3,0-.5.1-.5.4s.2.4.6.5a4.88,4.88,0,0,1,3.6,2.5,13,13,0,0,1,1.2,6.1v15.3a6.33,6.33,0,0,1-.7,3.5,4.43,4.43,0,0,1-2.5,1.7c-.4.1-.6.3-.6.5s.2.4.6.4a2.82,2.82,0,0,0,.8-.1,9.15,9.15,0,0,1,1.7-.1h1.1l2.3.1c1.1.1,1.8.1,2,.1h.7c.3,0,.5-.1.5-.4s-.2-.5-.7-.6a5.92,5.92,0,0,1-2.4-.8,3.37,3.37,0,0,1-.8-2l-.1-1.6v-16.1c0-.7.1-1,.4-1a.37.37,0,0,1,.3.1l.2.2,18.9,21.6.5.6a.76.76,0,0,0,.5.2.56.56,0,0,0,.6-.5,20.42,20.42,0,0,0,.1-3.1v-22.7a6.56,6.56,0,0,1,.4-2.9,2.68,2.68,0,0,1,1.8-1.1c.3-.1.5-.2.4-.4A1,1,0,0,0,139.8,332.47Z"/><path class="a" d="M155.4,362.47a5.17,5.17,0,0,1-2.1-.7,4.08,4.08,0,0,1-1.1-1.6,13,13,0,0,1-.4-4.2v-16.8c0-3.2.6-5,1.7-5.4l1.2-.4q.6-.15.6-.6c0-.3-.2-.4-.6-.4h-.6l-1.5.1c-.8,0-1.7.1-2.8.1-1.8,0-3.3-.1-4.4-.2H145c-.4,0-.7.2-.7.5s.3.4.7.5a3.8,3.8,0,0,1,2.7,1.3,7.91,7.91,0,0,1,.6,3.8v19.2a9.34,9.34,0,0,1-.5,3.7,2.93,2.93,0,0,1-2.2,1.2c-.5.1-.7.2-.7.5s.2.5.6.5a4.91,4.91,0,0,0,1.1-.1l2.6-.2,3.3.1a14.9,14.9,0,0,1,2.4.1c.3,0,.6.1.9.1.5,0,.7-.2.7-.5S156.2,362.57,155.4,362.47Z"/><path class="a" d="M188.6,362.57a6.57,6.57,0,0,1-2.8-1c-.5-.4-1-1.6-1.8-3.4l-.5-1.2-9.6-24.7c-.2-.4-.4-.7-.6-.7s-.5.2-.7.7l-11.5,25.6-.7,1.5a6.25,6.25,0,0,1-1.3,2,3.64,3.64,0,0,1-1.2,1.1l-.8.2c-.3.1-.4.2-.4.5s.2.4.6.4a10.3,10.3,0,0,0,1.3-.1h1a19.29,19.29,0,0,1,2.5.1l2.1.1h.8c.4,0,.6-.1.6-.4s-.2-.4-.7-.5a5.38,5.38,0,0,1-2.1-.8,1.72,1.72,0,0,1-.5-1.5,9.09,9.09,0,0,1,1-3.4l1.5-3.3a4.24,4.24,0,0,1,1.1-1.8,4.54,4.54,0,0,1,2.1-.3h8.1a4,4,0,0,1,1.5.2c.2.1.4.6.7,1.4l1.1,3a18.36,18.36,0,0,1,1.4,4.7c0,.9-.4,1.4-1.1,1.5l-.7.2c-.4.1-.6.2-.6.5s.2.5.6.5a2.25,2.25,0,0,0,.7-.1,32.63,32.63,0,0,1,3.9-.1,40.22,40.22,0,0,1,4.1.1h.9c.4,0,.6-.1.6-.4S189.1,362.67,188.6,362.57Zm-13.2-13.1H168c-.7,0-1-.2-1-.6a2.71,2.71,0,0,1,.3-.8l4.4-9.7c.1-.3.3-.4.4-.4s.4.3.6.7l.2.5,3.5,8.9.1.4a1.09,1.09,0,0,1,.1.5C176.6,349.27,176.2,349.47,175.4,349.47Z"/><path class="a" d="M217.1,339.37c-3.8-1.3-6.2-2.1-7.2-2.6a7.43,7.43,0,0,1-4.1-6.7,6.06,6.06,0,0,1,2.2-4.8,7.76,7.76,0,0,1,5.4-1.9,13.57,13.57,0,0,1,7.4,2.1,10,10,0,0,1,4.4,5.4c.3,1,.7,1.4,1,1.4s.6-.3.6-.9c0-.2-.1-.6-.2-1.2l-.5-3.1a23.81,23.81,0,0,1-.4-3c0-1-.3-1.5-.8-1.5-.2,0-.3,0-.3.1l-.4.4a1.08,1.08,0,0,1-.7.3.75.75,0,0,1-.5-.1l-2.1-.9a14.53,14.53,0,0,0-5.4-.9,13.58,13.58,0,0,0-9.3,3.1,9.87,9.87,0,0,0-3.6,7.9,9.34,9.34,0,0,0,2.8,7.1c1.9,1.8,5,3.5,9.5,5,4.3,1.4,6.9,2.6,7.8,3.3a7,7,0,0,1,2.6,5.6,7.53,7.53,0,0,1-2.9,5.9,10.44,10.44,0,0,1-7,2.4,12.8,12.8,0,0,1-7.6-2.5,12.36,12.36,0,0,1-4.6-6.3c-.3-1-.6-1.5-1-1.5s-.6.3-.6.9a18.75,18.75,0,0,0,.8,3.9c.5,1.7.7,2.6.8,2.7a16.3,16.3,0,0,0,.5,2.1c.1.3.4.5.7.8a11.79,11.79,0,0,0,4.1,1.5,25.79,25.79,0,0,0,5.1.7,15.21,15.21,0,0,0,10.5-3.6,11.85,11.85,0,0,0,4.1-9.2C228.2,345.77,224.5,341.77,217.1,339.37Z"/><path class="a" d="M243.5,362.47a5.17,5.17,0,0,1-2.1-.7,4.08,4.08,0,0,1-1.1-1.6,13,13,0,0,1-.4-4.2v-16.8c0-3.2.6-5,1.7-5.4l1.2-.4q.6-.15.6-.6c0-.3-.2-.4-.6-.4h-.6l-1.5.1c-.8,0-1.7.1-2.8.1-1.8,0-3.3-.1-4.4-.2h-.4c-.4,0-.7.2-.7.5s.3.4.7.5a3.8,3.8,0,0,1,2.7,1.3,7.91,7.91,0,0,1,.6,3.8v19.2a9.34,9.34,0,0,1-.5,3.7,2.93,2.93,0,0,1-2.2,1.2c-.5.1-.7.2-.7.5s.2.5.6.5a4.91,4.91,0,0,0,1.1-.1l2.6-.2,3.3.1a14.9,14.9,0,0,1,2.4.1c.3,0,.6.1.9.1.5,0,.7-.2.7-.5S244.3,362.57,243.5,362.47Z"/><path class="a" d="M263.9,332.07a16.54,16.54,0,0,0-6.6,1.3,14.26,14.26,0,0,0-5.3,3.4,16.81,16.81,0,0,0-4.4,11.2,15.37,15.37,0,0,0,4.5,11.5,16.16,16.16,0,0,0,11.7,4.4,15.44,15.44,0,0,0,11.6-4.6,16.22,16.22,0,0,0,4.5-11.8,14.77,14.77,0,0,0-4.5-11.1A16.2,16.2,0,0,0,263.9,332.07Zm9.4,26.7a11.15,11.15,0,0,1-8.6,3.8,12.12,12.12,0,0,1-9.6-4.7,17.14,17.14,0,0,1-3.9-11.4c0-4,1-7.1,3.1-9.4a10.5,10.5,0,0,1,8.3-3.5,13.08,13.08,0,0,1,10.1,4.5,16.1,16.1,0,0,1,4.1,11.2A15.1,15.1,0,0,1,273.3,358.77Z"/><path class="a" d="M264.5,329.27l2.9-3.2.4-.4a1.1,1.1,0,0,0,.3-.6.8.8,0,0,0-.9-.9,8.77,8.77,0,0,0-2.1.1.82.82,0,0,0-.5.5l-.5,1.2c-.1.2-.4.8-.9,1.9l-.5,1a1.64,1.64,0,0,0-.2.9c0,.3.1.5.4.5A10.15,10.15,0,0,0,264.5,329.27Z"/><path class="a" d="M296,332.27a28.12,28.12,0,0,0-3,.1l-2.1.2a33.33,33.33,0,0,1-3.5.1h-1.6l-1.8-.1c-.4,0-.6.1-.6.4s.2.4.7.5a3.17,3.17,0,0,1,2.5,1.2,5.71,5.71,0,0,1,.8,3.3v20.2a7.86,7.86,0,0,1-.4,3.3,2.94,2.94,0,0,1-2,1.1c-.4.1-.6.3-.6.5,0,.4.3.5.8.5.3,0,.7-.1,1.3-.1a26.84,26.84,0,0,1,4.2-.2c1.5,0,3.2.1,5.2.2a19.71,19.71,0,0,0,2.1.1,16.59,16.59,0,0,0,9-2.6,13.8,13.8,0,0,0,5.1-5.6,17.2,17.2,0,0,0,1.8-7.8,14.62,14.62,0,0,0-4.2-10.8C306.8,333.77,302.2,332.27,296,332.27Zm9.5,28.2a12.34,12.34,0,0,1-6.9,1.9,18.92,18.92,0,0,1-3.1-.3,16,16,0,0,1-3-.8,1.92,1.92,0,0,1-1.4-1.9v-23.1a2.16,2.16,0,0,1,.6-1.8c.6-.5,2.1-.8,4.5-.8a13.71,13.71,0,0,1,8.4,2.5,13.33,13.33,0,0,1,4.5,5.6,18,18,0,0,1,1.6,7.7C310.7,354.67,308.9,358.27,305.5,360.47Z"/><path class="a" d="M352.8,362.57a3.8,3.8,0,0,1-2.3-1,4,4,0,0,1-.6-2.5l-.1-2.8-.4-12.2-.1-5.4a10.47,10.47,0,0,1,.5-3.7,2.08,2.08,0,0,1,1.6-1.4l1-.2c.3-.1.5-.2.5-.5s-.1-.5-.5-.4h-.6a14.84,14.84,0,0,1-2.3.1h-.7a5.13,5.13,0,0,0-1-.1.85.85,0,0,0-.6.2,3.05,3.05,0,0,0-.5.9l-10.5,22.6-.2.4-.3.6c-.1.3-.2.4-.3.4s-.2-.2-.4-.6l-1.1-2.3-9.3-20.2-.2-.5c-.4-.9-1-1.4-1.6-1.4a2.48,2.48,0,0,0-.8.1h-4.5c-.4,0-.6.2-.6.5s.2.5.7.5a4.75,4.75,0,0,1,3.5,2.4,12.59,12.59,0,0,1,1.1,5.9c0,1.2-.1,4.2-.3,8.9l-.3,6.5a10.46,10.46,0,0,1-.8,3.9,3,3,0,0,1-2.3,1.5c-.4.1-.5.2-.5.5s.2.5.7.5a2,2,0,0,0,.7-.1,30.29,30.29,0,0,1,3.1-.2c.9,0,2.2.1,3.9.2h.8c.4,0,.6-.2.6-.5s-.5-.5-1.4-.7c-1.9-.3-2.8-1.7-2.8-4.4s0-4.6.1-5.5l.5-11.1,8.4,18.2.4.9a5.66,5.66,0,0,1,.6,1.2c.3.7.7,1.1,1,1.1s.7-.4,1-1.1c.1-.2.2-.4.4-.9.3-.7.7-1.5,1.2-2.6,1.1-2.5,1.8-3.9,1.9-4.2l2.3-4.7,2-4.3c.4-.9,1.3-2.4,2.5-4.6l.6,14.3.1,3.7a6.33,6.33,0,0,1-.4,2.8,3.17,3.17,0,0,1-1.8,1.2c-.4.1-.6.3-.6.5s.2.4.7.4c.2,0,1.1,0,2.7-.1a20.35,20.35,0,0,1,2.2-.1,11.49,11.49,0,0,1,1.9.1l1.7.2h.6c.6,0,.8-.2.8-.4A4.3,4.3,0,0,0,352.8,362.57Z"/><path class="a" d="M380.5,357.27c-.2,0-.3.2-.5.4-1.7,2.6-5.4,4-11.3,4a7.84,7.84,0,0,1-3.5-.5c-.5-.3-.7-1.1-.7-2.4v-9c0-.4.1-.8.4-.9s.7-.2,1.5-.2h4.9a5.57,5.57,0,0,1,2.7.5,3.2,3.2,0,0,1,1.1,2l.1.6a.63.63,0,0,0,.6.5c.3,0,.4-.2.4-.6V351a24.37,24.37,0,0,1-.1-2.7c0-1.2.1-2.5.2-4v-.5c0-.4-.1-.6-.4-.6a.63.63,0,0,0-.6.5,3.92,3.92,0,0,1-.7,1.9,3,3,0,0,1-1.6.7,18.32,18.32,0,0,1-3.7.3h-3.5a2.87,2.87,0,0,1-1.2-.2,2.53,2.53,0,0,1-.2-1.2v-9c0-.8.1-1.3.4-1.5a3.61,3.61,0,0,1,1.8-.3h3.5a25.68,25.68,0,0,1,4.8.3,2.35,2.35,0,0,1,1.7,1.3,3.19,3.19,0,0,1,.3,1.4v.6c0,.5.1.7.4.7a.46.46,0,0,0,.5-.3,4.66,4.66,0,0,0,.2-1.6l.1-1.3a11.05,11.05,0,0,1,.2-1.8,4.33,4.33,0,0,1,.1-.5c0-.4-.2-.6-.7-.6a3.44,3.44,0,0,0-.9.1c-.2,0-.7.1-1.6.1l-3.2.2c-1.4.1-3,.1-4.8.1a56.87,56.87,0,0,1-7.7-.4,8.64,8.64,0,0,0-1.5-.1c-.7,0-1,.2-1,.6s.2.4.7.4c1.4,0,2.3.4,2.7,1.1s.7,2.2.7,4.3v20.5c0,1.8-.5,2.8-1.6,3.1l-.8.2c-.4.1-.6.3-.6.5s.2.5.7.5c.2,0,.6-.1,1.2-.2a34.52,34.52,0,0,1,5.5-.3,68.53,68.53,0,0,1,7.1.4,11.56,11.56,0,0,0,1.7.1,6.2,6.2,0,0,0,5-2.4,5.69,5.69,0,0,0,1.6-3.5C380.9,357.47,380.8,357.27,380.5,357.27Z"/><path class="a" d="M414.7,347.17a17.36,17.36,0,0,0-1.8.1h-6.6c-.5,0-.8.1-.8.4s.3.5.9.6a5.08,5.08,0,0,1,2.4.6,2.4,2.4,0,0,1,.6,1.9v5a4.88,4.88,0,0,1-.7,3.1,9.79,9.79,0,0,1-8.1,3.7,11.46,11.46,0,0,1-9.1-4.4,16.19,16.19,0,0,1-3.7-10.9,14.9,14.9,0,0,1,3.2-9.9,10.19,10.19,0,0,1,8.3-3.9,14.86,14.86,0,0,1,13.1,8,.51.51,0,0,0,.5.4c.3,0,.5-.2.5-.6a2,2,0,0,0-.1-.7c-.1-.6-.2-1.1-.3-1.7l-.2-2.1a9.89,9.89,0,0,1-.1-1.5c0-.7-.1-1.1-.4-1.1a.37.37,0,0,0-.3.1l-.5.4c-.2.1-.3.2-.4.2s-.2-.1-.4-.2a15.85,15.85,0,0,0-4.7-1.9,23.6,23.6,0,0,0-5.6-.8,15.23,15.23,0,0,0-11.4,4.7,16.46,16.46,0,0,0-4.6,11.8,14.61,14.61,0,0,0,4.3,11,14.77,14.77,0,0,0,11,4.3,18.39,18.39,0,0,0,9.4-2.5l1.5-.9a4.5,4.5,0,0,1,1.9-.8,1.17,1.17,0,0,0,.7-.2l.1-.3v-8.6A2.27,2.27,0,0,1,415,348c.4-.1.7-.3.7-.5A2.65,2.65,0,0,0,414.7,347.17Z"/><path class="a" d="M434.9,332.07a16.54,16.54,0,0,0-6.6,1.3,14.26,14.26,0,0,0-5.3,3.4,16.81,16.81,0,0,0-4.4,11.2,15.37,15.37,0,0,0,4.5,11.5,16.16,16.16,0,0,0,11.7,4.4,15.44,15.44,0,0,0,11.6-4.6,16.22,16.22,0,0,0,4.5-11.8,14.77,14.77,0,0,0-4.5-11.1A16.2,16.2,0,0,0,434.9,332.07Zm9.4,26.7a11.15,11.15,0,0,1-8.6,3.8,12.12,12.12,0,0,1-9.6-4.7,17.14,17.14,0,0,1-3.9-11.4c0-4,1-7.1,3.1-9.4a10.5,10.5,0,0,1,8.3-3.5,13.08,13.08,0,0,1,10.1,4.5,16.1,16.1,0,0,1,4.1,11.2A14.56,14.56,0,0,1,444.3,358.77Z"/><path class="a" d="M62.1,309.07c-2.8-.5-4.6-1.2-5.5-2s-2-3.1-3.4-6.6l-1-2.4L33.4,250c-.3-.8-.7-1.3-1.2-1.3s-.9.4-1.3,1.3L8.4,299.87l-1.3,2.9a27.39,27.39,0,0,1-2.4,3.9,6.68,6.68,0,0,1-2.4,2.1l-1.6.5a.86.86,0,0,0-.7.9c0,.5.4.8,1.2.8.1,0,1-.1,2.4-.2.5,0,1.1-.1,2-.1,1.8,0,3.4,0,4.8.1l4.2.2h1.5c.8,0,1.2-.2,1.2-.7s-.5-.9-1.4-1a8.51,8.51,0,0,1-4-1.6,3.75,3.75,0,0,1-1-3,18.82,18.82,0,0,1,1.9-6.6l2.9-6.4c.9-2,1.6-3.2,2.1-3.5s1.9-.5,4-.5H37.6a6.25,6.25,0,0,1,3,.4,8.21,8.21,0,0,1,1.4,2.8l2.2,5.8c1.8,4.6,2.7,7.7,2.7,9.2,0,1.7-.7,2.7-2.2,3l-1.4.3c-.7.1-1.1.4-1.1.9s.4.9,1.1.9c.3,0,.7-.1,1.4-.2a55.41,55.41,0,0,1,7.6-.3c3.9,0,6.6.1,8.1.2a13.05,13.05,0,0,0,1.7.1c.8,0,1.2-.2,1.2-.7C63.5,309.57,63,309.27,62.1,309.07Zm-25.6-25.5H22.1c-1.3,0-2-.4-2-1.1a4.59,4.59,0,0,1,.6-1.6L29.2,262c.3-.6.5-.9.7-.8.4,0,.8.5,1.1,1.4l.4.9,6.9,17.3.2.8a8.38,8.38,0,0,1,.2,1C38.7,283.27,38,283.57,36.5,283.57Z"/><path class="a" d="M82.4,265.27c-1.6,0-3,.1-4.3.2l-3,.3c-1.2.1-2.9.2-5.1.2H67.7l-2.6-.1c-.6,0-.8.2-.8.6s.4.6,1.1.7a5.05,5.05,0,0,1,3.7,1.8,8.49,8.49,0,0,1,1.1,4.8v29.5c0,2.4-.2,4-.7,4.8s-1.4,1.3-2.9,1.6c-.6.1-.9.4-.9.7,0,.5.4.8,1.1.7a17.63,17.63,0,0,0,1.9-.2,50.45,50.45,0,0,1,6.1-.4c2.2,0,4.7.1,7.6.3,1.4.1,2.4.2,3,.2a24.13,24.13,0,0,0,13.1-3.8,20.9,20.9,0,0,0,7.5-8.1,23.87,23.87,0,0,0,2.7-11.3c0-6.4-2-11.6-6.1-15.7C98.1,267.57,91.4,265.27,82.4,265.27Zm13.7,41.1a18.29,18.29,0,0,1-10.1,2.8,30.3,30.3,0,0,1-4.6-.5,25.45,25.45,0,0,1-4.4-1.1,2.76,2.76,0,0,1-2-2.7v-33.7a3.78,3.78,0,0,1,.8-2.7c.9-.7,3.1-1.1,6.6-1.1A20.78,20.78,0,0,1,94.7,271a20.17,20.17,0,0,1,6.5,8.1,26.31,26.31,0,0,1,2.4,11.3C103.7,297.87,101.2,303.17,96.1,306.37Z"/><path class="a" d="M150.8,312.57c.6,0,1.1-.6,1.7-1.8l.5-1,.7-1.7,1.6-3.6,2.6-6.2,3.9-8.9c.8-1.9,2.1-4.8,3.7-8.7,1.6-3.7,2.7-6.3,3.5-7.9l1.8-3.9a3.57,3.57,0,0,1,2-2c.6-.3.9-.6.9-1s-.2-.7-.7-.7c-.3,0-.8.1-1.5.2-1,.1-2.5.2-4.5.2-1.7,0-3,0-3.9-.1h-.6c-.6,0-1,.2-1,.7s.5.8,1.5,1.1c1.9.4,2.8,1.1,2.8,2.1,0,1.2-1.2,5-3.7,11.5s-5.1,12.9-8,19.3c-.4.9-.7,1.5-.8,1.8-.4,1-.8,1.5-1.1,1.5s-.8-.9-1.6-2.6l-6.6-15.5,5.4-12.7a23.5,23.5,0,0,1,2.1-4.3,4.07,4.07,0,0,1,1.8-1.2c.8-.2,1.1-.5,1.1-.9s-.3-.8-1-.8a7.17,7.17,0,0,0-1.3.1,27.32,27.32,0,0,1-3.2.1c-1.3,0-2.4,0-3.4-.1-.7,0-1.1-.1-1.3-.1-.8,0-1.1.2-1.1.6s.5.9,1.6,1.1c1.4.3,2.2.9,2.2,1.9,0,1.7-1.3,5.3-3.8,10.9a11.25,11.25,0,0,0-.7,1.5l-3.3-8a12.32,12.32,0,0,1-1.2-4,2.1,2.1,0,0,1,1.6-2.1c.7-.3,1.1-.6,1.1-.9,0-.5-.4-.8-1.1-.8a9.51,9.51,0,0,0-1.4.1c-1.2.1-2.3.2-3.2.2l-6.4-.2h-1.3c-.9,0-1.4.2-1.4.6,0,.6.8,1,2.6,1.2a4,4,0,0,1,2.6,1.2,27.14,27.14,0,0,1,2.4,4.4l2.7,6.4,2.9,6.8c.1.2.4.9.8,2l-5.7,13.1-.2.4c-.3.7-.5,1-.7,1s-.3-.2-.6-.7l-.4-.7c-.1-.3-.4-.8-.7-1.6l-3.2-7.1q-1-2.25-3.3-8.1c-1.6-4-2.8-6.8-3.5-8.5-1.6-3.6-2.4-6-2.4-7.1,0-.9.7-1.5,2.1-1.9.5-.2.7-.4.7-.8s-.3-.8-.9-.8c-.2,0-.9,0-2,.1l-2.8.1h-4a29.17,29.17,0,0,1-3.3-.2c-.4,0-.6-.1-.8-.1-.7,0-1,.3-1,.8a.76.76,0,0,0,.7.8l1.3.3a5.51,5.51,0,0,1,3.4,2.2,28.89,28.89,0,0,1,3.1,6.2l.9,2.2,13.5,32.3c.7,1.7,1.3,2.5,1.9,2.6.4,0,.8-.4,1.2-1.4l8.2-19.5,8.1,18.9C149.9,312.07,150.3,312.57,150.8,312.57Z"/><path class="a" d="M207.8,307.57c1.6-2,2.4-3.6,2.4-5.1,0-.6-.2-.9-.6-.8a1,1,0,0,0-.7.6c-2.4,3.9-7.9,5.8-16.5,5.8-2.7,0-4.4-.2-5-.7s-1-1.6-1-3.5v-13.2a1.45,1.45,0,0,1,.5-1.3,5.15,5.15,0,0,1,2.1-.3h7.2a7.74,7.74,0,0,1,4,.8,4.32,4.32,0,0,1,1.6,3l.2.9a.76.76,0,0,0,.8.7c.4,0,.6-.3.6-.8a3.44,3.44,0,0,0-.1-.9c-.1-1.3-.2-2.6-.2-3.9,0-1.7.1-3.7.3-5.8v-.7q0-.9-.6-.9c-.4,0-.7.2-.8.8a7.25,7.25,0,0,1-.9,2.7,4.49,4.49,0,0,1-2.3,1,25.79,25.79,0,0,1-5.4.4h-5a2.94,2.94,0,0,1-1.7-.3,3.12,3.12,0,0,1-.3-1.8v-13.2c0-1.2.2-1.9.6-2.2a4.85,4.85,0,0,1,2.6-.5h5.1a34.87,34.87,0,0,1,7,.5,3.28,3.28,0,0,1,2.5,2,4.48,4.48,0,0,1,.4,2v.8c0,.7.2,1,.6,1a.67.67,0,0,0,.7-.5,14.26,14.26,0,0,0,.3-2.4l.1-1.9a16.36,16.36,0,0,1,.3-2.6,2.48,2.48,0,0,0,.1-.8c0-.6-.4-.9-1.1-.9a7.17,7.17,0,0,0-1.3.1c-.3,0-1.1.1-2.4.1l-4.6.2c-2,.1-4.4.1-7.1.1-4.4,0-8.1-.2-11.2-.5-.9-.1-1.6-.2-2.2-.2q-1.5,0-1.5.9,0,.6.9.6c2,0,3.3.5,4,1.6s1,3.2,1,6.3v29.8c0,2.6-.8,4.1-2.4,4.6l-1.2.4c-.6.2-.9.4-.9.8s.4.7,1,.7c.3,0,.9-.1,1.7-.2a51.61,51.61,0,0,1,8.1-.4c2.7,0,6.2.2,10.3.6,1.1.1,1.9.1,2.6.1A8.92,8.92,0,0,0,207.8,307.57Z"/><path class="a" d="M227.5,309.47a8.14,8.14,0,0,1-3.5-1.2,4.21,4.21,0,0,1-1.1-3l-.1-2.3v-23.6q0-1.5.6-1.5c.2,0,.3.1.5.2l.3.4L251.8,310l.7.8a1,1,0,0,0,.8.3.81.81,0,0,0,.9-.8,31.93,31.93,0,0,0,.2-4.5v-27.3l.1-2.2v-3.5a10.54,10.54,0,0,1,.6-4.3,3.58,3.58,0,0,1,2.6-1.6c.5-.1.7-.3.7-.6,0-.5-.3-.7-.9-.7a13.7,13.7,0,0,0-1.6.2,25.83,25.83,0,0,1-3.2.2c-2.5,0-4.5-.1-6.1-.2a8.17,8.17,0,0,0-1.4-.1q-.9,0-.9.6c0,.4.3.7.9.8,2.2.4,3.8.9,4.7,1.7a5.89,5.89,0,0,1,1.6,3.9l.4,7.5v20.6c0,.4-.1.6-.4.6-.1,0-.4-.2-.9-.8l-30.1-34.1a2.39,2.39,0,0,0-1.6-1h-1.7l-2.2-.1h-1.8c-.5,0-.7.2-.7.6s.3.6.9.7a6.62,6.62,0,0,1,5.2,3.7c1.2,2.2,1.8,5.1,1.8,8.9v22.3c0,2.4-.3,4.1-1,5.1a6.24,6.24,0,0,1-3.7,2.5c-.6.2-.9.5-.9.8s.3.6.9.6a6.82,6.82,0,0,0,1.2-.1,19.27,19.27,0,0,1,2.4-.1l1.6-.1,3.3.2a20.68,20.68,0,0,1,2.8.2c.3,0,.7.1,1,.1.5,0,.7-.2.7-.6S228.2,309.47,227.5,309.47Z"/><path class="a" d="M287.4,310.77c.8.1,1.3.2,1.6.2.6,0,.9-.2.9-.7s-.4-.6-1.1-.7c-2.7-.5-4.2-2-4.3-4.6v-33.4c0-1,.1-1.7.4-1.9a2.65,2.65,0,0,1,1.8-.4h9.2c1.8,0,3.1.2,3.7.7a5.23,5.23,0,0,1,1.4,3c.1.7.4,1,.8,1s.7-.4.7-1c0-.3-.1-.9-.2-1.6a17,17,0,0,1-.2-2.8c0-1.3-.1-2.1-.4-2.3s-1-.4-2.2-.4H264.3a2.07,2.07,0,0,0-1.5.5,4.31,4.31,0,0,0-.3,2,23,23,0,0,1-.5,3.9,11.84,11.84,0,0,0-.4,2.5q0,.9.6.9t.9-1.2a7.85,7.85,0,0,1,1.8-4,5.74,5.74,0,0,1,3.8-1.1h8.7a2.75,2.75,0,0,1,1.6.3,2.37,2.37,0,0,1,.3,1.5v33.3a6,6,0,0,1-.9,3.8,5.14,5.14,0,0,1-3.4,1.4c-.7.1-1.1.3-1.1.6,0,.5.3.7,1,.7.2,0,.9-.1,2.2-.2a15.52,15.52,0,0,1,2.3-.1h5C286,310.67,287,310.77,287.4,310.77Z"/><path class="a" d="M329.4,287l.8-1.1,7.9-11.9,2.1-3.2a10.12,10.12,0,0,1,4.8-3.7c.5-.2.8-.4.8-.8s-.3-.6-.9-.6c-.3,0-.9.1-1.7.2a40.36,40.36,0,0,1-4.3.1c-2.4,0-4,0-4.6-.1-.8-.1-1.4-.2-1.7-.2a.7.7,0,0,0-.8.6c0,.4.2.6.8.8,2.7.7,4.1,1.7,4.1,3.2,0,.8-.8,2.5-2.3,4.9l-1.6,2.5-4.7,7.2-.3.5c-.2.3-.4.5-.7.5s-.4-.2-.6-.5l-.4-.7-6.9-10.8-.9-1.6a8.77,8.77,0,0,1-1.4-3.1c0-1,.7-1.8,2.2-2.2.5-.2.8-.4.8-.7s-.3-.6-1-.6a14.89,14.89,0,0,0-1.7.1c-.9.1-2.9.1-6.1.1-1.5,0-3-.1-4.4-.2a9.7,9.7,0,0,0-1.7-.1c-.7,0-1,.2-1,.7s.3.6.9.6a6.35,6.35,0,0,1,3.4,1,7.24,7.24,0,0,1,2.7,2.5l1.1,1.8,9.1,14.5a10.19,10.19,0,0,1,1.4,2.8,11.86,11.86,0,0,1,.3,3.1v11.2c0,2.3-.2,3.9-.7,4.6s-1.7,1.2-3.5,1.5c-.7.1-1.1.4-1.1.8s.2.5.8.5a6.82,6.82,0,0,0,1.2-.1,23.79,23.79,0,0,1,3.2-.1l2.6-.1,2.6.1c1,.1,1.8.1,2.4.2.9.1,1.5.2,1.7.2.8,0,1.1-.3,1.1-.8s-.3-.6-1-.7c-2-.2-3.1-.6-3.6-1.1s-.6-2.1-.6-4.7v-13.7A7.71,7.71,0,0,1,329.4,287Z"/><path class="a" d="M351,268.37a10.78,10.78,0,0,0-3.9,8.6,10.32,10.32,0,0,0,3,7.7c2,2,5.4,3.8,10.3,5.4,4.7,1.6,7.5,2.8,8.5,3.6a8,8,0,0,1-.2,12.5,11.22,11.22,0,0,1-7.6,2.7,13.14,13.14,0,0,1-8.2-2.8,12.83,12.83,0,0,1-5-6.8c-.3-1-.7-1.6-1.1-1.6s-.7.3-.7.9a21.77,21.77,0,0,0,.8,4.2c.5,1.8.8,2.8.8,3,.3,1.2.5,2,.6,2.3a1.55,1.55,0,0,0,.8.8,14.87,14.87,0,0,0,4.4,1.7,23,23,0,0,0,5.5.7,16.78,16.78,0,0,0,11.4-3.9,12.5,12.5,0,0,0,4.4-10c0-6-4-10.3-12.1-13-4.1-1.4-6.7-2.3-7.8-2.8a8.44,8.44,0,0,1-2.9-2.5,7.55,7.55,0,0,1-1.5-4.7,6.59,6.59,0,0,1,2.4-5.2,8.53,8.53,0,0,1,5.9-2.1,14.67,14.67,0,0,1,8,2.3,11.15,11.15,0,0,1,4.8,5.8c.4,1,.7,1.6,1.1,1.6s.7-.3.7-1c0-.2-.1-.6-.2-1.3l-.5-3.4a25.56,25.56,0,0,1-.4-3.3c0-1.1-.3-1.6-.8-1.6-.2,0-.3,0-.4.1l-.5.4a1.33,1.33,0,0,1-.8.3,1.27,1.27,0,0,1-.6-.1l-2.3-1a14.87,14.87,0,0,0-5.9-1A16.33,16.33,0,0,0,351,268.37Z"/><path class="a" d="M418.9,273c0-.3-.1-.9-.2-1.6a17,17,0,0,1-.2-2.8c0-1.3-.1-2.1-.4-2.3s-1-.4-2.2-.4H380.7a2.07,2.07,0,0,0-1.5.5,4.31,4.31,0,0,0-.3,2,23,23,0,0,1-.5,3.9,11.84,11.84,0,0,0-.4,2.5q0,.9.6.9t.9-1.2a7.85,7.85,0,0,1,1.8-4,5.74,5.74,0,0,1,3.8-1.1h8.7a2.75,2.75,0,0,1,1.6.3,2.37,2.37,0,0,1,.3,1.5v33.3a6,6,0,0,1-.9,3.8,5.14,5.14,0,0,1-3.4,1.4c-.7.1-1.1.3-1.1.6,0,.5.3.7,1,.7.2,0,1-.1,2.2-.2a15.52,15.52,0,0,1,2.3-.1h5a18,18,0,0,1,2.9.1c.8.1,1.3.2,1.6.2.6,0,.9-.2.9-.7s-.4-.6-1.1-.7c-2.7-.5-4.2-2-4.3-4.6v-33.4c0-1,.1-1.7.4-1.9s.9-.4,1.8-.4h9.2c1.8,0,3.1.2,3.7.7a5.23,5.23,0,0,1,1.4,3c.1.7.4,1,.8,1C418.7,274,419,273.67,418.9,273Z"/><path class="a" d="M443.8,262.17a5.43,5.43,0,0,0,2.3-1.3l4.3-4.7.5-.6a1.65,1.65,0,0,0,.5-.9,1.16,1.16,0,0,0-1.3-1.3,18,18,0,0,0-3,.1,1.25,1.25,0,0,0-.8.8l-.8,1.7q-.15.45-1.2,2.7l-.7,1.5a3.82,3.82,0,0,0-.4,1.3C443.2,261.87,443.4,262.17,443.8,262.17Z"/><path class="a" d="M445.3,265.07a26.37,26.37,0,0,0-9.6,1.8,22.28,22.28,0,0,0-7.8,5,21.16,21.16,0,0,0-4.6,7.4,25.52,25.52,0,0,0-1.7,8.9c0,6.9,2.2,12.5,6.5,16.8s10,6.4,17.1,6.4c6.9,0,12.5-2.2,16.9-6.7s6.6-10.2,6.6-17.2q0-9.9-6.6-16.2C457.7,267.17,452.1,265.07,445.3,265.07ZM458.9,304a16,16,0,0,1-12.5,5.5,17.75,17.75,0,0,1-14-6.8c-3.8-4.5-5.7-10.1-5.7-16.7q0-8.7,4.5-13.8c3-3.4,7-5.1,12.1-5.1a19.41,19.41,0,0,1,14.8,6.5c4,4.3,5.9,9.8,5.9,16.3Q463.85,298.42,458.9,304Z"/><path class="a" d="M536.2,265.37c-.3,0-.8.1-1.5.2-1,.1-2.5.2-4.5.2-1.7,0-3,0-3.9-.1h-.6c-.6,0-1,.2-1,.7s.5.8,1.5,1.1c1.9.4,2.8,1.1,2.8,2.1,0,1.2-1.2,5-3.7,11.5s-5.1,12.9-8,19.3c-.4.9-.7,1.5-.8,1.8-.4,1-.8,1.5-1.1,1.5s-.8-.9-1.6-2.6l-6.6-15.5,5.4-12.7a23.51,23.51,0,0,1,2.1-4.3,4.07,4.07,0,0,1,1.8-1.2c.8-.2,1.1-.5,1.1-.9s-.3-.8-1-.8a7.17,7.17,0,0,0-1.3.1,27.32,27.32,0,0,1-3.2.1c-1.3,0-2.4,0-3.4-.1-.7,0-1.1-.1-1.3-.1-.8,0-1.1.2-1.1.6s.5.9,1.6,1.1c1.4.3,2.2.9,2.2,1.9,0,1.7-1.3,5.3-3.8,10.9a11.25,11.25,0,0,0-.7,1.5l-3.5-8.2a12.32,12.32,0,0,1-1.2-4,2.1,2.1,0,0,1,1.6-2.1c.7-.3,1.1-.6,1.1-.9,0-.5-.4-.8-1.1-.8a9.51,9.51,0,0,0-1.4.1c-1.2.1-2.3.2-3.2.2l-6.4-.2h-1.3c-.9,0-1.4.2-1.4.6,0,.6.8,1,2.6,1.2a4,4,0,0,1,2.6,1.2,27.14,27.14,0,0,1,2.4,4.4l2.7,6.4,2.9,6.8c.1.2.4.9.8,2l-5.6,13.2-.2.4c-.3.7-.5,1-.7,1s-.3-.2-.6-.7l-.4-.7c-.1-.3-.4-.8-.7-1.6l-3.2-7.1q-1.05-2.25-3.3-8.1c-1.6-4-2.8-6.8-3.5-8.5-1.6-3.6-2.4-6-2.4-7.1,0-.9.7-1.5,2.1-1.9.5-.2.7-.4.7-.8s-.3-.8-.9-.8c-.2,0-.9,0-2,.1l-2.8.1h-4a29.17,29.17,0,0,1-3.3-.2c-.3,0-.6-.1-.8-.1-.7,0-1,.3-1,.8a.76.76,0,0,0,.7.8l1.3.3a5.51,5.51,0,0,1,3.4,2.2,28.89,28.89,0,0,1,3.1,6.2l.9,2.2,13.5,32.3c.7,1.7,1.3,2.5,1.9,2.6.4,0,.8-.4,1.2-1.4l8.2-19.5,8.1,18.9c.5,1,.9,1.6,1.4,1.6s1.1-.6,1.7-1.8l.5-1,.7-1.7,1.6-3.6,2.6-6.2,3.9-8.9c.8-1.9,2.1-4.8,3.7-8.7,1.6-3.7,2.7-6.3,3.5-7.9l1.8-3.9a3.57,3.57,0,0,1,2-2c.6-.3.9-.6.9-1C537,265.57,536.7,265.37,536.2,265.37Z"/><path class="a" d="M238.3,224.17l2.6-2.9.3-.4a.86.86,0,0,0,.3-.6.74.74,0,0,0-.8-.8,7.7,7.7,0,0,0-1.9.1c-.2,0-.4.2-.5.5l-.5,1.1c-.1.2-.3.7-.8,1.7l-.4.9a3.09,3.09,0,0,0-.2.8c0,.3.1.4.4.4A2.68,2.68,0,0,0,238.3,224.17Z"/><path class="a" d="M254.5,191.57v-23.7h-12v-8.4h12v-.8c0-8.4-3.9-14.6-30.7-10l-44,7.8-25.3,35.1,60.8-10.8C233.5,177.77,249.5,177.07,254.5,191.57Z"/><path class="a" d="M283.4,158.37c-13.8,13.8-20.6,21.7-20.6,33.2,5.3-15.2,22.1-13.8,41.9-10l58.4,10.1-25.4-35.2-44.5-7.8Z"/><path class="a" d="M284.5,136c-5.4,5.4-14.8,14-19.2,23.4h9.8l11.3-11.2c10.4-10.4,18.3-18.3,21.7-28.2a36.38,36.38,0,0,0,1.9-18.1c-.3-2-1.1-4.8-1.1-4.2-1,11.3-4.1,18-20.5,34.4Z"/><path class="a" d="M253.9,66.67c6-6,21.2-19.6,21.2-31.4v-13c0-.1-.3-.1-.3,0-1,8.8-3.1,12.6-24.6,34.1L229,77.57c-11.2,11.2-20.3,23.2-19.1,36.5.7,7.5,3.2,11.6,4.8,12.7.8.6.6.2.4-.3-6.5-14.6,8.9-29.8,16.6-37.5Z"/><path class="a" d="M253.9,89.07c6-6,21.2-19.6,21.2-31.4v-13c0-.1-.3-.1-.3,0-1,8.8-3.1,12.6-24.6,34.1l-19.7,19.7c-7.1,7.1-13.7,14.6-13.4,26.7.2,7.4,3.9,13.6,9.5,15,2.3.5,2.2.2,1.6,0-7.9-3.7-7.4-18,5.5-30.9Z"/><path class="a" d="M208.7,103.67c1-11.3,4.1-18,20.5-34.4l24.7-24.8c6-6,21.2-19.6,21.2-31.4V.08c0-.1-.3-.1-.3,0-1,8.8-3.1,12.6-24.6,34.1l-19,19c-10.4,10.4-18.3,18.3-21.7,28.2a36.38,36.38,0,0,0-1.9,18.1C207.8,101.47,208.6,104.27,208.7,103.67Z"/><path class="a" d="M263.1,180.77a28.73,28.73,0,0,1,5.1-13h-5.4v13C262.8,180.87,263.1,180.87,263.1,180.77Z"/><path class="a" d="M288.4,109.77l-6.2,6.2c-9.6,9.6-19.3,20.3-19.3,30.2v13.2c0,.1.3.1.3,0,1-9.6,5.7-15.9,19.6-29.8l5.8-5.8c11.2-11.2,20.3-23.2,19.1-36.5-.7-7.5-3.2-11.6-4.8-12.7-.8-.6-.6-.2-.4.3C308.9,89.57,293.5,104.77,288.4,109.77Z"/><path class="a" d="M262.8,136.57c0,.1.3.1.3,0,1.1-9.2,6.3-16.1,18.3-28.1l5.7-5.7c7.2-7.2,13.6-14.6,13.3-26.7-.2-7.4-3.9-13.6-9.5-15-2.3-.5-2.2-.2-1.6,0,7.9,3.7,7.4,18.1-5.5,30.9l-7.1,7c-4.5,4.6-13.9,14.8-13.9,24.2v13.4Z"/><path class="a" d="M358.5,167.57h.2c.3,0,.4.3.4.7v3.4c0,.5,0,.8-.1.9a1.38,1.38,0,0,1-.4.3.35.35,0,0,0-.2.1c0,.1.1.1.2.1h1.9c.1,0,.2,0,.2-.1s-.1-.1-.2-.2a.85.85,0,0,1-.6-.2c-.1-.1-.1-.3-.1-.6v-1.6h.7a.37.37,0,0,1,.3.1l.1.1,1,1.6c.4.6.8.9,1.3.9s.7-.1.7-.2,0-.1-.1-.1h-.1c-.3,0-.6-.3-1-.8l-.1-.2-1.1-1.6a1.58,1.58,0,0,0,1-1.5c0-1-.7-1.5-2-1.5h-2c-.1,0-.2,0-.2.1S358.4,167.47,358.5,167.57Zm1.8.1a1.28,1.28,0,0,1,1,.4,1,1,0,0,1,.4.9,1,1,0,0,1-1.1,1.1h-.7v-2C359.9,167.77,360,167.67,360.3,167.67Z"/><path class="a" d="M360.8,175.17a5.1,5.1,0,0,0,0-10.2,5.08,5.08,0,0,0-5,5.1,5.16,5.16,0,0,0,1.2,3.3A4.78,4.78,0,0,0,360.8,175.17Zm-3.1-8.2a4.22,4.22,0,0,1,3.2-1.3,4.38,4.38,0,0,1,3.2,1.3,4.22,4.22,0,0,1,1.3,3.2,4.38,4.38,0,0,1-1.3,3.2,4.22,4.22,0,0,1-3.2,1.3,4.38,4.38,0,0,1-3.2-1.3,4.22,4.22,0,0,1-1.3-3.2A4.38,4.38,0,0,1,357.7,167Z"/><path class="a" d="M325.3,245.87c.3-.2,1.4-1,2.7-2v6.3a5.57,5.57,0,0,1-.5,2.7,2.75,2.75,0,0,1-1.9,1.2c-.4.1-.5.3-.5.5a.46.46,0,0,0,.5.4c.3,0,.7-.1,1.1-.1a24.9,24.9,0,0,1,4.1-.2c1.4,0,2.8,0,4,.1l2.2.2c.6,0,1.1.1,1.5.1,2.6,0,4.5-.7,5.6-2.2a5.24,5.24,0,0,0,1.3-2.9c0-.3-.1-.4-.3-.4s-.4.2-.6.5c-.5,1-1.7,1.8-3.5,2.4a20.82,20.82,0,0,1-6.5.9c-1.7,0-2.7-.1-3-.4s-.5-1.2-.5-2.9v-8.4c2.6-1.9,5.2-3.7,5.2-3.7a1.18,1.18,0,0,0,.7-1v-1.8s0-.6-.9,0c-.4.3-2.6,1.9-5,3.6v-6.9q0-3.15,1.8-3.6l.7-.2q.6-.15.6-.6c0-.2-.2-.3-.5-.3h-.9c-1,.1-2.1.1-3.3.1a30.09,30.09,0,0,1-3.1-.1,6.64,6.64,0,0,0-1.3-.1c-.5,0-.7.2-.7.5s.2.3.5.4l.9.2c1.4.3,2.2,1.3,2.2,3.1V241c-1.8,1.3-3.1,2.2-3.1,2.2a1.83,1.83,0,0,0-.6,1.3v1.3S324.1,246.67,325.3,245.87Z"/><path class="a" d="M549.6,261.47A4.91,4.91,0,0,0,546,260a5.08,5.08,0,0,0-5,5.1,5.16,5.16,0,0,0,1.2,3.3,4.78,4.78,0,0,0,3.8,1.8,5.09,5.09,0,0,0,3.6-8.7Zm-.4,6.7a4.22,4.22,0,0,1-3.2,1.3,4.38,4.38,0,0,1-3.2-1.3,4.22,4.22,0,0,1-1.3-3.2,4.38,4.38,0,0,1,1.3-3.2,4.22,4.22,0,0,1,3.2-1.3,4.38,4.38,0,0,1,3.2,1.3,4.59,4.59,0,0,1,0,6.4Z"/><path class="a" d="M549,267.67h-.1c-.3,0-.6-.3-.9-.8l-.1-.2-1.1-1.6a1.58,1.58,0,0,0,1-1.5c0-1-.7-1.5-2-1.5h-2c-.1,0-.2,0-.2.1s.1.1.2.2h.2c.3,0,.4.3.4.7v3.4c0,.5,0,.8-.1.9a1.38,1.38,0,0,1-.4.3.35.35,0,0,0-.2.1c0,.1.1.1.2.1h1.9c.1,0,.2,0,.2-.1s-.1-.1-.2-.2a.85.85,0,0,1-.6-.2c-.1-.1-.1-.3-.1-.6v-1.6h.7a.37.37,0,0,1,.3.1l.1.1,1.1,1.6c.4.6.8.9,1.3.9s.7-.1.7-.2Zm-3.2-2.8h-.7v-2c0-.2.1-.3.4-.3a1.28,1.28,0,0,1,1,.4,1.07,1.07,0,0,1-.7,1.9Z"/></svg>