<svg xmlns="http://www.w3.org/2000/svg" viewBox="0 0 227.5 185.15"><defs><style>.a{fill:#fff;}</style></defs><title>Asset 1</title><path class="a" d="M113.8,93.54V81.94H108v-4.1h5.8v-.4c0-4.1-1.9-7.1-14.9-4.9l-21.5,3.8L65.1,93.44l29.6-5.3C103.5,86.74,111.3,86.44,113.8,93.54Z"/><path class="a" d="M127.9,77.34c-6.7,6.7-10,10.6-10,16.2,2.6-7.4,10.8-6.7,20.4-4.9l28.5,4.9-12.4-17.1-21.7-3.8Z"/><path class="a" d="M128.4,66.44c-2.6,2.6-7.2,6.8-9.4,11.4h4.8l5.5-5.5c5-5,8.9-8.9,10.6-13.7a17.76,17.76,0,0,0,.9-8.8c-.1-1-.5-2.3-.6-2-.5,5.5-2,8.8-10,16.8Z"/><path class="a" d="M113.5,32.54c2.9-2.9,10.3-9.6,10.3-15.3v-6.4c0,.1-.1.1-.1.2-.5,4.3-1.5,6.1-12,16.6l-10.3,10.3c-5.5,5.5-9.9,11.3-9.3,17.8.3,3.6,1.5,5.6,2.3,6.2.4.3.3.1.2-.2-3.1-7.1,4.3-14.5,8.1-18.3Z"/><path class="a" d="M113.5,43.54c2.9-2.9,10.3-9.6,10.3-15.3v-6.4c0-.1-.1,0-.1,0-.5,4.3-1.5,6.1-12,16.6L102.1,48c-3.5,3.5-6.7,7.1-6.5,13,.1,3.6,1.9,6.6,4.6,7.3,1.1.2,1.1.1.8,0-3.9-1.8-3.6-8.8,2.7-15Z"/><path class="a" d="M91.5,50.64c.5-5.5,2-8.8,10-16.8l12-12.1c2.9-2.9,10.3-9.6,10.3-15.3V0c0-.1-.1,0-.1,0-.5,4.3-1.5,6.1-12,16.6l-9.3,9.3c-5,5-8.9,8.9-10.6,13.7a17.76,17.76,0,0,0-.9,8.8C91,49.64,91.4,50.94,91.5,50.64Z"/><path class="a" d="M118,88.24a13.91,13.91,0,0,1,2.5-6.3h-2.6v6.3C117.8,88.34,118,88.34,118,88.24Z"/><path class="a" d="M130.3,53.64l-3,3c-4.7,4.7-9.4,9.9-9.4,14.7v6.4h.1c.5-4.7,2.8-7.7,9.6-14.5l2.8-2.8c5.5-5.5,9.9-11.3,9.3-17.8-.3-3.6-1.5-5.6-2.3-6.2-.4-.3-.3-.1-.2.2C140.3,43.74,132.8,51.14,130.3,53.64Z"/><path class="a" d="M117.9,66.64h.1c.5-4.5,3.1-7.9,8.9-13.7l2.8-2.8c3.5-3.5,6.6-7.1,6.5-13-.1-3.6-1.9-6.6-4.6-7.3-1.1-.2-1.1-.1-.8,0,3.9,1.8,3.6,8.8-2.7,15l-3.4,3.4c-2.2,2.2-6.8,7.2-6.8,11.8Z"/><path class="a" d="M147.9,154.54c0-.6-.9-.3-1.7-.8s-.9-1.4-.9-2.7v-12.7c0-1.2,0-1.9.7-2.5s1.7-.4,1.7-1a.46.46,0,0,0-.5-.4,27.25,27.25,0,0,1-3.2.2c-1.5,0-2.4-.2-2.9-.2s-.6.1-.6.4c0,.6.9.3,1.7.9a.1.1,0,0,1,.1.1h0L131,152.54a7.11,7.11,0,0,1-.1-1.6v-12.6c0-1.2,0-1.9.7-2.5s1.7-.4,1.7-1a.46.46,0,0,0-.5-.4,27.25,27.25,0,0,1-3.2.2c-1.5,0-2.4-.2-2.9-.2s-.6.1-.6.4c0,.6.9.3,1.7.9s.9,1.4.9,2.6v12.6c0,1.2,0,1.9-.8,2.6s-1.6.5-1.6,1.1a.46.46,0,0,0,.5.4,26.61,26.61,0,0,1,3.1-.2c1.2,0,2.2.2,3.1.2.4,0,.6-.1.6-.4,0-.6-.9-.3-1.7-.8-.1-.1-.2-.2-.2-.3l11.4-16.7a6.62,6.62,0,0,1,.1,1.5v12.6c0,1.2,0,1.9-.8,2.6s-1.6.5-1.6,1.1a.46.46,0,0,0,.5.4,26.61,26.61,0,0,1,3.1-.2c1.2,0,2.2.2,3.1.2C147.7,154.94,147.9,154.84,147.9,154.54Z"/><path class="a" d="M25.9,153.64c-1.2-.5-1.9-1.7-2.6-3.5l-8.5-21.6c-.2-.4-.2-.6-.5-.6s-.4.1-.6.5L3.4,150.54a7.15,7.15,0,0,1-1.9,2.8c-.6.5-1.5.4-1.5,1a.46.46,0,0,0,.4.5c.4,0,1.1-.2,2.1-.2,2.1,0,3.5.2,4.3.2.4,0,.6-.1.6-.4,0-.6-.7-.4-1.3-.7-.9-.4-1.4-1-1.4-1.6a3.81,3.81,0,0,1,.6-1.9l1.8-4c.4-.9.7-1.4,1.7-1.4h8.4c1,0,1.3.3,1.6,1.2l1.9,5a3.35,3.35,0,0,1,.4,1.4c0,.7-.4,1-1.2,1.3-.5.2-.9.2-.9.7a.43.43,0,0,0,.4.4,24.66,24.66,0,0,1,3.5-.3c2.3,0,3.8.2,4.3.2.3,0,.5-.1.5-.4C27.6,153.74,26.8,153.94,25.9,153.64Zm-9.3-10.3H9.5c-.6,0-.9-.2-.9-.5a2.54,2.54,0,0,1,.2-.7l4-8.6a.51.51,0,0,1,.5-.4c.1,0,.3.1.4.4l3.4,8.7a3.93,3.93,0,0,1,.2.6C17.4,143.14,17.1,143.34,16.6,143.34Z"/><path class="a" d="M32.7,154.74H43.6a1.42,1.42,0,0,1,1.5,1.2,20.71,20.71,0,0,1-.9,4.6c-.1.5-.4.8-.4,1.1s0,.3.4.3c.7,0,3-5.1,3.5-5.9a4.42,4.42,0,0,0,.5-1.5c0-1.2-1.2-1.1-1.8-1.1-1.6,0-1.6-1.7-1.6-2v-13.5c0-1.1,0-1.9,1-2.4.8-.4,1.3-.3,1.5-.5s0-.6-.5-.6H38.9c-.7,0-1.1-.1-2.3-.1-.8,0-1.9.1-1.5.7.2.3.6.2.9.2a5,5,0,0,1,2.3.5,1.63,1.63,0,0,1,.9,1.3,10.79,10.79,0,0,1-1,2.7c-1.1,2.2-4,7.4-5.4,9.5a33.06,33.06,0,0,1-2.1,2.9c-.9.9-1.3.7-1.9,1.2a1.35,1.35,0,0,0-.5,1.2c-.1.7,2.1,7.4,2.9,7.3.4,0,.3-.3.3-.6,0-.5-.6-3.8-.6-4.3C30.6,155.44,31.1,154.74,32.7,154.74Zm-.8-2.1,1.9-2.9c2.3-3.8,4.4-7.8,7.6-14.1.1-.4.8-.3.8,0v16.2a1.9,1.9,0,0,1-1.79,2H32.3c-.2,0-.7,0-.7-.5C31.7,153.14,31.8,152.84,31.9,152.64Z"/><path class="a" d="M66,148.74c0-2.7-1.6-4.5-4.4-5v-.3a4.49,4.49,0,0,0,2.7-4.1c0-3-2.3-4.9-6.6-4.9-1.4,0-2.7.1-3.8.1-1.5,0-2.5-.1-3-.1s-.6.1-.6.4c0,.5.9.2,1.7.8s.9,1.3.9,2.6v12.5a3.14,3.14,0,0,1-.7,2.5c-.6.6-1.4.5-1.4,1a.45.45,0,0,0,.3.4,29,29,0,0,1,3.1-.2c1.1,0,2.7.3,4.7.3C63.4,154.94,66,152.44,66,148.74Zm-11-11.6h.1c0-1.4.4-1.6,1.7-1.6,3.2,0,5.5,2,5.5,4.7,0,2.2-1.3,3.2-4.3,3.2H55.9c-.8,0-.9-.2-.9-1Zm.1,14.8v-6.5c0-.9.1-1,1-1h1.8c3.8,0,6,1.9,6,5.1,0,3-1.8,4.5-5.3,4.5-2.6,0-3.5-.3-3.5-2.1Z"/><path class="a" d="M67.8,154.54a.32.32,0,0,0,.3.3c.3,0,1.9-.2,5.1-.2,2.4,0,4.1.2,5.1.2a3.29,3.29,0,0,0,3.1-1.5,4.58,4.58,0,0,0,.9-2.2c0-.3-.1-.5-.3-.5-.4,0-.6.9-1.7,1.6a11.51,11.51,0,0,1-6,1.4c-1.9,0-2.4-.3-2.4-1.8v-5.9c0-.8.1-1,.9-1h2.7c1.5,0,2.4.2,2.8,1.1.3.7.1,1.4.6,1.4.2,0,.4-.2.4-.6,0-.2-.1-.9-.1-2,0-1.4.1-2.3.1-2.7s-.1-.6-.3-.6c-.5,0-.3.8-.8,1.3-.5.8-1.4.9-2.9.9H72.9c-1,0-1-.2-1-1.1v-6c0-1,.6-1.2,2.2-1.2h2c2.5,0,3.5.4,3.5,1.9v.3c0,.3.1.5.4.5s.3-.2.3-.6l.2-2.4v-.4c0-.5-.1-.6-.6-.6s-2.8.3-7,.3c-3.3,0-5.1-.2-5.3-.2-.4,0-.5.1-.5.4,0,.5.9.2,1.6.8s.8,1.4.8,2.6v12.5c.3,1.5.3,2.2-.3,2.9S67.8,153.94,67.8,154.54Z"/><path class="a" d="M102.6,135.84c.7-.6,1.6-.4,1.6-1a.46.46,0,0,0-.5-.4,23.25,23.25,0,0,1-2.9.2c-1.4,0-2.4-.2-3.2-.2-.4,0-.6.1-.6.4,0,.5.9.3,1.7.8s.9,1.4.9,2.6v4.4c0,.7-.1.7-.8.7H89.2c-.6,0-.8-.1-.8-.7v-4.3c0-1.2,0-1.9.7-2.5s1.6-.4,1.6-1a.46.46,0,0,0-.5-.4,25.16,25.16,0,0,1-3.2.2c-1.4,0-2.4-.2-3-.2-.4,0-.6.1-.6.4,0,.5.9.2,1.7.8s.9,1.4.9,2.6v12.5c0,1.2,0,1.9-.8,2.5s-1.6.5-1.6,1.1a.46.46,0,0,0,.5.4,23.85,23.85,0,0,1,3-.2c1.2,0,2.2.2,3.1.2.4,0,.6-.1.6-.4,0-.6-.9-.3-1.7-.8s-.9-1.4-.9-2.7v-5.6c0-.5.2-.6.8-.6h9.6c.6,0,.8.1.8.6v5.6c0,1.2,0,1.9-.8,2.5s-1.6.5-1.6,1.1a.37.37,0,0,0,.34.4h.06a26,26,0,0,1,3-.2c1.2,0,2.2.2,3.1.2.4,0,.6-.1.6-.4.4-.6-.5-.2-1.3-.8s-.9-1.4-.9-2.7v-12.6C101.9,137.14,101.9,136.44,102.6,135.84Z"/><path class="a" d="M116.9,153.74c-1-.5-1.1-1-1.1-2.5v-14.7c0-.6.2-.8.9-.8h3.8a2.43,2.43,0,0,1,2.3,1.2c.3.6.1,1.4.6,1.4.3,0,.3-.2.3-.6v-.2l-.2-2.6c0-.3-.2-.5-.6-.5-.6,0-1.9.2-3.7.2h-9c-1.7,0-2.8-.2-3.4-.2s-.9,0-1,.6l-.3,2.9v.5c0,.3.1.4.3.4.5,0,.4-.6.7-1.4.5-1.1,1.1-1.7,2.2-1.7h4c.6,0,.8.2.8.7V151c0,1.5,0,2.2-1,2.6-.8.3-1.7.1-1.7.8,0,.3.2.4.5.4a31.37,31.37,0,0,1,3.2-.3c1.4,0,2.5.2,3.3.2.4,0,.6-.1.6-.4S117.9,154.14,116.9,153.74Z"/><path class="a" d="M159.2,135a8,8,0,0,1,6.7,4c.5.9.6,1.8,1.2,1.8.3,0,.3-.2.3-.5v-.6l-.3-3q0-.6-.3-.6c-.2,0-.4.3-.7.3s-1-.7-2-1.1a11.31,11.31,0,0,0-4.9-1,9.12,9.12,0,0,0-7,2.8,11.63,11.63,0,0,0-3,8c0,6.3,3.7,10.2,9.8,10.2a12.69,12.69,0,0,0,7.6-2.3l.6-2.4a1.09,1.09,0,0,0,.1-.5c0-.2-.1-.4-.3-.4-.5,0-.7,1.2-1.8,2.2a8.46,8.46,0,0,1-5.7,2.3c-4.5,0-7.9-4.2-7.9-10.4C151.6,138.54,154.7,135,159.2,135Z"/><path class="a" d="M183.1,134.64h-9c-1.7,0-2.8-.2-3.4-.2s-.9,0-1,.6l-.3,2.9v.5c0,.3.1.4.3.4.5,0,.4-.6.7-1.4.5-1.1,1.1-1.7,2.2-1.7h4c.6,0,.8.2.8.7V151c0,1.5,0,2.2-1,2.6-.8.3-1.7.1-1.7.8,0,.3.2.4.5.4a31.37,31.37,0,0,1,3.2-.3c1.4,0,2.5.2,3.3.2.4,0,.6-.1.6-.4,0-.5-.6-.3-1.6-.7s-1.1-1-1.1-2.5v-14.7c0-.6.2-.8.9-.8h3.8a2.43,2.43,0,0,1,2.3,1.2c.3.6.1,1.4.6,1.4.3,0,.3-.2.3-.6v-.2l-.2-2.6c0-.3-.2-.5-.6-.5A13.22,13.22,0,0,1,183.1,134.64Z"/><path class="a" d="M199.5,134.14a10.2,10.2,0,0,0-7.4,3.1,10.83,10.83,0,0,0-3.1,7.6c0,6.3,4.3,10.6,10.5,10.6a10,10,0,0,0,7.8-3.6,11.39,11.39,0,0,0,2.6-7.3,10.2,10.2,0,0,0-2.8-7.3A9.81,9.81,0,0,0,199.5,134.14Zm.2,20.2a7.49,7.49,0,0,1-6.6-3.9,13.23,13.23,0,0,1-1.9-6.6c0-5.3,3.2-8.7,8-8.7a7.46,7.46,0,0,1,6.4,3.4,12.73,12.73,0,0,1,2.2,6.8c-.1,5.6-3.2,9-8.1,9Z"/><path class="a" d="M223,143.74v-.3a4.49,4.49,0,0,0,2.7-4.1c0-3-2.3-4.9-6.6-4.9-1.4,0-2.7.1-3.8.1-1.5,0-2.5-.1-3-.1s-.6.1-.6.4c0,.5.9.2,1.7.8s.9,1.3.9,2.6v12.5a3.14,3.14,0,0,1-.7,2.5c-.6.6-1.4.5-1.4,1a.45.45,0,0,0,.3.4,29,29,0,0,1,3.1-.2c1.1,0,2.7.3,4.7.3,4.5,0,7.2-2.5,7.2-6.2C227.4,146,225.9,144.24,223,143.74Zm-6.5-6.6c0-1.4.4-1.6,1.7-1.6,3.2,0,5.5,2,5.5,4.7,0,2.2-1.3,3.2-4.3,3.2h-2c-.8,0-.9-.2-.9-1v-5.3ZM220,154c-2.6,0-3.5-.3-3.5-2.1v-6.5c0-.9.1-1,1-1h1.8c3.8,0,6,1.9,6,5.1-.1,3-1.8,4.5-5.3,4.5Z"/><path class="a" d="M161,178.64c-1.2,0-1.2-1.3-1.2-1.5v-10.3c0-.8,0-1.5.8-1.9.6-.3,1-.2,1.1-.4s0-.4-.4-.4h-6c-.5,0-.9-.1-1.8-.1-.6,0-1.5,0-1.1.5.1.2.5.2.7.2a4.21,4.21,0,0,1,1.8.4,1.26,1.26,0,0,1,.7,1,7.61,7.61,0,0,1-.8,2.1c-.9,1.7-3.1,5.7-4.2,7.3a17.31,17.31,0,0,1-1.6,2.2c-.7.7-1,.6-1.4.9a1,1,0,0,0-.4.9c-.1.6,1.6,5.7,2.2,5.6.3,0,.2-.3.2-.5,0-.4-.5-2.9-.5-3.3,0-1.2.4-1.8,1.6-1.8h8.4a1,1,0,0,1,1.1,1,16.66,16.66,0,0,1-.7,3.5c-.1.4-.3.6-.3.8s0,.3.3.3c.5,0,2.3-3.9,2.7-4.6a3,3,0,0,0,.4-1.1C162.3,178.54,161.4,178.64,161,178.64Zm-4.9.2h-6c-.2,0-.5,0-.5-.4a1.06,1.06,0,0,1,.2-.5l1.5-2.3c1.8-2.9,3.4-6,5.8-10.8.1-.3.6-.2.6,0v12.5h.1C157.8,177.94,157.5,178.84,156.1,178.84Z"/><path class="a" d="M53,165.44c-.2,0-.3.2-.5.2s-.8-.5-1.6-.9a9.57,9.57,0,0,0-3.8-.8,7.16,7.16,0,0,0-5.4,2.1,8.79,8.79,0,0,0-2.3,6.2c0,4.8,2.9,7.9,7.6,7.9a9.83,9.83,0,0,0,5.9-1.8l.4-1.8c0-.2.1-.3.1-.4s-.1-.3-.2-.3c-.4,0-.5.9-1.4,1.7a6.66,6.66,0,0,1-4.4,1.8c-3.5,0-6.1-3.2-6.1-8,0-4.2,2.4-6.9,5.9-6.9a6,6,0,0,1,5.1,3.1c.4.7.5,1.4.9,1.4.2,0,.2-.1.2-.4v-.4l-.2-2.3C53.2,165.54,53.1,165.44,53,165.44Z"/><path class="a" d="M63.3,177.24c-.2,0-.4.6-1,1a6.61,6.61,0,0,1-3.6.8c-1.1,0-1.4-.2-1.4-1.1v-3.6c0-.5.1-.6.5-.6h1.6c.9,0,1.5.1,1.7.7.2.4,0,.8.4.8.1,0,.2-.1.2-.4a8.37,8.37,0,0,1-.1-1.2c0-.8.1-1.4.1-1.6s-.1-.4-.2-.4c-.3,0-.2.5-.5.8-.3.5-.9.6-1.7.6H57.9c-.6,0-.6-.1-.6-.7v-3.6c0-.6.3-.7,1.3-.7h1.2c1.5,0,2.1.2,2.1,1.1v.2c0,.2.1.3.2.3s.2-.1.2-.4l.1-1.4v-.2c0-.3-.1-.3-.3-.3s-1.7.2-4.2.2c-2,0-3-.1-3.2-.1s-.3,0-.3.3.5.1,1,.5.5.8.5,1.6v7.5c0,.7,0,1.1-.4,1.5s-.8.3-.8.7a.22.22,0,0,0,.2.2c.2,0,1.1-.1,3.1-.1,1.5,0,2.5.1,3,.1a2.18,2.18,0,0,0,1.9-.9,2.42,2.42,0,0,0,.6-1.3C63.5,177.34,63.4,177.24,63.3,177.24Z"/><path class="a" d="M74.9,178.94c-.9,0-1-1-1-1.2v-8c0-.7,0-1.1.6-1.5a8.5,8.5,0,0,0,.9-.3c.1-.1,0-.3-.3-.3l-4.8.1c-.4,0-.6-.1-1.3-.1-.5,0-1.1,0-.9.4.1.2.4.1.5.1a3.93,3.93,0,0,1,1.4.3.92.92,0,0,1,.5.8,7.58,7.58,0,0,1-.6,1.6c-.7,1.3-2.4,4.4-3.2,5.7s-1.1,1.6-1.3,1.7c-.5.6-.8.4-1.1.7a.74.74,0,0,0-.3.7,2.39,2.39,0,0,0,.2.9,3.68,3.68,0,0,0,.4,1,7,7,0,0,0,.5,1.8c.3.6.6.7.7.7s.2-.2.2-.4-.1-.4-.2-1.5v-1c0-1,.1-1.4,1.1-1.4h6.5a.64.64,0,0,1,.7.7,9.12,9.12,0,0,1-.5,2.7,3.93,3.93,0,0,0-.2.6c0,.1.1.2.3.2.4,0,.9-.7,1.4-1.9.1-.3.3-.7.4-1a5.74,5.74,0,0,1,.4-.7,3.18,3.18,0,0,0,.3-.9C76.1,178.84,75.3,178.94,74.9,178.94Zm-2.5-1h0c0,.5-.1,1.2-1.2,1.2H66.8c-.1,0-.4,0-.4-.3a.76.76,0,0,1,.2-.4l1-1.6c1.4-2.3,2.7-4.9,4.6-8.6h.2v9.7Z"/><path class="a" d="M86.7,173.24a5.1,5.1,0,0,0-2.9-.8,7.46,7.46,0,0,0-2.6.4v-3.2c0-.7,0-1.1.6-1.5a8.5,8.5,0,0,0,.9-.3c.1-.1.1-.3-.3-.3H80.3a4.87,4.87,0,0,1-1.2-.1h-.6c-.3,0-.4.2-.3.3a8.48,8.48,0,0,0,.9.3c.6.3.6.8.6,1.5v7.9c0,.7,0,1.1-.6,1.5a8.5,8.5,0,0,0-.9.3c-.1.1,0,.3.3.3,1.4,0,.4-.1,1.6-.1h.8c.5,0,1,.1,1.5.1h1.1a4.68,4.68,0,0,0,3.5-1.4,3.8,3.8,0,0,0,1-2.6A3.21,3.21,0,0,0,86.7,173.24Zm-3.3,5.9a2.77,2.77,0,0,1-2.2-.9v-4.8a4.15,4.15,0,0,1,1.6-.3,3.59,3.59,0,0,1,2.6,1,3,3,0,0,1,.9,2.2,2.62,2.62,0,0,1-2.9,2.8Z"/><path class="a" d="M102.8,179c-.6-.3-.6-.7-.6-1.7l-.2-7.7v-.2a1.25,1.25,0,0,1,.5-1.2c.3-.2.8-.1.8-.4,0-.1-.1-.2-.4-.2s-.5.1-1,.1h-.4c-.3,0-.3.1-.4.3l-4.5,9.1a1.24,1.24,0,0,1-.2.3.22.22,0,0,1-.2-.2l-4.2-9c-.2-.4-.2-.5-.8-.5h-.4c-.5,0-.8-.1-1-.1s-.3.1-.3.2c0,.3.4.2.7.4.7.5.9,1.4.9,2.9a39.42,39.42,0,0,1-.5,7.4c-.2.5-.5.6-1,.8-.1,0-.1.1-.1.2a.32.32,0,0,0,.3.3,10.42,10.42,0,0,1,1.1-.1c1.1,0,1.7.1,1.9.1s.4-.1.4-.2c0-.3-.5-.2-.9-.4-.6-.4-.6-.9-.6-1.8v-1.5l.1-2.3a11,11,0,0,1,.2-2.4c.1,0,.1.1.2.2l3.6,7.6c.1.3.2.4.4.4s.3-.1.4-.4l3.7-7.4c.2-.4.3-.6.5-.6s.2.3.2.8l.1,5.5v.7c0,.6-.1,1-.5,1.2s-.6.2-.6.4.1.2.3.2.6-.1,1.3-.1,1.3.1,1.8.1c.3,0,.4-.1.4-.2C103.5,179.24,103.2,179.24,102.8,179Z"/><path class="a" d="M111,167.34a5.88,5.88,0,0,0-4.4,1.8,6.27,6.27,0,0,0-1.8,4.5,5.93,5.93,0,0,0,6.3,6.3,6.24,6.24,0,0,0,4.7-2.1,6.52,6.52,0,0,0,1.6-4.3,6.2,6.2,0,0,0-1.7-4.4A6.74,6.74,0,0,0,111,167.34Zm.1,12.1a4.51,4.51,0,0,1-4-2.4,7.65,7.65,0,0,1-1.1-3.9c0-3.2,1.9-5.2,4.8-5.2a4.31,4.31,0,0,1,3.8,2.1,7.65,7.65,0,0,1,1.3,4.1C115.9,177.44,114,179.44,111.1,179.44Z"/><path class="a" d="M128,168.64a2.77,2.77,0,0,0-.1-.9.63.63,0,0,0-.6-.5c-.5,0-.6.3-1.5.3h-6.4c-.3,0-.4.2-.3.3a8.48,8.48,0,0,0,.9.3c.6.3.6.8.6,1.5v7.9c0,.7,0,1.1-.6,1.5a8.5,8.5,0,0,0-.9.3c-.1.1,0,.3.3.3a3.08,3.08,0,0,0,.9-.1h2.1c.4,0,.6.1.9.1s.4-.2.3-.3a8.48,8.48,0,0,0-.9-.3c-.6-.3-.6-.8-.6-1.5v-8.3c0-1.2.8-1.1,1.4-1.1a3.48,3.48,0,0,1,3.2,1.2,6.21,6.21,0,0,1,.8,1.2c.1.1.2.4.4.4s.3-.2.3-.4-.1-.5-.1-.8A7.48,7.48,0,0,1,128,168.64Z"/><path class="a" d="M135.7,167.34a5.88,5.88,0,0,0-4.4,1.8,6.27,6.27,0,0,0-1.8,4.5,5.93,5.93,0,0,0,6.3,6.3,6.24,6.24,0,0,0,4.7-2.1,6.52,6.52,0,0,0,1.6-4.3,6.2,6.2,0,0,0-1.7-4.4A6.57,6.57,0,0,0,135.7,167.34Zm.1,12.1a4.51,4.51,0,0,1-4-2.4,7.65,7.65,0,0,1-1.1-3.9c0-3.2,1.9-5.2,4.8-5.2a4.31,4.31,0,0,1,3.8,2.1,7.65,7.65,0,0,1,1.3,4.1C140.6,177.44,138.8,179.44,135.8,179.44Z"/><path class="a" d="M175.2,179a1.7,1.7,0,0,1-.6-1.6v-7.5c0-.7,0-1.1.4-1.5s1-.2,1-.6c0-.1-.1-.2-.3-.2a15.44,15.44,0,0,1-1.7.1c-.8,0-1.5-.1-1.9-.1s-.4,0-.4.2.6.2,1,.5.5.8.5,1.6v2.6c0,.4-.1.4-.5.4H167c-.4,0-.5,0-.5-.4v-2.6c0-.7,0-1.1.4-1.5s1-.2,1-.6c0-.1-.1-.2-.3-.2a17,17,0,0,1-1.9.1c-.9,0-1.4-.1-1.8-.1s-.4,0-.4.3.6.1,1,.5a1.94,1.94,0,0,1,.5,1.6v7.5c0,.7,0,1.1-.5,1.5s-.9.3-.9.6c0,.1.1.2.3.2a16.17,16.17,0,0,1,1.8-.1c.7,0,1.3.1,1.9.1.3,0,.4,0,.4-.2,0-.4-.6-.2-1-.5a1.7,1.7,0,0,1-.6-1.6v-3.4c0-.3.1-.4.5-.4h5.7c.3,0,.5.1.5.4v3.4c0,.7,0,1.1-.5,1.5s-.9.3-.9.6c0,.1.1.2.3.2s.8-.1,1.8-.1c.7,0,1.3.1,1.9.1.3,0,.4,0,.4-.2C176.2,179.14,175.7,179.34,175.2,179Z"/><path class="a" d="M187.7,167.64c-.3,0-.8.1-1.7.1-.5,0-1.4-.1-2.6-.1-2.4,0-3.7,1.1-3.7,2.9a3.27,3.27,0,0,0,2.2,3l-2,3c-.8,1.3-1.4,2.2-2.1,2.5-.4.2-.8.1-.8.3s.3.3,1,.3c1.4,0,2-.8,2.9-2.2l1.8-2.9c.4-.7.8-.7,1.7-.7.6,0,.8.1.8.6v2.8c0,.8-.1,1.3-.6,1.6s-1.1.1-1.1.5c0,.2.1.2.3.2.4,0,1-.1,1.9-.1a17,17,0,0,1,1.9.1c.2,0,.3-.1.3-.2,0-.3-.5-.3-1-.6s-.5-.8-.5-1.5v-7.5a2,2,0,0,1,.6-1.4c.4-.3,1-.2,1-.5S187.9,167.64,187.7,167.64Zm-3.5,5.8H184c-2.1,0-3.1-.7-3.1-2.4s1.2-2.8,3.3-2.8c.7,0,.9.1.9.6V173h.1c0,.4-.3.4-1,.4Z"/><path class="a" d="M144.2,122.34c-.4.4-.9.3-.9.6,0,.1.1.2.3.2a16.17,16.17,0,0,1,1.8-.1c.7,0,1.3.1,1.9.1.3,0,.4,0,.4-.2,0-.4-.6-.2-1-.5a1.94,1.94,0,0,1-.5-1.6v-7.6c0-.7,0-1.2.4-1.5s1-.2,1-.6c0-.1-.1-.2-.3-.2s-.8.1-1.9.1c-.9,0-1.5-.1-1.7-.1s-.3.1-.3.2c0,.4.5.2,1,.5l.1.1-6.8,10a2.77,2.77,0,0,1-.1-.9v-7.6c0-.7,0-1.2.4-1.5s1-.2,1-.6c0-.1-.1-.2-.3-.2a17,17,0,0,1-1.9.1c-.9,0-1.5-.1-1.7-.1s-.4.1-.4.2c0,.4.5.2,1,.5s.5.8.5,1.6v7.5c0,.7,0,1.1-.5,1.5s-.9.3-.9.6c0,.1.1.2.3.2s.8-.1,1.8-.1c.7,0,1.3.1,1.9.1.3,0,.4,0,.4-.2,0-.4-.6-.2-1-.5-.1,0-.1-.1-.1-.2l6.8-10a2.48,2.48,0,0,1,.1.9v7.5C144.7,121.44,144.7,121.94,144.2,122.34Z"/><path class="a" d="M38.2,111.64c.5.4.5.8.5,1.6v7.5c0,.7,0,1.1-.4,1.5s-.8.3-.8.7a.22.22,0,0,0,.2.2c.2,0,1.1-.1,3.1-.1,1.5,0,2.5.1,3,.1a2.18,2.18,0,0,0,1.9-.9,2.42,2.42,0,0,0,.6-1.3c0-.2-.1-.3-.2-.3s-.4.6-1,1a7.65,7.65,0,0,1-3.6.8c-1.1,0-1.4-.2-1.4-1.1v-3.5c0-.5.1-.6.5-.6h1.6c.9,0,1.5.1,1.7.7.2.4,0,.8.4.8.1,0,.2-.1.2-.4a8.37,8.37,0,0,1-.1-1.2c0-.8.1-1.4.1-1.6s-.1-.4-.2-.4c-.3,0-.2.4-.4.8s-.9.6-1.7.6H40.8c-.6,0-.6-.1-.6-.7v-3.6c0-.6.3-.7,1.3-.7h1.2c1.5,0,2.1.2,2.1,1.1v.2c0,.2.1.3.2.3s.2-.1.2-.4l.1-1.4v-.2c0-.3-.1-.3-.3-.3s-1.7.2-4.2.2c-2,0-3-.1-3.2-.1a.27.27,0,0,0-.3.3C37.3,111.54,37.8,111.34,38.2,111.64Z"/><path class="a" d="M48.1,111.64a1.94,1.94,0,0,1,.5,1.6v7.5c0,.7,0,1.1-.5,1.5s-.9.3-.9.6c0,.1.1.2.3.2s.8-.1,1.8-.1c.6,0,1.3.1,2,.1.3,0,.4,0,.4-.2s-.5-.2-1.1-.5-.6-.8-.6-1.7V112c0-.5.2-.6.8-.6,2.2,0,3.6,1.3,3.6,3.2,0,1.6-1,2.4-2.9,2.4-.5,0-.8-.1-1-.1a.22.22,0,0,0-.2.2c0,.2.6.4,1.6.4a3.5,3.5,0,0,0,3.7-3.29h0c0-2.1-1.5-3.4-4.2-3.4-.9,0-1.6.1-2.4.1s-1.4-.1-1.6-.1-.3.1-.3.2C47.1,111.54,47.6,111.34,48.1,111.64Z"/><path class="a" d="M58,113.24v7.5c0,.7,0,1.1-.5,1.5s-.9.3-.9.6c0,.1.1.2.3.2a16.17,16.17,0,0,1,1.8-.1c.7,0,1.3.1,1.9.1.3,0,.4,0,.4-.2,0-.4-.6-.2-1-.5a1.7,1.7,0,0,1-.6-1.6v-3c0-.2,0-.3.2-.3s.2,0,.2.1l4.8,5.1a1.23,1.23,0,0,0,1,.5h1.2c.5,0,.7,0,.7-.3s-.3-.2-.7-.3a4.79,4.79,0,0,1-1.5-1.1l-4.4-4.7c-.1-.1-.2-.2-.2-.3s.1-.2.3-.3l3.4-3a6.07,6.07,0,0,1,2.3-1.5c.3-.1.5-.1.5-.4s-.1-.2-.2-.2a14.5,14.5,0,0,1-3.4,0,.27.27,0,0,0-.3.3c0,.2.2.2.5.3s.5.2.5.5a1.46,1.46,0,0,1-.5.8l-4,3.6a.31.31,0,0,1-.2.1c-.1,0-.1-.1-.1-.3v-2.9c0-.7,0-1.1.4-1.5s1-.2,1-.6c0-.1-.1-.2-.3-.2a17,17,0,0,1-1.9.1c-.8,0-1.4-.1-1.8-.1s-.4,0-.4.2.5,0,1,.3S58,112.44,58,113.24Z"/><path class="a" d="M78.3,121.24a6.52,6.52,0,0,0,1.6-4.3,6,6,0,0,0-5.79-6.2H73.6a5.88,5.88,0,0,0-4.4,1.8,6.27,6.27,0,0,0-1.8,4.5c-.1,3.8,2.4,6.3,6.2,6.3A6.24,6.24,0,0,0,78.3,121.24Zm-8.6-.8a7.65,7.65,0,0,1-1.1-3.9c0-3.2,1.9-5.2,4.8-5.2a4.31,4.31,0,0,1,3.8,2.1,7.65,7.65,0,0,1,1.3,4.1c0,3.3-1.9,5.3-4.8,5.3A4.51,4.51,0,0,1,69.7,120.44Z"/><path class="a" d="M83.9,122.94c1.5,0,1.3.1,3,.1,3.3-.1,4.5-1.7,4.5-3.3a2.53,2.53,0,0,0-1.1-2.2,4.28,4.28,0,0,0-2.8-.9,3.17,3.17,0,0,0,3.1-3c0-2.7-3-2.8-4-2.8-.7,0-1,.1-1.4.1a8.64,8.64,0,0,1-1.5.1,4.1,4.1,0,0,1-1.1-.1H82c-.1,0-.4,0-.4.2a.22.22,0,0,0,.2.2,6.37,6.37,0,0,1,.7.2c.5.3.6.8.6,1.5v7.9c0,.7-.1,1.2-.6,1.5a6.37,6.37,0,0,1-.7.2.22.22,0,0,0-.2.2c0,.2.3.2.4.2a3.08,3.08,0,0,0,.9-.1Zm2.3-11.6a3,3,0,0,1,2.1.6,2.09,2.09,0,0,1,.7,1.7,2.56,2.56,0,0,1-2.51,2.61H86.2a4.44,4.44,0,0,1-1.3-.2v-4.1h-.1C84.8,111.54,85.2,111.34,86.2,111.34Zm-1.4,6.2c0-.7.8-.7,1.2-.7,2.5,0,3.6,1.6,3.6,3a2.52,2.52,0,0,1-2.44,2.6H87a3.37,3.37,0,0,1-2.2-.9Z"/><path class="a" d="M118.3,122.84a.27.27,0,0,0,.24.3h.06c.1,0,.8-.1,2.2-.1,1,0,1.7.1,1.9.1s.4-.1.4-.3c0-.4-.3-.3-.7-.4a2.93,2.93,0,0,1-1.3-1.2l-4-6.3a.85.85,0,0,1,0-.8l3.2-4.5a3.89,3.89,0,0,1,1.6-1.5c.4-.2.7-.1.7-.5,0-.2-.2-.2-.5-.2s-.9.1-1.5.1c-.8,0-1.4-.2-1.8-.2a.27.27,0,0,0-.3.3c0,.3.3.3.7.4a.68.68,0,0,1,.4.6,2.5,2.5,0,0,1-.5,1.1l-2.5,3.5q-.15.3-.3.3t-.3-.3l-2.3-3.6a2.43,2.43,0,0,1-.4-1.1.63.63,0,0,1,.5-.6c.2-.1.4,0,.4-.3s-.1-.3-.4-.3-1.1.1-2,.1c-1.2,0-2-.1-2.3-.1s-.4.1-.4.3c0,.4.6.2,1.3.6a5.25,5.25,0,0,1,1.9,2.2l2.8,4.3a.6.6,0,0,1,.1.4c0,.2,0,.3-.1.4l-3.1,4.6a5.2,5.2,0,0,1-2.1,2.1c-.5.2-.9.2-.9.5s.1.3.2.3c.3,0,.9-.1,1.7-.1,1.1,0,1.8.1,2.2.1s.4-.1.4-.3c0-.4-.3-.2-.6-.3a.84.84,0,0,1-.7-.7,2.24,2.24,0,0,1,.3-1l2.9-4.3c.2-.2.3-.4.4-.4s.2.1.3.4l2.7,4.3a2.18,2.18,0,0,1,.4,1C119.3,122.54,118.3,122.44,118.3,122.84Z"/><path class="a" d="M128.3,117.14c-.5,0-.8-.1-1-.1a.22.22,0,0,0-.2.2c0,.2.6.4,1.6.4a3.5,3.5,0,0,0,3.7-3.29h0c0-2.1-1.5-3.4-4.2-3.4-.9,0-1.6.1-2.4.1s-1.4-.1-1.6-.1-.3.1-.3.2c0,.3.5.1.9.5a1.94,1.94,0,0,1,.5,1.6v7.5c0,.7,0,1.1-.5,1.5s-.9.3-.9.6c0,.1.1.2.3.2s.8-.1,1.8-.1c.6,0,1.3.1,2,.1.3,0,.4,0,.4-.2s-.5-.2-1.1-.5-.6-.8-.6-1.7V112c0-.5.2-.6.8-.6,2.2,0,3.6,1.3,3.6,3.2C131.2,116.24,130.2,117.14,128.3,117.14Z"/><path class="a" d="M155.5,111.24a4.62,4.62,0,0,1,4,2.4c.3.5.4,1.1.7,1.1s.2-.1.2-.3v-.3l-.2-1.8c0-.2-.1-.3-.2-.3s-.3.2-.4.2-.6-.4-1.2-.7a7.17,7.17,0,0,0-2.9-.6,5.37,5.37,0,0,0-4.2,1.7,6.65,6.65,0,0,0-1.8,4.8c0,3.8,2.2,6.1,5.9,6.1a7.31,7.31,0,0,0,4.5-1.4l.3-1.4c0-.1.1-.2.1-.3a.22.22,0,0,0-.2-.2c-.3,0-.4.7-1.1,1.3a4.94,4.94,0,0,1-3.4,1.4c-2.7,0-4.7-2.5-4.7-6.2C150.9,113.34,152.8,111.24,155.5,111.24Z"/><path class="a" d="M161.8,110.94c-.4,0-.5,0-.6.4L161,113v.3c0,.2,0,.2.2.2s.2-.4.4-.8a1.35,1.35,0,0,1,1.3-1h2.4c.4,0,.5.1.5.4v8.7c0,.9,0,1.3-.6,1.6s-1,.1-1,.4.1.2.3.2a15.38,15.38,0,0,1,1.9-.2c.8,0,1.5.1,2,.1.3,0,.4-.1.4-.3s-.4-.2-1-.4-.7-.6-.7-1.5v-8.8c0-.4.1-.5.5-.5h2.2a1.49,1.49,0,0,1,1.4.7c.2.4.1.8.4.8s.2-.1.2-.3v-.1l-.1-1.6c0-.2-.1-.3-.4-.3s-1.1.1-2.2.1h-5.4A4.78,4.78,0,0,1,161.8,110.94Z"/><path class="a" d="M191.6,123c.2,0,.3-.1.3-.2,0-.3-.3-.2-.6-.3a.94.94,0,0,1-.6-.8,1.9,1.9,0,0,1,.3-.9l.8-1.8c.2-.4.3-.6.8-.6h3.9c.5,0,.6.1.7.5l.9,2.3a2.54,2.54,0,0,1,.2.7q0,.45-.6.6c-.2.1-.4.1-.4.3a.22.22,0,0,0,.2.2c.2,0,.7-.1,1.6-.1,1.1,0,1.7.1,2,.1s.2-.1.2-.2c0-.3-.4-.2-.8-.4-.6-.2-.9-.8-1.2-1.6l-3.9-10c-.1-.2-.1-.3-.2-.3s-.2.1-.3.2l-4.8,10.2a3.62,3.62,0,0,1-.9,1.3c-.3.2-.7.2-.7.4a.22.22,0,0,0,.2.2c.2,0,.5-.1,1-.1A11.19,11.19,0,0,0,191.6,123Zm.9-5.8,1.9-4,.2-.2a.22.22,0,0,1,.2.2l1.6,4a.37.37,0,0,1,.1.3c0,.1-.1.2-.3.2h-3.3c-.3,0-.4-.1-.4-.2v-.3Z"/><path class="a" d="M213.8,123.14c.3,0,.4,0,.4-.2,0-.4-.6-.2-1-.5a1.7,1.7,0,0,1-.6-1.6v-7.5c0-.7,0-1.1.4-1.5s1-.2,1-.6c0-.1-.1-.2-.3-.2a15.44,15.44,0,0,1-1.7.1c-.8,0-1.5-.1-1.9-.1s-.4,0-.4.2.6.2,1,.5.5.8.5,1.6v2.6c0,.4-.1.4-.5.4H205c-.4,0-.5,0-.5-.4v-2.6c0-.7,0-1.1.4-1.5s1-.2,1-.6c0-.1-.1-.2-.3-.2a17,17,0,0,1-1.9.1c-.8,0-1.4-.1-1.8-.1s-.4.1-.4.3.6.1,1,.5a1.94,1.94,0,0,1,.5,1.6v7.5c0,.7,0,1.1-.5,1.5s-.9.3-.9.6c0,.1.1.2.3.2a16.17,16.17,0,0,1,1.8-.1c.7,0,1.3.1,1.9.1.3,0,.4,0,.4-.2,0-.4-.6-.2-1-.5a1.7,1.7,0,0,1-.6-1.6v-3.6c0-.3.1-.4.5-.4h5.7c.3,0,.5.1.5.4v3.4c0,.7,0,1.1-.5,1.5s-.9.3-.9.6c0,.1.1.2.3.2s.8-.1,1.8-.1A19.09,19.09,0,0,0,213.8,123.14Z"/><path class="a" d="M174.2,123a16.17,16.17,0,0,1,1.8-.1c.7,0,1.3.1,1.9.1.3,0,.4,0,.4-.2,0-.4-.6-.2-1-.5-.1,0-.1-.1-.2-.2l6.8-10a2.48,2.48,0,0,1,.1.9v7.5c0,.7,0,1.1-.5,1.5s-.9.3-.9.6c0,.1.1.2.3.2a16.17,16.17,0,0,1,1.8-.1c.7,0,1.3.1,1.9.1.3,0,.4,0,.4-.2,0-.4-.6-.2-1-.5a1.94,1.94,0,0,1-.5-1.6v-7.6c0-.7,0-1.2.4-1.5s1-.2,1-.6c0-.1-.1-.2-.3-.2s-.8.1-1.9.1c-.9,0-1.5-.1-1.7-.1s-.3.1-.3.2c0,.4.5.2,1,.5l.1.1-6.8,10a2.77,2.77,0,0,1-.1-.9v-7.6c0-.7,0-1.2.4-1.5s1-.2,1-.6c0-.1-.1-.2-.3-.2a17,17,0,0,1-1.9.1c-.9,0-1.5-.1-1.7-.1s-.3.1-.3.2c-.3.7.2.4.7.8s.5.8.5,1.6v7.5c0,.7,0,1.1-.5,1.5s-.9.3-.9.6C173.9,122.94,174,123,174.2,123Z"/><path class="a" d="M93.9,122.34c-.4.3-.9.2-.9.5s.1.2.3.2.8-.1,1.6-.1,1.5.1,2.4.1c2.7,0,4.4-1.7,4.4-3.7a3.72,3.72,0,0,0-4-3.3,4.12,4.12,0,0,0-1.2.1c-.3.1-.5.2-.8.3v-3.1c0-.9,0-1.3.6-1.7s1.1-.1,1.1-.4-.1-.2-.4-.2c-.7,0-1.3.1-2,.1a16.17,16.17,0,0,1-1.8-.1c-.2,0-.3.1-.3.2,0,.3.5.3.9.6a1.72,1.72,0,0,1,.5,1.5v7.5C94.4,121.54,94.4,122,93.9,122.34Zm2.8-5.7c.2,0,.4-.1.7-.1a2.8,2.8,0,0,1,3.08,2.48q0,.11,0,.22c0,1.9-1.6,3.2-3.8,3.2-.6,0-.8-.1-.8-.6v-4.9h-.1A2.39,2.39,0,0,1,96.7,116.64Z"/><path class="a" d="M20.5,122c-.6.5-1.2.4-1.2.8,0,.2.1.3.4.3h14c.8,0,1.6-.2,2-.2.1,0,.3,0,.3.1-.2.4-.3.3-1.1,1.1s-3,3.9-3,4.4c0,.3.4.3.5.3s.9.1,1.1.1c.4,0,.5-.2.6-.5a19,19,0,0,1,1.3-3,17,17,0,0,1,1.5-2.2,1.23,1.23,0,0,0,.4-.8.77.77,0,0,0-.8-.7,1.33,1.33,0,0,0-.8.3,4.4,4.4,0,0,1-1,.2h-.5a.35.35,0,0,1-.2-.1,2.36,2.36,0,0,1-.7-2.1v-9.7c0-.9,0-1.5.5-1.9s1.3-.3,1.3-.8c0-.2-.1-.3-.4-.3s-1,.1-2.5.1c-1.1,0-1.9-.1-2.2-.1s-.4.1-.4.3c0,.5.7.2,1.3.7a2.27,2.27,0,0,1,.7,2V120c0,.9,0,1.5-.6,2-.1.1-.3.2-.4.3a2,2,0,0,1-.8.1H24.2a.76.76,0,0,1-.4-.2,2.36,2.36,0,0,1-.7-2.1v-9.8c0-.9,0-1.5.5-1.9s1.3-.3,1.3-.8c0-.2-.1-.3-.4-.3s-1,.1-2.5.1c-1.1,0-1.9-.1-2.2-.1s-.4.1-.4.3c-.3.5.4.2,1,.7a2.27,2.27,0,0,1,.7,2V120C21.1,120.94,21.1,121.54,20.5,122Z"/></svg>