<svg xmlns="http://www.w3.org/2000/svg" viewBox="0 0 369 253.77"><defs><style>.a{fill:#fff;}</style></defs><title>Asset 1</title><path class="a" d="M182.1,152.58v-18.9h-9.5V127h9.5v-.6c0-6.7-3.1-11.6-24.4-7.9l-35.1,6.2-20.2,28,48.4-8.6C165.3,141.58,178.1,141,182.1,152.58Z"/><path class="a" d="M205.1,126.17c-11,11-16.4,17.3-16.4,26.4,4.2-12.1,17.6-11,33.3-8l46.5,8-20.2-28-35.5-6.2Z"/><path class="a" d="M205.9,108.28c-4.3,4.3-11.8,11.1-15.3,18.6h7.8l9-8.9c8.2-8.2,14.6-14.5,17.3-22.5a28.56,28.56,0,0,0,1.5-14.4c-.2-1.6-.9-3.8-.9-3.3-.8,9-3.3,14.4-16.3,27.4Z"/><path class="a" d="M198.2,17.78c-.8,7-2.5,10-19.6,27.1l-16.9,16.9c-8.9,8.9-16.2,18.4-15.2,29.1.5,6,2.5,9.2,3.8,10.1.7.5.5.1.3-.3-5.1-11.6,7.1-23.7,13.2-29.8l17.7-17.7c4.8-4.8,16.9-15.6,16.9-25V17.77C198.4,17.68,198.2,17.68,198.2,17.78Z"/><path class="a" d="M181.5,70.87c4.8-4.8,16.9-15.6,16.9-25V35.47c0-.1-.2-.1-.2,0-.8,7-2.5,10-19.6,27.1l-15.7,15.7C157.2,84,152,90,152.2,99.58c.1,5.9,3.1,10.8,7.6,11.9,1.8.4,1.7.2,1.3,0-6.3-3-5.9-14.4,4.3-24.6Z"/><path class="a" d="M145.6,82.58c.8-9,3.3-14.4,16.3-27.4l19.7-19.7c4.8-4.8,16.9-15.6,16.9-25V.08c0-.1-.2-.1-.2,0-.8,7-2.5,10-19.6,27.1l-15.2,15.2c-8.2,8.2-14.6,14.5-17.3,22.5a28.56,28.56,0,0,0-1.5,14.4C144.9,80.78,145.5,83.08,145.6,82.58Z"/><path class="a" d="M188.9,144a22.77,22.77,0,0,1,4.1-10.3h-4.3V144C188.7,144.08,188.9,144.08,188.9,144Z"/><path class="a" d="M209.1,87.37l-5,5c-7.7,7.6-15.4,16.2-15.4,24v10.5c0,.1.2.1.2,0,.8-7.7,4.5-12.6,15.6-23.7l4.6-4.6c8.9-8.9,16.2-18.4,15.2-29.1-.5-6-2.5-9.2-3.8-10.1-.7-.5-.5-.1-.3.3C225.4,71.28,213.1,83.37,209.1,87.37Z"/><path class="a" d="M188.7,108.67c0,.1.2.1.2,0,.9-7.3,5-12.9,14.6-22.4l4.5-4.6c5.7-5.7,10.8-11.6,10.6-21.3-.1-5.9-3.1-10.8-7.6-11.9-1.8-.4-1.7-.2-1.3,0,6.3,3,5.9,14.4-4.3,24.6l-5.6,5.6c-3.6,3.6-11.1,11.7-11.1,19.3v10.7Z"/><path class="a" d="M268.5,144.37a4,4,0,0,0,3.1-1.3,4.16,4.16,0,0,0,1.3-3.1,4,4,0,0,0-1.3-3.1,4.38,4.38,0,0,0-6.5.3,4.36,4.36,0,0,0-1.1,2.9,4.27,4.27,0,0,0,4.5,4.3Zm-2.8-7.2a3.87,3.87,0,1,1-1.2,2.8A4,4,0,0,1,265.7,137.17Z"/><path class="a" d="M266.5,137.58h.2c.2,0,.4.2.4.6v3c0,.4,0,.7-.1.8s-.2.2-.4.3a.1.1,0,0,0-.1.1c0,.1.1.1.2.1h1.8c.1,0,.2,0,.2-.1s-.1-.1-.2-.1a.59.59,0,0,1-.5-.2c-.1-.1-.1-.3-.1-.6v-1.4h.6c.1,0,.2,0,.2.1l.1.1.9,1.4a1.41,1.41,0,0,0,1.2.8c.4,0,.6-.1.6-.2s0-.1-.1-.1h-.1c-.2,0-.5-.2-.8-.7l-.1-.2-1-1.4a1.38,1.38,0,0,0,.9-1.3c0-.9-.6-1.3-1.8-1.3h-1.7c-.1,0-.2,0-.2.1C266.3,137.48,266.3,137.58,266.5,137.58Zm1.5.1a1.2,1.2,0,0,1,1.3,1.1c0,.6-.3.9-1,.9h-.6v-1.8C267.7,137.78,267.8,137.67,268,137.67Z"/><path class="a" d="M105.9,207.08a14,14,0,0,0,9.5-3.2,10.65,10.65,0,0,0,3.7-8.4c0-5-3.4-8.6-10.1-10.8a43.57,43.57,0,0,1-6.5-2.4,5.9,5.9,0,0,1-2.4-2.1,6,6,0,0,1-1.3-4,5.5,5.5,0,0,1,2-4.3,7,7,0,0,1,4.9-1.7,11.91,11.91,0,0,1,6.7,1.9,9.46,9.46,0,0,1,4,4.9c.3.9.6,1.3.9,1.3s.6-.3.6-.8a6.61,6.61,0,0,0-.1-1.1l-.4-2.8c-.2-1.5-.4-2.5-.4-2.8,0-.9-.2-1.4-.7-1.3a.37.37,0,0,0-.3.1l-.4.3a1.07,1.07,0,0,1-1.2.2l-1.9-.8a12,12,0,0,0-4.9-.8,12.45,12.45,0,0,0-8.5,2.8,9.11,9.11,0,0,0-3.3,7.2,8.44,8.44,0,0,0,2.5,6.4c1.7,1.7,4.5,3.2,8.6,4.5,3.9,1.3,6.3,2.3,7.1,3a6.54,6.54,0,0,1,2.4,5.1,7,7,0,0,1-2.6,5.4,9.4,9.4,0,0,1-6.4,2.2,11.67,11.67,0,0,1-6.9-2.3,10.06,10.06,0,0,1-4.1-5.7c-.3-.9-.6-1.3-.9-1.3s-.6.2-.6.8a13,13,0,0,0,.7,3.5c.4,1.5.6,2.3.7,2.5a11,11,0,0,0,.5,1.9,1.54,1.54,0,0,0,.7.7,12.45,12.45,0,0,0,3.7,1.4A27.93,27.93,0,0,0,105.9,207.08Z"/><path class="a" d="M152,178.58a.37.37,0,0,0-.4-.4,4.4,4.4,0,0,0-.9.1c-.4,0-1.3.1-2.8.1a11.49,11.49,0,0,1-1.9-.1,10.51,10.51,0,0,0-1.3-.2c-.3,0-.4.1-.4.4s.2.4.6.4a3,3,0,0,1,2.5,1.3,7.13,7.13,0,0,1,.7,3.7v10.7q0,5.4-2.4,8.1c-1.6,1.8-4.1,2.7-7.3,2.7-3.6,0-6.2-1.1-7.8-3.2-1.1-1.5-1.6-4-1.6-7.5V183a6.61,6.61,0,0,1,.4-2.8,1.85,1.85,0,0,1,1.6-1c.4-.1.7-.2.7-.5s-.2-.3-.5-.3a4.59,4.59,0,0,0-1,.1,6.61,6.61,0,0,1-1.1.1h-3.2a8.8,8.8,0,0,1-1.4-.1h-1.4c-.5,0-.8.2-.8.5s.2.4.6.4a3.39,3.39,0,0,1,2.4,1.1,5.62,5.62,0,0,1,.6,3v11.6a14.25,14.25,0,0,0,1.5,7,9.31,9.31,0,0,0,4.1,3.7,14.56,14.56,0,0,0,6.3,1.4,14.71,14.71,0,0,0,5.6-1.1,10.93,10.93,0,0,0,4.1-3c1.5-2,2.2-4.9,2.2-8.6v-10.2a9.37,9.37,0,0,1,.4-3.5,2.53,2.53,0,0,1,1.6-1.4C151.8,179,152,178.78,152,178.58Z"/><path class="a" d="M170.5,177.87a15.31,15.31,0,0,0-6,1.2,14.19,14.19,0,0,0-4.9,3.1,13.39,13.39,0,0,0-2.9,4.6,15.93,15.93,0,0,0-1.1,5.6,14.08,14.08,0,0,0,4.1,10.5c2.7,2.7,6.3,4,10.7,4a14.32,14.32,0,0,0,10.6-4.2,14.55,14.55,0,0,0,4.1-10.8,13.87,13.87,0,0,0-4.1-10.2A14.87,14.87,0,0,0,170.5,177.87Zm8.6,24.4a10.24,10.24,0,0,1-7.9,3.5,10.93,10.93,0,0,1-8.8-4.3,15.57,15.57,0,0,1-3.6-10.5c0-3.6.9-6.5,2.8-8.6a9.74,9.74,0,0,1,7.6-3.2,12.21,12.21,0,0,1,9.3,4.1,14.4,14.4,0,0,1,3.7,10.2A12.93,12.93,0,0,1,179.1,202.28Z"/><path class="a" d="M220.5,206.67h.5c.5,0,.8-.1.8-.4s-.4-.4-1.1-.5a4.12,4.12,0,0,1-2.1-.9,3.4,3.4,0,0,1-.6-2.2l-.1-2.6-.4-11.2-.1-4.9a9.43,9.43,0,0,1,.4-3.4,2.17,2.17,0,0,1,1.5-1.3l.9-.2c.3-.1.4-.2.4-.5s-.1-.4-.4-.4h-.6a12.17,12.17,0,0,1-2.1.1h-.7a4.4,4.4,0,0,0-.9-.1.59.59,0,0,0-.5.2,3.78,3.78,0,0,0-.5.8l-9.6,20.6-.2.4-.2.6c-.1.3-.2.4-.3.4s-.2-.2-.3-.5l-1-2.1-8.5-18.4-.2-.5c-.4-.9-.9-1.3-1.5-1.3a2.81,2.81,0,0,0-.8.1h-4.2c-.3,0-.5.1-.5.4s.2.4.6.5a4.24,4.24,0,0,1,3.2,2.2,12.33,12.33,0,0,1,1,5.4c0,1.1-.1,3.9-.3,8.2l-.3,6a9,9,0,0,1-.7,3.6,3,3,0,0,1-2.1,1.4c-.3.1-.5.2-.5.4s.2.4.6.4a1.49,1.49,0,0,0,.6-.1,26.42,26.42,0,0,1,2.9-.2c.8,0,2,.1,3.5.2h.8c.4,0,.6-.2.6-.5s-.4-.5-1.3-.6c-1.7-.3-2.5-1.6-2.5-4s0-4.2.1-5l.5-10.2,7.7,16.6.4.9a7.37,7.37,0,0,0,.6,1.1c.3.7.6,1,.9,1s.6-.3.9-1l.4-.8c.3-.6.7-1.4,1.1-2.4,1-2.3,1.6-3.6,1.7-3.9l2.1-4.3,1.8-3.9c.4-.8,1.2-2.2,2.3-4.2l.5,13,.1,3.3a5.61,5.61,0,0,1-.4,2.6,2.85,2.85,0,0,1-1.6,1.1c-.3.1-.5.2-.5.5s.2.4.6.4c.2,0,1,0,2.5-.1a17.23,17.23,0,0,1,2-.1,9.15,9.15,0,0,1,1.7.1Z"/><path class="a" d="M245.9,200.87c-.2,0-.3.1-.5.4-1.5,2.4-5,3.6-10.3,3.6a7.3,7.3,0,0,1-3.2-.4c-.5-.3-.6-1-.6-2.2V194c0-.4.1-.7.3-.8a3.48,3.48,0,0,1,1.3-.2h4.5a4.94,4.94,0,0,1,2.5.5,2.87,2.87,0,0,1,1,1.9l.1.6c.1.3.2.5.5.5s.4-.2.4-.5v-.6a20.09,20.09,0,0,1-.1-2.5c0-1.1.1-2.3.2-3.6v-.4c0-.4-.1-.5-.4-.6a.47.47,0,0,0-.5.5,4.35,4.35,0,0,1-.6,1.7,3.77,3.77,0,0,1-1.4.6,16.23,16.23,0,0,1-3.4.2h-3.2a2.33,2.33,0,0,1-1.1-.2,2,2,0,0,1-.2-1.1v-8.4c0-.7.1-1.2.4-1.4a2.75,2.75,0,0,1,1.6-.3h3.2a21.5,21.5,0,0,1,4.4.3,2.26,2.26,0,0,1,1.6,1.2,2.74,2.74,0,0,1,.2,1.3v.5c0,.4.1.6.4.6a.55.55,0,0,0,.5-.3,8.81,8.81,0,0,0,.2-1.5l.1-1.2a9,9,0,0,1,.2-1.6c0-.2.1-.3.1-.5,0-.4-.2-.6-.7-.6a2.49,2.49,0,0,0-.8.1c-.2,0-.7.1-1.5.1l-2.9.1c-1.3.1-2.8.1-4.4.1-2.7,0-5.1-.1-7.1-.3a7.61,7.61,0,0,0-1.4-.1q-.9,0-.9.6c0,.3.2.4.6.4a2.69,2.69,0,0,1,2.5,1,8.91,8.91,0,0,1,.6,4v18.7c0,1.6-.5,2.6-1.5,2.9l-.8.2c-.4.1-.5.3-.5.5s.2.4.7.4a5.94,5.94,0,0,0,1.1-.1,32.72,32.72,0,0,1,5.1-.2,57.29,57.29,0,0,1,6.5.4,10.37,10.37,0,0,0,1.6.1,5.81,5.81,0,0,0,4.6-2.2,5.39,5.39,0,0,0,1.5-3.2C246.3,201.08,246.2,200.87,245.9,200.87Z"/><path class="a" d="M257.2,205.67a4.21,4.21,0,0,1-2.2-.8,2.81,2.81,0,0,1-.7-1.9l-.1-1.5v-14.8c0-.6.1-.9.4-.9a.37.37,0,0,1,.3.1l.2.2,17.3,19.8.5.5a.76.76,0,0,0,.5.2c.3,0,.5-.1.6-.5a16.49,16.49,0,0,0,.1-2.8v-20.8a5.83,5.83,0,0,1,.4-2.7,2.37,2.37,0,0,1,1.7-1c.3-.1.4-.2.4-.4s-.2-.4-.6-.4a4.14,4.14,0,0,0-1,.1,11.52,11.52,0,0,1-2,.1c-1.6,0-2.9,0-3.8-.1-.4,0-.7-.1-.9-.1-.4,0-.6.1-.6.4s.2.4.6.5a5.3,5.3,0,0,1,2.9,1.1,3.88,3.88,0,0,1,1,2.5l.2,4.7v13c0,.2-.1.4-.2.4s-.3-.2-.6-.5l-18.9-21.4a1.36,1.36,0,0,0-1-.6h-3.6c-.3,0-.5.1-.5.4s.2.4.6.5a4.56,4.56,0,0,1,3.3,2.3,11.16,11.16,0,0,1,1.1,5.6v14a6.47,6.47,0,0,1-.6,3.2,4.13,4.13,0,0,1-2.3,1.6c-.4.1-.6.3-.6.5s.2.4.6.4a2.81,2.81,0,0,0,.8-.1,7.57,7.57,0,0,1,1.5-.1h1l2.1.1a17.36,17.36,0,0,0,1.8.1h.6c.3,0,.4-.1.4-.4A1,1,0,0,0,257.2,205.67Z"/><path class="a" d="M38.8,251.48c-1.7-.3-2.9-.7-3.4-1.3s-1.3-1.9-2.1-4.1l-.6-1.5-11.8-30.1c-.2-.5-.4-.8-.7-.8s-.6.3-.8.8L5.3,245.68l-.8,1.9A15.76,15.76,0,0,1,3,250a3.21,3.21,0,0,1-1.5,1.3l-1,.3a.63.63,0,0,0-.5.6c0,.3.2.5.7.5.1,0,.6-.1,1.5-.2H3.4a27.2,27.2,0,0,1,3,.1l2.6.2h.9c.5,0,.8-.2.8-.5s-.3-.5-.8-.6a5.47,5.47,0,0,1-2.5-1,2.55,2.55,0,0,1-.6-1.9,11.48,11.48,0,0,1,1.2-4.1l1.8-4a6,6,0,0,1,1.3-2.2,6.17,6.17,0,0,1,2.5-.3h9.9a6.57,6.57,0,0,1,1.9.2,5.68,5.68,0,0,1,.9,1.7l1.4,3.6c1.1,2.9,1.7,4.8,1.7,5.8a1.71,1.71,0,0,1-1.4,1.9l-.8.2c-.5.1-.7.3-.7.6s.2.6.7.6a2.49,2.49,0,0,0,.8-.1,38,38,0,0,1,4.8-.2c2.4,0,4.1,0,5.1.1a7.72,7.72,0,0,1,1,.1c.5,0,.7-.2.8-.5S39.4,251.58,38.8,251.48Zm-16-15.9h-9c-.8,0-1.3-.2-1.3-.7a2.18,2.18,0,0,1,.4-1l5.3-11.8c.2-.4.3-.5.4-.5.3,0,.5.3.7.9l.2.6,4.3,10.8.1.5a1.76,1.76,0,0,1,.1.6C24.2,235.28,23.7,235.58,22.8,235.58Z"/><path class="a" d="M51.6,224a22.63,22.63,0,0,0-2.7.1l-1.9.2a28.25,28.25,0,0,1-3.2.1H42.4l-1.6-.1c-.4,0-.5.1-.5.4s.2.4.7.4a3,3,0,0,1,2.3,1.1,4.93,4.93,0,0,1,.7,3v18.5a6.8,6.8,0,0,1-.4,3,2.61,2.61,0,0,1-1.8,1c-.4.1-.6.2-.6.5s.2.5.7.5c.3,0,.7-.1,1.2-.1a22.36,22.36,0,0,1,3.8-.2c1.4,0,2.9.1,4.8.2a15.77,15.77,0,0,0,1.9.1,14.83,14.83,0,0,0,8.2-2.4,12.22,12.22,0,0,0,4.7-5.1,15.49,15.49,0,0,0,1.7-7.1,13.74,13.74,0,0,0-3.8-9.9C61.4,225.48,57.2,224,51.6,224Zm8.6,25.8a11.56,11.56,0,0,1-6.3,1.8,17.78,17.78,0,0,1-2.9-.3,14.22,14.22,0,0,1-2.8-.7,1.71,1.71,0,0,1-1.2-1.7v-21.1a2.46,2.46,0,0,1,.5-1.7c.6-.5,2-.7,4.1-.7a13,13,0,0,1,7.7,2.3,12.38,12.38,0,0,1,4.1,5.1,16.74,16.74,0,0,1,1.5,7.1C64.9,244.48,63.3,247.78,60.2,249.78Z"/><path class="a" d="M96.5,224.28h-4a17.36,17.36,0,0,1-1.8-.1h-.6c-.4,0-.7.1-.7.4s.4.4,1.1.6a3.2,3.2,0,0,1,1.3.5,1.33,1.33,0,0,1,.3,1c0,1.3-1,4.3-2.9,8.9l-4.5,10.7-.3.8c-.4.8-.6,1.2-.7,1.2s-.3-.2-.5-.7l-7.9-18.1a8.12,8.12,0,0,1-.9-2.9,1.55,1.55,0,0,1,.2-.8,3.83,3.83,0,0,1,1.1-.5c.3-.1.4-.3.4-.4,0-.3-.2-.4-.6-.4h-.6a7.18,7.18,0,0,1-1.3.1h-6c-.4,0-.6.1-.6.4s.1.3.2.3a4,4,0,0,0,1.3.3,2.72,2.72,0,0,1,1.6.8,8.78,8.78,0,0,1,1.3,2.3l10.4,24.1c.3.7.6,1,.9,1s.5-.3.8-1l10.2-23.9.6-1.3a4.36,4.36,0,0,1,2.2-2.4c.3-.1.4-.2.4-.4C96.9,224.37,96.8,224.28,96.5,224.28Z"/><path class="a" d="M119.1,246.87c-.2,0-.3.1-.5.4-1.5,2.4-5,3.6-10.3,3.6a7.3,7.3,0,0,1-3.2-.4c-.5-.3-.6-1-.6-2.2V240c0-.4.1-.7.3-.8a3.48,3.48,0,0,1,1.3-.2h4.5a4.94,4.94,0,0,1,2.5.5,2.87,2.87,0,0,1,1,1.9l.1.6c.1.3.2.5.5.5s.4-.2.4-.5v-.6a20.09,20.09,0,0,1-.1-2.5c0-1.1.1-2.3.2-3.6v-.4c0-.4-.1-.5-.4-.6a.47.47,0,0,0-.5.5,4.35,4.35,0,0,1-.6,1.7,3.77,3.77,0,0,1-1.4.6,16.23,16.23,0,0,1-3.4.2h-3.2a2.33,2.33,0,0,1-1.1-.2,2,2,0,0,1-.2-1.1v-8.4c0-.7.1-1.2.4-1.4a2.75,2.75,0,0,1,1.6-.3h3.2a21.5,21.5,0,0,1,4.4.3,2.26,2.26,0,0,1,1.6,1.2,2.74,2.74,0,0,1,.2,1.3v.5c0,.4.1.6.4.6a.55.55,0,0,0,.5-.3,8.81,8.81,0,0,0,.2-1.5l.1-1.2a9,9,0,0,1,.2-1.6c0-.2.1-.3.1-.5,0-.4-.2-.6-.7-.6a2.49,2.49,0,0,0-.8.1c-.2,0-.7.1-1.5.1l-2.9.1c-1.3.1-2.8.1-4.4.1-2.7,0-5.1-.1-7.1-.3a7.61,7.61,0,0,0-1.4-.1q-.9,0-.9.6c0,.3.2.4.6.4a2.69,2.69,0,0,1,2.5,1,8.91,8.91,0,0,1,.6,4v18.7c0,1.6-.5,2.6-1.5,2.9l-.8.2c-.4.1-.5.3-.5.5s.2.4.7.4a5.94,5.94,0,0,0,1.1-.1,32.72,32.72,0,0,1,5.1-.2,57.29,57.29,0,0,1,6.5.4,10.37,10.37,0,0,0,1.6.1,5.81,5.81,0,0,0,4.6-2.2,5.39,5.39,0,0,0,1.5-3.2C119.5,247.08,119.4,246.87,119.1,246.87Z"/><path class="a" d="M149.2,224.17a4.14,4.14,0,0,0-1,.1,11.52,11.52,0,0,1-2,.1,34.68,34.68,0,0,1-3.8-.2c-.4,0-.7-.1-.9-.1-.4,0-.6.1-.6.4s.2.4.6.5a5.3,5.3,0,0,1,2.9,1.1,3.88,3.88,0,0,1,1,2.5l.2,4.7v13c0,.2-.1.4-.2.4s-.3-.2-.6-.5l-18.9-21.4a1.36,1.36,0,0,0-1-.6h-3.6c-.3,0-.5.1-.5.4s.2.4.6.5a4.56,4.56,0,0,1,3.3,2.3,11.16,11.16,0,0,1,1.1,5.6v14a6.47,6.47,0,0,1-.6,3.2,4.13,4.13,0,0,1-2.3,1.6c-.4.1-.6.3-.6.5s.2.4.6.4a2.81,2.81,0,0,0,.8-.1,7.57,7.57,0,0,1,1.5-.1h1l2.1.1a17.36,17.36,0,0,0,1.8.1h.6c.3,0,.4-.1.4-.4s-.2-.5-.7-.5a4.21,4.21,0,0,1-2.2-.8,2.81,2.81,0,0,1-.7-1.9l-.1-1.5v-14.8c0-.6.1-.9.4-.9a.37.37,0,0,1,.3.1l.2.2L145.6,252l.5.5a.76.76,0,0,0,.5.2c.3,0,.5-.1.6-.5a16.49,16.49,0,0,0,.1-2.8v-20.8a5.83,5.83,0,0,1,.4-2.7,2.37,2.37,0,0,1,1.7-1c.3-.1.4-.2.4-.4A.6.6,0,0,0,149.2,224.17Z"/><path class="a" d="M177.2,227.87a8.67,8.67,0,0,1-.1-1.8,4,4,0,0,0-.2-1.5c-.2-.2-.6-.2-1.4-.2H153.4q-.75,0-.9.3a2.87,2.87,0,0,0-.2,1.2,12,12,0,0,1-.3,2.4,6,6,0,0,0-.2,1.6c0,.4.1.5.4.6s.4-.2.6-.8a4.83,4.83,0,0,1,1.2-2.5,3.81,3.81,0,0,1,2.4-.7h5.4a1.85,1.85,0,0,1,1,.2,1.69,1.69,0,0,1,.2.9v21a3.65,3.65,0,0,1-.6,2.4,4.12,4.12,0,0,1-2.1.9c-.5.1-.7.2-.7.4s.2.4.6.4a11.31,11.31,0,0,0,1.4-.1c.4,0,.9-.1,1.5-.1h3.1a6.73,6.73,0,0,1,1.8.1,4.59,4.59,0,0,0,1,.1c.4,0,.6-.1.6-.4s-.2-.4-.7-.5a2.93,2.93,0,0,1-2.7-2.9V228a2.87,2.87,0,0,1,.2-1.2c.2-.2.5-.2,1.1-.2h5.8a4.27,4.27,0,0,1,2.3.4,3,3,0,0,1,.9,1.9c.1.4.2.6.5.6s.4-.2.4-.7C177.3,228.67,177.3,228.37,177.2,227.87Z"/><path class="a" d="M202.6,226.08a4,4,0,0,0-.2-1.5c-.2-.2-.6-.2-1.4-.2H178.9q-.75,0-.9.3a2.87,2.87,0,0,0-.2,1.2,12,12,0,0,1-.3,2.4,6,6,0,0,0-.2,1.6c0,.4.1.5.4.6s.4-.2.6-.8a4.83,4.83,0,0,1,1.2-2.5,3.81,3.81,0,0,1,2.4-.7h5.4a1.85,1.85,0,0,1,1,.2,1.69,1.69,0,0,1,.2.9v21a3.65,3.65,0,0,1-.6,2.4,4.12,4.12,0,0,1-2.1.9c-.5.1-.7.2-.7.4s.2.4.6.4a11.31,11.31,0,0,0,1.4-.1c.4,0,.9-.1,1.5-.1h3.1a6.73,6.73,0,0,1,1.8.1,4.59,4.59,0,0,0,1,.1c.4,0,.6-.1.6-.4s-.2-.4-.7-.5a2.93,2.93,0,0,1-2.7-2.9V228a2.87,2.87,0,0,1,.2-1.2c.2-.2.5-.2,1.1-.2h5.8a4.27,4.27,0,0,1,2.3.4,3,3,0,0,1,.9,1.9c.1.4.2.6.5.6s.4-.2.4-.7c0-.2-.1-.5-.1-1A6,6,0,0,1,202.6,226.08Z"/><path class="a" d="M214.5,251.67a3.85,3.85,0,0,1-1.9-.6,3.56,3.56,0,0,1-1-1.5,15.1,15.1,0,0,1-.3-3.8v-15.4c0-2.9.5-4.5,1.5-4.9l1.1-.4c.4-.1.5-.3.5-.5s-.2-.4-.6-.4h-.5l-1.4.1c-.7,0-1.6.1-2.6.1a39,39,0,0,1-4-.2h-.4c-.4,0-.6.1-.6.4s.2.4.7.5a3.46,3.46,0,0,1,2.5,1.2,6.58,6.58,0,0,1,.6,3.4v17.6a7.93,7.93,0,0,1-.5,3.4,2.94,2.94,0,0,1-2,1.1c-.4.1-.6.2-.6.5s.2.4.6.4a3.75,3.75,0,0,0,1-.1l2.4-.1h3a12.22,12.22,0,0,1,2.2.1c.3,0,.6.1.8.1.4,0,.6-.2.6-.5S215.2,251.78,214.5,251.67Z"/><path class="a" d="M244,251.78l-.9-.2a7.2,7.2,0,0,1-3.7-2.2l-10.7-11.2a2.06,2.06,0,0,1-.5-.9c0-.2.2-.4.5-.7l7-6.3c3.5-3.1,5.8-4.9,7.1-5.2.7-.2,1-.3,1-.6s-.2-.4-.6-.4a1.76,1.76,0,0,0-.6.1c-.3,0-.8.1-1.7.1h-3.4a10.89,10.89,0,0,1-1.9-.1H235c-.4,0-.6.1-.6.4s.3.4.9.5q1.5.3,1.5,1.2c0,.7-.7,1.7-2,2.9l-8.8,7.9-.3.2-.3.2c-.1,0-.2-.1-.2-.4v-8a8.54,8.54,0,0,1,.3-2.8,3.13,3.13,0,0,1,1.6-1.3c.3-.1.5-.3.5-.5s-.2-.4-.5-.4a5.81,5.81,0,0,0-1,.1h-3.4a28.33,28.33,0,0,1-3.3-.1c-.3,0-.5-.1-.7-.1-.4,0-.6.1-.6.4s.2.3.5.4l1,.2a2.45,2.45,0,0,1,1.8,1.2,7.27,7.27,0,0,1,.5,3.1v17.5a10.88,10.88,0,0,1-.5,3.7,2,2,0,0,1-1.8,1.2c-.4,0-.6.2-.6.4s.2.5.7.5a8.33,8.33,0,0,0,1.2-.1h4.2a13.58,13.58,0,0,1,2.4.1c.5,0,.9.1,1.1.1s.5-.1.5-.4-.2-.4-.6-.4a4.68,4.68,0,0,1-2.9-1.1,5.33,5.33,0,0,1-.6-3.1v-7.5c0-.3.1-.5.4-.5s.3.1.5.2l.4.5,11,11.3.3.4a1.43,1.43,0,0,0,1.2.6h2.7a7.67,7.67,0,0,1,1.8.1h.5c.4,0,.6-.1.6-.5S244.3,251.87,244,251.78Z"/><path class="a" d="M255.6,251.67a3.85,3.85,0,0,1-1.9-.6,3.56,3.56,0,0,1-1-1.5,15.1,15.1,0,0,1-.3-3.8v-15.4c0-2.9.5-4.5,1.5-4.9l1.1-.4c.4-.1.5-.3.5-.5s-.2-.4-.6-.4h-.5l-1.4.1c-.7,0-1.6.1-2.6.1a39,39,0,0,1-4-.2H246c-.4,0-.6.1-.6.4s.2.4.7.5a3.46,3.46,0,0,1,2.5,1.2,6.58,6.58,0,0,1,.6,3.4v17.6a7.93,7.93,0,0,1-.5,3.4,2.94,2.94,0,0,1-2,1.1c-.4.1-.6.2-.6.5s.2.4.6.4a3.75,3.75,0,0,0,1-.1l2.4-.1h3a12.22,12.22,0,0,1,2.2.1c.3,0,.6.1.8.1.4,0,.6-.2.6-.5S256.3,251.78,255.6,251.67Z"/><path class="a" d="M285.4,251.67h-.7c-1.5-.1-3.1-1.4-4.8-4l-.7-1-5.7-8.3c3.4-1.7,5.1-4.1,5.1-7.1a6.25,6.25,0,0,0-2.4-5.3c-1.6-1.2-4-1.8-7.1-1.8-.8,0-1.8,0-2.9.1-1.5.1-2.6.1-3.2.1a9.72,9.72,0,0,1-1.8-.1,11.31,11.31,0,0,0-1.4-.1c-.5,0-.7.1-.7.4s.2.4.7.5l1,.1c1.5.2,2.2,1.4,2.2,3.6v16.8a15.52,15.52,0,0,1-.5,4.7,2.66,2.66,0,0,1-2.2,1.5c-.3.1-.5.2-.5.4s.2.4.5.4a5.39,5.39,0,0,0,1.1-.1,10.9,10.9,0,0,1,1.7-.1h3.1a17.84,17.84,0,0,1,2.6.1,6.82,6.82,0,0,0,1.2.1c.5,0,.7-.1.7-.4s-.3-.4-.8-.5a4.79,4.79,0,0,1-2.7-.9,2,2,0,0,1-.8-1.2,11,11,0,0,1-.2-2.4V240a1.17,1.17,0,0,1,.2-.7l.5-.1h2.7a1.82,1.82,0,0,1,1.6.8l.3.5,5.1,7.8a12.3,12.3,0,0,0,3,3.3,5.58,5.58,0,0,0,3.3,1,11.24,11.24,0,0,0,2-.2q.9-.3.9-.6A.58.58,0,0,0,285.4,251.67Zm-15.5-13.8h-2.3a1.2,1.2,0,0,1-1.5-1.5v-9.1a1.67,1.67,0,0,1,.5-1.4,2.5,2.5,0,0,1,1.7-.4,7.34,7.34,0,0,1,5.3,1.9,6.35,6.35,0,0,1,2.1,4.9,5.59,5.59,0,0,1-1.5,4.1A6.09,6.09,0,0,1,269.9,237.87Z"/><path class="a" d="M312.6,251.78l-.9-.2a7.2,7.2,0,0,1-3.7-2.2l-10.7-11.2a2.06,2.06,0,0,1-.5-.9c0-.2.2-.4.5-.7l7-6.3c3.5-3.1,5.8-4.9,7.1-5.2.7-.2,1-.3,1-.6s-.2-.4-.6-.4a1.76,1.76,0,0,0-.6.1c-.3,0-.8.1-1.7.1h-3.4a10.89,10.89,0,0,1-1.9-.1h-.6c-.4,0-.6.1-.6.4s.3.4.9.5q1.5.3,1.5,1.2c0,.7-.7,1.7-2,2.9l-8.8,7.9-.3.2-.3.2c-.1,0-.2-.1-.2-.4v-8a8.54,8.54,0,0,1,.3-2.8,3.13,3.13,0,0,1,1.6-1.3c.3-.1.5-.3.5-.5s-.2-.4-.5-.4a5.81,5.81,0,0,0-1,.1h-3.4a28.33,28.33,0,0,1-3.3-.1c-.3,0-.5-.1-.7-.1-.4,0-.6.1-.6.4s.2.3.5.4l1,.2a2.45,2.45,0,0,1,1.8,1.2,7.27,7.27,0,0,1,.5,3.1v17.5a10.88,10.88,0,0,1-.5,3.7,2,2,0,0,1-1.8,1.2c-.4,0-.6.2-.6.4s.2.5.7.5a8.33,8.33,0,0,0,1.2-.1h4.2a13.58,13.58,0,0,1,2.4.1c.5,0,.9.1,1.1.1s.5-.1.5-.4-.2-.4-.6-.4a4.68,4.68,0,0,1-2.9-1.1,5.33,5.33,0,0,1-.6-3.1v-7.5c0-.3.1-.5.4-.5s.3.1.5.2l.4.5,11,11.3.3.4a1.43,1.43,0,0,0,1.2.6h2.7a7.67,7.67,0,0,1,1.8.1h.5c.4,0,.6-.1.6-.5S312.9,251.87,312.6,251.78Z"/><path class="a" d="M339.9,251.78l-.9-.2a7.2,7.2,0,0,1-3.7-2.2l-10.7-11.2a2.06,2.06,0,0,1-.5-.9c0-.2.2-.4.5-.7l7-6.3c3.5-3.1,5.8-4.9,7.1-5.2.7-.2,1-.3,1-.6s-.2-.4-.6-.4a1.76,1.76,0,0,0-.6.1c-.3,0-.8.1-1.7.1h-3.4a10.89,10.89,0,0,1-1.9-.1h-.6c-.4,0-.6.1-.6.4s.3.4.9.5q1.5.3,1.5,1.2c0,.7-.7,1.7-2,2.9l-8.8,7.9-.3.2-.3.2c-.1,0-.2-.1-.2-.4v-8a8.54,8.54,0,0,1,.3-2.8A3.13,3.13,0,0,1,323,225c.3-.1.5-.3.5-.5s-.2-.4-.5-.4a5.81,5.81,0,0,0-1,.1h-3.4a28.33,28.33,0,0,1-3.3-.1c-.3,0-.5-.1-.7-.1-.4,0-.6.1-.6.4s.2.3.5.4l1,.2a2.45,2.45,0,0,1,1.8,1.2,7.27,7.27,0,0,1,.5,3.1v17.5a10.88,10.88,0,0,1-.5,3.7,2,2,0,0,1-1.8,1.2c-.4,0-.6.2-.6.4s.2.5.7.5a8.33,8.33,0,0,0,1.2-.1H321a13.58,13.58,0,0,1,2.4.1c.5,0,.9.1,1.1.1s.5-.1.5-.4-.2-.4-.6-.4a4.68,4.68,0,0,1-2.9-1.1,5.33,5.33,0,0,1-.6-3.1v-7.5c0-.3.1-.5.4-.5s.3.1.5.2l.4.5,11,11.3.3.4a1.43,1.43,0,0,0,1.2.6h2.7a7.67,7.67,0,0,1,1.8.1h.5c.4,0,.6-.1.6-.5S340.3,251.87,339.9,251.78Z"/><path class="a" d="M364.9,227.78a14.74,14.74,0,0,0-10.5-4,16.34,16.34,0,0,0-10.9,4.3,13.39,13.39,0,0,0-2.9,4.6,15.93,15.93,0,0,0-1.1,5.6,14.08,14.08,0,0,0,4.1,10.5c2.7,2.7,6.3,4,10.7,4a14.32,14.32,0,0,0,10.6-4.2,14.55,14.55,0,0,0,4.1-10.8A13.35,13.35,0,0,0,364.9,227.78Zm-2,20.5a10.24,10.24,0,0,1-7.9,3.5,10.93,10.93,0,0,1-8.8-4.3,15.57,15.57,0,0,1-3.6-10.5c0-3.6.9-6.5,2.8-8.6a9.74,9.74,0,0,1,7.6-3.2,12.21,12.21,0,0,1,9.3,4.1,14.4,14.4,0,0,1,3.7,10.2A12.46,12.46,0,0,1,362.9,248.28Z"/></svg>