<svg xmlns="http://www.w3.org/2000/svg" viewBox="0 0 570.1 132.49"><defs><style>.a{fill:#fff;}</style></defs><title>Asset 1</title><path class="a" d="M45.2,96.87,16.5,102,0,124.87l39.6-7c11.9-2,22.3-2.5,25.6,7v-15.5H57.4v-5.5h7.8v-.5C65.2,97.87,62.7,93.87,45.2,96.87Z"/><path class="a" d="M90.4,96.87l-6.3,6.3c-9,9-13.4,14.1-13.4,21.6,3.4-9.9,14.4-9,27.3-6.5l38,6.6L119.5,102Z"/><path class="a" d="M84.7,88.57c-3.5,3.5-9.6,9.1-12.5,15.3h6.4l7.3-7.3c6.7-6.7,12-11.9,14.1-18.4a22.83,22.83,0,0,0,1.2-11.8,8.88,8.88,0,0,0-.7-2.7c-.6,7.3-2.7,11.7-13.3,22.4Z"/><path class="a" d="M64.8,43.48c3.9-3.9,13.8-12.8,13.8-20.5v-8.5c0-.1-.2-.1-.2,0-.7,5.7-2,8.2-16,22.2L48.6,50.48c-7.3,7.3-13.2,15.1-12.5,23.8.4,4.9,2.1,7.5,3.1,8.3.5.4.4.1.3-.2C35.3,72.87,45.3,63,50.3,58Z"/><path class="a" d="M78.6,29.07c0-.1-.2-.1-.2,0-.7,5.7-2,8.2-16,22.2L49.6,64.07c-4.7,4.7-8.9,9.5-8.7,17.4.1,4.8,2.5,8.8,6.2,9.8,1.5.3,1.4.1,1.1,0-5.2-2.4-4.8-11.8,3.6-20.1L64.9,58c3.9-3.9,13.8-12.8,13.8-20.5v-8.4Z"/><path class="a" d="M35.3,67.57c.6-7.3,2.7-11.7,13.3-22.4l16.1-16.1c3.9-3.9,13.8-12.8,13.8-20.5V.07c0-.1-.2-.1-.2,0-.7,5.7-2,8.2-16,22.2L49.9,34.68c-6.8,6.7-12,11.9-14.1,18.4a22.83,22.83,0,0,0-1.2,11.8A10.22,10.22,0,0,0,35.3,67.57Z"/><path class="a" d="M70.6,117.77c0,.1.2.1.2,0a17.62,17.62,0,0,1,3.4-8.4H70.7v8.4Z"/><path class="a" d="M87.3,71.57l-4.1,4.1c-6.3,6.2-12.6,13.2-12.6,19.7V104c0,.1.2.1.2,0,.7-6.3,3.7-10.3,12.8-19.4l3.8-3.8c7.3-7.3,13.2-15.1,12.5-23.8-.4-4.9-2.1-7.5-3.1-8.3-.5-.4-.4-.1-.3.2C100.6,58.37,90.6,68.27,87.3,71.57Z"/><path class="a" d="M70.6,89c0,.1.2.1.2,0,.7-6,4.1-10.5,11.9-18.3L86.4,67c4.7-4.7,8.9-9.5,8.7-17.4-.1-4.8-2.5-8.8-6.2-9.8-1.5-.3-1.4-.1-1.1,0,5.2,2.4,4.8,11.8-3.6,20.1l-4.6,4.6c-3,3-9.1,9.6-9.1,15.8V89Z"/><path class="a" d="M189.9,124.07c-1.5-.3-2.5-.6-2.9-1.1a10.54,10.54,0,0,1-1.8-3.5l-.5-1.3-10-25.7c-.2-.5-.4-.7-.6-.7s-.5.2-.7.7l-12,26.7-.7,1.5a12,12,0,0,1-1.3,2.1,2.43,2.43,0,0,1-1.3,1.1l-.9.3c-.3.1-.4.2-.4.5s.2.4.6.4a10.3,10.3,0,0,0,1.3-.1h1a20.93,20.93,0,0,1,2.6.1l2.2.1h.8c.5,0,.7-.1.7-.4s-.3-.5-.7-.5a5.33,5.33,0,0,1-2.2-.8,1.94,1.94,0,0,1-.5-1.6,9.45,9.45,0,0,1,1-3.5l1.5-3.4a5.32,5.32,0,0,1,1.1-1.9,4.54,4.54,0,0,1,2.1-.3h8.5a4.23,4.23,0,0,1,1.6.2c.2.1.4.6.8,1.5l1.2,3.1a20.15,20.15,0,0,1,1.4,4.9,1.46,1.46,0,0,1-1.2,1.6l-.7.2c-.4.1-.6.2-.6.5s.2.5.6.5a2,2,0,0,0,.7-.1,35.87,35.87,0,0,1,4.1-.1c2.1,0,3.5,0,4.3.1h.9c.4,0,.6-.1.7-.4S190.4,124.18,189.9,124.07Zm-13.7-13.6h-7.7c-.7,0-1.1-.2-1.1-.6a4.18,4.18,0,0,1,.3-.9l4.6-10.1c.1-.3.3-.5.4-.4s.4.3.6.8l.2.5,3.7,9.2.1.4a1.09,1.09,0,0,1,.1.5Q177.4,110.47,176.2,110.48Z"/><path class="a" d="M200.6,101.07a17,17,0,0,0-2.3.1l-1.6.2a19.41,19.41,0,0,1-2.7.1h-1.2l-1.4-.1c-.3,0-.4.1-.4.3s.2.3.6.4a2.46,2.46,0,0,1,1.9.9,4.33,4.33,0,0,1,.6,2.6v15.5a6.51,6.51,0,0,1-.3,2.5,2.15,2.15,0,0,1-1.5.9c-.3.1-.5.2-.5.4s.2.4.6.4a4.14,4.14,0,0,0,1-.1,28.81,28.81,0,0,1,3.2-.2c1.1,0,2.5.1,4,.2a11.8,11.8,0,0,0,1.6.1,12.91,12.91,0,0,0,6.9-2A10.15,10.15,0,0,0,213,119a13.25,13.25,0,0,0,1.4-6,11.47,11.47,0,0,0-3.2-8.3C208.8,102.27,205.3,101.07,200.6,101.07Zm7.2,21.6a9.64,9.64,0,0,1-5.3,1.5,11.21,11.21,0,0,1-2.4-.3c-.9-.2-1.7-.4-2.3-.6s-1.1-.7-1.1-1.4v-17.7c0-.7.1-1.2.4-1.4.5-.4,1.6-.6,3.5-.6a10.84,10.84,0,0,1,6.5,1.9,9.77,9.77,0,0,1,3.4,4.3,14.61,14.61,0,0,1,1.2,6C211.8,118.27,210.5,121.07,207.8,122.68Z"/><path class="a" d="M238.3,101.27h-3.4a11.45,11.45,0,0,1-1.5-.1h-.5q-.6,0-.6.3c0,.2.3.3.9.5a2.3,2.3,0,0,1,1.1.4,1,1,0,0,1,.3.8c0,1.1-.8,3.6-2.4,7.4l-3.8,9-.3.6c-.3.7-.5,1-.6,1s-.3-.2-.4-.6l-6.6-15.2a6.43,6.43,0,0,1-.7-2.4.85.85,0,0,1,.2-.6,1.87,1.87,0,0,1,.9-.4c.2-.1.3-.2.3-.4s-.2-.3-.5-.3h-.5c-.5,0-.9.1-1.1.1h-5c-.3,0-.5.1-.5.3s.1.2.2.3a4.17,4.17,0,0,0,1.1.2,2.35,2.35,0,0,1,1.4.7,9.56,9.56,0,0,1,1.1,1.9l8.7,20.2c.2.6.5.9.7.9s.5-.3.7-.8l8.6-20.1.5-1.1a3.42,3.42,0,0,1,1.9-2c.2-.1.4-.2.4-.4A1.07,1.07,0,0,0,238.3,101.27Z"/><path class="a" d="M257.3,120.27a.54.54,0,0,0-.4.3q-1.95,3-8.7,3a5.32,5.32,0,0,1-2.7-.4c-.4-.2-.5-.9-.5-1.8v-7a.78.78,0,0,1,.3-.7,2.68,2.68,0,0,1,1.1-.2h3.8a3.69,3.69,0,0,1,2.1.4,2.23,2.23,0,0,1,.8,1.6l.1.5a.37.37,0,0,0,.4.4c.2,0,.3-.1.3-.4v-.5a14.77,14.77,0,0,1-.1-2.1c0-.9.1-1.9.2-3V110c0-.3-.1-.5-.3-.5a.37.37,0,0,0-.4.4,3.4,3.4,0,0,1-.5,1.4,2.25,2.25,0,0,1-1.2.5,20.69,20.69,0,0,1-2.9.2H246a1.44,1.44,0,0,1-.9-.2c-.1-.1-.1-.4-.1-1v-7a1.74,1.74,0,0,1,.3-1.2,2.21,2.21,0,0,1,1.4-.3h2.7a15.24,15.24,0,0,1,3.7.3,1.74,1.74,0,0,1,1.3,1,3.6,3.6,0,0,1,.2,1.1v.4c0,.4.1.5.3.5s.3-.1.4-.3a7.08,7.08,0,0,0,.2-1.2l.1-1a10.33,10.33,0,0,0,.1-1.4c0-.2.1-.3.1-.4,0-.3-.2-.5-.6-.5a2.25,2.25,0,0,0-.7.1,7.5,7.5,0,0,0-1.2.1l-2.4.1c-1.1,0-2.3.1-3.7.1a49.11,49.11,0,0,1-5.9-.3,5.74,5.74,0,0,0-1.2-.1c-.5,0-.8.2-.8.5s.2.3.5.3a2.34,2.34,0,0,1,2.1.9,6.63,6.63,0,0,1,.5,3.3v15.7q0,2.1-1.2,2.4l-.7.2c-.3.1-.4.2-.4.4s.2.4.6.4a3.45,3.45,0,0,0,.9-.1,36.61,36.61,0,0,1,4.3-.2c1.4,0,3.3.1,5.4.3.6,0,1,.1,1.3.1a4.6,4.6,0,0,0,3.8-1.9,4.76,4.76,0,0,0,1.3-2.7A1,1,0,0,0,257.3,120.27Z"/><path class="a" d="M282.6,101.18a2.49,2.49,0,0,0-.8.1,8.12,8.12,0,0,1-1.7.1,29.19,29.19,0,0,1-3.2-.1h-.7c-.3,0-.5.1-.5.3a.46.46,0,0,0,.5.4,5.46,5.46,0,0,1,2.5.9,3.43,3.43,0,0,1,.9,2.1l.2,4v10.8c0,.2-.1.3-.2.3s-.2-.1-.5-.4l-15.9-18a1.38,1.38,0,0,0-.9-.5h-3.1c-.3,0-.4.1-.4.3s.2.3.5.4a3.46,3.46,0,0,1,2.7,2,10.06,10.06,0,0,1,.9,4.7v11.7a6.16,6.16,0,0,1-.5,2.7,3.07,3.07,0,0,1-2,1.3c-.3.1-.5.3-.5.4s.2.3.5.3a1.76,1.76,0,0,0,.6-.1,5.28,5.28,0,0,1,1.3-.1h.8l1.8.1a11.93,11.93,0,0,1,1.5.1h.5c.2,0,.4-.1.4-.3s-.2-.4-.6-.4a4.08,4.08,0,0,1-1.8-.6,2.67,2.67,0,0,1-.6-1.6l-.1-1.2v-12.4c0-.5.1-.8.3-.8s.2,0,.2.1l.2.2,14.5,16.6.4.4c.1.1.2.1.4.2s.4-.1.5-.4a12.31,12.31,0,0,0,.1-2.4V105a6,6,0,0,1,.3-2.3,2.15,2.15,0,0,1,1.4-.9c.2-.1.4-.2.3-.3C283,101.27,282.9,101.18,282.6,101.18Z"/><path class="a" d="M306,102.77a2.23,2.23,0,0,0-.2-1.2,2,2,0,0,0-1.1-.2H286.1a1.55,1.55,0,0,0-.8.2,2.15,2.15,0,0,0-.2,1,8.79,8.79,0,0,1-.3,2c-.1.6-.2,1.1-.2,1.3s.1.5.3.5.4-.2.5-.7a4.11,4.11,0,0,1,1-2.1,2.81,2.81,0,0,1,2-.6H293a.8.8,0,0,1,1,1v17.5a3.22,3.22,0,0,1-.5,2,2.52,2.52,0,0,1-1.8.7c-.4,0-.6.2-.6.3a.46.46,0,0,0,.5.4,8.33,8.33,0,0,0,1.2-.1c.3,0,.7-.1,1.2-.1h2.6a6.22,6.22,0,0,1,1.6.1,3.22,3.22,0,0,0,.8.1c.3,0,.5-.1.5-.4s-.2-.3-.6-.4a2.56,2.56,0,0,1-2.3-2.4v-17.6a.92.92,0,0,1,1.2-1.2h4.8c1,0,1.6.1,1.9.4a2.39,2.39,0,0,1,.7,1.6c.1.4.2.5.4.5s.4-.2.4-.5a2.49,2.49,0,0,0-.1-.8C306.1,104,306,103.48,306,102.77Z"/><path class="a" d="M316,124.27a4.29,4.29,0,0,1-1.6-.5,4.14,4.14,0,0,1-.9-1.2,10.75,10.75,0,0,1-.3-3.2v-12.9c0-2.4.4-3.8,1.3-4.1l.9-.3a.51.51,0,0,0,.4-.5c0-.2-.2-.3-.5-.3h-.4l-1.2.1c-.6,0-1.3.1-2.2.1a26.3,26.3,0,0,1-3.3-.2h-.3c-.3,0-.5.1-.5.4s.2.3.6.4c1.1.2,1.8.5,2.1,1a6.24,6.24,0,0,1,.5,2.9v14.8a6.29,6.29,0,0,1-.4,2.9,2,2,0,0,1-1.7.9c-.4.1-.5.2-.5.4a.46.46,0,0,0,.5.4,2.49,2.49,0,0,0,.8-.1l2-.1h2.5a7.67,7.67,0,0,1,1.8.1c.3,0,.5.1.7.1.4,0,.5-.1.5-.4C316.9,124.48,316.6,124.37,316,124.27Z"/><path class="a" d="M327.6,111.18a33.64,33.64,0,0,1-4.1-1.5,3.74,3.74,0,0,1-1.5-1.3,4.15,4.15,0,0,1-.8-2.5,3.42,3.42,0,0,1,1.2-2.7,4.69,4.69,0,0,1,3.1-1.1,7.39,7.39,0,0,1,4.2,1.2,5.4,5.4,0,0,1,2.5,3.1c.2.6.4.8.6.8a.46.46,0,0,0,.4-.5,2.64,2.64,0,0,0-.1-.7l-.3-1.8c-.1-1-.2-1.5-.2-1.7,0-.6-.1-.9-.4-.8-.1,0-.2,0-.2.1l-.2.2a.76.76,0,0,1-.4.2.37.37,0,0,1-.3-.1l-1.2-.5a7.49,7.49,0,0,0-3.1-.5,7.57,7.57,0,0,0-5.3,1.8,5.68,5.68,0,0,0-2.1,4.5,5.42,5.42,0,0,0,1.6,4.1,16.48,16.48,0,0,0,5.4,2.9,17.69,17.69,0,0,1,4.5,1.9,4.07,4.07,0,0,1,1.5,3.2,4.25,4.25,0,0,1-1.6,3.4,6.09,6.09,0,0,1-4,1.4,6.82,6.82,0,0,1-4.3-1.5,7,7,0,0,1-2.6-3.6c-.2-.6-.4-.8-.6-.8a.46.46,0,0,0-.4.5,8.5,8.5,0,0,0,.4,2.2,10.18,10.18,0,0,1,.4,1.6,5,5,0,0,0,.3,1.2.78.78,0,0,0,.4.4,11,11,0,0,0,2.3.9,10.6,10.6,0,0,0,2.9.4,9,9,0,0,0,6-2,6.56,6.56,0,0,0,2.3-5.3C334,114.87,331.9,112.57,327.6,111.18Z"/><path class="a" d="M357,102.77a2.23,2.23,0,0,0-.2-1.2,2,2,0,0,0-1.1-.2H337.1a1.55,1.55,0,0,0-.8.2,2.15,2.15,0,0,0-.2,1,8.79,8.79,0,0,1-.3,2c-.1.6-.2,1.1-.2,1.3s.1.5.3.5.4-.2.5-.7a4.11,4.11,0,0,1,1-2.1,2.81,2.81,0,0,1,2-.6H344a.8.8,0,0,1,1,1v17.5a3.22,3.22,0,0,1-.5,2,2.52,2.52,0,0,1-1.8.7c-.4,0-.6.2-.6.3a.46.46,0,0,0,.5.4,8.33,8.33,0,0,0,1.2-.1c.3,0,.7-.1,1.2-.1h2.6a6.22,6.22,0,0,1,1.6.1,3.22,3.22,0,0,0,.8.1c.3,0,.5-.1.5-.4s-.2-.3-.6-.4a2.56,2.56,0,0,1-2.3-2.4v-17.6a.92.92,0,0,1,1.2-1.2h4.8c1,0,1.6.1,1.9.4a2.39,2.39,0,0,1,.7,1.6c.1.4.2.5.4.5s.4-.2.4-.5a2.49,2.49,0,0,0-.1-.8A3.48,3.48,0,0,0,357,102.77Z"/><path class="a" d="M382.5,101.27a3.22,3.22,0,0,0-.8.1c-.3,0-1.1.1-2.4.1a8.08,8.08,0,0,1-1.6-.1,4.91,4.91,0,0,0-1.1-.1c-.2,0-.3.1-.3.4s.2.3.5.4a2.71,2.71,0,0,1,2.1,1.1,6,6,0,0,1,.6,3.1v8.9c0,3-.7,5.3-2,6.8s-3.4,2.2-6.1,2.2c-3.1,0-5.2-.9-6.5-2.7-.9-1.3-1.4-3.4-1.4-6.3v-9.8a6,6,0,0,1,.3-2.3,2.18,2.18,0,0,1,1.3-.9c.4-.1.6-.2.6-.4s-.1-.3-.4-.3a3.45,3.45,0,0,0-.9.1c-.5,0-.8.1-1,.1h-2.6a6.82,6.82,0,0,1-1.2-.1h-1.2c-.4,0-.7.1-.7.4s.2.3.5.4a2.88,2.88,0,0,1,2,.9,4.94,4.94,0,0,1,.5,2.5v9.8a12.19,12.19,0,0,0,1.2,5.8,7.93,7.93,0,0,0,3.4,3.1,11.45,11.45,0,0,0,5.3,1.1h0l-.1.1s-2.9,2.3-1.9,5.2,5.9,1,5.9,1,.4-.2.3-.5-.3-1-.3-1-.1-.3-.5-.2-2.3.4-2.8-.5-.2-2.5,2.1-4.4l.1-.1c.7-.2,1.3-.4,2-.6a7.57,7.57,0,0,0,3.4-2.6c1.3-1.7,1.9-4.1,1.9-7.2v-8.5a9.29,9.29,0,0,1,.3-2.9,2.44,2.44,0,0,1,1.4-1.2c.2-.1.4-.2.4-.4C382.9,101.37,382.8,101.27,382.5,101.27Z"/><path class="a" d="M414.2,107.68c-.8-.2-1.2-.3-1.2-.5s.1-.2.3-.4l1-.7a6.53,6.53,0,0,0,3.1-5.8,6.61,6.61,0,0,0-3-5.7,13.89,13.89,0,0,0-8.1-2.1,18.49,18.49,0,0,0-2.3.1l-2.6.2h-5.8c-.6,0-.9.2-.9.5s.3.5,1,.5a3,3,0,0,1,2.8,1.5,8.92,8.92,0,0,1,.9,4.5v18.1a17.09,17.09,0,0,1-.4,4.2,2.48,2.48,0,0,1-2.4,2.2c-.5.1-.7.2-.7.5s.2.5.7.5a11.8,11.8,0,0,0,1.6-.1,10.32,10.32,0,0,1,1.9-.1c.7,0,1.7,0,3,.1l1.9.1,2.2.1,1.8.1a11.33,11.33,0,0,0,8-2.8,9.13,9.13,0,0,0,3.2-7.1,8.45,8.45,0,0,0-1.7-5.1A7.1,7.1,0,0,0,414.2,107.68Zm-11.3-11.3a2.7,2.7,0,0,1,.5-1.9,3.36,3.36,0,0,1,2.1-.5,9.06,9.06,0,0,1,6.2,2.2,7,7,0,0,1,2.5,5.5c0,3.5-2,5.3-5.9,5.3h-3.9a3.09,3.09,0,0,1-1.3-.2c-.2-.1-.3-.5-.3-1v-9.4Zm11.8,25.8a8,8,0,0,1-5.7,1.9,14.71,14.71,0,0,1-4.2-.4,2.49,2.49,0,0,1-1.7-1.4l-.1-.9v-11.9a1,1,0,0,1,.2-.7,2,2,0,0,1,1.1-.2h4.6a7.54,7.54,0,0,1,5.6,2.3,8.15,8.15,0,0,1,2.2,5.9A7.32,7.32,0,0,1,414.7,122.18Z"/><path class="a" d="M445.9,124.37a5.33,5.33,0,0,1-2.2-.8,6.59,6.59,0,0,1-1.3-2.6l-.4-.9-7.4-19c-.1-.3-.3-.5-.5-.5s-.4.2-.5.5l-8.9,19.7-.5,1.1a13,13,0,0,1-1,1.5c-.4.5-.7.8-.9.8l-.6.2c-.2.1-.3.2-.3.4s.2.3.5.3a5.81,5.81,0,0,0,1-.1h2.7l1.6.1h.6c.3,0,.5-.1.5-.3s-.2-.3-.5-.4a5.35,5.35,0,0,1-1.6-.6c-.3-.2-.4-.6-.4-1.2a7.92,7.92,0,0,1,.8-2.6l1.1-2.5a3.87,3.87,0,0,1,.8-1.4,4.23,4.23,0,0,1,1.6-.2h6.2a3.45,3.45,0,0,1,1.2.1,7.37,7.37,0,0,1,.6,1.1l.9,2.3a13.81,13.81,0,0,1,1.1,3.6,1,1,0,0,1-.9,1.2l-.5.1c-.3.1-.4.2-.4.4a.37.37,0,0,0,.4.4,1.09,1.09,0,0,0,.5-.1,19.58,19.58,0,0,1,3-.1,25.54,25.54,0,0,1,3.2.1h.7c.3,0,.5-.1.5-.3A.91.91,0,0,0,445.9,124.37Zm-10.1-10.1h-5.7c-.5,0-.8-.1-.8-.4a3.93,3.93,0,0,1,.2-.6l3.4-7.5q.15-.3.3-.3c.2,0,.3.2.4.6l.1.4,2.7,6.8.1.3a.76.76,0,0,1,.1.4C436.7,114.18,436.4,114.27,435.8,114.27Z"/><path class="a" d="M463.7,121.18a3.85,3.85,0,0,0-1.1.9,4.53,4.53,0,0,1-1.9,1.1,11.86,11.86,0,0,1-3.1.3h-5.5c-.6,0-1-.2-.9-.6,0-.2.1-.3.2-.6l.2-.3,11.2-19.4a.6.6,0,0,0,.1-.4c0-.4-.3-.7-1.1-.7H448.9q-.75,0-.9.3a7.58,7.58,0,0,0-.3,1.8,4.44,4.44,0,0,1-.2,1.3,7.39,7.39,0,0,0-.2,1.2c0,.3.1.4.3.4s.3-.2.4-.5a6.19,6.19,0,0,1,1.1-1.8,2.85,2.85,0,0,1,1.3-1,5.29,5.29,0,0,1,2-.2h5.8c.5,0,.8.1.8.3a.76.76,0,0,1-.1.4l-.1.2L447.1,124a1.69,1.69,0,0,0-.2.5c0,.3.3.5.9.5h13.1a2.51,2.51,0,0,0,1-.1c.2-.1.3-.3.5-.6l.6-1.2.5-1.1a.9.9,0,0,0,.1-.5C464,121.27,463.9,121.18,463.7,121.18Z"/><path class="a" d="M487.9,101.18a2.49,2.49,0,0,0-.8.1,8.12,8.12,0,0,1-1.7.1,29.19,29.19,0,0,1-3.2-.1h-.7c-.3,0-.5.1-.5.3a.46.46,0,0,0,.5.4,5.46,5.46,0,0,1,2.5.9,3.43,3.43,0,0,1,.9,2.1l.2,4v10.8c0,.2-.1.3-.2.3s-.2-.1-.5-.4l-15.9-18a1.38,1.38,0,0,0-.9-.5h-3.1c-.3,0-.4.1-.4.3s.2.3.5.4a3.46,3.46,0,0,1,2.7,2,10.06,10.06,0,0,1,.9,4.7v11.7a6.16,6.16,0,0,1-.5,2.7,3.07,3.07,0,0,1-2,1.3c-.3.1-.5.3-.5.4s.2.3.5.3a1.76,1.76,0,0,0,.6-.1,5.28,5.28,0,0,1,1.3-.1h.8l1.8.1a11.93,11.93,0,0,1,1.5.1h.5c.2,0,.4-.1.4-.3s-.2-.4-.6-.4a4.08,4.08,0,0,1-1.8-.6,2.67,2.67,0,0,1-.6-1.6l-.1-1.2v-12.4c0-.5.1-.8.3-.8s.2,0,.2.1l.2.2,14.5,16.6.4.4c.1.1.2.1.4.2s.4-.1.5-.4a12.31,12.31,0,0,0,.1-2.4V105a6,6,0,0,1,.3-2.3,2.15,2.15,0,0,1,1.4-.9c.2-.1.4-.2.3-.3C488.4,101.27,488.2,101.18,487.9,101.18Z"/><path class="a" d="M511.4,101.68c0-.2-.2-.3-.5-.3a3.45,3.45,0,0,0-.9.1c-.3,0-1.1.1-2.2.1a12.31,12.31,0,0,1-2.4-.1,3.45,3.45,0,0,0-.9-.1c-.3,0-.4.1-.4.3s.1.3.4.4c1.4.3,2.2.9,2.2,1.7a7.19,7.19,0,0,1-1.2,2.6l-.8,1.3-2.5,3.8-.2.3c-.1.2-.2.2-.4.2s-.2-.1-.3-.2l-.2-.3-3.6-5.7-.5-.8a3.91,3.91,0,0,1-.7-1.7c0-.6.4-.9,1.2-1.2.3-.1.4-.2.4-.4s-.2-.3-.5-.3a4.4,4.4,0,0,0-.9.1,22.94,22.94,0,0,1-3.2.1,17,17,0,0,1-2.3-.1c-.3,0-.6-.1-.9-.1s-.5.1-.5.4.2.3.5.3a4.07,4.07,0,0,1,1.8.5,3.53,3.53,0,0,1,1.4,1.3l.6.9,4.8,7.6a5.57,5.57,0,0,1,.8,1.5,5.67,5.67,0,0,1,.2,1.6v5.8a4.46,4.46,0,0,1-.4,2.4,3,3,0,0,1-1.8.8c-.4.1-.6.2-.6.4s.1.3.4.3a2.64,2.64,0,0,0,.7-.1c.3,0,.9-.1,1.7-.1H501l1.4.1c.6,0,1,.1,1.3.1a4.4,4.4,0,0,0,.9.1c.4,0,.6-.1.6-.4s-.2-.3-.5-.4c-1-.1-1.7-.3-1.9-.6a5.84,5.84,0,0,1-.3-2.5v-7.2a2.7,2.7,0,0,1,.7-1.7l.4-.6,4.2-6.2,1.1-1.7a4.58,4.58,0,0,1,2.5-1.9C511.3,102,511.4,101.77,511.4,101.68Z"/><path class="a" d="M532.6,118.57c-.2,0-.4.3-.7.9a8.21,8.21,0,0,1-3.5,3.4,10.89,10.89,0,0,1-5.1,1.4,9,9,0,0,1-7.3-3.4,13.27,13.27,0,0,1-2.8-8.8,10.37,10.37,0,0,1,2.5-7.4,9,9,0,0,1,6.9-2.7c3.7,0,6.6,1.9,8.7,5.6.3.5.5.7.6.7s.2-.1.3-.2l.1-.2-.1-.4-.6-4.1c-.1-.4-.2-.7-.4-.7a.91.91,0,0,0-.5.3.37.37,0,0,1-.3.1l-.3-.1-.3-.1-.7-.4a13.82,13.82,0,0,0-6.7-1.6,11.76,11.76,0,0,0-8.8,3.6,12.3,12.3,0,0,0-3.5,8.9,11.45,11.45,0,0,0,3.4,8.7,12.24,12.24,0,0,0,8.9,3.3,16.08,16.08,0,0,0,8.8-2.5c.5-.3.8-.6.8-.9l.1-.3.4-2.1.1-.4V119C532.9,118.68,532.8,118.57,532.6,118.57Z"/><path class="a" d="M543.9,124.27a4.29,4.29,0,0,1-1.6-.5,4.14,4.14,0,0,1-.9-1.2,10.75,10.75,0,0,1-.3-3.2v-12.9c0-2.4.4-3.8,1.3-4.1l.9-.3a.51.51,0,0,0,.4-.5c0-.2-.2-.3-.5-.3h-.4l-1.2.1c-.6,0-1.3.1-2.2.1a26.3,26.3,0,0,1-3.3-.2h-.3c-.3,0-.5.1-.5.4s.2.3.6.4c1.1.2,1.8.5,2.1,1a6.24,6.24,0,0,1,.5,2.9v14.8a6.29,6.29,0,0,1-.4,2.9,2,2,0,0,1-1.7.9c-.4.1-.5.2-.5.4a.46.46,0,0,0,.5.4,2.49,2.49,0,0,0,.8-.1l2-.1h2.5a7.67,7.67,0,0,1,1.8.1c.3,0,.5.1.7.1.4,0,.5-.1.5-.4C544.7,124.48,544.5,124.37,543.9,124.27Z"/><path class="a" d="M569.4,124.37a5.33,5.33,0,0,1-2.2-.8,6.59,6.59,0,0,1-1.3-2.6l-.4-.9-7.4-19c-.1-.3-.3-.5-.5-.5s-.4.2-.5.5l-8.9,19.7-.5,1.1a13,13,0,0,1-1,1.5c-.4.5-.7.8-.9.8l-.6.2c-.2.1-.3.2-.3.4s.2.3.5.3a5.81,5.81,0,0,0,1-.1h2.7l1.6.1h.6c.3,0,.5-.1.5-.3s-.2-.3-.5-.4a5.35,5.35,0,0,1-1.6-.6c-.3-.2-.4-.6-.4-1.2a7.92,7.92,0,0,1,.8-2.6l1.1-2.5a3.87,3.87,0,0,1,.8-1.4,4.23,4.23,0,0,1,1.6-.2h6.2a3.45,3.45,0,0,1,1.2.1,7.37,7.37,0,0,1,.6,1.1l.9,2.3a13.81,13.81,0,0,1,1.1,3.6,1,1,0,0,1-.9,1.2l-.5.1c-.3.1-.4.2-.4.4a.37.37,0,0,0,.4.4,1.09,1.09,0,0,0,.5-.1,19.58,19.58,0,0,1,3-.1,25.54,25.54,0,0,1,3.2.1h.7c.3,0,.5-.1.5-.3A1.49,1.49,0,0,0,569.4,124.37Zm-10.1-10.1h-5.7c-.5,0-.8-.1-.8-.4a3.93,3.93,0,0,1,.2-.6l3.4-7.5q.15-.3.3-.3c.2,0,.3.2.4.6l.1.4,2.7,6.8.1.3a.76.76,0,0,1,.1.4C560.1,114.18,559.8,114.27,559.3,114.27Z"/><path class="a" d="M162.3,83a11.19,11.19,0,0,0,.4,1.6,1.7,1.7,0,0,0,.6.6,10.21,10.21,0,0,0,3.2,1.2,19.86,19.86,0,0,0,4,.5,12,12,0,0,0,8.2-2.8,9.13,9.13,0,0,0,3.2-7.1c0-4.3-2.9-7.4-8.6-9.3-3-1-4.8-1.7-5.6-2a6,6,0,0,1-2.1-1.8,5.75,5.75,0,0,1-1.1-3.4,4.8,4.8,0,0,1,1.7-3.7,6,6,0,0,1,4.2-1.5,10.23,10.23,0,0,1,5.7,1.6,7.66,7.66,0,0,1,3.4,4.2c.3.7.5,1.1.8,1.1s.5-.2.5-.7a5.81,5.81,0,0,0-.1-1l-.4-2.4a23.61,23.61,0,0,1-.3-2.4c0-.8-.2-1.2-.6-1.1a.37.37,0,0,0-.3.1l-.3.3a.73.73,0,0,1-.6.2.6.6,0,0,1-.4-.1l-1.6-.7a12.52,12.52,0,0,0-11.5,1.7,7.6,7.6,0,0,0-2.8,6.2,7.09,7.09,0,0,0,2.2,5.5c1.4,1.4,3.9,2.7,7.3,3.9s5.4,2,6.1,2.6a5.49,5.49,0,0,1,2.1,4.4,5.81,5.81,0,0,1-2.2,4.6,7.93,7.93,0,0,1-5.4,1.9,10,10,0,0,1-5.9-2,8.52,8.52,0,0,1-3.5-4.9c-.2-.7-.5-1.1-.8-1.1s-.5.2-.5.7a12.71,12.71,0,0,0,.6,3C162.1,82.07,162.3,82.77,162.3,83Z"/><path class="a" d="M185.5,63.27a2.34,2.34,0,0,1,2.1.9,6.62,6.62,0,0,1,.5,3.3v15.7q0,2.1-1.2,2.4l-.7.2c-.3.1-.4.2-.4.4s.2.4.6.4a3.45,3.45,0,0,0,.9-.1,36.61,36.61,0,0,1,4.3-.2c1.4,0,3.3.1,5.4.3.6,0,1,.1,1.3.1a4.6,4.6,0,0,0,3.8-1.9,4.76,4.76,0,0,0,1.3-2.7c0-.3-.1-.5-.3-.4a.54.54,0,0,0-.4.3q-1.95,3-8.7,3a5.32,5.32,0,0,1-2.7-.4c-.4-.2-.5-.9-.5-1.8v-7a.78.78,0,0,1,.3-.7,2.68,2.68,0,0,1,1.1-.2H196a3.69,3.69,0,0,1,2.1.4,2.23,2.23,0,0,1,.8,1.6l.1.5a.37.37,0,0,0,.4.4c.2,0,.3-.1.3-.4v-.5a14.77,14.77,0,0,1-.1-2.1c0-.9.1-1.9.2-3v-.4c0-.3-.1-.5-.3-.5a.37.37,0,0,0-.4.4,3.4,3.4,0,0,1-.5,1.4,2.25,2.25,0,0,1-1.2.5,20.69,20.69,0,0,1-2.9.2h-2.7a1.44,1.44,0,0,1-.9-.2c-.1-.1-.1-.4-.1-1v-7a1.74,1.74,0,0,1,.3-1.2,2.21,2.21,0,0,1,1.4-.3h2.7a15.24,15.24,0,0,1,3.7.3,1.74,1.74,0,0,1,1.3,1,3.6,3.6,0,0,1,.2,1.1v.4c0,.4.1.5.3.5s.3-.1.4-.3a7.08,7.08,0,0,0,.2-1.2l.1-1a10.33,10.33,0,0,0,.1-1.4c0-.2.1-.3.1-.4,0-.3-.2-.5-.6-.5a2.25,2.25,0,0,0-.7.1,7.5,7.5,0,0,0-1.2.1l-2.4.1c-1.1,0-2.3.1-3.7.1a49.11,49.11,0,0,1-5.9-.3,5.74,5.74,0,0,0-1.2-.1c-.5,0-.8.2-.8.5C185,63.18,185.1,63.27,185.5,63.27Z"/><path class="a" d="M206.2,63.27a2.61,2.61,0,0,1,2.2,1.1,14.44,14.44,0,0,1,.4,4.6v10.4a16,16,0,0,1-.5,4.7,2,2,0,0,1-1.8,1.5c-.4.1-.6.2-.6.4s.1.3.4.3a4.59,4.59,0,0,0,1-.1c.3,0,.9-.1,1.5-.1h4.3c.6,0,1,.1,1.2.1.4,0,.6-.1.6-.4s-.2-.3-.5-.3a5,5,0,0,1-1.4-.3q-1.35-.3-1.5-2.4l-.1-1.4V64.77a1.33,1.33,0,0,1,.3-1,1.22,1.22,0,0,1,.9-.3,7.56,7.56,0,0,1,5,1.7,5.5,5.5,0,0,1,2,4.3,4.61,4.61,0,0,1-1.5,3.6,5.72,5.72,0,0,1-4,1.4,4.51,4.51,0,0,1-1.3-.1,1,1,0,0,1-.3-.1c-.2,0-.3.1-.3.2s.3.3.9.5a6.48,6.48,0,0,0,2,.2,8.16,8.16,0,0,0,4.4-1.4,6.33,6.33,0,0,0,2.8-5.3,5.24,5.24,0,0,0-2.2-4.5,8.9,8.9,0,0,0-5.8-1.7,12.14,12.14,0,0,0-1.8.1c-1.4.1-2.5.2-3.2.2a14,14,0,0,1-1.8-.2,3.45,3.45,0,0,0-.9-.1c-.4,0-.7.1-.7.4C205.7,63.18,205.9,63.27,206.2,63.27Z"/><path class="a" d="M223.3,67.87c.2,0,.4-.2.5-.7a4.11,4.11,0,0,1,1-2.1,2.81,2.81,0,0,1,2-.6h4.6a.8.8,0,0,1,1,1V83a3.22,3.22,0,0,1-.5,2,2.52,2.52,0,0,1-1.8.7c-.4,0-.6.2-.6.3a.46.46,0,0,0,.5.4,8.33,8.33,0,0,0,1.2-.1c.3,0,.7-.1,1.2-.1H235a6.22,6.22,0,0,1,1.6.1,3.22,3.22,0,0,0,.8.1c.3,0,.5-.1.5-.4s-.2-.3-.6-.4a2.56,2.56,0,0,1-2.3-2.4V65.77a1.85,1.85,0,0,1,.2-1,1.86,1.86,0,0,1,1-.2H241c1,0,1.6.1,1.9.4a2.39,2.39,0,0,1,.7,1.6c.1.4.2.5.4.5s.4-.2.4-.5a2.49,2.49,0,0,0-.1-.8,5.76,5.76,0,0,1-.1-1.5,2.23,2.23,0,0,0-.2-1.2,2,2,0,0,0-1.1-.2H224.3a1.55,1.55,0,0,0-.8.2,2.15,2.15,0,0,0-.2,1,8.79,8.79,0,0,1-.3,2c-.1.6-.2,1.1-.2,1.3C223,67.68,223.1,67.87,223.3,67.87Z"/><path class="a" d="M246.3,63.27c1.1.2,1.8.5,2.1,1a6.24,6.24,0,0,1,.5,2.9V82a6.29,6.29,0,0,1-.4,2.9,2,2,0,0,1-1.7.9c-.4.1-.5.2-.5.4a.46.46,0,0,0,.5.4,2.49,2.49,0,0,0,.8-.1l2-.1h2.5a7.67,7.67,0,0,1,1.8.1c.3,0,.5.1.7.1.4,0,.5-.1.5-.4s-.3-.3-.9-.4a4.29,4.29,0,0,1-1.6-.5,4.14,4.14,0,0,1-.9-1.2,10.75,10.75,0,0,1-.3-3.2V67.77c0-2.4.4-3.8,1.3-4.1l.9-.3a.51.51,0,0,0,.4-.5c0-.2-.2-.3-.5-.3h-.4l-1.2.1c-.6,0-1.3.1-2.2.1a26.3,26.3,0,0,1-3.3-.2h-.3c-.3,0-.5.1-.5.4A2.39,2.39,0,0,0,246.3,63.27Z"/><path class="a" d="M260.6,86.18l1.8.1a11.93,11.93,0,0,1,1.5.1h.5c.2,0,.4-.1.4-.3s-.2-.4-.6-.4a4.08,4.08,0,0,1-1.8-.6,2.67,2.67,0,0,1-.6-1.6l-.1-1.2V69.77c0-.5.1-.8.3-.8s.2,0,.2.1l.2.2,14.5,16.6.4.4c.1.1.2.1.4.2s.4-.1.5-.4a12.31,12.31,0,0,0,.1-2.4V66.27a6,6,0,0,1,.3-2.3,2.15,2.15,0,0,1,1.4-.9c.2-.1.4-.2.3-.3a.46.46,0,0,0-.5-.4,2.49,2.49,0,0,0-.8.1,8.12,8.12,0,0,1-1.7.1,29.19,29.19,0,0,1-3.2-.1h-.7c-.3,0-.5.1-.5.3a.46.46,0,0,0,.5.4,5.46,5.46,0,0,1,2.5.9,3.43,3.43,0,0,1,.9,2.1l.2,4V81c0,.2-.1.3-.2.3s-.2-.1-.5-.4l-15.9-18a1.38,1.38,0,0,0-.9-.5h-3.1c-.3,0-.4.1-.4.3s.2.3.5.4a3.46,3.46,0,0,1,2.7,2,10.06,10.06,0,0,1,.9,4.7v11.7a6.16,6.16,0,0,1-.5,2.7,3.07,3.07,0,0,1-2,1.3c-.3.1-.5.3-.5.4s.2.3.5.3a1.76,1.76,0,0,0,.6-.1,5.28,5.28,0,0,1,1.3-.1Z"/><path class="a" d="M290.4,64.48a.8.8,0,0,1,1,1V83a3.22,3.22,0,0,1-.5,2,2.52,2.52,0,0,1-1.8.7c-.4,0-.6.2-.6.3a.46.46,0,0,0,.5.4,8.33,8.33,0,0,0,1.2-.1c.3,0,.7-.1,1.2-.1H294a6.22,6.22,0,0,1,1.6.1,3.22,3.22,0,0,0,.8.1c.3,0,.5-.1.5-.4s-.2-.3-.6-.4a2.56,2.56,0,0,1-2.3-2.4V65.77a1.85,1.85,0,0,1,.2-1,1.86,1.86,0,0,1,1-.2H300c1,0,1.6.1,1.9.4a2.39,2.39,0,0,1,.7,1.6c.1.4.2.5.4.5s.4-.2.4-.5a2.49,2.49,0,0,0-.1-.8,5.76,5.76,0,0,1-.1-1.5,2.23,2.23,0,0,0-.2-1.2,2,2,0,0,0-1.1-.2H283.3a1.55,1.55,0,0,0-.8.2,2.15,2.15,0,0,0-.2,1,8.79,8.79,0,0,1-.3,2c-.1.6-.2,1.1-.2,1.3s.1.5.3.5.4-.2.5-.7a4.11,4.11,0,0,1,1-2.1,2.81,2.81,0,0,1,2-.6Z"/><path class="a" d="M329.4,74.18a11.23,11.23,0,0,0-3.5-8.5,12.32,12.32,0,0,0-8.8-3.3,13.23,13.23,0,0,0-5.1,1,10.48,10.48,0,0,0-6.5,6.5,13.06,13.06,0,0,0-.9,4.7,11.53,11.53,0,0,0,3.4,8.8,12.55,12.55,0,0,0,9,3.4,12.13,12.13,0,0,0,8.9-3.5A12.94,12.94,0,0,0,329.4,74.18Zm-11.8,11.5a9.32,9.32,0,0,1-7.4-3.6,13.23,13.23,0,0,1-3-8.8,10.27,10.27,0,0,1,2.4-7.2,8.09,8.09,0,0,1,6.4-2.7,10.09,10.09,0,0,1,7.8,3.4,12.13,12.13,0,0,1,3.1,8.6,11,11,0,0,1-2.6,7.4A8.85,8.85,0,0,1,317.6,85.68Z"/><path class="a" d="M332.7,83.77A5,5,0,0,0,333,85a.78.78,0,0,0,.4.4,11,11,0,0,0,2.3.9,10.6,10.6,0,0,0,2.9.4,9,9,0,0,0,6-2,6.56,6.56,0,0,0,2.3-5.3c0-3.2-2.1-5.4-6.4-6.8a33.64,33.64,0,0,1-4.1-1.5,3.74,3.74,0,0,1-1.5-1.3,4.15,4.15,0,0,1-.8-2.5,3.42,3.42,0,0,1,1.2-2.7,4.69,4.69,0,0,1,3.1-1.1,7.39,7.39,0,0,1,4.2,1.2,5.4,5.4,0,0,1,2.5,3.1c.2.6.4.8.6.8a.46.46,0,0,0,.4-.5,2.64,2.64,0,0,0-.1-.7l-.3-1.8c-.1-1-.2-1.5-.2-1.7,0-.6-.1-.9-.4-.8-.1,0-.2,0-.2.1l-.2.2a.76.76,0,0,1-.4.2.37.37,0,0,1-.3-.1l-1.2-.5a7.49,7.49,0,0,0-3.1-.5,7.57,7.57,0,0,0-5.3,1.8,5.68,5.68,0,0,0-2.1,4.5,5.42,5.42,0,0,0,1.6,4.1,16.48,16.48,0,0,0,5.4,2.9,17.69,17.69,0,0,1,4.5,1.9,4.07,4.07,0,0,1,1.5,3.2,4.25,4.25,0,0,1-1.6,3.4,6.09,6.09,0,0,1-4,1.4,6.82,6.82,0,0,1-4.3-1.5,7,7,0,0,1-2.6-3.6c-.2-.6-.4-.8-.6-.8a.46.46,0,0,0-.4.5,8.5,8.5,0,0,0,.4,2.2A8.73,8.73,0,0,1,332.7,83.77Z"/><path class="a" d="M350.3,63.27c1.1.2,1.8.5,2.1,1a6.24,6.24,0,0,1,.5,2.9V82a6.29,6.29,0,0,1-.4,2.9,2,2,0,0,1-1.7.9c-.4.1-.5.2-.5.4a.46.46,0,0,0,.5.4,2.49,2.49,0,0,0,.8-.1l2-.1h2.5a7.67,7.67,0,0,1,1.8.1c.3,0,.5.1.7.1.4,0,.5-.1.5-.4s-.3-.3-.9-.4a4.29,4.29,0,0,1-1.6-.5,4.14,4.14,0,0,1-.9-1.2,10.75,10.75,0,0,1-.3-3.2V67.77c0-2.4.4-3.8,1.3-4.1l.9-.3a.51.51,0,0,0,.4-.5c0-.2-.2-.3-.5-.3h-.4l-1.2.1c-.6,0-1.3.1-2.2.1a26.3,26.3,0,0,1-3.3-.2h-.3c-.3,0-.5.1-.5.4A4.88,4.88,0,0,0,350.3,63.27Z"/><path class="a" d="M373.9,86.68a12.13,12.13,0,0,0,8.9-3.5,12.53,12.53,0,0,0,3.5-9,11.23,11.23,0,0,0-3.5-8.5,12.32,12.32,0,0,0-8.8-3.3,13.23,13.23,0,0,0-5.1,1,10.48,10.48,0,0,0-6.5,6.5,13.06,13.06,0,0,0-.9,4.7,11.53,11.53,0,0,0,3.4,8.8A12.48,12.48,0,0,0,373.9,86.68Zm-7.4-20.6a8.09,8.09,0,0,1,6.4-2.7,10.09,10.09,0,0,1,7.8,3.4,12.13,12.13,0,0,1,3.1,8.6,11,11,0,0,1-2.6,7.4,8.49,8.49,0,0,1-6.6,2.9,9.32,9.32,0,0,1-7.4-3.6,13.23,13.23,0,0,1-3-8.8A9.93,9.93,0,0,1,366.5,66.07Z"/><path class="a" d="M401.6,84.68a6.56,6.56,0,0,0,2.3-5.3c0-3.2-2.1-5.4-6.4-6.8a33.64,33.64,0,0,1-4.1-1.5,3.74,3.74,0,0,1-1.5-1.3,4.15,4.15,0,0,1-.8-2.5,3.42,3.42,0,0,1,1.2-2.7,4.69,4.69,0,0,1,3.1-1.1,7.39,7.39,0,0,1,4.2,1.2,5.4,5.4,0,0,1,2.5,3.1c.2.6.4.8.6.8a.46.46,0,0,0,.4-.5,2.64,2.64,0,0,0-.1-.7l-.3-1.8c-.1-1-.2-1.5-.2-1.7,0-.6-.1-.9-.4-.8-.1,0-.2,0-.2.1l-.2.2a.76.76,0,0,1-.4.2.37.37,0,0,1-.3-.1l-1.2-.5a7.49,7.49,0,0,0-3.1-.5,7.57,7.57,0,0,0-5.3,1.8,5.68,5.68,0,0,0-2.1,4.5,5.42,5.42,0,0,0,1.6,4.1,16.48,16.48,0,0,0,5.4,2.9,17.69,17.69,0,0,1,4.5,1.9,4.07,4.07,0,0,1,1.5,3.2,4.25,4.25,0,0,1-1.6,3.4,6.09,6.09,0,0,1-4,1.4,6.82,6.82,0,0,1-4.3-1.5,7,7,0,0,1-2.6-3.6c-.2-.6-.4-.8-.6-.8a.46.46,0,0,0-.4.5,8.5,8.5,0,0,0,.4,2.2,10.18,10.18,0,0,1,.4,1.6,5,5,0,0,0,.3,1.2.78.78,0,0,0,.4.4,11,11,0,0,0,2.3.9,10.6,10.6,0,0,0,2.9.4A11.51,11.51,0,0,0,401.6,84.68Z"/><path class="a" d="M416.8,55.18a3.45,3.45,0,0,1,2.6,1.3,6.22,6.22,0,0,1,.8,3.5v21.1a7.93,7.93,0,0,1-.5,3.4,2.7,2.7,0,0,1-2.1,1.2c-.4.1-.7.3-.7.5,0,.4.3.6.8.5.3,0,.8-.1,1.3-.1a27.16,27.16,0,0,1,4.3-.3c1.5,0,3.4.1,5.4.2a19.71,19.71,0,0,0,2.1.1,17.42,17.42,0,0,0,9.4-2.7,14.83,14.83,0,0,0,5.3-5.8,17.26,17.26,0,0,0,1.9-8.1,15.14,15.14,0,0,0-4.4-11.2Q438.2,54,428.6,54c-1.1,0-2.1,0-3.1.1l-2.2.2c-.9.1-2.1.1-3.7.1H418l-1.8-.1c-.4,0-.6.2-.6.5A2.45,2.45,0,0,0,416.8,55.18Zm7,2.9c0-1,.2-1.6.6-1.9.7-.5,2.2-.8,4.7-.8a14.79,14.79,0,0,1,8.8,2.6,14.37,14.37,0,0,1,4.7,5.8,19.57,19.57,0,0,1,1.7,8.1q0,8.1-5.4,11.4a13.43,13.43,0,0,1-7.2,2,22.29,22.29,0,0,1-3.3-.3,18.6,18.6,0,0,1-3.2-.8,2,2,0,0,1-1.4-2V58.07Z"/><path class="a" d="M451.6,63.27c1.1.2,1.8.5,2.1,1a6.24,6.24,0,0,1,.5,2.9V82a6.29,6.29,0,0,1-.4,2.9,2,2,0,0,1-1.7.9c-.4.1-.5.2-.5.4a.46.46,0,0,0,.5.4,2.49,2.49,0,0,0,.8-.1l2-.1h2.5a7.67,7.67,0,0,1,1.8.1c.3,0,.5.1.7.1.4,0,.5-.1.5-.4s-.3-.3-.9-.4a4.29,4.29,0,0,1-1.6-.5,4.14,4.14,0,0,1-.9-1.2,10.75,10.75,0,0,1-.3-3.2V67.77c0-2.4.4-3.8,1.3-4.1l.9-.3a.51.51,0,0,0,.4-.5c0-.2-.2-.3-.5-.3h-.4l-1.2.1c-.6,0-1.3.1-2.2.1a26.3,26.3,0,0,1-3.3-.2h-.3c-.3,0-.5.1-.5.4A1.54,1.54,0,0,0,451.6,63.27Z"/><path class="a" d="M463.1,63.27a2.34,2.34,0,0,1,2.1.9,6.62,6.62,0,0,1,.5,3.3v15.7q0,2.1-1.2,2.4l-.7.2c-.3.1-.4.2-.4.4s.2.4.6.4a3.45,3.45,0,0,0,.9-.1,36.61,36.61,0,0,1,4.3-.2c1.4,0,3.3.1,5.4.3.6,0,1,.1,1.3.1a4.6,4.6,0,0,0,3.8-1.9,4.76,4.76,0,0,0,1.3-2.7c0-.3-.1-.5-.3-.4a.54.54,0,0,0-.4.3q-1.95,3-8.7,3a5.32,5.32,0,0,1-2.7-.4c-.4-.2-.5-.9-.5-1.8v-7a.78.78,0,0,1,.3-.7,2.68,2.68,0,0,1,1.1-.2h3.8a3.69,3.69,0,0,1,2.1.4,2.23,2.23,0,0,1,.8,1.6l.1.5a.37.37,0,0,0,.4.4c.2,0,.3-.1.3-.4v-.5a14.77,14.77,0,0,1-.1-2.1c0-.9.1-1.9.2-3v-.4c0-.3-.1-.5-.3-.5a.37.37,0,0,0-.4.4,3.4,3.4,0,0,1-.5,1.4,2.25,2.25,0,0,1-1.2.5,20.69,20.69,0,0,1-2.9.2h-2.7a1.44,1.44,0,0,1-.9-.2c-.1-.1-.1-.4-.1-1v-7a1.74,1.74,0,0,1,.3-1.2,2.21,2.21,0,0,1,1.4-.3h2.7a15.24,15.24,0,0,1,3.7.3,1.74,1.74,0,0,1,1.3,1,3.6,3.6,0,0,1,.2,1.1v.4c0,.4.1.5.3.5s.3-.1.4-.3a7.08,7.08,0,0,0,.2-1.2l.1-1a10.33,10.33,0,0,0,.1-1.4c0-.2.1-.3.1-.4,0-.3-.2-.5-.6-.5a2.25,2.25,0,0,0-.7.1,7.5,7.5,0,0,0-1.2.1l-2.4.1c-1.1,0-2.3.1-3.7.1a49.11,49.11,0,0,1-5.9-.3,5.74,5.74,0,0,0-1.2-.1c-.5,0-.8.2-.8.5C462.6,63.18,462.7,63.27,463.1,63.27Z"/><path class="a" d="M482.5,63.27a3.46,3.46,0,0,1,2.7,2,10.06,10.06,0,0,1,.9,4.7v11.7a6.16,6.16,0,0,1-.5,2.7,3.07,3.07,0,0,1-2,1.3c-.3.1-.5.3-.5.4s.2.3.5.3a1.76,1.76,0,0,0,.6-.1,5.28,5.28,0,0,1,1.3-.1h.8l1.8.1a11.93,11.93,0,0,1,1.5.1h.5c.2,0,.4-.1.4-.3s-.2-.4-.6-.4a4.08,4.08,0,0,1-1.8-.6,2.67,2.67,0,0,1-.6-1.6l-.1-1.2V69.77c0-.5.1-.8.3-.8s.2,0,.2.1l.2.2,14.5,16.6.4.4c.1.1.2.1.4.2s.4-.1.5-.4a12.31,12.31,0,0,0,.1-2.4V66.27a6,6,0,0,1,.3-2.3,2.15,2.15,0,0,1,1.4-.9c.2-.1.4-.2.3-.3a.46.46,0,0,0-.5-.4,2.49,2.49,0,0,0-.8.1,8.12,8.12,0,0,1-1.7.1,29.19,29.19,0,0,1-3.2-.1h-.7c-.3,0-.5.1-.5.3a.46.46,0,0,0,.5.4,5.46,5.46,0,0,1,2.5.9,3.43,3.43,0,0,1,.9,2.1l.2,4V81c0,.2-.1.3-.2.3s-.2-.1-.5-.4l-15.9-18a1.38,1.38,0,0,0-.9-.5h-3.1c-.3,0-.4.1-.4.3C482.1,63.07,482.2,63.18,482.5,63.27Z"/><path class="a" d="M521.9,62.27a13.23,13.23,0,0,0-5.1,1,10.48,10.48,0,0,0-6.5,6.5,13.06,13.06,0,0,0-.9,4.7,11.53,11.53,0,0,0,3.4,8.8,12.55,12.55,0,0,0,9,3.4,12.13,12.13,0,0,0,8.9-3.5,12.53,12.53,0,0,0,3.5-9,11.23,11.23,0,0,0-3.5-8.5A11.68,11.68,0,0,0,521.9,62.27Zm7.2,20.5a8.49,8.49,0,0,1-6.6,2.9,9.32,9.32,0,0,1-7.4-3.6,13.23,13.23,0,0,1-3-8.8,10.27,10.27,0,0,1,2.4-7.2,8.09,8.09,0,0,1,6.4-2.7,10.09,10.09,0,0,1,7.8,3.4,12.13,12.13,0,0,1,3.1,8.6A10.83,10.83,0,0,1,529.1,82.77Z"/><path class="a" d="M537.6,83.77a5,5,0,0,0,.3,1.2.78.78,0,0,0,.4.4,11,11,0,0,0,2.3.9,10.6,10.6,0,0,0,2.9.4,9,9,0,0,0,6-2,6.56,6.56,0,0,0,2.3-5.3c0-3.2-2.1-5.4-6.4-6.8a33.64,33.64,0,0,1-4.1-1.5,3.74,3.74,0,0,1-1.5-1.3,4.15,4.15,0,0,1-.8-2.5,3.42,3.42,0,0,1,1.2-2.7,4.69,4.69,0,0,1,3.1-1.1,7.39,7.39,0,0,1,4.2,1.2,5.4,5.4,0,0,1,2.5,3.1c.2.6.4.8.6.8a.46.46,0,0,0,.4-.5,2.64,2.64,0,0,0-.1-.7l-.3-1.8c-.1-1-.2-1.5-.2-1.7,0-.6-.1-.9-.4-.8-.1,0-.2,0-.2.1l-.2.2a.76.76,0,0,1-.4.2.37.37,0,0,1-.3-.1l-1.2-.5a7.49,7.49,0,0,0-3.1-.5,7.57,7.57,0,0,0-5.3,1.8,5.68,5.68,0,0,0-2.1,4.5,5.42,5.42,0,0,0,1.6,4.1,16.48,16.48,0,0,0,5.4,2.9,17.69,17.69,0,0,1,4.5,1.9,4.07,4.07,0,0,1,1.5,3.2,4.25,4.25,0,0,1-1.6,3.4,6.09,6.09,0,0,1-4,1.4,6.82,6.82,0,0,1-4.3-1.5,7,7,0,0,1-2.6-3.6c-.2-.6-.4-.8-.6-.8a.46.46,0,0,0-.4.5,8.5,8.5,0,0,0,.4,2.2A8.73,8.73,0,0,1,537.6,83.77Z"/><path class="a" d="M458.5,94.37c-.2,0-.5.3-.8.8-.9,1.4-1.5,2-1.7,2s-.2-.1-.3-.3l-.5-.5-.7-.8-.6-.6-.4-.4a.91.91,0,0,0-.5-.3,1.09,1.09,0,0,0-.5.1l-.8.3c-.3.1-.5.3-.5.5a5.18,5.18,0,0,0,.9,1.2l1.6,1.7a5.06,5.06,0,0,0,.9.8,2,2,0,0,0,.9.2,1.88,1.88,0,0,0,.8-.2,3,3,0,0,0,.7-.8l1.5-1.9.6-.7c.1-.2.2-.3.2-.5a.54.54,0,0,0-.3-.4A.76.76,0,0,0,458.5,94.37Z"/><path class="a" d="M522,99a2,2,0,0,0,.9.2,1.88,1.88,0,0,0,.8-.2,5.72,5.72,0,0,0,.8-.8l1.5-1.9.6-.7c.1-.2.2-.3.2-.5a.54.54,0,0,0-.3-.4,1.42,1.42,0,0,0-.6-.2c-.2,0-.5.3-.8.8-.9,1.4-1.5,2-1.7,2s-.2-.1-.3-.3l-.5-.5-.7-.8-.6-.6-.4-.4a.91.91,0,0,0-.5-.3,1.09,1.09,0,0,0-.5.1l-.8.3c-.3.1-.5.3-.5.5a5.18,5.18,0,0,0,.9,1.2l1.6,1.7A2.75,2.75,0,0,0,522,99Z"/><path class="a" d="M135.9,110.87a3.55,3.55,0,0,0-2.9,1.4,3.92,3.92,0,0,0,0,5,3.78,3.78,0,0,0,5.6.3,3.62,3.62,0,0,0,1.1-2.7,3.69,3.69,0,0,0-1.1-2.7A3,3,0,0,0,135.9,110.87Zm2.4,6.3a3.25,3.25,0,0,1-2.4,1,3.1,3.1,0,0,1-2.4-1,3.25,3.25,0,0,1-1-2.4,3.1,3.1,0,0,1,1-2.4,3.25,3.25,0,0,1,2.4-1,3,3,0,0,1,2.4,1,3.25,3.25,0,0,1,1,2.4A2.91,2.91,0,0,1,138.3,117.18Z"/><path class="a" d="M138.1,116.68a1,1,0,0,1-.7-.6l-.1-.2-.9-1.3c.5-.3.8-.6.8-1.1,0-.8-.5-1.1-1.5-1.1h-1.5c-.1,0-.2,0-.2.1s0,.1.1.1h.2c.2,0,.3.2.3.5v2.6c0,.4,0,.6-.1.7s-.2.2-.3.2a.1.1,0,0,0-.1.1c0,.1,0,.1.1.1h1.6c.1,0,.2,0,.2-.1s-.1-.1-.2-.1a.76.76,0,0,1-.5-.2c-.1-.1-.1-.2-.1-.5v-1.2h.4c.1,0,.2,0,.2.1v.1l.8,1.2c.3.5.6.7,1,.7s.5-.1.5-.2,0-.1-.1-.1Zm-2.4-2.1h-.6V113c0-.2.1-.2.3-.2a1.14,1.14,0,0,1,.8.3.91.91,0,0,1,.3.7C136.6,114.27,136.3,114.57,135.7,114.57Z"/><path class="a" d="M390.1,103.07a1,1,0,0,1-.7-.6l-.1-.2-.9-1.3c.5-.3.8-.6.8-1.1,0-.8-.5-1.1-1.5-1.1h-1.5c-.1,0-.2,0-.2.1s0,.1.1.1h.2c.2,0,.3.2.3.5v2.6c0,.4,0,.6-.1.7s-.2.2-.3.2a.1.1,0,0,0-.1.1c0,.1,0,.1.1.1h1.6c.1,0,.2,0,.2-.1s-.1-.1-.2-.1a.76.76,0,0,1-.5-.2c-.1-.1-.1-.2-.1-.5v-1.2h.4c.1,0,.2,0,.2.1v.1l.8,1.2c.3.5.6.7,1,.7s.5-.1.5-.2,0-.1-.1-.1Zm-2.3-2.1h-.6v-1.6c0-.2.1-.2.3-.2a1.14,1.14,0,0,1,.8.3.91.91,0,0,1,.3.7A.74.74,0,0,1,387.8,101Z"/><path class="a" d="M387.9,97.27a3.56,3.56,0,0,0-2.9,1.4,3.92,3.92,0,0,0,0,5,3.78,3.78,0,0,0,5.6.3,3.62,3.62,0,0,0,1.1-2.7,3.69,3.69,0,0,0-1.1-2.7A3,3,0,0,0,387.9,97.27Zm2.5,6.3a3.25,3.25,0,0,1-2.4,1,3.1,3.1,0,0,1-2.4-1,3.25,3.25,0,0,1-1-2.4,3.1,3.1,0,0,1,1-2.4,3.25,3.25,0,0,1,2.4-1,3,3,0,0,1,2.4,1,3.25,3.25,0,0,1,1,2.4A3.69,3.69,0,0,1,390.4,103.57Z"/></svg>