<svg xmlns="http://www.w3.org/2000/svg" viewBox="0 0 714.62 155.98"><defs><style>.a{fill:#fff;}</style></defs><title>Asset 1</title><path class="a" d="M71.3,136.07v-6.8H81v-.6c0-6.8-3.1-11.8-24.8-8.1L20.5,127,0,155.48l49.3-8.7c14.8-2.5,27.7-3.1,31.8,8.7v-19.2H71.3Z"/><path class="a" d="M87.7,155.27c0-9.3,5.5-15.7,16.7-26.9l7.9-7.9,36.1,6.4,20.6,28.5-47.3-8.2C105.6,144.07,92,143,87.7,155.27Z"/><path class="a" d="M89.7,129.18c3.6-7.7,11.2-14.6,15.6-19l3.1-3.2c13.3-13.3,15.8-18.7,16.6-27.9,0-.5.7,1.8.9,3.4a29.72,29.72,0,0,1-1.5,14.7c-2.7,8-9.2,14.5-17.6,22.9l-9.1,9.1Z"/><path class="a" d="M97.4,18.07c0-.1.2-.1.2,0v10.6c0,9.6-12.3,20.6-17.2,25.4l-18,18c-6.2,6.2-18.7,18.5-13.4,30.4.2.4.3.7-.3.3-1.3-.9-3.3-4.3-3.9-10.3-1-10.8,6.4-20.5,15.5-29.6l17.2-17.2C94.9,28.27,96.6,25.18,97.4,18.07Z"/><path class="a" d="M80.5,72.18c4.9-4.9,17.2-15.9,17.2-25.4V36.18c0-.1-.2-.1-.2,0-.8,7.1-2.5,10.2-20,27.6l-15.9,16c-5.8,5.8-11.1,11.9-10.9,21.7.2,6,3.2,11,7.7,12.2,1.9.4,1.8.2,1.3,0-6.4-3-6-14.6,4.4-25Z"/><path class="a" d="M60.4,56.18c-13.3,13.3-15.8,18.7-16.6,27.9,0,.5-.7-1.8-.9-3.4A29.72,29.72,0,0,1,44.4,66c2.7-8,9.2-14.5,17.6-22.9l15.4-15.4c17.4-17.4,19.1-20.5,20-27.6,0-.1.2-.1.2,0v10.6c0,9.6-12.3,20.6-17.2,25.4Z"/><path class="a" d="M87.9,146.57c0,.1-.2.1-.2,0v-10.5h4.4A23.25,23.25,0,0,0,87.9,146.57Z"/><path class="a" d="M88,129.18c0,.1-.2.1-.2,0v-10.7c0-8,7.9-16.7,15.7-24.5l5.1-5.1c4.1-4.1,16.6-16.4,11.3-28.2-.2-.4-.3-.7.3-.3,1.3.9,3.3,4.3,3.9,10.3,1,10.8-6.4,20.5-15.5,29.6l-4.7,4.7C92.6,116.37,88.8,121.48,88,129.18Z"/><path class="a" d="M88,110.68c0,.1-.2.1-.2,0V99.77c0-7.7,7.6-15.9,11.3-19.6l5.7-5.7c10.4-10.4,10.8-22,4.4-25-.4-.2-.6-.4,1.3,0,4.5,1.2,7.6,6.2,7.7,12.2.2,9.8-5,15.8-10.8,21.6l-4.6,4.6C93.1,97.57,88.8,103.27,88,110.68Z"/><path class="a" d="M209.4,85.48h17.1a4.23,4.23,0,0,0,1.6-.2,1.44,1.44,0,0,0,.3-1.1v-9.9a9.08,9.08,0,0,0-.8-4.3,4.37,4.37,0,0,0-2.8-1.7c-.6-.1-.9-.3-.8-.7s.3-.5.7-.5a17.23,17.23,0,0,1,2,.1c1.3.1,2.6.2,4.1.2a40.18,40.18,0,0,0,4.4-.2,5.39,5.39,0,0,1,1.1-.1c.5,0,.7.2.7.6s-.2.5-.7.6l-1.2.3a2.09,2.09,0,0,0-1.5,1.3,5.26,5.26,0,0,0-.6,2.6v28.1c0,2.1.3,3.5.9,4.3a4.66,4.66,0,0,0,3.3,1.5q.9.15.9.6c0,.5-.2.7-.8.7a8.64,8.64,0,0,1-1.5-.1,19.53,19.53,0,0,0-2.9-.1h-2.2l-2.2.1a8.17,8.17,0,0,0-1.4.1c-1.2.1-1.9.1-2,.1-.5,0-.7-.2-.7-.6s.3-.6,1-.7c2-.3,3-2,3-5V89.67c0-.9-.1-1.4-.3-1.6s-.8-.2-1.7-.2H209.3a4.54,4.54,0,0,0-2.1.3c-.3.2-.4.8-.4,1.7v10.7c0,2,.3,3.4,1,4.2s1.8,1.3,3.6,1.5c.7.1,1.1.3,1.1.7s-.3.6-.8.6a8.8,8.8,0,0,1-1.4-.1,27.55,27.55,0,0,0-3.5-.1h-2.4l-1.9.1a12.14,12.14,0,0,0-1.8.1,17.36,17.36,0,0,1-1.8.1c-.5,0-.7-.2-.7-.5s.3-.6.8-.7l1.5-.3a2.25,2.25,0,0,0,1.7-1.9,23.92,23.92,0,0,0,.5-5.7v-25a5.46,5.46,0,0,0-1-3.7,4.93,4.93,0,0,0-3.4-1.5c-.6-.1-.8-.3-.8-.6s.3-.6.8-.6.9.1,1.7.2a41.06,41.06,0,0,0,5.3.3c1.4,0,2.7-.1,3.9-.2a5.74,5.74,0,0,1,1.2-.1c.6,0,.8.2.8.6s-.3.5-.8.7a4.23,4.23,0,0,0-2.6,1.4,5.64,5.64,0,0,0-.7,3.1v10.4a3.77,3.77,0,0,0,.3,2C207.5,85.37,208.2,85.48,209.4,85.48Z"/><path class="a" d="M257.1,92.48l5.9,8.7.7,1q2.7,4.05,5.1,4.2h.7c.3,0,.4.1.4.3s-.3.4-1,.6a6.65,6.65,0,0,1-2.1.3,6.3,6.3,0,0,1-3.5-1.1,12.18,12.18,0,0,1-3.1-3.5l-5.3-8.1-.3-.5a1.75,1.75,0,0,0-1.7-.9H250l-.5.1c-.2.1-.3.3-.3.7v7.6a12.14,12.14,0,0,0,.2,2.5,1.78,1.78,0,0,0,.9,1.2,5.23,5.23,0,0,0,2.9.9c.5.1.8.2.8.5s-.2.4-.7.4a8.47,8.47,0,0,1-1.3-.1,19.41,19.41,0,0,0-2.7-.1h-3.2a12.14,12.14,0,0,0-1.8.1,6.25,6.25,0,0,1-1.2.1c-.4,0-.5-.1-.5-.4s.2-.3.5-.4a2.57,2.57,0,0,0,2.2-1.6c.4-.8.5-2.4.5-4.9V82.57c0-2.2-.8-3.5-2.3-3.7l-1-.2c-.5-.1-.7-.3-.7-.5s.2-.4.7-.4a13.59,13.59,0,0,1,1.5.1c.5,0,1.2.1,1.9.1s1.8,0,3.4-.1c1.1-.1,2.1-.1,3-.1,3.3,0,5.8.6,7.4,1.9a6.32,6.32,0,0,1,2.5,5.5C262.4,88.27,260.7,90.68,257.1,92.48Zm-6.3-.5h2.4a6,6,0,0,0,4.4-1.5,5.36,5.36,0,0,0,1.6-4.2,6.39,6.39,0,0,0-2.2-5.1,8.16,8.16,0,0,0-5.6-2,2.5,2.5,0,0,0-1.7.4,2.07,2.07,0,0,0-.5,1.5v9.4a1.88,1.88,0,0,0,.3,1.3A3.92,3.92,0,0,0,250.8,92Z"/><path class="a" d="M278.1,84.18v16.1a12,12,0,0,0,.4,4,3,3,0,0,0,1.1,1.5,4.3,4.3,0,0,0,2,.6c.7.1,1.1.3,1.1.5s-.2.5-.7.5a2.49,2.49,0,0,1-.8-.1,12.89,12.89,0,0,0-2.3-.1h-3.1l-2.5.1c-.4,0-.8.1-1,.1-.4,0-.6-.1-.6-.4s.2-.4.7-.5a3,3,0,0,0,2.1-1.1,9.09,9.09,0,0,0,.5-3.6V83.37a7.23,7.23,0,0,0-.6-3.6,3.73,3.73,0,0,0-2.6-1.2c-.4-.1-.7-.3-.7-.5s.2-.5.6-.5h.4a41.9,41.9,0,0,0,4.2.2,21,21,0,0,0,2.7-.1l1.4-.1h.5c.4,0,.6.1.6.4s-.2.4-.6.6l-1.1.4C278.6,79.37,278.1,81.18,278.1,84.18Z"/><path class="a" d="M294.8,77.37a9.37,9.37,0,0,1,3.9.7l1.5.6a.6.6,0,0,0,.4.1c.2,0,.3-.1.5-.2l.3-.3c0-.1.1-.1.2-.1.4,0,.5.3.5,1.1,0,.2.1,1,.3,2.2l.3,2.2a4.4,4.4,0,0,1,.1.9c0,.4-.2.7-.5.7s-.5-.3-.7-1a7.54,7.54,0,0,0-3.1-3.8,9.64,9.64,0,0,0-5.3-1.5,6,6,0,0,0-3.9,1.4,4.33,4.33,0,0,0-1.5,3.4,4.8,4.8,0,0,0,1,3.1,5.61,5.61,0,0,0,1.9,1.6c.7.3,2.4,1,5.1,1.9,5.3,1.7,7.9,4.6,7.9,8.5a8.49,8.49,0,0,1-2.9,6.6,10.8,10.8,0,0,1-7.5,2.5,16.34,16.34,0,0,1-3.6-.5,9.24,9.24,0,0,1-2.9-1.1,2.25,2.25,0,0,1-.5-.5,12.69,12.69,0,0,1-.4-1.5c0-.1-.2-.8-.5-2a11.15,11.15,0,0,1-.6-2.7c0-.4.1-.6.4-.6s.5.4.7,1.1a8.4,8.4,0,0,0,3.2,4.5,9,9,0,0,0,5.4,1.8,7.75,7.75,0,0,0,5-1.7,5.29,5.29,0,0,0,2-4.2,5,5,0,0,0-1.9-4c-.6-.6-2.5-1.4-5.6-2.4s-5.4-2.3-6.7-3.6a6.93,6.93,0,0,1-2-5.1,7.32,7.32,0,0,1,2.6-5.7A10,10,0,0,1,294.8,77.37Zm-3-8c.2,0,.4.1.7.4l.5.5.7.8.9,1,.6.6c.2.2.3.3.4.3s.9-.8,2.1-2.5c.4-.6.8-.9,1-.9a1.08,1.08,0,0,1,.7.3c.3.2.4.3.4.5a.86.86,0,0,1-.3.6l-.7.9-1.9,2.4a11.15,11.15,0,0,1-.9,1c-.2.2-.5.2-1,.2a3.09,3.09,0,0,1-1.1-.2c-.3-.1-.6-.5-1.1-1l-2-2.2q-1.2-1.2-1.2-1.5t.6-.6l1-.4A.85.85,0,0,1,291.8,69.37Z"/><path class="a" d="M334.1,80.37l.7,5.1.1.5-.1.2c-.1.1-.2.2-.3.2s-.4-.3-.8-.9c-2.7-4.7-6.3-7-10.9-7a11.08,11.08,0,0,0-8.6,3.4c-2.1,2.2-3.2,5.3-3.2,9.2a16.58,16.58,0,0,0,3.5,10.9,11.09,11.09,0,0,0,9,4.2,13.24,13.24,0,0,0,6.3-1.7,9.22,9.22,0,0,0,4.3-4.2c.4-.8.7-1.1.9-1.2s.3.1.3.4v.2l-.1.5-.5,2.6-.1.4a2.14,2.14,0,0,1-1,1.2,19.86,19.86,0,0,1-10.9,3.2,15.35,15.35,0,0,1-11.1-4.1q-4.2-4.05-4.2-10.8a15,15,0,0,1,15.4-15.5,17.85,17.85,0,0,1,8.3,2l.9.4.3.2.4.1c.1,0,.2-.1.3-.2a1.55,1.55,0,0,1,.6-.3A1.86,1.86,0,0,1,334.1,80.37Z"/><path class="a" d="M354.3,96h-7.8a4,4,0,0,0-2,.3,3.81,3.81,0,0,0-1,1.7l-1.4,3.2a10,10,0,0,0-1,3.2,2.07,2.07,0,0,0,.5,1.5,4.26,4.26,0,0,0,2,.8c.4.1.7.3.7.5s-.2.4-.6.4H343l-2.1-.1h-3.4a8.33,8.33,0,0,1-1.2.1c-.4,0-.6-.1-.6-.4a.51.51,0,0,1,.4-.5l.8-.2a3.07,3.07,0,0,0,1.2-1,7.61,7.61,0,0,0,1.2-1.9l.6-1.4,11-24.5q.3-.6.6-.6t.6.6l9.2,23.6.5,1.2a9.53,9.53,0,0,0,1.7,3.2,5,5,0,0,0,2.7,1c.4.1.7.3.6.5s-.2.4-.6.4h-.8a39,39,0,0,0-4-.1,29.55,29.55,0,0,0-3.7.1,2,2,0,0,1-.7.1c-.4,0-.6-.1-.6-.4a.46.46,0,0,1,.5-.4l.7-.1c.7-.1,1.1-.6,1.1-1.5a14.46,14.46,0,0,0-1.3-4.5L356.3,98a4.25,4.25,0,0,0-.7-1.4C355.6,96.07,355.1,96,354.3,96Zm.3-3.5L351.2,84l-.2-.4c-.2-.5-.4-.7-.6-.7s-.2.1-.3.4l-4.2,9.3a2.71,2.71,0,0,0-.3.8c0,.4.3.6,1,.6h7.1c.7,0,1.1-.2,1.1-.5a1.09,1.09,0,0,0-.1-.5Z"/><path class="a" d="M393.8,86.07v18a17.25,17.25,0,0,1-.1,2.9.63.63,0,0,1-.6.5.76.76,0,0,1-.5-.2l-.5-.6L374,86l-.2-.2a.37.37,0,0,0-.3-.1c-.3,0-.4.3-.4,1v15.4l.1,1.5a3.37,3.37,0,0,0,.7,2,4.27,4.27,0,0,0,2.3.8c.5.1.7.2.7.5s-.2.4-.5.4h-.6c-.2,0-.8-.1-1.9-.1l-2.2-.1h-1a8.08,8.08,0,0,0-1.6.1,2.82,2.82,0,0,1-.8.1c-.4,0-.6-.1-.6-.4s.2-.4.6-.5a4.15,4.15,0,0,0,2.4-1.7,7.1,7.1,0,0,0,.6-3.4V86.77a11.66,11.66,0,0,0-1.2-5.8,4.43,4.43,0,0,0-3.4-2.4c-.4-.1-.6-.2-.6-.5s.2-.4.5-.4h3.7a1.54,1.54,0,0,1,1.1.6l19.7,22.3c.3.4.5.5.6.5s.2-.2.2-.4V87.17l-.3-4.9a3.71,3.71,0,0,0-1.1-2.6,6.11,6.11,0,0,0-3.1-1.1c-.4-.1-.6-.2-.6-.5s.2-.4.6-.4a3.45,3.45,0,0,1,.9.1,39,39,0,0,0,4,.2,12.17,12.17,0,0,0,2.1-.1,4.91,4.91,0,0,1,1.1-.1c.4,0,.6.1.6.4s-.1.3-.4.4a2.44,2.44,0,0,0-1.7,1.1,6.06,6.06,0,0,0-.4,2.8v2.3Z"/><path class="a" d="M409.7,77.37a9.37,9.37,0,0,1,3.9.7l1.5.6a.6.6,0,0,0,.4.1c.2,0,.3-.1.5-.2l.3-.3c0-.1.1-.1.2-.1.4,0,.5.3.5,1.1,0,.2.1,1,.3,2.2l.3,2.2a4.4,4.4,0,0,1,.1.9c0,.4-.2.7-.5.7s-.5-.3-.7-1a7.54,7.54,0,0,0-3.1-3.8,9.64,9.64,0,0,0-5.3-1.5,6,6,0,0,0-3.9,1.4,4.33,4.33,0,0,0-1.5,3.4,4.8,4.8,0,0,0,1,3.1,5.61,5.61,0,0,0,1.9,1.6c.7.3,2.4,1,5.1,1.9,5.3,1.7,7.9,4.6,7.9,8.5a8.49,8.49,0,0,1-2.9,6.6,10.8,10.8,0,0,1-7.5,2.5,16.34,16.34,0,0,1-3.6-.5,9.24,9.24,0,0,1-2.9-1.1,2.25,2.25,0,0,1-.5-.5,12.69,12.69,0,0,1-.4-1.5c0-.1-.2-.8-.5-2a11.15,11.15,0,0,1-.6-2.7c0-.4.1-.6.4-.6s.5.4.7,1.1a8.4,8.4,0,0,0,3.2,4.5,9,9,0,0,0,5.4,1.8,7.75,7.75,0,0,0,5-1.7,5.29,5.29,0,0,0,2-4.2,5,5,0,0,0-1.9-4c-.6-.6-2.5-1.4-5.6-2.4s-5.4-2.3-6.7-3.6a6.93,6.93,0,0,1-2-5.1,7.32,7.32,0,0,1,2.6-5.7A10,10,0,0,1,409.7,77.37Z"/><path class="a" d="M429.3,94.27v7.8a5.38,5.38,0,0,0,.7,3.3,5.7,5.7,0,0,0,3,1.2c.4.1.6.2.6.5s-.2.4-.5.4a6.82,6.82,0,0,1-1.2-.1c-.5,0-1.3-.1-2.6-.1h-4.4a10.3,10.3,0,0,1-1.3.1c-.5,0-.7-.2-.7-.5s.2-.4.6-.4a2.22,2.22,0,0,0,1.9-1.3,9.08,9.08,0,0,0,.5-3.8V83.08a7.81,7.81,0,0,0-.5-3.2,2.66,2.66,0,0,0-1.9-1.2l-1-.2c-.4-.1-.6-.2-.6-.4s.2-.4.6-.4a2.49,2.49,0,0,1,.8.1,30.3,30.3,0,0,0,3.4.1h3.5a5.81,5.81,0,0,1,1-.1c.3,0,.5.1.5.4s-.2.4-.5.5c-.9.4-1.5.8-1.7,1.3a8.53,8.53,0,0,0-.4,2.9v8.4c0,.3.1.5.2.5l.3-.2.3-.3,9.2-8.2q2.1-1.95,2.1-3c0-.7-.5-1.1-1.5-1.3-.7-.1-1-.3-1-.5s.2-.4.7-.4h.6c.6,0,1.3.1,2,.1h3.6a7.67,7.67,0,0,0,1.8-.1,5.64,5.64,0,0,0,.7-.1c.4,0,.6.1.6.4s-.3.4-1,.6c-1.3.3-3.8,2.1-7.4,5.4l-7.3,6.6c-.3.3-.5.5-.5.7a2.06,2.06,0,0,0,.5.9l11.2,11.7a7.94,7.94,0,0,0,3.9,2.3l.9.2c.3.1.5.2.5.4s-.2.5-.7.5h-.5c-.3,0-.9-.1-1.8-.1h-2.9a1.76,1.76,0,0,1-1.3-.6l-.4-.4-11.5-11.9L430,94a.55.55,0,0,0-.5-.2C429.5,93.87,429.3,94,429.3,94.27Z"/><path class="a" d="M466.7,96h-7.8a4,4,0,0,0-2,.3,3.81,3.81,0,0,0-1,1.7l-1.4,3.2a10,10,0,0,0-1,3.2,2.07,2.07,0,0,0,.5,1.5,4.26,4.26,0,0,0,2,.8c.4.1.7.3.7.5s-.2.4-.6.4h-.7l-2.1-.1h-3.4a8.33,8.33,0,0,1-1.2.1c-.4,0-.6-.1-.6-.4a.51.51,0,0,1,.4-.5l.8-.2a3.07,3.07,0,0,0,1.2-1,7.61,7.61,0,0,0,1.2-1.9l.6-1.4,11-24.5q.3-.6.6-.6t.6.6l9.2,23.6.5,1.2a9.53,9.53,0,0,0,1.7,3.2,5,5,0,0,0,2.7,1c.4.1.7.3.6.5s-.2.4-.6.4h-.8a39,39,0,0,0-4-.1,29.55,29.55,0,0,0-3.7.1,2,2,0,0,1-.7.1c-.4,0-.6-.1-.6-.4a.46.46,0,0,1,.5-.4l.7-.1c.7-.1,1.1-.6,1.1-1.5a14.46,14.46,0,0,0-1.3-4.5L468.7,98a4.25,4.25,0,0,0-.7-1.4C467.9,96.07,467.5,96,466.7,96Zm.2-3.5L463.5,84l-.2-.4c-.2-.5-.4-.7-.6-.7s-.2.1-.3.4l-4.2,9.3a2.71,2.71,0,0,0-.3.8c0,.4.3.6,1,.6H466c.7,0,1.1-.2,1.1-.5a1.09,1.09,0,0,0-.1-.5Z"/><path class="a" d="M220.2,139.48H209.7a7.45,7.45,0,0,0-2.7.3,7,7,0,0,0-1.4,2.3l-1.9,4.3a11.74,11.74,0,0,0-1.3,4.4,2.44,2.44,0,0,0,.7,2,5.84,5.84,0,0,0,2.7,1c.6.1.9.3.9.7s-.3.5-.8.5h-1l-2.8-.2c-.9,0-2-.1-3.2-.1h-1.3c-1,.1-1.5.2-1.6.2-.5,0-.8-.2-.8-.5a.63.63,0,0,1,.5-.6l1.1-.3c.4-.1.9-.6,1.6-1.4a10.14,10.14,0,0,0,1.6-2.6l.8-1.9,14.9-33.2c.3-.6.5-.9.8-.9s.6.3.8.8l12.5,32,.6,1.6a14.89,14.89,0,0,0,2.3,4.4c.6.6,1.8,1,3.7,1.4.6.1.9.3.9.7s-.3.5-.8.5a5.94,5.94,0,0,1-1.1-.1c-1-.1-2.8-.1-5.4-.1a44.55,44.55,0,0,0-5.1.2,3.45,3.45,0,0,1-.9.1c-.5,0-.8-.2-.8-.6s.2-.5.7-.6l.9-.2a1.8,1.8,0,0,0,1.5-2,21.54,21.54,0,0,0-1.8-6.1l-1.5-3.8c-.4-1.1-.7-1.7-1-1.8C221.9,139.57,221.3,139.48,220.2,139.48Zm.4-4.6-4.6-11.5-.2-.6a1.43,1.43,0,0,0-.8-1c-.1,0-.3.2-.5.6L208.8,135a2.43,2.43,0,0,0-.4,1.1c0,.5.4.8,1.3.8h9.6c1,0,1.5-.2,1.5-.7a2.25,2.25,0,0,0-.1-.7Z"/><path class="a" d="M241.6,130.48a5.63,5.63,0,0,0-.7-3.2,3.12,3.12,0,0,0-2.4-1.2c-.5,0-.7-.2-.7-.4s.2-.4.6-.4l1.7.1h1.5a32.26,32.26,0,0,0,3.4-.1l2-.2a25.29,25.29,0,0,1,2.8-.1c5.9,0,10.3,1.5,13.2,4.4a13.86,13.86,0,0,1,4,10.3,15.29,15.29,0,0,1-1.8,7.4,13.21,13.21,0,0,1-4.9,5.3,16.27,16.27,0,0,1-8.6,2.5,18.16,18.16,0,0,1-2-.1c-1.9-.1-3.6-.2-5-.2s-2.9.1-4,.2a5.74,5.74,0,0,1-1.2.1c-.5,0-.8-.1-.8-.5,0-.2.2-.4.6-.5a2.69,2.69,0,0,0,1.9-1.1,7.6,7.6,0,0,0,.4-3.2Zm3.3-1.7v22.1a1.72,1.72,0,0,0,1.3,1.8,28.12,28.12,0,0,0,2.9.8,18.86,18.86,0,0,0,3,.3,12.59,12.59,0,0,0,6.6-1.8c3.3-2.1,5-5.5,5-10.5a16.39,16.39,0,0,0-1.6-7.4,12.63,12.63,0,0,0-4.3-5.3,13.4,13.4,0,0,0-8.1-2.4c-2.3,0-3.7.2-4.3.7A2.46,2.46,0,0,0,244.9,128.77Z"/><path class="a" d="M274.4,130.48l8.2,18.9c.2.5.4.7.6.7s.4-.4.8-1.2l.3-.8,4.7-11.2q3-7.2,3-9.3a1.33,1.33,0,0,0-.3-1,2.69,2.69,0,0,0-1.3-.5c-.8-.2-1.2-.3-1.2-.6s.2-.4.7-.4h.6c1.1.1,1.7.1,1.9.1h4.2c.3,0,.4.1.4.4s-.2.4-.5.5a4.1,4.1,0,0,0-2.3,2.5l-.6,1.4-10.7,25c-.3.7-.6,1-.9,1s-.6-.4-.9-1.1l-10.9-25.2a7.86,7.86,0,0,0-1.4-2.4,2.59,2.59,0,0,0-1.7-.9,4,4,0,0,1-1.3-.3c-.1-.1-.2-.2-.2-.3,0-.3.2-.4.6-.4h6.2a8.17,8.17,0,0,0,1.4-.1h.6c.4,0,.6.1.6.4s-.1.3-.4.5a3.83,3.83,0,0,0-1.1.5c-.2.2-.2.4-.2.8C273.5,128.07,273.8,129.07,274.4,130.48Z"/><path class="a" d="M305.1,128.77v8.6a2.23,2.23,0,0,0,.2,1.2,2,2,0,0,0,1.1.2h3.3a17.25,17.25,0,0,0,3.6-.3,3.69,3.69,0,0,0,1.5-.6,5.09,5.09,0,0,0,.6-1.8c.1-.4.3-.5.5-.5s.4.2.4.6v.5c-.1,1.4-.2,2.6-.2,3.8a22.61,22.61,0,0,0,.1,2.6v.6c0,.4-.1.5-.4.5a.47.47,0,0,1-.5-.5l-.1-.6a2.64,2.64,0,0,0-1-1.9,5.39,5.39,0,0,0-2.6-.5h-4.7a3.71,3.71,0,0,0-1.4.2,1,1,0,0,0-.4.9v8.6c0,1.2.2,2,.7,2.3a6.78,6.78,0,0,0,3.3.5c5.6,0,9.2-1.3,10.8-3.8.2-.2.3-.4.5-.4s.4.2.4.6a5.5,5.5,0,0,1-1.6,3.3,6,6,0,0,1-4.8,2.3,11.56,11.56,0,0,1-1.7-.1,62.12,62.12,0,0,0-6.8-.4,31.62,31.62,0,0,0-5.3.3,8.92,8.92,0,0,1-1.1.2c-.5,0-.7-.2-.7-.5s.2-.4.6-.5l.8-.2q1.5-.45,1.5-3v-19.5c0-2-.2-3.4-.7-4.1a2.92,2.92,0,0,0-2.6-1.1c-.4,0-.6-.1-.6-.4s.3-.6,1-.6a7.61,7.61,0,0,1,1.4.1c2,.2,4.5.3,7.4.3,1.7,0,3.3,0,4.6-.1l3-.2a14.23,14.23,0,0,0,1.5-.1,3.45,3.45,0,0,1,.9-.1c.5,0,.7.2.7.6a1.09,1.09,0,0,1-.1.5c0,.2-.1.8-.2,1.7l-.1,1.3a8.8,8.8,0,0,1-.2,1.5.46.46,0,0,1-.5.3c-.3,0-.4-.2-.4-.6v-.6a2.77,2.77,0,0,0-.3-1.3,2.38,2.38,0,0,0-1.6-1.3,22.51,22.51,0,0,0-4.6-.3h-3.4a2.94,2.94,0,0,0-1.7.3C305.2,127.48,305.1,128,305.1,128.77Z"/><path class="a" d="M349.7,133.57v18a17.25,17.25,0,0,1-.1,2.9.63.63,0,0,1-.6.5.76.76,0,0,1-.5-.2l-.5-.6-18-20.6-.2-.2a.37.37,0,0,0-.3-.1c-.3,0-.4.3-.4,1v15.4l.1,1.5a3.37,3.37,0,0,0,.7,2,4.27,4.27,0,0,0,2.3.8c.5.1.7.2.7.5s-.2.4-.5.4h-.6c-.2,0-.8-.1-1.9-.1l-2.2-.1h-1a8.08,8.08,0,0,0-1.6.1,2.82,2.82,0,0,1-.8.1c-.4,0-.6-.1-.6-.4s.2-.4.6-.5a4.15,4.15,0,0,0,2.4-1.7,7.1,7.1,0,0,0,.6-3.4v-14.6a11.66,11.66,0,0,0-1.2-5.8,4.43,4.43,0,0,0-3.4-2.4c-.4-.1-.6-.2-.6-.5s.2-.4.5-.4h3.7a1.54,1.54,0,0,1,1.1.6l19.7,22.3c.3.4.5.5.6.5s.2-.2.2-.4v-13.5l-.3-4.9a3.71,3.71,0,0,0-1.1-2.6,6.11,6.11,0,0,0-3.1-1.1c-.4-.1-.6-.2-.6-.5s.2-.4.6-.4a3.45,3.45,0,0,1,.9.1,39,39,0,0,0,4,.2,12.17,12.17,0,0,0,2.1-.1,4.91,4.91,0,0,1,1.1-.1c.4,0,.6.1.6.4s-.1.3-.4.4a2.44,2.44,0,0,0-1.7,1.1,6.06,6.06,0,0,0-.4,2.8v2.3Z"/><path class="a" d="M376.9,127.68h-6a1.74,1.74,0,0,0-1.2.3c-.2.2-.2.6-.2,1.3v21.8a3,3,0,0,0,2.8,3c.5.1.8.2.8.5s-.2.5-.6.5a5.94,5.94,0,0,1-1.1-.1c-.3,0-.9-.1-1.9-.1h-3.3a6.62,6.62,0,0,0-1.5.1,11.31,11.31,0,0,1-1.4.1c-.4,0-.6-.2-.6-.5s.2-.4.7-.4a3,3,0,0,0,2.2-.9,4,4,0,0,0,.6-2.5v-21.9a2.15,2.15,0,0,0-.2-1,1.86,1.86,0,0,0-1-.2h-5.7a3.4,3.4,0,0,0-2.5.7,5.24,5.24,0,0,0-1.2,2.6c-.1.6-.3.8-.6.8s-.4-.2-.4-.6a8,8,0,0,1,.3-1.6,13.81,13.81,0,0,0,.3-2.5,3.09,3.09,0,0,1,.2-1.3c.1-.2.5-.3,1-.3h23.1c.8,0,1.3.1,1.4.3s.2.7.2,1.5a8.16,8.16,0,0,0,.1,1.8,4.59,4.59,0,0,1,.1,1c0,.4-.1.7-.5.7s-.4-.2-.5-.7a3.38,3.38,0,0,0-.9-2A5.14,5.14,0,0,0,376.9,127.68Z"/><path class="a" d="M389.9,131.68v16.1a12,12,0,0,0,.4,4,3,3,0,0,0,1.1,1.5,4.3,4.3,0,0,0,2,.6c.7.1,1.1.3,1.1.5s-.2.5-.7.5a2.49,2.49,0,0,1-.8-.1,12.89,12.89,0,0,0-2.3-.1h-3.1l-2.5.1c-.4,0-.8.1-1,.1-.4,0-.6-.1-.6-.4s.2-.4.7-.5a3,3,0,0,0,2.1-1.1,9.09,9.09,0,0,0,.5-3.6v-18.4a7.23,7.23,0,0,0-.6-3.6,3.73,3.73,0,0,0-2.6-1.2c-.4-.1-.7-.3-.7-.5s.2-.5.6-.5h.4a41.9,41.9,0,0,0,4.2.2,21,21,0,0,0,2.7-.1l1.4-.1h.5c.4,0,.6.1.6.4s-.2.4-.6.6l-1.1.4C390.5,127,389.9,128.68,389.9,131.68Z"/><path class="a" d="M406.7,124.87a9.37,9.37,0,0,1,3.9.7l1.5.6a.6.6,0,0,0,.4.1c.2,0,.3-.1.5-.2l.3-.3c0-.1.1-.1.2-.1.4,0,.5.3.5,1.1,0,.2.1,1,.3,2.2l.3,2.2a4.4,4.4,0,0,1,.1.9c0,.4-.2.7-.5.7s-.5-.3-.7-1a7.54,7.54,0,0,0-3.1-3.8,9.64,9.64,0,0,0-5.3-1.5,6,6,0,0,0-3.9,1.4,4.33,4.33,0,0,0-1.5,3.4,4.8,4.8,0,0,0,1,3.1,5.61,5.61,0,0,0,1.9,1.6c.7.3,2.4,1,5.1,1.9,5.3,1.7,7.9,4.6,7.9,8.5a8.49,8.49,0,0,1-2.9,6.6,10.8,10.8,0,0,1-7.5,2.5,16.34,16.34,0,0,1-3.6-.5,9.24,9.24,0,0,1-2.9-1.1,2.25,2.25,0,0,1-.5-.5,12.69,12.69,0,0,1-.4-1.5c0-.1-.2-.8-.5-2a11.15,11.15,0,0,1-.6-2.7c0-.4.1-.6.4-.6s.5.4.7,1.1a8.4,8.4,0,0,0,3.2,4.5,9,9,0,0,0,5.4,1.8,7.75,7.75,0,0,0,5-1.7,5.29,5.29,0,0,0,2-4.2,5,5,0,0,0-1.9-4c-.6-.6-2.5-1.4-5.6-2.4s-5.4-2.3-6.7-3.6a6.93,6.93,0,0,1-2-5.1,7.32,7.32,0,0,1,2.6-5.7A9.87,9.87,0,0,1,406.7,124.87Z"/><path class="a" d="M440.3,127.68h-6a1.74,1.74,0,0,0-1.2.3c-.2.2-.2.6-.2,1.3v21.8a3,3,0,0,0,2.8,3c.5.1.8.2.8.5s-.2.5-.6.5a5.94,5.94,0,0,1-1.1-.1c-.3,0-.9-.1-1.9-.1h-3.3a6.62,6.62,0,0,0-1.5.1,11.31,11.31,0,0,1-1.4.1c-.4,0-.6-.2-.6-.5s.2-.4.7-.4a3,3,0,0,0,2.2-.9,4,4,0,0,0,.6-2.5v-21.9a.92.92,0,0,0-1.2-1.2h-5.7a3.4,3.4,0,0,0-2.5.7A5.24,5.24,0,0,0,419,131c-.1.6-.3.8-.6.8s-.4-.2-.4-.6a8,8,0,0,1,.3-1.6,13.81,13.81,0,0,0,.3-2.5,3.09,3.09,0,0,1,.2-1.3,1.33,1.33,0,0,1,1-.3h23.1c.8,0,1.3.1,1.4.3s.2.7.2,1.5a8.16,8.16,0,0,0,.1,1.8,4.59,4.59,0,0,1,.1,1c0,.4-.1.7-.5.7s-.4-.2-.5-.7a3.38,3.38,0,0,0-.9-2A5.14,5.14,0,0,0,440.3,127.68Z"/><path class="a" d="M453.4,131.68v16.1a12,12,0,0,0,.4,4,3,3,0,0,0,1.1,1.5,4.3,4.3,0,0,0,2,.6c.7.1,1.1.3,1.1.5s-.2.5-.7.5a2.49,2.49,0,0,1-.8-.1,12.89,12.89,0,0,0-2.3-.1h-3.1l-2.5.1c-.4,0-.8.1-1,.1-.4,0-.6-.1-.6-.4s.2-.4.7-.5a3,3,0,0,0,2.1-1.1,9.09,9.09,0,0,0,.5-3.6v-18.4a7.23,7.23,0,0,0-.6-3.6,3.73,3.73,0,0,0-2.6-1.2c-.4-.1-.7-.3-.7-.5s.2-.5.6-.5h.4a41.9,41.9,0,0,0,4.2.2,21,21,0,0,0,2.7-.1l1.4-.1h.5c.4,0,.6.1.6.4s-.2.4-.6.6l-1.1.4C453.9,127,453.4,128.68,453.4,131.68Z"/><path class="a" d="M487.3,127.87l.7,5.1.1.5-.1.3c-.1.1-.2.2-.3.2s-.4-.3-.8-.9c-2.7-4.7-6.3-7-10.9-7a11.08,11.08,0,0,0-8.6,3.4c-2.1,2.2-3.2,5.3-3.2,9.2a16.58,16.58,0,0,0,3.5,10.9,11.09,11.09,0,0,0,9,4.2,13.24,13.24,0,0,0,6.3-1.7,9.22,9.22,0,0,0,4.3-4.2c.4-.8.7-1.1.9-1.2s.3.1.3.4v.2l-.1.5-.5,2.6-.1.4a2.14,2.14,0,0,1-1,1.2,19.86,19.86,0,0,1-10.9,3.2,15.35,15.35,0,0,1-11.1-4.1q-4.2-4.05-4.2-10.8a15,15,0,0,1,15.4-15.5,17.85,17.85,0,0,1,8.3,2l.9.5.3.2.4.1c.1,0,.2-.1.3-.2a1.55,1.55,0,0,1,.6-.3C487.1,127.07,487.2,127.37,487.3,127.87Z"/><path class="a" d="M498.9,141.87v7.8a5.38,5.38,0,0,0,.7,3.3,5.7,5.7,0,0,0,3,1.2c.4.1.6.2.6.5s-.2.4-.5.4a6.82,6.82,0,0,1-1.2-.1c-.5,0-1.3-.1-2.5-.1h-4.4a10.3,10.3,0,0,1-1.3.1c-.5,0-.7-.2-.7-.5s.2-.4.6-.4a2.22,2.22,0,0,0,1.9-1.3,9.08,9.08,0,0,0,.5-3.8v-18.3a7.81,7.81,0,0,0-.5-3.2,2.66,2.66,0,0,0-1.9-1.2l-1-.2c-.4-.1-.6-.2-.6-.4s.2-.4.6-.4a2.49,2.49,0,0,1,.8.1,30.3,30.3,0,0,0,3.4.1h3.5a5.81,5.81,0,0,1,1-.1c.3,0,.5.1.5.4s-.2.4-.5.5c-.9.4-1.5.8-1.7,1.3a8.53,8.53,0,0,0-.4,2.9v8.4c0,.3.1.5.2.5l.3-.2.3-.3,9.2-8.2q2.1-1.95,2.1-3c0-.7-.5-1.1-1.5-1.3-.7-.1-1-.3-1-.5s.2-.4.7-.4h.6c.6,0,1.3.1,2,.1h3.6a7.67,7.67,0,0,0,1.8-.1c.3,0,.5-.1.7-.1.4,0,.6.1.6.4s-.3.4-1,.6c-1.3.3-3.8,2.1-7.4,5.4l-7.3,6.6c-.3.3-.5.5-.5.7a2.06,2.06,0,0,0,.5.9l11.2,11.7a7.94,7.94,0,0,0,3.9,2.3l.9.2c.3.1.5.2.5.4s-.2.5-.7.5H518c-.3,0-.9-.1-1.8-.1h-2.9a1.76,1.76,0,0,1-1.3-.6l-.4-.4-11.5-11.9-.4-.5a.55.55,0,0,0-.5-.2C499,141.37,498.9,141.48,498.9,141.87Z"/><path class="a" d="M536.2,143.48h-7.8a4,4,0,0,0-2,.3,3.81,3.81,0,0,0-1,1.7l-1.4,3.2a10,10,0,0,0-1,3.2,2.07,2.07,0,0,0,.5,1.5,4.26,4.26,0,0,0,2,.8c.4.1.7.3.7.5s-.2.4-.6.4h-.7l-2.1-.1h-3.4a8.33,8.33,0,0,1-1.2.1c-.4,0-.6-.1-.6-.4a.51.51,0,0,1,.4-.5l.8-.2a3.07,3.07,0,0,0,1.2-1,7.61,7.61,0,0,0,1.2-1.9l.6-1.4,11-24.5q.3-.6.6-.6t.6.6l9.2,23.6.5,1.2a9.53,9.53,0,0,0,1.7,3.2,5,5,0,0,0,2.7,1c.4.1.7.3.6.5s-.2.4-.6.4h-.8a39,39,0,0,0-4-.1,29.55,29.55,0,0,0-3.7.1,2,2,0,0,1-.7.1c-.4,0-.6-.1-.6-.4a.46.46,0,0,1,.5-.4l.7-.1c.7-.1,1.1-.6,1.1-1.5a14.46,14.46,0,0,0-1.3-4.5l-1.1-2.8a4.25,4.25,0,0,0-.7-1.4C537.5,143.57,537,143.48,536.2,143.48Zm.3-3.4-3.4-8.5-.2-.5c-.2-.5-.4-.7-.6-.7s-.2.1-.3.4l-4.2,9.3a2.71,2.71,0,0,0-.3.8c0,.4.3.6,1,.6h7.1c.7,0,1.1-.2,1.1-.5a1.09,1.09,0,0,0-.1-.5Z"/><path class="a" d="M597.4,118.37l.9,7,.1.7-.1.3c-.1.2-.2.3-.4.3s-.6-.4-1-1.2c-3.6-6.3-8.5-9.5-14.7-9.5-4.9,0-8.8,1.5-11.7,4.6s-4.3,7.2-4.3,12.4c0,6.1,1.6,11,4.8,14.8a15.25,15.25,0,0,0,12.2,5.8,18.18,18.18,0,0,0,8.6-2.3c2.8-1.6,4.8-3.4,5.8-5.7.5-1,.9-1.6,1.2-1.6s.5.2.5.6v.3l-.1.6-.7,3.6-.1.5c-.1.5-.5,1-1.4,1.6a27.48,27.48,0,0,1-14.8,4.3c-6.2,0-11.3-1.8-15.1-5.5s-5.7-8.6-5.7-14.6a20.9,20.9,0,0,1,5.9-15.1,20.12,20.12,0,0,1,14.9-6,23.09,23.09,0,0,1,11.3,2.8l1.2.6.5.2.5.2c.1,0,.2-.1.4-.2a2.06,2.06,0,0,1,.9-.5C597.1,117.27,597.3,117.68,597.4,118.37Z"/><path class="a" d="M617.8,140l5.9,8.7.7,1q2.7,4.05,5.1,4.2h.7c.3,0,.4.1.4.3s-.3.4-1,.6a6.65,6.65,0,0,1-2.1.3A6.3,6.3,0,0,1,624,154a12.18,12.18,0,0,1-3.1-3.5l-5.3-8.1-.3-.5a1.75,1.75,0,0,0-1.7-.9h-2.9l-.5.1c-.2.1-.3.3-.3.7v7.6a12.14,12.14,0,0,0,.2,2.5,1.78,1.78,0,0,0,.9,1.2,5.23,5.23,0,0,0,2.9.9c.5.1.8.2.8.5s-.2.4-.7.4a8.47,8.47,0,0,1-1.3-.1,19.41,19.41,0,0,0-2.7-.1h-3.2a12.14,12.14,0,0,0-1.8.1,6.25,6.25,0,0,1-1.2.1c-.4,0-.5-.1-.5-.4s.2-.3.5-.4a2.86,2.86,0,0,0,2.3-1.6c.4-.8.5-2.4.5-4.9V130c0-2.2-.8-3.5-2.3-3.7l-1-.1c-.5-.1-.7-.3-.7-.5s.2-.4.7-.4a13.59,13.59,0,0,1,1.5.1c.5,0,1.2.1,1.9.1s1.8,0,3.4-.1c1.1-.1,2.2-.1,3-.1,3.3,0,5.8.6,7.4,1.9a6.32,6.32,0,0,1,2.5,5.5C623.1,135.77,621.3,138.27,617.8,140Zm-6.3-.5h2.4a6.18,6.18,0,0,0,4.4-1.5,5.36,5.36,0,0,0,1.6-4.2,6.39,6.39,0,0,0-2.2-5.1,8.16,8.16,0,0,0-5.6-2,3,3,0,0,0-1.8.4,2.07,2.07,0,0,0-.5,1.5V138a1.88,1.88,0,0,0,.3,1.3A2.57,2.57,0,0,0,611.5,139.48Z"/><path class="a" d="M638.7,141.87v7.8a5.38,5.38,0,0,0,.7,3.3,5.7,5.7,0,0,0,3,1.2c.4.1.6.2.6.5s-.2.4-.5.4a6.82,6.82,0,0,1-1.2-.1c-.5,0-1.3-.1-2.5-.1h-4.4a10.3,10.3,0,0,1-1.3.1c-.5,0-.7-.2-.7-.5s.2-.4.6-.4a2.22,2.22,0,0,0,1.9-1.3,9.08,9.08,0,0,0,.5-3.8v-18.3a7.81,7.81,0,0,0-.5-3.2,2.66,2.66,0,0,0-1.9-1.2l-1-.2c-.4-.1-.6-.2-.6-.4s.2-.4.6-.4a2.49,2.49,0,0,1,.8.1,30.3,30.3,0,0,0,3.4.1h3.5a5.81,5.81,0,0,1,1-.1c.3,0,.5.1.5.4s-.2.4-.5.5c-.9.4-1.5.8-1.7,1.3a8.53,8.53,0,0,0-.4,2.9v8.4c0,.3.1.5.2.5l.3-.2.3-.3,9.2-8.2q2.1-1.95,2.1-3c0-.7-.5-1.1-1.5-1.3-.7-.1-1-.3-1-.5s.2-.4.7-.4h.6c.6,0,1.3.1,2,.1h3.6a7.67,7.67,0,0,0,1.8-.1,5.64,5.64,0,0,0,.7-.1c.4,0,.6.1.6.4s-.3.4-1,.6c-1.3.3-3.8,2.1-7.4,5.4l-7.3,6.6c-.3.3-.5.5-.5.7a2.06,2.06,0,0,0,.5.9l11.2,11.7a7.94,7.94,0,0,0,3.9,2.3l.9.2c.3.1.5.2.5.4s-.2.5-.7.5h-.5c-.3,0-.9-.1-1.8-.1h-2.9a1.76,1.76,0,0,1-1.3-.6l-.4-.4-11.5-11.9-.4-.5a.55.55,0,0,0-.5-.2C638.9,141.37,638.7,141.48,638.7,141.87Z"/><path class="a" d="M666.2,130.48l8.2,18.9c.2.5.4.7.6.7s.4-.4.8-1.2l.3-.8,4.7-11.2q3-7.2,3-9.3a1.33,1.33,0,0,0-.3-1,2.69,2.69,0,0,0-1.3-.5c-.8-.2-1.2-.3-1.2-.6s.2-.4.7-.4h.6c1.1.1,1.7.1,1.9.1h4.2c.3,0,.4.1.4.4s-.2.4-.5.5a4.1,4.1,0,0,0-2.3,2.5l-.6,1.4-10.7,25c-.3.7-.6,1-.9,1s-.6-.4-.9-1.1L662,129.68a7.86,7.86,0,0,0-1.4-2.4,2.59,2.59,0,0,0-1.7-.9,4,4,0,0,1-1.3-.3c-.1-.1-.2-.2-.2-.3,0-.3.2-.4.6-.4h6.2a8.17,8.17,0,0,0,1.4-.1h.6c.4,0,.6.1.6.4s-.1.3-.4.5a3.83,3.83,0,0,0-1.1.5c-.2.2-.2.4-.2.8C665.3,128.07,665.6,129.07,666.2,130.48Z"/><path class="a" d="M702.1,143.48h-7.8a4,4,0,0,0-2,.3,3.81,3.81,0,0,0-1,1.7l-1.4,3.2a10,10,0,0,0-1,3.2,2.07,2.07,0,0,0,.5,1.5,4.26,4.26,0,0,0,2,.8c.4.1.7.3.7.5s-.2.4-.6.4h-.7l-2.1-.1h-3.4a8.33,8.33,0,0,1-1.2.1c-.4,0-.6-.1-.6-.4a.51.51,0,0,1,.4-.5l.8-.2a3.07,3.07,0,0,0,1.2-1,7.61,7.61,0,0,0,1.2-1.9l.6-1.4,11-24.5q.3-.6.6-.6t.6.6l9.2,23.6.5,1.2a9.53,9.53,0,0,0,1.7,3.2,5,5,0,0,0,2.7,1c.4.1.7.3.6.5s-.2.4-.6.4h-.8a39,39,0,0,0-4-.1,29.55,29.55,0,0,0-3.7.1,2,2,0,0,1-.7.1c-.4,0-.6-.1-.6-.4a.46.46,0,0,1,.5-.4l.7-.1c.7-.1,1.1-.6,1.1-1.5a14.46,14.46,0,0,0-1.3-4.5l-1.1-2.8a4.25,4.25,0,0,0-.7-1.4C703.4,143.57,702.9,143.48,702.1,143.48Zm.2-3.4-3.4-8.5-.2-.5c-.2-.5-.4-.7-.6-.7s-.2.1-.3.4l-4.2,9.3a2.71,2.71,0,0,0-.3.8c0,.4.3.6,1,.6h7.1c.7,0,1.1-.2,1.1-.5a1.09,1.09,0,0,0-.1-.5Z"/><path class="a" d="M474.1,121.57a7.36,7.36,0,0,0,1.1,1,3.09,3.09,0,0,0,1.1.2,2.51,2.51,0,0,0,1-.2,4.8,4.8,0,0,0,.9-1l1.9-2.4.7-.9c.2-.2.2-.4.3-.6s-.1-.3-.4-.5a1.33,1.33,0,0,0-.7-.3c-.3,0-.6.3-1,.9-1.1,1.7-1.8,2.5-2.1,2.5-.1,0-.2-.1-.4-.3l-.6-.6-.9-1-.7-.8-.5-.5a1.06,1.06,0,0,0-1.3-.3l-1,.4c-.4.2-.6.3-.6.6s.4.7,1.2,1.5Z"/><path class="a" d="M322.1,75.27a3.63,3.63,0,0,0,1.5-.9l2.8-3.1.3-.4a.86.86,0,0,0,.3-.6c0-.6-.3-.8-.9-.8a8.23,8.23,0,0,0-2,.1c-.2,0-.4.2-.5.5l-.5,1.1c-.1.2-.4.8-.8,1.8l-.4,1a1.34,1.34,0,0,0-.2.8C321.7,75.18,321.8,75.27,322.1,75.27Z"/><path class="a" d="M169,137.87a4.23,4.23,0,0,1,3,1.2,4.07,4.07,0,0,1,1.2,3,4.23,4.23,0,0,1-1.2,3,4.07,4.07,0,0,1-3,1.2,4.2,4.2,0,0,1,0-8.4Zm0,.5a3.76,3.76,0,1,0,2.6,1.1A3.63,3.63,0,0,0,169,138.37Zm.5,3.7.9,1.4.1.2a2.3,2.3,0,0,0,.8.7h.1c.1,0,.1,0,.1.1s-.2.2-.5.2a1.27,1.27,0,0,1-1.1-.7l-.9-1.3v-.1c0-.1-.1-.1-.2-.1h-.6v1.3c0,.3,0,.4.1.5s.2.1.5.2a.35.35,0,0,1,.2.1c0,.1-.1.1-.2.1h-1.6c-.1,0-.2,0-.2-.1s0-.1.1-.1.3-.1.3-.2.1-.4.1-.8v-2.9a.6.6,0,0,0-.3-.6H167a.35.35,0,0,1-.2-.1c0-.1.1-.1.2-.1h1.6c1.1,0,1.7.4,1.7,1.2A1.4,1.4,0,0,1,169.5,142.07Zm-1.1-.1h.4a.8.8,0,0,0,.9-.9,1,1,0,0,0-1.1-1.1.27.27,0,0,0-.3.3V142C168.2,141.87,168.3,142,168.4,142Z"/><path class="a" d="M544.6,124.27a4.23,4.23,0,0,1,3,1.2,4.07,4.07,0,0,1,1.2,3,4.23,4.23,0,0,1-1.2,3,4.07,4.07,0,0,1-3,1.2,4.19,4.19,0,0,1-3.2-6.9A4.07,4.07,0,0,1,544.6,124.27Zm0,.5a3.76,3.76,0,1,0,2.6,1.1A3.47,3.47,0,0,0,544.6,124.77Zm.6,3.7.9,1.4.1.2a2.3,2.3,0,0,0,.8.7h.1c.1,0,.1,0,.1.1s-.2.2-.5.2a1.27,1.27,0,0,1-1.1-.7l-.9-1.3V129c0-.1-.1-.1-.2-.1h-.6v1.3c0,.3,0,.4.1.5s.2.1.5.2a.35.35,0,0,1,.2.1c0,.1-.1.1-.2.1h-1.6c-.1,0-.2,0-.2-.1s0-.1.1-.1.3-.1.3-.2.1-.4.1-.8V127a.6.6,0,0,0-.3-.6h-.2a.35.35,0,0,1-.2-.1c0-.1.1-.1.2-.1h1.6c1.1,0,1.7.4,1.7,1.2A1.4,1.4,0,0,1,545.2,128.48Zm-1.2-.1h.4a.8.8,0,0,0,.9-.9,1,1,0,0,0-1.1-1.1.27.27,0,0,0-.3.3v1.7Z"/></svg>