<svg xmlns="http://www.w3.org/2000/svg" viewBox="0 0 558.4 454.32"><defs><style>.a{fill:#fff;}</style></defs><title>Asset 1</title><path class="a" d="M186.5,283.72c5.4,0,9.7,2.8,12.9,8.3.4.7.7,1.1.9,1.1s.3-.1.4-.3l.1-.2-.1-.6-.8-6.1c-.1-.6-.3-1-.5-1a1.79,1.79,0,0,0-.8.4c-.2.1-.3.2-.4.2l-.4-.2-.4-.2-1-.5a20.6,20.6,0,0,0-9.8-2.4,17.56,17.56,0,0,0-13,5.2,17.79,17.79,0,0,0-5.2,13.1,17.25,17.25,0,0,0,5,12.8q5,4.8,13.2,4.8a23.37,23.37,0,0,0,12.9-3.7c.7-.5,1.1-.9,1.2-1.4l.1-.5.6-3.1.1-.6v-.3c0-.3-.1-.5-.4-.5s-.6.5-1,1.4a11,11,0,0,1-5.1,4.9,15.08,15.08,0,0,1-7.5,2,13.37,13.37,0,0,1-10.7-5c-2.8-3.4-4.2-7.7-4.2-13,0-4.6,1.2-8.2,3.7-10.9A14.17,14.17,0,0,1,186.5,283.72Z"/><path class="a" d="M205.8,282.52c-.5,0-.8.2-.7.5s.3.5.8.6c1.6.3,2.6.7,3.1,1.5s.7,2.1.7,4.2v21.8c0,2.1-.2,3.6-.6,4.2a3.18,3.18,0,0,1-2.5,1.3c-.5.1-.8.3-.8.6s.2.5.7.5a5.74,5.74,0,0,0,1.2-.1l3-.2,3.7.1a17.89,17.89,0,0,1,2.7.1,3.75,3.75,0,0,0,1,.1c.5,0,.8-.2.8-.6s-.4-.5-1.3-.6a5.07,5.07,0,0,1-2.3-.8,5.23,5.23,0,0,1-1.3-1.8,16.1,16.1,0,0,1-.4-4.7v-19c0-3.6.6-5.6,1.9-6.1l1.3-.5a.84.84,0,0,0,.7-.7c0-.3-.2-.5-.7-.5h-.6l-1.7.1a31.12,31.12,0,0,1-3.2.1c-2,0-3.7-.1-4.9-.2A1.76,1.76,0,0,1,205.8,282.52Z"/><path class="a" d="M212.4,278.92l3.3-3.6.4-.5c.3-.3.4-.5.4-.7,0-.7-.3-1-1-1a12.31,12.31,0,0,0-2.4.1.9.9,0,0,0-.6.6l-.6,1.3c-.1.3-.5,1-1,2.1a13.07,13.07,0,0,0-.8,2.1c0,.4.2.5.5.5S211.5,279.62,212.4,278.92Z"/><path class="a" d="M247.2,316.72a7.39,7.39,0,0,0,4.1,1.3,9.52,9.52,0,0,0,2.5-.3c.7-.2,1.1-.4,1.1-.7s-.1-.3-.4-.4l-.8-.1c-1.8-.1-3.8-1.8-6-4.9l-.8-1.2-7-10.3c4.2-2.1,6.3-5,6.3-8.8,0-2.9-1-5.1-3-6.5s-4.9-2.2-8.8-2.2c-1,0-2.2,0-3.6.1-1.9.1-3.2.2-4,.2a16.22,16.22,0,0,1-2.3-.1,17.36,17.36,0,0,0-1.8-.1c-.6,0-.9.2-.9.5s.3.5.8.6l1.2.2c1.8.3,2.8,1.8,2.8,4.4v20.8a18.14,18.14,0,0,1-.6,5.8,3.09,3.09,0,0,1-2.7,1.8c-.4.1-.6.2-.6.5s.2.5.6.5a8.8,8.8,0,0,0,1.4-.1,16.23,16.23,0,0,1,2.1-.1h3.7a26.42,26.42,0,0,1,3.2.1,11.45,11.45,0,0,0,1.5.1c.6,0,.9-.2.8-.5s-.3-.5-.9-.6a7.16,7.16,0,0,1-3.4-1.1,2.63,2.63,0,0,1-1-1.4,17,17,0,0,1-.2-3v-8.9c0-.4.1-.7.3-.8l.6-.1h3.4a2.12,2.12,0,0,1,2,1l.4.6,6.3,9.6A13.77,13.77,0,0,0,247.2,316.72Zm-11.9-17.2h-2.9a1.38,1.38,0,0,1-1.8-1.8v-11.1a2.16,2.16,0,0,1,.6-1.8,3.58,3.58,0,0,1,2.1-.5,9.24,9.24,0,0,1,6.6,2.4,8,8,0,0,1,2.6,6.1,6.48,6.48,0,0,1-1.9,5A8.21,8.21,0,0,1,235.3,299.52Z"/><path class="a" d="M265.1,301.72a.86.86,0,0,1,.6.3l.5.6,13.6,14,.4.5a1.8,1.8,0,0,0,1.5.7h1.2c.5,0,1.2-.1,2.2-.1a11,11,0,0,1,2.2.1,3.54,3.54,0,0,1,.6.1c.5,0,.8-.2.8-.6,0-.2-.2-.4-.6-.5l-1.1-.2a8.2,8.2,0,0,1-4.6-2.7l-13.2-13.8c-.4-.5-.6-.8-.6-1.1s.2-.5.6-.8l8.7-7.9c4.3-3.9,7.2-6,8.8-6.4.8-.2,1.2-.4,1.2-.7s-.3-.5-.7-.5a3.22,3.22,0,0,0-.8.1c-.3,0-1,.1-2.1.1h-1.9l-2.3-.1a17.72,17.72,0,0,1-2.4-.1H277c-.5,0-.8.2-.8.5s.4.5,1.2.6q1.8.3,1.8,1.5c0,.9-.8,2.1-2.5,3.6l-10.9,9.8-.4.3-.4.3c-.2,0-.2-.2-.2-.5v-9.9a9.37,9.37,0,0,1,.4-3.5,4.26,4.26,0,0,1,2-1.6q.6-.3.6-.6c0-.3-.2-.5-.6-.5a8.33,8.33,0,0,0-1.2.1h-4.1a38.06,38.06,0,0,1-4.1-.2,3.44,3.44,0,0,0-.9-.1c-.5,0-.7.2-.7.5s.2.4.7.5l1.2.3a3,3,0,0,1,2.2,1.4,8.47,8.47,0,0,1,.6,3.8v21.6a12.05,12.05,0,0,1-.6,4.5,2.43,2.43,0,0,1-2.2,1.5c-.5,0-.7.2-.7.5s.3.6.8.6a13.58,13.58,0,0,0,1.5-.1h1.4l1.8-.1h2a21.17,21.17,0,0,1,3,.1,8.8,8.8,0,0,0,1.4.1c.4,0,.6-.1.6-.5s-.3-.4-.8-.5c-1.9-.3-3.1-.8-3.6-1.4s-.8-1.9-.8-3.9v-9.3A.37.37,0,0,1,265.1,301.72Z"/><path class="a" d="M294.5,312.92q0,3-1.8,3.6l-1,.3c-.4.1-.7.3-.7.6s.3.5.8.5c.2,0,.7-.1,1.3-.2a44.42,44.42,0,0,1,6.3-.3,64.13,64.13,0,0,1,8,.5,15.56,15.56,0,0,0,2,.1,6.91,6.91,0,0,0,5.6-2.7c1.2-1.5,1.9-2.8,1.9-3.9,0-.5-.2-.7-.5-.7s-.4.2-.6.5c-1.9,3-6.2,4.5-12.8,4.5a9.5,9.5,0,0,1-3.9-.5,3.46,3.46,0,0,1-.8-2.7v-10.2a1.05,1.05,0,0,1,.4-1,3.17,3.17,0,0,1,1.7-.3H306a6,6,0,0,1,3.1.6,3.39,3.39,0,0,1,1.2,2.3l.2.7q.15.6.6.6c.3,0,.5-.2.5-.6a2,2,0,0,0-.1-.7c-.1-1-.1-2-.1-3.1,0-1.4.1-2.8.2-4.5v-.6c0-.4-.2-.7-.5-.7a.73.73,0,0,0-.7.6,6.08,6.08,0,0,1-.7,2.1,3,3,0,0,1-1.8.7,22.64,22.64,0,0,1-4.2.3h-3.9a2.75,2.75,0,0,1-1.3-.2,3.32,3.32,0,0,1-.2-1.4v-10.2c0-.9.2-1.5.5-1.7a3.13,3.13,0,0,1,2-.4h4a22.39,22.39,0,0,1,5.4.4,2.73,2.73,0,0,1,1.9,1.5,4,4,0,0,1,.3,1.5v.7c0,.5.2.8.5.8a.55.55,0,0,0,.6-.4,8.89,8.89,0,0,0,.3-1.8l.1-1.5c.1-1.1.2-1.8.2-2a1.27,1.27,0,0,0,.1-.6c0-.5-.3-.7-.8-.7a4.14,4.14,0,0,0-1,.1c-.2,0-.8.1-1.8.1l-3.6.2c-1.6.1-3.4.1-5.5.1a72.7,72.7,0,0,1-8.7-.4,11.56,11.56,0,0,0-1.7-.1c-.8,0-1.1.2-1.1.7,0,.3.2.5.7.5,1.5,0,2.6.4,3.1,1.3s.8,2.5.8,4.9v21.5Z"/><path class="a" d="M328,283.72c.3-.1.5-.3.5-.5s-.2-.5-.7-.5h-.7a11,11,0,0,1-1.6.1h-6.7a3.55,3.55,0,0,1-.7-.1c-.5,0-.7.2-.7.5a.52.52,0,0,0,.2.4,11.2,11.2,0,0,0,1.6.4,3.48,3.48,0,0,1,2,1,10.22,10.22,0,0,1,1.6,2.9l12.9,29.8c.4.8.7,1.3,1.1,1.3s.7-.4,1-1.2l12.6-29.5.7-1.6a4.5,4.5,0,0,1,2.8-2.9c.4-.1.5-.3.5-.5s-.2-.4-.5-.4H349c-.3,0-1,0-2.3-.1H346c-.5,0-.8.2-.8.5s.4.5,1.4.7c.8.2,1.3.3,1.5.6s.4.6.4,1.2c0,1.6-1.2,5.3-3.6,11L339.3,310l-.4.9c-.4,1-.7,1.4-.9,1.4s-.4-.3-.7-.8l-9.8-22.4a10.52,10.52,0,0,1-1.1-3.6c0-.4.1-.8.3-.9C326.8,284.22,327.3,283.92,328,283.72Z"/><path class="a" d="M56,375.42c2.2,5.8,3.4,9.7,3.4,11.7s-.9,3.4-2.8,3.8l-1.7.4c-.9.2-1.4.6-1.4,1.1,0,.8.5,1.1,1.4,1.1.4,0,.9-.1,1.7-.2a88.12,88.12,0,0,1,9.6-.3q7.35,0,10.2.3c1.1.1,1.8.1,2.1.1q1.5,0,1.5-.9c0-.7-.5-1.1-1.7-1.4-3.5-.6-5.8-1.5-7-2.6s-2.6-3.9-4.3-8.3l-1.2-3-23.7-60.8c-.4-1.1-.9-1.6-1.5-1.6s-1.1.6-1.6,1.7l-28.4,63L9,383.12A23.62,23.62,0,0,1,5.9,388c-1.3,1.6-2.2,2.5-3,2.7l-2,.6a1.18,1.18,0,0,0-.9,1.2c0,.7.5,1,1.5,1,.2,0,1.2-.1,3.1-.3.6,0,1.4-.1,2.5-.1,2.3,0,4.4,0,6.1.1l5.3.3c.8,0,1.5.1,1.9.1q1.65,0,1.5-.9c0-.6-.6-1.1-1.7-1.3-2.5-.6-4.2-1.2-5.1-2s-1.3-2-1.3-3.8.8-4.6,2.4-8.3l3.6-8.1c1.1-2.5,2-4,2.6-4.4s2.4-.7,5.1-.7h20a8.9,8.9,0,0,1,3.8.5,9.23,9.23,0,0,1,1.8,3.5Zm-9.9-16.5H29.5l-1.5-.1c-1.7,0-2.5-.5-2.5-1.4a5.74,5.74,0,0,1,.7-2l10.7-23.9c.3-.7.6-1.1.9-1,.5,0,1,.6,1.4,1.8l.4,1.2,8.7,21.9.3,1a4.51,4.51,0,0,1,.3,1.3C48.9,358.52,48,358.92,46.1,358.92Z"/><path class="a" d="M133.9,378.52a30.18,30.18,0,0,0,3.4-14.3c0-8.1-2.6-14.7-7.7-19.9-5.6-5.7-14.1-8.5-25.4-8.5-2,0-3.8.1-5.5.2l-3.8.4c-1.5.1-3.7.2-6.5.2H85.5l-3.3-.2c-.7,0-1.1.3-1.1.8s.5.8,1.4.8a6.27,6.27,0,0,1,4.7,2.3c.9,1.3,1.4,3.3,1.4,6.1v37.3c0,3.1-.3,5.1-.8,6.1a5.28,5.28,0,0,1-3.6,2.1q-1.2.3-1.2.9c0,.7.5,1,1.4.9.6,0,1.4-.1,2.4-.2a56.25,56.25,0,0,1,7.7-.5c2.7,0,5.9.1,9.6.4,1.8.1,3.1.2,3.8.2a30.57,30.57,0,0,0,16.6-4.8A25.32,25.32,0,0,0,133.9,378.52Zm-12.4,9.2a23.13,23.13,0,0,1-12.7,3.5,34.53,34.53,0,0,1-5.8-.6,37.85,37.85,0,0,1-5.6-1.4,3.43,3.43,0,0,1-2.5-3.5v-42.6c0-1.7.4-2.8,1.1-3.4,1.2-.9,3.9-1.4,8.3-1.4,6.1,0,11.3,1.5,15.6,4.6a25.27,25.27,0,0,1,8.2,10.2,33.6,33.6,0,0,1,3,14.3C131.1,377,127.9,383.72,121.5,387.72Z"/><path class="a" d="M168.6,393.42l20.5-48.1,1.1-2.7a7.69,7.69,0,0,1,4.5-4.8q.9-.3.9-.9c0-.5-.3-.7-.8-.7h-8.1c-.4,0-1.6-.1-3.7-.2h-1.2c-.9,0-1.3.3-1.4.8s.7.8,2.3,1.1a5.67,5.67,0,0,1,2.5.9,2.55,2.55,0,0,1,.6,1.9c0,2.7-2,8.6-5.8,17.9l-9.1,21.5-.7,1.5q-1,2.4-1.5,2.4c-.3,0-.7-.4-1.1-1.3l-15.9-36.5a16,16,0,0,1-1.7-5.8,2.08,2.08,0,0,1,.4-1.5,9.08,9.08,0,0,1,2.1-1.1c.6-.2.8-.5.8-.9s-.4-.8-1.1-.8a6.82,6.82,0,0,0-1.2.1c-1.2.1-2.1.2-2.6.2h-6.7a37,37,0,0,1-4.2-.1,6.82,6.82,0,0,0-1.2-.1c-.8,0-1.2.3-1.2.8a.75.75,0,0,0,.4.7c.3.1,1.1.3,2.5.6a5.28,5.28,0,0,1,3.3,1.7,18.18,18.18,0,0,1,2.7,4.7l21,48.6q.9,2.1,1.8,2.1C167.4,395.42,168,394.72,168.6,393.42Z"/><path class="a" d="M240.3,381.82c-.3,0-.6.3-.9.7-3.1,4.9-10,7.3-20.8,7.3-3.4,0-5.5-.3-6.4-.9s-1.3-2-1.3-4.4v-16.6a1.83,1.83,0,0,1,.7-1.7,5.83,5.83,0,0,1,2.7-.4h9.1c2.4,0,4,.3,5,1a5.36,5.36,0,0,1,2,3.8l.2,1.2a1,1,0,0,0,1.1.9c.5,0,.8-.3.8-1a6.82,6.82,0,0,0-.1-1.2,41.8,41.8,0,0,1-.2-5,65.33,65.33,0,0,1,.4-7.3v-.9c0-.7-.3-1.1-.8-1.1s-.9.3-1.1,1a10.24,10.24,0,0,1-1.2,3.5,5.28,5.28,0,0,1-2.9,1.2,40.74,40.74,0,0,1-6.9.5h-6.4c-1.2,0-1.9-.1-2.1-.4a4.55,4.55,0,0,1-.4-2.3V343c0-1.5.2-2.4.7-2.8a5.92,5.92,0,0,1,3.3-.6h6.5a42.34,42.34,0,0,1,8.8.6,4.21,4.21,0,0,1,3.2,2.5,7,7,0,0,1,.5,2.5v1.1c0,.9.3,1.3.8,1.2a.8.8,0,0,0,.9-.6,17.61,17.61,0,0,0,.4-3l.2-2.4a26,26,0,0,1,.3-3.3,3.44,3.44,0,0,0,.1-.9c0-.8-.5-1.2-1.4-1.2-.4,0-.9.1-1.7.2-.4.1-1.3.1-3,.2l-5.9.3c-2.6.1-5.6.2-8.9.2a115.84,115.84,0,0,1-14.2-.7c-1.2-.1-2.1-.2-2.8-.2-1.2,0-1.9.4-1.9,1.1,0,.5.4.8,1.2.8,2.5,0,4.2.7,5.1,2s1.3,4,1.3,8v37.7c0,3.3-1,5.2-3,5.8l-1.6.5c-.7.2-1.1.5-1.1,1s.4.9,1.3.9a12.64,12.64,0,0,0,2.1-.3,76.37,76.37,0,0,1,10.2-.5c3.4,0,7.8.2,13.1.7,1.4.1,2.4.2,3.2.2a11.32,11.32,0,0,0,9.2-4.5c2-2.5,3-4.6,3-6.4C241.1,382.22,240.9,381.82,240.3,381.82Z"/><path class="a" d="M297,387v-34.6l.1-2.7v-4.5a12.86,12.86,0,0,1,.8-5.4,4.58,4.58,0,0,1,3.3-2.1c.6-.2.9-.4.8-.8-.1-.6-.4-.9-1.2-.9-.5,0-1.1.1-2,.2a23.68,23.68,0,0,1-4.1.2,75.6,75.6,0,0,1-7.6-.3,13.05,13.05,0,0,0-1.7-.1c-.8,0-1.2.3-1.2.8s.4.9,1.2,1c2.8.5,4.8,1.2,5.9,2.2s1.8,2.6,2,5l.5,9.5v26.1c0,.5-.2.8-.5.8s-.6-.3-1.2-1l-38-43.1a2.9,2.9,0,0,0-2.1-1.2h-2.2L247,336h-2.4c-.6,0-.9.3-.9.8s.4.8,1.1.9a8.65,8.65,0,0,1,6.6,4.7c1.5,2.7,2.3,6.5,2.3,11.3v28.1c0,3-.4,5.1-1.2,6.5a8.68,8.68,0,0,1-4.7,3.2c-.8.3-1.2.6-1.2,1s.4.8,1.2.8a9.89,9.89,0,0,0,1.5-.1,30.28,30.28,0,0,1,3.1-.2l2-.1,4.2.2c2.1.1,3.3.2,3.6.2a5.28,5.28,0,0,0,1.2.1c.6,0,.9-.3.9-.8s-.5-.9-1.4-1.1a8.52,8.52,0,0,1-4.4-1.5,6.17,6.17,0,0,1-1.4-3.8l-.1-2.9v-29.8c0-1.2.3-1.9.8-1.9a1.42,1.42,0,0,1,.6.2l.4.5,34.8,39.8.9,1.1a1.88,1.88,0,0,0,1,.4,1.17,1.17,0,0,0,1.2-1A28,28,0,0,0,297,387Z"/><path class="a" d="M357.6,345.52a10.64,10.64,0,0,0-.3-2,26.14,26.14,0,0,1-.2-3.5c0-1.6-.2-2.6-.5-2.9s-1.2-.5-2.8-.5H309.3c-.9,0-1.6.2-1.8.6a4.66,4.66,0,0,0-.4,2.5,25.77,25.77,0,0,1-.6,4.9,21.2,21.2,0,0,0-.5,3.2c0,.7.2,1.1.7,1.1s.9-.5,1.1-1.6c.6-2.5,1.3-4.2,2.3-5.1s2.6-1.3,4.9-1.3h11a3.13,3.13,0,0,1,2,.4c.3.3.4.9.4,1.9v42.1c0,2.3-.4,3.9-1.1,4.8s-2.2,1.5-4.3,1.8c-.9.1-1.4.4-1.4.8q0,.9,1.2.9c.3,0,1.2-.1,2.8-.3a25.32,25.32,0,0,1,2.9-.1h6.2a29.55,29.55,0,0,1,3.7.1,13.49,13.49,0,0,0,2,.3q1.2,0,1.2-.9c0-.5-.5-.8-1.4-.9-3.5-.6-5.3-2.5-5.4-5.8v-42.2a3.82,3.82,0,0,1,.5-2.4,3.66,3.66,0,0,1,2.3-.5h11.6c2.3,0,3.9.3,4.7.9s1.4,1.9,1.7,3.8c.2.9.5,1.3,1,1.3C357.4,346.82,357.7,346.42,357.6,345.52Z"/><path class="a" d="M367.4,389.52c-.6,1.1-2,1.8-4.1,2.2-.9.1-1.3.4-1.3.9s.4.8,1.1.8a15.56,15.56,0,0,0,2-.1l4.9-.3,6,.1a40.18,40.18,0,0,1,4.4.2,9.73,9.73,0,0,0,1.6.1c.9,0,1.3-.3,1.3-1,0-.5-.7-.8-2.1-1a9.41,9.41,0,0,1-3.8-1.2,6.32,6.32,0,0,1-2-3c-.5-1.2-.7-3.8-.7-7.7v-31c0-5.8,1-9.1,3.1-9.9l2.1-.8c.7-.2,1.1-.6,1.1-1.1s-.4-.8-1.1-.8h-1l-2.8.2c-1.5.1-3.2.1-5.2.1a57.89,57.89,0,0,1-8-.4h-.7q-1.2,0-1.2.9c0,.5.5.8,1.3,1,2.6.4,4.2,1.2,5,2.4s1.2,3.5,1.2,6.9v35.4C368.3,386.12,368,388.42,367.4,389.52Z"/><path class="a" d="M389.1,350.62a13.5,13.5,0,0,0,3.8,9.8c2.5,2.5,6.9,4.8,13,6.9,5.9,2,9.5,3.5,10.7,4.6a9.9,9.9,0,0,1,3.6,7.7,10.56,10.56,0,0,1-3.9,8.2,14.43,14.43,0,0,1-9.6,3.4,17.59,17.59,0,0,1-10.4-3.5,16.07,16.07,0,0,1-6.3-8.6c-.4-1.3-.8-2-1.3-2s-.8.4-.8,1.2a24.46,24.46,0,0,0,1.1,5.3c.6,2.3,1,3.5,1,3.8.3,1.5.6,2.5.7,2.9a2.4,2.4,0,0,0,1,1,17.27,17.27,0,0,0,5.6,2.1,30.54,30.54,0,0,0,7,.9c5.9,0,10.7-1.6,14.4-4.9a15.86,15.86,0,0,0,5.6-12.6c0-7.6-5.1-13.1-15.3-16.4a82.14,82.14,0,0,1-9.8-3.6,11.78,11.78,0,0,1-3.7-3.1,9.56,9.56,0,0,1-1.9-6,8.54,8.54,0,0,1,3-6.6,10.64,10.64,0,0,1,7.4-2.6,19.19,19.19,0,0,1,10.2,2.9,13.88,13.88,0,0,1,6,7.4c.4,1.3.9,2,1.3,2,.6,0,.9-.4.9-1.3,0-.2-.1-.8-.2-1.7l-.7-4.3a29,29,0,0,1-.5-4.2c0-1.4-.3-2.1-1-2a.76.76,0,0,0-.5.2l-.6.5a1.43,1.43,0,0,1-1,.4,1.85,1.85,0,0,1-.7-.2l-2.9-1.2a18.34,18.34,0,0,0-7.5-1.3c-5.2,0-9.5,1.4-12.8,4.2A12.88,12.88,0,0,0,389.1,350.62Z"/><path class="a" d="M461,393.32a13.49,13.49,0,0,0,2,.3q1.2,0,1.2-.9c0-.5-.5-.8-1.4-.9-3.5-.6-5.3-2.5-5.4-5.8v-42.2a3.82,3.82,0,0,1,.5-2.4,3.66,3.66,0,0,1,2.3-.5h11.5c2.3,0,3.9.3,4.7.9s1.4,1.9,1.7,3.8c.2.9.5,1.3,1,1.3s.9-.5.9-1.3a10.64,10.64,0,0,0-.3-2,26.14,26.14,0,0,1-.2-3.5c0-1.6-.2-2.6-.5-2.9s-1.2-.5-2.8-.5H431.7c-.9,0-1.6.2-1.8.6a4.66,4.66,0,0,0-.4,2.5,25.77,25.77,0,0,1-.6,4.9,21.2,21.2,0,0,0-.5,3.2c0,.7.3,1.1.7,1.1s.9-.5,1.1-1.6c.6-2.5,1.3-4.2,2.3-5.1s2.6-1.3,4.9-1.3h11a3.13,3.13,0,0,1,2,.4c.3.3.4.9.4,1.9v42.1c0,2.3-.4,3.9-1.1,4.8s-2.2,1.5-4.3,1.8c-.9.1-1.4.4-1.4.8q0,.9,1.2.9c.3,0,1.2-.1,2.8-.3a25.32,25.32,0,0,1,2.9-.1h6.2A22.69,22.69,0,0,1,461,393.32Z"/><path class="a" d="M540.8,336.22a16.24,16.24,0,0,0-1.8.1c-.7.1-2.6.1-5.7.1-1.5,0-2.7-.1-3.8-.2a17,17,0,0,0-2.6-.3.74.74,0,0,0-.8.8q0,.75,1.2.9a6,6,0,0,1,5,2.7q1.5,2.4,1.5,7.5v21.4c0,7.2-1.6,12.7-4.9,16.3s-8.2,5.4-14.7,5.4c-7.3,0-12.6-2.1-15.7-6.4-2.2-3-3.3-8.1-3.3-15.2v-20.8l-.1-2.7a14.34,14.34,0,0,1,.8-5.6,4.57,4.57,0,0,1,3.2-2.1c.9-.2,1.3-.5,1.3-1s-.3-.6-1-.6a19.7,19.7,0,0,0-2.1.1c-1.2.1-2,.2-2.3.2h-6.3c-.6,0-1.5,0-2.8-.1s-2.2-.1-2.9-.1c-1,0-1.6.3-1.6,1,0,.5.4.7,1.1.8,2.5.4,4.1,1.1,4.9,2.2s1.2,3.1,1.2,6.1l.1,2.4v21c0,5.8,1,10.4,2.9,14a18,18,0,0,0,8.2,7.4,29.19,29.19,0,0,0,12.7,2.7,28.53,28.53,0,0,0,11.3-2.3,20.09,20.09,0,0,0,8.2-6.1c3-4.1,4.5-9.8,4.5-17.4v-20.5c0-3.4.2-5.8.7-7a5.68,5.68,0,0,1,3.3-2.9,1.13,1.13,0,0,0,.9-1C541.6,336.42,541.3,336.22,540.8,336.22Z"/><path class="a" d="M71.8,423.12c-4.8-1.6-7.8-2.7-9.1-3.3a10.15,10.15,0,0,1-3.4-2.9,8.66,8.66,0,0,1-1.8-5.5,7.48,7.48,0,0,1,2.8-6,9.91,9.91,0,0,1,6.8-2.4,17.17,17.17,0,0,1,9.4,2.7,13.14,13.14,0,0,1,5.6,6.8q.6,1.8,1.2,1.8c.5,0,.8-.4.8-1.2,0-.2-.1-.7-.2-1.6l-.6-3.9c-.3-2.1-.5-3.4-.5-3.8,0-1.3-.3-1.9-1-1.9-.2,0-.3,0-.4.1l-.5.5a1.22,1.22,0,0,1-.9.4,1.85,1.85,0,0,1-.7-.2l-2.6-1.1a17.76,17.76,0,0,0-6.9-1.2c-4.8,0-8.8,1.3-11.8,3.9a12.37,12.37,0,0,0-4.6,10,12.21,12.21,0,0,0,3.5,9q3.45,3.45,12,6.3,8.1,2.7,9.9,4.2a9.05,9.05,0,0,1,3.3,7.1,9.66,9.66,0,0,1-3.6,7.5,13.06,13.06,0,0,1-8.9,3.1,16.5,16.5,0,0,1-9.6-3.2,14.93,14.93,0,0,1-5.8-7.9c-.4-1.2-.8-1.8-1.2-1.9s-.8.3-.8,1.1a18.78,18.78,0,0,0,1,4.9c.6,2.1.9,3.3,1,3.5a11.63,11.63,0,0,0,.7,2.6,4.06,4.06,0,0,0,.9,1,15.85,15.85,0,0,0,5.2,1.9,25.64,25.64,0,0,0,6.5.8c5.4,0,9.8-1.5,13.3-4.5a14.58,14.58,0,0,0,5.2-11.6C85.9,431.22,81.2,426.22,71.8,423.12Z"/><path class="a" d="M120.8,445.82c-.2,0-.4.2-.6.5-2.1,3.3-6.9,5-14.3,5-2.3,0-3.8-.2-4.4-.6s-.9-1.4-.9-3v-11.4c0-.6.2-1,.5-1.1a3.82,3.82,0,0,1,1.9-.3h6.3a6.33,6.33,0,0,1,3.5.7,4,4,0,0,1,1.4,2.6l.2.8a.66.66,0,0,0,.7.6c.4,0,.6-.2.6-.7a2.81,2.81,0,0,0-.1-.8c-.1-1.1-.2-2.3-.2-3.4a46,46,0,0,1,.3-5v-.6a.7.7,0,0,0-.6-.8c-.4,0-.6.2-.7.7a5.92,5.92,0,0,1-.8,2.4,4.26,4.26,0,0,1-2,.8,29.09,29.09,0,0,1-4.7.3h-4.4a2.37,2.37,0,0,1-1.5-.3c-.2-.2-.2-.7-.2-1.6v-11.4c0-1,.2-1.7.5-1.9a3.85,3.85,0,0,1,2.3-.4H108a27.43,27.43,0,0,1,6,.4,3.27,3.27,0,0,1,2.2,1.7,5.08,5.08,0,0,1,.3,1.7v.7c0,.6.2.9.5.9a.68.68,0,0,0,.6-.4,12.24,12.24,0,0,0,.3-2.1l.1-1.7c.1-1.2.2-2,.2-2.3a1.76,1.76,0,0,0,.1-.6c0-.5-.3-.8-.9-.8a5.39,5.39,0,0,0-1.1.1c-.2,0-.9.1-2,.1l-4,.2c-1.8.1-3.8.1-6.1.1a89.7,89.7,0,0,1-9.8-.5,14.16,14.16,0,0,0-1.9-.1c-.9,0-1.3.3-1.3.8s.3.5.8.5c1.7,0,2.9.5,3.5,1.4s.9,2.8.9,5.5v25.8c0,2.3-.7,3.6-2,4l-1.1.3c-.5.1-.7.4-.7.7s.3.6.9.6c.3,0,.8-.1,1.5-.2a55.87,55.87,0,0,1,7-.3c2.4,0,5.3.2,9,.5a19.43,19.43,0,0,0,2.2.1,8,8,0,0,0,6.3-3c1.4-1.7,2.1-3.2,2.1-4.4C121.4,446,121.2,445.72,120.8,445.82Z"/><path class="a" d="M141,414.22c-1.4,0-2.6,0-3.7.1l-2.6.3c-1.1.1-2.5.1-4.5.1h-2l-2.2-.1c-.5,0-.7.2-.7.6s.3.5.9.6a4.3,4.3,0,0,1,3.2,1.6,7.62,7.62,0,0,1,1,4.2v25.6a9.67,9.67,0,0,1-.6,4.2,3.23,3.23,0,0,1-2.5,1.4c-.5.1-.8.3-.8.6,0,.5.3.7,1,.6a13.69,13.69,0,0,0,1.6-.2,41.06,41.06,0,0,1,5.3-.3q2.85,0,6.6.3c1.2.1,2.1.1,2.6.1a21,21,0,0,0,11.4-3.3,17.85,17.85,0,0,0,6.5-7.1,21.74,21.74,0,0,0,2.3-9.8,18.54,18.54,0,0,0-5.3-13.6C154.5,416.12,148.7,414.22,141,414.22Zm11.9,35.6a16.27,16.27,0,0,1-8.7,2.4,21.49,21.49,0,0,1-4-.4,20.45,20.45,0,0,1-3.8-1,2.27,2.27,0,0,1-1.7-2.4v-29.2c0-1.2.2-1.9.7-2.3.8-.6,2.7-1,5.7-1a17.8,17.8,0,0,1,10.7,3.1,16.33,16.33,0,0,1,5.6,7,22.67,22.67,0,0,1,2.1,9.8C159.4,442.42,157.3,447,152.9,449.82Z"/><path class="a" d="M212.8,452.52a4.62,4.62,0,0,1-2.9-1.2,5,5,0,0,1-.8-3.1l-.1-3.6-.5-15.4-.2-6.8a13.3,13.3,0,0,1,.6-4.7,3,3,0,0,1,2-1.8l1.2-.3a.66.66,0,0,0,.6-.7.53.53,0,0,0-.6-.6,2.49,2.49,0,0,0-.8.1,23.59,23.59,0,0,1-2.9.1h-.9a8.33,8.33,0,0,0-1.2-.1,1.55,1.55,0,0,0-.8.2,3.19,3.19,0,0,0-.6,1.1l-13.3,28.5-.3.6-.3.8c-.2.4-.3.5-.4.5s-.2-.2-.5-.7l-1.4-2.9L176.9,417l-.3-.7c-.5-1.2-1.2-1.8-2-1.8a3.75,3.75,0,0,0-1,.1c-.4,0-1.4.1-2.9.1a7.71,7.71,0,0,1-1.9-.1,5.53,5.53,0,0,1-.9-.1c-.5,0-.7.2-.7.6s.3.6.9.7a6.16,6.16,0,0,1,4.5,3c.9,1.6,1.3,4.1,1.3,7.5,0,1.6-.1,5.3-.4,11.3l-.4,8.2c-.1,2.3-.4,4-1,4.9a3.9,3.9,0,0,1-2.9,1.9c-.5.1-.7.3-.7.6s.3.6.8.6a3.45,3.45,0,0,0,.9-.1,26,26,0,0,1,4-.3c1.2,0,2.8.1,4.9.3.3,0,.7.1,1,.1.5,0,.8-.2.8-.6s-.6-.6-1.7-.8c-2.3-.4-3.5-2.2-3.5-5.5,0-3.5,0-5.8.1-6.9l.7-14,10.7,23,.6,1.2c.5.9.7,1.4.8,1.6.4.9.8,1.4,1.3,1.4s.8-.4,1.2-1.3c.1-.2.3-.6.5-1.1q.6-1.2,1.5-3.3c1.4-3.2,2.2-5,2.4-5.3l2.9-5.9,2.5-5.4c.5-1.1,1.6-3.1,3.2-5.9l.7,18,.1,4.6a7.77,7.77,0,0,1-.6,3.6,3.37,3.37,0,0,1-2.2,1.5c-.5.1-.7.3-.7.6s.3.5.8.5c.3,0,1.4-.1,3.4-.2,1.3-.1,2.2-.1,2.8-.1a19.27,19.27,0,0,1,2.4.1l2.2.2h.7c.7,0,1-.2,1-.6A3.42,3.42,0,0,0,212.8,452.52Z"/><path class="a" d="M247.7,445.82c-.2,0-.4.2-.6.5-2.1,3.3-6.9,5-14.3,5-2.3,0-3.8-.2-4.4-.6s-.9-1.4-.9-3v-11.4c0-.6.2-1,.5-1.1a3.82,3.82,0,0,1,1.9-.3h6.3a6.33,6.33,0,0,1,3.5.7,4,4,0,0,1,1.4,2.6l.2.8a.66.66,0,0,0,.7.6c.4,0,.6-.2.6-.7a2.81,2.81,0,0,0-.1-.8c-.1-1.1-.2-2.3-.2-3.4,0-1.5.1-3.2.2-5v-.6a.7.7,0,0,0-.6-.8c-.4,0-.6.2-.7.7a5.92,5.92,0,0,1-.8,2.4,4.26,4.26,0,0,1-2,.8,29.09,29.09,0,0,1-4.7.3h-4.4a2.37,2.37,0,0,1-1.5-.3c-.2-.2-.2-.7-.2-1.6v-11.4c0-1,.2-1.7.5-1.9a3.85,3.85,0,0,1,2.3-.4h4.4a27.43,27.43,0,0,1,6,.4A3.27,3.27,0,0,1,243,419a5.08,5.08,0,0,1,.3,1.7v.7q0,.9.6.9a.68.68,0,0,0,.6-.4,12.24,12.24,0,0,0,.3-2.1l.1-1.7c.1-1.2.2-2,.2-2.3a1.76,1.76,0,0,0,.1-.6c0-.5-.3-.8-.9-.8a5.39,5.39,0,0,0-1.1.1c-.2,0-.9.1-2,.1l-4,.2c-1.8.1-3.8.1-6.1.1a89.7,89.7,0,0,1-9.8-.5,14.16,14.16,0,0,0-1.9-.1c-.9,0-1.3.3-1.3.8s.3.5.8.5c1.7,0,2.9.5,3.5,1.4s.9,2.8.9,5.5v25.8c0,2.3-.7,3.6-2,4l-1.1.3c-.5.1-.7.4-.7.7s.3.6.9.6c.3,0,.8-.1,1.5-.2a55.87,55.87,0,0,1,7-.3c2.4,0,5.3.2,9,.5a19.43,19.43,0,0,0,2.2.1,8,8,0,0,0,6.3-3c1.4-1.7,2.1-3.2,2.1-4.4C248.2,446,248.1,445.72,247.7,445.82Z"/><path class="a" d="M237.2,403.82a13.66,13.66,0,0,0-2.6.1,1.2,1.2,0,0,0-.7.7l-.7,1.5c-.2.4-.5,1.1-1.1,2.3l-.6,1.3a3,3,0,0,0-.3,1.1c0,.4.2.6.5.6a5.74,5.74,0,0,0,2-1.1l3.7-4.1.4-.5a1.2,1.2,0,0,0,.4-.8A.89.89,0,0,0,237.2,403.82Z"/><path class="a" d="M291,452.62c-1.6-.2-2.7-.6-3.3-1.4s-.8-2.2-.8-4.2v-27.4a5.14,5.14,0,0,1,.6-2.5,2.67,2.67,0,0,1,1.5-1.3l1.2-.3c.5-.1.7-.3.7-.6s-.2-.6-.7-.6a4.59,4.59,0,0,0-1,.1,36.61,36.61,0,0,1-4.3.2c-1.4,0-2.7-.1-4-.2a15.77,15.77,0,0,0-1.9-.1c-.5,0-.7.2-.7.5s.3.6.8.7a4.37,4.37,0,0,1,2.8,1.7,8.35,8.35,0,0,1,.8,4.2v9.7c0,.5-.1.9-.3,1a4.66,4.66,0,0,1-1.6.2H264.1a4,4,0,0,1-2.1-.3,3.56,3.56,0,0,1-.3-1.9v-10.2a4.74,4.74,0,0,1,.7-3,4.23,4.23,0,0,1,2.6-1.4c.5-.1.8-.3.8-.6s-.3-.6-.8-.6a5.74,5.74,0,0,0-1.2.1c-1.2.1-2.4.2-3.8.2a39.43,39.43,0,0,1-5.2-.3c-.8-.1-1.3-.1-1.7-.2s-.7.2-.7.6.3.5.8.6a4.66,4.66,0,0,1,3.3,1.5,5.57,5.57,0,0,1,.9,3.6v24.4a22.93,22.93,0,0,1-.5,5.6,2.39,2.39,0,0,1-1.7,1.9l-1.4.3c-.5.1-.7.3-.7.7s.2.5.7.5a17.36,17.36,0,0,0,1.8-.1,12.14,12.14,0,0,1,1.8-.1l1.9-.1h2.4a25.67,25.67,0,0,1,3.4.1,8.8,8.8,0,0,0,1.4.1c.6,0,.8-.2.8-.6s-.4-.6-1.1-.7a5,5,0,0,1-3.5-1.5,7.1,7.1,0,0,1-.9-4.1v-10.4c0-.9.1-1.4.4-1.7a4,4,0,0,1,2-.3h16.7a4.51,4.51,0,0,1,1.7.2c.2.1.3.7.3,1.6v11.5c0,2.9-1,4.5-3,4.9-.6.1-.9.3-1,.6s.2.6.7.6c.1,0,.8,0,2-.1a7.61,7.61,0,0,1,1.4-.1l2.1-.1h2.1a18,18,0,0,1,2.8.1,8.64,8.64,0,0,0,1.5.1c.6,0,.8-.2.8-.7A4,4,0,0,0,291,452.62Z"/><path class="a" d="M317.2,413.92a22.38,22.38,0,0,0-8.4,1.6,17.7,17.7,0,0,0-10.7,10.7,21.08,21.08,0,0,0-1.5,7.7c0,6,1.9,10.9,5.7,14.6s8.7,5.6,14.8,5.6a19.74,19.74,0,0,0,14.7-5.8c3.8-3.9,5.7-8.8,5.7-14.9a18.46,18.46,0,0,0-5.7-14A20.5,20.5,0,0,0,317.2,413.92Zm11.8,33.8a14,14,0,0,1-10.9,4.8,15.48,15.48,0,0,1-12.2-5.9,21.65,21.65,0,0,1-5-14.5c0-5,1.3-9,3.9-11.9s6.1-4.4,10.5-4.4a16.75,16.75,0,0,1,12.8,5.6,20.37,20.37,0,0,1,5.1,14.1C333.3,440.52,331.9,444.52,329,447.72Z"/><path class="a" d="M378.5,400.72c-1.8,0-3.5.1-5,.2l-3.5.3c-1.4.1-3.4.2-6,.2h-2.7l-3-.1c-.7,0-1,.2-1,.7s.4.7,1.3.8a5.75,5.75,0,0,1,4.3,2.1c.9,1.2,1.3,3.1,1.3,5.6v34.3c0,2.8-.3,4.7-.8,5.6s-1.6,1.5-3.3,1.9c-.7.1-1.1.4-1.1.9s.4.9,1.3.9c.5,0,1.3-.1,2.2-.2a49.55,49.55,0,0,1,7.1-.4c2.5,0,5.5.1,8.9.3,1.7.1,2.8.2,3.5.2a28.65,28.65,0,0,0,15.3-4.4,24.19,24.19,0,0,0,8.7-9.5,27.93,27.93,0,0,0,3.1-13.2c0-7.4-2.4-13.5-7.1-18.3C396.7,403.42,388.9,400.72,378.5,400.72Zm16,47.8a21.54,21.54,0,0,1-11.7,3.3,29.5,29.5,0,0,1-5.3-.6,35.65,35.65,0,0,1-5.2-1.3,3.21,3.21,0,0,1-2.3-3.2v-39.2c0-1.6.3-2.6,1-3.1,1.1-.9,3.6-1.3,7.6-1.3a22.66,22.66,0,0,1,21.9,13.6,31.72,31.72,0,0,1,2.8,13.1C403.3,438.72,400.4,444.92,394.5,448.52Z"/><path class="a" d="M451.6,414.42a11.47,11.47,0,0,0-1.4.2,19.1,19.1,0,0,1-2.8.2c-2.2,0-3.9-.1-5.2-.2-.6,0-.9-.1-1.2-.1-.5,0-.8.2-.8.5s.3.6.8.7a7.57,7.57,0,0,1,4,1.5,5.66,5.66,0,0,1,1.4,3.4l.3,6.5v17.8c0,.3-.1.5-.3.5s-.4-.2-.8-.7l-26.1-29.5a2.05,2.05,0,0,0-1.4-.8h-1.5l-1.9-.1H413c-.4,0-.6.2-.6.5s.3.6.8.6a5.75,5.75,0,0,1,4.5,3.2,16.64,16.64,0,0,1,1.6,7.7v19.3a9.55,9.55,0,0,1-.8,4.4,6.24,6.24,0,0,1-3.2,2.2c-.5.2-.8.4-.8.7s.3.5.8.5a4.14,4.14,0,0,0,1-.1,14.77,14.77,0,0,1,2.1-.1l1.4-.1,2.9.1a19.12,19.12,0,0,1,2.5.2c.3,0,.6.1.8.1a.53.53,0,0,0,.6-.6c0-.4-.3-.6-.9-.7a6.4,6.4,0,0,1-3-1,4.54,4.54,0,0,1-1-2.6l-.1-2v-20.4c0-.9.2-1.3.5-1.3a.52.52,0,0,1,.4.2l.3.3,23.9,27.3.6.7c.1.2.4.2.7.3a.76.76,0,0,0,.8-.7,32.62,32.62,0,0,0,.1-3.9v-23.8l.1-1.9v-3.1a7.7,7.7,0,0,1,.6-3.7,3.28,3.28,0,0,1,2.3-1.4c.4-.1.6-.3.6-.5A1.55,1.55,0,0,0,451.6,414.42Z"/><path class="a" d="M487,445.82c-.2,0-.4.2-.6.5-2.1,3.3-6.9,5-14.3,5-2.3,0-3.8-.2-4.4-.6s-.9-1.4-.9-3v-11.4c0-.6.2-1,.5-1.1a3.82,3.82,0,0,1,1.9-.3h6.3a6.33,6.33,0,0,1,3.5.7,4,4,0,0,1,1.4,2.6l.2.8a.66.66,0,0,0,.7.6c.4,0,.6-.2.6-.7a2.81,2.81,0,0,0-.1-.8c-.1-1.1-.2-2.3-.2-3.4a46,46,0,0,1,.3-5v-.6a.7.7,0,0,0-.6-.8c-.4,0-.6.2-.7.7a5.92,5.92,0,0,1-.8,2.4,4.26,4.26,0,0,1-2,.8,29.09,29.09,0,0,1-4.7.3h-4.4a2.37,2.37,0,0,1-1.5-.3c-.2-.2-.2-.7-.2-1.6v-11.4c0-1,.2-1.7.5-1.9a3.85,3.85,0,0,1,2.3-.4h4.4a27.43,27.43,0,0,1,6,.4,3.27,3.27,0,0,1,2.2,1.7,5.08,5.08,0,0,1,.3,1.7v.7c0,.6.2.9.5.9a.68.68,0,0,0,.6-.4,12.24,12.24,0,0,0,.3-2.1l.1-1.7c.1-1.2.2-2,.2-2.3a1.76,1.76,0,0,0,.1-.6c0-.5-.3-.8-.9-.8a5.39,5.39,0,0,0-1.1.1c-.2,0-.9.1-2,.1l-4,.2c-1.8.1-3.8.1-6.1.1a91.11,91.11,0,0,1-9.8-.5,14.16,14.16,0,0,0-1.9-.1c-.9,0-1.3.3-1.3.8s.3.5.8.5c1.7,0,2.9.5,3.5,1.4s.9,2.8.9,5.5v25.8c0,2.3-.7,3.6-2,4l-1.1.3c-.5.1-.7.4-.7.7s.3.6.9.6c.3,0,.8-.1,1.5-.2a55.87,55.87,0,0,1,7-.3c2.4,0,5.3.2,9,.5a19.43,19.43,0,0,0,2.2.1,8,8,0,0,0,6.3-3c1.4-1.7,2.1-3.2,2.1-4.4C487.5,446,487.3,445.72,487,445.82Z"/><path class="a" d="M513.5,334.72c4.9,0,8.4-3.3,8.4-7.5s-3.1-7.6-8.4-7.6-8.5,3.5-8.5,7.7C505,331.32,508.4,334.72,513.5,334.72Zm-.1-12.1c2.5,0,4.1,2,4.1,4.5a4.11,4.11,0,1,1-8.2.2C509.3,324.82,510.8,322.62,513.4,322.62Z"/><path class="a" d="M254.5,242.22v-30H239.4v-10.6h15.1v-1c0-10.7-4.9-18.5-38.8-12.6l-55.7,9.9-32,44.4,76.9-13.6C227.9,224.72,248.1,223.92,254.5,242.22Z"/><path class="a" d="M291,200.32c-17.5,17.5-26,27.4-26,41.9,6.7-19.2,27.9-17.5,52.9-12.7l73.8,12.7-32.1-44.4-56.3-9.9Z"/><path class="a" d="M292.4,171.92c-6.8,6.8-18.7,17.6-24.3,29.6h12.4l14.2-14.2c13.1-13.1,23.2-23.1,27.5-35.7a45.16,45.16,0,0,0,2.4-22.9c-.3-2.5-1.4-6-1.4-5.3-1.3,14.2-5.2,22.8-25.9,43.5Z"/><path class="a" d="M253.6,84.42c7.6-7.6,26.8-24.8,26.8-39.7V28.22c0-.2-.3-.1-.3,0-1.3,11.1-4,15.9-31.1,43.1l-26.8,26.8c-14.2,14.2-25.7,29.3-24.2,46.1.8,9.5,4,14.6,6.1,16.1,1,.7.8.2.5-.4-8.2-18.5,11.3-37.7,21-47.4Z"/><path class="a" d="M280.4,72.92V56.42c0-.2-.3-.1-.3,0-1.3,11.1-4,15.9-31.1,43.1l-24.9,24.9c-9,9-17.3,18.5-16.9,33.8.2,9.4,4.9,17.1,12,19,2.9.6,2.7.3,2,0-10-4.7-9.3-22.8,6.9-39l25.5-25.5C261.3,105,280.4,87.82,280.4,72.92Z"/><path class="a" d="M196.5,131.12c1.3-14.2,5.2-22.8,25.9-43.5l31.2-31.3c7.6-7.6,26.8-24.8,26.8-39.7V.12c0-.2-.3-.1-.3,0-1.3,11.1-4,15.9-31.1,43.1l-24,24.1c-13.1,13.1-23.2,23.1-27.5,35.7a45.16,45.16,0,0,0-2.4,22.9C195.4,128.32,196.4,131.92,196.5,131.12Z"/><path class="a" d="M265.3,228.62a34.69,34.69,0,0,1,6.5-16.4h-6.9v16.4C265,228.72,265.3,228.72,265.3,228.62Z"/><path class="a" d="M297.4,138.82l-7.9,7.9c-12.2,12.1-24.5,25.6-24.5,38.2v16.7c0,.1.3.1.4,0,1.3-12.2,7.2-20,24.8-37.6l7.3-7.3c14.2-14.2,25.7-29.3,24.2-46.1-.8-9.5-4-14.6-6.1-16.1-1-.7-.8-.2-.5.4C323.2,113.32,303.7,132.52,297.4,138.82Z"/><path class="a" d="M265,172.72c0,.1.3.1.4,0,1.4-11.6,8-20.4,23.1-35.5l7.2-7.2c9-9,17.2-18.5,16.8-33.7-.2-9.4-4.9-17.1-12-19-2.9-.6-2.7-.2-2,0,10,4.7,9.3,22.8-6.9,39l-8.9,8.9c-5.7,5.8-17.6,18.6-17.6,30.6v16.9Z"/><path class="a" d="M385.9,211.92h.3c.4.1.5.3.5.8V217a2.53,2.53,0,0,1-.1,1.1,1,1,0,0,1-.5.4.2.2,0,0,0,0,.4h2.5c.2,0,.3-.1.3-.2s-.1-.2-.3-.2a1,1,0,0,1-.8-.3,1.29,1.29,0,0,1-.2-.8v-1.9h.8a.52.52,0,0,1,.4.2l.1.1,1.3,2a2,2,0,0,0,1.7,1.1c.5,0,.8-.1.8-.3s0-.2-.2-.2h-.2c-.4,0-.8-.3-1.2-1l-.2-.3-1.4-2.1a2.16,2.16,0,0,0,1.3-1.9c0-1.3-.9-1.9-2.6-1.9h-2.5c-.2,0-.2.1-.2.2A1.13,1.13,0,0,0,385.9,211.92Zm2.3.1a2.11,2.11,0,0,1,1.3.5,1.66,1.66,0,0,1,.5,1.2,1.27,1.27,0,0,1-1.4,1.4h-.9c-.1,0,0-.1,0-.3v-2.5C387.7,212.12,387.8,212,388.2,212Z"/><path class="a" d="M388.9,221.52a5.83,5.83,0,0,0,4.5-1.9,6.19,6.19,0,0,0,1.9-4.5,5.83,5.83,0,0,0-1.9-4.5,6.19,6.19,0,0,0-4.5-1.9,5.79,5.79,0,0,0-4.8,2.2,6.35,6.35,0,0,0,0,8.2A5.46,5.46,0,0,0,388.9,221.52Zm-4-10.3a5.56,5.56,0,1,1-1.7,4A5.44,5.44,0,0,1,384.9,211.22Z"/><path class="a" d="M555.7,339.22h-.2c-.4,0-.8-.3-1.2-1l-.2-.3-1.4-2.1A2.14,2.14,0,0,0,554,334c0-1.3-.9-1.9-2.6-1.9h-2.5c-.2,0-.2.1-.2.2a.22.22,0,0,0,.2.2h.3c.4.1.5.3.5.8v4.3a2.53,2.53,0,0,1-.1,1.1,1,1,0,0,1-.5.4.2.2,0,1,0,0,.4h2.5c.2,0,.3-.1.3-.2s-.1-.2-.3-.2c-.4,0-.6-.1-.7-.3a1.29,1.29,0,0,1-.2-.8v-2h.8a.52.52,0,0,1,.4.2l.1.1,1.3,2a2,2,0,0,0,1.7,1.1c.5,0,.8-.1.8-.3C555.9,339.22,555.8,339.22,555.7,339.22Zm-4-3.6h-.9V333c0-.3.2-.4.5-.4a2.11,2.11,0,0,1,1.3.5,1.35,1.35,0,0,1,.5,1.2C553.1,335.22,552.6,335.62,551.7,335.62Z"/><path class="a" d="M556.5,331.42a6.19,6.19,0,0,0-4.5-1.9,5.79,5.79,0,0,0-4.8,2.2,6.35,6.35,0,0,0,0,8.2,6.06,6.06,0,0,0,4.8,2.2,5.83,5.83,0,0,0,4.5-1.9,6.19,6.19,0,0,0,1.9-4.5A6.53,6.53,0,0,0,556.5,331.42Zm-.6,8.5a5.56,5.56,0,1,1,1.7-4A5.23,5.23,0,0,1,555.9,339.92Z"/></svg>