<svg xmlns="http://www.w3.org/2000/svg" viewBox="0 0 587.18 299.08"><defs><style>.a{fill:#fff;}</style></defs><title>Asset 1</title><path class="a" d="M118.6,240.28a1.55,1.55,0,0,0,.8.8,14.58,14.58,0,0,0,4.5,1.7,23.17,23.17,0,0,0,5.6.7,16.87,16.87,0,0,0,11.5-3.9,12.79,12.79,0,0,0,4.5-10.1c0-6.1-4.1-10.4-12.2-13.1a68.47,68.47,0,0,1-7.9-2.9,8.73,8.73,0,0,1-3-2.5,7.7,7.7,0,0,1-1.6-4.8,6.59,6.59,0,0,1,2.4-5.2,8.7,8.7,0,0,1,5.9-2.1,15,15,0,0,1,8.1,2.3,11,11,0,0,1,4.8,5.9c.4,1.1.7,1.6,1.1,1.6s.7-.3.7-1c0-.2-.1-.6-.2-1.4l-.5-3.4a30.31,30.31,0,0,1-.4-3.3c0-1.1-.3-1.6-.8-1.6-.2,0-.3,0-.4.1l-.5.4a1.33,1.33,0,0,1-.8.3,1.27,1.27,0,0,1-.6-.1l-2.3-1a15.06,15.06,0,0,0-6-1,15.24,15.24,0,0,0-10.3,3.4,10.76,10.76,0,0,0-4,8.7,10.25,10.25,0,0,0,3.1,7.8c2,2,5.5,3.8,10.4,5.5,4.7,1.6,7.6,2.8,8.6,3.7A8,8,0,0,1,142,232a8.14,8.14,0,0,1-3.1,6.5,11.49,11.49,0,0,1-7.7,2.7,14.2,14.2,0,0,1-13.3-9.7c-.3-1.1-.7-1.6-1.1-1.6s-.7.3-.7,1a17.47,17.47,0,0,0,.9,4.2c.5,1.8.8,2.8.8,3A19.94,19.94,0,0,0,118.6,240.28Z"/><path class="a" d="M195.4,244.08c.3,0,.7-.4,1-1.2l12.2-28.6.7-1.6a4.42,4.42,0,0,1,2.7-2.8c.3-.1.5-.3.5-.5s-.2-.4-.5-.4h-4.8c-.2,0-1,0-2.2-.1h-.7c-.5,0-.8.2-.8.5s.4.5,1.4.7a2.11,2.11,0,0,1,1.5.6,1.6,1.6,0,0,1,.4,1.1c0,1.6-1.2,5.1-3.5,10.6l-5.4,12.8-.4.9c-.4.9-.7,1.4-.9,1.4s-.4-.2-.6-.8L186.6,215a9.61,9.61,0,0,1-1-3.4,1.22,1.22,0,0,1,.3-.9,3.12,3.12,0,0,1,1.3-.6c.3-.1.5-.3.5-.5s-.2-.5-.7-.5h-.7a10.37,10.37,0,0,1-1.6.1h-6c-.1,0-.2-.1-.4,0h-.6a.75.75,0,0,0-.5.1h-.1c-.5,0-1.5.1-3.2.1a24.78,24.78,0,0,1-3.4-.1,7.78,7.78,0,0,0-1.3-.1c-.4,0-.5.1-.6.4s.2.5.6.6c2.1.5,3.1,1.3,3.1,2.4,0,.6-.6,1.8-1.7,3.7l-1.2,1.9-3.6,5.4-.2.4c-.2.2-.3.3-.5.3a.54.54,0,0,1-.4-.3l-.3-.5-5.2-8.1-.7-1.2a5.75,5.75,0,0,1-1.1-2.4c0-.8.5-1.3,1.6-1.7.4-.1.6-.3.6-.5s-.2-.5-.7-.5a9.29,9.29,0,0,0-1.3.1c-.7.1-2.2.1-4.6.1a32.5,32.5,0,0,1-3.3-.2,4.87,4.87,0,0,0-1.2-.1c-.5,0-.8.2-.8.5s.2.4.7.4a5.09,5.09,0,0,1,2.6.7,5.24,5.24,0,0,1,2,1.9l.8,1.4,6.9,10.9a10.81,10.81,0,0,1,1.1,2.1,12.14,12.14,0,0,1,.2,2.3v8.4c0,1.8-.2,2.9-.6,3.4a3.94,3.94,0,0,1-2.6,1.1c-.5.1-.8.3-.8.6s.2.4.6.4a3.87,3.87,0,0,0,.9-.1,13.58,13.58,0,0,1,2.4-.1l1.9-.1,1.9.1c.8,0,1.4.1,1.8.1a8.47,8.47,0,0,0,1.3.1q.9,0,.9-.6c0-.3-.3-.5-.8-.5q-2.25-.15-2.7-.9a7.53,7.53,0,0,1-.5-3.5v-10.3a4.23,4.23,0,0,1,.9-2.4l.6-.8,6-8.9,1.6-2.4a7.34,7.34,0,0,1,3.4-2.7c.2,0,.3.1.5.1a2.94,2.94,0,0,1,1.9,1,10.91,10.91,0,0,1,1.6,2.8l12.5,28.9C194.7,243.67,195.1,244.08,195.4,244.08Z"/><path class="a" d="M237.7,240.47c1.2-1.5,1.8-2.7,1.8-3.8,0-.4-.2-.7-.5-.6s-.4.2-.6.4c-1.8,2.9-6,4.3-12.4,4.3a9.24,9.24,0,0,1-3.8-.5c-.5-.3-.7-1.2-.7-2.6v-9.9a1.05,1.05,0,0,1,.4-1,3.22,3.22,0,0,1,1.6-.2h5.4a5.62,5.62,0,0,1,3,.6,3.13,3.13,0,0,1,1.2,2.2l.1.7c.1.4.3.5.6.5s.5-.2.5-.6v-.7c-.1-1-.1-2-.1-3,0-1.3.1-2.8.2-4.3v-.5a.67.67,0,0,0-.5-.7q-.45,0-.6.6a6.08,6.08,0,0,1-.7,2.1,3.42,3.42,0,0,1-1.7.7,22.18,22.18,0,0,1-4.1.3h-3.7a3.09,3.09,0,0,1-1.3-.2,3.33,3.33,0,0,1-.2-1.4V213c0-.9.1-1.4.4-1.7s.9-.4,2-.4h3.9a20.48,20.48,0,0,1,5.2.4,2.47,2.47,0,0,1,1.9,1.5,4,4,0,0,1,.3,1.5v.6c0,.5.2.8.5.7a.55.55,0,0,0,.6-.4,7.58,7.58,0,0,0,.3-1.8l.1-1.4a15.43,15.43,0,0,1,.2-2c0-.2.1-.4.1-.6,0-.5-.3-.7-.8-.7a4.59,4.59,0,0,0-1,.1c-.2,0-.8.1-1.8.1l-3.5.2c-1.5.1-3.3.1-5.3.1a70.21,70.21,0,0,1-8.5-.4,10.37,10.37,0,0,0-1.6-.1c-.7,0-1.1.2-1.1.7,0,.3.2.5.7.5q2.25,0,3,1.2a9.84,9.84,0,0,1,.8,4.7v22.4c0,2-.6,3.1-1.8,3.4l-.9.3q-.6.15-.6.6c0,.4.3.5.8.5.2,0,.7-.1,1.3-.2a42.06,42.06,0,0,1,6.1-.3c2,0,4.6.1,7.8.4a14.16,14.16,0,0,0,1.9.1A5.93,5.93,0,0,0,237.7,240.47Z"/><path class="a" d="M252.5,241.87a5.08,5.08,0,0,1-2.6-.9,3.76,3.76,0,0,1-.8-2.2l-.1-1.7v-17.7c0-.7.2-1.1.5-1.1a.37.37,0,0,1,.3.1l.2.3,20.7,23.7.5.6a.85.85,0,0,0,.6.2.66.66,0,0,0,.7-.6,23.9,23.9,0,0,0,.1-3.4v-24.9a7.48,7.48,0,0,1,.5-3.2,2.67,2.67,0,0,1,2-1.2c.3-.1.5-.3.5-.5s-.3-.5-.7-.5a5.74,5.74,0,0,0-1.2.1,16.28,16.28,0,0,1-2.4.1c-1.9,0-3.4-.1-4.5-.2-.5,0-.8-.1-1-.1-.5,0-.7.2-.7.5s.2.5.7.6a6.89,6.89,0,0,1,3.5,1.3,4.64,4.64,0,0,1,1.2,3l.3,5.7v15.5c0,.3-.1.5-.3.5s-.3-.2-.7-.6l-22.6-25.6a1.55,1.55,0,0,0-1.2-.7h-4.3c-.4,0-.5.2-.5.5s.2.5.7.6a5.09,5.09,0,0,1,3.9,2.8,13.92,13.92,0,0,1,1.4,6.7v16.7a7.07,7.07,0,0,1-.7,3.8,5.13,5.13,0,0,1-2.8,1.9c-.5.2-.7.4-.7.6s.3.5.7.5a3.45,3.45,0,0,0,.9-.1,10.87,10.87,0,0,1,1.8-.1h1.2l2.5.1c1.2.1,2,.1,2.1.1h.7a.47.47,0,0,0,.5-.5C253.4,242.08,253.1,241.87,252.5,241.87Z"/><path class="a" d="M284,240.78c-.3.6-1,1-2.2,1.2-.5.1-.7.3-.7.6s.3.6.9.6c.3,0,.8-.1,1.4-.1a30.37,30.37,0,0,1,4.6-.3c1.6,0,3.5.1,5.7.2a23,23,0,0,0,2.3.1,18.09,18.09,0,0,0,9.9-2.8,15,15,0,0,0,5.6-6.1,18.67,18.67,0,0,0,2-8.5,15.9,15.9,0,0,0-4.6-11.8c-3.4-3.4-8.4-5.1-15.1-5.1a31.13,31.13,0,0,0-3.2.1l-2.3.2c-.9.1-2.2.1-3.9.1h-1.7l-1.9-.1c-.4,0-.6.2-.6.5s.3.5.8.5a3.64,3.64,0,0,1,2.8,1.4,6,6,0,0,1,.8,3.6v22.1A10.71,10.71,0,0,1,284,240.78Zm4.3-27.7a2.51,2.51,0,0,1,.6-2c.7-.6,2.3-.8,4.9-.8a15.93,15.93,0,0,1,9.3,2.7,14.93,14.93,0,0,1,4.9,6.1,19.93,19.93,0,0,1,1.8,8.5q0,8.55-5.7,12a14,14,0,0,1-7.6,2.1,15.46,15.46,0,0,1-3.4-.4,12,12,0,0,1-3.3-.9,2.13,2.13,0,0,1-1.5-2.1Z"/><path class="a" d="M321.8,238.17c0,2-.6,3.1-1.8,3.4l-.9.3q-.6.15-.6.6c0,.4.3.5.8.5.2,0,.7-.1,1.3-.2a42.06,42.06,0,0,1,6.1-.3c2,0,4.6.1,7.8.4a14.16,14.16,0,0,0,1.9.1,7.06,7.06,0,0,0,5.5-2.6c1.2-1.5,1.8-2.7,1.8-3.8,0-.4-.2-.7-.5-.6s-.4.2-.6.4c-1.8,2.9-6,4.3-12.4,4.3a9.24,9.24,0,0,1-3.8-.5c-.5-.3-.7-1.2-.7-2.6v-9.9a1.05,1.05,0,0,1,.4-1,3.22,3.22,0,0,1,1.6-.2h5.4a5.62,5.62,0,0,1,3,.6,3.13,3.13,0,0,1,1.2,2.2l.1.7c.1.4.3.5.6.5s.5-.2.5-.6v-.7c-.1-1-.1-2-.1-3,0-1.3.1-2.8.2-4.3v-.5a.67.67,0,0,0-.5-.7q-.45,0-.6.6a6.08,6.08,0,0,1-.7,2.1,3.42,3.42,0,0,1-1.7.7,22.18,22.18,0,0,1-4.1.3h-3.9a3.09,3.09,0,0,1-1.3-.2,3.33,3.33,0,0,1-.2-1.4v-9.9c0-.9.1-1.4.4-1.7s.9-.4,2-.4h3.9a20.48,20.48,0,0,1,5.2.4,2.47,2.47,0,0,1,1.9,1.5,4,4,0,0,1,.3,1.5v.6c0,.5.2.8.5.7a.55.55,0,0,0,.6-.4,7.58,7.58,0,0,0,.3-1.8l.1-1.4a15.43,15.43,0,0,1,.2-2c0-.2.1-.4.1-.6,0-.5-.3-.7-.8-.7a4.59,4.59,0,0,0-1,.1c-.2,0-.8.1-1.8.1l-3.5.2c-1.5.1-3.3.1-5.3.1a70.21,70.21,0,0,1-8.5-.4,10.37,10.37,0,0,0-1.6-.1c-.7,0-1.1.2-1.1.7,0,.3.2.5.7.5q2.25,0,3,1.2a9.84,9.84,0,0,1,.8,4.7v20.8Z"/><path class="a" d="M350.8,240.78c-.3.6-1,1-2.2,1.2-.5.1-.7.3-.7.6s.3.6.9.6c.3,0,.8-.1,1.4-.1a30.37,30.37,0,0,1,4.6-.3c1.6,0,3.5.1,5.7.2a23,23,0,0,0,2.3.1,18.09,18.09,0,0,0,9.9-2.8,15,15,0,0,0,5.6-6.1,18.67,18.67,0,0,0,2-8.5,15.9,15.9,0,0,0-4.6-11.8c-3.4-3.4-8.4-5.1-15.1-5.1a31.13,31.13,0,0,0-3.2.1l-2.3.2c-.9.1-2.2.1-3.9.1h-1.7l-1.9-.1c-.4,0-.6.2-.6.5s.3.5.8.5a3.64,3.64,0,0,1,2.8,1.4,6,6,0,0,1,.8,3.6v22.1A10.71,10.71,0,0,1,350.8,240.78Zm4.2-27.7a2.51,2.51,0,0,1,.6-2c.7-.6,2.3-.8,4.9-.8a15.93,15.93,0,0,1,9.3,2.7,14.93,14.93,0,0,1,4.9,6.1,19.93,19.93,0,0,1,1.8,8.5q0,8.55-5.7,12a14,14,0,0,1-7.6,2.1,15.46,15.46,0,0,1-3.4-.4,12,12,0,0,1-3.3-.9,2.13,2.13,0,0,1-1.5-2.1Z"/><path class="a" d="M413.8,241.87a7.49,7.49,0,0,1-3.1-1.1c-.5-.4-1.1-1.7-1.9-3.7l-.5-1.3-10.6-27.1c-.2-.5-.4-.7-.7-.7s-.5.2-.7.7l-12.6,28.1-.7,1.6a10.23,10.23,0,0,1-1.4,2.2,4.14,4.14,0,0,1-1.3,1.2l-.9.3a.51.51,0,0,0-.4.5c0,.3.2.5.7.5a12.53,12.53,0,0,0,1.4-.1h1.1a22.63,22.63,0,0,1,2.7.1l2.4.1h.8c.5,0,.7-.1.7-.4s-.3-.5-.8-.6a4.55,4.55,0,0,1-2.3-.9,2.06,2.06,0,0,1-.6-1.7,11.56,11.56,0,0,1,1.1-3.7l1.6-3.6a5.79,5.79,0,0,1,1.2-2,5,5,0,0,1,2.3-.3h8.9a5,5,0,0,1,1.7.2,3.63,3.63,0,0,1,.8,1.6l1.2,3.2a18.65,18.65,0,0,1,1.5,5.2,1.5,1.5,0,0,1-1.2,1.7l-.8.2c-.4.1-.6.2-.6.5s.2.5.6.5a2.81,2.81,0,0,0,.8-.1,40.38,40.38,0,0,1,4.3-.1c2.2,0,3.7,0,4.5.1h.9c.4,0,.7-.1.7-.4S414.3,242,413.8,241.87Zm-14.4-14.4h-8.1c-.8,0-1.1-.2-1.1-.6a2.94,2.94,0,0,1,.3-.9l4.8-10.6c.1-.3.3-.5.4-.5s.4.3.6.8l.2.5,3.9,9.7.1.4a1.76,1.76,0,0,1,.1.6Q400.75,227.48,399.4,227.47Z"/><path class="a" d="M430.2,243.37a19.7,19.7,0,0,0,10.3-2.8l1.6-1a9.63,9.63,0,0,1,2-.9,1,1,0,0,0,.7-.2l.1-.4v-9.5a2.4,2.4,0,0,1,1.9-2.7c.5-.1.7-.3.7-.6s-.2-.5-.6-.5c-.2,0-.8,0-2,.1h-7.2c-.6,0-.9.2-.8.5s.3.6,1,.6a4.5,4.5,0,0,1,2.6.7,2.65,2.65,0,0,1,.7,2v5.5a5.85,5.85,0,0,1-.8,3.4c-2.1,2.7-5.1,4-8.9,4a12.54,12.54,0,0,1-10-4.8,17.94,17.94,0,0,1-4-12,16.77,16.77,0,0,1,3.5-10.9,11.29,11.29,0,0,1,9.1-4.2,16.47,16.47,0,0,1,14.3,8.9.51.51,0,0,0,.5.4c.3,0,.5-.2.5-.6a2,2,0,0,0-.1-.7,10.8,10.8,0,0,1-.3-1.9l-.2-2.3a12.28,12.28,0,0,1-.1-1.7c0-.8-.1-1.2-.4-1.2a.37.37,0,0,0-.3.1l-.6.4a1.69,1.69,0,0,1-.5.2c-.1,0-.2-.1-.4-.2a20,20,0,0,0-5.2-2.1,23,23,0,0,0-6.2-.8,16.45,16.45,0,0,0-12.5,5.2,17.81,17.81,0,0,0-5,12.9,16.67,16.67,0,0,0,4.7,12.1C421.2,241.78,425.3,243.37,430.2,243.37Z"/><path class="a" d="M456.4,242.78a16,16,0,0,0,4.2.5,13,13,0,0,0,8.6-2.9,9.57,9.57,0,0,0,3.3-7.5c0-4.5-3-7.8-9.1-9.7a58.43,58.43,0,0,1-5.9-2.1,6.4,6.4,0,0,1-2.2-1.9,5.58,5.58,0,0,1-1.2-3.6,4.84,4.84,0,0,1,1.8-3.9,6.78,6.78,0,0,1,4.4-1.6,11.32,11.32,0,0,1,6,1.7,8.47,8.47,0,0,1,3.6,4.4c.3.8.5,1.2.8,1.2s.5-.3.5-.8a5.13,5.13,0,0,0-.1-1l-.4-2.5c-.2-1.4-.3-2.2-.3-2.5q0-1.2-.6-1.2a.37.37,0,0,0-.3.1l-.3.3a.73.73,0,0,1-.6.2.6.6,0,0,1-.4-.1l-1.7-.7a11.52,11.52,0,0,0-4.4-.8,11.06,11.06,0,0,0-7.6,2.5,8.06,8.06,0,0,0-3,6.5,7.83,7.83,0,0,0,2.3,5.8c1.5,1.5,4.1,2.8,7.7,4.1a29.7,29.7,0,0,1,6.4,2.7,6,6,0,0,1,2.2,4.6,6.16,6.16,0,0,1-2.3,4.8,8.8,8.8,0,0,1-5.7,2,10.31,10.31,0,0,1-6.2-2.1,9.68,9.68,0,0,1-3.7-5.1c-.2-.8-.5-1.2-.8-1.2s-.5.2-.5.7a13.28,13.28,0,0,0,.6,3.1c.4,1.4.6,2.1.6,2.2a14.67,14.67,0,0,0,.4,1.7,1.7,1.7,0,0,0,.6.6A6.77,6.77,0,0,0,456.4,242.78Z"/><path class="a" d="M47.1,296.37a9.75,9.75,0,0,1-4.2-1.5c-.7-.7-1.5-2.3-2.6-5l-.7-1.8-14.2-36.4c-.2-.6-.5-1-.9-1s-.7.3-1,1l-17,37.7-1,2.2a13.16,13.16,0,0,1-1.9,2.9c-.7.9-1.3,1.5-1.8,1.6l-1.2.4a.73.73,0,0,0-.6.7q0,.6.9.6c.1,0,.7-.1,1.8-.2H4.2c1.4,0,2.6,0,3.7.1l3.2.2h1.1c.6,0,.9-.2.9-.5s-.4-.6-1-.8a7.09,7.09,0,0,1-3.1-1.2,3,3,0,0,1-.8-2.3,14.31,14.31,0,0,1,1.5-5l2.2-4.9c.7-1.5,1.2-2.4,1.6-2.6a6.25,6.25,0,0,1,3-.4h12a4.49,4.49,0,0,1,2.2.3,6,6,0,0,1,1.1,2.1l1.7,4.4c1.3,3.5,2,5.8,2,7a2.12,2.12,0,0,1-1.7,2.3l-1,.2c-.6.1-.8.3-.8.7s.3.7.9.7a4.14,4.14,0,0,0,1-.1,57.18,57.18,0,0,1,5.8-.2c2.9,0,5,.1,6.1.2.6,0,1.1.1,1.3.1.6,0,.9-.2.9-.5C48.1,296.78,47.8,296.58,47.1,296.37Zm-19.3-19.2H16.9q-1.5,0-1.5-.9a3.14,3.14,0,0,1,.4-1.2l6.4-14.3c.2-.4.4-.6.5-.6.3,0,.6.4.9,1.1l.3.7,5.2,13.1.2.6a4.5,4.5,0,0,1,.2.8C29.4,276.87,28.9,277.17,27.8,277.17Z"/><path class="a" d="M62.4,263.58a31.13,31.13,0,0,0-3.2.1l-2.3.2c-.9.1-2.2.1-3.9.1H51.3l-1.9-.1c-.4,0-.6.2-.6.5s.3.5.8.5a3.64,3.64,0,0,1,2.8,1.4,6,6,0,0,1,.8,3.6V292a9.09,9.09,0,0,1-.5,3.6c-.3.6-1,1-2.2,1.2-.5.1-.7.3-.7.6s.3.6.9.6c.3,0,.8-.1,1.4-.1a30.37,30.37,0,0,1,4.6-.3c1.6,0,3.5.1,5.7.2a23,23,0,0,0,2.3.1,18.09,18.09,0,0,0,9.9-2.8,15,15,0,0,0,5.6-6.1,18.67,18.67,0,0,0,2-8.5,15.9,15.9,0,0,0-4.6-11.8C74.1,265.17,69.1,263.58,62.4,263.58Zm10.3,30.8a14,14,0,0,1-7.6,2.1,15.46,15.46,0,0,1-3.4-.4,12,12,0,0,1-3.3-.9,2.13,2.13,0,0,1-1.5-2.1v-25.2a2.51,2.51,0,0,1,.6-2c.7-.6,2.3-.8,4.9-.8a15.93,15.93,0,0,1,9.3,2.7,14.92,14.92,0,0,1,4.9,6.1,19.93,19.93,0,0,1,1.8,8.5Q78.4,290.77,72.7,294.37Z"/><path class="a" d="M116.2,263.78h-4.8c-.2,0-1,0-2.2-.1h-.7c-.5,0-.8.2-.8.5s.4.5,1.4.7a2.11,2.11,0,0,1,1.5.6,1.6,1.6,0,0,1,.4,1.1c0,1.6-1.2,5.1-3.5,10.6L102.1,290l-.4.9c-.4.9-.7,1.4-.9,1.4s-.4-.2-.6-.8l-9.4-21.7a9.61,9.61,0,0,1-1-3.4,1.22,1.22,0,0,1,.3-.9,3.12,3.12,0,0,1,1.3-.6c.3-.1.5-.3.5-.5s-.2-.5-.7-.5h-.7a10.37,10.37,0,0,1-1.6.1H81.8c-.5,0-.7.2-.7.5a.52.52,0,0,0,.2.4,6.1,6.1,0,0,0,1.5.3,2.94,2.94,0,0,1,1.9,1,10.91,10.91,0,0,1,1.6,2.8l12.5,28.9c.4.8.7,1.2,1,1.2s.7-.4,1-1.2l12.2-28.6.7-1.6a4.42,4.42,0,0,1,2.7-2.8c.3-.1.5-.3.5-.5C116.7,263.87,116.6,263.78,116.2,263.78Z"/><path class="a" d="M143.3,290.87c-.2,0-.4.2-.6.4-1.8,2.9-6,4.3-12.4,4.3a9.24,9.24,0,0,1-3.8-.5c-.5-.3-.7-1.2-.7-2.6v-9.9a1.05,1.05,0,0,1,.4-1,3.22,3.22,0,0,1,1.6-.2h5.4a5.62,5.62,0,0,1,3,.6,3.13,3.13,0,0,1,1.2,2.2l.1.7c.1.4.3.5.6.5s.5-.2.5-.6v-.7c-.1-1-.1-2-.1-3,0-1.3.1-2.8.2-4.3v-.5a.67.67,0,0,0-.5-.7q-.45,0-.6.6a6.08,6.08,0,0,1-.7,2.1,3.42,3.42,0,0,1-1.7.7,22.18,22.18,0,0,1-4.1.3h-3.8a3.09,3.09,0,0,1-1.3-.2,3.32,3.32,0,0,1-.2-1.4v-9.8c0-.9.1-1.4.4-1.7s.9-.4,2-.4H132a20.48,20.48,0,0,1,5.2.4,2.47,2.47,0,0,1,1.9,1.5,4,4,0,0,1,.3,1.5v.6c0,.5.2.8.5.7a.55.55,0,0,0,.6-.4,5.25,5.25,0,0,0,.2-1.8l.1-1.4a15.44,15.44,0,0,1,.2-2c0-.2.1-.4.1-.6,0-.5-.3-.7-.8-.7a4.59,4.59,0,0,0-1,.1c-.2,0-.8.1-1.8.1l-3.5.2c-1.5.1-3.3.1-5.3.1a70.21,70.21,0,0,1-8.5-.4,10.37,10.37,0,0,0-1.6-.1c-.7,0-1.1.2-1.1.7,0,.3.2.5.7.5q2.25,0,3,1.2a9.84,9.84,0,0,1,.8,4.7v22.4c0,2-.6,3.1-1.8,3.4l-.9.3q-.6.15-.6.6c0,.4.3.5.8.5.2,0,.7-.1,1.3-.2a42.06,42.06,0,0,1,6.1-.3c2,0,4.6.1,7.8.4a14.16,14.16,0,0,0,1.9.1,7.06,7.06,0,0,0,5.5-2.6c1.2-1.5,1.8-2.7,1.8-3.8Q143.75,290.88,143.3,290.87Z"/><path class="a" d="M179.3,263.67a5.74,5.74,0,0,0-1.2.1,16.28,16.28,0,0,1-2.4.1c-1.9,0-3.4-.1-4.5-.2-.5,0-.8-.1-1-.1-.5,0-.7.2-.7.5s.2.5.7.6a6.89,6.89,0,0,1,3.5,1.3,4.64,4.64,0,0,1,1.2,3l.3,5.7v15.5c0,.3-.1.5-.3.5s-.3-.2-.7-.6l-22.6-25.6a1.55,1.55,0,0,0-1.2-.7h-4.3c-.4,0-.5.2-.5.5s.2.5.7.6a5.09,5.09,0,0,1,3.9,2.8,13.92,13.92,0,0,1,1.4,6.7v16.5a7.07,7.07,0,0,1-.7,3.8,5.13,5.13,0,0,1-2.8,1.9c-.5.2-.7.4-.7.6s.3.5.7.5a3.45,3.45,0,0,0,.9-.1,10.87,10.87,0,0,1,1.8-.1H152l2.5.1c1.2.1,2,.1,2.1.1h.7a.47.47,0,0,0,.5-.5c0-.4-.3-.6-.8-.6a5.08,5.08,0,0,1-2.6-.9,3.76,3.76,0,0,1-.8-2.2l-.1-1.7v-17.7c0-.7.2-1.1.5-1.1a.37.37,0,0,1,.3.1l.2.3,20.7,23.7.5.6a.85.85,0,0,0,.6.2.66.66,0,0,0,.7-.6,23.9,23.9,0,0,0,.1-3.4V269a7.48,7.48,0,0,1,.5-3.2,2.67,2.67,0,0,1,2-1.2c.3-.1.5-.3.5-.5A.89.89,0,0,0,179.3,263.67Z"/><path class="a" d="M212.8,266c0-1-.1-1.5-.3-1.7s-.7-.3-1.6-.3H184.4c-.6,0-.9.1-1.1.4a2.37,2.37,0,0,0-.3,1.5,11.68,11.68,0,0,1-.4,2.9,9.91,9.91,0,0,0-.3,1.9c0,.4.1.6.4.7s.5-.3.7-.9a5.23,5.23,0,0,1,1.4-3,4.56,4.56,0,0,1,2.9-.8h6.5a2.87,2.87,0,0,1,1.2.2,1.44,1.44,0,0,1,.3,1.1v25a4.42,4.42,0,0,1-.7,2.9,3.72,3.72,0,0,1-2.6,1c-.5.1-.8.2-.8.5s.2.5.7.5a16,16,0,0,0,1.7-.1c.5,0,1.1-.1,1.7-.1h3.7a10.45,10.45,0,0,1,2.2.1,6.82,6.82,0,0,0,1.2.1c.5,0,.7-.2.7-.5s-.3-.5-.9-.6c-2.1-.4-3.1-1.5-3.2-3.4v-25.1a2.37,2.37,0,0,1,.3-1.5c.2-.2.6-.3,1.4-.3H208a5.75,5.75,0,0,1,2.8.5,3.53,3.53,0,0,1,1,2.3c.1.5.3.8.6.8s.5-.3.5-.8c0-.2-.1-.6-.1-1.2Q212.8,267.47,212.8,266Z"/><path class="a" d="M227,296.67a5.69,5.69,0,0,1-2.3-.7,3.17,3.17,0,0,1-1.2-1.8,15.28,15.28,0,0,1-.4-4.6v-18.4c0-3.5.6-5.4,1.8-5.9l1.3-.5a.73.73,0,0,0,.6-.6c0-.3-.2-.5-.7-.5h-.6l-1.6.1a29.13,29.13,0,0,1-3.1.1c-2,0-3.6-.1-4.8-.2h-.4c-.5,0-.7.2-.7.5s.3.5.8.6a4.24,4.24,0,0,1,3,1.4c.5.7.7,2.1.7,4.1v21.1a11.53,11.53,0,0,1-.5,4.1,3.46,3.46,0,0,1-2.4,1.3c-.5.1-.8.3-.8.6s.2.5.7.5a5.74,5.74,0,0,0,1.2-.1l2.9-.2,3.6.1a17.11,17.11,0,0,1,2.6.1,3.45,3.45,0,0,0,.9.1c.5,0,.8-.2.8-.6C228.2,297,227.8,296.78,227,296.67Z"/><path class="a" d="M243.6,278a58.43,58.43,0,0,1-5.9-2.1,6.4,6.4,0,0,1-2.2-1.9,5.58,5.58,0,0,1-1.2-3.6,4.84,4.84,0,0,1,1.8-3.9,6.78,6.78,0,0,1,4.4-1.6,11.32,11.32,0,0,1,6,1.7,8.47,8.47,0,0,1,3.6,4.4c.3.8.5,1.2.8,1.2s.5-.3.5-.8a5.13,5.13,0,0,0-.1-1l-.4-2.5c-.2-1.4-.3-2.2-.3-2.5q0-1.2-.6-1.2a.37.37,0,0,0-.3.1l-.3.3a.73.73,0,0,1-.6.2.6.6,0,0,1-.4-.1l-1.7-.7a11.52,11.52,0,0,0-4.4-.8,11.06,11.06,0,0,0-7.6,2.5,8.06,8.06,0,0,0-3,6.5A7.83,7.83,0,0,0,234,278c1.5,1.5,4.1,2.8,7.7,4.1a29.7,29.7,0,0,1,6.4,2.7,6,6,0,0,1,2.2,4.6,6.16,6.16,0,0,1-2.3,4.8,8.8,8.8,0,0,1-5.7,2,10.31,10.31,0,0,1-6.2-2.1,9.68,9.68,0,0,1-3.7-5.1c-.2-.8-.5-1.2-.8-1.2s-.5.2-.5.7a13.28,13.28,0,0,0,.6,3.1c.4,1.4.6,2.1.6,2.2a14.67,14.67,0,0,0,.4,1.7,1.7,1.7,0,0,0,.6.6,10.69,10.69,0,0,0,3.3,1.3,16,16,0,0,0,4.2.5,13,13,0,0,0,8.6-2.9,9.57,9.57,0,0,0,3.3-7.5C252.7,283.17,249.6,280,243.6,278Z"/><path class="a" d="M285.5,266c0-1-.1-1.5-.3-1.7s-.7-.3-1.6-.3H257.1c-.6,0-.9.1-1.1.4a2.37,2.37,0,0,0-.3,1.5,11.68,11.68,0,0,1-.4,2.9,9.91,9.91,0,0,0-.3,1.9c0,.4.1.6.4.7s.5-.3.7-.9a5.23,5.23,0,0,1,1.4-3,4.56,4.56,0,0,1,2.9-.8h6.5a2.87,2.87,0,0,1,1.2.2,1.44,1.44,0,0,1,.3,1.1v25a4.42,4.42,0,0,1-.7,2.9,3.72,3.72,0,0,1-2.6,1c-.5.1-.8.2-.8.5s.2.5.7.5a16,16,0,0,0,1.7-.1c.5,0,1.1-.1,1.7-.1h3.7a10.45,10.45,0,0,1,2.2.1,6.82,6.82,0,0,0,1.2.1c.5,0,.7-.2.7-.5s-.3-.5-.9-.6c-2.1-.4-3.1-1.5-3.2-3.4v-25.1a2.37,2.37,0,0,1,.3-1.5c.2-.2.6-.3,1.4-.3h6.9a5.75,5.75,0,0,1,2.8.5,3.53,3.53,0,0,1,1,2.3c.1.5.3.8.6.8s.5-.3.5-.8c0-.2-.1-.6-.1-1.2Q285.5,267.47,285.5,266Z"/><path class="a" d="M300.5,278a58.43,58.43,0,0,1-5.9-2.1,6.4,6.4,0,0,1-2.2-1.9,5.58,5.58,0,0,1-1.2-3.6,4.84,4.84,0,0,1,1.8-3.9,6.78,6.78,0,0,1,4.4-1.6,11.32,11.32,0,0,1,6,1.7A8.47,8.47,0,0,1,307,271c.3.8.5,1.2.8,1.2s.5-.3.5-.8a5.13,5.13,0,0,0-.1-1l-.4-2.5c-.2-1.4-.3-2.2-.3-2.5q0-1.2-.6-1.2a.37.37,0,0,0-.3.1l-.3.3a.73.73,0,0,1-.6.2.6.6,0,0,1-.4-.1l-1.7-.7a11.52,11.52,0,0,0-4.4-.8,11.06,11.06,0,0,0-7.6,2.5,8.06,8.06,0,0,0-3,6.5,7.83,7.83,0,0,0,2.3,5.8c1.5,1.5,4.1,2.8,7.7,4.1a29.7,29.7,0,0,1,6.4,2.7,6,6,0,0,1,2.2,4.6,6.16,6.16,0,0,1-2.3,4.8,8.8,8.8,0,0,1-5.7,2,10.31,10.31,0,0,1-6.2-2.1,9.68,9.68,0,0,1-3.7-5.1c-.2-.8-.5-1.2-.8-1.2s-.5.2-.5.7a13.28,13.28,0,0,0,.6,3.1c.4,1.4.6,2.1.6,2.2a14.67,14.67,0,0,0,.4,1.7,1.7,1.7,0,0,0,.6.6,10.69,10.69,0,0,0,3.3,1.3,16,16,0,0,0,4.2.5,13,13,0,0,0,8.6-2.9,9.57,9.57,0,0,0,3.3-7.5C309.6,283.17,306.6,280,300.5,278Z"/><path class="a" d="M344.8,296.67a7.49,7.49,0,0,1-3.1-1.1,12.91,12.91,0,0,1-1.9-3.7l-.5-1.3-10.6-27.1c-.2-.5-.4-.7-.7-.7s-.5.2-.7.7l-12.6,28.1-.7,1.6a10.23,10.23,0,0,1-1.4,2.2,4.14,4.14,0,0,1-1.3,1.2l-.9.3a.51.51,0,0,0-.4.5c0,.3.2.5.7.5a12.53,12.53,0,0,0,1.4-.1h1.1a22.63,22.63,0,0,1,2.7.1l2.4.1h.8c.5,0,.7-.1.7-.4s-.3-.5-.8-.6a4.55,4.55,0,0,1-2.3-.9,2.06,2.06,0,0,1-.6-1.7,11.56,11.56,0,0,1,1.1-3.7l1.6-3.6a5.79,5.79,0,0,1,1.2-2,5,5,0,0,1,2.3-.3h8.9a5,5,0,0,1,1.7.2,3.63,3.63,0,0,1,.8,1.6l1.2,3.2a18.65,18.65,0,0,1,1.5,5.2,1.5,1.5,0,0,1-1.2,1.7l-.8.2c-.4.1-.6.2-.6.5s.2.5.6.5a2.81,2.81,0,0,0,.8-.1,40.38,40.38,0,0,1,4.3-.1c2.2,0,3.7,0,4.5.1h.9c.4,0,.7-.1.7-.4A.86.86,0,0,0,344.8,296.67Zm-14.4-14.3h-8.1c-.8,0-1.1-.2-1.1-.6a2.94,2.94,0,0,1,.3-.9l4.8-10.6c.1-.3.3-.5.4-.5s.4.3.6.8l.2.5,3.9,9.7.1.4a1.76,1.76,0,0,1,.1.6Q331.6,282.37,330.4,282.37Z"/><path class="a" d="M385,296.67a3.9,3.9,0,0,1-2.5-1.1,3.81,3.81,0,0,1-.7-2.7l-.1-3.1-.5-13.4-.1-5.9a13.25,13.25,0,0,1,.5-4.1,2.32,2.32,0,0,1,1.8-1.5l1.1-.3a.63.63,0,0,0,.5-.6.47.47,0,0,0-.5-.5h-.7a17,17,0,0,1-2.5.1h-.8a6.61,6.61,0,0,0-1.1-.1,1.45,1.45,0,0,0-.7.2,4.69,4.69,0,0,0-.6,1l-11.5,24.7-.2.5-.3.7c-.1.3-.3.5-.4.5s-.2-.2-.4-.6L364,288l-10.2-22.1-.3-.6q-.75-1.5-1.8-1.5a3.45,3.45,0,0,0-.9.1h-5.1c-.4,0-.6.2-.6.5s.2.5.7.6a5.25,5.25,0,0,1,3.9,2.6c.8,1.4,1.2,3.6,1.2,6.5,0,1.4-.1,4.6-.4,9.8l-.3,7.1a10.25,10.25,0,0,1-.9,4.3,3.91,3.91,0,0,1-2.5,1.7c-.4.1-.6.3-.6.5,0,.4.2.5.7.5a2.81,2.81,0,0,0,.8-.1c1.1-.1,2.2-.2,3.4-.2,1,0,2.4.1,4.2.2h.9c.5,0,.7-.2.7-.6s-.5-.6-1.5-.7q-3-.45-3-4.8c0-3,0-5,.1-6l.6-12.2,9.2,19.9.5,1a9.15,9.15,0,0,0,.7,1.3c.4.8.7,1.2,1.1,1.2s.7-.4,1-1.2c.1-.2.2-.5.4-.9.4-.7.8-1.7,1.3-2.8,1.2-2.8,1.9-4.3,2.1-4.6l2.5-5.2,2.2-4.7c.5-.9,1.4-2.6,2.8-5.1l.6,15.6.1,4a7.27,7.27,0,0,1-.5,3.1,3.09,3.09,0,0,1-1.9,1.3q-.6.15-.6.6c0,.3.2.4.7.4.3,0,1.2,0,2.9-.1,1.1-.1,1.9-.1,2.4-.1a14.77,14.77,0,0,1,2.1.1l1.9.2h.6c.6,0,.9-.2.9-.5C386.3,297.08,385.9,296.87,385,296.67Z"/><path class="a" d="M412.6,263.47a2.49,2.49,0,0,0-.8.1,14.82,14.82,0,0,1-2.9.2l-3.4.2c-.9,0-2.9.1-6,.1-3.5,0-5.9-.1-7.4-.2a11.45,11.45,0,0,0-1.5-.1c-.7,0-1,.2-1,.6s.2.4.6.4a6.19,6.19,0,0,1,2,.4,2.89,2.89,0,0,1,1.1,1.1,6.85,6.85,0,0,1,.8,3.6v22.2a7.1,7.1,0,0,1-.6,3.4,2.87,2.87,0,0,1-2.1,1.3c-.5.1-.8.3-.8.6s.2.4.7.4a7.18,7.18,0,0,0,1.3-.1,11.56,11.56,0,0,1,1.7-.1h3.6a14.9,14.9,0,0,1,2.4.1,8.64,8.64,0,0,0,1.5.1c.5,0,.8-.2.7-.6s-.3-.5-.9-.5a3.49,3.49,0,0,1-2.8-1.2,4.45,4.45,0,0,1-1-3.1v-9.2a5.76,5.76,0,0,1,.1-1.5c.1-.3.4-.5,1-.6a32.57,32.57,0,0,1,3.8-.1,19.85,19.85,0,0,1,4.8.4,2.4,2.4,0,0,1,1.2.7,6,6,0,0,1,.6,1.8c.2.8.4,1.2.7,1.2s.5-.2.5-.6v-.7a29.55,29.55,0,0,1-.1-3.7v-1.5l.1-2.4c0-.5-.1-.8-.4-.8s-.4.2-.5.6a3.1,3.1,0,0,1-1.3,2.3,5.79,5.79,0,0,1-3.3.7h-5.8c-.9,0-1.3-.2-1.4-.7v-10.6c0-1,.2-1.6.7-1.8a9.9,9.9,0,0,1,3.4-.4c1.4,0,2.6,0,3.5.1l2.9.3a5.18,5.18,0,0,1,2.1.5,2.93,2.93,0,0,1,.8,1.6l.3,1.5c0,.4.2.6.4.6.4,0,.7-.4.7-1.1a16.94,16.94,0,0,1,.4-4.3,2.49,2.49,0,0,0,.1-.8C413.1,263.58,412.9,263.47,412.6,263.47Z"/><path class="a" d="M449.9,263.78a6.61,6.61,0,0,0-1.1.1c-.4,0-1.6.1-3.4.1a14.12,14.12,0,0,1-2.2-.1,13.7,13.7,0,0,0-1.6-.2.47.47,0,0,0-.5.5c0,.3.2.5.7.5a3.75,3.75,0,0,1,3,1.6,8.43,8.43,0,0,1,.9,4.5v12.7c0,4.3-1,7.5-2.9,9.7s-4.9,3.2-8.8,3.2c-4.4,0-7.5-1.3-9.3-3.8-1.3-1.8-2-4.8-2-9v-14a8,8,0,0,1,.5-3.3,2.66,2.66,0,0,1,1.9-1.2c.5-.1.8-.3.8-.6s-.2-.4-.6-.4a8.47,8.47,0,0,0-1.3.1,9.51,9.51,0,0,1-1.4.1h-3.8a11,11,0,0,1-1.6-.1h-1.7q-.9,0-.9.6c0,.3.2.4.7.5a4.37,4.37,0,0,1,2.9,1.3,6.5,6.5,0,0,1,.7,3.6v13.9a18,18,0,0,0,1.7,8.3,10.59,10.59,0,0,0,4.9,4.4,16.53,16.53,0,0,0,7.5,1.6,16.75,16.75,0,0,0,6.7-1.4,12.29,12.29,0,0,0,4.9-3.6c1.8-2.4,2.7-5.8,2.7-10.3v-12.2a13.85,13.85,0,0,1,.4-4.2,3.24,3.24,0,0,1,1.9-1.7.63.63,0,0,0,.5-.6C450.4,263.87,450.2,263.78,449.9,263.78Z"/><path class="a" d="M486.9,263.67a5.74,5.74,0,0,0-1.2.1,16.28,16.28,0,0,1-2.4.1c-1.9,0-3.4-.1-4.5-.2-.5,0-.8-.1-1-.1-.5,0-.7.2-.7.5s.2.5.7.6a6.89,6.89,0,0,1,3.5,1.3,4.64,4.64,0,0,1,1.2,3l.3,5.7v15.5c0,.3-.1.5-.3.5s-.3-.2-.7-.6l-22.7-25.6a1.55,1.55,0,0,0-1.2-.7h-4.3c-.4,0-.5.2-.5.5s.2.5.7.6a5.09,5.09,0,0,1,3.9,2.8,13.92,13.92,0,0,1,1.4,6.7v16.5a7.07,7.07,0,0,1-.7,3.8,5.13,5.13,0,0,1-2.8,1.9c-.5.2-.7.4-.7.6s.3.5.7.5a3.45,3.45,0,0,0,.9-.1,10.87,10.87,0,0,1,1.8-.1h1.2l2.5.1c1.2.1,2,.1,2.1.1h.7a.47.47,0,0,0,.5-.5c0-.4-.3-.6-.8-.6a5.08,5.08,0,0,1-2.6-.9,3.76,3.76,0,0,1-.8-2.2l-.1-1.7v-17.7c0-.7.2-1.1.5-1.1a.37.37,0,0,1,.3.1l.2.3,20.7,23.7.5.6a.85.85,0,0,0,.6.2.66.66,0,0,0,.7-.6,23.9,23.9,0,0,0,.1-3.4V269a7.48,7.48,0,0,1,.5-3.2,2.67,2.67,0,0,1,2-1.2c.3-.1.5-.3.5-.5A.72.72,0,0,0,486.9,263.67Z"/><path class="a" d="M524.1,263.67a5.74,5.74,0,0,0-1.2.1,16.28,16.28,0,0,1-2.4.1c-1.9,0-3.4-.1-4.5-.2-.5,0-.8-.1-1-.1-.5,0-.7.2-.7.5s.2.5.7.6a6.89,6.89,0,0,1,3.5,1.3,4.64,4.64,0,0,1,1.2,3l.3,5.7v15.5c0,.3-.1.5-.3.5s-.3-.2-.7-.6l-22.6-25.6a1.55,1.55,0,0,0-1.2-.7h-4.3c-.4,0-.5.2-.5.5s.2.5.7.6a5.09,5.09,0,0,1,3.9,2.8,13.92,13.92,0,0,1,1.4,6.7v16.5a7.07,7.07,0,0,1-.7,3.8,5.13,5.13,0,0,1-2.8,1.9c-.5.2-.7.4-.7.6s.3.5.7.5a3.45,3.45,0,0,0,.9-.1,10.87,10.87,0,0,1,1.8-.1h1.2l2.5.1c1.2.1,2,.1,2.1.1h.7a.47.47,0,0,0,.5-.5c0-.4-.3-.6-.8-.6a5.08,5.08,0,0,1-2.6-.9,3.76,3.76,0,0,1-.8-2.2l-.1-1.7v-17.7c0-.7.2-1.1.5-1.1a.37.37,0,0,1,.3.1l.2.3,20.7,23.7.5.6a.85.85,0,0,0,.6.2.66.66,0,0,0,.7-.6,23.9,23.9,0,0,0,.1-3.4V269a7.48,7.48,0,0,1,.5-3.2,2.67,2.67,0,0,1,2-1.2c.3-.1.5-.3.5-.5A.78.78,0,0,0,524.1,263.67Z"/><path class="a" d="M554.8,290.87c-.2,0-.4.2-.6.4-1.8,2.9-6,4.3-12.4,4.3a9.24,9.24,0,0,1-3.8-.5c-.5-.3-.7-1.2-.7-2.6v-9.9a1.05,1.05,0,0,1,.4-1,3.22,3.22,0,0,1,1.6-.2h5.4a5.62,5.62,0,0,1,3,.6,3.13,3.13,0,0,1,1.2,2.2l.1.7c.1.4.3.5.6.5s.5-.2.5-.6v-.7c-.1-1-.1-2-.1-3,0-1.3.1-2.8.2-4.3v-.5a.67.67,0,0,0-.5-.7q-.45,0-.6.6a6.08,6.08,0,0,1-.7,2.1,3.42,3.42,0,0,1-1.7.7,22.18,22.18,0,0,1-4.1.3h-3.8a3.09,3.09,0,0,1-1.3-.2,3.33,3.33,0,0,1-.2-1.4v-9.8c0-.9.1-1.4.4-1.7s.9-.4,2-.4h3.9a20.48,20.48,0,0,1,5.2.4,2.47,2.47,0,0,1,1.9,1.5,4,4,0,0,1,.3,1.5v.6c0,.5.2.8.5.7a.55.55,0,0,0,.6-.4,7.58,7.58,0,0,0,.3-1.8l.1-1.4a15.43,15.43,0,0,1,.2-2c0-.2.1-.4.1-.6,0-.5-.3-.7-.8-.7a4.59,4.59,0,0,0-1,.1c-.2,0-.8.1-1.8.1l-3.5.2c-1.5.1-3.3.1-5.3.1a70.21,70.21,0,0,1-8.5-.4,10.37,10.37,0,0,0-1.6-.1c-.7,0-1.1.2-1.1.7,0,.3.2.5.7.5q2.25,0,3,1.2a9.84,9.84,0,0,1,.8,4.7v22.4c0,2-.6,3.1-1.8,3.4l-.9.3q-.6.15-.6.6c0,.4.3.5.8.5.2,0,.7-.1,1.3-.2a42.06,42.06,0,0,1,6.1-.3c2,0,4.6.1,7.8.4a14.16,14.16,0,0,0,1.9.1,7.06,7.06,0,0,0,5.5-2.6c1.2-1.5,1.8-2.7,1.8-3.8C555.3,291.08,555.1,290.87,554.8,290.87Z"/><path class="a" d="M587.1,268.17a11,11,0,0,1-.1-2.1c0-1-.1-1.5-.3-1.7s-.7-.3-1.6-.3H558.6c-.6,0-.9.1-1.1.4a2.37,2.37,0,0,0-.3,1.5,11.68,11.68,0,0,1-.4,2.9,9.91,9.91,0,0,0-.3,1.9c0,.4.1.6.4.7s.5-.3.7-.9a5.23,5.23,0,0,1,1.4-3,4.56,4.56,0,0,1,2.9-.8h6.5a2.87,2.87,0,0,1,1.2.2,1.44,1.44,0,0,1,.3,1.1v25a4.42,4.42,0,0,1-.7,2.9,3.72,3.72,0,0,1-2.6,1c-.5.1-.8.2-.8.5s.2.5.7.5a16,16,0,0,0,1.7-.1c.5,0,1.1-.1,1.7-.1h3.7a10.45,10.45,0,0,1,2.2.1,6.82,6.82,0,0,0,1.2.1c.5,0,.7-.2.7-.5s-.3-.5-.9-.6c-2.1-.4-3.1-1.5-3.2-3.4v-25.1a2.37,2.37,0,0,1,.3-1.5c.2-.2.6-.3,1.4-.3h6.9a5.75,5.75,0,0,1,2.8.5,3.53,3.53,0,0,1,1,2.3c.1.5.3.8.6.8s.5-.3.5-.8A2.41,2.41,0,0,0,587.1,268.17Z"/><path class="a" d="M290.9,178.78v-22.2H279.7v-7.9h11.2V148c0-7.9-3.6-13.6-28.6-9.3L221.2,146l-23.6,32.9,56.8-10.1C271.3,165.87,286.3,165.28,290.9,178.78Z"/><path class="a" d="M317.9,147.87c-12.9,12.9-19.2,20.3-19.2,31,4.9-14.2,20.6-12.9,39.1-9.4l54.5,9.4-23.7-32.8-41.6-7.3Z"/><path class="a" d="M318.9,126.87c-5,5-13.8,13-17.9,21.9h9.1l10.5-10.5c9.7-9.7,17.1-17.1,20.3-26.3a33.92,33.92,0,0,0,1.8-16.9c-.2-1.8-1-4.5-1.1-3.9-.9,10.5-3.9,16.8-19.1,32.1Z"/><path class="a" d="M290.3,62.27c5.6-5.6,19.8-18.3,19.8-29.3V20.77c0-.1-.3-.1-.3,0-1,8.2-2.9,11.7-23,31.8l-19.7,19.8c-10.5,10.5-19,21.6-17.9,34.1.6,7,2.9,10.8,4.5,11.9.8.5.6.2.4-.3-6-13.7,8.3-27.8,15.5-35Z"/><path class="a" d="M290.3,83.08c5.6-5.6,19.8-18.3,19.8-29.3V41.58c0-.1-.3-.1-.3,0-1,8.2-2.9,11.7-23,31.8l-18.4,18.4c-6.7,6.7-12.8,13.7-12.5,25,.2,6.9,3.7,12.7,8.9,14,2.2.5,2,.2,1.5,0-7.4-3.5-6.9-16.8,5.1-28.8Z"/><path class="a" d="M248.2,96.78c.9-10.5,3.9-16.8,19.1-32.1l23.1-23.1c5.6-5.6,19.8-18.3,19.8-29.3V.08c0-.1-.3-.1-.3,0-1,8.2-2.9,11.7-23,31.8l-17.8,17.8c-9.7,9.7-17.1,17.1-20.3,26.3a33.92,33.92,0,0,0-1.8,16.9C247.3,94.67,248.1,97.37,248.2,96.78Z"/><path class="a" d="M299,168.78a26.08,26.08,0,0,1,4.8-12.1h-5.1v12.1C298.7,168.87,298.9,168.87,299,168.78Z"/><path class="a" d="M322.6,102.47l-5.8,5.8c-9,8.9-18.1,18.9-18.1,28.2v12.3c0,.1.2.1.3,0,1-9,5.3-14.8,18.3-27.8l5.4-5.4c10.5-10.5,19-21.6,17.9-34.1-.6-7-2.9-10.8-4.5-11.9-.8-.5-.6-.2-.4.3C341.7,83.58,327.3,97.78,322.6,102.47Z"/><path class="a" d="M298.7,127.47c0,.1.2.1.3,0,1-8.5,5.9-15.1,17.1-26.2l5.3-5.3c6.7-6.7,12.7-13.6,12.4-24.9-.2-6.9-3.7-12.7-8.9-14-2.2-.5-2-.2-1.5,0,7.4,3.5,6.9,16.8-5.1,28.8l-6.6,6.6c-4.2,4.2-13,13.8-13,22.6Z"/><path class="a" d="M390,166.17h.2c.3,0,.4.3.4.7v3.4c0,.5,0,.8-.1.9a1.38,1.38,0,0,1-.4.3.35.35,0,0,0-.2.1c0,.1.1.1.2.1H392c.1,0,.2,0,.2-.1s-.1-.1-.2-.2a.85.85,0,0,1-.6-.2c-.1-.1-.1-.3-.1-.6V169h.7a.37.37,0,0,1,.3.1l.1.1,1,1.6c.4.6.8.9,1.3.9a1,1,0,0,0,.7-.2c0-.1,0-.1-.1-.1h-.1c-.3,0-.6-.3-.9-.8l-.1-.2-1.1-1.6a1.58,1.58,0,0,0,1-1.5c0-1-.7-1.5-2-1.5h-1.9c-.1,0-.2,0-.2.1C389.8,166.17,389.8,166.17,390,166.17Zm1.7.1a1.28,1.28,0,0,1,1,.4,1,1,0,0,1,.4.9,1,1,0,0,1-1.1,1.1h-.7v-2A.37.37,0,0,1,391.7,166.28Z"/><path class="a" d="M392.3,173.87a4.54,4.54,0,0,0,3.5-1.5,4.85,4.85,0,0,0,1.5-3.5,4.54,4.54,0,0,0-1.5-3.5,4.85,4.85,0,0,0-3.5-1.5,4.78,4.78,0,0,0-3.8,1.8,4.87,4.87,0,0,0,0,6.4A4.64,4.64,0,0,0,392.3,173.87Zm-3.2-8.2a4.16,4.16,0,0,1,3.1-1.3,4,4,0,0,1,3.1,1.3,4.22,4.22,0,0,1,1.3,3.2,4,4,0,0,1-1.3,3.1,4.16,4.16,0,0,1-3.1,1.3,4,4,0,0,1-3.1-1.3,4.16,4.16,0,0,1-1.3-3.1A4.63,4.63,0,0,1,389.1,165.67Z"/><path class="a" d="M289.5,261h-.1c-.3,0-.6-.3-.9-.8l-.1-.2-1.1-1.6a1.58,1.58,0,0,0,1-1.5c0-1-.7-1.5-2-1.5h-1.9c-.1,0-.2,0-.2.1s.1.1.2.2h.2c.3,0,.4.3.4.7v3.4c0,.5,0,.8-.1.9a1.38,1.38,0,0,1-.4.3.35.35,0,0,0-.2.1c0,.1.1.1.2.1h1.9c.1,0,.2,0,.2-.1s-.1-.1-.2-.2a.85.85,0,0,1-.6-.2c-.1-.1-.1-.3-.1-.6v-1.6h.7a.37.37,0,0,1,.3.1l.1.1,1,1.6c.4.6.8.9,1.3.9a1,1,0,0,0,.7-.2Zm-3.2-2.8h-.7v-2c0-.2.1-.3.4-.3a1.28,1.28,0,0,1,1,.4,1.07,1.07,0,0,1-.7,1.9Z"/><path class="a" d="M291.5,258.37a4.54,4.54,0,0,0-1.5-3.5,4.85,4.85,0,0,0-3.5-1.5,4.78,4.78,0,0,0-3.8,1.8,4.87,4.87,0,0,0,0,6.4,4.78,4.78,0,0,0,3.8,1.8,4.54,4.54,0,0,0,3.5-1.5A4.85,4.85,0,0,0,291.5,258.37Zm-5,4.4a4,4,0,0,1-3.1-1.3,4.16,4.16,0,0,1-1.3-3.1,4,4,0,0,1,1.3-3.1,4.16,4.16,0,0,1,3.1-1.3,4,4,0,0,1,3.1,1.3,4.22,4.22,0,0,1,1.3,3.2,4,4,0,0,1-1.3,3.1A4.3,4.3,0,0,1,286.5,262.78Z"/></svg>