<svg xmlns="http://www.w3.org/2000/svg" viewBox="0 0 446.6 350.87"><defs><style>.a{fill:#fff;}</style></defs><title>Asset 1</title><path class="a" d="M215.1,193.47v-24H203V161h12.1v-.8c0-8.5-3.9-14.8-31-10.1L139.6,158,114,193.47l61.5-10.9C193.9,179.47,210.1,178.88,215.1,193.47Z"/><path class="a" d="M244.4,160c-14,14-20.8,21.9-20.8,33.5,5.3-15.3,22.3-14,42.3-10.1l59,10.2-25.7-35.5-45-7.9Z"/><path class="a" d="M245.5,137.28c-5.5,5.5-15,14.1-19.4,23.7H236l11.4-11.3c10.5-10.5,18.5-18.5,22-28.5a36,36,0,0,0,1.9-18.3c-.3-2-1.1-4.8-1.2-4.2-1,11.4-4.2,18.2-20.7,34.7Z"/><path class="a" d="M192,89.78l22.4-22.5c6.1-6.1,21.4-19.8,21.4-31.7V22.38c0-.1-.3-.1-.3,0-1.1,8.9-3.2,12.7-24.9,34.4l-21.4,21.4c-11.3,11.3-20.5,23.4-19.3,36.9.7,7.6,3.2,11.7,4.8,12.9.8.6.6.2.4-.3C168.7,112.88,184.3,97.57,192,89.78Z"/><path class="a" d="M235.9,45c0-.1-.3-.1-.3,0-1.1,8.9-3.2,12.7-24.9,34.4l-19.8,19.9c-7.2,7.2-13.9,14.8-13.5,27,.2,7.5,4,13.7,9.6,15.2,2.3.5,2.2.2,1.6,0-8-3.8-7.4-18.2,5.5-31.2l20.4-20.4c6.1-6.1,21.4-19.8,21.4-31.7Z"/><path class="a" d="M168.8,104.67c1-11.4,4.2-18.2,20.7-34.7l25-25c6.1-6.1,21.4-19.8,21.4-31.7V.08c0-.1-.3-.1-.3,0-1.1,8.9-3.2,12.7-24.9,34.4l-19.2,19.2c-10.5,10.5-18.5,18.5-22,28.5a36,36,0,0,0-1.9,18.3C167.9,102.38,168.8,105.28,168.8,104.67Z"/><path class="a" d="M223.8,182.57a27.79,27.79,0,0,1,5.2-13.1h-5.5v13.1C223.5,182.67,223.8,182.67,223.8,182.57Z"/><path class="a" d="M249.5,110.78l-6.3,6.3c-9.7,9.7-19.6,20.5-19.6,30.5v13.3c0,.1.3.1.3,0,1.1-9.7,5.7-16,19.8-30.1l5.8-5.9c11.3-11.3,20.5-23.4,19.3-36.9-.7-7.6-3.2-11.7-4.8-12.9-.8-.6-.6-.2-.4.3C270.1,90.38,254.6,105.67,249.5,110.78Z"/><path class="a" d="M223.6,137.88c0,.1.3.1.3,0,1.1-9.3,6.4-16.3,18.5-28.4l5.8-5.8c7.2-7.2,13.7-14.8,13.4-27-.2-7.5-4-13.7-9.6-15.2-2.3-.5-2.2-.2-1.6,0,8,3.8,7.4,18.2-5.5,31.2l-7.1,7.1c-4.6,4.6-14.1,14.9-14.1,24.5v13.6Z"/><path class="a" d="M271.9,344.38v-34.3c0-4.7,4.6-3.3,4.6-4.9,0-.4-.3-.6-1.3-.6-2,0-3.9.3-6,.3-2.4,0-4.6-.3-7-.3-.6,0-.7.1-.7.7,0,1.4,5.2.1,5.2,4.7v32.8c0,6.3-4.9,4.2-4.9,6,0,.7.1,1,1.3,1,1,0,2.2-.1,6.1-.1,2.8,0,5.6.1,7,.1,1.1,0,1.3-.1,1.3-.6C277.5,347.27,271.9,348.77,271.9,344.38Z"/><path class="a" d="M174.5,340.67c-.8,0-3.1,6.6-17.8,6.6-5.3,0-4.7-1.5-4.7-5.3v-11.7c0-1-.3-2.1,1.1-2.1h9.5c5.3,0,3.2,5.6,5.2,5.6a.71.71,0,0,0,.7-.8c0-1.7-.1-3.3-.1-5,0-2.1.1-4.2.1-6.4,0-.6-.3-1.3-.7-1.3-1.5,0,.1,5.2-6.6,5.2h-6.8c-2.5,0-2.4,0-2.4-2.2v-11.8c0-4.3-.1-4,6-4,2.5,0,9.2-.4,10.9,1.8,1,1.4,0,4.5,1.5,4.5.3,0,1.3-.4,1.3-7.5,0-.8-.1-1.4-.7-1.4-2,0-7.8.3-9.1.3-2.8,0-6.1-.3-18.1-.3-1.3,0-1.9.1-2.1.4a1.33,1.33,0,0,0-1-.4c-1,0-1.8.3-4.9.3-1.5,0-2.9-.3-4.3-.3-.6,0-1,.1-1,.8,0,1.4,4.2.3,4.2,3.2.3,1.3-.6,3.3-1,4.3l-11,27.3c-.4.8-.6,1.8-1.3,1.8s-1-1.4-2.5-4.9l-11.1-26.2a7.05,7.05,0,0,1-.6-2.5c0-2.4,2.6-2.4,2.5-3.3,0-.3-.4-.6-.8-.6-.8,0-3.3.3-5,.3-2,0-3.9-.3-5.9-.3-.6,0-1,.3-1,.8,0,1.4,3.5.3,5,4l15.7,37.3c.6,1.3,1.3,4,2.4,4s1.4-2.1,2.1-3.8l15.9-37.6c1.6-3.9,3.2-2.9,3.6-3.7a3.88,3.88,0,0,0,1.7.6c3.3.4,3.3,3.5,3.3,6.4v29.1c0,3.1-.1,4.7-1.8,5.6-2,1-2.6.8-2.8,1.7,0,.4.4.6,1,.6,2.6,0,5.3-.1,7.8-.1,4.9-.1,9.8.1,14.6.1,2.8,0,4.2.1,6.3-2.1,1.4-1.7,3.1-3.9,3.1-6.3C174.9,341.28,174.9,340.67,174.5,340.67Z"/><path class="a" d="M220.2,304.57c-1.5,0-4.3.3-6.5.3-2,0-3.9-.3-5.7-.3-.4,0-.7.1-.7.6,0,2.2,7.1-.3,7.1,8.1v26.8c0,.4-.1.7-.3.7s-.4-.3-.7-.7l-30.5-34c-.4-.4-1-1.4-1.7-1.4-1,0-2,.3-2.9.3s-2-.3-3.1-.3c-.3,0-.8.3-.8.6,0,2.4,7.7-1.3,7.7,12v23.6c0,8.9-5.6,6.1-5.6,8.4,0,.4,0,.7.8.7.4,0,3.8-.1,6-.1,3.1,0,4.9.1,6.4.1.7,0,.7-.4.7-.8,0-1.7-5.6.6-5.6-5.2v-26.2c0-1.3.1-1.4.4-1.4s1.3,1.1,1.4,1.1l27.5,30.9c1.3,1.5,2,1.8,2.4,1.8.6,0,.6-.8.6-2.8v-36.9c0-4.6,3.8-3.5,3.8-5.2C220.8,304.78,220.5,304.57,220.2,304.57Z"/><path class="a" d="M261.2,306.38c-.1-1.4-.4-1.8-2-1.8-1.3,0-7.1.3-18.7.3-8.2,0-13.1-.3-18.1-.3-1.1,0-1.1,1.7-1.1,2.5l-.7,6.1c0,.3.1.8.6.8.8,0,.8-.8,1.1-1.5,1.1-3.5,1.3-4.5,5.3-4.5h10.2c1,0,.8,2.5.8,2.9v33.3c0,3.9-5,3.2-5,4.7,0,.7.1.8.7.8.4,0,1.7-.1,8.8-.1,1.8,0,3.6.1,5.2.1a.56.56,0,0,0,.6-.7c0-2-5.2.1-5.2-5.3v-32.5c0-2.9.1-3.1,2.5-3.1h9.2c6.5,0,3.1,4.9,5.4,4.9.8,0,.7-.8.7-1.4Z"/><path class="a" d="M78.3,304.57c-5.6,0-9.6.3-13.9.3-1.8,0-3.8-.3-5.7-.3-.4,0-.8.1-.8.6,0,1.8,5.2-.3,5.2,6.3v31.7c0,2.8-1.1,4.5-2.5,4.5-1.7,0-2.9-.7-4.3-2.6-2-3.1-2.9-6.6-4.2-9.6l-17.6-43.6c-.3-.7-.8-3.2-1.8-3.2s-1.4,1.4-6.4,12.1L6.1,343.87c-2.2,4.9-6.1,3.5-6.1,5.2,0,.6.3,1,.7,1,2.2,0,4.6-.3,6.8-.3,2.4,0,4.7.3,7.1.3,1.1,0,2.2.3,2.2-1.3,0-2.2-6,.3-6-5.6a6.83,6.83,0,0,1,.7-2.9l5.3-11.8c.8-1.8,2.4-1.8,4-1.8H39.5c2.4,0,2.8,1.3,3.6,3.2l2.8,7c.8,2.2,2.5,6.1,2.5,7.9,0,3.2-5,2.4-5,4.5,0,.8,1.4.8,1.8.8,2.4,0,4.6-.3,7-.3,2.8,0,4.9.1,8.4.1,2,0,5.4-.1,5.9-.1,3.2,0,6.4.1,9.8.1,17.7,0,24.7-10.2,24.7-24.8C100.8,313.07,89.6,304.57,78.3,304.57Zm-40.2,16.6H21.4c-1.1,0-1.7-.3-1.1-1.5l9.6-20.5c.6-1.1,1-1.1,1.4,0l8.2,20.3C39.9,320.67,40,321.17,38.1,321.17Zm40.2,26.9c-2.9,0-7.8-.8-9.9-2.9-.6-.6-.4-3.6-.4-4.6v-30.4c0-2.9.3-4,6.4-4,12.1.1,21.6,8.1,21.6,22.3C96,343.17,87.4,348.08,78.3,348.08Z"/><path class="a" d="M383.1,340.67c-.8,0-3,6.6-17.7,6.6-5.4,0-4.9-1.5-4.9-5.3v-11.8c0-1-.2-2,1.2-2h9.4c5.4,0,3.2,5.6,5.2,5.6a.71.71,0,0,0,.7-.8c0-1.7-.1-3.4-.1-5,0-2,.1-4.2.1-6.4,0-.5-.2-1.2-.7-1.2-1.5,0,.2,5.1-6.4,5.1h-7c-2.6,0-2.4,0-2.4-2.2v-11.9c0-4.3-.1-4,6-4,2.6,0,9.2-.4,10.8,1.8,1,1.5,0,4.5,1.5,4.5.4,0,1.3-.5,1.3-7.6,0-.8-.1-1.4-.6-1.4-2,0-7.8.3-9.1.3-2.7,0-6-.3-18.1-.3a6.25,6.25,0,0,0-1.8.2,3.92,3.92,0,0,0-1.3-.2c-1.3,0-7.1.3-18.7.3-8.2,0-15.3-.3-20.3-.3-1.3,0-1.4,1.7-2.4,1.7s-3.1-2.2-10.7-2.2c-7.4,0-14.2,3.9-14.2,12,0,16.6,25.9,9.8,25.9,22,0,6.8-5.9,10.2-12,10.2a13.62,13.62,0,0,1-13.4-9.6c-.4-1.3-.4-2.1-1.3-2.1-.7,0-1,.7-.7,1.9l1.5,8.2c.3,1.3,6.1,3.6,10.9,3.6,14.5,0,18.3-8.1,18.3-13.5,0-17.6-25.9-10.6-25.9-22.6,0-5.9,5.3-8.4,10.5-8.4,5.6,0,10,1.9,12,7.4.3.6.7,2,1.4,2,1.3,0,.7-2.8.7-3.5,0-2.2-.1-3.6,3.8-3.6h13.2c1,0,.8,2.5.8,2.9v33.1c0,3.9-5,3.2-5,4.7,0,.7.1.8.7.8.4,0,1.7-.1,8.8-.1,1.8,0,3.6.1,5.2.1a.56.56,0,0,0,.6-.7c0-2-5.2.1-5.2-5.3v-32.5c0-2.9,0-3.1,2.5-3.1h9.2c6.5,0,3.1,4.9,5.4,4.9.8,0,.7-.8.7-1.4l-.3-5.2v-.2c.3.1.6.1.8.2,3.4.5,3.4,3.6,3.4,6.4v29.1c0,3-.1,4.8-1.8,5.6-2,1-2.7.9-2.8,1.7,0,.5.4.6,1,.6,2.6,0,5.2-.2,7.8-.3,4.8-.1,9.7.3,14.5.3,2.8,0,4.2.1,6.3-2.2,1.5-1.7,3.2-3.9,3.2-6.2C383.6,341.28,383.5,340.67,383.1,340.67Z"/><path class="a" d="M428.7,304.57c-1.5,0-4.3.3-6.4.3s-3.9-.3-5.8-.3c-.4,0-.7.2-.7.6,0,2.1,7.1-.3,7.1,8v26.7c0,.5-.1.7-.2.7s-.4-.3-.8-.7L391.5,306c-.4-.4-1-1.5-1.7-1.5-1,0-2,.3-2.9.3s-2-.3-3-.3c-.3,0-1,.3-1,.6,0,2.4,7.7-1.3,7.7,11.9v23.5c0,8.9-5.6,6.1-5.6,8.4,0,.3.1.7.8.7.4,0,3.8-.3,6-.3,3.1,0,4.9.3,6.4.3.6,0,.7-.5.7-.8,0-1.7-5.6.5-5.6-5.2v-26.1c0-1.3.2-1.5.4-1.5.4,0,1.2,1.1,1.3,1.2l27.4,30.9c1.3,1.5,2,1.8,2.4,1.8s.6-.9.6-2.7v-36.9c0-4.7,3.8-3.5,3.8-5.2C429.4,304.78,429.1,304.57,428.7,304.57Z"/><path class="a" d="M45.2,288.47c.2,1.1,5.7,3.3,10.1,3.3,13.5,0,17-7.5,17-12.5,0-16.4-24.2-9.9-24.2-21.1,0-5.5,5-7.7,9.7-7.7,5.2,0,9.6,2.6,11.4,7.7.2.5.6,1.8,1.2,1.8s.7-.4.7-.9l-.9-8.1c-.1-.7-.4-.8-.7-.8-.6,0-.7.7-1.2.7-.8,0-2.8-2.1-10-2.1-6.8,0-13.2,3.6-13.2,11.2,0,15.5,24.2,9.1,24.2,20.6,0,6.2-5.5,9.4-11.2,9.4a12.74,12.74,0,0,1-12.5-8.9c-.3-1.2-.3-2-1.1-2-.6,0-.9.7-.7,1.8Z"/><path class="a" d="M88.9,260.17c2.5.4,2.5,2.6,2.5,4.6v20.8c0,2.1-.1,3.4-1.3,4-1.5.7-1.9.6-2,1.2,0,.4.3.5.7.5,1.8,0,3.7-.1,5.6-.2,3.5-.1,6.9.2,10.4.2,2,0,3,.1,4.5-1.6,1.1-1.2,2.3-2.8,2.3-4.4,0-.1,0-.5-.4-.5-.6,0-2.1,4.7-12.7,4.7-3.8,0-3.5-1.1-3.5-3.8v-8.4c0-.7-.1-1.5.8-1.5h6.8c3.8,0,2.3,4,3.7,4,.3,0,.5-.2.5-.6,0-1.2-.1-2.4-.1-3.6,0-1.5.1-3,.1-4.6,0-.4-.1-.9-.5-.9-1.1,0,.1,3.7-4.6,3.7H96.8c-1.8,0-1.7,0-1.7-1.6v-8.5c0-3.1-.1-2.9,4.3-2.9,1.8,0,6.6-.3,7.8,1.3.7,1,0,3.2,1.1,3.2.3,0,.9-.4.9-5.4,0-.5-.1-1-.5-1-1.4,0-5.6.2-6.5.2-1.9,0-4.3-.2-12.9-.2-1.3,0-1.6.2-1.6.5C87.5,260.07,88.5,260.17,88.9,260.17Z"/><path class="a" d="M139.6,289.57c-1.5.7-1.9.6-2,1.2,0,.4.3.5.7.5,1.8,0,3.7-.1,5.6-.2,3.5-.1,6.9.2,10.4.2,2,0,3,.1,4.5-1.6,1.1-1.2,2.3-2.8,2.3-4.4,0-.1,0-.5-.4-.5-.6,0-2.1,4.7-12.7,4.7-3.8,0-3.5-1.1-3.5-3.8v-8.4c0-.7-.1-1.5.8-1.5h6.8c3.8,0,2.3,4,3.7,4,.3,0,.5-.2.5-.6,0-1.2-.1-2.4-.1-3.6,0-1.5.1-3,.1-4.6,0-.4-.1-.9-.5-.9-1.1,0,.1,3.7-4.6,3.7h-4.9c-1.8,0-1.7,0-1.7-1.6v-8.5c0-3.1-.1-2.9,4.3-2.9,1.8,0,6.6-.3,7.8,1.3.7,1,0,3.2,1.1,3.2.3,0,.9-.4.9-5.4,0-.5-.1-1-.5-1-1.4,0-5.6.2-6.5.2-1.9,0-4.3-.2-12.9-.2-1.3,0-1.6.2-1.6.5,0,.6,1,.6,1.4.7,2.5.4,2.5,2.6,2.5,4.6v20.8C140.9,287.78,140.8,289.07,139.6,289.57Z"/><path class="a" d="M225.4,289.57c-1.5.7-1.9.6-2,1.2,0,.4.3.5.7.5,1.8,0,3.7-.1,5.6-.2,3.5-.1,6.9.2,10.4.2,2,0,3,.1,4.5-1.6,1.1-1.2,2.3-2.8,2.3-4.4,0-.1,0-.5-.4-.5-.6,0-2.1,4.7-12.7,4.7-3.8,0-3.5-1.1-3.5-3.8v-8.4c0-.7-.1-1.5.8-1.5h6.8c3.8,0,2.3,4,3.7,4,.3,0,.5-.2.5-.6,0-1.2-.1-2.4-.1-3.6,0-1.5.1-3,.1-4.6,0-.4-.1-.9-.5-.9-1.1,0,.1,3.7-4.6,3.7h-4.9c-1.8,0-1.7,0-1.7-1.6v-8.5c0-3.1-.1-2.9,4.3-2.9,1.8,0,6.6-.3,7.8,1.3.7,1,0,3.2,1.1,3.2.3,0,.9-.4.9-5.4,0-.5-.1-1-.5-1-1.4,0-5.6.2-6.5.2-1.9,0-4.3-.2-12.9-.2-1.3,0-1.6.2-1.6.5,0,.6,1,.6,1.4.7,2.5.4,2.5,2.6,2.5,4.6v20.8C226.7,287.78,226.6,289.07,225.4,289.57Z"/><path class="a" d="M211.8,261.47h6.5c4.7,0,2.2,3.5,3.9,3.5.6,0,.5-.5.5-1l-.2-3.7c0-1-.3-1.3-1.3-1.3s-5.1.2-13.4.2c-5.9,0-9.4-.2-13-.2-.8,0-.8,1.2-.8,1.8l-.5,4.4a.54.54,0,0,0,.5.5c.6,0,.6-.6.8-1,.8-2.5.9-3.2,3.7-3.2h7.4c.6,0,.5,1.8.5,2.1v23.7c0,2.7-3.6,2.3-3.6,3.4,0,.5.1.6.5.6a56.31,56.31,0,0,1,6.3-.2c1.3,0,2.6.2,3.7.2.5,0,.4-.4.4-.5,0-1.4-3.7.1-3.7-3.7v-23.3C209.9,261.28,209.7,261.47,211.8,261.47Z"/><path class="a" d="M308.1,252.47h8.5c6.1,0,2.8,4.5,5,4.5.8,0,.7-.7.7-1.3l-.3-4.8c-.1-1.4-.4-1.7-1.7-1.7s-6.6.2-17.4.2c-7.7,0-12.2-.2-16.9-.2-1.1,0-1,1.6-1.1,2.3l-.7,5.8a.66.66,0,0,0,.6.7c.8,0,.8-.8,1-1.4,1.1-3.3,1.2-4.2,4.9-4.2h9.7c.8.1.6,2.3.6,2.7V286c0,3.6-4.7,3-4.7,4.4,0,.6.2.8.7.8s1.5-.2,8.1-.2c1.7,0,3.4.2,4.8.2.6,0,.5-.5.5-.7,0-1.8-4.8.1-4.8-4.9v-30.3C305.8,252.28,305.5,252.47,308.1,252.47Z"/><path class="a" d="M77.7,262.88v23.4c0,4.5-3.6,3-3.6,4.3,0,.5.1.7,1,.7.6,0,1.6-.2,4.4-.2,2,0,3.9.2,5,.2.8,0,.9-.1.9-.5,0-1.4-4.1-.3-4.1-3.4v-24.5c0-3.4,3.3-2.4,3.3-3.5,0-.4-.1-.5-.9-.5-1.4,0-2.8.2-4.2.2-1.7,0-3.3-.2-5-.2-.4,0-.5.1-.5.5C74,260.47,77.7,259.57,77.7,262.88Z"/><path class="a" d="M329.4,258.17c-.6,0-.7.7-3.4,6.5L315.1,288c-1.2,2.6-3.3,1.8-3.3,2.8,0,.3.1.5.4.5,1.2,0,2.4-.2,3.7-.2s2.6.2,3.8.2c.6,0,1.2.1,1.2-.7,0-1.2-3.2.2-3.2-3a5.69,5.69,0,0,1,.3-1.6l2.9-6.4c.5-1,1.3-1,2.1-1h10c1.3,0,1.6.7,2,1.7l1.5,3.7a16.51,16.51,0,0,1,1.4,4.3c0,1.7-2.7,1.3-2.7,2.4,0,.5.7.5,1,.5,1.2,0,2.5-.2,3.7-.2,1.9,0,3.7.2,5.6.2.3,0,.6,0,.6-.4,0-1.1-2.6-.1-4-2.2a26.6,26.6,0,0,1-2.3-5.2l-9.5-23.5C330.3,259.57,329.9,258.17,329.4,258.17Zm3,18.4h-9c-.6,0-.9-.2-.6-.8l5.2-11.1c.3-.5.5-.5.7,0l4.5,11C333.4,276.28,333.4,276.57,332.4,276.57Z"/><path class="a" d="M168.3,267.28c.3,0,.9.8,1,.8l19.6,22.1c.9,1.1,1.4,1.3,1.7,1.3s.4-.6.4-2v-26.4c0-3.3,2.7-2.5,2.7-3.7a.37.37,0,0,0-.4-.4c-1.1,0-3.1.2-4.7.2-1.4,0-2.8-.2-4.1-.2-.3,0-.5.1-.5.4,0,1.6,5.1-.2,5.1,5.8v19.1c0,.3-.1.5-.2.5s-.3-.2-.5-.5L166.6,260c-.3-.3-.7-1-1.2-1-.7,0-1.4.2-2.1.2s-1.4-.2-2.2-.2c-.2,0-.6.2-.6.4,0,1.7,5.5-.9,5.5,8.6v16.8c0,6.4-4,4.4-4,6,0,.3,0,.5.6.5.3,0,2.7-.1,4.3-.1,2.2,0,3.5.1,4.6.1.5,0,.5-.3.5-.6,0-1.2-4,.4-4-3.7v-18.7C168,267.38,168.1,267.28,168.3,267.28Z"/><path class="a" d="M279.2,259c-1.1,0-3.1.2-4.7.2-1.4,0-2.8-.2-4.1-.2-.3,0-.5.1-.5.4,0,1.6,5.1-.2,5.1,5.8v19.1c0,.3-.1.5-.2.5s-.3-.2-.5-.5L252.5,260c-.3-.3-.7-1-1.2-1-.7,0-1.4.2-2.1.2s-1.4-.2-2.2-.2c-.2,0-.6.2-.6.4,0,1.7,5.5-.9,5.5,8.6v16.8c0,6.4-4,4.4-4,6,0,.3,0,.5.6.5.3,0,2.7-.1,4.3-.1,2.2,0,3.5.1,4.6.1.5,0,.5-.3.5-.6,0-1.2-4,.4-4-3.7v-18.7c0-.9.1-1,.3-1s.9.8,1,.8l19.6,22.1c.9,1.1,1.4,1.3,1.7,1.3s.4-.6.4-2v-26.4c0-3.3,2.7-2.5,2.7-3.7A.37.37,0,0,0,279.2,259Z"/><path class="a" d="M115.9,263.57V286c0,3.6-1.6,3.8-2.1,3.9-.8.3-1.4.4-1.4.9s.9.5,1.1.5c2.1,0,4.2-.2,6.3-.2,1.5,0,4.3.2,5.9.2,8.9,0,11.1-6.6,11.1-9.7,0-7.6-7.1-7.7-7.1-8.4,0-.3,4.3-1.8,4.3-6.5,0-3.4-2-7.7-10-7.7-3.6,0-5.5.2-7.3.2s-2.7-.2-3.6-.2c-.5,0-1.2,0-1.2.6C111.8,260.57,115.9,260.07,115.9,263.57Zm17.5,19.7c0,2.7-1.6,6.7-7.7,6.7-6.5,0-6.2-1-6.2-4.2v-10.2c0-.4-.2-1,3.3-1C133.2,274.57,133.4,280.38,133.4,283.28Zm-11.3-22.7c4.6,0,8.7,2.8,8.7,7.7,0,2.1-.4,4.9-7.8,4.9-4.1,0-3.6-.2-3.6-1.7V264C119.5,261.28,119.2,260.57,122.1,260.57Z"/><path class="a" d="M359.7,291.57c8.1,0,9.3-3.1,14-4.6v-9.3c0-3.1,2.3-2,2.3-3,0-.6-.9-.4-1.2-.4h-7.6c-.4,0-1-.1-1,.5,0,1.1,4,.2,4,2.3v7.1c0,3.9-5.3,5.9-9.5,5.9-8.8,0-13.4-7.7-13.4-15.8,0-7.5,4.1-14.4,12.3-14.4,10.7,0,12.8,8.8,14,8.8.5,0,.5-.5.5-.8l-.5-6c0-.4.1-1-.5-1s-.7.8-1.2.8c-1.3,0-3.6-3.1-11.4-3.1-9.7,0-17,6.8-17,16.6C343.4,285.38,349.6,291.57,359.7,291.57Z"/><path class="a" d="M378.5,289.07c.2.8,4.3,2.5,7.7,2.5,10.3,0,13-5.7,13-9.6,0-12.6-18.5-7.6-18.5-16.1,0-4.2,3.8-5.9,7.4-5.9a8.74,8.74,0,0,1,8.7,5.9c.1.4.5,1.4,1,1.4s.5-.3.5-.7l-.7-6.2c0-.5-.3-.6-.5-.6-.5,0-.5.5-1,.5s-2.1-1.6-7.6-1.6c-5.2,0-10.1,2.8-10.1,8.6,0,11.9,18.5,7,18.5,15.8,0,4.8-4.2,7.2-8.6,7.2a9.79,9.79,0,0,1-9.6-6.8c-.2-1-.2-1.5-.9-1.5-.5,0-.7.5-.5,1.4Z"/><path class="a" d="M295.7,273.47a8,8,0,0,0-2,.7l-9.3,3.2c-1.7.6-1.6.6-1.6,2.9,0,.4-.1,1.3.6,1.3a9.66,9.66,0,0,0,2-.7l9.3-3.2c1.7-.6,1.6-.6,1.6-2.8C296.2,274.47,296.4,273.47,295.7,273.47Z"/><path class="a" d="M443.5,314.38h-.2c-.4,0-.9-.4-1.4-1.2l-.2-.3-1.7-2.5a2.44,2.44,0,0,0,1.5-2.2c0-1.5-1-2.2-3-2.2h-3c-.2,0-.3.1-.3.2s.1.2.3.2h.3c.4.1.6.4.6,1v5.1a4.55,4.55,0,0,1-.1,1.4.68.68,0,0,1-.6.4c-.2,0-.2.1-.2.2s.1.2.3.2h2.9c.2,0,.3-.1.3-.2s-.1-.2-.3-.2a2.19,2.19,0,0,1-.9-.3,2.15,2.15,0,0,1-.2-1v-2.3h.9a.52.52,0,0,1,.4.2l.1.1,1.6,2.4a2.61,2.61,0,0,0,2,1.4c.6,0,1-.1,1-.3C443.7,314.47,443.6,314.38,443.5,314.38Zm-4.8-4.2h-.8c-.2,0-.3,0-.3-.1a.44.44,0,0,1-.1-.3v-2.7c0-.3.2-.5.6-.5a2,2,0,0,1,1.5.6,1.82,1.82,0,0,1,.6,1.4C440.3,309.57,439.8,310.17,438.7,310.17Z"/><path class="a" d="M444.4,305.07a7.65,7.65,0,0,0-11.2.5,7.57,7.57,0,0,0,0,9.8,7.16,7.16,0,0,0,5.8,2.7,7.51,7.51,0,0,0,7.6-7.6A7.73,7.73,0,0,0,444.4,305.07Zm-.6,10.2a6.76,6.76,0,1,1,2-4.8A7.18,7.18,0,0,1,443.8,315.28Z"/><path class="a" d="M326.6,180a7.6,7.6,0,1,0-5.8-12.5,7.57,7.57,0,0,0,0,9.8A7.16,7.16,0,0,0,326.6,180Zm-4.8-12.3a6.76,6.76,0,1,1-2,4.8A7,7,0,0,1,321.8,167.67Z"/><path class="a" d="M323.1,168.38h.3c.4.1.6.4.6,1v5.1a4.54,4.54,0,0,1-.1,1.4.68.68,0,0,1-.6.4c-.2,0-.2.1-.2.2s.1.2.3.2h2.9c.2,0,.3-.1.3-.2s-.1-.2-.3-.2a1.3,1.3,0,0,1-.9-.3,2.15,2.15,0,0,1-.2-1v-2.3h.9a.52.52,0,0,1,.4.2l.1.1,1.6,2.4a2.61,2.61,0,0,0,2,1.4c.6,0,1-.1,1-.3a.22.22,0,0,0-.2-.2h-.2c-.4,0-.9-.4-1.4-1.2l-.2-.3-1.7-2.5a2.44,2.44,0,0,0,1.5-2.2c0-1.5-1-2.2-3-2.2h-3c-.2,0-.3.1-.3.2S322.9,168.38,323.1,168.38Zm2.7.2a2,2,0,0,1,1.5.6,1.82,1.82,0,0,1,.6,1.4c0,1.1-.6,1.6-1.7,1.6h-.7c-.2,0-.3,0-.3-.1a.44.44,0,0,1-.1-.3v-2.7C325.2,168.67,325.4,168.57,325.8,168.57Z"/><path class="a" d="M131.6,240.78a1.6,1.6,0,0,1-1.3.9c-.3,0-.4.1-.4.3a.46.46,0,0,0,.5.4,4.4,4.4,0,0,0,.9-.1h4.9c.4,0,.7,0,.8.1.3,0,.4-.1.4-.3s-.2-.3-.5-.3a5.33,5.33,0,0,1-2.2-.8,3.88,3.88,0,0,1-.5-2.3v-5.5a.27.27,0,0,1,.3-.3c.1,0,.2.1.4.2l.3.3,8.1,8.4.3.3a1.09,1.09,0,0,0,.9.4h3.7c.3,0,.5-.1.5-.3s-.1-.2-.3-.3l-.7-.1a4.79,4.79,0,0,1-2.7-1.6l-7.9-8.3c-.3-.3-.4-.5-.4-.6a.91.91,0,0,1,.3-.5l5.2-4.7c2.6-2.3,4.3-3.6,5.2-3.8.5-.1.7-.3.7-.4s-.2-.3-.4-.3a1.34,1.34,0,0,0-.5.1h-5.6c-.3,0-.5.1-.5.3s.2.3.7.4c.7.1,1.1.4,1.1.9s-.5,1.2-1.5,2.1l-6.5,5.8-.2.2-.2.2c-.1,0-.1-.1-.1-.3v-5.9a9.1,9.1,0,0,1,.2-2.1,2.37,2.37,0,0,1,1.2-.9c.2-.1.4-.2.4-.4s-.1-.3-.4-.3a2.64,2.64,0,0,0-.7.1h-2.5a14.89,14.89,0,0,1-2.4-.1,4.33,4.33,0,0,1-.5-.1c-.3,0-.4.1-.4.3s.1.2.4.3l.7.1a1.46,1.46,0,0,1,1.3.9,6,6,0,0,1,.3,2.3v12.9A5.75,5.75,0,0,1,131.6,240.78Z"/><path class="a" d="M155.7,222.17l.8-.3c.3-.1.4-.2.4-.4s-.1-.3-.4-.3h-.4l-1,.1c-.5,0-1.2.1-1.9.1a23.58,23.58,0,0,1-2.9-.1H150c-.3,0-.4.1-.4.3s.2.3.5.4c.9.2,1.6.4,1.8.9a4.9,4.9,0,0,1,.4,2.5v13a6.51,6.51,0,0,1-.3,2.5,1.82,1.82,0,0,1-1.5.8c-.3.1-.5.2-.5.3s.1.3.4.3h.7l1.8-.1h2.2a6.22,6.22,0,0,1,1.6.1h.6c.3,0,.5-.1.5-.4s-.3-.3-.8-.4a2.57,2.57,0,0,1-1.4-.5,3.47,3.47,0,0,1-.8-1.1,8.54,8.54,0,0,1-.3-2.8v-11.4C154.5,223.67,154.9,222.47,155.7,222.17Z"/><path class="a" d="M174,226.38a4.58,4.58,0,0,0-1.8-3.9c-1.2-.9-2.9-1.3-5.3-1.3a16.23,16.23,0,0,0-2.1.1c-1.1.1-1.9.1-2.4.1h-1.3a8,8,0,0,1-1.1-.1c-.3,0-.5.1-.5.3s.2.3.5.4l.7.1c1.1.2,1.7,1.1,1.7,2.6v12.5a8.44,8.44,0,0,1-.4,3.4,2.16,2.16,0,0,1-1.6,1.1c-.3,0-.4.1-.4.3s.1.3.4.3a2.81,2.81,0,0,0,.8-.1,5.74,5.74,0,0,1,1.2-.1h2.3a9.23,9.23,0,0,1,1.9.1,5.53,5.53,0,0,1,.9.1c.4,0,.5-.1.5-.3s-.2-.3-.6-.3a3.37,3.37,0,0,1-2-.7,1.8,1.8,0,0,1-.6-.9,7.67,7.67,0,0,1-.1-1.8V233a.59.59,0,0,1,.2-.5l.3-.1h2a1.43,1.43,0,0,1,1.2.6l.2.3,3.8,5.8a8.7,8.7,0,0,0,2.2,2.4,4,4,0,0,0,2.4.7,6.05,6.05,0,0,0,1.5-.2c.4-.1.7-.3.7-.4s-.1-.2-.3-.2h-.5c-1.1-.1-2.3-1.1-3.6-2.9l-.5-.7-4.2-6.2C172.7,230.47,174,228.67,174,226.38Zm-3.4,3.9a4.5,4.5,0,0,1-3.1,1.1h-1.7a.86.86,0,0,1-1.1-1.1v-6.7a1.61,1.61,0,0,1,.3-1.1,1.74,1.74,0,0,1,1.2-.3,5.64,5.64,0,0,1,3.9,1.4,4.75,4.75,0,0,1,1.5,3.6A3.23,3.23,0,0,1,170.6,230.28Z"/><path class="a" d="M189.5,221.88c3.2,0,5.8,1.7,7.7,5,.2.4.4.6.5.6a.35.35,0,0,0,.2-.1v-.6l-.5-3.6q-.15-.6-.3-.6c-.1,0-.2.1-.5.2a.31.31,0,0,1-.2.1l-.3-.1-.2-.1-.6-.3a11.7,11.7,0,0,0-5.9-1.4,10.6,10.6,0,0,0-10.9,11,9.94,9.94,0,0,0,3,7.6,11,11,0,0,0,7.9,2.9,13.83,13.83,0,0,0,7.7-2.2c.4-.3.7-.6.7-.8l.1-.3.3-1.9.1-.3v-.2c0-.2-.1-.3-.2-.3s-.3.3-.6.8a7,7,0,0,1-3,2.9,9.49,9.49,0,0,1-4.5,1.2,8,8,0,0,1-6.4-3,11.51,11.51,0,0,1-2.5-7.7,9.15,9.15,0,0,1,2.2-6.5A8.62,8.62,0,0,1,189.5,221.88Z"/><path class="a" d="M206.1,222.57a2,2,0,0,1,1.4-.7c.3-.1.4-.2.4-.3s-.1-.3-.4-.3a1.27,1.27,0,0,0-.6.1,12.75,12.75,0,0,1-2,.1,23.52,23.52,0,0,1-2.8-.1,3.44,3.44,0,0,0-.9-.1c-.3,0-.4.1-.4.3s.1.3.4.3a2.53,2.53,0,0,1,1.8.8,3.09,3.09,0,0,1,.5,1.9v13a19,19,0,0,1-.2,3,1.32,1.32,0,0,1-.9,1l-.8.2c-.3.1-.4.2-.4.4s.1.3.4.3a5.81,5.81,0,0,0,1-.1c.4,0,.7-.1,1-.1h2.3a7.67,7.67,0,0,1,1.8.1,3.55,3.55,0,0,1,.7.1c.3,0,.4-.1.4-.3s-.2-.3-.6-.4a3.05,3.05,0,0,1-1.9-.8,4,4,0,0,1-.5-2.2v-5.6a1.44,1.44,0,0,1,.2-.9,2,2,0,0,1,1.1-.2H216c.5,0,.8,0,.9.1s.1.4.1.8v6.2c0,1.5-.5,2.4-1.6,2.6-.3,0-.5.2-.5.3s.1.3.4.3a5.81,5.81,0,0,0,1-.1h2.9a5,5,0,0,1,1.5.1,2.48,2.48,0,0,0,.8.1c.3,0,.4-.1.4-.4s-.2-.3-.5-.3c-.9-.1-1.4-.3-1.7-.8a4,4,0,0,1-.5-2.2v-14.7a2.5,2.5,0,0,1,.3-1.3,1.34,1.34,0,0,1,.8-.7l.6-.1a.45.45,0,0,0,.4-.3c0-.2-.1-.3-.4-.3a1.76,1.76,0,0,0-.6.1,12.89,12.89,0,0,1-2.3.1,14.08,14.08,0,0,1-2.1-.1,4.59,4.59,0,0,0-1-.1c-.2,0-.4.1-.4.2s.1.3.4.4a2.75,2.75,0,0,1,1.5.9,4.09,4.09,0,0,1,.4,2.2v5.2c0,.3-.1.5-.2.5s-.4.1-.8.1h-8.9a2,2,0,0,1-1.1-.2,1.85,1.85,0,0,1-.2-1v-5.5A2.73,2.73,0,0,1,206.1,222.57Z"/><path class="a" d="M238.2,225.38c.2,0,.3-.1.3-.2a4.17,4.17,0,0,0,.2-1.1l.1-.9a8.33,8.33,0,0,0,.1-1.2v-.3c0-.3-.2-.4-.5-.4a1.76,1.76,0,0,0-.6.1,6.61,6.61,0,0,0-1.1.1l-2.2.1c-.9,0-2,.1-3.3.1-2,0-3.8-.1-5.2-.2a4.14,4.14,0,0,0-1-.1c-.5,0-.7.1-.7.4s.1.3.4.3a2.27,2.27,0,0,1,1.9.8,6.24,6.24,0,0,1,.5,2.9v13.8c0,1.2-.4,1.9-1.1,2.1l-.6.2c-.3.1-.4.2-.4.4s.2.3.5.3a3.22,3.22,0,0,0,.8-.1,28.58,28.58,0,0,1,3.7-.2,47.14,47.14,0,0,1,4.8.3c.5,0,.9.1,1.2.1a4.12,4.12,0,0,0,3.4-1.6,4.29,4.29,0,0,0,1.1-2.3c0-.3-.1-.4-.3-.4s-.2.1-.3.3c-1.1,1.8-3.7,2.7-7.6,2.7a5,5,0,0,1-2.3-.3c-.3-.2-.5-.7-.5-1.6v-6.1a.85.85,0,0,1,.2-.6,2.15,2.15,0,0,1,1-.2H234a2.65,2.65,0,0,1,1.8.4c.4.2.6.7.7,1.4l.1.4c0,.2.2.3.4.3s.3-.1.3-.4v-.4a10.87,10.87,0,0,1-.1-1.8,26.23,26.23,0,0,1,.1-2.7v-.3c0-.3-.1-.4-.3-.4s-.3.1-.4.4a3.93,3.93,0,0,1-.4,1.3,1.93,1.93,0,0,1-1.1.4,15.74,15.74,0,0,1-2.5.2h-2.3c-.4,0-.7,0-.8-.1s-.1-.4-.1-.8v-6.1c0-.5.1-.9.3-1s.6-.2,1.2-.2h2.4a20,20,0,0,1,3.2.2,1.93,1.93,0,0,1,1.2.9,2.92,2.92,0,0,1,.2.9v.4C237.9,225.28,238,225.38,238.2,225.38Z"/><path class="a" d="M252.7,240.88c-.2.4-.6.6-1.3.8-.3.1-.4.2-.4.3a.35.35,0,0,0,.5.3,3.44,3.44,0,0,0,.9-.1,21.58,21.58,0,0,1,2.8-.2c1,0,2.2,0,3.5.1a8.8,8.8,0,0,0,1.4.1,11.94,11.94,0,0,0,6.1-1.7,9.89,9.89,0,0,0,3.5-3.8,11.49,11.49,0,0,0,1.2-5.3,9.8,9.8,0,0,0-2.8-7.3c-2.1-2.1-5.2-3.1-9.3-3.1a12.75,12.75,0,0,0-2,.1l-1.4.1a16.27,16.27,0,0,1-2.4.1h-1.1l-1.2-.1c-.3,0-.4.1-.4.3s.2.3.5.3a2.48,2.48,0,0,1,1.7.8,4.2,4.2,0,0,1,.5,2.2v13.7A5.9,5.9,0,0,1,252.7,240.88Zm2.7-17.1c0-.6.1-1,.4-1.2a5.87,5.87,0,0,1,3-.5,9.84,9.84,0,0,1,5.7,1.7,8.8,8.8,0,0,1,3,3.8,12.74,12.74,0,0,1,1.1,5.2c0,3.5-1.2,6-3.5,7.4a8.32,8.32,0,0,1-4.7,1.3,18.32,18.32,0,0,1-2.1-.2,19.27,19.27,0,0,1-2-.5,1.29,1.29,0,0,1-.9-1.3Z"/><path class="a" d="M276,239.38c0,1.2-.4,1.9-1.1,2.1l-.6.2c-.3.1-.4.2-.4.4s.2.3.5.3a3.22,3.22,0,0,0,.8-.1,28.58,28.58,0,0,1,3.7-.2,47.14,47.14,0,0,1,4.8.3c.5,0,.9.1,1.2.1a4.12,4.12,0,0,0,3.4-1.6,4.29,4.29,0,0,0,1.1-2.3c0-.3-.1-.4-.3-.4s-.2.1-.3.3c-1.1,1.8-3.7,2.7-7.6,2.7a5,5,0,0,1-2.3-.3c-.3-.2-.5-.7-.5-1.6v-6.1a.85.85,0,0,1,.2-.6,2.15,2.15,0,0,1,1-.2h3.3a2.65,2.65,0,0,1,1.8.4c.4.2.6.7.7,1.4l.1.4c0,.2.2.3.4.3s.3-.1.3-.4v-.4a10.87,10.87,0,0,1-.1-1.8,26.23,26.23,0,0,1,.1-2.7v-.3c0-.3-.1-.4-.3-.4s-.3.1-.4.4a3.93,3.93,0,0,1-.4,1.3,1.93,1.93,0,0,1-1.1.4,15.74,15.74,0,0,1-2.5.2h-2.3c-.4,0-.7,0-.8-.1s-.1-.4-.1-.8v-6.1c0-.5.1-.9.3-1s.6-.2,1.2-.2h2.4a20,20,0,0,1,3.2.2,1.93,1.93,0,0,1,1.2.9,2.92,2.92,0,0,1,.2.9v.4c0,.3.1.5.3.5s.3-.1.3-.2a4.17,4.17,0,0,0,.2-1.1l.1-.9a8.37,8.37,0,0,1,.1-1.2v-.3c0-.3-.2-.4-.5-.4a1.76,1.76,0,0,0-.6.1,6.61,6.61,0,0,0-1.1.1l-2.2.1c-1,0-2,.1-3.3.1-2,0-3.8-.1-5.2-.2a4.14,4.14,0,0,0-1-.1c-.5,0-.7.1-.7.4s.1.3.4.3a2.27,2.27,0,0,1,1.9.8,6.24,6.24,0,0,1,.5,2.9v13.1Z"/><path class="a" d="M305.8,226.38a4.58,4.58,0,0,0-1.8-3.9c-1.2-.9-2.9-1.3-5.3-1.3a16.23,16.23,0,0,0-2.1.1c-1.1.1-1.9.1-2.4.1h-1.3a8,8,0,0,1-1.1-.1c-.3,0-.5.1-.5.3s.2.3.5.4l.7.1c1.1.2,1.7,1.1,1.7,2.6v12.5a8.44,8.44,0,0,1-.4,3.4,2.16,2.16,0,0,1-1.6,1.1c-.3,0-.4.1-.4.3s.1.3.4.3a2.81,2.81,0,0,0,.8-.1,5.74,5.74,0,0,1,1.2-.1h2.3a9.23,9.23,0,0,1,1.9.1,5.53,5.53,0,0,1,.9.1c.4,0,.5-.1.5-.3s-.2-.3-.6-.3a3.37,3.37,0,0,1-2-.7,1.8,1.8,0,0,1-.6-.9,7.67,7.67,0,0,1-.1-1.8V233a.59.59,0,0,1,.2-.5l.3-.1h2a1.43,1.43,0,0,1,1.2.6l.2.3,3.8,5.8a8.7,8.7,0,0,0,2.2,2.4,4,4,0,0,0,2.4.7,6.05,6.05,0,0,0,1.5-.2c.4-.1.7-.3.7-.4s-.1-.2-.3-.2h-.5c-1.1-.1-2.3-1.1-3.6-2.9l-.5-.7-4.2-6.2C304.5,230.47,305.8,228.67,305.8,226.38Zm-3.4,3.9a4.5,4.5,0,0,1-3.1,1.1h-1.7a.86.86,0,0,1-1.1-1.1v-6.7a1.61,1.61,0,0,1,.3-1.1,1.74,1.74,0,0,1,1.2-.3,5.64,5.64,0,0,1,3.9,1.4,4.75,4.75,0,0,1,1.5,3.6A3.23,3.23,0,0,1,302.4,230.28Z"/></svg>