<svg xmlns="http://www.w3.org/2000/svg" viewBox="0 0 275.1 216.97"><defs><style>.a{fill:#fff;}</style></defs><title>Asset 1</title><path class="a" d="M41.4,153.77a10.9,10.9,0,0,0,5.8-1.7c.3-.2.5-.4.5-.6v-.2l.3-1.4v-.4c0-.2-.1-.2-.2-.2s-.3.2-.5.6a4.93,4.93,0,0,1-2.3,2.2,6.92,6.92,0,0,1-3.4.9,6,6,0,0,1-4.8-2.3,9,9,0,0,1-1.9-5.8,6.94,6.94,0,0,1,1.7-4.9,5.88,5.88,0,0,1,4.6-1.8,6.44,6.44,0,0,1,5.8,3.7c.2.3.3.5.4.5s.1,0,.2-.1v-.4l-.4-2.7c0-.3-.1-.4-.2-.4s-.2.1-.3.2-.1.1-.2.1l-.2-.1-.2-.1-.5-.2a9.26,9.26,0,0,0-4.4-1.1,8,8,0,0,0-5.8,2.3,8.23,8.23,0,0,0-2.3,5.9,7.39,7.39,0,0,0,2.2,5.7A8.29,8.29,0,0,0,41.4,153.77Z"/><path class="a" d="M50.1,138.27a2,2,0,0,1,1.3.6,2.59,2.59,0,0,1,.4,1.4v9.8a9.47,9.47,0,0,1-.2,2.2,1,1,0,0,1-.7.8l-.6.1a.27.27,0,0,0-.3.3c0,.1.1.2.3.2a2.64,2.64,0,0,0,.7-.1h2.5a4.55,4.55,0,0,1,1.4.1,3.54,3.54,0,0,1,.6.1c.2,0,.3-.1.3-.2s-.2-.3-.4-.3a2.29,2.29,0,0,1-1.4-.6,2.5,2.5,0,0,1-.4-1.7v-4.2a1,1,0,0,1,.2-.7c.1-.1.4-.1.8-.1h6.7c.4,0,.6,0,.7.1s.1.3.1.6v4.6c0,1.2-.4,1.8-1.2,1.9-.3,0-.4.1-.4.3s.1.2.3.2a3.75,3.75,0,0,0,.8-.1h3.3c.2,0,.4.1.6.1a.27.27,0,0,0,.3-.3c0-.1-.1-.2-.4-.2a2,2,0,0,1-1.3-.6,3.42,3.42,0,0,1-.3-1.7v-11a3,3,0,0,1,.2-1c.2-.3.4-.5.6-.5l.5-.1c.2,0,.3-.1.3-.2s-.1-.2-.3-.2h-.4c-.3,0-.9.1-1.7.1a8.08,8.08,0,0,1-1.6-.1c-.4,0-.6-.1-.8-.1s-.3.1-.3.2.1.2.3.3a1.44,1.44,0,0,1,1.1.7,3.42,3.42,0,0,1,.3,1.7v3.9c0,.2,0,.3-.1.4s-.3.1-.6.1H54.6c-.5,0-.7,0-.8-.1s-.1-.3-.1-.8v-4.1a1.74,1.74,0,0,1,.3-1.2,2.89,2.89,0,0,1,1-.6c.2-.1.3-.1.3-.3s-.1-.2-.3-.2h-.5a7.57,7.57,0,0,1-1.5.1,13.42,13.42,0,0,1-2.1-.1c-.3,0-.5-.1-.7-.1s-.3.1-.3.2C49.7,138.18,49.9,138.18,50.1,138.27Z"/><path class="a" d="M67.9,138.38c.7.1,1.2.3,1.4.7a4.09,4.09,0,0,1,.3,1.9v9.7a6.57,6.57,0,0,1-.2,1.9,1.46,1.46,0,0,1-1.1.6c-.2,0-.4.1-.4.3s.1.2.3.2h.5l1.3-.1h3.2c.2,0,.4-.1.4-.3s-.2-.2-.6-.3a8.11,8.11,0,0,1-1.1-.3,2.76,2.76,0,0,1-.6-.8,7.83,7.83,0,0,1-.2-2.1v-8.5c0-1.6.3-2.5.8-2.7l.6-.2q.3-.15.3-.3c0-.1-.1-.2-.3-.2h-.3l-.8.1H70a13.47,13.47,0,0,1-2.2-.1h-.2c-.2,0-.3.1-.3.2A3.33,3.33,0,0,1,67.9,138.38Z"/><path class="a" d="M77.2,151.47c0,.9-.3,1.4-.8,1.6l-.4.1c-.2.1-.3.1-.3.3s.1.2.4.2a1.76,1.76,0,0,0,.6-.1,19.47,19.47,0,0,1,2.8-.1c.9,0,2.1.1,3.6.2H84a3,3,0,0,0,2.5-1.2,2.79,2.79,0,0,0,.8-1.8c0-.2-.1-.3-.2-.3s-.2.1-.3.2c-.8,1.3-2.8,2-5.7,2a6.25,6.25,0,0,1-1.8-.2,1.74,1.74,0,0,1-.3-1.2v-4.5a.76.76,0,0,1,.2-.5c.1-.1.4-.1.7-.1h2.5a2.42,2.42,0,0,1,1.4.3,1.1,1.1,0,0,1,.5,1l.1.3a.27.27,0,0,0,.3.3c.1,0,.2-.1.2-.3v-.3c0-.5-.1-.9-.1-1.4a14.08,14.08,0,0,1,.1-2v-.2c0-.2-.1-.3-.2-.3a.27.27,0,0,0-.3.3,4.05,4.05,0,0,1-.3,1,2.19,2.19,0,0,1-.8.3,10.32,10.32,0,0,1-1.9.1H79.6c-.3,0-.5,0-.6-.1s-.1-.3-.1-.6v-4.6a1.29,1.29,0,0,1,.2-.8,1.44,1.44,0,0,1,.9-.2h1.8a11,11,0,0,1,2.4.2,1.27,1.27,0,0,1,.9.7,1.7,1.7,0,0,1,.1.7v.3c0,.2.1.3.2.3s.2-.1.3-.2a5.38,5.38,0,0,0,.1-.8v-.7a5.53,5.53,0,0,1,.1-.9v-.3c0-.2-.1-.3-.4-.3H84.2l-1.6.1H80.1c-1.5,0-2.8-.1-3.9-.2-.3,0-.6-.1-.8-.1s-.5.1-.5.3.1.2.3.2c.7,0,1.2.2,1.4.6A5,5,0,0,1,77,141v9.6Z"/><path class="a" d="M93.8,153a4.64,4.64,0,0,1-2.9-1,3.74,3.74,0,0,1-1.7-2.4c-.1-.4-.2-.6-.4-.6s-.2.1-.2.3a6.36,6.36,0,0,0,.3,1.5c.2.6.3,1,.3,1,.1.4.2.7.2.8s.1.2.3.3a5.71,5.71,0,0,0,1.5.6,6.48,6.48,0,0,0,1.9.2,6.09,6.09,0,0,0,4-1.4,4.54,4.54,0,0,0,1.5-3.5q0-3.15-4.2-4.5c-1.4-.5-2.3-.8-2.7-1a2.84,2.84,0,0,1-1-.9,2.46,2.46,0,0,1-.5-1.7,2.5,2.5,0,0,1,.8-1.8,2.72,2.72,0,0,1,2-.7,5.38,5.38,0,0,1,2.8.8,4.1,4.1,0,0,1,1.7,2c.1.4.2.5.4.5s.2-.1.2-.4a1.34,1.34,0,0,0-.1-.5l-.2-1.2a6.61,6.61,0,0,1-.1-1.1q0-.6-.3-.6h-.1l-.2.1a.37.37,0,0,1-.3.1h-.2l-.8-.3a6,6,0,0,0-2.1-.4,5.13,5.13,0,0,0-3.5,1.2,3.89,3.89,0,0,0-1.4,3,3.34,3.34,0,0,0,1.1,2.7,9.82,9.82,0,0,0,3.6,1.9,11.31,11.31,0,0,1,3,1.3,2.64,2.64,0,0,1,1,2.1,4.49,4.49,0,0,1-3.7,3.6Z"/><path class="a" d="M102.9,148.68a3.05,3.05,0,0,1,.5-.9,2.24,2.24,0,0,1,1-.1h4.1c.4,0,.7,0,.8.1a3.22,3.22,0,0,1,.4.7l.6,1.5a7.59,7.59,0,0,1,.7,2.4.76.76,0,0,1-.6.8l-.4.1c-.2,0-.3.1-.3.2s.1.2.3.2h.4c.3,0,.9-.1,2-.1a11,11,0,0,1,2.1.1h.4c.2,0,.3-.1.3-.2s-.1-.2-.3-.3a2.73,2.73,0,0,1-1.4-.5,7.58,7.58,0,0,1-.9-1.7l-.2-.6-4.9-12.5q-.15-.3-.3-.3t-.3.3l-5.8,13-.3.8c-.2.3-.4.7-.6,1l-.6.6-.4.1a.22.22,0,0,0-.2.2c0,.1.1.2.3.2a2.8,2.8,0,0,0,.6-.1h1.8l1.1.1h.4c.2,0,.3-.1.3-.2s-.1-.2-.4-.3a2.3,2.3,0,0,1-1.1-.4,1,1,0,0,1-.3-.8,5.78,5.78,0,0,1,.5-1.7Zm1.3-2.9,2.2-4.9c.1-.2.1-.2.2-.2s.2.1.3.4l.1.2,1.8,4.5.1.2c0,.1.1.2.1.3s-.2.3-.6.3h-3.7c-.3,0-.5-.1-.5-.3C104,146.18,104.1,146,104.2,145.77Z"/><path class="a" d="M135.5,152.18c.3-.2.5-.4.5-.6v-.2l.3-1.4v-.4c0-.2-.1-.2-.2-.2s-.3.2-.5.6a4.93,4.93,0,0,1-2.3,2.2,6.92,6.92,0,0,1-3.4.9,6,6,0,0,1-4.8-2.3,9,9,0,0,1-1.9-5.8,6.94,6.94,0,0,1,1.7-4.9,5.88,5.88,0,0,1,4.6-1.8,6.44,6.44,0,0,1,5.8,3.7c.2.3.3.5.4.5s.1,0,.2-.1V142l-.4-2.7c0-.3-.1-.4-.2-.4s-.2.1-.3.2-.1.1-.2.1l-.2-.1-.2-.1-.5-.2a9.26,9.26,0,0,0-4.4-1.1,8,8,0,0,0-5.8,2.3,8.23,8.23,0,0,0-2.3,5.9,7.39,7.39,0,0,0,2.2,5.7,8.42,8.42,0,0,0,5.9,2.2A10.77,10.77,0,0,0,135.5,152.18Z"/><path class="a" d="M152.6,153.18h-.4c-.8-.1-1.7-.8-2.7-2.2l-.4-.5-3.1-4.6a4.31,4.31,0,0,0,2.8-4,3.24,3.24,0,0,0-1.3-2.9,6.25,6.25,0,0,0-3.9-1,9.15,9.15,0,0,0-1.6.1,13.57,13.57,0,0,1-1.8.1h-1.8c-.3,0-.4.1-.4.2s.1.2.4.3l.5.1c.8.1,1.2.8,1.2,2v9.4a7.54,7.54,0,0,1-.3,2.6,1.55,1.55,0,0,1-1.2.8c-.2,0-.3.1-.3.2s.1.2.3.2h.6c.4,0,.7-.1.9-.1h3.1a5.64,5.64,0,0,1,.7.1c.3,0,.4-.1.4-.2s-.1-.2-.4-.3a2.17,2.17,0,0,1-2-1.1,4.15,4.15,0,0,1-.1-1.3V147c0-.2,0-.3.1-.4h1.7a1.05,1.05,0,0,1,.9.5l.2.3,2.8,4.3a6,6,0,0,0,1.7,1.8,3,3,0,0,0,1.8.6,3.75,3.75,0,0,0,1.1-.1c.3-.1.5-.2.5-.3C152.8,153.18,152.7,153.18,152.6,153.18Zm-8.6-7.7h-1.3c-.3,0-.6,0-.7-.1s-.1-.3-.1-.7v-5c0-.4.1-.7.3-.8a2,2,0,0,1,.9-.2,4.43,4.43,0,0,1,3,1.1,3.42,3.42,0,0,1,1.2,2.7,2.66,2.66,0,0,1-.9,2.2A4.07,4.07,0,0,1,144,145.47Z"/><path class="a" d="M155.9,153.57h3.2c.2,0,.4-.1.4-.3s-.2-.2-.6-.3a8.11,8.11,0,0,1-1.1-.3,2.76,2.76,0,0,1-.6-.8,7.83,7.83,0,0,1-.2-2.1v-8.5c0-1.6.3-2.5.8-2.7l.6-.2q.3-.15.3-.3c0-.1-.1-.2-.3-.2h-.3l-.8.1h-1.4a13.47,13.47,0,0,1-2.2-.1h-.2c-.2,0-.3.1-.3.2s.1.2.4.3c.7.1,1.2.3,1.4.7a4.09,4.09,0,0,1,.3,1.9v9.7a6.57,6.57,0,0,1-.2,1.9,1.46,1.46,0,0,1-1.1.6c-.2,0-.4.1-.4.3s.1.2.3.2h.5Z"/><path class="a" d="M166,153a4.64,4.64,0,0,1-2.9-1,3.74,3.74,0,0,1-1.7-2.4c-.1-.4-.2-.6-.4-.6s-.2.1-.2.3a6.36,6.36,0,0,0,.3,1.5c.2.6.3,1,.3,1,.1.4.2.7.2.8s.1.2.3.3a5.71,5.71,0,0,0,1.5.6,6.48,6.48,0,0,0,1.9.2,6.09,6.09,0,0,0,4-1.4,4.54,4.54,0,0,0,1.5-3.5q0-3.15-4.2-4.5c-1.4-.5-2.3-.8-2.7-1a2.84,2.84,0,0,1-1-.9,2.46,2.46,0,0,1-.5-1.7,2.5,2.5,0,0,1,.8-1.8,2.72,2.72,0,0,1,2-.7,5.38,5.38,0,0,1,2.8.8,4.1,4.1,0,0,1,1.7,2c.1.4.2.5.4.5s.2-.1.2-.4a1.34,1.34,0,0,0-.1-.5l-.2-1.2a6.61,6.61,0,0,1-.1-1.1q0-.6-.3-.6h-.1l-.2.1a.37.37,0,0,1-.3.1h-.2l-.8-.3a6,6,0,0,0-2.1-.4,5.13,5.13,0,0,0-3.5,1.2,3.89,3.89,0,0,0-1.4,3,3.62,3.62,0,0,0,1,2.7,9.82,9.82,0,0,0,3.6,1.9,11.31,11.31,0,0,1,3,1.3,2.64,2.64,0,0,1,1,2.1,2.79,2.79,0,0,1-1.1,2.2A2.58,2.58,0,0,1,166,153Z"/><path class="a" d="M180,139.27c.1-.1.3-.1.6-.1h3.2a3.48,3.48,0,0,1,1.3.2,1.87,1.87,0,0,1,.5,1.1c0,.2.1.4.3.4s.2-.1.2-.4a1.76,1.76,0,0,0-.1-.6c0-.2-.1-.5-.1-1s0-.7-.1-.8-.3-.1-.8-.1H172.8a.59.59,0,0,0-.5.2c-.1.1-.1.3-.1.7a6.88,6.88,0,0,1-.2,1.3,3.44,3.44,0,0,0-.1.9c0,.2.1.3.2.3s.2-.1.3-.4a4.78,4.78,0,0,1,.6-1.4,2.23,2.23,0,0,1,1.3-.4h3c.3,0,.5,0,.6.1s.1.2.1.5v11.6a2.06,2.06,0,0,1-.3,1.3,2.25,2.25,0,0,1-1.2.5c-.2,0-.4.1-.4.2s.1.2.3.2a3.75,3.75,0,0,0,.8-.1h3.5a3.54,3.54,0,0,1,.6.1c.2,0,.3-.1.3-.2s-.1-.2-.4-.3c-1-.2-1.5-.7-1.5-1.6v-11.6C179.9,139.68,179.9,139.38,180,139.27Z"/><path class="a" d="M188.8,152.57a1.46,1.46,0,0,1-1.1.6c-.2,0-.4.1-.4.3s.1.2.3.2h.5l1.3-.1h3.2c.2,0,.4-.1.4-.3s-.2-.2-.6-.3a8.11,8.11,0,0,1-1.1-.3,2.76,2.76,0,0,1-.6-.8,7.83,7.83,0,0,1-.2-2.1v-8.5c0-1.6.3-2.5.8-2.7l.6-.2q.3-.15.3-.3c0-.1-.1-.2-.3-.2h-.3l-.8.1h-1.4a13.47,13.47,0,0,1-2.2-.1H187c-.2,0-.3.1-.3.2s.1.2.4.3c.7.1,1.2.3,1.4.7a4.09,4.09,0,0,1,.3,1.9v9.7A2.33,2.33,0,0,1,188.8,152.57Z"/><path class="a" d="M201.7,137.38q-.15,0-.3.3l-5.8,13-.3.8c-.2.3-.4.7-.6,1l-.6.6-.4.1a.22.22,0,0,0-.2.2c0,.1.1.2.3.2a2.8,2.8,0,0,0,.6-.1h1.8l1.1.1h.4c.2,0,.3-.1.3-.2s-.1-.2-.4-.3a2.3,2.3,0,0,1-1.1-.4,1,1,0,0,1-.3-.8,5.78,5.78,0,0,1,.5-1.7l.7-1.7a3.05,3.05,0,0,1,.5-.9,2.24,2.24,0,0,1,1-.1H203c.4,0,.7,0,.8.1a3.22,3.22,0,0,1,.4.7l.6,1.5a7.59,7.59,0,0,1,.7,2.4.76.76,0,0,1-.6.8l-.4.1c-.2,0-.3.1-.3.2s.1.2.3.2h.4c.3,0,.9-.1,2-.1a11,11,0,0,1,2.1.1h.4c.2,0,.3-.1.3-.2s-.1-.2-.3-.3a2.73,2.73,0,0,1-1.4-.5,7.58,7.58,0,0,1-.9-1.7l-.2-.6-4.9-12.5C201.9,137.57,201.8,137.38,201.7,137.38Zm1.6,8.6c0,.1.1.2.1.3s-.2.3-.6.3h-3.7c-.3,0-.5-.1-.5-.3a.76.76,0,0,1,.1-.4l2.2-4.9c.1-.2.1-.2.2-.2s.2.1.3.4l.1.2,1.8,4.5Z"/><path class="a" d="M209.7,138.27a2.2,2.2,0,0,1,1.8,1.3,6.84,6.84,0,0,1,.6,3.1v7.7a4.18,4.18,0,0,1-.3,1.8,2.18,2.18,0,0,1-1.3.9q-.3.15-.3.3c0,.1.1.2.3.2h.4c.3,0,.5-.1.8-.1h.5l1.2.1a5.85,5.85,0,0,1,1,.1h.3c.2,0,.2-.1.2-.2s-.1-.3-.4-.3a2.35,2.35,0,0,1-1.2-.4,1.88,1.88,0,0,1-.4-1v-9c0-.3.1-.5.2-.5s.1,0,.2.1l.1.1,9.6,11,.2.3c.1.1.1.1.3.1a.27.27,0,0,0,.3-.3c0-.2.1-.7.1-1.6v-11.5a4.87,4.87,0,0,1,.2-1.5c.1-.3.5-.5.9-.6.2,0,.2-.1.2-.2s-.1-.2-.3-.2a1.76,1.76,0,0,0-.6.1c-.3,0-.7.1-1.1.1a12.17,12.17,0,0,1-2.1-.1h-.5c-.2,0-.3.1-.3.2s.1.2.3.3a2.67,2.67,0,0,1,1.6.6,2.29,2.29,0,0,1,.6,1.4l.1,2.6v7.1c0,.1,0,.2-.1.2a.75.75,0,0,1-.3-.3L212,138.28a.86.86,0,0,0-.6-.3h-2.1c-.2,0-.2.1-.2.2C209.4,138.18,209.5,138.27,209.7,138.27Z"/><path class="a" d="M226.3,153.68a2.8,2.8,0,0,0,.6-.1h1.8l1.1.1h.4c.2,0,.3-.1.3-.2s-.1-.2-.4-.3a2.3,2.3,0,0,1-1.1-.4,1,1,0,0,1-.3-.8,5.78,5.78,0,0,1,.5-1.7l.7-1.7a3.05,3.05,0,0,1,.5-.9,2.24,2.24,0,0,1,1-.1h4.1c.4,0,.7,0,.8.1a3.22,3.22,0,0,1,.4.7l.6,1.5a7.59,7.59,0,0,1,.7,2.4.76.76,0,0,1-.6.8l-.4.1c-.2,0-.3.1-.3.2s.1.2.3.2h.4c.3,0,.9-.1,2-.1a11,11,0,0,1,2.1.1h.4c.2,0,.3-.1.3-.2s-.1-.2-.3-.3a2.73,2.73,0,0,1-1.4-.5,7.58,7.58,0,0,1-.9-1.7l-.2-.6-4.9-12.5q-.15-.3-.3-.3t-.3.3l-5.8,13-.3.8c-.2.3-.4.7-.6,1l-.6.6-.4.1a.22.22,0,0,0-.2.2C226,153.57,226.1,153.68,226.3,153.68Zm5-7.9,2.2-4.9c.1-.2.1-.2.2-.2s.2.1.3.4l.1.2,1.8,4.5.1.2c0,.1.1.2.1.3s-.2.3-.6.3h-3.8c-.3,0-.5-.1-.5-.3A1.09,1.09,0,0,1,231.3,145.77Z"/><path class="a" d="M39.4,175.07a5,5,0,0,1,1.7.2,3.63,3.63,0,0,1,.8,1.6l1.2,3.3a19,19,0,0,1,1.5,5.3,1.5,1.5,0,0,1-1.2,1.7l-.8.2c-.4.1-.6.3-.6.5s.2.5.6.5a2.81,2.81,0,0,0,.8-.1,40.36,40.36,0,0,1,4.3-.1c2.2,0,3.7,0,4.6.1h.9c.4,0,.7-.1.7-.4s-.2-.5-.7-.6a6.14,6.14,0,0,1-3.1-1.2,10.72,10.72,0,0,1-1.9-3.7l-.5-1.3L37,153.68c-.2-.5-.4-.7-.7-.7s-.5.2-.7.7l-12.9,28.4-.7,1.6a10.23,10.23,0,0,1-1.4,2.2,4.14,4.14,0,0,1-1.3,1.2l-.9.3a.51.51,0,0,0-.4.5c0,.3.2.5.7.5a12.53,12.53,0,0,0,1.4-.1h1.1a24.39,24.39,0,0,1,2.8.1l2.4.1h.8c.5,0,.7-.1.7-.4s-.3-.5-.8-.6a4.55,4.55,0,0,1-2.3-.9,2.06,2.06,0,0,1-.6-1.7,10.91,10.91,0,0,1,1.1-3.7l1.6-3.7a5.79,5.79,0,0,1,1.2-2,5.32,5.32,0,0,1,2.3-.3h9Zm-10.1-3a2.94,2.94,0,0,1,.3-.9l4.9-10.8c.1-.3.3-.5.4-.5s.4.3.6.8l.2.5,3.9,9.9.1.4a1.76,1.76,0,0,1,.1.6q0,.6-1.2.6H30.4C29.7,172.77,29.3,172.47,29.3,172.07Z"/><path class="a" d="M104.3,162.68h-3.7a13.61,13.61,0,0,1-1.6-.1h-.5q-.6,0-.6.3c0,.2.3.4,1,.5a3.18,3.18,0,0,1,1.1.4,1.22,1.22,0,0,1,.3.9c0,1.2-.9,3.8-2.6,8l-4.1,9.6-.3.7c-.3.7-.5,1.1-.7,1.1s-.3-.2-.5-.6L85,167.17a8.67,8.67,0,0,1-.8-2.6,1.45,1.45,0,0,1,.2-.7,2.8,2.8,0,0,1,1-.5c.2-.1.4-.2.4-.4s-.2-.3-.5-.3h-.5c-.5,0-.9.1-1.2.1H79.1c-.1-.1-.1-.1-.3-.1H75.1a13.61,13.61,0,0,1-1.6-.1H73q-.6,0-.6.3c0,.2.3.4,1,.5a3.18,3.18,0,0,1,1.1.4,1.22,1.22,0,0,1,.3.9c0,1.2-.9,3.8-2.6,8l-4.1,9.6-.3.7c-.3.7-.5,1.1-.7,1.1s-.3-.2-.5-.6l-7.1-16.3a8.67,8.67,0,0,1-.8-2.6,1.45,1.45,0,0,1,.2-.7,2.8,2.8,0,0,1,1-.5c.2-.1.4-.2.4-.4s-.2-.3-.5-.3h-.5c-.5,0-.9.1-1.2.1H52.7c-.3,0-.5.1-.5.4,0,.1.1.2.2.3a11,11,0,0,0,1.1.3,2.75,2.75,0,0,1,1.5.8,6.44,6.44,0,0,1,1.2,2.1l9.4,21.7c.3.6.5.9.8.9s.5-.3.7-.9l9.2-21.5.5-1.2a3.82,3.82,0,0,1,1.7-2c.2,0,.3.1.5.1a2.75,2.75,0,0,1,1.5.8,6.44,6.44,0,0,1,1.2,2.1l9.4,21.7c.3.6.5.9.8.9s.5-.3.7-.9l9.2-21.5.5-1.2a3.47,3.47,0,0,1,2-2.1c.3-.1.4-.2.4-.4C104.6,162.77,104.5,162.68,104.3,162.68Z"/><path class="a" d="M108.6,184.77c0,1.5-.4,2.3-1.3,2.6l-.7.2c-.3.1-.5.2-.5.4s.2.4.6.4a4.59,4.59,0,0,0,1-.1,43.21,43.21,0,0,1,4.6-.2c1.5,0,3.5.1,5.8.3.6,0,1.1.1,1.4.1a5.11,5.11,0,0,0,4.1-2,4.85,4.85,0,0,0,1.3-2.9c0-.3-.1-.5-.3-.5a.54.54,0,0,0-.4.3q-2.1,3.3-9.3,3.3a6,6,0,0,1-2.9-.4c-.4-.3-.6-.9-.6-2v-7.4c0-.4.1-.6.3-.7a2.87,2.87,0,0,1,1.2-.2H117a3.87,3.87,0,0,1,2.2.4,3,3,0,0,1,.9,1.7l.1.5c.1.3.2.4.5.4a.46.46,0,0,0,.4-.5V178a16.2,16.2,0,0,1-.1-2.2c0-1,.1-2.1.2-3.3v-.4c0-.3-.1-.5-.4-.5s-.4.1-.5.4a6,6,0,0,1-.5,1.6,2.3,2.3,0,0,1-1.3.5,24.05,24.05,0,0,1-3.1.2h-2.8a2.15,2.15,0,0,1-1-.2,1.85,1.85,0,0,1-.2-1v-7.5a1.88,1.88,0,0,1,.3-1.3,2.37,2.37,0,0,1,1.5-.3h2.9a16.66,16.66,0,0,1,3.9.3,2,2,0,0,1,1.4,1.1,4.25,4.25,0,0,1,.2,1.1v.5c0,.4.1.6.4.6s.4-.1.4-.3.1-.6.2-1.3l.1-1.1a11.45,11.45,0,0,0,.1-1.5c0-.2.1-.3.1-.4,0-.4-.2-.5-.6-.5a2,2,0,0,0-.7.1,8.47,8.47,0,0,0-1.3.1l-2.6.1c-1.2,0-2.5.1-4,.1a58.5,58.5,0,0,1-6.4-.3,5.74,5.74,0,0,0-1.2-.1c-.6,0-.8.2-.8.5s.2.3.5.3a2.61,2.61,0,0,1,2.3.9,7.23,7.23,0,0,1,.6,3.6v15.6Z"/><path class="a" d="M151.7,162.68a3.44,3.44,0,0,0-.9.1,9.72,9.72,0,0,1-1.8.1,32.25,32.25,0,0,1-3.4-.1c-.4,0-.6-.1-.8-.1-.4,0-.5.1-.5.3s.2.4.5.5a4.54,4.54,0,0,1,2.6,1,3.22,3.22,0,0,1,.9,2.2l.2,4.3v11.6a.52.52,0,0,1-.2.4c-.1,0-.2-.1-.5-.4l-17-19.3a1.06,1.06,0,0,0-.9-.5h-3.3c-.3,0-.4.1-.4.3a.46.46,0,0,0,.5.4,3.73,3.73,0,0,1,2.9,2.1,10.09,10.09,0,0,1,1,5v12.6a6.86,6.86,0,0,1-.5,2.9,3.72,3.72,0,0,1-2.1,1.4c-.4.1-.5.3-.5.5s.2.3.5.3a2.25,2.25,0,0,0,.7-.1,6.15,6.15,0,0,1,1.4-.1h.9l1.9.1a14.78,14.78,0,0,1,1.6.1h.6c.3,0,.4-.1.4-.4s-.2-.4-.6-.5a3.82,3.82,0,0,1-2-.7,3,3,0,0,1-.6-1.7l-.1-1.3v-13.3c0-.6.1-.8.4-.8a.37.37,0,0,1,.3.1l.2.2,15.6,17.8.4.5a.52.52,0,0,0,.4.2c.3,0,.5-.1.5-.4a13.62,13.62,0,0,0,.1-2.5v-18.7a4.47,4.47,0,0,1,.4-2.4,2.15,2.15,0,0,1,1.5-.9c.3-.1.4-.2.4-.4A.75.75,0,0,0,151.7,162.68Z"/><path class="a" d="M163.9,165a1.44,1.44,0,0,1,.2.9v18.8a4,4,0,0,1-.5,2.2,2.81,2.81,0,0,1-1.9.8c-.4,0-.6.2-.6.4s.2.4.6.4a8.33,8.33,0,0,0,1.2-.1c.4,0,.8-.1,1.3-.1H167a6.7,6.7,0,0,1,1.7.1,4.4,4.4,0,0,0,.9.1c.3,0,.5-.1.5-.4s-.2-.3-.6-.4c-1.6-.3-2.4-1.1-2.4-2.6v-19a2.33,2.33,0,0,1,.2-1.1,1.85,1.85,0,0,1,1-.2h5.2a3.69,3.69,0,0,1,2.1.4,2.69,2.69,0,0,1,.8,1.7c.1.4.2.6.4.6s.4-.2.4-.6a3.44,3.44,0,0,0-.1-.9,6.66,6.66,0,0,1-.1-1.6,2.75,2.75,0,0,0-.2-1.3,2.53,2.53,0,0,0-1.2-.2H155.7c-.4,0-.7.1-.8.3a2.33,2.33,0,0,0-.2,1.1,10.33,10.33,0,0,1-.3,2.2c-.1.7-.2,1.2-.2,1.4s.1.5.3.5.4-.2.5-.7a4.5,4.5,0,0,1,1-2.3,3.22,3.22,0,0,1,2.2-.6h4.9A1.88,1.88,0,0,1,163.9,165Z"/><path class="a" d="M187.9,188.38c.4,0,.6-.1.6-.4s-.3-.4-.9-.5a3.37,3.37,0,0,1-1.7-.6,2.54,2.54,0,0,1-.9-1.3,12.45,12.45,0,0,1-.3-3.4v-13.9c0-2.6.5-4.1,1.4-4.4l1-.4c.3-.1.5-.3.5-.5s-.2-.3-.5-.3h-.5l-1.2.1c-.7,0-1.4.1-2.3.1a32.08,32.08,0,0,1-3.6-.2h-.3c-.4,0-.5.1-.5.4s.2.4.6.4c1.1.2,1.9.5,2.2,1.1a5.76,5.76,0,0,1,.5,3.1v15.8a7,7,0,0,1-.4,3.1,2.61,2.61,0,0,1-1.8,1c-.4.1-.6.2-.6.4s.2.4.5.4a3.44,3.44,0,0,0,.9-.1l2.2-.1h2.7a10.36,10.36,0,0,1,2,.1A2.27,2.27,0,0,0,187.9,188.38Z"/><path class="a" d="M204.4,186.38a7.09,7.09,0,0,0,2.5-5.7c0-3.4-2.3-5.8-6.8-7.3-2.3-.8-3.8-1.3-4.4-1.6a7,7,0,0,1-1.7-1.4,4.19,4.19,0,0,1-.9-2.7,3.6,3.6,0,0,1,1.3-2.9,4.79,4.79,0,0,1,3.3-1.2,7.68,7.68,0,0,1,4.5,1.3,6.07,6.07,0,0,1,2.7,3.3q.3.9.6.9c.3,0,.4-.2.4-.6a3.22,3.22,0,0,0-.1-.8l-.3-1.9a9.51,9.51,0,0,1-.2-1.9c0-.6-.2-.9-.5-.9-.1,0-.2,0-.2.1l-.3.2a.76.76,0,0,1-.4.2.37.37,0,0,1-.3-.1l-1.3-.5a9.46,9.46,0,0,0-9,1.3,6.12,6.12,0,0,0-2.2,4.9,6.2,6.2,0,0,0,1.7,4.4,16.87,16.87,0,0,0,5.8,3.1,19.41,19.41,0,0,1,4.8,2.1,4.31,4.31,0,0,1,1.6,3.5,4.54,4.54,0,0,1-1.8,3.6,6.44,6.44,0,0,1-4.3,1.5,7.16,7.16,0,0,1-4.6-1.6,6.83,6.83,0,0,1-2.8-3.9q-.3-.9-.6-.9c-.3,0-.4.2-.4.5a11.27,11.27,0,0,0,.5,2.4,14.32,14.32,0,0,0,.5,1.7c.1.7.3,1.1.3,1.3a1.76,1.76,0,0,0,.4.5,6,6,0,0,0,2.5.9,12,12,0,0,0,3.1.4A9.58,9.58,0,0,0,204.4,186.38Z"/><path class="a" d="M218.8,188.18h2.8a6.7,6.7,0,0,1,1.7.1,4.4,4.4,0,0,0,.9.1c.3,0,.5-.1.5-.4s-.2-.3-.6-.4c-1.6-.3-2.4-1.1-2.4-2.6v-18.9a2.33,2.33,0,0,1,.2-1.1,1.85,1.85,0,0,1,1-.2h5.2a3.69,3.69,0,0,1,2.1.4,2.69,2.69,0,0,1,.8,1.7c.1.4.2.6.4.6s.4-.2.4-.6a3.44,3.44,0,0,0-.1-.9,6.66,6.66,0,0,1-.1-1.6,2.75,2.75,0,0,0-.2-1.3,2.53,2.53,0,0,0-1.2-.2H210.3c-.4,0-.7.1-.8.3a2.33,2.33,0,0,0-.2,1.1,10.33,10.33,0,0,1-.3,2.2c-.1.7-.2,1.2-.2,1.4s.1.5.3.5.4-.2.5-.7a4.5,4.5,0,0,1,1-2.3,3.4,3.4,0,0,1,2.2-.6h4.9a.86.86,0,0,1,1.1,1.1v18.8a4,4,0,0,1-.5,2.2,2.81,2.81,0,0,1-1.9.8c-.4,0-.6.2-.6.4s.2.4.6.4a8.33,8.33,0,0,0,1.2-.1A2.17,2.17,0,0,1,218.8,188.18Z"/><path class="a" d="M256.1,188c0-.2-.2-.4-.6-.5a4.18,4.18,0,0,1-2.3-.9,7.71,7.71,0,0,1-1.4-2.8l-.4-1-7.9-20.4c-.1-.4-.3-.5-.5-.5s-.4.2-.5.6l-9.5,21.1-.5,1.2a8.64,8.64,0,0,1-1,1.6,3.52,3.52,0,0,1-1,.9l-.7.2c-.2.1-.3.2-.3.4s.2.3.5.3a5.81,5.81,0,0,0,1-.1h2.8l1.8.1h.6c.4,0,.5-.1.5-.3s-.2-.4-.6-.4a3.42,3.42,0,0,1-1.7-.7,1.7,1.7,0,0,1-.4-1.3,9.43,9.43,0,0,1,.8-2.8L236,180a6.94,6.94,0,0,1,.9-1.5,5,5,0,0,1,1.7-.2h6.7a3.09,3.09,0,0,1,1.3.2,3,3,0,0,1,.6,1.2l.9,2.4a13,13,0,0,1,1.1,3.9,1.22,1.22,0,0,1-.9,1.3l-.6.1c-.3.1-.5.2-.5.4s.2.4.5.4a1.76,1.76,0,0,0,.6-.1,22.1,22.1,0,0,1,3.2-.1,28.4,28.4,0,0,1,3.4.1h.7C255.9,188.27,256.1,188.18,256.1,188Zm-11.4-11.3h-6.1c-.6,0-.8-.2-.8-.5,0-.1.1-.3.2-.7l3.6-8c.1-.2.2-.4.3-.4s.3.2.5.6l.1.4,2.9,7.3.1.3a.76.76,0,0,1,.1.4C245.7,176.57,245.4,176.68,244.7,176.68Z"/><path class="a" d="M37.6,202c-2.3-.8-3.7-1.3-4.3-1.6a4.16,4.16,0,0,1-1.6-1.4,3.85,3.85,0,0,1-.8-2.6,3.74,3.74,0,0,1,1.3-2.9,4.47,4.47,0,0,1,3.2-1.1,7.58,7.58,0,0,1,4.4,1.3,5.77,5.77,0,0,1,2.6,3.2q.3.9.6.9c.3,0,.4-.2.4-.6a2.64,2.64,0,0,0-.1-.7l-.3-1.9a8.79,8.79,0,0,1-.2-1.8c0-.6-.2-.9-.4-.9s-.2,0-.2.1l-.2.2a.76.76,0,0,1-.4.2.37.37,0,0,1-.3-.1l-1.2-.5a8.11,8.11,0,0,0-3.3-.6,8.55,8.55,0,0,0-5.6,1.8,6,6,0,0,0-2.2,4.7,5.57,5.57,0,0,0,1.7,4.2,15.06,15.06,0,0,0,5.6,3,19.24,19.24,0,0,1,4.7,2,4.12,4.12,0,0,1,1.6,3.4,4.4,4.4,0,0,1-1.7,3.5,6,6,0,0,1-4.2,1.5,7.6,7.6,0,0,1-4.5-1.5,6.76,6.76,0,0,1-2.7-3.8q-.3-.9-.6-.9a.46.46,0,0,0-.4.5,10.7,10.7,0,0,0,.5,2.3,10.06,10.06,0,0,0,.5,1.6,9.1,9.1,0,0,0,.3,1.2,1.76,1.76,0,0,0,.4.5,7.09,7.09,0,0,0,2.4.9,11.28,11.28,0,0,0,3,.4,9.4,9.4,0,0,0,6.3-2.1,7.05,7.05,0,0,0,2.4-5.5C44.3,205.78,42.1,203.47,37.6,202Z"/><path class="a" d="M60.9,212.68c-.1,0-.2.1-.3.2-1,1.6-3.3,2.4-6.8,2.4a4.54,4.54,0,0,1-2.1-.3c-.3-.2-.4-.7-.4-1.4v-5.4c0-.3.1-.5.2-.5s.4-.1.9-.1h3a3,3,0,0,1,1.6.3,1.71,1.71,0,0,1,.6,1.2l.1.4a.32.32,0,0,0,.3.3.27.27,0,0,0,.3-.3v-.4a8.6,8.6,0,0,1-.1-1.6,20.93,20.93,0,0,1,.1-2.4v-.3c0-.2-.1-.4-.3-.4a.27.27,0,0,0-.3.3c-.1.6-.2,1-.4,1.1s-.5.3-.9.4a11.79,11.79,0,0,1-2.2.2H52.1c-.4,0-.6,0-.7-.1s-.1-.3-.1-.8v-5.4a1.44,1.44,0,0,1,.2-.9,2.33,2.33,0,0,1,1.1-.2h2.1a17.47,17.47,0,0,1,2.9.2,1.21,1.21,0,0,1,1,.8,2.35,2.35,0,0,1,.2.8v.4c0,.3.1.4.3.4s.3-.1.3-.2a7.72,7.72,0,0,0,.1-1l.1-.8a8,8,0,0,1,.1-1.1v-.3c0-.3-.1-.4-.4-.4a1.09,1.09,0,0,0-.5.1,5.81,5.81,0,0,0-1,.1l-1.9.1c-.8,0-1.8.1-2.9.1-1.8,0-3.4-.1-4.6-.2-.4,0-.7-.1-.9-.1-.4,0-.6.1-.6.4s.1.3.4.3a1.83,1.83,0,0,1,1.7.7,5.11,5.11,0,0,1,.4,2.6v12.3c0,1.1-.3,1.7-1,1.9l-.5.1c-.2.1-.4.2-.4.3s.1.3.4.3a2.25,2.25,0,0,0,.7-.1,22.68,22.68,0,0,1,3.3-.2c1.1,0,2.5.1,4.3.2.4,0,.8.1,1.1.1a3.69,3.69,0,0,0,3-1.5,3.33,3.33,0,0,0,1-2.1C61.2,212.78,61.1,212.68,60.9,212.68Z"/><path class="a" d="M78.7,200.18c0-.2-.1-.6-.1-1.2a2.15,2.15,0,0,0-.2-1,1.44,1.44,0,0,0-.9-.2H63a.85.85,0,0,0-.6.2c-.1.1-.1.4-.1.8a11.55,11.55,0,0,1-.2,1.6,8.37,8.37,0,0,0-.2,1c0,.2.1.4.2.4s.3-.2.4-.5a3,3,0,0,1,.8-1.7,2.36,2.36,0,0,1,1.6-.4h3.6c.3,0,.6,0,.7.1s.1.3.1.6v13.8a2.2,2.2,0,0,1-.4,1.6,2,2,0,0,1-1.4.6c-.3,0-.4.1-.4.3s.1.3.4.3a4.4,4.4,0,0,0,.9-.1h4.3a2.25,2.25,0,0,0,.7.1c.3,0,.4-.1.4-.3s-.2-.3-.5-.3a2,2,0,0,1-1.8-1.9v-13.8a1.29,1.29,0,0,1,.2-.8,1.17,1.17,0,0,1,.7-.2h3.8a2.37,2.37,0,0,1,1.5.3c.3.2.4.6.6,1.2.1.3.2.4.3.4s.3-.2.3-.4C78.7,200.68,78.7,200.47,78.7,200.18Z"/><path class="a" d="M95.4,199a2.15,2.15,0,0,0-.2-1,1.44,1.44,0,0,0-.9-.2H79.8a.85.85,0,0,0-.6.2c-.1.1-.1.4-.1.8a11.55,11.55,0,0,1-.2,1.6,8.37,8.37,0,0,0-.2,1c0,.2.1.4.2.4s.3-.2.4-.5a3,3,0,0,1,.8-1.7,2.36,2.36,0,0,1,1.6-.4h3.6c.3,0,.6,0,.7.1s.1.3.1.6v13.8a2.2,2.2,0,0,1-.4,1.6,2,2,0,0,1-1.4.6c-.3,0-.4.1-.4.3s.1.3.4.3a4.4,4.4,0,0,0,.9-.1h4.3a2.25,2.25,0,0,0,.7.1c.3,0,.4-.1.4-.3s-.2-.3-.5-.3a2,2,0,0,1-1.8-1.9v-13.8a1.29,1.29,0,0,1,.2-.8,1.17,1.17,0,0,1,.7-.2H93a2.37,2.37,0,0,1,1.5.3c.3.2.4.6.6,1.2.1.3.2.4.3.4s.3-.2.3-.4a2.25,2.25,0,0,0-.1-.7C95.4,199.88,95.4,199.47,95.4,199Z"/><path class="a" d="M103.3,215.78a2.35,2.35,0,0,1-1.2-.4,2,2,0,0,1-.7-1,7.25,7.25,0,0,1-.2-2.5v-10.1c0-1.9.3-3,1-3.2l.7-.3c.2-.1.4-.2.4-.4s-.1-.3-.4-.3h-.3l-.9.1H100a18.58,18.58,0,0,1-2.6-.1h-.2c-.3,0-.4.1-.4.3s.2.3.4.3a2,2,0,0,1,1.6.8,4.05,4.05,0,0,1,.4,2.3v11.6a6,6,0,0,1-.3,2.3c-.2.4-.6.6-1.3.7-.3,0-.4.1-.4.3s.1.3.4.3h.6l1.6-.1h2a4.54,4.54,0,0,1,1.4.1h.5c.3,0,.4-.1.4-.3A1.51,1.51,0,0,0,103.3,215.78Z"/><path class="a" d="M126.9,215.87a2.29,2.29,0,0,1-1.4-.6,2.08,2.08,0,0,1-.4-1.5l-.1-1.7-.3-7.3-.1-3.3a5.73,5.73,0,0,1,.3-2.2,1.19,1.19,0,0,1,1-.8l.6-.1a.3.3,0,0,0,0-.6h-.4c-.3,0-.8.1-1.4.1h-.4a3.54,3.54,0,0,1-.6-.1c-.2,0-.3,0-.4.1a1.07,1.07,0,0,0-.3.5L116.7,212l-.1.3-.2.4c-.1.2-.1.3-.2.3a1.09,1.09,0,0,1-.2-.4l-.7-1.4-5.6-12.1-.1-.3c-.3-.6-.6-.9-1-.9h-3.2a.27.27,0,0,0-.3.3c0,.2.1.3.4.3a3,3,0,0,1,2.1,1.4,8.36,8.36,0,0,1,.6,3.6c0,.7-.1,2.5-.2,5.4l-.2,3.9a6.18,6.18,0,0,1-.5,2.4,1.77,1.77,0,0,1-1.4.9.27.27,0,0,0-.3.3c0,.2.1.3.4.3h.4a11.48,11.48,0,0,1,1.9-.1,22,22,0,0,1,2.3.1h.5c.3,0,.4-.1.4-.3s-.3-.3-.8-.4c-1.1-.2-1.7-1-1.7-2.6v-3.3l.3-6.7,5.1,11,.3.6c.2.4.3.7.4.7.2.4.4.7.6.7s.4-.2.6-.6a1.69,1.69,0,0,1,.2-.5,8.36,8.36,0,0,0,.7-1.6,26.4,26.4,0,0,0,1.1-2.5l1.4-2.8,1.2-2.6c.3-.5.8-1.5,1.5-2.8l.4,8.6.1,2.2a3.42,3.42,0,0,1-.3,1.7,1.53,1.53,0,0,1-1.1.7q-.3.15-.3.3c0,.2.1.2.4.2a14.75,14.75,0,0,0,1.6-.1c.6,0,1-.1,1.3-.1a3.75,3.75,0,0,1,1.1.1l1,.1h.3c.3,0,.5-.1.5-.3C127.6,216.07,127.4,215.87,126.9,215.87Z"/><path class="a" d="M139.3,197.47a11,11,0,0,0-4,.8,8.12,8.12,0,0,0-3.2,2.1,8.59,8.59,0,0,0-1.9,3.1,9.37,9.37,0,0,0-.7,3.7,9,9,0,0,0,2.7,6.9,9.44,9.44,0,0,0,7.1,2.6,9.27,9.27,0,0,0,7-2.8,9.65,9.65,0,0,0,2.7-7.1,9,9,0,0,0-2.7-6.7A10.1,10.1,0,0,0,139.3,197.47Zm5.6,16.1a6.82,6.82,0,0,1-5.2,2.3,7.24,7.24,0,0,1-5.8-2.8,10.36,10.36,0,0,1-2.4-6.9,8.47,8.47,0,0,1,1.8-5.7,6.28,6.28,0,0,1,5-2.1,7.9,7.9,0,0,1,6.1,2.7,9.66,9.66,0,0,1,2.4,6.7A7.58,7.58,0,0,1,144.9,213.57Z"/><path class="a" d="M183.4,203.37a11.31,11.31,0,0,0-1.4.1h-5.3q-.6,0-.6.3c0,.3.3.4.7.5,1,.1,1.6.2,1.9.5a2.07,2.07,0,0,1,.5,1.5v4a4,4,0,0,1-.6,2.5,7.72,7.72,0,0,1-6.5,2.9,9.19,9.19,0,0,1-7.3-3.5,13.23,13.23,0,0,1-3-8.8,12.21,12.21,0,0,1,2.6-8,8.06,8.06,0,0,1,6.6-3.1,11.72,11.72,0,0,1,6.2,1.8,11.4,11.4,0,0,1,4.3,4.7c.1.2.2.3.4.3a.43.43,0,0,0,.4-.4,1.09,1.09,0,0,0-.1-.5c-.1-.5-.2-.9-.3-1.4l-.2-1.7a6.82,6.82,0,0,1-.1-1.2c0-.6-.1-.8-.3-.8a.37.37,0,0,0-.3.1l-.4.3a.49.49,0,0,1-.3.1.37.37,0,0,1-.3-.1,12.5,12.5,0,0,0-3.8-1.5,18.6,18.6,0,0,0-4.5-.6,12.45,12.45,0,0,0-9.2,3.8,13.22,13.22,0,0,0-3.7,9.4,12.3,12.3,0,0,0,3.5,8.9,12.06,12.06,0,0,0,8.8,3.5,15,15,0,0,0,7.5-2l1.2-.7a3.72,3.72,0,0,1,1.5-.6,2,2,0,0,0,.5-.1l.1-.3v-7a1.81,1.81,0,0,1,1.4-2c.4-.1.5-.2.5-.4C183.8,203.47,183.7,203.37,183.4,203.37Z"/><path class="a" d="M192.8,215.78a2.35,2.35,0,0,1-1.2-.4,2,2,0,0,1-.7-1,7.25,7.25,0,0,1-.2-2.5v-10.1c0-1.9.3-3,1-3.2l.7-.3c.2-.1.4-.2.4-.4s-.1-.3-.4-.3h-.3l-.9.1h-1.7a18.58,18.58,0,0,1-2.6-.1h-.2c-.3,0-.4.1-.4.3s.2.3.4.3a2,2,0,0,1,1.6.8,4.05,4.05,0,0,1,.4,2.3v11.6a6,6,0,0,1-.3,2.3c-.2.4-.6.6-1.3.7-.3,0-.4.1-.4.3s.1.3.4.3h.6l1.6-.1h2a4.54,4.54,0,0,1,1.4.1h.5c.3,0,.4-.1.4-.3S193.2,215.87,192.8,215.78Z"/><path class="a" d="M205.1,197.47a11,11,0,0,0-4,.8,8.12,8.12,0,0,0-3.2,2.1,8.59,8.59,0,0,0-1.9,3.1,9.37,9.37,0,0,0-.7,3.7,9,9,0,0,0,2.7,6.9,9.44,9.44,0,0,0,7.1,2.6,9.27,9.27,0,0,0,7-2.8,9.65,9.65,0,0,0,2.7-7.1,9,9,0,0,0-2.7-6.7A10.1,10.1,0,0,0,205.1,197.47Zm5.6,16.1a6.82,6.82,0,0,1-5.2,2.3,7.24,7.24,0,0,1-5.8-2.8,10.36,10.36,0,0,1-2.4-6.9,8.47,8.47,0,0,1,1.8-5.7,6.28,6.28,0,0,1,5-2.1,7.9,7.9,0,0,1,6.1,2.7,9.66,9.66,0,0,1,2.4,6.7A7.58,7.58,0,0,1,210.7,213.57Z"/><path class="a" d="M234.1,215.87h-.4c-1-.1-2-.9-3.2-2.6l-.4-.6-3.7-5.5c2.2-1.1,3.3-2.7,3.3-4.7a4.06,4.06,0,0,0-1.6-3.5,7.76,7.76,0,0,0-4.7-1.2,13.43,13.43,0,0,0-1.9.1,19.7,19.7,0,0,1-2.1.1h-1.2a3.14,3.14,0,0,1-.9-.1c-.3,0-.5.1-.5.3s.1.3.4.3l.6.1c1,.2,1.5.9,1.5,2.4v11.1a10.87,10.87,0,0,1-.3,3.1,1.93,1.93,0,0,1-1.4,1,.3.3,0,1,0,0,.6,2.25,2.25,0,0,0,.7-.1c.4,0,.8-.1,1.1-.1h2a7.63,7.63,0,0,1,1.7.1,5.38,5.38,0,0,1,.8.1c.3,0,.5-.1.4-.3s-.2-.3-.5-.3a3.8,3.8,0,0,1-1.8-.6,1,1,0,0,1-.5-.8,6.22,6.22,0,0,1-.1-1.6v-4.7c0-.2.1-.4.2-.4l.3-.1h1.8a1.25,1.25,0,0,1,1.1.6l.2.3,3.4,5.1a8.75,8.75,0,0,0,2,2.2,4.1,4.1,0,0,0,2.2.7,5.07,5.07,0,0,0,1.3-.2c.4-.1.6-.2.6-.4C234.3,215.87,234.3,215.87,234.1,215.87Zm-10.2-9.1h-1.5a.8.8,0,0,1-1-1v-5.9a1.33,1.33,0,0,1,.3-1,1.61,1.61,0,0,1,1.1-.3,4.75,4.75,0,0,1,3.5,1.3,4.16,4.16,0,0,1,1.4,3.2,3.62,3.62,0,0,1-1,2.7A3.71,3.71,0,0,1,223.9,206.78Z"/><path class="a" d="M252.7,197.68a2,2,0,0,0-.7.1,4.89,4.89,0,0,1-1.3.1,17.77,17.77,0,0,1-2.5-.1h-.6c-.3,0-.4.1-.4.2s.1.3.4.3a4.42,4.42,0,0,1,1.9.7,2.39,2.39,0,0,1,.7,1.6l.2,3.1v8.5c0,.2-.1.2-.1.3s-.2-.1-.4-.3l-12.4-14.1a.87.87,0,0,0-.7-.4h-2.4a.27.27,0,0,0-.3.3c0,.2.1.3.4.3a2.53,2.53,0,0,1,2.1,1.5,7.62,7.62,0,0,1,.7,3.7v9.2a3.69,3.69,0,0,1-.4,2.1,2.84,2.84,0,0,1-1.5,1c-.3.1-.4.2-.4.3s.1.2.4.2h.5c.3,0,.6-.1,1-.1h.6l1.4.1a8.37,8.37,0,0,1,1.2.1h.4a.27.27,0,0,0,.3-.3c0-.2-.1-.3-.4-.3a2.73,2.73,0,0,1-1.4-.5,2.25,2.25,0,0,1-.5-1.2v-10.8q0-.6.3-.6c.1,0,.1,0,.2.1l.1.1,11.4,13,.3.4a.37.37,0,0,0,.3.1c.2,0,.3-.1.4-.3s.1-.8.1-1.9v-13.5a3.61,3.61,0,0,1,.3-1.8,1.9,1.9,0,0,1,1.1-.7c.2-.1.3-.1.3-.3A1.07,1.07,0,0,0,252.7,197.68Z"/><path class="a" d="M272.3,200.07a9.68,9.68,0,0,0-6.9-2.6,11,11,0,0,0-4,.8,8.12,8.12,0,0,0-3.2,2.1,8.59,8.59,0,0,0-1.9,3.1,9.37,9.37,0,0,0-.7,3.7,9,9,0,0,0,2.7,6.9,9.44,9.44,0,0,0,7.1,2.6,9.27,9.27,0,0,0,7-2.8,9.65,9.65,0,0,0,2.7-7.1A9.53,9.53,0,0,0,272.3,200.07Zm-1.3,13.5a6.82,6.82,0,0,1-5.2,2.3,7.24,7.24,0,0,1-5.8-2.8,10.36,10.36,0,0,1-2.4-6.9,8.47,8.47,0,0,1,1.8-5.7,6.28,6.28,0,0,1,5-2.1,7.9,7.9,0,0,1,6.1,2.7,9.66,9.66,0,0,1,2.4,6.7A8,8,0,0,1,271,213.57Z"/><path class="a" d="M4,197.88H3.1l-.7.1H.2c-.1,0-.2,0-.2.1s.1.1.2.1a1,1,0,0,1,.8.4c.2.2.2.6.2,1.1v6.4a2.24,2.24,0,0,1-.1,1,.92.92,0,0,1-.6.4.2.2,0,0,0,0,.4H.9a5.28,5.28,0,0,1,1.3-.1,10.9,10.9,0,0,1,1.7.1h.7a6,6,0,0,0,2.9-.8,4,4,0,0,0,1.6-1.8,5.42,5.42,0,0,0,.6-2.5,4.52,4.52,0,0,0-1.3-3.4A5.86,5.86,0,0,0,4,197.88Zm3,8.9a4,4,0,0,1-2.2.6,3.75,3.75,0,0,1-1-.1,4.4,4.4,0,0,0-1-.2.55.55,0,0,1-.4-.6v-7.4a.85.85,0,0,1,.2-.6c.2-.2.7-.2,1.4-.2a4.78,4.78,0,0,1,2.7.8,3.68,3.68,0,0,1,1.4,1.8,6.55,6.55,0,0,1,.5,2.5A3.56,3.56,0,0,1,7,206.78Z"/><path class="a" d="M18.3,205.78c-.1,0-.1,0-.2.1-.5.8-1.7,1.3-3.6,1.3a2.53,2.53,0,0,1-1.1-.1,1.29,1.29,0,0,1-.2-.8v-2.8a.37.37,0,0,1,.1-.3,2,2,0,0,1,.5-.1h1.6a2,2,0,0,1,.9.2.6.6,0,0,1,.3.6v.2a.22.22,0,0,0,.2.2c.1,0,.1-.1.1-.2V203a6.15,6.15,0,0,1,.1-1.3v-.2c0-.1,0-.2-.1-.2a.22.22,0,0,0-.2.2c-.1.3-.1.5-.2.6a.59.59,0,0,1-.5.2,4.12,4.12,0,0,1-1.2.1H13.7c-.2,0-.3,0-.4-.1a1,1,0,0,1-.1-.4v-2.8c0-.3,0-.4.1-.5s.3-.1.6-.1H15a5.76,5.76,0,0,1,1.5.1c.3.1.5.2.5.4a.6.6,0,0,1,.1.4v.2c0,.1,0,.2.1.2s.1,0,.2-.1a1.34,1.34,0,0,1,.1-.5v-.4c0-.3,0-.5.1-.6V198a.22.22,0,0,0-.2-.2H14.1a16.27,16.27,0,0,1-2.4-.1h-.5c-.2,0-.3.1-.3.2s.1.1.2.1a1,1,0,0,1,.9.4,3.71,3.71,0,0,1,.2,1.4v6.5c0,.6-.2.9-.5,1l-.3.1a.2.2,0,0,0,0,.4h.4a7.67,7.67,0,0,1,1.8-.1,18.55,18.55,0,0,1,2.2.1h.6a2.25,2.25,0,0,0,2.1-1.9C18.4,205.78,18.4,205.78,18.3,205.78Z"/><path class="a" d="M26.8,205.87c-.1,0-.1.1-.2.2a2.28,2.28,0,0,1-1.2.8,8,8,0,0,1-2.3.3A2,2,0,0,1,22,207a1.6,1.6,0,0,1-.2-1v-6.4c0-.7.2-1.2.6-1.3l.2-.1a.22.22,0,0,0,.2-.2c0-.1-.1-.1-.2-.1h-3c-.2,0-.2.1-.2.2s.1.1.2.1l.3.1a1,1,0,0,1,.8,1.1v6.7a2.15,2.15,0,0,1-.2,1c-.1.2-.3.3-.7.4a.22.22,0,0,0-.2.2c0,.1.1.1.2.1h.4a6.62,6.62,0,0,1,1.5-.1h1.4l.8.1h.5a2.48,2.48,0,0,0,2-.8,3.09,3.09,0,0,0,.5-1A.1.1,0,0,0,26.8,205.87Z"/><path class="a" d="M254.1,166.27a3.7,3.7,0,0,0,0-7.4,3.41,3.41,0,0,0-2.8,1.3,3.65,3.65,0,0,0,0,4.8A3.54,3.54,0,0,0,254.1,166.27Zm-2.3-6a3.26,3.26,0,0,1,2.3-1,2.9,2.9,0,0,1,2.3,1,3.26,3.26,0,0,1,1,2.3,2.9,2.9,0,0,1-1,2.3,3.26,3.26,0,0,1-2.3,1,2.9,2.9,0,0,1-2.3-1,3.26,3.26,0,0,1-1-2.3A3.45,3.45,0,0,1,251.8,160.27Z"/><path class="a" d="M252.4,160.68h.1c.2,0,.3.2.3.5v2.5c0,.3,0,.6-.1.7s-.1.2-.3.2-.1,0-.1.1,0,.1.1.1H254c.1,0,.2,0,.1-.1s-.1-.1-.2-.1a1,1,0,0,1-.4-.1c-.1-.1-.1-.2-.1-.5v-1.2h.4c.1,0,.2,0,.2.1v.1l.8,1.2c.3.4.6.7,1,.7s.5-.1.5-.2,0-.1-.1-.1h-.1c-.2,0-.4-.2-.7-.6l-.1-.1-.8-1.2a1.17,1.17,0,0,0,.7-1.1c0-.7-.5-1.1-1.5-1.1h-1.4c-.1,0-.1,0-.1.1S252.3,160.68,252.4,160.68Zm1.3.1a1,1,0,0,1,1,1,.74.74,0,0,1-.8.8h-.4V161C253.4,160.88,253.5,160.77,253.7,160.77Z"/><path class="a" d="M134.6,118.57v-14.7h-7.4v-5.2h7.4v-.5c0-5.2-2.4-9-19-6.2l-27.2,4.9-15.7,21.7,37.6-6.7C121.6,110.07,131.5,109.68,134.6,118.57Z"/><path class="a" d="M201.8,118.57l-15.7-21.7L158.6,92l-6,6c-8.6,8.6-12.7,13.4-12.7,20.5,3.3-9.4,13.7-8.6,25.9-6.2Z"/><path class="a" d="M153.2,84.18c-3.3,3.3-9.2,8.6-11.9,14.5h6.1l7-6.9c6.4-6.4,11.3-11.3,13.4-17.4a22.74,22.74,0,0,0,1.2-11.2,8.76,8.76,0,0,0-.7-2.6c-.6,7-2.6,11.2-12.7,21.3Z"/><path class="a" d="M120.5,55.07l13.7-13.8c3.7-3.7,13.1-12.1,13.1-19.4v-8.1c0-.1-.2-.1-.2,0-.6,5.4-1.9,7.8-15.2,21.1l-13.1,13.2c-6.9,6.9-12.6,14.3-11.8,22.6.4,4.6,2,7.2,3,7.9.5.4.4.1.3-.2C106.2,69.27,115.7,59.88,120.5,55.07Z"/><path class="a" d="M147.3,35.77v-8.1c0-.1-.2-.1-.2,0-.6,5.4-1.9,7.8-15.2,21.1L119.7,61c-4.4,4.4-8.5,9.1-8.3,16.5.1,4.6,2.4,8.4,5.9,9.3,1.4.3,1.3.1,1,0-4.9-2.3-4.6-11.2,3.4-19.1l12.5-12.5C138,51.48,147.3,43,147.3,35.77Z"/><path class="a" d="M106.3,64.17c.6-7,2.6-11.2,12.7-21.3l15.3-15.3c3.7-3.7,13.1-12.1,13.1-19.4V.07c0-.1-.2-.1-.2,0-.6,5.4-1.9,7.8-15.2,21.1L120.2,33c-6.4,6.4-11.3,11.3-13.4,17.4a22.74,22.74,0,0,0-1.2,11.2C105.7,62.88,106.2,64.57,106.3,64.17Z"/><path class="a" d="M139.9,111.88a16.89,16.89,0,0,1,3.2-8h-3.4v8C139.8,112,139.9,112,139.9,111.88Z"/><path class="a" d="M155.6,68l-3.9,3.9c-6,5.9-12,12.5-12,18.7v8.2c0,.1.2.1.2,0,.6-5.9,3.5-9.8,12.1-18.4l3.6-3.6c6.9-6.9,12.6-14.3,11.8-22.6-.4-4.6-2-7.2-3-7.9-.5-.4-.4-.1-.3.2C168.3,55.48,158.7,64.88,155.6,68Z"/><path class="a" d="M139.8,84.57c0,.1.2.1.2,0,.7-5.7,3.9-10,11.3-17.4l3.5-3.5c4.4-4.4,8.4-9,8.2-16.5-.1-4.6-2.4-8.4-5.9-9.3-1.4-.3-1.3-.1-1,0,4.9,2.3,4.5,11.2-3.4,19.1l-4.4,4.4c-2.8,2.8-8.6,9.1-8.6,15v8.2Z"/><path class="a" d="M199.7,104.38h.1c.2,0,.3.2.3.5v2.5c0,.3,0,.6-.1.7s-.1.2-.3.2a.1.1,0,0,0-.1.1c0,.1,0,.1.1.1h1.6c.1,0,.1,0,.1-.1s-.1-.1-.2-.1a1,1,0,0,1-.4-.1c-.1-.1-.1-.2-.1-.5v-1.2h.4c.1,0,.2,0,.2.1v.1l.8,1.2c.3.4.6.7,1,.7s.5-.1.5-.2,0-.1-.1-.1h-.1c-.2,0-.4-.2-.7-.6l-.1-.1-.8-1.2a1.17,1.17,0,0,0,.7-1.1c0-.7-.5-1.1-1.5-1.1h-1.4c-.1,0-.1,0-.1.1S199.6,104.38,199.7,104.38Zm1.3.1a1.33,1.33,0,0,1,.8.3.91.91,0,0,1,.3.7.74.74,0,0,1-.8.8h-.4v-1.4C200.7,104.47,200.8,104.47,201,104.47Z"/><path class="a" d="M201.4,110a3.7,3.7,0,0,0,0-7.4,3.41,3.41,0,0,0-2.8,1.3,3.65,3.65,0,0,0,0,4.8A3.41,3.41,0,0,0,201.4,110Zm-2.3-6a3.26,3.26,0,0,1,2.3-1,2.9,2.9,0,0,1,2.3,1,3.26,3.26,0,0,1,1,2.3,2.9,2.9,0,0,1-1,2.3,3.26,3.26,0,0,1-2.3,1,2.9,2.9,0,0,1-2.3-1,3.26,3.26,0,0,1-1-2.3A3,3,0,0,1,199.1,104Z"/></svg>