<svg xmlns="http://www.w3.org/2000/svg" viewBox="0 0 632.28 138.67"><defs><style>.a{fill:#fff;}</style></defs><title>Asset 1</title><path class="a" d="M49.7,106.77l-31.6,5.6L0,137.57l43.6-7.7c13.1-2.2,24.5-2.7,28.1,7.7v-17H63.1v-6h8.6V114C71.7,107.88,68.9,103.38,49.7,106.77Z"/><path class="a" d="M99.4,106.77l-7,7c-9.9,9.9-14.8,15.6-14.8,23.8,3.8-10.9,15.8-9.9,30-7.2l41.9,7.2-18.2-25.2Z"/><path class="a" d="M93.2,97.68c-3.9,3.9-10.6,10-13.8,16.8h7l8.1-8c7.4-7.4,13.2-13.1,15.6-20.2a26.46,26.46,0,0,0,1.4-13,9.73,9.73,0,0,0-.8-3c-.7,8.1-3,12.9-14.7,24.7Z"/><path class="a" d="M71.2,48c4.3-4.3,15.2-14.1,15.2-22.5v-9.4c0-.1-.2-.1-.2,0-.8,6.3-2.3,9-17.7,24.4L53.3,55.68c-8,8-14.6,16.6-13.7,26.2.5,5.4,2.3,8.3,3.4,9.1.6.4.4.1.3-.2-4.6-10.5,6.4-21.4,11.9-26.9Z"/><path class="a" d="M86.5,32.07c0-.1-.2-.1-.2,0-.8,6.3-2.3,9-17.7,24.4L54.5,70.57c-5.1,5.1-9.8,10.5-9.6,19.2.1,5.3,2.8,9.7,6.8,10.8,1.7.4,1.6.1,1.2,0-5.7-2.7-5.3-12.9,3.9-22.1L71.3,64c4.3-4.3,15.2-14.1,15.2-22.5v-9.4Z"/><path class="a" d="M38.8,74.48c.7-8.1,3-12.9,14.7-24.7L71.2,32c4.3-4.3,15.2-14.1,15.2-22.5V.07c0-.1-.2-.1-.2,0-.8,6.3-2.3,9-17.7,24.4L55,38.27c-7.4,7.4-13.2,13.1-15.6,20.2a26.46,26.46,0,0,0-1.4,13A9.73,9.73,0,0,0,38.8,74.48Z"/><path class="a" d="M77.7,129.77c0,.1.2.1.2,0a20.66,20.66,0,0,1,3.7-9.3H77.7v9.3Z"/><path class="a" d="M96.1,78.88l-4.5,4.5c-6.9,6.9-13.9,14.5-13.9,21.7v9.5c0,.1.2.1.2,0,.8-6.9,4.1-11.4,14.1-21.4L96.1,89c8-8,14.6-16.6,13.7-26.2-.5-5.4-2.3-8.3-3.4-9.1-.6-.4-.4-.1-.3.2C110.7,64.38,99.7,75.27,96.1,78.88Z"/><path class="a" d="M77.7,98.07c0,.1.2.1.2,0,.8-6.6,4.5-11.6,13.1-20.2l4.1-4.1c5.1-5.1,9.8-10.5,9.5-19.1-.1-5.3-2.8-9.7-6.8-10.8-1.7-.4-1.6-.1-1.2,0,5.7,2.7,5.3,12.9-3.9,22.1l-5.1,5c-3.3,3.3-10,10.6-10,17.4v9.7Z"/><path class="a" d="M176.5,61.07l1.3.3a3,3,0,0,1,2.3,1.5,8.69,8.69,0,0,1,.6,3.9v21.9a12.67,12.67,0,0,1-.6,4.6,2.55,2.55,0,0,1-2.2,1.5c-.5.1-.7.2-.7.5s.3.6.8.6a13.59,13.59,0,0,0,1.5-.1h1.4l1.8-.1h2.1a23.73,23.73,0,0,1,3.1.1,8.8,8.8,0,0,0,1.4.1c.4,0,.6-.1.6-.5s-.3-.5-.8-.5a6.88,6.88,0,0,1-3.7-1.4c-.5-.6-.8-1.9-.8-3.9V80c0-.4.2-.6.5-.6a.86.86,0,0,1,.6.3l.5.6L200,94.48l.4.5a1.8,1.8,0,0,0,1.5.7,5.74,5.74,0,0,0,1.2-.1c.5,0,1.2-.1,2.2-.1a11,11,0,0,1,2.2.1,3.54,3.54,0,0,1,.6.1c.5,0,.8-.2.8-.6s-.2-.4-.6-.5l-1.1-.2a9,9,0,0,1-4.7-2.8l-13.4-14c-.4-.5-.6-.8-.6-1.1s.2-.5.6-.8l8.8-8c4.4-3.9,7.3-6.1,8.9-6.5.8-.2,1.3-.4,1.2-.7s-.3-.5-.7-.5a3.22,3.22,0,0,0-.8.1c-.3,0-1.1.1-2.1.1h-1.9l-2.4-.1a17.73,17.73,0,0,1-2.4-.1H197c-.5,0-.8.2-.8.5s.4.5,1.2.7c1.2.2,1.9.7,1.9,1.5s-.8,2.1-2.5,3.6l-11,9.9-.4.3-.4.3c-.2,0-.2-.2-.2-.5v-10a9.37,9.37,0,0,1,.4-3.5,4.26,4.26,0,0,1,2-1.6q.6-.3.6-.6c0-.3-.2-.5-.6-.5a8.33,8.33,0,0,0-1.2.1h-1.3l-1.9.1h-1a36.57,36.57,0,0,1-4.1-.2,3.45,3.45,0,0,0-.9-.1c-.5,0-.7.2-.7.5C175.8,60.77,176.1,61,176.5,61.07Z"/><path class="a" d="M212.7,93.48a2.58,2.58,0,0,1-2,1.4c-.3.1-.5.2-.5.4s.2.4.5.4a4.59,4.59,0,0,0,1-.1,9.15,9.15,0,0,1,1.6-.1h2.8a14.9,14.9,0,0,1,2.4.1,5.94,5.94,0,0,0,1.1.1c.4,0,.7-.1.6-.4s-.2-.4-.7-.4a4.9,4.9,0,0,1-2.5-.8,2.1,2.1,0,0,1-.8-1.1,9.47,9.47,0,0,1-.2-2.2V84a.85.85,0,0,1,.2-.6l.4-.1h2.5a1.64,1.64,0,0,1,1.5.8l.3.4,4.7,7.2a12.38,12.38,0,0,0,2.8,3.1,5.38,5.38,0,0,0,3.1.9,11.07,11.07,0,0,0,1.9-.2c.5-.2.8-.3.8-.5a.27.27,0,0,0-.3-.3h-.6c-1.4-.1-2.9-1.3-4.5-3.7l-.6-.9-5.2-7.7c3.1-1.6,4.7-3.8,4.7-6.6a5.61,5.61,0,0,0-2.2-4.9c-1.5-1.1-3.7-1.6-6.6-1.6a26.24,26.24,0,0,0-2.7.1c-1.4.1-2.4.1-3,.1a8.62,8.62,0,0,1-1.7-.1,10.3,10.3,0,0,0-1.3-.1c-.4,0-.6.1-.6.4s.2.4.6.4l.9.1q2.1.3,2.1,3.3v15.6A16.74,16.74,0,0,1,212.7,93.48Zm3.7-22.6a2.7,2.7,0,0,1,1.5-.4,6.89,6.89,0,0,1,4.9,1.8,5.83,5.83,0,0,1,1.9,4.5,5.38,5.38,0,0,1-1.4,3.8,5.64,5.64,0,0,1-3.9,1.4h-2.1a2,2,0,0,1-1.1-.2c-.2-.2-.2-.5-.2-1.1v-8.3A2.23,2.23,0,0,1,216.4,70.88Z"/><path class="a" d="M235.8,92.68a6.57,6.57,0,0,1,.3,1.3,1.18,1.18,0,0,0,.5.5,7.37,7.37,0,0,0,2.6,1,12.72,12.72,0,0,0,3.2.4,9.64,9.64,0,0,0,6.6-2.3,7.37,7.37,0,0,0,2.6-5.8c0-3.5-2.3-6-7-7.5a27.12,27.12,0,0,1-4.5-1.7,5.52,5.52,0,0,1-1.7-1.4,4.47,4.47,0,0,1-.9-2.8,3.89,3.89,0,0,1,1.4-3,5,5,0,0,1,3.4-1.2,8.54,8.54,0,0,1,4.7,1.3,6.57,6.57,0,0,1,2.8,3.4q.3.9.6.9c.3,0,.4-.2.4-.6a3.22,3.22,0,0,0-.1-.8l-.3-2a10.14,10.14,0,0,1-.2-1.9c0-.6-.2-.9-.5-.9-.1,0-.2,0-.2.1l-.3.2c-.2.1-.3.2-.5.2a.37.37,0,0,1-.3-.1l-1.3-.5a8.62,8.62,0,0,0-3.4-.6,8.72,8.72,0,0,0-5.9,1.9,6.41,6.41,0,0,0-2.3,5,6.11,6.11,0,0,0,1.8,4.5,15.07,15.07,0,0,0,6,3.1c2.7.9,4.4,1.6,4.9,2.1a4.58,4.58,0,0,1-.1,7.2,6.71,6.71,0,0,1-4.4,1.5,7.91,7.91,0,0,1-4.8-1.6,7.58,7.58,0,0,1-2.9-4q-.3-.9-.6-.9c-.3,0-.4.2-.4.6a11.27,11.27,0,0,0,.5,2.4A13.84,13.84,0,0,0,235.8,92.68Z"/><path class="a" d="M241.8,66.07a3.53,3.53,0,0,0,1,.9,2.12,2.12,0,0,0,1.8,0,2.44,2.44,0,0,0,.8-.9l1.7-2.1.6-.8a1.69,1.69,0,0,0,.2-.5.54.54,0,0,0-.3-.4,1.45,1.45,0,0,0-.7-.2c-.2,0-.5.3-.9.8-1,1.5-1.6,2.3-1.8,2.3s-.2-.1-.4-.3l-.5-.6-.8-.9-.6-.7-.4-.5a.86.86,0,0,0-.6-.3,1.76,1.76,0,0,0-.6.1l-.8.3c-.4.1-.5.3-.5.5a7,7,0,0,0,1,1.3Z"/><path class="a" d="M268.3,95.88a17.67,17.67,0,0,0,9.7-2.8,2.57,2.57,0,0,0,.9-1l.1-.3.4-2.3.1-.4v-.2c0-.3-.1-.4-.3-.4s-.4.4-.8,1a9.05,9.05,0,0,1-3.8,3.7,11.48,11.48,0,0,1-5.6,1.5,10,10,0,0,1-8-3.8c-2.1-2.5-3.1-5.7-3.1-9.7,0-3.4.9-6.1,2.8-8.1a9.94,9.94,0,0,1,7.6-3c4,0,7.3,2.1,9.6,6.2.3.5.5.8.7.8s.2-.1.3-.2l.1-.2-.1-.5-.6-4.6c-.1-.5-.2-.7-.4-.7a1.55,1.55,0,0,0-.6.3c-.1.1-.2.2-.3.2l-.3-.1-.3-.1-.8-.4a15.29,15.29,0,0,0-7.4-1.8,13.11,13.11,0,0,0-9.7,3.9,13.34,13.34,0,0,0-3.9,9.8,12.58,12.58,0,0,0,3.7,9.5A14.35,14.35,0,0,0,268.3,95.88Z"/><path class="a" d="M286.9,95.57c.4,0,.5-.1.5-.3s-.2-.4-.6-.4a3.9,3.9,0,0,1-1.8-.7,1.7,1.7,0,0,1-.4-1.3,9.84,9.84,0,0,1,.8-2.9l1.2-2.8a3.82,3.82,0,0,1,.9-1.5c.2-.2.8-.2,1.7-.2h6.9a3.09,3.09,0,0,1,1.3.2q.3.15.6,1.2l.9,2.5a13.85,13.85,0,0,1,1.2,4c0,.7-.3,1.2-.9,1.3l-.6.1c-.3.1-.5.2-.5.4s.2.4.5.4a1.76,1.76,0,0,0,.6-.1,23,23,0,0,1,3.3-.1,29.42,29.42,0,0,1,3.5.1h.7c.3,0,.5-.1.5-.3s-.2-.4-.6-.5a4.59,4.59,0,0,1-2.4-.9,8.92,8.92,0,0,1-1.5-2.9l-.4-1L294.1,69c-.1-.4-.3-.6-.5-.6s-.4.2-.5.6l-9.8,21.7L283,92a8.16,8.16,0,0,1-1.1,1.7,3.53,3.53,0,0,1-1,.9l-.7.2c-.2.1-.3.2-.3.4a.46.46,0,0,0,.5.4,7.47,7.47,0,0,0,1.1-.1h3l1.8.1Zm1.9-13.2,3.7-8.2c.1-.3.2-.4.3-.4s.3.2.5.6l.2.4,3,7.5.1.3a.76.76,0,0,1,.1.4c0,.3-.3.5-.9.5h-6.3c-.6,0-.9-.2-.9-.5A3.22,3.22,0,0,0,288.8,82.38Z"/><path class="a" d="M315.3,95.48h.6c.3,0,.4-.1.4-.4s-.2-.4-.6-.5a4.44,4.44,0,0,1-2-.7,2.44,2.44,0,0,1-.6-1.7l-.1-1.3V77.17c0-.6.1-.9.4-.9a.37.37,0,0,1,.3.1l.2.2,16,18.3.4.5a.52.52,0,0,0,.4.2c.3,0,.5-.1.5-.4a14.32,14.32,0,0,0,.1-2.6V73.37a5.14,5.14,0,0,1,.4-2.5,2.05,2.05,0,0,1,1.5-.9c.3-.1.4-.2.4-.4s-.2-.4-.5-.4a3.45,3.45,0,0,0-.9.1,10.32,10.32,0,0,1-1.9.1,34.36,34.36,0,0,1-3.5-.1c-.4,0-.6-.1-.8-.1-.4,0-.6.1-.6.4s.2.4.6.5a4.91,4.91,0,0,1,2.7,1,3.29,3.29,0,0,1,.9,2.3l.2,4.4v12a.52.52,0,0,1-.2.4c-.1,0-.3-.1-.5-.5l-17.5-19.8a1.21,1.21,0,0,0-.9-.6h-3.4c-.3,0-.4.1-.4.4a.46.46,0,0,0,.5.4,3.94,3.94,0,0,1,3,2.2,10.94,10.94,0,0,1,1,5.2v12.9a5.62,5.62,0,0,1-.6,3,4.26,4.26,0,0,1-2.2,1.5c-.4.1-.5.3-.5.5a.46.46,0,0,0,.5.4,2.25,2.25,0,0,0,.7-.1,6.15,6.15,0,0,1,1.4-.1h.9l1.9.1A9.43,9.43,0,0,1,315.3,95.48Z"/><path class="a" d="M353.3,87.77c0-3.5-2.3-6-7-7.5a27.12,27.12,0,0,1-4.5-1.7,5.52,5.52,0,0,1-1.7-1.4,4.47,4.47,0,0,1-.9-2.8,3.89,3.89,0,0,1,1.4-3,5,5,0,0,1,3.4-1.2,8.54,8.54,0,0,1,4.7,1.3,6.57,6.57,0,0,1,2.8,3.4q.3.9.6.9c.3,0,.4-.2.4-.6a3.22,3.22,0,0,0-.1-.8l-.3-2a10.14,10.14,0,0,1-.2-1.9c0-.6-.2-.9-.5-.9-.1,0-.2,0-.2.1l-.3.2c-.2.1-.3.2-.5.2a.37.37,0,0,1-.3-.1l-1.3-.5a8.62,8.62,0,0,0-3.4-.6,8.72,8.72,0,0,0-5.9,1.9,6.41,6.41,0,0,0-2.3,5,6.11,6.11,0,0,0,1.8,4.5,15.07,15.07,0,0,0,6,3.1c2.7.9,4.4,1.6,4.9,2.1a4.58,4.58,0,0,1-.1,7.2,6.71,6.71,0,0,1-4.4,1.5,7.91,7.91,0,0,1-4.8-1.6,7.58,7.58,0,0,1-2.9-4q-.3-.9-.6-.9c-.3,0-.4.2-.4.6a11.27,11.27,0,0,0,.5,2.4,14.33,14.33,0,0,0,.5,1.7,6.57,6.57,0,0,1,.3,1.3,1.18,1.18,0,0,0,.5.5,7.37,7.37,0,0,0,2.6,1,12.72,12.72,0,0,0,3.2.4,9.64,9.64,0,0,0,6.6-2.3A6.8,6.8,0,0,0,353.3,87.77Z"/><path class="a" d="M406.3,94.68a4.59,4.59,0,0,1-2.4-.9,8.92,8.92,0,0,1-1.5-2.9l-.4-1L393.8,69c-.1-.4-.3-.6-.5-.6s-.4.2-.5.6L383,90.67l-.6,1.3a8.16,8.16,0,0,1-1.1,1.7,3.53,3.53,0,0,1-1,.9l-.4.1-.6-.1a6.69,6.69,0,0,1-3.4-2L366,82.27a1.46,1.46,0,0,1-.5-.8c0-.2.2-.4.4-.6l6.5-5.9c3.2-2.9,5.4-4.5,6.5-4.8.6-.1.9-.3.9-.5s-.2-.4-.6-.4a1.76,1.76,0,0,0-.6.1h-4.8a9.72,9.72,0,0,1-1.8-.1h-.5c-.4,0-.6.1-.6.4s.3.4.9.5c.9.2,1.4.5,1.4,1.1s-.6,1.6-1.9,2.7l-8.1,7.3-.3.2-.3.2c-.1,0-.2-.1-.2-.4v-7.4a7.16,7.16,0,0,1,.3-2.6,3.25,3.25,0,0,1,1.5-1.2c.3-.1.5-.3.5-.4a.46.46,0,0,0-.5-.4,4.4,4.4,0,0,0-.9.1h-3.1a22.82,22.82,0,0,1-3-.1c-.3,0-.5-.1-.7-.1s-.5.1-.5.4.2.3.5.4l.9.2a2.35,2.35,0,0,1,1.7,1.1,6.33,6.33,0,0,1,.4,2.8v16.2a9,9,0,0,1-.5,3.4,1.88,1.88,0,0,1-1.6,1.1c-.4,0-.6.2-.6.4s.2.4.6.4a6.61,6.61,0,0,0,1.1-.1h3.8a13.53,13.53,0,0,1,2.3.1c.5,0,.8.1,1,.1s.5-.1.5-.4-.2-.3-.6-.4a5,5,0,0,1-2.7-1,4.79,4.79,0,0,1-.6-2.9V84c0-.3.1-.4.3-.4s.3.1.5.2l.4.4,10.2,10.5.3.4a1.61,1.61,0,0,0,1.1.5h2.5a5.79,5.79,0,0,1,1.6.1h.5c.2,0,.3,0,.4-.1h3.5l1.8.1h.6c.4,0,.5-.1.5-.3s-.2-.4-.6-.4a3.9,3.9,0,0,1-1.8-.7,1.7,1.7,0,0,1-.4-1.3,9.84,9.84,0,0,1,.8-2.9l1.2-2.8a3.82,3.82,0,0,1,.9-1.5c.2-.2.8-.2,1.7-.2h6.9a3.09,3.09,0,0,1,1.3.2q.3.15.6,1.2l.9,2.5a13.85,13.85,0,0,1,1.2,4c0,.7-.3,1.2-.9,1.3l-.6.1c-.3.1-.5.2-.5.4s.2.4.5.4a1.76,1.76,0,0,0,.6-.1,23,23,0,0,1,3.3-.1,29.42,29.42,0,0,1,3.5.1h.7c.3,0,.5-.1.5-.3C406.8,94.88,406.6,94.77,406.3,94.68Zm-11.2-11h-6.2c-.6,0-.9-.2-.9-.5,0-.1.1-.3.2-.7l3.7-8.2c.1-.3.2-.4.3-.4s.3.2.5.6l.2.4,3,7.5.1.3a.76.76,0,0,1,.1.4C396.1,83.48,395.8,83.68,395.1,83.68Z"/><path class="a" d="M209,136.48a6.6,6.6,0,0,1-3.2-1.2,12.94,12.94,0,0,1-2-3.9l-.6-1.4-11.1-28.3c-.2-.5-.4-.7-.7-.7s-.5.3-.7.8l-13.2,29.4-.7,1.7c-.4.8-.9,1.5-1.4,2.3s-1,1.1-1.4,1.2l-1,.3a.55.55,0,0,0-.4.6c0,.3.2.5.7.5a11.31,11.31,0,0,0,1.4-.1h1.2a23.53,23.53,0,0,1,2.8.1l2.5.1h.9c.5,0,.7-.1.7-.4s-.3-.5-.8-.6a7.48,7.48,0,0,1-2.4-.9,2.29,2.29,0,0,1-.6-1.8,13.07,13.07,0,0,1,1.1-3.9l1.7-3.8a5.57,5.57,0,0,1,1.2-2.1,5.57,5.57,0,0,1,2.4-.3h9.3a4.51,4.51,0,0,1,1.7.2,3.63,3.63,0,0,1,.8,1.6l1.3,3.4a22,22,0,0,1,1.6,5.4,1.59,1.59,0,0,1-1.3,1.8l-.8.2c-.4.1-.6.3-.6.5,0,.4.2.5.7.5a2.81,2.81,0,0,0,.8-.1,34.3,34.3,0,0,1,4.5-.2c2.3,0,3.9,0,4.8.1.5,0,.8.1,1,.1.5,0,.7-.1.7-.4S209.6,136.57,209,136.48Zm-15-15h-8.5c-.8,0-1.2-.2-1.2-.7a3.26,3.26,0,0,1,.3-1l5-11.1c.2-.3.3-.5.4-.5s.5.3.7.8l.2.5,4,10.2.1.5a1.76,1.76,0,0,1,.1.6C195.2,121.27,194.8,121.48,194,121.48Z"/><path class="a" d="M220.8,111.07a20.09,20.09,0,0,0-2.5.1l-1.8.2a24.52,24.52,0,0,1-3,.1h-1.3l-1.5-.1c-.3,0-.5.1-.5.4s.2.4.6.4a3,3,0,0,1,2.1,1,5.06,5.06,0,0,1,.6,2.8v17.1a6.05,6.05,0,0,1-.4,2.8,2,2,0,0,1-1.7.9c-.4.1-.5.2-.5.4s.2.5.7.4c.3,0,.6-.1,1.1-.1a34.92,34.92,0,0,1,3.5-.2c1.3,0,2.7.1,4.4.2a13.06,13.06,0,0,0,1.7.1,13.5,13.5,0,0,0,7.6-2.2,12.18,12.18,0,0,0,4.3-4.7,14.62,14.62,0,0,0,1.6-6.6,12.6,12.6,0,0,0-3.5-9.1C229.9,112.38,226,111.07,220.8,111.07Zm8,23.8a10.56,10.56,0,0,1-5.8,1.6,17.94,17.94,0,0,1-5.2-1,1.59,1.59,0,0,1-1.2-1.6v-19.5a2.17,2.17,0,0,1,.5-1.6c.5-.4,1.8-.6,3.8-.6a11.71,11.71,0,0,1,7.1,2.1,11.17,11.17,0,0,1,3.8,4.7,15.92,15.92,0,0,1,1.4,6.6C233.2,130,231.7,133.07,228.8,134.88Z"/><path class="a" d="M262.4,111.27h-3.8a14.89,14.89,0,0,1-1.7-.1h-.5c-.4,0-.6.1-.6.4s.3.4,1,.5a4,4,0,0,1,1.2.4,1.22,1.22,0,0,1,.3.9c0,1.2-.9,3.9-2.7,8.2l-4.2,9.9-.3.7c-.3.7-.6,1.1-.7,1.1s-.3-.2-.5-.6L242.6,116a8.31,8.31,0,0,1-.8-2.7,1.17,1.17,0,0,1,.2-.7,4.34,4.34,0,0,1,1-.5c.3-.1.4-.2.4-.4a.46.46,0,0,0-.5-.4h-.5c-.5,0-.9.1-1.2.1h-5.5c-.4,0-.5.1-.5.4s.1.3.2.3a9.11,9.11,0,0,0,1.2.3,2.75,2.75,0,0,1,1.5.8,6.44,6.44,0,0,1,1.2,2.1l9.6,22.3c.3.6.5,1,.8,1s.5-.3.8-.9l9.4-22.1.5-1.2a3.8,3.8,0,0,1,2.1-2.2c.3-.1.4-.2.4-.4C262.8,111.38,262.6,111.27,262.4,111.27Z"/><path class="a" d="M283.3,132.18a.54.54,0,0,0-.4.3c-1.4,2.2-4.6,3.4-9.6,3.4-1.6,0-2.5-.1-2.9-.4s-.6-.9-.6-2v-7.6a1,1,0,0,1,.3-.8,2.87,2.87,0,0,1,1.2-.2h4.2a4.11,4.11,0,0,1,2.3.5,2.19,2.19,0,0,1,.9,1.7l.1.5c.1.3.2.4.5.4a.46.46,0,0,0,.4-.5V127a17.71,17.71,0,0,1-.1-2.3c0-1,.1-2.1.2-3.3V121c0-.3-.1-.5-.4-.5s-.4.1-.5.5a4.93,4.93,0,0,1-.5,1.6,2.3,2.3,0,0,1-1.3.5,13.73,13.73,0,0,1-3.1.2h-2.9a1.85,1.85,0,0,1-1-.2,2,2,0,0,1-.2-1.1v-7.7a1.88,1.88,0,0,1,.3-1.3,2.37,2.37,0,0,1,1.5-.3h3a17.1,17.1,0,0,1,4,.3,2.49,2.49,0,0,1,1.5,1.1,2.54,2.54,0,0,1,.2,1.2v.5c0,.4.1.6.4.6s.4-.1.4-.3a7.1,7.1,0,0,0,.2-1.4l.1-1.1a8.8,8.8,0,0,1,.2-1.5c0-.2.1-.3.1-.4,0-.4-.2-.5-.6-.5a2.81,2.81,0,0,0-.8.1,13.8,13.8,0,0,1-1.4.1l-2.7.1c-1.2.1-2.6.1-4.1.1a60.47,60.47,0,0,1-6.5-.3,6.64,6.64,0,0,0-1.3-.1c-.6,0-.9.2-.9.5a.46.46,0,0,0,.5.4,2.5,2.5,0,0,1,2.3.9,7.43,7.43,0,0,1,.6,3.7V134c0,1.5-.5,2.4-1.4,2.7l-.7.2c-.3.1-.5.2-.5.4s.2.4.6.4a4.59,4.59,0,0,0,1-.1,27.74,27.74,0,0,1,4.7-.2q2.4,0,6,.3a8.64,8.64,0,0,0,1.5.1,5.31,5.31,0,0,0,4.2-2,5.1,5.1,0,0,0,1.4-2.9C283.7,132.38,283.5,132.18,283.3,132.18Z"/><path class="a" d="M311.1,111.18a3.45,3.45,0,0,0-.9.1,10.32,10.32,0,0,1-1.9.1,34.36,34.36,0,0,1-3.5-.1c-.4,0-.6-.1-.8-.1-.4,0-.5.1-.5.4s.2.4.5.5a4.91,4.91,0,0,1,2.7,1,3.5,3.5,0,0,1,.9,2.3l.2,4.4v12a.52.52,0,0,1-.2.4c-.1,0-.3-.1-.5-.5l-17.5-19.8a1.06,1.06,0,0,0-.9-.5h-3.4c-.3,0-.4.1-.4.4a.46.46,0,0,0,.5.4,3.94,3.94,0,0,1,3,2.2,10.94,10.94,0,0,1,1,5.2v12.9a5.62,5.62,0,0,1-.6,3,4.26,4.26,0,0,1-2.2,1.5c-.4.1-.5.3-.5.5a.46.46,0,0,0,.5.4,2.25,2.25,0,0,0,.7-.1,6.15,6.15,0,0,1,1.4-.1h.9l1.9.1c1,0,1.5.1,1.7.1h.6c.3,0,.4-.1.4-.4s-.2-.4-.6-.5a4.44,4.44,0,0,1-2-.7,2.44,2.44,0,0,1-.6-1.7l-.1-1.3v-13.7c0-.6.1-.9.4-.9a.37.37,0,0,1,.3.1l.2.2,16,18.3.4.5a.52.52,0,0,0,.4.2c.3,0,.5-.1.5-.4a14.32,14.32,0,0,0,.1-2.6v-19.2a5.14,5.14,0,0,1,.4-2.5,2.05,2.05,0,0,1,1.5-.9c.3-.1.4-.2.4-.4C311.6,111.27,311.4,111.18,311.1,111.18Z"/><path class="a" d="M336.9,113a2.75,2.75,0,0,0-.2-1.3,2.75,2.75,0,0,0-1.3-.2H315c-.4,0-.7.1-.8.3a2.68,2.68,0,0,0-.2,1.1,10.33,10.33,0,0,1-.3,2.2,5,5,0,0,0-.2,1.5c0,.3.1.5.3.5s.4-.2.5-.7a4.47,4.47,0,0,1,1.1-2.3,3.4,3.4,0,0,1,2.2-.6h5a.86.86,0,0,1,1.1,1.1v19.3a3.72,3.72,0,0,1-.5,2.2,2.88,2.88,0,0,1-2,.8c-.4,0-.6.2-.6.4s.2.4.6.4a9.29,9.29,0,0,0,1.3-.1c.4,0,.8-.1,1.3-.1h2.9a6.25,6.25,0,0,1,1.7.1,4.4,4.4,0,0,0,.9.1c.4,0,.5-.1.5-.4s-.2-.4-.7-.4a2.69,2.69,0,0,1-2.5-2.6V115a2,2,0,0,1,.2-1.1c.1-.2.5-.2,1.1-.2h5.3c1.1,0,1.8.1,2.1.4a3,3,0,0,1,.8,1.8c.1.4.2.6.5.6s.4-.2.4-.6c0-.2-.1-.5-.1-.9A13.34,13.34,0,0,0,336.9,113Z"/><path class="a" d="M347.9,136.68a3.8,3.8,0,0,1-1.8-.6,2.45,2.45,0,0,1-.9-1.4,12.83,12.83,0,0,1-.3-3.5V117c0-2.7.5-4.2,1.4-4.5l1-.4c.3-.1.5-.3.5-.5a.46.46,0,0,0-.5-.4h-.5l-1.3.1c-.7,0-1.5.1-2.4.1a34.13,34.13,0,0,1-3.7-.2h-.3c-.4,0-.6.1-.6.4s.2.4.6.4a3.53,3.53,0,0,1,2.3,1.1c.4.5.5,1.6.5,3.2v16.3a7.6,7.6,0,0,1-.4,3.2,2.64,2.64,0,0,1-1.9,1c-.4.1-.6.2-.6.4s.2.4.5.4a3.45,3.45,0,0,0,.9-.1l2.2-.1h2.8a10.37,10.37,0,0,1,2,.1c.3,0,.5.1.7.1.4,0,.6-.1.6-.4C348.9,136.88,348.6,136.68,347.9,136.68Z"/><path class="a" d="M360.7,122.18a27.12,27.12,0,0,1-4.5-1.7,5.52,5.52,0,0,1-1.7-1.4,4.47,4.47,0,0,1-.9-2.8,3.89,3.89,0,0,1,1.4-3,5,5,0,0,1,3.4-1.2,8.54,8.54,0,0,1,4.7,1.3,6.57,6.57,0,0,1,2.8,3.4q.3.9.6.9c.3,0,.4-.2.4-.6a3.22,3.22,0,0,0-.1-.8l-.3-2a10.14,10.14,0,0,1-.2-1.9c0-.6-.2-.9-.5-.9-.1,0-.2,0-.2.1l-.3.2c-.2.1-.3.2-.5.2a.37.37,0,0,1-.3-.1l-1.3-.5a8.62,8.62,0,0,0-3.4-.6,8.72,8.72,0,0,0-5.9,1.9,6.41,6.41,0,0,0-2.3,5,6.11,6.11,0,0,0,1.8,4.5,16.48,16.48,0,0,0,6,3.1c2.7.9,4.4,1.6,4.9,2.1a4.58,4.58,0,0,1-.1,7.2,6.71,6.71,0,0,1-4.4,1.5,7.91,7.91,0,0,1-4.8-1.6,7.58,7.58,0,0,1-2.9-4q-.3-.9-.6-.9c-.3,0-.4.2-.4.5a11.27,11.27,0,0,0,.5,2.4,14.33,14.33,0,0,0,.5,1.7,6.57,6.57,0,0,1,.3,1.3,1.18,1.18,0,0,0,.5.5,7.37,7.37,0,0,0,2.6,1,12.72,12.72,0,0,0,3.2.4,9.64,9.64,0,0,0,6.6-2.3,7.37,7.37,0,0,0,2.6-5.8C367.7,126.27,365.4,123.77,360.7,122.18Z"/><path class="a" d="M393.1,113a2.75,2.75,0,0,0-.2-1.3,2.75,2.75,0,0,0-1.3-.2H371.2c-.4,0-.7.1-.8.3a2.68,2.68,0,0,0-.2,1.1,10.33,10.33,0,0,1-.3,2.2,5,5,0,0,0-.2,1.5c0,.3.1.5.3.5s.4-.2.5-.7a4.47,4.47,0,0,1,1.1-2.3,3.4,3.4,0,0,1,2.2-.6h5a.86.86,0,0,1,1.1,1.1v19.3a3.72,3.72,0,0,1-.5,2.2,2.88,2.88,0,0,1-2,.8c-.4,0-.6.2-.6.4s.2.4.6.4a9.29,9.29,0,0,0,1.3-.1c.4,0,.8-.1,1.4-.1H383a6.25,6.25,0,0,1,1.7.1,4.4,4.4,0,0,0,.9.1c.4,0,.5-.1.5-.4s-.2-.4-.7-.4a2.69,2.69,0,0,1-2.5-2.6V115a2,2,0,0,1,.2-1.1c.1-.2.5-.2,1.1-.2h5.3c1.1,0,1.8.1,2.1.4a3,3,0,0,1,.8,1.8c.1.4.2.6.5.6s.4-.2.4-.6c0-.2-.1-.5-.1-.9A12.75,12.75,0,0,1,393.1,113Z"/><path class="a" d="M404.1,136.68a3.8,3.8,0,0,1-1.8-.6,2.45,2.45,0,0,1-.9-1.4,12.83,12.83,0,0,1-.3-3.5V117c0-2.7.5-4.2,1.4-4.5l1-.4c.3-.1.5-.3.5-.5a.46.46,0,0,0-.5-.4H403l-1.3.1c-.7,0-1.5.1-2.4.1a34.13,34.13,0,0,1-3.7-.2h-.3c-.4,0-.6.1-.5.4s.2.4.6.4a3.53,3.53,0,0,1,2.3,1.1c.4.5.5,1.6.5,3.2v16.3a7.6,7.6,0,0,1-.4,3.2,2.64,2.64,0,0,1-1.9,1c-.4.1-.6.2-.6.4s.2.4.5.4a3.45,3.45,0,0,0,.9-.1l2.2-.1h2.8a10.37,10.37,0,0,1,2,.1c.3,0,.5.1.7.1.4,0,.6-.1.6-.4S404.7,136.68,404.1,136.68Z"/><path class="a" d="M432,130.38c-.2,0-.4.4-.8,1a9.05,9.05,0,0,1-3.8,3.7,11.48,11.48,0,0,1-5.6,1.5,10,10,0,0,1-8-3.8c-2.1-2.5-3.1-5.7-3.1-9.7,0-3.4.9-6.1,2.8-8.1a9.94,9.94,0,0,1,7.6-3c4.1,0,7.3,2.1,9.6,6.2.3.5.5.8.7.8s.2-.1.3-.2l.1-.2-.1-.5-.6-4.6c-.1-.5-.2-.7-.4-.7a1.55,1.55,0,0,0-.6.3c-.1.1-.2.2-.3.2l-.3-.1-.3-.1-.8-.4a15.29,15.29,0,0,0-7.4-1.8,13.11,13.11,0,0,0-9.7,3.9,13.34,13.34,0,0,0-3.9,9.8,12.58,12.58,0,0,0,3.7,9.5,13.61,13.61,0,0,0,9.8,3.6,17.67,17.67,0,0,0,9.7-2.8,2.57,2.57,0,0,0,.9-1l.1-.3.4-2.3.1-.4v-.2C432.3,130.48,432.2,130.27,432,130.38Z"/><path class="a" d="M485,136.68a4.59,4.59,0,0,1-2.4-.9,8.92,8.92,0,0,1-1.5-2.9l-.4-1L472.5,111c-.1-.4-.3-.6-.5-.6s-.4.2-.5.6l-9.8,21.7-.6,1.3a8.16,8.16,0,0,1-1.1,1.7,3.53,3.53,0,0,1-1,.9l-.4.1-.6-.1a6.69,6.69,0,0,1-3.4-2l-9.9-10.3a1.46,1.46,0,0,1-.5-.8c0-.2.2-.4.4-.6l6.5-5.9c3.2-2.9,5.4-4.5,6.5-4.8.6-.1.9-.3.9-.5s-.2-.4-.6-.4a1.76,1.76,0,0,0-.6.1h-4.8a9.72,9.72,0,0,1-1.8-.1h-.5c-.4,0-.6.1-.6.4s.3.4.9.5c.9.2,1.4.5,1.4,1.1s-.6,1.6-1.9,2.7l-8.1,7.3-.3.2-.3.2c-.1,0-.2-.1-.2-.4v-7.4a7.16,7.16,0,0,1,.3-2.6,3.25,3.25,0,0,1,1.5-1.2c.3-.1.5-.3.5-.4a.46.46,0,0,0-.5-.4,4.4,4.4,0,0,0-.9.1h-3.1a22.82,22.82,0,0,1-3-.1c-.3,0-.5-.1-.7-.1s-.5.1-.5.4.2.3.5.4l.9.2a2.35,2.35,0,0,1,1.7,1.1,6.33,6.33,0,0,1,.4,2.8v16.2a9,9,0,0,1-.5,3.4,1.88,1.88,0,0,1-1.6,1.1c-.4,0-.6.2-.6.4s.2.4.6.4a6.61,6.61,0,0,0,1.1-.1H441a13.53,13.53,0,0,1,2.3.1c.5,0,.8.1,1,.1s.5-.1.5-.4-.2-.3-.6-.4a5,5,0,0,1-2.7-1,4.79,4.79,0,0,1-.6-2.9v-7c0-.3.1-.4.3-.4s.3.1.5.2l.4.4,10.2,10.5.3.4a1.61,1.61,0,0,0,1.1.5h2.5a5.79,5.79,0,0,1,1.6.1h.5c.2,0,.3,0,.4-.1h3.5l1.8.1h.6c.4,0,.5-.1.5-.3s-.2-.4-.6-.4a3.9,3.9,0,0,1-1.8-.7,1.7,1.7,0,0,1-.4-1.3,9.84,9.84,0,0,1,.8-2.9l1.2-2.8a3.82,3.82,0,0,1,.9-1.5c.2-.2.8-.2,1.7-.2h6.9a3.09,3.09,0,0,1,1.3.2q.3.15.6,1.2l.9,2.5a13.85,13.85,0,0,1,1.2,4c0,.7-.3,1.2-.9,1.3l-.6.1c-.3.1-.5.2-.5.4s.2.4.5.4a1.76,1.76,0,0,0,.6-.1,23,23,0,0,1,3.3-.1,29.42,29.42,0,0,1,3.5.1h.7c.3,0,.5-.1.5-.3C485.6,136.88,485.4,136.77,485,136.68Zm-11.1-11.1h-6.2c-.6,0-.9-.2-.9-.5,0-.1.1-.3.2-.7l3.7-8.2c.1-.3.2-.4.3-.4s.3.2.5.6l.2.4,3,7.5.1.3a.76.76,0,0,1,.1.4C474.8,125.48,474.5,125.57,473.9,125.57Z"/><path class="a" d="M529.7,127.88c-.2,0-.6.5-1,1.4a12,12,0,0,1-5.2,5,15.31,15.31,0,0,1-7.6,2.1,13.36,13.36,0,0,1-10.8-5.1c-2.8-3.4-4.2-7.8-4.2-13.1,0-4.7,1.3-8.3,3.8-11s6-4,10.3-4c5.5,0,9.8,2.8,13.1,8.4.4.7.7,1.1.9,1.1s.3-.1.4-.3l.1-.3-.1-.6-.8-6.2c-.1-.7-.3-1-.5-1a1.79,1.79,0,0,0-.8.4c-.2.1-.3.2-.4.2l-.4-.2-.4-.2-1-.5a21.1,21.1,0,0,0-10-2.4,18,18,0,0,0-18.4,18.6c0,5.3,1.7,9.7,5.1,12.9s7.8,4.9,13.3,4.9a24.13,24.13,0,0,0,13.1-3.8c.7-.5,1.1-.9,1.2-1.4l.1-.5.6-3.2.1-.6v-.3A.46.46,0,0,0,529.7,127.88Z"/><path class="a" d="M557.5,136.68h-.6c-1.4-.1-2.9-1.3-4.5-3.7l-.6-.9-5.2-7.7c3.1-1.6,4.7-3.8,4.7-6.6a5.61,5.61,0,0,0-2.2-4.9c-1.5-1.1-3.7-1.6-6.6-1.6a26.24,26.24,0,0,0-2.7.1c-1.4.1-2.4.1-3,.1a8.62,8.62,0,0,1-1.7-.1,10.3,10.3,0,0,0-1.3-.1c-.4,0-.6.1-.6.4s.2.4.6.4l.9.1q2.1.3,2.1,3.3v15.6a12.94,12.94,0,0,1-.5,4.3,2.58,2.58,0,0,1-2,1.4c-.3.1-.5.2-.5.4s.2.4.5.4a4.59,4.59,0,0,0,1-.1,9.15,9.15,0,0,1,1.6-.1h2.8a14.9,14.9,0,0,1,2.4.1,5.94,5.94,0,0,0,1.1.1c.4,0,.7-.1.6-.4s-.2-.4-.7-.4a4.9,4.9,0,0,1-2.5-.8,2.1,2.1,0,0,1-.8-1.1,9.47,9.47,0,0,1-.2-2.2V126a.85.85,0,0,1,.2-.6l.4-.1h2.5a1.64,1.64,0,0,1,1.5.8l.3.4,4.7,7.2a12.38,12.38,0,0,0,2.8,3.1,5.38,5.38,0,0,0,3.1.9,11.07,11.07,0,0,0,1.9-.2c.6-.2.8-.3.8-.5S557.7,136.68,557.5,136.68Zm-14.3-12.8H541a2,2,0,0,1-1.1-.2c-.2-.2-.2-.5-.2-1.1v-8.3c0-.6.1-1.1.4-1.3a2.83,2.83,0,0,1,1.6-.4,6.73,6.73,0,0,1,4.9,1.8,5.83,5.83,0,0,1,1.9,4.5,5,5,0,0,1-1.4,3.7A5.58,5.58,0,0,1,543.2,123.88Z"/><path class="a" d="M607.1,114.18a3.8,3.8,0,0,1,2.1-2.2c.3-.1.4-.2.4-.4s-.1-.3-.4-.3h-3.9a14.89,14.89,0,0,1-1.7-.1H603c-.4,0-.6.1-.6.4s.3.4,1,.5a4,4,0,0,1,1.2.4,1.22,1.22,0,0,1,.3.9c0,1.2-.9,3.9-2.7,8.2l-4.2,9.9-.3.7c-.3.7-.6,1.1-.7,1.1s-.3-.2-.5-.6L589.2,116a8.31,8.31,0,0,1-.8-2.7,1.17,1.17,0,0,1,.2-.7,4.34,4.34,0,0,1,1-.5c.2-.1.4-.2.4-.4a.46.46,0,0,0-.5-.4H589c-.5,0-.9.1-1.2.1h-5.6c-.1-.1-.2-.1-.4-.1a1.76,1.76,0,0,0-.6.1h-4.8a9.72,9.72,0,0,1-1.8-.1h-.5c-.4,0-.6.1-.6.4s.3.4.9.5c.9.2,1.4.5,1.4,1.1s-.6,1.6-1.9,2.7l-8.1,7.3-.3.2-.3.2c-.1,0-.2-.1-.2-.4v-7.4a7.16,7.16,0,0,1,.3-2.6,3.25,3.25,0,0,1,1.5-1.2c.3-.1.5-.3.5-.4a.46.46,0,0,0-.5-.4,4.4,4.4,0,0,0-.9.1h-3.1a22.82,22.82,0,0,1-3-.1c-.3,0-.5-.1-.7-.1s-.5.1-.5.4.2.3.5.4l.9.2a2.35,2.35,0,0,1,1.7,1.1,6.33,6.33,0,0,1,.4,2.8v16.2a9,9,0,0,1-.5,3.4,1.88,1.88,0,0,1-1.6,1.1c-.4,0-.6.2-.6.4s.2.4.6.4a6.61,6.61,0,0,0,1.1-.1h3.8a13.53,13.53,0,0,1,2.3.1c.5,0,.8.1,1,.1s.5-.1.5-.4-.2-.3-.6-.4a5,5,0,0,1-2.7-1,4.79,4.79,0,0,1-.6-2.9v-7c0-.3.1-.4.3-.4s.3.1.5.2l.4.4,10.2,10.5.3.4a1.61,1.61,0,0,0,1.1.5h2.5a5.79,5.79,0,0,1,1.6.1h.5c.4,0,.6-.1.6-.4s-.1-.3-.4-.4l-.8-.2a6.69,6.69,0,0,1-3.4-2l-9.9-10.3a1.46,1.46,0,0,1-.5-.8c0-.2.2-.4.4-.6l6.5-5.9c3.2-2.9,5.4-4.5,6.5-4.8.2,0,.3-.1.4-.1h0a9.11,9.11,0,0,0,1.2.3,2.75,2.75,0,0,1,1.5.8,6.44,6.44,0,0,1,1.2,2.1l9.6,22.3c.3.6.5,1,.8,1s.5-.3.8-.9l9.4-22.1Z"/><path class="a" d="M631.8,136.68a4.59,4.59,0,0,1-2.4-.9,8.92,8.92,0,0,1-1.5-2.9l-.4-1L619.3,111c-.1-.4-.3-.6-.5-.6s-.4.2-.6.6l-9.8,21.7L608,134a8.16,8.16,0,0,1-1.1,1.7,3.53,3.53,0,0,1-1,.9l-.7.2c-.2.1-.3.2-.3.4a.46.46,0,0,0,.5.4,7.47,7.47,0,0,0,1.1-.1h3l1.8.1h.6c.4,0,.5-.1.5-.3s-.2-.4-.6-.4a3.9,3.9,0,0,1-1.8-.7,1.7,1.7,0,0,1-.4-1.3,9.84,9.84,0,0,1,.8-2.9l1.2-2.8a3.82,3.82,0,0,1,.9-1.5c.2-.2.8-.2,1.7-.2h6.9a3.09,3.09,0,0,1,1.3.2q.3.15.6,1.2l.9,2.5a13.85,13.85,0,0,1,1.2,4c0,.7-.3,1.2-.9,1.3l-.6.1c-.3.1-.5.2-.5.4s.2.4.5.4a1.76,1.76,0,0,0,.6-.1,23,23,0,0,1,3.3-.1,29.42,29.42,0,0,1,3.5.1h.7c.3,0,.5-.1.5-.3C632.4,136.88,632.2,136.77,631.8,136.68Zm-11.1-11.1h-6.2c-.6,0-.9-.2-.9-.5,0-.1.1-.3.2-.7l3.7-8.2c.1-.3.2-.4.3-.4s.3.2.5.6l.2.4,3,7.5.1.3a.76.76,0,0,1,.1.4C621.6,125.48,621.3,125.57,620.7,125.57Z"/><path class="a" d="M418.6,108a3.53,3.53,0,0,0,1,.9,2.12,2.12,0,0,0,1.8,0,2.44,2.44,0,0,0,.8-.9l1.7-2.1.6-.8a1.69,1.69,0,0,0,.2-.5.54.54,0,0,0-.3-.4.84.84,0,0,0-.7-.2c-.2,0-.5.3-.9.8-1,1.5-1.6,2.3-1.8,2.3s-.2-.1-.4-.3l-.5-.6-.8-.9-.6-.7-.4-.5a.86.86,0,0,0-.6-.3,1.76,1.76,0,0,0-.6.1l-.8.3c-.4.1-.5.3-.5.5a7,7,0,0,0,1,1.3Z"/><path class="a" d="M267.7,67.48a3.33,3.33,0,0,0,1.3-.8l2.5-2.7.3-.3a.91.91,0,0,0,.3-.5c0-.5-.3-.7-.8-.7a6.73,6.73,0,0,0-1.8.1c-.2,0-.3.2-.5.5l-.4,1c-.1.2-.3.7-.7,1.6l-.4.9a2.54,2.54,0,0,0-.2.7A.7.7,0,0,0,267.7,67.48Z"/><path class="a" d="M152,126.68h-.1c-.2,0-.5-.2-.8-.6l-.1-.2-.9-1.3a1.41,1.41,0,0,0,.8-1.2c0-.8-.5-1.2-1.6-1.2h-1.5c-.1,0-.2,0-.2.1s.1.1.2.1h.2c.2,0,.3.2.3.5v2.7c0,.4,0,.6-.1.7s-.2.2-.3.2a.1.1,0,0,0-.1.1c0,.1,0,.1.1.1h1.6c.1,0,.2,0,.2-.1s-.1-.1-.2-.1a.76.76,0,0,1-.5-.2.75.75,0,0,1-.1-.5v-1.3h.5c.1,0,.2,0,.2.1v.1l.8,1.3a1.27,1.27,0,0,0,1.1.7c.3,0,.5-.1.5-.2C152.1,126.68,152,126.68,152,126.68Zm-2.6-2.3h-.6v-1.6c0-.2.1-.2.3-.2a1.14,1.14,0,0,1,.8.3.91.91,0,0,1,.3.7C150.3,124.07,150,124.38,149.4,124.38Z"/><path class="a" d="M149.6,120.48a4.1,4.1,0,0,0-3.1,1.4,4.21,4.21,0,0,0-1,2.6,3.7,3.7,0,0,0,1,2.6,3.66,3.66,0,0,0,3.1,1.4,4,4,0,0,0,2.9-1.2,3.85,3.85,0,0,0,1.2-2.9,4,4,0,0,0-1.2-2.9A4.84,4.84,0,0,0,149.6,120.48Zm2.5,6.6a3.41,3.41,0,0,1-2.5,1.1,3.07,3.07,0,0,1-2.5-1.1,3.58,3.58,0,0,1-1.1-2.5,3.07,3.07,0,0,1,1.1-2.5,3.54,3.54,0,1,1,5,5Z"/><path class="a" d="M481.5,106.38a4.1,4.1,0,0,0-3.1,1.4,4.21,4.21,0,0,0-1,2.6,3.7,3.7,0,0,0,1,2.6,3.66,3.66,0,0,0,3.1,1.4,4,4,0,0,0,2.9-1.2,3.85,3.85,0,0,0,1.2-2.9,4,4,0,0,0-1.2-2.9A4.84,4.84,0,0,0,481.5,106.38ZM484,113a3.58,3.58,0,0,1-2.5,1.1A3.07,3.07,0,0,1,479,113a3.58,3.58,0,0,1-1.1-2.5A3.6,3.6,0,1,1,484,113Z"/><path class="a" d="M483.9,112.57h-.1c-.2,0-.5-.2-.8-.6l-.1-.2-.9-1.3a1.41,1.41,0,0,0,.8-1.2c0-.8-.5-1.2-1.6-1.2h-1.5c-.1,0-.2,0-.2.1s.1.1.2.1h.2c.2,0,.3.2.3.5v2.7c0,.4,0,.6-.1.7s-.2.2-.3.2a.1.1,0,0,0-.1.1c0,.1,0,.1.1.1h1.6c.1,0,.2,0,.2-.1s-.1-.1-.2-.1a.76.76,0,0,1-.5-.2.75.75,0,0,1-.1-.5v-1.3h.5c.1,0,.2,0,.2.1v.1l.8,1.3a1.27,1.27,0,0,0,1.1.7c.3,0,.5-.1.5-.2C484,112.57,484,112.57,483.9,112.57Zm-2.6-2.3h-.6v-1.6c0-.2.1-.2.3-.2a1.14,1.14,0,0,1,.8.3.91.91,0,0,1,.3.7C482.2,110,481.9,110.27,481.3,110.27Z"/></svg>