<svg xmlns="http://www.w3.org/2000/svg" viewBox="0 0 309.02 79.75"><title>Asset 1</title><path d="M36.59,69.71v-3.5h5v-.33c0-3.5-1.61-6.07-12.74-4.14L10.52,65,0,79.6l25.26-4.48c7.57-1.3,14.21-1.57,16.3,4.45V69.71Z" style="fill:#fff"/><path d="M45,79.57c0-4.76,2.81-8,8.56-13.78l4-4L76.11,65,86.65,79.59,62.4,75.4C54.17,73.82,47.2,73.27,45,79.57Z" style="fill:#fff"/><path d="M46,66.21c1.83-3.93,5.73-7.49,8-9.73l1.6-1.62c6.79-6.79,8.1-9.6,8.51-14.28,0-.24.37.92.47,1.74a15.11,15.11,0,0,1-.79,7.52c-1.4,4.13-4.72,7.41-9,11.72L50.1,66.21Z" style="fill:#fff"/><path d="M50,9.25s.11-.06.11,0v5.42c0,4.9-6.3,10.55-8.8,13L32.06,37c-3.19,3.19-9.57,9.49-6.89,15.56.09.2.17.38-.17.13-.68-.48-1.72-2.19-2-5.29-.49-5.54,3.29-10.5,7.94-15.16l8.8-8.81C48.67,14.47,49.54,12.9,50,9.25Z" style="fill:#fff"/><path d="M41.28,37c2.51-2.49,8.8-8.14,8.8-13V18.52c0-.06-.11,0-.11,0-.43,3.65-1.3,5.22-10.23,14.15l-8.17,8.19c-3,3-5.69,6.08-5.57,11.11.08,3.08,1.63,5.63,4,6.23,1,.21.9.08.67,0-3.29-1.55-3.05-7.5,2.27-12.82Z" style="fill:#fff"/><path d="M31,28.79c-6.79,6.79-8.1,9.6-8.51,14.28,0,.24-.37-.92-.47-1.74a15.12,15.12,0,0,1,.79-7.52c1.4-4.12,4.72-7.41,9-11.72l7.9-7.91C48.67,5.26,49.54,3.69,50,0c0,0,.11-.06.11,0V5.45c0,4.9-6.3,10.55-8.8,13Z" style="fill:#fff"/><path d="M45.12,75.09s-.12,0-.12,0V69.71h2.25A11.64,11.64,0,0,0,45.12,75.09Z" style="fill:#fff"/><path d="M45.14,66.21s-.12,0-.12,0V60.73c0-4.12,4-8.57,8-12.54l2.6-2.59c2.09-2.09,8.49-8.4,5.81-14.48-.09-.2-.17-.38.17-.13.68.48,1.72,2.18,2,5.29.49,5.54-3.29,10.5-7.94,15.16l-2.4,2.41C47.5,59.63,45.57,62.22,45.14,66.21Z" style="fill:#fff"/><path d="M45.13,56.71s-.12,0-.12,0V51.14c0-3.93,3.89-8.16,5.78-10.05l2.93-2.92C59,32.85,59.29,26.9,56,25.35c-.23-.1-.29-.22.67,0,2.33.6,3.88,3.15,4,6.23.13,5-2.55,8.12-5.52,11.09L52.73,45C47.76,50,45.58,52.9,45.13,56.71Z" style="fill:#fff"/><path d="M137.56,74.59c-.11-.56,0-.87.31-.87s.39.34.53.92a6,6,0,0,0,5.88,4.2c2.66,0,5.27-1.48,5.27-4.43,0-5.41-11.37-2.38-11.37-9.69,0-3.56,3-5.27,6.22-5.27a9.91,9.91,0,0,1,4.71,1c.25,0,.31-.31.59-.31s.31.08.34.39l.42,3.81c0,.22,0,.42-.31.42s-.5-.59-.59-.84a5.35,5.35,0,0,0-5.35-3.64c-2.21,0-4.57,1.06-4.57,3.64,0,5.27,11.37,2.19,11.37,9.92,0,2.35-1.65,5.88-8,5.88-2.07,0-4.62-1-4.73-1.54Z" style="fill:#fff"/><path d="M155.59,70.56c0,.73,0,.73.82.73h2.32c2.24,0,1.66-1.72,2.17-1.72.17,0,.24.24.24.41,0,.75,0,1.48,0,2.17s0,1.12,0,1.7c0,.19-.09.28-.24.28-.67,0,.07-1.89-1.74-1.89H156c-.45,0-.39.36-.39.69v4c0,1.27-.17,1.78,1.63,1.78,5,0,5.7-2.21,6-2.21s.17.21.17.26a3.4,3.4,0,0,1-1.07,2.08c-.69.77-1.16.73-2.11.73-1.63,0-3.27-.13-4.9-.09-.86,0-1.76.09-2.62.09-.19,0-.32,0-.32-.21s.26-.21.95-.56.6-.86.6-1.87v-9.8c0-1,0-2-1.16-2.17-.17,0-.64-.09-.64-.34s.13-.26.75-.26c4.06,0,5.18.09,6.08.09.43,0,2.41-.09,3.07-.09.17,0,.21.22.21.47,0,2.39-.3,2.56-.43,2.56-.52,0-.17-1-.52-1.53-.56-.73-2.79-.6-3.65-.6-2.06,0-2-.09-2,1.35Z" style="fill:#fff"/><path d="M168.88,66.48c0-.15.09-1-.21-1h-3.5c-1.33,0-1.38.32-1.76,1.5-.06.21-.09.49-.37.49-.13,0-.21-.15-.21-.26l.24-2.08c0-.26,0-.84.39-.84,1.68,0,3.33.09,6.1.09,3.89,0,5.87-.09,6.3-.09s.6.13.62.62l.11,1.72c0,.21,0,.47-.24.47-.79,0,.37-1.63-1.83-1.63h-3.07c-1,0-.86-.09-.86,1.05v11c0,1.81,1.74,1.1,1.74,1.76,0,.06,0,.26-.19.26-.52,0-1.12-.09-1.74-.09a28.88,28.88,0,0,0-2.94.09c-.19,0-.26-.06-.26-.28,0-.52,1.7-.3,1.7-1.59Z" style="fill:#fff"/><path d="M178.82,66.16c0-1.57-1.74-1.14-1.74-1.61,0-.19,0-.24.22-.24.79,0,1.57.09,2.36.09s1.33-.09,2-.09c.34,0,.41,0,.41.22,0,.52-1.55,0-1.55,1.63V77.7c0,1.46,1.91,1,1.91,1.61,0,.15-.06.21-.43.21s-1.42-.09-2.34-.09c-1.31,0-1.76.09-2.06.09s-.45-.11-.45-.32c0-.62,1.68.09,1.68-2Z" style="fill:#fff"/><path d="M200.93,77.55c.11,1.81,1.7,1,1.7,1.76,0,.21-.28.21-.52.21-.41,0-1.16-.09-2-.09-.67,0-1.35.09-1.89.09-.19,0-.24-.11-.24-.19,0-.64,1.35-.17,1.33-1.76l-.21-8.34c0-.54-.11-.84-.24-.84s-.34.19-.56.65l-4.45,9.07c-.11.19-.45,1.08-.67,1.08s-.37-.47-.43-.62L188.16,69c-.06-.17-.17-.24-.26-.24s-.13.11-.15.32l-.26,7.54c-.11,2.86,1.93,1.91,1.93,2.69,0,.21-.24.24-.54.24s-1.25-.09-1.89-.09c-1.12,0-1.48.09-1.87.09-.15,0-.21-.11-.21-.26,0-.73,1.38.15,1.53-2.08.26-3.5.52-5.78.52-8.06,0-5.05-2-3.85-2-4.58,0-.19.17-.24.37-.24.39,0,.77.09,1.18.09s.77-.09,1.16-.09.34.37.45.6l5.12,10.92c.24.45.32.65.47.65s.32-.45.67-1.16L199.45,65c.13-.24.3-.75.56-.73s.9.09,1,.09c.49,0,.69-.09,1-.09a.24.24,0,0,1,.21.26c0,.69-1.72-.24-1.63,2.32Z" style="fill:#fff"/><path d="M203.51,71.83a7.64,7.64,0,0,1,7.89-7.72,7.47,7.47,0,0,1,7.76,7.61c0,4.84-3.33,8-8.12,8S203.51,76.37,203.51,71.83Zm1.57-.62c0,4,2.6,7.82,6.86,7.82,3.14,0,5.65-2.52,5.65-6.49s-2.64-7.72-6.83-7.72C207.14,64.82,205.08,67.81,205.08,71.21Z" style="fill:#fff"/><path d="M225.79,62.76c0-2.85-2.29-2-2.29-2.71,0-.2.22-.28.39-.28.87,0,1.68.11,2.51.11,1.84,0,3.66-.11,6.06-.11,4.95,0,9.81,3.74,9.81,8.91,0,6.43-3,10.87-10.79,10.87-1.43,0-2.85-.11-4.28-.11l-3.13.11c-.22,0-.28-.11-.28-.28,0-.64,2,.06,2-2.6ZM228,75.5c0,.45-.08,1.79.17,2,.92.92,3,1.26,4.3,1.26,4,0,7.74-2.12,7.74-8.58,0-6.2-4.14-9.72-9.45-9.75-2.66,0-2.77.45-2.77,1.76Z" style="fill:#fff"/><path d="M245.36,66.16c0-1.57-1.74-1.14-1.74-1.61,0-.19,0-.24.21-.24.8,0,1.57.09,2.37.09s1.33-.09,2-.09c.34,0,.41,0,.41.22,0,.52-1.55,0-1.55,1.63V77.7c0,1.46,1.91,1,1.91,1.61,0,.15-.07.21-.43.21s-1.42-.09-2.34-.09c-1.31,0-1.76.09-2.06.09s-.45-.11-.45-.32c0-.62,1.68.09,1.68-2Z" style="fill:#fff"/><path d="M259.45,74.39c-.21-.49-.34-.82-.95-.82h-4.73c-.41,0-.79,0-1,.45l-1.38,3a2.21,2.21,0,0,0-.15.75c0,1.5,1.53.86,1.53,1.42,0,.39-.3.32-.58.32-.6,0-1.2-.09-1.8-.09s-1.16.09-1.72.09c-.13,0-.19-.11-.19-.24,0-.45,1-.09,1.57-1.31l5.14-11c1.27-2.71,1.33-3.05,1.61-3.05s.39.62.45.8l4.47,11.07a13.63,13.63,0,0,0,1.08,2.45c.64,1,1.89.52,1.89,1.05,0,.19-.15.19-.3.19-.88,0-1.76-.09-2.64-.09-.58,0-1.16.09-1.74.09-.13,0-.47,0-.47-.21,0-.52,1.29-.3,1.29-1.12a9,9,0,0,0-.67-2Zm-5.8-2.15c-.15.3,0,.39.28.39h4.25c.47,0,.45-.15.34-.43L256.42,67c-.11-.26-.22-.26-.34,0Z" style="fill:#fff"/><path d="M265.68,39.77c.8,0,1.55.09,2.34.09s1.36-.09,2-.09c.33,0,.42,0,.42.19,0,.52-1.55,0-1.55,1.64V53.13c0,1.5,1.88,1,1.88,1.64,0,.14,0,.19-.42.19s-1.41,0-2.34,0c-1.31,0-1.74,0-2.06,0s-.42-.09-.42-.33c0-.61,1.64.09,1.64-2v-11c0-1.55-1.74-1.13-1.74-1.59C265.45,39.81,265.49,39.77,265.68,39.77Z" style="fill:#fff"/><path d="M231.63,46.75c2.25,0,1.69-1.74,2.2-1.74.14,0,.23.23.23.42,0,.75,0,1.45,0,2.16s0,1.13,0,1.69c0,.19-.09.28-.23.28-.66,0,0-1.88-1.74-1.88h-3.19c-.47,0-.37.37-.37.7v3.94c0,1.27-.19,1.78,1.59,1.78,5,0,5.72-2.2,6-2.2s.14.19.14.23a3.61,3.61,0,0,1-1,2.11c-.7.75-1.17.7-2.11.7-1.64,0-3.28-.09-4.92,0-.84,0-1.74,0-2.63,0-.19,0-.33,0-.33-.19s.28-.23.94-.56.61-.84.61-1.88v-9.8c0-1,0-2-1.13-2.16-.19,0-.66-.09-.66-.38s.14-.23.75-.23c4,0,5.16.09,6.1.09.42,0,2.39-.09,3-.09.19,0,.24.19.24.47,0,2.39-.33,2.53-.42,2.53-.51,0-.19-1-.51-1.5-.56-.75-2.81-.61-3.66-.61-2.06,0-2-.09-2,1.36v4c0,.75,0,.75.8.75Z" style="fill:#fff"/><path d="M236.37,39.77c.38,0,.7.09,1,.09s.66-.09,1-.09.42.33.56.47l10.27,11.44c.09.14.19.23.23.23s.09-.09.09-.23v-9c0-2.81-2.39-2-2.39-2.72,0-.14.09-.19.23-.19.61,0,1.27.09,1.92.09s1.69-.09,2.2-.09a.17.17,0,0,1,.19.19c0,.56-1.27.19-1.27,1.74V54.12c0,.66,0,.94-.19.94s-.38-.09-.8-.61L240.21,44s-.33-.37-.47-.37-.14,0-.14.47v8.82c0,1.92,1.88,1.17,1.88,1.74,0,.14,0,.28-.23.28-.52,0-1.13,0-2.16,0-.75,0-1.88,0-2,0s-.28-.09-.28-.23c0-.75,1.88.19,1.88-2.81V44c0-4.46-2.58-3.24-2.58-4C236.09,39.86,236.28,39.77,236.37,39.77Z" style="fill:#fff"/><path d="M254,40.94c-1.36,0-1.41.33-1.78,1.5-.09.23-.09.52-.37.52s-.19-.19-.19-.28l.23-2.06c0-.28,0-.84.38-.84,1.69,0,3.33.09,6.1.09,3.89,0,5.86-.09,6.28-.09s.61.14.66.61l.09,1.73c0,.19,0,.47-.23.47-.8,0,.38-1.64-1.83-1.64h-3.1c-.8,0-.84,0-.84,1v11c0,1.83,1.74,1.13,1.74,1.78,0,0,0,.23-.19.23-.52,0-1.13,0-1.74,0-2.39,0-2.81,0-3,0s-.23,0-.23-.28c0-.52,1.69-.28,1.69-1.6V41.92c0-.14,0-1-.28-1Z" style="fill:#fff"/><path d="M218.55,54.07c-.23.56-.37,1.27-.7,1.27s-.61-.94-.8-1.36l-5.3-12.57c-.52-1.27-1.69-.89-1.69-1.36,0-.19.14-.28.33-.28.66,0,1.31.09,2,.09s1.41-.09,1.69-.09.28.09.28.19c0,.33-.84.33-.84,1.13a2.47,2.47,0,0,0,.19.84l3.75,8.82c.52,1.17.61,1.64.84,1.64s.28-.33.42-.61l3.7-9.19a3,3,0,0,0,.33-1.45c0-1-1.41-.61-1.41-1.08,0-.23.14-.28.33-.28.47,0,.94.09,1.45.09,1,0,1.31-.09,1.64-.09s.38.09.38.28c0,.47-.61-.09-1.22,1.36Z" style="fill:#fff"/><path d="M199.74,54.91c-.14,0-1.31,0-2,0-1.17,0-1.88,0-2.81,0s-1.55.09-2.34.09c-.14,0-.61,0-.61-.28,0-.7,1.69-.42,1.69-1.5a11.6,11.6,0,0,0-.84-2.67l-.94-2.34c-.28-.66-.42-1.08-1.22-1.08h-6.28c-.56,0-1.08,0-1.36.61l-1.78,4a2.53,2.53,0,0,0-.23,1c0,2,2,1.13,2,1.88,0,.52-.37.42-.75.42-.8,0-1.59-.09-2.39-.09s-1.55.09-2.3.09c-.14,0-.23-.14-.23-.33,0-.56,1.31-.09,2.06-1.74l6.8-14.49c1.69-3.61,1.78-4.08,2.16-4.08s.52.84.61,1.08l5.91,14.68a19.27,19.27,0,0,0,1.41,3.24,1.69,1.69,0,0,0,1.45.89c.47,0,.84-.56.84-1.5V42.06c0-2.2-1.73-1.5-1.73-2.11,0-.14.14-.19.28-.19.66,0,1.31.09,1.92.09,1.45,0,2.81-.09,4.69-.09,3.8,0,7.55,2.86,7.55,6.85,0,4.92-2.34,8.35-8.3,8.35C201.9,55,200.82,54.91,199.74,54.91Zm.56-13.27V51.87c0,.33,0,1.36.14,1.55a5.47,5.47,0,0,0,3.33,1c3,0,6-1.64,6-6.61,0-4.78-3.19-7.46-7.27-7.5C200.4,40.28,200.3,40.66,200.3,41.64Zm-12.85-3.19-3.24,6.89c-.19.42,0,.52.38.52h5.63c.66,0,.61-.19.47-.56l-2.77-6.85C187.78,38.08,187.64,38.08,187.46,38.45Z" style="fill:#fff"/><path d="M295.6,40.38l.09,1.73c0,.19,0,.47-.23.47-.8,0,.38-1.64-1.83-1.64h-3.1c-.84,0-.84,0-.84,1v11c0,1.83,1.74,1.13,1.74,1.78,0,0,0,.23-.19.23-.52,0-1.13,0-1.74,0-2.39,0-2.81,0-3,0s-.24,0-.24-.28c0-.52,1.69-.28,1.69-1.6V41.92c0-.14,0-1-.28-1h-4.46c-1.31,0-1.27.47-1.27,1.22,0,.23.19,1.17-.23,1.17-.23,0-.37-.47-.47-.66-.66-1.83-2.16-2.49-4-2.49s-3.52.84-3.52,2.81c0,4,8.72,1.69,8.72,7.6,0,1.83-1.27,4.55-6.14,4.55-1.59,0-3.56-.8-3.66-1.22l-.52-2.77c-.09-.42,0-.66.23-.66s.28.28.42.7a4.57,4.57,0,0,0,4.5,3.24c2.06,0,4-1.13,4-3.42,0-4.13-8.72-1.83-8.72-7.41,0-2.72,2.3-4,4.78-4a8,8,0,0,1,3.61.75c.33,0,.38-.56.8-.56,1.69,0,4.08.09,6.85.09,3.89,0,5.86-.09,6.28-.09S295.55,39.91,295.6,40.38Z" style="fill:#fff"/><path d="M303.81,49.83c-.21-.49-.34-.81-.94-.81h-4.71c-.41,0-.79,0-1,.45l-1.37,3a2.22,2.22,0,0,0-.15.75c0,1.5,1.52.86,1.52,1.41,0,.39-.3.32-.58.32-.6,0-1.2-.09-1.8-.09s-1.16.09-1.71.09c-.13,0-.19-.11-.19-.24,0-.45,1-.09,1.56-1.31l5.12-10.93c1.26-2.7,1.33-3,1.61-3s.39.62.45.79l4.46,11a13.68,13.68,0,0,0,1.07,2.44c.64,1,1.88.51,1.88,1,0,.19-.15.19-.3.19-.88,0-1.76-.09-2.64-.09-.58,0-1.16.09-1.74.09-.13,0-.47,0-.47-.21,0-.51,1.29-.3,1.29-1.11a8.93,8.93,0,0,0-.67-2ZM298,47.69c-.15.3,0,.39.28.39h4.24c.47,0,.45-.15.34-.43l-2.1-5.16c-.11-.26-.21-.26-.34,0Z" style="fill:#fff"/><path d="M100.93,66.59c0-2.2-1.77-1.51-1.77-2.09,0-.15.17-.21.3-.21.67,0,1.29.09,1.94.09,1.42,0,2.82-.09,4.67-.09,3.81,0,7.56,2.88,7.56,6.87,0,5-2.35,8.37-8.31,8.37-1.1,0-2.2-.09-3.29-.09l-2.41.09c-.17,0-.21-.09-.21-.21,0-.5,1.53,0,1.53-2Zm1.7,9.82c0,.34-.06,1.38.13,1.57a5.41,5.41,0,0,0,3.31,1c3.06,0,6-1.64,6-6.61,0-4.78-3.19-7.49-7.28-7.51-2,0-2.13.34-2.13,1.36Z" style="fill:#fff"/><path d="M115.43,71.82a7.65,7.65,0,0,1,7.9-7.73,7.48,7.48,0,0,1,7.77,7.62c0,4.84-3.34,8-8.14,8S115.43,76.36,115.43,71.82Zm1.57-.62c0,4,2.61,7.84,6.87,7.84,3.14,0,5.66-2.52,5.66-6.5s-2.65-7.73-6.84-7.73C119.06,64.8,117,67.79,117,71.19Z" style="fill:#fff"/><path d="M101.46,37.62c0-2-2.26-1.48-2.26-2.09,0-.25.06-.31.28-.31,1,0,2,.11,3.07.11.86,0,1.73-.11,2.59-.11.45,0,.53.06.53.28,0,.67-2,0-2,2.12v15c0,1.9,2.48,1.25,2.48,2.09,0,.2-.08.28-.56.28-.64,0-1.84-.11-3-.11-1.7,0-2.29.11-2.68.11s-.59-.14-.59-.42c0-.81,2.18.11,2.18-2.65Z" style="fill:#fff"/><path d="M122,47c.17,0,.58-.09.58.19,0,.45-1.09,0-1.09,1.39v4.38c-2.21.71-2.79,2.17-6.61,2.17-4.74,0-7.68-2.94-7.68-7.7a7.67,7.67,0,0,1,8-7.83c3.71,0,4.78,1.46,5.38,1.46.24,0,.32-.39.56-.39s.21.32.24.49l.21,2.81c0,.17,0,.39-.24.39-.56,0-1.52-4.14-6.59-4.14-3.86,0-5.79,3.26-5.79,6.8,0,3.8,2.19,7.42,6.33,7.42,2,0,4.46-1,4.46-2.79V48.29c0-1-1.87-.56-1.87-1.09,0-.28.3-.24.49-.24Z" style="fill:#fff"/><path d="M135.45,52.61C137,55,138,54.17,138,54.69c0,.26-1.2.26-1.39.26-1.57,0-2.4-1.09-3.22-2.32l-2.38-3.75c-.77-1.2-.45-1.14-2.85-1.14-.69,0-.56.39-.56.6v4.53c0,1.84,2.23,1.18,2.23,1.91,0,.21-.19.17-.37.17s-.69-.09-2.47-.09c-.81,0-1.63.09-2.45.09a.22.22,0,0,1-.21-.24c0-.54,1.57-.24,1.57-1.87V41.92c0-2.06-1.84-1.18-1.84-1.91,0-.13.17-.26.43-.26a12.21,12.21,0,0,0,1.37.09c1.25,0,2.47-.09,3.58-.09.34,0,5.08-.43,5.08,3.71a4.15,4.15,0,0,1-2.7,3.71Zm-7.81-5.9c0,.41,1.33.3,2.34.3a2.8,2.8,0,0,0,3-3c0-2.62-2-3.5-4.1-3.5-.77,0-1.22,0-1.22.79Z" style="fill:#fff"/><path d="M141.63,46c0,.73,0,.73.82.73h2.32c2.23,0,1.65-1.72,2.17-1.72.17,0,.24.24.24.41,0,.75,0,1.48,0,2.17s0,1.12,0,1.69c0,.19-.08.28-.24.28-.67,0,.06-1.89-1.74-1.89H142c-.45,0-.39.36-.39.69v3.95c0,1.27-.17,1.78,1.63,1.78,5,0,5.69-2.21,6-2.21s.17.21.17.26a3.39,3.39,0,0,1-1.07,2.08c-.69.77-1.16.73-2.1.73-1.63,0-3.26-.13-4.89-.09-.86,0-1.76.09-2.62.09-.19,0-.32,0-.32-.21s.26-.21.94-.56.6-.86.6-1.87V42.52c0-1,0-2-1.16-2.17-.17,0-.64-.09-.64-.34s.13-.26.75-.26c4.05,0,5.17.09,6.07.09.43,0,2.4-.09,3.07-.09.17,0,.21.21.21.47,0,2.38-.3,2.55-.43,2.55-.51,0-.17-1-.51-1.52-.56-.73-2.79-.6-3.65-.6-2.06,0-2-.09-2,1.35Z" style="fill:#fff"/><path d="M153.11,42.07c0-2.15-2.08-1.5-2.08-2.08,0-.17.11-.24.32-.24.9,0,1.35.09,2.32.09s1.5-.09,2-.09c.21,0,.41.06.41.3,0,.47-1.27-.13-1.27,1.54V53c0,3.35-1.84,6-4.16,6-.67,0-.84-.15-.84-.77,0-.3.17-1.2.47-1.2s.73.86,1.33.86c.9,0,1.5-1.22,1.5-3.11Z" style="fill:#fff"/><path d="M167.27,49.82c-.21-.49-.34-.82-.94-.82H161.6c-.41,0-.79,0-1,.45l-1.37,3a2.17,2.17,0,0,0-.15.75c0,1.5,1.52.86,1.52,1.42,0,.39-.3.32-.58.32-.6,0-1.2-.09-1.8-.09s-1.16.09-1.72.09c-.13,0-.19-.11-.19-.24,0-.45,1-.09,1.57-1.31L163,42.46c1.27-2.7,1.33-3,1.61-3s.39.62.45.79l4.46,11a13.65,13.65,0,0,0,1.07,2.45c.64,1,1.89.51,1.89,1.05,0,.19-.15.19-.3.19-.88,0-1.76-.09-2.64-.09-.58,0-1.16.09-1.74.09-.13,0-.47,0-.47-.21,0-.51,1.29-.3,1.29-1.12a9,9,0,0,0-.67-2Zm-5.79-2.15c-.15.3,0,.39.28.39H166c.47,0,.45-.15.34-.43l-2.1-5.17c-.11-.26-.21-.26-.34,0Z" style="fill:#fff"/><path d="M156.17,64l3.13-3.11a1.23,1.23,0,0,1,.87-.49.76.76,0,0,1,.68.79c0,.51-.81.85-1.17,1.09L156.92,64Z" style="fill:#fff"/><path d="M88.37,69.28a2.47,2.47,0,0,1,0,4.94,2.34,2.34,0,0,1-1.88-.87,2.47,2.47,0,0,1,0-3.2A2.37,2.37,0,0,1,88.37,69.28Zm0,.27a2.19,2.19,0,1,0,1.55.64A2.11,2.11,0,0,0,88.37,69.55Zm.31,2.19.55.8.07.1c.17.25.33.38.46.39h.07s.06,0,.06.06-.11.1-.32.1a.81.81,0,0,1-.66-.44L88.39,72l0,0a.15.15,0,0,0-.14-.07h-.31v.76a.51.51,0,0,0,.06.31.46.46,0,0,0,.29.1c.07,0,.1,0,.1.07s0,.07-.1.07h-1c-.06,0-.09,0-.09-.07s0-.06.08-.07a.27.27,0,0,0,.2-.14,1.35,1.35,0,0,0,0-.44V70.79c0-.2-.07-.3-.21-.32h-.1c-.06,0-.09,0-.09-.08s0-.07.1-.07h.95q1,0,1,.73A.8.8,0,0,1,88.68,71.74ZM88,71.65h.23a.47.47,0,0,0,.54-.53.57.57,0,0,0-.21-.45.73.73,0,0,0-.5-.18c-.12,0-.19,0-.19.15v.89a.18.18,0,0,0,0,.1A.16.16,0,0,0,88,71.65Z" style="fill:#fff"/><path d="M262.33,60.55a2.47,2.47,0,0,1,0,4.94,2.34,2.34,0,0,1-1.88-.87,2.47,2.47,0,0,1,0-3.2A2.37,2.37,0,0,1,262.33,60.55Zm0,.27a2.19,2.19,0,1,0,1.55.64A2.11,2.11,0,0,0,262.33,60.82Zm.31,2.19.55.8.07.1c.17.25.33.38.46.39h.07s.06,0,.06.06-.11.1-.32.1a.81.81,0,0,1-.66-.44l-.52-.78,0,0a.15.15,0,0,0-.14-.07h-.31v.76a.52.52,0,0,0,.06.31.46.46,0,0,0,.29.1c.07,0,.1,0,.1.07s0,.07-.1.07h-1c-.06,0-.09,0-.09-.07s0-.06.08-.07a.27.27,0,0,0,.2-.14,1.35,1.35,0,0,0,0-.44V62.06c0-.2-.07-.3-.21-.33h-.1c-.06,0-.09,0-.09-.08s0-.07.1-.07h.95q1,0,1,.73A.79.79,0,0,1,262.64,63Zm-.65-.09h.23a.47.47,0,0,0,.54-.53.57.57,0,0,0-.21-.45.73.73,0,0,0-.5-.18c-.12,0-.19,0-.19.15v.89a.19.19,0,0,0,0,.1Z" style="fill:#fff"/></svg>