<svg xmlns="http://www.w3.org/2000/svg" viewBox="0 0 324.2 79.84"><title>BW_A</title><path d="M36.5,69.54V66h5v-0.3c0-3.5-1.6-6.1-12.7-4.1l-18.3,3.3L0,79.54,25.3,75c7.6-1.3,14.2-1.6,16.3,4.4v-9.9H36.5Z" fill="#fff"/><path d="M44.9,79.44c0-4.8,2.8-8,8.6-13.8l4-4L76,64.94l10.5,14.6-24.3-4.2C54.1,73.64,47.1,73.14,44.9,79.44Z" fill="#fff"/><path d="M46,66c1.8-3.9,5.7-7.5,8-9.7l1.6-1.6c6.8-6.8,8.1-9.6,8.5-14.3a4.69,4.69,0,0,1,.5,1.7,14.79,14.79,0,0,1-.8,7.5c-1.4,4.1-4.7,7.4-9,11.7L50.1,66H46Z" fill="#fff"/><path d="M49.9,9.14s0.1-.1.1,0v5.4c0,4.9-6.3,10.6-8.8,13L32,36.74c-3.2,3.2-9.6,9.5-6.9,15.6,0.1,0.2.2,0.4-.2,0.1-0.7-.5-1.7-2.2-2-5.3-0.5-5.5,3.3-10.5,7.9-15.2l8.8-8.8C48.6,14.34,49.5,12.74,49.9,9.14Z" fill="#fff"/><path d="M41.2,36.84c2.5-2.5,8.8-8.1,8.8-13v-5.4c0-.1-0.1,0-0.1,0-0.4,3.7-1.3,5.2-10.2,14.1l-8.2,8.2c-3,3-5.7,6.1-5.6,11.1,0.1,3.1,1.6,5.6,4,6.2,1,0.2.9,0.1,0.7,0-3.3-1.6-3.1-7.5,2.3-12.8Z" fill="#fff"/><path d="M31,28.64c-6.8,6.8-8.1,9.6-8.5,14.3a4.69,4.69,0,0,1-.5-1.7,14.79,14.79,0,0,1,.8-7.5c1.4-4.1,4.7-7.4,9-11.7l7.9-7.9C48.6,5.24,49.5,3.64,49.9,0c0,0,.1-0.1.1,0v5.4c0,4.9-6.3,10.6-8.8,13Z" fill="#fff"/><path d="M45.1,74.94H45v-5.4h2.3A10.37,10.37,0,0,0,45.1,74.94Z" fill="#fff"/><path d="M45.1,66H45v-5.5c0-4.1,4-8.6,8-12.5l2.6-2.6c2.1-2.1,8.5-8.4,5.8-14.5-0.1-.2-0.2-0.4.2-0.1,0.7,0.5,1.7,2.2,2,5.3,0.5,5.5-3.3,10.5-7.9,15.2l-2.4,2.4C47.4,59.44,45.5,62,45.1,66Z" fill="#fff"/><path d="M45.1,56.54H45v-5.6c0-3.9,3.9-8.2,5.8-10.1l2.9-2.9c5.3-5.3,5.6-11.3,2.3-12.8-0.2-.1-0.3-0.2.7,0,2.3,0.6,3.9,3.2,4,6.2,0.1,5-2.6,8.1-5.5,11.1l-2.4,2.4C47.7,49.84,45.5,52.74,45.1,56.54Z" fill="#fff"/><path d="M246.7,65.94c0-1.6-1.9-1.1-1.9-1.6a0.24,0.24,0,0,1,.3-0.2c0.8,0,1.6.1,2.4,0.1s1.3-.1,2-0.1c0.4,0,.4.1,0.4,0.2,0,0.4-1.6,0-1.6,1.6v4.7c0,0.3,0,.4.3,0.4h7.9c0.2,0,.2-0.5.2-0.6V66c0-1.5-1.6-1.1-1.6-1.6,0-.1,0-0.2.4-0.2,0.7,0,1.8.1,2.3,0.1,0.8,0,1.1-.1,1.6-0.1s0.6,0.2.6,0.3c0,0.4-1.5,0-1.5,1.5v11.5c0,1.6,2,1.2,2,1.7a0.34,0.34,0,0,1-.2.3c-0.6,0-1.3-.1-2-0.1-1.4,0-2,.1-2.4.1-0.2,0-.5.1-0.5-0.3s1.5-.2,1.5-1.6v-5.2c0-.3.1-0.5-0.2-0.5h-8c-0.3,0-.3.1-0.3,0.4v5.4c0,1.5,2.1,1,2.1,1.7a0.34,0.34,0,0,1-.3.2c-0.3,0-1.9-.1-3-0.1a11.44,11.44,0,0,0-1.9.1c-0.2,0-.2-0.1-0.2-0.3,0-.6,1.7.1,1.7-2.1V65.94h-0.1Z" fill="#fff"/><path d="M264.8,73.64c0,3.5,2.3,5.1,5.2,5.1,4.1,0,5-2.7,5-5.2v-7c0-2.2-2-1.3-2-2.1a0.38,0.38,0,0,1,.2-0.2c0.8,0,1.7.1,2.5,0.1,0.4,0,.8-0.1,1.2-0.1a0.34,0.34,0,0,1,.3.2c0,0.6-1.3.1-1.3,2.1v6.7c0,1.1.3,6.4-6.1,6.4-5.7,0-6.8-3.2-6.8-6.5v-7.3c0-1.3-1.8-.8-1.8-1.5,0-.2.4-0.2,0.5-0.2,0.6,0,1.1.1,1.7,0.1s1.4-.1,2.1-0.1a0.84,0.84,0,0,1,.7.2c0,0.6-1.5,0-1.5,1.6v7.7h0.1Z" fill="#fff"/><path d="M290,77c1.6,2.4,2.6,1.6,2.6,2.1,0,0.3-1.2.3-1.4,0.3-1.6,0-2.4-1.1-3.3-2.3l-2.4-3.8c-0.8-1.2-.5-1.1-2.9-1.1-0.7,0-.6.4-0.6,0.6v4.6c0,1.9,2.3,1.2,2.3,1.9,0,0.2-.2.2-0.4,0.2s-0.7-.1-2.5-0.1c-0.8,0-1.6.1-2.5,0.1a0.22,0.22,0,0,1-.2-0.2c0-.5,1.6-0.2,1.6-1.9v-11c0-2.1-1.9-1.2-1.9-1.9a0.45,0.45,0,0,1,.4-0.3,11.35,11.35,0,0,0,1.4.1c1.3,0,2.5-.1,3.6-0.1,0.3,0,5.1-.4,5.1,3.8a4.36,4.36,0,0,1-2.7,3.8Zm-7.9-6c0,0.4,1.3.3,2.4,0.3a2.85,2.85,0,0,0,3-3.1c0-2.6-2-3.5-4.1-3.5-0.8,0-1.2,0-1.2.8V71h-0.1Z" fill="#fff"/><path d="M300.2,63.84c4.1,0,5.2,1.7,5.8,1.7,0.2,0,.3-0.2.5-0.2s0.2,0.3.3,1.8c0,1.1.2,1.9-.1,1.9a1.16,1.16,0,0,1-.5-0.7c-1.3-2.3-2.9-3.7-5.7-3.7-4.2,0-6.3,2.8-6.3,6.9,0,3.8,2.2,7.5,6.3,7.5a6.61,6.61,0,0,0,5.9-3.2,0.32,0.32,0,0,1,.3-0.3,0.22,0.22,0,0,1,.2.2l-0.5,2.2c0,0.1-1.6,1.7-6.4,1.7a7.27,7.27,0,0,1-7.6-7.5C292.4,67.54,295.7,63.84,300.2,63.84Z" fill="#fff"/><path d="M310.4,65.94c0-1.6-1.9-1.1-1.9-1.6a0.24,0.24,0,0,1,.3-0.2c0.8,0,1.6.1,2.4,0.1s1.3-.1,2-0.1c0.4,0,.4.1,0.4,0.2,0,0.4-1.6,0-1.6,1.6v4.7c0,0.3,0,.4.3,0.4h7.9c0.2,0,.2-0.5.2-0.6V66c0-1.5-1.6-1.1-1.6-1.6,0-.1,0-0.2.4-0.2,0.7,0,1.8.1,2.3,0.1,0.8,0,1.1-.1,1.6-0.1s0.6,0.2.6,0.3c0,0.4-1.5,0-1.5,1.5v11.5c0,1.6,2,1.2,2,1.7a0.34,0.34,0,0,1-.2.3c-0.6,0-1.3-.1-2-0.1-1.4,0-2,.1-2.4.1-0.2,0-.5.1-0.5-0.3s1.5-.2,1.5-1.6v-5.2c0-.3.1-0.5-0.2-0.5h-8c-0.3,0-.3.1-0.3,0.4v5.4c0,1.5,2.1,1,2.1,1.7a0.34,0.34,0,0,1-.3.2c-0.3,0-1.9-.1-3-0.1a11.44,11.44,0,0,0-1.9.1c-0.2,0-.2-0.1-0.2-0.3,0-.6,1.7.1,1.7-2.1V65.94h-0.1Z" fill="#fff"/><path d="M206.6,39.64c0.7,0,1.3.1,1.9,0.1,1.5,0,2.8-.1,4.7-0.1,3.9,0,7.7,2.9,7.7,6.9,0,5-2.4,8.5-8.5,8.5-1.1,0-2.2-.1-3.3-0.1l-2.4.1a0.22,0.22,0,0,1-.2-0.2c0-.5,1.5.1,1.5-2V41.94c0-2.2-1.7-1.5-1.7-2.1A0.24,0.24,0,0,1,206.6,39.64Zm6.7,14.8c3.1,0,6-1.7,6-6.7s-3.2-7.6-7.4-7.6c-2.1,0-2.1.3-2.1,1.4v10.4a3.55,3.55,0,0,0,.1,1.5A5.68,5.68,0,0,0,213.3,54.44Z" fill="#fff"/><path d="M225,48.94a0.88,0.88,0,0,0-1,.5l-1.4,3.1a1.55,1.55,0,0,0-.2.8c0,1.5,1.6.8,1.6,1.4,0,0.4-.3.3-0.6,0.3-0.6,0-1.2-.1-1.8-0.1s-1.2.1-1.7,0.1a0.22,0.22,0,0,1-.2-0.2c0-.5,1-0.1,1.6-1.4l5.2-11.1c1.2-2.7,1.3-3.1,1.7-3.1a1.51,1.51,0,0,1,.4.8l4.6,11.2a26,26,0,0,0,1,2.5c0.7,1,1.9.5,1.9,1,0,0.2-.1.2-0.3,0.2-0.9,0-1.8-.1-2.7-0.1-0.6,0-1.2.1-1.8,0.1-0.1,0-.5,0-0.5-0.2,0-.6,1.3-0.3,1.3-1.1a9.65,9.65,0,0,0-.6-2.1l-0.7-1.8a0.91,0.91,0,0,0-1-.8H225Zm4.5-.9c0.5,0,.5-0.1.3-0.4l-2.2-5.3q-0.15-.45-0.3,0l-2.4,5.3c-0.1.3,0,.3,0.3,0.3h4.3V48Z" fill="#fff"/><path d="M233.9,39.64c0.6,0,1,.1,2.4.1,0.8,0,1.3-.1,1.5-0.1s0.4,0,.4.2-1,.3-1,1a3,3,0,0,0,.3.9l2.6,4.2a0.6,0.6,0,0,0,.5.4,0.69,0.69,0,0,0,.4-0.5l2.2-3.6a2.7,2.7,0,0,0,.5-1.2c0-1.1-1.7-.6-1.7-1.2,0-.3.2-0.3,0.5-0.3,0.5,0,1,.1,1.6.1s1.2-.1,1.9-0.1a0.22,0.22,0,0,1,.2.2c0,0.3-.3.3-0.5,0.4a3.49,3.49,0,0,0-1.2,1.5l-3.1,4.8a1.87,1.87,0,0,0-.5,1v5.3c0,1.9,1.7,1.2,1.7,1.9,0,0.2-.1.2-0.5,0.2s-1.6-.1-2.4-0.1c-1,0-1.8.1-2,.1a0.26,0.26,0,0,1-.3-0.3c0-.6,1.7,0,1.7-1.6v-5.3a2.22,2.22,0,0,0-.5-1.1l-3.7-5.8c-0.6-.9-1.6-0.6-1.6-1C233.6,39.74,233.6,39.64,233.9,39.64Z" fill="#fff"/><path d="M189,64c0.8,0,1.6.1,2.4,0.1s1.4-.1,2-0.1c0.3,0,.4,0,0.4.2,0,0.5-1.6,0-1.6,1.7v11.6c0,1.5,1.9,1,1.9,1.7,0,0.1,0,.2-0.4.2h-4.5c-0.4,0-.4-0.1-0.4-0.3,0-.6,1.7.1,1.7-2V66c0-1.6-1.8-1.1-1.8-1.6C188.8,64.14,188.8,64,189,64Z" fill="#fff"/><path d="M149.1,46.64c2.3,0,1.7-1.7,2.2-1.7,0.2,0,.2.2,0.2,0.4v3.8a0.25,0.25,0,0,1-.2.3c-0.7,0,.1-1.9-1.7-1.9h-3.3c-0.5,0-.4.3-0.4,0.7v4c0,1.3-.1,1.9,1.7,1.9,5.1,0,5.8-2.3,6.1-2.3,0.1,0,.1.2,0.1,0.3a3.6,3.6,0,0,1-1.1,2.1,2.21,2.21,0,0,1-2.1.8c-1.7,0-3.3-.1-5-0.1-0.9,0-1.8.1-2.6,0.1a0.25,0.25,0,0,1-.3-0.2c0.1-.3.3-0.2,1-0.6s0.6-.9.6-1.9v-9.9c0-1,0-2-1.2-2.2a0.78,0.78,0,0,1-.7-0.3c0-.1.1-0.2,0.8-0.2,4.2,0,5.3.1,6.2,0.1,0.4,0,2.4-.1,3.1-0.1,0.2,0,.2.2,0.2,0.4,0,2.4-.3,2.6-0.4,2.6-0.6,0-.1-1-0.6-1.5-0.6-.8-2.8-0.6-3.7-0.6-2.1,0-2.1-.1-2.1,1.4v4c0,0.8,0,.8.8,0.8h2.4v-0.2Z" fill="#fff"/><path d="M153.5,39.64c0.3,0,.7.1,1,0.1s0.6-.1,1-0.1a1,1,0,0,1,.6.5l10.4,11.6a0.53,0.53,0,0,0,.3.2c0.1,0,.1-0.1.1-0.2v-9.2c0-2.8-2.4-2-2.4-2.7a0.25,0.25,0,0,1,.3-0.2c0.6,0,1.2.1,1.9,0.1s1.7-.1,2.2-0.1a0.35,0.35,0,0,1,.2.1c0,0.6-1.3.2-1.3,1.8v12.6a1.31,1.31,0,0,1-.1.9,1.11,1.11,0,0,1-.8-0.6l-9.4-10.6a2.18,2.18,0,0,0-.5-0.4c-0.1,0-.1.1-0.1,0.6v8.9c0,2,1.9,1.2,1.9,1.8a0.24,0.24,0,0,1-.2.3c-0.6,0-1.1-.1-2.2-0.1-0.8,0-1.9.1-2,.1-0.3,0-.3-0.1-0.3-0.2,0-.8,1.9.2,1.9-2.9v-8c0-4.5-2.6-3.3-2.6-4C153.2,39.64,153.4,39.64,153.5,39.64Z" fill="#fff"/><path d="M171.4,40.74c-1.4,0-1.4.3-1.8,1.5a0.62,0.62,0,0,1-.3.5,0.25,0.25,0,0,1-.2-0.3l0.2-2.1c0.1-.3,0-0.8.4-0.8,1.7,0,3.4.1,6.2,0.1,4,0,6-.1,6.4-0.1s0.6,0.1.6,0.6l0.1,1.7c0,0.2,0,.5-0.3.5-0.8,0,.4-1.7-1.8-1.7h-3.1c-1,0-.9-0.1-0.9,1v11.2c0,1.8,1.8,1.1,1.8,1.7a0.24,0.24,0,0,1-.2.3c-0.6,0-1.2-.1-1.8-0.1a28.63,28.63,0,0,0-3,.1,0.27,0.27,0,0,1-.3-0.3c0-.6,1.7-0.3,1.7-1.6V41.54c0-.1.1-1-0.2-1h-3.5v0.2Z" fill="#fff"/><path d="M182.9,39.64c0.8,0,1.6.1,2.4,0.1s1.4-.1,2-0.1c0.4,0,.4.1,0.4,0.2,0,0.4-1.5,0-1.5,1.7v4.7c0,0.3,0,.3.3,0.3h8c0.3,0,.2-0.6.2-0.6v-4.4c0-1.5-1.7-1.2-1.7-1.7,0-.1.1-0.2,0.4-0.2,0.7,0,1.8.1,2.2,0.1,0.8,0,1.2-.1,1.6-0.1,0.6,0,.6.2,0.6,0.3,0,0.3-1.5,0-1.5,1.5v11.5c0,1.6,1.9,1.2,1.9,1.7a0.34,0.34,0,0,1-.2.3c-0.6,0-1.2-.1-2.1-0.1-1.4,0-2,.1-2.4.1-0.1,0-.5.1-0.5-0.3,0-.6,1.5-0.2,1.5-1.6v-5.2c0-.3.1-0.6-0.2-0.6h-8c-0.2,0-.2.1-0.2,0.3v5.4c0,1.5,2,1,2,1.7,0,0.1-.1.1-0.3,0.1s-1.9-.1-3-0.1a10,10,0,0,0-1.9.1,0.27,0.27,0,0,1-.3-0.3c0-.6,1.7.1,1.7-2V41.24c0-1.6-1.9-1.2-1.9-1.7A1.09,1.09,0,0,0,182.9,39.64Z" fill="#fff"/><path d="M205.6,47.24c0,1,.1,1-0.8,1.3L200.4,50a9.25,9.25,0,0,1-1,.3c-0.3,0-.3-0.4-0.3-0.6,0-1.1-.1-1.1.8-1.4l4.4-1.5a5.39,5.39,0,0,1,1-.3C205.7,46.54,205.6,47,205.6,47.24Z" fill="#fff"/><path d="M154.7,71.14c2.3,0,1.7-1.8,2.2-1.8a0.39,0.39,0,0,1,.2.4v3.9a0.25,0.25,0,0,1-.2.3c-0.7,0,0-1.9-1.8-1.9h-3.2c-0.5,0-.4.4-0.4,0.7v4c0,1.3-.2,1.8,1.6,1.8,5,0,5.8-2.2,6.1-2.2,0.1,0,.1.2,0.1,0.2a3.77,3.77,0,0,1-1,2.1,2.14,2.14,0,0,1-2.1.7c-1.7,0-3.3-.1-5,0h-2.7c-0.2,0-.3,0-0.3-0.2s0.3-.2.9-0.6,0.6-.9.6-1.9v-9.9c0-1,0-2-1.1-2.2a0.67,0.67,0,0,1-.7-0.4c0-.1.1-0.2,0.8-0.2,4.1,0,5.2.1,6.2,0.1,0.4,0,2.4-.1,3.1-0.1,0.2,0,.2.2,0.2,0.5,0,2.4-.3,2.6-0.4,2.6-0.5,0-.2-1-0.5-1.5-0.6-.8-2.8-0.6-3.7-0.6-2.1,0-2-.1-2,1.4v4c0,0.8,0,.8.8,0.8h2.3Z" fill="#fff"/><path d="M159.4,64c0.4,0,.7.1,1,0.1s0.7-.1,1-0.1a1.33,1.33,0,0,1,.6.5l10.4,11.6,0.2,0.2a0.35,0.35,0,0,0,.1-0.2V67c0-2.8-2.4-2-2.4-2.7a0.22,0.22,0,0,1,.2-0.2c0.6,0,1.3.1,1.9,0.1,0.8,0,1.7-.1,2.2-0.1a0.16,0.16,0,0,1,.2.2c0,0.6-1.3.2-1.3,1.8v12.5c0,0.7,0,.9-0.2.9a1.32,1.32,0,0,1-.8-0.6l-9.3-10.5a1.08,1.08,0,0,0-.5-0.4c-0.1,0-.1,0-0.1.5v8.9c0,1.9,1.9,1.2,1.9,1.8a0.24,0.24,0,0,1-.2.3h-4.2c-0.3,0-.3-0.1-0.3-0.2,0-.8,1.9.2,1.9-2.8v-8c0-4.5-2.6-3.3-2.6-4.1A0.45,0.45,0,0,1,159.4,64Z" fill="#fff"/><path d="M177.2,65.24c-1.4,0-1.4.3-1.8,1.5-0.1.2-.1,0.5-0.4,0.5a0.34,0.34,0,0,1-.2-0.3l0.2-2.1c0-.3,0-0.9.4-0.9,1.7,0,3.4.1,6.2,0.1,3.9,0,5.9-.1,6.3-0.1a0.56,0.56,0,0,1,.7.6l0.1,1.8c0,0.2,0,.5-0.2.5-0.8,0,.4-1.7-1.8-1.7h-3.1c-0.8,0-.9,0-0.9,1v11.1c0,1.8,1.8,1.1,1.8,1.8a0.2,0.2,0,0,1-.2.2h-4.8c-0.2,0-.2,0-0.2-0.3,0-.5,1.7-0.3,1.7-1.6V66c0-.1,0-1-0.3-1h-3.5v0.2Z" fill="#fff"/><path d="M135.8,54.14a1.63,1.63,0,0,1-.7,1.2c-0.3,0-.6-0.9-0.8-1.4l-5.4-12.7c-0.6-1.3-1.7-.9-1.7-1.4a0.27,0.27,0,0,1,.3-0.3c0.6,0,1.3.1,2,.1s1.4-.1,1.7-0.1a0.34,0.34,0,0,1,.3.2c0,0.3-.9.3-0.9,1.1a1.88,1.88,0,0,0,.2.8l3.8,9c0.5,1.1.6,1.6,0.8,1.6a0.72,0.72,0,0,0,.4-0.6l3.8-9.4a5.67,5.67,0,0,0,.3-1.5c0-1-1.4-.6-1.4-1a0.27,0.27,0,0,1,.3-0.3c0.5,0,1,.1,1.4.1,1.1,0,1.4-.1,1.7-0.1a0.27,0.27,0,0,1,.3.3c0,0.5-.6-0.1-1.2,1.4Z" fill="#fff"/><path d="M125,55c-1.7,0-3.3-.1-5-0.1-0.8,0-1.8.1-2.6,0.1a0.25,0.25,0,0,1-.3-0.2c0.1-.3.3-0.2,1-0.6s0.6-.9.6-1.9v-9.9c0-1,0-2-1.2-2.2a0.78,0.78,0,0,1-.7-0.3c0-.1.1-0.2,0.8-0.2,4.2,0,5.3.1,6.2,0.1,0.5,0,2.4-.1,3.1-0.1,0.2,0,.2.2,0.2,0.4,0,2.4-.3,2.6-0.4,2.6-0.6,0-.1-1-0.6-1.5-0.5-.8-2.8-0.6-3.7-0.6-2.1,0-2-.1-2,1.4v4c0,0.8-.1.8,0.8,0.8h2.4c2.3,0,1.7-1.7,2.2-1.7a0.35,0.35,0,0,1,.3.4c0,0.8-.1,1.5-0.1,2.1s0.1,1.2.1,1.7a0.27,0.27,0,0,1-.3.3c-0.7,0,.1-1.9-1.7-1.9h-3.3c-0.4,0-.3.3-0.3,0.7v4c0,1.3-.2,1.9,1.6,1.9,5.1,0,5.8-2.3,6.1-2.3,0.1,0,.1.2,0.1,0.3a4.12,4.12,0,0,1-1,2.1A3.22,3.22,0,0,1,125,55Z" fill="#fff"/><path d="M141.4,78.54c-0.2.6-.4,1.3-0.7,1.3s-0.6-.9-0.8-1.4l-5.4-12.7c-0.5-1.3-1.7-.9-1.7-1.4a0.27,0.27,0,0,1,.3-0.3c0.7,0,1.3.1,2,.1s1.4-.1,1.7-0.1a0.34,0.34,0,0,1,.3.2c0,0.3-.9.3-0.9,1.1a2.92,2.92,0,0,0,.2.9l3.8,8.9c0.5,1.2.6,1.7,0.9,1.7s0.3-.3.4-0.6l3.7-9.3a3.34,3.34,0,0,0,.3-1.5c0-1-1.4-.6-1.4-1.1a0.27,0.27,0,0,1,.3-0.3c0.5,0,.9.1,1.5,0.1,1,0,1.3-.1,1.7-0.1a0.35,0.35,0,0,1,.4.3c0,0.5-.6-0.1-1.2,1.4Z" fill="#fff"/><path d="M103.4,53.64l-0.7-3.7q-0.15-.9.3-0.9c0.4,0,.4.3,0.6,1a6.23,6.23,0,0,0,6.1,4.4c2.8,0,5.5-1.5,5.5-4.6,0-5.6-11.8-2.5-11.8-10.1,0-3.7,3.1-5.5,6.5-5.5a11.36,11.36,0,0,1,4.9,1c0.3,0,.3-0.3.6-0.3s0.3,0.1.3,0.4l0.4,4c0.1,0.3,0,.5-0.3.5a1,1,0,0,1-.6-0.9,5.41,5.41,0,0,0-5.5-3.7c-2.3,0-4.7,1.1-4.7,3.7,0,5.5,11.8,2.3,11.8,10.3,0,2.5-1.7,6.1-8.3,6.1C106.2,55.24,103.5,54.14,103.4,53.64Z" fill="#fff"/><path d="M122.5,79.34h-4.8c-0.8,0-1.6.1-2.4,0.1-0.1,0-.6,0-0.6-0.3,0-.7,1.7-0.4,1.7-1.5a12.17,12.17,0,0,0-.9-2.7l-0.9-2.4c-0.3-.7-0.4-1.1-1.2-1.1H107a1.28,1.28,0,0,0-1.4.6l-1.8,4a2.51,2.51,0,0,0-.2,1c0,2,2,1.1,2,1.9,0,0.5-.4.4-0.8,0.4-0.8,0-1.6-.1-2.4-0.1s-1.6.1-2.3,0.1a0.25,0.25,0,0,1-.2-0.3c0-.6,1.3-0.1,2.1-1.8l6.9-14.6c1.7-3.6,1.8-4.1,2.2-4.1s0.5,0.9.6,1.1l6,14.8a29.51,29.51,0,0,0,1.4,3.3,1.67,1.67,0,0,0,1.5.9c0.5,0,.9-0.6.9-1.5V66.34c0-2.2-1.8-1.5-1.8-2.1A0.25,0.25,0,0,1,120,64c0.7,0,1.3.1,1.9,0.1,1.5,0,2.8-.1,4.7-0.1,3.8,0,7.6,2.9,7.6,6.9,0,5-2.4,8.4-8.4,8.4C124.6,79.44,123.5,79.34,122.5,79.34Zm0.5-13.4v10.3a8.08,8.08,0,0,0,.1,1.6,5.68,5.68,0,0,0,3.4,1c3.1,0,6-1.7,6-6.7,0-4.8-3.2-7.5-7.3-7.6C123.1,64.64,123,64.94,123,65.94Zm-13-3.7-3.3,7c-0.2.4,0,.5,0.4,0.5h5.7c0.7,0,.6-0.2.5-0.6l-2.8-6.9C110.4,61.84,110.2,61.84,110,62.24Z" fill="#fff"/><path d="M219.2,64.74l0.1,1.8c0,0.2,0,.5-0.2.5-0.8,0,.4-1.7-1.8-1.7h-3.1c-0.9,0-.9,0-0.9,1v11.1c0,1.8,1.8,1.1,1.8,1.8a0.2,0.2,0,0,1-.2.2h-4.8c-0.2,0-.2,0-0.2-0.3,0-.5,1.7-0.3,1.7-1.6V66.24c0-.1,0-1-0.3-1h-4.5c-1.3,0-1.3.5-1.3,1.2,0,0.2.2,1.2-.2,1.2a1.28,1.28,0,0,1-.5-0.7,4,4,0,0,0-4.1-2.5c-1.8,0-3.6.9-3.6,2.8,0,4.1,8.8,1.7,8.8,7.7,0,1.8-1.3,4.6-6.2,4.6-1.6,0-3.6-.8-3.7-1.2l-0.5-2.8c-0.1-.4,0-0.7.2-0.7s0.3,0.3.4,0.7a4.61,4.61,0,0,0,4.5,3.3c2.1,0,4.1-1.1,4.1-3.5,0-4.2-8.8-1.8-8.8-7.5,0-2.7,2.3-4.1,4.8-4.1a7.33,7.33,0,0,1,3.6.8c0.3,0,.4-0.6.8-0.6,1.7,0,4.1.1,6.9,0.1,3.9,0,5.9-.1,6.3-0.1C219.1,64,219.2,64.24,219.2,64.74Z" fill="#fff"/><path d="M235.5,58.84c5.4,0,6.9,2.2,7.7,2.2a4.88,4.88,0,0,1,.7-0.3c0.3,0,.3.5,0.4,2.3,0.1,1.5.3,2.5-.2,2.5a2.18,2.18,0,0,1-.7-0.9c-1.8-3.1-3.8-4.9-7.5-4.9-5.6,0-8.3,3.7-8.3,9.1,0,5,2.9,10,8.4,10,4.5,0,7.3-2.9,7.8-4.2a0.54,0.54,0,0,1,.4-0.4,0.45,0.45,0,0,1,.3.3l-0.7,2.9c0,0.1-2.1,2.3-8.5,2.3-5.9,0-10.1-4.1-10.1-10C225.1,63.64,229.4,58.84,235.5,58.84Z" fill="#fff"/><path d="M221.3,60.94a1.9,1.9,0,0,1,1.3.5,1.66,1.66,0,0,1,.5,1.3,1.9,1.9,0,0,1-.5,1.3,1.66,1.66,0,0,1-1.3.5,1.62,1.62,0,0,1-1.4-.7,1.92,1.92,0,0,1-.4-1.2,1.59,1.59,0,0,1,.4-1.2A2,2,0,0,1,221.3,60.94Zm0,0.2a1.85,1.85,0,0,0-1.2.5,1.66,1.66,0,0,0-.5,1.2,1.85,1.85,0,0,0,.5,1.2,1.66,1.66,0,0,0,1.2.5,1.85,1.85,0,0,0,1.2-.5,1.66,1.66,0,0,0,.5-1.2,1.85,1.85,0,0,0-.5-1.2A2.08,2.08,0,0,0,221.3,61.14Zm0.2,1.7,0.4,0.6,0.1,0.1a0.42,0.42,0,0,0,.4.3h0c0,0.1-.1.1-0.2,0.1a0.68,0.68,0,0,1-.5-0.3l-0.4-.6h0l-0.1-.1H221v0.7a0.35,0.35,0,0,0,.2.1c0.1,0,.1,0,0.1.1a0.1,0.1,0,0,1-.1.1h-0.7a0.1,0.1,0,0,1-.1-0.1l0.1-.1c0.1,0,.1-0.1.2-0.1V62a0.22,0.22,0,0,0-.2-0.2h-0.1a0.1,0.1,0,0,1,0-.2H221c0.5,0,.7.2,0.7,0.5C221.9,62.54,221.8,62.64,221.5,62.84Zm-0.5-.1h0.2a0.33,0.33,0,0,0,.4-0.4,0.53,0.53,0,0,0-.2-0.3,0.48,0.48,0,0,0-.4-0.1c-0.1,0-.1,0-0.1.1v0.1l0.1,0.6h0Z" fill="#fff"/><path d="M84.6,66.94a2.45,2.45,0,0,1,1.6.6,2.27,2.27,0,0,1,.6,1.6,2.45,2.45,0,0,1-.6,1.6,2.31,2.31,0,0,1-3.3-.2,1.87,1.87,0,0,1-.5-1.4,2.39,2.39,0,0,1,.5-1.4A2.14,2.14,0,0,1,84.6,66.94Zm0,0.3a2,2,0,0,0-1.4.6,2,2,0,1,0,3.4,1.4A2.05,2.05,0,0,0,84.6,67.24Zm0.2,1.9,0.5,0.7,0.1,0.1a0.78,0.78,0,0,0,.4.3h0.1a0.1,0.1,0,0,1,.1.1c0,0.1-.1.1-0.3,0.1a0.72,0.72,0,0,1-.6-0.4l-0.5-.7h0l-0.1-.1H84.3v0.6a0.37,0.37,0,0,0,.1.3,0.44,0.44,0,0,0,.3.1c0.1,0,.1,0,0.1.1a0.1,0.1,0,0,1-.1.1H83.8c-0.1,0-.1,0-0.1-0.1a0.1,0.1,0,0,1,.1-0.1,0.35,0.35,0,0,0,.2-0.1v-1.9a0.25,0.25,0,0,0-.2-0.3H83.7c-0.1,0-.1,0-0.1-0.1a0.1,0.1,0,0,1,.1-0.1h0.9c0.6,0,.9.2,0.9,0.7A1.2,1.2,0,0,1,84.8,69.14Zm-0.5,0h0.2a0.47,0.47,0,0,0,.5-0.5,0.52,0.52,0,0,0-.2-0.4,0.76,0.76,0,0,0-.4-0.2c-0.1,0-.2,0-0.2.1v0.8a0.2,0.2,0,0,0,.1.2C84.2,69,84.2,69.14,84.3,69.14Z" fill="#fff"/></svg>