<svg xmlns="http://www.w3.org/2000/svg" viewBox="0 0 576.42 104.84"><defs><style>.a{fill:#fff;}</style></defs><title>Asset 1</title><path class="a" d="M149.3,99.94c-.2,0-.6.4-1.3,1a4.45,4.45,0,0,1-2.1,1.2,15,15,0,0,1-3.5.3h-6.2c-.7,0-1.1-.2-1.1-.7a1.42,1.42,0,0,1,.2-.6l.2-.4,12.7-21.9c.1-.2.2-.3.2-.5,0-.5-.4-.7-1.2-.7H132.7c-.5,0-.9.1-1,.4a10.52,10.52,0,0,0-.3,2,4.64,4.64,0,0,1-.2,1.4c-.2.6-.2,1.1-.3,1.4s.1.5.4.5.4-.2.5-.5a5.21,5.21,0,0,1,1.3-2,4,4,0,0,1,1.5-1.2,6.33,6.33,0,0,1,2.3-.3h6.6c.6,0,.9.1.9.4a.76.76,0,0,1-.2.4l-.2.3-13.2,22.8a1.42,1.42,0,0,0-.2.6c0,.3.3.5,1,.5h14.8a2.82,2.82,0,0,0,1.1-.1,1.44,1.44,0,0,0,.6-.7l.7-1.3.6-1.2c.1-.2.1-.4.2-.5C149.6,100,149.5,99.94,149.3,99.94Z"/><path class="a" d="M165.7,100.24q-.15,0-.3.3c-1.1,1.7-3.5,2.5-7.2,2.5a4.77,4.77,0,0,1-2.2-.3c-.3-.2-.4-.7-.4-1.5v-5.8a.85.85,0,0,1,.2-.6,2.22,2.22,0,0,1,.9-.1h3.2a3.42,3.42,0,0,1,1.7.3,2,2,0,0,1,.7,1.3l.1.4c0,.2.2.3.4.3s.3-.1.3-.4v-.4a10.29,10.29,0,0,1-.1-1.7,21.76,21.76,0,0,1,.1-2.5v-.3c0-.2-.1-.4-.3-.4s-.3.1-.4.3a4,4,0,0,1-.4,1.2,1.88,1.88,0,0,1-1,.4,14.36,14.36,0,0,1-2.4.2h-2.2c-.4,0-.7,0-.7-.1s-.1-.4-.1-.8v-5.8a1.33,1.33,0,0,1,.3-1,2.68,2.68,0,0,1,1.1-.2h2.2a19.47,19.47,0,0,1,3.1.2,1.3,1.3,0,0,1,1.1.9,2.92,2.92,0,0,1,.2.9v.4c0,.3.1.4.3.4s.3-.1.3-.2a7.72,7.72,0,0,0,.1-1l.1-.8a8,8,0,0,1,.1-1.1v-.3c0-.3-.2-.4-.5-.4a1.76,1.76,0,0,0-.6.1,5.13,5.13,0,0,0-1,.1l-2,.1c-.9,0-1.9.1-3.1.1-1.9,0-3.6-.1-4.9-.2-.4,0-.7-.1-1-.1s-.6.1-.6.4.1.3.4.3c.9,0,1.5.2,1.8.7a5.75,5.75,0,0,1,.5,2.8v13.1c0,1.2-.3,1.8-1,2l-.5.2c-.2.1-.4.2-.4.3s.2.3.5.3a2.25,2.25,0,0,0,.7-.1,26.14,26.14,0,0,1,3.5-.2,42.06,42.06,0,0,1,4.5.3c.5,0,.8.1,1.1.1a4.07,4.07,0,0,0,3.2-1.5,3.78,3.78,0,0,0,1-2.2C166,100.34,165.9,100.24,165.7,100.24Z"/><path class="a" d="M186.9,84.34h-2.8a9.29,9.29,0,0,1-1.3-.1h-.4c-.3,0-.5.1-.5.3s.3.3.8.4a4.65,4.65,0,0,1,.9.3,1.17,1.17,0,0,1,.2.7c0,.9-.7,3-2,6.2l-3.1,7.5-.2.5c-.2.5-.4.8-.5.8s-.2-.1-.4-.5l-5.5-12.7a5.84,5.84,0,0,1-.6-2c0-.2,0-.4.2-.5a3.22,3.22,0,0,1,.7-.4q.3-.15.3-.3c0-.2-.1-.3-.4-.3h-.4c-.4,0-.7.1-.9.1h-4.2c-.3,0-.4.1-.4.3s0,.2.1.2.4.1.9.2a1.68,1.68,0,0,1,1.1.6,4.49,4.49,0,0,1,.9,1.6l7.3,16.9c.2.5.4.7.6.7s.4-.2.6-.7l7.1-16.7.4-.9a3,3,0,0,1,1.6-1.7q.3-.15.3-.3A.52.52,0,0,0,186.9,84.34Z"/><path class="a" d="M202.7,100.24q-.15,0-.3.3c-1.1,1.7-3.5,2.5-7.2,2.5a4.77,4.77,0,0,1-2.2-.3c-.3-.2-.4-.7-.4-1.5v-5.8a.85.85,0,0,1,.2-.6,2.22,2.22,0,0,1,.9-.1h3.2a3.42,3.42,0,0,1,1.7.3,2,2,0,0,1,.7,1.3l.1.4c0,.2.2.3.4.3s.3-.1.3-.4v-.4a10.29,10.29,0,0,1-.1-1.7,21.76,21.76,0,0,1,.1-2.5v-.3c0-.2-.1-.4-.3-.4s-.3.1-.4.3a4,4,0,0,1-.4,1.2,1.88,1.88,0,0,1-1,.4,14.36,14.36,0,0,1-2.4.2h-2.2c-.4,0-.7,0-.7-.1s-.1-.4-.1-.8v-5.8a1.33,1.33,0,0,1,.3-1,2.68,2.68,0,0,1,1.1-.2h2.2a19.47,19.47,0,0,1,3.1.2,1.3,1.3,0,0,1,1.1.9,2.92,2.92,0,0,1,.2.9v.4c0,.3.1.4.3.4s.3-.1.3-.2a7.72,7.72,0,0,0,.1-1l.1-.8a8,8,0,0,1,.1-1.1v-.3c0-.3-.2-.4-.5-.4a1.76,1.76,0,0,0-.6.1,5.13,5.13,0,0,0-1,.1l-2,.1c-.9,0-1.9.1-3.1.1-1.9,0-3.6-.1-4.9-.2-.4,0-.7-.1-1-.1s-.6.1-.6.4.1.3.4.3c.9,0,1.5.2,1.8.7a5.75,5.75,0,0,1,.5,2.8v13.1c0,1.2-.3,1.8-1,2l-.5.2c-.2.1-.4.2-.4.3s.2.3.5.3a2.25,2.25,0,0,0,.7-.1,26.14,26.14,0,0,1,3.5-.2,42.06,42.06,0,0,1,4.5.3c.5,0,.8.1,1.1.1a4.07,4.07,0,0,0,3.2-1.5,3.78,3.78,0,0,0,1-2.2C203,100.34,202.9,100.24,202.7,100.24Z"/><path class="a" d="M223.7,84.34a2,2,0,0,0-.7.1,5.72,5.72,0,0,1-1.4.1,21,21,0,0,1-2.7-.1h-.6c-.3,0-.4.1-.4.3s.1.3.4.4a3.42,3.42,0,0,1,2,.8,2.45,2.45,0,0,1,.7,1.7l.2,3.3v9c0,.2-.1.3-.2.3s-.2-.1-.4-.3l-13.2-15a.87.87,0,0,0-.7-.4h-2.5a.27.27,0,0,0-.3.3c0,.2.1.3.4.3a3,3,0,0,1,2.3,1.6,8.7,8.7,0,0,1,.8,3.9v9.8a4.09,4.09,0,0,1-.4,2.2,2.85,2.85,0,0,1-1.6,1.1c-.3.1-.4.2-.4.4s.2.3.4.3a1.09,1.09,0,0,0,.5-.1c.3,0,.7-.1,1.1-.1h.7l1.5.1a8.37,8.37,0,0,1,1.2.1h.4a.27.27,0,0,0,.3-.3c0-.2-.2-.3-.5-.4a2.8,2.8,0,0,1-1.5-.5c-.3-.2-.4-.7-.5-1.3V90.64q0-.6.3-.6c.1,0,.1,0,.2.1l.1.2,12.1,13.8.3.4a.37.37,0,0,0,.3.1c.2,0,.4-.1.4-.3s.1-.9.1-2V87.84a4.39,4.39,0,0,1,.3-1.9,1.76,1.76,0,0,1,1.2-.7c.2-.1.3-.1.3-.3C224.1,84.44,224,84.34,223.7,84.34Z"/><path class="a" d="M234.7,84.24a11.49,11.49,0,0,0-1.9.1l-1.3.1c-.5,0-1.3.1-2.3.1h-1l-1.1-.1c-.2,0-.4.1-.4.3s.2.3.5.3a1.92,1.92,0,0,1,1.6.8,4.06,4.06,0,0,1,.5,2.1v12.9a4.54,4.54,0,0,1-.3,2.1,1.79,1.79,0,0,1-1.3.7c-.3.1-.4.2-.4.3s.2.3.5.3a2.49,2.49,0,0,0,.8-.1,19.94,19.94,0,0,1,2.7-.2c.9,0,2.1,0,3.3.1.6,0,1.1.1,1.3.1a10.89,10.89,0,0,0,5.8-1.7,9.54,9.54,0,0,0,3.3-3.6,10.55,10.55,0,0,0,1.2-5,9.34,9.34,0,0,0-2.7-6.9C241.5,85.24,238.6,84.24,234.7,84.24Zm6,18a8.31,8.31,0,0,1-4.4,1.2,19.08,19.08,0,0,1-2-.2,7.39,7.39,0,0,1-1.9-.5,1.18,1.18,0,0,1-.9-1.2V86.74c0-.6.1-1,.4-1.2a5.67,5.67,0,0,1,2.9-.5,8.85,8.85,0,0,1,5.4,1.6,8.74,8.74,0,0,1,2.9,3.6,11.76,11.76,0,0,1,1,5C244,98.54,242.9,100.94,240.7,102.24Z"/><path class="a" d="M263.5,100.24q-.15,0-.3.3c-1.1,1.7-3.5,2.5-7.2,2.5a4.77,4.77,0,0,1-2.2-.3c-.3-.2-.4-.7-.4-1.5v-5.8a.85.85,0,0,1,.2-.6,2.22,2.22,0,0,1,.9-.1h3.2a3.42,3.42,0,0,1,1.7.3,2,2,0,0,1,.7,1.3l.1.4c0,.2.2.3.4.3s.3-.1.3-.4v-.4a10.29,10.29,0,0,1-.1-1.7,21.76,21.76,0,0,1,.1-2.5v-.3c0-.2-.1-.4-.3-.4s-.3.1-.4.3a4,4,0,0,1-.4,1.2,1.88,1.88,0,0,1-1,.4,14.36,14.36,0,0,1-2.4.2h-2.2c-.4,0-.7,0-.7-.1s-.1-.4-.1-.8v-5.8a1.33,1.33,0,0,1,.3-1,2.68,2.68,0,0,1,1.1-.2H257a19.47,19.47,0,0,1,3.1.2,1.3,1.3,0,0,1,1.1.9,2.92,2.92,0,0,1,.2.9v.4c0,.3.1.4.3.4s.3-.1.3-.2a7.72,7.72,0,0,0,.1-1l.1-.8a8,8,0,0,1,.1-1.1v-.3c0-.3-.2-.4-.5-.4a1.76,1.76,0,0,0-.6.1,5.13,5.13,0,0,0-1,.1l-2,.1c-.9,0-1.9.1-3.1.1-1.9,0-3.6-.1-4.9-.2-.4,0-.7-.1-1-.1s-.6.1-.6.4.1.3.4.3c.9,0,1.5.2,1.8.7a5.75,5.75,0,0,1,.5,2.8v13.1c0,1.2-.3,1.8-1,2l-.5.2c-.2.1-.4.2-.4.3s.2.3.5.3a2.25,2.25,0,0,0,.7-.1,26.14,26.14,0,0,1,3.5-.2,42.06,42.06,0,0,1,4.5.3c.5,0,.8.1,1.1.1a4.07,4.07,0,0,0,3.2-1.5,3.78,3.78,0,0,0,1-2.2C263.8,100.34,263.7,100.24,263.5,100.24Z"/><path class="a" d="M270.1,96l-.2.1c-.2.1-.5.2-1,.4-.7.2-1.2.4-1.6.5a7.93,7.93,0,0,1-1.5.5,3.83,3.83,0,0,0-1.1.5,3.09,3.09,0,0,0-.2,1.3c0,.3.1.5.2.5s.2-.1.3-.1.3-.1.6-.2,1-.3,2.1-.7a16.17,16.17,0,0,1,1.7-.6,2.66,2.66,0,0,0,.8-.4c.1-.1.1-.4.1-1S270.2,96,270.1,96Z"/><path class="a" d="M282.6,77.14a21.75,21.75,0,0,0-2.6.1l-1.8.2a25.46,25.46,0,0,1-3.1.1h-1.4l-1.5-.1c-.3,0-.5.1-.5.4s.2.4.6.4a2.93,2.93,0,0,1,2.2,1.1,5.36,5.36,0,0,1,.7,2.9v17.5a6.56,6.56,0,0,1-.4,2.9,2.37,2.37,0,0,1-1.7,1c-.4.1-.5.2-.5.4s.2.5.7.4c.3,0,.6-.1,1.1-.1a35.3,35.3,0,0,1,3.6-.2c1.3,0,2.8.1,4.5.2a15.26,15.26,0,0,0,1.8.1,14.4,14.4,0,0,0,7.8-2.2,12,12,0,0,0,4.4-4.8,14.21,14.21,0,0,0,1.6-6.8,13,13,0,0,0-3.6-9.4C291.9,78.54,287.9,77.14,282.6,77.14Zm8.2,24.5a11.32,11.32,0,0,1-6,1.7,15.73,15.73,0,0,1-2.7-.3,12,12,0,0,1-2.6-.7,1.59,1.59,0,0,1-1.2-1.6v-20a2.17,2.17,0,0,1,.5-1.6,7.8,7.8,0,0,1,3.9-.7,11.72,11.72,0,0,1,7.3,2.2,13.31,13.31,0,0,1,3.9,4.8,16.39,16.39,0,0,1,1.4,6.7C295.3,96.54,293.8,99.74,290.8,101.64Z"/><path class="a" d="M319.6,103.64a3.9,3.9,0,0,1-1.8-.7,6.08,6.08,0,0,1-1.1-2.2l-.3-.8-6.2-15.8c-.1-.3-.2-.4-.4-.4s-.3.1-.4.4l-7.4,16.4-.4.9a9.13,9.13,0,0,1-.8,1.3,2.3,2.3,0,0,1-.8.7l-.5.2c-.2,0-.2.2-.2.3s.1.3.4.3a4.53,4.53,0,0,0,.8-.1h2.2l1.4.1h.5c.3,0,.4-.1.4-.2s-.2-.3-.4-.3a2.3,2.3,0,0,1-1.3-.5,1.33,1.33,0,0,1-.3-1,6.61,6.61,0,0,1,.6-2.2l.9-2.1a3.66,3.66,0,0,1,.7-1.2,3.09,3.09,0,0,1,1.3-.2h5.2a2.25,2.25,0,0,1,1,.1,3.05,3.05,0,0,1,.5.9l.7,1.9a10.61,10.61,0,0,1,.9,3c0,.6-.2.9-.7,1l-.4.1c-.2,0-.4.1-.4.3s.1.3.4.3a.76.76,0,0,0,.4-.1,13.62,13.62,0,0,1,2.5-.1,17.9,17.9,0,0,1,2.7.1h.5c.3,0,.4-.1.4-.2C320,103.84,319.9,103.64,319.6,103.64Zm-8.4-8.4h-4.7c-.4,0-.7-.1-.7-.4a1.69,1.69,0,0,1,.2-.5l2.8-6.2a1.24,1.24,0,0,1,.2-.3c.1,0,.3.2.4.5l.1.3,2.3,5.7.1.3a.44.44,0,0,0,.1.3C311.9,95.14,311.7,95.24,311.2,95.24Z"/><path class="a" d="M338.9,93.74a8.33,8.33,0,0,0-1.2.1h-4.3c-.3,0-.5.1-.5.3s.2.3.6.4a3,3,0,0,1,1.5.4c.3.2.4.6.4,1.2v3.2a3.44,3.44,0,0,1-.5,2,6.32,6.32,0,0,1-5.2,2.4,7.43,7.43,0,0,1-5.9-2.8,10.44,10.44,0,0,1-2.4-7,9.67,9.67,0,0,1,2.1-6.4,6.74,6.74,0,0,1,5.3-2.5,9.64,9.64,0,0,1,8.4,5.1c.1.2.2.3.3.2s.3-.1.3-.4a.76.76,0,0,0-.1-.4,4.25,4.25,0,0,1-.2-1.1l-.1-1.4a4.14,4.14,0,0,1-.1-1c0-.4-.1-.7-.3-.7s-.1,0-.2.1l-.3.3a.37.37,0,0,1-.3.1.31.31,0,0,1-.2-.1,10.42,10.42,0,0,0-3-1.2,16.34,16.34,0,0,0-3.6-.5,9.73,9.73,0,0,0-7.3,3,10.5,10.5,0,0,0-2.9,7.5,9.49,9.49,0,0,0,2.8,7.1,9.72,9.72,0,0,0,7.1,2.8,11.74,11.74,0,0,0,6-1.6l.9-.6a2.77,2.77,0,0,1,1.2-.5,1,1,0,0,0,.4-.1l.1-.2v-5.6a1.47,1.47,0,0,1,1.1-1.6c.3-.1.4-.2.4-.4C339.3,93.84,339.2,93.74,338.9,93.74Z"/><path class="a" d="M348.5,92.74a18.44,18.44,0,0,1-3.4-1.3,3.34,3.34,0,0,1-1.3-1.1,3.77,3.77,0,0,1-.7-2.1,2.9,2.9,0,0,1,1-2.3,3.92,3.92,0,0,1,2.6-.9,6,6,0,0,1,3.5,1,4.42,4.42,0,0,1,2.1,2.6c.2.5.3.7.5.7s.3-.1.3-.4a1.76,1.76,0,0,0-.1-.6l-.2-1.5c-.1-.8-.2-1.3-.2-1.4,0-.5-.1-.7-.4-.7-.1,0-.1,0-.2.1l-.2.2a.5.5,0,0,1-.6,0l-1-.4a7.86,7.86,0,0,0-7.1,1.1,5.1,5.1,0,0,0-.4,7.2,11.61,11.61,0,0,0,4.5,2.4,12.33,12.33,0,0,1,3.7,1.6,3.48,3.48,0,0,1-.1,5.5,4.79,4.79,0,0,1-3.3,1.2,6,6,0,0,1-3.6-1.2,5.91,5.91,0,0,1-2.2-3c-.1-.5-.3-.7-.5-.7s-.3.1-.3.4a5.35,5.35,0,0,0,.4,1.8,4.79,4.79,0,0,0,.4,1.3,3,3,0,0,0,.3,1c.1.1.2.3.3.4a5.84,5.84,0,0,0,1.9.7,11.21,11.21,0,0,0,2.4.3,7.56,7.56,0,0,0,5-1.7,5.56,5.56,0,0,0,2-4.4C353.8,95.74,352.1,93.84,348.5,92.74Z"/><path class="a" d="M391.8,103.44a5,5,0,0,1-2.5-.9,10.26,10.26,0,0,1-1.5-2.9l-.4-1.1L379,77.14c-.1-.4-.3-.6-.5-.6s-.4.2-.6.6l-10,22.2-.6,1.3a6.19,6.19,0,0,1-1.1,1.7c-.4.6-.8.9-1.1.9l-.7.2c-.2.1-.3.2-.3.4a.46.46,0,0,0,.5.4,7.47,7.47,0,0,0,1.1-.1h3.1l1.9.1h.7c.4,0,.6-.1.5-.3s-.2-.4-.6-.5a3.9,3.9,0,0,1-1.8-.7,1.73,1.73,0,0,1-.5-1.3,8.11,8.11,0,0,1,.9-2.9l1.3-2.9a6.13,6.13,0,0,1,.9-1.6c.2-.2.8-.2,1.8-.2h7a2.75,2.75,0,0,1,1.3.2q.3.15.6,1.2l1,2.6a15.09,15.09,0,0,1,1.2,4.1c0,.8-.3,1.2-1,1.3l-.6.1c-.3.1-.5.2-.5.4s.2.4.5.4a1.76,1.76,0,0,0,.6-.1,25.67,25.67,0,0,1,3.4-.1,32.42,32.42,0,0,1,3.6.1h.7c.4,0,.5-.1.5-.3C392.4,103.64,392.2,103.54,391.8,103.44Zm-11.4-11.3H374c-.6,0-.9-.2-.9-.5a1.74,1.74,0,0,1,.3-.7l3.8-8.4c.1-.3.2-.4.3-.4s.4.2.5.6l.2.4,3.1,7.7.1.4a1,1,0,0,1,.1.4C381.4,91.94,381.1,92.14,380.4,92.14Z"/><path class="a" d="M400.7,84.24a11.49,11.49,0,0,0-1.9.1l-1.3.1c-.5,0-1.3.1-2.3.1h-1l-1.1-.1c-.2,0-.4.1-.4.3s.2.3.5.3a1.92,1.92,0,0,1,1.6.8,4.06,4.06,0,0,1,.5,2.1v12.9a4.54,4.54,0,0,1-.3,2.1,1.79,1.79,0,0,1-1.3.7c-.3.1-.4.2-.4.3s.2.3.5.3a2.49,2.49,0,0,0,.8-.1,19.94,19.94,0,0,1,2.7-.2c.9,0,2.1,0,3.3.1.6,0,1.1.1,1.3.1a10.89,10.89,0,0,0,5.8-1.7,9.54,9.54,0,0,0,3.3-3.6,10.55,10.55,0,0,0,1.2-5,9.34,9.34,0,0,0-2.7-6.9C407.6,85.24,404.7,84.24,400.7,84.24Zm6.1,18a8.31,8.31,0,0,1-4.4,1.2,19.08,19.08,0,0,1-2-.2,7.39,7.39,0,0,1-1.9-.5,1.18,1.18,0,0,1-.9-1.2V86.74c0-.6.1-1,.4-1.2a5.67,5.67,0,0,1,2.9-.5,8.85,8.85,0,0,1,5.4,1.6,8.74,8.74,0,0,1,2.9,3.6,11.76,11.76,0,0,1,1,5C410.1,98.54,409,100.94,406.8,102.24Z"/><path class="a" d="M432.2,84.34h-2.8a9.29,9.29,0,0,1-1.3-.1h-.4c-.3,0-.5.1-.5.3s.3.3.8.4a4.65,4.65,0,0,1,.9.3,1.17,1.17,0,0,1,.2.7c0,.9-.7,3-2,6.2l-3.1,7.5-.2.5c-.2.5-.4.8-.5.8s-.2-.1-.4-.5l-5.5-12.7a5.84,5.84,0,0,1-.6-2,.76.76,0,0,1,.2-.5,3.22,3.22,0,0,1,.7-.4q.3-.15.3-.3c0-.2-.1-.3-.4-.3h-.4c-.4,0-.7.1-.9.1H412c-.3,0-.4.1-.4.3s0,.2.1.2.4.1.9.2a1.68,1.68,0,0,1,1.1.6,4.49,4.49,0,0,1,.9,1.6l7.3,16.9c.2.5.4.7.6.7s.4-.2.6-.7l7.1-16.7.4-.9a3,3,0,0,1,1.6-1.7q.3-.15.3-.3C432.5,84.44,432.4,84.34,432.2,84.34Z"/><path class="a" d="M448.1,100.24q-.15,0-.3.3c-1.1,1.7-3.5,2.5-7.2,2.5a4.77,4.77,0,0,1-2.2-.3c-.3-.2-.4-.7-.4-1.5v-5.8a.85.85,0,0,1,.2-.6,2.22,2.22,0,0,1,.9-.1h3.2a3.42,3.42,0,0,1,1.7.3,2,2,0,0,1,.7,1.3l.1.4c0,.2.2.3.4.3s.3-.1.3-.4v-.4a10.29,10.29,0,0,1-.1-1.7,21.76,21.76,0,0,1,.1-2.5v-.3c0-.2-.1-.4-.3-.4s-.3.1-.4.3a4,4,0,0,1-.4,1.2,1.88,1.88,0,0,1-1,.4,14.36,14.36,0,0,1-2.4.2h-2.3c-.4,0-.7,0-.7-.1s-.1-.4-.1-.8v-5.8a1.33,1.33,0,0,1,.3-1,2.68,2.68,0,0,1,1.1-.2h2.3a19.47,19.47,0,0,1,3.1.2,1.3,1.3,0,0,1,1.1.9,2.92,2.92,0,0,1,.2.9v.4c0,.3.1.4.3.4s.3-.1.3-.2a7.72,7.72,0,0,0,.1-1l.1-.8a8,8,0,0,1,.1-1.1v-.3c0-.3-.2-.4-.5-.4a1.76,1.76,0,0,0-.6.1,5.13,5.13,0,0,0-1,.1l-2,.1c-.9,0-1.9.1-3.1.1-1.9,0-3.6-.1-4.9-.2-.4,0-.7-.1-1-.1s-.6.1-.6.4.1.3.4.3c.9,0,1.5.2,1.8.7a5.75,5.75,0,0,1,.5,2.8v13.1c0,1.2-.3,1.8-1,2l-.5.2c-.2.1-.4.2-.4.3s.2.3.5.3a2.25,2.25,0,0,0,.7-.1,26.14,26.14,0,0,1,3.5-.2,42.06,42.06,0,0,1,4.5.3c.5,0,.8.1,1.1.1a4.07,4.07,0,0,0,3.2-1.5,3.78,3.78,0,0,0,1-2.2C448.3,100.34,448.2,100.24,448.1,100.24Z"/><path class="a" d="M469.1,84.34a2,2,0,0,0-.7.1,5.72,5.72,0,0,1-1.4.1,21,21,0,0,1-2.7-.1h-.6c-.3,0-.4.1-.4.3s.1.3.4.4a3.42,3.42,0,0,1,2,.8,2.45,2.45,0,0,1,.7,1.7l.2,3.3v9c0,.2-.1.3-.2.3s-.2-.1-.4-.3l-13.2-15a.87.87,0,0,0-.7-.4h-2.5a.27.27,0,0,0-.3.3c0,.2.1.3.4.3a3,3,0,0,1,2.3,1.6,8.7,8.7,0,0,1,.8,3.9v9.8a4.09,4.09,0,0,1-.4,2.2,2.85,2.85,0,0,1-1.6,1.1c-.3.1-.4.2-.4.4s.2.3.4.3a1.09,1.09,0,0,0,.5-.1c.3,0,.7-.1,1.1-.1h.7l1.5.1a8.37,8.37,0,0,1,1.2.1h.4a.27.27,0,0,0,.3-.3c0-.2-.2-.3-.5-.4a2.8,2.8,0,0,1-1.5-.5c-.3-.2-.4-.7-.5-1.3V90.64q0-.6.3-.6c.1,0,.1,0,.2.1l.1.2,12.1,13.8.3.4a.37.37,0,0,0,.3.1c.2,0,.4-.1.4-.3s.1-.9.1-2V87.84a4.39,4.39,0,0,1,.3-1.9,1.76,1.76,0,0,1,1.2-.7c.2-.1.3-.1.3-.3C469.5,84.44,469.3,84.34,469.1,84.34Z"/><path class="a" d="M488.6,85.74a.92.92,0,0,0-1.2-1.2H471.9a.85.85,0,0,0-.6.2,1.44,1.44,0,0,0-.2.9,14.92,14.92,0,0,1-.2,1.7,8.92,8.92,0,0,0-.2,1.1c0,.2.1.4.3.4s.3-.2.4-.5a4.34,4.34,0,0,1,.8-1.8,2.46,2.46,0,0,1,1.7-.5h3.8c.4,0,.6,0,.7.1a1,1,0,0,1,.2.7v14.7a2.5,2.5,0,0,1-.4,1.7,2.62,2.62,0,0,1-1.5.6c-.3,0-.5.1-.5.3s.1.3.4.3a5.81,5.81,0,0,0,1-.1H482a2.64,2.64,0,0,0,.7.1c.3,0,.4-.1.4-.3s-.2-.3-.5-.3a2.05,2.05,0,0,1-1.9-2V87.14c0-.5.1-.7.2-.8a1.29,1.29,0,0,1,.8-.2h4a3,3,0,0,1,1.6.3,1.76,1.76,0,0,1,.6,1.3c.1.3.2.5.3.4s.3-.2.3-.5a2.25,2.25,0,0,0-.1-.7C488.7,86.64,488.6,86.24,488.6,85.74Z"/><path class="a" d="M497,103.64a3.32,3.32,0,0,1-1.3-.4,2,2,0,0,1-.7-1,8.34,8.34,0,0,1-.2-2.7V88.74c0-2,.4-3.2,1.1-3.4l.7-.3c.2-.1.4-.2.4-.4s-.1-.3-.4-.3h-.4l-1,.1h-1.8a21.85,21.85,0,0,1-2.8-.1h-.3c-.3,0-.4.1-.4.3s.2.3.5.3a2.1,2.1,0,0,1,1.7.8,4.47,4.47,0,0,1,.4,2.4v12.3a6.24,6.24,0,0,1-.3,2.4c-.2.4-.7.6-1.4.8-.3,0-.4.2-.4.3s.1.3.4.3h.7l1.7-.1h2.1a5.76,5.76,0,0,1,1.5.1h.5c.3,0,.4-.1.4-.3S497.4,103.64,497,103.64Z"/><path class="a" d="M506.7,92.74a18.44,18.44,0,0,1-3.4-1.3,3.34,3.34,0,0,1-1.3-1.1,3.14,3.14,0,0,1-.7-2.1,2.9,2.9,0,0,1,1-2.3,3.92,3.92,0,0,1,2.6-.9,6,6,0,0,1,3.5,1,4.42,4.42,0,0,1,2.1,2.6c.2.5.3.7.5.7s.3-.1.3-.4a1.76,1.76,0,0,0-.1-.6l-.2-1.5c-.1-.8-.2-1.3-.2-1.4,0-.5-.1-.7-.4-.7-.1,0-.1,0-.2.1l-.2.2a.5.5,0,0,1-.6,0l-1-.4a7.86,7.86,0,0,0-7.1,1.1,5.1,5.1,0,0,0-.4,7.2,11.61,11.61,0,0,0,4.5,2.4,12.33,12.33,0,0,1,3.7,1.6,3.48,3.48,0,0,1-.1,5.5,4.79,4.79,0,0,1-3.3,1.2,6,6,0,0,1-3.6-1.2,5.91,5.91,0,0,1-2.2-3c-.1-.5-.3-.7-.5-.7s-.3.1-.3.4a5.35,5.35,0,0,0,.4,1.8,4.79,4.79,0,0,0,.4,1.3,3,3,0,0,0,.3,1c.1.1.2.3.3.4a5.84,5.84,0,0,0,1.9.7,11.21,11.21,0,0,0,2.4.3,7.56,7.56,0,0,0,5-1.7,5.56,5.56,0,0,0,2-4.4C512,95.74,510.2,93.84,506.7,92.74Z"/><path class="a" d="M531.1,85.74a.92.92,0,0,0-1.2-1.2H514.4a.85.85,0,0,0-.6.2,1.44,1.44,0,0,0-.2.9,14.92,14.92,0,0,1-.2,1.7,8.92,8.92,0,0,0-.2,1.1c0,.2.1.4.3.4s.3-.2.4-.5a4.34,4.34,0,0,1,.8-1.8,2.46,2.46,0,0,1,1.7-.5h3.8c.4,0,.6,0,.7.1a1,1,0,0,1,.2.7v14.7a2.5,2.5,0,0,1-.4,1.7,2.62,2.62,0,0,1-1.5.6c-.3,0-.5.1-.5.3s.1.3.4.3a5.81,5.81,0,0,0,1-.1h4.5a2.64,2.64,0,0,0,.7.1c.3,0,.4-.1.4-.3s-.2-.3-.5-.3a2.05,2.05,0,0,1-1.9-2V87.14c0-.5.1-.7.2-.8a1.29,1.29,0,0,1,.8-.2h4a3,3,0,0,1,1.6.3,1.76,1.76,0,0,1,.6,1.3c.1.3.2.5.3.4s.3-.2.3-.5a2.25,2.25,0,0,0-.1-.7C531.2,86.64,531.1,86.24,531.1,85.74Z"/><path class="a" d="M547.4,100.24q-.15,0-.3.3c-1.1,1.7-3.5,2.5-7.2,2.5a4.77,4.77,0,0,1-2.2-.3c-.3-.2-.4-.7-.4-1.5v-5.8a.85.85,0,0,1,.2-.6,2.22,2.22,0,0,1,.9-.1h3.2a3.42,3.42,0,0,1,1.7.3,2,2,0,0,1,.7,1.3l.1.4c0,.2.2.3.4.3s.3-.1.3-.4v-.4a10.29,10.29,0,0,1-.1-1.7,21.76,21.76,0,0,1,.1-2.5v-.3c0-.2-.1-.4-.3-.4s-.3.1-.4.3a4,4,0,0,1-.4,1.2,1.88,1.88,0,0,1-1,.4,14.36,14.36,0,0,1-2.4.2h-2.2c-.4,0-.7,0-.7-.1s-.1-.4-.1-.8v-5.8a1.33,1.33,0,0,1,.3-1,2.68,2.68,0,0,1,1.1-.2h2.2a19.47,19.47,0,0,1,3.1.2,1.3,1.3,0,0,1,1.1.9,2.92,2.92,0,0,1,.2.9v.4c0,.3.1.4.3.4s.3-.1.3-.2a7.72,7.72,0,0,0,.1-1l.1-.8a8,8,0,0,1,.1-1.1v-.3c0-.3-.2-.4-.5-.4a1.76,1.76,0,0,0-.6.1,5.13,5.13,0,0,0-1,.1l-2,.1c-.9,0-1.9.1-3.1.1-1.9,0-3.6-.1-4.9-.2-.4,0-.7-.1-1-.1s-.6.1-.6.4.1.3.4.3c.9,0,1.5.2,1.8.7a5.75,5.75,0,0,1,.5,2.8v13.1c0,1.2-.3,1.8-1,2l-.5.2c-.2.1-.4.2-.4.3s.2.3.5.3a2.25,2.25,0,0,0,.7-.1,26.14,26.14,0,0,1,3.5-.2,42.06,42.06,0,0,1,4.5.3c.5,0,.8.1,1.1.1a4.07,4.07,0,0,0,3.2-1.5,3.78,3.78,0,0,0,1-2.2C547.6,100.34,547.6,100.24,547.4,100.24Z"/><path class="a" d="M568.4,84.34a2,2,0,0,0-.7.1,5.72,5.72,0,0,1-1.4.1,21,21,0,0,1-2.7-.1H563c-.3,0-.4.1-.4.3s.1.3.4.4a3.42,3.42,0,0,1,2,.8,2.45,2.45,0,0,1,.7,1.7l.2,3.3v9c0,.2-.1.3-.2.3s-.2-.1-.4-.3l-13.2-15a.87.87,0,0,0-.7-.4h-2.5a.27.27,0,0,0-.3.3c0,.2.1.3.4.3a3,3,0,0,1,2.3,1.6,8.7,8.7,0,0,1,.8,3.9v9.8a4.09,4.09,0,0,1-.4,2.2,2.85,2.85,0,0,1-1.6,1.1c-.3.1-.4.2-.4.4s.2.3.4.3a1.09,1.09,0,0,0,.5-.1c.3,0,.7-.1,1.1-.1h.7l1.5.1a8.37,8.37,0,0,1,1.2.1h.4a.27.27,0,0,0,.3-.3c0-.2-.2-.3-.5-.4a2.8,2.8,0,0,1-1.5-.5c-.3-.2-.4-.7-.5-1.3V90.64q0-.6.3-.6c.1,0,.1,0,.2.1l.1.2,12.1,13.8.3.4a.37.37,0,0,0,.3.1c.2,0,.4-.1.4-.3s.1-.9.1-2V87.84a4.39,4.39,0,0,1,.3-1.9,1.76,1.76,0,0,1,1.2-.7c.2-.1.3-.1.3-.3C568.8,84.44,568.7,84.34,568.4,84.34Z"/><path class="a" d="M152.8,71.84a6.7,6.7,0,0,1,1.7.1h.5c.4,0,.6-.1.6-.4s-.1-.3-.4-.4l-.9-.2a7.17,7.17,0,0,1-3.5-2.1l-10.1-10.6c-.3-.4-.5-.6-.5-.8s.2-.4.4-.6l6.7-6c3.3-3,5.5-4.6,6.7-4.9.6-.2.9-.3.9-.5s-.2-.4-.6-.4a1.76,1.76,0,0,0-.6.1c-.3,0-.8.1-1.6.1h-3.3a9.72,9.72,0,0,1-1.8-.1h-.5c-.4,0-.6.1-.6.4s.3.4.9.5c.9.2,1.4.6,1.4,1.1,0,.7-.6,1.6-1.9,2.7l-8.4,7.5-.3.2-.3.2c-.1,0-.2-.1-.2-.4v-7.6a8.24,8.24,0,0,1,.3-2.7,3.25,3.25,0,0,1,1.5-1.2c.3-.1.5-.3.5-.5s-.2-.4-.5-.4a4.4,4.4,0,0,0-.9.1h-3.2a24.59,24.59,0,0,1-3.1-.1c-.3,0-.5-.1-.7-.1-.4,0-.5.1-.5.4s.2.3.5.4l1,.2a2.69,2.69,0,0,1,1.7,1.1,6.85,6.85,0,0,1,.4,2.9v16.6a9.59,9.59,0,0,1-.5,3.5,2,2,0,0,1-1.7,1.2c-.4,0-.6.2-.6.4s.2.5.6.5a8.33,8.33,0,0,0,1.2-.1h4.1a12.89,12.89,0,0,1,2.3.1c.5,0,.9.1,1.1.1s.5-.1.5-.4-.2-.3-.6-.4a4.61,4.61,0,0,1-2.8-1.1,5.17,5.17,0,0,1-.6-3v-7.1c0-.3.1-.4.4-.4s.3.1.5.2l.4.4,10.5,10.8.3.4a1.61,1.61,0,0,0,1.1.5h.9C151.4,71.84,152,71.84,152.8,71.84Z"/><path class="a" d="M156.5,52.54c.9,0,1.5.2,1.8.7a5.75,5.75,0,0,1,.5,2.8v13.1c0,1.2-.3,1.8-1,2l-.5.2c-.2.1-.4.2-.4.3s.2.3.5.3a2.25,2.25,0,0,0,.7-.1,26.14,26.14,0,0,1,3.5-.2,42.06,42.06,0,0,1,4.5.3c.5,0,.8.1,1.1.1a4.07,4.07,0,0,0,3.2-1.5,3.78,3.78,0,0,0,1-2.2c0-.3-.1-.4-.3-.4s-.2.1-.3.3c-1.1,1.7-3.5,2.5-7.2,2.5a4.77,4.77,0,0,1-2.2-.3c-.3-.2-.4-.7-.4-1.5v-5.8a.85.85,0,0,1,.2-.6,2.22,2.22,0,0,1,.9-.1h3.2a3.42,3.42,0,0,1,1.7.3,2,2,0,0,1,.7,1.3l.1.4c0,.2.2.3.4.3s.3-.1.3-.4v-.4a10.29,10.29,0,0,1-.1-1.7,21.76,21.76,0,0,1,.1-2.5v-.3c0-.2-.1-.4-.3-.4s-.3.1-.4.3a4,4,0,0,1-.4,1.2,1.88,1.88,0,0,1-1,.4,14.36,14.36,0,0,1-2.4.2h-2.3c-.4,0-.7,0-.7-.1s-.1-.4-.1-.8v-5.8a1.33,1.33,0,0,1,.3-1,2.68,2.68,0,0,1,1.1-.2h2.2a19.47,19.47,0,0,1,3.1.2,1.3,1.3,0,0,1,1.1.9,2.92,2.92,0,0,1,.2.9v.4c0,.3.1.4.3.4s.3-.1.3-.2a7.72,7.72,0,0,0,.1-1l.1-.8a8,8,0,0,1,.1-1.1v-.3c0-.3-.2-.4-.5-.4a1.76,1.76,0,0,0-.6.1,5.13,5.13,0,0,0-1,.1l-2,.1c-.9,0-1.9.1-3.1.1-1.9,0-3.6-.1-4.9-.2-.4,0-.7-.1-1-.1s-.6.1-.6.4C156,52.44,156.2,52.54,156.5,52.54Z"/><path class="a" d="M191.2,71.84c.4-.1.6-.2.6-.4a.22.22,0,0,0-.2-.2h-.5c-1-.1-2.2-1-3.4-2.8l-.5-.7-4-5.8c2.4-1.2,3.5-2.8,3.5-5a4.39,4.39,0,0,0-1.7-3.7,8.58,8.58,0,0,0-5-1.2,14.09,14.09,0,0,0-2,.1,23,23,0,0,1-2.3.1h-1.3a5.85,5.85,0,0,1-1-.1c-.3,0-.5.1-.5.3s.2.3.5.3l.7.1c1,.2,1.6,1,1.6,2.5v11.8a8.48,8.48,0,0,1-.4,3.3,1.58,1.58,0,0,1-1.5,1c-.2,0-.4.1-.4.3s.1.3.4.3a3.22,3.22,0,0,0,.8-.1c.5,0,.9-.1,1.2-.1h2.1a8.66,8.66,0,0,1,1.8.1,5.38,5.38,0,0,1,.8.1c.3,0,.5-.1.5-.3s-.2-.3-.5-.3a3.85,3.85,0,0,1-1.9-.6,1.56,1.56,0,0,1-.6-.8,7.16,7.16,0,0,1-.1-1.7v-5.1a.76.76,0,0,1,.2-.5l.3-.1h1.9a1.15,1.15,0,0,1,1.1.6l.2.3,3.6,5.5a8,8,0,0,0,2.1,2.3,3.89,3.89,0,0,0,2.3.7A6.26,6.26,0,0,0,191.2,71.84Zm-10.5-10.3h-1.6a1.29,1.29,0,0,1-.8-.2,1.44,1.44,0,0,1-.2-.9v-6.3a1.33,1.33,0,0,1,.3-1,1.74,1.74,0,0,1,1.2-.3,5.08,5.08,0,0,1,3.7,1.3,4.33,4.33,0,0,1,1.5,3.4,3.76,3.76,0,0,1-1.1,2.8A3.6,3.6,0,0,1,180.7,61.54Z"/><path class="a" d="M192.8,52.54l.7.1a2,2,0,0,1,1.3.8,5.39,5.39,0,0,1,.3,2.2v12.2a5.61,5.61,0,0,1-.4,2.6,1.21,1.21,0,0,1-1.2.8c-.3,0-.4.1-.4.3s.2.3.5.3a4.4,4.4,0,0,0,.9-.1h4.6a1.72,1.72,0,0,1,.8.1c.2,0,.4-.1.3-.3s-.2-.3-.4-.3c-1.1-.2-1.7-.4-2-.8a3.87,3.87,0,0,1-.4-2.2v-5.3a.27.27,0,0,1,.3-.3c.1,0,.2.1.3.2l.3.3L206,71l.2.3a.91.91,0,0,0,.8.4h3.4c.3,0,.4-.1.4-.3s-.1-.2-.3-.3l-.6-.1a5.36,5.36,0,0,1-2.6-1.5l-7.5-7.8c-.2-.3-.4-.5-.3-.6a.91.91,0,0,1,.3-.5l4.9-4.4c2.4-2.2,4.1-3.4,5-3.6.5-.1.7-.2.7-.4s-.2-.3-.4-.3a.76.76,0,0,0-.4.1h-5.4c-.3,0-.4.1-.4.3s.2.3.7.4c.7.1,1,.4,1,.8s-.5,1.2-1.4,2L197.9,61l-.2.2-.2.2c-.1,0-.1-.1-.1-.3v-5.6a8.08,8.08,0,0,1,.2-2,2.64,2.64,0,0,1,1.1-.9q.3-.15.3-.3a.27.27,0,0,0-.3-.3,2.64,2.64,0,0,0-.7.1h-2.3a14.17,14.17,0,0,1-2.3-.1h-.5c-.3,0-.4.1-.4.3S192.6,52.54,192.8,52.54Z"/><path class="a" d="M228.3,69.44a1,1,0,0,0,.4-.1l.1-.2v-5.6a1.47,1.47,0,0,1,1.1-1.6c.3-.1.4-.2.4-.4a.27.27,0,0,0-.3-.3,8.33,8.33,0,0,0-1.2.1h-4.3c-.3,0-.5.1-.5.3s.2.3.6.4a3,3,0,0,1,1.5.4c.3.2.4.6.4,1.2v3.2a3.44,3.44,0,0,1-.5,2,6.32,6.32,0,0,1-5.2,2.4,7.43,7.43,0,0,1-5.9-2.8,10.44,10.44,0,0,1-2.4-7,9.67,9.67,0,0,1,2.1-6.4,6.74,6.74,0,0,1,5.3-2.5,9.58,9.58,0,0,1,4.9,1.4,8.59,8.59,0,0,1,3.4,3.7c.1.2.2.3.3.2s.3-.1.3-.4a.76.76,0,0,0-.1-.4,4.25,4.25,0,0,1-.2-1.1l-.1-1.3a4.14,4.14,0,0,1-.1-1c0-.4-.1-.7-.3-.7s-.1,0-.2.1l-.3.3a.37.37,0,0,1-.3.1.31.31,0,0,1-.2-.1,10.42,10.42,0,0,0-3-1.2,16.34,16.34,0,0,0-3.6-.5,9.73,9.73,0,0,0-7.3,3,10.5,10.5,0,0,0-2.9,7.5,9.49,9.49,0,0,0,2.8,7.1,9.72,9.72,0,0,0,7.1,2.8,11.74,11.74,0,0,0,6-1.6l.9-.6A12.76,12.76,0,0,1,228.3,69.44Z"/><path class="a" d="M247.5,67.84q-.15,0-.3.3c-1.1,1.7-3.5,2.5-7.2,2.5a4.77,4.77,0,0,1-2.2-.3c-.3-.2-.4-.7-.4-1.5V63a.85.85,0,0,1,.2-.6,2.22,2.22,0,0,1,.9-.1h3.2a3.42,3.42,0,0,1,1.7.3,2,2,0,0,1,.7,1.3l.1.4c0,.2.2.3.4.3s.3-.1.3-.4v-.4a10.29,10.29,0,0,1-.1-1.7,21.76,21.76,0,0,1,.1-2.5v-.3c0-.2-.1-.4-.3-.4s-.3.1-.4.3a4,4,0,0,1-.4,1.2,1.88,1.88,0,0,1-1,.4,14.36,14.36,0,0,1-2.4.2h-2.2c-.4,0-.7,0-.7-.1s-.1-.4-.1-.8v-5.8a1.33,1.33,0,0,1,.3-1,2.68,2.68,0,0,1,1.1-.2H241a19.47,19.47,0,0,1,3.1.2,1.3,1.3,0,0,1,1.1.9,2.92,2.92,0,0,1,.2.9v.4c0,.3.1.4.3.4s.3-.1.3-.2a7.72,7.72,0,0,0,.1-1l.1-.8a8,8,0,0,1,.1-1.1v-.3c0-.3-.2-.4-.5-.4a1.76,1.76,0,0,0-.6.1,5.13,5.13,0,0,0-1,.1l-2,.1c-.9,0-1.9.1-3.1.1-1.9,0-3.6-.1-4.9-.2-.4,0-.7-.1-1-.1s-.6.1-.6.4.1.3.4.3c.9,0,1.5.2,1.8.7a5.75,5.75,0,0,1,.5,2.8v13.1c0,1.2-.3,1.8-1,2l-.5.2c-.2.1-.4.2-.4.3s.2.3.5.3a2.25,2.25,0,0,0,.7-.1,26.14,26.14,0,0,1,3.5-.2,42.06,42.06,0,0,1,4.5.3c.5,0,.8.1,1.1.1a4.07,4.07,0,0,0,3.2-1.5,3.78,3.78,0,0,0,1-2.2C247.7,67.94,247.6,67.84,247.5,67.84Z"/><path class="a" d="M249.1,52.54a3,3,0,0,1,2.3,1.6,8.7,8.7,0,0,1,.8,3.9v9.8a4.09,4.09,0,0,1-.4,2.2,2.85,2.85,0,0,1-1.6,1.1c-.3.1-.4.2-.4.4s.2.3.4.3a1.09,1.09,0,0,0,.5-.1c.3,0,.7-.1,1.1-.1h.7l1.5.1a8.37,8.37,0,0,1,1.2.1h.4a.27.27,0,0,0,.3-.3c0-.2-.2-.3-.5-.4a2.8,2.8,0,0,1-1.5-.5c-.3-.2-.4-.7-.5-1.3V58q0-.6.3-.6c.1,0,.1,0,.2.1l.1.2,12.1,13.8.3.4a.37.37,0,0,0,.3.1c.2,0,.4-.1.4-.3s.1-.9.1-2V55.24a4.39,4.39,0,0,1,.3-1.9,1.76,1.76,0,0,1,1.2-.7c.2-.1.3-.1.3-.3s-.2-.3-.4-.3a2,2,0,0,0-.7.1,5.72,5.72,0,0,1-1.4.1,21,21,0,0,1-2.7-.1h-.6c-.3,0-.4.1-.4.3s.1.3.4.4a3.42,3.42,0,0,1,2,.8,2.45,2.45,0,0,1,.7,1.7l.2,3.3v9c0,.2-.1.3-.2.3s-.2-.1-.4-.3l-13.2-15a.87.87,0,0,0-.7-.4h-2.5a.27.27,0,0,0-.3.3C248.7,52.44,248.8,52.54,249.1,52.54Z"/><path class="a" d="M281.8,72.14a10.1,10.1,0,0,0,7.4-2.9,10.5,10.5,0,0,0,2.9-7.5,9.42,9.42,0,0,0-2.9-7.1,10,10,0,0,0-7.4-2.8,12,12,0,0,0-4.2.8,8.83,8.83,0,0,0-5.4,5.5,10.87,10.87,0,0,0-.8,3.9,10.1,10.1,0,0,0,2.9,7.4A10.91,10.91,0,0,0,281.8,72.14Zm-6.1-17.2a6.66,6.66,0,0,1,5.3-2.2,8.58,8.58,0,0,1,6.5,2.9,10.35,10.35,0,0,1,2.6,7.1,8.89,8.89,0,0,1-2.2,6.2,7.05,7.05,0,0,1-5.5,2.4,7.9,7.9,0,0,1-6.2-3,10.79,10.79,0,0,1-2.5-7.3A9,9,0,0,1,275.7,54.94Z"/><path class="a" d="M304.9,72.14a10.1,10.1,0,0,0,7.4-2.9,10.5,10.5,0,0,0,2.9-7.5,9.42,9.42,0,0,0-2.9-7.1,10,10,0,0,0-7.4-2.8,12,12,0,0,0-4.2.8,8.83,8.83,0,0,0-5.4,5.5,10.87,10.87,0,0,0-.8,3.9,10.1,10.1,0,0,0,2.9,7.4A10.91,10.91,0,0,0,304.9,72.14Zm-6.2-17.2a6.66,6.66,0,0,1,5.3-2.2,8.58,8.58,0,0,1,6.5,2.9,10.35,10.35,0,0,1,2.6,7.1,8.89,8.89,0,0,1-2.2,6.2,7.05,7.05,0,0,1-5.5,2.4,7.9,7.9,0,0,1-6.2-3,10.79,10.79,0,0,1-2.5-7.3A9.49,9.49,0,0,1,298.7,54.94Z"/><path class="a" d="M316.5,56.44c.2,0,.3-.2.4-.5a4.34,4.34,0,0,1,.8-1.8,2.46,2.46,0,0,1,1.7-.5h3.8c.4,0,.6,0,.7.1a1,1,0,0,1,.2.7v14.7a2.5,2.5,0,0,1-.4,1.7,2.62,2.62,0,0,1-1.5.6c-.3,0-.5.1-.5.3s.1.3.4.3a5.81,5.81,0,0,0,1-.1h4.5a2.64,2.64,0,0,0,.7.1c.3,0,.4-.1.4-.3s-.2-.3-.5-.3a2.05,2.05,0,0,1-1.9-2V54.74a.8.8,0,0,1,1-1h4a3,3,0,0,1,1.6.3,1.76,1.76,0,0,1,.6,1.3c.1.3.2.5.3.4s.3-.2.3-.5a2.25,2.25,0,0,0-.1-.7c0-.3-.1-.7-.1-1.2a1.6,1.6,0,0,0-.2-1,1.6,1.6,0,0,0-1-.2H317.2a.85.85,0,0,0-.6.2,1.44,1.44,0,0,0-.2.9,14.92,14.92,0,0,1-.2,1.7A8.92,8.92,0,0,0,316,56,2.73,2.73,0,0,1,316.5,56.44Z"/><path class="a" d="M336.2,69.64a3,3,0,0,0,.3,1c.1.1.2.3.3.4a5.84,5.84,0,0,0,1.9.7,11.21,11.21,0,0,0,2.4.3,7.56,7.56,0,0,0,5-1.7,5.56,5.56,0,0,0,2-4.4c0-2.6-1.8-4.5-5.3-5.7a18.44,18.44,0,0,1-3.4-1.3,3.34,3.34,0,0,1-1.3-1.1,3.77,3.77,0,0,1-.7-2.1,2.9,2.9,0,0,1,1-2.3,3.92,3.92,0,0,1,2.6-.9,6,6,0,0,1,3.5,1,4.42,4.42,0,0,1,2.1,2.6c.2.5.3.7.5.7s.3-.1.3-.4a1.76,1.76,0,0,0-.1-.6l-.2-1.5c-.1-.8-.2-1.3-.2-1.4,0-.5-.1-.7-.4-.7-.1,0-.1,0-.2.1l-.2.2a.5.5,0,0,1-.6,0l-1-.4a7.86,7.86,0,0,0-7.1,1.1,5.1,5.1,0,0,0-.4,7.2,11.61,11.61,0,0,0,4.5,2.4,12.33,12.33,0,0,1,3.7,1.6,3.48,3.48,0,0,1-.1,5.5,4.79,4.79,0,0,1-3.3,1.2,6,6,0,0,1-3.6-1.2,5.91,5.91,0,0,1-2.2-3c-.1-.5-.3-.7-.5-.7s-.3.1-.3.4a5.35,5.35,0,0,0,.4,1.8A3.5,3.5,0,0,1,336.2,69.64Z"/><path class="a" d="M368.8,69.24l.1-.3.3-1.8.1-.3v-.2c0-.2-.1-.3-.2-.3s-.3.3-.6.8a6.56,6.56,0,0,1-2.9,2.8,8.4,8.4,0,0,1-4.2,1.2,7.22,7.22,0,0,1-6-2.8,10.84,10.84,0,0,1-2.3-7.3,9,9,0,0,1,2.1-6.2,7.53,7.53,0,0,1,5.8-2.3c3.1,0,5.5,1.6,7.3,4.7.2.4.4.6.5.6a.35.35,0,0,0,.2-.1v-.5l-.5-3.4c0-.4-.1-.5-.3-.5s-.2.1-.4.2a.31.31,0,0,1-.2.1l-.2-.1-.2-.1-.6-.3a11.92,11.92,0,0,0-5.6-1.4,10.08,10.08,0,0,0-10.3,10.4,9.42,9.42,0,0,0,2.8,7.2A10.46,10.46,0,0,0,361,72a13.24,13.24,0,0,0,7.3-2.1A3,3,0,0,0,368.8,69.24Z"/><path class="a" d="M371.8,52.44a3,3,0,0,1,1.7.7,3,3,0,0,1,.5,1.8v12.3a16,16,0,0,1-.2,2.8c-.2.5-.4.9-.9.9l-.7.2c-.2.1-.4.2-.4.3s.1.3.4.3a4.4,4.4,0,0,0,.9-.1h3a6.25,6.25,0,0,1,1.7.1,5.64,5.64,0,0,1,.7.1c.3,0,.4-.1.4-.3s-.2-.3-.5-.4a2.74,2.74,0,0,1-1.8-.7,3.58,3.58,0,0,1-.5-2.1V63a1.29,1.29,0,0,1,.2-.8,1.86,1.86,0,0,1,1-.2h8.5c.5,0,.8,0,.9.1s.1.3.1.8v5.9c0,1.5-.5,2.3-1.5,2.5-.3,0-.5.2-.5.3a.27.27,0,0,0,.3.3,5.81,5.81,0,0,0,1-.1H389a4.55,4.55,0,0,1,1.4.1,5.64,5.64,0,0,1,.7.1c.3,0,.4-.1.4-.3s-.2-.2-.5-.3a2.45,2.45,0,0,1-1.7-.7,3.69,3.69,0,0,1-.4-2.1V54.74a2.77,2.77,0,0,1,.3-1.3,1,1,0,0,1,.7-.6l.6-.1a.3.3,0,1,0,0-.6,1.09,1.09,0,0,0-.5.1,11.62,11.62,0,0,1-2.2.1,12.75,12.75,0,0,1-2-.1c-.5,0-.8-.1-1-.1a.52.52,0,0,0-.4.2c0,.2.1.3.4.3a2,2,0,0,1,1.4.9,3.69,3.69,0,0,1,.4,2.1v4.9a.59.59,0,0,1-.2.5c-.1.1-.4.1-.8.1h-8.5a2.33,2.33,0,0,1-1.1-.2,1.6,1.6,0,0,1-.2-1v-5.2a2.81,2.81,0,0,1,.3-1.5,2.61,2.61,0,0,1,1.3-.7c.3-.1.4-.2.4-.3s-.1-.3-.4-.3a1.76,1.76,0,0,0-.6.1,11.49,11.49,0,0,1-1.9.1,20.13,20.13,0,0,1-2.6-.1c-.4,0-.7-.1-.9-.1s-.4.1-.4.3A3.09,3.09,0,0,0,371.8,52.44Z"/><path class="a" d="M394,71.74h1.6l1.4.1h.5c.3,0,.4-.1.4-.2s-.2-.3-.4-.3a2.3,2.3,0,0,1-1.3-.5,1.33,1.33,0,0,1-.3-1,6.61,6.61,0,0,1,.6-2.2l.9-2.1a3.66,3.66,0,0,1,.7-1.2,3.09,3.09,0,0,1,1.3-.2h5.2a2.25,2.25,0,0,1,1,.1,3.05,3.05,0,0,1,.5.9l.7,1.9a10.61,10.61,0,0,1,.9,3c0,.6-.2.9-.7,1l-.4.1c-.2,0-.4.1-.4.3s.1.3.4.3a.76.76,0,0,0,.4-.1,13.62,13.62,0,0,1,2.5-.1,17.9,17.9,0,0,1,2.7.1h.5c.3,0,.4-.1.4-.2s-.1-.3-.4-.4a3.9,3.9,0,0,1-1.8-.7,6.08,6.08,0,0,1-1.1-2.2l-.3-.8-6.2-15.8c-.1-.3-.2-.4-.4-.4s-.3.1-.4.4l-7.4,16.4-.4.9a9.13,9.13,0,0,1-.8,1.3,2.3,2.3,0,0,1-.8.7l-.5.2c-.2,0-.2.2-.2.3s.1.3.4.3a4.53,4.53,0,0,0,.8-.1C393.5,71.74,393.7,71.74,394,71.74Zm4.9-9.8,2.8-6.2a1.24,1.24,0,0,1,.2-.3c.1,0,.3.2.4.5l.1.3,2.3,5.7.1.3a.44.44,0,0,0,.1.3c0,.2-.2.4-.7.4h-4.7c-.4,0-.7-.1-.7-.4C398.7,62.44,398.8,62.24,398.9,61.94Z"/><path class="a" d="M413.9,52.54c1,.1,1.6.4,1.8,1a12.61,12.61,0,0,1,.4,3.8V66a11.66,11.66,0,0,1-.4,3.9,2.17,2.17,0,0,1-1.5,1.3c-.3,0-.5.2-.5.3s.1.3.4.3a2.81,2.81,0,0,0,.8-.1c.3,0,.7-.1,1.3-.1h3.6c.5,0,.8.1,1,.1.4,0,.5-.1.5-.4s-.2-.3-.4-.3a7.38,7.38,0,0,1-1.2-.2c-.8-.2-1.2-.9-1.3-2v-15a.8.8,0,0,1,1-1,6,6,0,0,1,4.1,1.4,4.65,4.65,0,0,1,1.6,3.6,3.77,3.77,0,0,1-1.2,3,4.41,4.41,0,0,1-3.3,1.1,3.42,3.42,0,0,1-1.1-.1h-.3c-.2,0-.3.1-.3.2s.2.3.7.4a8.81,8.81,0,0,0,1.7.2,6,6,0,0,0,3.6-1.2,5.28,5.28,0,0,0,2.3-4.4,4.47,4.47,0,0,0-1.9-3.8,7.51,7.51,0,0,0-4.9-1.4,8.64,8.64,0,0,0-1.5.1c-1.2.1-2.1.2-2.7.2a8.64,8.64,0,0,1-1.5-.1,5.64,5.64,0,0,1-.7-.1q-.6,0-.6.3A.55.55,0,0,0,413.9,52.54Z"/><path class="a" d="M437.5,45.84a2.93,2.93,0,0,1,2.2,1.1,5.36,5.36,0,0,1,.7,2.9v17.5a6.56,6.56,0,0,1-.4,2.9,2.37,2.37,0,0,1-1.7,1c-.4.1-.5.2-.5.4s.2.5.7.4c.3,0,.6-.1,1.1-.1a35.3,35.3,0,0,1,3.6-.2c1.3,0,2.8.1,4.5.2a15.26,15.26,0,0,0,1.8.1,14.4,14.4,0,0,0,7.8-2.2,12,12,0,0,0,4.4-4.8,14.21,14.21,0,0,0,1.6-6.8,13,13,0,0,0-3.6-9.4c-2.7-2.7-6.7-4-12-4a21.75,21.75,0,0,0-2.6.1l-1.8.2a25.46,25.46,0,0,1-3.1.1h-1.4l-1.5-.1c-.3,0-.5.1-.5.4C436.8,45.64,437,45.84,437.5,45.84Zm5.8,2.4a2.17,2.17,0,0,1,.5-1.6,7.8,7.8,0,0,1,3.9-.7,11.72,11.72,0,0,1,7.3,2.2,13.31,13.31,0,0,1,3.9,4.8,16.39,16.39,0,0,1,1.4,6.7c0,4.5-1.5,7.7-4.5,9.5a11.32,11.32,0,0,1-6,1.7,15.73,15.73,0,0,1-2.7-.3,12,12,0,0,1-2.6-.7,1.59,1.59,0,0,1-1.2-1.6v-20Z"/><path class="a" d="M466.4,52.54c.9,0,1.5.2,1.8.7a5.75,5.75,0,0,1,.5,2.8v13.1c0,1.2-.3,1.8-1,2l-.5.2c-.2.1-.4.2-.4.3s.2.3.5.3a2.25,2.25,0,0,0,.7-.1,26.14,26.14,0,0,1,3.5-.2,42.06,42.06,0,0,1,4.5.3c.5,0,.8.1,1.1.1a4.07,4.07,0,0,0,3.2-1.5,3.78,3.78,0,0,0,1-2.2c0-.3-.1-.4-.3-.4s-.2.1-.3.3c-1.1,1.7-3.5,2.5-7.2,2.5a4.77,4.77,0,0,1-2.2-.3c-.3-.2-.4-.7-.4-1.5v-5.8a.85.85,0,0,1,.2-.6,2.22,2.22,0,0,1,.9-.1h3.2a3.42,3.42,0,0,1,1.7.3,2,2,0,0,1,.7,1.3l.1.4c0,.2.2.3.4.3s.3-.1.3-.4v-.4a10.29,10.29,0,0,1-.1-1.7,21.76,21.76,0,0,1,.1-2.5v-.3c0-.2-.1-.4-.3-.4s-.3.1-.4.3a4,4,0,0,1-.4,1.2,1.88,1.88,0,0,1-1,.4,14.36,14.36,0,0,1-2.4.2h-2.2c-.4,0-.7,0-.7-.1s-.1-.4-.1-.8v-5.8a1.33,1.33,0,0,1,.3-1,2.68,2.68,0,0,1,1.1-.2h2.3a19.47,19.47,0,0,1,3.1.2,1.3,1.3,0,0,1,1.1.9,2.92,2.92,0,0,1,.2.9v.4c0,.3.1.4.3.4s.3-.1.3-.2a7.72,7.72,0,0,0,.1-1l.1-.8a8,8,0,0,1,.1-1.1v-.3c0-.3-.2-.4-.5-.4a1.76,1.76,0,0,0-.6.1,5.13,5.13,0,0,0-1,.1l-2,.1c-.9,0-1.9.1-3.1.1-1.9,0-3.6-.1-4.9-.2-.4,0-.7-.1-1-.1s-.6.1-.6.4C465.9,52.44,466.1,52.54,466.4,52.54Z"/><path class="a" d="M491.1,71.64c0-.2-.2-.3-.5-.3a3.85,3.85,0,0,1-1.9-.6,1.56,1.56,0,0,1-.6-.8,7.16,7.16,0,0,1-.1-1.7v-5.1a.76.76,0,0,1,.2-.5l.3-.1h1.9a1.15,1.15,0,0,1,1.1.6l.2.3,3.6,5.5a8,8,0,0,0,2.1,2.3,3.89,3.89,0,0,0,2.3.7,5.9,5.9,0,0,0,1.4-.2c.4-.1.6-.2.6-.4a.22.22,0,0,0-.2-.2H501c-1-.1-2.2-1-3.4-2.8l-.5-.7-4-5.8c2.4-1.2,3.5-2.8,3.5-5a4.39,4.39,0,0,0-1.7-3.7,8.58,8.58,0,0,0-5-1.2,14.09,14.09,0,0,0-2,.1,23,23,0,0,1-2.3.1h-1.3a5.85,5.85,0,0,1-1-.1c-.3,0-.5.1-.5.3s.2.3.5.3l.7.1c1,.2,1.6,1,1.6,2.5V67a8.48,8.48,0,0,1-.4,3.3,1.58,1.58,0,0,1-1.5,1c-.2,0-.4.1-.4.3s.1.3.4.3a3.22,3.22,0,0,0,.8-.1c.5,0,.9-.1,1.2-.1h2.1a8.66,8.66,0,0,1,1.8.1,5.38,5.38,0,0,1,.8.1C491,71.94,491.1,71.84,491.1,71.64Zm-2.8-18.4a1.74,1.74,0,0,1,1.2-.3,5.08,5.08,0,0,1,3.7,1.3,4.33,4.33,0,0,1,1.5,3.4,3.76,3.76,0,0,1-1.1,2.8,4,4,0,0,1-3,1H489a1.29,1.29,0,0,1-.8-.2,1.44,1.44,0,0,1-.2-.9V54A.76.76,0,0,1,488.3,53.24Z"/><path class="a" d="M37.7,80.64l-23.9,4.3L0,104l33-5.9c9.9-1.7,18.6-2.1,21.3,5.8V91H47.8v-4.6h6.5V86C54.4,81.54,52.3,78.14,37.7,80.64Z"/><path class="a" d="M75.4,80.64l-5.3,5.3c-7.5,7.5-11.2,11.8-11.2,18,2.9-8.2,12-7.5,22.7-5.4l31.7,5.5L99.5,84.94Z"/><path class="a" d="M70.7,73.84c-2.9,2.9-8,7.6-10.4,12.7h5.3l6.1-6.1c5.6-5.6,10-9.9,11.8-15.3a19.44,19.44,0,0,0,1-9.8,6,6,0,0,0-.6-2.3c-.5,6.1-2.2,9.8-11.1,18.7Z"/><path class="a" d="M54,36.24c3.3-3.3,11.5-10.6,11.5-17v-7.1c0-.1-.1,0-.1,0-.6,4.8-1.7,6.8-13.4,18.5L40.5,42.14c-6.1,6.1-11,12.6-10.4,19.8.4,4.1,1.7,6.3,2.6,6.9.4.3.3.1.2-.2-3.5-7.9,4.8-16.2,9-20.3Z"/><path class="a" d="M65.6,24.14c0-.1-.1,0-.1,0-.6,4.8-1.7,6.8-13.4,18.5L41.4,53.34c-3.9,3.9-7.4,8-7.3,14.5.1,4,2.1,7.4,5.2,8.1,1.3.3,1.2.1.9,0-4.3-2-4-9.8,3-16.8l11-11c3.3-3.3,11.5-10.6,11.5-17v-7Z"/><path class="a" d="M29.5,56.24c.5-6.1,2.2-9.8,11.1-18.7L54,24.14c3.3-3.3,11.5-10.6,11.5-17V0c0-.1-.1,0-.1,0-.6,4.8-1.7,6.8-13.4,18.5L41.7,28.84c-5.6,5.6-10,9.9-11.8,15.3a19.44,19.44,0,0,0-1,9.8A6,6,0,0,0,29.5,56.24Z"/><path class="a" d="M58.9,98.14c0,.1.1.1.2,0a14.78,14.78,0,0,1,2.8-7H59v7Z"/><path class="a" d="M72.8,59.54l-3.4,3.4c-5.2,5.2-10.5,11-10.5,16.4v7.2c0,.1.1.1.2,0,.6-5.2,3.1-8.6,10.6-16.2l3.1-3.1c6.1-6.1,11-12.6,10.4-19.8-.4-4.1-1.7-6.3-2.6-6.9-.4-.3-.3-.1-.2.2C83.9,48.64,75.6,56.84,72.8,59.54Z"/><path class="a" d="M58.9,74.14c0,.1.1.1.2,0,.6-5,3.4-8.8,9.9-15.3l3.1-3.1c3.9-3.9,7.4-7.9,7.2-14.5-.1-4-2.1-7.4-5.2-8.1-1.3-.3-1.2-.1-.9,0,4.3,2,4,9.8-3,16.8l-3.8,3.8c-2.5,2.5-7.6,8-7.6,13.1v7.3Z"/><path class="a" d="M115.1,97c-.2,0-.4-.2-.6-.5l-.1-.1-.7-1a1,1,0,0,0,.6-.9q0-.9-1.2-.9h-1.2c-.1,0-.1,0-.1.1s0,.1.1.1h.1c.2,0,.3.2.3.4v2.1c0,.3,0,.5-.1.6s-.1.1-.3.2-.1,0-.1.1,0,.1.1.1h1.2c.1,0,.1,0,.1-.1s0-.1-.1-.1-.3-.1-.4-.1-.1-.2-.1-.4v-1h.3c.1,0,.1,0,.2.1v.1l.6,1a.82.82,0,0,0,.8.5c.3,0,.4,0,.4-.1.3-.2.3-.2.2-.2Zm-1.9-1.7h-.4v-1.2a.22.22,0,0,1,.2-.2,1.07,1.07,0,0,1,.6.2.71.71,0,0,1,.3.6C113.9,95.14,113.7,95.34,113.2,95.34Z"/><path class="a" d="M113.3,92.34a3.19,3.19,0,0,0-2.4,1.1,2.88,2.88,0,0,0-.7,2,3,3,0,0,0,3.1,3.1,3.1,3.1,0,1,0,0-6.2Zm2,5a2.73,2.73,0,0,1-1.9.8,2.56,2.56,0,0,1-1.9-.8,2.73,2.73,0,0,1-.8-1.9,2.56,2.56,0,0,1,.8-1.9,2.73,2.73,0,0,1,1.9-.8,2.56,2.56,0,0,1,1.9.8,2.73,2.73,0,0,1,.8,1.9A2.56,2.56,0,0,1,115.3,97.34Z"/><path class="a" d="M575.6,82.14a2.94,2.94,0,0,0-2.2-.9,3.19,3.19,0,0,0-2.4,1.1,2.88,2.88,0,0,0-.7,2,3.06,3.06,0,0,0,.7,2,3,3,0,0,0,2.3,1.1,3.07,3.07,0,0,0,3.1-3.1A2.54,2.54,0,0,0,575.6,82.14Zm-.3,4.1a2.73,2.73,0,0,1-1.9.8,2.56,2.56,0,0,1-1.9-.8,2.73,2.73,0,0,1-.8-1.9,2.56,2.56,0,0,1,.8-1.9,2.73,2.73,0,0,1,1.9-.8,2.56,2.56,0,0,1,1.9.8,2.73,2.73,0,0,1,.8,1.9A2.36,2.36,0,0,1,575.3,86.24Z"/><path class="a" d="M575.1,85.94c-.2,0-.4-.2-.6-.5l-.1-.1-.7-1a1,1,0,0,0,.6-.9q0-.9-1.2-.9h-1.2c-.1,0-.1,0-.1.1s0,.1.1.1h.1c.2,0,.3.2.3.4v2.1c0,.3,0,.5-.1.6s-.1.1-.3.2-.1,0-.1.1,0,.1.1.1h1.2c.1,0,.1,0,.1-.1s0-.1-.1-.1-.3-.1-.4-.1-.1-.2-.1-.4v-1h.3c.1,0,.1,0,.2.1v.1l.6,1a.82.82,0,0,0,.8.5c.3,0,.4,0,.4-.1.4-.2.4-.2.2-.2Zm-1.9-1.8h-.4v-1.2a.22.22,0,0,1,.2-.2,1.07,1.07,0,0,1,.6.2.71.71,0,0,1,.3.6C573.9,83.94,573.7,84.14,573.2,84.14Z"/></svg>