<svg xmlns="http://www.w3.org/2000/svg" viewBox="0 0 674.51 105.34"><defs><style>.a{fill:#fff;}</style></defs><title>Asset 1</title><path class="a" d="M38,81.34l-24.1,4.3L0,104.84l33.3-5.9c10-1.7,18.7-2.1,21.5,5.9v-13H48.2v-4.6h6.5v-.4C54.8,82.24,52.6,78.84,38,81.34Z"/><path class="a" d="M75.9,81.34l-5.3,5.3c-7.6,7.6-11.3,11.9-11.3,18.1,2.9-8.3,12.1-7.6,22.9-5.5l31.9,5.5-13.9-19.2Z"/><path class="a" d="M71.2,74.44c-3,3-8.1,7.6-10.5,12.8h5.4l6.2-6.1c5.7-5.7,10-10,11.9-15.4a19.83,19.83,0,0,0,1-9.9,6,6,0,0,0-.6-2.3c-.5,6.2-2.3,9.9-11.2,18.8Z"/><path class="a" d="M54.4,36.54c3.3-3.3,11.6-10.7,11.6-17.2v-7.1c0-.1-.1,0-.1,0-.6,4.8-1.7,6.9-13.5,18.6L40.8,42.44c-6.1,6.1-11.1,12.7-10.5,20,.4,4.1,1.7,6.3,2.6,7,.4.3.3.1.2-.2-3.5-8,4.9-16.3,9.1-20.5Z"/><path class="a" d="M66,24.44c0-.1-.1,0-.1,0-.6,4.8-1.7,6.9-13.5,18.6L41.6,53.84c-3.9,3.9-7.5,8-7.3,14.6.1,4.1,2.1,7.4,5.2,8.2,1.3.3,1.2.1.9,0-4.3-2-4-9.9,3-16.9l11-11C57.7,45.44,66,38,66,31.54v-7.1Z"/><path class="a" d="M29.7,56.74c.5-6.2,2.3-9.9,11.2-18.8l13.5-13.6C57.7,21,66,13.64,66,7.14V0c0-.1-.1,0-.1,0-.6,4.8-1.7,6.9-13.5,18.6L42,29c-5.7,5.7-10,10-11.9,15.4a19.83,19.83,0,0,0-1,9.9C29.2,55.54,29.7,57.14,29.7,56.74Z"/><path class="a" d="M59.3,98.94c0,.1.1.1.2,0a15.12,15.12,0,0,1,2.8-7.1h-3Z"/><path class="a" d="M73.3,60.14l-3.4,3.4c-5.3,5.2-10.6,11.1-10.6,16.5v7.2c0,.1.1.1.2,0,.6-5.3,3.1-8.7,10.7-16.3l3.2-3.2c6.1-6.1,11.1-12.7,10.5-20-.4-4.1-1.7-6.3-2.6-7-.4-.3-.3-.1-.2.2C84.5,49,76.1,57.34,73.3,60.14Z"/><path class="a" d="M59.3,74.74c0,.1.1.1.2,0,.6-5,3.5-8.8,10-15.4l3.1-3.1c3.9-3.9,7.4-8,7.3-14.6-.1-4.1-2.1-7.4-5.2-8.2-1.3-.3-1.2-.1-.9,0,4.3,2,4,9.9-3,16.9l-3.9,3.9c-2.5,2.5-7.6,8.1-7.6,13.2Z"/><path class="a" d="M146,72.84a18.51,18.51,0,0,0,10-2.9c.6-.4.9-.7.9-1.1l.1-.4.5-2.4.1-.4v-.2c0-.3-.1-.4-.3-.4s-.4.4-.8,1.1a8.45,8.45,0,0,1-3.9,3.8,12.36,12.36,0,0,1-5.8,1.6,10.33,10.33,0,0,1-8.3-3.9,15.37,15.37,0,0,1-3.2-10c0-3.6,1-6.4,2.9-8.4a10.54,10.54,0,0,1,7.9-3.1c4.2,0,7.5,2.1,10,6.4.3.6.5.8.7.8s.2-.1.3-.2l.1-.2-.1-.5-.6-4.7c-.1-.5-.2-.7-.4-.7a1.55,1.55,0,0,0-.6.3c-.1.1-.2.2-.3.2l-.3-.1-.3-.1-.8-.4a16.46,16.46,0,0,0-7.6-1.9,13.34,13.34,0,0,0-10,4,13.79,13.79,0,0,0-4,10.2,13.1,13.1,0,0,0,3.9,9.9C138.4,71.64,141.8,72.84,146,72.84Z"/><path class="a" d="M180.3,71.94a2.45,2.45,0,0,1-1.7-.7,3.87,3.87,0,0,1-.4-2.2V54.74a2.77,2.77,0,0,1,.3-1.3,1.34,1.34,0,0,1,.8-.7l.6-.1c.2-.1.4-.2.4-.3s-.1-.3-.4-.3a1.09,1.09,0,0,0-.5.1,12.22,12.22,0,0,1-2.2.1,14.77,14.77,0,0,1-2.1-.1c-.5,0-.8-.1-1-.1s-.4.1-.4.2.1.3.4.3a2.15,2.15,0,0,1,1.4.9,3.87,3.87,0,0,1,.4,2.2v5.1c0,.3-.1.5-.2.5s-.4.1-.8.1h-8.7a2,2,0,0,1-1.1-.2,1.6,1.6,0,0,1-.2-1v-5.3a3.23,3.23,0,0,1,.3-1.6,2,2,0,0,1,1.3-.7c.3-.1.4-.2.4-.3s-.1-.3-.4-.3a1.49,1.49,0,0,0-.6.1,12.75,12.75,0,0,1-2,.1,22.63,22.63,0,0,1-2.7-.1c-.4,0-.7-.1-.9-.1s-.4.1-.4.3.1.3.4.3a2.48,2.48,0,0,1,1.7.8,3.09,3.09,0,0,1,.5,1.9v12.7a16.53,16.53,0,0,1-.2,2.9,1.32,1.32,0,0,1-.9,1l-.7.2c-.3.1-.4.2-.4.3s.1.3.4.3a4.4,4.4,0,0,0,.9-.1h3.1a7.67,7.67,0,0,1,1.8.1,3.55,3.55,0,0,1,.7.1c.3,0,.4-.1.4-.3s-.2-.3-.6-.4a2.53,2.53,0,0,1-1.8-.8,3.72,3.72,0,0,1-.5-2.2v-5.4a1.44,1.44,0,0,1,.2-.9,2,2,0,0,1,1.1-.2h8.7c.5,0,.8,0,.9.1s.1.4.1.8v6c0,1.5-.5,2.4-1.6,2.5-.3,0-.5.2-.5.3s.1.3.4.3a5.81,5.81,0,0,0,1-.1h2.9a5.35,5.35,0,0,1,1.5.1c.3,0,.6.1.8.1s.4-.1.4-.3C180.8,72,180.6,71.94,180.3,71.94Z"/><path class="a" d="M183.6,52.64a2.24,2.24,0,0,1,1.8.9,4.66,4.66,0,0,1,.4,2.5v12.7a6.51,6.51,0,0,1-.3,2.5c-.2.4-.7.6-1.4.8-.3,0-.5.2-.5.3s.1.3.4.3h.7l1.7-.1h2.1a6.66,6.66,0,0,1,1.6.1h.6c.3,0,.5-.1.5-.3s-.2-.3-.7-.4a3.92,3.92,0,0,1-1.4-.4,2.33,2.33,0,0,1-.7-1.1,7.83,7.83,0,0,1-.3-2.7V56.64c0-2.1.4-3.3,1.1-3.5l.8-.3c.3-.1.4-.2.4-.4s-.1-.3-.4-.3h-.4l-1,.1h-1.9a24.45,24.45,0,0,1-2.9-.1h-.3c-.3,0-.4.1-.4.3C183.2,52.44,183.3,52.64,183.6,52.64Z"/><path class="a" d="M193.5,52.64c.9,0,1.5.2,1.8.7a6,6,0,0,1,.5,2.9v13.5c0,1.2-.4,1.9-1.1,2.1l-.6.2c-.3.1-.4.2-.4.3s.2.3.5.3a3.22,3.22,0,0,0,.8-.1,27.37,27.37,0,0,1,3.7-.2c1.2,0,2.8.1,4.7.3.5,0,.9.1,1.2.1a4.07,4.07,0,0,0,3.3-1.6,4,4,0,0,0,1.1-2.3c0-.3-.1-.4-.3-.4s-.2.1-.3.3c-1.1,1.7-3.6,2.6-7.5,2.6a5.32,5.32,0,0,1-2.3-.3c-.3-.2-.5-.7-.5-1.6v-6a.85.85,0,0,1,.2-.6,2.51,2.51,0,0,1,1-.1h3.3a3,3,0,0,1,1.8.4,1.67,1.67,0,0,1,.7,1.3l.1.4c0,.2.2.3.4.3s.3-.1.3-.4v-.4a10.87,10.87,0,0,1-.1-1.8,23.49,23.49,0,0,1,.1-2.6v-.3c0-.3-.1-.4-.3-.4s-.3.1-.4.4a2.54,2.54,0,0,1-.4,1.2,1.88,1.88,0,0,1-1,.4,14.73,14.73,0,0,1-2.5.2H199c-.4,0-.7,0-.8-.1s-.1-.4-.1-.8v-6c0-.5.1-.9.3-1s.6-.2,1.2-.2h2.3a18.5,18.5,0,0,1,3.1.2,1.19,1.19,0,0,1,1.1.9,2.92,2.92,0,0,1,.2.9v.4c0,.3.1.5.3.4s.3-.1.3-.2a4.17,4.17,0,0,0,.2-1.1l.1-.9c0-.6.1-1,.1-1.2v-.3c0-.3-.2-.4-.5-.4a1.76,1.76,0,0,0-.6.1,6.61,6.61,0,0,0-1.1.1l-2.1.1c-.9,0-2,.1-3.2.1-2,0-3.7-.1-5.1-.2-.4,0-.7-.1-1-.1s-.7.1-.7.4A2,2,0,0,0,193.5,52.64Z"/><path class="a" d="M211.3,70.24a2.26,2.26,0,0,0,.3,1c.1.1.2.3.4.4a8.15,8.15,0,0,0,2,.8,7.43,7.43,0,0,0,2.5.3,7.65,7.65,0,0,0,5.2-1.8,5.91,5.91,0,0,0,2-4.5c0-2.7-1.8-4.7-5.5-5.9-1.9-.6-3-1.1-3.5-1.3a3.34,3.34,0,0,1-1.3-1.1,3.14,3.14,0,0,1-.7-2.1,3,3,0,0,1,1.1-2.3,4,4,0,0,1,2.7-.9,6.53,6.53,0,0,1,3.6,1,5.43,5.43,0,0,1,2.2,2.6c.2.5.3.7.5.7s.3-.2.3-.5a1.76,1.76,0,0,0-.1-.6l-.2-1.5c-.1-.8-.2-1.3-.2-1.5,0-.5-.1-.7-.4-.7-.1,0-.1,0-.2.1l-.2.2c-.1.1-.2.1-.4.1a.37.37,0,0,1-.3-.1l-1-.4a7.71,7.71,0,0,0-7.3,1,5.1,5.1,0,0,0-.4,7.4,13.67,13.67,0,0,0,4.6,2.5,17.63,17.63,0,0,1,3.8,1.6,3.54,3.54,0,0,1,1.3,2.8,3.85,3.85,0,0,1-1.4,2.9,5,5,0,0,1-3.4,1.2,6.28,6.28,0,0,1-3.7-1.2,5.61,5.61,0,0,1-2.2-3.1c-.1-.5-.3-.7-.5-.7s-.3.1-.3.4a6.33,6.33,0,0,0,.4,1.9C211.2,69.74,211.3,70.24,211.3,70.24Z"/><path class="a" d="M244.8,72.44c.3,0,.4-.1.4-.2s-.1-.3-.4-.4a4.42,4.42,0,0,1-1.9-.7,7.68,7.68,0,0,1-1.2-2.2l-.3-.8L235,51.84c-.1-.3-.2-.4-.4-.4s-.3.1-.4.4l-7.6,16.9-.4,1a5.67,5.67,0,0,1-.8,1.3c-.3.4-.6.7-.8.7l-.5.2q-.3.15-.3.3c0,.2.1.3.4.3a4.53,4.53,0,0,0,.8-.1h2.3l1.4.1h.5c.3,0,.4-.1.4-.2s-.2-.3-.5-.3a3.17,3.17,0,0,1-1.4-.5,1.33,1.33,0,0,1-.3-1,5.31,5.31,0,0,1,.7-2.2l1-2.2c.3-.7.5-1.1.7-1.2a3.33,3.33,0,0,1,1.4-.2h5.4c.6,0,.9,0,1,.1a3.05,3.05,0,0,1,.5.9l.7,2a11.91,11.91,0,0,1,.9,3.1c0,.6-.2.9-.7,1l-.5.1c-.2,0-.4.1-.4.3s.1.3.4.3a1.09,1.09,0,0,0,.5-.1,14.32,14.32,0,0,1,2.6-.1,17.9,17.9,0,0,1,2.7.1Zm-8.7-9.2h-4.9c-.5,0-.7-.1-.7-.4a1.69,1.69,0,0,1,.2-.5l2.9-6.4a1.24,1.24,0,0,1,.2-.3c.1,0,.3.2.4.5l.1.3,2.3,5.9.1.3a.44.44,0,0,0,.1.3C236.9,63.14,236.6,63.24,236.1,63.24Z"/><path class="a" d="M268.1,72.84a18.51,18.51,0,0,0,10-2.9c.6-.4.9-.7.9-1.1l.1-.4.5-2.4.1-.4v-.2c0-.3-.1-.4-.3-.4s-.4.4-.8,1.1a8.45,8.45,0,0,1-3.9,3.8,12.36,12.36,0,0,1-5.8,1.6,10.33,10.33,0,0,1-8.3-3.9,15.37,15.37,0,0,1-3.2-10c0-3.6,1-6.4,2.9-8.4a10.54,10.54,0,0,1,7.9-3.1c4.2,0,7.5,2.1,10,6.4.3.6.5.8.7.8s.2-.1.3-.2l.1-.2-.1-.5-.6-4.7c-.1-.5-.2-.7-.4-.7a1.55,1.55,0,0,0-.6.3c-.1.1-.2.2-.3.2l-.3-.1-.3-.1-.8-.4a16.46,16.46,0,0,0-7.6-1.9,13.34,13.34,0,0,0-10,4,13.79,13.79,0,0,0-4,10.2,13.1,13.1,0,0,0,3.9,9.9C260.4,71.64,263.8,72.84,268.1,72.84Z"/><path class="a" d="M288.9,72.54c.4,0,.7.1.9.1s.5-.1.5-.3-.2-.3-.5-.3a4.74,4.74,0,0,1-2-.6,1.56,1.56,0,0,1-.6-.8,7.16,7.16,0,0,1-.1-1.7v-5.2a.76.76,0,0,1,.2-.5l.3-.1h2a1.43,1.43,0,0,1,1.2.6l.2.3,3.7,5.6a7.41,7.41,0,0,0,2.2,2.4,4,4,0,0,0,2.4.7,7.72,7.72,0,0,0,1.5-.2,1.4,1.4,0,0,0,.7-.4c0-.1-.1-.2-.3-.2h-.5c-1.1-.1-2.2-1-3.5-2.9l-.5-.7-4.1-6c2.4-1.2,3.7-2.9,3.7-5.2a4.45,4.45,0,0,0-1.7-3.8,8.37,8.37,0,0,0-5.1-1.3,16.24,16.24,0,0,0-2.1.1c-1.1.1-1.9.1-2.3.1h-1.3a4.54,4.54,0,0,1-1-.1c-.3,0-.5.1-.5.3s.2.3.5.3l.7.1c1.1.2,1.6,1,1.6,2.6v12.1a8.76,8.76,0,0,1-.4,3.4c-.2.6-.8.9-1.6,1.1-.2,0-.4.1-.4.3s.1.3.4.3a3.22,3.22,0,0,0,.8-.1c.5,0,.9-.1,1.2-.1h2.2A7.6,7.6,0,0,1,288.9,72.54Zm-1.6-19.3a1.74,1.74,0,0,1,1.2-.3,5.82,5.82,0,0,1,3.9,1.4,4.54,4.54,0,0,1,1.5,3.5,4,4,0,0,1-1.1,2.9,4.33,4.33,0,0,1-3.1,1.1H288a1.69,1.69,0,0,1-.9-.2,1.44,1.44,0,0,1-.2-.9v-6.5A2.32,2.32,0,0,1,287.3,53.24Z"/><path class="a" d="M302.4,52.64a2.24,2.24,0,0,1,1.8.9,4.66,4.66,0,0,1,.4,2.5v12.7a6.51,6.51,0,0,1-.3,2.5c-.2.4-.7.6-1.4.8-.3,0-.5.2-.5.3s.1.3.4.3h.7l1.7-.1h2.1a6.66,6.66,0,0,1,1.6.1h.6c.3,0,.5-.1.5-.3s-.2-.3-.7-.4a3.92,3.92,0,0,1-1.4-.4,2.33,2.33,0,0,1-.7-1.1,7.83,7.83,0,0,1-.3-2.7V56.64c0-2.1.4-3.3,1.1-3.5l.8-.3c.3-.1.4-.2.4-.4s-.1-.3-.4-.3h-.4l-1,.1h-1.9a24.45,24.45,0,0,1-2.9-.1h-.3c-.3,0-.4.1-.4.3A.77.77,0,0,0,302.4,52.64Z"/><path class="a" d="M312.4,70.24a2.26,2.26,0,0,0,.3,1c.1.1.2.3.4.4a8.15,8.15,0,0,0,2,.8,11.34,11.34,0,0,0,2.5.3,7.65,7.65,0,0,0,5.2-1.8,5.91,5.91,0,0,0,2-4.5c0-2.7-1.8-4.7-5.5-5.9-1.9-.6-3-1.1-3.5-1.3a3.34,3.34,0,0,1-1.3-1.1,3.14,3.14,0,0,1-.7-2.1,3,3,0,0,1,1.1-2.3,4,4,0,0,1,2.7-.9,6.53,6.53,0,0,1,3.6,1,5.43,5.43,0,0,1,2.2,2.6c.2.5.3.7.5.7s.3-.2.3-.5a1.76,1.76,0,0,0-.1-.6l-.2-1.5c-.1-.8-.2-1.3-.2-1.5,0-.5-.1-.7-.4-.7-.1,0-.1,0-.2.1l-.2.2c-.1.1-.2.1-.4.1a.37.37,0,0,1-.3-.1l-1-.4a7.71,7.71,0,0,0-7.3,1,5.1,5.1,0,0,0-.4,7.4,13.67,13.67,0,0,0,4.6,2.5,17.63,17.63,0,0,1,3.8,1.6,3.54,3.54,0,0,1,1.3,2.8,3.85,3.85,0,0,1-1.4,2.9,5,5,0,0,1-3.4,1.2,6.28,6.28,0,0,1-3.7-1.2,5.61,5.61,0,0,1-2.2-3.1c-.1-.5-.3-.7-.5-.7s-.3.1-.3.4a6.33,6.33,0,0,0,.4,1.9C312.2,69.74,312.3,70.24,312.4,70.24Z"/><path class="a" d="M333.2,72.54h4.7a2.64,2.64,0,0,0,.7.1c.3,0,.4-.1.4-.3s-.2-.3-.5-.3a2,2,0,0,1-1.9-2.1V54.84a1.44,1.44,0,0,1,.2-.9,1.29,1.29,0,0,1,.8-.2h4.2a3.42,3.42,0,0,1,1.7.3,2,2,0,0,1,.6,1.4c.1.3.2.5.4.5s.3-.2.3-.5a2.25,2.25,0,0,0-.1-.7c0-.3-.1-.7-.1-1.3a1.6,1.6,0,0,0-.2-1,1.6,1.6,0,0,0-1-.2H327.5a1.17,1.17,0,0,0-.7.2,1.44,1.44,0,0,0-.2.9,16.23,16.23,0,0,1-.2,1.8c-.1.6-.2.9-.2,1.1s.1.4.3.4.3-.2.4-.6a3.78,3.78,0,0,1,.8-1.8,2.65,2.65,0,0,1,1.7-.5h3.9c.4,0,.6,0,.7.1a1,1,0,0,1,.2.7v15.1a2.5,2.5,0,0,1-.4,1.7,2.62,2.62,0,0,1-1.5.6c-.3,0-.5.1-.5.3s.1.3.4.3Z"/><path class="a" d="M346.2,52.64a2.24,2.24,0,0,1,1.8.9,4.66,4.66,0,0,1,.4,2.5v12.7a6.51,6.51,0,0,1-.3,2.5c-.2.4-.7.6-1.4.8-.3,0-.5.2-.5.3s.1.3.4.3h.7l1.7-.1h2.1a6.66,6.66,0,0,1,1.6.1h.6c.3,0,.5-.1.5-.3s-.2-.3-.7-.4a3.92,3.92,0,0,1-1.4-.4,2.33,2.33,0,0,1-.7-1.1,7.83,7.83,0,0,1-.3-2.7V56.64c0-2.1.4-3.3,1.1-3.5l.8-.3c.3-.1.4-.2.4-.4s-.1-.3-.4-.3h-.4l-1,.1h-1.9a23.59,23.59,0,0,1-2.9-.1h-.3c-.3,0-.4.1-.4.3A.77.77,0,0,0,346.2,52.64Z"/><path class="a" d="M367.6,64.74a3.05,3.05,0,0,1,.5.9l.7,2a11.91,11.91,0,0,1,.9,3.1c0,.6-.2.9-.7,1l-.5.1c-.2,0-.4.1-.4.3s.1.3.4.3a1.09,1.09,0,0,0,.5-.1,14.32,14.32,0,0,1,2.6-.1,17.9,17.9,0,0,1,2.7.1h.6c.3,0,.4-.1.4-.2s-.1-.3-.4-.4A4.42,4.42,0,0,1,373,71a7.68,7.68,0,0,1-1.2-2.2l-.3-.8-6.4-16.3c-.1-.3-.2-.4-.4-.4s-.3.1-.4.4l-7.6,16.9-.4,1a5.67,5.67,0,0,1-.8,1.3c-.3.4-.6.7-.8.7l-.5.2q-.3.15-.3.3c0,.2.1.3.4.3a4.53,4.53,0,0,0,.8-.1h2.3l1.4.1h.5c.3,0,.4-.1.4-.2s-.2-.3-.5-.3a3.17,3.17,0,0,1-1.4-.5,1.33,1.33,0,0,1-.3-1,5.31,5.31,0,0,1,.7-2.2l1-2.2c.3-.7.5-1.1.7-1.2a3.33,3.33,0,0,1,1.4-.2h5.4A5.54,5.54,0,0,1,367.6,64.74Zm-5.9-1.5h-.4c-.5,0-.7-.1-.7-.4a1.69,1.69,0,0,1,.2-.5l2.9-6.4a1.24,1.24,0,0,1,.2-.3c.1,0,.3.2.4.5l.1.3,2.3,5.9.1.3a.44.44,0,0,0,.1.3c0,.2-.2.4-.7.4h-4.5Z"/><path class="a" d="M395.3,52a2,2,0,0,0-.7.1,6.62,6.62,0,0,1-1.5.1,20.18,20.18,0,0,1-2.7-.1h-.6c-.3,0-.4.1-.4.3s.1.3.4.4a4.17,4.17,0,0,1,2.1.8,2.52,2.52,0,0,1,.7,1.8l.2,3.4v9.3c0,.2-.1.3-.2.3s-.2-.1-.4-.4l-13.6-15.4a.87.87,0,0,0-.7-.4h-2.5a.27.27,0,0,0-.3.3c0,.2.1.3.4.3a3.16,3.16,0,0,1,2.4,1.7,8.86,8.86,0,0,1,.8,4v10.1a4.5,4.5,0,0,1-.4,2.3,2.69,2.69,0,0,1-1.7,1.1c-.3.1-.4.2-.4.4s.2.3.4.3a1.09,1.09,0,0,0,.5-.1c.3,0,.7-.1,1.1-.1h.7l1.5.1a8.87,8.87,0,0,1,1.3.1h.4a.27.27,0,0,0,.3-.3c0-.2-.2-.3-.5-.4a3.73,3.73,0,0,1-1.6-.5c-.3-.2-.4-.7-.5-1.3V58.54c0-.4.1-.7.3-.7s.1,0,.2.1l.1.2,12.5,14.3.3.4a.37.37,0,0,0,.3.1c.2,0,.4-.1.4-.3s.1-.9.1-2V55.24a4.09,4.09,0,0,1,.3-1.9,1.76,1.76,0,0,1,1.2-.7q.3-.15.3-.3A.55.55,0,0,0,395.3,52Z"/><path class="a" d="M409.2,64.64c.6,0,.9,0,1,.1a3.05,3.05,0,0,1,.5.9l.7,2a11.91,11.91,0,0,1,.9,3.1c0,.6-.2.9-.7,1l-.5.1c-.2,0-.4.1-.4.3s.1.3.4.3a1.09,1.09,0,0,0,.5-.1,14.32,14.32,0,0,1,2.6-.1,17.9,17.9,0,0,1,2.7.1h.6c.3,0,.4-.1.4-.2s-.1-.3-.4-.4a4.42,4.42,0,0,1-1.9-.7,7.68,7.68,0,0,1-1.2-2.2l-.3-.8-6.4-16.3c-.1-.3-.2-.4-.4-.4s-.3.1-.4.4l-7.6,16.9-.4,1a5.67,5.67,0,0,1-.8,1.3c-.3.4-.6.7-.8.7l-.5.2q-.3.15-.3.3c0,.2.1.3.4.3a4.53,4.53,0,0,0,.8-.1H400l1.4.1h.5c.3,0,.4-.1.4-.2s-.2-.3-.5-.3a3.17,3.17,0,0,1-1.4-.5,1.33,1.33,0,0,1-.3-1,5.31,5.31,0,0,1,.7-2.2l1-2.2c.3-.7.5-1.1.7-1.2a3.33,3.33,0,0,1,1.4-.2h5.3Zm-6-1.8a1.69,1.69,0,0,1,.2-.5l2.9-6.4a1.24,1.24,0,0,1,.2-.3c.1,0,.3.2.4.5l.1.3,2.3,5.9.1.3a.44.44,0,0,0,.1.3c0,.2-.2.4-.7.4h-4.9C403.4,63.24,403.2,63.14,403.2,62.84Z"/><path class="a" d="M159.6,104a5,5,0,0,1-2.5-.9,9.85,9.85,0,0,1-1.5-3l-.4-1.1-8.4-21.6c-.1-.4-.3-.6-.5-.6s-.4.2-.6.6l-10.1,22.4-.6,1.3a9.91,9.91,0,0,1-1.1,1.7,2.39,2.39,0,0,1-1.1,1l-.7.2c-.2.1-.3.2-.3.4a.46.46,0,0,0,.5.4,7.47,7.47,0,0,0,1.1-.1h3.1l1.9.1h.7c.4,0,.6-.1.5-.3s-.2-.4-.6-.5a3.9,3.9,0,0,1-1.8-.7,1.73,1.73,0,0,1-.5-1.3,8.11,8.11,0,0,1,.9-2.9l1.3-2.9a6.13,6.13,0,0,1,.9-1.6c.2-.2.8-.2,1.8-.2h7.1a2.75,2.75,0,0,1,1.3.2q.3.15.6,1.2l1,2.6a16.14,16.14,0,0,1,1.2,4.1c0,.8-.3,1.2-1,1.3l-.6.1c-.3.1-.5.2-.5.4s.2.4.5.4a1.76,1.76,0,0,0,.6-.1,25.67,25.67,0,0,1,3.4-.1,32.42,32.42,0,0,1,3.6.1h.7c.4,0,.5-.1.5-.3C160.2,104.24,160,104,159.6,104Zm-11.5-11.5h-6.4c-.6,0-.9-.2-.9-.5a1.74,1.74,0,0,1,.3-.7l3.8-8.5c.1-.3.2-.4.3-.4s.4.2.5.6l.2.4,3.1,7.8.1.4a1.09,1.09,0,0,1,.1.5C149.1,92.44,148.7,92.54,148.1,92.54Z"/><path class="a" d="M180,84.34h-3a9.29,9.29,0,0,1-1.3-.1h-.4c-.3,0-.5.1-.5.3s.3.3.8.4a2.19,2.19,0,0,1,.9.3,1.17,1.17,0,0,1,.2.7c0,.9-.7,3.1-2.1,6.4l-3.2,7.7-.2.5c-.3.6-.4.8-.5.8s-.2-.1-.4-.5l-5.7-13.1a6.22,6.22,0,0,1-.6-2.1.59.59,0,0,1,.2-.5,5.57,5.57,0,0,1,.8-.4q.3-.15.3-.3c0-.2-.1-.3-.4-.3h-.4c-.4,0-.7.1-.9.1h-4.3c-.3,0-.4.1-.4.3s0,.2.1.2.4.1.9.2a2.28,2.28,0,0,1,1.2.6,7.52,7.52,0,0,1,1,1.7l7.5,17.4c.2.5.4.7.6.7s.4-.2.6-.7l7.4-17.2.4-1a3,3,0,0,1,1.6-1.7q.3-.15.3-.3C180.3,84.44,180.2,84.34,180,84.34Z"/><path class="a" d="M202.1,84.34h-2.9a9.29,9.29,0,0,1-1.3-.1h-.4c-.3,0-.5.1-.5.3s.3.3.8.4a2.19,2.19,0,0,1,.9.3,1.17,1.17,0,0,1,.2.7c0,.9-.7,3.1-2.1,6.4l-3.2,7.7-.2.5c-.3.6-.4.8-.5.8s-.2-.1-.4-.5l-5.7-13.1a6.22,6.22,0,0,1-.6-2.1.59.59,0,0,1,.2-.5,5.57,5.57,0,0,1,.8-.4q.3-.15.3-.3c0-.2-.1-.3-.4-.3h-.4c-.4,0-.7.1-.9.1h-4.3c-.3,0-.4.1-.4.3s0,.2.1.2.4.1.9.2a2.28,2.28,0,0,1,1.2.6,7.52,7.52,0,0,1,1,1.7l7.5,17.4c.2.5.4.7.6.7s.4-.2.6-.7l7.4-17.2.4-1a3,3,0,0,1,1.6-1.7q.3-.15.3-.3C202.4,84.44,202.3,84.34,202.1,84.34Z"/><path class="a" d="M218.4,100.64q-.15,0-.3.3c-1.1,1.7-3.6,2.6-7.5,2.6a5.32,5.32,0,0,1-2.3-.3c-.3-.2-.5-.7-.5-1.6v-5.9a.85.85,0,0,1,.2-.6,2.51,2.51,0,0,1,1-.1h3.3a3,3,0,0,1,1.8.4,1.67,1.67,0,0,1,.7,1.3l.1.4c0,.2.2.3.4.3s.3-.1.3-.4v-.4a10.87,10.87,0,0,1-.1-1.8,23.49,23.49,0,0,1,.1-2.6v-.3c0-.3-.1-.4-.3-.4s-.3.1-.4.4a3.14,3.14,0,0,1-.4,1.2,1.88,1.88,0,0,1-1,.4,14.73,14.73,0,0,1-2.5.2h-2.3c-.4,0-.7,0-.8-.1s-.1-.4-.1-.8v-6c0-.5.1-.9.3-1s.6-.2,1.2-.2h2.3a18.5,18.5,0,0,1,3.1.2,1.3,1.3,0,0,1,1.1.9,2.92,2.92,0,0,1,.2.9V88c0,.3.1.5.3.4s.3-.1.3-.2a4.17,4.17,0,0,0,.2-1.1l.1-.9c0-.6.1-1,.1-1.2v-.3c0-.3-.2-.4-.5-.4a1.76,1.76,0,0,0-.6.1,6.61,6.61,0,0,0-1.1.1l-2.1.1c-.9,0-2,.1-3.2.1-2,0-3.7-.1-5.1-.2-.4,0-.7-.1-1-.1s-.7.1-.7.4.1.3.4.3c.9,0,1.5.2,1.8.7a6,6,0,0,1,.5,2.9v13.5c0,1.2-.4,1.9-1.1,2.1l-.6.2c-.3.1-.4.2-.4.3s.2.3.5.3a3.22,3.22,0,0,0,.8-.1,27.37,27.37,0,0,1,3.7-.2c1.2,0,2.8.1,4.7.3.5,0,.9.1,1.2.1a4.07,4.07,0,0,0,3.3-1.6,4,4,0,0,0,1.1-2.3C218.7,100.74,218.6,100.64,218.4,100.64Z"/><path class="a" d="M240.1,84.34a2,2,0,0,0-.7.1,6.62,6.62,0,0,1-1.5.1,20.18,20.18,0,0,1-2.7-.1h-.6c-.3,0-.4.1-.4.3s.1.3.4.4a4.17,4.17,0,0,1,2.1.8,2.74,2.74,0,0,1,.7,1.8l.2,3.4v9.3c0,.2-.1.3-.2.3s-.2-.1-.4-.4l-13.6-15.4a.87.87,0,0,0-.7-.4h-2.5a.27.27,0,0,0-.3.3c0,.2.1.3.4.3a3.16,3.16,0,0,1,2.4,1.7,8.86,8.86,0,0,1,.8,4v10.1a4.5,4.5,0,0,1-.4,2.3,2.69,2.69,0,0,1-1.7,1.1c-.3.1-.4.2-.4.4s.2.3.4.3a1.09,1.09,0,0,0,.5-.1c.3,0,.7-.1,1.1-.1h.7l1.5.1a10.87,10.87,0,0,1,1.3.1h.4a.27.27,0,0,0,.3-.3c0-.2-.2-.3-.5-.4a3.73,3.73,0,0,1-1.6-.5c-.3-.2-.4-.7-.5-1.3V90.84c0-.4.1-.7.3-.7s.1,0,.2.1l.1.2,12.5,14.3.3.4a.37.37,0,0,0,.3.1c.2,0,.4-.1.4-.3s.1-.9.1-2v-15a4.09,4.09,0,0,1,.3-1.9,1.76,1.76,0,0,1,1.2-.7q.3-.15.3-.3C240.5,84.44,240.3,84.34,240.1,84.34Z"/><path class="a" d="M260.2,85.74a.92.92,0,0,0-1.2-1.2H243.1a1.17,1.17,0,0,0-.7.2,1.44,1.44,0,0,0-.2.9,16.23,16.23,0,0,1-.2,1.8c-.1.6-.2.9-.2,1.1s.1.4.3.4.3-.2.4-.6a3.78,3.78,0,0,1,.8-1.8A2.65,2.65,0,0,1,245,86h3.9c.4,0,.6,0,.7.1a1,1,0,0,1,.2.7v15.1a2.5,2.5,0,0,1-.4,1.7,2.62,2.62,0,0,1-1.5.6c-.3,0-.5.1-.5.3s.1.3.4.3a5.81,5.81,0,0,0,1-.1h4.7a2.64,2.64,0,0,0,.7.1c.3,0,.4-.1.4-.3s-.2-.3-.5-.3a2,2,0,0,1-1.9-2.1V87a1.44,1.44,0,0,1,.2-.9,1.29,1.29,0,0,1,.8-.2h4.2a3.42,3.42,0,0,1,1.7.3,2,2,0,0,1,.6,1.4c.1.3.2.5.4.5s.3-.2.3-.5a2.25,2.25,0,0,0-.1-.7A3.78,3.78,0,0,1,260.2,85.74Z"/><path class="a" d="M268.8,104.14a3.92,3.92,0,0,1-1.4-.4,2.33,2.33,0,0,1-.7-1.1,7.83,7.83,0,0,1-.3-2.7V88.84c0-2.1.4-3.3,1.1-3.5l.8-.3c.3-.1.4-.2.4-.4s-.1-.3-.4-.3h-.4l-1,.1H265a23.59,23.59,0,0,1-2.9-.1h-.3c-.3,0-.4.1-.4.3s.2.3.5.3a2.24,2.24,0,0,1,1.8.9,4.66,4.66,0,0,1,.4,2.5V101a6.51,6.51,0,0,1-.3,2.5c-.2.4-.7.6-1.4.8-.3,0-.5.2-.5.3s.1.3.4.3h.7l1.7-.1h2.1a6.66,6.66,0,0,1,1.6.1h.6c.3,0,.5-.1.5-.3S269.3,104.24,268.8,104.14Z"/><path class="a" d="M278.8,92.94a20.75,20.75,0,0,1-3.5-1.3,3.34,3.34,0,0,1-1.3-1.1,3.14,3.14,0,0,1-.7-2.1,3,3,0,0,1,1.1-2.3,4,4,0,0,1,2.7-.9,6.53,6.53,0,0,1,3.6,1,5.43,5.43,0,0,1,2.2,2.6c.2.5.3.7.5.7s.3-.2.3-.5a1.76,1.76,0,0,0-.1-.6l-.2-1.5c-.1-.8-.2-1.3-.2-1.5,0-.5-.1-.7-.4-.7-.1,0-.1,0-.2.1l-.2.2c-.1.1-.2.1-.4.1a.37.37,0,0,1-.3-.1l-1-.4a7.71,7.71,0,0,0-7.3,1A5.1,5.1,0,0,0,273,93a13.67,13.67,0,0,0,4.6,2.5,17.63,17.63,0,0,1,3.8,1.6,3.54,3.54,0,0,1,1.3,2.8,3.85,3.85,0,0,1-1.4,2.9,5,5,0,0,1-3.4,1.2,6.28,6.28,0,0,1-3.7-1.2,5.61,5.61,0,0,1-2.2-3.1c-.1-.5-.3-.7-.5-.7s-.3.1-.3.4a6.33,6.33,0,0,0,.4,1.9c.2.8.3,1.3.4,1.3a2.26,2.26,0,0,0,.3,1c.1.1.2.3.4.4a8.15,8.15,0,0,0,2,.8,11.34,11.34,0,0,0,2.5.3,7.65,7.65,0,0,0,5.2-1.8,5.91,5.91,0,0,0,2-4.5C284.2,96,282.4,94,278.8,92.94Z"/><path class="a" d="M296.2,86.14a1.29,1.29,0,0,1,.8-.2h4.2a3.42,3.42,0,0,1,1.7.3,2,2,0,0,1,.6,1.4c.1.3.2.5.4.5s.3-.2.3-.5a2.25,2.25,0,0,0-.1-.7c0-.3-.1-.7-.1-1.3a.92.92,0,0,0-1.2-1.2H286.9a1.17,1.17,0,0,0-.7.2,1.44,1.44,0,0,0-.2.9,16.23,16.23,0,0,1-.2,1.8c-.1.6-.2.9-.2,1.1s.1.4.3.4.3-.2.4-.6a3.78,3.78,0,0,1,.8-1.8,2.65,2.65,0,0,1,1.7-.5h3.9c.4,0,.6,0,.7.1a1,1,0,0,1,.2.7v15.1a2.5,2.5,0,0,1-.4,1.7,2.62,2.62,0,0,1-1.5.6c-.3,0-.5.1-.5.3s.1.3.4.3a5.81,5.81,0,0,0,1-.1h4.7a2.64,2.64,0,0,0,.7.1c.3,0,.4-.1.4-.3s-.2-.3-.5-.3A2,2,0,0,1,296,102V86.94A1.88,1.88,0,0,1,296.2,86.14Z"/><path class="a" d="M323.2,104.14a4.42,4.42,0,0,1-1.9-.7,7.68,7.68,0,0,1-1.2-2.2l-.3-.8-6.4-16.3c-.1-.3-.2-.4-.4-.4s-.3.1-.4.4L305,101l-.4,1a5.67,5.67,0,0,1-.8,1.3c-.3.4-.6.7-.8.7l-.5.2a.32.32,0,0,0-.3.3c0,.2.1.3.4.3a4.53,4.53,0,0,0,.8-.1h2.3l1.4.1h.5c.3,0,.4-.1.4-.2s-.2-.3-.5-.3a3.17,3.17,0,0,1-1.4-.5,1.33,1.33,0,0,1-.3-1,5.31,5.31,0,0,1,.7-2.2l1-2.2c.3-.7.5-1.1.7-1.2a3.33,3.33,0,0,1,1.4-.2H315c.6,0,.9,0,1,.1a3.05,3.05,0,0,1,.5.9l.7,2a11.91,11.91,0,0,1,.9,3.1c0,.6-.2.9-.7,1l-.5.1c-.2,0-.4.1-.4.3s.1.3.4.3a1.09,1.09,0,0,0,.5-.1,14.32,14.32,0,0,1,2.6-.1,17.9,17.9,0,0,1,2.7.1h.6c.3,0,.4-.1.4-.2S323.5,104.24,323.2,104.14Zm-8.7-8.6h-4.9c-.5,0-.7-.1-.7-.4a1.69,1.69,0,0,1,.2-.5l2.9-6.4a1.24,1.24,0,0,1,.2-.3c.1,0,.3.2.4.5l.1.3,2.3,5.9.1.3a.44.44,0,0,0,.1.3C315.3,95.44,315,95.54,314.5,95.54Z"/><path class="a" d="M343.1,77.54a21.75,21.75,0,0,0-2.6.1l-1.8.2a26.35,26.35,0,0,1-3.1.1h-1.4l-1.5-.1c-.3,0-.5.1-.5.4s.2.4.6.4a2.93,2.93,0,0,1,2.2,1.1,5.36,5.36,0,0,1,.7,2.9v17.6a6.29,6.29,0,0,1-.4,2.9,2.37,2.37,0,0,1-1.7,1c-.4.1-.5.2-.5.4s.2.5.7.4c.3,0,.6-.1,1.1-.1a35.3,35.3,0,0,1,3.6-.2c1.3,0,2.8.1,4.6.2a15.26,15.26,0,0,0,1.8.1,14.83,14.83,0,0,0,7.9-2.3,12.54,12.54,0,0,0,4.5-4.9,14.21,14.21,0,0,0,1.6-6.8,12.51,12.51,0,0,0-3.7-9.4C352.5,78.84,348.5,77.54,343.1,77.54Zm8.2,24.6a11.32,11.32,0,0,1-6,1.7,14.77,14.77,0,0,1-2.7-.3,13.07,13.07,0,0,1-2.7-.7,1.59,1.59,0,0,1-1.2-1.6V81a2.17,2.17,0,0,1,.5-1.6,7.8,7.8,0,0,1,3.9-.7,12,12,0,0,1,7.4,2.2,11.24,11.24,0,0,1,3.9,4.9,16.87,16.87,0,0,1,1.4,6.8C355.9,97,354.4,100.24,351.3,102.14Z"/><path class="a" d="M377,100.64q-.15,0-.3.3c-1.1,1.7-3.6,2.6-7.5,2.6a5.32,5.32,0,0,1-2.3-.3c-.3-.2-.5-.7-.5-1.6v-5.9a.85.85,0,0,1,.2-.6,2.51,2.51,0,0,1,1-.1h3.3a3,3,0,0,1,1.8.4,1.67,1.67,0,0,1,.7,1.3l.1.4c0,.2.2.3.4.3s.3-.1.3-.4v-.4a10.87,10.87,0,0,1-.1-1.8,23.49,23.49,0,0,1,.1-2.6v-.3c0-.3-.1-.4-.3-.4s-.3.1-.4.4a3.14,3.14,0,0,1-.4,1.2,1.88,1.88,0,0,1-1,.4,14.73,14.73,0,0,1-2.5.2h-2.3c-.4,0-.7,0-.8-.1s-.1-.4-.1-.8v-6c0-.5.1-.9.3-1s.6-.2,1.2-.2h2.3a18.5,18.5,0,0,1,3.1.2,1.19,1.19,0,0,1,1.1.9,2.92,2.92,0,0,1,.2.9V88c0,.3.1.5.3.4s.3-.1.3-.2a4.17,4.17,0,0,0,.2-1.1l.1-.9c0-.6.1-1,.1-1.2v-.3c0-.3-.2-.4-.5-.4a1.76,1.76,0,0,0-.6.1,6.61,6.61,0,0,0-1.1.1l-2.1.1c-.9,0-2,.1-3.2.1-2,0-3.7-.1-5.1-.2-.4,0-.7-.1-1-.1s-.7.1-.7.4.1.3.4.3c.9,0,1.5.2,1.8.7a6,6,0,0,1,.5,2.9v13.5c0,1.2-.4,1.9-1.1,2.1l-.6.2c-.3.1-.4.2-.4.3s.2.3.5.3a3.22,3.22,0,0,0,.8-.1,27.37,27.37,0,0,1,3.7-.2c1.2,0,2.8.1,4.7.3.5,0,.9.1,1.2.1a4.07,4.07,0,0,0,3.3-1.6,4,4,0,0,0,1.1-2.3C377.3,100.74,377.2,100.64,377,100.64Z"/><path class="a" d="M394.6,100.84c-.1,0-.3.1-.4.4a4.08,4.08,0,0,1-2.6,1.7,17.33,17.33,0,0,1-4.8.7c-1.3,0-2-.1-2.2-.3a4,4,0,0,1-.3-2.1V87.84c0-1.6.4-2.4,1.3-2.7l.5-.1c.3-.1.4-.2.4-.4s-.1-.2-.4-.2h-.6c-.7,0-1.6.1-2.5.1a17,17,0,0,1-2.3-.1c-.4,0-.7-.1-.9-.1s-.5.1-.5.3.1.2.4.3l.7.1c1.1.2,1.6,1,1.6,2.3v13.9a4.92,4.92,0,0,1-.3,2,2.15,2.15,0,0,1-1.4.9c-.3.1-.4.2-.4.3s.1.3.4.3a2.49,2.49,0,0,0,.8-.1,24.06,24.06,0,0,1,3.1-.2c1,0,2,0,3,.1l1.6.1h1.1c1.9,0,3.3-.5,4.1-1.6a4.93,4.93,0,0,0,1-2.1C394.9,100.94,394.8,100.84,394.6,100.84Z"/><path class="a" d="M413.6,89c-2.5-.8-4-1.4-4.7-1.7a6,6,0,0,1-1.8-1.5,4.47,4.47,0,0,1-.9-2.8,4.1,4.1,0,0,1,1.4-3.1,5.13,5.13,0,0,1,3.5-1.2,8.72,8.72,0,0,1,4.8,1.4,7,7,0,0,1,2.9,3.5q.3.9.6.9c.3,0,.4-.2.4-.6a3.22,3.22,0,0,0-.1-.8l-.3-2a18.75,18.75,0,0,1-.3-2c0-.7-.2-1-.5-1-.1,0-.2,0-.2.1l-.3.2c-.2.1-.3.2-.5.2a.76.76,0,0,1-.4-.1l-1.4-.6a9.69,9.69,0,0,0-3.6-.6,9.32,9.32,0,0,0-6.1,2,6.45,6.45,0,0,0-2.4,5.2,6.18,6.18,0,0,0,1.8,4.6,16.67,16.67,0,0,0,6.2,3.3,18.75,18.75,0,0,1,5.1,2.2,4.8,4.8,0,0,1,1.7,3.7,4.91,4.91,0,0,1-1.9,3.9,6.62,6.62,0,0,1-4.6,1.6,8.09,8.09,0,0,1-4.9-1.7,8,8,0,0,1-3-4.1c-.2-.6-.4-1-.6-1s-.4.2-.4.6a13.18,13.18,0,0,0,.5,2.5c.3,1.1.5,1.7.5,1.8.2.7.3,1.2.4,1.4a1.18,1.18,0,0,0,.5.5,8.05,8.05,0,0,0,2.7,1,13.47,13.47,0,0,0,3.3.4,10,10,0,0,0,6.8-2.3,7.7,7.7,0,0,0,2.7-6C420.9,93.24,418.5,90.64,413.6,89Z"/><path class="a" d="M439.1,100.64q-.15,0-.3.3c-1.1,1.7-3.6,2.6-7.5,2.6a5.32,5.32,0,0,1-2.3-.3c-.3-.2-.5-.7-.5-1.6v-5.9a.85.85,0,0,1,.2-.6,2.51,2.51,0,0,1,1-.1H433a3,3,0,0,1,1.8.4,1.67,1.67,0,0,1,.7,1.3l.1.4c0,.2.2.3.4.3s.3-.1.3-.4v-.4a10.87,10.87,0,0,1-.1-1.8,23.49,23.49,0,0,1,.1-2.6v-.3c0-.3-.1-.4-.3-.4s-.3.1-.4.4a3.14,3.14,0,0,1-.4,1.2,1.88,1.88,0,0,1-1,.4,14.73,14.73,0,0,1-2.5.2h-2.3c-.4,0-.7,0-.8-.1s-.1-.4-.1-.8v-6c0-.5.1-.9.3-1s.6-.2,1.2-.2h2.3a18.5,18.5,0,0,1,3.1.2,1.3,1.3,0,0,1,1.1.9,2.92,2.92,0,0,1,.2.9V88c0,.3.1.5.3.4s.3-.1.3-.2a4.17,4.17,0,0,0,.2-1.1l.1-.9c0-.6.1-1,.1-1.2v-.3c0-.3-.2-.4-.5-.4a1.76,1.76,0,0,0-.6.1,6.61,6.61,0,0,0-1.1.1l-2.1.1c-.9,0-2,.1-3.2.1-2,0-3.7-.1-5.1-.2-.4,0-.7-.1-1-.1s-.7.1-.7.4.1.3.4.3c.9,0,1.5.2,1.8.7a6,6,0,0,1,.5,2.9v13.5c0,1.2-.4,1.9-1.1,2.1l-.6.2c-.3.1-.4.2-.4.3s.2.3.5.3a3.22,3.22,0,0,0,.8-.1,27.37,27.37,0,0,1,3.7-.2c1.2,0,2.8.1,4.7.3.5,0,.9.1,1.2.1a4.07,4.07,0,0,0,3.3-1.6,4,4,0,0,0,1.1-2.3C439.4,100.74,439.3,100.64,439.1,100.64Z"/><path class="a" d="M458.5,85.74a.92.92,0,0,0-1.2-1.2H441.4a1.17,1.17,0,0,0-.7.2,1.44,1.44,0,0,0-.2.9,16.23,16.23,0,0,1-.2,1.8c-.1.6-.2.9-.2,1.1s.1.4.3.4.3-.2.4-.6a3.78,3.78,0,0,1,.8-1.8,2.65,2.65,0,0,1,1.7-.5h3.9c.4,0,.6,0,.7.1a1,1,0,0,1,.2.7v15.1a2.5,2.5,0,0,1-.4,1.7,2.62,2.62,0,0,1-1.5.6c-.3,0-.5.1-.5.3s.1.3.4.3a5.81,5.81,0,0,0,1-.1h4.7a2.64,2.64,0,0,0,.7.1c.3,0,.4-.1.4-.3s-.2-.3-.5-.3a2,2,0,0,1-1.9-2.1V87a1.44,1.44,0,0,1,.2-.9,1.29,1.29,0,0,1,.8-.2h4.2a3.42,3.42,0,0,1,1.7.3,2,2,0,0,1,.6,1.4c.1.3.2.5.4.5s.3-.2.3-.5a2.25,2.25,0,0,0-.1-.7A3.78,3.78,0,0,1,458.5,85.74Z"/><path class="a" d="M478.2,85.74a.92.92,0,0,0-1.2-1.2H461.1a1.17,1.17,0,0,0-.7.2,1.44,1.44,0,0,0-.2.9,16.23,16.23,0,0,1-.2,1.8c-.1.6-.2.9-.2,1.1s.1.4.3.4.3-.2.4-.6a3.78,3.78,0,0,1,.8-1.8A2.65,2.65,0,0,1,463,86h3.9c.4,0,.6,0,.7.1a1,1,0,0,1,.2.7v15.1a2.5,2.5,0,0,1-.4,1.7,2.62,2.62,0,0,1-1.5.6c-.3,0-.5.1-.5.3s.1.3.4.3a5.81,5.81,0,0,0,1-.1h4.7a2.64,2.64,0,0,0,.7.1c.3,0,.4-.1.4-.3s-.2-.3-.5-.3a2,2,0,0,1-1.9-2.1V87a1.44,1.44,0,0,1,.2-.9,1.29,1.29,0,0,1,.8-.2h4.2a3.42,3.42,0,0,1,1.7.3,2,2,0,0,1,.6,1.4c.1.3.2.5.4.5s.3-.2.3-.5a2.25,2.25,0,0,0-.1-.7C478.3,86.74,478.2,86.24,478.2,85.74Z"/><path class="a" d="M486.8,104.14a3.92,3.92,0,0,1-1.4-.4,2.33,2.33,0,0,1-.7-1.1,7.83,7.83,0,0,1-.3-2.7V88.84c0-2.1.4-3.3,1.1-3.5l.8-.3c.3-.1.4-.2.4-.4s-.1-.3-.4-.3h-.4l-1,.1H483a23.59,23.59,0,0,1-2.9-.1h-.3c-.3,0-.4.1-.4.3s.2.3.5.3a2.24,2.24,0,0,1,1.8.9,4.66,4.66,0,0,1,.4,2.5V101a6.51,6.51,0,0,1-.3,2.5c-.2.4-.7.6-1.5.8-.3,0-.5.2-.5.3s.1.3.4.3h.7l1.7-.1h2.1a6.66,6.66,0,0,1,1.6.1h.6c.3,0,.5-.1.5-.3S487.3,104.24,486.8,104.14Z"/><path class="a" d="M512.7,104.14a2.13,2.13,0,0,1-1.5-.7,2.36,2.36,0,0,1-.4-1.6l-.1-1.9-.3-8-.1-3.6a7.65,7.65,0,0,1,.3-2.5,1.44,1.44,0,0,1,1.1-.9l.6-.2a.32.32,0,0,0,.3-.3.27.27,0,0,0-.3-.3h-.4c-.4,0-.9.1-1.5.1h-.5a3.55,3.55,0,0,1-.7-.1c-.2,0-.3,0-.4.1a1.63,1.63,0,0,0-.3.6l-6.9,14.9-.1.3-.2.4a1.24,1.24,0,0,1-.2.3,1.09,1.09,0,0,1-.2-.4l-.8-1.5-6.2-13.3-.2-.3c-.3-.6-.6-.9-1.1-.9h-3.5c-.2,0-.4.1-.4.3s.1.3.4.4a2.86,2.86,0,0,1,2.3,1.6,7.73,7.73,0,0,1,.7,3.9c0,.8-.1,2.8-.2,5.9l-.2,4.3a6.94,6.94,0,0,1-.5,2.6,2.38,2.38,0,0,1-1.5,1,.45.45,0,0,0-.4.3c0,.2.1.3.4.3h.5a14.09,14.09,0,0,1,2.1-.1c.6,0,1.5,0,2.6.1h.5c.3,0,.4-.1.4-.3s-.3-.3-.9-.4c-1.2-.2-1.8-1.1-1.8-2.9v-3.6l.3-7.3,5.6,12,.3.6c.2.5.4.7.4.8.2.5.4.7.7.7s.4-.2.6-.7c.1-.1.1-.3.3-.6s.5-1,.8-1.7a17.73,17.73,0,0,0,1.2-2.8l1.5-3.1,1.3-2.8c.3-.6.8-1.6,1.7-3.1l.4,9.4.1,2.4a4.39,4.39,0,0,1-.3,1.9,1.84,1.84,0,0,1-1.2.8c-.2.1-.4.2-.4.3s.1.3.4.3.7,0,1.8-.1c.7,0,1.1-.1,1.4-.1a4.48,4.48,0,0,1,1.2.1l1.2.1h.4c.4,0,.5-.1.5-.3C513.5,104.34,513.2,104.24,512.7,104.14Z"/><path class="a" d="M526.3,84a13.64,13.64,0,0,0-4.4.8,9.7,9.7,0,0,0-3.5,2.3,9.33,9.33,0,0,0-2.1,3.3,11.4,11.4,0,0,0-.8,4,10.09,10.09,0,0,0,3,7.6,10.65,10.65,0,0,0,7.7,2.9,10.09,10.09,0,0,0,7.6-3,10.55,10.55,0,0,0,3-7.8,9.58,9.58,0,0,0-3-7.3A10.69,10.69,0,0,0,526.3,84Zm6.1,17.6a7.23,7.23,0,0,1-5.7,2.5,7.76,7.76,0,0,1-6.3-3.1,11.4,11.4,0,0,1-2.6-7.5,9.23,9.23,0,0,1,2-6.2,7,7,0,0,1,5.5-2.3,8.85,8.85,0,0,1,6.7,2.9,10.54,10.54,0,0,1,2.7,7.4A8.87,8.87,0,0,1,532.4,101.64Z"/><path class="a" d="M574.2,90.54a14.75,14.75,0,0,0-1.6.1h-5.8c-.5,0-.7.1-.7.4s.3.4.8.5a6.37,6.37,0,0,1,2.1.5,2.17,2.17,0,0,1,.5,1.6V98a4.47,4.47,0,0,1-.6,2.7,8.71,8.71,0,0,1-7.1,3.2,10.23,10.23,0,0,1-8-3.8,14.29,14.29,0,0,1-3.2-9.6c0-3.6.9-6.5,2.8-8.7a9.2,9.2,0,0,1,7.2-3.4,12.49,12.49,0,0,1,6.7,2,12.12,12.12,0,0,1,4.7,5.1.54.54,0,0,0,.4.3c.3,0,.4-.2.4-.5a1.76,1.76,0,0,0-.1-.6l-.3-1.5-.2-1.8a7.18,7.18,0,0,1-.1-1.3c0-.6-.1-.9-.4-.9a.37.37,0,0,0-.3.1l-.5.4c-.2.1-.3.2-.4.2s-.2-.1-.3-.2a14.45,14.45,0,0,0-4.1-1.7,22.25,22.25,0,0,0-4.9-.7,13.58,13.58,0,0,0-10,4.1,14,14,0,0,0-4,10.3,13.43,13.43,0,0,0,3.8,9.7,13.11,13.11,0,0,0,9.7,3.8,15.77,15.77,0,0,0,8.2-2.2l1.3-.8a4.72,4.72,0,0,1,1.6-.7.85.85,0,0,0,.6-.2l.1-.3v-7.5a2,2,0,0,1,1.5-2.2c.4-.1.6-.3.6-.5S574.5,90.54,574.2,90.54Z"/><path class="a" d="M584.5,104.14a3.92,3.92,0,0,1-1.4-.4,2.33,2.33,0,0,1-.7-1.1,8.69,8.69,0,0,1-.2-2.7V88.84c0-2.1.4-3.3,1.1-3.5l.8-.3c.3-.1.4-.2.4-.4s-.1-.3-.4-.3h-.4l-1,.1h-1.9a24.45,24.45,0,0,1-2.9-.1h-.3c-.3,0-.4.1-.4.3s.2.3.5.3a2.24,2.24,0,0,1,1.8.9,4.66,4.66,0,0,1,.4,2.5V101a6.51,6.51,0,0,1-.3,2.5c-.2.4-.7.6-1.5.8-.3,0-.5.2-.5.3s.1.3.4.3h.7l1.7-.1h2.1a6.66,6.66,0,0,1,1.6.1h.6c.3,0,.5-.1.5-.3S585,104.24,584.5,104.14Z"/><path class="a" d="M598,84a13.64,13.64,0,0,0-4.4.8,9.7,9.7,0,0,0-3.5,2.3,9.33,9.33,0,0,0-2.1,3.3,11.4,11.4,0,0,0-.8,4,10.09,10.09,0,0,0,3,7.6,10.65,10.65,0,0,0,7.7,2.9,10.09,10.09,0,0,0,7.6-3,10.55,10.55,0,0,0,3-7.8,9.58,9.58,0,0,0-3-7.3A10.52,10.52,0,0,0,598,84Zm6.1,17.6a7.23,7.23,0,0,1-5.7,2.5,7.76,7.76,0,0,1-6.3-3.1,11.4,11.4,0,0,1-2.6-7.5,9.23,9.23,0,0,1,2-6.2A7,7,0,0,1,597,85a8.85,8.85,0,0,1,6.7,2.9,10.54,10.54,0,0,1,2.7,7.4A8.87,8.87,0,0,1,604.1,101.64Z"/><path class="a" d="M629.8,104.14h-.5c-1.1-.1-2.2-1-3.5-2.9l-.5-.7-4.1-6c2.4-1.2,3.7-2.9,3.7-5.2a4.45,4.45,0,0,0-1.7-3.8,8.37,8.37,0,0,0-5.1-1.3,16.24,16.24,0,0,0-2.1.1c-1.1.1-1.9.1-2.3.1h-1.3a4.54,4.54,0,0,1-1-.1c-.3,0-.5.1-.5.3s.2.3.5.3l.7.1c1.1.2,1.6,1,1.6,2.6v12.1a8.76,8.76,0,0,1-.4,3.4c-.2.6-.8.9-1.6,1.1-.2,0-.4.1-.4.3s.1.3.4.3a3.22,3.22,0,0,0,.8-.1c.5,0,.9-.1,1.2-.1h2.2a9.77,9.77,0,0,1,1.9.1c.4,0,.7.1.9.1s.5-.1.5-.3-.2-.3-.5-.3a4.74,4.74,0,0,1-2-.6,1.56,1.56,0,0,1-.6-.8,7.16,7.16,0,0,1-.1-1.7v-5.2a.76.76,0,0,1,.2-.5l.3-.1h2a1.43,1.43,0,0,1,1.2.6l.2.3,3.7,5.6a7.41,7.41,0,0,0,2.2,2.4,4,4,0,0,0,2.4.7,7.72,7.72,0,0,0,1.5-.2c.4-.1.7-.3.7-.4C630,104.24,629.9,104.14,629.8,104.14Zm-11.2-9.9h-1.7a1.69,1.69,0,0,1-.9-.2,1.44,1.44,0,0,1-.2-.9v-6.5c0-.5.1-.9.3-1a1.74,1.74,0,0,1,1.2-.3,5.82,5.82,0,0,1,3.9,1.4,4.54,4.54,0,0,1,1.5,3.5,4,4,0,0,1-1.1,2.9A4.08,4.08,0,0,1,618.6,94.24Z"/><path class="a" d="M650.2,84.34a2,2,0,0,0-.7.1,6.62,6.62,0,0,1-1.5.1,20.18,20.18,0,0,1-2.7-.1h-.6c-.3,0-.4.1-.4.3s.1.3.4.4a4.17,4.17,0,0,1,2.1.8,2.74,2.74,0,0,1,.7,1.8l.2,3.4v9.3c0,.2-.1.3-.2.3s-.2-.1-.4-.4l-13.6-15.4a.87.87,0,0,0-.7-.4h-2.5a.27.27,0,0,0-.3.3c0,.2.1.3.4.3a3.16,3.16,0,0,1,2.4,1.7,8.86,8.86,0,0,1,.8,4v10.1a4.5,4.5,0,0,1-.4,2.3,2.44,2.44,0,0,1-1.7,1.1c-.3.1-.4.2-.4.4s.2.3.4.3a1.09,1.09,0,0,0,.5-.1c.3,0,.7-.1,1.1-.1h.7l1.5.1a8.87,8.87,0,0,1,1.3.1h.4a.27.27,0,0,0,.3-.3c0-.2-.2-.3-.5-.4a3.73,3.73,0,0,1-1.6-.5c-.3-.2-.4-.7-.5-1.3V90.84c0-.4.1-.7.3-.7s.1,0,.2.1l.1.2,12.5,14.3.3.4a.37.37,0,0,0,.3.1c.2,0,.4-.1.4-.3s.1-.9.1-2v-15a4.09,4.09,0,0,1,.3-1.9,1.76,1.76,0,0,1,1.2-.7q.3-.15.3-.3C650.6,84.44,650.4,84.34,650.2,84.34Z"/><path class="a" d="M671.6,86.94A10.57,10.57,0,0,0,664,84a13.64,13.64,0,0,0-4.4.8,9.7,9.7,0,0,0-3.5,2.3,9.33,9.33,0,0,0-2.1,3.3,11.4,11.4,0,0,0-.8,4,10.09,10.09,0,0,0,3,7.6,10.65,10.65,0,0,0,7.7,2.9,10.09,10.09,0,0,0,7.6-3,10.55,10.55,0,0,0,3-7.8A9.08,9.08,0,0,0,671.6,86.94Zm-1.4,14.7a7.23,7.23,0,0,1-5.7,2.5,7.76,7.76,0,0,1-6.3-3.1,11.4,11.4,0,0,1-2.6-7.5,9.23,9.23,0,0,1,2-6.2,7,7,0,0,1,5.5-2.3,8.85,8.85,0,0,1,6.7,2.9,10.54,10.54,0,0,1,2.7,7.4A9.33,9.33,0,0,1,670.2,101.64Z"/><path class="a" d="M117,95.64h-.1c-.3,0-.6-.3-.9-.8l-.1-.2L114.8,93a1.61,1.61,0,0,0,1-1.4c0-.9-.6-1.4-1.9-1.4H112c-.1,0-.2,0-.2.1s.1.1.2.2h.2c.3,0,.4.2.4.6v3.3a2.22,2.22,0,0,1-.1.9,1.38,1.38,0,0,1-.4.3.35.35,0,0,0-.2.1c0,.1.1.1.2.1h1.8c.1,0,.2,0,.2-.1s-.1-.1-.2-.1a.85.85,0,0,1-.6-.2c-.1-.1-.1-.3-.1-.6v-1.5h.6c.1,0,.2.1.3.1l.1.1,1,1.5c.4.6.8.9,1.3.9s.6-.1.6-.2A.1.1,0,0,0,117,95.64Zm-3-2.7h-.6V91c0-.2.1-.3.4-.3a1.69,1.69,0,0,1,1,.3,1,1,0,0,1,.4.9C115,92.64,114.7,92.94,114,92.94Z"/><path class="a" d="M114.2,88.34a4.8,4.8,0,0,0-3.7,1.7,4.38,4.38,0,0,0-1.1,3.1,4.47,4.47,0,0,0,1.2,3.1,4.65,4.65,0,0,0,3.7,1.7,4.81,4.81,0,0,0,3.4-8.2A4.91,4.91,0,0,0,114.2,88.34Zm3,7.8a4.16,4.16,0,0,1-3,1.3,3.8,3.8,0,0,1-3-1.3,4.16,4.16,0,0,1-1.3-3,3.8,3.8,0,0,1,1.3-3,4.16,4.16,0,0,1,3-1.3,3.8,3.8,0,0,1,3,1.3,4.11,4.11,0,0,1,0,6Z"/><path class="a" d="M323.7,78.94a4.8,4.8,0,0,0-3.7,1.7,4.38,4.38,0,0,0-1.1,3.1,4.47,4.47,0,0,0,1.2,3.1,4.65,4.65,0,0,0,3.7,1.7,4.81,4.81,0,0,0,3.4-8.2A4.91,4.91,0,0,0,323.7,78.94Zm3,7.8a4.16,4.16,0,0,1-3,1.3,3.8,3.8,0,0,1-3-1.3,4.16,4.16,0,0,1-1.3-3,3.8,3.8,0,0,1,1.3-3,4.16,4.16,0,0,1,3-1.3,3.8,3.8,0,0,1,3,1.3,4.16,4.16,0,0,1,1.3,3A4.6,4.6,0,0,1,326.7,86.74Z"/><path class="a" d="M326.5,86.24h-.1c-.3,0-.6-.3-.9-.8l-.1-.2-1.1-1.6a1.61,1.61,0,0,0,1-1.4c0-.9-.6-1.4-1.9-1.4h-1.9c-.1,0-.2,0-.2.1s.1.1.2.2h.2c.3,0,.4.2.4.6V85a2.22,2.22,0,0,1-.1.9,1.38,1.38,0,0,1-.4.3.35.35,0,0,0-.2.1c0,.1.1.1.2.1h1.8c.1,0,.2,0,.2-.1s-.1-.1-.2-.1a.85.85,0,0,1-.6-.2c-.1-.1-.1-.3-.1-.6v-1.5h.6a.37.37,0,0,1,.3.1l.1.1,1,1.5c.4.6.8.9,1.3.9s.6-.1.6-.2S326.6,86.24,326.5,86.24Zm-3.1-2.7h-.6v-1.9c0-.2.1-.3.4-.3a1.69,1.69,0,0,1,1,.3,1,1,0,0,1,.4.9A1.06,1.06,0,0,1,323.4,83.54Z"/></svg>