<svg xmlns="http://www.w3.org/2000/svg" viewBox="0 0 560.5 122.47"><defs><style>.a{fill:#fff;}</style></defs><title>Asset 1</title><path class="a" d="M157.4,80.57c.2.8.3,1.4.4,1.6a2.65,2.65,0,0,0,.5.6,14.31,14.31,0,0,0,3.1,1.2,18.93,18.93,0,0,0,3.8.5,11.48,11.48,0,0,0,7.9-2.7,8.64,8.64,0,0,0,3.1-6.9q0-6.3-8.4-9a50.11,50.11,0,0,1-5.4-2,6.27,6.27,0,0,1-2-1.7,5.24,5.24,0,0,1-1.1-3.3,4.65,4.65,0,0,1,1.6-3.6,5.85,5.85,0,0,1,4.1-1.4,9.9,9.9,0,0,1,5.6,1.6,7.28,7.28,0,0,1,3.3,4.1c.2.7.5,1.1.7,1.1s.5-.2.5-.7a4.4,4.4,0,0,0-.1-.9l-.4-2.3a23.19,23.19,0,0,1-.3-2.3c0-.8-.2-1.1-.6-1.1-.1,0-.2,0-.2.1l-.3.3a.65.65,0,0,1-.5.2.6.6,0,0,1-.4-.1l-1.6-.7a10,10,0,0,0-4.1-.7,10.53,10.53,0,0,0-7,2.3,7.42,7.42,0,0,0-2.7,6,7.31,7.31,0,0,0,2.1,5.4c1.4,1.4,3.8,2.6,7.1,3.8s5.2,1.9,5.9,2.5a5.56,5.56,0,0,1-.2,8.7,7.92,7.92,0,0,1-5.3,1.8,9.64,9.64,0,0,1-9.1-6.6c-.2-.7-.5-1.1-.7-1.1s-.5.2-.5.7a12.17,12.17,0,0,0,.6,2.9A12.35,12.35,0,0,0,157.4,80.57Z"/><path class="a" d="M186.8,61c.3-.1.5-.2.5-.4a.27.27,0,0,0-.3-.3,5.81,5.81,0,0,0-1,.1c-.3,0-1,.1-2.2.1a21.92,21.92,0,0,1-2.9-.1,6.82,6.82,0,0,0-1.2-.1c-.4,0-.6.1-.6.4s.2.4.5.5l1,.2a2.38,2.38,0,0,1,1.5,1,6.33,6.33,0,0,1,.4,2.8v17.4l.1,1.7a6.08,6.08,0,0,1-.7,3.2,1.85,1.85,0,0,1-1.7,1.3,2.24,2.24,0,0,1-1.5-.8c-.3-.3-.5-.5-.6-.5-.3,0-.5.4-.7,1.1-.1.3-.1.5-.2.6s-.1.3-.1.4a.72.72,0,0,0,.4.6,1.69,1.69,0,0,0,1,.3,5.21,5.21,0,0,0,3.9-1.9,9.6,9.6,0,0,0,2.4-4.7l.2-2.3V63.67a4.18,4.18,0,0,1,.3-1.8A2.9,2.9,0,0,1,186.8,61Z"/><path class="a" d="M190.1,61.17a2.88,2.88,0,0,1,2,.9,4.94,4.94,0,0,1,.5,2.5v9.7a12.19,12.19,0,0,0,1.2,5.8,7.93,7.93,0,0,0,3.4,3.1,11.3,11.3,0,0,0,5.2,1.1,12.29,12.29,0,0,0,4.7-.9,8.17,8.17,0,0,0,3.4-2.5,12.34,12.34,0,0,0,1.9-7.2v-8.5a9.29,9.29,0,0,1,.3-2.9,2.44,2.44,0,0,1,1.4-1.2c.2-.1.4-.2.4-.4a.27.27,0,0,0-.3-.3,3.22,3.22,0,0,0-.8.1c-.3,0-1.1.1-2.4.1a8.08,8.08,0,0,1-1.6-.1,4.91,4.91,0,0,0-1.1-.1c-.2,0-.3.1-.3.4s.2.3.5.4a2.71,2.71,0,0,1,2.1,1.1,6,6,0,0,1,.6,3.1v8.9c0,3-.7,5.2-2,6.7s-3.4,2.2-6.1,2.2c-3,0-5.2-.9-6.5-2.7-.9-1.3-1.4-3.4-1.4-6.3v-9.7a6,6,0,0,1,.3-2.3,2.18,2.18,0,0,1,1.3-.9c.4-.1.5-.2.5-.4s-.1-.3-.4-.3a3.45,3.45,0,0,0-.9.1c-.5,0-.8.1-1,.1h-2.6a5.39,5.39,0,0,1-1.1-.1h-1.2c-.4,0-.7.1-.7.4C189.6,61,189.7,61.07,190.1,61.17Z"/><path class="a" d="M216.7,61a3.56,3.56,0,0,1,2.7,1.9,10.06,10.06,0,0,1,.9,4.7v11.6a6.16,6.16,0,0,1-.5,2.7,3.09,3.09,0,0,1-1.9,1.3c-.3.1-.5.2-.5.4s.2.3.5.3a1.76,1.76,0,0,0,.6-.1,5.28,5.28,0,0,1,1.3-.1h.8l1.7.1a11.93,11.93,0,0,1,1.5.1h.5c.2,0,.4-.1.4-.3s-.2-.4-.6-.4a3.11,3.11,0,0,1-1.8-.6,2.67,2.67,0,0,1-.6-1.6l-.1-1.2V67.47c0-.5.1-.8.3-.8s.2,0,.2.1l.2.2,14.4,16.5.4.4c.1.1.2.1.4.2s.4-.1.5-.4a12.31,12.31,0,0,0,.1-2.4V64.08a5.39,5.39,0,0,1,.3-2.2,2.15,2.15,0,0,1,1.4-.9c.2-.1.4-.2.3-.3a.46.46,0,0,0-.5-.4,2.49,2.49,0,0,0-.8.1,8.12,8.12,0,0,1-1.7.1,29.19,29.19,0,0,1-3.2-.1h-.7c-.3,0-.5.1-.5.3a.46.46,0,0,0,.5.4,4.59,4.59,0,0,1,2.4.9,2.92,2.92,0,0,1,.8,2.1l.2,3.9v10.8c0,.2-.1.3-.2.3s-.2-.1-.5-.4l-15.7-17.8a1.38,1.38,0,0,0-.9-.5h-3c-.3,0-.4.1-.4.3C216.2,60.77,216.4,60.87,216.7,61Z"/><path class="a" d="M243.9,61.07a2.64,2.64,0,0,1,1.9.9,4.18,4.18,0,0,1,.6,2.5v15.4a6.51,6.51,0,0,1-.3,2.5,2.15,2.15,0,0,1-1.5.9c-.3.1-.5.2-.5.4s.2.4.6.4a4.14,4.14,0,0,0,1-.1,28.8,28.8,0,0,1,3.2-.2c1.1,0,2.5.1,4,.2a11.8,11.8,0,0,0,1.6.1,12.91,12.91,0,0,0,6.9-2,10.15,10.15,0,0,0,3.9-4.3,13.15,13.15,0,0,0,1.4-5.9,11.23,11.23,0,0,0-3.2-8.2c-2.3-2.4-5.8-3.5-10.5-3.5a17,17,0,0,0-2.3.1l-1.6.2a19.41,19.41,0,0,1-2.7.1h-1.2l-1.4-.1c-.3,0-.4.1-.4.3S243.5,61,243.9,61.07Zm5.1,2.1c0-.7.1-1.2.4-1.4.5-.4,1.6-.6,3.4-.6a10.34,10.34,0,0,1,6.4,1.9,10.21,10.21,0,0,1,3.4,4.2,14.48,14.48,0,0,1,1.2,5.9c0,3.9-1.3,6.7-4,8.4a9.64,9.64,0,0,1-5.3,1.5,12.91,12.91,0,0,1-2.4-.3c-.9-.2-1.7-.4-2.3-.6a1.38,1.38,0,0,1-1-1.4V63.17Z"/><path class="a" d="M269.8,61a2.56,2.56,0,0,1,2.1.8,6.62,6.62,0,0,1,.5,3.3v15.6q0,2.1-1.2,2.4l-.6.2c-.3.1-.4.2-.4.4a.46.46,0,0,0,.5.4,3.45,3.45,0,0,0,.9-.1,35.88,35.88,0,0,1,4.2-.2q2.1,0,5.4.3c.6,0,1,.1,1.3.1a4.78,4.78,0,0,0,3.8-1.8,4.55,4.55,0,0,0,1.2-2.6c0-.3-.1-.5-.3-.4a.54.54,0,0,0-.4.3c-1.3,2-4.2,3-8.6,3-1.4,0-2.3-.1-2.6-.4s-.5-.8-.5-1.8v-6.9a.78.78,0,0,1,.3-.7,2.68,2.68,0,0,1,1.1-.2h3.8a3.69,3.69,0,0,1,2.1.4,2.23,2.23,0,0,1,.8,1.6l.1.5a.37.37,0,0,0,.4.4c.2,0,.3-.1.3-.4v-.5a14.77,14.77,0,0,1-.1-2.1c0-.9.1-1.9.2-3v-.4c0-.3-.1-.5-.3-.5a.37.37,0,0,0-.4.4,2.37,2.37,0,0,1-.5,1.4,2.25,2.25,0,0,1-1.2.5,19.1,19.1,0,0,1-2.8.2h-2.6a1.44,1.44,0,0,1-.9-.2c-.1-.1-.1-.4-.1-1v-6.9a1.74,1.74,0,0,1,.3-1.2,2.21,2.21,0,0,1,1.4-.3h2.7a13.74,13.74,0,0,1,3.6.3,1.74,1.74,0,0,1,1.3,1,3.55,3.55,0,0,1,.2,1v.4c0,.4.1.5.3.5s.3-.1.4-.3a7.08,7.08,0,0,0,.2-1.2l.1-1a10.33,10.33,0,0,0,.1-1.4c0-.2.1-.3.1-.4,0-.3-.2-.5-.6-.5a2.25,2.25,0,0,0-.7.1,7.5,7.5,0,0,0-1.2.1l-2.4.1c-1.1,0-2.3.1-3.7.1a49.11,49.11,0,0,1-5.9-.3,5.39,5.39,0,0,0-1.1-.1c-.5,0-.8.2-.8.5C269.3,60.87,269.4,61,269.8,61Z"/><path class="a" d="M309.9,63.67c-2.3-2.4-5.8-3.5-10.5-3.5a17,17,0,0,0-2.3.1l-1.6.2a19.41,19.41,0,0,1-2.7.1h-1.2l-1.4-.1c-.3,0-.4.1-.4.3s.2.3.6.4a2.64,2.64,0,0,1,1.9.9,4.18,4.18,0,0,1,.6,2.5V80a6.51,6.51,0,0,1-.3,2.5,2.15,2.15,0,0,1-1.5.9c-.3.1-.5.2-.5.4s.2.4.6.4a4.14,4.14,0,0,0,1-.1,28.8,28.8,0,0,1,3.2-.2c1.1,0,2.5.1,4,.2a11.8,11.8,0,0,0,1.6.1,12.91,12.91,0,0,0,6.9-2,10.15,10.15,0,0,0,3.9-4.3,13.15,13.15,0,0,0,1.4-5.9A11.79,11.79,0,0,0,309.9,63.67Zm-3.4,17.9a9.64,9.64,0,0,1-5.3,1.5,12.91,12.91,0,0,1-2.4-.3c-.9-.2-1.7-.4-2.3-.6a1.38,1.38,0,0,1-1-1.4V63.18c0-.7.1-1.2.4-1.4.5-.4,1.6-.6,3.4-.6a10.34,10.34,0,0,1,6.4,1.9,10.21,10.21,0,0,1,3.4,4.2,14.48,14.48,0,0,1,1.2,5.9C310.5,77.17,309.2,80,306.5,81.57Z"/><path class="a" d="M329.7,83.87a19.58,19.58,0,0,1,3-.1,25.54,25.54,0,0,1,3.2.1h.6c.3,0,.5-.1.5-.3s-.2-.3-.5-.4a5.33,5.33,0,0,1-2.2-.8,6.59,6.59,0,0,1-1.3-2.6l-.4-.9-7.4-18.8c-.1-.3-.3-.5-.5-.5s-.3.2-.5.5l-8.8,19.5-.5,1.1a13,13,0,0,1-1,1.5c-.4.5-.7.8-.9.8l-.6.2c-.2.1-.3.2-.3.4s.2.3.5.3a5.81,5.81,0,0,0,1-.1h2.7l1.6.1h.6c.3,0,.5-.1.5-.3s-.2-.3-.5-.4a5.35,5.35,0,0,1-1.6-.6c-.3-.2-.4-.6-.4-1.2a7.92,7.92,0,0,1,.8-2.6l1.1-2.5a3.87,3.87,0,0,1,.8-1.4,4.23,4.23,0,0,1,1.6-.2H327a3.45,3.45,0,0,1,1.2.1,7.37,7.37,0,0,1,.6,1.1l.9,2.3a12.29,12.29,0,0,1,1,3.6,1,1,0,0,1-.9,1.2l-.5.1c-.3.1-.4.2-.4.3a.37.37,0,0,0,.4.4C329.3,84,329.5,84,329.7,83.87Zm-3.2-10.6h-5.7c-.5,0-.8-.1-.8-.4a3.93,3.93,0,0,1,.2-.6l3.3-7.4q.15-.3.3-.3c.2,0,.3.2.4.6l.1.4,2.7,6.8.1.3a.76.76,0,0,1,.1.4C327.3,73.07,327,73.27,326.5,73.27Z"/><path class="a" d="M347.9,84.27a14.11,14.11,0,0,0,7.2-1.9l1.1-.7a3,3,0,0,1,1.4-.6,2,2,0,0,0,.5-.1l.1-.3v-6.5c0-1.1.4-1.7,1.3-1.9.3-.1.5-.2.5-.4s-.1-.3-.4-.3a11.31,11.31,0,0,0-1.4.1h-5.1q-.6,0-.6.3c0,.2.2.4.7.4a3.22,3.22,0,0,1,1.8.5,1.81,1.81,0,0,1,.5,1.4v3.8a4.11,4.11,0,0,1-.5,2.3,7.47,7.47,0,0,1-6.2,2.8,8.66,8.66,0,0,1-7-3.4,12.27,12.27,0,0,1-2.8-8.3,11.72,11.72,0,0,1,2.4-7.6,7.59,7.59,0,0,1,6.3-2.9,11.5,11.5,0,0,1,5.9,1.7,10.83,10.83,0,0,1,4.1,4.4c.1.2.2.3.4.3s.3-.2.3-.4a1.09,1.09,0,0,0-.1-.5,5.85,5.85,0,0,1-.2-1.3l-.2-1.6a5.74,5.74,0,0,1-.1-1.2c0-.5-.1-.8-.3-.8s-.2,0-.2.1l-.4.3a.5.5,0,0,1-.6,0,12.18,12.18,0,0,0-3.6-1.5,16.49,16.49,0,0,0-4.3-.6,11.54,11.54,0,0,0-8.7,3.6,12.53,12.53,0,0,0-3.5,9,11.38,11.38,0,0,0,3.3,8.4A10.79,10.79,0,0,0,347.9,84.27Z"/><path class="a" d="M363.1,81.37a5,5,0,0,0,.3,1.2.78.78,0,0,0,.4.4,11,11,0,0,0,2.3.9,16.7,16.7,0,0,0,2.9.4,9.24,9.24,0,0,0,6-2,6.5,6.5,0,0,0,2.3-5.2c0-3.1-2.1-5.4-6.3-6.8a33.64,33.64,0,0,1-4.1-1.5,3.74,3.74,0,0,1-1.5-1.3,4.15,4.15,0,0,1-.8-2.5,3.42,3.42,0,0,1,1.2-2.7,4.69,4.69,0,0,1,3.1-1.1,7.87,7.87,0,0,1,4.2,1.2,5.4,5.4,0,0,1,2.5,3.1c.2.5.4.8.6.8a.46.46,0,0,0,.4-.5,2.64,2.64,0,0,0-.1-.7l-.3-1.8c-.1-1-.2-1.5-.2-1.7,0-.6-.1-.8-.4-.8-.1,0-.2,0-.2.1l-.2.2a.76.76,0,0,1-.4.2.37.37,0,0,1-.3-.1l-1.2-.5a7.21,7.21,0,0,0-3.1-.5,8.21,8.21,0,0,0-5.3,1.7,5.68,5.68,0,0,0-2.1,4.5,5.06,5.06,0,0,0,1.6,4,14,14,0,0,0,5.4,2.8,18.16,18.16,0,0,1,4.4,1.9,4.07,4.07,0,0,1,1.5,3.2,4.4,4.4,0,0,1-1.6,3.4,6.09,6.09,0,0,1-4,1.4,7.6,7.6,0,0,1-4.3-1.4,6.62,6.62,0,0,1-2.6-3.6c-.2-.5-.3-.8-.6-.8s-.3.2-.3.5a8.5,8.5,0,0,0,.4,2.2A6.4,6.4,0,0,0,363.1,81.37Z"/><path class="a" d="M184.4,120.57a6.22,6.22,0,0,1-2.9-1.1,9.72,9.72,0,0,1-1.8-3.4l-.5-1.2-9.8-25c-.2-.4-.4-.7-.6-.7s-.5.2-.7.7l-11.7,25.9-.7,1.5a8.58,8.58,0,0,1-1.3,2,3.64,3.64,0,0,1-1.2,1.1l-.8.2c-.3.1-.4.2-.4.5s.2.4.6.4a10.3,10.3,0,0,0,1.3-.1h1a18.53,18.53,0,0,1,2.5.1l2.2.1h.8c.4,0,.6-.1.6-.4s-.2-.4-.7-.5a5.38,5.38,0,0,1-2.1-.8,1.72,1.72,0,0,1-.5-1.5,9.09,9.09,0,0,1,1-3.4l1.5-3.3a5.6,5.6,0,0,1,1.1-1.8,4.54,4.54,0,0,1,2.1-.3h8.2a3.57,3.57,0,0,1,1.5.2c.2.1.4.6.7,1.4l1.1,3a18.68,18.68,0,0,1,1.4,4.8c0,.9-.4,1.4-1.1,1.5l-.7.2c-.4.1-.6.2-.6.5s.2.5.6.5a2,2,0,0,0,.7-.1,32.63,32.63,0,0,1,3.9-.1c2,0,3.4,0,4.2.1h.9c.4,0,.6-.1.6-.4C185.1,120.87,184.8,120.67,184.4,120.57Zm-13.3-13.2h-7.4c-.7,0-1-.2-1-.6a2.71,2.71,0,0,1,.3-.8l4.4-9.8c.1-.3.3-.4.4-.4s.4.3.6.7l.2.5,3.6,9,.1.4a1.09,1.09,0,0,1,.1.5A1.45,1.45,0,0,1,171.1,107.37Z"/><path class="a" d="M195,97.67a17,17,0,0,0-2.3.1l-1.6.2a19.41,19.41,0,0,1-2.7.1h-1.2l-1.4-.1c-.3,0-.4.1-.4.3s.2.3.6.4a2.64,2.64,0,0,1,1.9.9,4.18,4.18,0,0,1,.6,2.5v15.4a6.51,6.51,0,0,1-.3,2.5,2.15,2.15,0,0,1-1.5.9c-.3.1-.5.2-.5.4s.2.4.6.4a4.14,4.14,0,0,0,1-.1,28.8,28.8,0,0,1,3.2-.2c1.1,0,2.5.1,4,.2a11.8,11.8,0,0,0,1.6.1,12.91,12.91,0,0,0,6.9-2,10.15,10.15,0,0,0,3.9-4.3,13.15,13.15,0,0,0,1.4-5.9,11.23,11.23,0,0,0-3.2-8.2C203.2,98.87,199.7,97.67,195,97.67Zm7.2,21.5a9.64,9.64,0,0,1-5.3,1.5,12.91,12.91,0,0,1-2.4-.3c-.9-.2-1.7-.4-2.3-.6a1.38,1.38,0,0,1-1-1.4v-17.6c0-.7.1-1.2.4-1.4.5-.4,1.6-.6,3.4-.6a10.34,10.34,0,0,1,6.4,1.9,10.21,10.21,0,0,1,3.4,4.2,14.48,14.48,0,0,1,1.2,5.9C206.1,114.77,204.8,117.47,202.2,119.17Z"/><path class="a" d="M232.5,97.87h-3.4a11.45,11.45,0,0,1-1.5-.1h-.5q-.6,0-.6.3c0,.2.3.3.9.5s.9.2,1,.4a1,1,0,0,1,.3.8c0,1.1-.8,3.6-2.4,7.4l-3.8,8.9-.3.6c-.3.7-.5,1-.6,1s-.3-.2-.4-.5l-6.6-15.1a6.43,6.43,0,0,1-.7-2.4.85.85,0,0,1,.2-.6,1.87,1.87,0,0,1,.9-.4c.2-.1.3-.2.3-.4s-.2-.3-.5-.3h-.5c-.5,0-.9.1-1.1.1h-4.9c-.3,0-.5.1-.5.3s.1.2.2.3a4.17,4.17,0,0,0,1.1.2,2.35,2.35,0,0,1,1.4.7,9.56,9.56,0,0,1,1.1,1.9l8.7,20.1c.2.6.5.9.7.9s.5-.3.7-.8l8.5-19.9.5-1.1a3.16,3.16,0,0,1,1.9-2c.2-.1.4-.2.4-.4C232.8,98,232.7,97.87,232.5,97.87Z"/><path class="a" d="M251.4,116.77a.54.54,0,0,0-.4.3c-1.3,2-4.2,3-8.6,3-1.4,0-2.3-.1-2.6-.4s-.5-.8-.5-1.8V111a.78.78,0,0,1,.3-.7,2.68,2.68,0,0,1,1.1-.2h3.8a3.69,3.69,0,0,1,2.1.4,2.23,2.23,0,0,1,.8,1.6l.1.5a.43.43,0,0,0,.4.4c.2,0,.3-.1.3-.4v-.5a14.77,14.77,0,0,1-.1-2.1c0-.9.1-1.9.2-3v-.4a.46.46,0,0,0-.3-.5.37.37,0,0,0-.4.4,2.37,2.37,0,0,1-.5,1.4,2.25,2.25,0,0,1-1.2.5,19.1,19.1,0,0,1-2.8.2h-2.6a1.44,1.44,0,0,1-.9-.2c-.1-.1-.1-.4-.1-1v-6.9a1.74,1.74,0,0,1,.3-1.2,2.21,2.21,0,0,1,1.4-.3h2.7a13.74,13.74,0,0,1,3.6.3,1.74,1.74,0,0,1,1.3,1,3.55,3.55,0,0,1,.2,1v.4c0,.4.1.5.3.5s.3-.1.4-.3a7.08,7.08,0,0,0,.2-1.2l.1-1a10.33,10.33,0,0,0,.1-1.4c0-.2.1-.3.1-.4,0-.3-.2-.5-.6-.5a2.25,2.25,0,0,0-.7.1,7.5,7.5,0,0,0-1.2.1l-2.4.1c-1.1,0-2.3.1-3.7.1a49.11,49.11,0,0,1-5.9-.3,5.39,5.39,0,0,0-1.1-.1c-.5,0-.8.2-.8.5s.2.3.5.3a2.56,2.56,0,0,1,2.1.8,6.62,6.62,0,0,1,.5,3.3v15.6q0,2.1-1.2,2.4l-1,.6c-.3.1-.4.2-.4.4a.46.46,0,0,0,.5.4,3.45,3.45,0,0,0,.9-.1,35.88,35.88,0,0,1,4.2-.2q2.1,0,5.4.3c.6,0,1,.1,1.3.1a4.78,4.78,0,0,0,3.8-1.8,4.55,4.55,0,0,0,1.2-2.6C251.7,116.87,251.6,116.77,251.4,116.77Z"/><path class="a" d="M276.4,97.77a2.49,2.49,0,0,0-.8.1,8.12,8.12,0,0,1-1.7.1,29.19,29.19,0,0,1-3.2-.1H270c-.3,0-.5.1-.5.3a.46.46,0,0,0,.5.4,4.59,4.59,0,0,1,2.4.9,2.92,2.92,0,0,1,.8,2.1l.2,3.9v10.8c0,.2-.1.3-.2.3s-.2-.1-.5-.4L257,98.37a1.38,1.38,0,0,0-.9-.5h-3c-.3,0-.4.1-.4.3s.2.3.5.4a3.56,3.56,0,0,1,2.7,1.9,10.06,10.06,0,0,1,.9,4.7v11.6a6.16,6.16,0,0,1-.5,2.7,3.09,3.09,0,0,1-1.9,1.3c-.3.1-.5.3-.5.4s.2.3.5.3a1.76,1.76,0,0,0,.6-.1,5.28,5.28,0,0,1,1.3-.1h.8l1.7.1a11.93,11.93,0,0,1,1.5.1h.5c.2,0,.4-.1.4-.3s-.2-.4-.6-.4a3.11,3.11,0,0,1-1.8-.6,2.67,2.67,0,0,1-.6-1.6l-.1-1.2v-12.3c0-.5.1-.8.3-.8s.2,0,.2.1l.2.2,14.4,16.5.4.4c.1.1.2.1.4.2s.4-.1.5-.4a12.31,12.31,0,0,0,.1-2.4v-17.2a5.39,5.39,0,0,1,.3-2.2,2.15,2.15,0,0,1,1.4-.9c.2-.1.4-.2.3-.3C276.9,97.87,276.7,97.77,276.4,97.77Z"/><path class="a" d="M299.7,99.37a2.23,2.23,0,0,0-.2-1.2,2,2,0,0,0-1.1-.2H280a1.55,1.55,0,0,0-.8.2,2.15,2.15,0,0,0-.2,1,8.79,8.79,0,0,1-.3,2c-.1.6-.2,1.1-.2,1.3a.46.46,0,0,0,.3.5c.2,0,.4-.2.5-.6a3.45,3.45,0,0,1,1-2.1,2.81,2.81,0,0,1,2-.6h4.5a.8.8,0,0,1,1,1v17.4a3.22,3.22,0,0,1-.5,2,2.52,2.52,0,0,1-1.8.7c-.4,0-.6.2-.6.3a.46.46,0,0,0,.5.4,6.61,6.61,0,0,0,1.1-.1c.3,0,.7-.1,1.2-.1h2.6a5,5,0,0,1,1.5.1,3.22,3.22,0,0,0,.8.1c.3,0,.5-.1.5-.4s-.2-.3-.6-.4c-1.4-.3-2.2-1-2.2-2.4v-17.5a1.85,1.85,0,0,1,.2-1,1.6,1.6,0,0,1,1-.2h4.8c1,0,1.6.1,1.9.4a2.39,2.39,0,0,1,.7,1.6c.1.4.2.5.4.5s.4-.2.4-.5a2.81,2.81,0,0,0-.1-.8A4.55,4.55,0,0,0,299.7,99.37Z"/><path class="a" d="M309.6,120.77a5,5,0,0,1-1.6-.5,2.8,2.8,0,0,1-.8-1.2,10.75,10.75,0,0,1-.3-3.2v-12.8c0-2.4.4-3.8,1.3-4.1l.9-.3c.3-.1.4-.2.4-.5s-.2-.3-.5-.3h-.4l-1.1.1c-.6,0-1.3.1-2.2.1a26.3,26.3,0,0,1-3.3-.2h-.3c-.3,0-.5.1-.5.4s.2.3.5.4c1.1.2,1.8.5,2.1,1a6,6,0,0,1,.5,2.9v14.7a6.29,6.29,0,0,1-.4,2.9,2,2,0,0,1-1.7.9c-.4.1-.5.2-.5.4a.46.46,0,0,0,.5.4,2.49,2.49,0,0,0,.8-.1l2-.1h2.5a7.67,7.67,0,0,1,1.8.1,3.54,3.54,0,0,1,.6.1c.4,0,.5-.1.5-.4C310.5,121,310.2,120.77,309.6,120.77Z"/><path class="a" d="M321.2,107.77a33.64,33.64,0,0,1-4.1-1.5,3.74,3.74,0,0,1-1.5-1.3,4.15,4.15,0,0,1-.8-2.5,3.42,3.42,0,0,1,1.2-2.7,4.69,4.69,0,0,1,3.1-1.1,7.87,7.87,0,0,1,4.2,1.2,5.4,5.4,0,0,1,2.5,3.1c.2.5.4.8.6.8a.46.46,0,0,0,.4-.5,2.64,2.64,0,0,0-.1-.7l-.3-1.8c-.1-1-.2-1.5-.2-1.7,0-.6-.1-.8-.4-.8-.1,0-.2,0-.2.1l-.2.2a.76.76,0,0,1-.4.2.37.37,0,0,1-.3-.1l-1.2-.5a7.21,7.21,0,0,0-3.1-.5,8.21,8.21,0,0,0-5.3,1.7,5.68,5.68,0,0,0-2.1,4.5,5.06,5.06,0,0,0,1.6,4,14,14,0,0,0,5.4,2.8,18.16,18.16,0,0,1,4.4,1.9,4.07,4.07,0,0,1,1.5,3.2,4.4,4.4,0,0,1-1.6,3.4,6.09,6.09,0,0,1-4,1.4,7.6,7.6,0,0,1-4.3-1.4,7,7,0,0,1-2.6-3.6c-.2-.5-.3-.8-.6-.8s-.3.2-.3.5a8.5,8.5,0,0,0,.4,2.2,8,8,0,0,1,.4,1.6,5,5,0,0,0,.3,1.2.78.78,0,0,0,.4.4,11,11,0,0,0,2.3.9,10.6,10.6,0,0,0,2.9.4,9.24,9.24,0,0,0,6-2,6.5,6.5,0,0,0,2.3-5.2C327.5,111.37,325.4,109.17,321.2,107.77Z"/><path class="a" d="M350.3,99.37a2.23,2.23,0,0,0-.2-1.2A2,2,0,0,0,349,98H330.6a1.55,1.55,0,0,0-.8.2,2.15,2.15,0,0,0-.2,1,8.79,8.79,0,0,1-.3,2c-.1.6-.2,1.1-.2,1.3a.46.46,0,0,0,.3.5c.2,0,.4-.2.5-.6a4.11,4.11,0,0,1,1-2.1,2.81,2.81,0,0,1,2-.6h4.5a.8.8,0,0,1,1,1v17.4a3.22,3.22,0,0,1-.5,2,2.52,2.52,0,0,1-1.8.7c-.4,0-.6.2-.6.3a.46.46,0,0,0,.5.4,6.61,6.61,0,0,0,1.1-.1c.3,0,.7-.1,1.2-.1h2.6a5,5,0,0,1,1.5.1,3.22,3.22,0,0,0,.8.1c.3,0,.5-.1.5-.4s-.2-.3-.6-.4c-1.4-.3-2.2-1-2.2-2.4v-17.5a1.85,1.85,0,0,1,.2-1,1.6,1.6,0,0,1,1-.2h4.8c1,0,1.6.1,1.9.4a2.39,2.39,0,0,1,.7,1.6c.1.4.2.5.4.5s.4-.2.4-.5a2.81,2.81,0,0,0-.1-.8C350.4,100.57,350.3,100.07,350.3,99.37Z"/><path class="a" d="M360.8,107.77a33.64,33.64,0,0,1-4.1-1.5,3.74,3.74,0,0,1-1.5-1.3,4.15,4.15,0,0,1-.8-2.5,3.42,3.42,0,0,1,1.2-2.7,4.69,4.69,0,0,1,3.1-1.1,7.87,7.87,0,0,1,4.2,1.2,5.4,5.4,0,0,1,2.5,3.1c.2.5.4.8.6.8a.46.46,0,0,0,.4-.5,2.64,2.64,0,0,0-.1-.7l-.3-1.8c-.1-1-.2-1.5-.2-1.7,0-.6-.1-.8-.4-.8-.1,0-.2,0-.2.1l-.2.2a.76.76,0,0,1-.4.2.37.37,0,0,1-.3-.1l-1.2-.5a7.21,7.21,0,0,0-3.1-.5,8.21,8.21,0,0,0-5.3,1.7,5.68,5.68,0,0,0-2.1,4.5,5.06,5.06,0,0,0,1.6,4,14,14,0,0,0,5.4,2.8,18.16,18.16,0,0,1,4.4,1.9,4.07,4.07,0,0,1,1.5,3.2,4.4,4.4,0,0,1-1.6,3.4,6.09,6.09,0,0,1-4,1.4,7.6,7.6,0,0,1-4.3-1.4,7,7,0,0,1-2.6-3.6c-.2-.5-.3-.8-.6-.8s-.3.2-.3.5a8.5,8.5,0,0,0,.4,2.2,8,8,0,0,1,.4,1.6,5,5,0,0,0,.3,1.2.78.78,0,0,0,.4.4,11,11,0,0,0,2.3.9,10.6,10.6,0,0,0,2.9.4,9.24,9.24,0,0,0,6-2,6.5,6.5,0,0,0,2.3-5.2C367.1,111.37,365,109.17,360.8,107.77Z"/><path class="a" d="M391.6,120.77a5.33,5.33,0,0,1-2.2-.8,6.59,6.59,0,0,1-1.3-2.6l-.4-.9-7.4-18.8c-.1-.3-.3-.5-.5-.5s-.3.2-.5.5l-8.8,19.5-.5,1.1a13,13,0,0,1-1,1.5c-.4.5-.7.8-.9.8l-.4.3c-.2.1-.3.2-.3.4s.2.3.5.3a5.81,5.81,0,0,0,1-.1h2.7l1.6.1h.6c.3,0,.5-.1.5-.3s-.2-.3-.5-.4a5.35,5.35,0,0,1-1.6-.6c-.3-.2-.4-.6-.4-1.2a7.92,7.92,0,0,1,.8-2.6l1.1-2.5a3.87,3.87,0,0,1,.8-1.4,4.23,4.23,0,0,1,1.6-.2h6.2a3.45,3.45,0,0,1,1.2.1,7.37,7.37,0,0,1,.6,1.1l.9,2.3a12.29,12.29,0,0,1,1,3.6,1,1,0,0,1-.9,1.2l-.5.1c-.3.1-.4.2-.4.4a.37.37,0,0,0,.4.4,1.09,1.09,0,0,0,.5-.1,19.58,19.58,0,0,1,3-.1,25.54,25.54,0,0,1,3.2.1h.6c.3,0,.5-.1.5-.3A1.51,1.51,0,0,0,391.6,120.77Zm-10-10h-5.7c-.5,0-.8-.1-.8-.4a3.93,3.93,0,0,1,.2-.6l3.3-7.4q.15-.3.3-.3c.2,0,.3.2.4.6l.1.4,2.7,6.8.1.3a.76.76,0,0,1,.1.4C382.5,110.67,382.2,110.77,381.6,110.77Z"/><path class="a" d="M419.6,120.77a2.48,2.48,0,0,1-1.7-.8,3.09,3.09,0,0,1-.5-1.9l-.1-2.2-.3-9.3-.1-4.1a6.33,6.33,0,0,1,.4-2.8,1.67,1.67,0,0,1,1.2-1.1l.7-.2c.2-.1.3-.2.3-.4a.27.27,0,0,0-.3-.3h-.5c-.4,0-1,.1-1.7.1h-.6a5.38,5.38,0,0,1-.8-.1.75.75,0,0,0-.5.1,3.22,3.22,0,0,0-.4.7l-8,17.2-.2.3-.2.5q-.15.3-.3.3c-.1,0-.1-.1-.3-.4l-.9-1.8-7.1-15.4-.2-.4c-.3-.7-.7-1.1-1.2-1.1a1.27,1.27,0,0,0-.6.1h-3.6c-.3,0-.4.1-.4.4a.46.46,0,0,0,.5.4,3.53,3.53,0,0,1,2.7,1.8,10.34,10.34,0,0,1,.8,4.5c0,.9-.1,3.2-.3,6.8l-.2,5a8.61,8.61,0,0,1-.6,3,2.45,2.45,0,0,1-1.7,1.2c-.3.1-.4.2-.4.4a.46.46,0,0,0,.5.4,1.09,1.09,0,0,0,.5-.1,19.42,19.42,0,0,1,2.4-.2c.7,0,1.7.1,3,.2h.6c.3,0,.5-.1.5-.4s-.3-.4-1-.5q-2.1-.3-2.1-3.3a41.43,41.43,0,0,1,.1-4.2l.4-8.5,6.4,13.9.3.7c.3.5.4.8.5.9.2.6.5.8.8.8s.5-.3.7-.8a1.63,1.63,0,0,0,.3-.6,12.94,12.94,0,0,0,.9-2c.9-1.9,1.3-3,1.4-3.2l1.7-3.6,1.5-3.3c.3-.7,1-1.8,1.9-3.5l.4,10.9.1,2.8a6.08,6.08,0,0,1-.3,2.2,2.15,2.15,0,0,1-1.4.9c-.3.1-.4.2-.4.4s.2.3.5.3.9,0,2-.1a12.28,12.28,0,0,1,1.7-.1,6.15,6.15,0,0,1,1.4.1l1.3.1h.4q.6,0,.6-.3C420.6,121.07,420.3,120.87,419.6,120.77Z"/><path class="a" d="M438.8,97.57a1.49,1.49,0,0,0-.6.1,18.06,18.06,0,0,1-2,.2l-2.4.1c-.6,0-2,.1-4.2.1-2.4,0-4.1-.1-5.1-.2a5.94,5.94,0,0,0-1.1-.1c-.5,0-.7.1-.7.4s.2.3.4.3a7.83,7.83,0,0,1,1.4.3c.3.1.5.4.8.8a4.45,4.45,0,0,1,.5,2.5v15.4a4.94,4.94,0,0,1-.4,2.4,2,2,0,0,1-1.5.9c-.4.1-.5.2-.5.4s.2.3.5.3a3.45,3.45,0,0,0,.9-.1c.5,0,.9-.1,1.2-.1h2.5a8.12,8.12,0,0,1,1.7.1,4.14,4.14,0,0,0,1,.1c.4,0,.5-.1.5-.4s-.2-.3-.6-.3a2.41,2.41,0,0,1-1.9-.8,3.07,3.07,0,0,1-.7-2.2v-6.4a2.51,2.51,0,0,1,.1-1c0-.2.3-.3.7-.4a15.69,15.69,0,0,1,2.6-.1,14.61,14.61,0,0,1,3.4.3,1.13,1.13,0,0,1,.8.5,2.35,2.35,0,0,1,.4,1.2c.1.6.3.8.5.8s.3-.1.3-.4v-.5c0-.4-.1-1.2-.1-2.5v-1l.1-1.7c0-.4-.1-.5-.3-.5s-.3.1-.4.4a2,2,0,0,1-.9,1.6,4.35,4.35,0,0,1-2.3.5h-4.1c-.6,0-.9-.2-1-.5v-7.5a1.45,1.45,0,0,1,.5-1.3,6.27,6.27,0,0,1,2.4-.2,16.28,16.28,0,0,1,2.4.1l2,.2a3,3,0,0,1,1.5.4,2.65,2.65,0,0,1,.6,1.1,4.25,4.25,0,0,1,.2,1.1c0,.3.1.4.3.4s.5-.3.5-.8a12.62,12.62,0,0,1,.3-3,1.27,1.27,0,0,0,.1-.6C439.2,97.77,439.1,97.57,438.8,97.57Z"/><path class="a" d="M464.9,97.87a3.22,3.22,0,0,0-.8.1c-.3,0-1.1.1-2.4.1a8.08,8.08,0,0,1-1.6-.1,4.91,4.91,0,0,0-1.1-.1c-.2,0-.3.1-.3.4s.2.3.5.4a2.71,2.71,0,0,1,2.1,1.1,6,6,0,0,1,.6,3.1v8.9c0,3-.7,5.2-2,6.7s-3.4,2.2-6.1,2.2c-3,0-5.2-.9-6.5-2.7-.9-1.3-1.4-3.4-1.4-6.3v-9.9a6,6,0,0,1,.3-2.3,2.18,2.18,0,0,1,1.3-.9c.4-.1.5-.2.5-.4s-.1-.3-.4-.3a3.45,3.45,0,0,0-.9.1c-.5,0-.8.1-1,.1h-2.6A5.39,5.39,0,0,1,442,98h-1.2c-.4,0-.7.1-.7.4s.2.3.5.4a2.88,2.88,0,0,1,2,.9,4.94,4.94,0,0,1,.5,2.5v9.7a12.19,12.19,0,0,0,1.2,5.8,7.93,7.93,0,0,0,3.4,3.1,11.3,11.3,0,0,0,5.2,1.1,12.29,12.29,0,0,0,4.7-.9,8.17,8.17,0,0,0,3.4-2.5,12.34,12.34,0,0,0,1.9-7.2v-8.5a9.29,9.29,0,0,1,.3-2.9,2.44,2.44,0,0,1,1.4-1.2c.2-.1.4-.2.4-.4C465.2,98,465.1,97.87,464.9,97.87Z"/><path class="a" d="M490.6,97.77a2.49,2.49,0,0,0-.8.1,8.12,8.12,0,0,1-1.7.1,29.19,29.19,0,0,1-3.2-.1h-.7c-.3,0-.5.1-.5.3a.46.46,0,0,0,.5.4,4.59,4.59,0,0,1,2.4.9,3.43,3.43,0,0,1,.8,2.1l.2,3.9v10.8c0,.2-.1.3-.2.3s-.2-.1-.5-.4l-15.7-17.8a1.38,1.38,0,0,0-.9-.5h-3c-.3,0-.4.1-.4.3s.2.3.5.4a3.56,3.56,0,0,1,2.7,1.9,10.06,10.06,0,0,1,.9,4.7v11.6a6.16,6.16,0,0,1-.5,2.7,3.09,3.09,0,0,1-1.9,1.3c-.3.1-.5.3-.5.4s.2.3.5.3a1.76,1.76,0,0,0,.6-.1,5.28,5.28,0,0,1,1.3-.1h.8l1.7.1a11.93,11.93,0,0,1,1.5.1h.5c.2,0,.4-.1.4-.3s-.2-.4-.6-.4a3.11,3.11,0,0,1-1.8-.6,2.67,2.67,0,0,1-.6-1.6l-.1-1.2v-12.3c0-.5.1-.8.3-.8s.2,0,.2.1l.2.2,14.4,16.5.4.4c.1.1.2.1.4.2s.4-.1.5-.4a12.31,12.31,0,0,0,.1-2.4v-17.2a5.39,5.39,0,0,1,.3-2.2,2.15,2.15,0,0,1,1.4-.9c.2-.1.4-.2.3-.3C491,97.87,490.9,97.77,490.6,97.77Z"/><path class="a" d="M503.6,97.67a17,17,0,0,0-2.3.1l-1.6.2a19.41,19.41,0,0,1-2.7.1h-1.2l-1.4-.1c-.3,0-.4.1-.4.3s.2.3.6.4a2.64,2.64,0,0,1,1.9.9,4.18,4.18,0,0,1,.6,2.5v15.4a6.51,6.51,0,0,1-.3,2.5,2.15,2.15,0,0,1-1.5.9c-.3.1-.5.2-.5.4s.2.4.6.4a4.14,4.14,0,0,0,1-.1,28.8,28.8,0,0,1,3.2-.2c1.1,0,2.5.1,4,.2a11.8,11.8,0,0,0,1.6.1,12.91,12.91,0,0,0,6.9-2,10.15,10.15,0,0,0,3.9-4.3,13.15,13.15,0,0,0,1.4-5.9,11.23,11.23,0,0,0-3.2-8.2C511.8,98.87,508.3,97.67,503.6,97.67Zm7.2,21.5a9.64,9.64,0,0,1-5.3,1.5,12.91,12.91,0,0,1-2.4-.3c-.9-.2-1.7-.4-2.3-.6a1.38,1.38,0,0,1-1-1.4v-17.6c0-.7.1-1.2.4-1.4.5-.4,1.6-.6,3.4-.6a10.34,10.34,0,0,1,6.4,1.9,10.21,10.21,0,0,1,3.4,4.2,14.48,14.48,0,0,1,1.2,5.9C514.8,114.77,513.4,117.47,510.8,119.17Z"/><path class="a" d="M538,116.77a.54.54,0,0,0-.4.3c-1.3,2-4.2,3-8.6,3-1.4,0-2.3-.1-2.6-.4s-.5-.8-.5-1.8V111a.78.78,0,0,1,.3-.7,2.68,2.68,0,0,1,1.1-.2h3.8a3.69,3.69,0,0,1,2.1.4,2.23,2.23,0,0,1,.8,1.6l.1.5a.43.43,0,0,0,.4.4c.2,0,.3-.1.3-.4v-.5a14.77,14.77,0,0,1-.1-2.1c0-.9.1-1.9.2-3v-.4a.46.46,0,0,0-.3-.5.37.37,0,0,0-.4.4,2.37,2.37,0,0,1-.5,1.4,2.25,2.25,0,0,1-1.2.5,19.1,19.1,0,0,1-2.8.2h-2.6a1.44,1.44,0,0,1-.9-.2c-.1-.1-.1-.4-.1-1v-6.9a1.74,1.74,0,0,1,.3-1.2,2.21,2.21,0,0,1,1.4-.3h2.7a13.74,13.74,0,0,1,3.6.3,1.74,1.74,0,0,1,1.3,1,3.55,3.55,0,0,1,.2,1v.4c0,.4.1.5.3.5s.3-.1.4-.3a7.08,7.08,0,0,0,.2-1.2l.1-1a10.33,10.33,0,0,0,.1-1.4c0-.2.1-.3.1-.4,0-.3-.2-.5-.6-.5a2.25,2.25,0,0,0-.7.1,7.5,7.5,0,0,0-1.2.1l-2.4.1c-1.1,0-2.3.1-3.7.1a49.11,49.11,0,0,1-5.9-.3,5.39,5.39,0,0,0-1.1-.1c-.5,0-.8.2-.8.5s.2.3.5.3a2.56,2.56,0,0,1,2.1.8,6.62,6.62,0,0,1,.5,3.3v15.6q0,2.1-1.2,2.4l-.6.2c-.3.1-.4.2-.4.4a.46.46,0,0,0,.5.4,3.45,3.45,0,0,0,.9-.1,35.88,35.88,0,0,1,4.2-.2q2.1,0,5.4.3c.6,0,1,.1,1.3.1a4.78,4.78,0,0,0,3.8-1.8,4.55,4.55,0,0,0,1.2-2.6C538.3,116.87,538.2,116.77,538,116.77Z"/><path class="a" d="M560.5,100.87a5.76,5.76,0,0,1-.1-1.5,2.23,2.23,0,0,0-.2-1.2,2,2,0,0,0-1.1-.2H540.7a1.55,1.55,0,0,0-.8.2,2.15,2.15,0,0,0-.2,1,8.79,8.79,0,0,1-.3,2c-.1.6-.2,1.1-.2,1.3a.46.46,0,0,0,.3.5c.2,0,.4-.2.5-.6a4.11,4.11,0,0,1,1-2.1,2.81,2.81,0,0,1,2-.6h4.5a.8.8,0,0,1,1,1v17.4a3.22,3.22,0,0,1-.5,2,2.52,2.52,0,0,1-1.8.7c-.4,0-.6.2-.6.3a.46.46,0,0,0,.5.4,6.61,6.61,0,0,0,1.1-.1c.3,0,.7-.1,1.2-.1H551a5,5,0,0,1,1.5.1,3.22,3.22,0,0,0,.8.1c.3,0,.5-.1.5-.4s-.2-.3-.6-.4c-1.4-.3-2.2-1-2.2-2.4v-17.5a1.85,1.85,0,0,1,.2-1,1.44,1.44,0,0,1,.9-.2h4.8c1,0,1.6.1,1.9.4a2.39,2.39,0,0,1,.7,1.6c.1.4.2.5.4.5s.4-.2.4-.5C560.5,101.57,560.5,101.27,560.5,100.87Z"/><path class="a" d="M43.9,94.17l-27.9,5L0,121.37l38.5-6.8c11.5-2,21.6-2.4,24.8,6.8v-15H55.7v-5.3h7.6v-.5C63.3,95.17,60.8,91.27,43.9,94.17Z"/><path class="a" d="M87.7,94.17l-6.2,6.2c-8.8,8.7-13,13.7-13,21,3.3-9.6,14-8.8,26.5-6.3l36.9,6.4-16.1-22.2Z"/><path class="a" d="M82.2,86.17C78.8,89.57,72.8,95,70,101h6.2l7.1-7.1c6.6-6.6,11.6-11.6,13.7-17.8a23.93,23.93,0,0,0,1.2-11.5c-.2-1.3-.7-3-.7-2.6-.6,7.1-2.6,11.4-13,21.8Z"/><path class="a" d="M62.9,42.37c3.8-3.8,13.4-12.4,13.4-19.9v-8.3c0-.1-.2-.1-.2,0-.7,5.6-2,8-15.6,21.6L47.1,49.18C40,56.27,34.3,63.88,35,72.27c.4,4.7,2,7.3,3,8.1.5.4.4.1.3-.2-4.1-9.3,5.6-18.9,10.5-23.7Z"/><path class="a" d="M76.3,28.37c0-.1-.2-.1-.2,0-.7,5.6-2,8-15.6,21.6L48,62.47c-4.5,4.5-8.7,9.3-8.5,16.9.1,4.7,2.5,8.6,6,9.5,1.5.3,1.4.1,1,0-5-2.4-4.7-11.4,3.5-19.5l12.8-12.8c3.8-3.8,13.4-12.4,13.4-19.9v-8.3Z"/><path class="a" d="M34.3,65.77c.6-7.1,2.6-11.4,13-21.8l15.6-15.7c3.8-3.8,13.4-12.4,13.4-19.9V.08c0-.1-.2-.1-.2,0-.7,5.6-2,8-15.6,21.6l-12,12c-6.6,6.6-11.6,11.6-13.7,17.8A23.93,23.93,0,0,0,33.6,63C33.7,64.37,34.2,66.17,34.3,65.77Z"/><path class="a" d="M68.5,114.57c0,.1.2.1.2,0a17.14,17.14,0,0,1,3.3-8.2H68.6v8.2Z"/><path class="a" d="M84.8,69.57l-4,4c-6.1,6.1-12.2,12.8-12.2,19.1V101c0,.1.2.1.2,0,.7-6.1,3.6-10,12.4-18.8l3.7-3.7c7.1-7.1,12.8-14.7,12.1-23.1-.4-4.7-2-7.3-3-8.1-.5-.4-.4-.1-.3.2C97.7,56.77,87.9,66.47,84.8,69.57Z"/><path class="a" d="M68.5,86.57c0,.1.2.1.2,0,.7-5.8,4-10.2,11.6-17.8l3.6-3.6c4.5-4.5,8.6-9.2,8.4-16.9-.1-4.7-2.5-8.6-6-9.5-1.5-.3-1.4-.1-1,0,5,2.4,4.7,11.4-3.5,19.5l-4.5,4.5c-2.9,2.9-8.8,9.3-8.8,15.3v8.5Z"/><path class="a" d="M134.7,112.57h-.1c-.2,0-.5-.2-.8-.7l-.1-.2-1-1.4a1.38,1.38,0,0,0,.9-1.3c0-.9-.6-1.3-1.8-1.3h-1.7c-.1,0-.2,0-.2.1s.1.1.2.1h.2c.2,0,.4.2.4.6v3c0,.4,0,.7-.1.8s-.2.2-.4.3a.1.1,0,0,0-.1.1c0,.1.1.1.2.1h1.8c.1,0,.2,0,.2-.1s-.1-.1-.2-.1a.59.59,0,0,1-.5-.2c-.1-.1-.1-.3-.1-.6v-1.4h.6c.1,0,.2,0,.2.1v.1l.9,1.4a1.41,1.41,0,0,0,1.2.8c.4,0,.6-.1.6-.2C134.8,112.67,134.8,112.57,134.7,112.57Zm-2.8-2.4h-.6v-1.8a.27.27,0,0,1,.3-.3,1.2,1.2,0,0,1,1.3,1.1A.9.9,0,0,1,131.9,110.17Z"/><path class="a" d="M132.1,106a4.33,4.33,0,0,0-3.4,1.5,4.27,4.27,0,0,0-1,2.9,4.11,4.11,0,0,0,1.1,2.8,4.37,4.37,0,0,0,3.3,1.6,4.44,4.44,0,0,0,4.4-4.4,4,4,0,0,0-1.3-3.1A4.16,4.16,0,0,0,132.1,106Zm2.7,7.1a3.69,3.69,0,0,1-2.8,1.1,4.11,4.11,0,0,1-2.8-1.1,3.69,3.69,0,0,1-1.1-2.8,4.11,4.11,0,0,1,1.1-2.8,3.69,3.69,0,0,1,2.8-1.1,4.11,4.11,0,0,1,2.8,1.1,3.69,3.69,0,0,1,1.1,2.8A3.25,3.25,0,0,1,134.8,113.07Z"/><path class="a" d="M352,89.17a4.33,4.33,0,0,0-3.4,1.5,4.27,4.27,0,0,0-1,2.9,4.11,4.11,0,0,0,1.1,2.8A4.37,4.37,0,0,0,352,98a4.44,4.44,0,0,0,4.4-4.4,4,4,0,0,0-1.3-3.1A4.22,4.22,0,0,0,352,89.17Zm2.8,7.2a3.69,3.69,0,0,1-2.8,1.1,4.11,4.11,0,0,1-2.8-1.1,3.69,3.69,0,0,1-1.1-2.8,4.11,4.11,0,0,1,1.1-2.8,3.69,3.69,0,0,1,2.8-1.1,4.11,4.11,0,0,1,2.8,1.1,4.11,4.11,0,0,1,0,5.6Z"/><path class="a" d="M354.6,95.87h-.1c-.2,0-.5-.2-.8-.7l-.1-.2-1-1.4a1.38,1.38,0,0,0,.9-1.3c0-.9-.6-1.3-1.8-1.3H350c-.1,0-.2,0-.2.1s.1.1.2.1h.2c.2,0,.4.2.4.6v3c0,.4,0,.7-.1.8s-.2.2-.4.3a.1.1,0,0,0-.1.1c0,.1.1.1.2.1H352c.1,0,.2,0,.2-.1s-.1-.1-.2-.1a.59.59,0,0,1-.5-.2c-.1-.1-.1-.3-.1-.6v-1.3h.6c.1,0,.2,0,.2.1V94l.9,1.4a1.41,1.41,0,0,0,1.2.8c.4,0,.6-.1.6-.2S354.7,95.87,354.6,95.87Zm-2.8-2.4h-.6v-1.8a.27.27,0,0,1,.3-.3,1.2,1.2,0,0,1,1.3,1.1C352.8,93.17,352.5,93.47,351.8,93.47Z"/></svg>