<svg xmlns="http://www.w3.org/2000/svg" viewBox="0 0 483.7 385.12"><defs><style>.a{fill:#fff;}</style></defs><title>Asset 1</title><path class="a" d="M233,210.22v-26H219.9V175H233v-.9c0-9.2-4.3-16-33.7-10.9l-48.3,8.6-27.8,38.6,66.7-11.8C209.9,195,227.5,194.32,233,210.22Z"/><path class="a" d="M264.7,173.82c-15.2,15.2-22.6,23.8-22.6,36.4,5.8-16.6,24.2-15.2,45.9-11l64.1,11.1-27.9-38.5-48.9-8.6Z"/><path class="a" d="M265.9,149.22c-5.9,5.9-16.2,15.3-21.1,25.7h10.7l12.4-12.3c11.4-11.4,20.1-20.1,23.8-31a40.1,40.1,0,0,0,2.1-19.9c-.3-2.2-1.2-5.2-1.3-4.6-1.1,12.4-4.5,19.8-22.5,37.7Z"/><path class="a" d="M232.3,73.22c6.6-6.6,23.3-21.5,23.3-34.5V24.42c0-.2-.3-.1-.3,0-1.1,9.6-3.4,13.8-27,37.4l-23.2,23.3c-12.3,12.3-22.3,25.4-21,40,.7,8.2,3.5,12.7,5.3,14,.9.6.7.2.4-.4-7.1-16.1,9.8-32.7,18.2-41.1Z"/><path class="a" d="M232.3,97.72c6.6-6.6,23.3-21.5,23.3-34.5V48.92c0-.2-.3-.1-.3,0-1.1,9.6-3.4,13.8-27,37.4l-21.6,21.6c-7.8,7.8-15,16.1-14.7,29.4.2,8.1,4.3,14.9,10.5,16.5,2.5.5,2.4.2,1.8,0-8.7-4.1-8.1-19.8,6-33.9Z"/><path class="a" d="M182.7,113.82c1.1-12.4,4.5-19.8,22.5-37.7l27.1-27.2c6.6-6.6,23.3-21.5,23.3-34.5V.12c0-.2-.3-.1-.3,0-1.1,9.6-3.4,13.8-27,37.4l-20.9,20.9c-11.4,11.4-20.1,20.1-23.8,31a40.1,40.1,0,0,0-2.1,19.9C181.7,111.32,182.6,114.42,182.7,113.82Z"/><path class="a" d="M242.4,198.42a31.76,31.76,0,0,1,5.6-14.2h-6v14.2C242.1,198.52,242.4,198.52,242.4,198.42Z"/><path class="a" d="M270.3,120.52l-6.9,6.8c-10.6,10.5-21.2,22.3-21.2,33.1v14.5c0,.1.3.1.3,0,1.1-10.6,6.2-17.4,21.5-32.7l6.3-6.4c12.3-12.3,22.3-25.4,21-40-.7-8.2-3.5-12.7-5.3-14-.9-.6-.7-.2-.4.4C292.7,98.32,275.8,114.92,270.3,120.52Z"/><path class="a" d="M242.1,149.82c0,.1.3.1.3,0,1.2-10,6.9-17.7,20.1-30.8l6.3-6.3c7.8-7.8,14.9-16,14.6-29.3-.2-8.1-4.3-14.9-10.5-16.5-2.5-.5-2.4-.2-1.8,0,8.7,4.1,8.1,19.8-6,33.9l-7.7,7.7c-5,5-15.3,16.2-15.3,26.6Z"/><path class="a" d="M349.7,192.32a5.5,5.5,0,1,0,0-11,5.22,5.22,0,0,0-4.2,1.9,5.15,5.15,0,0,0-1.3,3.6,5.42,5.42,0,0,0,5.5,5.5Zm-3.5-9a4.6,4.6,0,0,1,3.5-1.4,5,5,0,0,1,3.5,1.4,4.6,4.6,0,0,1,1.4,3.5,5,5,0,0,1-1.4,3.5,4.6,4.6,0,0,1-3.5,1.4,5,5,0,0,1-3.5-1.4,4.6,4.6,0,0,1-1.4-3.5A4.83,4.83,0,0,1,346.2,183.32Z"/><path class="a" d="M347.1,183.82h.2c.3,0,.5.3.5.7v3.8a2.51,2.51,0,0,1-.1,1,.46.46,0,0,1-.5.3.2.2,0,1,0,0,.4h2.2c.2,0,.2,0,.2-.2a.22.22,0,0,0-.2-.2,1.17,1.17,0,0,1-.7-.2c-.1-.1-.1-.3-.1-.7V187h.7c.1,0,.2.1.3.2l.1.1,1.2,1.7a1.68,1.68,0,0,0,1.5,1c.5,0,.7-.1.7-.2s0-.1-.1-.1h-.1c-.3,0-.7-.3-1-.9l-.2-.2-1.2-1.8a1.82,1.82,0,0,0,1.1-1.6c0-1.1-.7-1.6-2.2-1.6h-2.1a.22.22,0,0,0-.2.2C346.9,183.82,347,183.82,347.1,183.82Zm2,.1a1.5,1.5,0,0,1,1.1.4,1.39,1.39,0,0,1,.5,1,1.06,1.06,0,0,1-1.2,1.2h-.7v-2.2C348.7,184.12,348.8,183.92,349.1,183.92Z"/><path class="a" d="M46.4,275.42a16.3,16.3,0,0,0,.5,2.1c.1.3.4.5.7.8a13.9,13.9,0,0,0,4.1,1.6,25.75,25.75,0,0,0,5.2.7A15.48,15.48,0,0,0,67.5,277a11.6,11.6,0,0,0,4.1-9.3c0-5.6-3.8-9.6-11.2-12.1a72.44,72.44,0,0,1-7.3-2.7,8.3,8.3,0,0,1-2.7-2.3,6.64,6.64,0,0,1-1.4-4.4,6.06,6.06,0,0,1,2.2-4.8,8,8,0,0,1,5.5-1.9,13.91,13.91,0,0,1,7.5,2.1,10,10,0,0,1,4.4,5.4c.3,1,.7,1.5,1,1.5s.7-.3.7-.9c0-.2-.1-.6-.2-1.2l-.5-3.1a22.34,22.34,0,0,1-.4-3.1c0-1-.3-1.5-.8-1.5-.2,0-.3,0-.3.1l-.4.4a1.08,1.08,0,0,1-.7.3.75.75,0,0,1-.5-.1l-2.1-.9a14.72,14.72,0,0,0-5.5-.9,14.12,14.12,0,0,0-9.5,3.1,10.16,10.16,0,0,0-3.7,8,9.72,9.72,0,0,0,2.8,7.2c1.9,1.8,5.1,3.5,9.6,5s7,2.6,7.9,3.4a7.1,7.1,0,0,1,2.7,5.7,7.58,7.58,0,0,1-2.9,6,10.77,10.77,0,0,1-7.1,2.5,13,13,0,0,1-7.7-2.6,11.82,11.82,0,0,1-4.6-6.3c-.3-1-.6-1.5-1-1.5s-.6.3-.6.9a17.59,17.59,0,0,0,.8,3.9C46.1,274.32,46.3,275.22,46.4,275.42Z"/><path class="a" d="M76.5,250.32a3.12,3.12,0,0,1,2.7,1.1c.5.7.7,2.1.7,4.2v20c0,1.8-.5,2.8-1.6,3.1l-.8.2c-.4.1-.6.3-.6.5s.2.5.7.5a8.91,8.91,0,0,0,1.1-.2,33.91,33.91,0,0,1,5.4-.3,66.84,66.84,0,0,1,7,.4,11.56,11.56,0,0,0,1.7.1,6,6,0,0,0,4.9-2.4,5.71,5.71,0,0,0,1.6-3.4c0-.4-.1-.6-.4-.6s-.3.1-.5.4q-2.4,3.9-11.1,3.9a7.3,7.3,0,0,1-3.4-.5,3,3,0,0,1-.7-2.3v-8.8a1,1,0,0,1,.4-.9,3.71,3.71,0,0,1,1.4-.2h4.9a5.57,5.57,0,0,1,2.7.5,3.2,3.2,0,0,1,1.1,2l.1.6c.1.3.2.5.6.5s.4-.2.4-.6v-.6a24.37,24.37,0,0,1-.1-2.7c0-1.2.1-2.5.2-3.9v-.5c0-.4-.1-.6-.4-.6a.63.63,0,0,0-.6.5,4.37,4.37,0,0,1-.6,1.8,2.11,2.11,0,0,1-1.5.6,17.66,17.66,0,0,1-3.7.3H84.7a2,2,0,0,1-1.1-.2,2.23,2.23,0,0,1-.2-1.2v-8.9c0-.8.1-1.3.4-1.5a3.61,3.61,0,0,1,1.8-.3h3.5a24.42,24.42,0,0,1,4.7.3,2.57,2.57,0,0,1,1.7,1.3,3.08,3.08,0,0,1,.3,1.3v.6c0,.5.1.7.4.7a.46.46,0,0,0,.5-.3,9,9,0,0,0,.2-1.6l.1-1.3a11.06,11.06,0,0,1,.2-1.8,4.33,4.33,0,0,1,.1-.5c0-.4-.2-.6-.7-.6a3.44,3.44,0,0,0-.9.1c-.2,0-.7.1-1.6.1l-3.1.2c-1.4.1-3,.1-4.8.1a55.3,55.3,0,0,1-7.6-.4,8.64,8.64,0,0,0-1.5-.1c-.7,0-1,.2-1,.6C75.9,250.22,76.1,250.32,76.5,250.32Z"/><path class="a" d="M103,250.32c1.5.2,2.4.6,2.8,1.5s.6,2.8.6,5.8V271a20.12,20.12,0,0,1-.6,6,2.67,2.67,0,0,1-2.3,1.9c-.5.1-.7.2-.7.5s.2.4.6.4a7.17,7.17,0,0,0,1.3-.1,10.36,10.36,0,0,1,2-.1h5.6a9.89,9.89,0,0,0,1.5.1c.5,0,.8-.2.8-.6s-.2-.4-.7-.4a8.21,8.21,0,0,1-1.8-.3c-1.2-.3-1.8-1.3-2-3.1l-.1-1.8v-21.1a2.27,2.27,0,0,1,.3-1.3,1.74,1.74,0,0,1,1.2-.3,9.23,9.23,0,0,1,6.4,2.2,7,7,0,0,1,2.5,5.5,5.76,5.76,0,0,1-1.9,4.6,7.17,7.17,0,0,1-5.1,1.7,5.67,5.67,0,0,1-1.6-.2c-.2,0-.3-.1-.4-.1s-.4.1-.4.3.3.4,1.1.6a10.07,10.07,0,0,0,2.5.3,9.8,9.8,0,0,0,5.6-1.8,8,8,0,0,0,3.5-6.8,7.06,7.06,0,0,0-2.9-5.8,11.74,11.74,0,0,0-7.5-2.2,21.05,21.05,0,0,0-2.3.1,35.06,35.06,0,0,1-4.1.2c-.6,0-1.4-.1-2.3-.2a4.91,4.91,0,0,0-1.1-.1c-.6,0-.8.2-.9.5C102.4,250.22,102.6,250.32,103,250.32Z"/><path class="a" d="M140.1,252.22a1.74,1.74,0,0,1,1.2-.3h6.2a4.68,4.68,0,0,1,2.5.5,3.38,3.38,0,0,1,.9,2c.1.5.3.7.5.7s.5-.3.5-.7c0-.2-.1-.6-.1-1.1a9.23,9.23,0,0,1-.1-1.9c0-.9-.1-1.4-.3-1.6a2.37,2.37,0,0,0-1.5-.3H126.2a1.33,1.33,0,0,0-1,.3c-.2.2-.2.7-.2,1.3a13.81,13.81,0,0,1-.3,2.6,8.57,8.57,0,0,0-.3,1.7c0,.4.1.6.4.6s.5-.3.6-.8a5.68,5.68,0,0,1,1.2-2.7,3.68,3.68,0,0,1,2.6-.7H135a2.33,2.33,0,0,1,1.1.2c.2.1.2.5.2,1v22.6a4.33,4.33,0,0,1-.6,2.6,3.29,3.29,0,0,1-2.3.9c-.5.1-.7.2-.7.4s.2.5.7.5a13.58,13.58,0,0,0,1.5-.1c.4,0,.9-.1,1.6-.1h3.3a9.27,9.27,0,0,1,2,.1,5.38,5.38,0,0,0,1.1.1c.4,0,.6-.2.6-.5s-.3-.4-.8-.5a3.08,3.08,0,0,1-2.9-3.1v-22.5C139.9,252.82,139.9,252.42,140.1,252.22Z"/><path class="a" d="M157.1,277.92c-.3.6-1,1-2.2,1.2-.5.1-.7.2-.7.5s.2.5.6.5a4.91,4.91,0,0,0,1.1-.1l2.6-.2,3.2.1a12.89,12.89,0,0,1,2.3.1c.3,0,.6.1.8.1.5,0,.7-.2.7-.5s-.4-.4-1.1-.5a4.21,4.21,0,0,1-2-.7,3.44,3.44,0,0,1-1.1-1.6,15.9,15.9,0,0,1-.4-4.1v-16.5c0-3.1.5-4.9,1.6-5.3l1.1-.4q.6-.15.6-.6c0-.3-.2-.4-.6-.4H163l-1.5.1c-.8,0-1.7.1-2.8.1-1.8,0-3.2-.1-4.3-.2H154c-.4,0-.7.2-.6.5s.2.4.7.5c1.4.2,2.3.6,2.7,1.3a7.7,7.7,0,0,1,.6,3.7v18.9A6.72,6.72,0,0,1,157.1,277.92Z"/><path class="a" d="M182.3,252.22a1.74,1.74,0,0,1,1.2-.3h6.2a4.68,4.68,0,0,1,2.5.5,3.38,3.38,0,0,1,.9,2c.1.5.3.7.5.7s.5-.3.5-.7c0-.2-.1-.6-.1-1.1a9.23,9.23,0,0,1-.1-1.9c0-.9-.1-1.4-.3-1.6a2.37,2.37,0,0,0-1.5-.3H168.4a1.33,1.33,0,0,0-1,.3c-.2.2-.2.7-.2,1.3a13.81,13.81,0,0,1-.3,2.6,8.57,8.57,0,0,0-.3,1.7c0,.4.1.6.4.6s.5-.3.6-.8a5.68,5.68,0,0,1,1.2-2.7,3.68,3.68,0,0,1,2.6-.7h5.8a2.33,2.33,0,0,1,1.1.2c.2.1.2.5.2,1v22.6a4.33,4.33,0,0,1-.6,2.6,3.29,3.29,0,0,1-2.3.9c-.5.1-.7.2-.7.4s.2.5.7.5a13.58,13.58,0,0,0,1.5-.1c.4,0,.9-.1,1.6-.1H182a9.27,9.27,0,0,1,2,.1,5.38,5.38,0,0,0,1.1.1c.4,0,.6-.2.6-.5s-.3-.4-.8-.5a3.08,3.08,0,0,1-2.9-3.1v-22.5A5,5,0,0,1,182.3,252.22Z"/><path class="a" d="M213.8,278.92l-.7.2c-.4.1-.5.2-.5.5s.2.5.6.5a2.25,2.25,0,0,0,.7-.1,31.56,31.56,0,0,1,3.8-.1c2,0,3.3,0,4.1.1h.8c.4,0,.6-.1.6-.4s-.2-.5-.7-.5a5.87,5.87,0,0,1-2.8-1c-.5-.4-1-1.5-1.7-3.3l-.5-1.2-9.5-24.3q-.3-.6-.6-.6c-.2,0-.4.2-.6.7l-11.3,25.1-.6,1.5a10.59,10.59,0,0,1-1.2,2,3.64,3.64,0,0,1-1.2,1.1l-.8.2c-.2.1-.4.2-.4.5s.2.4.6.4a8.33,8.33,0,0,0,1.2-.1h3.4l2.1.1h.7c.4,0,.6-.1.6-.4s-.2-.4-.7-.5a4.26,4.26,0,0,1-2-.8,2.07,2.07,0,0,1-.5-1.5,8.74,8.74,0,0,1,1-3.3l1.4-3.2a4.24,4.24,0,0,1,1.1-1.8,4,4,0,0,1,2-.3h8a4,4,0,0,1,1.5.2c.2.1.4.6.7,1.4l1.1,2.9a15.91,15.91,0,0,1,1.3,4.7A1.18,1.18,0,0,1,213.8,278.92Zm-4.2-12.8h-7.2c-.7,0-1-.2-1-.6a2.71,2.71,0,0,1,.3-.8l4.3-9.5c.1-.3.2-.4.4-.4s.4.3.6.7l.2.5,3.5,8.7.1.4a1.09,1.09,0,0,1,.1.5A1.45,1.45,0,0,1,209.6,266.12Z"/><path class="a" d="M238.8,276.92a7.57,7.57,0,0,1-5.1,1.8,8.75,8.75,0,0,1-5.5-1.9,8.31,8.31,0,0,1-3.3-4.6c-.2-.7-.4-1.1-.7-1.1s-.4.2-.4.6a10.78,10.78,0,0,0,.6,2.8c.3,1.2.5,1.9.5,2a12.69,12.69,0,0,0,.4,1.5,2.65,2.65,0,0,0,.5.6,9,9,0,0,0,3,1.1,18,18,0,0,0,3.7.5,11.56,11.56,0,0,0,7.7-2.6,8.46,8.46,0,0,0,3-6.7c0-4-2.7-7-8.1-8.7-2.8-.9-4.5-1.6-5.2-1.9a6.27,6.27,0,0,1-2-1.7,5.09,5.09,0,0,1-1-3.2,4.31,4.31,0,0,1,1.6-3.5,6.09,6.09,0,0,1,4-1.4,10,10,0,0,1,5.4,1.5,7.11,7.11,0,0,1,3.2,3.9c.2.7.5,1.1.7,1.1s.5-.2.5-.7a4.4,4.4,0,0,0-.1-.9l-.4-2.3c-.2-1.2-.3-2-.3-2.2,0-.7-.2-1.1-.6-1.1-.1,0-.2,0-.2.1l-.3.3a1.69,1.69,0,0,1-.5.2.6.6,0,0,1-.4-.1l-1.5-.6a9.55,9.55,0,0,0-4-.7,9.94,9.94,0,0,0-6.8,2.2,7.66,7.66,0,0,0-.7,11,19.69,19.69,0,0,0,6.9,3.7q4.8,1.65,5.7,2.4a5.16,5.16,0,0,1,1.9,4.1A6.11,6.11,0,0,1,238.8,276.92Z"/><path class="a" d="M263.4,277.32a3.87,3.87,0,0,1-2.7,1.5c-.6.1-.9.3-.9.7s.4.7,1.1.7a14.93,14.93,0,0,0,1.7-.2,46.72,46.72,0,0,1,5.7-.3c2,0,4.4.1,7.1.3,1.3.1,2.3.2,2.8.2a22.79,22.79,0,0,0,12.2-3.5,18.13,18.13,0,0,0,6.9-7.6,22.11,22.11,0,0,0,2.5-10.6,19.82,19.82,0,0,0-5.7-14.6c-4.2-4.2-10.4-6.3-18.7-6.3-1.5,0-2.8.1-4,.2l-2.8.3c-1.1.1-2.7.2-4.8.2h-2.1l-2.4-.1c-.5,0-.8.2-.8.6s.3.6,1,.6c1.6.2,2.8.7,3.4,1.7a7.9,7.9,0,0,1,1,4.5V273A9.12,9.12,0,0,1,263.4,277.32Zm5.3-34.3a3.09,3.09,0,0,1,.8-2.5c.9-.7,2.9-1,6.1-1a19.08,19.08,0,0,1,11.5,3.4,18.25,18.25,0,0,1,6.1,7.5,24.4,24.4,0,0,1,2.2,10.5c0,7-2.4,12-7.1,14.9a17.71,17.71,0,0,1-9.4,2.6,29.53,29.53,0,0,1-8.3-1.6,2.67,2.67,0,0,1-1.9-2.6Z"/><path class="a" d="M315,278.92a4.21,4.21,0,0,1-2-.7,3.44,3.44,0,0,1-1.1-1.6,15.9,15.9,0,0,1-.4-4.1V256c0-3.1.5-4.9,1.6-5.3l1.1-.4q.6-.15.6-.6c0-.3-.2-.4-.6-.4h-.6l-1.5.1c-.8,0-1.7.1-2.8.1-1.8,0-3.2-.1-4.3-.2h-.4c-.4,0-.7.2-.6.5s.2.4.7.5c1.4.2,2.3.6,2.7,1.3a7.7,7.7,0,0,1,.6,3.7v18.9a9.34,9.34,0,0,1-.5,3.7c-.3.6-1,1-2.2,1.2-.5.1-.7.2-.7.5s.2.5.6.5a4.91,4.91,0,0,0,1.1-.1l2.6-.2,3.2.1a12.89,12.89,0,0,1,2.3.1c.3,0,.6.1.8.1.5,0,.7-.2.7-.5C316.1,279.22,315.7,279,315,278.92Z"/><path class="a" d="M340.7,277.72a5.71,5.71,0,0,0,1.6-3.4c0-.4-.1-.6-.4-.6s-.3.1-.5.4Q339,278,330.3,278a7.3,7.3,0,0,1-3.4-.5,3,3,0,0,1-.7-2.3v-8.8a1,1,0,0,1,.4-.9,3.71,3.71,0,0,1,1.4-.2h4.9a5.57,5.57,0,0,1,2.7.5,3.2,3.2,0,0,1,1.1,2l.1.6c.1.3.2.5.6.5s.4-.2.4-.6v-.6a24.37,24.37,0,0,1-.1-2.7c0-1.2.1-2.5.2-3.9v-.5c0-.4-.1-.6-.4-.6a.63.63,0,0,0-.6.5,4.37,4.37,0,0,1-.6,1.8,2.11,2.11,0,0,1-1.5.6,17.66,17.66,0,0,1-3.7.3h-3.4a2,2,0,0,1-1.1-.2,2.23,2.23,0,0,1-.2-1.2v-8.9c0-.8.1-1.3.4-1.5a3.36,3.36,0,0,1,1.8-.3h3.5a24.42,24.42,0,0,1,4.7.3,2.57,2.57,0,0,1,1.7,1.3,3.08,3.08,0,0,1,.3,1.3v.6c0,.5.1.7.4.7a.46.46,0,0,0,.5-.3,4.23,4.23,0,0,0,.2-1.6l.1-1.3a11.05,11.05,0,0,1,.2-1.8,4.33,4.33,0,0,1,.1-.5c0-.4-.2-.6-.7-.6a3.44,3.44,0,0,0-.9.1c-.2,0-.7.1-1.6.1l-3.1.2c-1.4.1-3,.1-4.8.1a55.3,55.3,0,0,1-7.6-.4,8.64,8.64,0,0,0-1.5-.1c-.7,0-1,.2-1,.6s.2.4.6.4a3.12,3.12,0,0,1,2.7,1.1c.5.7.7,2.1.7,4.2v20c0,1.8-.5,2.8-1.6,3.1l-.8.2c-.4.1-.6.3-.6.5s.2.5.7.5a8.91,8.91,0,0,0,1.1-.2,33.91,33.91,0,0,1,5.4-.3,66.84,66.84,0,0,1,7,.4,11.56,11.56,0,0,0,1.7.1A4.91,4.91,0,0,0,340.7,277.72Z"/><path class="a" d="M372,279.62a19.58,19.58,0,0,0,.1-3v-22.4a6.56,6.56,0,0,1,.4-2.9,2.68,2.68,0,0,1,1.8-1.1c.3-.1.5-.2.4-.4s-.2-.5-.6-.5a4.91,4.91,0,0,0-1.1.1,13.47,13.47,0,0,1-2.2.1c-1.7,0-3.1-.1-4.1-.2-.4,0-.7-.1-.9-.1-.4,0-.6.1-.6.4s.2.5.6.5a5,5,0,0,1,3.1,1.2A4.25,4.25,0,0,1,370,254l.3,5.1V273c0,.3-.1.4-.2.4s-.3-.2-.6-.5L349.2,250a1.54,1.54,0,0,0-1.1-.6h-4c-.3,0-.5.1-.5.4s.2.4.6.5a4.48,4.48,0,0,1,3.5,2.5,12.79,12.79,0,0,1,1.2,6v15a6,6,0,0,1-.7,3.4,4.43,4.43,0,0,1-2.5,1.7c-.4.1-.6.3-.6.5s.2.4.6.4a2.81,2.81,0,0,0,.8-.1,8.6,8.6,0,0,1,1.6-.1h1.1l2.2.1c1.1.1,1.8.1,1.9.1h.7c.3,0,.5-.1.5-.4s-.2-.5-.7-.6a4.27,4.27,0,0,1-2.3-.8,3.12,3.12,0,0,1-.7-2l-.1-1.6v-15.8c0-.7.1-1,.4-1a.37.37,0,0,1,.3.1l.2.2,18.6,21.2.5.6a.76.76,0,0,0,.5.2C371.7,280.12,371.9,279.92,372,279.62Z"/><path class="a" d="M376.5,279.92a8.33,8.33,0,0,0,1.2-.1h3.4l2.1.1h.7c.4,0,.6-.1.6-.4s-.2-.4-.7-.5a4.26,4.26,0,0,1-2-.8,2.07,2.07,0,0,1-.5-1.5,8.74,8.74,0,0,1,1-3.3l1.4-3.2a4.24,4.24,0,0,1,1.1-1.8,4,4,0,0,1,2-.3h8a4,4,0,0,1,1.5.2c.2.1.4.6.7,1.4l1.1,2.9a15.91,15.91,0,0,1,1.3,4.7c0,.9-.4,1.4-1.1,1.5l-.7.2c-.4.1-.6.2-.6.5s.2.5.6.5a2.25,2.25,0,0,0,.7-.1,31.56,31.56,0,0,1,3.8-.1c2,0,3.3,0,4.1.1h.8c.4,0,.6-.1.6-.4s-.2-.5-.7-.5a5.87,5.87,0,0,1-2.8-1c-.5-.4-1-1.5-1.7-3.3l-.5-1.2-9.5-24.3q-.3-.6-.6-.6c-.2,0-.4.2-.6.7l-11.3,25.1-.6,1.5a10.59,10.59,0,0,1-1.2,2,3.64,3.64,0,0,1-1.2,1.1l-.8.2c-.2.1-.4.2-.4.5A1.55,1.55,0,0,0,376.5,279.92Zm9.8-15.2,4.3-9.5c.1-.3.2-.4.4-.4s.4.3.6.7l.2.5,3.5,8.7.1.4a1.09,1.09,0,0,1,.1.5c0,.4-.4.6-1.1.6h-7.2c-.7,0-1-.2-1-.6C386,265.42,386.1,265.12,386.3,264.72Z"/><path class="a" d="M427.7,270.92c0-4-2.7-7-8.1-8.7-2.8-.9-4.5-1.6-5.2-1.9a6.27,6.27,0,0,1-2-1.7,5.09,5.09,0,0,1-1-3.2,4.31,4.31,0,0,1,1.6-3.5,6.09,6.09,0,0,1,4-1.4,10,10,0,0,1,5.4,1.5,7.11,7.11,0,0,1,3.2,3.9c.2.7.5,1.1.7,1.1s.5-.2.5-.7a4.4,4.4,0,0,0-.1-.9l-.4-2.3c-.2-1.2-.3-2-.3-2.2,0-.7-.2-1.1-.5-1.1-.1,0-.2,0-.2.1l-.3.3a1.69,1.69,0,0,1-.5.2.6.6,0,0,1-.4-.1l-1.5-.6a9.55,9.55,0,0,0-4-.7,9.94,9.94,0,0,0-6.8,2.2,7.66,7.66,0,0,0-.7,11,19.69,19.69,0,0,0,6.9,3.7q4.8,1.65,5.7,2.4a5.16,5.16,0,0,1,1.9,4.1,5.3,5.3,0,0,1-2.1,4.3,7.57,7.57,0,0,1-5.1,1.8,8.75,8.75,0,0,1-5.5-1.9,8.31,8.31,0,0,1-3.3-4.6c-.2-.7-.4-1.1-.7-1.1s-.5.2-.5.6a10.78,10.78,0,0,0,.6,2.8,9.84,9.84,0,0,0,.6,2,12.69,12.69,0,0,0,.4,1.5,2.65,2.65,0,0,0,.5.6,9,9,0,0,0,3,1.1,18,18,0,0,0,3.7.5,11.56,11.56,0,0,0,7.7-2.6A8.09,8.09,0,0,0,427.7,270.92Z"/><path class="a" d="M68,339.82c-3-.5-5.1-1.3-6-2.2s-2.2-3.4-3.7-7.2l-1.1-2.6L36.6,275c-.4-.9-.8-1.4-1.3-1.4s-1,.5-1.4,1.4L9.3,329.72l-1.4,3.2a18.77,18.77,0,0,1-2.7,4.2,6.75,6.75,0,0,1-2.6,2.3l-1.8.5a1.05,1.05,0,0,0-.8,1c0,.6.4.9,1.3.9.2,0,1-.1,2.7-.3.5,0,1.2-.1,2.2-.1,2,0,3.8,0,5.3.1l4.6.3c.7,0,1.3.1,1.6.1.9,0,1.4-.3,1.3-.8s-.5-.9-1.5-1.1a11.28,11.28,0,0,1-4.4-1.7A4.13,4.13,0,0,1,12,335q0-2.4,2.1-7.2l3.1-7.1c1-2.2,1.7-3.5,2.3-3.8s2-.6,4.4-.6H41.3c1.8,0,2.9.1,3.3.4a8.76,8.76,0,0,1,1.6,3.1l2.4,6.3c1.9,5.1,2.9,8.4,2.9,10.1,0,1.9-.8,2.9-2.4,3.3l-1.5.3c-.8.2-1.2.5-1.2,1,0,.7.4,1,1.2,1,.3,0,.8-.1,1.5-.2a65.77,65.77,0,0,1,8.3-.3c4.2,0,7.2.1,8.9.2a15.26,15.26,0,0,0,1.8.1c.9,0,1.3-.3,1.3-.8S69,340,68,339.82Zm-28.1-27.9H24.1c-1.5,0-2.2-.4-2.2-1.2a5.89,5.89,0,0,1,.6-1.8l9.3-20.8c.3-.6.5-.9.8-.9s.9.6,1.2,1.6l.4,1,7.5,19,.2.9a2.8,2.8,0,0,1,.2,1.1C42.3,311.52,41.5,311.92,39.9,311.92Z"/><path class="a" d="M90.3,291.82c-1.7,0-3.3.1-4.7.2l-3.3.3c-1.3.1-3.2.2-5.6.2H74.2l-2.8-.1c-.6,0-.9.2-.9.7s.4.7,1.2.7a5.41,5.41,0,0,1,4.1,2c.8,1.1,1.2,2.9,1.2,5.3v32.3c0,2.7-.2,4.4-.7,5.3s-1.5,1.5-3.2,1.8c-.7.1-1,.4-1,.8,0,.6.4.9,1.3.8a19.09,19.09,0,0,0,2-.2,43.83,43.83,0,0,1,6.7-.4q3.6,0,8.4.3c1.6.1,2.7.2,3.3.2a27.06,27.06,0,0,0,14.4-4.1,23.43,23.43,0,0,0,8.2-8.9,26,26,0,0,0,2.9-12.4c0-7-2.2-12.8-6.7-17.3C107.4,294.22,100.1,291.82,90.3,291.82Zm15,45a20.1,20.1,0,0,1-11,3.1,35,35,0,0,1-5-.5,30.78,30.78,0,0,1-4.9-1.3,3,3,0,0,1-2.2-3v-36.9c0-1.5.3-2.5.9-2.9q1.5-1.2,7.2-1.2a22.25,22.25,0,0,1,13.5,4A22.87,22.87,0,0,1,111,307a29.93,29.93,0,0,1,2.6,12.4C113.6,327.52,110.9,333.42,105.3,336.82Z"/><path class="a" d="M144.7,343.62q.75,0,1.5-1.8L164,300l1-2.3a7.38,7.38,0,0,1,3.9-4.2c.5-.2.8-.4.8-.8s-.2-.6-.7-.6h-7.1c-.4,0-1.4,0-3.2-.1h-1c-.8,0-1.2.2-1.2.7s.6.7,2,1a5.33,5.33,0,0,1,2.2.8c.4.3.5.9.5,1.7,0,2.3-1.7,7.5-5.1,15.5l-7.9,18.7-.6,1.3c-.6,1.4-1,2-1.3,2s-.6-.4-.9-1.2l-13.8-31.7a14.91,14.91,0,0,1-1.5-5c0-.6.1-1.1.4-1.3a4.14,4.14,0,0,1,1.8-.9c.5-.2.7-.4.7-.8s-.3-.7-1-.7a4.59,4.59,0,0,0-1,.1,22,22,0,0,1-2.3.1h-5.8a26.66,26.66,0,0,1-3.6-.1c-.5,0-.8-.1-1-.1-.7,0-1,.2-1,.7a.6.6,0,0,0,.3.6,12.2,12.2,0,0,0,2.2.5,4.53,4.53,0,0,1,2.8,1.5,14.39,14.39,0,0,1,2.3,4.1l18.2,42.2C143.7,343,144.2,343.62,144.7,343.62Z"/><path class="a" d="M177.4,334.92c0,2.9-.9,4.6-2.6,5l-1.4.4c-.6.2-.9.4-.9.8s.4.8,1.1.8c.3,0,1-.1,1.9-.2a61.5,61.5,0,0,1,8.9-.4c3,0,6.8.2,11.3.6,1.2.1,2.1.1,2.8.1a9.89,9.89,0,0,0,8-3.9c1.7-2.1,2.6-4,2.6-5.5,0-.6-.2-1-.7-.9-.3,0-.5.2-.8.6-2.7,4.2-8.7,6.3-18.1,6.3-3,0-4.8-.2-5.5-.8s-1.1-1.8-1.1-3.8v-14.4c0-.7.2-1.2.6-1.4a5.54,5.54,0,0,1,2.3-.4h7.9a8,8,0,0,1,4.4.9,4.75,4.75,0,0,1,1.7,3.3l.2,1a.88.88,0,0,0,.9.8c.5,0,.7-.3.7-.9a4.14,4.14,0,0,0-.1-1c-.1-1.4-.2-2.9-.2-4.3q0-2.85.3-6.3v-.8c0-.6-.2-.9-.7-1s-.8.3-.9.9a8.23,8.23,0,0,1-1,3,4.55,4.55,0,0,1-2.5,1,31.85,31.85,0,0,1-6,.4H185a3.12,3.12,0,0,1-1.8-.3,3.77,3.77,0,0,1-.3-2V298a3.61,3.61,0,0,1,.6-2.5c.4-.4,1.4-.6,2.9-.6H192a40.88,40.88,0,0,1,7.6.5,4,4,0,0,1,2.8,2.2,5.38,5.38,0,0,1,.4,2.2v.9c0,.7.2,1.1.7,1.1a.76.76,0,0,0,.8-.6c.1-.3.2-1.2.4-2.6l.1-2.1a20.82,20.82,0,0,1,.3-2.9,2.48,2.48,0,0,0,.1-.8c0-.7-.4-1-1.2-1a8.17,8.17,0,0,0-1.4.1,14.32,14.32,0,0,1-2.6.1l-5.1.2c-2.2.1-4.8.1-7.8.1a107.4,107.4,0,0,1-12.3-.6c-1-.1-1.8-.2-2.4-.2-1.1,0-1.6.3-1.6,1,0,.4.3.7,1,.7,2.2,0,3.6.6,4.4,1.8s1.1,3.5,1.1,6.9v30.7Z"/><path class="a" d="M261.3,293.52c.5-.1.7-.4.7-.7,0-.5-.4-.8-1-.8-.4,0-1,.1-1.8.2a32.08,32.08,0,0,1-3.6.2,56.23,56.23,0,0,1-6.6-.3,9.89,9.89,0,0,0-1.5-.1c-.7,0-1,.2-1,.7s.3.8,1,.9c2.5.4,4.2,1,5.1,1.9a7.48,7.48,0,0,1,1.8,4.3l.4,8.3v22.6c0,.4-.2.7-.4.7a2.91,2.91,0,0,1-1-.9l-33-37.4a2.39,2.39,0,0,0-1.8-1h-1.9l-2.4-.1h-2.1c-.5,0-.8.2-.8.7s.3.7,1,.8a7.28,7.28,0,0,1,5.7,4.1c1.3,2.4,2,5.6,2,9.8v24.4a11,11,0,0,1-1.1,5.6,7.29,7.29,0,0,1-4.1,2.8c-.7.2-1,.5-1,.9s.4.7,1,.7a7.17,7.17,0,0,0,1.3-.1,21.3,21.3,0,0,1,2.7-.2l1.7-.1,3.7.2c1.8.1,2.9.2,3.1.2.4,0,.7.1,1.1.1s.8-.2.8-.7-.4-.8-1.2-.9c-1.9-.3-3.2-.7-3.8-1.3a5.09,5.09,0,0,1-1.2-3.3l-.1-2.6v-25.9c0-1.1.2-1.6.7-1.6a.76.76,0,0,1,.5.2l.4.4,30.2,34.6.8.9a1.14,1.14,0,0,0,.8.3.91.91,0,0,0,1-.8,38.81,38.81,0,0,0,.2-4.9v-30.1l.1-2.4v-3.9c0-2.3.2-3.9.7-4.7A4.36,4.36,0,0,1,261.3,293.52Z"/><path class="a" d="M291.1,296.62c.3-.3.9-.4,2-.4h10.1a7.66,7.66,0,0,1,4.1.8q1.05.75,1.5,3.3c.1.8.4,1.1.9,1.1s.8-.4.8-1.1c0-.4-.1-.9-.2-1.8a20.51,20.51,0,0,1-.2-3.1c0-1.4-.1-2.3-.4-2.5s-1.1-.4-2.4-.4H268.7a2.17,2.17,0,0,0-1.6.5,3.67,3.67,0,0,0-.4,2.2,28.35,28.35,0,0,1-.5,4.3,13.83,13.83,0,0,0-.4,2.8c0,.6.2.9.6,1s.8-.4,1-1.4a9,9,0,0,1,2-4.4,6.2,6.2,0,0,1,4.2-1.2h9.5c.9,0,1.5.1,1.7.4s.4.8.4,1.7v36.5c0,2-.3,3.4-1,4.2s-1.9,1.3-3.7,1.5c-.8.1-1.2.3-1.2.7s.4.8,1.1.8c.2,0,1-.1,2.4-.2a19.34,19.34,0,0,1,2.6-.1h5.4a22.1,22.1,0,0,1,3.2.1c.9.1,1.5.2,1.8.2.7,0,1-.3,1-.8s-.4-.7-1.3-.8c-3-.5-4.6-2.2-4.7-5v-36.6C290.7,297.62,290.8,296.92,291.1,296.62Z"/><path class="a" d="M327.7,294.32l1.9-.7q.9-.3.9-.9c0-.4-.3-.7-1-.7h-.9l-2.4.2c-1.3.1-2.8.1-4.6.1a65.42,65.42,0,0,1-7-.3H314c-.7,0-1.1.3-1,.8s.4.7,1.2.8c2.2.4,3.7,1.1,4.4,2.1s1,3,1,6v30.8c0,3-.3,5-.8,6s-1.7,1.6-3.5,1.9c-.7.1-1.1.4-1.1.8s.3.7,1,.7a10.9,10.9,0,0,0,1.7-.1l4.2-.2,5.2.1a29.22,29.22,0,0,1,3.8.2,7.08,7.08,0,0,0,1.4.1c.7,0,1.1-.3,1.1-.8s-.6-.7-1.8-.9a7.45,7.45,0,0,1-3.3-1.1,6,6,0,0,1-1.8-2.6c-.4-1.1-.6-3.3-.6-6.7V303C325,297.92,325.9,295,327.7,294.32Z"/><path class="a" d="M354.9,312.92c-4.5-1.5-7.4-2.6-8.5-3.1a10,10,0,0,1-3.2-2.7,8.53,8.53,0,0,1-1.7-5.2,7.32,7.32,0,0,1,2.6-5.7,9.55,9.55,0,0,1,6.5-2.3,15.84,15.84,0,0,1,8.8,2.5,11.89,11.89,0,0,1,5.2,6.4c.4,1.2.8,1.7,1.2,1.7s.8-.4.8-1.1c0-.2-.1-.7-.2-1.5l-.6-3.7c-.3-2-.5-3.2-.5-3.6q0-1.8-.9-1.8c-.2,0-.3.1-.4.1l-.5.4a1.8,1.8,0,0,1-.9.4,1.27,1.27,0,0,1-.6-.1l-2.5-1a17.64,17.64,0,0,0-6.5-1.1c-4.5,0-8.3,1.2-11.1,3.7a11.73,11.73,0,0,0-4.3,9.5,11.45,11.45,0,0,0,3.3,8.5c2.2,2.2,6,4.2,11.3,6,5.1,1.7,8.2,3.1,9.3,4a8.62,8.62,0,0,1,3.2,6.7,9,9,0,0,1-3.4,7.1,12.79,12.79,0,0,1-8.4,2.9,15,15,0,0,1-9-3,13.3,13.3,0,0,1-5.4-7.5c-.3-1.2-.7-1.7-1.2-1.8s-.7.3-.7,1a20.59,20.59,0,0,0,.9,4.6,30.69,30.69,0,0,1,.9,3.3c.3,1.3.5,2.2.6,2.5a1.91,1.91,0,0,0,.9.9,14,14,0,0,0,4.9,1.8,27.66,27.66,0,0,0,6.1.8c5.1,0,9.3-1.4,12.5-4.3a14,14,0,0,0,4.9-11C368.2,320.52,363.8,315.82,354.9,312.92Z"/><path class="a" d="M416.1,295.42c0-1.4-.1-2.3-.4-2.5s-1.1-.4-2.4-.4H374.7a2.17,2.17,0,0,0-1.6.5,3.67,3.67,0,0,0-.4,2.2,28.35,28.35,0,0,1-.5,4.3,13.83,13.83,0,0,0-.4,2.8c0,.6.2.9.6,1s.8-.4,1-1.4a9,9,0,0,1,2-4.4,6.2,6.2,0,0,1,4.2-1.2h9.5c.9,0,1.5.1,1.7.4s.4.8.4,1.7v36.5c0,2-.3,3.4-1,4.2s-1.9,1.3-3.7,1.5c-.8.1-1.2.3-1.2.7s.4.8,1.1.8c.2,0,1-.1,2.4-.2a19.34,19.34,0,0,1,2.6-.1h5.4a22.1,22.1,0,0,1,3.2.1c.9.1,1.5.2,1.8.2.7,0,1-.3,1-.8s-.4-.7-1.3-.8c-3-.5-4.6-2.2-4.7-5v-36.6c0-1.1.1-1.8.4-2.1s.9-.4,2-.4h10.1a7.66,7.66,0,0,1,4.1.8q1.05.75,1.5,3.3c.1.8.4,1.1.9,1.1s.8-.4.8-1.1c0-.4-.1-.9-.2-1.8A14.84,14.84,0,0,1,416.1,295.42Z"/><path class="a" d="M469.3,292.12a13.61,13.61,0,0,0-1.6.1c-.6.1-2.3.1-4.9.1a29.17,29.17,0,0,1-3.3-.2,13.06,13.06,0,0,0-2.3-.3c-.5,0-.7.2-.7.7s.3.7,1,.8a5.62,5.62,0,0,1,4.4,2.3c.9,1.4,1.3,3.5,1.3,6.5v18.6q0,9.45-4.2,14.1c-2.8,3.1-7.1,4.7-12.8,4.7-6.4,0-10.9-1.9-13.6-5.6-1.9-2.6-2.9-7-2.9-13.2v-18.1l-.1-2.4c0-2.3.2-3.9.7-4.8a3.88,3.88,0,0,1,2.8-1.8c.8-.1,1.1-.4,1.1-.9s-.3-.6-.8-.6a15.26,15.26,0,0,0-1.8.1c-1.1.1-1.7.1-2,.1h-5.5c-.5,0-1.3,0-2.4-.1s-1.9-.1-2.5-.1c-.9,0-1.4.3-1.4.8s.3.6,1,.7a6.91,6.91,0,0,1,4.3,1.9c.7,1,1.1,2.7,1.1,5.3l.1,2V321c0,5,.8,9.1,2.5,12.2a15.92,15.92,0,0,0,7.1,6.4,25.73,25.73,0,0,0,20.8.4,17,17,0,0,0,7.1-5.3c2.6-3.5,3.9-8.5,3.9-15.1v-17.8a20.46,20.46,0,0,1,.6-6.1,4.69,4.69,0,0,1,2.8-2.5c.5-.2.8-.5.8-.8C470,292.32,469.7,292.12,469.3,292.12Z"/><path class="a" d="M161.9,368c-.7-.2-1.1-.3-1.1-.5s.1-.2.3-.3l.9-.7a6.24,6.24,0,0,0,2.9-5.4,6,6,0,0,0-2.8-5.3c-1.9-1.3-4.4-1.9-7.7-1.9a17,17,0,0,0-2.2.1l-2.5.2h-5.4c-.6,0-.9.2-.9.5s.3.5.9.5a3.07,3.07,0,0,1,2.7,1.4,7.87,7.87,0,0,1,.9,4.3v17a20.57,20.57,0,0,1-.3,3.9,2.45,2.45,0,0,1-2.2,2.1c-.4.1-.7.2-.7.5s.2.5.6.5a9.89,9.89,0,0,0,1.5-.1,9.72,9.72,0,0,1,1.8-.1c.7,0,1.6,0,2.8.1l1.8.1,2,.1,1.7.1a11.29,11.29,0,0,0,7.6-2.6,8.6,8.6,0,0,0,3-6.7,7.51,7.51,0,0,0-1.6-4.8A6.45,6.45,0,0,0,161.9,368Zm-10.6-10.6a2.57,2.57,0,0,1,.5-1.8,3.13,3.13,0,0,1,2-.4,8.27,8.27,0,0,1,5.8,2.1,6.59,6.59,0,0,1,2.4,5.2c0,3.3-1.8,5-5.5,5h-3.6a2.23,2.23,0,0,1-1.2-.2c-.2-.1-.3-.5-.3-1v-8.9Zm11,24.3a7.66,7.66,0,0,1-5.4,1.8,13.59,13.59,0,0,1-4-.4,2.11,2.11,0,0,1-1.6-1.4l-.1-.9v-11.2a1,1,0,0,1,.2-.7,2.25,2.25,0,0,1,1-.1h4.3A7,7,0,0,1,162,371a7.71,7.71,0,0,1,2.1,5.5A6.28,6.28,0,0,1,162.3,381.72Z"/><path class="a" d="M199.8,383.62a5.87,5.87,0,0,1-2.8-1c-.5-.4-1-1.5-1.7-3.3l-.5-1.2-9.5-24.3q-.3-.6-.6-.6c-.2,0-.4.2-.6.7L172.8,379l-.6,1.5a10.59,10.59,0,0,1-1.2,2,3.64,3.64,0,0,1-1.2,1.1l-.8.2c-.2.1-.4.2-.4.5s.2.4.6.4a8.33,8.33,0,0,0,1.2-.1h3.4l2.1.1h.7c.4,0,.6-.1.6-.4s-.2-.4-.7-.5a4.26,4.26,0,0,1-2-.8,2.07,2.07,0,0,1-.5-1.5,8.74,8.74,0,0,1,1-3.3l1.4-3.2a4.24,4.24,0,0,1,1.1-1.8,4,4,0,0,1,2-.3h8a4,4,0,0,1,1.5.2c.2.1.4.6.7,1.4l1.1,2.9a15.91,15.91,0,0,1,1.3,4.7c0,.9-.4,1.4-1.1,1.5h-.6c-.4.1-.6.2-.6.5s.2.5.6.5a2.25,2.25,0,0,0,.7-.1,31.57,31.57,0,0,1,3.8-.1c2,0,3.3,0,4.1.1h.8c.4,0,.6-.1.6-.4S200.2,383.72,199.8,383.62Zm-12.9-12.9h-7.3c-.7,0-1-.2-1-.6a2.71,2.71,0,0,1,.3-.8l4.3-9.5c.1-.3.2-.4.4-.4s.4.3.6.7l.2.5,3.5,8.7.1.4a1.09,1.09,0,0,1,.1.5C188,370.62,187.6,370.72,186.9,370.72Z"/><path class="a" d="M222.4,379.62q-.3,0-1.5,1.2a5.85,5.85,0,0,1-2.4,1.4,17.91,17.91,0,0,1-3.9.4h-7.1c-.8,0-1.2-.3-1.2-.8a2.54,2.54,0,0,1,.2-.7l.3-.4,14.3-24.8a1.42,1.42,0,0,0,.2-.6c0-.6-.5-.8-1.3-.8H203.7c-.6,0-1,.1-1.1.4a6.14,6.14,0,0,0-.4,2.3,6.27,6.27,0,0,1-.2,1.6,6.36,6.36,0,0,0-.3,1.5c0,.4.1.5.4.5s.4-.2.6-.6a7.43,7.43,0,0,1,1.4-2.3,3.88,3.88,0,0,1,1.7-1.3,7.94,7.94,0,0,1,2.6-.3h7.5c.7,0,1,.1,1,.4a1.69,1.69,0,0,1-.2.5l-.2.3-14.9,25.7a1.08,1.08,0,0,0-.2.7q0,.6,1.2.6h16.8a3.45,3.45,0,0,0,1.2-.1,1.36,1.36,0,0,0,.6-.8l.8-1.5.7-1.4a1.42,1.42,0,0,0,.2-.6C222.8,379.72,222.7,379.62,222.4,379.62Z"/><path class="a" d="M253.4,354a4.91,4.91,0,0,0-1.1.1,13.47,13.47,0,0,1-2.2.1c-1.7,0-3.1-.1-4.1-.2-.4,0-.7-.1-.9-.1-.4,0-.6.1-.6.4s.2.5.6.5a5,5,0,0,1,3.1,1.2,4.25,4.25,0,0,1,1.1,2.7l.3,5.1v13.9c0,.3-.1.4-.2.4s-.3-.2-.6-.5l-20.3-22.9a1.54,1.54,0,0,0-1.1-.6h-4c-.3,0-.5.1-.5.4s.2.4.6.5a4.48,4.48,0,0,1,3.5,2.5,12.79,12.79,0,0,1,1.2,6v15a6,6,0,0,1-.7,3.4,4.43,4.43,0,0,1-2.5,1.7c-.4.1-.6.3-.6.5s.2.4.6.4a2.81,2.81,0,0,0,.8-.1,8.6,8.6,0,0,1,1.6-.1h1.1l2.2.1c1.1.1,1.8.1,1.9.1h.7c.3,0,.5-.1.5-.4s-.2-.5-.7-.6a4.27,4.27,0,0,1-2.3-.8,3.76,3.76,0,0,1-.8-2l-.1-1.6v-15.8c0-.7.1-1,.4-1a.37.37,0,0,1,.3.1l.2.2,18.6,21.2.5.6a.76.76,0,0,0,.5.2.63.63,0,0,0,.6-.5,19.58,19.58,0,0,0,.1-3v-22.4a6.56,6.56,0,0,1,.4-2.9,2.68,2.68,0,0,1,1.8-1.1c.3-.1.5-.2.4-.4C254,354.22,253.8,354,253.4,354Z"/><path class="a" d="M268.8,383.52a4.21,4.21,0,0,1-2-.7,3.44,3.44,0,0,1-1.1-1.6,15.9,15.9,0,0,1-.4-4.1v-16.5c0-3.1.5-4.9,1.6-5.3l1.1-.4q.6-.15.6-.6c0-.3-.2-.4-.6-.4h-.5l-1.5.1c-.8,0-1.7.1-2.8.1-1.8,0-3.2-.1-4.3-.2h-.4c-.4,0-.7.2-.6.5s.2.4.7.5c1.4.2,2.3.6,2.7,1.3a7.7,7.7,0,0,1,.6,3.7v18.9a9.34,9.34,0,0,1-.5,3.7c-.3.6-1,1-2.2,1.2-.5.1-.7.2-.7.5s.2.4.6.4a4.91,4.91,0,0,0,1.1-.1l2.6-.2H266a12.89,12.89,0,0,1,2.3.1,2.49,2.49,0,0,0,.8.1c.5,0,.7-.2.7-.5S269.5,383.62,268.8,383.52Z"/><path class="a" d="M301.2,376.22q-.3,0-.9,1.2a10.15,10.15,0,0,1-4.4,4.3,13,13,0,0,1-6.5,1.8,11.56,11.56,0,0,1-9.3-4.4,17.11,17.11,0,0,1-3.6-11.2c0-4,1.1-7.1,3.2-9.4a11.67,11.67,0,0,1,8.9-3.5c4.7,0,8.4,2.4,11.2,7.2.4.6.6.9.8.9s.3-.1.3-.2l.1-.2-.1-.5-.7-5.3c-.1-.6-.2-.8-.5-.8-.1,0-.3.1-.7.4a1.44,1.44,0,0,1-.3.2l-.4-.1-.4-.2-.9-.5a17.55,17.55,0,0,0-8.5-2.1,15.39,15.39,0,0,0-15.8,15.9c0,4.6,1.4,8.3,4.3,11.1s6.7,4.2,11.4,4.2a20.86,20.86,0,0,0,11.2-3.2c.6-.4,1-.8,1-1.2l.1-.4.5-2.7.1-.5v-.2C301.5,376.42,301.4,376.22,301.2,376.22Z"/><path class="a" d="M333.3,383.62a5.87,5.87,0,0,1-2.8-1c-.5-.4-1-1.5-1.7-3.3l-.5-1.2-9.5-24.3q-.3-.6-.6-.6c-.2,0-.4.2-.6.7L306.3,379l-.6,1.5a10.59,10.59,0,0,1-1.2,2,3.64,3.64,0,0,1-1.2,1.1l-.8.2c-.2.1-.4.2-.4.5s.2.4.6.4a8.33,8.33,0,0,0,1.2-.1h3.4l2.1.1h.8c.4,0,.6-.1.6-.4s-.2-.4-.7-.5a4.26,4.26,0,0,1-2-.8,2.07,2.07,0,0,1-.5-1.5,8.74,8.74,0,0,1,1-3.3L310,375a4.24,4.24,0,0,1,1.1-1.8,4,4,0,0,1,2-.3h8a4,4,0,0,1,1.5.2c.2.1.4.6.7,1.4l1.1,2.9a15.91,15.91,0,0,1,1.3,4.7c0,.9-.4,1.4-1.1,1.5l-.7.2c-.4.1-.5.2-.5.5s.2.5.6.5a2,2,0,0,0,.7-.1,31.57,31.57,0,0,1,3.8-.1c2,0,3.3,0,4.1.1h.8c.4,0,.6-.1.6-.4C334,383.82,333.7,383.72,333.3,383.62Zm-12.9-12.9h-7.2c-.7,0-1-.2-1-.6a2.71,2.71,0,0,1,.3-.8l4.3-9.5c.1-.3.2-.4.4-.4s.4.3.6.7l.2.5,3.5,8.7.1.4a1.09,1.09,0,0,1,.1.5C321.5,370.62,321.1,370.72,320.4,370.72Z"/><path class="a" d="M154.3,246.72h9.2s.8.2.8-.8v-1a.72.72,0,0,0-.8-.7h-9.2s-.7,0-.7.6V246A.69.69,0,0,0,154.3,246.72Z"/><path class="a" d="M211.8,246.72s.8.2.8-.8v-1a.72.72,0,0,0-.8-.7h-9.2s-.7,0-.7.6V246s.1.7.7.7Z"/><path class="a" d="M258.6,351.32h9.2s.8.2.8-.8v-.9a.72.72,0,0,0-.8-.7h-9.2s-.7,0-.7.6v1.1S258,351.32,258.6,351.32Z"/><path class="a" d="M481.5,295.32h-.1c-.3,0-.7-.3-1-.9l-.2-.2-1.2-1.8a1.82,1.82,0,0,0,1.1-1.6c0-1.1-.7-1.6-2.2-1.6h-2.1a.2.2,0,1,0,0,.4h.2c.3,0,.5.3.5.7v3.8a2.51,2.51,0,0,1-.1,1,.46.46,0,0,1-.5.3.2.2,0,0,0,0,.4h2.2c.2,0,.2,0,.2-.2a.22.22,0,0,0-.2-.2c-.3,0-.6-.1-.6-.2s-.1-.3-.1-.7v-1.7h.7c.1,0,.2.1.3.2l.1.1,1.2,1.7a1.68,1.68,0,0,0,1.5,1c.5,0,.7-.1.7-.2C481.6,295.42,481.6,295.32,481.5,295.32Zm-3.6-3.1h-.7V290c0-.2.1-.3.4-.3a1.5,1.5,0,0,1,1.1.4,1.39,1.39,0,0,1,.5,1C479.2,291.82,478.8,292.22,477.9,292.22Z"/><path class="a" d="M482.1,288.52a5.28,5.28,0,0,0-3.9-1.6,5.22,5.22,0,0,0-4.2,1.9,5.15,5.15,0,0,0-1.3,3.6A5.51,5.51,0,0,0,474,296a5.22,5.22,0,0,0,4.2,1.9,5.52,5.52,0,0,0,3.9-9.4Zm-.4,7.4a4.6,4.6,0,0,1-3.5,1.4,5,5,0,0,1-3.5-1.4,4.6,4.6,0,0,1-1.4-3.5,5,5,0,0,1,1.4-3.5,4.6,4.6,0,0,1,3.5-1.4,5,5,0,0,1,3.5,1.4,4.6,4.6,0,0,1,1.4,3.5A4.83,4.83,0,0,1,481.7,295.92Z"/></svg>