<svg xmlns="http://www.w3.org/2000/svg" viewBox="0 0 482.8 401.62"><defs><style>.a{fill:#fff;}</style></defs><title>Asset 1</title><path class="a" d="M236.8,218.92v-27.1H223.1v-9.6h13.7v-.9c0-9.6-4.4-16.7-35-11.4l-50.3,9-29,40.2,69.5-12.3C212.7,203.12,231,202.42,236.8,218.92Z"/><path class="a" d="M269.8,181c-15.8,15.8-23.5,24.8-23.5,37.9,6-17.3,25.2-15.8,47.8-11.5l66.7,11.5-29-40.1-50.9-9Z"/><path class="a" d="M271,155.42c-6.2,6.2-16.9,15.9-21.9,26.8h11.2l12.9-12.8c11.8-11.8,21-20.9,24.8-32.2a42.15,42.15,0,0,0,2.2-20.7c-.3-2.3-1.3-5.5-1.3-4.8-1.1,12.9-4.7,20.6-23.4,39.3Z"/><path class="a" d="M236,76.32c6.9-6.9,24.2-22.4,24.2-35.9V25.52c0-.2-.3-.1-.3,0-1.2,10-3.6,14.4-28.1,38.9l-24.2,24.2c-12.8,12.8-23.2,26.5-21.9,41.7.8,8.5,3.6,13.2,5.5,14.6.9.7.7.2.5-.4-7.4-16.7,10.2-34,19-42.8Z"/><path class="a" d="M260.2,51c0-.2-.3-.1-.3,0-1.2,10-3.6,14.4-28.1,38.9l-22.5,22.5c-8.2,8.2-15.7,16.7-15.3,30.6.2,8.5,4.5,15.5,10.9,17.1,2.6.6,2.5.2,1.8,0-9.1-4.3-8.4-20.6,6.2-35.3l23.1-23.1c6.9-6.9,24.2-22.4,24.2-35.9V51Z"/><path class="a" d="M184.4,118.52c1.1-12.9,4.7-20.6,23.4-39.3L236,50.92c6.9-6.9,24.2-22.4,24.2-35.9V.12c0-.2-.3-.1-.3,0-1.2,10-3.6,14.4-28.1,38.9l-21.7,21.8c-11.8,11.8-21,20.9-24.8,32.2a42.15,42.15,0,0,0-2.2,20.7C183.4,116,184.3,119.22,184.4,118.52Z"/><path class="a" d="M246.6,206.62a32.25,32.25,0,0,1,5.9-14.8h-6.2v14.8C246.3,206.72,246.6,206.72,246.6,206.62Z"/><path class="a" d="M275.5,125.52l-7.1,7.1c-11,10.9-22.1,23.2-22.1,34.5v15.1c0,.1.3.1.3,0,1.2-11,6.5-18.1,22.4-34l6.6-6.6c12.8-12.8,23.2-26.5,21.8-41.7-.8-8.5-3.6-13.2-5.5-14.6-.9-.7-.7-.2-.5.4C298.9,102.42,281.3,119.72,275.5,125.52Z"/><path class="a" d="M246.3,156c0,.1.3.1.3,0,1.2-10.5,7.2-18.4,20.9-32.1l6.5-6.5c8.2-8.2,15.5-16.7,15.2-30.5-.2-8.5-4.5-15.5-10.9-17.1-2.6-.6-2.5-.2-1.8,0,9.1,4.3,8.4,20.6-6.2,35.3l-8.1,8c-5.2,5.2-15.9,16.9-15.9,27.7Z"/><path class="a" d="M355.6,191.52h.2c.3,0,.5.3.5.8v3.9a2.24,2.24,0,0,1-.1,1,.46.46,0,0,1-.5.3.2.2,0,0,0,0,.4h2.2c.2,0,.2-.1.2-.2a.22.22,0,0,0-.2-.2,1.17,1.17,0,0,1-.7-.2c-.1-.1-.1-.4-.1-.7v-1.8h.7c.1,0,.3.1.3.2l.1.1,1.2,1.8a1.93,1.93,0,0,0,1.5,1c.5,0,.7-.1.8-.2s0-.1-.1-.1h-.2c-.3,0-.7-.3-1.1-.9l-.2-.2-1.3-1.9a1.79,1.79,0,0,0,1.1-1.7c0-1.1-.8-1.7-2.3-1.7h-2.1a.22.22,0,0,0-.2.2C355.4,191.42,355.4,191.42,355.6,191.52Zm2,.1a1.59,1.59,0,0,1,1.2.4,1.39,1.39,0,0,1,.5,1c0,.8-.4,1.2-1.3,1.2h-.7v-2.3Q357.15,191.62,357.6,191.62Z"/><path class="a" d="M358.2,200.22a5.83,5.83,0,0,0,4.1-1.7,5.3,5.3,0,0,0,1.7-4.1,5.83,5.83,0,0,0-1.7-4.1,5.74,5.74,0,0,0-8.5,7.7A5.18,5.18,0,0,0,358.2,200.22Zm-3.6-9.3a5.07,5.07,0,1,1-1.5,3.6A4.91,4.91,0,0,1,354.6,190.92Z"/><path class="a" d="M70.7,398.22c-3.2-.6-5.3-1.3-6.3-2.3s-2.3-3.5-3.9-7.5l-1.1-2.7-21.5-55c-.4-1-.8-1.4-1.3-1.4s-1,.5-1.4,1.5l-25.7,57-1.4,3.3a23.25,23.25,0,0,1-2.8,4.4,6.67,6.67,0,0,1-2.7,2.4l-1.8.5a1,1,0,0,0-.8,1.1c0,.6.4.9,1.3.9.2,0,1.1-.1,2.8-.3.5,0,1.3-.1,2.2-.1,2.1,0,3.9,0,5.5.1l4.8.3c.8,0,1.3.1,1.7.1,1,0,1.4-.3,1.4-.8s-.5-1-1.5-1.2a10.8,10.8,0,0,1-4.6-1.8,4.25,4.25,0,0,1-1.2-3.4c0-1.6.7-4.1,2.2-7.5l3.3-7.4c1-2.3,1.8-3.6,2.4-4s2.1-.6,4.6-.6H42.8c1.9,0,3,.1,3.4.4s.9,1.3,1.6,3.2l2.5,6.6q3,7.95,3,10.5c0,1.9-.8,3.1-2.5,3.4l-1.5.3c-.8.2-1.2.5-1.2,1,0,.7.4,1,1.3,1,.3,0,.8-.1,1.5-.2a72.94,72.94,0,0,1,8.7-.3c4.4,0,7.5.1,9.2.2a17.68,17.68,0,0,0,1.9.1c.9,0,1.4-.3,1.4-.8S71.7,398.42,70.7,398.22Zm-29.3-29.1h-15l-1.3-.1c-1.5,0-2.3-.4-2.3-1.3a5.89,5.89,0,0,1,.6-1.8l9.7-21.6c.3-.7.6-1,.8-.9.5,0,.9.6,1.3,1.6l.4,1,7.8,19.8.2.9a2.8,2.8,0,0,1,.2,1.1C43.9,368.72,43.1,369.12,41.4,369.12Z"/><path class="a" d="M93.9,348.22c-1.8,0-3.4.1-4.9.2l-3.5.3c-1.4.1-3.3.2-5.9.2H77l-3-.1c-.6,0-1,.2-1,.7s.4.7,1.2.8a5.36,5.36,0,0,1,4.2,2.1,9.89,9.89,0,0,1,1.3,5.5v10.3H74.2a1.57,1.57,0,0,0-1.3,1v3.3c0,1.1.8,1.1.8,1.1s2.5,0,5.9.1v17.7c0,2.8-.2,4.6-.7,5.5s-1.6,1.5-3.3,1.9c-.7.1-1,.4-1,.8,0,.6.4.9,1.3.8.5,0,1.2-.1,2.1-.2a47.52,47.52,0,0,1,6.9-.4q3.75,0,8.7.3c1.6.1,2.8.2,3.4.2a27.55,27.55,0,0,0,15-4.3,23.83,23.83,0,0,0,8.5-9.3,28.33,28.33,0,0,0,3.1-13c0-7.3-2.3-13.3-7-18C111.7,350.72,104.1,348.22,93.9,348.22Zm15.6,46.9a21.39,21.39,0,0,1-11.5,3.2,27.63,27.63,0,0,1-5.2-.6,34,34,0,0,1-5.1-1.3,3.18,3.18,0,0,1-2.3-3.1v-19.5c5.8.1,11.8.1,12.2-.2a1.72,1.72,0,0,0,.9-1.5s0-1.7-.1-2.9-1.1-1-1.1-1h-12v-13.4c0-1.5.3-2.6,1-3.1,1.1-.8,3.6-1.3,7.5-1.3a24.18,24.18,0,0,1,14.1,4.1,21.64,21.64,0,0,1,7.4,9.3,30.41,30.41,0,0,1,2.7,12.9C118.2,385.42,115.3,391.52,109.5,395.12Z"/><path class="a" d="M175.8,348.52h-7.3c-.4,0-1.5-.1-3.3-.2h-1.1c-.8,0-1.2.2-1.2.7s.7.8,2.1,1a5.93,5.93,0,0,1,2.3.8,2.06,2.06,0,0,1,.6,1.7c0,2.4-1.8,7.8-5.3,16.1l-8.2,19.5-.6,1.4c-.6,1.4-1.1,2.1-1.3,2.1s-.6-.4-1-1.2l-14.4-33a17.33,17.33,0,0,1-1.6-5.2,2,2,0,0,1,.4-1.4,6.17,6.17,0,0,1,1.9-1c.5-.2.7-.5.7-.8,0-.5-.3-.7-1-.7a4.59,4.59,0,0,0-1,.1c-1.1.1-1.9.1-2.4.1h-6a30.57,30.57,0,0,1-3.8-.1c-.5,0-.9-.1-1.1-.1-.7,0-1,.2-1,.7a.55.55,0,0,0,.4.6,12,12,0,0,0,2.3.5,5.37,5.37,0,0,1,3,1.5,18,18,0,0,1,2.4,4.2l18.9,43.9c.5,1.2,1.1,1.9,1.6,1.9s1-.6,1.5-1.8l18.6-43.5,1-2.4a7,7,0,0,1,4.1-4.3c.5-.2.8-.4.8-.8C176.5,348.82,176.3,348.52,175.8,348.52Z"/><path class="a" d="M217,389.82c-.3,0-.6.3-.8.7-2.8,4.4-9.1,6.6-18.8,6.6-3.1,0-5-.3-5.8-.8s-1.1-1.8-1.1-4v-15a1.64,1.64,0,0,1,.6-1.5,5.74,5.74,0,0,1,2.4-.4h8.2c2.1,0,3.7.3,4.5.9a4.84,4.84,0,0,1,1.8,3.4l.2,1a.91.91,0,0,0,1,.8c.5,0,.7-.3.7-.9a5.38,5.38,0,0,0-.1-1.1c-.1-1.5-.2-3-.2-4.5q0-3,.3-6.6v-.8c0-.6-.2-1-.7-1s-.8.3-1,.9a6.93,6.93,0,0,1-1.1,3.1,5.83,5.83,0,0,1-2.6,1.1,34.24,34.24,0,0,1-6.2.4h-5.8c-1.1,0-1.7-.1-1.9-.4a4,4,0,0,1-.3-2.1v-15.1c0-1.3.2-2.2.7-2.6s1.4-.6,3-.6h5.9a33.76,33.76,0,0,1,7.9.6,4.2,4.2,0,0,1,2.9,2.2,5.87,5.87,0,0,1,.4,2.3v1c0,.8.2,1.1.7,1.1a.76.76,0,0,0,.8-.6,15.73,15.73,0,0,0,.4-2.7l.1-2.2a23.17,23.17,0,0,1,.3-3,2.77,2.77,0,0,0,.1-.9c0-.7-.4-1.1-1.2-1.1a9.89,9.89,0,0,0-1.5.1,24.55,24.55,0,0,1-2.7.2l-5.3.3c-2.3.1-5,.1-8.1.1a119,119,0,0,1-12.9-.6c-1-.1-1.9-.2-2.5-.2-1.1,0-1.7.3-1.7,1,0,.5.4.7,1.1.7,2.3,0,3.8.6,4.6,1.9s1.2,3.6,1.2,7.2v34c0,3-.9,4.7-2.7,5.2l-1.4.4c-.6.2-1,.5-1,.9s.4.8,1.2.8a11.18,11.18,0,0,0,1.9-.3,66.48,66.48,0,0,1,9.2-.4,115.57,115.57,0,0,1,11.8.7c1.2.1,2.2.1,2.9.1a10.27,10.27,0,0,0,8.3-4c1.8-2.2,2.7-4.2,2.7-5.8C217.7,390.12,217.4,389.82,217,389.82Z"/><path class="a" d="M271.7,348.42c-.4,0-1,.1-1.8.2a34.13,34.13,0,0,1-3.7.2,62.11,62.11,0,0,1-6.9-.3,10.36,10.36,0,0,0-1.6-.1c-.7,0-1.1.2-1.1.7s.4.8,1.1.9c2.6.4,4.3,1.1,5.3,2a6.71,6.71,0,0,1,1.8,4.5l.4,8.6v23.5c0,.4-.2.7-.4.7a2.91,2.91,0,0,1-1-.9l-34.4-38.9a2.55,2.55,0,0,0-1.9-1.1h-2l-2.5-.1h-2.1c-.5,0-.8.2-.8.7s.3.7,1,.8A7.78,7.78,0,0,1,227,354q2.1,3.75,2.1,10.2v25.4a12.59,12.59,0,0,1-1.1,5.9,7.31,7.31,0,0,1-4.2,2.9c-.7.2-1.1.5-1,.9s.4.7,1,.7a8.8,8.8,0,0,0,1.4-.1,24.59,24.59,0,0,1,2.8-.2l1.8-.1,3.8.2c1.9.1,3,.2,3.3.2s.8.1,1.1.1c.5,0,.8-.2.8-.7s-.4-.9-1.2-1a8.21,8.21,0,0,1-4-1.4,5.39,5.39,0,0,1-1.3-3.4l-.1-2.7v-26.7c0-1.1.2-1.7.7-1.7a.76.76,0,0,1,.5.2l.4.4,31.5,36,.8,1a1.22,1.22,0,0,0,.9.3.92.92,0,0,0,1-.9,41.84,41.84,0,0,0,.2-5.1v-31.2l.1-2.5v-4c0-2.4.2-4,.7-4.9a4.51,4.51,0,0,1,3-1.9c.5-.2.8-.4.7-.7C272.7,348.72,272.3,348.42,271.7,348.42Z"/><path class="a" d="M322.6,352c0-1.5-.1-2.3-.4-2.6s-1.1-.4-2.5-.4H279.5a2.46,2.46,0,0,0-1.7.5,4.05,4.05,0,0,0-.4,2.3,20.66,20.66,0,0,1-.6,4.4,14.55,14.55,0,0,0-.4,2.9c0,.6.2,1,.7,1s.8-.4,1-1.4c.5-2.2,1.2-3.8,2.1-4.6a6.61,6.61,0,0,1,4.4-1.2h9.9a2.65,2.65,0,0,1,1.8.4c.3.2.4.8.4,1.7v38.1c0,2.1-.3,3.5-1,4.4s-2,1.3-3.9,1.6c-.8.1-1.2.3-1.2.7s.4.8,1.1.8c.2,0,1.1-.1,2.5-.2a21,21,0,0,1,2.7-.1h5.6a25.67,25.67,0,0,1,3.4.1c.9.1,1.5.2,1.8.2.7,0,1-.3,1-.8s-.4-.7-1.3-.8c-3.1-.5-4.8-2.3-4.9-5.2v-38.2c0-1.2.1-1.9.4-2.2a3.16,3.16,0,0,1,2.1-.5h10.5c2.1,0,3.5.3,4.2.8s1.2,1.7,1.6,3.5c.2.8.4,1.2.9,1.2s.8-.4.8-1.2c0-.4-.1-1-.2-1.8A16.73,16.73,0,0,1,322.6,352Z"/><path class="a" d="M344.2,398.52a8.47,8.47,0,0,1-3.5-1.1,5.78,5.78,0,0,1-1.8-2.7q-.6-1.65-.6-6.9v-28c0-5.3.9-8.2,2.8-8.9l1.9-.8c.6-.2,1-.5,1-1s-.3-.7-1-.7h-.9l-2.5.2c-1.3.1-2.9.1-4.7.1a71.77,71.77,0,0,1-7.3-.3h-.7c-.8,0-1.1.3-1.1.8s.4.7,1.2.9c2.3.4,3.8,1.1,4.5,2.2s1.1,3.2,1.1,6.2v32c0,3.2-.3,5.2-.8,6.2s-1.8,1.6-3.7,2c-.8.1-1.2.4-1.2.8s.3.8,1,.8a12.14,12.14,0,0,0,1.8-.1l4.4-.3,5.4.1a33.11,33.11,0,0,1,4,.2,7.61,7.61,0,0,0,1.4.1q1.2,0,1.2-.9C346.1,399,345.5,398.72,344.2,398.52Z"/><path class="a" d="M369.4,370.22c-4.7-1.6-7.7-2.7-8.9-3.3a9.51,9.51,0,0,1-3.3-2.8,8.38,8.38,0,0,1-1.8-5.4,7.49,7.49,0,0,1,2.7-5.9,9.66,9.66,0,0,1,6.7-2.4A17.27,17.27,0,0,1,374,353a12.73,12.73,0,0,1,5.5,6.7q.6,1.8,1.2,1.8c.5,0,.8-.4.8-1.2,0-.2-.1-.7-.2-1.5l-.6-3.8c-.3-2.1-.5-3.4-.5-3.8,0-1.2-.3-1.9-.9-1.8-.2,0-.3.1-.4.1l-.5.5a1.8,1.8,0,0,1-.9.4,1.7,1.7,0,0,1-.7-.1l-2.6-1.1a16.9,16.9,0,0,0-6.8-1.2,17.6,17.6,0,0,0-11.6,3.8,12.25,12.25,0,0,0-4.5,9.9,11.83,11.83,0,0,0,3.4,8.8c2.3,2.3,6.2,4.3,11.7,6.2,5.3,1.8,8.6,3.2,9.7,4.2a8.85,8.85,0,0,1,3.3,7,9.46,9.46,0,0,1-3.6,7.4,13.14,13.14,0,0,1-8.7,3,16.27,16.27,0,0,1-9.4-3.1,14.51,14.51,0,0,1-5.7-7.8q-.6-1.8-1.2-1.8c-.5,0-.8.3-.8,1.1a19.05,19.05,0,0,0,1,4.8c.6,2.1.9,3.2.9,3.4a11.63,11.63,0,0,0,.7,2.6,2,2,0,0,0,.9,1,16.06,16.06,0,0,0,5.1,1.9,30.16,30.16,0,0,0,6.3.8,19.3,19.3,0,0,0,13-4.4,14.54,14.54,0,0,0,5.1-11.4C383.2,378.12,378.6,373.22,369.4,370.22Z"/><path class="a" d="M413.5,353.22a3.16,3.16,0,0,1,2.1-.5h10.5c2.1,0,3.5.3,4.2.8s1.2,1.7,1.6,3.5q.15,1.2.9,1.2c.5,0,.8-.4.8-1.2,0-.4-.1-1-.2-1.8a22.13,22.13,0,0,1-.2-3.2c0-1.5-.1-2.3-.4-2.6s-1.1-.4-2.5-.4H390.1a2.46,2.46,0,0,0-1.7.5,4.05,4.05,0,0,0-.4,2.3,20.66,20.66,0,0,1-.6,4.4,14.55,14.55,0,0,0-.4,2.9c0,.6.2,1,.7,1s.8-.4,1-1.4c.5-2.2,1.2-3.8,2.1-4.6a6.61,6.61,0,0,1,4.4-1.2h9.9c.9,0,1.6.1,1.8.4s.4.8.4,1.7v38.1c0,2.1-.3,3.5-1,4.4s-2,1.3-3.9,1.6c-.8.1-1.2.3-1.2.7s.4.8,1.1.8c.3,0,1.1-.1,2.5-.2a21,21,0,0,1,2.7-.1h5.6a25.67,25.67,0,0,1,3.4.1c.9.1,1.5.2,1.8.2.7,0,1-.3,1-.8s-.4-.7-1.3-.8c-3.1-.5-4.8-2.3-4.9-5.2v-38.2C413.1,354.22,413.2,353.52,413.5,353.22Z"/><path class="a" d="M481.7,398.62a9.8,9.8,0,0,1-4.7-1.7c-.8-.7-1.7-2.6-2.9-5.6l-.8-2-16.1-41.2c-.3-.7-.6-1.1-1-1.1s-.8.4-1.1,1.1l-19.2,42.7-1.1,2.4a15.15,15.15,0,0,1-2.1,3.3c-.8,1.1-1.5,1.7-2,1.8l-1.4.4a.76.76,0,0,0-.6.8c0,.5.3.7,1,.7.1,0,.8-.1,2.1-.2.4,0,1-.1,1.7-.1,1.6,0,2.9,0,4.1.1l3.6.2h1.3c.7,0,1.1-.2,1-.6s-.4-.7-1.2-.9a9.45,9.45,0,0,1-3.5-1.3,3.18,3.18,0,0,1-.9-2.5,16.37,16.37,0,0,1,1.7-5.6l2.4-5.5q1.05-2.55,1.8-3a7.3,7.3,0,0,1,3.4-.5h13.6a5.84,5.84,0,0,1,2.5.3,6.08,6.08,0,0,1,1.2,2.4l1.9,4.9c1.5,3.9,2.3,6.6,2.3,7.9a2.19,2.19,0,0,1-1.9,2.5l-1.2.3c-.6.1-.9.4-.9.8s.3.8,1,.8a6.82,6.82,0,0,0,1.2-.1c.9-.1,3-.2,6.5-.2,3.3,0,5.6.1,6.9.2a9.51,9.51,0,0,0,1.4.1c.7,0,1-.2,1-.6S482.4,398.72,481.7,398.62Zm-21.9-21.8H447.5c-1.1,0-1.7-.3-1.7-1a5.93,5.93,0,0,1,.5-1.4l7.3-16.2c.2-.5.4-.7.6-.7s.7.4,1,1.2l.3.8,5.9,14.8.2.7a5.08,5.08,0,0,1,.2.9C461.6,376.52,461,376.82,459.8,376.82Z"/><path class="a" d="M41.5,330.92q.45,1.95.6,2.4a2.17,2.17,0,0,0,.8.9,13.49,13.49,0,0,0,4.7,1.8,25.92,25.92,0,0,0,5.8.8,17.64,17.64,0,0,0,12-4.1,13.32,13.32,0,0,0,4.7-10.5c0-6.3-4.2-10.9-12.7-13.6a60.94,60.94,0,0,1-8.2-3,10.48,10.48,0,0,1-3.1-2.6,7.88,7.88,0,0,1-1.6-5,7,7,0,0,1,2.5-5.5,8.89,8.89,0,0,1,6.2-2.2,15.83,15.83,0,0,1,8.5,2.4,11.7,11.7,0,0,1,5,6.1c.4,1.1.7,1.7,1.1,1.7s.7-.4.7-1.1c0-.2-.1-.7-.2-1.4l-.6-3.5a29,29,0,0,1-.4-3.5c0-1.1-.3-1.7-.9-1.7-.2,0-.3,0-.4.1l-.5.4a1.33,1.33,0,0,1-.8.3,1.27,1.27,0,0,1-.6-.1l-2.4-1a16.37,16.37,0,0,0-6.2-1.1,16.2,16.2,0,0,0-10.7,3.5,11.2,11.2,0,0,0-4.1,9.1,11,11,0,0,0,3.2,8.1q3.15,3.15,10.8,5.7c4.9,1.7,7.9,2.9,8.9,3.8a8.15,8.15,0,0,1,3,6.4,8.61,8.61,0,0,1-3.3,6.8,11.84,11.84,0,0,1-8,2.8,14.37,14.37,0,0,1-8.6-2.9,12.76,12.76,0,0,1-5.2-7.2c-.3-1.1-.7-1.7-1.1-1.7s-.7.3-.7,1a18.52,18.52,0,0,0,.9,4.4A26.26,26.26,0,0,1,41.5,330.92Z"/><path class="a" d="M79.6,342.82a14.57,14.57,0,0,0,3.6-7.1l.3-3.4v-26.9a5.57,5.57,0,0,1,.5-2.7,2.93,2.93,0,0,1,1.9-1.1c.5-.1.7-.3.7-.7a.47.47,0,0,0-.5-.5c-.1,0-.6.1-1.5.2a22.1,22.1,0,0,1-3.2.1,41.68,41.68,0,0,1-4.4-.2c-.9-.1-1.5-.2-1.8-.2-.6,0-.8.2-.8.5s.3.6.8.7l1.5.3a3.06,3.06,0,0,1,2.2,1.5,10.3,10.3,0,0,1,.6,4.2v26l.1,2.6a10,10,0,0,1-1,4.8c-.7,1.3-1.5,1.9-2.5,1.9a2.76,2.76,0,0,1-2.2-1.2c-.4-.5-.7-.7-.9-.7-.4,0-.8.5-1,1.6-.1.5-.2.8-.2.9a1.76,1.76,0,0,0-.1.6,1,1,0,0,0,.6.9,2.41,2.41,0,0,0,1.5.4C75.9,345.62,77.8,344.72,79.6,342.82Z"/><path class="a" d="M105.1,296.92c.4,0,.8-.4,1.5-1.1a3.64,3.64,0,0,0,.9-1.8,3.46,3.46,0,0,0-1-1.7c-.6-.7-1.1-1-1.4-1s-.9.4-1.5,1.1a3.1,3.1,0,0,0-.9,1.7,2.81,2.81,0,0,0,1,1.7C104.3,296.52,104.8,296.92,105.1,296.92Z"/><path class="a" d="M114.5,296.92c.4,0,.8-.4,1.4-1.1a3.3,3.3,0,0,0,.9-1.8,2.81,2.81,0,0,0-1-1.7c-.6-.7-1.1-1.1-1.4-1.1s-.9.4-1.5,1.1a3.1,3.1,0,0,0-.9,1.7,2.81,2.81,0,0,0,1,1.7C113.7,296.52,114.1,296.92,114.5,296.92Z"/><path class="a" d="M109.7,336.42c5.4,0,9.8-1.7,13.2-5.2a18.16,18.16,0,0,0,5.2-13.4,16.87,16.87,0,0,0-5.1-12.7,18.19,18.19,0,0,0-13.2-5,22.21,22.21,0,0,0-7.6,1.4,15.89,15.89,0,0,0-9.7,9.7,18.88,18.88,0,0,0-1.3,7q0,8.1,5.1,13.2A18.67,18.67,0,0,0,109.7,336.42Zm-10.9-30.7c2.3-2.7,5.5-4,9.5-4a15.1,15.1,0,0,1,11.6,5.1,18.3,18.3,0,0,1,4.6,12.8,15.92,15.92,0,0,1-3.9,11,12.61,12.61,0,0,1-9.8,4.3,14.06,14.06,0,0,1-11-5.3,19.48,19.48,0,0,1-4.5-13.1C95.3,312,96.4,308.42,98.8,305.72Z"/><path class="a" d="M137.7,330.12a11.49,11.49,0,0,0,5.1,4.6,17.87,17.87,0,0,0,7.8,1.7,18.22,18.22,0,0,0,7-1.4,11.83,11.83,0,0,0,5.1-3.8c1.9-2.5,2.8-6.1,2.8-10.8v-12.7a14.12,14.12,0,0,1,.5-4.4,3.28,3.28,0,0,1,2-1.8c.4-.2.5-.3.5-.6a.47.47,0,0,0-.5-.5,5.94,5.94,0,0,0-1.1.1,25.71,25.71,0,0,1-3.5.1,14,14,0,0,1-2.3-.2c-.7-.1-1.3-.2-1.6-.2a.47.47,0,0,0-.5.5c0,.3.2.5.7.6a3.62,3.62,0,0,1,3.1,1.7,9.09,9.09,0,0,1,.9,4.6v13.3c0,4.5-1,7.8-3,10.1s-5.1,3.3-9.1,3.3c-4.5,0-7.8-1.3-9.7-4-1.4-1.9-2.1-5-2.1-9.4V308l-.1-1.7a8.26,8.26,0,0,1,.5-3.4,2.75,2.75,0,0,1,2-1.3c.5-.1.8-.3.8-.6s-.2-.4-.6-.4a7.77,7.77,0,0,0-1.3.1,10.33,10.33,0,0,1-1.4.1h-3.9a12.27,12.27,0,0,1-1.7-.1h-1.8c-.7,0-1,.2-1,.6s.2.5.7.5a4.24,4.24,0,0,1,3,1.4,6.92,6.92,0,0,1,.8,3.8l.1,1.5v13A16.89,16.89,0,0,0,137.7,330.12Z"/><path class="a" d="M182.6,336c.3,0,.5.1.8.1s.5-.2.5-.5-.3-.6-.8-.7a5.15,5.15,0,0,1-2.7-.9,3.29,3.29,0,0,1-.9-2.3l-.1-1.8v-18.5c0-.8.2-1.2.5-1.2a.76.76,0,0,1,.4.2l.3.3,21.6,24.7.6.7a.85.85,0,0,0,.6.2.66.66,0,0,0,.7-.6,25.71,25.71,0,0,0,.1-3.5v-21.5l.1-1.7v-2.8a8.61,8.61,0,0,1,.5-3.4,3.06,3.06,0,0,1,2.1-1.3c.4-.1.5-.3.5-.5,0-.4-.3-.5-.7-.5a10.5,10.5,0,0,0-1.3.2,15.74,15.74,0,0,1-2.5.2c-2,0-3.6-.1-4.7-.2-.5,0-.9-.1-1.1-.1-.5,0-.7.2-.7.5s.2.5.7.6a7.79,7.79,0,0,1,3.7,1.3,4.72,4.72,0,0,1,1.3,3.1l.3,5.9v16.2c0,.3-.1.5-.3.5s-.3-.2-.7-.6l-23.8-26.9a1.71,1.71,0,0,0-1.3-.7H175l-1.7-.1h-1.5c-.4,0-.6.2-.6.5s.2.5.7.6a5.3,5.3,0,0,1,4.1,2.9,15,15,0,0,1,1.4,7v17.4a8,8,0,0,1-.8,4,5.52,5.52,0,0,1-2.9,2c-.5.2-.7.4-.7.6s.3.5.7.5a3.44,3.44,0,0,0,.9-.1,11.48,11.48,0,0,1,1.9-.1h1.2l2.6.1A13,13,0,0,1,182.6,336Z"/><path class="a" d="M228.4,336.12a19.54,19.54,0,0,0,10.3-2.9,16.29,16.29,0,0,0,5.8-6.4,19.14,19.14,0,0,0,2.1-8.9,16.65,16.65,0,0,0-4.8-12.3c-3.5-3.5-8.8-5.3-15.8-5.3-1.2,0-2.4,0-3.4.1l-2.4.2c-1,.1-2.3.1-4,.1h-1.8l-2-.1c-.4,0-.7.2-.7.5s.3.5.8.5a3.85,3.85,0,0,1,2.9,1.4,6.45,6.45,0,0,1,.9,3.8v23.1a10,10,0,0,1-.5,3.8c-.3.6-1.1,1-2.3,1.3-.5.1-.7.3-.7.6s.3.6.9.6a12.54,12.54,0,0,0,1.5-.2,32.3,32.3,0,0,1,4.8-.3c1.7,0,3.7.1,6,.2A13.65,13.65,0,0,0,228.4,336.12Zm-6.5-2.7a2.22,2.22,0,0,1-1.6-2.1v-26.4c0-1.1.2-1.8.7-2.1q1.05-.9,5.1-.9a16.32,16.32,0,0,1,9.7,2.8,14.57,14.57,0,0,1,5.1,6.3,21.48,21.48,0,0,1,1.9,8.9c0,5.9-2,10.1-5.9,12.5a14.26,14.26,0,0,1-7.9,2.2,17.13,17.13,0,0,1-3.6-.4A20.42,20.42,0,0,1,221.9,333.42Z"/><path class="a" d="M281.8,335.92c.5,0,.7-.1.7-.4s-.2-.5-.8-.6a6.6,6.6,0,0,1-3.2-1.2,12.94,12.94,0,0,1-2-3.9l-.6-1.4-11-28.2c-.2-.5-.4-.7-.7-.7s-.5.3-.7.8l-13.2,29.3-.7,1.7c-.4.8-.9,1.5-1.4,2.3s-1,1.1-1.4,1.2l-.9.3a.55.55,0,0,0-.4.6c0,.3.2.5.7.5a11.31,11.31,0,0,0,1.4-.1h1.2a23.52,23.52,0,0,1,2.8.1l2.5.1h.9c.5,0,.7-.1.7-.4s-.3-.5-.8-.6a7.48,7.48,0,0,1-2.4-.9,2.2,2.2,0,0,1-.6-1.7,13.07,13.07,0,0,1,1.1-3.9l1.7-3.8a6.67,6.67,0,0,1,1.2-2.1,5.57,5.57,0,0,1,2.4-.3h9.3a4.52,4.52,0,0,1,1.7.2,3.63,3.63,0,0,1,.8,1.6l1.3,3.4a22,22,0,0,1,1.6,5.4c0,1-.4,1.6-1.3,1.7l-.8.2c-.4.1-.6.3-.6.5s.2.5.7.5a2.81,2.81,0,0,0,.8-.1,34.29,34.29,0,0,1,4.5-.2c2.3,0,3.9,0,4.7.1Zm-15.1-16h-8.4c-.8,0-1.2-.2-1.2-.7a3.26,3.26,0,0,1,.3-1l5-11.1c.2-.3.3-.5.4-.5s.5.3.7.8l.2.5,4,10.1.1.5a1.76,1.76,0,0,1,.1.6C268,319.72,267.6,319.92,266.7,319.92Z"/><path class="a" d="M302.8,333.12a4.37,4.37,0,0,1-3,1.7c-.6.1-1,.4-1,.8,0,.6.4.8,1.2.8.5,0,1.1-.1,2-.2a39.77,39.77,0,0,1,6.4-.4c2.3,0,4.9.1,8,.3,1.5.1,2.6.2,3.2.2a25,25,0,0,0,13.8-4,21,21,0,0,0,7.8-8.6,25.16,25.16,0,0,0,2.8-11.9c0-6.7-2.1-12.2-6.4-16.5-4.7-4.7-11.8-7.1-21.2-7.1-1.7,0-3.2.1-4.5.2l-3.2.3c-1.3.1-3.1.2-5.4.2h-2.4l-2.7-.1c-.6,0-.9.2-.9.7s.4.6,1.1.7a5.23,5.23,0,0,1,3.9,1.9,8.72,8.72,0,0,1,1.2,5.1v31A13.31,13.31,0,0,1,302.8,333.12Zm5.9-38.8c0-1.4.3-2.4.9-2.8q1.5-1.2,6.9-1.2a22.17,22.17,0,0,1,13,3.8,21.62,21.62,0,0,1,6.9,8.5,27.59,27.59,0,0,1,2.5,11.9c0,7.9-2.7,13.5-8,16.8a19.28,19.28,0,0,1-10.6,3,32.6,32.6,0,0,1-4.8-.5,22.83,22.83,0,0,1-4.7-1.2,2.88,2.88,0,0,1-2.1-2.9v-35.4Z"/><path class="a" d="M354.3,336h.9c.5,0,.7-.1.7-.4s-.3-.5-.8-.6a7.48,7.48,0,0,1-2.4-.9,2.2,2.2,0,0,1-.6-1.7,13.07,13.07,0,0,1,1.1-3.9l1.7-3.8a6.67,6.67,0,0,1,1.2-2.1,5.57,5.57,0,0,1,2.4-.3h9.3a4.52,4.52,0,0,1,1.7.2,3.63,3.63,0,0,1,.8,1.6l1.3,3.4a22,22,0,0,1,1.6,5.4c0,1-.4,1.6-1.3,1.7l-.8.2c-.4.1-.6.3-.6.5s.2.5.7.5a2.81,2.81,0,0,0,.8-.1,34.29,34.29,0,0,1,4.5-.2c2.3,0,3.9,0,4.7.1.5,0,.8.1,1,.1.5,0,.7-.1.7-.4s-.2-.5-.8-.6a6.6,6.6,0,0,1-3.2-1.2,12.94,12.94,0,0,1-2-3.9l-.6-1.4-11-28.2c-.2-.5-.4-.7-.7-.7s-.5.3-.7.8l-13.2,29.3-.7,1.7c-.4.8-.9,1.5-1.4,2.3s-1,1.1-1.4,1.2l-.9.3a.55.55,0,0,0-.4.6c0,.3.2.5.7.5a11.31,11.31,0,0,0,1.4-.1h1.1a23.52,23.52,0,0,1,2.8.1Zm3.6-17.7,5-11.1c.2-.3.3-.5.4-.5s.5.3.7.8l.2.5,4,10.1.1.5a1.76,1.76,0,0,1,.1.6c0,.4-.4.6-1.3.6h-8.4c-.8,0-1.2-.2-1.2-.7A4.56,4.56,0,0,1,357.9,318.32Z"/><path class="a" d="M409.9,333.62l1.7-1a7.37,7.37,0,0,1,2.1-.9c.4-.1.6-.1.7-.2l.2-.4-.1-.8v-9a2.53,2.53,0,0,1,1.9-2.8c.5-.1.8-.3.8-.6s-.2-.5-.6-.5c-.2,0-.9,0-2.1.1-.4,0-2,.1-4.6.1H407c-.6,0-.9.2-.9.5s.4.6,1,.7a4.63,4.63,0,0,1,2.7.7,2.54,2.54,0,0,1,.7,2.1v5.8a6,6,0,0,1-.8,3.5,11.15,11.15,0,0,1-9.3,4.2,13.07,13.07,0,0,1-10.4-5,18.89,18.89,0,0,1-4.2-12.5c0-4.6,1.2-8.4,3.7-11.4a11.81,11.81,0,0,1,9.5-4.4,16.68,16.68,0,0,1,8.8,2.6A16.35,16.35,0,0,1,414,311c.2.3.3.5.6.4s.5-.2.5-.6a2,2,0,0,0-.1-.7,16.25,16.25,0,0,1-.4-1.9l-.3-2.4c-.1-.8-.2-1.4-.2-1.7,0-.8-.2-1.2-.5-1.2-.1,0-.2.1-.4.2l-.6.5a1.69,1.69,0,0,1-.5.2c-.1,0-.2-.1-.4-.2a18.32,18.32,0,0,0-5.4-2.2,25.26,25.26,0,0,0-6.4-.9,17.57,17.57,0,0,0-13.1,5.4,18.55,18.55,0,0,0-5.2,13.5,16.78,16.78,0,0,0,17.5,17.5A26.71,26.71,0,0,0,409.9,333.62Z"/><path class="a" d="M422,332.12a8.89,8.89,0,0,0,.5,1.8,3.19,3.19,0,0,0,.6.7,11.19,11.19,0,0,0,3.5,1.3,17.72,17.72,0,0,0,4.3.6,13.13,13.13,0,0,0,8.9-3,9.89,9.89,0,0,0,3.5-7.8c0-4.7-3.2-8.1-9.5-10.2-3.2-1.1-5.3-1.8-6.1-2.2a7,7,0,0,1-2.3-2,5.86,5.86,0,0,1-1.2-3.7,5.16,5.16,0,0,1,1.9-4.1,6.62,6.62,0,0,1,4.6-1.6,11.56,11.56,0,0,1,6.3,1.8,8.27,8.27,0,0,1,3.7,4.6c.3.8.6,1.2.8,1.2.4,0,.6-.3.6-.8a6.61,6.61,0,0,0-.1-1.1l-.4-2.6c-.2-1.4-.3-2.3-.3-2.6,0-.9-.2-1.3-.6-1.3a.37.37,0,0,0-.3.1l-.4.3a.86.86,0,0,1-.6.3.9.9,0,0,1-.5-.1l-1.8-.7a12.62,12.62,0,0,0-4.6-.8,12.4,12.4,0,0,0-8,2.6,8.31,8.31,0,0,0-3.1,6.8,7.83,7.83,0,0,0,2.4,6c1.6,1.6,4.3,3,8,4.3a28.45,28.45,0,0,1,6.7,2.8,6.06,6.06,0,0,1,2.2,4.8,6.54,6.54,0,0,1-2.4,5.1,8.78,8.78,0,0,1-6,2.1,10.15,10.15,0,0,1-6.4-2.2,9.64,9.64,0,0,1-3.9-5.3c-.2-.8-.5-1.2-.8-1.3s-.5.2-.5.7a49.43,49.43,0,0,0,1.3,5.5Z"/><path class="a" d="M175,272.42a.76.76,0,0,1,.5.2l.5.5,12.3,12.7.4.4a1.76,1.76,0,0,0,1.3.6h3.1a9.27,9.27,0,0,1,2,.1h.5c.5,0,.7-.1.7-.5a.46.46,0,0,0-.5-.4l-1-.2a7.77,7.77,0,0,1-4.2-2.5l-11.9-12.5c-.4-.4-.6-.7-.5-1s.2-.4.5-.7l7.8-7.1c3.9-3.5,6.5-5.4,7.9-5.8.8-.2,1.1-.4,1.1-.6s-.3-.4-.7-.4a2.25,2.25,0,0,0-.7.1c-.3,0-.9.1-1.9.1h-1.7l-2.1-.1a15.48,15.48,0,0,1-2.2-.1h-.6c-.5,0-.7.2-.7.5s.4.5,1.1.6c1.1.2,1.7.6,1.7,1.3s-.8,1.9-2.3,3.2l-9.8,8.8-.3.3-.4.3c-.1,0-.2-.2-.2-.5v-8.9a7,7,0,0,1,.4-3.1,3.89,3.89,0,0,1,1.8-1.4c.4-.1.6-.3.6-.5s-.2-.4-.6-.4a6.61,6.61,0,0,0-1.1.1h-3.7a29.85,29.85,0,0,1-3.7-.2,2.49,2.49,0,0,0-.8-.1c-.4,0-.6.2-.6.5s.2.4.6.5l1.1.2a2.75,2.75,0,0,1,2,1.3,7.33,7.33,0,0,1,.5,3.4v19.5a10.06,10.06,0,0,1-.6,4.1,2.34,2.34,0,0,1-2,1.4c-.4,0-.7.2-.7.4,0,.4.3.5.8.5a11.31,11.31,0,0,0,1.4-.1h4.7a17.89,17.89,0,0,1,2.7.1c.6,0,1,.1,1.2.1.4,0,.6-.1.5-.4s-.2-.4-.7-.5c-1.7-.3-2.8-.7-3.3-1.3s-.7-1.7-.7-3.5V273C174.5,272.62,174.7,272.42,175,272.42Z"/><path class="a" d="M201.1,284.82a2.93,2.93,0,0,1-2.2,1.2c-.5.1-.7.2-.7.5s.2.5.6.5a4.48,4.48,0,0,0,1.1-.1l2.7-.2h3.3a14.23,14.23,0,0,1,2.4.1,3.08,3.08,0,0,0,.9.1c.5,0,.7-.2.7-.5s-.4-.5-1.1-.6a4.25,4.25,0,0,1-2.1-.7,3.15,3.15,0,0,1-1.1-1.7,13,13,0,0,1-.4-4.2V262c0-3.2.6-5.1,1.7-5.5l1.2-.5q.6-.15.6-.6c0-.3-.2-.4-.6-.4h-.6l-1.5.1a25.32,25.32,0,0,1-2.9.1c-1.8,0-3.3-.1-4.4-.2h-.4c-.5,0-.7.2-.7.5s.3.4.7.5a4.32,4.32,0,0,1,2.8,1.3,7.9,7.9,0,0,1,.7,3.8v19.7A14.35,14.35,0,0,1,201.1,284.82Z"/><path class="a" d="M220.8,272.22l.5-.1h3a2,2,0,0,1,1.8.9l.3.5,5.7,8.7a13.65,13.65,0,0,0,3.3,3.7,6,6,0,0,0,3.7,1.1,8.52,8.52,0,0,0,2.3-.3c.7-.2,1-.4,1-.6s-.1-.3-.4-.3h-.7q-2.55-.15-5.4-4.5l-.7-1.1-6.3-9.3c3.8-1.9,5.7-4.5,5.7-8a6.84,6.84,0,0,0-2.7-5.9c-1.8-1.3-4.4-2-8-2-.9,0-2,0-3.2.1-1.7.1-2.9.2-3.6.2a11.52,11.52,0,0,1-2-.1,14.75,14.75,0,0,0-1.6-.1c-.5,0-.8.2-.8.5s.2.4.7.5l1.1.2c1.7.3,2.5,1.6,2.5,4v18.9a14.69,14.69,0,0,1-.6,5.2,3.19,3.19,0,0,1-2.4,1.7c-.4.1-.6.2-.6.4s.2.5.6.5a6.82,6.82,0,0,0,1.2-.1,13.43,13.43,0,0,1,1.9-.1h3.4a21.91,21.91,0,0,1,2.9.1,8.8,8.8,0,0,0,1.4.1c.5,0,.8-.2.8-.4s-.3-.5-.8-.5a5.28,5.28,0,0,1-3-1,2.22,2.22,0,0,1-.9-1.3,14.68,14.68,0,0,1-.2-2.7V273C220.5,272.62,220.6,272.32,220.8,272.22Zm-.3-13.5a2.17,2.17,0,0,1,.5-1.6,3,3,0,0,1,1.9-.4,8.78,8.78,0,0,1,6,2.1,7,7,0,0,1,2.3,5.5,6.11,6.11,0,0,1-1.7,4.5,6.43,6.43,0,0,1-4.7,1.7h-2.6c-.7,0-1.2-.1-1.3-.3s-.3-.6-.3-1.4v-9.3Z"/><path class="a" d="M251.7,272.42a.76.76,0,0,1,.5.2l.5.5,12.3,12.7.4.4a1.76,1.76,0,0,0,1.3.6h3.1a9.27,9.27,0,0,1,2,.1h.6c.5,0,.7-.1.7-.5a.46.46,0,0,0-.5-.4l-1-.2a7.77,7.77,0,0,1-4.2-2.5l-11.9-12.5c-.4-.4-.6-.7-.6-1s.2-.4.5-.7l7.8-7.1c3.9-3.5,6.5-5.4,7.9-5.8.7-.2,1.1-.4,1.1-.6s-.3-.4-.7-.4a2.25,2.25,0,0,0-.7.1c-.3,0-.9.1-1.9.1h-1.7l-2.1-.1a15.48,15.48,0,0,1-2.2-.1h-.6c-.5,0-.7.2-.7.5s.4.5,1.1.6c1.1.2,1.7.6,1.7,1.3s-.8,1.9-2.3,3.2l-9.8,8.8-.3.3-.4.3c-.1,0-.2-.2-.2-.5v-8.9a7,7,0,0,1,.4-3.1,3.89,3.89,0,0,1,1.8-1.4c.4-.1.6-.3.6-.5s-.2-.4-.6-.4a6.61,6.61,0,0,0-1.1.1h-3.7a29.85,29.85,0,0,1-3.7-.2,2.48,2.48,0,0,0-.8-.1c-.4,0-.6.2-.6.5s.2.4.6.5l1.1.2a2.75,2.75,0,0,1,2,1.3,7.33,7.33,0,0,1,.5,3.4v19.5a10.06,10.06,0,0,1-.6,4.1,2.34,2.34,0,0,1-2,1.4c-.4,0-.7.2-.7.4,0,.4.3.5.8.5a11.31,11.31,0,0,0,1.4-.1h4.7a17.89,17.89,0,0,1,2.7.1c.6,0,1,.1,1.2.1.4,0,.6-.1.6-.4s-.2-.4-.7-.5c-1.7-.3-2.8-.7-3.3-1.3s-.7-1.7-.7-3.5V273C251.3,272.62,251.4,272.42,251.7,272.42Z"/><path class="a" d="M281.9,261.42v-1.9a4.77,4.77,0,0,1,.5-2.4,2.6,2.6,0,0,1,1.7-1q.6-.15.6-.6c0-.3-.1-.4-.4-.4-.1,0-.6.1-1.3.2-.4,0-1.3.1-2.9.1a38.93,38.93,0,0,1-3.9-.1c-.8-.1-1.3-.1-1.7-.2s-.8.2-.8.5.2.5.7.6l1.4.3a2.77,2.77,0,0,1,2,1.4,10.73,10.73,0,0,1,.5,3.8V285l.1,2.3a9.14,9.14,0,0,1-.9,4.3,2.56,2.56,0,0,1-2.2,1.7,2.44,2.44,0,0,1-2-1.1c-.3-.4-.6-.6-.8-.6-.4,0-.7.5-.9,1.4-.1.4-.2.7-.2.8a1.09,1.09,0,0,0-.1.5.94.94,0,0,0,.6.8,2.84,2.84,0,0,0,1.3.4,7.26,7.26,0,0,0,5.2-2.6,12.64,12.64,0,0,0,3.2-6.3l.3-3v-22.2Z"/><path class="a" d="M293.9,276.82c.5-1,.8-1.7,1.1-1.8a4.54,4.54,0,0,1,2.1-.3h8.3a4.23,4.23,0,0,1,1.6.2c.2.1.4.6.8,1.5l1.1,3a18.68,18.68,0,0,1,1.4,4.8,1.46,1.46,0,0,1-1.2,1.6l-.7.2c-.4.1-.6.2-.6.5s.2.5.6.5a2,2,0,0,0,.7-.1,34.74,34.74,0,0,1,4-.1c2,0,3.4,0,4.2.1h.9c.4,0,.6-.1.6-.4s-.2-.5-.7-.6a5.77,5.77,0,0,1-2.9-1.1,10.54,10.54,0,0,1-1.8-3.5l-.5-1.2-9.9-25.3c-.2-.4-.4-.7-.6-.7s-.5.2-.7.7L289.9,281l-.7,1.5a8.58,8.58,0,0,1-1.3,2,3.64,3.64,0,0,1-1.2,1.1l-.8.3c-.3.1-.4.2-.4.5s.2.4.6.4a10.3,10.3,0,0,0,1.3-.1h1a18.52,18.52,0,0,1,2.5.1l2.2.1h.8c.4,0,.7-.1.6-.4s-.3-.4-.7-.5a4.28,4.28,0,0,1-2.1-.8c-.4-.3-.5-.8-.5-1.6a8.63,8.63,0,0,1,1-3.4Zm2.6-5.7,4.5-9.9c.1-.3.3-.5.4-.4s.4.3.6.8l.2.5,3.6,9.1.1.4a1.09,1.09,0,0,1,.1.5c0,.4-.4.6-1.1.6h-7.5c-.7,0-1.1-.2-1.1-.6A1.3,1.3,0,0,1,296.5,271.12Z"/><path class="a" d="M477,354.62a5.83,5.83,0,0,0,4.1-1.7,5.66,5.66,0,0,0,1.7-4.1,5.83,5.83,0,0,0-1.7-4.1,5.74,5.74,0,0,0-8.5,7.7A5.44,5.44,0,0,0,477,354.62Zm-3.6-9.3a5.07,5.07,0,1,1-1.5,3.6A4.91,4.91,0,0,1,473.4,345.32Z"/><path class="a" d="M474.4,345.92h.2c.3,0,.5.3.5.8v3.9a2.25,2.25,0,0,1-.1,1,.46.46,0,0,1-.5.3.2.2,0,0,0,0,.4h2.2c.2,0,.2-.1.2-.2a.22.22,0,0,0-.2-.2.75.75,0,0,1-.9-.9v-1.8h.7c.1,0,.3.1.3.2l.1.1,1.2,1.8a1.93,1.93,0,0,0,1.5,1c.5,0,.7-.1.8-.2s0-.1-.1-.1h-.2c-.3,0-.7-.3-1.1-.9l-.2-.2-1.3-1.9a1.79,1.79,0,0,0,1.1-1.7c0-1.1-.8-1.7-2.3-1.7h-2.1c-.2,0-.2.1-.2.2A.6.6,0,0,1,474.4,345.92Zm2,.1a1.59,1.59,0,0,1,1.2.4,1.39,1.39,0,0,1,.5,1c0,.8-.4,1.2-1.3,1.2h-.7v-2.3Q476,346,476.4,346Z"/></svg>