<svg xmlns="http://www.w3.org/2000/svg" viewBox="0 0 472.5 122.67"><defs><style>.a{fill:#fff;}</style></defs><title>Asset 1</title><path class="a" d="M149.6,52.07l1.1.2a2.66,2.66,0,0,1,1.9,1.2,8,8,0,0,1,.5,3.3v18.7a11.82,11.82,0,0,1-.5,3.9,2.22,2.22,0,0,1-1.9,1.3c-.4,0-.6.2-.6.4s.2.5.7.5a10.3,10.3,0,0,0,1.3-.1h4.6a16.39,16.39,0,0,1,2.6.1c.6,0,1,.1,1.2.1.4,0,.5-.1.5-.4s-.2-.4-.7-.5c-1.6-.3-2.7-.7-3.1-1.2s-.7-1.6-.7-3.3v-8c0-.3.1-.5.4-.5a.76.76,0,0,1,.5.2l.4.5,11.7,12.1.4.4a1.76,1.76,0,0,0,1.3.6h2.9a8.2,8.2,0,0,1,1.9.1h.5c.5,0,.7-.1.7-.5a.46.46,0,0,0-.5-.4l-1-.2a8.68,8.68,0,0,1-4-2.3l-11.4-11.9a1.35,1.35,0,0,1-.5-.9c0-.2.2-.4.5-.7l7.5-6.8c3.7-3.3,6.2-5.2,7.5-5.5.7-.2,1.1-.4,1-.6s-.2-.4-.6-.4a2.64,2.64,0,0,0-.7.1c-.3,0-.9.1-1.8.1h-1.6l-2-.1a14.09,14.09,0,0,1-2.1-.1h-.6c-.5,0-.7.2-.7.4s.3.5,1,.6c1,.2,1.6.6,1.6,1.3s-.7,1.8-2.2,3.1l-9.4,8.4-.3.3-.3-.1c-.1,0-.2-.2-.2-.5v-8.5a6.8,6.8,0,0,1,.4-3,2.67,2.67,0,0,1,1.7-1.3c.4-.1.5-.3.5-.5s-.2-.4-.5-.4a5.13,5.13,0,0,0-1,.1H154a31.35,31.35,0,0,1-3.5-.1c-.3,0-.6-.1-.8-.1-.4,0-.6.1-.6.4S149.2,52,149.6,52.07Z"/><path class="a" d="M185.4,81.37c.2,0,.5.1.6.1.3,0,.5-.1.5-.4s-.3-.3-.8-.4a3.71,3.71,0,0,1-1.5-.5,2.28,2.28,0,0,1-.8-1.2,9.62,9.62,0,0,1-.3-3V63.87q0-3.45,1.2-3.9l.8-.3c.3-.1.4-.2.4-.4s-.1-.3-.4-.3h-.4l-1.1.1c-.6,0-1.3.1-2,.1a27.26,27.26,0,0,1-3.1-.1h-.3c-.3,0-.5.1-.5.3s.2.3.5.4a3.38,3.38,0,0,1,2,.9,5.57,5.57,0,0,1,.5,2.7v13.8a5.32,5.32,0,0,1-.4,2.7,2,2,0,0,1-1.6.8c-.3.1-.5.2-.5.4s.1.3.4.3h.8l1.9-.1h2.3C184.5,81.27,185.1,81.37,185.4,81.37Z"/><path class="a" d="M196.6,68.37a35.06,35.06,0,0,1-3.8-1.4,5.26,5.26,0,0,1-1.4-1.2,3.78,3.78,0,0,1-.8-2.3,3.37,3.37,0,0,1,1.2-2.6,4.1,4.1,0,0,1,2.9-1,7.74,7.74,0,0,1,4,1.1,5.58,5.58,0,0,1,2.4,2.9c.2.5.4.8.5.8s.3-.2.3-.5a2.64,2.64,0,0,0-.1-.7l-.3-1.7c-.1-.9-.2-1.4-.2-1.6,0-.5-.1-.8-.4-.8-.1,0-.1,0-.2.1l-.2.2a.76.76,0,0,1-.4.2.37.37,0,0,1-.3-.1l-1.1-.5a8.36,8.36,0,0,0-2.9-.5,7.51,7.51,0,0,0-5,1.6,5.28,5.28,0,0,0-1.9,4.3,5,5,0,0,0,1.5,3.8,13.21,13.21,0,0,0,5.1,2.7,18.66,18.66,0,0,1,4.2,1.8,3.89,3.89,0,0,1,1.4,3,4.22,4.22,0,0,1-1.5,3.2,5.49,5.49,0,0,1-3.8,1.3,7,7,0,0,1-4.1-1.4,5.83,5.83,0,0,1-2.4-3.4c-.2-.5-.3-.8-.5-.8s-.3.1-.3.5a8,8,0,0,0,.4,2.1c.2.9.4,1.4.4,1.5a3,3,0,0,0,.3,1.1c.1.1.2.3.4.4a6.81,6.81,0,0,0,2.2.8,14.71,14.71,0,0,0,2.7.4,7.93,7.93,0,0,0,5.6-1.9,6.12,6.12,0,0,0,2.2-4.9C202.6,71.87,200.6,69.67,196.6,68.37Z"/><path class="a" d="M212.5,81.37a5.38,5.38,0,0,1,.8.1c.3,0,.5-.1.5-.3s-.2-.4-.6-.4a3.11,3.11,0,0,1-2-.8,3.73,3.73,0,0,1-.5-2.4v-5.9a1.44,1.44,0,0,1,.2-.9,2,2,0,0,1,1.1-.2h9.5a2.25,2.25,0,0,1,1,.1c.1.1.1.4.1.9v6.5c0,1.6-.6,2.6-1.7,2.8-.4.1-.5.2-.5.4s.1.3.4.3a7.47,7.47,0,0,0,1.1-.1h3.2a5.79,5.79,0,0,1,1.6.1,2.49,2.49,0,0,0,.8.1c.3,0,.5-.1.5-.4s-.2-.3-.5-.3a3.05,3.05,0,0,1-1.9-.8,4.27,4.27,0,0,1-.5-2.4V62.17a3.19,3.19,0,0,1,.3-1.4c.2-.4.5-.7.8-.7l.7-.1c.3-.1.4-.2.4-.3s-.1-.3-.4-.3a1.76,1.76,0,0,0-.6.1,14.9,14.9,0,0,1-2.4.1,17.71,17.71,0,0,1-2.3-.1,5.39,5.39,0,0,0-1.1-.1c-.3,0-.4.1-.4.3s.1.3.5.4a2.36,2.36,0,0,1,1.6,1,4.94,4.94,0,0,1,.4,2.4V69a.85.85,0,0,1-.2.6c-.1.1-.4.1-.9.1H212a2.23,2.23,0,0,1-1.2-.2,2,2,0,0,1-.2-1.1v-5.8a2.5,2.5,0,0,1,.4-1.7,2.56,2.56,0,0,1,1.5-.8c.3-.1.4-.2.4-.4s-.2-.3-.5-.3a2,2,0,0,0-.7.1,14.77,14.77,0,0,1-2.1.1,28.13,28.13,0,0,1-3-.1,4.14,4.14,0,0,0-1-.1c-.3,0-.4.1-.4.3s.2.3.5.3a3.05,3.05,0,0,1,1.9.8,2.83,2.83,0,0,1,.5,2v13.9a11.71,11.71,0,0,1-.3,3.2c-.2.6-.5,1-1,1.1l-.8.2c-.3.1-.4.2-.4.4s.1.3.4.3a5.13,5.13,0,0,0,1-.1c.4,0,.7-.1,1-.1h2.5A3.29,3.29,0,0,1,212.5,81.37Z"/><path class="a" d="M234,81.37h.5c.3,0,.5-.1.5-.3s-.2-.3-.5-.4a5.71,5.71,0,0,1-1.5-.6,1.25,1.25,0,0,1-.4-1.1,6.43,6.43,0,0,1,.7-2.4l1.1-2.4a3.18,3.18,0,0,1,.8-1.3,4,4,0,0,1,1.5-.2h5.8a2.53,2.53,0,0,1,1.1.1,2.8,2.8,0,0,1,.5,1l.8,2.1a10.85,10.85,0,0,1,1,3.4,1,1,0,0,1-.8,1.1l-.5.1c-.3.1-.4.2-.4.3s.1.3.4.3a1.09,1.09,0,0,0,.5-.1,17.22,17.22,0,0,1,2.8-.1,22.82,22.82,0,0,1,3,.1h.6a.46.46,0,0,0,.5-.3c0-.2-.2-.3-.5-.4a3.42,3.42,0,0,1-2-.8,7.74,7.74,0,0,1-1.3-2.4l-.4-.9-6.9-17.8c-.1-.3-.3-.5-.4-.5s-.3.2-.5.5l-8.3,18.4-.5,1.1a4.19,4.19,0,0,1-.9,1.4,2.75,2.75,0,0,1-.9.8l-.6.2q-.3.15-.3.3c0,.2.1.3.4.3a4.4,4.4,0,0,0,.9-.1h2.5Zm2.2-11.1,3.1-7q.15-.3.3-.3c.2,0,.3.2.4.5l.1.3,2.5,6.4.1.3a.76.76,0,0,1,.1.4c0,.3-.3.4-.8.4h-5.3c-.5,0-.7-.1-.7-.4A1,1,0,0,1,236.2,70.27Z"/><path class="a" d="M259.2,81.47a8.33,8.33,0,0,0,1.2-.1h3.4l2.1.1h.7c.4,0,.6-.1.6-.4s-.2-.4-.7-.5a4.26,4.26,0,0,1-2-.8,2.07,2.07,0,0,1-.5-1.5,8.74,8.74,0,0,1,1-3.3l1.4-3.2a6.11,6.11,0,0,1,1-1.8,4,4,0,0,1,2-.3h7.9a4,4,0,0,1,1.5.2c.2.1.4.6.7,1.4l1.1,2.9a15.56,15.56,0,0,1,1.3,4.6,1.43,1.43,0,0,1-1.1,1.5l-.7.2c-.4.1-.5.2-.5.4s.2.4.6.4a2.25,2.25,0,0,0,.7-.1,31.57,31.57,0,0,1,3.8-.1,39,39,0,0,1,4,.1h.8c.4,0,.6-.1.6-.4s-.2-.4-.7-.5a5.87,5.87,0,0,1-2.8-1c-.5-.4-1-1.5-1.7-3.3l-.5-1.2L275,50.68q-.3-.6-.6-.6c-.2,0-.4.2-.6.7l-11.2,25-.6,1.4a7.61,7.61,0,0,1-1.2,1.9,3.64,3.64,0,0,1-1.2,1.1l-.8.2c-.2.1-.4.2-.4.5C258.7,81.37,258.9,81.47,259.2,81.47Zm9.8-15.1,4.3-9.5c.1-.3.2-.4.4-.4s.4.3.6.7l.2.5,3.4,8.7.1.4a1.09,1.09,0,0,1,.1.5c0,.4-.4.5-1.1.5h-7.2c-.7,0-1-.2-1-.6C268.7,67.07,268.8,66.77,269,66.37Z"/><path class="a" d="M312.6,70a10.71,10.71,0,0,0-3-7.8q-3.3-3.3-9.9-3.3a13.43,13.43,0,0,0-2.1.1l-1.5.1a17,17,0,0,1-2.5.1h-1.1l-1.3-.1c-.3,0-.4.1-.4.3s.2.3.5.3a2.41,2.41,0,0,1,1.8.9,3.91,3.91,0,0,1,.5,2.4v14.5a6.24,6.24,0,0,1-.3,2.4,1.77,1.77,0,0,1-1.4.8c-.3.1-.5.2-.5.4s.2.4.6.4a3.45,3.45,0,0,0,.9-.1,26.61,26.61,0,0,1,3-.2c1.1,0,2.3,0,3.8.1a9.89,9.89,0,0,0,1.5.1,11.73,11.73,0,0,0,6.5-1.9,10.19,10.19,0,0,0,3.7-4A12,12,0,0,0,312.6,70Zm-6.1,9.2a9.4,9.4,0,0,1-5,1.4,19.87,19.87,0,0,1-2.2-.2,9.84,9.84,0,0,1-2.2-.6,1.31,1.31,0,0,1-1-1.4V61.77c0-.7.1-1.1.4-1.3.5-.4,1.5-.5,3.2-.5a10.23,10.23,0,0,1,6.1,1.8,9.82,9.82,0,0,1,3.2,4,13.09,13.09,0,0,1,1.2,5.6C310.2,75,309,77.57,306.5,79.17Z"/><path class="a" d="M312,59.67c.1,0,.4.1,1,.2a2.09,2.09,0,0,1,1.3.7,5.72,5.72,0,0,1,1,1.8l8.2,19c.2.5.5.8.7.8s.4-.3.7-.8l8-18.8.4-1a3.09,3.09,0,0,1,1.8-1.9q.3-.15.3-.3a.27.27,0,0,0-.3-.3h-3.2a10.33,10.33,0,0,1-1.4-.1H330c-.3,0-.5.1-.5.3s.3.3.9.4a1.88,1.88,0,0,1,1,.4c.2.1.2.4.2.8,0,1-.8,3.4-2.3,7l-3.5,8.4-.3.6q-.45.9-.6.9c-.1,0-.3-.2-.4-.5l-6.2-14.2a5.64,5.64,0,0,1-.7-2.3.85.85,0,0,1,.2-.6,1.92,1.92,0,0,1,.8-.4q.3-.15.3-.3c0-.2-.1-.3-.4-.3H318c-.5,0-.8.1-1,.1h-4.7c-.3,0-.5.1-.5.3C311.9,59.57,311.9,59.67,312,59.67Z"/><path class="a" d="M352.9,76.87c-.1,0-.2.1-.4.3-1.2,1.9-3.9,2.9-8.1,2.9a6.17,6.17,0,0,1-2.5-.3c-.3-.2-.5-.8-.5-1.7v-6.4a.6.6,0,0,1,.3-.6,2.33,2.33,0,0,1,1.1-.2h3.6a3.52,3.52,0,0,1,2,.4,2.37,2.37,0,0,1,.8,1.5l.1.5a.43.43,0,0,0,.4.4c.2,0,.3-.1.3-.4v-.5a12.1,12.1,0,0,1-.1-1.9,27.16,27.16,0,0,1,.1-2.8v-.4c0-.3-.1-.4-.3-.4a.37.37,0,0,0-.4.4,2.73,2.73,0,0,1-.5,1.4,2.82,2.82,0,0,1-1.1.5,17.58,17.58,0,0,1-2.7.2h-2.5c-.5,0-.7-.1-.8-.2s-.1-.4-.1-.9v-6.5a1.44,1.44,0,0,1,.3-1.1,1.88,1.88,0,0,1,1.3-.3h2.5a22.19,22.19,0,0,1,3.4.2,1.76,1.76,0,0,1,1.2,1,3,3,0,0,1,.2,1v.4c0,.3.1.5.3.5a.52.52,0,0,0,.4-.2,5.47,5.47,0,0,0,.2-1.2l.1-.9a8.47,8.47,0,0,0,.1-1.3v-.4a.47.47,0,0,0-.5-.5,1.49,1.49,0,0,0-.6.1,8.33,8.33,0,0,0-1.2.1l-2.3.1c-1,0-2.2.1-3.5.1a45,45,0,0,1-5.6-.3,4.91,4.91,0,0,0-1.1-.1c-.5,0-.7.1-.7.4s.2.3.5.3a2.35,2.35,0,0,1,2,.8,7,7,0,0,1,.5,3.1v14.7c0,1.3-.4,2-1.2,2.3l-.6.2c-.3.1-.4.2-.4.4s.2.3.5.3a2.81,2.81,0,0,0,.8-.1,33.12,33.12,0,0,1,4-.2q1.95,0,5.1.3c.5,0,.9.1,1.3.1a4.75,4.75,0,0,0,3.6-1.7,4.33,4.33,0,0,0,1.2-2.5C353.2,77,353.1,76.87,352.9,76.87Z"/><path class="a" d="M376.5,59.07a2.81,2.81,0,0,0-.8.1,7.12,7.12,0,0,1-1.6.1,26.28,26.28,0,0,1-3-.1h-.7c-.3,0-.5.1-.5.3s.2.3.5.4a5.93,5.93,0,0,1,2.3.8,3.05,3.05,0,0,1,.8,1.9l.2,3.7v10.2c0,.2-.1.3-.2.3s-.2-.1-.5-.4l-14.8-16.8c-.3-.3-.5-.5-.8-.5h-3c-.2,0-.4.1-.4.3s.1.3.4.4a3.71,3.71,0,0,1,2.6,1.8,9,9,0,0,1,.9,4.4V77a4.94,4.94,0,0,1-.5,2.5,3.81,3.81,0,0,1-1.8,1.3c-.3.1-.5.2-.5.4s.2.3.5.3a1.76,1.76,0,0,0,.6-.1c.4,0,.8-.1,1.2-.1h.8l1.6.1a11.35,11.35,0,0,1,1.4.1h.5a.27.27,0,0,0,.3-.3.46.46,0,0,0-.5-.4,2.75,2.75,0,0,1-1.7-.6,2.07,2.07,0,0,1-.5-1.5V65.87c0-.5.1-.7.3-.7s.2,0,.2.1l.2.2,13.6,15.6.4.4c.1.1.2.1.4.1a.51.51,0,0,0,.5-.4A10.45,10.45,0,0,0,375,79V62.67a5.15,5.15,0,0,1,.3-2.1c.2-.4.6-.6,1.3-.8q.3-.15.3-.3C376.9,59.17,376.8,59.07,376.5,59.07Z"/><path class="a" d="M398.5,60.57a2,2,0,0,0-.2-1.1,2,2,0,0,0-1.1-.2H379.8a1,1,0,0,0-.7.2,2.15,2.15,0,0,0-.2,1,17.62,17.62,0,0,1-.2,1.9c-.1.6-.2,1-.2,1.2s.1.4.3.4.3-.2.4-.6a3.73,3.73,0,0,1,.9-2,2.55,2.55,0,0,1,1.9-.5h4.3a1.29,1.29,0,0,1,.8.2,1.17,1.17,0,0,1,.2.7v16.4a3.16,3.16,0,0,1-.4,1.9,2.45,2.45,0,0,1-1.7.7c-.4,0-.5.1-.5.3s.2.3.5.3a6.61,6.61,0,0,0,1.1-.1h5.1a3.22,3.22,0,0,0,.8.1c.3,0,.5-.1.5-.3s-.2-.3-.6-.4a2.13,2.13,0,0,1-2.1-2.2V62.08a2.15,2.15,0,0,1,.2-1,1.44,1.44,0,0,1,.9-.2h4.5a3.61,3.61,0,0,1,1.8.3c.3.2.5.7.7,1.5.1.3.2.5.4.5s.3-.2.3-.5a2.81,2.81,0,0,0-.1-.8C398.5,61.67,398.5,61.17,398.5,60.57Z"/><path class="a" d="M407.8,80.67a3.71,3.71,0,0,1-1.5-.5,2.28,2.28,0,0,1-.8-1.2,9.62,9.62,0,0,1-.3-3V63.87q0-3.45,1.2-3.9l.8-.3c.3-.1.4-.2.4-.4s-.1-.3-.4-.3h-.4l-1.1.1c-.6,0-1.3.1-2,.1a27.26,27.26,0,0,1-3.1-.1h-.3c-.3,0-.5.1-.5.3s.2.3.5.4a3.38,3.38,0,0,1,2,.9,5.57,5.57,0,0,1,.5,2.7v13.8a5.32,5.32,0,0,1-.4,2.7,2,2,0,0,1-1.6.8c-.3.1-.5.2-.5.4s.1.3.4.3h.8l1.9-.1h2.3a7.16,7.16,0,0,1,1.7.1c.2,0,.5.1.6.1.3,0,.5-.1.5-.4S408.4,80.77,407.8,80.67Z"/><path class="a" d="M418.7,68.37a35.06,35.06,0,0,1-3.8-1.4,5.26,5.26,0,0,1-1.4-1.2,3.78,3.78,0,0,1-.8-2.3,3.37,3.37,0,0,1,1.2-2.6,4.1,4.1,0,0,1,2.9-1,7.74,7.74,0,0,1,4,1.1,5.58,5.58,0,0,1,2.4,2.9c.2.5.4.8.5.8s.3-.2.3-.5a2.64,2.64,0,0,0-.1-.7l-.3-1.7c-.1-.9-.2-1.4-.2-1.6,0-.5-.1-.8-.4-.8-.1,0-.1,0-.2.1l-.2.2a.76.76,0,0,1-.4.2.37.37,0,0,1-.3-.1l-1.1-.5a8.36,8.36,0,0,0-2.9-.5,7.51,7.51,0,0,0-5,1.6,5.28,5.28,0,0,0-1.9,4.3,5,5,0,0,0,1.5,3.8,13.21,13.21,0,0,0,5.1,2.7,18.66,18.66,0,0,1,4.2,1.8,3.89,3.89,0,0,1,1.4,3,4.22,4.22,0,0,1-1.5,3.2,5.49,5.49,0,0,1-3.8,1.3,7,7,0,0,1-4.1-1.4,5.83,5.83,0,0,1-2.4-3.4c-.2-.5-.3-.8-.5-.8s-.3.1-.3.5a8,8,0,0,0,.4,2.1c.2.9.4,1.4.4,1.5a3,3,0,0,0,.3,1.1c.1.1.2.3.4.4a6.81,6.81,0,0,0,2.2.8,14.71,14.71,0,0,0,2.7.4,7.93,7.93,0,0,0,5.6-1.9,6.12,6.12,0,0,0,2.2-4.9C424.7,71.87,422.7,69.67,418.7,68.37Z"/><path class="a" d="M446.2,60.57a2,2,0,0,0-.2-1.1,2,2,0,0,0-1.1-.2H427.6a1,1,0,0,0-.7.2,2.15,2.15,0,0,0-.2,1,17.62,17.62,0,0,1-.2,1.9c-.1.6-.2,1-.2,1.2s.1.4.3.4.3-.2.4-.6a3.73,3.73,0,0,1,.9-2,2.55,2.55,0,0,1,1.9-.5h4.3a1.29,1.29,0,0,1,.8.2,1.17,1.17,0,0,1,.2.7v16.4a3.16,3.16,0,0,1-.4,1.9,2.26,2.26,0,0,1-1.7.7c-.4,0-.5.1-.5.3s.2.3.5.3a6.61,6.61,0,0,0,1.1-.1h5.1a3.22,3.22,0,0,0,.8.1c.3,0,.5-.1.5-.3s-.2-.3-.6-.4a2.13,2.13,0,0,1-2.1-2.2V62.08a2.15,2.15,0,0,1,.2-1,1.44,1.44,0,0,1,.9-.2h4.5a3.61,3.61,0,0,1,1.8.3c.3.2.5.7.7,1.5.1.3.2.5.4.5s.3-.2.3-.5a2.81,2.81,0,0,0-.1-.8C446.2,61.67,446.2,61.17,446.2,60.57Z"/><path class="a" d="M464.5,76.87c-.1,0-.2.1-.4.3-1.2,1.9-3.9,2.9-8.1,2.9a6.17,6.17,0,0,1-2.5-.3c-.3-.2-.5-.8-.5-1.7v-6.4a.6.6,0,0,1,.3-.6,2.33,2.33,0,0,1,1.1-.2H458a3.52,3.52,0,0,1,2,.4,2.37,2.37,0,0,1,.8,1.5l.1.5a.43.43,0,0,0,.4.4c.2,0,.3-.1.3-.4v-.5a12.1,12.1,0,0,1-.1-1.9,27.16,27.16,0,0,1,.1-2.8v-.4c0-.3-.1-.4-.3-.4a.37.37,0,0,0-.4.4,2.73,2.73,0,0,1-.5,1.4,2.82,2.82,0,0,1-1.1.5,17.58,17.58,0,0,1-2.7.2h-2.5c-.5,0-.7-.1-.8-.2s-.1-.4-.1-.9v-6.5a1.44,1.44,0,0,1,.3-1.1,1.88,1.88,0,0,1,1.3-.3h2.5a22.19,22.19,0,0,1,3.4.2,1.76,1.76,0,0,1,1.2,1,3,3,0,0,1,.2,1v.4c0,.3.1.5.3.5a.52.52,0,0,0,.4-.2,5.47,5.47,0,0,0,.2-1.2l.1-.9a8.47,8.47,0,0,0,.1-1.3v-.4a.47.47,0,0,0-.5-.5,1.49,1.49,0,0,0-.6.1,8.33,8.33,0,0,0-1.2.1l-2.3.1c-1,0-2.2.1-3.5.1a45,45,0,0,1-5.6-.3,4.91,4.91,0,0,0-1.1-.1c-.5,0-.7.1-.7.4s.2.3.5.3a2.35,2.35,0,0,1,2,.8,7,7,0,0,1,.5,3.1v14.7c0,1.3-.4,2-1.2,2.3l-.6.2c-.3.1-.4.2-.4.4s.2.3.5.3a2.81,2.81,0,0,0,.8-.1,33.12,33.12,0,0,1,4-.2q1.95,0,5.1.3c.5,0,.9.1,1.3.1a4.75,4.75,0,0,0,3.6-1.7,4.33,4.33,0,0,0,1.2-2.5C464.8,77,464.7,76.87,464.5,76.87Z"/><path class="a" d="M177.8,86.87a5.39,5.39,0,0,0-1.1.1,13.47,13.47,0,0,1-2.2.1,39,39,0,0,1-4-.2c-.4,0-.7-.1-.9-.1-.4,0-.6.1-.6.4s.2.5.6.5a6.12,6.12,0,0,1,3.1,1.1,4.2,4.2,0,0,1,1.1,2.6l.3,5v14.1c0,.3-.1.4-.2.4s-.3-.2-.6-.5l-20.1-22.8a1.54,1.54,0,0,0-1.1-.6h-3.9c-.3,0-.5.1-.5.4s.2.4.6.5a4.48,4.48,0,0,1,3.5,2.5,12.51,12.51,0,0,1,1.2,6v14.9a7.1,7.1,0,0,1-.6,3.4,4.43,4.43,0,0,1-2.5,1.7c-.4.1-.6.3-.6.5s.2.4.6.4a2.81,2.81,0,0,0,.8-.1,8.08,8.08,0,0,1,1.6-.1h1l2.2.1c1.1.1,1.7.1,1.9.1h.7c.3,0,.5-.1.5-.4s-.2-.5-.7-.6a4.27,4.27,0,0,1-2.3-.8,3.12,3.12,0,0,1-.7-2l-.1-1.6V96.18c0-.7.1-1,.4-1a.37.37,0,0,1,.3.1l.2.2,18.4,21.1.5.6a.76.76,0,0,0,.5.2.63.63,0,0,0,.6-.5,19.58,19.58,0,0,0,.1-3V91.67a6.56,6.56,0,0,1,.4-2.9,2.68,2.68,0,0,1,1.8-1.1c.3-.1.5-.2.4-.4S178.2,86.87,177.8,86.87Z"/><path class="a" d="M198.7,112.57c-.1,0-.2.1-.4.3-1.2,1.9-3.9,2.9-8.1,2.9a6.17,6.17,0,0,1-2.5-.3c-.3-.2-.5-.8-.5-1.7v-6.4a.6.6,0,0,1,.3-.6,2.33,2.33,0,0,1,1.1-.2h3.6a3.52,3.52,0,0,1,2,.4,2.37,2.37,0,0,1,.8,1.5l.1.5a.43.43,0,0,0,.4.4c.2,0,.3-.1.3-.4v-.5a12.1,12.1,0,0,1-.1-1.9,27.16,27.16,0,0,1,.1-2.8v-.4c0-.3-.1-.4-.3-.4a.37.37,0,0,0-.4.4,2.73,2.73,0,0,1-.5,1.4,2.82,2.82,0,0,1-1.1.5,17.58,17.58,0,0,1-2.7.2h-2.5c-.5,0-.7-.1-.8-.2s-.1-.4-.1-.9v-6.9a1.44,1.44,0,0,1,.3-1.1,1.88,1.88,0,0,1,1.3-.3h2.5a22.19,22.19,0,0,1,3.4.2,1.76,1.76,0,0,1,1.2,1,3,3,0,0,1,.2,1v.4c0,.3.1.5.3.5a.52.52,0,0,0,.4-.2,5.47,5.47,0,0,0,.2-1.2l.1-.9a8.47,8.47,0,0,0,.1-1.3v-.4a.47.47,0,0,0-.5-.5,1.49,1.49,0,0,0-.6.1,8.33,8.33,0,0,0-1.2.1l-2.3.1c-1,0-2.2.1-3.5.1a45,45,0,0,1-5.6-.3,4.91,4.91,0,0,0-1.1-.1c-.5,0-.7.1-.7.4s.2.3.5.3a2.35,2.35,0,0,1,2,.8,7,7,0,0,1,.5,3.1V114c0,1.3-.4,2-1.2,2.3l-.6.2c-.3.1-.4.2-.4.4s.2.3.5.3a2.81,2.81,0,0,0,.8-.1,33.12,33.12,0,0,1,4-.2q1.95,0,5.1.3c.5,0,.9.1,1.3.1a4.75,4.75,0,0,0,3.6-1.7,4.33,4.33,0,0,0,1.2-2.5C199,112.77,198.9,112.57,198.7,112.57Z"/><path class="a" d="M193.2,92.47c.2,0,.5-.2.9-.7s.6-.8.6-1.1-.2-.6-.6-1.1-.7-.7-.9-.7-.5.2-.9.7-.6.8-.6,1.1.2.6.6,1.1S193,92.47,193.2,92.47Z"/><path class="a" d="M185.7,90.67a2.38,2.38,0,0,0,.6,1.1c.4.5.7.7.9.7s.5-.2.9-.7a2.38,2.38,0,0,0,.6-1.1c0-.3-.2-.6-.6-1.1s-.7-.7-.9-.7-.5.2-.9.7A2.38,2.38,0,0,0,185.7,90.67Z"/><path class="a" d="M220.9,99.57c-2.8-.9-4.5-1.6-5.2-1.9a6.27,6.27,0,0,1-2-1.7,4.9,4.9,0,0,1-1-3.2,4.45,4.45,0,0,1,1.6-3.5,6,6,0,0,1,3.9-1.4,10,10,0,0,1,5.4,1.5,7.11,7.11,0,0,1,3.2,3.9c.2.7.5,1.1.7,1.1s.5-.2.5-.7a4.4,4.4,0,0,0-.1-.9l-.4-2.3c-.2-1.2-.3-2-.3-2.2,0-.7-.2-1.1-.5-1.1-.1,0-.2,0-.2.1l-.3.3a1.69,1.69,0,0,1-.5.2.6.6,0,0,1-.4-.1l-1.5-.6a9.55,9.55,0,0,0-4-.7,10.11,10.11,0,0,0-6.8,2.2,7.07,7.07,0,0,0-2.6,5.8,7.33,7.33,0,0,0,2,5.2q1.95,1.95,6.9,3.6a30.82,30.82,0,0,1,5.7,2.4,5.16,5.16,0,0,1,1.9,4.1,5.44,5.44,0,0,1-2.1,4.3,7.57,7.57,0,0,1-5.1,1.8,9.28,9.28,0,0,1-5.5-1.8,8,8,0,0,1-3.3-4.6c-.2-.7-.4-1.1-.7-1.1s-.4.2-.4.6a10.78,10.78,0,0,0,.6,2.8c.3,1.2.5,1.9.5,2a12.68,12.68,0,0,0,.4,1.5,2.65,2.65,0,0,0,.5.6,9,9,0,0,0,3,1.1,17.19,17.19,0,0,0,3.7.5,11.29,11.29,0,0,0,7.6-2.6,8.46,8.46,0,0,0,3-6.7C228.9,104.27,226.3,101.37,220.9,99.57Z"/><path class="a" d="M254.2,116.47a3.05,3.05,0,0,1-1.9-.8,4.27,4.27,0,0,1-.5-2.4V97.67a3.19,3.19,0,0,1,.3-1.4c.2-.4.5-.7.8-.7l.7-.1c.3-.1.4-.2.4-.3s-.1-.3-.4-.3a1.76,1.76,0,0,0-.6.1,14.9,14.9,0,0,1-2.4.1,17.71,17.71,0,0,1-2.3-.1,5.39,5.39,0,0,0-1.1-.1c-.3,0-.4.1-.4.3s.1.3.5.4a2.36,2.36,0,0,1,1.6,1,4.94,4.94,0,0,1,.4,2.4v5.5a.85.85,0,0,1-.2.6c-.1.1-.4.1-.9.1h-9.5a2.23,2.23,0,0,1-1.2-.2,2,2,0,0,1-.2-1.1v-5.8a2.5,2.5,0,0,1,.4-1.7,2.56,2.56,0,0,1,1.5-.8c.3-.1.4-.2.4-.4s-.2-.3-.5-.3a2,2,0,0,0-.7.1,14.77,14.77,0,0,1-2.1.1,28.13,28.13,0,0,1-3-.1,4.14,4.14,0,0,0-1-.1c-.3,0-.4.1-.4.3s.2.3.5.3a3.05,3.05,0,0,1,1.9.8,2.83,2.83,0,0,1,.5,2v13.9a11.71,11.71,0,0,1-.3,3.2c-.2.6-.5,1-1,1.1l-.8.2c-.3.1-.4.2-.4.4s.1.3.4.3a5.13,5.13,0,0,0,1-.1c.4,0,.7-.1,1-.1h2.5a8.2,8.2,0,0,1,1.9.1,5.38,5.38,0,0,1,.8.1c.3,0,.5-.1.5-.3s-.2-.4-.6-.4a3.11,3.11,0,0,1-2-.8,3.73,3.73,0,0,1-.5-2.4v-5.9a1.44,1.44,0,0,1,.2-.9,2,2,0,0,1,1.1-.2h9.5a2.25,2.25,0,0,1,1,.1c.1.1.1.4.1.9V114c0,1.6-.6,2.6-1.7,2.8-.4.1-.5.2-.5.4s.1.3.4.3a7.47,7.47,0,0,0,1.1-.1h3.2a5.79,5.79,0,0,1,1.6.1,2.49,2.49,0,0,0,.8.1c.3,0,.5-.1.5-.4C254.7,116.67,254.5,116.57,254.2,116.47Z"/><path class="a" d="M281,120.57a1.69,1.69,0,0,0-.5.2,4.71,4.71,0,0,1-2.4.5,4.51,4.51,0,0,1-2.3-.9l-1.2-.8-1.5-1a14.7,14.7,0,0,0-2.3-1.2,13.05,13.05,0,0,0,3.8-1.3,11.23,11.23,0,0,0,4-4.1,12.14,12.14,0,0,0,1.5-6,11,11,0,0,0-11.4-11.4,10.85,10.85,0,0,0-8.8,3.8,11.5,11.5,0,0,0-2.6,7.8,11.3,11.3,0,0,0,4.8,9.4,3.9,3.9,0,0,0-1.8,1.6,4.63,4.63,0,0,0-.8,2.5c0,.3.1.5.4.5s.3-.2.4-.6a3.2,3.2,0,0,1,1-1.9,2.69,2.69,0,0,1,1.8-.8,8,8,0,0,1,3.5,1.3l2.7,1.4c.3.2,1.2.7,2.8,1.6a9.81,9.81,0,0,0,4.6,1.5,8,8,0,0,0,3-.6q1.5-.6,1.5-1.2C281.3,120.67,281.2,120.57,281,120.57Zm-17.3-6.5c-2.5-2.3-3.7-5.4-3.7-9.3a9.84,9.84,0,0,1,2.2-6.7,7.32,7.32,0,0,1,5.7-2.6A9.09,9.09,0,0,1,275,99a13.06,13.06,0,0,1,2.9,8.5,9.58,9.58,0,0,1-2.2,6.6,7.23,7.23,0,0,1-5.7,2.5A9.28,9.28,0,0,1,263.7,114.07Z"/><path class="a" d="M290.7,116.37a3.71,3.71,0,0,1-1.5-.5,2.28,2.28,0,0,1-.8-1.2,9.62,9.62,0,0,1-.3-3V99.57q0-3.45,1.2-3.9l.8-.3c.3-.1.4-.2.4-.4s-.1-.3-.4-.3h-.4l-1.1.1c-.6,0-1.3.1-2,.1a27.26,27.26,0,0,1-3.1-.1h-.3c-.3,0-.5.1-.5.3s.2.3.5.4a3.38,3.38,0,0,1,2,.9,5.57,5.57,0,0,1,.5,2.7v13.8a5.32,5.32,0,0,1-.4,2.7,2,2,0,0,1-1.6.8c-.3.1-.5.2-.5.4s.1.3.4.3h.8l1.9-.1h2.3a7.16,7.16,0,0,1,1.7.1c.2,0,.5.1.6.1.3,0,.5-.1.5-.4S291.3,116.47,290.7,116.37Z"/><path class="a" d="M307,96.37a8.57,8.57,0,0,0-5.5-1.6,11.56,11.56,0,0,0-1.7.1c-1.3.1-2.3.2-3,.2a11.56,11.56,0,0,1-1.7-.1,2.49,2.49,0,0,0-.8-.1c-.4,0-.6.1-.6.4s.1.3.4.3a2.22,2.22,0,0,1,2,1.1,12.59,12.59,0,0,1,.4,4.3v9.8a14.12,14.12,0,0,1-.5,4.4,2,2,0,0,1-1.7,1.4c-.4.1-.5.2-.5.4s.1.3.4.3a3.45,3.45,0,0,0,.9-.1c.3,0,.8-.1,1.4-.1h4.1c.5,0,.9.1,1.1.1.4,0,.6-.1.6-.4s-.2-.3-.5-.3a10.5,10.5,0,0,1-1.3-.2c-.9-.2-1.3-1-1.5-2.3V97a1.44,1.44,0,0,1,.2-.9c.2-.2.5-.2.9-.2a6.88,6.88,0,0,1,4.7,1.6,5.18,5.18,0,0,1,1.8,4,4.6,4.6,0,0,1-1.4,3.4,5.08,5.08,0,0,1-3.7,1.3,4.12,4.12,0,0,1-1.2-.1H300c-.2,0-.3.1-.3.2s.2.3.8.5a11.08,11.08,0,0,0,1.9.2,7.24,7.24,0,0,0,4.1-1.4,5.86,5.86,0,0,0,2.6-5A5,5,0,0,0,307,96.37Z"/><path class="a" d="M316.5,89c-.2,0-.5.2-.9.7a1.74,1.74,0,0,0-.6,1.1,2.38,2.38,0,0,0,.6,1.1c.4.5.7.7.9.7s.5-.2.9-.7a2.38,2.38,0,0,0,.6-1.1c0-.3-.2-.6-.6-1.1S316.8,89,316.5,89Z"/><path class="a" d="M322.4,89c-.2,0-.5.2-.9.7s-.6.8-.6,1.1.2.6.6,1.1.7.7.9.7.5-.2.9-.7.6-.8.6-1.1-.2-.6-.6-1.1S322.7,89,322.4,89Z"/><path class="a" d="M328,112.57c-.1,0-.2.1-.4.3-1.2,1.9-3.9,2.9-8.1,2.9a6.17,6.17,0,0,1-2.5-.3c-.3-.2-.5-.8-.5-1.7v-6.4a.6.6,0,0,1,.3-.6,2.33,2.33,0,0,1,1.1-.2h3.6a3.52,3.52,0,0,1,2,.4,2.37,2.37,0,0,1,.8,1.5l.1.5a.43.43,0,0,0,.4.4c.2,0,.3-.1.3-.4v-.5a12.1,12.1,0,0,1-.1-1.9,27.16,27.16,0,0,1,.1-2.8v-.4c0-.3-.1-.4-.3-.4a.37.37,0,0,0-.4.4,2.73,2.73,0,0,1-.5,1.4,2.82,2.82,0,0,1-1.1.5,17.58,17.58,0,0,1-2.7.2h-2.5c-.5,0-.7-.1-.8-.2s-.1-.4-.1-.9v-6.9a1.44,1.44,0,0,1,.3-1.1,1.88,1.88,0,0,1,1.3-.3h2.5a22.19,22.19,0,0,1,3.4.2,1.76,1.76,0,0,1,1.2,1,3,3,0,0,1,.2,1v.4c0,.3.1.5.3.5a.52.52,0,0,0,.4-.2,5.47,5.47,0,0,0,.2-1.2l.1-.9a8.47,8.47,0,0,0,.1-1.3v-.4a.47.47,0,0,0-.5-.5,1.49,1.49,0,0,0-.6.1,8.33,8.33,0,0,0-1.2.1l-2.3.1c-1,0-2.2.1-3.5.1a45,45,0,0,1-5.6-.3,4.91,4.91,0,0,0-1.1-.1c-.5,0-.7.1-.7.4s.2.3.5.3a2.35,2.35,0,0,1,2,.8,7,7,0,0,1,.5,3.1V114c0,1.3-.4,2-1.2,2.3l-.6.2c-.3.1-.4.2-.4.4s.2.3.5.3a2.81,2.81,0,0,0,.8-.1,33.12,33.12,0,0,1,4-.2q1.95,0,5.1.3c.5,0,.9.1,1.3.1a4.75,4.75,0,0,0,3.6-1.7,4.33,4.33,0,0,0,1.2-2.5C328.3,112.77,328.2,112.57,328,112.57Z"/><path class="a" d="M351,116.37h-.5c-1.2-.1-2.4-1.1-3.8-3.1l-.5-.8-4.5-6.6c2.7-1.3,4-3.2,4-5.6a5,5,0,0,0-1.9-4.2,9.62,9.62,0,0,0-5.6-1.4,19.3,19.3,0,0,0-2.3.1c-1.2.1-2,.1-2.5.1H332a6.27,6.27,0,0,1-1.1-.1c-.4,0-.5.1-.5.3s.2.3.5.4l.8.1c1.2.2,1.8,1.1,1.8,2.8v13.3a10.66,10.66,0,0,1-.4,3.7,2.25,2.25,0,0,1-1.7,1.2c-.3.1-.4.2-.4.3s.1.3.4.3a3.45,3.45,0,0,0,.9-.1,6.64,6.64,0,0,1,1.3-.1h2.3a10.37,10.37,0,0,1,2,.1c.5,0,.8.1,1,.1.4,0,.6-.1.5-.3s-.2-.3-.6-.4a3.45,3.45,0,0,1-2.1-.7,2.76,2.76,0,0,1-.7-.9,8.71,8.71,0,0,1-.1-1.9v-5.7a.59.59,0,0,1,.2-.5l.4-.1h2.1a1.36,1.36,0,0,1,1.3.7l.2.4,4,6.1a10.23,10.23,0,0,0,2.3,2.6,4.7,4.7,0,0,0,2.6.8,7.77,7.77,0,0,0,1.6-.2c.5-.1.7-.3.7-.4S351.2,116.47,351,116.37Zm-12.2-10.8H337a1.44,1.44,0,0,1-.9-.2,1.86,1.86,0,0,1-.2-1v-7.1c0-.6.1-.9.4-1.1a2.06,2.06,0,0,1,1.3-.3,6,6,0,0,1,4.2,1.5,5,5,0,0,1,1.6,3.9,4.38,4.38,0,0,1-1.2,3.2A5.33,5.33,0,0,1,338.8,105.57Z"/><path class="a" d="M360,116.37a3.71,3.71,0,0,1-1.5-.5,2.28,2.28,0,0,1-.8-1.2,9.62,9.62,0,0,1-.3-3V99.57q0-3.45,1.2-3.9l.8-.3c.3-.1.4-.2.4-.4s-.1-.3-.4-.3H359l-1.1.1c-.6,0-1.3.1-2,.1a27.26,27.26,0,0,1-3.1-.1h-.3c-.3,0-.5.1-.5.3s.2.3.5.4a3.38,3.38,0,0,1,2,.9,5.57,5.57,0,0,1,.5,2.7v13.8a5.32,5.32,0,0,1-.4,2.7,2,2,0,0,1-1.6.8c-.3.1-.5.2-.5.4s.1.3.4.3h.8l1.9-.1h2.3a7.16,7.16,0,0,1,1.7.1c.2,0,.5.1.6.1.3,0,.5-.1.5-.4C360.9,116.57,360.6,116.47,360,116.37Z"/><path class="a" d="M42.4,90.77l-26.9,4.8L0,117l37.1-6.6c11.1-1.9,20.9-2.3,23.9,6.5v-14.4H53.7v-5.1H61v-.5C61.1,91.77,58.7,88,42.4,90.77Z"/><path class="a" d="M84.6,90.77l-5.9,5.9c-8.4,8.4-12.6,13.2-12.6,20.2,3.2-9.2,13.5-8.4,25.5-6.1l35.6,6.1-15.5-21.4Z"/><path class="a" d="M79.4,83.07c-3.3,3.3-9,8.5-11.7,14.3h6l6.9-6.8c6.3-6.3,11.2-11.1,13.2-17.2a22.08,22.08,0,0,0,1.2-11,10.18,10.18,0,0,0-.7-2.6c-.6,6.9-2.5,11-12.5,21Z"/><path class="a" d="M60.7,40.87c3.7-3.7,12.9-12,12.9-19.2v-8c0-.1-.2-.1-.2,0-.6,5.4-1.9,7.7-15,20.8l-12.9,13c-6.8,6.8-12.4,14.1-11.7,22.3.4,4.6,1.9,7.1,2.9,7.8.5.4.4.1.2-.2-3.9-8.9,5.4-18.2,10.1-22.9Z"/><path class="a" d="M73.6,27.37c0-.1-.2-.1-.2,0-.6,5.4-1.9,7.7-15,20.8l-12,12c-4.4,4.4-8.4,8.9-8.2,16.3.1,4.5,2.4,8.3,5.8,9.2,1.4.3,1.3.1,1,0-4.8-2.3-4.5-11,3.3-18.8l12.3-12.3c3.7-3.7,12.9-12,12.9-19.2v-8Z"/><path class="a" d="M33.1,63.37c.6-6.9,2.5-11,12.5-21l15.1-15.1c3.7-3.7,12.9-12,12.9-19.2v-8c0-.1-.2-.1-.2,0-.6,5.4-1.9,7.7-15,20.8L46.8,32.47c-6.3,6.3-11.2,11.1-13.2,17.2a22.08,22.08,0,0,0-1.2,11C32.6,62.07,33.1,63.77,33.1,63.37Z"/><path class="a" d="M66.1,110.47c0,.1.2.1.2,0a17.85,17.85,0,0,1,3.1-7.9H66.1v7.9Z"/><path class="a" d="M81.8,67.07,78,70.87c-5.9,5.8-11.8,12.4-11.8,18.4v8c0,.1.2.1.2,0,.6-5.9,3.5-9.7,12-18.2l3.5-3.5c6.8-6.8,12.4-14.1,11.7-22.3-.4-4.6-1.9-7.1-2.9-7.8-.5-.4-.4-.1-.2.2C94.2,54.77,84.8,64.07,81.8,67.07Z"/><path class="a" d="M66.2,83.47c0,.1.2.1.2,0,.7-5.6,3.9-9.8,11.2-17.1l3.5-3.5c4.4-4.4,8.3-8.9,8.1-16.3-.1-4.5-2.4-8.3-5.8-9.2-1.4-.3-1.3-.1-1,0,4.8,2.3,4.5,11-3.3,18.8l-4.5,4.3c-2.8,2.8-8.5,9-8.5,14.8v8.2Z"/><path class="a" d="M127.3,100.07a3.89,3.89,0,0,0-3,1.4,3.92,3.92,0,0,0,0,5,3.89,3.89,0,0,0,3,1.4,3.69,3.69,0,0,0,2.7-1.1,3.62,3.62,0,0,0,1.1-2.7,3.69,3.69,0,0,0-1.1-2.7A3,3,0,0,0,127.3,100.07Zm2.4,6.3a3.25,3.25,0,0,1-2.4,1,3,3,0,0,1-2.4-1,3.25,3.25,0,0,1-1-2.4,3,3,0,0,1,1-2.4,3.25,3.25,0,0,1,2.4-1,3,3,0,0,1,2.4,1,3.38,3.38,0,0,1,0,4.8Z"/><path class="a" d="M129.5,106a1,1,0,0,1-.7-.6l-.1-.2-.9-1.3a1.4,1.4,0,0,0,.8-1.1c0-.8-.5-1.1-1.6-1.1h-1.5c-.1,0-.1,0-.1.1s0,.1.1.1h.2c.2,0,.3.2.3.5V105c0,.4,0,.6-.1.7s-.2.2-.3.2a.1.1,0,0,0-.1.1c0,.1,0,.1.1.1h1.6c.1,0,.2,0,.2-.1s-.1-.1-.2-.1a.76.76,0,0,1-.5-.2c-.1-.1-.1-.2-.1-.5V104h.5c.1,0,.2,0,.2.1v.1l.8,1.2a1.26,1.26,0,0,0,1,.7c.3,0,.5-.1.5-.2s0-.1-.1-.1Zm-2.4-2.2h-.6v-1.6c0-.2.1-.2.3-.2a1.14,1.14,0,0,1,.8.3.91.91,0,0,1,.3.7C128,103.47,127.7,103.77,127.1,103.77Z"/><path class="a" d="M470.8,57.07a1,1,0,0,1-.7-.6l-.1-.2-.9-1.3a1.4,1.4,0,0,0,.8-1.1c0-.8-.5-1.1-1.6-1.1h-1.5c-.1,0-.1,0-.1.1s0,.1.1.1h.2c.2,0,.3.2.3.5v2.6c0,.4,0,.6-.1.7s-.2.2-.3.2a.1.1,0,0,0-.1.1c0,.1,0,.1.1.1h1.6c.1,0,.2,0,.2-.1s-.1-.1-.2-.1a.76.76,0,0,1-.5-.2c-.1-.1-.1-.2-.1-.5v-1.2h.5c.1,0,.2,0,.2.1v.1l.8,1.2a1.26,1.26,0,0,0,1,.7c.3,0,.5-.1.5-.2s0-.1-.1-.1ZM468.5,55h-.6v-1.6c0-.2.1-.2.3-.2a1.14,1.14,0,0,1,.8.3.91.91,0,0,1,.3.7A.74.74,0,0,1,468.5,55Z"/><path class="a" d="M471.4,52.37a3.62,3.62,0,0,0-2.7-1.1,3.89,3.89,0,0,0-3,1.4,3.92,3.92,0,0,0,0,5,3.75,3.75,0,0,0,3,1.4,3.69,3.69,0,0,0,2.7-1.1,3.62,3.62,0,0,0,1.1-2.7A3.84,3.84,0,0,0,471.4,52.37Zm-.3,5.1a3.25,3.25,0,0,1-2.4,1,3,3,0,0,1-2.4-1,3.25,3.25,0,0,1-1-2.4,3,3,0,0,1,1-2.4,3.25,3.25,0,0,1,2.4-1,3,3,0,0,1,2.4,1,3.25,3.25,0,0,1,1,2.4A3,3,0,0,1,471.1,57.47Z"/></svg>