<svg xmlns="http://www.w3.org/2000/svg" viewBox="0 0 446.72 351.01"><defs><style>.a{fill:#fff;}</style></defs><title>Asset 1</title><path class="a" d="M215.28,193.61v-24H203.2v-8.51h12.08v-.8c0-8.52-3.93-14.76-31-10.07l-44.51,7.93-25.61,35.53,61.46-10.9C194,179.63,210.2,179,215.28,193.61Z"/><path class="a" d="M244.5,160.09c-14,14-20.82,21.94-20.82,33.52,5.34-15.32,22.3-14,42.32-10.14l59,10.18-25.66-35.49-45-7.93Z"/><path class="a" d="M245.58,137.42c-5.46,5.46-15,14.11-19.41,23.67h9.89l11.39-11.34c10.47-10.47,18.54-18.47,22-28.51A36.77,36.77,0,0,0,271.33,103c-.25-2-1.11-4.82-1.15-4.23-1,11.38-4.18,18.22-20.71,34.75Z"/><path class="a" d="M192.18,89.93l22.45-22.51C220.73,61.35,236,47.6,236,35.68V22.5c0-.14-.28-.09-.28,0-1.06,8.88-3.17,12.71-24.89,34.43L189.47,78.36c-11.33,11.33-20.52,23.4-19.33,36.88.67,7.56,3.19,11.7,4.85,12.88.83.59.63.17.41-.33C168.88,113,184.41,97.69,192.18,89.93Z"/><path class="a" d="M236,45.06c0-.14-.28-.09-.28,0-1.06,8.88-3.17,12.71-24.89,34.43L191,99.41c-7.22,7.23-13.85,14.8-13.55,27,.19,7.49,4,13.71,9.63,15.17,2.33.5,2.19.2,1.63,0-8-3.78-7.43-18.24,5.51-31.19L214.62,90C220.73,83.92,236,70.16,236,58.24Z"/><path class="a" d="M168.95,104.79c1-11.38,4.18-18.22,20.71-34.75l25-25C220.73,38.94,236,25.19,236,13.27V.09c0-.14-.28-.09-.28,0C234.71,9,232.6,12.8,210.88,34.51L191.67,53.76c-10.47,10.47-18.54,18.47-22,28.51a36.8,36.8,0,0,0-1.92,18.29C168,102.56,168.9,105.38,168.95,104.79Z"/><path class="a" d="M224,182.72a28.32,28.32,0,0,1,5.2-13.1h-5.48v13.1C223.68,182.82,223.95,182.82,224,182.72Z"/><path class="a" d="M249.59,110.95l-6.32,6.31c-9.73,9.67-19.55,20.5-19.55,30.52v13.34c0,.1.27.1.28,0,1.06-9.72,5.74-16,19.81-30.1l5.84-5.87C261,113.81,270.17,101.75,269,88.27c-.67-7.56-3.19-11.7-4.85-12.88-.83-.59-.63-.16-.41.33C270.24,90.5,254.68,105.85,249.59,110.95Z"/><path class="a" d="M223.7,138c0,.1.27.1.28,0,1.1-9.25,6.39-16.32,18.48-28.4l5.78-5.78c7.22-7.22,13.74-14.75,13.44-27-.18-7.49-4-13.71-9.63-15.17-2.33-.5-2.19-.2-1.64,0,8,3.78,7.43,18.24-5.51,31.19L237.78,100c-4.6,4.6-14.07,14.9-14.07,24.46Z"/><path class="a" d="M272,344.46V310.17c0-4.74,4.6-3.35,4.6-4.88,0-.42-.28-.56-1.25-.56-2,0-3.9.28-6,.28-2.37,0-4.6-.28-7-.28-.56,0-.7.14-.7.7,0,1.39,5.16.14,5.16,4.74v32.75c0,6.27-4.88,4.18-4.88,6,0,.69.14,1,1.26,1s2.23-.14,6.13-.14c2.79,0,5.58.14,7,.14,1.12,0,1.26-.14,1.26-.56C277.61,347.39,272,348.92,272,344.46Z"/><path class="a" d="M174.62,340.83c-.83,0-3.07,6.55-17.84,6.55-5.3,0-4.74-1.53-4.74-5.3V330.38c0-1-.28-2.09,1.12-2.09h9.48c5.3,0,3.21,5.57,5.16,5.57.42,0,.7-.28.7-.84,0-1.67-.14-3.34-.14-5,0-2.09.14-4.19.14-6.41,0-.56-.28-1.25-.7-1.25-1.53,0,.14,5.16-6.55,5.16h-6.83c-2.51,0-2.37,0-2.37-2.23V311.43c0-4.32-.14-4,6-4,2.51,0,9.2-.42,10.87,1.81,1,1.4,0,4.46,1.53,4.46.28,0,1.25-.42,1.25-7.52,0-.84-.14-1.4-.7-1.4-2,0-7.8.28-9.06.28-2.79,0-6.13-.28-18.12-.28-1.3,0-1.88.15-2.1.38a1.12,1.12,0,0,0-1-.38c-1,0-1.81.28-4.88.28-1.53,0-2.93-.28-4.32-.28-.56,0-1,.14-1,.84,0,1.39,4.18.28,4.18,3.2.28,1.26-.56,3.35-1,4.32l-11,27.31c-.42.84-.56,1.81-1.25,1.81s-1-1.39-2.51-4.88l-11.15-26.2a7.35,7.35,0,0,1-.56-2.51c0-2.37,2.65-2.37,2.51-3.35,0-.28-.42-.56-.84-.56-.84,0-3.35.28-5,.28-2,0-3.9-.28-5.85-.28-.56,0-1,.28-1,.84,0,1.39,3.48.28,5,4L117.9,347c.56,1.26,1.25,4,2.37,4s1.39-2.09,2.09-3.76l15.89-37.63c1.62-3.85,3.23-2.94,3.56-3.69a4,4,0,0,0,1.74.62c3.35.42,3.35,3.48,3.35,6.41v29.13c0,3.07-.14,4.74-1.81,5.57-2,1-2.65.84-2.79,1.67,0,.42.42.56,1,.56,2.65,0,5.29-.14,7.8-.14,4.88-.14,9.75.14,14.63.14,2.79,0,4.18.14,6.27-2.09,1.39-1.68,3.07-3.9,3.07-6.27C175,341.39,175,340.83,174.62,340.83Z"/><path class="a" d="M220.33,304.74c-1.53,0-4.32.28-6.55.28-2,0-3.9-.28-5.71-.28-.42,0-.7.14-.7.56,0,2.23,7.11-.28,7.11,8.08v26.76c0,.42-.14.7-.28.7s-.42-.28-.7-.7l-30.52-34c-.42-.42-1-1.4-1.67-1.4-1,0-2,.28-2.93.28s-2-.28-3.07-.28c-.28,0-.84.28-.84.56,0,2.37,7.67-1.26,7.67,12v23.55c0,8.92-5.58,6.13-5.58,8.37,0,.42,0,.7.84.7.42,0,3.76-.14,6-.14,3.07,0,4.88.14,6.41.14.7,0,.7-.42.7-.84,0-1.67-5.57.56-5.57-5.16V317.7c0-1.26.14-1.39.42-1.39s1.25,1.11,1.39,1.11l27.46,30.94c1.25,1.54,2,1.81,2.37,1.81s.56-.84.56-2.78V310.45c0-4.6,3.76-3.48,3.76-5.15A.51.51,0,0,0,220.33,304.74Z"/><path class="a" d="M261.31,306.55c-.14-1.39-.42-1.81-2-1.81-1.25,0-7.11.28-18.67.28-8.22,0-13.1-.28-18.12-.28-1.11,0-1.11,1.67-1.11,2.51l-.7,6.13c0,.28.14.84.56.84.84,0,.84-.84,1.11-1.53,1.12-3.49,1.25-4.46,5.3-4.46h10.17c1,0,.83,2.51.83,2.93v33.17c0,3.9-5,3.21-5,4.73,0,.7.14.84.7.84s1.67-.14,8.78-.14c1.81,0,3.63.14,5.16.14.7,0,.56-.56.56-.7,0-2-5.16.14-5.16-5.3V311.29c0-2.93.14-3.06,2.51-3.06h9.2c6.55,0,3.06,4.88,5.43,4.88.83,0,.7-.83.7-1.4Z"/><path class="a" d="M78.46,304.74c-5.58,0-9.62.28-13.94.28-1.81,0-3.76-.28-5.71-.28-.42,0-.84.14-.84.56,0,1.81,5.16-.28,5.16,6.27v31.77c0,2.79-1.11,4.46-2.51,4.46-1.67,0-2.93-.7-4.32-2.65-2-3.07-2.93-6.55-4.18-9.62L34.56,291.91c-.28-.69-.84-3.21-1.81-3.21s-1.39,1.39-6.41,12.13L6.13,343.9C3.9,348.78,0,347.39,0,349.05c0,.56.28,1,.7,1,2.23,0,4.6-.28,6.83-.28s4.74.28,7.11.28c1.11,0,2.23.28,2.23-1.25,0-2.23-6,.28-6-5.58a7.48,7.48,0,0,1,.7-2.93l5.3-11.85c.84-1.81,2.37-1.81,4-1.81H39.58c2.37,0,2.79,1.25,3.63,3.2l2.79,7c.84,2.23,2.51,6.13,2.51,7.94,0,3.21-5,2.37-5,4.46,0,.83,1.39.83,1.81.83,2.37,0,4.6-.28,7-.28,2.79,0,4.88.14,8.36.14,2,0,5.44-.14,5.85-.14,3.21,0,6.41.14,9.75.14,17.7,0,24.67-10.17,24.67-24.81C100.9,313.24,89.75,304.74,78.46,304.74ZM38.19,321.35H21.46c-1.12,0-1.67-.28-1.12-1.53L30,299.33c.56-1.12,1-1.12,1.39,0l8.22,20.35C40,320.79,40.14,321.35,38.19,321.35Zm40.28,26.88c-2.93,0-7.8-.84-9.9-2.93-.56-.56-.42-3.62-.42-4.6V310.31c0-2.93.28-4,6.41-4,12.13.14,21.6,8.09,21.6,22.3C96.16,343.34,87.52,348.22,78.46,348.22Z"/><path class="a" d="M383.23,340.8c-.83,0-3,6.57-17.74,6.57-5.36,0-4.85-1.53-4.85-5.3V330.34c0-1-.19-2,1.15-2h9.44c5.36,0,3.19,5.62,5.17,5.62.45,0,.7-.25.7-.83,0-1.72-.13-3.38-.13-5,0-2,.13-4.21.13-6.45,0-.51-.19-1.21-.7-1.21-1.53,0,.19,5.1-6.45,5.1h-6.89c-2.55,0-2.42,0-2.42-2.17V311.45c0-4.28-.13-4,6-4,2.55,0,9.19-.38,10.85,1.79,1,1.47,0,4.53,1.53,4.53.38,0,1.28-.51,1.28-7.59,0-.77-.13-1.4-.64-1.4-2,0-7.85.26-9.13.26-2.68,0-6-.26-18.06-.26a5.34,5.34,0,0,0-1.83.2,2.73,2.73,0,0,0-1.26-.21c-1.25,0-7.11.28-18.68.28-8.22,0-15.33-.28-20.35-.28-1.25,0-1.39,1.67-2.37,1.67s-3.07-2.23-10.73-2.23c-7.39,0-14.21,3.9-14.21,12,0,16.59,25.92,9.76,25.92,22,0,6.83-5.85,10.18-12,10.18a13.59,13.59,0,0,1-13.38-9.62c-.42-1.25-.42-2.09-1.25-2.09s-1,.7-.7,1.95l1.53,8.22c.28,1.26,6.13,3.63,10.87,3.63,14.49,0,18.25-8.08,18.25-13.52,0-17.56-25.92-10.59-25.92-22.58,0-5.85,5.3-8.36,10.45-8.36,5.57,0,10,1.95,12,7.38.28.56.7,2,1.39,2,1.26,0,.7-2.79.7-3.48,0-2.23-.14-3.62,3.76-3.62h13.24c1,0,.84,2.51.84,2.93v33.17c0,3.9-5,3.21-5,4.73,0,.7.14.84.7.84s1.67-.14,8.78-.14c1.81,0,3.62.14,5.16.14.7,0,.55-.56.55-.7,0-2-5.15.14-5.15-5.3V311.29c0-2.93,0-3.06,2.51-3.06h9.2c6.55,0,3.07,4.88,5.44,4.88.84,0,.7-.83.7-1.4l-.28-5.15c0-.07,0-.13,0-.2.33.08.65.13.84.18,3.44.51,3.44,3.57,3.44,6.45v29.1c0,3-.13,4.79-1.78,5.55-2,1-2.68.89-2.81,1.66,0,.51.38.64,1,.64,2.55,0,5.23-.19,7.79-.25,4.85-.13,9.7.25,14.55.25,2.81,0,4.21.13,6.26-2.17,1.53-1.66,3.19-3.89,3.19-6.19C383.74,341.44,383.67,340.8,383.23,340.8Z"/><path class="a" d="M428.88,304.75c-1.53,0-4.28.26-6.45.26s-3.89-.26-5.81-.26a.62.62,0,0,0-.7.64c0,2.11,7.08-.32,7.08,8V340.1c0,.51-.06.7-.19.7s-.38-.26-.76-.7l-30.44-33.89c-.38-.44-1-1.47-1.66-1.47-1,0-2,.26-2.93.26s-2-.26-3-.26c-.32,0-1,.26-1,.64,0,2.36,7.72-1.34,7.72,11.94v23.55c0,8.93-5.62,6.13-5.62,8.36,0,.32.06.7.83.7.45,0,3.76-.25,6-.25,3.13,0,4.91.25,6.44.25.64,0,.7-.51.7-.83,0-1.73-5.61.51-5.61-5.23v-26.1c0-1.28.19-1.47.45-1.47.45,0,1.21,1.08,1.34,1.21l27.44,30.89c1.34,1.46,2,1.79,2.42,1.79s.57-.9.57-2.75V310.49c0-4.66,3.77-3.51,3.77-5.17C429.52,304.94,429.26,304.75,428.88,304.75Z"/><path class="a" d="M45.36,288.59c.24,1.07,5.65,3.27,10.05,3.27,13.5,0,17-7.49,17-12.49,0-16.42-24.15-9.87-24.15-21.06,0-5.47,5-7.73,9.7-7.73,5.23,0,9.58,2.62,11.36,7.73.18.54.6,1.78,1.25,1.78s.71-.42.65-.89l-.89-8.09c-.06-.66-.36-.83-.71-.83-.59,0-.71.65-1.25.65-.83,0-2.8-2.14-10-2.14-6.84,0-13.21,3.63-13.21,11.19,0,15.53,24.15,9.1,24.15,20.58,0,6.25-5.53,9.4-11.18,9.4A12.71,12.71,0,0,1,45.66,281c-.3-1.25-.3-2-1.13-2-.6,0-.89.65-.65,1.84Z"/><path class="a" d="M89,260.36c2.47.37,2.47,2.55,2.47,4.61v20.81c0,2.15-.09,3.42-1.28,4-1.46.73-1.92.63-2,1.19,0,.37.27.45.69.45,1.83,0,3.74-.13,5.57-.18,3.47-.09,6.94.18,10.41.18,2,0,3,.1,4.47-1.55,1.09-1.19,2.28-2.79,2.28-4.43,0-.09,0-.54-.37-.54-.59,0-2.15,4.7-12.69,4.7-3.83,0-3.47-1.1-3.47-3.79v-8.4c0-.68-.14-1.46.82-1.46h6.75c3.83,0,2.28,4,3.7,4,.32,0,.5-.18.5-.6,0-1.23-.09-2.42-.09-3.6,0-1.46.09-3,.09-4.61,0-.37-.14-.87-.5-.87-1.1,0,.14,3.65-4.61,3.65H96.83c-1.83,0-1.73,0-1.73-1.55v-8.49c0-3.06-.09-2.87,4.29-2.87,1.83,0,6.57-.27,7.76,1.28.73,1,0,3.24,1.1,3.24.27,0,.91-.37.91-5.44,0-.55-.09-1-.46-1-1.42,0-5.62.18-6.53.18-1.92,0-4.29-.18-12.92-.18-1.32,0-1.6.18-1.6.54C87.65,260.17,88.65,260.26,89,260.36Z"/><path class="a" d="M139.73,289.75c-1.46.73-1.92.63-2,1.19,0,.37.27.45.68.45,1.83,0,3.74-.13,5.57-.18,3.47-.09,6.94.18,10.41.18,2,0,3,.1,4.47-1.55,1.1-1.19,2.28-2.79,2.28-4.43,0-.09,0-.54-.37-.54-.59,0-2.14,4.7-12.69,4.7-3.83,0-3.47-1.1-3.47-3.79v-8.4c0-.68-.14-1.46.82-1.46h6.76c3.83,0,2.28,4,3.7,4,.32,0,.5-.18.5-.6,0-1.23-.09-2.42-.09-3.6,0-1.46.09-3,.09-4.61,0-.37-.14-.87-.5-.87-1.1,0,.14,3.65-4.61,3.65h-4.93c-1.83,0-1.74,0-1.74-1.55v-8.49c0-3.06-.09-2.87,4.29-2.87,1.83,0,6.57-.27,7.76,1.28.73,1,0,3.24,1.09,3.24.27,0,.91-.37.91-5.44,0-.55-.09-1-.46-1-1.41,0-5.61.18-6.53.18-1.92,0-4.29-.18-12.92-.18-1.32,0-1.6.18-1.6.54,0,.55,1,.64,1.37.73,2.47.37,2.47,2.55,2.47,4.61v20.81C141,287.93,140.91,289.2,139.73,289.75Z"/><path class="a" d="M225.57,289.75c-1.46.73-1.92.63-2,1.19,0,.37.27.45.68.45,1.83,0,3.74-.13,5.57-.18,3.47-.09,6.94.18,10.41.18,2,0,3,.1,4.47-1.55,1.09-1.19,2.28-2.79,2.28-4.43,0-.09,0-.54-.36-.54-.6,0-2.15,4.7-12.69,4.7-3.83,0-3.47-1.1-3.47-3.79v-8.4c0-.68-.14-1.46.82-1.46H238c3.83,0,2.28,4,3.69,4,.32,0,.5-.18.5-.6,0-1.23-.09-2.42-.09-3.6,0-1.46.09-3,.09-4.61,0-.37-.14-.87-.5-.87-1.09,0,.14,3.65-4.61,3.65h-4.93c-1.83,0-1.73,0-1.73-1.55v-8.49c0-3.06-.09-2.87,4.29-2.87,1.83,0,6.57-.27,7.76,1.28.73,1,0,3.24,1.1,3.24.28,0,.91-.37.91-5.44,0-.55-.09-1-.46-1-1.41,0-5.61.18-6.53.18-1.92,0-4.29-.18-12.92-.18-1.32,0-1.6.18-1.6.54,0,.55,1,.64,1.37.73,2.47.37,2.47,2.55,2.47,4.61v20.81C226.85,287.93,226.76,289.2,225.57,289.75Z"/><path class="a" d="M211.89,261.59h6.53c4.66,0,2.19,3.47,3.88,3.47.59,0,.55-.54.5-1l-.23-3.65c0-1-.27-1.32-1.32-1.32s-5.11.18-13.37.18c-5.89,0-9.41-.18-13-.18-.82,0-.78,1.23-.82,1.78l-.5,4.43c0,.23.18.55.46.55.59,0,.64-.59.78-1,.82-2.51.91-3.2,3.74-3.2H206c.64,0,.46,1.78.46,2.1v23.74c0,2.74-3.61,2.28-3.61,3.38,0,.46.14.59.55.59a61.68,61.68,0,0,1,6.25-.18c1.32,0,2.6.18,3.7.18.46,0,.41-.41.41-.54,0-1.42-3.7.09-3.7-3.74V263.82C210.06,261.4,209.84,261.59,211.89,261.59Z"/><path class="a" d="M308.26,252.65h8.49c6.05,0,2.85,4.51,5,4.51.77,0,.71-.71.65-1.3l-.3-4.75c-.06-1.37-.36-1.72-1.72-1.72-1.19,0-6.65.24-17.39.24-7.66,0-12.23-.24-16.86-.24-1.07,0-1,1.6-1.07,2.31l-.65,5.76c0,.29.24.71.59.71.77,0,.83-.77,1-1.37,1.07-3.27,1.19-4.15,4.87-4.15h9.67c.83.06.6,2.31.6,2.73v30.86c0,3.56-4.69,3-4.69,4.4,0,.59.18.77.71.77a78.82,78.82,0,0,1,8.13-.24c1.72,0,3.38.24,4.8.24.59,0,.54-.54.54-.72,0-1.84-4.81.12-4.81-4.86V255.56C305.89,252.41,305.59,252.65,308.26,252.65Z"/><path class="a" d="M77.83,263v23.37c0,4.52-3.56,3-3.56,4.34,0,.46.14.68,1,.68.64,0,1.6-.18,4.38-.18,2,0,3.93.18,5,.18.78,0,.91-.13.91-.45,0-1.37-4.06-.32-4.06-3.43V263c0-3.42,3.29-2.37,3.29-3.47,0-.37-.14-.46-.87-.46-1.42,0-2.83.18-4.25.18-1.69,0-3.33-.18-5-.18-.36,0-.45.09-.45.5C74.13,260.58,77.78,259.67,77.83,263Z"/><path class="a" d="M329.57,258.35c-.59,0-.73.73-3.42,6.48l-10.91,23.28c-1.19,2.6-3.34,1.83-3.34,2.79,0,.27.14.5.41.5,1.19,0,2.42-.18,3.65-.18s2.56.18,3.83.18c.6,0,1.23.14,1.23-.68,0-1.19-3.24.18-3.24-3a4.77,4.77,0,0,1,.32-1.6l2.92-6.39c.46-1,1.28-1,2.14-1h10c1.28,0,1.55.69,2,1.73l1.46,3.74c.46,1.23,1.41,3.33,1.41,4.34,0,1.73-2.74,1.28-2.74,2.37,0,.45.73.45,1,.45,1.24,0,2.47-.18,3.7-.18,1.87,0,3.74.18,5.61.18.32,0,.64,0,.64-.41,0-1.14-2.65-.14-4-2.24a28.91,28.91,0,0,1-2.28-5.2L330.53,260C330.39,259.67,330.07,258.35,329.57,258.35Zm3,18.4h-9c-.6,0-.91-.18-.6-.82l5.16-11.1c.27-.55.5-.55.73,0l4.47,11C333.5,276.42,333.54,276.74,332.54,276.74Z"/><path class="a" d="M168.46,267.39c.3,0,.9.79,1,.79l19.62,22.11c.9,1.1,1.39,1.3,1.69,1.3s.4-.6.4-2V263.2c0-3.29,2.69-2.49,2.69-3.68a.37.37,0,0,0-.4-.4c-1.1,0-3.09.2-4.68.2-1.39,0-2.79-.2-4.08-.2-.3,0-.5.1-.5.4,0,1.59,5.08-.2,5.08,5.77v19.13c0,.3-.1.5-.2.5s-.3-.2-.5-.5l-21.81-24.3c-.3-.3-.7-1-1.2-1-.7,0-1.4.2-2.09.2s-1.4-.2-2.19-.2c-.2,0-.6.2-.6.4,0,1.69,5.48-.9,5.48,8.56v16.83c0,6.37-4,4.38-4,6,0,.3,0,.5.6.5.3,0,2.69-.1,4.28-.1,2.19,0,3.49.1,4.58.1.5,0,.5-.3.5-.6,0-1.19-4,.4-4-3.69V268.39C168.16,267.49,168.26,267.39,168.46,267.39Z"/><path class="a" d="M279.3,259.12c-1.1,0-3.09.2-4.68.2-1.39,0-2.79-.2-4.09-.2-.3,0-.5.1-.5.4,0,1.59,5.08-.2,5.08,5.77v19.13c0,.3-.1.5-.2.5s-.3-.2-.5-.5l-21.81-24.3c-.3-.3-.7-1-1.2-1-.7,0-1.39.2-2.09.2s-1.39-.2-2.19-.2c-.2,0-.6.2-.6.4,0,1.69,5.48-.9,5.48,8.56v16.83c0,6.37-4,4.38-4,6,0,.3,0,.5.6.5.3,0,2.69-.1,4.28-.1,2.19,0,3.49.1,4.58.1.5,0,.5-.3.5-.6,0-1.19-4,.4-4-3.69V268.39c0-.9.1-1,.3-1s.9.79,1,.79l19.62,22.11c.89,1.1,1.39,1.3,1.7,1.3s.4-.6.4-2V263.2c0-3.29,2.69-2.49,2.69-3.68A.37.37,0,0,0,279.3,259.12Z"/><path class="a" d="M116,263.71v22.41c0,3.55-1.59,3.78-2.09,3.91-.82.27-1.37.41-1.37.87s.91.5,1.14.5c2.09,0,4.23-.18,6.33-.18,1.55,0,4.28.18,5.92.18,8.88,0,11.06-6.65,11.06-9.65,0-7.55-7.15-7.7-7.15-8.37,0-.32,4.28-1.82,4.28-6.47,0-3.37-2-7.74-10-7.74-3.64,0-5.46.18-7.29.18s-2.73-.18-3.64-.18c-.55,0-1.23,0-1.23.64C112,260.71,116,260.25,116,263.71Zm17.53,19.72c0,2.73-1.64,6.74-7.7,6.74-6.47,0-6.24-1-6.24-4.24v-10.2c0-.41-.23-1,3.28-1C133.36,274.69,133.54,280.52,133.54,283.43Zm-11.29-22.77c4.6,0,8.74,2.78,8.74,7.7,0,2.14-.37,4.92-7.83,4.92-4.1,0-3.55-.23-3.55-1.68v-7.52C119.6,261.43,119.38,260.66,122.24,260.66Z"/><path class="a" d="M359.83,291.7c8.1,0,9.33-3.1,14-4.6v-9.29c0-3.05,2.32-2,2.32-3,0-.59-.87-.41-1.23-.41h-7.61c-.41,0-1-.09-1,.5,0,1.14,4,.18,4,2.32v7.06c0,3.87-5.32,5.92-9.47,5.92-8.79,0-13.43-7.7-13.43-15.76,0-7.51,4.09-14.43,12.29-14.43,10.74,0,12.79,8.79,14,8.79.46,0,.5-.46.5-.82l-.45-6c0-.37.14-1-.5-1s-.68.82-1.18.82c-1.28,0-3.55-3.1-11.43-3.1-9.65,0-17,6.79-17,16.62C343.52,285.46,349.76,291.7,359.83,291.7Z"/><path class="a" d="M378.61,289.19c.19.82,4.32,2.51,7.7,2.51,10.33,0,13-5.74,13-9.56,0-12.57-18.49-7.56-18.49-16.12,0-4.19,3.83-5.92,7.42-5.92A8.69,8.69,0,0,1,397,266c.14.41.45,1.37,1,1.37s.55-.32.5-.68l-.68-6.2c0-.5-.28-.63-.55-.63-.46,0-.55.5-1,.5-.64,0-2.14-1.64-7.65-1.64-5.24,0-10.11,2.78-10.11,8.56,0,11.88,18.49,7,18.49,15.75,0,4.78-4.23,7.2-8.56,7.2a9.72,9.72,0,0,1-9.56-6.83c-.23-1-.23-1.5-.86-1.5-.46,0-.68.5-.5,1.41Z"/><path class="a" d="M295.79,273.61a8.68,8.68,0,0,0-2,.72l-9.28,3.19c-1.74.58-1.59.58-1.59,2.9,0,.44-.14,1.31.58,1.31a12,12,0,0,0,2-.73l9.27-3.19c1.74-.58,1.59-.58,1.59-2.76C296.37,274.62,296.52,273.61,295.79,273.61Z"/><path class="a" d="M443.61,314.54h-.2c-.42,0-.91-.42-1.43-1.19l-.21-.3-1.7-2.48a2.43,2.43,0,0,0,1.5-2.2q0-2.25-3-2.25l-.9,0c-.46,0-.79,0-1,0h-.56l-.46,0c-.19,0-.3.07-.3.21s.1.21.28.25l.3,0c.42.07.63.39.63,1v5.15a4.37,4.37,0,0,1-.13,1.36.83.83,0,0,1-.63.43q-.24.06-.24.22c0,.14.09.21.29.21l.32,0a4.28,4.28,0,0,1,.53,0h.95a6.38,6.38,0,0,1,.8,0l.39,0c.21,0,.31-.07.31-.21s-.12-.21-.33-.23a1.47,1.47,0,0,1-.89-.3,1.58,1.58,0,0,1-.2-1v-2.21l0-.13h.94a.48.48,0,0,1,.44.21l.08.14,1.59,2.39a2.5,2.5,0,0,0,2,1.35c.65,0,1-.1,1-.31S443.75,314.55,443.61,314.54Zm-4.83-4.25h-.71c-.17,0-.27,0-.3-.05a.51.51,0,0,1-.05-.3v-2.52l0-.21c0-.31.2-.46.59-.46a2.25,2.25,0,0,1,1.54.55,1.77,1.77,0,0,1,.62,1.38A1.46,1.46,0,0,1,438.78,310.29Z"/><path class="a" d="M444.5,305.22a7.59,7.59,0,0,0-13,5.37,7.41,7.41,0,0,0,1.82,4.91,7.19,7.19,0,0,0,5.78,2.68,7.59,7.59,0,0,0,5.37-13Zm-.6,10.15a6.77,6.77,0,1,1,2-4.78A6.5,6.5,0,0,1,443.89,315.37Z"/><path class="a" d="M326.73,180.13a7.6,7.6,0,1,0-7.59-7.59,7.44,7.44,0,0,0,1.81,4.91A7.2,7.2,0,0,0,326.73,180.13ZM322,167.77a6.77,6.77,0,1,1-2,4.78A6.52,6.52,0,0,1,322,167.77Z"/><path class="a" d="M323.22,168.56l.29,0c.43.06.63.4.63,1l0,.65v4.5a4.41,4.41,0,0,1-.13,1.36.83.83,0,0,1-.63.43c-.16,0-.24.11-.24.21s.09.21.29.21l.32,0a4.42,4.42,0,0,1,.53,0h.95a6.68,6.68,0,0,1,.81,0l.39,0c.21,0,.3-.07.3-.21s-.12-.21-.32-.23a1.44,1.44,0,0,1-.89-.3,1.57,1.57,0,0,1-.2-1V173l0-.13h.94a.47.47,0,0,1,.43.21l.08.14,1.59,2.39a2.5,2.5,0,0,0,2,1.35c.65,0,1-.1,1-.31s-.06-.18-.19-.19H331c-.42,0-.91-.42-1.43-1.19l-.21-.3-1.7-2.47a2.43,2.43,0,0,0,1.5-2.21c0-1.5-1-2.24-3-2.24l-.91,0-1,0h-.56l-.46,0c-.2,0-.29.07-.29.21S323,168.52,323.22,168.56Zm2.68.14a2.23,2.23,0,0,1,1.54.55,1.77,1.77,0,0,1,.62,1.38,1.45,1.45,0,0,1-1.67,1.62h-.71c-.17,0-.27,0-.3-.05a.54.54,0,0,1-.05-.31v-2.52l0-.21C325.31,168.85,325.51,168.7,325.9,168.7Z"/><path class="a" d="M131.78,240.88a1.5,1.5,0,0,1-1.31.89c-.29,0-.44.13-.44.28s.17.36.5.36l.91-.08.83,0,1.08,0h1.21c.87,0,1.47,0,1.8,0l.82.06c.25,0,.37-.09.36-.29s-.16-.27-.45-.32a3.67,3.67,0,0,1-2.15-.83,3.86,3.86,0,0,1-.47-2.3v-5.55c0-.23.09-.35.27-.35a.54.54,0,0,1,.36.17l.3.33,8.14,8.38.26.29a1.18,1.18,0,0,0,.89.41l.7,0c.27,0,.71,0,1.31,0a11.53,11.53,0,0,1,1.3,0l.36,0c.31,0,.47-.09.47-.34s-.12-.25-.35-.3l-.67-.14a5.22,5.22,0,0,1-2.74-1.62l-7.9-8.26c-.25-.27-.37-.49-.36-.63a.92.92,0,0,1,.35-.49l5.18-4.69q3.86-3.48,5.23-3.83c.5-.12.74-.26.73-.41s-.17-.3-.44-.3l-.47.05a11.4,11.4,0,0,1-1.26,0H145l-1.4,0q-.79,0-1.43,0l-.41,0c-.31,0-.47.11-.47.31s.23.31.7.38q1.09.2,1.09.89t-1.5,2.13l-6.5,5.82-.23.18-.24.17c-.09,0-.14-.11-.14-.32V225a5.59,5.59,0,0,1,.25-2.07,2.24,2.24,0,0,1,1.21-.93c.24-.1.36-.21.36-.35s-.12-.29-.36-.28l-.73.06h-.79l-1.14,0-.56,0a20.92,20.92,0,0,1-2.42-.1,3.4,3.4,0,0,0-.55-.05c-.27,0-.41.1-.41.31s.13.25.39.31l.74.15a1.85,1.85,0,0,1,1.33.86,5.2,5.2,0,0,1,.35,2.27v12.91A7,7,0,0,1,131.78,240.88Z"/><path class="a" d="M155.79,222.31l.79-.3c.26-.09.39-.22.39-.4s-.14-.28-.41-.28l-.38,0-1,.08c-.54,0-1.18.05-1.92.05a25,25,0,0,1-2.94-.13l-.27,0c-.3,0-.45.11-.44.32s.17.3.48.36a2.61,2.61,0,0,1,1.84.88,5.06,5.06,0,0,1,.43,2.54v13a6.09,6.09,0,0,1-.33,2.53,2,2,0,0,1-1.48.8c-.31.05-.47.16-.47.34s.14.31.41.31a7,7,0,0,0,.73,0l1.79-.1,2.2,0a13,13,0,0,1,1.61.07,4.2,4.2,0,0,0,.58,0c.31,0,.47-.12.47-.36s-.25-.3-.76-.37a3.24,3.24,0,0,1-1.4-.46,2.35,2.35,0,0,1-.75-1.09,9.64,9.64,0,0,1-.26-2.81V225.94Q154.66,222.73,155.79,222.31Z"/><path class="a" d="M174.11,226.54a4.54,4.54,0,0,0-1.77-3.9,8.78,8.78,0,0,0-5.26-1.31q-.92,0-2.14.08-1.68.11-2.38.11t-1.35,0l-1.06-.06c-.34,0-.52.1-.52.31s.16.3.49.36l.71.11q1.65.27,1.65,2.64l0,1.58v10.9a10.16,10.16,0,0,1-.38,3.44,2,2,0,0,1-1.59,1.1c-.25,0-.38.15-.38.29s.13.31.38.31.42,0,.82-.06a12.15,12.15,0,0,1,1.24-.07l.79,0,1.45,0q1.3,0,1.92.07c.45,0,.75.07.89.07.35,0,.52-.1.5-.3s-.2-.3-.56-.34a3.85,3.85,0,0,1-2-.65,1.63,1.63,0,0,1-.61-.86,8.07,8.07,0,0,1-.13-1.79l0-.61v-4.74c0-.25.06-.41.18-.49l.33-.06h2a1.26,1.26,0,0,1,1.18.62l.21.33,3.77,5.76a8.94,8.94,0,0,0,2.21,2.45,4.19,4.19,0,0,0,2.45.75,5.47,5.47,0,0,0,1.49-.19c.44-.12.66-.26.67-.41s-.08-.21-.26-.22l-.49,0q-1.64-.11-3.58-2.95l-.48-.73-4.18-6.17Q174.1,230,174.11,226.54Zm-3.35,3.86a4.33,4.33,0,0,1-3.13,1.1h-1.72a1.35,1.35,0,0,1-.89-.19,1.39,1.39,0,0,1-.19-.9v-6.67a1.37,1.37,0,0,1,.34-1.07,1.93,1.93,0,0,1,1.24-.29,5.62,5.62,0,0,1,3.95,1.42,4.7,4.7,0,0,1,1.55,3.63A4,4,0,0,1,170.75,230.4Z"/><path class="a" d="M189.66,222q4.85,0,7.69,5,.36.65.55.63a.28.28,0,0,0,.23-.15l0-.15,0-.38-.48-3.64c-.05-.39-.16-.58-.32-.58a1.07,1.07,0,0,0-.45.24.46.46,0,0,1-.23.12l-.26-.09-.24-.11-.61-.32a12.24,12.24,0,0,0-5.88-1.44,10.47,10.47,0,0,0-7.76,3.13,10.71,10.71,0,0,0-3.09,7.85,10.12,10.12,0,0,0,3,7.62,10.82,10.82,0,0,0,7.87,2.89,14.08,14.08,0,0,0,7.71-2.23c.43-.28.67-.56.71-.82l.06-.28.35-1.86.06-.33v-.17c0-.2-.08-.3-.24-.29s-.34.29-.61.82a7,7,0,0,1-3,2.95,9.15,9.15,0,0,1-4.47,1.21,7.89,7.89,0,0,1-6.38-3,11.75,11.75,0,0,1-2.48-7.74,9.11,9.11,0,0,1,2.23-6.49A8,8,0,0,1,189.66,222Z"/><path class="a" d="M206.18,222.66a2.37,2.37,0,0,1,1.36-.74c.27-.07.41-.18.41-.34s-.15-.31-.44-.31a4.84,4.84,0,0,0-.64.06,15.55,15.55,0,0,1-2,.12,24.79,24.79,0,0,1-2.77-.14l-.91-.09c-.26,0-.39.09-.39.29s.15.29.44.33a2.84,2.84,0,0,1,1.79.79,3,3,0,0,1,.5,1.91v13a12.42,12.42,0,0,1-.24,3,1.26,1.26,0,0,1-.91,1l-.76.18c-.26.06-.39.18-.39.35s.13.28.38.28l1-.07c.38,0,.7-.05,1-.05l1,0h1.27a14.06,14.06,0,0,1,1.82.07,7.31,7.31,0,0,0,.74.07q.45,0,.44-.31c0-.22-.2-.35-.58-.38a2.66,2.66,0,0,1-1.86-.79,3.68,3.68,0,0,1-.5-2.21v-5.56c0-.47.07-.77.21-.88a2,2,0,0,1,1.08-.18H216a1.84,1.84,0,0,1,.91.12c.09.08.14.36.14.84v6.16q0,2.32-1.59,2.6c-.33,0-.5.16-.51.34s.11.3.36.3l1-.08c.3,0,.54,0,.73,0l1.14,0,1.12,0a11.57,11.57,0,0,1,1.51.06,5.1,5.1,0,0,0,.79.08c.3,0,.45-.12.42-.36s-.17-.26-.49-.3a2.37,2.37,0,0,1-1.74-.76,4,4,0,0,1-.45-2.24V224.11a2.75,2.75,0,0,1,.32-1.34,1.18,1.18,0,0,1,.79-.68l.62-.14q.36-.07.36-.31c0-.2-.12-.29-.36-.29a4.92,4.92,0,0,0-.56.06,19,19,0,0,1-2.27.09,20.26,20.26,0,0,1-2.12-.11q-.71-.08-1-.08c-.24,0-.37.08-.38.25s.14.29.44.36a2.2,2.2,0,0,1,1.48.9,4.49,4.49,0,0,1,.4,2.22v5.18c0,.29-.06.47-.18.55a1.85,1.85,0,0,1-.85.12h-8.94a2.11,2.11,0,0,1-1.11-.17c-.12-.11-.17-.46-.17-1v-5.43A2.81,2.81,0,0,1,206.18,222.66Z"/><path class="a" d="M238.3,225.52a.35.35,0,0,0,.34-.23,6.08,6.08,0,0,0,.16-1.1l.06-.89c.05-.66.09-1.07.12-1.21a1.73,1.73,0,0,0,0-.35c0-.29-.17-.44-.5-.44a4.44,4.44,0,0,0-.61.06c-.13,0-.5,0-1.09.06l-2.15.11q-1.42.06-3.27.06a47.72,47.72,0,0,1-5.21-.24,9,9,0,0,0-1-.08c-.45,0-.68.14-.68.42s.15.28.44.28a2,2,0,0,1,1.86.75,6.06,6.06,0,0,1,.48,2.92v12.82l0,1q0,1.82-1.09,2.13l-.58.17c-.26.07-.39.19-.39.36s.16.33.48.33a5.11,5.11,0,0,0,.79-.11,26.18,26.18,0,0,1,3.74-.18q1.89,0,4.79.28c.49,0,.89.06,1.18.06a4.17,4.17,0,0,0,3.37-1.63,4,4,0,0,0,1.11-2.34c0-.27-.09-.4-.28-.39s-.23.1-.34.27q-1.7,2.68-7.64,2.68a5.06,5.06,0,0,1-2.34-.32c-.31-.21-.46-.75-.46-1.61v-5.59l0-.5a.66.66,0,0,1,.25-.61,2.17,2.17,0,0,1,1-.15h3.34a3.48,3.48,0,0,1,1.85.36,2,2,0,0,1,.72,1.38l.09.42a.36.36,0,0,0,.39.33c.2,0,.29-.12.29-.38,0-.09,0-.24,0-.44q-.09-.91-.09-1.83,0-1.21.14-2.67c0-.15,0-.26,0-.33,0-.26-.1-.4-.29-.41s-.33.11-.39.36a3.08,3.08,0,0,1-.44,1.27,2,2,0,0,1-1.06.44,13.67,13.67,0,0,1-2.52.18h-2.33c-.43,0-.69,0-.78-.14a1.61,1.61,0,0,1-.13-.85v-6.11a1.41,1.41,0,0,1,.27-1,2,2,0,0,1,1.21-.24h2.37a15,15,0,0,1,3.22.23,1.59,1.59,0,0,1,1.16.91,2.39,2.39,0,0,1,.18.92v.39C238,225.38,238.1,225.53,238.3,225.52Z"/><path class="a" d="M252.87,241a1.86,1.86,0,0,1-1.33.76c-.28.06-.42.17-.42.34s.17.36.53.34.5,0,.86-.09a20.65,20.65,0,0,1,2.82-.17q1.5,0,3.53.14c.67.05,1.13.08,1.39.08a11.27,11.27,0,0,0,6.09-1.74,9.5,9.5,0,0,0,3.46-3.77,11.26,11.26,0,0,0,1.24-5.26,9.9,9.9,0,0,0-2.83-7.29q-3.11-3.12-9.32-3.12c-.73,0-1.39,0-2,.08l-1.41.14q-.85.08-2.38.08l-1.06,0-1.2-.06c-.26,0-.39.1-.39.3s.17.28.5.31a2.26,2.26,0,0,1,1.71.83,3.87,3.87,0,0,1,.52,2.25v13.66A5.34,5.34,0,0,1,252.87,241Zm2.62-17.09a1.52,1.52,0,0,1,.39-1.24,5.67,5.67,0,0,1,3-.51,9.55,9.55,0,0,1,5.71,1.68,9.14,9.14,0,0,1,3,3.75,12.4,12.4,0,0,1,1.1,5.23q0,5.24-3.51,7.41a8.6,8.6,0,0,1-4.66,1.3,12.23,12.23,0,0,1-2.11-.23,11.82,11.82,0,0,1-2-.53,1.27,1.27,0,0,1-.92-1.27Z"/><path class="a" d="M276.17,239.46q0,1.82-1.09,2.13l-.57.17c-.26.07-.4.19-.4.36s.16.33.48.33a5.08,5.08,0,0,0,.79-.11,26.19,26.19,0,0,1,3.74-.18q1.89,0,4.79.28c.5,0,.89.06,1.18.06a4.17,4.17,0,0,0,3.36-1.63,4,4,0,0,0,1.11-2.34c0-.27-.09-.4-.28-.39s-.23.1-.34.27q-1.7,2.68-7.64,2.68a5.07,5.07,0,0,1-2.34-.32c-.31-.21-.46-.75-.46-1.61v-5.59l0-.5a.66.66,0,0,1,.25-.61,2.17,2.17,0,0,1,1-.15h3.34a3.47,3.47,0,0,1,1.84.36,2,2,0,0,1,.73,1.38l.09.42a.36.36,0,0,0,.39.33c.2,0,.29-.12.29-.38,0-.09,0-.24,0-.44-.06-.61-.09-1.21-.09-1.83,0-.8,0-1.7.14-2.67,0-.15,0-.26,0-.33,0-.26-.1-.4-.3-.41s-.33.11-.39.36a3,3,0,0,1-.44,1.27,2,2,0,0,1-1.06.44,13.69,13.69,0,0,1-2.52.18h-2.33c-.44,0-.7,0-.78-.14a1.6,1.6,0,0,1-.13-.85v-6.11a1.4,1.4,0,0,1,.27-1,2,2,0,0,1,1.21-.24h2.37a15,15,0,0,1,3.22.23,1.6,1.6,0,0,1,1.17.91,2.39,2.39,0,0,1,.18.92v.39c0,.31.1.46.29.46a.35.35,0,0,0,.34-.23,6.28,6.28,0,0,0,.16-1.1l.06-.89c0-.66.09-1.07.12-1.21a1.86,1.86,0,0,0,0-.35c0-.29-.16-.44-.5-.44a4.5,4.5,0,0,0-.61.06c-.13,0-.49,0-1.09.06l-2.15.11q-1.43.06-3.27.06a47.69,47.69,0,0,1-5.21-.24,9,9,0,0,0-1-.08c-.45,0-.68.14-.68.42s.15.28.44.28a2,2,0,0,1,1.86.75,6.06,6.06,0,0,1,.48,2.92v12.82Z"/><path class="a" d="M305.92,226.54a4.55,4.55,0,0,0-1.77-3.9,8.79,8.79,0,0,0-5.26-1.31q-.92,0-2.13.08c-1.12.07-1.92.11-2.38.11s-1,0-1.35,0L292,221.4c-.34,0-.52.1-.52.31s.16.3.48.36l.71.11q1.65.27,1.65,2.64l0,1.58v10.9a10.18,10.18,0,0,1-.38,3.44,2,2,0,0,1-1.59,1.1c-.25,0-.38.15-.38.29s.13.31.38.31.42,0,.82-.06a12.12,12.12,0,0,1,1.24-.07l.79,0,1.46,0q1.3,0,1.92.07c.46,0,.75.07.9.07.35,0,.52-.1.5-.3s-.2-.3-.56-.34a3.84,3.84,0,0,1-2-.65,1.62,1.62,0,0,1-.61-.86,7.93,7.93,0,0,1-.13-1.79v-5.35c0-.25.06-.41.18-.49l.33-.06h2a1.26,1.26,0,0,1,1.18.62l.21.33,3.77,5.76a9,9,0,0,0,2.21,2.45,4.19,4.19,0,0,0,2.45.75,5.47,5.47,0,0,0,1.49-.19c.44-.12.66-.26.67-.41s-.08-.21-.26-.22l-.48,0q-1.64-.11-3.58-2.95l-.49-.73-4.18-6.17Q305.92,230,305.92,226.54Zm-3.35,3.86a4.33,4.33,0,0,1-3.13,1.1h-1.72a1.35,1.35,0,0,1-.89-.19,1.41,1.41,0,0,1-.19-.9v-6.67a1.38,1.38,0,0,1,.34-1.07,1.94,1.94,0,0,1,1.24-.29,5.62,5.62,0,0,1,3.95,1.42,4.7,4.7,0,0,1,1.55,3.63A4,4,0,0,1,302.57,230.4Z"/></svg>