<svg xmlns="http://www.w3.org/2000/svg" viewBox="0 0 1061.9 228.6"><title>Seventh Day Adventists</title><path d="M67.7,120.4c-.1-9.9,2.8-18.4,20.8-36.4l39-39c10.4-10.4,19.1-19.3,19.1-29V.7c0-.9-1.1-.9-1.2,0-2.6,12.4-7.5,17.3-17.8,27.6L82.3,73.5c-17.1,17-19.5,35.1-15.8,46.9C66.8,121.4,67.7,121.5,67.7,120.4Zm64.2,38.9c0,.9,1,.9,1.2,0,2.6-12.5,7.6-17.4,17.8-27.6L166,116.8c19.8-19.9,10.7-39-.9-44.3-1-.5-1.4.3-.6,1,9.3,8,6.5,21.5-5.2,33.2L151,115c-10.4,10.3-19.1,19.2-19.1,29Zm81.8,26.6L168,178.2l-17.1,17.1c-10.4,10.4-19,19.3-19,29V227c0,.7.9.9,1.2.1,3.2-8.7,13.9-18.1,33.5-14.8,0,0,85.4,14.8,86.1,14.8a.89.89,0,0,0,1-.6.79.79,0,0,0-.2-.8c-.3-.4-39.8-39.8-39.8-39.8Zm-107.5,1h15a.65.65,0,0,0,.6-.6c0-7.9-6-13.3-30-9.2L40,186S.6,225.4.3,225.8a.79.79,0,0,0-.1,1.1.79.79,0,0,0,.8.2c.7-.1,86.1-14.8,86.1-14.8,19.6-3.3,30.3,6,33.5,14.8.3.8,1.2.7,1.2-.1V197.5a.65.65,0,0,0-.6-.6l-15,.1a.65.65,0,0,1-.6-.6v-8.9a.65.65,0,0,1,.6-.6ZM133,212.8a36.32,36.32,0,0,1,6.9-15.8h-7.5a.65.65,0,0,0-.6.6v15.2c0,.9,1.1.9,1.2,0ZM146.6,54.2c0-.9-1.1-.9-1.2,0-2.6,12.4-7.5,17.3-17.8,27.6L87.8,121.5c-19.8,19.8-10.7,39,.9,44.3,1,.5,1.4-.4.6-1-9.3-8-6.5-21.6,5.2-33.2l33-33c10.4-10.4,19.1-19.3,19.1-29ZM127.5,71.7c10.4-10.3,19-19.2,19.1-29V27.3c0-.9-1.1-.9-1.2,0-2.6,12.4-7.5,17.4-17.8,27.7L86.7,95.8c-19.8,19.8-23.3,39-13.2,51.4.7.8,1.4.3,1-.7-6.7-15.1,9.3-31.1,16.9-38.7Zm37.6,82.5-14.3,14.2c-6.5,6.5-12.3,12.4-15.8,18.4h14.1l1.7-1.7,20.5-20.5c17.1-16.9,19.5-35,15.8-46.8-.3-1-1.2-1.1-1.2,0,.1,9.9-2.8,18.4-20.8,36.4Zm-2.8-24-11.4,11.5c-10.4,10.4-19.1,19.4-19.1,29.1v15.3c0,.9,1.1.9,1.2,0,2.6-12.4,7.5-17.4,17.8-27.7L167,142.2c19.8-19.8,23.3-39,13.2-51.4-.7-.8-1.4-.3-1,.7,6.7,15.1-9.3,31.1-16.9,38.7Zm168.3-11.9a45.13,45.13,0,0,1-16.5-2.9l-2.7,7.1c4.3,2.1,11.1,3.3,18.8,3.3,15,0,24.4-7,24.4-19.2,0-10.7-6.6-15.2-18.7-19.7C324.8,82.8,321,80,321,73.1c0-6,4.4-10,12.9-10a41.15,41.15,0,0,1,16.2,3.6l2.8-7.4a44.86,44.86,0,0,0-18.8-3.8c-12.9,0-21.8,6.6-21.8,17.4,0,10.6,5.9,16.1,17.6,20.3,12.4,4.5,16.1,7.3,16.1,14.1s-5.3,11-15.4,11Zm75.5,4.2-2.4-6.3a39.92,39.92,0,0,1-14.1,2.5c-10.3,0-16.1-6.2-16.4-17.8h35.1V95.8c0-14-8.1-23.2-21.1-23.2-13.6,0-22.7,10.1-22.7,27,0,17.1,10,26.2,24.7,26.2A37.94,37.94,0,0,0,406.1,122.5ZM387,79.4c8.6,0,12.4,6,12.5,14.7H373.3C374.2,84.9,379,79.5,387,79.4Zm53.3,45.4,19.5-51.3h-9l-10.9,30.3c-1.4,4.1-3.6,10.4-4.3,13.6h-.4a105.87,105.87,0,0,0-4.1-13.6L420.2,73.5h-9l19.4,51.3Zm49.6,1a37.94,37.94,0,0,0,16.9-3.3l-2.4-6.3a39.92,39.92,0,0,1-14.1,2.5c-10.3,0-16.1-6.2-16.4-17.8H509V95.8c0-14-8-23.2-21.1-23.2-13.6,0-22.7,10.1-22.7,27,0,17.1,10,26.2,24.7,26.2Zm-2.3-46.4c8.6,0,12.4,6,12.5,14.7H474C474.9,84.9,479.7,79.5,487.6,79.4ZM557,92v32.9h8.4V91.5c0-13.3-6.4-18.9-18.6-19-6.5,0-12.9,2.6-16.2,8h-.5l-1.2-7h-6.8v51.3h8.4V98.2c0-12,3.6-18.6,15-18.6,7.9,0,11.5,4.2,11.5,12.4Zm44.6,25.7a16.25,16.25,0,0,1-5.8,1.2c-4.7,0-8-3-8-9.2V80h14.9V73.5H587.9V61.7l-8.4,3.2v45c0,12.5,7,15.9,15,15.9,3.9,0,7.6-.9,9.4-2.1Zm55.1,7.2V91.5c0-13.1-6.3-18.8-18.8-18.8-6.6,0-12.7,2.7-16,8h-.6a57.81,57.81,0,0,0,.5-7.2l.1-21.5-8.4,3.2v69.6h8.4V98.3c0-12,3.5-18.7,15-18.7,7.9,0,11.5,4.2,11.5,12.4v32.9Zm10.8-29.4,2.9,7.5h23.2l-2.9-7.5Zm70.1-22.9c0,1.9.4,6,.6,7.6h-.6c-3.2-4.3-7.9-7.6-15.9-7.6-12.8,0-21.2,9.1-21.2,26.7s8.4,26.5,21.1,26.5c8,0,12.9-3.4,16-7.8h.4l1.2,6.8H746V52l-8.4,3.3V72.6Zm.1,28.3c0,12-4,17.9-14.7,17.9-9.2,0-13.7-7.2-13.7-19.3s4.5-19.9,13.6-19.9c11.3,0,14.8,7.1,14.8,19.8v1.5Zm37.1,24.9c8.6,0,12.7-2.5,17.2-8.2h.4l1.6,7.3h6.1v-35c0-12-5.9-17.2-18.4-17.3A38.27,38.27,0,0,0,764.2,77l2.6,6.3c4.3-2,9.1-3.9,14.5-3.9,6.7,0,10.6,2.9,10.6,11.4v3.1l-8.7.3c-16.8.5-24.6,6.2-24.6,16.4,0,10.4,6.9,15.2,16.2,15.2Zm9.4-25.7,7.5-.4v4.6c0,10-6.5,14.7-15.1,14.7-5.6,0-9.4-2.5-9.4-8.3C767.2,104.2,771.4,100.6,784.2,100.1ZM826,131.9c-2.1,5.6-3.8,7.4-7.7,9.2l2.6,6.8c6.8-2.7,10.1-6.2,13.7-15.9l22.1-58.5h-9.1l-10.4,29.1c-1.8,5.3-3.6,10.9-4.4,14.1h-.4a83.56,83.56,0,0,0-4.3-14L817,73.5h-9l20.7,51.6ZM333.3,159.1l-26.7,68.6h8.7l8.1-21.2h27.1l8.2,21.3h8.9L341,159.1Zm-7.1,39.7,7.8-20.7c.8-2.2,2-6.3,3-10.2.7,2.3,2.7,8.7,3.3,10.2l7.5,20.7Zm83.9-23.5c0,2,.4,6,.6,7.6h-.6c-3.2-4.2-7.9-7.6-15.9-7.6-12.8,0-21.2,9.1-21.2,26.7s8.4,26.6,21.1,26.5c8,0,12.9-3.5,16-7.9h.4l1.2,6.9h6.8V154.7l-8.4,3.3Zm.1,28.3c0,12-4,17.9-14.8,18-9.2,0-13.7-7.3-13.7-19.4s4.5-19.9,13.6-19.9c11.4,0,14.9,7.1,14.9,19.8Zm45.2,2.8c-1.4,4.1-3.6,10.4-4.3,13.6h-.4a105.87,105.87,0,0,0-4.1-13.6l-10.9-30.2h-9l19.4,51.2h9.7l19.5-51.3h-9Zm47.9-31c-13.6,0-22.7,10.1-22.7,27,0,17.1,10,26.2,24.7,26.2a39.3,39.3,0,0,0,16.9-3.4l-2.4-6.3a39.92,39.92,0,0,1-14.1,2.5c-10.3,0-16.1-6.2-16.4-17.8h35.2v-5.1c0-14-8.1-23.2-21.2-23.1Zm-13.8,21.4c.9-9.1,5.7-14.6,13.7-14.6,8.6,0,12.4,5.9,12.5,14.6Zm72.8-21.5c-6.5,0-12.9,2.6-16.2,8h-.5l-1.2-7h-6.8v51.3H546V201c0-12,3.6-18.6,15-18.6,7.9,0,11.5,4.2,11.5,12.4v32.8h8.3V194.2C580.8,180.9,574.5,175.3,562.3,175.3Zm48.9,46.3c-4.7,0-8-3-8-9.2V182.7h14.9v-6.5H603.3V164.4l-8.4,3.2v45c0,12.5,7,15.9,15,15.9a20.15,20.15,0,0,0,9.4-2.1l-2.3-6a14.28,14.28,0,0,1-5.8,1.2Zm17.6-45.3h8.4v51.3h-8.4Zm4.3-19.3c-2.8,0-5,1.7-5,5.4s2.2,5.4,5,5.4c2.6,0,4.9-1.8,4.9-5.4C638,158.6,635.7,157,633.1,157Zm38.4,41.2c-9.9-3.8-13.2-5.5-13.2-9.8,0-3.8,3.7-6.2,10.6-6.2a37.56,37.56,0,0,1,14.4,3.4l2.6-6.8a40.3,40.3,0,0,0-16.4-3.5c-11.4,0-19.2,4.9-19.2,13.6,0,8.4,5.9,11.4,15.9,15.3s12.6,6.2,12.6,10c0,4.6-3.7,7.6-12.2,7.6a38.49,38.49,0,0,1-13.8-3l-2.5,6.5c3.9,2.2,8.9,3.3,16.1,3.3,12.6,0,20.5-5.2,20.5-15.2,0-8.2-5.5-11.4-15.4-15.2Zm42.2,23.5c-4.7,0-8-3-8-9.2V182.8h14.8v-6.5H705.7V164.5l-8.4,3.1v45c0,12.5,7,15.9,15,15.9a20.15,20.15,0,0,0,9.4-2.1l-2.3-6A16.49,16.49,0,0,1,713.7,221.7Zm72.8-.7c-15.8,0-23.6-10.6-23.6-27.6,0-17.2,9-27.6,23.6-27.5a36.09,36.09,0,0,1,15.5,3.7l2.9-7.6c-5.2-2.6-11.3-3.7-18.3-3.7-21.1,0-32.8,14.4-32.8,35.1,0,21.5,10.4,35.2,31.4,35.2,8.7,0,13.7-.9,21.4-4.4l-2.5-6.6c-4.4,2.1-11.7,3.4-17.6,3.4Zm54.6-45.7c-6.6,0-12.7,2.7-16,8h-.6a57.81,57.81,0,0,0,.5-7.2l.1-21.4-8.4,3.2v69.6h8.4V201c0-12,3.5-18.7,15-18.7,7.9,0,11.5,4.2,11.5,12.4v32.8h8.3V194.1c0-13.2-6.3-18.8-18.8-18.8Zm69.1,1V203c0,12-3.7,18.6-15.1,18.6-7.8,0-11.4-4.1-11.4-12.3v-33h-8.5v33.6c0,13.1,6.3,18.7,18.7,18.7,6.6,0,13-2.4,16.3-7.8h.4l1.2,6.8h6.8V176.3Zm48.8-.9c-7.2,0-12.5,4.7-15.7,10.3h-.4l-1-9.4H935v51.3h8.4V200.2c0-10.3,6.9-17.2,14.9-17.2a34,34,0,0,1,5.6.7l1-7.8a22.94,22.94,0,0,0-5.9-.5Zm34.5,7.3a35.58,35.58,0,0,1,11.1,2.4l2.7-7a33.5,33.5,0,0,0-13.6-2.8c-13.8,0-24,7.9-24,26.9,0,18.2,9.8,26.4,23.5,26.4,5.9,0,11-1.3,13.9-3.1l-2.6-6.7a26.57,26.57,0,0,1-11.4,2.5c-9.7,0-14.7-6.8-14.7-19.2,0-12.8,4.9-19.4,15.1-19.4Zm49.6-7.4c-6.6,0-12.7,2.7-16,8h-.6a57.81,57.81,0,0,0,.5-7.2l.1-21.4-8.4,3.2v69.6h8.4V201c0-12,3.5-18.7,15-18.7,7.9,0,11.5,4.2,11.5,12.4v32.8h8.3V194.1C1061.9,180.9,1055.5,175.3,1043.1,175.3ZM245.8,198.4h1.1l1.7,3h1.5l-2-3.3a2,2,0,0,0,1.3-2c0-1.5-.8-2.2-2.7-2.2h-2.2v7.5h1.3v-3Zm0-3.5h.8c1,0,1.4.3,1.4,1.2,0,.7-.5,1.2-1.4,1.2h-.9v-2.4Zm1,9a6.3,6.3,0,1,0-6.3-6.3,6.09,6.09,0,0,0,5.87,6.3Zm0-11.7a5.4,5.4,0,0,1,0,10.8,5.32,5.32,0,0,1-5.4-5.24v-.16a5.26,5.26,0,0,1,5.12-5.4Z"/></svg>
