<svg viewBox="0 0 621 147" xmlns="http://www.w3.org/2000/svg" xmlns:xlink="http://www.w3.org/1999/xlink">
    <defs>
        <path id="a" d="M0 180h900V0H0z"></path>
    </defs>
    <g transform="translate(-1 -17)" fill="#fff" fill-rule="evenodd">
        <path d="M181.68 90l1.68-4.477h3.02V54.469h-4.7v-4.42h14.43l-1.67 4.42h-3.03v31.054h4.7V90zm36.25-20.423c0-4.364-2.07-6.546-6.155-6.546-4.084 0-6.155 2.238-6.155 6.602 0 4.141 2.071 6.211 6.211 6.211 4.085 0 6.099-2.126 6.099-6.267zm3.357 24.004c0-1.623-.447-2.685-1.342-3.245-.952-.559-2.743-.839-5.428-.839h-5.148c-4.196 0-6.267 1.79-6.267 5.427 0 3.134 2.462 4.756 7.386 4.756 7.218 0 10.799-2.014 10.799-6.099zm-22.885 1.511c0-3.86 2.182-6.323 6.547-7.386-1.735-.839-2.63-2.294-2.63-4.196 0-2.071 1.231-3.805 3.637-5.26-3.413-1.399-5.204-4.98-5.204-8.449 0-6.995 4.365-10.351 11.191-10.351 1.567 0 2.91.168 4.085.559h10.351l-1.455 3.805h-3.916c1.174 1.567 1.79 3.525 1.79 5.819 0 6.211-4.532 9.624-11.023 9.624-1.007 0-1.79-.056-2.35-.168-1.847 1.008-2.742 2.238-2.742 3.637 0 1.511 1.511 2.294 4.421 2.294h5.092c6.043 0 9.792 2.742 9.792 8.114 0 6.882-5.148 10.295-15.444 10.295-6.994 0-12.142-2.406-12.142-8.337zM231.14 90V49.377l4.92-1.902V90zm16.84-17.961h15.275c-.056-5.092-2.294-8.561-7.274-8.561-4.7 0-7.498 3.189-8.001 8.561m20.423.952v2.965h-20.535c.168 6.771 3.581 10.407 9.568 10.407 2.91 0 5.876-.559 8.226-1.454l1.398 3.692c-3.077 1.343-5.763 1.959-9.848 1.959-8.561 0-14.436-5.315-14.436-15.332 0-9.847 5.316-15.778 13.261-15.778 7.666 0 12.366 5.371 12.366 13.541M282.44 90.56c-4.197 0-7.106-.671-9.4-1.902l1.454-3.806c1.959.84 5.204 1.735 8.058 1.735 4.98 0 7.106-1.735 7.106-4.42 0-2.238-1.511-3.581-7.386-5.819-5.819-2.239-9.289-4.029-9.289-8.953 0-5.092 4.533-7.945 11.248-7.945 3.636 0 6.77.783 9.567 2.014l-1.51 3.972c-2.574-1.119-5.484-1.958-8.393-1.958-4.029 0-6.211 1.399-6.211 3.637 0 2.518 1.958 3.526 7.721 5.708 5.708 2.126 9.009 4.084 9.009 8.896 0 5.82-4.644 8.841-11.974 8.841"></path>
        <path d="M300.4 90h4.924V60.009H300.4V90zm5.371-38.104c0 2.125-1.343 3.133-2.854 3.133-1.622 0-2.909-1.008-2.909-3.133 0-2.183 1.287-3.134 2.909-3.134 1.511 0 2.854.951 2.854 3.134zm20.759 23.612c-7.498.28-9.904 2.406-9.904 6.211 0 3.357 2.238 4.868 5.484 4.868 5.035 0 8.84-2.742 8.84-8.561V75.34l-4.42.168zm9.288-5.931V90h-3.581l-.951-4.252h-.224c-2.63 3.301-5.036 4.812-10.072 4.812-5.427 0-9.456-2.798-9.456-8.897 0-5.987 4.588-9.288 14.38-9.568l5.092-.168v-1.791c0-4.98-2.294-6.658-6.211-6.658-3.133 0-5.987 1.119-8.449 2.294l-1.511-3.693c2.63-1.399 6.323-2.574 10.24-2.574 7.274 0 10.743 3.078 10.743 10.072zm36.542-8.505c-.335-.895-1.511-4.588-1.902-5.987-.56 2.294-1.287 4.7-1.735 5.987l-4.532 12.086h12.646l-4.477-12.086zm5.987 16.562h-15.835L357.756 90h-5.092l15.612-40.119h4.532L388.363 90h-5.204l-4.812-12.366zm32.673-1.622v-.896c0-7.441-2.014-11.582-8.673-11.582-5.315 0-7.945 4.532-7.945 11.639 0 7.162 2.63 11.302 8.001 11.302 6.323 0 8.617-3.469 8.617-10.463m-21.71-.952c0-10.295 4.924-15.61 12.366-15.61 4.644 0 7.442 1.958 9.288 4.42h.336c-.112-.951-.336-3.301-.336-4.42V49.378l4.924-1.903V90h-3.972l-.728-4.029h-.224c-1.791 2.575-4.644 4.589-9.344 4.589-7.442 0-12.31-5.204-12.31-15.5m30.66-15.051h5.26l6.379 17.681c.895 2.463 2.07 6.099 2.405 7.946h.224c.392-1.847 1.679-5.54 2.518-7.946l6.379-17.681h5.26L436.98 90h-5.651L419.97 60.009zm35.42 12.03h15.275c-.055-5.092-2.294-8.561-7.274-8.561-4.7 0-7.497 3.189-8.001 8.561m20.423.952v2.965h-20.535c.168 6.771 3.581 10.407 9.568 10.407 2.91 0 5.875-.559 8.226-1.454l1.398 3.692c-3.077 1.343-5.763 1.959-9.848 1.959-8.56 0-14.436-5.315-14.436-15.332 0-9.847 5.316-15.778 13.262-15.778 7.665 0 12.365 5.371 12.365 13.541m30.597-2.519V90h-4.867V70.807c0-4.812-2.127-7.217-6.715-7.217-6.658 0-8.785 3.861-8.785 10.855V90h-4.924V60.009h3.973l.727 4.084h.28c1.958-3.133 5.652-4.644 9.457-4.644 7.162 0 10.854 3.301 10.854 11.023m20.03 15.331l1.343 3.525c-1.063.672-3.19 1.231-5.484 1.231-4.7 0-8.784-2.014-8.784-9.288V54.972l4.924-1.846v6.883h8.673v3.804h-8.673v17.346c0 3.637 1.958 5.372 4.7 5.372 1.119 0 2.63-.392 3.301-.728M533.32 90h4.924V60.009h-4.924V90zm5.372-38.104c0 2.125-1.342 3.133-2.853 3.133-1.623 0-2.91-1.008-2.91-3.133 0-2.183 1.287-3.134 2.91-3.134 1.511 0 2.853.951 2.853 3.134zM554.19 90.56c-4.196 0-7.105-.671-9.4-1.902l1.455-3.806c1.959.84 5.204 1.735 8.057 1.735 4.98 0 7.107-1.735 7.107-4.42 0-2.238-1.511-3.581-7.387-5.819-5.818-2.239-9.288-4.029-9.288-8.953 0-5.092 4.532-7.945 11.247-7.945 3.637 0 6.771.783 9.568 2.014l-1.51 3.972c-2.575-1.119-5.485-1.958-8.394-1.958-4.028 0-6.211 1.399-6.211 3.637 0 2.518 1.958 3.526 7.722 5.708 5.707 2.126 9.009 4.084 9.009 8.896 0 5.82-4.645 8.841-11.975 8.841m30.94-4.757l1.343 3.525c-1.063.672-3.19 1.231-5.484 1.231-4.7 0-8.784-2.014-8.784-9.288V54.972l4.924-1.846v6.883h8.673v3.804h-8.673v17.346c0 3.637 1.958 5.372 4.7 5.372 1.119 0 2.63-.392 3.301-.728m18.58-10.295c-7.498.28-9.903 2.406-9.903 6.211 0 3.357 2.238 4.868 5.483 4.868 5.036 0 8.841-2.742 8.841-8.561V75.34l-4.421.168zm9.289-5.931V90h-3.581l-.952-4.252h-.224c-2.63 3.301-5.035 4.812-10.071 4.812-5.428 0-9.456-2.798-9.456-8.897 0-5.987 4.588-9.288 14.38-9.568l5.092-.168v-1.791c0-4.98-2.294-6.658-6.211-6.658-3.134 0-5.988 1.119-8.45 2.294l-1.51-3.693c2.63-1.399 6.323-2.574 10.24-2.574 7.273 0 10.743 3.078 10.743 10.072zm4.751-17.961c.504 0 .839-.28.839-.728 0-.447-.279-.671-.839-.671h-.504v1.399h.504zm-1.287-2.07h1.287c1.119 0 1.623.447 1.623 1.342 0 .616-.392.952-.784 1.12l1.176 1.958h-.896l-1.007-1.735h-.616v1.735h-.783v-4.42zm4.532 2.237c0-1.734-1.287-3.188-3.133-3.188s-3.133 1.342-3.133 3.188c0 1.735 1.287 3.134 3.133 3.134 1.735 0 3.133-1.287 3.133-3.134zm-6.826 0c0-2.182 1.511-3.748 3.693-3.748 2.071 0 3.693 1.566 3.693 3.748 0 2.127-1.567 3.694-3.693 3.694-2.182 0-3.693-1.567-3.693-3.694zM203.11 135.99v-.896c0-7.441-2.014-11.582-8.673-11.582-5.315 0-7.945 4.533-7.945 11.638 0 7.162 2.63 11.303 8.001 11.303 6.323 0 8.617-3.469 8.617-10.463m-21.71-.951c0-10.296 4.924-15.611 12.366-15.611 4.644 0 7.442 1.958 9.288 4.419h.336c-.112-.951-.336-3.3-.336-4.419v-10.073l4.924-1.902v42.525h-3.972l-.728-4.028h-.224c-1.791 2.573-4.644 4.588-9.344 4.588-7.442 0-12.31-5.204-12.31-15.499m37.37-3.019h15.275c-.056-5.092-2.294-8.562-7.274-8.562-4.7 0-7.498 3.19-8.001 8.562m20.423.951v2.965h-20.535c.168 6.771 3.581 10.408 9.568 10.408 2.91 0 5.876-.559 8.226-1.455l1.398 3.693c-3.077 1.343-5.763 1.959-9.848 1.959-8.561 0-14.436-5.316-14.436-15.332 0-9.848 5.316-15.779 13.261-15.779 7.666 0 12.366 5.371 12.366 13.541m5.377 17.009v-40.62l4.92-1.91v42.53zm36.37.56c-4.477 0-8.449-.672-10.967-1.902l1.567-4.141c1.734.783 5.371 1.679 9.624 1.679 5.931 0 9.008-2.462 9.008-6.435 0-3.917-2.182-5.596-9.4-8.225-6.827-2.462-10.295-5.652-10.295-11.863 0-6.322 5.203-10.183 12.757-10.183 4.364 0 8.001.895 11.023 2.238l-1.623 4.309c-2.798-1.175-6.043-2.126-9.512-2.126-4.98 0-7.554 2.349-7.554 5.818 0 4.029 2.238 5.651 8.729 8.058 7.05 2.629 10.911 5.259 10.911 11.526 0 7.106-5.539 11.247-14.268 11.247m38.49-42.86c-1.399 2.07-5.372 6.378-8.001 8.393h-3.246v-.671c1.623-2.071 4.029-5.764 5.316-8.282h5.931v.56zm-15.555 24.34h15.275c-.056-5.092-2.294-8.562-7.274-8.562-4.7 0-7.498 3.19-8.001 8.562zm20.423.951v2.965h-20.535c.168 6.77 3.581 10.408 9.568 10.408 2.91 0 5.875-.56 8.225-1.455l1.399 3.693c-3.077 1.343-5.763 1.958-9.848 1.958-8.561 0-14.436-5.315-14.436-15.331 0-9.848 5.316-15.779 13.261-15.779 7.666 0 12.366 5.371 12.366 13.541zm10.292 1.009v.951c0 7.386 2.014 11.527 8.561 11.527 5.427 0 8.001-4.869 8.001-11.582 0-6.827-2.574-11.303-8.113-11.303-6.099 0-8.337 3.413-8.449 10.407m21.654.951c0 10.239-4.924 15.611-12.366 15.611-4.644 0-7.554-2.014-9.288-4.364h-.336c.112 1.287.336 3.526.336 4.924v12.31h-4.924v-43.42h4.028l.672 4.085h.224c1.791-2.575 4.476-4.645 9.344-4.645 7.386 0 12.31 5.148 12.31 15.499m18.016 10.849l1.343 3.524c-1.063.672-3.189 1.232-5.484 1.232-4.699 0-8.784-2.015-8.784-9.288v-26.299l4.924-1.847v6.883h8.673v3.805h-8.673v17.345c0 3.637 1.958 5.373 4.7 5.373 1.119 0 2.63-.392 3.301-.728m6.88 4.2h4.924v-29.991h-4.924v29.991zm5.372-38.105c0 2.126-1.343 3.133-2.854 3.133-1.622 0-2.909-1.007-2.909-3.133 0-2.183 1.287-3.134 2.909-3.134 1.511 0 2.854.951 2.854 3.134zm50.978 18.575v19.528h-4.868v-19.303c0-4.701-1.958-7.107-6.099-7.107-5.819 0-8.113 3.469-8.113 9.848v16.562h-4.868v-19.303c0-4.701-1.959-7.107-6.155-7.107-6.043 0-8.001 3.861-8.001 10.855v15.555h-4.924v-29.991h3.972l.727 4.085h.28c1.847-3.134 5.26-4.644 8.841-4.644 4.588 0 7.722 1.623 9.177 5.036h.28c2.014-3.413 5.707-5.036 9.624-5.036 6.77 0 10.127 3.3 10.127 11.022m19.24 16c6.044 0 8.785-4.42 8.785-11.526 0-7.107-2.741-11.359-8.841-11.359-6.098 0-8.728 4.252-8.728 11.359 0 7.106 2.685 11.526 8.784 11.526m-.111 4.085c-7.946 0-13.765-5.651-13.765-15.611 0-9.904 5.315-15.499 13.933-15.499 8.113 0 13.82 5.595 13.82 15.499 0 9.96-5.428 15.611-13.988 15.611m46.331-36.195h-6.546v31.334h5.427c10.8 0 16.226-5.371 16.226-15.891 0-10.631-5.483-15.443-15.107-15.443m-.447 35.643h-11.135v-39.952h12.31c12.03 0 19.696 6.771 19.696 19.584 0 13.485-7.722 20.368-20.871 20.368m26.797-.003h4.924v-29.991H529.3v29.991zm10.351-42.3c-1.398 2.07-5.371 6.378-8.001 8.392h-3.245v-.671c1.622-2.07 4.029-5.763 5.316-8.281h5.93v.56zm14.659 27.81c-7.498.28-9.903 2.406-9.903 6.211 0 3.357 2.238 4.868 5.483 4.868 5.036 0 8.841-2.742 8.841-8.561v-2.686l-4.421.168zm9.289-5.931v20.423h-3.581l-.952-4.253h-.224c-2.63 3.302-5.035 4.813-10.071 4.813-5.428 0-9.456-2.798-9.456-8.897 0-5.987 4.588-9.289 14.38-9.568l5.092-.168v-1.79c0-4.981-2.294-6.659-6.211-6.659-3.134 0-5.988 1.119-8.45 2.294l-1.51-3.693c2.63-1.399 6.323-2.574 10.24-2.574 7.273 0 10.743 3.078 10.743 10.072z" mask="url(#b)"></path>
        <path d="M78.11 141.31c0 .542.62.543.732 0 .824-3.997 2.076-6.662 4.033-9.249l-4.401.003c-.201 0-.364.163-.364.364v8.882zm32.32-55.485c-.181-.584-.687-.623-.682-.011.05 5.779-1.612 10.746-12.16 21.294l-8.344 8.337c-3.797 3.797-7.211 7.264-9.229 10.729h8.24c.315-.317.639-.64.974-.975l11.97-11.982c9.969-9.969 11.359-20.514 9.231-27.392zm-11.187 35.25l-9.999 10.007c-6.052 6.052-11.134 11.267-11.134 16.97l.006 1.588c0 .431.536.5.701.048 1.869-5.106 8.112-10.556 19.564-8.624 0 0 49.891 8.621 50.31 8.658.487.043.728-.436.414-.81-.189-.225-23.221-23.255-23.221-23.255l-26.641-4.582zM63.15 132.061c-.201 0-.364-.163-.364-.364v-5.162c0-.201.163-.364.364-.364l8.732.002c.201 0 .364-.162.364-.363-.023-4.638-3.518-7.788-17.523-5.351l-30.24 5.198s-23.032 23.03-23.221 23.255c-.314.374-.073.853.414.81.42-.037 50.31-8.658 50.31-8.658 11.452-1.932 17.696 3.518 19.564 8.624.165.452.702.383.702-.048 0-.311.001-17.215.001-17.215 0-.201-.163-.364-.364-.364H63.15zM49.211 59.909c-9.969 9.969-11.359 20.514-9.23 27.393.18.584.686.623.681.01-.05-5.779 1.613-10.745 12.161-21.294l22.74-22.733c6.052-6.053 11.134-11.267 11.134-16.971v-8.895c0-.541-.62-.543-.732 0-1.496 7.259-4.399 10.124-10.387 16.111L49.211 59.909zm37.508-17.973v-8.955c0-.542-.62-.544-.732 0-1.496 7.259-4.392 10.168-10.38 16.156L51.724 73c-11.591 11.59-13.596 22.808-7.701 30.016.393.481.816.193.559-.387-3.897-8.818 5.449-18.168 9.899-22.618l21.104-21.104c6.052-6.053 11.134-11.267 11.134-16.971zm-34.34 46.045c-11.591 11.591-6.261 22.786.5 25.868.593.27.829-.211.375-.604-5.422-4.697-3.775-12.598 3.043-19.414L75.56 74.565c6.053-6.052 11.134-11.267 11.134-16.97V48.7c0-.541-.62-.543-.731 0-1.497 7.259-4.394 10.111-10.381 16.099L52.379 87.981zm25.71 28.812v8.955c0 .542.62.544.731 0 1.496-7.258 4.393-10.167 10.38-16.156l9.487-9.466c11.59-11.59 13.595-22.807 7.7-30.016-.393-.48-.816-.193-.559.387 3.897 8.818-5.448 18.168-9.898 22.618l-6.708 6.708c-6.052 6.052-11.133 11.267-11.133 16.97zm11.137-22.862c-5.988 5.987-8.886 8.839-10.381 16.099-.112.543-.732.541-.732 0v-8.896c0-5.703 5.081-10.918 11.134-16.97l4.867-4.868c6.818-6.818 8.464-14.717 3.042-19.414-.453-.393-.217-.875.376-.604 6.761 3.081 12.09 14.276.499 25.867l-8.805 8.786zm56.204 38.799c.525 0 .839-.293.839-.718 0-.473-.263-.677-.849-.677h-.495v1.395h.505zm-1.272-2.041h1.293c1.1 0 1.595.436 1.595 1.305 0 .634-.384.989-.788 1.15l1.172 1.96h-.868l-1.011-1.748h-.626v1.748h-.767v-4.415zm4.515 2.202c0-1.747-1.304-3.172-3.132-3.172s-3.141 1.324-3.141 3.172c0 1.748 1.313 3.172 3.141 3.172 1.728 0 3.132-1.322 3.132-3.172zm-6.839 0c0-2.15 1.556-3.707 3.707-3.707 2.051 0 3.707 1.557 3.707 3.707 0 2.152-1.555 3.707-3.707 3.707-2.151 0-3.707-1.555-3.707-3.707z"></path>
    </g>
</svg>