<svg viewBox="0 0 612 134" xmlns="http://www.w3.org/2000/svg" xmlns:xlink="http://www.w3.org/1999/xlink">
  <defs>
    <path id="a" d="M0 180h900V0H0z"/>
  </defs>
  <g fill="#fff" fill-rule="evenodd">
    <g transform="translate(-1 -17)">
      <path d="M193.8208 90.5596c-4.477 0-8.449-.671-10.967-1.902l1.567-4.141c1.734.783 5.371 1.679 9.624 1.679 5.931 0 9.008-2.462 9.008-6.435 0-3.917-2.182-5.596-9.4-8.225-6.827-2.462-10.295-5.652-10.295-11.863 0-6.322 5.203-10.183 12.757-10.183 4.364 0 8.001.895 11.023 2.238l-1.623 4.309c-2.798-1.176-6.043-2.127-9.512-2.127-4.98 0-7.554 2.35-7.554 5.819 0 4.029 2.238 5.652 8.729 8.058 7.05 2.629 10.911 5.259 10.911 11.526 0 7.106-5.539 11.247-14.268 11.247zm24.6172-18.521h15.275c-.056-5.092-2.294-8.561-7.274-8.561-4.7 0-7.498 3.189-8.001 8.561m20.423.952v2.965h-20.535c.168 6.771 3.581 10.407 9.568 10.407 2.91 0 5.876-.559 8.226-1.454l1.398 3.692c-3.077 1.343-5.763 1.959-9.848 1.959-8.561 0-14.436-5.315-14.436-15.332 0-9.847 5.316-15.778 13.261-15.778 7.666 0 12.366 5.371 12.366 13.541m.6688-12.9818h5.26l6.379 17.681c.895 2.463 2.07 6.099 2.405 7.946h.224c.392-1.847 1.679-5.54 2.518-7.946l6.379-17.681h5.26l-11.415 29.991h-5.651l-11.359-29.991zm35.5845 12.0298h15.275c-.056-5.092-2.294-8.561-7.274-8.561-4.7 0-7.498 3.189-8.001 8.561m20.423.952v2.965h-20.535c.168 6.771 3.581 10.407 9.568 10.407 2.91 0 5.876-.559 8.226-1.454l1.398 3.692c-3.077 1.343-5.763 1.959-9.848 1.959-8.561 0-14.436-5.315-14.436-15.332 0-9.847 5.316-15.778 13.261-15.778 7.666 0 12.366 5.371 12.366 13.541m31.7796-2.5184v19.528h-4.868v-19.193c0-4.812-2.126-7.217-6.715-7.217-6.658 0-8.784 3.861-8.784 10.855v15.555h-4.924v-29.991h3.973l.727 4.084h.279c1.959-3.133 5.652-4.644 9.457-4.644 7.162 0 10.855 3.301 10.855 11.023m20.0283 15.331l1.343 3.525c-1.063.672-3.189 1.231-5.484 1.231-4.699 0-8.784-2.014-8.784-9.288v-26.299l4.924-1.846v6.883h8.673v3.804h-8.673v17.346c0 3.637 1.958 5.372 4.7 5.372 1.119 0 2.63-.392 3.301-.728m10.6856-25.8506c0 1.455-.112 3.021-.28 4.197h.336c1.902-3.078 5.484-4.645 9.344-4.645 7.274 0 10.967 3.302 10.967 10.968v19.527h-4.868v-19.192c0-4.812-2.126-7.218-6.714-7.218-6.715 0-8.785 3.917-8.785 10.911v15.499h-4.924v-40.678l4.924-1.847v12.478zm25.1762 12.8697h13.541l1.678 4.364h-13.54zm40.8443 3.1894v-.896c0-7.441-2.014-11.582-8.673-11.582-5.315 0-7.945 4.532-7.945 11.639 0 7.162 2.63 11.302 8.001 11.302 6.323 0 8.617-3.469 8.617-10.463m-21.71-.952c0-10.295 4.924-15.61 12.366-15.61 4.644 0 7.442 1.958 9.288 4.42h.336c-.112-.951-.336-3.301-.336-4.42v-10.072l4.924-1.903v42.525h-3.972l-.728-4.029h-.224c-1.791 2.575-4.644 4.589-9.344 4.589-7.442 0-12.31-5.204-12.31-15.5m48.3413.4481c-7.498.28-9.904 2.406-9.904 6.211 0 3.357 2.238 4.868 5.484 4.868 5.036 0 8.841-2.742 8.841-8.561v-2.686l-4.421.168zm9.289-5.931v20.423h-3.581l-.952-4.252h-.224c-2.63 3.301-5.035 4.812-10.071 4.812-5.428 0-9.457-2.798-9.457-8.897 0-5.987 4.589-9.288 14.381-9.568l5.092-.168v-1.791c0-4.98-2.294-6.658-6.211-6.658-3.134 0-5.987 1.119-8.45 2.294l-1.51-3.693c2.63-1.399 6.323-2.574 10.239-2.574 7.274 0 10.744 3.078 10.744 10.072zm8.7247-9.568l6.491 17.066c1.119 3.021 2.071 5.707 2.518 8.169h.223c.449-1.846 1.511-5.148 2.575-8.225l6.098-17.01h5.316l-12.925 34.132c-2.126 5.651-4.029 7.722-8.002 9.288l-1.511-3.973c2.295-1.062 3.246-2.126 4.477-5.371l1.566-3.972-12.086-30.104h5.26zm-269.5601 61.042c-.335-.896-1.511-4.589-1.902-5.987-.56 2.294-1.287 4.7-1.735 5.987l-4.532 12.086h12.646l-4.477-12.086zm5.987 16.562h-15.835l-4.756 12.366h-5.092l15.612-40.119h4.532l15.555 40.119h-5.204l-4.812-12.366zm34.2967-1.6226v-.896c0-7.441-2.014-11.582-8.673-11.582-5.315 0-7.945 4.533-7.945 11.638 0 7.162 2.63 11.303 8.001 11.303 6.323 0 8.617-3.469 8.617-10.463m-21.71-.951c0-10.296 4.924-15.611 12.366-15.611 4.644 0 7.442 1.958 9.288 4.419h.336c-.112-.951-.336-3.3-.336-4.419v-10.073l4.924-1.902v42.525h-3.972l-.728-4.028h-.224c-1.791 2.573-4.644 4.588-9.344 4.588-7.442 0-12.31-5.204-12.31-15.499m30.7715-15.0519h5.26l6.379 17.682c.895 2.462 2.07 6.098 2.405 7.945h.224c.392-1.847 1.679-5.54 2.518-7.945l6.379-17.682h5.26l-11.415 29.991h-5.651l-11.359-29.991zm35.5845 12.0303h15.275c-.056-5.092-2.294-8.562-7.274-8.562-4.7 0-7.498 3.19-8.001 8.562m20.423.951v2.965h-20.535c.168 6.771 3.581 10.408 9.568 10.408 2.91 0 5.876-.559 8.226-1.455l1.398 3.693c-3.077 1.343-5.763 1.959-9.848 1.959-8.561 0-14.436-5.316-14.436-15.332 0-9.848 5.316-15.779 13.261-15.779 7.666 0 12.366 5.371 12.366 13.541m31.7792-2.5184v19.528h-4.868v-19.192c0-4.812-2.126-7.218-6.715-7.218-6.658 0-8.784 3.861-8.784 10.855v15.555h-4.924v-29.991h3.973l.727 4.085h.279c1.959-3.134 5.652-4.644 9.457-4.644 7.162 0 10.855 3.3 10.855 11.022m20.0288 15.332l1.343 3.524c-1.063.672-3.189 1.232-5.484 1.232-4.699 0-8.784-2.015-8.784-9.288v-26.299l4.924-1.847v6.883h8.673v3.805h-8.673v17.345c0 3.637 1.958 5.373 4.7 5.373 1.119 0 2.63-.392 3.301-.728"/>
      <mask id="b">
        <use xlink:href="#a"/>
      </mask>
      <path d="M362.058 149.979h4.924v-29.991h-4.924v29.991zm5.372-38.105c0 2.126-1.343 3.133-2.854 3.133-1.622 0-2.909-1.007-2.909-3.133 0-2.183 1.287-3.134 2.909-3.134 1.511 0 2.854.951 2.854 3.134zm15.4977 38.6641c-4.197 0-7.106-.672-9.4-1.902l1.454-3.805c1.959.839 5.204 1.734 8.058 1.734 4.98 0 7.106-1.734 7.106-4.421 0-2.237-1.511-3.581-7.386-5.818-5.819-2.238-9.289-4.029-9.289-8.953 0-5.092 4.533-7.945 11.248-7.945 3.636 0 6.77.783 9.567 2.014l-1.51 3.973c-2.574-1.119-5.484-1.959-8.393-1.959-4.029 0-6.211 1.399-6.211 3.638 0 2.517 1.958 3.524 7.721 5.707 5.708 2.126 9.009 4.085 9.009 8.896 0 5.82-4.644 8.841-11.974 8.841m29.8272-4.7559l1.343 3.524c-1.063.672-3.189 1.232-5.484 1.232-4.699 0-8.784-2.015-8.784-9.288v-26.299l4.924-1.847v6.883h8.673v3.805h-8.673v17.345c0 3.637 1.958 5.373 4.7 5.373 1.119 0 2.63-.392 3.301-.728m5.706-34.1885c.503 0 .839-.279.839-.728 0-.447-.279-.67-.839-.67h-.503v1.398h.503zm-1.287-2.07h1.287c1.119 0 1.623.448 1.623 1.342 0 .617-.392.953-.784 1.12l1.175 1.959h-.895l-1.007-1.735h-.615v1.735h-.784v-4.421zm4.532 2.238c0-1.734-1.287-3.189-3.133-3.189s-3.133 1.342-3.133 3.189c0 1.734 1.287 3.134 3.133 3.134 1.735 0 3.133-1.287 3.133-3.134zm-6.826 0c0-2.182 1.511-3.749 3.693-3.749 2.07 0 3.693 1.567 3.693 3.749 0 2.127-1.567 3.693-3.693 3.693-2.182 0-3.693-1.566-3.693-3.693zm28.0849 18.2412c0 9.904 4.588 16.115 13.765 16.115 3.468 0 7.721-.784 10.296-2.014l1.454 3.86c-4.477 2.07-7.442 2.574-12.478 2.574-12.254 0-18.353-8.001-18.353-20.591 0-12.086 6.827-20.479 19.192-20.479 4.085 0 7.666.672 10.687 2.182l-1.678 4.42c-2.462-1.119-5.484-2.181-9.065-2.181-8.56 0-13.82 6.098-13.82 16.114m35.1924-10.0713c0 1.454-.111 3.021-.279 4.196h.336c1.902-3.077 5.483-4.644 9.343-4.644 7.275 0 10.967 3.302 10.967 10.967v19.528h-4.867v-19.193c0-4.811-2.127-7.217-6.715-7.217-6.715 0-8.785 3.917-8.785 10.911v15.499h-4.924v-40.679l4.924-1.847v12.479zm53.6006 30.0469h-4.028l-.728-3.973h-.223c-1.959 3.134-5.652 4.533-9.513 4.533-7.218 0-10.911-3.302-10.911-10.912v-19.639h4.98v19.303c0 4.813 2.126 7.163 6.658 7.163 6.66 0 8.841-3.861 8.841-10.855v-15.611h4.924v29.991zm25.9043-30.2148l-.615 4.532c-.951-.223-2.239-.391-3.245-.391-4.645 0-8.73 4.028-8.73 10.071v16.003h-4.924v-29.991h4.03l.559 5.483h.224c1.902-3.302 4.979-6.043 9.176-6.043 1.119 0 2.518.111 3.525.336m1.7324 15.3867c0-11.078 5.987-15.723 14.045-15.723 3.021 0 6.155.728 7.945 1.623l-1.566 4.084c-1.791-.671-4.421-1.398-6.491-1.398-5.987 0-8.841 3.86-8.841 11.358 0 7.218 2.91 11.191 8.561 11.191 2.518 0 4.701-.56 6.659-1.454l1.51 3.916c-1.678 1.063-4.7 1.791-8.113 1.791-8.001 0-13.709-4.756-13.709-15.388m32.3389-15.2188c0 1.454-.111 3.021-.279 4.196h.336c1.902-3.077 5.483-4.644 9.343-4.644 7.275 0 10.967 3.302 10.967 10.967v19.528h-4.867v-19.193c0-4.811-2.127-7.217-6.715-7.217-6.715 0-8.785 3.917-8.785 10.911v15.499h-4.924v-40.679l4.924-1.847v12.479z" mask="url(#b)"/>
    </g>
    <path d="M76.9263 124.3545c0 .541.62.543.732 0 .824-3.998 2.076-6.662 4.033-9.249l-4.401.002c-.201 0-.364.164-.364.364v8.883zm32.32-55.485c-.181-.585-.687-.623-.682-.011.05 5.779-1.612 10.745-12.16 21.294l-8.344 8.336c-3.797 3.797-7.211 7.265-9.229 10.73h8.24c.316-.317.64-.64.974-.975l11.97-11.982c9.969-9.969 11.359-20.514 9.231-27.392zm-11.187 35.249l-9.999 10.007c-6.052 6.053-11.134 11.268-11.134 16.971l.006 1.588c0 .431.536.499.701.048 1.869-5.106 8.112-10.556 19.564-8.624 0 0 49.891 8.621 50.31 8.658.487.043.728-.437.414-.811-.189-.224-23.22-23.254-23.22-23.254l-26.642-4.583zm-36.093 10.987c-.201 0-.364-.163-.364-.364v-5.162c0-.201.163-.364.364-.364l8.732.002c.201 0 .364-.163.364-.363-.023-4.638-3.518-7.789-17.523-5.351l-30.24 5.198s-23.032 23.03-23.221 23.254c-.314.374-.073.854.414.811.42-.037 50.31-8.658 50.31-8.658 11.453-1.932 17.696 3.518 19.564 8.624.165.451.702.383.702-.048 0-.311.001-17.215.001-17.215 0-.201-.163-.364-.364-.364h-8.739zm-13.939-72.152c-9.969 9.969-11.359 20.514-9.23 27.392.18.585.686.623.681.011-.05-5.779 1.613-10.746 12.161-21.294l22.74-22.733c6.052-6.053 11.134-11.268 11.134-16.971V.4635c0-.541-.62-.543-.732 0-1.496 7.259-4.399 10.123-10.387 16.111l-26.367 26.379zm37.508-17.973v-8.956c0-.541-.62-.543-.732 0-1.496 7.26-4.392 10.169-10.38 16.157l-23.883 23.863c-11.59 11.59-13.596 22.808-7.701 30.016.393.48.816.192.56-.388-3.898-8.818 5.448-18.167 9.898-22.617l21.104-21.105c6.052-6.052 11.134-11.267 11.134-16.97zm-34.34 46.044c-11.591 11.592-6.261 22.787.5 25.868.593.271.829-.211.375-.604-5.421-4.696-3.775-12.597 3.043-19.414l19.264-19.265c6.052-6.052 11.133-11.267 11.133-16.97v-8.895c0-.541-.62-.543-.731 0-1.496 7.259-4.394 10.111-10.381 16.099l-23.203 23.181zm25.71 28.813v8.955c0 .541.62.543.731 0 1.497-7.259 4.393-10.168 10.38-16.156l9.487-9.466c11.59-11.59 13.595-22.808 7.7-30.016-.393-.48-.816-.193-.559.387 3.897 8.818-5.448 18.168-9.898 22.618l-6.707 6.707c-6.053 6.053-11.134 11.268-11.134 16.971zm11.137-22.863c-5.988 5.988-8.886 8.84-10.381 16.099-.112.543-.732.541-.732 0v-8.895c0-5.703 5.081-10.918 11.134-16.97l4.867-4.868c6.818-6.818 8.464-14.718 3.042-19.415-.453-.392-.217-.874.376-.603 6.761 3.081 12.091 14.276.499 25.867l-8.805 8.785zm56.2018 38.7941c.525 0 .839-.293.839-.718 0-.474-.263-.677-.849-.677h-.495v1.395h.505zm-1.272-2.041h1.293c1.1 0 1.595.436 1.595 1.304 0 .635-.384.989-.788 1.151l1.172 1.96h-.868l-1.011-1.748h-.626v1.748h-.767v-4.415zm4.515 2.202c0-1.747-1.304-3.172-3.132-3.172s-3.141 1.324-3.141 3.172c0 1.748 1.313 3.172 3.141 3.172 1.728 0 3.132-1.323 3.132-3.172zm-6.839 0c0-2.151 1.556-3.707 3.707-3.707 2.051 0 3.707 1.556 3.707 3.707 0 2.152-1.555 3.707-3.707 3.707-2.151 0-3.707-1.555-3.707-3.707z"/>
  </g>
</svg>
