<svg xmlns="http://www.w3.org/2000/svg" viewBox="0 0 593.7 121.27"><defs><style>.a{fill:#fff;}</style></defs><title>Asset 1</title><path class="a" d="M163.4,89.27a28.13,28.13,0,0,0-3,.1l-2.1.2a33.34,33.34,0,0,1-3.5.1h-1.6l-1.8-.1c-.4,0-.6.1-.6.4s.2.4.7.5a3.56,3.56,0,0,1,2.6,1.2,5.71,5.71,0,0,1,.8,3.3v20.4a7.38,7.38,0,0,1-.5,3.3,2.94,2.94,0,0,1-2,1.1c-.4.1-.6.3-.6.5,0,.4.3.5.8.5.3,0,.7-.1,1.3-.1a26.84,26.84,0,0,1,4.2-.2c1.5,0,3.2.1,5.3.2a19.71,19.71,0,0,0,2.1.1,17.18,17.18,0,0,0,9.1-2.6,14.78,14.78,0,0,0,5.2-5.6,17.28,17.28,0,0,0,1.9-7.8,15,15,0,0,0-4.2-10.9C174.2,90.87,169.6,89.27,163.4,89.27Zm9.5,28.4a12.91,12.91,0,0,1-7,1.9,18.92,18.92,0,0,1-3.1-.3,17.28,17.28,0,0,1-3.1-.8,1.92,1.92,0,0,1-1.4-1.9V93.27a2.16,2.16,0,0,1,.6-1.8c.6-.5,2.2-.8,4.5-.8a13.41,13.41,0,0,1,13,8.1,18.46,18.46,0,0,1,1.6,7.8Q178.15,114.37,172.9,117.67Z"/><path class="a" d="M206.6,97.57a2.49,2.49,0,0,0-.8.1,8.12,8.12,0,0,1-1.7.1,27.26,27.26,0,0,1-3.1-.1h-.7c-.3,0-.5.1-.5.3a.46.46,0,0,0,.5.4,5.47,5.47,0,0,1,2.4.9,3.37,3.37,0,0,1,.8,2l.2,3.8v10.4c0,.2-.1.3-.2.3s-.2-.1-.5-.4L187.7,98a1.46,1.46,0,0,0-.8-.5h-3c-.2,0-.4.1-.4.3s.2.3.5.4a3.74,3.74,0,0,1,2.7,1.9,9.45,9.45,0,0,1,.9,4.5v11.3a5.39,5.39,0,0,1-.5,2.6,3.55,3.55,0,0,1-1.9,1.3c-.3.1-.5.2-.5.4s.2.3.5.3a1.76,1.76,0,0,0,.6-.1,4.87,4.87,0,0,1,1.2-.1h.8l1.7.1c.8,0,1.3.1,1.5.1h.5c.2,0,.4-.1.4-.3s-.2-.4-.6-.4a3.11,3.11,0,0,1-1.8-.6,2.62,2.62,0,0,1-.6-1.5v-13.2c0-.5.1-.8.3-.8s.2,0,.2.1l.2.2,14.1,16.1.4.4c.1.1.2.1.4.1s.4-.1.5-.4a11.07,11.07,0,0,0,.1-2.3V101a5.39,5.39,0,0,1,.3-2.2,1.74,1.74,0,0,1,1.3-.8q.3-.15.3-.3C207,97.77,206.9,97.57,206.6,97.57Z"/><path class="a" d="M218.2,120a3.71,3.71,0,0,1-1.5-.5,2.28,2.28,0,0,1-.8-1.2,10,10,0,0,1-.3-3.1v-12.5c0-2.3.4-3.7,1.2-4l.9-.3c.3-.1.4-.2.4-.4s-.2-.3-.4-.3h-.4l-1.1.1c-.6,0-1.3.1-2.1.1a29.19,29.19,0,0,1-3.2-.1h-.3c-.3,0-.5.1-.5.4s.2.3.5.4a2.9,2.9,0,0,1,2,1,5.75,5.75,0,0,1,.5,2.8v14.3a6.05,6.05,0,0,1-.4,2.8,2.42,2.42,0,0,1-1.6.9c-.3.1-.5.2-.5.4s.2.3.5.3a2.49,2.49,0,0,0,.8-.1l2-.1h2.4a8.66,8.66,0,0,1,1.8.1,3.54,3.54,0,0,1,.6.1c.3,0,.5-.1.5-.4C219,120.17,218.7,120.07,218.2,120Z"/><path class="a" d="M242.8,120c-1.1-.2-1.8-.4-2.1-.8a8.75,8.75,0,0,1-1.3-2.5l-.4-.9-7.2-18.4c-.1-.3-.3-.5-.5-.5s-.3.2-.5.5l-8.6,19-.5,1.1a11.9,11.9,0,0,1-.9,1.5,2.75,2.75,0,0,1-.9.8l-.6.2c-.2.1-.3.2-.3.4s.1.3.4.3a4.4,4.4,0,0,0,.9-.1h2.5l1.6.1h.6c.3,0,.5-.1.5-.3s-.2-.3-.5-.4a3.69,3.69,0,0,1-1.5-.6,1.25,1.25,0,0,1-.4-1.1,6.79,6.79,0,0,1,.7-2.5l1.1-2.5a2.54,2.54,0,0,1,.8-1.3,4,4,0,0,1,1.5-.2h6a2.53,2.53,0,0,1,1.1.1,4.06,4.06,0,0,1,.6,1.1l.8,2.2a12,12,0,0,1,1,3.5,1,1,0,0,1-.8,1.1l-.5.1c-.3.1-.4.2-.4.3s.1.3.4.3a1.09,1.09,0,0,0,.5-.1,18.76,18.76,0,0,1,2.9-.1,23.73,23.73,0,0,1,3.1.1h.6c.3,0,.5-.1.5-.3C243.4,120.17,243.2,120.07,242.8,120Zm-9.7-9.7h-5.5c-.5,0-.8-.1-.8-.4a3.93,3.93,0,0,1,.2-.6l3.2-7.2q.15-.3.3-.3c.2,0,.3.2.4.5l.1.3,2.6,6.6.1.3a.76.76,0,0,1,.1.4C233.9,110.17,233.6,110.27,233.1,110.27Z"/><path class="a" d="M264.2,102.57a34.33,34.33,0,0,1-5.4-2,6.27,6.27,0,0,1-2-1.7,5.24,5.24,0,0,1-1.1-3.3,4.65,4.65,0,0,1,1.6-3.6,5.69,5.69,0,0,1,4.1-1.4,10.13,10.13,0,0,1,5.6,1.6,7.42,7.42,0,0,1,3.3,4c.2.7.5,1.1.7,1.1s.5-.2.5-.7a4.4,4.4,0,0,0-.1-.9l-.4-2.3a23.19,23.19,0,0,1-.3-2.3c0-.8-.2-1.1-.6-1.1-.1,0-.2,0-.2.1l-.3.3a.65.65,0,0,1-.5.2.6.6,0,0,1-.4-.1l-1.6-.7a10,10,0,0,0-4.1-.7,10.53,10.53,0,0,0-7,2.3,7.42,7.42,0,0,0-2.7,6,6.93,6.93,0,0,0,2.1,5.3c1.4,1.4,3.8,2.6,7.1,3.7s5.2,1.9,5.9,2.5a5.45,5.45,0,0,1,2,4.2,5.77,5.77,0,0,1-2.2,4.5,7.92,7.92,0,0,1-5.3,1.8,9.52,9.52,0,0,1-5.7-1.9,8.71,8.71,0,0,1-3.4-4.7c-.2-.7-.5-1.1-.7-1.1s-.5.2-.5.7a12.17,12.17,0,0,0,.6,2.9,17,17,0,0,0,.6,2.1c.2.8.3,1.4.4,1.6a2.65,2.65,0,0,0,.5.6,12.45,12.45,0,0,0,3.1,1.2,18.93,18.93,0,0,0,3.8.5,11.65,11.65,0,0,0,7.9-2.7,9,9,0,0,0,3.1-6.9C272.5,107.37,269.7,104.37,264.2,102.57Z"/><path class="a" d="M283.9,120a3.71,3.71,0,0,1-1.5-.5,2.28,2.28,0,0,1-.8-1.2,10,10,0,0,1-.3-3.1v-12.5c0-2.3.4-3.7,1.2-4l.9-.3c.3-.1.4-.2.4-.4s-.1-.3-.4-.3H283l-1.1.1c-.6,0-1.3.1-2.1.1a29.19,29.19,0,0,1-3.2-.1h-.3c-.3,0-.5.1-.5.4s.2.3.5.4a2.9,2.9,0,0,1,2,1,5.75,5.75,0,0,1,.5,2.8v14.3a6.05,6.05,0,0,1-.4,2.8,2.42,2.42,0,0,1-1.6.9c-.3.1-.5.2-.5.4s.2.3.5.3a2.49,2.49,0,0,0,.8-.1l2-.1H282a8.66,8.66,0,0,1,1.8.1,3.54,3.54,0,0,1,.6.1c.3,0,.5-.1.5-.4C284.7,120.17,284.5,120.07,283.9,120Z"/><path class="a" d="M299,97.37a13.72,13.72,0,0,0-4.9.9,12.37,12.37,0,0,0-4,2.5,11.23,11.23,0,0,0-2.4,3.8,12.16,12.16,0,0,0-.9,4.6,11.33,11.33,0,0,0,12,11.9,11.38,11.38,0,0,0,8.6-3.4,12.16,12.16,0,0,0,3.4-8.7,11.15,11.15,0,0,0-3.3-8.3A11.3,11.3,0,0,0,299,97.37Zm7,19.8a8.13,8.13,0,0,1-6.4,2.8,9,9,0,0,1-7.1-3.5,12.87,12.87,0,0,1-2.9-8.5,10.35,10.35,0,0,1,2.3-7,7.85,7.85,0,0,1,6.1-2.6,9.71,9.71,0,0,1,7.5,3.3,11.93,11.93,0,0,1,3,8.3A10,10,0,0,1,306,117.17Z"/><path class="a" d="M299.9,91.47c-.2,0-.3.2-.4.4l-.4.9a13.32,13.32,0,0,0-.6,1.4l-.3.8a3.94,3.94,0,0,0-.2.6.27.27,0,0,0,.3.3,2.56,2.56,0,0,0,1.2-.7l2.2-2.4.3-.3a.55.55,0,0,0,.2-.5c0-.4-.2-.6-.7-.6C300.6,91.37,300.1,91.47,299.9,91.47Z"/><path class="a" d="M322.9,97.47a15.49,15.49,0,0,0-2.2.1l-1.5.2a18.58,18.58,0,0,1-2.6.1h-1.2l-1.3-.1c-.3,0-.4.1-.4.3s.2.3.5.3a2.64,2.64,0,0,1,1.9.9,4,4,0,0,1,.6,2.5v15a6.87,6.87,0,0,1-.3,2.5,1.82,1.82,0,0,1-1.5.8c-.3.1-.5.2-.5.4s.2.4.6.4a3.45,3.45,0,0,0,.9-.1,26.9,26.9,0,0,1,3.1-.2c1.1,0,2.4.1,3.9.1a9.89,9.89,0,0,0,1.5.1,12.14,12.14,0,0,0,6.7-1.9,10.32,10.32,0,0,0,3.8-4.2,12.73,12.73,0,0,0,1.4-5.8,10.7,10.7,0,0,0-3.1-8C330.9,98.67,327.5,97.47,322.9,97.47Zm7,20.9a8.91,8.91,0,0,1-5.1,1.4c-.6,0-1.4-.1-2.3-.2s-1.7-.4-2.3-.6a1.38,1.38,0,0,1-1-1.4v-17.2a1.81,1.81,0,0,1,.4-1.4,5.91,5.91,0,0,1,3.3-.6,10.65,10.65,0,0,1,6.3,1.8,10.35,10.35,0,0,1,3.3,4.1,14,14,0,0,1,1.2,5.8C333.8,114.07,332.5,116.77,329.9,118.37Z"/><path class="a" d="M365.1,120a3,3,0,0,1-1.7-.7,3,3,0,0,1-.5-1.8l-.1-2.1-.3-9.1-.1-4a9.41,9.41,0,0,1,.3-2.8,1.39,1.39,0,0,1,1.2-1l.7-.2c.2-.1.3-.2.3-.4a.27.27,0,0,0-.3-.3h-.5c-.4,0-1,.1-1.7.1h-.5a3.55,3.55,0,0,1-.7-.1c-.2,0-.4,0-.4.1a3.22,3.22,0,0,0-.4.7l-7.8,16.8-.1.3-.2.5a1.24,1.24,0,0,1-.2.3c-.1,0-.1-.1-.3-.4l-.8-1.7-6.9-15-.2-.4c-.3-.7-.7-1-1.2-1h-3.9c-.3,0-.4.1-.4.4a.46.46,0,0,0,.5.4,3.35,3.35,0,0,1,2.6,1.8,9.85,9.85,0,0,1,.8,4.4q0,1.35-.3,6.6l-.2,4.8a8,8,0,0,1-.6,2.9,2.35,2.35,0,0,1-1.7,1.1c-.3.1-.4.2-.4.4a.46.46,0,0,0,.5.4h.5a16.42,16.42,0,0,1,2.3-.2c.7,0,1.6.1,2.9.2h.6c.3,0,.5-.1.5-.4s-.3-.4-1-.5c-1.4-.2-2.1-1.3-2.1-3.2v-4.1l.4-8.2,6.3,13.5.3.7c.3.5.4.8.5.9.2.5.5.8.8.8s.5-.3.7-.8a1.63,1.63,0,0,0,.3-.6,11.39,11.39,0,0,0,.9-1.9c.8-1.9,1.3-2.9,1.4-3.1l1.7-3.5,1.5-3.2A38.82,38.82,0,0,1,360,104l.4,10.6.1,2.7a5.15,5.15,0,0,1-.3,2.1,2.18,2.18,0,0,1-1.3.9c-.3.1-.4.2-.4.4s.2.3.5.3.8,0,2-.1c.7,0,1.3-.1,1.6-.1a6.15,6.15,0,0,1,1.4.1l1.3.1h.4q.6,0,.6-.3A1.64,1.64,0,0,0,365.1,120Z"/><path class="a" d="M385.7,116.07a.54.54,0,0,0-.4.3q-1.8,3-8.4,3a4.87,4.87,0,0,1-2.6-.4c-.3-.2-.5-.8-.5-1.8v-6.7a.78.78,0,0,1,.3-.7,2.33,2.33,0,0,1,1.1-.2h3.7a3.32,3.32,0,0,1,2,.4,2.19,2.19,0,0,1,.8,1.5l.1.5a.43.43,0,0,0,.4.4c.2,0,.3-.1.3-.4v-.5a13.41,13.41,0,0,1-.1-2c0-.9,0-1.9.1-2.9v-.4c0-.3-.1-.4-.3-.4a.37.37,0,0,0-.4.4,2.73,2.73,0,0,1-.5,1.4,2.25,2.25,0,0,1-1.2.5,19.1,19.1,0,0,1-2.8.2h-2.6a1.44,1.44,0,0,1-.9-.2c-.1-.1-.1-.4-.1-.9v-6.7c0-.6.1-1,.3-1.1a1.88,1.88,0,0,1,1.3-.3h2.6a23.85,23.85,0,0,1,3.5.2,2,2,0,0,1,1.3,1,3.55,3.55,0,0,1,.2,1v.4c0,.3.1.5.3.5s.3-.1.4-.3a7.08,7.08,0,0,0,.2-1.2l.1-1a9.29,9.29,0,0,0,.1-1.3c0-.2.1-.3.1-.4,0-.3-.2-.5-.6-.5a2.25,2.25,0,0,0-.7.1,8.33,8.33,0,0,0-1.2.1l-2.4.1c-1,0-2.2.1-3.6.1a46.72,46.72,0,0,1-5.7-.3,4.91,4.91,0,0,0-1.1-.1c-.5,0-.7.2-.7.5s.2.3.5.3a2.22,2.22,0,0,1,2,.8,7.48,7.48,0,0,1,.5,3.2v15.2c0,1.3-.4,2.1-1.2,2.3l-.6.2c-.3.1-.4.2-.4.4a.46.46,0,0,0,.5.4,3.87,3.87,0,0,0,.9-.1,35.17,35.17,0,0,1,4.1-.2c1.4,0,3.1.1,5.3.3.5,0,1,.1,1.3.1a5.2,5.2,0,0,0,4.9-4.4C386,116.17,385.9,116.07,385.7,116.07Z"/><path class="a" d="M411.1,108.57a9.29,9.29,0,0,0-1.3.1h-5q-.6,0-.6.3c0,.2.2.4.7.4a3.22,3.22,0,0,1,1.8.5c.3.2.4.7.4,1.4v3.8a4.35,4.35,0,0,1-.5,2.3,7.48,7.48,0,0,1-6.1,2.7,8.47,8.47,0,0,1-6.8-3.3,12.37,12.37,0,0,1-2.7-8.1,11.16,11.16,0,0,1,2.4-7.4,7.68,7.68,0,0,1,6.2-2.9,10.82,10.82,0,0,1,5.7,1.7,10.33,10.33,0,0,1,4,4.3c.1.2.2.3.4.3s.3-.2.3-.4a1.09,1.09,0,0,0-.1-.5,5.07,5.07,0,0,1-.2-1.3l-.2-1.6a5.39,5.39,0,0,1-.1-1.1c0-.5-.1-.8-.3-.8s-.2,0-.2.1l-.4.3a.5.5,0,0,1-.6,0,12.75,12.75,0,0,0-3.5-1.4,16.35,16.35,0,0,0-4.2-.6,11.54,11.54,0,0,0-8.5,3.5,11.83,11.83,0,0,0-3.4,8.8,11,11,0,0,0,11.4,11.4,13.4,13.4,0,0,0,7-1.9l1.1-.7a3,3,0,0,1,1.4-.6,2,2,0,0,0,.5-.1l.1-.3v-6.3a1.59,1.59,0,0,1,1.3-1.8c.3-.1.5-.2.5-.4A.51.51,0,0,0,411.1,108.57Z"/><path class="a" d="M426.1,97.37a13.72,13.72,0,0,0-4.9.9,12.37,12.37,0,0,0-4,2.5,11.23,11.23,0,0,0-2.4,3.8,12.16,12.16,0,0,0-.9,4.6,11.33,11.33,0,0,0,12,11.9,11.38,11.38,0,0,0,8.6-3.4,12.16,12.16,0,0,0,3.4-8.7,11.15,11.15,0,0,0-3.3-8.3A11.3,11.3,0,0,0,426.1,97.37Zm7,19.8a8.13,8.13,0,0,1-6.4,2.8,9,9,0,0,1-7.1-3.5,12.87,12.87,0,0,1-2.9-8.5,10.35,10.35,0,0,1,2.3-7,7.85,7.85,0,0,1,6.1-2.6,9.71,9.71,0,0,1,7.5,3.3,11.93,11.93,0,0,1,3,8.3A10,10,0,0,1,433.1,117.17Z"/><path class="a" d="M152.4,53.57a2.67,2.67,0,0,1,2,1.3,8.61,8.61,0,0,1,.5,3.4v19.2a9.52,9.52,0,0,1-.6,4,2.24,2.24,0,0,1-2,1.3c-.4,0-.7.2-.7.4,0,.4.2.5.7.5a11.31,11.31,0,0,0,1.4-.1h4.6a17.9,17.9,0,0,1,2.7.1c.6,0,1,.1,1.2.1.4,0,.6-.1.5-.4s-.2-.4-.7-.5a6.18,6.18,0,0,1-3.2-1.2c-.5-.6-.7-1.7-.7-3.4V70c0-.3.1-.5.4-.5a.76.76,0,0,1,.5.2l.5.5,12.1,12.5.4.4a1.76,1.76,0,0,0,1.3.6h3a7.71,7.71,0,0,1,1.9.1h.5c.5,0,.7-.1.7-.5a.46.46,0,0,0-.5-.4l-1-.2a8,8,0,0,1-4.1-2.4L162,68c-.4-.4-.6-.7-.5-1s.2-.4.5-.7l7.7-7q5.7-5.25,7.8-5.7c.7-.2,1.1-.4,1.1-.6s-.2-.4-.7-.4a2.25,2.25,0,0,0-.7.1c-.3,0-.9.1-1.9.1h-1.7l-2.1-.1a13.43,13.43,0,0,1-2.1-.1h-.6c-.5,0-.7.2-.7.5s.3.5,1,.6c1.1.2,1.6.6,1.6,1.3s-.7,1.9-2.2,3.2l-9.7,8.7-.3.3-.4.2c-.1,0-.2-.2-.2-.5v-8.8a7.34,7.34,0,0,1,.4-3.1,3,3,0,0,1,1.8-1.4c.4-.1.5-.3.5-.5s-.2-.4-.5-.4a6.61,6.61,0,0,0-1.1.1h-3.7a29.25,29.25,0,0,1-3.6-.2,2.49,2.49,0,0,0-.8-.1c-.4,0-.6.2-.6.5s.2.4.6.5Z"/><path class="a" d="M192.5,83.87a11.38,11.38,0,0,0,8.6-3.4,12.16,12.16,0,0,0,3.4-8.7,11.15,11.15,0,0,0-3.3-8.3,12,12,0,0,0-8.6-3.2,13.72,13.72,0,0,0-4.9.9,12.37,12.37,0,0,0-4,2.5,11.23,11.23,0,0,0-2.4,3.8,12.16,12.16,0,0,0-.9,4.6,11.68,11.68,0,0,0,3.3,8.6A12.87,12.87,0,0,0,192.5,83.87ZM185.4,64a7.85,7.85,0,0,1,6.1-2.6,9.71,9.71,0,0,1,7.5,3.3,11.93,11.93,0,0,1,3,8.3,9.94,9.94,0,0,1-2.5,7.1,8.13,8.13,0,0,1-6.4,2.8,9,9,0,0,1-7.1-3.5,12.87,12.87,0,0,1-2.9-8.5A10.08,10.08,0,0,1,185.4,64Z"/><path class="a" d="M213.5,83.87a8.51,8.51,0,0,0,5.8-2,6.47,6.47,0,0,0,2.3-5.1c0-3.1-2.1-5.3-6.2-6.6a37.08,37.08,0,0,1-4-1.5,5.8,5.8,0,0,1-1.5-1.3,4.07,4.07,0,0,1-.8-2.4,3.22,3.22,0,0,1,1.2-2.6,4.43,4.43,0,0,1,3-1.1,7.3,7.3,0,0,1,4.1,1.2,5.78,5.78,0,0,1,2.4,3c.2.5.4.8.5.8a.46.46,0,0,0,.4-.5,2.64,2.64,0,0,0-.1-.7l-.3-1.7c-.1-.9-.2-1.5-.2-1.7,0-.6-.1-.8-.4-.8-.1,0-.2,0-.2.1l-.2.2a.76.76,0,0,1-.4.2.37.37,0,0,1-.3-.1l-1.1-.5a8.53,8.53,0,0,0-3-.5,8.12,8.12,0,0,0-5.2,1.7,5.56,5.56,0,0,0-2,4.4,5.28,5.28,0,0,0,1.5,3.9,15.26,15.26,0,0,0,5.2,2.8c2.4.8,3.8,1.4,4.3,1.9a3.88,3.88,0,0,1,1.5,3.1,4.07,4.07,0,0,1-1.6,3.3,6,6,0,0,1-3.9,1.4,7.29,7.29,0,0,1-4.2-1.4,6.22,6.22,0,0,1-2.5-3.5c-.2-.5-.3-.8-.5-.8s-.3.2-.3.5a8,8,0,0,0,.4,2.1,8,8,0,0,1,.4,1.5,5,5,0,0,0,.3,1.2c.1.1.2.3.4.4a9.08,9.08,0,0,0,2.3.9C211.7,83.77,212.7,83.87,213.5,83.87Z"/><path class="a" d="M245.8,77.37c-.2,0-.4.3-.7.9a6.68,6.68,0,0,1-3.4,3.2,10,10,0,0,1-4.9,1.3,8.58,8.58,0,0,1-7-3.3,12.93,12.93,0,0,1-2.7-8.5c0-3,.8-5.4,2.5-7.1a8.88,8.88,0,0,1,6.7-2.6c3.6,0,6.4,1.8,8.5,5.5.3.5.5.7.6.7a.22.22,0,0,0,.2-.2v-.6l-.5-4c-.1-.4-.2-.6-.4-.6a.91.91,0,0,0-.5.3.37.37,0,0,1-.3.1l-.3-.1-.3-.1-.7-.3a13.05,13.05,0,0,0-6.5-1.6,11.3,11.3,0,0,0-8.5,3.4,11.68,11.68,0,0,0-3.4,8.6,11.07,11.07,0,0,0,3.3,8.4,12.11,12.11,0,0,0,8.7,3.2,15.83,15.83,0,0,0,8.5-2.4,1.63,1.63,0,0,0,.8-.9l.1-.3.4-2,.1-.4v-.2C246.1,77.37,246,77.27,245.8,77.37Z"/><path class="a" d="M256.4,83.57a3.54,3.54,0,0,1,.6.1c.3,0,.5-.1.5-.4s-.3-.3-.8-.4a3.71,3.71,0,0,1-1.5-.5,2.28,2.28,0,0,1-.8-1.2,10,10,0,0,1-.3-3.1V65.57c0-2.3.4-3.7,1.2-4l.9-.3c.3-.1.4-.2.4-.4s-.1-.3-.4-.3h-.4l-1.1.1c-.6,0-1.3.1-2.1.1a29.19,29.19,0,0,1-3.2-.1h-.3c-.3,0-.5.1-.5.4s.2.3.5.4a2.9,2.9,0,0,1,2,1,5.75,5.75,0,0,1,.5,2.8v14.3a6.05,6.05,0,0,1-.4,2.8,2.42,2.42,0,0,1-1.6.9c-.3.1-.5.2-.5.4s.2.3.5.3a2.49,2.49,0,0,0,.8-.1l2-.1h2.4A5.63,5.63,0,0,1,256.4,83.57Z"/><path class="a" d="M271.8,83.87a11.38,11.38,0,0,0,8.6-3.4,12.16,12.16,0,0,0,3.4-8.7,11.15,11.15,0,0,0-3.3-8.3,12,12,0,0,0-8.6-3.2,13.72,13.72,0,0,0-4.9.9,12.37,12.37,0,0,0-4,2.5,11.23,11.23,0,0,0-2.4,3.8,12.16,12.16,0,0,0-.9,4.6,11.68,11.68,0,0,0,3.3,8.6A12.52,12.52,0,0,0,271.8,83.87ZM264.7,64a7.85,7.85,0,0,1,6.1-2.6,9.71,9.71,0,0,1,7.5,3.3,11.93,11.93,0,0,1,3,8.3,9.94,9.94,0,0,1-2.5,7.1,8.13,8.13,0,0,1-6.4,2.8,9,9,0,0,1-7.1-3.5,12.87,12.87,0,0,1-2.9-8.5A10.08,10.08,0,0,1,264.7,64Z"/><path class="a" d="M271.2,58.77a2.56,2.56,0,0,0,1.2-.7l2.2-2.4.3-.3a.55.55,0,0,0,.2-.5c0-.4-.2-.6-.7-.6a4.2,4.2,0,0,0-1.5.1c-.2,0-.3.2-.4.4l-.4.9a13.32,13.32,0,0,0-.6,1.4l-.3.8a3.94,3.94,0,0,0-.2.6C270.8,58.67,270.9,58.77,271.2,58.77Z"/><path class="a" d="M316.8,83.57l2.2.1h.8c.4,0,.6-.1.6-.4s-.2-.4-.7-.5a5.38,5.38,0,0,1-2.1-.8,1.72,1.72,0,0,1-.5-1.5,9.09,9.09,0,0,1,1-3.4l1.5-3.3a5.6,5.6,0,0,1,1.1-1.8,4.54,4.54,0,0,1,2.1-.3H331a3.57,3.57,0,0,1,1.5.2c.2.1.4.6.7,1.4l1.1,3a18.68,18.68,0,0,1,1.4,4.8c0,.9-.4,1.4-1.1,1.5l-.7.2c-.4.1-.6.2-.6.5s.2.5.6.5a2,2,0,0,0,.7-.1,32.63,32.63,0,0,1,3.9-.1c2,0,3.4,0,4.2.1h.9c.4,0,.6-.1.6-.4s-.2-.5-.7-.6a5.33,5.33,0,0,1-2.8-1.1,9.72,9.72,0,0,1-1.8-3.4l-.5-1.2-9.7-24.9c-.2-.4-.4-.7-.6-.7s-.5.2-.7.7L315.8,78l-.7,1.5a8.58,8.58,0,0,1-1.3,2,3.64,3.64,0,0,1-1.2,1.1l-.8.2c-.3.1-.4.2-.4.5s.2.4.6.4a10.3,10.3,0,0,0,1.3-.1h3.5Zm5.2-15.5,4.4-9.8c.1-.3.3-.4.4-.4s.4.3.6.7l.2.5,3.5,8.9.1.4a1.09,1.09,0,0,1,.1.5c0,.4-.4.6-1.1.6h-7.4c-.7,0-1-.2-1-.6C321.7,68.77,321.8,68.47,322,68.07Z"/><path class="a" d="M353.8,60.37a15.49,15.49,0,0,0-2.2.1l-1.5.2a18.58,18.58,0,0,1-2.6.1h-1.2l-1.3-.1c-.3,0-.4.1-.4.3s.2.3.5.3a2.64,2.64,0,0,1,1.9.9,4,4,0,0,1,.6,2.5v15a6.87,6.87,0,0,1-.3,2.5,1.82,1.82,0,0,1-1.5.8c-.3.1-.5.2-.5.4s.2.4.6.4a3.45,3.45,0,0,0,.9-.1,26.9,26.9,0,0,1,3.1-.2c1.1,0,2.4.1,3.9.1a9.89,9.89,0,0,0,1.5.1,12.14,12.14,0,0,0,6.7-1.9,10.32,10.32,0,0,0,3.8-4.2,12.73,12.73,0,0,0,1.4-5.8,10.7,10.7,0,0,0-3.1-8C361.8,61.57,358.4,60.37,353.8,60.37Zm7,20.9a8.91,8.91,0,0,1-5.1,1.4c-.6,0-1.4-.1-2.3-.2s-1.7-.4-2.3-.6a1.38,1.38,0,0,1-1-1.4V63.27a1.81,1.81,0,0,1,.4-1.4,5.91,5.91,0,0,1,3.3-.6,10.65,10.65,0,0,1,6.3,1.8,10.35,10.35,0,0,1,3.3,4.1,14,14,0,0,1,1.2,5.8C364.7,77,363.4,79.67,360.8,81.27Z"/><path class="a" d="M388.7,84.47q.45,0,.9-.9l.2-.5.4-.9.8-1.8,1.3-3.2,2-4.5c.4-1,1.1-2.5,1.9-4.4s1.4-3.2,1.8-4l.9-2a2,2,0,0,1,1-1c.3-.1.5-.3.5-.5a.37.37,0,0,0-.4-.4,3.22,3.22,0,0,0-.8.1,14.17,14.17,0,0,1-2.3.1h-2.3c-.3,0-.5.1-.5.3s.3.4.8.5c.9.2,1.4.6,1.4,1.1s-.6,2.5-1.9,5.8-2.6,6.6-4.1,9.8c-.2.4-.3.8-.4.9-.2.5-.4.8-.5.8s-.4-.4-.8-1.3l-3.3-7.9,2.7-6.5a13.83,13.83,0,0,1,1.1-2.2,1.46,1.46,0,0,1,.9-.6c.4-.1.6-.3.6-.4,0-.3-.2-.4-.5-.4a2.25,2.25,0,0,0-.7.1c-.4,0-.9.1-1.6.1h-2.3q-.6,0-.6.3c0,.3.3.4.8.5.7.1,1.1.5,1.1,1,0,.9-.6,2.7-1.9,5.6a3.39,3.39,0,0,0-.3.8l-1.8-4.2a5.67,5.67,0,0,1-.6-2.1c0-.5.3-.8.8-1.1.4-.1.5-.3.5-.5s-.2-.4-.6-.4a2.25,2.25,0,0,0-.7.1,10.29,10.29,0,0,1-1.7.1l-3.2-.1h-.7c-.5,0-.7.1-.7.3s.4.5,1.3.6a2.26,2.26,0,0,1,1.3.6,8.82,8.82,0,0,1,1.2,2.3l1.4,3.2,1.5,3.5c0,.1.2.4.4,1l-2.9,6.7-.1.2a2.23,2.23,0,0,1-.3.5c-.1,0-.2-.1-.3-.4l-.2-.4a5.57,5.57,0,0,1-.4-.8l-1.6-3.6c-.3-.8-.9-2.1-1.7-4.1s-1.4-3.5-1.8-4.3a13.77,13.77,0,0,1-1.2-3.6c0-.4.3-.8,1.1-1,.2-.1.4-.2.4-.4s-.2-.4-.5-.4a5.13,5.13,0,0,0-1,.1H369a8.62,8.62,0,0,1-1.7-.1h-.4c-.3,0-.5.1-.5.4a.37.37,0,0,0,.4.4l.7.1a2.83,2.83,0,0,1,1.7,1.1,15.28,15.28,0,0,1,1.6,3.2l.4,1.1,6.9,16.5c.4.9.7,1.3,1,1.3s.4-.2.6-.7l4.2-9.9,4.1,9.7C388.2,84.27,388.4,84.47,388.7,84.47Z"/><path class="a" d="M417.7,82a4.55,4.55,0,0,0,1.2-2.6c0-.3-.1-.4-.3-.4a.54.54,0,0,0-.4.3c-1.2,2-4,2.9-8.4,2.9a4.87,4.87,0,0,1-2.6-.4c-.3-.2-.5-.8-.5-1.8v-6.6a.78.78,0,0,1,.3-.7,2.33,2.33,0,0,1,1.1-.2h3.7a3.32,3.32,0,0,1,2,.4,2.19,2.19,0,0,1,.8,1.5l.1.5a.43.43,0,0,0,.4.4c.2,0,.3-.1.3-.4v-.5a13.41,13.41,0,0,1-.1-2c0-.9,0-1.9.1-2.9v-.4c0-.3-.1-.4-.3-.4a.37.37,0,0,0-.4.4,2.73,2.73,0,0,1-.5,1.4,2.25,2.25,0,0,1-1.2.5,19.1,19.1,0,0,1-2.8.2h-2.6a1.44,1.44,0,0,1-.9-.2c-.1-.1-.1-.4-.1-.9v-6.7c0-.6.1-1,.3-1.1a1.88,1.88,0,0,1,1.3-.3h2.6a23.85,23.85,0,0,1,3.5.2,2,2,0,0,1,1.3,1,3.55,3.55,0,0,1,.2,1v.4c0,.3.1.5.3.5s.3-.1.4-.3a7.08,7.08,0,0,0,.2-1.2l.1-1a9.29,9.29,0,0,0,.1-1.3c0-.2.1-.3.1-.4,0-.3-.2-.5-.6-.5a2.25,2.25,0,0,0-.7.1,8.33,8.33,0,0,0-1.2.1l-2.4.1c-1,0-2.2.1-3.6.1a46.72,46.72,0,0,1-5.7-.3,4.91,4.91,0,0,0-1.1-.1c-.5,0-.7.2-.7.5s.2.3.5.3a2.22,2.22,0,0,1,2,.8,7.48,7.48,0,0,1,.5,3.2v15.2c0,1.3-.4,2.1-1.2,2.3l-.6.2c-.3.1-.4.2-.4.4a.46.46,0,0,0,.5.4,3.87,3.87,0,0,0,.9-.1,35.17,35.17,0,0,1,4.1-.2c1.4,0,3.1.1,5.3.3.5,0,1,.1,1.3.1A4.64,4.64,0,0,0,417.7,82Z"/><path class="a" d="M443,60.47a2.49,2.49,0,0,0-.8.1,7.59,7.59,0,0,1-1.6.1,27.26,27.26,0,0,1-3.1-.1h-.7c-.3,0-.5.1-.5.3a.46.46,0,0,0,.5.4,5.47,5.47,0,0,1,2.4.9,3.37,3.37,0,0,1,.8,2l.2,3.8v10.4c0,.2-.1.3-.2.3s-.2-.1-.5-.4l-15.3-17.4a1.46,1.46,0,0,0-.8-.5h-3c-.2,0-.4.1-.4.3s.1.3.4.4A3.4,3.4,0,0,1,423,63a9.45,9.45,0,0,1,.9,4.5V79a5.39,5.39,0,0,1-.5,2.6,3.55,3.55,0,0,1-1.9,1.3c-.3.1-.5.2-.5.4s.2.3.5.3a1.76,1.76,0,0,0,.6-.1,4.87,4.87,0,0,1,1.2-.1h.8l1.7.1c.8,0,1.3.1,1.5.1h.5a.27.27,0,0,0,.3-.3.46.46,0,0,0-.5-.4,3.11,3.11,0,0,1-1.8-.6,2.62,2.62,0,0,1-.6-1.5l-.1-1.2v-12c0-.5.1-.8.3-.8s.2,0,.2.1l.2.2,14.1,16.1.4.4c.1.1.2.1.4.1s.4-.1.5-.4a11.07,11.07,0,0,0,.1-2.3V64.07a5.39,5.39,0,0,1,.3-2.2,1.74,1.74,0,0,1,1.3-.8q.3-.15.3-.3C443.5,60.67,443.3,60.47,443,60.47Z"/><path class="a" d="M465.7,62.07a2.53,2.53,0,0,0-.2-1.2,2,2,0,0,0-1.1-.2H446.5a1,1,0,0,0-.7.2,2.15,2.15,0,0,0-.2,1,19.08,19.08,0,0,1-.2,2,10.51,10.51,0,0,0-.2,1.3c0,.3.1.4.3.4s.4-.2.4-.6a3.38,3.38,0,0,1,.9-2,2.83,2.83,0,0,1,2-.5h4.4a.8.8,0,0,1,1,1v16.9c0,.9-.1,1.6-.5,1.9a2.45,2.45,0,0,1-1.7.7c-.4,0-.5.2-.5.3a.46.46,0,0,0,.5.4,6.61,6.61,0,0,0,1.1-.1c.3,0,.7-.1,1.2-.1h2.5a5,5,0,0,1,1.5.1,3.22,3.22,0,0,0,.8.1c.3,0,.5-.1.5-.4s-.2-.3-.6-.4a2.3,2.3,0,0,1-2.2-2.3V63.47a1.85,1.85,0,0,1,.2-1,1.44,1.44,0,0,1,.9-.2h4.7a3,3,0,0,1,1.9.4,2.34,2.34,0,0,1,.7,1.5c.1.4.2.5.4.5a.35.35,0,0,0,.3-.5,2.81,2.81,0,0,0-.1-.8C465.8,63.17,465.7,62.77,465.7,62.07Z"/><path class="a" d="M487.7,60.67a3.45,3.45,0,0,0-.9.1c-.3,0-1,.1-2.2.1a11.66,11.66,0,0,1-2.3-.1,3.45,3.45,0,0,0-.9-.1c-.2,0-.4.1-.4.3s.1.3.4.4c1.4.3,2.1.9,2.1,1.6a7,7,0,0,1-1.2,2.5l-.8,1.3-2.4,3.7-.2.2c-.1.2-.2.2-.3.2s-.2-.1-.3-.2l-.2-.3-3.5-5.5-.5-.8a3.69,3.69,0,0,1-.7-1.6c0-.5.4-.9,1.1-1.1.3-.1.4-.2.4-.4s-.2-.3-.5-.3a4.4,4.4,0,0,0-.9.1c-.5,0-1.5.1-3.1.1a17.71,17.71,0,0,1-2.3-.1c-.3,0-.6-.1-.8-.1s-.5.1-.5.4.2.3.5.3a4.07,4.07,0,0,1,1.8.5,4.36,4.36,0,0,1,1.4,1.3l.6.9,4.6,7.4a5.89,5.89,0,0,1,.7,1.4,5.67,5.67,0,0,1,.2,1.6v5.7a3.84,3.84,0,0,1-.4,2.3c-.2.4-.8.6-1.8.7-.4.1-.5.2-.5.4s.1.3.4.3a1.76,1.76,0,0,0,.6-.1c.3,0,.8-.1,1.7-.1h1.3l1.3.1c.5,0,.9.1,1.2.1a3.87,3.87,0,0,0,.9.1c.4,0,.6-.1.6-.4s-.2-.3-.5-.3q-1.5-.15-1.8-.6a5.57,5.57,0,0,1-.3-2.4v-7a3.19,3.19,0,0,1,.6-1.7l.4-.6,4.1-6,1.1-1.6a5.78,5.78,0,0,1,2.5-1.9c.3-.1.4-.2.4-.4C488.1,60.67,488,60.57,487.7,60.67Z"/><path class="a" d="M496.7,70.17a37.08,37.08,0,0,1-4-1.5,5.8,5.8,0,0,1-1.5-1.3,4.07,4.07,0,0,1-.8-2.4,3.22,3.22,0,0,1,1.2-2.6,4.43,4.43,0,0,1,3-1.1,7.3,7.3,0,0,1,4.1,1.2,5.78,5.78,0,0,1,2.4,3c.2.5.4.8.5.8a.46.46,0,0,0,.4-.5,2.64,2.64,0,0,0-.1-.7l-.3-1.7c-.1-.9-.2-1.5-.2-1.7,0-.6-.1-.8-.4-.8-.1,0-.2,0-.2.1l-.2.2a.76.76,0,0,1-.4.2.37.37,0,0,1-.3-.1l-1.1-.5a8.53,8.53,0,0,0-3-.5,8.12,8.12,0,0,0-5.2,1.7,5.56,5.56,0,0,0-2,4.4,5.28,5.28,0,0,0,1.5,3.9,15.26,15.26,0,0,0,5.2,2.8c2.4.8,3.8,1.4,4.3,1.9a3.88,3.88,0,0,1,1.5,3.1,4.07,4.07,0,0,1-1.6,3.3,6,6,0,0,1-3.9,1.4,7.29,7.29,0,0,1-4.2-1.4,6.22,6.22,0,0,1-2.5-3.5c-.2-.5-.3-.8-.5-.8s-.3.2-.3.5a8,8,0,0,0,.4,2.1,8,8,0,0,1,.4,1.5,5,5,0,0,0,.3,1.2c.1.1.2.3.4.4a9.08,9.08,0,0,0,2.3.9,15.69,15.69,0,0,0,2.8.4,8.51,8.51,0,0,0,5.8-2,6.47,6.47,0,0,0,2.3-5.1C502.9,73.77,500.8,71.57,496.7,70.17Z"/><path class="a" d="M525.2,62.07a2.53,2.53,0,0,0-.2-1.2,2,2,0,0,0-1.1-.2H506a1,1,0,0,0-.7.2,2.15,2.15,0,0,0-.2,1,8.79,8.79,0,0,1-.3,2,10.51,10.51,0,0,0-.2,1.3c0,.3.1.4.3.4s.4-.2.4-.6a3.38,3.38,0,0,1,.9-2,2.83,2.83,0,0,1,2-.5h4.4a.8.8,0,0,1,1,1v16.9c0,.9-.1,1.6-.5,1.9a2.45,2.45,0,0,1-1.7.7c-.4,0-.5.2-.5.3a.46.46,0,0,0,.5.4,6.61,6.61,0,0,0,1.1-.1c.3,0,.7-.1,1.2-.1h2.5a5,5,0,0,1,1.5.1,3.22,3.22,0,0,0,.8.1c.3,0,.5-.1.5-.4s-.2-.3-.6-.4a2.3,2.3,0,0,1-2.2-2.3V63.47a1.85,1.85,0,0,1,.2-1,1.44,1.44,0,0,1,.9-.2H522a3,3,0,0,1,1.9.4,2.34,2.34,0,0,1,.7,1.5c.1.4.2.5.4.5a.46.46,0,0,0,.4-.5,2.81,2.81,0,0,0-.1-.8A3.8,3.8,0,0,1,525.2,62.07Z"/><path class="a" d="M538.8,60.27a13.72,13.72,0,0,0-4.9.9,12.37,12.37,0,0,0-4,2.5,11.23,11.23,0,0,0-2.4,3.8,12.16,12.16,0,0,0-.9,4.6,11.33,11.33,0,0,0,12,11.9,11.38,11.38,0,0,0,8.6-3.4,12.16,12.16,0,0,0,3.4-8.7,11.15,11.15,0,0,0-3.3-8.3A11.61,11.61,0,0,0,538.8,60.27Zm6.9,19.8a8.13,8.13,0,0,1-6.4,2.8,9,9,0,0,1-7.1-3.5,12.87,12.87,0,0,1-2.9-8.5,10.35,10.35,0,0,1,2.3-7,7.85,7.85,0,0,1,6.1-2.6,9.71,9.71,0,0,1,7.5,3.3,11.93,11.93,0,0,1,3,8.3A10,10,0,0,1,545.7,80.07Z"/><path class="a" d="M538,58.77a2.56,2.56,0,0,0,1.2-.7l2.2-2.4.3-.3a.55.55,0,0,0,.2-.5c0-.4-.2-.6-.7-.6a4.2,4.2,0,0,0-1.5.1c-.2,0-.3.2-.4.4l-.4.9a13.32,13.32,0,0,0-.6,1.4l-.3.8a3.94,3.94,0,0,0-.2.6C537.7,58.67,537.8,58.77,538,58.77Z"/><path class="a" d="M585.1,60.47a3.22,3.22,0,0,0-.8.1,14.17,14.17,0,0,1-2.3.1h-2.3c-.3,0-.5.1-.5.3s.3.4.8.5c.9.2,1.4.6,1.4,1.1s-.6,2.5-1.9,5.8-2.6,6.6-4.1,9.8c-.2.4-.3.8-.4.9-.2.5-.4.8-.5.8s-.4-.4-.8-1.3l-3.3-7.9,2.7-6.5a13.83,13.83,0,0,1,1.1-2.2,1.46,1.46,0,0,1,.9-.6c.4-.1.6-.3.6-.4,0-.3-.2-.4-.5-.4a2.25,2.25,0,0,0-.7.1c-.4,0-.9.1-1.6.1h-2.3q-.6,0-.6.3c0,.3.3.4.8.5.7.1,1.1.5,1.1,1,0,.9-.6,2.7-1.9,5.6a3.39,3.39,0,0,0-.3.8l-1.8-4.2a5.67,5.67,0,0,1-.6-2.1c0-.5.3-.8.8-1.1.4-.1.5-.3.5-.5s-.2-.4-.6-.4a2.25,2.25,0,0,0-.7.1,10.29,10.29,0,0,1-1.7.1l-3.2-.1h-.7c-.5,0-.7.1-.7.3s.4.5,1.3.6a2.26,2.26,0,0,1,1.3.6,8.82,8.82,0,0,1,1.2,2.3l1.4,3.2,1.5,3.5c0,.1.2.4.4,1L565.2,79l-.1.2a2.23,2.23,0,0,1-.3.5c-.1,0-.2-.1-.3-.4l-.2-.4a5.57,5.57,0,0,1-.4-.8l-1.6-3.6c-.3-.8-.9-2.1-1.7-4.1s-1.4-3.5-1.8-4.3a13.77,13.77,0,0,1-1.2-3.6c0-.4.3-.8,1.1-1,.2-.1.4-.2.4-.4s-.2-.4-.5-.4a5.13,5.13,0,0,0-1,.1h-3.5a8.62,8.62,0,0,1-1.7-.1H552c-.3,0-.5.1-.5.4a.37.37,0,0,0,.4.4l.7.1a2.83,2.83,0,0,1,1.7,1.1,15.28,15.28,0,0,1,1.6,3.2l.4,1.1,6.9,16.5c.4.9.7,1.3,1,1.3s.4-.2.6-.7l4.2-9.9,4.1,9.7c.2.5.5.8.7.8s.6-.3.9-.9l.2-.5.4-.9.8-1.8,1.3-3.2,2-4.5c.4-1,1.1-2.5,1.9-4.4s1.4-3.2,1.8-4l.9-2a2,2,0,0,1,1-1c.3-.1.5-.3.5-.5C585.5,60.57,585.4,60.47,585.1,60.47Z"/><path class="a" d="M43.8,93.67,16,98.57,0,120.67l38.3-6.8c11.5-2,21.6-2.4,24.7,6.7v-15H55.6v-5.3h7.5V100C63.1,94.67,60.6,90.77,43.8,93.67Z"/><path class="a" d="M87.4,93.67l-6.1,6.1c-8.7,8.7-13,13.7-13,20.9,3.3-9.6,13.9-8.7,26.4-6.3l36.8,6.3-16-22.1Z"/><path class="a" d="M82,85.67c-3.4,3.4-9.3,8.8-12.1,14.8h6.2l7.1-7.1c6.5-6.5,11.6-11.5,13.7-17.8a23.53,23.53,0,0,0,1.2-11.4,8.76,8.76,0,0,0-.7-2.6c-.6,7.1-2.6,11.4-12.9,21.7Z"/><path class="a" d="M62.7,42.07c3.8-3.8,13.4-12.4,13.4-19.8v-8.2c0-.1-.2-.1-.2,0-.7,5.5-2,7.9-15.5,21.5L47.1,49C40,56.07,34.3,63.57,35,72c.4,4.7,2,7.3,3,8,.5.4.4.1.3-.2-4.1-9.2,5.6-18.8,10.5-23.6Z"/><path class="a" d="M76,28.17c0-.1-.2-.1-.2,0-.7,5.5-2,7.9-15.5,21.5L47.9,62c-4.5,4.5-8.6,9.2-8.4,16.9.1,4.7,2.5,8.5,6,9.5,1.5.3,1.4.1,1,0C41.5,86,41.9,77,49.9,69l12.7-12.7c3.8-3.8,13.4-12.4,13.4-19.8Z"/><path class="a" d="M34.2,65.37c.6-7.1,2.6-11.4,12.9-21.7l15.6-15.6c3.8-3.8,13.4-12.4,13.4-19.8V.07c0-.1-.2-.1-.2,0-.7,5.5-2,7.9-15.5,21.5l-12,12c-6.5,6.5-11.6,11.5-13.7,17.8a23.53,23.53,0,0,0-1.2,11.4C33.6,64,34.2,65.77,34.2,65.37Z"/><path class="a" d="M68.3,114c0,.1.2.1.2,0a18,18,0,0,1,3.2-8.2H68.3V114Z"/><path class="a" d="M84.5,69.17l-3.9,3.9c-6.1,6-12.2,12.8-12.2,19v8.3c0,.1.2.1.2,0,.7-6.1,3.6-10,12.4-18.8l3.6-3.7c7.1-7.1,12.8-14.6,12.1-23-.4-4.7-2-7.3-3-8-.5-.4-.4-.1-.3.2C97.4,56.47,87.6,66.07,84.5,69.17Z"/><path class="a" d="M68.3,86.07c0,.1.2.1.2,0,.7-5.8,4-10.2,11.5-17.7l3.6-3.6c4.5-4.5,8.6-9.2,8.4-16.8-.1-4.7-2.5-8.5-6-9.5-1.5-.3-1.4-.1-1,0,5,2.4,4.6,11.4-3.4,19.4l-4.4,4.4c-2.9,2.9-8.8,9.3-8.8,15.3v8.5Z"/><path class="a" d="M213.7,58.77a2.56,2.56,0,0,0,1.2-.7l2.2-2.4.3-.3a.55.55,0,0,0,.2-.5c0-.4-.2-.6-.7-.6a4.2,4.2,0,0,0-1.5.1c-.2,0-.3.2-.4.4l-.4.9a13.32,13.32,0,0,0-.6,1.4l-.3.8a3.94,3.94,0,0,0-.2.6C213.4,58.57,213.5,58.77,213.7,58.77Z"/><path class="a" d="M289.5,74.07v5.7a4.5,4.5,0,0,1-.4,2.3,2.36,2.36,0,0,1-1.6,1c-.3.1-.5.2-.5.4s.1.3.4.3a3.45,3.45,0,0,0,.9-.1,31.15,31.15,0,0,1,3.4-.2c1.2,0,2.3,0,3.4.1l1.8.1h1.2a5.82,5.82,0,0,0,4.7-1.8,5,5,0,0,0,1.1-2.4c0-.2-.1-.3-.2-.3s-.3.2-.5.5a4.8,4.8,0,0,1-2.9,2,17.27,17.27,0,0,1-5.4.7c-1.4,0-2.2-.1-2.5-.4s-.4-1-.4-2.4v-7.3c2.1-1.5,4-2.9,4-2.9s.6-.3.6-.8v-1.4s0-.5-.7,0c-.3.2-2,1.5-3.9,2.8v-5.5q0-2.55,1.5-3l.6-.1c.3-.1.5-.2.5-.5s-.1-.2-.4-.2h-.7a24.4,24.4,0,0,1-2.8.1,19.29,19.29,0,0,1-2.5-.1c-.4,0-.8-.1-1-.1-.4,0-.6.1-.6.4s.1.3.4.3l.7.2c1.2.2,1.8,1.1,1.8,2.6v7.7c-1.5,1.1-2.7,1.9-2.7,1.9a1.42,1.42,0,0,0-.5,1v1.1s-.1.7.8,0C287.4,75.57,288.4,74.87,289.5,74.07Z"/><path class="a" d="M133.7,111.87h0c-.3,0-.5-.2-.8-.6l-.1-.1L132,110a1.17,1.17,0,0,0,.7-1.1c0-.7-.5-1.1-1.5-1.1h-1.4c-.1,0-.1,0-.1.1s0,.1.1.1h.2c.2,0,.3.2.3.5V111c0,.3,0,.6-.1.7s-.2.2-.3.2a.1.1,0,0,0-.1.1c0,.1,0,.1.1.1h1.6c.1,0,.2,0,.1-.1s-.1-.1-.2-.1-.4-.1-.4-.2-.1-.2-.1-.5V110h.5c.1,0,.2,0,.2.1v.1l.8,1.2c.3.4.6.7,1,.7s.5-.1.5-.2Zm-2.4-2.1h-.6v-1.5c0-.2.1-.2.3-.2a1.14,1.14,0,0,1,.8.3.91.91,0,0,1,.3.7C132.2,109.47,131.9,109.77,131.3,109.77Z"/><path class="a" d="M131.5,106.17a3.69,3.69,0,0,0-2.9,6.1,3.47,3.47,0,0,0,2.9,1.3,4,4,0,0,0,2.7-1.1,3.69,3.69,0,0,0,1.1-2.7,4,4,0,0,0-1.1-2.7A4.39,4.39,0,0,0,131.5,106.17Zm2.4,6.1a3.1,3.1,0,0,1-2.4,1,3.25,3.25,0,0,1-2.4-1,3.1,3.1,0,0,1-1-2.4,3.25,3.25,0,0,1,1-2.4,3.1,3.1,0,0,1,2.4-1,3.25,3.25,0,0,1,2.4,1,3.1,3.1,0,0,1,1,2.4A3.49,3.49,0,0,1,133.9,112.27Z"/><path class="a" d="M592.6,57.77a3.69,3.69,0,0,0-2.7-1.1,3.69,3.69,0,0,0-2.9,6.1,3.47,3.47,0,0,0,2.9,1.3,4,4,0,0,0,2.7-1.1,3.69,3.69,0,0,0,1.1-2.7A3.21,3.21,0,0,0,592.6,57.77Zm-.3,5a3.1,3.1,0,0,1-2.4,1,3.25,3.25,0,0,1-2.4-1,3.1,3.1,0,0,1-1-2.4,3.25,3.25,0,0,1,1-2.4,3.1,3.1,0,0,1,2.4-1,3.25,3.25,0,0,1,2.4,1,3.1,3.1,0,0,1,1,2.4A3,3,0,0,1,592.3,62.77Z"/><path class="a" d="M592.2,62.37h0c-.3,0-.5-.2-.8-.6l-.1-.1-.8-1.2a1.17,1.17,0,0,0,.7-1.1c0-.7-.5-1.1-1.5-1.1h-1.4c-.1,0-.1,0-.1.1s0,.1.1.1h.2c.2,0,.3.2.3.5v2.5c0,.3,0,.6-.1.7s-.2.2-.3.2a.1.1,0,0,0-.1.1c0,.1,0,.1.1.1H590c.1,0,.2,0,.1-.1s-.1-.1-.2-.1-.4-.1-.4-.2-.1-.2-.1-.5v-1.2h.5c.1,0,.2,0,.2.1v.1l.8,1.2c.3.4.6.7,1,.7s.5-.1.5-.2C592.3,62.47,592.3,62.37,592.2,62.37Zm-2.4-2.1h-.6v-1.5c0-.2.1-.2.3-.2a1.14,1.14,0,0,1,.8.3.91.91,0,0,1,.3.7C590.6,60.07,590.3,60.27,589.8,60.27Z"/></svg>