<svg xmlns="http://www.w3.org/2000/svg" viewBox="0 0 464.5 302.98"><defs><style>.a{fill:#fff;}</style></defs><title>Asset 1</title><path class="a" d="M125,203.67v9.5c0,2,.3,3.3.8,3.9s1.8,1.1,3.7,1.4c.5.1.8.3.8.5s-.2.5-.6.5c-.2,0-.7-.1-1.4-.1a23.72,23.72,0,0,0-3.1-.1h-2.1l-1.8.1h-1.4a13.61,13.61,0,0,1-1.6.1q-.9,0-.9-.6c0-.3.3-.4.8-.5a2.43,2.43,0,0,0,2.2-1.5,12.67,12.67,0,0,0,.6-4.6v-22.1a8.69,8.69,0,0,0-.6-3.9,3.6,3.6,0,0,0-2.3-1.5l-1.3-.3c-.4-.1-.7-.3-.7-.5,0-.4.2-.5.7-.5a2.77,2.77,0,0,1,.9.1,38.74,38.74,0,0,0,4.2.2h1l1.9-.1h1.3a8.33,8.33,0,0,1,1.2-.1c.4,0,.6.1.6.5q0,.3-.6.6a4.12,4.12,0,0,0-2.1,1.6,9.37,9.37,0,0,0-.4,3.5v10.1c0,.4.1.5.2.5l.4-.3.4-.3,11.1-10c1.7-1.5,2.6-2.7,2.6-3.7,0-.8-.6-1.3-1.9-1.5-.8-.1-1.2-.3-1.2-.7s.3-.5.8-.5h.7a17.72,17.72,0,0,0,2.4.1l2.4.1h2a11.62,11.62,0,0,0,2.2-.1,3.22,3.22,0,0,1,.8-.1c.5,0,.7.2.8.5s-.4.5-1.2.7c-1.6.4-4.5,2.6-9,6.6l-8.9,8c-.4.3-.6.6-.6.8s.2.6.6,1.1l13.5,14.1a9.27,9.27,0,0,0,4.7,2.8l1.1.2c.4.1.6.3.6.5,0,.4-.3.6-.8.6h-.6a11,11,0,0,0-2.2-.1,12.22,12.22,0,0,0-2.2.1c-.5,0-.9.1-1.2.1a1.8,1.8,0,0,1-1.5-.7l-.4-.5-13.9-14.4-.5-.6a.86.86,0,0,0-.6-.3A1,1,0,0,0,125,203.67Z"/><path class="a" d="M163.9,206l5.3,7.9.6.9c1.7,2.4,3.2,3.7,4.6,3.8h.6a.27.27,0,0,1,.3.3c0,.2-.3.4-.9.5a5.84,5.84,0,0,1-1.9.2,4.8,4.8,0,0,1-3.1-1,10.83,10.83,0,0,1-2.8-3.1l-4.8-7.3-.3-.4a1.65,1.65,0,0,0-1.5-.8h-2.6l-.4.1c-.2.1-.2.3-.2.6v6.9a10.56,10.56,0,0,0,.2,2.3,2.1,2.1,0,0,0,.8,1.1,5.32,5.32,0,0,0,2.6.8c.5.1.7.2.7.4s-.2.4-.6.4a5.38,5.38,0,0,1-1.1-.1,15.63,15.63,0,0,0-2.5-.1H154a9.73,9.73,0,0,0-1.6.1,4.59,4.59,0,0,1-1,.1c-.3,0-.5-.1-.5-.4s.2-.3.5-.4a2.58,2.58,0,0,0,2-1.4,13.23,13.23,0,0,0,.5-4.4v-15.9c0-2-.7-3.1-2.1-3.4l-.9-.1c-.4-.1-.6-.2-.6-.5s.2-.4.7-.4a11.31,11.31,0,0,1,1.4.1c.5,0,1,.1,1.7.1s1.6,0,3-.1a26.23,26.23,0,0,1,2.7-.1c3,0,5.2.6,6.7,1.7a5.87,5.87,0,0,1,2.3,5C168.7,202.17,167.1,204.38,163.9,206Zm-5.6-.4h2.2a5.72,5.72,0,0,0,4-1.4,4.9,4.9,0,0,0,1.5-3.8,6,6,0,0,0-2-4.6,7.14,7.14,0,0,0-5-1.8,2.2,2.2,0,0,0-1.6.4,1.81,1.81,0,0,0-.4,1.4v8.5a2.87,2.87,0,0,0,.2,1.2A8,8,0,0,0,158.3,205.57Z"/><path class="a" d="M185,192.28a9.15,9.15,0,0,1,3.5.6l1.3.6a.37.37,0,0,0,.3.1c.2,0,.3-.1.5-.2l.3-.2c0-.1.1-.1.2-.1.3,0,.5.3.5.9,0,.2.1.9.2,2l.3,2a3.22,3.22,0,0,1,.1.8c0,.4-.1.6-.4.6s-.4-.3-.6-.9a7.2,7.2,0,0,0-2.8-3.5,8.72,8.72,0,0,0-4.8-1.4,5.31,5.31,0,0,0-3.5,1.2,4,4,0,0,0-1.4,3.1,4.47,4.47,0,0,0,.9,2.8,4.73,4.73,0,0,0,1.7,1.5,47.58,47.58,0,0,0,4.6,1.7c4.8,1.6,7.1,4.1,7.1,7.7a7.58,7.58,0,0,1-2.6,5.9,10.08,10.08,0,0,1-6.7,2.3,13.47,13.47,0,0,1-3.3-.4,7.37,7.37,0,0,1-2.6-1c-.2-.2-.4-.3-.5-.5a4.91,4.91,0,0,1-.3-1.3c0-.1-.2-.7-.5-1.8a13.18,13.18,0,0,1-.5-2.5c0-.4.1-.6.4-.6s.4.3.6.9a7.58,7.58,0,0,0,2.9,4,8,8,0,0,0,4.9,1.6,6.37,6.37,0,0,0,4.5-1.6,4.79,4.79,0,0,0,.1-7.4,20.31,20.31,0,0,0-5-2.1c-2.9-1-4.9-2-6.1-3.2a6.18,6.18,0,0,1-1.8-4.6,6.47,6.47,0,0,1,2.3-5.1A10.38,10.38,0,0,1,185,192.28Zm-2.7-7.2a.86.86,0,0,1,.6.3l.4.5.7.7.8.9.6.6c.2.2.3.3.4.3s.8-.8,1.9-2.3q.6-.9.9-.9a2.54,2.54,0,0,1,.7.2c.2.2.3.3.3.4s-.1.3-.2.5l-.7.8-1.7,2.2c-.4.5-.6.8-.8.9a2,2,0,0,1-.9.2,3,3,0,0,1-1-.2,3.53,3.53,0,0,1-1-.9l-1.8-2a9.56,9.56,0,0,1-1.1-1.3c0-.2.2-.4.5-.5l.9-.3A4.33,4.33,0,0,1,182.3,185.07Z"/><path class="a" d="M220.4,195.07l.6,4.6.1.5-.1.2c-.1.1-.2.2-.3.2s-.4-.3-.7-.8c-2.4-4.2-5.7-6.3-9.8-6.3a10.25,10.25,0,0,0-7.8,3c-1.9,2-2.8,4.8-2.8,8.3a15.28,15.28,0,0,0,3.2,9.9,9.86,9.86,0,0,0,8.1,3.8,11.22,11.22,0,0,0,5.7-1.6,8.45,8.45,0,0,0,3.9-3.8c.3-.7.6-1,.8-1s.3.1.3.4v.2l-.1.4-.4,2.4-.1.3a2,2,0,0,1-.9,1,18,18,0,0,1-9.8,2.8c-4.2,0-7.5-1.2-10-3.7a13.11,13.11,0,0,1-3.8-9.7,13.64,13.64,0,0,1,3.9-10,13.11,13.11,0,0,1,9.9-4,16,16,0,0,1,7.5,1.8l.8.4.3.1.3.1c.1,0,.2-.1.3-.2a1.55,1.55,0,0,1,.6-.3A6.22,6.22,0,0,1,220.4,195.07Z"/><path class="a" d="M238.6,209.17h-7a5.73,5.73,0,0,0-1.8.2,6.13,6.13,0,0,0-.9,1.6l-1.3,2.8a8.11,8.11,0,0,0-.9,2.9,1.73,1.73,0,0,0,.5,1.3,3.9,3.9,0,0,0,1.8.7c.4.1.6.2.6.5s-.2.3-.5.3h-.7l-1.9-.1h-3a7.47,7.47,0,0,1-1.1.1c-.3,0-.5-.1-.5-.4s.1-.4.3-.4l.7-.2a2.57,2.57,0,0,0,1-.9,9.91,9.91,0,0,0,1.1-1.7l.6-1.3,9.9-22.1q.3-.6.6-.6c.2,0,.4.2.5.6l8.3,21.3.4,1a8.92,8.92,0,0,0,1.5,2.9,4.59,4.59,0,0,0,2.4.9c.4.1.6.2.6.5s-.2.3-.5.3h-.7a32.41,32.41,0,0,0-3.6-.1,25.66,25.66,0,0,0-3.4.1,3.54,3.54,0,0,0-.6.1c-.3,0-.5-.1-.5-.4s.2-.3.5-.4l.6-.1a1.22,1.22,0,0,0,1-1.3,15.09,15.09,0,0,0-1.2-4.1l-1-2.6a5.91,5.91,0,0,0-.6-1.2C239.8,209.17,239.4,209.17,238.6,209.17Zm.3-3.2-3-7.7-.2-.4c-.2-.4-.3-.6-.5-.6s-.2.1-.3.4l-3.8,8.4a2.6,2.6,0,0,0-.3.7c0,.3.3.5.9.5H238c.6,0,1-.2,1-.5a.76.76,0,0,0-.1-.4Z"/><path class="a" d="M274.3,200.28v16.2a15.73,15.73,0,0,1-.1,2.7c-.1.3-.2.5-.5.5a.52.52,0,0,1-.4-.2l-.4-.5-16.3-18.6-.2-.2a.37.37,0,0,0-.3-.1c-.2,0-.4.3-.4.9v13.9l.1,1.4a2.74,2.74,0,0,0,.7,1.8,3.58,3.58,0,0,0,2.1.7c.4,0,.6.2.6.5s-.1.4-.4.4h-.6a15.44,15.44,0,0,0-1.7-.1l-2-.1h-.9a6.15,6.15,0,0,0-1.4.1,5.64,5.64,0,0,0-.7.1c-.3,0-.5-.1-.5-.4s.2-.3.5-.5a4.26,4.26,0,0,0,2.2-1.5,5.62,5.62,0,0,0,.6-3v-13.2a11.3,11.3,0,0,0-1.1-5.3,3.94,3.94,0,0,0-3.1-2.2.46.46,0,0,1-.5-.4.37.37,0,0,1,.4-.4h3.4c.3,0,.6.2,1,.6l17.8,20.1.5.5c.1,0,.2-.1.2-.4v-12.2l-.2-4.4a2.94,2.94,0,0,0-1-2.3,5,5,0,0,0-2.8-1c-.4-.1-.6-.2-.6-.5s.2-.4.6-.4a2.81,2.81,0,0,1,.8.1c.9.1,2.1.1,3.6.1a10.32,10.32,0,0,0,1.9-.1,3.44,3.44,0,0,1,.9-.1c.3,0,.5.1.5.4s-.1.3-.4.4a2.36,2.36,0,0,0-1.6,1,5.14,5.14,0,0,0-.4,2.5v2.1Z"/><path class="a" d="M288.6,192.28a9.15,9.15,0,0,1,3.5.6l1.3.6a.37.37,0,0,0,.3.1c.2,0,.3-.1.5-.2l.3-.2c0-.1.1-.1.2-.1.3,0,.5.3.5.9a18.76,18.76,0,0,0,.3,2l.3,2a3.22,3.22,0,0,1,.1.8c0,.4-.1.6-.4.6s-.4-.3-.6-.9a7.2,7.2,0,0,0-2.8-3.5,8.72,8.72,0,0,0-4.8-1.4,5.31,5.31,0,0,0-3.5,1.2,4,4,0,0,0-1.4,3.1,4.47,4.47,0,0,0,.9,2.8,4.73,4.73,0,0,0,1.7,1.5,47.58,47.58,0,0,0,4.6,1.7c4.8,1.6,7.1,4.1,7.1,7.7a7.58,7.58,0,0,1-2.6,5.9,10.08,10.08,0,0,1-6.7,2.3,13.47,13.47,0,0,1-3.3-.4,7.37,7.37,0,0,1-2.6-1c-.2-.2-.4-.3-.5-.5a4.91,4.91,0,0,1-.3-1.3c0-.1-.2-.7-.5-1.8a13.18,13.18,0,0,1-.5-2.5c0-.4.1-.6.4-.6s.4.3.6.9a7.58,7.58,0,0,0,2.9,4,8,8,0,0,0,4.9,1.6,6.37,6.37,0,0,0,4.5-1.6,4.79,4.79,0,0,0,.1-7.4,20.31,20.31,0,0,0-5-2.1c-2.9-1-4.9-2-6.1-3.2a6.18,6.18,0,0,1-1.8-4.6,6.47,6.47,0,0,1,2.3-5.1A10.29,10.29,0,0,1,288.6,192.28Z"/><path class="a" d="M306.3,207.67v7.1c0,1.5.2,2.5.6,2.9a4.91,4.91,0,0,0,2.7,1.1c.4.1.6.2.6.4s-.1.4-.5.4a4.59,4.59,0,0,1-1-.1c-.4,0-1.2-.1-2.3-.1h-4a8.33,8.33,0,0,1-1.2.1c-.4,0-.6-.2-.6-.5s.2-.3.6-.4a2.1,2.1,0,0,0,1.7-1.1,9,9,0,0,0,.5-3.4v-16.5a6.85,6.85,0,0,0-.4-2.9,2.69,2.69,0,0,0-1.7-1.1l-.9-.2c-.3-.1-.5-.2-.5-.4s.2-.4.5-.4a2,2,0,0,1,.7.1,25.45,25.45,0,0,0,3.1.1h3.2a4.4,4.4,0,0,1,.9-.1c.3,0,.5.1.5.4s-.2.3-.5.5a2.38,2.38,0,0,0-1.5,1.2,7.16,7.16,0,0,0-.3,2.6v7.5c0,.3.1.4.2.4l.3-.2.3-.2,8.3-7.4c1.3-1.1,1.9-2,1.9-2.7s-.5-1-1.4-1.1c-.6-.1-.9-.3-.9-.5s.2-.4.6-.4h.5c.5,0,1.2.1,1.8.1H323a3.54,3.54,0,0,0,.6-.1.55.55,0,0,1,.6.4c0,.2-.3.4-.9.5-1.2.3-3.4,1.9-6.7,4.9l-6.6,6c-.3.3-.4.5-.4.6a1,1,0,0,0,.5.8l10.1,10.5a7.17,7.17,0,0,0,3.5,2.1l.9.2c.3.1.4.2.4.4s-.2.5-.6.4h-.5c-.2,0-.8-.1-1.7-.1h-2.6a1.61,1.61,0,0,1-1.1-.5l-.3-.4-10.4-10.7-.4-.4c-.2-.1-.3-.2-.5-.2C306.4,207.17,306.3,207.38,306.3,207.67Z"/><path class="a" d="M340,209.17h-7a5.73,5.73,0,0,0-1.8.2,6.13,6.13,0,0,0-.9,1.6l-1.3,2.8a8.11,8.11,0,0,0-.9,2.9,1.73,1.73,0,0,0,.5,1.3,3.9,3.9,0,0,0,1.8.7c.4.1.6.2.6.5s-.2.3-.5.3h-.7l-1.9-.1h-3a7.47,7.47,0,0,1-1.1.1c-.3,0-.5-.1-.5-.4s.1-.4.3-.4l.7-.2a2.57,2.57,0,0,0,1-.9,9.91,9.91,0,0,0,1.1-1.7l.6-1.3,9.9-22.1q.3-.6.6-.6c.2,0,.4.2.5.6l8.3,21.3.4,1a8.92,8.92,0,0,0,1.5,2.9,4.59,4.59,0,0,0,2.4.9c.4.1.6.2.6.5s-.2.3-.5.3H350a32.41,32.41,0,0,0-3.6-.1,25.66,25.66,0,0,0-3.4.1,3.54,3.54,0,0,0-.6.1c-.3,0-.5-.1-.5-.4s.2-.3.5-.4l.6-.1a1.22,1.22,0,0,0,1-1.3,15.09,15.09,0,0,0-1.2-4.1l-1-2.6a5.91,5.91,0,0,0-.6-1.2C341.1,209.17,340.7,209.17,340,209.17Zm.2-3.2-3-7.7-.2-.4c-.2-.4-.3-.6-.5-.6s-.2.1-.3.4l-3.8,8.4a2.6,2.6,0,0,0-.3.7c0,.3.3.5.9.5h6.3c.6,0,1-.2,1-.5a.76.76,0,0,0-.1-.4Z"/><path class="a" d="M197.3,280.28l.6,4.2.1.4-.1.2c-.1.1-.1.2-.3.2s-.3-.2-.6-.7c-2.2-3.8-5.1-5.7-8.8-5.7a9.27,9.27,0,0,0-7,2.7,10.37,10.37,0,0,0-2.5,7.4,13.27,13.27,0,0,0,2.8,8.8,9,9,0,0,0,7.3,3.4,10.89,10.89,0,0,0,5.1-1.4,7.69,7.69,0,0,0,3.5-3.4c.3-.6.5-.9.7-.9a.27.27,0,0,1,.3.3v.2l-.1.4-.4,2.1-.1.3c0,.3-.3.6-.8.9a16.08,16.08,0,0,1-8.8,2.5,12.48,12.48,0,0,1-9-3.3,11.45,11.45,0,0,1-3.4-8.7,12.53,12.53,0,0,1,3.5-9,12,12,0,0,1,8.9-3.6,15,15,0,0,1,6.7,1.6l.7.4.3.1.3.1c.1,0,.1,0,.3-.1s.4-.3.5-.3A1.22,1.22,0,0,1,197.3,280.28Z"/><path class="a" d="M213,290l4.8,7,.6.8c1.5,2.2,2.8,3.3,4.1,3.4h.6c.2,0,.3.1.3.2s-.3.3-.8.5a8.81,8.81,0,0,1-1.7.2,4.68,4.68,0,0,1-2.8-.9,10.05,10.05,0,0,1-2.5-2.8l-4.3-6.6-.2-.4a1.36,1.36,0,0,0-1.3-.7h-2.3l-.4.1a.85.85,0,0,0-.2.6v6.1a9.27,9.27,0,0,0,.1,2,1.69,1.69,0,0,0,.7,1,4.47,4.47,0,0,0,2.3.7c.4,0,.6.2.6.4s-.2.3-.6.3a4.59,4.59,0,0,1-1-.1,12.84,12.84,0,0,0-2.2-.1h-2.6a7.08,7.08,0,0,0-1.4.1,7.75,7.75,0,0,0-.9.1c-.3,0-.4-.1-.4-.4s.1-.3.4-.3a2.31,2.31,0,0,0,1.8-1.3,11.66,11.66,0,0,0,.4-3.9v-14.2c0-1.8-.6-2.8-1.9-3l-.8-.1c-.4-.1-.6-.2-.6-.4s.2-.4.6-.4a8.33,8.33,0,0,1,1.2.1c.4,0,.9.1,1.5.1s1.4,0,2.7-.1a20.93,20.93,0,0,1,2.4-.1q4.05,0,6,1.5a5.35,5.35,0,0,1,2,4.5C217.3,286.57,215.8,288.57,213,290Zm-5.1-.3h2a5.22,5.22,0,0,0,3.6-1.2,4.38,4.38,0,0,0,1.3-3.4A5.1,5.1,0,0,0,213,281a6.37,6.37,0,0,0-4.5-1.6,2.21,2.21,0,0,0-1.4.3c-.3.2-.4.6-.4,1.2v7.6a.92.92,0,0,0,1.2,1.2Z"/><path class="a" d="M229.9,291.47v6.3a4.85,4.85,0,0,0,.5,2.6,5.47,5.47,0,0,0,2.5,1c.3.1.5.2.5.4s-.1.3-.4.3a3.44,3.44,0,0,1-.9-.1c-.4,0-1.1-.1-2.1-.1h-3.5a6.73,6.73,0,0,1-1,.1c-.4,0-.6-.1-.6-.4s.2-.3.5-.3a1.82,1.82,0,0,0,1.5-1,7.64,7.64,0,0,0,.4-3.1v-14.7a5.61,5.61,0,0,0-.4-2.6,2.38,2.38,0,0,0-1.5-1l-.8-.2c-.3-.1-.4-.2-.4-.4a.46.46,0,0,1,.5-.4,1.27,1.27,0,0,1,.6.1,20.24,20.24,0,0,0,2.8.1h2.8a3.78,3.78,0,0,0,.8-.1c.3,0,.4.1.4.3s-.1.3-.4.4a2.75,2.75,0,0,0-1.4,1.1,6.24,6.24,0,0,0-.3,2.4v6.7c0,.2.1.4.2.4l.3-.2.3-.2,7.4-6.7c1.1-1,1.7-1.8,1.7-2.4s-.4-.9-1.2-1c-.5-.1-.8-.2-.8-.4a.46.46,0,0,1,.5-.4h.5c.5,0,1,.1,1.6.1h4.3a2,2,0,0,0,.5-.1c.3,0,.5.1.5.3s-.3.3-.8.5c-1,.3-3,1.7-6,4.4l-5.9,5.4a.72.72,0,0,0-.4.6c0,.2.1.4.4.7l9,9.4a6.89,6.89,0,0,0,3.1,1.9l.8.2c.3.1.4.2.4.3,0,.3-.2.4-.5.4h-.4c-.2,0-.7-.1-1.5-.1h-2.3a1.39,1.39,0,0,1-1-.5l-.3-.3-9.3-9.6-.3-.4a.76.76,0,0,0-.4-.2C230,291.07,229.9,291.28,229.9,291.47Z"/><path class="a" d="M252,282.38l6.7,15.3c.2.4.3.6.4.6s.3-.3.6-1l.3-.6,3.8-9q2.4-5.85,2.4-7.5a1,1,0,0,0-.3-.8,1.93,1.93,0,0,0-1.1-.4c-.6-.1-1-.3-1-.5s.2-.3.6-.3h.5a11.92,11.92,0,0,1,1.5.1h3.4a.27.27,0,0,1,.3.3c0,.2-.1.3-.4.4a3.42,3.42,0,0,0-1.9,2l-.5,1.1-8.6,20.1c-.2.6-.5.8-.7.8s-.5-.3-.7-.9l-8.8-20.3a11.07,11.07,0,0,0-1.1-2,2.1,2.1,0,0,0-1.4-.7c-.6-.1-1-.2-1.1-.2s-.2-.1-.2-.3.2-.3.5-.3h5a5.38,5.38,0,0,0,1.1-.1h.5c.3,0,.5.1.5.3s-.1.3-.3.4a4.13,4.13,0,0,0-.9.4.85.85,0,0,0-.2.6A8.6,8.6,0,0,1,252,282.38Z"/><path class="a" d="M281,292.88h-6.3a4.23,4.23,0,0,0-1.6.2,3.07,3.07,0,0,0-.8,1.4l-1.1,2.5a7.92,7.92,0,0,0-.8,2.6,1.59,1.59,0,0,0,.4,1.2,3.54,3.54,0,0,0,1.6.6c.3.1.5.2.5.4s-.2.3-.5.3h-.6l-1.7-.1h-2.7a5.81,5.81,0,0,1-1,.1c-.3,0-.5-.1-.5-.3s.1-.3.3-.4l.6-.2a5.06,5.06,0,0,0,.9-.8,13,13,0,0,0,1-1.5l.5-1.1,8.9-19.8c.1-.3.3-.5.5-.5s.3.2.5.5l7.4,19.1.4.9a8.38,8.38,0,0,0,1.3,2.6,5.33,5.33,0,0,0,2.2.8c.4.1.5.2.5.4s-.2.3-.5.3h-.7a25.53,25.53,0,0,0-3.2-.1,19.58,19.58,0,0,0-3,.1,4.33,4.33,0,0,0-.5.1c-.3,0-.4-.1-.4-.4s.1-.3.4-.4l.5-.1a1,1,0,0,0,.9-1.2,11.59,11.59,0,0,0-1.1-3.7l-.9-2.3c-.2-.6-.4-1-.6-1.1C282.1,292.88,281.7,292.88,281,292.88Zm.2-2.8-2.7-6.9-.1-.4c-.1-.4-.3-.6-.5-.6s-.2.1-.3.3l-3.4,7.5a1,1,0,0,0-.2.6c0,.3.3.5.8.5h5.7c.6,0,.9-.1.9-.4a.76.76,0,0,0-.1-.4Z"/><path class="a" d="M32.5,248.07H18.9a7.84,7.84,0,0,0-3.5.5q-.75.45-1.8,3l-2.5,5.5a16.16,16.16,0,0,0-1.7,5.7,3.42,3.42,0,0,0,.9,2.6,9.19,9.19,0,0,0,3.5,1.4c.8.1,1.1.4,1.2.9s-.3.6-1.1.6H12.6l-3.6-.2c-1.2-.1-2.6-.1-4.2-.1a8.12,8.12,0,0,0-1.7.1c-1.3.1-2,.2-2.1.2-.7,0-1-.2-1-.7a.76.76,0,0,1,.6-.8l1.4-.4a5.93,5.93,0,0,0,2-1.8,15.15,15.15,0,0,0,2.1-3.3l1.1-2.5,19.4-43c.3-.8.7-1.1,1.1-1.1s.7.4,1,1.1l16.2,41.5.8,2a23.19,23.19,0,0,0,2.9,5.7,11.36,11.36,0,0,0,4.7,1.8c.8.1,1.2.5,1.1.9s-.4.6-1.1.6a9.51,9.51,0,0,1-1.4-.1c-1.3-.1-3.6-.2-7-.2s-5.7.1-6.6.2a7.38,7.38,0,0,1-1.2.2c-.7,0-1-.3-1-.8s.3-.7.9-.8l1.2-.3c1.3-.2,1.9-1.1,1.9-2.6,0-1.3-.8-4-2.3-8l-1.9-5a6.08,6.08,0,0,0-1.2-2.4C34.8,248.17,33.9,248.07,32.5,248.07ZM33,242l-5.9-14.9-.3-.8c-.3-.8-.6-1.2-1-1.2-.2,0-.4.2-.6.7l-7.3,16.3a5.93,5.93,0,0,0-.5,1.4c0,.7.6,1,1.7,1H31.5c1.3,0,1.9-.3,1.9-.9a5.07,5.07,0,0,0-.2-.9Z"/><path class="a" d="M60.4,236a6.85,6.85,0,0,0-1-4.2,4.3,4.3,0,0,0-3.2-1.6c-.6-.1-.9-.2-.9-.6s.2-.6.7-.6l2.2.1h2c1.9,0,3.4,0,4.4-.1l2.6-.3c1.1-.1,2.4-.1,3.7-.1,7.7,0,13.5,1.9,17.3,5.8A18.54,18.54,0,0,1,93.5,248a21.44,21.44,0,0,1-2.3,9.8,17.34,17.34,0,0,1-6.4,7A20.59,20.59,0,0,1,73.5,268c-.5,0-1.4,0-2.6-.1q-3.75-.3-6.6-.3a38.38,38.38,0,0,0-5.2.3c-.7.1-1.2.1-1.6.2-.7,0-1-.2-1-.6s.3-.5.8-.6a3.54,3.54,0,0,0,2.5-1.4,9.67,9.67,0,0,0,.6-4.2Zm4.3-2.3v29a2.55,2.55,0,0,0,1.7,2.4,22.85,22.85,0,0,0,3.8,1,20.54,20.54,0,0,0,3.9.4,16.27,16.27,0,0,0,8.7-2.4c4.4-2.7,6.5-7.3,6.5-13.8a23.7,23.7,0,0,0-2-9.7,17.1,17.1,0,0,0-5.6-7,17.49,17.49,0,0,0-10.6-3.1c-3,0-4.9.3-5.7,1A2.85,2.85,0,0,0,64.7,233.67Z"/><path class="a" d="M103.5,235.88l10.8,24.9c.3.6.5.9.7.9s.5-.5,1-1.6l.4-1,6.2-14.7c2.7-6.3,4-10.4,4-12.2,0-.6-.1-1.1-.4-1.3a3,3,0,0,0-1.7-.6c-1.1-.2-1.6-.5-1.5-.8s.3-.5.9-.5h.8c1.4.1,2.2.1,2.5.1h5.6c.4,0,.6.2.6.5s-.2.5-.6.6a5.36,5.36,0,0,0-3.1,3.3l-.8,1.8-14,32.8c-.4.9-.8,1.4-1.1,1.4s-.8-.5-1.2-1.4L98.3,235a16.34,16.34,0,0,0-1.8-3.2,4,4,0,0,0-2.2-1.2,8,8,0,0,1-1.7-.4.46.46,0,0,1-.3-.5c0-.4.3-.6.8-.6a2.81,2.81,0,0,1,.8.1c.3,0,1.3.1,2.8.1h4.6a13.57,13.57,0,0,0,1.8-.1c.4,0,.6-.1.8-.1.5,0,.8.2.8.5s-.2.5-.6.6a5.24,5.24,0,0,0-1.5.7,1.33,1.33,0,0,0-.3,1A11.11,11.11,0,0,0,103.5,235.88Z"/><path class="a" d="M143.9,233.67v11.4a4.23,4.23,0,0,0,.2,1.6c.2.2.6.3,1.5.3h4.3a29.1,29.1,0,0,0,4.7-.3,4.26,4.26,0,0,0,2-.8,4.89,4.89,0,0,0,.8-2.4c.1-.5.3-.7.7-.7s.5.3.5.8v.6a44.37,44.37,0,0,0-.2,5c0,1.1.1,2.3.2,3.4,0,.4.1.6.1.8,0,.5-.2.7-.5.7a.66.66,0,0,1-.7-.6l-.2-.8a4,4,0,0,0-1.3-2.6,6,6,0,0,0-3.4-.7h-6.2a3.61,3.61,0,0,0-1.8.3,1.29,1.29,0,0,0-.5,1.1v11.3q0,2.4.9,3c.6.4,2,.6,4.3.6,7.4,0,12.1-1.7,14.2-5,.2-.3.4-.5.6-.5s.5.2.5.7c0,1.2-.7,2.7-2.1,4.4a7.81,7.81,0,0,1-6.3,3,19.42,19.42,0,0,1-2.2-.1c-3.6-.3-6.6-.5-8.9-.5a55.88,55.88,0,0,0-7,.3c-.7.1-1.2.2-1.5.2q-.9,0-.9-.6c0-.3.2-.5.7-.7l1.1-.3c1.4-.4,2-1.7,2-4v-25.7q0-4.05-.9-5.4c-.6-.9-1.7-1.4-3.5-1.4-.5,0-.8-.2-.8-.5,0-.5.4-.8,1.3-.8a14.16,14.16,0,0,1,1.9.1,90.47,90.47,0,0,0,9.7.4c2.3,0,4.3,0,6.1-.1l4-.2c1.1,0,1.8-.1,2-.1a5.38,5.38,0,0,1,1.1-.1c.6,0,.9.3.9.8a1.27,1.27,0,0,1-.1.6,18.13,18.13,0,0,0-.2,2.2l-.1,1.7a9.13,9.13,0,0,1-.3,2,.55.55,0,0,1-.6.4c-.4,0-.5-.3-.5-.8V235a4.67,4.67,0,0,0-.3-1.7,3.27,3.27,0,0,0-2.2-1.7,27.44,27.44,0,0,0-6-.4h-4.4c-1.2,0-1.9.1-2.2.4A3,3,0,0,0,143.9,233.67Z"/><path class="a" d="M202.6,240.07v23.6a32.62,32.62,0,0,1-.1,3.9.76.76,0,0,1-.8.7.6.6,0,0,1-.6-.3l-.7-.8L176.6,240l-.3-.3a.52.52,0,0,0-.4-.2c-.4,0-.5.4-.5,1.3v20.3l.1,2a4.18,4.18,0,0,0,1,2.6,5.44,5.44,0,0,0,3,1c.6.1.9.3.9.7a.53.53,0,0,1-.6.6,2.2,2.2,0,0,1-.8-.1c-.2,0-1-.1-2.5-.2l-2.9-.1-1.4.1a14.77,14.77,0,0,0-2.1.1,4.59,4.59,0,0,1-1,.1c-.5,0-.8-.2-.8-.5s.2-.5.8-.7a5.71,5.71,0,0,0,3.2-2.2c.6-.9.8-2.4.8-4.4v-19.2a16.45,16.45,0,0,0-1.5-7.7,5.75,5.75,0,0,0-4.5-3.2c-.5-.1-.8-.3-.8-.6s.2-.5.6-.5h1.7l1.9.1h1.4a2.05,2.05,0,0,1,1.4.8l25.9,29.4c.4.5.7.7.8.7s.3-.2.3-.5v-17.8l-.3-6.5a5.66,5.66,0,0,0-1.4-3.4,7.57,7.57,0,0,0-4-1.5c-.5-.1-.8-.3-.8-.7s.3-.5.8-.5a6.82,6.82,0,0,1,1.2.1c1.3.1,3,.2,5.2.2a19.09,19.09,0,0,0,2.8-.2,11.48,11.48,0,0,1,1.4-.2c.5,0,.8.2.8.6,0,.2-.2.4-.6.5a4,4,0,0,0-2.3,1.4,8.29,8.29,0,0,0-.5,3.7v5Z"/><path class="a" d="M238.3,232.17h-7.9a3,3,0,0,0-1.6.3,2.94,2.94,0,0,0-.3,1.7V263c.1,2.2,1.3,3.5,3.7,3.9.7.1,1,.3,1,.6s-.3.6-.8.6c-.2,0-.7-.1-1.4-.2a14.28,14.28,0,0,0-2.5-.1h-4.3a11.52,11.52,0,0,0-2,.1c-1.1.1-1.7.2-1.9.2-.6,0-.8-.2-.8-.6s.3-.5.9-.6a4.62,4.62,0,0,0,2.9-1.2,5.28,5.28,0,0,0,.8-3.3v-28.7a1.88,1.88,0,0,0-.3-1.3,2.21,2.21,0,0,0-1.4-.3h-7.5a5,5,0,0,0-3.3.9,6.71,6.71,0,0,0-1.6,3.5c-.2.7-.4,1.1-.8,1.1s-.5-.3-.5-.8a15,15,0,0,1,.3-2.2,15.32,15.32,0,0,0,.4-3.3,3.17,3.17,0,0,1,.3-1.7c.2-.3.6-.4,1.3-.4h30.4a3.56,3.56,0,0,1,1.9.3,3.77,3.77,0,0,1,.3,2,14.89,14.89,0,0,0,.1,2.4,11.48,11.48,0,0,1,.2,1.4q0,.9-.6.9c-.3,0-.6-.3-.7-.9a3.73,3.73,0,0,0-1.2-2.6A6.64,6.64,0,0,0,238.3,232.17Z"/><path class="a" d="M255.5,237.47v21.1a18.18,18.18,0,0,0,.5,5.2,4,4,0,0,0,1.4,2,5.32,5.32,0,0,0,2.6.8c.9.1,1.4.4,1.4.7s-.3.7-.9.7a4.91,4.91,0,0,1-1.1-.1,22.81,22.81,0,0,0-3-.1l-4.1-.1-3.3.2a7.08,7.08,0,0,1-1.4.1c-.5,0-.8-.2-.8-.6s.3-.5.9-.6a3.66,3.66,0,0,0,2.8-1.5c.4-.7.6-2.3.6-4.7v-24.2a9.84,9.84,0,0,0-.8-4.7,4.55,4.55,0,0,0-3.4-1.6c-.6-.1-.9-.3-.9-.7s.3-.6.8-.6h.5a40.11,40.11,0,0,0,5.5.3c1.4,0,2.6,0,3.6-.1l1.9-.2h.7c.5,0,.8.2.8.5s-.2.6-.7.7l-1.5.6C256.2,231.28,255.5,233.47,255.5,237.47Z"/><path class="a" d="M277.5,228.47a12.93,12.93,0,0,1,5.1.9l1.9.8a.9.9,0,0,0,.5.1,1.33,1.33,0,0,0,.7-.3l.4-.3a.37.37,0,0,1,.3-.1c.5,0,.7.4.7,1.4a18.75,18.75,0,0,0,.4,2.8l.5,2.9a6.82,6.82,0,0,1,.1,1.2q0,.9-.6.9c-.3,0-.6-.5-.9-1.4a9.4,9.4,0,0,0-4.1-5,12.9,12.9,0,0,0-6.9-2,7.57,7.57,0,0,0-5.1,1.8,5.59,5.59,0,0,0-2,4.5,6.48,6.48,0,0,0,1.3,4.1,6.85,6.85,0,0,0,2.5,2.1,54.23,54.23,0,0,0,6.7,2.5c6.9,2.3,10.4,6,10.4,11.2a11,11,0,0,1-3.8,8.6,14.53,14.53,0,0,1-9.8,3.3,22.42,22.42,0,0,1-4.8-.6,13.27,13.27,0,0,1-3.8-1.4,2.31,2.31,0,0,1-.7-.7,13.39,13.39,0,0,1-.5-2c0-.2-.3-1-.7-2.6a14.28,14.28,0,0,1-.7-3.6c0-.6.2-.8.6-.8s.7.5.9,1.4a11.23,11.23,0,0,0,4.3,5.9,11.7,11.7,0,0,0,7.1,2.4,10,10,0,0,0,6.6-2.3,7.05,7.05,0,0,0,2.7-5.6,6.72,6.72,0,0,0-2.5-5.3c-.8-.7-3.3-1.8-7.3-3.1-4.2-1.4-7.1-3-8.9-4.7a9,9,0,0,1-2.6-6.6,9.15,9.15,0,0,1,3.4-7.4C271,229.47,273.9,228.47,277.5,228.47Z"/><path class="a" d="M321.7,232.17h-7.9a3,3,0,0,0-1.6.3,2.94,2.94,0,0,0-.3,1.7V263c.1,2.2,1.3,3.5,3.7,3.9.7.1,1,.3,1,.6s-.3.6-.8.6c-.2,0-.7-.1-1.4-.2a14.28,14.28,0,0,0-2.5-.1h-4.3a11.52,11.52,0,0,0-2,.1c-1.1.1-1.7.2-1.9.2-.6,0-.8-.2-.8-.6s.3-.5.9-.6a4.62,4.62,0,0,0,2.9-1.2,5.28,5.28,0,0,0,.8-3.3v-28.7a1.88,1.88,0,0,0-.3-1.3,2.21,2.21,0,0,0-1.4-.3h-7.5a5,5,0,0,0-3.3.9,6.71,6.71,0,0,0-1.6,3.5c-.2.7-.4,1.1-.8,1.1s-.5-.3-.5-.8a15,15,0,0,1,.3-2.2,15.32,15.32,0,0,0,.4-3.3,3.17,3.17,0,0,1,.3-1.7c.2-.3.6-.4,1.3-.4h30.4a3.56,3.56,0,0,1,1.9.3,3.77,3.77,0,0,1,.3,2,14.89,14.89,0,0,0,.1,2.4,11.48,11.48,0,0,1,.2,1.4q0,.9-.6.9c-.3,0-.6-.3-.7-.9a3.73,3.73,0,0,0-1.2-2.6A6.64,6.64,0,0,0,321.7,232.17Z"/><path class="a" d="M338.9,237.47v21.1a18.18,18.18,0,0,0,.5,5.2,4,4,0,0,0,1.4,2,5.32,5.32,0,0,0,2.6.8c.9.1,1.4.4,1.4.7s-.3.7-.9.7a4.91,4.91,0,0,1-1.1-.1,22.81,22.81,0,0,0-3-.1l-4.1-.1-3.3.2a7.08,7.08,0,0,1-1.4.1c-.5,0-.8-.2-.8-.6s.3-.5.9-.6a3.66,3.66,0,0,0,2.8-1.5c.4-.7.6-2.3.6-4.7v-24.2a9.84,9.84,0,0,0-.8-4.7,4.55,4.55,0,0,0-3.4-1.6c-.6-.1-.9-.3-.9-.7s.3-.6.8-.6h.5a40.11,40.11,0,0,0,5.5.3c1.4,0,2.6,0,3.6-.1l1.9-.2h.7c.5,0,.8.2.8.5s-.2.6-.7.7l-1.5.6C339.6,231.28,338.9,233.47,338.9,237.47Z"/><path class="a" d="M383.6,232.47l.9,6.8.1.7-.1.3c-.1.2-.2.3-.4.3s-.6-.4-1-1.2c-3.5-6.1-8.3-9.2-14.3-9.2-4.8,0-8.6,1.5-11.3,4.4s-4.1,7-4.1,12.1c0,5.9,1.5,10.7,4.6,14.4a14.79,14.79,0,0,0,11.9,5.6,17.06,17.06,0,0,0,8.3-2.3,13.21,13.21,0,0,0,5.7-5.5c.5-1,.9-1.5,1.1-1.5s.4.2.4.5v.3l-.1.6-.6,3.5-.1.5a2.51,2.51,0,0,1-1.3,1.5,25.64,25.64,0,0,1-14.3,4.1c-6.1,0-10.9-1.8-14.6-5.4s-5.6-8.3-5.6-14.2a19.67,19.67,0,0,1,5.8-14.6,19.22,19.22,0,0,1,14.4-5.8,22.3,22.3,0,0,1,10.9,2.7l1.1.6.5.2.5.2c.1,0,.2-.1.4-.2a1.79,1.79,0,0,1,.8-.4C383.3,231.47,383.5,231.78,383.6,232.47Z"/><path class="a" d="M398.8,250.88v10.3c0,2.2.3,3.6.9,4.3s1.9,1.2,4,1.6c.5.1.8.3.8.6s-.2.6-.7.5c-.3,0-.8-.1-1.5-.1a27.47,27.47,0,0,0-3.4-.1h-2.3l-2,.1H393c-1,.1-1.6.1-1.7.1-.6,0-.9-.2-.9-.7,0-.3.3-.5.8-.5a2.63,2.63,0,0,0,2.4-1.7,12.3,12.3,0,0,0,.7-5v-24a10.3,10.3,0,0,0-.6-4.2,3.57,3.57,0,0,0-2.5-1.6l-1.4-.3c-.5-.1-.7-.3-.7-.6s.3-.6.8-.6a3.75,3.75,0,0,1,1,.1c1,.1,2.5.2,4.5.2h1l2.1-.1H400a10.33,10.33,0,0,1,1.4-.1c.4,0,.7.2.7.5s-.2.5-.7.7a4.09,4.09,0,0,0-2.2,1.7,10,10,0,0,0-.5,3.8v11q0,.6.3.6l.5-.3.4-.3L412,236c1.9-1.7,2.8-3,2.8-4s-.7-1.4-2-1.7c-.9-.1-1.3-.4-1.3-.7s.3-.6.9-.6h.8a22.62,22.62,0,0,0,2.7.1l2.6.1h2.1a11.66,11.66,0,0,0,2.3-.1,3.44,3.44,0,0,1,.9-.1c.5,0,.8.2.8.6s-.4.6-1.4.8c-1.7.4-4.9,2.8-9.7,7.1l-9.6,8.7q-.6.6-.6.9a1.91,1.91,0,0,0,.7,1.2l14.7,15.4a10.46,10.46,0,0,0,5.1,3l1.2.3c.4.1.7.3.7.6q0,.75-.9.6a2,2,0,0,1-.7-.1,13.58,13.58,0,0,0-2.4-.1,14.89,14.89,0,0,0-2.4.1c-.6,0-1,.1-1.3.1a2.46,2.46,0,0,1-1.7-.8l-.5-.5-15.1-15.6-.6-.6a1.08,1.08,0,0,0-.7-.3C399,250.17,398.8,250.38,398.8,250.88Z"/><path class="a" d="M447.9,253H437.7a6.44,6.44,0,0,0-2.6.3,7,7,0,0,0-1.4,2.3l-1.8,4.2a12.43,12.43,0,0,0-1.2,4.2,2.23,2.23,0,0,0,.7,1.9,6,6,0,0,0,2.6,1c.6.1.9.3.9.7s-.2.5-.8.5h-1l-2.7-.2c-.9,0-1.9-.1-3.1-.1H426c-1,.1-1.5.2-1.6.2-.5,0-.8-.2-.8-.5a.63.63,0,0,1,.5-.6l1-.3c.4-.1.9-.6,1.5-1.4a13.25,13.25,0,0,0,1.6-2.5l.8-1.9,14.5-32.2c.2-.6.5-.8.8-.8s.6.3.8.8l12.1,31.1.6,1.5c.9,2.3,1.6,3.7,2.2,4.2a6.89,6.89,0,0,0,3.5,1.3c.6.1.9.3.8.7s-.3.5-.8.5a5.94,5.94,0,0,1-1.1-.1c-1-.1-2.7-.1-5.2-.1a41.43,41.43,0,0,0-4.9.2,3.44,3.44,0,0,1-.9.1c-.5,0-.7-.2-.7-.6s.2-.5.7-.6l.9-.2a1.71,1.71,0,0,0,1.4-1.9c0-1-.6-3-1.7-6l-1.4-3.7a6.91,6.91,0,0,0-.9-1.8A4.81,4.81,0,0,0,447.9,253Zm.3-4.5-4.4-11.2-.2-.6c-.2-.6-.5-.9-.7-.9s-.3.2-.5.5l-5.5,12.2a9.41,9.41,0,0,0-.4,1c0,.5.4.7,1.3.7h9.3c.9,0,1.4-.2,1.4-.7a2.64,2.64,0,0,0-.1-.7Z"/><path class="a" d="M218.8,144.67v-7.3h10.3v-.7c0-7.3-3.3-12.6-26.4-8.6l-38,6.8-21.8,30.3,52.4-9.3c15.7-2.7,29.5-3.3,33.8,9.2v-20.5H218.8Z"/><path class="a" d="M236.2,165.17c0-9.9,5.8-16.7,17.8-28.6l8.4-8.4,38.4,6.8,21.9,30.3-50.3-8.7C255.3,153.28,240.8,152.07,236.2,165.17Z"/><path class="a" d="M238.4,137.47c3.8-8.2,11.9-15.5,16.6-20.2l3.3-3.4c14.1-14.1,16.8-19.9,17.7-29.6,0-.5.8,1.9,1,3.6a32.17,32.17,0,0,1-1.6,15.6c-2.9,8.6-9.8,15.4-18.7,24.3l-9.7,9.7Z"/><path class="a" d="M246.6,19.17c0-.1.2-.1.2,0v11.2c0,10.2-13.1,21.9-18.3,27.1l-19.1,19.2c-6.6,6.6-19.9,19.7-14.3,32.3.2.4.4.8-.4.3-1.4-1-3.6-4.5-4.1-11-1-11.5,6.8-21.8,16.5-31.5l18.3-18.3C243.9,30.07,245.7,26.78,246.6,19.17Z"/><path class="a" d="M228.5,76.78c5.2-5.2,18.3-16.9,18.3-27.1V38.47c0-.1-.2-.1-.2,0-.9,7.6-2.7,10.8-21.2,29.4l-17,17c-6.2,6.2-11.8,12.6-11.6,23.1.2,6.4,3.4,11.7,8.2,12.9,2,.4,1.9.2,1.4,0-6.8-3.2-6.3-15.6,4.7-26.6Z"/><path class="a" d="M207.2,59.78c-14.1,14.1-16.8,19.9-17.7,29.6,0,.5-.8-1.9-1-3.6a32.17,32.17,0,0,1,1.6-15.6c2.9-8.6,9.8-15.4,18.7-24.3l16.4-16.4C243.7,11,245.5,7.67,246.4.08c0-.1.2-.1.2,0v11.2c0,10.2-13.1,21.9-18.3,27.1Z"/><path class="a" d="M236.5,155.88c0,.1-.2.1-.2,0v-11.2H241A23.47,23.47,0,0,0,236.5,155.88Z"/><path class="a" d="M236.5,137.47c0,.1-.2.1-.2,0v-11.4c0-8.5,8.4-17.8,16.7-26l5.4-5.4c4.3-4.3,17.6-17.4,12.1-30-.2-.4-.4-.8.4-.3,1.4,1,3.6,4.5,4.1,11,1,11.5-6.8,21.8-16.5,31.5l-5,5C241.4,123.78,237.4,129.17,236.5,137.47Z"/><path class="a" d="M236.5,117.67c0,.1-.2.1-.2,0v-11.5c0-8.1,8.1-16.9,12-20.9l6.1-6.1c11-11,11.5-23.4,4.7-26.6-.5-.2-.6-.5,1.4,0,4.8,1.2,8,6.5,8.2,12.9.3,10.4-5.3,16.9-11.5,23l-4.9,4.9C242,103.78,237.4,109.78,236.5,117.67Z"/><path class="a" d="M320.7,142.38a4.16,4.16,0,0,1,3.1,1.3,4.39,4.39,0,0,1,1.3,3.1,4.16,4.16,0,0,1-1.3,3.1,4.39,4.39,0,0,1-3.1,1.3,4.27,4.27,0,0,1-3.3-1.5,4.19,4.19,0,0,1-1-2.8,4,4,0,0,1,1-2.8A3.9,3.9,0,0,1,320.7,142.38Zm0,.5A3.69,3.69,0,0,0,318,144a3.62,3.62,0,0,0-1.1,2.7,3.69,3.69,0,0,0,1.1,2.7,3.62,3.62,0,0,0,2.7,1.1,3.69,3.69,0,0,0,2.7-1.1,3.62,3.62,0,0,0,1.1-2.7,3.76,3.76,0,0,0-3.8-3.8Zm.6,3.8,1,1.4.1.2c.3.4.6.7.8.7h.1c.1,0,.1,0,.1.1s-.2.2-.6.2a1.71,1.71,0,0,1-1.2-.8l-.9-1.4V147c0-.1-.1-.1-.2-.1h-.6v1.4c0,.3,0,.5.1.6s.2.1.5.2a.35.35,0,0,1,.2.1c0,.1-.1.1-.2.1h-1.7c-.1,0-.2,0-.2-.1s0-.1.1-.1a.52.52,0,0,0,.4-.2c.1-.1.1-.4.1-.8v-3a.55.55,0,0,0-.4-.6h-.2a.35.35,0,0,1-.2-.1c0-.1.1-.1.2-.1h1.7c1.2,0,1.7.4,1.7,1.3C322.1,146,321.9,146.38,321.3,146.67Zm-1.2-.1h.4c.6,0,1-.3,1-.9a.91.91,0,0,0-.4-.8,1.22,1.22,0,0,0-.9-.3.27.27,0,0,0-.3.3v1.7Z"/><path class="a" d="M365.2,224.17a5.2,5.2,0,0,0,1.5,1.3,2.65,2.65,0,0,0,1.4.3,2.27,2.27,0,0,0,1.3-.3,5.22,5.22,0,0,0,1.2-1.3l2.5-3.2,1-1.2a1.33,1.33,0,0,0,.3-.8c0-.2-.1-.4-.5-.7a1.93,1.93,0,0,0-1-.3c-.3,0-.8.4-1.4,1.2-1.5,2.2-2.4,3.4-2.7,3.4-.1,0-.3-.2-.6-.5l-.8-.8-1.1-1.3-1-1-.6-.7a1.38,1.38,0,0,0-.9-.5,5.07,5.07,0,0,0-.9.2l-1.2.5c-.5.2-.8.5-.8.7a6.23,6.23,0,0,0,1.6,2Z"/><path class="a" d="M209.5,190.47a4.23,4.23,0,0,0,1.4-.8l2.5-2.8.3-.3a.86.86,0,0,0,.3-.6.74.74,0,0,0-.8-.8,6.73,6.73,0,0,0-1.8.1c-.2,0-.4.2-.5.5l-.4,1c-.1.2-.3.7-.7,1.6l-.4.9a3.09,3.09,0,0,0-.2.8C209.1,190.38,209.2,190.47,209.5,190.47Z"/><path class="a" d="M460.1,224.88a4.16,4.16,0,0,1,3.1,1.3,4.39,4.39,0,0,1,1.3,3.1,4.16,4.16,0,0,1-1.3,3.1,4.39,4.39,0,0,1-3.1,1.3,4.27,4.27,0,0,1-3.3-1.5,4.19,4.19,0,0,1-1-2.8,4,4,0,0,1,1-2.8A3.9,3.9,0,0,1,460.1,224.88Zm0,.5a3.69,3.69,0,0,0-2.7,1.1,3.62,3.62,0,0,0-1.1,2.7,3.69,3.69,0,0,0,1.1,2.7,3.62,3.62,0,0,0,2.7,1.1,3.69,3.69,0,0,0,2.7-1.1,3.62,3.62,0,0,0,1.1-2.7,3.76,3.76,0,0,0-3.8-3.8Zm.5,3.9,1,1.4.1.2c.3.4.6.7.8.7h.1c.1,0,.1,0,.1.1s-.2.2-.6.2a1.71,1.71,0,0,1-1.2-.8l-.9-1.4v-.1c0-.1-.1-.1-.2-.1h-.5v1.4c0,.3,0,.5.1.6s.2.1.5.2a.35.35,0,0,1,.2.1c0,.1-.1.1-.2.1h-1.7c-.1,0-.2,0-.2-.1s0-.1.1-.1a.52.52,0,0,0,.4-.2c.1-.1.1-.4.1-.8v-3a.55.55,0,0,0-.4-.6H458a.35.35,0,0,1-.2-.1c0-.1.1-.1.2-.1h1.7c1.2,0,1.7.4,1.7,1.3C461.5,228.47,461.2,228.88,460.6,229.28Zm-1.1-.2h.4c.6,0,1-.3,1-.9a.91.91,0,0,0-.4-.8,1.22,1.22,0,0,0-.9-.3.27.27,0,0,0-.3.3v1.7Z"/></svg>