<svg xmlns="http://www.w3.org/2000/svg" viewBox="0 0 481.1 313.98"><defs><style>.a{fill:#fff;}</style></defs><title>Asset 1</title><path class="a" d="M236.9,171.08v-21.2H226.2v-7.5h10.7v-.7c0-7.5-3.5-13-27.4-8.9l-39.3,7-22.6,31.3,54.3-9.6C218.2,158.68,232.4,158.08,236.9,171.08Z"/><path class="a" d="M262.7,141.37c-12.3,12.3-18.4,19.4-18.4,29.6,4.7-13.5,19.7-12.3,37.4-9l52.1,9-22.6-31.3-39.8-7Z"/><path class="a" d="M263.7,121.37c-4.8,4.8-13.2,12.5-17.1,20.9h8.7l10.1-10c9.2-9.2,16.4-16.3,19.4-25.2a33.31,33.31,0,0,0,1.7-16.2c-.2-1.8-1-4.3-1-3.7-.9,10.1-3.7,16.1-18.3,30.7Z"/><path class="a" d="M236.3,59.58c5.4-5.4,18.9-17.5,18.9-28V20c0-.1-.2-.1-.2,0-.9,7.8-2.8,11.2-22,30.4l-18.9,18.9c-10,10-18.1,20.7-17.1,32.6.6,6.7,2.8,10.3,4.3,11.4.7.5.6.1.4-.3-5.8-13.1,8-26.6,14.8-33.5Z"/><path class="a" d="M236.3,79.47c5.4-5.4,18.9-17.5,18.9-28V39.87c0-.1-.2-.1-.2,0-.9,7.8-2.8,11.2-22,30.4l-17.6,17.6c-6.4,6.4-12.2,13.1-12,23.9.2,6.6,3.5,12.1,8.5,13.4,2.1.4,1.9.2,1.4,0-7.1-3.3-6.6-16.1,4.9-27.6Z"/><path class="a" d="M196,92.58c.9-10.1,3.7-16.1,18.3-30.7l22.1-22.1c5.4-5.4,18.9-17.5,18.9-28V.08c0-.1-.2-.1-.2,0-.9,7.8-2.8,11.2-22,30.4l-17,17c-9.2,9.2-16.4,16.3-19.4,25.2a32.16,32.16,0,0,0-1.7,16.2C195.2,90.58,196,93.08,196,92.58Z"/><path class="a" d="M244.6,161.37a26.15,26.15,0,0,1,4.6-11.6h-4.8v11.6C244.3,161.47,244.6,161.47,244.6,161.37Z"/><path class="a" d="M267.2,98l-5.6,5.6c-8.6,8.5-17.3,18.1-17.3,27v11.8c0,.1.2.1.2,0,.9-8.6,5.1-14.2,17.5-26.6l5.2-5.2c10-10,18.1-20.7,17.1-32.6-.6-6.7-2.8-10.3-4.3-11.4-.7-.5-.6-.1-.4.3C285.5,80,271.7,93.47,267.2,98Z"/><path class="a" d="M244.4,121.87c0,.1.2.1.2,0,1-8.2,5.6-14.4,16.3-25.1l5.1-5.1c6.4-6.4,12.1-13,11.9-23.8-.2-6.6-3.5-12.1-8.5-13.4-2.1-.4-1.9-.2-1.4,0,7.1,3.3,6.6,16.1-4.9,27.6l-6.3,6.3c-4.1,4.1-12.4,13.2-12.4,21.6v11.9Z"/><path class="a" d="M331.9,156.47a4.38,4.38,0,0,0,3.2-1.3,4.22,4.22,0,0,0,1.3-3.2,4.38,4.38,0,0,0-1.3-3.2,4.22,4.22,0,0,0-3.2-1.3,4.12,4.12,0,0,0-3.4,1.6,4.37,4.37,0,0,0,0,5.8A4.27,4.27,0,0,0,331.9,156.47Zm-2.9-7.4a3.87,3.87,0,1,1-1.2,2.8A5,5,0,0,1,329,149.08Z"/><path class="a" d="M329.8,149.58h.2c.2,0,.4.2.4.6v3.1c0,.4,0,.7-.1.8a1.38,1.38,0,0,1-.4.3.1.1,0,0,0-.1.1c0,.1.1.1.2.1h1.8c.1,0,.2,0,.2-.1s-.1-.1-.2-.1c-.3,0-.5-.1-.5-.2s-.1-.3-.1-.6v-1.4h.6c.1,0,.2,0,.2.1l.1.1.9,1.4a1.71,1.71,0,0,0,1.2.8c.4,0,.6-.1.6-.2s0-.1-.1-.1h-.1c-.3,0-.5-.2-.8-.7l-.1-.2-1-1.5a1.48,1.48,0,0,0,.9-1.3c0-.9-.6-1.3-1.8-1.3h-1.7c-.1,0-.2,0-.2.1C329.6,149.47,329.7,149.58,329.8,149.58Zm1.6.1a1.2,1.2,0,0,1,1.3,1.1.9.9,0,0,1-1,1H331V150C331,149.78,331.1,149.68,331.4,149.68Z"/><path class="a" d="M141.6,227.18h2a16.44,16.44,0,0,1,2.7.1,7.6,7.6,0,0,0,1.4.1c.5,0,.8-.2.8-.6s-.3-.5-.9-.5c-1.5-.2-2.6-.6-3.1-1.3a7.49,7.49,0,0,1-.8-4V195a4.75,4.75,0,0,1,.6-2.4,2,2,0,0,1,1.4-1.2l1.1-.2q.6-.15.6-.6c0-.3-.2-.5-.6-.5a4.59,4.59,0,0,0-1,.1,33.12,33.12,0,0,1-4,.2c-1.3,0-2.6-.1-3.8-.2a14.37,14.37,0,0,0-1.8-.1c-.4,0-.7.2-.7.4s.2.5.8.6a3.8,3.8,0,0,1,2.6,1.6,7.73,7.73,0,0,1,.7,3.9v9.2a1.33,1.33,0,0,1-.3,1,4,4,0,0,1-1.5.2H121.9a3.77,3.77,0,0,1-2-.3,3.12,3.12,0,0,1-.3-1.8v-9.6a4.84,4.84,0,0,1,.6-2.8,3.89,3.89,0,0,1,2.4-1.3c.5-.1.7-.3.7-.6s-.3-.6-.8-.6a4.91,4.91,0,0,0-1.1.1c-1.1.1-2.3.2-3.6.2-1.9,0-3.5-.1-4.9-.2-.7-.1-1.3-.1-1.6-.2-.5,0-.7.2-.7.5s.3.5.8.6a5,5,0,0,1,3.2,1.4,5.13,5.13,0,0,1,.9,3.4v23.1a22,22,0,0,1-.4,5.3,2.29,2.29,0,0,1-1.6,1.8l-1.3.3c-.5.1-.7.3-.7.6s.2.5.7.5a14.89,14.89,0,0,0,1.7-.1,10.9,10.9,0,0,1,1.7-.1l1.8-.1h2.3a22.94,22.94,0,0,1,3.2.1,7.77,7.77,0,0,0,1.3.1c.5,0,.8-.2.8-.6s-.4-.6-1-.7c-1.6-.2-2.7-.6-3.3-1.4a6.59,6.59,0,0,1-.9-3.9v-9.9c0-.8.1-1.4.4-1.6a3.56,3.56,0,0,1,1.9-.3h15.8a3.84,3.84,0,0,1,1.6.2c.2.1.2.6.2,1.5v11c0,2.7-.9,4.3-2.8,4.6q-.9.15-.9.6c0,.4.2.5.6.5.1,0,.7,0,1.9-.1a6.64,6.64,0,0,1,1.3-.1Z"/><path class="a" d="M177.2,227.28c.6-.2.9-.3.9-.5a.27.27,0,0,0-.3-.3h-.6c-1.4-.1-3-1.4-4.7-3.9l-.6-1-5.5-8.2c3.3-1.6,4.9-4,4.9-7a6.26,6.26,0,0,0-2.3-5.2c-1.6-1.2-3.9-1.7-6.9-1.7-.8,0-1.8,0-2.8.1-1.5.1-2.5.1-3.1.1a9.72,9.72,0,0,1-1.8-.1,11.31,11.31,0,0,0-1.4-.1c-.5,0-.7.1-.7.4s.2.4.6.5l.9.1c1.5.2,2.2,1.4,2.2,3.5v16.5a13.53,13.53,0,0,1-.5,4.5,2.49,2.49,0,0,1-2.1,1.5c-.3.1-.5.2-.5.4s.2.4.5.4a5.38,5.38,0,0,0,1.1-.1,9.73,9.73,0,0,1,1.6-.1H159a16.33,16.33,0,0,1,2.5.1,6.82,6.82,0,0,0,1.2.1c.5,0,.7-.1.7-.4s-.3-.4-.7-.5a4.79,4.79,0,0,1-2.7-.9,2.1,2.1,0,0,1-.8-1.1,11,11,0,0,1-.2-2.4v-7.1a.85.85,0,0,1,.2-.6l.4-.1h2.7a1.94,1.94,0,0,1,1.6.8l.3.4,5,7.6a11.64,11.64,0,0,0,2.9,3.2,5.78,5.78,0,0,0,3.2,1A2.53,2.53,0,0,0,177.2,227.28ZM162.6,213h-2.3a1.2,1.2,0,0,1-1.5-1.5v-8.9a1.67,1.67,0,0,1,.5-1.4,2.2,2.2,0,0,1,1.6-.4,7.1,7.1,0,0,1,5.2,1.9,6.06,6.06,0,0,1,2,4.8,5.35,5.35,0,0,1-1.5,4A5.06,5.06,0,0,1,162.6,213Z"/><path class="a" d="M182.3,225.47a2.72,2.72,0,0,1-2,1.1c-.4.1-.6.2-.6.5s.2.4.5.4a3.75,3.75,0,0,0,1-.1l2.4-.1h2.9a11,11,0,0,1,2.1.1c.3,0,.6.1.8.1.4,0,.6-.2.6-.5s-.3-.4-1-.5a4.25,4.25,0,0,1-1.9-.6,3.88,3.88,0,0,1-1-1.4,14.15,14.15,0,0,1-.3-3.7v-15q0-4.2,1.5-4.8l1-.4c.3-.1.5-.3.5-.5a.46.46,0,0,0-.5-.4h-.5l-1.3.1c-.7,0-1.6.1-2.5.1a38.44,38.44,0,0,1-3.9-.2h-.4c-.4,0-.6.1-.6.4s.2.4.6.5a3.21,3.21,0,0,1,2.4,1.2,6.39,6.39,0,0,1,.6,3.3v17A7.15,7.15,0,0,1,182.3,225.47Z"/><path class="a" d="M206,224.58a6.88,6.88,0,0,1-4.7,1.6,8.38,8.38,0,0,1-5-1.7,7.37,7.37,0,0,1-3-4.2c-.2-.6-.4-1-.7-1s-.4.2-.4.6a13.78,13.78,0,0,0,.5,2.6c.3,1.1.5,1.7.5,1.8.2.7.3,1.2.4,1.4a1.18,1.18,0,0,0,.5.5,9,9,0,0,0,2.7,1,14.24,14.24,0,0,0,3.4.4,10.26,10.26,0,0,0,7-2.4,7.76,7.76,0,0,0,2.7-6.1c0-3.7-2.5-6.3-7.4-7.9-2.5-.8-4.1-1.4-4.8-1.7a6,6,0,0,1-1.8-1.5,4.76,4.76,0,0,1-.9-2.9,4.31,4.31,0,0,1,1.4-3.2,5.66,5.66,0,0,1,3.6-1.3,9.06,9.06,0,0,1,4.9,1.4,6.38,6.38,0,0,1,2.9,3.6c.2.6.4,1,.7,1s.4-.2.4-.6a3.22,3.22,0,0,0-.1-.8l-.3-2.1a18.75,18.75,0,0,1-.3-2c0-.7-.2-1-.5-1-.1,0-.2,0-.2.1l-.3.2c-.2.1-.3.2-.5.2a.76.76,0,0,1-.4-.1l-1.4-.6a10.78,10.78,0,0,0-9.8,1.4,6.65,6.65,0,0,0-2.4,5.3,6.41,6.41,0,0,0,1.8,4.7q1.8,1.8,6.3,3.3a22.19,22.19,0,0,1,5.2,2.2,4.73,4.73,0,0,1,1.8,3.7A4.67,4.67,0,0,1,206,224.58Z"/><path class="a" d="M200.6,197.18a2.51,2.51,0,0,0,1,.2,2,2,0,0,0,.9-.2,3.61,3.61,0,0,0,.9-.9l1.8-2.3.7-.9a1.42,1.42,0,0,0,.2-.6c0-.2-.1-.3-.3-.5a1,1,0,0,0-.7-.2c-.2,0-.6.3-1,.9-1.1,1.6-1.7,2.4-1.9,2.4s-.2-.1-.4-.3l-.6-.6-.8-.9-.7-.7-.4-.5a.86.86,0,0,0-.6-.3,1.76,1.76,0,0,0-.6.1l-.9.3c-.4.1-.6.3-.5.5a7.45,7.45,0,0,0,1.1,1.4l1.9,2A3.72,3.72,0,0,0,200.6,197.18Z"/><path class="a" d="M213.2,213.78a13.56,13.56,0,0,0,3.9,10.1,14.46,14.46,0,0,0,10.4,3.8,19.19,19.19,0,0,0,10.2-2.9c.6-.4.9-.7.9-1.1l.1-.4.5-2.5.1-.4v-.2c0-.3-.1-.4-.3-.4s-.5.4-.8,1.1a9.41,9.41,0,0,1-4,3.9,11.65,11.65,0,0,1-5.9,1.6,10.32,10.32,0,0,1-8.4-4,15.43,15.43,0,0,1-3.3-10.2,12.42,12.42,0,0,1,2.9-8.6,10.63,10.63,0,0,1,8.1-3.1q6.45,0,10.2,6.6c.3.6.6.9.7.8s.2-.1.3-.2l.1-.2-.1-.5-.6-4.8c-.1-.5-.2-.8-.4-.8a1.55,1.55,0,0,0-.6.3c-.1.1-.2.2-.3.2l-.3-.1-.3-.1-.8-.4a16.08,16.08,0,0,0-7.8-1.9,14.26,14.26,0,0,0-10.3,4.1A13.64,13.64,0,0,0,213.2,213.78Z"/><path class="a" d="M258.4,216.87c.2.1.4.5.7,1.3l1,2.7a15.42,15.42,0,0,1,1.2,4.2,1.25,1.25,0,0,1-1,1.4l-.6.1c-.3.1-.5.2-.5.4s.2.4.5.4a1.76,1.76,0,0,0,.6-.1,26.62,26.62,0,0,1,3.5-.1,33.5,33.5,0,0,1,3.7.1h.8c.4,0,.5-.1.6-.3s-.2-.4-.6-.5a4.64,4.64,0,0,1-2.5-.9,12,12,0,0,1-1.6-3l-.4-1.1-8.6-22.1c-.1-.4-.3-.6-.5-.6s-.4.2-.6.6l-10.3,22.9-.6,1.3a17.39,17.39,0,0,1-1.1,1.8c-.5.6-.8.9-1.1,1l-.7.2c-.2.1-.3.2-.3.4a.46.46,0,0,0,.5.4,7.47,7.47,0,0,0,1.1-.1h3.1l1.9.1h.7q.6,0,.6-.3c0-.2-.2-.4-.6-.5a5,5,0,0,1-1.9-.7,1.81,1.81,0,0,1-.5-1.4,8,8,0,0,1,.9-3l1.3-2.9a3.93,3.93,0,0,1,1-1.6,3.71,3.71,0,0,1,1.8-.2h7.2C257.8,216.68,258.2,216.68,258.4,216.87Zm-8-2.1h-.5c-.6,0-.9-.2-.9-.5a1.74,1.74,0,0,1,.3-.7l3.9-8.7c.1-.3.2-.4.3-.4s.4.2.5.7l.2.4,3.1,7.9.1.4a1.09,1.09,0,0,1,.1.5c0,.3-.3.5-1,.5h-6.1Z"/><path class="a" d="M272.4,227.08h1l2,.1c1,.1,1.6.1,1.7.1h.6c.3,0,.4-.1.4-.4s-.2-.5-.7-.5a4.48,4.48,0,0,1-2.1-.7,2.52,2.52,0,0,1-.7-1.8l-.1-1.4v-14.4c0-.6.1-.9.4-.9a.37.37,0,0,1,.3.1l.2.2,16.9,19.3.4.5a.76.76,0,0,0,.5.2c.3,0,.5-.1.6-.5a15.76,15.76,0,0,0,.1-2.8v-20.3a5.11,5.11,0,0,1,.4-2.6,2.36,2.36,0,0,1,1.6-1c.3-.1.4-.2.4-.4s-.2-.4-.6-.4a4.14,4.14,0,0,0-1,.1,11.52,11.52,0,0,1-2,.1c-1.6,0-2.8,0-3.7-.1a5.38,5.38,0,0,1-.8-.1c-.4,0-.6.1-.6.4s.2.4.6.5a5.66,5.66,0,0,1,2.9,1.1,3.82,3.82,0,0,1,1,2.4l.2,4.6v12.6c0,.2-.1.4-.2.4s-.3-.1-.6-.5l-18.3-20.8a1.37,1.37,0,0,0-1-.6h-3.4c-.3,0-.4.1-.4.4a.46.46,0,0,0,.5.4,4.15,4.15,0,0,1,3.2,2.3,11.61,11.61,0,0,1,1.1,5.5v13.6a6,6,0,0,1-.6,3.1,4.68,4.68,0,0,1-2.3,1.6c-.4.1-.6.3-.6.5s.2.4.6.4a2.25,2.25,0,0,0,.7-.1A5.9,5.9,0,0,1,272.4,227.08Z"/><path class="a" d="M300.6,224.28c.2.7.3,1.2.4,1.4a1.18,1.18,0,0,0,.5.5,9,9,0,0,0,2.7,1,14.24,14.24,0,0,0,3.4.4,10.26,10.26,0,0,0,7-2.4,7.76,7.76,0,0,0,2.7-6.1c0-3.7-2.5-6.3-7.4-7.9-2.5-.8-4.1-1.4-4.8-1.7a6,6,0,0,1-1.8-1.5,4.76,4.76,0,0,1-.9-2.9,4.31,4.31,0,0,1,1.4-3.2,5.66,5.66,0,0,1,3.6-1.3,9.06,9.06,0,0,1,4.9,1.4,6.38,6.38,0,0,1,2.9,3.6c.2.6.4,1,.7,1s.4-.2.4-.6a3.22,3.22,0,0,0-.1-.8l-.3-2.1a18.75,18.75,0,0,1-.3-2c0-.7-.2-1-.5-1-.1,0-.2,0-.2.1l-.3.2c-.2.1-.3.2-.5.2a.76.76,0,0,1-.4-.1l-1.4-.6a10.78,10.78,0,0,0-9.8,1.4,6.65,6.65,0,0,0-2.4,5.3,6.41,6.41,0,0,0,1.8,4.7q1.8,1.8,6.3,3.3a22.19,22.19,0,0,1,5.2,2.2,4.73,4.73,0,0,1,1.8,3.7,4.65,4.65,0,0,1-1.9,3.9,6.88,6.88,0,0,1-4.7,1.6,8.38,8.38,0,0,1-5-1.7,7.37,7.37,0,0,1-3-4.2c-.2-.6-.4-1-.7-1s-.4.2-.4.6a13.78,13.78,0,0,0,.5,2.6A20.33,20.33,0,0,0,300.6,224.28Z"/><path class="a" d="M343.3,227.28a6.25,6.25,0,0,1,1.7.1h.5c.2,0,.3,0,.4-.1a1.09,1.09,0,0,0,.5-.1h3.1l1.9.1h.7q.6,0,.6-.3c0-.2-.2-.4-.6-.5a5,5,0,0,1-1.9-.7,1.81,1.81,0,0,1-.5-1.4,8,8,0,0,1,.9-3l1.3-2.9a3.93,3.93,0,0,1,1-1.6,3.71,3.71,0,0,1,1.8-.2H362a3.71,3.71,0,0,1,1.4.2c.2.1.4.5.7,1.3l1,2.7a15.42,15.42,0,0,1,1.2,4.2,1.25,1.25,0,0,1-1,1.4l-.6.1c-.3.1-.5.2-.5.4s.2.4.5.4a1.76,1.76,0,0,0,.6-.1,26.62,26.62,0,0,1,3.5-.1,33.5,33.5,0,0,1,3.7.1h.8c.4,0,.5-.1.6-.3s-.2-.4-.6-.5a4.64,4.64,0,0,1-2.5-.9,12,12,0,0,1-1.6-3l-.4-1.1-8.6-22.1c-.1-.4-.3-.6-.5-.6s-.4.2-.6.6l-10.3,22.9-.6,1.3a17.39,17.39,0,0,1-1.1,1.8c-.5.6-.8.9-1.1,1l-.5.1-.6-.1a7.45,7.45,0,0,1-3.6-2.1l-10.4-10.9c-.3-.4-.5-.6-.5-.8s.2-.4.5-.6l6.9-6.2c3.4-3.1,5.7-4.7,6.9-5.1.7-.2,1-.3,1-.5s-.2-.4-.6-.4a1.76,1.76,0,0,0-.6.1c-.3,0-.8.1-1.7.1h-3.3a11.48,11.48,0,0,1-1.9-.1h-.5c-.4,0-.6.1-.6.4s.3.4.9.5c1,.2,1.4.6,1.4,1.2s-.7,1.6-2,2.8l-8.6,7.7-.3.2-.3.2c-.1,0-.2-.1-.2-.4v-7.8a7.45,7.45,0,0,1,.3-2.7,2.62,2.62,0,0,1,1.6-1.2c.3-.1.5-.3.5-.5s-.2-.4-.5-.4a5.81,5.81,0,0,0-1,.1h-3.2a26.42,26.42,0,0,1-3.2-.1c-.3,0-.5-.1-.7-.1-.4,0-.5.1-.5.4s.2.3.5.4l1,.2a2.68,2.68,0,0,1,1.8,1.1,7.06,7.06,0,0,1,.5,3V222a9.83,9.83,0,0,1-.5,3.6,2,2,0,0,1-1.7,1.2c-.4,0-.6.2-.6.4s.2.5.7.5a8.33,8.33,0,0,0,1.2-.1h4.1a14.89,14.89,0,0,1,2.4.1c.5,0,.9.1,1.1.1s.5-.1.5-.4-.2-.4-.6-.4a4.34,4.34,0,0,1-2.8-1.1,5.17,5.17,0,0,1-.6-3v-7.8c0-.3.1-.5.4-.5s.3.1.5.2l.4.4,10.8,11.1.3.4a1.35,1.35,0,0,0,1.2.5h.9C341.9,227.28,342.5,227.28,343.3,227.28Zm10.9-13.8,3.9-8.7c.1-.3.2-.4.3-.4s.4.2.5.7l.2.4,3.1,7.9.1.4a1.09,1.09,0,0,1,.1.5c0,.3-.3.5-1,.5h-6.6c-.6,0-.9-.2-.9-.5A2,2,0,0,1,354.2,213.47Z"/><path class="a" d="M55.3,276.58c-2.5-.4-4.1-1-4.9-1.8s-1.8-2.7-3-5.9l-.9-2.1-16.8-43c-.3-.8-.6-1.1-1.1-1.1s-.8.4-1.1,1.2l-20,44.5L6.4,271a22.46,22.46,0,0,1-2.2,3.5,6.4,6.4,0,0,1-2.1,1.9l-1.4.4a.85.85,0,0,0-.7.8c0,.5.3.7,1.1.7.1,0,.9-.1,2.2-.2.4,0,1-.1,1.8-.1,1.6,0,3.1,0,4.3.1l3.7.2h1.3c.8,0,1.1-.2,1.1-.6s-.4-.8-1.2-.9a9.11,9.11,0,0,1-3.6-1.4,3.37,3.37,0,0,1-.9-2.7c0-1.3.6-3.2,1.7-5.9l2.6-5.7c.8-1.8,1.4-2.8,1.9-3.1a8.41,8.41,0,0,1,3.6-.5H33.7a7.08,7.08,0,0,1,2.7.3c.4.2.7,1,1.3,2.5l1.9,5.2c1.6,4.1,2.4,6.9,2.4,8.2a2.48,2.48,0,0,1-1.9,2.7l-1.2.3c-.7.1-1,.4-1,.8s.3.8,1,.8a7.38,7.38,0,0,0,1.2-.2,50.43,50.43,0,0,1,6.8-.2c3.5,0,5.9.1,7.2.2a10.62,10.62,0,0,0,1.5.1c.7,0,1.1-.2,1.1-.6A1.57,1.57,0,0,0,55.3,276.58Zm-22.8-22.7H19.6c-1.2,0-1.8-.3-1.8-1a5.93,5.93,0,0,1,.5-1.4l7.6-16.9c.2-.5.4-.8.6-.7.4,0,.7.5,1,1.3l.3.8,6.1,15.4.2.7a5.07,5.07,0,0,1,.2.9C34.4,253.47,33.8,253.87,32.5,253.87Z"/><path class="a" d="M73.4,237.47c-1.4,0-2.7,0-3.9.1l-2.7.3c-1.1.1-2.6.1-4.6.1h-2l-2.3-.1c-.5,0-.8.2-.8.6s.3.5,1,.6a4.73,4.73,0,0,1,3.3,1.6,7.19,7.19,0,0,1,1,4.3v26.3a9.9,9.9,0,0,1-.6,4.3,3.62,3.62,0,0,1-2.6,1.5c-.5.1-.8.3-.8.7s.3.7,1,.7a14.93,14.93,0,0,0,1.7-.2,41.61,41.61,0,0,1,5.4-.3c1.9,0,4.2.1,6.8.3,1.3.1,2.2.1,2.7.1A21,21,0,0,0,87.7,275a18.89,18.89,0,0,0,6.7-7.3,21.79,21.79,0,0,0,2.4-10.1c0-5.7-1.8-10.4-5.5-14C87.4,239.47,81.4,237.47,73.4,237.47Zm12.3,36.7a16.51,16.51,0,0,1-9,2.5,22.46,22.46,0,0,1-4.1-.4,25.82,25.82,0,0,1-4-1,2.43,2.43,0,0,1-1.8-2.4v-30.1a3,3,0,0,1,.8-2.4c.8-.7,2.8-1,5.9-1a18.8,18.8,0,0,1,11,3.2,18,18,0,0,1,5.8,7.2,24,24,0,0,1,2.1,10.1C92.4,266.58,90.2,271.37,85.7,274.18Z"/><path class="a" d="M137.4,237.78h-5.7c-.3,0-1.2,0-2.6-.1h-.8c-.6,0-.9.2-1,.5s.5.6,1.6.8a3.9,3.9,0,0,1,1.8.7,1.81,1.81,0,0,1,.4,1.4c0,1.9-1.4,6.1-4.1,12.6l-6.4,15.2-.5,1.1a5,5,0,0,1-1,1.7c-.2,0-.5-.3-.8-.9L107.1,245a12.68,12.68,0,0,1-1.2-4.1,1.61,1.61,0,0,1,.3-1.1,3.43,3.43,0,0,1,1.5-.7q.6-.3.6-.6c0-.4-.3-.5-.8-.5a2.81,2.81,0,0,0-.8.1,14.93,14.93,0,0,1-1.9.1H100a17.25,17.25,0,0,1-2.9-.1,5.38,5.38,0,0,1-.8-.1c-.5,0-.8.2-.8.6a.55.55,0,0,0,.3.5,13.35,13.35,0,0,0,1.8.4,4.25,4.25,0,0,1,2.3,1.2,11.42,11.42,0,0,1,1.9,3.3l14.8,34.3q.6,1.5,1.2,1.5c.4,0,.8-.5,1.2-1.4l14.5-34,.8-1.9a5.68,5.68,0,0,1,3.2-3.4q.6-.15.6-.6C138,238,137.8,237.78,137.4,237.78Z"/><path class="a" d="M169.6,270c-.2,0-.4.2-.7.5-2.2,3.4-7.1,5.2-14.7,5.2q-3.6,0-4.5-.6c-.6-.4-.9-1.4-.9-3.1v-11.8a1.36,1.36,0,0,1,.5-1.2,4.09,4.09,0,0,1,1.9-.3h6.4a6.5,6.5,0,0,1,3.6.7,3.9,3.9,0,0,1,1.4,2.7l.2.8a.66.66,0,0,0,.7.6c.4,0,.6-.2.6-.7a2.48,2.48,0,0,0-.1-.8c-.1-1.2-.2-2.3-.2-3.5a49.52,49.52,0,0,1,.3-5.2v-.6c0-.5-.2-.8-.6-.8s-.6.2-.7.7a7.93,7.93,0,0,1-.8,2.5,4.26,4.26,0,0,1-2,.8,28.72,28.72,0,0,1-4.8.4h-4.5a2.37,2.37,0,0,1-1.5-.3c-.2-.2-.2-.7-.2-1.6v-11.8a3,3,0,0,1,.5-2,3.66,3.66,0,0,1,2.3-.5h4.6a29,29,0,0,1,6.2.4,3,3,0,0,1,2.2,1.8,5.66,5.66,0,0,1,.3,1.8v.8q0,.9.6.9a.75.75,0,0,0,.7-.5,12.24,12.24,0,0,0,.3-2.1l.1-1.7c.1-1.3.2-2.1.2-2.3a2,2,0,0,0,.1-.7c0-.6-.3-.8-1-.8a6.24,6.24,0,0,0-1.2.1c-.3,0-1,.1-2.1.1l-4.1.2c-1.8.1-3.9.1-6.3.1a92.28,92.28,0,0,1-10-.5,15.56,15.56,0,0,0-2-.1c-.9,0-1.3.3-1.3.8s.3.5.8.5c1.8,0,3,.5,3.6,1.4s.9,2.8.9,5.6v26.6c0,2.3-.7,3.7-2.1,4.1l-1.1.3c-.5.1-.8.4-.8.7s.3.6.9.6c.3,0,.8-.1,1.5-.2a58.58,58.58,0,0,1,7.2-.3c2.4,0,5.5.2,9.2.5a21.05,21.05,0,0,0,2.3.1,8,8,0,0,0,6.5-3.1,7.79,7.79,0,0,0,2.1-4.5A.51.51,0,0,0,169.6,270Z"/><path class="a" d="M208.7,278.37a.76.76,0,0,0,.8-.7,33.7,33.7,0,0,0,.1-4v-24.5l.1-1.9v-3.2a8.19,8.19,0,0,1,.6-3.8,3.6,3.6,0,0,1,2.3-1.5q.6-.15.6-.6c0-.4-.3-.6-.8-.6a11.48,11.48,0,0,0-1.4.2,20.68,20.68,0,0,1-2.9.2c-2.3,0-4.1-.1-5.4-.2a6.82,6.82,0,0,0-1.2-.1c-.6,0-.8.2-.8.5s.3.6.8.7a8.41,8.41,0,0,1,4.2,1.5,5.41,5.41,0,0,1,1.4,3.5l.3,6.7V269a.6.6,0,0,1-.3.6c-.1,0-.4-.2-.8-.7l-26.9-30.4a1.89,1.89,0,0,0-1.5-.8h-1.6l-2-.1h-1.7c-.4,0-.6.2-.6.5s.3.6.8.7a6,6,0,0,1,4.6,3.3c1.1,1.9,1.6,4.6,1.6,8v20a9.09,9.09,0,0,1-.9,4.6,6.66,6.66,0,0,1-3.3,2.3c-.6.2-.8.4-.8.7s.3.5.8.5a5.38,5.38,0,0,0,1.1-.1,15.48,15.48,0,0,1,2.2-.1l1.4-.1,3,.1a17.21,17.21,0,0,1,2.5.2c.3,0,.6.1.9.1a.53.53,0,0,0,.6-.6c0-.4-.3-.7-1-.7a5.75,5.75,0,0,1-3.1-1.1,4.25,4.25,0,0,1-1-2.7l-.1-2.1v-21c0-.9.2-1.3.6-1.3a.52.52,0,0,1,.4.2l.3.3,24.6,28.1.6.8A3.71,3.71,0,0,0,208.7,278.37Z"/><path class="a" d="M236.8,241.47a2.58,2.58,0,0,1,1.6-.4h8.2a6.39,6.39,0,0,1,3.3.6,3.79,3.79,0,0,1,1.2,2.7c.1.6.3.9.7.9s.6-.3.6-.9a11.48,11.48,0,0,0-.2-1.4,16.33,16.33,0,0,1-.1-2.5,4.54,4.54,0,0,0-.3-2.1,3.56,3.56,0,0,0-1.9-.3H218.5c-.7,0-1.1.1-1.3.4a3.61,3.61,0,0,0-.3,1.8,17,17,0,0,1-.4,3.5,14.94,14.94,0,0,0-.3,2.2c0,.5.2.8.5.8s.6-.3.8-1.1a6.36,6.36,0,0,1,1.7-3.6,5.31,5.31,0,0,1,3.4-.9h7.7a2.21,2.21,0,0,1,1.4.3,1.88,1.88,0,0,1,.3,1.3v29.8a5.63,5.63,0,0,1-.8,3.4,4.68,4.68,0,0,1-3,1.2c-.6.1-1,.3-1,.6s.3.6.9.6c.2,0,.8-.1,2-.2a13.42,13.42,0,0,1,2.1-.1h4.4a14.32,14.32,0,0,1,2.6.1c.7.1,1.2.2,1.4.2.5,0,.8-.2.8-.6s-.3-.5-1-.7c-2.5-.4-3.7-1.8-3.8-4.1v-29.8A2.44,2.44,0,0,1,236.8,241.47Z"/><path class="a" d="M259.3,275.47c-.4.8-1.4,1.3-2.9,1.5-.6.1-.9.3-.9.7s.3.6.8.6a7.6,7.6,0,0,0,1.4-.1l3.4-.2,4.2.1a23.72,23.72,0,0,1,3.1.1,4.48,4.48,0,0,0,1.1.1c.6,0,.9-.2.9-.7,0-.3-.5-.6-1.5-.7a7.06,7.06,0,0,1-2.7-.9,3.72,3.72,0,0,1-1.4-2.1,19.94,19.94,0,0,1-.5-5.4v-21.9c0-4.1.7-6.4,2.2-7l1.5-.6c.5-.2.8-.4.8-.8s-.3-.5-.8-.5h-.7l-2,.2c-1,.1-2.3.1-3.7.1a43.42,43.42,0,0,1-5.7-.3h-.5c-.6,0-.9.2-.8.6s.3.6.9.7c1.8.3,3,.9,3.5,1.7s.8,2.5.8,4.9v25C260,273.08,259.8,274.68,259.3,275.47Z"/><path class="a" d="M275.3,273.78a10.47,10.47,0,0,0,.5,2,1.2,1.2,0,0,0,.7.7,11.14,11.14,0,0,0,4,1.5,22.53,22.53,0,0,0,4.9.6,15.21,15.21,0,0,0,10.2-3.5,11.47,11.47,0,0,0,4-8.9c0-5.4-3.6-9.2-10.8-11.6-3.7-1.2-6-2.1-7-2.5a8.72,8.72,0,0,1-2.6-2.2,6.85,6.85,0,0,1-1.4-4.2,5.74,5.74,0,0,1,2.1-4.6,8,8,0,0,1,5.3-1.9,13.15,13.15,0,0,1,7.2,2.1,10.22,10.22,0,0,1,4.3,5.2c.3.9.6,1.4,1,1.4s.6-.3.6-.9c0-.2-.1-.6-.1-1.2l-.5-3a21.15,21.15,0,0,1-.4-2.9c0-1-.2-1.4-.7-1.4-.2,0-.3,0-.3.1l-.4.4a1.08,1.08,0,0,1-.7.3.9.9,0,0,1-.5-.1l-2-.8a15.56,15.56,0,0,0-14.4,2.1,9.83,9.83,0,0,0-3.5,7.7,9.34,9.34,0,0,0,2.7,6.9c1.8,1.8,4.9,3.4,9.2,4.8s6.7,2.5,7.6,3.2a7.06,7.06,0,0,1,2.6,5.5,7.24,7.24,0,0,1-2.8,5.8,10.09,10.09,0,0,1-6.8,2.4,11.74,11.74,0,0,1-7.3-2.5,11,11,0,0,1-4.4-6.1c-.3-.9-.6-1.4-1-1.4s-.6.3-.6.8a12.2,12.2,0,0,0,.8,3.7A13.85,13.85,0,0,0,275.3,273.78Z"/><path class="a" d="M338.5,240.47a4.54,4.54,0,0,0-.3-2.1,3.56,3.56,0,0,0-1.9-.3H304.9c-.7,0-1.1.1-1.3.4a3.61,3.61,0,0,0-.3,1.8,17,17,0,0,1-.4,3.5,14.94,14.94,0,0,0-.3,2.2c0,.5.2.8.5.8s.6-.3.8-1.1a6.36,6.36,0,0,1,1.7-3.6,5.13,5.13,0,0,1,3.4-.9h7.7a2.21,2.21,0,0,1,1.4.3,1.88,1.88,0,0,1,.3,1.3v29.8a5.63,5.63,0,0,1-.8,3.4,4.68,4.68,0,0,1-3,1.2c-.6.1-1,.3-1,.6s.3.6.9.6c.2,0,.8-.1,2-.2a13.42,13.42,0,0,1,2.1-.1H323a14.32,14.32,0,0,1,2.6.1c.7.1,1.2.2,1.4.2.5,0,.8-.2.8-.6s-.3-.5-1-.7c-2.4-.4-3.7-1.8-3.8-4.1v-29.8a2.94,2.94,0,0,1,.3-1.7,2.58,2.58,0,0,1,1.6-.4h8.2a6.39,6.39,0,0,1,3.3.6,3.79,3.79,0,0,1,1.2,2.7c.1.6.3.9.7.9s.6-.3.6-.9a11.48,11.48,0,0,0-.2-1.4A13.79,13.79,0,0,1,338.5,240.47Z"/><path class="a" d="M355.5,276.87a7.06,7.06,0,0,1-2.7-.9,3.72,3.72,0,0,1-1.4-2.1,19.94,19.94,0,0,1-.5-5.4v-21.9c0-4.1.7-6.4,2.2-7l1.5-.6c.5-.2.8-.4.8-.8s-.3-.5-.8-.5h-.7l-2,.2c-1,.1-2.3.1-3.7.1a43.42,43.42,0,0,1-5.7-.3H342c-.6,0-.9.2-.8.6s.3.6.9.7c1.8.3,3,.9,3.5,1.7s.8,2.5.8,4.9v25a12.75,12.75,0,0,1-.6,4.9c-.4.8-1.4,1.3-2.9,1.5-.6.1-.9.3-.9.7s.3.6.8.6a7.6,7.6,0,0,0,1.4-.1l3.4-.2,4.2.1a23.72,23.72,0,0,1,3.1.1,4.48,4.48,0,0,0,1.1.1c.6,0,.9-.2.9-.7S356.4,277,355.5,276.87Z"/><path class="a" d="M398.4,267.18c-.3,0-.7.5-1.2,1.6a13.57,13.57,0,0,1-5.9,5.7,17.09,17.09,0,0,1-8.6,2.3,15.16,15.16,0,0,1-12.3-5.8c-3.2-3.9-4.8-8.8-4.8-14.9,0-5.3,1.4-9.5,4.3-12.5s6.8-4.6,11.7-4.6c6.2,0,11.2,3.2,14.8,9.6.5.8.8,1.2,1.1,1.2s.3-.1.4-.3l.1-.3-.1-.7-.9-7c-.1-.7-.3-1.1-.6-1.1s-.4.2-.9.5c-.2.2-.3.2-.4.2l-.5-.2-.5-.2-1.2-.6a22.82,22.82,0,0,0-11.3-2.8,20,20,0,0,0-14.9,6,20.58,20.58,0,0,0-6,15.1c0,6.1,1.9,11,5.8,14.7s8.9,5.6,15.2,5.6a27,27,0,0,0,14.9-4.3,2.89,2.89,0,0,0,1.4-1.6l.1-.5.7-3.6.1-.6v-.3C398.9,267.28,398.7,267.18,398.4,267.18Z"/><path class="a" d="M480,276.87a7.26,7.26,0,0,1-3.7-1.4,13.6,13.6,0,0,1-2.3-4.4l-.6-1.6-12.6-32.2c-.2-.6-.5-.8-.8-.8s-.6.3-.8.9l-15,33.3-.8,1.9a14,14,0,0,1-1.6,2.6c-.7.8-1.2,1.3-1.6,1.4l-.7.2-.9-.2a10.08,10.08,0,0,1-5.3-3.1l-15.2-15.9a1.91,1.91,0,0,1-.7-1.2c0-.2.2-.5.7-.9l10-9c5-4.5,8.3-6.9,10.1-7.4,1-.2,1.4-.5,1.4-.8s-.3-.6-.8-.6a3.44,3.44,0,0,0-.9.1,13.58,13.58,0,0,1-2.4.1h-2.2l-2.7-.1a25.28,25.28,0,0,1-2.8-.1H427q-.9,0-.9.6c0,.4.4.6,1.3.7,1.4.3,2.1.8,2.1,1.7s-1,2.4-2.9,4.1L414.1,256l-.4.3-.5.3q-.3,0-.3-.6v-11.4a11.26,11.26,0,0,1,.5-4,4,4,0,0,1,2.3-1.8c.5-.2.7-.4.7-.7s-.2-.6-.7-.5a10.33,10.33,0,0,0-1.4.1h-1.5l-2.2.1h-1.1c-2.1,0-3.7-.1-4.7-.2a4.48,4.48,0,0,0-1.1-.1c-.5,0-.8.2-.8.6s.3.5.8.6l1.4.3a3.58,3.58,0,0,1,2.6,1.7,10.7,10.7,0,0,1,.7,4.4V270a13.11,13.11,0,0,1-.7,5.2,2.89,2.89,0,0,1-2.5,1.7c-.6.1-.8.2-.8.5,0,.5.3.7,1,.7.1,0,.7,0,1.8-.1h1.6l2.1-.1h2.3a30.37,30.37,0,0,1,3.5.1,11.8,11.8,0,0,0,1.6.1c.5,0,.7-.2.7-.6s-.3-.5-.9-.6c-2.2-.4-3.5-.9-4.1-1.6s-.9-2.2-.9-4.4v-10.7c0-.4.2-.7.5-.7a1.08,1.08,0,0,1,.7.3l.6.6,15.7,16.1.5.6a2.46,2.46,0,0,0,1.7.8,6.64,6.64,0,0,0,1.3-.1c.5,0,1.4-.1,2.5-.1a14.28,14.28,0,0,1,2.5.1c.3,0,.5.1.7.1s.5,0,.6-.1a2,2,0,0,0,.7-.1h1.3a31.12,31.12,0,0,1,3.2.1l2.8.2h1c.6,0,.8-.2.8-.5s-.3-.6-.9-.7a5.74,5.74,0,0,1-2.7-1.1,2.44,2.44,0,0,1-.7-2,11.74,11.74,0,0,1,1.3-4.4l1.9-4.3a7,7,0,0,1,1.4-2.3,6.41,6.41,0,0,1,2.7-.4h10.6a6.39,6.39,0,0,1,2,.2,5.79,5.79,0,0,1,1,1.9l1.5,3.9c1.2,3.1,1.8,5.1,1.8,6.2a1.8,1.8,0,0,1-1.5,2l-.9.2c-.5.1-.7.3-.7.6s.3.6.8.6a3.44,3.44,0,0,0,.9-.1,44.56,44.56,0,0,1,5.1-.2c2.6,0,4.4,0,5.4.1a10.41,10.41,0,0,1,1.1.1c.5,0,.8-.2.8-.5C480.9,277.28,480.6,277,480,276.87Zm-17.1-17h-9.6c-.9,0-1.3-.3-1.3-.8a2.88,2.88,0,0,1,.4-1.1l5.7-12.6c.2-.4.3-.6.5-.6s.5.3.8,1l.2.6,4.6,11.6.1.5a2,2,0,0,1,.1.7C464.3,259.68,463.9,259.87,462.9,259.87Z"/><path class="a" d="M205,306c-.2,0-.4.3-.7,1a8.69,8.69,0,0,1-3.6,3.5,10.28,10.28,0,0,1-5.3,1.4,9.3,9.3,0,0,1-7.5-3.5c-2-2.4-2.9-5.4-2.9-9.2a11.2,11.2,0,0,1,2.6-7.7,9.42,9.42,0,0,1,7.2-2.8c3.8,0,6.9,2,9.1,5.9.3.5.5.8.6.8s.2-.1.3-.2l.1-.2-.1-.4-.6-4.3c-.1-.5-.2-.7-.4-.7a.91.91,0,0,0-.5.3.37.37,0,0,1-.3.1l-.3-.1-.3-.1-.7-.4a14.79,14.79,0,0,0-7-1.7,12.36,12.36,0,0,0-9.2,3.7,13,13,0,0,0-3.7,9.3,12.21,12.21,0,0,0,3.5,9,12.85,12.85,0,0,0,9.3,3.4,16.93,16.93,0,0,0,9.1-2.6,1.43,1.43,0,0,0,.8-1l.1-.3.4-2.2.1-.4v-.2C205.3,306.08,205.2,306,205,306Z"/><path class="a" d="M230.8,312h-.6c-1.3-.1-2.7-1.2-4.2-3.5l-.6-.9-4.9-7.3c3-1.5,4.4-3.6,4.4-6.2a5.35,5.35,0,0,0-2.1-4.6,10.67,10.67,0,0,0-6.2-1.6,22.63,22.63,0,0,0-2.5.1c-1.3.1-2.3.1-2.8.1a7.59,7.59,0,0,1-1.6-.1,10.86,10.86,0,0,1-1.3-.1c-.4,0-.6.1-.6.4s.2.3.6.4l.8.1c1.3.2,2,1.3,2,3.1v14.8a12.7,12.7,0,0,1-.4,4.1,2.32,2.32,0,0,1-1.9,1.3c-.3.1-.4.2-.4.3a.43.43,0,0,0,.4.4,4.59,4.59,0,0,0,1-.1,8.64,8.64,0,0,1,1.5-.1H214a14.17,14.17,0,0,1,2.3.1,5.38,5.38,0,0,0,1.1.1c.4,0,.6-.1.6-.4s-.2-.4-.7-.4a4.5,4.5,0,0,1-2.4-.8,1.69,1.69,0,0,1-.7-1,9.1,9.1,0,0,1-.2-2.1v-6.3a.85.85,0,0,1,.2-.6l.4-.1H217a1.51,1.51,0,0,1,1.4.7l.2.4,4.5,6.8a12.78,12.78,0,0,0,2.6,2.9,5,5,0,0,0,2.9.9,9.91,9.91,0,0,0,1.8-.2c.5-.1.8-.3.8-.5C231.1,312.08,231,312,230.8,312Zm-13.6-12h-2a2.33,2.33,0,0,1-1.1-.2c-.2-.2-.2-.5-.2-1.1v-7.9a1.7,1.7,0,0,1,.4-1.3,2.81,2.81,0,0,1,1.5-.3,7,7,0,0,1,4.7,1.7,5.66,5.66,0,0,1,1.8,4.3,4.46,4.46,0,0,1-1.3,3.5A5.81,5.81,0,0,1,217.2,300Z"/><path class="a" d="M277.6,290.78a3.23,3.23,0,0,1,2-2.1c.3-.1.4-.2.4-.4s-.1-.3-.4-.3h-3.4a13.61,13.61,0,0,1-1.6-.1h-.5q-.6,0-.6.3c0,.2.3.4,1,.5a1.93,1.93,0,0,1,1.1.4,1,1,0,0,1,.3.8c0,1.1-.8,3.7-2.5,7.7l-4.2,9.5-.3.7c-.3.7-.5,1-.6,1s-.3-.2-.5-.6l-6.9-15.8a8.31,8.31,0,0,1-.8-2.5,1.45,1.45,0,0,1,.2-.7,3.05,3.05,0,0,1,.9-.5c.2-.1.4-.2.4-.4s-.2-.3-.5-.3h-.5c-.5,0-.9.1-1.1.1h-5.3c-.1-.1-.2-.1-.4-.1a1.76,1.76,0,0,0-.6.1h-4.5a9.15,9.15,0,0,1-1.7-.1h-.5c-.4,0-.6.1-.6.4s.3.4.8.5c.9.2,1.3.5,1.3,1.1s-.6,1.5-1.8,2.5l-7.7,6.9-.3.2-.3.2c-.1,0-.2-.1-.2-.4v-7a6.24,6.24,0,0,1,.3-2.4,2.75,2.75,0,0,1,1.4-1.1c.3-.1.4-.3.4-.4s-.1-.3-.4-.3a4.4,4.4,0,0,0-.9.1h-2.9a21.91,21.91,0,0,1-2.9-.1,3.54,3.54,0,0,1-.6-.1c-.3,0-.5.1-.5.4s.2.3.5.4l.9.2a2.36,2.36,0,0,1,1.6,1,5.83,5.83,0,0,1,.4,2.7v15.3a8.22,8.22,0,0,1-.4,3.2,1.92,1.92,0,0,1-1.5,1.1c-.3,0-.5.1-.5.3s.2.4.6.4a7.47,7.47,0,0,0,1.1-.1H238a11,11,0,0,1,2.1.1c.5,0,.8.1,1,.1s.4-.1.4-.3-.2-.3-.5-.4c-1.3-.2-2.2-.5-2.5-1a4.27,4.27,0,0,1-.6-2.7v-6.6c0-.3.1-.4.3-.4a.76.76,0,0,1,.4.2l.4.4,9.6,9.9.3.3a1.61,1.61,0,0,0,1.1.5h2.4a5,5,0,0,1,1.5.1h.4c.4,0,.6-.1.6-.4s-.1-.3-.4-.4l-.8-.2a5.64,5.64,0,0,1-3.2-1.9l-9.3-9.8a1.2,1.2,0,0,1-.4-.8c0-.1.1-.3.4-.6l6.1-5.5c3-2.7,5.1-4.2,6.2-4.5.2,0,.3-.1.4-.1h0a11,11,0,0,0,1.1.3,2.65,2.65,0,0,1,1.4.7,20.55,20.55,0,0,1,1.2,2l9.1,21.1c.3.6.5.9.8.9s.5-.3.7-.9l8.9-20.9Z"/><path class="a" d="M300.9,312a5.93,5.93,0,0,1-2.3-.8,10.33,10.33,0,0,1-1.4-2.7l-.4-1-7.7-19.7c-.1-.3-.3-.5-.5-.5s-.4.2-.5.5l-9.2,20.5-.5,1.2a14,14,0,0,1-1,1.6,2.57,2.57,0,0,1-1,.9l-.7.2c-.2.1-.3.2-.3.4s.2.3.5.3a5.81,5.81,0,0,0,1-.1h2.8l1.7.1h.6c.3,0,.5-.1.5-.3s-.2-.4-.6-.4a6.29,6.29,0,0,1-1.7-.6,1.46,1.46,0,0,1-.4-1.2,8.31,8.31,0,0,1,.8-2.7l1.2-2.6c.4-.8.6-1.3.9-1.4a4.66,4.66,0,0,1,1.6-.2h6.5a2.23,2.23,0,0,1,1.2.2,7.37,7.37,0,0,1,.6,1.1l.9,2.4a15.59,15.59,0,0,1,1.1,3.8,1,1,0,0,1-.9,1.2l-.6.1c-.3.1-.4.2-.4.4a.46.46,0,0,0,.5.4,1.76,1.76,0,0,0,.6-.1,21.22,21.22,0,0,1,3.1-.1,26.49,26.49,0,0,1,3.3.1h.7c.3,0,.5-.1.5-.3C301.5,312.18,301.3,312.08,300.9,312Zm-10.5-10.4h-5.9c-.5,0-.8-.2-.8-.5,0-.1.1-.3.2-.7l3.5-7.8c.1-.2.2-.4.3-.3s.3.2.5.6l.1.4,2.8,7.1.1.3a.76.76,0,0,1,.1.4C291.3,301.37,291,301.58,290.4,301.58Z"/><path class="a" d="M228.3,196.68l2.6-2.9.3-.4a.86.86,0,0,0,.3-.6.74.74,0,0,0-.8-.8,7.7,7.7,0,0,0-1.9.1.82.82,0,0,0-.5.5l-.5,1.1c-.1.2-.3.7-.8,1.7l-.4.9a3.09,3.09,0,0,0-.2.8c0,.3.1.4.4.4S227.5,197.28,228.3,196.68Z"/><path class="a" d="M378.6,232.78a14.36,14.36,0,0,0,1.5,1.4,2.81,2.81,0,0,0,1.5.3,2.27,2.27,0,0,0,1.3-.3,7.57,7.57,0,0,0,1.3-1.3l2.6-3.3,1-1.3a1.6,1.6,0,0,0,.3-.8c0-.2-.1-.4-.5-.7a1.93,1.93,0,0,0-1-.3c-.4,0-.8.4-1.4,1.3-1.5,2.3-2.5,3.5-2.8,3.5-.1,0-.3-.2-.6-.5l-.8-.8-1.2-1.3-1-1.1-.6-.7a1.38,1.38,0,0,0-.9-.5,5.07,5.07,0,0,0-.9.2l-1.3.5c-.6.2-.8.5-.8.8a8.55,8.55,0,0,0,1.6,2Z"/><path class="a" d="M474.3,235.68h.2c.3,0,.4.2.4.6v3.1c0,.4,0,.7-.1.8a1.38,1.38,0,0,1-.4.3.1.1,0,0,0-.1.1c0,.1.1.1.2.1h1.8c.1,0,.2,0,.2-.1s-.1-.1-.2-.1c-.3,0-.5-.1-.5-.2s-.1-.3-.1-.6v-1.4h.6a.37.37,0,0,1,.3.1l.1.1.9,1.4a1.71,1.71,0,0,0,1.2.8c.4,0,.6-.1.6-.2s0-.1-.1-.1h-.1c-.2,0-.5-.2-.8-.7l-.1-.2-1-1.5a1.48,1.48,0,0,0,.9-1.3c0-.9-.6-1.3-1.8-1.3h-1.7c-.1,0-.2,0-.2.1C474.1,235.58,474.2,235.68,474.3,235.68Zm1.6.1a1.2,1.2,0,0,1,1.3,1.1.9.9,0,0,1-1,1h-.6v-1.8C475.5,235.87,475.7,235.78,475.9,235.78Z"/><path class="a" d="M476.4,242.58a4.38,4.38,0,0,0,3.2-1.3,4.22,4.22,0,0,0,1.3-3.2,4.38,4.38,0,0,0-1.3-3.2,4.22,4.22,0,0,0-3.2-1.3,4.12,4.12,0,0,0-3.4,1.6,4.37,4.37,0,0,0,0,5.8A4.27,4.27,0,0,0,476.4,242.58Zm-2.9-7.4a3.87,3.87,0,1,1-1.2,2.8A5,5,0,0,1,473.5,235.18Z"/></svg>