<svg xmlns="http://www.w3.org/2000/svg" viewBox="0 0 446.1 84.15"><defs><style>.a{fill:#fff;}</style></defs><title>Asset 1</title><path class="a" d="M28.7,61.44l-18.2,3.2L0,79.14l25.2-4.5c7.5-1.3,14.2-1.6,16.2,4.4v-9.7H36.5v-3.5h4.9v-.3C41.4,62,39.8,59.44,28.7,61.44Zm28.7,0-4,4c-5.7,5.7-8.5,9-8.5,13.7,2.2-6.3,9.1-5.7,17.3-4.1l24.2,4.2L75.9,64.74l-18.5-3.3Zm-3.6-5.3c-2.2,2.2-6.1,5.8-7.9,9.7h4l4.7-4.6c4.3-4.3,7.6-7.6,9-11.7a16,16,0,0,0,.8-7.5c-.1-.8-.5-2-.5-1.7-.4,4.7-1.7,7.5-8.5,14.2ZM41.1,27.54c2.5-2.5,8.8-8.1,8.8-13V9.14c0-.1-.1,0-.1,0-.4,3.6-1.3,5.2-10.2,14.1L30.8,32c-4.6,4.6-8.4,9.6-7.9,15.1.3,3.1,1.3,4.8,2,5.3.3.2.3.1.2-.1-2.7-6.1,3.7-12.3,6.9-15.5l9.1-9.3Z"/><path class="a" d="M49.9,18.34c0-.1-.1,0-.1,0-.4,3.6-1.3,5.2-10.2,14.1l-8.1,8.2c-3,3-5.7,6.1-5.5,11.1.1,3.1,1.6,5.6,3.9,6.2,1,.2.9.1.7,0-3.3-1.5-3-7.5,2.3-12.8l8.4-8.4c2.5-2.5,8.8-8.1,8.8-13v-5.4ZM22.4,42.84c.4-4.7,1.7-7.5,8.5-14.2l10.2-10.2c2.5-2.5,8.8-8.1,8.8-13V0c0-.1-.1,0-.1,0-.4,3.6-1.3,5.2-10.2,14.1L31.7,22c-4.3,4.3-7.6,7.6-9,11.7a16,16,0,0,0-.8,7.5c.2.6.5,1.8.5,1.6Zm22.4,31.9h.1a12.62,12.62,0,0,1,2.1-5.4H44.8v5.4Zm10.6-29.4-2.6,2.6c-4,4-8,8.4-8,12.5v5.5h.1c.4-4,2.4-6.6,8.1-12.3l2.4-2.4c4.6-4.6,8.4-9.6,7.9-15.1-.3-3.1-1.3-4.8-2-5.3-.3-.2-.3-.1-.2.1,2.8,6-3.6,12.3-5.7,14.4Z"/><path class="a" d="M44.8,56.34h.1c.5-3.8,2.6-6.7,7.6-11.6l2.4-2.4c3-3,5.6-6,5.5-11-.1-3.1-1.6-5.6-3.9-6.2-1-.2-.9-.1-.7,0,3.3,1.5,3,7.5-2.3,12.8l-2.9,2.9c-1.9,1.9-5.8,6.1-5.8,10v5.5Zm41.9,14.3c-.1,0-.2-.1-.4-.3l-.1-.1-.5-.7a.55.55,0,0,0,.4-.6c0-.4-.3-.6-.8-.6h-.8c-.1,0-.1,0-.1.1a.1.1,0,0,0,.1.1h.1c.1,0,.2.1.2.3v1.8c0,.1-.1.1-.2.1a.1.1,0,0,0,0,.2h.8c.1,0,.1,0,.1-.1a.1.1,0,0,0-.1-.1c-.1,0-.2,0-.2-.1a.44.44,0,0,1-.1-.3v-.6h.2c.1,0,.1,0,.1.1l.4.7c.2.2.4.4.6.4s.3,0,.3-.1S86.8,70.64,86.7,70.64Zm-1.3-1.2h-.3v-.9c0-.1.1-.1.2-.1a.71.71,0,0,1,.6.6c0,.3-.2.4-.5.4Z"/><path class="a" d="M85.5,67.44a2,2,0,0,0-1.6.7,2.17,2.17,0,0,0-.5,1.4,2.11,2.11,0,0,0,.5,1.3,1.86,1.86,0,0,0,1.6.7,2.12,2.12,0,0,0,1.5-3.6A2.46,2.46,0,0,0,85.5,67.44Zm1.3,3.4a1.66,1.66,0,0,1-1.3.5,2.11,2.11,0,0,1-1.3-.5,1.66,1.66,0,0,1-.5-1.3,2.11,2.11,0,0,1,.5-1.3,1.66,1.66,0,0,1,1.3-.5,2.11,2.11,0,0,1,1.3.5,1.66,1.66,0,0,1,.5,1.3A1.3,1.3,0,0,1,86.8,70.84Zm123.6,6.3c-.6-.4-.6-1-.6-1.9v-8.7c0-.8,0-1.3.5-1.7s1.2-.3,1.2-.7a.32.32,0,0,0-.3-.3c-.1,0-.9.1-2.2.1-1,0-1.7-.1-2-.1s-.4.1-.4.3c0,.4.6.2,1.1.6l.1.1-7.7,11.4a3.42,3.42,0,0,1-.1-1.1v-8.7c0-.8,0-1.3.5-1.7s1.2-.3,1.2-.7a.32.32,0,0,0-.3-.3c-.1,0-.9.1-2.2.1-1,0-1.7-.1-2-.1s-.4.1-.4.3c0,.4.6.2,1.1.6s.6.9.6,1.8V75a2.17,2.17,0,0,1-.5,1.8c-.5.4-1.1.4-1.1.7a.27.27,0,0,0,.3.3c.2,0,.9-.1,2.1-.1.8,0,1.5.1,2.2.1.3,0,.4,0,.4-.3s-.6-.2-1.2-.6l-.2-.2,7.8-11.4a3.42,3.42,0,0,1,.1,1.1V75a2.17,2.17,0,0,1-.5,1.8c-.5.4-1.1.4-1.1.7a.27.27,0,0,0,.3.3c.2,0,.9-.1,2.1-.1.8,0,1.5.1,2.2.1.3,0,.4,0,.4-.3-.2-.3-.9,0-1.4-.4ZM127.5,77c-.8-.3-1.3-1.2-1.8-2.4l-5.8-14.8c-.1-.3-.2-.4-.3-.4s-.3.1-.4.4l-7.1,15.1a4.19,4.19,0,0,1-1.3,1.9c-.4.3-1,.3-1,.7a.32.32,0,0,0,.3.3,11.28,11.28,0,0,1,1.4-.2c1.4,0,2.4.2,2.9.2.3,0,.4-.1.4-.3,0-.4-.5-.3-.9-.5-.6-.3-.9-.7-.9-1.1a3.82,3.82,0,0,1,.4-1.3l1.3-2.7c.3-.6.5-.9,1.1-.9h5.8a.94.94,0,0,1,1.1.8l1.3,3.5a2.24,2.24,0,0,1,.3,1c0,.5-.3.7-.8.9s-.6.2-.6.5a.32.32,0,0,0,.3.3,16.73,16.73,0,0,1,2.4-.2,28,28,0,0,1,2.9.2.27.27,0,0,0,.3-.3c-.2-.6-.8-.4-1.3-.7Zm-6.4-7h-4.9q-.6,0-.6-.3a1.69,1.69,0,0,1,.2-.5l2.8-5.9q.15-.3.3-.3t.3.3l2.3,6a.76.76,0,0,1,.1.4c0,.2-.2.3-.5.3Z"/><path class="a" d="M141.4,76.94c-1.1,0-1.1-1.1-1.1-1.3v-9.3c0-.8,0-1.3.7-1.7.5-.3.9-.2,1-.4s0-.4-.4-.4h-5.4c-.5,0-.8-.1-1.6-.1-.6,0-1.3,0-1,.5.1.2.4.2.6.2a3.43,3.43,0,0,1,1.6.4,1.09,1.09,0,0,1,.6.9,6.19,6.19,0,0,1-.7,1.9c-.8,1.5-2.7,5.1-3.7,6.5a10.83,10.83,0,0,1-1.5,2c-.6.6-.9.5-1.3.8a.91.91,0,0,0-.4.8c-.1.5,1.4,5.1,2,5,.3,0,.2-.2.2-.4,0-.4-.4-2.6-.4-2.9,0-1.1.3-1.6,1.4-1.6h7.4a.9.9,0,0,1,1,.9,12.1,12.1,0,0,1-.6,3.1,6.66,6.66,0,0,1-.3.7c0,.1,0,.2.2.2.5,0,2.1-3.5,2.4-4.1a6.89,6.89,0,0,0,.4-1c.1-.7-.7-.7-1.1-.7Zm-2.8-1.1c0,.6-.3,1.3-1.5,1.3h-5.3c-.1,0-.5,0-.5-.3a1.69,1.69,0,0,1,.2-.5l1.3-2c1.6-2.6,3-5.4,5.2-9.6.1-.3.5-.2.6,0Zm13.3-5.6V70a3.12,3.12,0,0,0,1.8-2.8c0-2-1.6-3.3-4.5-3.3-1,0-1.8.1-2.6.1-1,0-1.7-.1-2.1-.1s-.4,0-.4.3.6.2,1.2.6.6.9.6,1.8v8.6a2.18,2.18,0,0,1-.5,1.7c-.4.4-1,.4-1,.7,0,.1.1.3.2.3s.9-.1,2.1-.1c.8,0,1.8.2,3.2.2,3.1,0,4.9-1.7,4.9-4.3a3.23,3.23,0,0,0-2.9-3.5Zm-4.5-4.5c0-.9.3-1.1,1.2-1.1,2.2,0,3.7,1.4,3.7,3.2,0,1.5-.9,2.2-2.9,2.2H148c-.5,0-.6-.1-.6-.7Zm2.4,11.6c-1.8,0-2.4-.2-2.4-1.4v-4.5c0-.6.1-.7.7-.7h1.2c2.6,0,4.1,1.3,4.1,3.5S152.2,77.34,149.8,77.34ZM165.9,75c-.3,0-.4.6-1.2,1.1a8.29,8.29,0,0,1-4.1.9c-1.3,0-1.6-.2-1.6-1.2v-4c0-.5.1-.7.6-.7h1.9c1.1,0,1.7.1,1.9.8.2.5,0,1,.4,1a.45.45,0,0,0,.3-.4,11.35,11.35,0,0,1-.1-1.4c0-.9.1-1.6.1-1.8s-.1-.4-.2-.4c-.3,0-.2.5-.5.9-.4.6-1,.6-2,.6h-1.6c-.7,0-.7-.1-.7-.8v-4.1c0-.7.4-.8,1.5-.8H162c1.7,0,2.4.3,2.4,1.3v.2c0,.2.1.4.3.4s.2-.1.2-.4l.1-1.6v-.3c0-.3-.1-.4-.4-.4s-1.9.2-4.8.2c-2.3,0-3.5-.1-3.6-.1-.3,0-.4.1-.4.3,0,.4.6.2,1.1.6s.6.9.6,1.8v8.6c0,.8,0,1.3-.5,1.7s-.9.3-.9.8a.22.22,0,0,0,.2.2c.2,0,1.3-.1,3.5-.1,1.7,0,2.8.1,3.5.1a2.28,2.28,0,0,0,2.1-1,2.92,2.92,0,0,0,.6-1.5c.1-.4,0-.5-.1-.5Zm14.2,2c-.6-.4-.6-1-.6-1.9v-8.6c0-.8,0-1.3.5-1.7s1.1-.3,1.1-.7a.32.32,0,0,0-.3-.3c-.1,0-.8.1-2,.1-.9,0-1.7-.1-2.2-.1-.3,0-.4,0-.4.3s.6.2,1.2.6.6.9.6,1.8v3c0,.5-.1.5-.5.5h-6.6c-.4,0-.5,0-.5-.5v-3c0-.8,0-1.3.5-1.7s1.1-.3,1.1-.7a.32.32,0,0,0-.3-.3c-.1,0-.8.1-2.2.1-1,0-1.6-.1-2-.1s-.4.1-.4.3c0,.4.6.2,1.2.6s.6.9.6,1.8v8.6c0,.8,0,1.3-.5,1.7s-1.1.4-1.1.7a.27.27,0,0,0,.3.3c.2,0,.9-.1,2.1-.1.8,0,1.5.1,2.1.1.3,0,.4,0,.4-.3s-.6-.2-1.2-.6-.6-1-.6-1.9v-3.7c0-.4.1-.4.5-.4h6.6c.4,0,.5.1.5.4v3.8c0,.8,0,1.3-.5,1.7s-1.1.4-1.1.7a.27.27,0,0,0,.3.3c.2,0,.9-.1,2.1-.1.8,0,1.5.1,2.1.1.3,0,.4,0,.4-.3S180.6,77.44,180.1,77Zm13.8-13.1c-.4,0-1.3.1-2.5.1h-6.2c-1.1,0-1.9-.1-2.3-.1s-.6,0-.7.4l-.2,2v.3c0,.2,0,.3.2.3s.3-.4.5-1a1.47,1.47,0,0,1,1.5-1.1H187c.4,0,.6.1.6.5v10c0,1,0,1.5-.7,1.8-.5.2-1.2.1-1.2.5,0,.2.1.3.4.3a20.83,20.83,0,0,1,2.2-.2c.9,0,1.7.1,2.3.1.3,0,.4-.1.4-.3,0-.4-.4-.2-1.1-.5s-.8-.7-.8-1.7v-10c0-.4.2-.5.6-.5h2.6a1.7,1.7,0,0,1,1.6.8c.2.4.1.9.4.9s.2-.1.2-.4V66l-.1-1.8a.46.46,0,0,0-.5-.3Zm26.7.4a5.68,5.68,0,0,1,4.6,2.7c.4.6.4,1.2.8,1.2.2,0,.2-.1.2-.3v-.4l-.2-2.1c0-.3-.1-.4-.2-.4s-.3.2-.5.2-.7-.5-1.4-.8a7.25,7.25,0,0,0-3.3-.7,6.18,6.18,0,0,0-4.8,1.9,7.91,7.91,0,0,0-2,5.5c0,4.3,2.6,7,6.7,7a8.07,8.07,0,0,0,5.2-1.6l.4-1.6a.44.44,0,0,1,.1-.3c0-.2-.1-.3-.2-.3-.3,0-.5.8-1.2,1.5a5.89,5.89,0,0,1-3.9,1.6c-3.1,0-5.4-2.9-5.4-7.1-.1-3.6,2-6,5.1-6Zm18.3-.4c-.4,0-1.3.1-2.5.1h-6.2c-1.1,0-1.9-.1-2.3-.1s-.6,0-.7.4l-.2,2v.3c0,.2,0,.3.2.3s.3-.4.5-1a1.47,1.47,0,0,1,1.5-1.1H232c.4,0,.6.1.6.5v10c0,1,0,1.5-.7,1.8-.5.2-1.2.1-1.2.5,0,.2.1.3.4.3a20.83,20.83,0,0,1,2.2-.2c.9,0,1.7.1,2.3.1.3,0,.4-.1.4-.3,0-.4-.4-.2-1.1-.5s-.8-.7-.8-1.7v-10c0-.4.2-.5.6-.5h2.6a1.7,1.7,0,0,1,1.6.8c.2.4.1.9.4.9s.2-.1.2-.4V66l-.1-1.8a.55.55,0,0,0-.5-.3Zm8.6-.2a6.94,6.94,0,0,0-5.1,2.1,7.17,7.17,0,0,0-2.1,5.2,7.15,7.15,0,0,0,12.5,4.8,7.83,7.83,0,0,0,1.8-5,7,7,0,0,0-1.9-5,6.38,6.38,0,0,0-5.2-2.1Zm.2,13.8a5,5,0,0,1-4.5-2.7,8.12,8.12,0,0,1-1.3-4.5c0-3.6,2.2-6,5.5-6a5.14,5.14,0,0,1,4.4,2.4,8.19,8.19,0,0,1,1.5,4.7C253.2,75.24,251,77.54,247.7,77.54Zm15.9-7.3V70a3.12,3.12,0,0,0,1.8-2.8c0-2-1.6-3.3-4.5-3.3-1,0-1.8.1-2.6.1-1,0-1.7-.1-2.1-.1s-.4,0-.4.3.6.2,1.2.6.6.9.6,1.8v8.6a2.18,2.18,0,0,1-.5,1.7c-.4.4-1,.4-1,.7,0,.1.1.3.2.3s.9-.1,2.1-.1c.8,0,1.8.2,3.2.2,3.1,0,4.9-1.7,4.9-4.3.2-1.9-.9-3.1-2.9-3.5Zm-4.4-4.5c0-.9.3-1.1,1.2-1.1,2.2,0,3.7,1.4,3.7,3.2,0,1.5-.9,2.2-2.9,2.2h-1.4c-.5,0-.6-.1-.6-.7v-3.6Zm2.4,11.6c-1.8,0-2.4-.2-2.4-1.4v-4.5c0-.6.1-.7.7-.7h1.2c2.6,0,4.1,1.3,4.1,3.5s-1.2,3.1-3.6,3.1Zm153.6-.7c-1.4,0-1.4-1.5-1.4-1.7V63.14c0-1,0-1.7.9-2.1.7-.4,1.1-.3,1.3-.5s0-.5-.5-.5h-6.9c-.6,0-1-.1-2-.1-.7,0-1.7.1-1.3.6a1.08,1.08,0,0,0,.8.2,3.72,3.72,0,0,1,2,.5,1.45,1.45,0,0,1,.8,1.2,9.89,9.89,0,0,1-.9,2.4c-1,1.9-3.5,6.5-4.8,8.4a15.31,15.31,0,0,1-1.9,2.5c-.8.8-1.1.6-1.7,1a1.11,1.11,0,0,0-.5,1c-.1.6,1.8,6.5,2.5,6.4.3,0,.2-.3.2-.5,0-.5-.5-3.4-.5-3.8,0-1.4.4-2,1.8-2h9.6a1.2,1.2,0,0,1,1.3,1.1,15.74,15.74,0,0,1-.8,4c-.1.5-.3.7-.3.9s0,.3.3.3c.6,0,2.7-4.5,3-5.2a4.28,4.28,0,0,0,.5-1.3C416.7,76.64,415.7,76.64,415.2,76.64Zm-3.6-1.4a1.67,1.67,0,0,1-1.9,1.7h-6.8c-.2,0-.6,0-.6-.4a1.42,1.42,0,0,1,.2-.6l1.7-2.6c2.1-3.3,3.8-6.9,6.7-12.4.1-.3.7-.2.7,0v14.3ZM285,60.44a7,7,0,0,1,5.9,3.5c.5.8.6,1.6,1,1.6.2,0,.3-.2.3-.4v-.5l-.3-2.7c0-.3-.1-.5-.3-.5s-.4.2-.6.2c-.4,0-.9-.6-1.8-1a10.36,10.36,0,0,0-4.3-.9,8,8,0,0,0-6.2,2.5,10,10,0,0,0-2.6,7.1c0,5.5,3.3,9,8.7,9a11.1,11.1,0,0,0,6.7-2l.5-2.1a1,1,0,0,0,.1-.4c0-.2-.1-.4-.2-.4-.4,0-.6,1-1.6,2a7.44,7.44,0,0,1-5.1,2c-4,0-7-3.7-7-9.2,0-4.7,2.8-7.8,6.8-7.8ZM303.4,75c-.3,0-.4.6-1.2,1.1a8.29,8.29,0,0,1-4.1.9c-1.3,0-1.6-.2-1.6-1.2v-4c0-.5.1-.7.6-.7H299c1.1,0,1.7.1,1.9.8.2.5,0,1,.4,1a.45.45,0,0,0,.3-.4,11.35,11.35,0,0,1-.1-1.4c0-1,.1-1.6.1-1.8s-.1-.4-.2-.4c-.3,0-.2.5-.5.9-.4.6-1,.6-2,.6h-1.6c-.7,0-.7-.1-.7-.8v-4.1c0-.7.4-.8,1.5-.8h1.4c1.7,0,2.4.3,2.4,1.3v.2c0,.2.1.4.3.4s.2-.1.2-.4l.1-1.6v-.3c0-.3-.1-.4-.4-.4s-1.9.2-4.8.2c-2.3,0-3.5-.1-3.6-.1-.3,0-.4.1-.4.3,0,.4.6.2,1.1.6s.6.9.6,1.8v8.6c0,.8,0,1.3-.5,1.7s-.9.3-.9.8a.22.22,0,0,0,.2.2c.2,0,1.3-.1,3.5-.1,1.7,0,2.8.1,3.5.1a2.28,2.28,0,0,0,2.1-1,2.92,2.92,0,0,0,.6-1.5c.1-.4,0-.5-.1-.5Zm13.3,2c-1.1,0-1.1-1.1-1.1-1.3v-9.2c0-.8,0-1.3.7-1.7.5-.3.9-.2,1-.4s0-.4-.4-.4l-5.5.1c-.5,0-.7-.1-1.5-.1-.6,0-1.3,0-1,.5.1.2.4.2.6.2a3.43,3.43,0,0,1,1.6.4,1.09,1.09,0,0,1,.6.9,6.19,6.19,0,0,1-.7,1.9c-.8,1.5-2.7,5.1-3.7,6.5a10.83,10.83,0,0,1-1.5,2c-.6.6-.9.5-1.3.8a.91.91,0,0,0-.4.8,2.51,2.51,0,0,0,.2,1,4.88,4.88,0,0,1,.4,1.1,6.3,6.3,0,0,0,.6,2c.4.7.6.9.8.9s.3-.3.3-.4c0-.4-.1-.4-.2-1.7,0-.3-.1-.8-.1-1.1,0-1.1.1-1.6,1.2-1.6h7.4a.8.8,0,0,1,.9.9,18.12,18.12,0,0,1-.5,3.1c-.1.4-.2.6-.2.7a.32.32,0,0,0,.3.3c.5,0,1.1-.8,1.6-2.2a11.73,11.73,0,0,1,.5-1.1l.4-.8a5.39,5.39,0,0,0,.3-1c.1-1.2-.9-1.1-1.3-1.1Zm-2.9-1.2a1.15,1.15,0,0,1-1.3,1.3h-5.1c-.1,0-.5,0-.5-.3a1.69,1.69,0,0,1,.2-.5l1.2-1.9c1.6-2.6,3.1-5.6,5.3-9.9h.2v11.3Zm16.4-5.3a6,6,0,0,0-3.3-1,9.29,9.29,0,0,0-2.9.5v-3.6c0-.8,0-1.3.7-1.7.5-.3.9-.2,1-.4s.1-.4-.4-.4a6.15,6.15,0,0,0-1.3.1h-1.1a6.6,6.6,0,0,1-1.4-.1h-.7c-.4,0-.5.2-.4.4s.5.1,1,.4c.7.4.7.9.7,1.7v9c0,.8,0,1.3-.7,1.7-.5.3-.9.2-1,.4s0,.4.4.4c1.6,0,.4-.1,1.8-.1h1c.6,0,1.1.1,1.7.1h1.3a5.21,5.21,0,0,0,4-1.6,4.75,4.75,0,0,0,1.1-3,3.9,3.9,0,0,0-1.5-2.8Zm-3.7,6.7a3,3,0,0,1-2.5-1.1v-5.4a5.23,5.23,0,0,1,1.8-.3,4.17,4.17,0,0,1,3,1.1,3.42,3.42,0,0,1,1,2.5c-.1,1.3-.6,3.2-3.3,3.2Zm22.1,0c-.7-.4-.7-.8-.7-1.9l-.2-8.9v-.3a1.29,1.29,0,0,1,.6-1.3c.4-.3.9-.1.9-.5,0-.2-.1-.3-.4-.3s-.6.1-1.1.1h-.4c-.4,0-.4.1-.5.3l-5.1,10.4q-.15.3-.3.3t-.3-.3l-4.9-10.3c-.2-.4-.2-.5-.9-.5h-.4c-.5,0-.9-.1-1.1-.1s-.4.1-.4.3c0,.4.5.2.8.5.8.6,1,1.6,1,3.3a43.93,43.93,0,0,1-.6,8.4c-.2.6-.6.7-1.1.9-.1,0-.2.1-.2.3a.32.32,0,0,0,.3.3c.2,0,.6-.1,1.2-.1,1.2,0,1.9.1,2.2.1s.4-.1.4-.3c0-.4-.6-.2-1-.5-.7-.4-.7-1-.7-2v-1.7l.1-2.6c.1-1.8.1-2.7.3-2.7s.2.1.2.3l4.1,8.7c.1.3.3.5.4.5s.3-.2.4-.5l4.2-8.5c.2-.4.4-.7.5-.7s.2.3.2,1l.1,6.3V76c0,.7-.1,1.1-.6,1.4-.3.2-.7.2-.7.5s.1.2.3.2.7-.1,1.4-.1,1.5.1,2.1.1c.3,0,.5-.1.5-.3.2-.5-.1-.4-.6-.6Zm9.3-13.5a6.94,6.94,0,0,0-5.1,2.1,7.17,7.17,0,0,0-2.1,5.2,7.15,7.15,0,0,0,12.5,4.8,7.83,7.83,0,0,0,1.8-5,7,7,0,0,0-1.9-5,6.71,6.71,0,0,0-5.2-2.1Zm.2,13.8a5,5,0,0,1-4.5-2.7,8.12,8.12,0,0,1-1.3-4.5c0-3.6,2.2-6,5.5-6a5.14,5.14,0,0,1,4.4,2.4,8.19,8.19,0,0,1,1.5,4.7C363.6,75.24,361.4,77.54,358.1,77.54Zm19.3-12.3a3.4,3.4,0,0,0-.1-1,.66.66,0,0,0-.7-.6c-.5,0-.7.4-1.7.4h-7.3c-.4,0-.5.2-.4.4s.5.1,1,.4c.7.4.7.9.7,1.7v9c0,.8,0,1.3-.7,1.7-.5.3-.9.2-1,.4s0,.4.4.4a4.91,4.91,0,0,0,1.1-.1h2.4c.5,0,.7.1,1,.1s.5-.2.4-.4-.5-.1-1-.4c-.7-.4-.7-.9-.7-1.7V66c0-1.4.9-1.3,1.6-1.3,1.4,0,2.5,0,3.7,1.3.5.6.6,1,.9,1.3.1.1.3.4.5.4s.3-.2.3-.5a2.92,2.92,0,0,0-.2-.9c-.1-.7-.2-.9-.2-1.1Zm8.9-1.5a6.57,6.57,0,0,0-5,2.1,7.17,7.17,0,0,0-2.1,5.2,7.15,7.15,0,0,0,12.5,4.8,7.83,7.83,0,0,0,1.8-5,7,7,0,0,0-1.9-5,7.24,7.24,0,0,0-5.3-2.1Zm.1,13.8a5,5,0,0,1-4.5-2.7,8.12,8.12,0,0,1-1.3-4.5c0-3.6,2.2-6,5.5-6a5.14,5.14,0,0,1,4.4,2.4,8.19,8.19,0,0,1,1.5,4.7C391.9,75.24,389.8,77.54,386.4,77.54Zm45.1-.4c-.6-.4-.6-1-.6-1.9v-8.6c0-.8,0-1.3.5-1.7s1.1-.3,1.1-.7a.32.32,0,0,0-.3-.3c-.1,0-.8.1-2,.1-.9,0-1.7-.1-2.2-.1-.3,0-.4,0-.4.3s.6.2,1.2.6.6.9.6,1.8v3c0,.5-.1.5-.5.5h-6.6c-.4,0-.5,0-.5-.5v-3c0-.8,0-1.3.5-1.7s1.1-.3,1.1-.7a.32.32,0,0,0-.3-.3c-.1,0-.8.1-2.2.1-1,0-1.6-.1-2-.1s-.4.1-.4.3c0,.4.6.2,1.2.6s.6.9.6,1.8v8.6c0,.8,0,1.3-.5,1.7s-1.1.4-1.1.7a.27.27,0,0,0,.3.3c.2,0,.8-.1,2.1-.1.8,0,1.5.1,2.1.1.3,0,.4,0,.4-.3s-.6-.2-1.2-.6-.6-1-.6-1.9v-3.8c0-.4.1-.4.5-.4h6.6c.4,0,.5.1.5.4v3.8c0,.8,0,1.3-.5,1.7s-1.1.4-1.1.7a.27.27,0,0,0,.3.3c.2,0,.9-.1,2.1-.1.8,0,1.5.1,2.1.1.3,0,.4,0,.4-.3s-.7,0-1.2-.4Zm13.4-.2c-.5-.5-.5-.9-.5-1.7v-8.6c0-.9,0-1.4.6-1.8s1.1-.2,1.1-.6c0-.2-.1-.3-.4-.3s-1,.1-1.9.1c-.6,0-1.6-.1-3-.1-2.7,0-4.2,1.3-4.2,3.3a3.69,3.69,0,0,0,2.5,3.4l-2.3,3.5c-1,1.4-1.6,2.5-2.4,2.9-.5.2-.9.1-.9.4s.3.4,1.1.4c1.6,0,2.3-.9,3.3-2.5L440,72c.5-.8,1-.8,1.9-.8.7,0,.9.1.9.7v3.2a2.07,2.07,0,0,1-.7,1.9c-.6.4-1.3.2-1.3.6,0,.2.1.3.4.3s1.1-.1,2.2-.1c1.3,0,2.1.1,2.2.1a.27.27,0,0,0,.3-.3c.1-.3-.5-.2-1-.7Zm-2-6.7c0,.4-.3.5-1.1.5h-.2c-2.4,0-3.5-.8-3.5-2.8s1.3-3.2,3.7-3.2c.8,0,1.1.1,1.1.7ZM243.2,40.74c.6.4.6.9.6,1.8v8.6a2.17,2.17,0,0,1-.5,1.8c-.5.4-1.1.4-1.1.7a.27.27,0,0,0,.3.3c.2,0,.9-.1,2.1-.1.8,0,1.5.1,2.2.1.3,0,.4,0,.4-.3s-.6-.2-1.2-.6l-.2-.2,7.8-11.4a3.42,3.42,0,0,1,.1,1.1v8.6a2.17,2.17,0,0,1-.5,1.8c-.5.4-1.1.4-1.1.7a.27.27,0,0,0,.3.3c.2,0,.9-.1,2.1-.1.8,0,1.5.1,2.2.1.3,0,.4,0,.4-.3s-.6-.2-1.2-.6-.6-1-.6-1.9v-8.7c0-.8,0-1.3.5-1.7s1.2-.3,1.2-.7a.32.32,0,0,0-.3-.3c-.1,0-.9.1-2.2.1-1,0-1.7-.1-2-.1s-.4.1-.4.3c0,.4.6.2,1.1.6l.1.1-7.7,11.4a3.42,3.42,0,0,1-.1-1.1v-8.7c0-.8,0-1.3.5-1.7s1.2-.3,1.2-.7a.32.32,0,0,0-.3-.3c-.1,0-.9.1-2.2.1-1,0-1.7-.1-2-.1s-.4.1-.4.3c-.3.7.3.4.9.8Zm-111.4,0c.5.4.6.9.6,1.8v8.6c0,.8,0,1.3-.5,1.7s-.9.3-.9.8a.22.22,0,0,0,.2.2c.2,0,1.3-.1,3.5-.1,1.7,0,2.8.1,3.5.1a2.28,2.28,0,0,0,2.1-1,2.92,2.92,0,0,0,.6-1.5c0-.2-.1-.3-.2-.3-.3,0-.4.6-1.2,1.1a8.17,8.17,0,0,1-4.1,1c-1.3,0-1.6-.2-1.6-1.2v-4c0-.5.1-.7.6-.7h1.9c1,0,1.7.1,1.9.8.2.5,0,1,.4,1a.45.45,0,0,0,.3-.4,11.35,11.35,0,0,1-.1-1.4c0-1,.1-1.6.1-1.8s-.1-.4-.2-.4c-.3,0-.2.5-.5.9-.4.6-1,.6-2,.6h-1.6c-.7,0-.7-.1-.7-.8v-4.1c0-.7.4-.8,1.5-.8h1.4c1.7,0,2.4.3,2.4,1.3v.2c0,.2.1.4.3.4s.2-.1.2-.4l.1-1.6v-.3c0-.3-.1-.4-.4-.4s-1.9.2-4.8.2c-2.3,0-3.5-.1-3.6-.1-.3,0-.4.1-.4.3s.7-.1,1.2.3Zm11.3,0a2.1,2.1,0,0,1,.6,1.8v8.6c0,.8,0,1.3-.5,1.7s-1.1.4-1.1.7a.27.27,0,0,0,.3.3c.2,0,.9-.1,2.1-.1.7,0,1.4.1,2.3.1.3,0,.4,0,.4-.3s-.6-.2-1.2-.5-.7-.9-.7-1.9v-9.8c0-.6.3-.7.9-.7,2.5,0,4.2,1.5,4.2,3.6,0,1.8-1.2,2.8-3.4,2.8a10.42,10.42,0,0,1-1.1-.1.22.22,0,0,0-.2.2c0,.2.7.5,1.9.5a4.06,4.06,0,0,0,4.3-3.8c0-2.4-1.7-3.8-4.8-3.8-1,0-1.9.1-2.7.1s-1.6-.1-1.9-.1-.4.1-.4.3.5,0,1,.4Zm14.7,12.9c0-.4-.6-.2-1.2-.6s-.6-1-.6-1.9v-3.4c0-.3,0-.4.2-.4s.2.1.3.2l5.5,5.8a1.43,1.43,0,0,0,1.2.6h1.3c.5,0,.8,0,.8-.3s-.4-.2-.8-.3a4.83,4.83,0,0,1-1.7-1.3l-5-5.3a.76.76,0,0,1-.2-.4c0-.1.1-.2.3-.4l3.9-3.4a8.63,8.63,0,0,1,2.6-1.8c.4-.1.6-.1.6-.4a.27.27,0,0,0-.3-.3c-.1,0-.8.1-1.9.1s-1.8-.1-2-.1a.27.27,0,0,0-.3.3c0,.3.2.3.5.3s.6.2.6.6a1.21,1.21,0,0,1-.6.9l-4.6,4.1a.37.37,0,0,1-.3.1c-.1,0-.1-.1-.1-.4v-3.4c0-.8,0-1.3.5-1.7s1.1-.3,1.1-.7c0-.1-.1-.2-.3-.2s-.8.1-2.2.1c-1,0-1.6-.1-2-.1s-.4,0-.4.3.6.2,1.2.6.6.9.6,1.8v8.6c0,.8,0,1.3-.5,1.7s-1.1.4-1.1.7a.27.27,0,0,0,.3.3c.2,0,.9-.1,2.1-.1.8,0,1.5.1,2.1.1.3-.1.4-.1.4-.3Z"/><path class="a" d="M172.3,54.14a6.79,6.79,0,0,0,5.3-2.4,7.83,7.83,0,0,0,1.8-5,7,7,0,0,0-1.9-5,6.86,6.86,0,0,0-5.2-2.1,6.94,6.94,0,0,0-5.1,2.1,7.17,7.17,0,0,0-2.1,5.2,6.82,6.82,0,0,0,7.2,7.2Zm-.2-13.8a5.14,5.14,0,0,1,4.4,2.4,8.19,8.19,0,0,1,1.5,4.7c0,3.8-2.2,6.1-5.5,6.1a5,5,0,0,1-4.5-2.7,9,9,0,0,1-1.3-4.5c-.1-3.7,2.1-6,5.4-6Zm12,13.3c1.7,0,1.5.2,3.4.1,3.8-.1,5.1-1.9,5.1-3.8a3.39,3.39,0,0,0-1.2-2.6,5.59,5.59,0,0,0-3.2-1.1c1.9-.2,3.6-1.5,3.6-3.4,0-3.1-3.4-3.2-4.6-3.2-.8,0-1.1.1-1.6.1a12.76,12.76,0,0,1-1.7.2,4.87,4.87,0,0,1-1.2-.1H182c-.1,0-.4,0-.4.3s.1.2.2.2c.3.1.6.1.8.3.6.3.7.9.7,1.7v9c0,.8-.1,1.3-.7,1.7a2.61,2.61,0,0,1-.8.3.22.22,0,0,0-.2.2c0,.3.3.3.4.3a3.75,3.75,0,0,0,1-.1c.4,0,.8-.1,1.1-.1Zm1-12.5c0-.4.4-.7,1.6-.7a3.33,3.33,0,0,1,2.4.7,2.59,2.59,0,0,1,.8,1.9,3,3,0,0,1-3.2,3,6.05,6.05,0,0,1-1.5-.2v-4.7Zm0,6.4c0-.8.9-.8,1.3-.8,2.8,0,4.1,1.9,4.1,3.4a2.94,2.94,0,0,1-3,3A3.25,3.25,0,0,1,185,52v-4.5Zm43.9,6c0-.4-.4-.3-.7-.4a2.82,2.82,0,0,1-1.5-1.4l-4.5-7.2c-.1-.2-.2-.3-.2-.4s.1-.3.2-.5l3.7-5.1a5.92,5.92,0,0,1,1.8-1.7c.4-.2.8-.2.8-.5s-.2-.3-.6-.3-1.1.1-1.7.1c-.9,0-1.6-.2-2.1-.2-.3,0-.4.1-.4.3,0,.4.3.3.8.5a.75.75,0,0,1,.5.7c0,.4-.2.7-.6,1.3l-2.8,4c-.2.2-.3.3-.4.3s-.2-.1-.3-.4l-2.7-4.1a2.14,2.14,0,0,1-.5-1.3.73.73,0,0,1,.6-.7c.3-.1.4,0,.4-.4,0-.2-.2-.3-.5-.3-.5,0-1.3.1-2.3.1-1.4,0-2.3-.1-2.6-.1s-.4.1-.4.3c0,.5.7.3,1.5.7a6.83,6.83,0,0,1,2.2,2.5l3.2,4.9c.1.2.2.3.2.5a.75.75,0,0,1-.1.5l-3.6,5.2a6.42,6.42,0,0,1-2.4,2.5c-.5.2-1,.2-1,.6s.1.3.3.3a18.32,18.32,0,0,1,1.9-.2c1.2,0,2.1.1,2.5.1s.5-.1.5-.3c0-.4-.3-.3-.7-.4a.94.94,0,0,1-.8-.8,1.67,1.67,0,0,1,.4-1.1l3.4-4.9c.2-.3.4-.4.5-.4s.2.2.4.4l3.1,4.9a3.1,3.1,0,0,1,.5,1.1c0,.7-1.2.6-1.2,1.1,0,.2.1.3.4.3s1-.1,2.5-.1c1.2,0,1.9.1,2.2.1,0,.2.1.1.1-.1Zm6-13.6c-1,0-1.9.1-2.7.1s-1.6-.1-1.9-.1-.4.1-.4.3c0,.4.6.2,1.1.6a2.1,2.1,0,0,1,.6,1.8v8.6c0,.8,0,1.3-.5,1.7s-1.1.4-1.1.7a.27.27,0,0,0,.3.3c.2,0,.9-.1,2.1-.1.7,0,1.4.1,2.3.1.3,0,.4,0,.4-.3s-.6-.2-1.2-.5-.7-.9-.7-1.9v-9.9c0-.6.3-.7,1-.7,2.5,0,4.2,1.5,4.2,3.6,0,1.8-1.2,2.8-3.4,2.8a10.42,10.42,0,0,1-1.1-.1.22.22,0,0,0-.2.2c0,.2.7.5,1.9.5a4.06,4.06,0,0,0,4.3-3.8c-.2-2.4-2-3.9-5-3.9Zm31,.3a5.44,5.44,0,0,1,4.6,2.7c.4.6.4,1.2.8,1.2.2,0,.2-.1.2-.3v-.4l-.2-2.1c0-.3-.1-.4-.2-.4s-.3.2-.5.2-.7-.5-1.4-.8a7.25,7.25,0,0,0-3.3-.7,6.18,6.18,0,0,0-4.8,1.9,7.91,7.91,0,0,0-2,5.5c0,4.3,2.6,7,6.7,7a8.07,8.07,0,0,0,5.2-1.6l.4-1.6a.44.44,0,0,1,.1-.3c0-.2-.1-.3-.2-.3-.3,0-.5.8-1.2,1.5a5.89,5.89,0,0,1-3.9,1.6c-3.1,0-5.4-2.9-5.4-7.1-.1-3.6,2.1-6,5.1-6Zm12.5,13.5c.9,0,1.7.1,2.3.1.3,0,.4-.1.4-.3,0-.4-.4-.2-1.1-.5s-.8-.7-.8-1.7v-10c0-.4.2-.5.6-.5h2.6a1.7,1.7,0,0,1,1.6.8c.2.4.1.9.4.9s.2-.1.2-.4V42l-.1-1.8c0-.2-.1-.3-.4-.3s-1.3.1-2.5.1h-6.2c-1.1,0-1.9-.1-2.3-.1s-.6,0-.7.4l-.2,2v.3c0,.2,0,.3.2.3s.3-.4.5-1a1.47,1.47,0,0,1,1.5-1.1h2.8c.4,0,.6.1.6.5v10c0,1,0,1.5-.7,1.8-.5.2-1.2.1-1.2.5,0,.2.1.3.4.3a18,18,0,0,1,2.1-.2Zm39-.6a3.27,3.27,0,0,1-1.4-1.9l-4.5-11.4c-.1-.2-.1-.3-.3-.3s-.2.1-.3.3l-5.5,11.7a3.56,3.56,0,0,1-1,1.5c-.3.3-.8.2-.8.5,0,.1.1.3.2.3s.6-.1,1.1-.1c1.1,0,1.9.1,2.3.1.2,0,.3-.1.3-.2,0-.3-.4-.2-.7-.4a.93.93,0,0,1-.7-.9,2.24,2.24,0,0,1,.3-1l1-2.1c.2-.5.4-.7.9-.7h4.5a.87.87,0,0,1,.9.6l1,2.7a3.09,3.09,0,0,1,.2.8c0,.4-.2.5-.7.7-.3.1-.5.1-.5.4a.22.22,0,0,0,.2.2c.2,0,.8-.1,1.8-.1,1.2,0,2,.1,2.3.1s.3-.1.3-.2c0-.5-.5-.4-.9-.6Zm-4.9-5.4h-3.8c-.3,0-.5-.1-.5-.3a.76.76,0,0,1,.1-.4l2.1-4.6c.1-.2.2-.2.3-.2a.22.22,0,0,1,.2.2l1.8,4.6a.77.77,0,0,1,.1.3c0,.3-.1.4-.3.4ZM332,53c-.6-.4-.6-1-.6-1.9v-8.6c0-.8,0-1.3.5-1.7s1.1-.3,1.1-.7a.32.32,0,0,0-.3-.3c-.1,0-.8.1-2,.1-.9,0-1.7-.1-2.2-.1-.3,0-.4,0-.4.3s.6.2,1.2.6.6.9.6,1.8v3c0,.5-.1.5-.5.5h-6.6c-.4,0-.5,0-.5-.5v-3c0-.8,0-1.3.5-1.7s1.1-.3,1.1-.7a.32.32,0,0,0-.3-.3c-.1,0-.8.1-2.2.1-1,0-1.6-.1-2-.1s-.4.1-.4.3c0,.4.6.2,1.2.6s.6.9.6,1.8v8.6c0,.8,0,1.3-.5,1.7s-1.1.4-1.1.7a.27.27,0,0,0,.3.3c.2,0,.9-.1,2.1-.1.8,0,1.5.1,2.1.1.3,0,.4,0,.4-.3s-.6-.2-1.2-.6-.6-1-.6-1.9v-3.7c0-.4.1-.4.5-.4h6.6c.4,0,.5.1.5.4v3.8c0,.8,0,1.3-.5,1.7s-1.1.4-1.1.7a.27.27,0,0,0,.3.3c.2,0,.9-.1,2.1-.1.8,0,1.5.1,2.1.1.3,0,.4,0,.4-.3S332.6,53.44,332,53Zm-43.9-12.3c.6.4.6.9.6,1.8v8.6a2.17,2.17,0,0,1-.5,1.8c-.5.4-1.1.4-1.1.7a.27.27,0,0,0,.3.3c.2,0,.9-.1,2.1-.1.8,0,1.5.1,2.2.1.3,0,.4,0,.4-.3s-.6-.2-1.2-.6l-.2-.2,7.8-11.4a3.42,3.42,0,0,1,.1,1.1v8.6a2.17,2.17,0,0,1-.5,1.8c-.5.4-1.1.4-1.1.7a.27.27,0,0,0,.3.3c.2,0,.9-.1,2.1-.1.8,0,1.5.1,2.2.1.3,0,.4,0,.4-.3s-.6-.2-1.2-.6-.6-1-.6-1.9v-8.7c0-.8,0-1.3.5-1.7s1.2-.3,1.2-.7a.32.32,0,0,0-.3-.3c-.1,0-.9.1-2.2.1-1,0-1.7-.1-2-.1s-.4.1-.4.3c0,.4.6.2,1.1.6l.1.1-7.7,11.4a3.42,3.42,0,0,1-.1-1.1v-8.7c0-.8,0-1.3.5-1.7s1.2-.3,1.2-.7a.32.32,0,0,0-.3-.3c-.1,0-.9.1-2.2.1-1,0-1.7-.1-2-.1s-.4.1-.4.3c-.2.7.4.4.9.8Zm-88.6,13.1c3,0,5.1-1.9,5.1-4.3a4.24,4.24,0,0,0-4.5-3.8c-.6,0-1,.1-1.3.1l-.9.3v-3.7c0-1,0-1.5.7-1.9s1.2-.1,1.2-.5c0-.2-.1-.3-.4-.3-.8,0-1.5.1-2.3.1-1.2,0-1.9-.1-2.1-.1a.27.27,0,0,0-.3.3c0,.4.6.3,1.1.7s.5.9.5,1.7V51c0,.8,0,1.4-.6,1.8s-1.1.2-1.1.6c0,.2.1.3.4.3s.9-.1,1.9-.1a18.36,18.36,0,0,0,2.6.2Zm-1.8-7a3,3,0,0,1,1-.4c.2,0,.4-.1.8-.1,2.2,0,3.6,1.3,3.6,3.1,0,2.1-1.9,3.7-4.4,3.7-.7,0-.9-.1-.9-.7v-5.6Zm-86.3-9.9c.7.5.8,1.2.8,2.3v11c0,1,0,1.7-.7,2.2s-1.4.5-1.4.9c0,.2.2.3.4.3h16c.9,0,1.8-.2,2.3-.2.1,0,.3,0,.3.1a13.71,13.71,0,0,1-1.3,1.3c-.8.8-3.5,4.5-3.5,5s.5.4.5.4,1,.1,1.3.1c.5,0,.6-.3.7-.6a16.79,16.79,0,0,1,1.5-3.4,22,22,0,0,1,1.7-2.5c.2-.3.5-.6.5-.9a1,1,0,0,0-.9-.8,2.39,2.39,0,0,0-.9.3,5.27,5.27,0,0,1-1.2.3h-.6c-.1,0-.2-.1-.3-.2-.7-.5-.8-1.2-.8-2.4V39c0-1,0-1.7.6-2.2s1.5-.4,1.5-.9c0-.2-.2-.3-.4-.3a20.68,20.68,0,0,1-2.8.2c-1.3,0-2.1-.2-2.6-.2s-.5.1-.5.3c0,.6.8.2,1.5.8s.8,1.2.8,2.3V50c0,1,0,1.7-.7,2.2-.1.1-.3.2-.4.3a3.08,3.08,0,0,1-.9.1h-6.4a.76.76,0,0,1-.4-.2c-.7-.5-.8-1.2-.8-2.4V38.94c0-1,0-1.7.6-2.2s1.5-.4,1.5-.9c0-.2-.2-.3-.4-.3a20.68,20.68,0,0,1-2.8.2c-1.3,0-2.1-.2-2.6-.2s-.5.1-.5.3c-.1.9.6.6,1.3,1.1Z"/></svg>