<svg xmlns="http://www.w3.org/2000/svg" viewBox="0 0 528.7 101.64"><defs><style>.a{fill:#fff;}</style></defs><title>Asset 1</title><path class="a" d="M145.3,96a3,3,0,0,1-2.1-.9,4.59,4.59,0,0,1-.5-2.7V75a2.93,2.93,0,0,1,.4-1.6,1.63,1.63,0,0,1,.9-.8l.7-.2c.3-.1.4-.2.4-.4a.37.37,0,0,0-.4-.4,2.64,2.64,0,0,0-.7.1,17.9,17.9,0,0,1-2.7.1,20.09,20.09,0,0,1-2.5-.1,6.82,6.82,0,0,0-1.2-.1.37.37,0,1,0,0,.7,2.56,2.56,0,0,1,1.8,1.1,5.39,5.39,0,0,1,.5,2.6v6.2a1.17,1.17,0,0,1-.2.7,2.25,2.25,0,0,1-1,.1H128.1a2.75,2.75,0,0,1-1.3-.2,2.23,2.23,0,0,1-.2-1.2v-6.5a3.16,3.16,0,0,1,.4-1.9,2.71,2.71,0,0,1,1.6-.9c.3-.1.5-.2.5-.4a.46.46,0,0,0-.5-.4,2.81,2.81,0,0,0-.8.1,17.73,17.73,0,0,1-2.4.1,29.16,29.16,0,0,1-3.3-.2,5.39,5.39,0,0,0-1.1-.1c-.3,0-.5.1-.5.4s.2.3.5.4a4.12,4.12,0,0,1,2.1.9,3.52,3.52,0,0,1,.6,2.3V91a13.35,13.35,0,0,1-.3,3.5,1.51,1.51,0,0,1-1.1,1.2l-.9.2c-.3.1-.5.2-.5.4s.1.3.5.3a6.61,6.61,0,0,0,1.1-.1c.5,0,.8-.1,1.1-.1h2.7a11.62,11.62,0,0,1,2.2.1,3.45,3.45,0,0,0,.9.1c.4,0,.5-.1.5-.4s-.2-.4-.7-.5a3,3,0,0,1-2.2-.9,4.33,4.33,0,0,1-.6-2.6v-6.6a1.44,1.44,0,0,1,.3-1.1,3.09,3.09,0,0,1,1.3-.2h10.7a2.53,2.53,0,0,1,1.1.1,1.6,1.6,0,0,1,.2,1v7.3c0,1.8-.6,2.9-1.9,3.1-.4.1-.6.2-.6.4a.37.37,0,0,0,.4.4,8.33,8.33,0,0,0,1.2-.1c.4,0,.6-.1.9-.1h2.7a7.67,7.67,0,0,1,1.8.1,3.45,3.45,0,0,0,.9.1c.4,0,.5-.1.5-.4A.88.88,0,0,0,145.3,96Z"/><path class="a" d="M165.7,96.14a6.3,6.3,0,0,1-1.7-.6,5.87,5.87,0,0,1-1-2l-.3-.7L157,78.14c-.1-.3-.2-.4-.4-.4s-.3.1-.4.4l-6.8,15.2-.4.9a7.46,7.46,0,0,1-.7,1.2c-.3.4-.5.6-.7.6l-.5.1c-.2,0-.2.1-.2.3s.1.2.4.2a3.2,3.2,0,0,0,.7-.1h2.1l1.3.1h.5c.3,0,.4-.1.4-.2s-.1-.3-.4-.3a2.25,2.25,0,0,1-1.2-.5,1.22,1.22,0,0,1-.3-.9,5.84,5.84,0,0,1,.6-2l.9-2a7.37,7.37,0,0,1,.6-1.1,2.87,2.87,0,0,1,1.2-.2h4.8c.5,0,.8,0,.9.1a1.92,1.92,0,0,1,.4.8l.7,1.8a11.35,11.35,0,0,1,.8,2.8.8.8,0,0,1-.7.9l-.4.1a.3.3,0,1,0,0,.6.76.76,0,0,0,.4-.1,11.66,11.66,0,0,1,2.3-.1,15.64,15.64,0,0,1,2.5.1h.5c.2,0,.4-.1.4-.2C166.1,96.24,166,96.14,165.7,96.14Zm-7.8-7.8h-4.4q-.6,0-.6-.3c0-.1.1-.2.2-.5l2.6-5.8a1.24,1.24,0,0,1,.2-.3c.1,0,.2.2.3.4l.1.3,2.1,5.3.1.2c0,.1.1.2.1.3C158.6,88.24,158.4,88.34,157.9,88.34Z"/><path class="a" d="M183.6,96.14h-.4c-1-.1-2-.9-3.1-2.6l-.4-.6-3.7-5.4c2.2-1.1,3.3-2.6,3.3-4.6a3.77,3.77,0,0,0-1.6-3.4,7.43,7.43,0,0,0-4.6-1.2,13.44,13.44,0,0,0-1.9.1,19.71,19.71,0,0,1-2.1.1h-1.2a4.13,4.13,0,0,1-.9-.1c-.3,0-.5.1-.5.3s.1.3.4.3l.6.1c1,.2,1.4.9,1.4,2.3v11a9.62,9.62,0,0,1-.3,3,1.93,1.93,0,0,1-1.4,1,.3.3,0,1,0,0,.6,2.25,2.25,0,0,0,.7-.1c.4,0,.8-.1,1.1-.1h2a7.63,7.63,0,0,1,1.7.1,5.38,5.38,0,0,1,.8.1c.3,0,.5-.1.4-.3s-.2-.3-.5-.3a3.8,3.8,0,0,1-1.8-.6,1,1,0,0,1-.5-.8,6.22,6.22,0,0,1-.1-1.6v-4.7c0-.2.1-.4.2-.4l.3-.1h1.8a1.1,1.1,0,0,1,1,.5l.2.3,3.3,5.1a8.05,8.05,0,0,0,1.9,2.1,4,4,0,0,0,2.1.7,5.06,5.06,0,0,0,1.3-.2c.4-.1.6-.2.6-.4S183.7,96.14,183.6,96.14Zm-10.1-9H172a.8.8,0,0,1-1-1v-5.8q0-.75.3-.9a1.61,1.61,0,0,1,1.1-.3,5.13,5.13,0,0,1,3.5,1.2,4.16,4.16,0,0,1,1.4,3.2,3.25,3.25,0,0,1-1,2.6A3.7,3.7,0,0,1,173.5,87.14Z"/><path class="a" d="M191.1,96a2.35,2.35,0,0,1-1.2-.4,2,2,0,0,1-.7-1,7.25,7.25,0,0,1-.2-2.5v-10c0-1.9.3-2.9,1-3.2l.7-.3c.2-.1.3-.2.3-.4s-.1-.2-.4-.2h-.3l-.9.1h-1.7a19.34,19.34,0,0,1-2.6-.1h-.2c-.3,0-.4.1-.4.3s.2.3.4.3a2,2,0,0,1,1.6.8,3.87,3.87,0,0,1,.4,2.2V93a5.07,5.07,0,0,1-.3,2.2c-.2.4-.6.6-1.3.7-.3,0-.4.1-.4.3s.1.3.4.3h.6l1.6-.1h1.9a4.92,4.92,0,0,1,1.4.1h.5c.3,0,.4-.1.4-.3A3.23,3.23,0,0,0,191.1,96Z"/><path class="a" d="M223.3,96l-.8-.2a6.23,6.23,0,0,1-3.3-1.9l-9.4-9.8a1.2,1.2,0,0,1-.4-.8c0-.1.1-.3.4-.6l6.2-5.6c3.1-2.8,5.1-4.3,6.2-4.6.6-.1.9-.3.9-.5a.46.46,0,0,0-.5-.4,1.76,1.76,0,0,0-.6.1h-4.6a9.15,9.15,0,0,1-1.7-.1h-.5c-.4,0-.6.1-.6.4s.3.4.8.5c.9.2,1.3.5,1.3,1.1s-.6,1.5-1.8,2.5L207.2,83l-.3.2-.3.2c-.1,0-.2-.1-.2-.4V76a7.25,7.25,0,0,1,.3-2.5,2.75,2.75,0,0,1,1.4-1.1c.3-.1.4-.3.4-.4s-.1-.3-.4-.3a4.4,4.4,0,0,0-.9.1h-3a21.92,21.92,0,0,1-2.9-.1,3.54,3.54,0,0,1-.6-.1c-.3,0-.5.1-.5.4s.2.3.5.4l.9.2a2.36,2.36,0,0,1,1.6,1,5.83,5.83,0,0,1,.4,2.7v15.4a8.22,8.22,0,0,1-.4,3.2,1.93,1.93,0,0,1-1.6,1.1c-.3,0-.5.1-.5.3s.2.4.6.4a7.47,7.47,0,0,0,1.1-.1h3.7a11,11,0,0,1,2.1.1c.5,0,.8.1,1,.1s.4-.1.4-.3-.2-.3-.5-.4a4.24,4.24,0,0,1-2.6-1,4.27,4.27,0,0,1-.6-2.7v-6.6c0-.3.1-.4.3-.4a.76.76,0,0,1,.4.2l.4.4,9.7,10,.3.3a1.61,1.61,0,0,0,1.1.5h2.4a5,5,0,0,1,1.5.1h.4c.4,0,.6-.1.6-.4C223.7,96.14,223.6,96,223.3,96Z"/><path class="a" d="M238.2,92.94c-.1,0-.2.1-.3.2-1,1.6-3.2,2.4-6.7,2.4a4.54,4.54,0,0,1-2.1-.3c-.3-.2-.4-.7-.4-1.4v-5.3a.59.59,0,0,1,.2-.5c.1-.1.4-.1.9-.1h2.9a3,3,0,0,1,1.6.3,1.71,1.71,0,0,1,.6,1.2l.1.4a.3.3,0,0,0,.6,0v-.4a8.6,8.6,0,0,1-.1-1.6,18.49,18.49,0,0,1,.1-2.3v-.3c0-.2-.1-.3-.3-.4a.27.27,0,0,0-.3.3c-.1.6-.2,1-.4,1.1s-.5.3-.9.4a11.8,11.8,0,0,1-2.2.2h-2c-.4,0-.6,0-.7-.1s-.1-.3-.1-.7v-5.4a1.44,1.44,0,0,1,.2-.9,2.33,2.33,0,0,1,1.1-.2h2.1a15.15,15.15,0,0,1,2.8.2,1.21,1.21,0,0,1,1,.8,2.35,2.35,0,0,1,.2.8v.3c0,.3.1.4.3.4s.3-.1.3-.2a5.85,5.85,0,0,0,.1-1l.1-.8a10.42,10.42,0,0,1,.1-1.1v-.3c0-.3-.1-.4-.4-.4a1.09,1.09,0,0,0-.5.1,5.81,5.81,0,0,0-1,.1l-1.9.1c-.8,0-1.8.1-2.9.1-1.8,0-3.3-.1-4.6-.2-.4,0-.7-.1-.9-.1-.4,0-.6.1-.6.4s.1.2.4.2c.8,0,1.4.2,1.6.7a5.11,5.11,0,0,1,.4,2.6v12.2c0,1.1-.3,1.7-1,1.9l-.5.1q-.3.15-.3.3c0,.2.1.3.4.3a2.25,2.25,0,0,0,.7-.1,21.61,21.61,0,0,1,3.3-.2c1.1,0,2.5.1,4.2.2.4,0,.8.1,1,.1a3.89,3.89,0,0,0,3-1.4,4,4,0,0,0,1-2.1C238.4,93,238.3,92.94,238.2,92.94Z"/><path class="a" d="M255.6,79.54a.86.86,0,0,0-1.1-1.1H240.2a.85.85,0,0,0-.6.2c-.1.1-.1.4-.1.8a13.69,13.69,0,0,1-.2,1.6,8.38,8.38,0,0,0-.2,1,.52.52,0,0,0,.2.4c.2,0,.3-.2.4-.5a2.67,2.67,0,0,1,.8-1.6,2.2,2.2,0,0,1,1.6-.4h3.5c.3,0,.6,0,.6.1s.1.3.1.6V94a2.36,2.36,0,0,1-.4,1.6,2,2,0,0,1-1.4.6c-.3,0-.4.1-.4.3s.1.3.4.3a4.4,4.4,0,0,0,.9-.1h4.1a2,2,0,0,0,.7.1c.2,0,.4-.1.4-.3s-.2-.2-.5-.3a1.79,1.79,0,0,1-1.7-1.9V80.74a1.29,1.29,0,0,1,.2-.8,1,1,0,0,1,.7-.2H253a2.81,2.81,0,0,1,1.5.3c.3.2.4.6.6,1.2.1.3.2.4.3.4s.3-.2.3-.4a1.76,1.76,0,0,0-.1-.6Z"/><path class="a" d="M275.3,78.24h-2.4a4.12,4.12,0,0,1-1.2-.1,3.22,3.22,0,0,0-.8-.1.27.27,0,0,0-.3.3c0,.2.1.3.4.3a2,2,0,0,1,1.6.9,4.77,4.77,0,0,1,.5,2.4v6.9c0,2.3-.5,4.1-1.6,5.2s-2.6,1.7-4.7,1.7c-2.4,0-4-.7-5-2.1a8.64,8.64,0,0,1-1.1-4.9v-7.6a3.61,3.61,0,0,1,.3-1.8,1.53,1.53,0,0,1,1-.7c.3-.1.4-.2.4-.3s-.1-.2-.3-.2h-.7a3.55,3.55,0,0,0-.7.1h-3.8c-.3,0-.5.1-.5.3s.1.2.4.3a2.66,2.66,0,0,1,1.6.7,3.32,3.32,0,0,1,.4,2v7.6a9.45,9.45,0,0,0,.9,4.5,6.08,6.08,0,0,0,2.6,2.4,9.15,9.15,0,0,0,4.1.9,9.37,9.37,0,0,0,3.7-.7,6.7,6.7,0,0,0,2.6-2,9.1,9.1,0,0,0,1.5-5.6V82a10.56,10.56,0,0,1,.2-2.3,1.71,1.71,0,0,1,1.1-.9q.3-.15.3-.3C275.6,78.34,275.5,78.24,275.3,78.24Z"/><path class="a" d="M283.7,78.24a3.75,3.75,0,0,0-.8.1h-1.7a14.17,14.17,0,0,1-2.3-.1,4.59,4.59,0,0,0-1-.1c-.3,0-.4.1-.4.3s.1.3.4.4l.8.2a1.55,1.55,0,0,1,1.2.8,5.39,5.39,0,0,1,.3,2.2v14.8a6.18,6.18,0,0,1-.5,2.5,1.44,1.44,0,0,1-1.3,1,1.73,1.73,0,0,1-1.2-.6c-.2-.2-.4-.4-.5-.4s-.4.3-.5.8a1.34,1.34,0,0,0-.1.5c0,.1-.1.2-.1.3s.1.3.3.5a1.88,1.88,0,0,0,.8.2,4,4,0,0,0,3-1.5,7.7,7.7,0,0,0,1.9-3.7l.2-1.8v-14a2.42,2.42,0,0,1,.3-1.4,1.44,1.44,0,0,1,1-.6c.2-.1.4-.2.4-.3S283.9,78.24,283.7,78.24Z"/><path class="a" d="M304.8,78.24h-2.4a4.12,4.12,0,0,1-1.2-.1,3.22,3.22,0,0,0-.8-.1.27.27,0,0,0-.3.3c0,.2.1.3.4.3a2,2,0,0,1,1.6.9,4.77,4.77,0,0,1,.5,2.4v6.9c0,2.3-.5,4.1-1.6,5.2s-2.6,1.7-4.7,1.7c-2.4,0-4-.7-5-2.1a8.64,8.64,0,0,1-1.1-4.9v-7.6a3.61,3.61,0,0,1,.3-1.8,1.53,1.53,0,0,1,1-.7c.3-.1.4-.2.4-.3s-.1-.2-.3-.2h-.7a3.55,3.55,0,0,0-.7.1h-3.8c-.3,0-.5.1-.5.3s.1.2.4.3a2.66,2.66,0,0,1,1.6.7,3.32,3.32,0,0,1,.4,2v7.6a9.45,9.45,0,0,0,.9,4.5,6.08,6.08,0,0,0,2.6,2.4,9.15,9.15,0,0,0,4.1.9,9.37,9.37,0,0,0,3.7-.7,6.7,6.7,0,0,0,2.6-2,9.1,9.1,0,0,0,1.5-5.6V82a10.56,10.56,0,0,1,.2-2.3,1.71,1.71,0,0,1,1.1-.9q.3-.15.3-.3C305.1,78.34,305,78.24,304.8,78.24Z"/><path class="a" d="M325.7,96.14c-.8-.1-1.3-.3-1.5-.7a3.32,3.32,0,0,1-.4-2V80.54a2.66,2.66,0,0,1,.3-1.2,1.34,1.34,0,0,1,.7-.6l.5-.1a.3.3,0,1,0,0-.6,1.09,1.09,0,0,0-.5.1,9.81,9.81,0,0,1-2,.1,11.49,11.49,0,0,1-1.9-.1c-.4,0-.7-.1-.9-.1s-.3.1-.3.2.1.3.4.3a1.74,1.74,0,0,1,1.3.8,4.14,4.14,0,0,1,.4,1.9v4.6a.76.76,0,0,1-.2.5c-.1.1-.4.1-.7.1h-7.8a2.25,2.25,0,0,1-1-.1,1.44,1.44,0,0,1-.2-.9v-4.8a2.42,2.42,0,0,1,.3-1.4,1.71,1.71,0,0,1,1.2-.6c.2-.1.4-.2.4-.3s-.1-.3-.4-.3a1.76,1.76,0,0,0-.6.1,9.72,9.72,0,0,1-1.8.1,17.73,17.73,0,0,1-2.4-.1c-.4,0-.6-.1-.8-.1a.27.27,0,0,0-.3.3c0,.2.1.3.4.3a2.19,2.19,0,0,1,1.6.7,2.5,2.5,0,0,1,.4,1.7v11.4a14.22,14.22,0,0,1-.2,2.6,1.08,1.08,0,0,1-.8.9l-.7.2q-.3.15-.3.3c0,.2.1.2.3.2a3.22,3.22,0,0,0,.8-.1h2.8a5.79,5.79,0,0,1,1.6.1c.3,0,.5.1.7.1s.4-.1.4-.3-.2-.3-.5-.3a2.19,2.19,0,0,1-1.6-.7,3.16,3.16,0,0,1-.4-1.9v-4.9a1.29,1.29,0,0,1,.2-.8,1.44,1.44,0,0,1,.9-.2h7.8c.5,0,.7,0,.8.1s.1.3.1.7v5.4c0,1.4-.5,2.1-1.4,2.3a.46.46,0,0,0-.5.3.27.27,0,0,0,.3.3,4.4,4.4,0,0,0,.9-.1h2.6a3.81,3.81,0,0,1,1.3.1c.3,0,.5.1.7.1s.4-.1.4-.3S325.9,96.24,325.7,96.14Z"/><path class="a" d="M345.5,71.64a17.73,17.73,0,0,0-2.4.1l-1.7.2a21.85,21.85,0,0,1-2.8.1h-1.3l-1.4-.1c-.3,0-.5.1-.5.4s.2.3.6.4a2.44,2.44,0,0,1,2,1,4.91,4.91,0,0,1,.6,2.7v16.3a5.83,5.83,0,0,1-.4,2.7,2.42,2.42,0,0,1-1.6.9c-.3.1-.5.2-.5.4s.2.4.6.4a3.75,3.75,0,0,0,1-.1,31.15,31.15,0,0,1,3.4-.2c1.2,0,2.6.1,4.2.2a12.28,12.28,0,0,0,1.7.1,13.15,13.15,0,0,0,7.2-2.1,11.14,11.14,0,0,0,4.1-4.5,13.32,13.32,0,0,0,1.5-6.3,11.76,11.76,0,0,0-3.4-8.7C354.1,72.84,350.4,71.64,345.5,71.64Zm7.6,22.6a10.32,10.32,0,0,1-5.5,1.5,12.89,12.89,0,0,1-2.5-.3,20.77,20.77,0,0,1-2.4-.6,1.59,1.59,0,0,1-1.1-1.5V74.74a2.07,2.07,0,0,1,.5-1.5q.75-.6,3.6-.6a10.7,10.7,0,0,1,10.4,6.5,14.37,14.37,0,0,1,1.3,6.2C357.2,89.54,355.8,92.54,353.1,94.24Z"/><path class="a" d="M369,96a2.35,2.35,0,0,1-1.2-.4,2,2,0,0,1-.7-1,7.25,7.25,0,0,1-.2-2.5v-10c0-1.9.3-2.9,1-3.2l.7-.3c.2-.1.3-.2.3-.4s-.1-.2-.4-.2h-.3l-.9.1h-1.7A19.34,19.34,0,0,1,363,78h-.2c-.3,0-.4.1-.4.3s.2.3.4.3a2,2,0,0,1,1.6.8,3.87,3.87,0,0,1,.4,2.2V93a5.07,5.07,0,0,1-.3,2.2c-.2.4-.6.6-1.3.7-.3,0-.4.1-.4.3s.1.3.4.3h.6l1.6-.1h1.9a4.92,4.92,0,0,1,1.4.1h.5c.3,0,.4-.1.4-.3C369.7,96.24,369.5,96.14,369,96Z"/><path class="a" d="M387.5,95.94a4.94,4.94,0,0,1-1.7-.5,2.54,2.54,0,0,1-.9-1.3,11.58,11.58,0,0,1-.3-3.3V77.34c0-2.5.4-4,1.3-4.3l.9-.4c.3-.1.5-.3.5-.5s-.2-.3-.5-.3h-.5l-1.2.1c-.6,0-1.4.1-2.3.1a30.08,30.08,0,0,1-3.5-.2H379c-.4,0-.5.1-.5.4s.2.4.6.4a3.48,3.48,0,0,1,2.2,1,6.44,6.44,0,0,1,.5,3V92a6.8,6.8,0,0,1-.4,3,2.24,2.24,0,0,1-1.8.9c-.4.1-.6.2-.6.4a.46.46,0,0,0,.5.4,3.45,3.45,0,0,0,.9-.1l2.1-.1h2.6a9.23,9.23,0,0,1,1.9.1c.3,0,.5.1.7.1.4,0,.6-.1.6-.4S388.1,96,387.5,95.94Z"/><path class="a" d="M407.8,78.24a2,2,0,0,0-.7.1,4.89,4.89,0,0,1-1.3.1,18.53,18.53,0,0,1-2.5-.1h-.6c-.3,0-.4.1-.4.2s.1.3.4.3a5,5,0,0,1,1.9.7,2.19,2.19,0,0,1,.7,1.6l.2,3.1v8.4c0,.2-.1.2-.1.3s-.2-.1-.4-.3l-12.3-14a.75.75,0,0,0-.7-.4h-2.3c-.2,0-.3.1-.3.2s.1.3.4.3a2.67,2.67,0,0,1,2.1,1.5,7.45,7.45,0,0,1,.7,3.6v9.1a3.69,3.69,0,0,1-.4,2.1,2.84,2.84,0,0,1-1.5,1c-.3.1-.4.2-.4.3s.1.2.4.2h.5c.3,0,.6-.1,1-.1h.6l1.4.1a8.37,8.37,0,0,1,1.2.1h.4a.27.27,0,0,0,.3-.3c0-.2-.1-.3-.4-.3a2.73,2.73,0,0,1-1.4-.5,2.25,2.25,0,0,1-.5-1.2V83.84q0-.6.3-.6c.1,0,.1,0,.2.1l.1.1,11.2,12.8.3.3a.37.37,0,0,0,.3.1c.2,0,.3-.1.4-.3s.1-.8.1-1.8V81.14a3.17,3.17,0,0,1,.3-1.7,1.9,1.9,0,0,1,1.1-.7c.2-.1.3-.1.3-.3C408.1,78.34,408,78.24,407.8,78.24Z"/><path class="a" d="M417.9,78.14a10.87,10.87,0,0,0-1.8.1l-1.2.1c-.5,0-1.2.1-2.1.1h-.9l-1.1-.1a.27.27,0,0,0-.3.3c0,.2.1.2.4.3a2.13,2.13,0,0,1,1.5.7,3.44,3.44,0,0,1,.5,2v12a4.6,4.6,0,0,1-.3,2,2.23,2.23,0,0,1-1.2.7c-.2.1-.4.2-.4.3s.2.3.5.3a2.81,2.81,0,0,0,.8-.1,18.53,18.53,0,0,1,2.5-.1c.9,0,1.9,0,3.1.1.6,0,1,.1,1.2.1a9.88,9.88,0,0,0,5.3-1.5,8,8,0,0,0,3-3.3,10.07,10.07,0,0,0,1.1-4.6,8.59,8.59,0,0,0-2.5-6.4C424.3,79,421.6,78.14,417.9,78.14Zm5.6,16.7a7.22,7.22,0,0,1-4.1,1.1,17.62,17.62,0,0,1-1.9-.2,7.75,7.75,0,0,1-1.8-.5,1.17,1.17,0,0,1-.8-1.1V80.44a1.61,1.61,0,0,1,.3-1.1,5,5,0,0,1,2.7-.5,8.24,8.24,0,0,1,5,1.5,8.91,8.91,0,0,1,2.7,3.3,11.48,11.48,0,0,1,1,4.6C426.6,91.44,425.6,93.54,423.5,94.84Z"/><path class="a" d="M440.4,78a10.88,10.88,0,0,0-3.9.8,10.25,10.25,0,0,0-3.2,2,9.07,9.07,0,0,0-1.9,3,9.22,9.22,0,0,0-.7,3.6,9,9,0,0,0,2.7,6.8,9.76,9.76,0,0,0,7,2.6,9.25,9.25,0,0,0,9.6-9.7,8.67,8.67,0,0,0-2.7-6.6A10.06,10.06,0,0,0,440.4,78Zm5.6,15.8a6.47,6.47,0,0,1-5.1,2.3,6.92,6.92,0,0,1-5.7-2.8,10.36,10.36,0,0,1-2.3-6.8,8.37,8.37,0,0,1,1.8-5.6,6.07,6.07,0,0,1,4.9-2.1,7.7,7.7,0,0,1,6,2.7,9.58,9.58,0,0,1,2.4,6.6A8.42,8.42,0,0,1,446,93.84Z"/><path class="a" d="M469.5,78.24a2,2,0,0,0-.7.1,4.89,4.89,0,0,1-1.3.1,18.53,18.53,0,0,1-2.5-.1h-.6c-.3,0-.4.1-.4.2s.1.3.4.3a5,5,0,0,1,1.9.7,2.19,2.19,0,0,1,.7,1.6l.2,3.1v8.4c0,.2-.1.2-.1.3s-.2-.1-.4-.3l-12.2-13.9a.75.75,0,0,0-.7-.4h-2.3c-.2,0-.3.1-.3.2s.1.3.4.3a2.67,2.67,0,0,1,2.1,1.5,7.45,7.45,0,0,1,.7,3.6V93a3.69,3.69,0,0,1-.4,2.1,2.84,2.84,0,0,1-1.5,1c-.3.1-.4.2-.4.3s.1.2.4.2h.5c.3,0,.6-.1,1-.1h.6l1.4.1a8.37,8.37,0,0,1,1.2.1h.4a.27.27,0,0,0,.3-.3c0-.2-.1-.3-.4-.3a2.73,2.73,0,0,1-1.4-.5,2.25,2.25,0,0,1-.5-1.2V83.94q0-.6.3-.6c.1,0,.1,0,.2.1l.1.1,11.2,12.8.3.3a.37.37,0,0,0,.3.1c.2,0,.3-.1.4-.3s.1-.8.1-1.8V81.24a3.17,3.17,0,0,1,.3-1.7,1.9,1.9,0,0,1,1.1-.7c.2-.1.3-.1.3-.3C469.9,78.34,469.8,78.24,469.5,78.24Z"/><path class="a" d="M486.2,92.94c-.1,0-.2.1-.3.2-1,1.6-3.2,2.4-6.7,2.4a4.54,4.54,0,0,1-2.1-.3c-.3-.2-.4-.7-.4-1.4v-5.3a.59.59,0,0,1,.2-.5c.1-.1.4-.1.9-.1h2.9a3,3,0,0,1,1.6.3,1.71,1.71,0,0,1,.6,1.2l.1.4a.3.3,0,0,0,.6,0v-.4a8.6,8.6,0,0,1-.1-1.6,18.49,18.49,0,0,1,.1-2.3v-.3c0-.2-.1-.3-.3-.4a.27.27,0,0,0-.3.3c-.1.6-.2,1-.4,1.1s-.5.3-.9.4a11.8,11.8,0,0,1-2.2.2h-2c-.4,0-.6,0-.7-.1s-.1-.3-.1-.7v-5.4a1.44,1.44,0,0,1,.2-.9,2.33,2.33,0,0,1,1.1-.2h2.1a15.15,15.15,0,0,1,2.8.2,1.21,1.21,0,0,1,1,.8,2.35,2.35,0,0,1,.2.8v.3c0,.3.1.4.3.4s.3-.1.3-.2a5.85,5.85,0,0,0,.1-1l.1-.8a10.42,10.42,0,0,1,.1-1.1v-.3c0-.3-.1-.4-.4-.4a1.09,1.09,0,0,0-.5.1,5.81,5.81,0,0,0-1,.1l-1.9.1c-.8,0-1.8.1-2.9.1-1.8,0-3.3-.1-4.6-.2-.4,0-.7-.1-.9-.1-.4,0-.6.1-.6.4s.1.2.4.2c.8,0,1.4.2,1.6.7a5.11,5.11,0,0,1,.4,2.6v12.2c0,1.1-.3,1.7-1,1.9l-.5.1q-.3.15-.3.3c0,.2.1.3.4.3a2.25,2.25,0,0,0,.7-.1,21.61,21.61,0,0,1,3.3-.2c1.1,0,2.5.1,4.2.2.4,0,.8.1,1,.1a3.89,3.89,0,0,0,3-1.4,4,4,0,0,0,1-2.1C486.4,93,486.3,92.94,486.2,92.94Z"/><path class="a" d="M494.8,85.94a25.73,25.73,0,0,1-3.2-1.2,5.3,5.3,0,0,1-1.2-1,3.08,3.08,0,0,1-.6-1.9,2.64,2.64,0,0,1,1-2.1,3.19,3.19,0,0,1,2.4-.8,6.29,6.29,0,0,1,3.3.9,4.06,4.06,0,0,1,1.9,2.4c.1.4.3.6.4.6s.3-.1.3-.4a1.09,1.09,0,0,0-.1-.5l-.2-1.4c-.1-.7-.2-1.2-.2-1.3,0-.4-.1-.7-.3-.7s-.1,0-.1.1l-.2.2a.37.37,0,0,1-.3.1c-.1,0-.2,0-.2-.1l-.9-.4a6.05,6.05,0,0,0-2.4-.4,6,6,0,0,0-4.1,1.4,4.31,4.31,0,0,0-1.6,3.5,4.14,4.14,0,0,0,1.2,3.1,11.44,11.44,0,0,0,4.2,2.2,11,11,0,0,1,3.5,1.5,3.23,3.23,0,0,1-.1,5.1,4.69,4.69,0,0,1-3.1,1.1,5.68,5.68,0,0,1-3.3-1.1,5.07,5.07,0,0,1-2-2.8,1.4,1.4,0,0,0-.4-.7c-.2,0-.3.1-.3.4a8.57,8.57,0,0,0,.3,1.7,9,9,0,0,1,.3,1.2c.1.5.2.8.2.9l.3.3a5.18,5.18,0,0,0,1.8.7,9.69,9.69,0,0,0,2.3.3,6.46,6.46,0,0,0,4.6-1.6,5.24,5.24,0,0,0,1.8-4.1C499.7,88.84,498.1,87,494.8,85.94Z"/><path class="a" d="M508.4,96a2.35,2.35,0,0,1-1.2-.4,2,2,0,0,1-.7-1,7.25,7.25,0,0,1-.2-2.5v-10c0-1.9.3-2.9,1-3.2l.7-.3c.2-.1.3-.2.3-.4s-.1-.2-.4-.2h-.3l-.9.1H505a19.34,19.34,0,0,1-2.6-.1h-.2c-.3,0-.4.1-.4.3s.2.3.4.3a2,2,0,0,1,1.6.8,3.87,3.87,0,0,1,.4,2.2V93a5.07,5.07,0,0,1-.3,2.2c-.2.4-.6.6-1.3.7-.3,0-.4.1-.4.3s.1.3.4.3h.6l1.6-.1h1.9a4.92,4.92,0,0,1,1.4.1h.5c.3,0,.4-.1.4-.3C509.1,96.24,508.8,96.14,508.4,96Z"/><path class="a" d="M528.1,96.14a6.3,6.3,0,0,1-1.7-.6,5.87,5.87,0,0,1-1-2l-.3-.7-5.7-14.7c-.1-.3-.2-.4-.4-.4s-.3.1-.4.4l-6.8,15.2-.4.9a7.46,7.46,0,0,1-.7,1.2c-.3.4-.5.6-.7.6l-.5.1c-.1,0-.2.1-.2.3s.1.2.4.2a3.2,3.2,0,0,0,.7-.1h2.1l1.3.1h.5c.3,0,.4-.1.4-.2s-.1-.3-.4-.3a2.25,2.25,0,0,1-1.2-.5,1.22,1.22,0,0,1-.3-.9,5.84,5.84,0,0,1,.6-2l.9-2a7.37,7.37,0,0,1,.6-1.1,2.87,2.87,0,0,1,1.2-.2h4.8c.5,0,.8,0,.9.1a1.92,1.92,0,0,1,.4.8l.7,1.8a11.35,11.35,0,0,1,.8,2.8.8.8,0,0,1-.7.9l-.4.1a.3.3,0,1,0,0,.6.76.76,0,0,0,.4-.1,11.66,11.66,0,0,1,2.3-.1,15.64,15.64,0,0,1,2.5.1h.5c.2,0,.4-.1.4-.2C528.5,96.24,528.3,96.14,528.1,96.14Zm-7.8-7.8h-4.4q-.6,0-.6-.3c0-.1.1-.2.2-.5l2.6-5.8a1.24,1.24,0,0,1,.2-.3c.1,0,.2.2.3.4l.1.3,2.1,5.3.1.2c0,.1.1.2.1.3C520.9,88.24,520.7,88.34,520.3,88.34Z"/><path class="a" d="M132.3,67.14a15.69,15.69,0,0,0,7.6-2l1.2-.7a3.72,3.72,0,0,1,1.5-.6,1.21,1.21,0,0,0,.5-.1l.1-.3v-7a1.81,1.81,0,0,1,1.4-2c.4-.1.5-.2.5-.4s-.1-.3-.4-.3a11.31,11.31,0,0,0-1.4.1H138q-.6,0-.6.3c0,.3.3.4.7.5,1,.1,1.6.2,1.9.5a2.07,2.07,0,0,1,.5,1.5v4.1a4,4,0,0,1-.6,2.5,7.93,7.93,0,0,1-6.5,3,9.19,9.19,0,0,1-7.3-3.5,13.23,13.23,0,0,1-3-8.8,12.21,12.21,0,0,1,2.6-8,8.12,8.12,0,0,1,6.7-3.1,11.72,11.72,0,0,1,6.2,1.8,11.4,11.4,0,0,1,4.3,4.7c.1.2.2.3.4.3a.46.46,0,0,0,.4-.5,1.09,1.09,0,0,0-.1-.5c-.1-.5-.2-.9-.3-1.4l-.2-1.7a6.82,6.82,0,0,1-.1-1.2c0-.6-.1-.8-.3-.8a.37.37,0,0,0-.3.1l-.4.3a.49.49,0,0,1-.3.1.37.37,0,0,1-.3-.1,12.5,12.5,0,0,0-3.8-1.5,18.6,18.6,0,0,0-4.5-.6,12.45,12.45,0,0,0-9.2,3.8,13.29,13.29,0,0,0-3.7,9.5,11.34,11.34,0,0,0,12.1,12Z"/><path class="a" d="M147.7,48.94c.8,0,1.4.2,1.6.7a5.11,5.11,0,0,1,.4,2.6v12.2c0,1.1-.3,1.7-1,1.9l-.5.1q-.3.15-.3.3c0,.2.1.3.4.3a2.25,2.25,0,0,0,.7-.1,21.61,21.61,0,0,1,3.3-.2c1.1,0,2.5.1,4.2.2.4,0,.8.1,1,.1a3.89,3.89,0,0,0,3-1.4,4,4,0,0,0,1-2.1c0-.2-.1-.4-.2-.3s-.2.1-.3.2c-1,1.6-3.2,2.4-6.7,2.4a4.54,4.54,0,0,1-2.1-.3c-.3-.2-.4-.7-.4-1.4v-5.5a.59.59,0,0,1,.2-.5c.1-.1.4-.1.9-.1h2.9a3,3,0,0,1,1.6.3,1.71,1.71,0,0,1,.6,1.2l.1.4a.3.3,0,1,0,.6,0v-.4a8.6,8.6,0,0,1-.1-1.6,18.49,18.49,0,0,1,.1-2.3v-.3c0-.2-.1-.3-.3-.4a.27.27,0,0,0-.3.3c-.1.6-.2,1-.4,1.1s-.5.3-.9.4a11.8,11.8,0,0,1-2.2.2h-2c-.4,0-.6,0-.7-.1s-.1-.3-.1-.7v-5.4a1.44,1.44,0,0,1,.2-.9,2.33,2.33,0,0,1,1.1-.2h2.1a15.15,15.15,0,0,1,2.8.2,1.21,1.21,0,0,1,1,.8,2.35,2.35,0,0,1,.2.8v.3c0,.3.1.4.3.4s.3-.1.3-.2a5.85,5.85,0,0,0,.1-1l.1-.8a10.42,10.42,0,0,1,.1-1.1v-.3c0-.3-.1-.4-.4-.4a1.09,1.09,0,0,0-.5.1,5.81,5.81,0,0,0-1,.1l-1.9.1c-.8,0-1.8.1-2.9.1-1.8,0-3.3-.1-4.6-.2-.4,0-.7-.1-.9-.1-.4,0-.6.1-.6.4C147.4,48.84,147.5,48.94,147.7,48.94Z"/><path class="a" d="M169.5,66.84a5.38,5.38,0,0,1,.8.1c.3,0,.5-.1.4-.3s-.2-.3-.5-.3a3.8,3.8,0,0,1-1.8-.6,1,1,0,0,1-.5-.8,6.22,6.22,0,0,1-.1-1.6v-4.7c0-.2.1-.4.2-.4l.3-.1h1.8a1.1,1.1,0,0,1,1,.5l.2.3,3.3,5.1a8.05,8.05,0,0,0,1.9,2.1,4,4,0,0,0,2.1.7,5.06,5.06,0,0,0,1.3-.2c.4-.1.6-.2.6-.4a.22.22,0,0,0-.2-.2h-.4c-1-.1-2-.9-3.1-2.6l-.4-.6-3.7-5.4c2.2-1.1,3.3-2.6,3.3-4.6a3.77,3.77,0,0,0-1.6-3.4,7.43,7.43,0,0,0-4.6-1.2,13.44,13.44,0,0,0-1.9.1,19.71,19.71,0,0,1-2.1.1h-1.2a4.13,4.13,0,0,1-.9-.1c-.3,0-.5.1-.5.3s.1.3.4.3l.6.1c1,.2,1.4.9,1.4,2.3v11a9.62,9.62,0,0,1-.3,3,1.93,1.93,0,0,1-1.4,1,.3.3,0,1,0,0,.6,2.25,2.25,0,0,0,.7-.1c.4,0,.8-.1,1.1-.1h2A8.67,8.67,0,0,1,169.5,66.84ZM168,49.54a1.61,1.61,0,0,1,1.1-.3,5.13,5.13,0,0,1,3.5,1.2,4.16,4.16,0,0,1,1.4,3.2,3.25,3.25,0,0,1-1,2.6,4.06,4.06,0,0,1-2.7,1h-1.6a.8.8,0,0,1-1-1v-5.8Q167.7,49.69,168,49.54Z"/><path class="a" d="M195.1,63c-.1,0-.2.1-.3.2-1,1.6-3.2,2.4-6.7,2.4a4.54,4.54,0,0,1-2.1-.3c-.3-.2-.4-.7-.4-1.4v-5.3a.59.59,0,0,1,.2-.5c.1-.1.4-.1.9-.1h2.9a3,3,0,0,1,1.6.3,1.71,1.71,0,0,1,.6,1.2l.1.4a.3.3,0,1,0,.6,0v-.4a8.6,8.6,0,0,1-.1-1.6,18.49,18.49,0,0,1,.1-2.3v-.3c0-.2-.1-.3-.3-.4a.27.27,0,0,0-.3.3c-.1.6-.2,1-.4,1.1s-.5.3-.9.4a11.8,11.8,0,0,1-2.2.2h-2c-.4,0-.6,0-.7-.1s-.1-.3-.1-.7v-5.4a1.44,1.44,0,0,1,.2-.9,2.33,2.33,0,0,1,1.1-.2H189a15.15,15.15,0,0,1,2.8.2,1.21,1.21,0,0,1,1,.8,2.35,2.35,0,0,1,.2.8v.3c0,.3.1.4.3.4s.3-.1.3-.2a5.85,5.85,0,0,0,.1-1l.1-.8a10.42,10.42,0,0,1,.1-1.1v-.3c0-.3-.1-.4-.4-.4a1.09,1.09,0,0,0-.5.1,5.81,5.81,0,0,0-1,.1l-1.9.1c-.8,0-1.8.1-2.9.1-1.8,0-3.3-.1-4.6-.2-.4,0-.7-.1-.9-.1-.4,0-.6.1-.6.4s.1.2.4.2c.8,0,1.4.2,1.6.7a5.11,5.11,0,0,1,.4,2.6v12.2c0,1.1-.3,1.7-1,1.9l-.5.1q-.3.15-.3.3c0,.2.1.3.4.3a2.25,2.25,0,0,0,.7-.1,21.61,21.61,0,0,1,3.3-.2c1.1,0,2.5.1,4.2.2.4,0,.8.1,1,.1a3.89,3.89,0,0,0,3-1.4,4,4,0,0,0,1-2.1C195.3,63.14,195.3,63,195.1,63Z"/><path class="a" d="M201.6,64.94v-14a2.42,2.42,0,0,1,.3-1.4,1.44,1.44,0,0,1,1-.6c.2-.1.4-.2.4-.3s-.1-.2-.3-.2a3.75,3.75,0,0,0-.8.1h-1.7a14.17,14.17,0,0,1-2.3-.1,4.59,4.59,0,0,0-1-.1c-.3,0-.4.1-.4.3s.1.3.4.4l.8.2a1.55,1.55,0,0,1,1.2.8,5.39,5.39,0,0,1,.3,2.2V67a6.18,6.18,0,0,1-.5,2.5,1.44,1.44,0,0,1-1.3,1,1.73,1.73,0,0,1-1.2-.6c-.2-.2-.4-.4-.5-.4s-.4.3-.5.8a1.34,1.34,0,0,0-.1.5c0,.1-.1.2-.1.3s.1.3.3.5a1.88,1.88,0,0,0,.8.2,4,4,0,0,0,3-1.5,7.7,7.7,0,0,0,1.9-3.7Z"/><path class="a" d="M204.2,66.84a3.2,3.2,0,0,0,.7-.1H207l1.3.1h.5c.3,0,.4-.1.4-.2s-.1-.3-.4-.3a2.25,2.25,0,0,1-1.2-.5,1.22,1.22,0,0,1-.3-.9,5.84,5.84,0,0,1,.6-2l.9-2a7.37,7.37,0,0,1,.6-1.1,2.87,2.87,0,0,1,1.2-.2h4.8c.5,0,.8,0,.9.1a1.92,1.92,0,0,1,.4.8l.7,1.8a11.35,11.35,0,0,1,.8,2.8.8.8,0,0,1-.7.9l-.4.1a.3.3,0,1,0,0,.6.76.76,0,0,0,.4-.1,11.66,11.66,0,0,1,2.3-.1,15.64,15.64,0,0,1,2.5.1h.5c.2,0,.4-.1.4-.2s-.1-.3-.4-.3a6.3,6.3,0,0,1-1.7-.6,5.87,5.87,0,0,1-1-2l-.3-.7-5.7-14.7c-.1-.3-.2-.4-.4-.4s-.3.1-.4.4l-6.8,15.2-.4.9a7.46,7.46,0,0,1-.7,1.2c-.3.4-.5.6-.7.6l-.5.1c-.2,0-.2.1-.2.3C203.8,66.74,203.9,66.84,204.2,66.84Zm5.9-9.2,2.6-5.8a1.24,1.24,0,0,1,.2-.3c.1,0,.2.2.3.4l.1.3,2.1,5.3.1.2c0,.1.1.2.1.3s-.2.3-.7.3h-4.4q-.6,0-.6-.3A.62.62,0,0,1,210.1,57.64Z"/><path class="a" d="M258.9,66.84h.5c.4,0,.7-.1.7-.4s-.3-.4-1-.5a2.53,2.53,0,0,1-1.8-.8,3.44,3.44,0,0,1-.5-2l-.1-2.3-.3-9.8-.1-4.4a7.39,7.39,0,0,1,.4-3,1.63,1.63,0,0,1,1.3-1.1l.8-.2c.2-.1.4-.2.4-.4a.37.37,0,0,0-.4-.4h-.5c-.5,0-1.1.1-1.8.1h-.6a5.38,5.38,0,0,1-.8-.1.75.75,0,0,0-.5.1,3.22,3.22,0,0,0-.4.7l-8.5,18.2-.2.4-.2.5q-.15.3-.3.3c-.1,0-.2-.2-.3-.5l-.9-1.9-7.5-16.2-.2-.4c-.3-.8-.8-1.1-1.3-1.1a2,2,0,0,0-.7.1h-3.7c-.3,0-.5.1-.5.4a.46.46,0,0,0,.5.4,3.64,3.64,0,0,1,2.8,1.9c.6,1,.8,2.6.8,4.8q0,1.5-.3,7.2l-.3,5.2a8.76,8.76,0,0,1-.6,3.1,2.66,2.66,0,0,1-1.8,1.2c-.3.1-.4.2-.4.4s.2.4.5.4a1.76,1.76,0,0,0,.6-.1,19.48,19.48,0,0,1,2.5-.2c.7,0,1.8.1,3.1.2h.7c.3,0,.5-.1.5-.4s-.4-.4-1.1-.5c-1.5-.2-2.2-1.4-2.2-3.5s0-3.7.1-4.4l.4-8.9,6.8,14.6.4.8a7.91,7.91,0,0,1,.5,1c.3.6.5.9.8.9s.5-.3.8-.8a2.39,2.39,0,0,0,.3-.7,21.73,21.73,0,0,0,1-2.1c.9-2,1.4-3.2,1.5-3.4l1.8-3.8,1.6-3.4c.3-.7,1-1.9,2-3.7l.5,11.5.1,2.9a4.5,4.5,0,0,1-.4,2.3,2.15,2.15,0,0,1-1.4.9c-.3.1-.5.2-.5.4s.2.3.5.3.9,0,2.2-.1a13.57,13.57,0,0,1,1.8-.1,7.57,7.57,0,0,1,1.5.1Z"/><path class="a" d="M260.9,66.84a3.2,3.2,0,0,0,.7-.1h2.1l1.3.1h.5c.3,0,.4-.1.4-.2s-.1-.3-.4-.3a2.25,2.25,0,0,1-1.2-.5,1.22,1.22,0,0,1-.3-.9,5.84,5.84,0,0,1,.6-2l.9-2a7.37,7.37,0,0,1,.6-1.1,2.87,2.87,0,0,1,1.2-.2h4.8c.5,0,.8,0,.9.1a1.92,1.92,0,0,1,.4.8l.7,1.8a11.35,11.35,0,0,1,.8,2.8.8.8,0,0,1-.7.9l-.4.1a.3.3,0,1,0,0,.6.76.76,0,0,0,.4-.1,11.66,11.66,0,0,1,2.3-.1,15.64,15.64,0,0,1,2.5.1h.5c.2,0,.4-.1.4-.2s-.1-.3-.4-.3a6.3,6.3,0,0,1-1.7-.6,5.87,5.87,0,0,1-1-2l-.3-.7-5.7-14.7c-.1-.3-.2-.4-.4-.4s-.3.1-.4.4l-6.8,15.2-.4.9a7.46,7.46,0,0,1-.7,1.2c-.3.4-.5.6-.7.6l-.5.1c-.2,0-.2.1-.2.3C260.5,66.74,260.6,66.84,260.9,66.84Zm5.9-9.2,2.6-5.8a1.24,1.24,0,0,1,.2-.3c.1,0,.2.2.3.4l.1.3,2.1,5.3.1.2c0,.1.1.2.1.3s-.2.3-.7.3h-4.4q-.6,0-.6-.3Z"/><path class="a" d="M291.8,61.34c0-2.4-1.6-4.2-4.9-5.3a25.73,25.73,0,0,1-3.2-1.2,5.3,5.3,0,0,1-1.2-1,3.08,3.08,0,0,1-.6-1.9,2.64,2.64,0,0,1,1-2.1,3.19,3.19,0,0,1,2.4-.8,6.29,6.29,0,0,1,3.3.9,4.06,4.06,0,0,1,1.9,2.4c.1.4.3.6.4.6s.3-.1.3-.4a1.09,1.09,0,0,0-.1-.5l-.2-1.4c-.1-.7-.2-1.2-.2-1.3,0-.4-.1-.7-.3-.7s-.1,0-.1.1l-.2.2a.37.37,0,0,1-.3.1c-.1,0-.2,0-.2-.1l-.9-.4a6.05,6.05,0,0,0-2.4-.4,6,6,0,0,0-4.1,1.4,4.31,4.31,0,0,0-1.6,3.5,4.14,4.14,0,0,0,1.2,3.1,11.44,11.44,0,0,0,4.2,2.2,11,11,0,0,1,3.5,1.5,3.23,3.23,0,0,1-.1,5.1,4.69,4.69,0,0,1-3.1,1.1,5.68,5.68,0,0,1-3.3-1.1,5.07,5.07,0,0,1-2-2.8,1.4,1.4,0,0,0-.4-.7c-.2,0-.3.1-.3.4a8.57,8.57,0,0,0,.3,1.7,9,9,0,0,1,.3,1.2c.1.5.2.8.2.9l.3.3a5.18,5.18,0,0,0,1.8.7,9.69,9.69,0,0,0,2.3.3,6.46,6.46,0,0,0,4.6-1.6A5.13,5.13,0,0,0,291.8,61.34Z"/><path class="a" d="M307.8,63c-.1,0-.2.1-.3.2-1,1.6-3.2,2.4-6.7,2.4a4.54,4.54,0,0,1-2.1-.3c-.3-.2-.4-.7-.4-1.4v-5.3a.59.59,0,0,1,.2-.5c.1-.1.4-.1.9-.1h2.9a3,3,0,0,1,1.6.3,1.71,1.71,0,0,1,.6,1.2l.1.4a.32.32,0,0,0,.3.3.27.27,0,0,0,.3-.3v-.4a8.6,8.6,0,0,1-.1-1.6,18.49,18.49,0,0,1,.1-2.3v-.3c0-.2-.1-.3-.3-.4a.27.27,0,0,0-.3.3c-.1.6-.2,1-.4,1.1s-.5.3-.9.4a11.8,11.8,0,0,1-2.2.2h-2c-.4,0-.6,0-.7-.1s-.1-.3-.1-.7v-5.4a1.44,1.44,0,0,1,.2-.9,2.33,2.33,0,0,1,1.1-.2h2.1a15.15,15.15,0,0,1,2.8.2,1.21,1.21,0,0,1,1,.8,2.35,2.35,0,0,1,.2.8v.3c0,.3.1.4.3.4s.3-.1.3-.2a5.85,5.85,0,0,0,.1-1l.1-.8a10.42,10.42,0,0,1,.1-1.1v-.3c0-.3-.1-.4-.4-.4a1.09,1.09,0,0,0-.5.1,5.81,5.81,0,0,0-1,.1l-1.9.1c-.8,0-1.8.1-2.9.1-1.8,0-3.3-.1-4.6-.2-.4,0-.7-.1-.9-.1-.4,0-.6.1-.6.4s.1.2.4.2c.8,0,1.4.2,1.6.7a5.11,5.11,0,0,1,.4,2.6v12.2c0,1.1-.3,1.7-1,1.9l-.5.1q-.3.15-.3.3c0,.2.1.3.4.3a2.25,2.25,0,0,0,.7-.1,21.61,21.61,0,0,1,3.3-.2c1.1,0,2.5.1,4.2.2.4,0,.8.1,1,.1a3.89,3.89,0,0,0,3-1.4,4,4,0,0,0,1-2.1C308.1,63.14,308,63,307.8,63Z"/><path class="a" d="M328.1,66.24c-.8-.1-1.3-.3-1.5-.7a3.32,3.32,0,0,1-.4-2V50.64a2.66,2.66,0,0,1,.3-1.2,1.34,1.34,0,0,1,.7-.6l.5-.1a.3.3,0,1,0,0-.6,1.09,1.09,0,0,0-.5.1,9.81,9.81,0,0,1-2,.1,11.49,11.49,0,0,1-1.9-.1c-.4,0-.7-.1-.9-.1s-.3.1-.3.2.1.3.4.3a1.74,1.74,0,0,1,1.3.8,4.14,4.14,0,0,1,.4,1.9v4.6a.76.76,0,0,1-.2.5c-.1.1-.4.1-.7.1h-7.8a2.25,2.25,0,0,1-1-.1,1.44,1.44,0,0,1-.2-.9v-4.8a2.42,2.42,0,0,1,.3-1.4,1.71,1.71,0,0,1,1.2-.6c.2-.1.4-.2.4-.3s-.1-.3-.4-.3a1.76,1.76,0,0,0-.6.1,9.72,9.72,0,0,1-1.8.1,17.73,17.73,0,0,1-2.4-.1c-.4,0-.6-.1-.8-.1a.27.27,0,0,0-.3.3c0,.2.1.3.4.3a2.19,2.19,0,0,1,1.6.7,2.5,2.5,0,0,1,.4,1.7v11.4a14.22,14.22,0,0,1-.2,2.6,1.08,1.08,0,0,1-.8.9l-.7.2q-.3.15-.3.3c0,.2.1.2.3.2a3.22,3.22,0,0,0,.8-.1h2.8a5.79,5.79,0,0,1,1.6.1c.3,0,.5.1.7.1s.4-.1.4-.3-.2-.3-.5-.3a2.19,2.19,0,0,1-1.6-.7,3.16,3.16,0,0,1-.4-1.9v-4.9a1.29,1.29,0,0,1,.2-.8,1.44,1.44,0,0,1,.9-.2h7.8c.5,0,.7,0,.8.1s.1.3.1.7v5.4c0,1.4-.5,2.1-1.4,2.3a.46.46,0,0,0-.5.3.27.27,0,0,0,.3.3,4.4,4.4,0,0,0,.9-.1h2.6a3.81,3.81,0,0,1,1.3.1c.3,0,.5.1.7.1s.4-.1.4-.3S328.4,66.34,328.1,66.24Z"/><path class="a" d="M337,66.74h.5c.3,0,.4-.1.4-.3s-.2-.3-.7-.3a2.35,2.35,0,0,1-1.2-.4,2,2,0,0,1-.7-1,7.25,7.25,0,0,1-.2-2.5v-10c0-1.9.3-2.9,1-3.2l.7-.3c.2-.1.3-.2.3-.4s-.1-.2-.4-.2h-.3l-.9.1h-1.7a19.34,19.34,0,0,1-2.6-.1H331c-.3,0-.4.1-.4.3s.2.3.4.3a2,2,0,0,1,1.6.8,3.87,3.87,0,0,1,.4,2.2v11.4a5.07,5.07,0,0,1-.3,2.2c-.2.4-.6.6-1.3.7-.3,0-.4.1-.4.3s.1.3.4.3h.6l1.6-.1h1.9A5.42,5.42,0,0,0,337,66.74Z"/><path class="a" d="M370.3,66a5.93,5.93,0,0,1-2.3-.8,10.33,10.33,0,0,1-1.4-2.7l-.4-1-7.8-19.9c-.1-.3-.3-.5-.5-.5s-.4.2-.5.5l-9.3,20.6-.5,1.2a8.63,8.63,0,0,1-1,1.6,2.57,2.57,0,0,1-1,.9l-.7.2c-.2.1-.3.2-.3.4s.2.3.5.3a5.81,5.81,0,0,0,1-.1h2.8l1.7.1h.6c.3,0,.5-.1.5-.3s-.2-.4-.6-.4a3.92,3.92,0,0,1-1.7-.7,1.59,1.59,0,0,1-.4-1.2,8.31,8.31,0,0,1,.8-2.7l1.2-2.7c.4-.8.6-1.3.9-1.4a5,5,0,0,1,1.7-.2h6.5a2.23,2.23,0,0,1,1.2.2,7.37,7.37,0,0,1,.6,1.1l.9,2.4a15.59,15.59,0,0,1,1.1,3.8,1,1,0,0,1-.9,1.2l-.6.1c-.3.1-.5.2-.5.4a.46.46,0,0,0,.5.4,1.76,1.76,0,0,0,.6-.1,21.23,21.23,0,0,1,3.1-.1,26.5,26.5,0,0,1,3.3.1h.7c.3,0,.5-.1.5-.3C370.8,66.24,370.7,66.14,370.3,66Zm-10.6-10.5h-5.9c-.6,0-.8-.2-.8-.5,0-.1.1-.3.2-.7l3.5-7.8c.1-.2.2-.4.3-.3s.3.2.5.6l.1.4,2.8,7.1.1.3a.76.76,0,0,1,.1.4C360.6,55.34,360.3,55.54,359.7,55.54Z"/><path class="a" d="M378.5,48.24a10.87,10.87,0,0,0-1.8.1l-1.2.1c-.5,0-1.2.1-2.1.1h-.9l-1.1-.1a.27.27,0,0,0-.3.3c0,.2.1.2.4.3a2.13,2.13,0,0,1,1.5.7,3.44,3.44,0,0,1,.5,2v12a4.6,4.6,0,0,1-.3,2,2.23,2.23,0,0,1-1.2.7c-.2.1-.4.2-.4.3s.2.3.5.3a2.81,2.81,0,0,0,.8-.1,18.53,18.53,0,0,1,2.5-.1c.9,0,1.9,0,3.1.1.6,0,1,.1,1.2.1a9.88,9.88,0,0,0,5.3-1.5,8,8,0,0,0,3-3.3,10.07,10.07,0,0,0,1.1-4.6,8.59,8.59,0,0,0-2.5-6.4C384.9,49.14,382.2,48.24,378.5,48.24Zm5.6,16.7A7.22,7.22,0,0,1,380,66a17.62,17.62,0,0,1-1.9-.2,7.75,7.75,0,0,1-1.8-.5,1.17,1.17,0,0,1-.8-1.1V50.54a1.61,1.61,0,0,1,.3-1.1,5,5,0,0,1,2.7-.5,8.24,8.24,0,0,1,5,1.5,8.91,8.91,0,0,1,2.7,3.3,11.48,11.48,0,0,1,1,4.6C387.2,61.54,386.2,63.64,384.1,64.94Z"/><path class="a" d="M388.7,48.94c.1,0,.4.1.8.2a3.7,3.7,0,0,1,1.1.5,8.28,8.28,0,0,1,.9,1.5l6.7,15.6c.2.4.4.7.6.7s.4-.2.5-.7l6.6-15.5.4-.9a2.25,2.25,0,0,1,1.5-1.5q.3-.15.3-.3c0-.2-.1-.2-.3-.2h-2.5a8.33,8.33,0,0,1-1.2-.1h-.4c-.3,0-.4.1-.4.2s.2.3.7.4a2.19,2.19,0,0,1,.8.3.85.85,0,0,1,.2.6c0,.9-.6,2.8-1.9,5.7l-2.9,6.9-.2.5c-.2.5-.4.8-.5.8s-.2-.1-.3-.4l-5.1-11.7a5.49,5.49,0,0,1-.6-1.9.75.75,0,0,1,.1-.5,1.54,1.54,0,0,1,.7-.3q.3-.15.3-.3c0-.2-.1-.2-.4-.2h-.4c-.4,0-.7.1-.9.1H389c-.2,0-.4.1-.4.3S388.6,48.84,388.7,48.94Z"/><path class="a" d="M417.7,66.84c.4,0,.8.1,1,.1a3.89,3.89,0,0,0,3-1.4,4,4,0,0,0,1-2.1c0-.2-.1-.4-.2-.3s-.2.1-.3.2c-1,1.6-3.2,2.4-6.7,2.4a4.54,4.54,0,0,1-2.1-.3c-.3-.2-.4-.7-.4-1.4v-5.4a.59.59,0,0,1,.2-.5c.1-.1.4-.1.9-.1H417a3,3,0,0,1,1.6.3,1.71,1.71,0,0,1,.6,1.2l.1.4a.3.3,0,0,0,.6,0v-.4a8.6,8.6,0,0,1-.1-1.6,18.49,18.49,0,0,1,.1-2.3v-.3c0-.2-.1-.3-.3-.4a.27.27,0,0,0-.3.3c-.1.6-.2,1-.4,1.1s-.5.3-.9.4a11.8,11.8,0,0,1-2.2.2h-2c-.4,0-.6,0-.7-.1s-.1-.3-.1-.7v-5.4a1.44,1.44,0,0,1,.2-.9,2.33,2.33,0,0,1,1.1-.2h2.1a15.15,15.15,0,0,1,2.8.2,1.21,1.21,0,0,1,1,.8,2.35,2.35,0,0,1,.2.8v.3c0,.3.1.4.3.4s.3-.1.3-.2a5.85,5.85,0,0,0,.1-1l.1-.8a10.42,10.42,0,0,1,.1-1.1v-.3c0-.3-.1-.4-.4-.4a1.09,1.09,0,0,0-.5.1,5.81,5.81,0,0,0-1,.1l-1.9.1c-.8,0-1.8.1-2.9.1-1.8,0-3.3-.1-4.6-.2-.4,0-.7-.1-.9-.1-.4,0-.6.1-.6.4s.1.2.4.2c.8,0,1.4.2,1.6.7a5.11,5.11,0,0,1,.4,2.6v12.2c0,1.1-.3,1.7-1,1.9l-.5.1q-.3.15-.3.3c0,.2.1.3.4.3a2.25,2.25,0,0,0,.7-.1,21.61,21.61,0,0,1,3.3-.2A14.61,14.61,0,0,1,417.7,66.84Z"/><path class="a" d="M429.7,66.24a2.73,2.73,0,0,1-1.4-.5,2.25,2.25,0,0,1-.5-1.2V54q0-.6.3-.6c.1,0,.1,0,.2.1l.1.1,11.2,12.8.3.3a.37.37,0,0,0,.3.1c.2,0,.3-.1.4-.3s.1-.8.1-1.8V51.34a3.17,3.17,0,0,1,.3-1.7,1.9,1.9,0,0,1,1.1-.7c.2-.1.3-.1.3-.3s-.1-.3-.4-.3a2,2,0,0,0-.7.1,4.89,4.89,0,0,1-1.3.1,18.53,18.53,0,0,1-2.5-.1h-.6c-.3,0-.4.1-.4.2s.1.3.4.3a5,5,0,0,1,1.9.7,2.19,2.19,0,0,1,.7,1.6l.2,3.1v8.4c0,.2-.1.2-.1.3s-.2-.1-.4-.3L427,48.84a.75.75,0,0,0-.7-.4H424c-.2,0-.3.1-.3.2s.1.3.4.3a2.67,2.67,0,0,1,2.1,1.5,7.45,7.45,0,0,1,.7,3.6v9.1a3.69,3.69,0,0,1-.4,2.1,2.84,2.84,0,0,1-1.5,1c-.3.1-.4.2-.4.3s.1.2.4.2h.5c.3,0,.6-.1,1-.1h.6l1.4.1a8.37,8.37,0,0,1,1.2.1h.4a.27.27,0,0,0,.3-.3C430.1,66.34,430,66.24,429.7,66.24Z"/><path class="a" d="M452.8,66.74H454a2,2,0,0,0,.7.1c.2,0,.4-.1.4-.3s-.2-.2-.5-.3a1.79,1.79,0,0,1-1.7-1.9V50.74a1.29,1.29,0,0,1,.2-.8,1,1,0,0,1,.7-.2h3.7a2.81,2.81,0,0,1,1.5.3c.3.2.4.6.6,1.2.1.3.2.4.3.4s.3-.2.3-.4a1.76,1.76,0,0,0-.1-.6c0-.2-.1-.6-.1-1.1a.86.86,0,0,0-1.1-1.1H444.6a.85.85,0,0,0-.6.2c-.1.1-.1.4-.1.8a13.69,13.69,0,0,1-.2,1.6,8.38,8.38,0,0,0-.2,1,.52.52,0,0,0,.2.4c.2,0,.3-.2.4-.5a2.67,2.67,0,0,1,.8-1.6,2.2,2.2,0,0,1,1.6-.4H450c.3,0,.6,0,.6.1s.1.3.1.6v13.5a2.36,2.36,0,0,1-.4,1.6,2,2,0,0,1-1.4.6c-.3,0-.4.1-.4.3s.1.3.4.3a4.4,4.4,0,0,0,.9-.1h1.9Z"/><path class="a" d="M34.9,74.84l-22.2,3.9L0,96.44,30.6,91c9.2-1.6,17.2-1.9,19.7,5.4V84.54h-6v-4.2h6v-.4C50.3,75.64,48.4,72.54,34.9,74.84Z"/><path class="a" d="M69.8,74.84l-4.9,4.9c-7,7-10.4,10.9-10.4,16.7,2.7-7.6,11.1-7,21.1-5l29.4,5.1L92.2,78.84Z"/><path class="a" d="M65.4,68.44c-2.7,2.7-7.4,7-9.7,11.8h4.9l5.7-5.6c5.2-5.2,9.2-9.2,10.9-14.2a19,19,0,0,0,1-9.1c-.1-1-.6-2.4-.6-2.1-.5,5.7-2.1,9.1-10.3,17.3Z"/><path class="a" d="M50,33.64c3-3,10.7-9.9,10.7-15.8v-6.6c0-.1-.1,0-.1,0-.5,4.4-1.6,6.3-12.4,17.1L37.5,39c-5.6,5.6-10.2,11.6-9.6,18.4.3,3.8,1.6,5.8,2.4,6.4.4.3.3.1.2-.2-3.2-7.4,4.5-15,8.3-18.8Z"/><path class="a" d="M60.6,22.54c0-.1-.1,0-.1,0-.5,4.4-1.6,6.3-12.4,17.1l-9.9,9.9c-3.6,3.6-6.9,7.4-6.7,13.5.1,3.7,2,6.8,4.8,7.5,1.2.2,1.1.1.8,0-4-1.9-3.7-9.1,2.7-15.5L50,44.84c3-3,10.7-9.9,10.7-15.8v-6.5Z"/><path class="a" d="M27.3,52.24c.5-5.7,2.1-9.1,10.3-17.3L50,22.44c3-3,10.7-9.9,10.7-15.8V0c0-.1-.1,0-.1,0-.5,4.4-1.6,6.3-12.4,17.1l-9.6,9.6c-5.2,5.2-9.2,9.2-10.9,14.2a19,19,0,0,0-1,9.1C26.8,51.14,27.2,52.54,27.3,52.24Z"/><path class="a" d="M54.5,91c0,.1.1.1.1,0a13.73,13.73,0,0,1,2.6-6.5H54.5Z"/><path class="a" d="M67.4,55.34l-3.1,3.1c-4.8,4.8-9.7,10.2-9.7,15.2v6.6c0,.1.1.1.1,0,.5-4.8,2.9-8,9.9-15l2.9-2.9c5.6-5.6,10.2-11.6,9.6-18.4-.3-3.8-1.6-5.8-2.4-6.4-.4-.3-.3-.1-.2.2C77.7,45.14,69.9,52.74,67.4,55.34Z"/><path class="a" d="M54.5,68.74c0,.1.1.1.1,0,.5-4.6,3.2-8.1,9.2-14.1l2.9-2.9c3.6-3.6,6.8-7.3,6.7-13.4-.1-3.7-2-6.8-4.8-7.5-1.2-.2-1.1-.1-.8,0,4,1.9,3.7,9.1-2.7,15.5l-3.5,3.5c-2.3,2.3-7,7.4-7,12.2v6.7Z"/><path class="a" d="M104.9,85.64a3,3,0,0,0-2.3,1.1,2.88,2.88,0,0,0-.7,2,3.06,3.06,0,0,0,.7,2,3,3,0,0,0,2.3,1.1,3.1,3.1,0,0,0,2.2-.9,2.94,2.94,0,0,0,.9-2.2,3.1,3.1,0,0,0-.9-2.2A2.94,2.94,0,0,0,104.9,85.64Zm1.9,5a2.73,2.73,0,0,1-1.9.8,2.56,2.56,0,0,1-1.9-.8,2.73,2.73,0,0,1-.8-1.9,2.56,2.56,0,0,1,.8-1.9,2.73,2.73,0,0,1,1.9-.8,2.56,2.56,0,0,1,1.9.8,2.73,2.73,0,0,1,.8,1.9A2.36,2.36,0,0,1,106.8,90.64Z"/><path class="a" d="M106.7,90.34c-.2,0-.4-.2-.6-.5l-.1-.1-.7-1a1,1,0,0,0,.6-.9q0-.9-1.2-.9h-1.2c-.1,0-.1,0-.1.1s0,.1.1.1h.1c.2,0,.3.2.3.4v2.1c0,.3,0,.5-.1.5s-.1.1-.3.2-.1,0-.1.1,0,.1.1.1h1.2c.1,0,.1,0,.1-.1s0-.1-.1-.1-.3-.1-.4-.1-.1-.2-.1-.4v-1h.3c.1,0,.1,0,.2.1V89l.6,1a.82.82,0,0,0,.8.5c.3,0,.4,0,.4-.1.3-.1.3-.1.2-.1Zm-1.9-1.7h-.4v-1.2a.22.22,0,0,1,.2-.2.85.85,0,0,1,.6.2c.2.1.2.3.2.6S105.2,88.64,104.8,88.64Z"/><path class="a" d="M463.5,46.94h.1c.2,0,.3.2.3.4v2.1c0,.3,0,.5-.1.5s-.1.1-.3.2-.1,0-.1.1,0,.1.1.1h1.2c.1,0,.1,0,.1-.1s0-.1-.1-.1-.3-.1-.4-.1-.1-.2-.1-.4v-1h.3c.1,0,.1,0,.2.1v.1l.6,1a.82.82,0,0,0,.8.5c.3,0,.4,0,.4-.1a.1.1,0,0,0-.1-.1h-.1c-.2,0-.4-.2-.6-.5l-.1-.1-.7-1a1,1,0,0,0,.6-.9q0-.9-1.2-.9h-1.2c-.1,0-.1,0-.1.1C463.4,46.84,463.4,46.84,463.5,46.94Zm1,0a.85.85,0,0,1,.6.2c.2.1.2.3.2.6a.63.63,0,0,1-.7.7h-.4v-1.2Q464.35,46.94,464.5,46.94Z"/><path class="a" d="M464.9,51.54a3.1,3.1,0,0,0,2.2-.9,3.1,3.1,0,0,0-2.2-5.3,3,3,0,0,0-2.3,1.1,2.88,2.88,0,0,0-.7,2,3.06,3.06,0,0,0,.7,2A2.59,2.59,0,0,0,464.9,51.54Zm-1.9-5a2.73,2.73,0,0,1,1.9-.8,2.56,2.56,0,0,1,1.9.8,2.73,2.73,0,0,1,.8,1.9,2.56,2.56,0,0,1-.8,1.9,2.73,2.73,0,0,1-1.9.8,2.56,2.56,0,0,1-1.9-.8,2.73,2.73,0,0,1-.8-1.9A2.5,2.5,0,0,1,463,46.54Z"/></svg>