<svg xmlns="http://www.w3.org/2000/svg" viewBox="0 0 513.32 128.11"><title>Asset 1</title><path d="M58.73,111.88v-5.61h8v-.53c0-5.62-2.59-9.74-20.44-6.64l-29.36,5.23L0,127.76l40.54-7.19c12.15-2.09,22.81-2.52,26.16,7.14V111.88Z" style="fill:#fff"/><path d="M72.23,127.71c0-7.64,4.52-12.9,13.73-22.11l6.5-6.5,29.69,5.23,16.92,23.41L100.14,121C86.95,118.48,75.76,117.6,72.23,127.71Z" style="fill:#fff"/><path d="M73.88,106.26c2.94-6.31,9.2-12,12.8-15.61L89.24,88c10.9-10.9,13-15.41,13.66-22.92,0-.39.59,1.47.76,2.79A24.26,24.26,0,0,1,102.4,80c-2.25,6.62-7.57,11.9-14.48,18.8l-7.51,7.48Z" style="fill:#fff"/><path d="M80.21,14.84c0-.06.18-.09.18,0v8.69c0,7.86-10.11,16.94-14.13,20.93L51.45,59.31c-5.12,5.12-15.37,15.23-11.06,25,.14.32.27.6-.27.21C39,83.73,37.36,81,36.92,76c-.79-8.89,5.27-16.85,12.75-24.33L63.79,37.55C78.11,23.23,79.51,20.7,80.21,14.84Z" style="fill:#fff"/><path d="M66.26,59.35c4-4,14.13-13.07,14.13-20.93V29.72c0-.09-.18-.06-.18,0-.7,5.86-2.09,8.38-16.42,22.71L50.67,65.57c-4.76,4.77-9.14,9.76-8.93,17.83.12,4.94,2.61,9,6.35,10,1.54.33,1.44.13,1.08,0-5.28-2.49-4.9-12,3.64-20.57Z" style="fill:#fff"/><path d="M49.79,46.2c-10.9,10.9-13,15.41-13.66,22.92,0,.39-.59-1.47-.76-2.79a24.27,24.27,0,0,1,1.27-12.07c2.25-6.62,7.57-11.9,14.48-18.8l12.67-12.7C78.11,8.44,79.51,5.92,80.21.06c0-.06.18-.09.18,0v8.7c0,7.86-10.11,16.93-14.13,20.93Z" style="fill:#fff"/><path d="M72.42,120.52c0,.07-.19.07-.19,0v-8.64h3.62A18.7,18.7,0,0,0,72.42,120.52Z" style="fill:#fff"/><path d="M72.45,106.27c0,.07-.19.07-.19,0v-8.8c0-6.61,6.48-13.75,12.9-20.13l4.17-4.16c3.36-3.36,13.62-13.49,9.32-23.24-.14-.32-.28-.6.27-.21,1.09.78,2.75,3.51,3.2,8.49.79,8.89-5.27,16.85-12.75,24.33l-3.85,3.87C76.23,95.7,73.14,99.86,72.45,106.27Z" style="fill:#fff"/><path d="M72.44,91c0,.07-.19.07-.19,0V82.08c0-6.3,6.25-13.1,9.28-16.13l4.7-4.69c8.54-8.54,8.92-18.08,3.64-20.57-.37-.16-.46-.36,1.08,0,3.74,1,6.23,5.06,6.35,10,.2,8.07-4.1,13-8.86,17.8l-3.81,3.81C76.65,80.25,73.16,84.91,72.44,91Z" style="fill:#fff"/><path d="M162.88,60.2c0-3.37-3.74-2.45-3.74-3.46,0-.42.09-.51.46-.51,1.71,0,3.37.18,5.08.18,1.43,0,2.86-.18,4.29-.18.74,0,.88.09.88.46,0,1.11-3.32,0-3.32,3.51V85c0,3.14,4.11,2.08,4.11,3.46,0,.32-.14.46-.92.46-1.06,0-3-.18-5-.18-2.82,0-3.79.18-4.43.18-.83,0-1-.23-1-.69,0-1.34,3.6.18,3.6-4.39Z" style="fill:#fff"/><path d="M196.32,75.71c.28,0,1-.14,1,.32,0,.75-1.81-.07-1.81,2.31v7.24c-3.66,1.17-4.62,3.59-10.94,3.59-7.85,0-12.71-4.87-12.71-12.75,0-7.67,5.75-13,13.28-13,6.14,0,7.92,2.42,8.91,2.42.39,0,.53-.64.92-.64s.36.53.39.82l.35,4.65c0,.28,0,.64-.39.64-.92,0-2.52-6.85-10.9-6.85-6.39,0-9.59,5.4-9.59,11.26C174.79,82,178.42,88,185.27,88c3.23,0,7.39-1.6,7.39-4.62v-5.5c0-1.67-3.09-.92-3.09-1.81,0-.46.5-.39.82-.39Z" style="fill:#fff"/><path d="M204,84.55c0,2.09-.29,2.95,2.7,2.95,8.21,0,9.41-3.66,9.87-3.66.25,0,.29.35.29.43a5.61,5.61,0,0,1-1.78,3.44c-1.14,1.28-1.92,1.21-3.48,1.21-2.7,0-5.4-.21-8.1-.14-1.42,0-2.91.14-4.33.14-.32,0-.53-.07-.53-.35s.43-.35,1.56-.92c.92-.43,1-1.42,1-3.09v-18c0-1.85-3-1.6-3-2.31,0-.39.25-.46.71-.46.75,0,1.85.14,3.59.14,2,0,2.88-.14,3.41-.14s.67.07.67.5c0,.82-2.59-.07-2.59,3Z" style="fill:#fff"/><path d="M222.39,74.11c0,1.21-.07,1.21,1.35,1.21h3.83c3.69,0,2.73-2.84,3.59-2.84.28,0,.39.39.39.67,0,1.24-.07,2.45-.07,3.59,0,.92.07,1.85.07,2.81,0,.32-.14.46-.39.46-1.1,0,.11-3.13-2.88-3.13H223c-.75,0-.64.6-.64,1.14v6.54c0,2.09-.28,2.95,2.7,2.95,8.2,0,9.41-3.66,9.87-3.66.25,0,.28.35.28.43a5.61,5.61,0,0,1-1.78,3.44c-1.14,1.28-1.92,1.21-3.48,1.21-2.7,0-5.4-.21-8.1-.14-1.42,0-2.91.14-4.33.14-.32,0-.53-.07-.53-.35s.43-.35,1.56-.92c.92-.43,1-1.42,1-3.09V68.36c0-1.6,0-3.3-1.92-3.59-.29-.07-1.07-.14-1.07-.57s.21-.43,1.24-.43c6.71,0,8.56.14,10.05.14.71,0,4-.14,5.08-.14.28,0,.36.36.36.78,0,3.94-.5,4.23-.71,4.23-.85,0-.28-1.7-.85-2.52-.92-1.21-4.62-1-6-1-3.41,0-3.34-.14-3.34,2.24Z" style="fill:#fff"/><path d="M236.6,82.63c-.14-.71,0-1.1.39-1.1s.5.43.67,1.17A7.58,7.58,0,0,0,245.13,88c3.37,0,6.68-1.88,6.68-5.61,0-6.85-14.42-3-14.42-12.29,0-4.51,3.8-6.68,7.88-6.68a12.56,12.56,0,0,1,6,1.28c.32,0,.39-.39.75-.39s.39.11.43.5l.53,4.83c0,.28,0,.53-.39.53s-.64-.75-.75-1.07A6.78,6.78,0,0,0,245,64.52c-2.81,0-5.79,1.35-5.79,4.62,0,6.68,14.42,2.77,14.42,12.57,0,3-2.1,7.46-10.16,7.46-2.63,0-5.86-1.31-6-2Z" style="fill:#fff"/><path d="M258.49,66.83c0-2.59-2.88-1.88-2.88-2.66,0-.32.07-.39.35-.39,1.31,0,2.59.14,3.91.14,1.1,0,2.2-.14,3.3-.14.57,0,.67.07.67.36,0,.85-2.56,0-2.56,2.7V85.9c0,2.42,3.16,1.6,3.16,2.66,0,.25-.11.35-.71.35-.82,0-2.34-.14-3.87-.14-2.17,0-2.92.14-3.41.14s-.74-.18-.74-.53c0-1,2.77.14,2.77-3.37Z" style="fill:#fff"/><path d="M281.6,80.43c-.36-.82-.57-1.35-1.56-1.35h-7.81c-.68,0-1.31,0-1.67.75l-2.27,5A3.64,3.64,0,0,0,268,86c0,2.49,2.52,1.42,2.52,2.34,0,.64-.5.53-1,.53-1,0-2-.14-3-.14s-1.92.14-2.84.14c-.21,0-.32-.18-.32-.39,0-.75,1.67-.14,2.59-2.17l8.49-18.11c2.1-4.47,2.2-5,2.66-5s.64,1,.75,1.31l7.39,18.29a22.67,22.67,0,0,0,1.78,4c1.06,1.63,3.12.85,3.12,1.74,0,.32-.25.32-.5.32-1.46,0-2.91-.14-4.37-.14-1,0-1.92.14-2.88.14-.21,0-.78,0-.78-.35,0-.85,2.13-.5,2.13-1.85a14.79,14.79,0,0,0-1.1-3.37ZM272,76.88c-.25.5,0,.64.46.64h7c.78,0,.74-.25.57-.71l-3.48-8.56c-.18-.43-.36-.43-.57,0Z" style="fill:#fff"/><path d="M226.47,119.57c-.19-.93,0-1.44.51-1.44.65,0,.65.56.89,1.53a9.91,9.91,0,0,0,9.75,7c4.41,0,8.73-2.46,8.73-7.34,0-9-18.85-3.95-18.85-16.07,0-5.9,5-8.73,10.31-8.73,5.62,0,7.15,1.67,7.8,1.67.42,0,.51-.51,1-.51.28,0,.51.14.56.65l.7,6.32c0,.37,0,.7-.51.7s-.83-1-1-1.39a8.87,8.87,0,0,0-8.87-6c-3.67,0-7.57,1.76-7.57,6,0,8.73,18.85,3.62,18.85,16.44,0,3.9-2.74,9.75-13.28,9.75-3.44,0-7.66-1.72-7.85-2.55Z" style="fill:#fff"/><path d="M256.36,112.88c0,1.21-.07,1.21,1.36,1.21h3.85c3.71,0,2.75-2.85,3.6-2.85.29,0,.39.39.39.68,0,1.25-.07,2.46-.07,3.6,0,.93.07,1.86.07,2.82,0,.32-.14.46-.39.46-1.1,0,.11-3.13-2.88-3.13H257c-.75,0-.64.6-.64,1.14v6.56c0,2.1-.29,3,2.71,3,8.23,0,9.44-3.67,9.91-3.67.25,0,.29.36.29.43a5.63,5.63,0,0,1-1.78,3.46c-1.14,1.28-1.92,1.21-3.49,1.21-2.71,0-5.42-.21-8.13-.14-1.43,0-2.92.14-4.35.14-.32,0-.53-.07-.53-.35s.43-.36,1.57-.93c.92-.43,1-1.42,1-3.1V107.11c0-1.61,0-3.31-1.93-3.6-.28-.07-1.07-.14-1.07-.57s.21-.43,1.25-.43c6.74,0,8.59.14,10.08.14.71,0,4-.14,5.1-.14.28,0,.35.36.35.78,0,4-.5,4.24-.71,4.24-.86,0-.29-1.71-.86-2.53-.93-1.21-4.63-1-6.06-1-3.42,0-3.35-.14-3.35,2.25Z" style="fill:#fff"/><path d="M276,122.82c0,5.13,3.74,3.28,3.74,4.49,0,.25-.14.43-1,.43-1.21,0-1.75-.14-3.85-.14-1.68,0-2.85.14-3.89.14-.21,0-.57-.11-.57-.43,0-1,2.78.14,2.78-3.81V106.43c0-4.28-2.92-2.1-2.92-3.38a.49.49,0,0,1,.46-.53c.32,0,1.57.14,3.64.14,1.78,0,2.35-.14,4.06-.14,4.53,0,9.55,1.57,9.55,6.88,0,1.42-1.07,6.84-8.66,6.84-.35,0-2.42-.18-2.42-.82,0-.25.18-.32.36-.32a17.69,17.69,0,0,0,2.31.21c3.64,0,5.77-1.75,5.77-5,0-4.31-3.31-6.59-7.41-6.59-1.14,0-1.92,0-1.92,1.07Z" style="fill:#fff"/><path d="M294.88,106.11c0-.25.14-1.6-.36-1.64h-5.81c-2.21,0-2.28.53-2.92,2.49-.11.36-.14.82-.6.82-.22,0-.36-.25-.36-.43l.39-3.46c0-.43,0-1.39.64-1.39,2.78,0,5.52.14,10.12.14,6.45,0,9.73-.14,10.44-.14s1,.21,1,1l.18,2.85c0,.36.07.78-.39.78-1.32,0,.61-2.71-3-2.71h-5.09c-1.61,0-1.43-.14-1.43,1.75v18.17c0,3,2.89,1.82,2.89,2.92,0,.11,0,.43-.32.43-.85,0-1.85-.14-2.88-.14a48.09,48.09,0,0,0-4.88.14c-.32,0-.43-.11-.43-.46,0-.86,2.81-.5,2.81-2.64Z" style="fill:#fff"/><path d="M311.37,105.57c0-2.6-2.89-1.89-2.89-2.67,0-.32.07-.39.36-.39,1.32,0,2.6.14,3.92.14,1.1,0,2.21-.14,3.31-.14.57,0,.68.07.68.36,0,.85-2.57,0-2.57,2.71v19.14c0,2.42,3.17,1.6,3.17,2.67,0,.25-.11.35-.71.35-.82,0-2.35-.14-3.89-.14-2.17,0-2.92.14-3.42.14s-.75-.18-.75-.53c0-1,2.78.14,2.78-3.38Z" style="fill:#fff"/><path d="M347,124.46c.18,3,2.82,1.67,2.82,2.92,0,.35-.46.35-.86.35-.68,0-1.93-.14-3.35-.14-1.1,0-2.25.14-3.14.14-.32,0-.39-.18-.39-.32,0-1.07,2.25-.29,2.21-2.92L344,110.67c0-.89-.18-1.39-.39-1.39s-.57.32-.93,1.07l-7.38,15c-.18.32-.75,1.78-1.1,1.78s-.61-.78-.71-1l-7.59-15.89c-.11-.29-.28-.39-.43-.39s-.21.18-.25.54l-.43,12.51c-.18,4.74,3.21,3.17,3.21,4.46,0,.35-.39.39-.89.39s-2.07-.14-3.14-.14c-1.85,0-2.46.14-3.1.14-.25,0-.36-.18-.36-.43,0-1.21,2.28.25,2.53-3.46.43-5.81.85-9.59.85-13.36,0-8.37-3.39-6.38-3.39-7.59,0-.32.28-.39.61-.39.64,0,1.28.14,2,.14s1.28-.14,1.92-.14.57.61.75,1l8.48,18.1c.39.75.54,1.07.78,1.07s.54-.75,1.11-1.92l8.48-17c.21-.39.5-1.25.92-1.21s1.5.14,1.67.14c.82,0,1.14-.14,1.71-.14a.4.4,0,0,1,.35.43c0,1.14-2.85-.39-2.71,3.85Z" style="fill:#fff"/><path d="M351.3,115c0-7.41,5.77-12.79,13.08-12.79s12.87,5.24,12.87,12.62c0,8-5.53,13.18-13.47,13.18C356,128,351.3,122.5,351.3,115Zm2.6-1c0,6.59,4.31,13,11.37,13,5.2,0,9.37-4.17,9.37-10.76s-4.38-12.79-11.33-12.79C357.33,103.37,353.9,108.32,353.9,113.95Z" style="fill:#fff"/><path d="M387.36,99.92c0-4.73-3.8-3.24-3.8-4.49,0-.32.37-.46.65-.46,1.44,0,2.78.18,4.17.18,3.06,0,6.07-.18,10.05-.18,8.2,0,16.26,6.21,16.26,14.78,0,10.65-5,18-17.88,18-2.36,0-4.73-.19-7.09-.19-.42,0-4.86.19-5.19.19s-.46-.19-.46-.46c0-1.06,3.29.09,3.29-4.31ZM391,121c0,.74-.14,3,.28,3.38,1.53,1.53,5.05,2.09,7.13,2.09,6.58,0,12.83-3.52,12.83-14.22,0-10.28-6.86-16.12-15.66-16.17-4.4,0-4.59.74-4.59,2.92Z" style="fill:#fff"/><path d="M419.7,105.57c0-2.6-2.89-1.89-2.89-2.67,0-.32.07-.39.36-.39,1.32,0,2.6.14,3.92.14,1.11,0,2.21-.14,3.32-.14.57,0,.68.07.68.36,0,.85-2.57,0-2.57,2.71v19.14c0,2.42,3.17,1.6,3.17,2.67,0,.25-.11.35-.71.35-.82,0-2.35-.14-3.89-.14-2.17,0-2.92.14-3.42.14s-.75-.18-.75-.53c0-1,2.78.14,2.78-3.38Z" style="fill:#fff"/><path d="M443.05,119.22c-.35-.82-.57-1.35-1.56-1.35h-7.84c-.68,0-1.32,0-1.67.75l-2.28,5a3.69,3.69,0,0,0-.25,1.25c0,2.49,2.53,1.42,2.53,2.35,0,.64-.5.53-1,.53-1,0-2-.14-3-.14s-1.93.14-2.85.14c-.22,0-.32-.18-.32-.39,0-.75,1.68-.14,2.6-2.17L436,107c2.1-4.49,2.21-5.06,2.67-5.06s.64,1,.75,1.32l7.41,18.35a22.54,22.54,0,0,0,1.78,4.06c1.07,1.64,3.13.86,3.13,1.75,0,.32-.25.32-.5.32-1.46,0-2.92-.14-4.38-.14-1,0-1.93.14-2.89.14-.21,0-.78,0-.78-.35,0-.86,2.14-.5,2.14-1.85a15,15,0,0,0-1.1-3.38Zm-9.62-3.56c-.25.5,0,.64.46.64H441c.78,0,.75-.25.57-.71L438,107c-.18-.43-.36-.43-.57,0Z" style="fill:#fff"/><path d="M161.93,106.34c0-3.62-2.91-2.48-2.91-3.44,0-.25.28-.35.5-.35,1.1,0,2.13.14,3.2.14,2.34,0,4.65-.14,7.71-.14,6.29,0,12.46,4.76,12.46,11.33,0,8.17-3.87,13.81-13.7,13.81-1.81,0-3.62-.14-5.43-.14-.32,0-3.73.14-4,.14s-.36-.14-.36-.36c0-.82,2.52.07,2.52-3.3Zm2.81,16.19c0,.57-.11,2.27.21,2.59,1.17,1.17,3.87,1.6,5.47,1.6,5,0,9.83-2.7,9.83-10.9,0-7.88-5.25-12.36-12-12.39-3.37,0-3.51.57-3.51,2.24Z" style="fill:#fff"/><path d="M189.81,112.87c0,1.21-.07,1.21,1.35,1.21H195c3.69,0,2.74-2.84,3.59-2.84.28,0,.39.39.39.67,0,1.24-.07,2.45-.07,3.58,0,.92.07,1.85.07,2.81,0,.32-.14.46-.39.46-1.1,0,.11-3.12-2.88-3.12h-5.25c-.74,0-.64.61-.64,1.14v6.53c0,2.09-.28,2.95,2.7,2.95,8.2,0,9.41-3.66,9.87-3.66.25,0,.28.36.28.42a5.6,5.6,0,0,1-1.78,3.45c-1.14,1.28-1.92,1.21-3.48,1.21-2.7,0-5.4-.21-8.1-.14-1.42,0-2.91.14-4.33.14-.32,0-.54-.07-.54-.36s.43-.35,1.56-.92c.92-.43,1-1.42,1-3.09V107.12c0-1.6,0-3.3-1.92-3.59-.29-.07-1.07-.14-1.07-.57s.21-.42,1.24-.42c6.71,0,8.56.14,10.05.14.71,0,4-.14,5.08-.14.29,0,.35.35.35.78,0,3.94-.49,4.23-.71,4.23-.85,0-.28-1.71-.85-2.52-.92-1.21-4.62-1-6-1-3.41,0-3.34-.14-3.34,2.24Z" style="fill:#fff"/><path d="M209.3,123.31c0,2.09-.29,2.95,2.7,2.95,8.2,0,9.41-3.66,9.87-3.66.25,0,.28.36.28.42a5.6,5.6,0,0,1-1.78,3.45c-1.13,1.28-1.92,1.21-3.48,1.21-2.7,0-5.4-.21-8.1-.14-1.42,0-2.91.14-4.33.14-.32,0-.53-.07-.53-.36s.42-.35,1.56-.92c.92-.43,1-1.42,1-3.09v-18c0-1.85-3-1.6-3-2.31,0-.39.25-.46.71-.46.75,0,1.85.14,3.58.14,2,0,2.88-.14,3.41-.14s.67.07.67.5c0,.82-2.59-.07-2.59,3Z" style="fill:#fff"/><path d="M441.24,63.74c1.32,0,2.57.16,3.89.16,1.17,0,2.26-.16,3.35-.16.54,0,.7.08.7.31,0,.86-2.57.08-2.57,2.72V85.91c0,2.49,3.11,1.63,3.11,2.72,0,.23-.08.31-.7.31-.78,0-2.33-.08-3.89-.08-2.18,0-2.88.08-3.42.08s-.7-.16-.7-.55c0-1,2.72.16,2.72-3.34V66.78c0-2.57-2.88-1.87-2.88-2.64C440.85,63.82,440.93,63.74,441.24,63.74Z" style="fill:#fff"/><path d="M384.79,75.33c3.73,0,2.8-2.88,3.65-2.88.23,0,.39.39.39.7,0,1.25-.08,2.41-.08,3.58,0,.93.08,1.87.08,2.8,0,.31-.16.47-.39.47-1.09,0,.08-3.11-2.88-3.11h-5.29c-.78,0-.62.62-.62,1.16v6.53c0,2.1-.31,3,2.64,3,8.24,0,9.49-3.66,10-3.66.23,0,.23.31.23.39a6,6,0,0,1-1.71,3.5c-1.16,1.24-1.94,1.17-3.5,1.17-2.72,0-5.44-.16-8.16-.08-1.4,0-2.88.08-4.35.08-.31,0-.55-.08-.55-.31.08-.47.47-.39,1.56-.93.93-.47,1-1.4,1-3.11V68.33c0-1.63,0-3.34-1.87-3.58-.31-.08-1.09-.15-1.09-.62,0-.23.23-.39,1.25-.39,6.68,0,8.55.16,10.11.16.7,0,4-.16,5.05-.16.31,0,.39.31.39.78,0,4-.54,4.2-.7,4.2-.85,0-.31-1.71-.85-2.49-.93-1.24-4.67-1-6.07-1-3.42,0-3.34-.16-3.34,2.25v6.61c0,1.24-.08,1.24,1.32,1.24Z" style="fill:#fff"/><path d="M392.64,63.74c.62,0,1.17.16,1.71.16s1.09-.16,1.63-.16c.39,0,.7.54.93.78l17,19c.15.23.31.39.39.39s.16-.15.16-.39V68.56c0-4.66-4-3.27-4-4.51,0-.23.16-.31.39-.31,1,0,2.1.16,3.19.16,1.25,0,2.8-.16,3.66-.16a.29.29,0,0,1,.31.31c0,.93-2.1.31-2.1,2.88V87.54c0,1.09,0,1.55-.31,1.55s-.62-.15-1.32-1L399,70.82c-.08,0-.54-.62-.78-.62s-.23.08-.23.78V85.59c0,3.19,3.11,1.94,3.11,2.88,0,.24,0,.47-.39.47-.86,0-1.87-.08-3.58-.08-1.24,0-3.11.08-3.34.08-.47,0-.47-.16-.47-.39,0-1.24,3.11.31,3.11-4.67V70.74c0-7.39-4.28-5.37-4.28-6.69C392.17,63.9,392.48,63.74,392.64,63.74Z" style="fill:#fff"/><path d="M421.88,65.69c-2.26,0-2.33.54-3,2.49-.15.39-.15.86-.62.86-.23,0-.31-.31-.31-.47l.39-3.42c0-.47,0-1.4.62-1.4,2.8,0,5.52.16,10.11.16,6.46,0,9.72-.16,10.42-.16.86,0,1,.23,1.09,1l.16,2.88c0,.31.08.78-.39.78-1.32,0,.62-2.72-3-2.72h-5.13c-1.32,0-1.4.08-1.4,1.71v18.2c0,3,2.88,1.87,2.88,3,0,.08.08.39-.31.39-.86,0-1.87-.08-2.88-.08-4,0-4.67.08-4.9.08s-.39-.08-.39-.47c0-.85,2.8-.46,2.8-2.64V67.32c0-.23.08-1.63-.47-1.63Z" style="fill:#fff"/><path d="M363.09,87.46c-.39.93-.62,2.1-1.17,2.1s-1-1.55-1.32-2.25l-8.79-20.84C351,64.37,349,65,349,64.21c0-.31.23-.47.55-.47,1.09,0,2.18.16,3.26.16.93,0,2.33-.16,2.8-.16.23,0,.47.16.47.31.08.54-1.4.54-1.4,1.87a4.08,4.08,0,0,0,.31,1.4l6.22,14.62c.86,1.94,1,2.72,1.4,2.72s.47-.54.7-1l6.14-15.24A5,5,0,0,0,370,66c0-1.63-2.33-1-2.33-1.79,0-.39.23-.47.54-.47.78,0,1.55.16,2.41.16,1.71,0,2.18-.16,2.72-.16.39,0,.63.16.63.47,0,.78-1-.16-2,2.25Z" style="fill:#fff"/><path d="M331.91,88.86c-.23,0-2.18.08-3.27.08-1.94,0-3.11-.08-4.67-.08-1.32,0-2.57.16-3.89.16-.23,0-1,0-1-.47,0-1.17,2.8-.7,2.8-2.49a19.2,19.2,0,0,0-1.4-4.43l-1.56-3.89c-.47-1.09-.7-1.79-2-1.79H306.48c-.93,0-1.79,0-2.25,1l-3,6.61a4.19,4.19,0,0,0-.39,1.63c0,3.26,3.35,1.87,3.35,3.11,0,.85-.62.7-1.25.7-1.32,0-2.64-.16-4-.16s-2.57.16-3.81.16c-.23,0-.39-.23-.39-.55,0-.93,2.17-.15,3.42-2.88l11.27-24c2.8-6,3-6.76,3.58-6.76s.86,1.4,1,1.79l9.8,24.34a32.16,32.16,0,0,0,2.34,5.37,2.8,2.8,0,0,0,2.41,1.48c.78,0,1.4-.93,1.4-2.49V67.55c0-3.65-2.88-2.49-2.88-3.5,0-.23.23-.31.47-.31,1.09,0,2.18.16,3.19.16,2.41,0,4.67-.16,7.77-.16,6.3,0,12.52,4.74,12.52,11.35,0,8.17-3.89,13.84-13.76,13.84C335.49,88.94,333.7,88.86,331.91,88.86Zm.93-22v17c0,.54-.08,2.25.23,2.57C334.24,87.54,337,88,338.6,88c5.06,0,9.88-2.72,9.88-11,0-7.93-5.29-12.36-12.05-12.44C333,64.6,332.84,65.22,332.84,66.85Zm-21.3-5.29L306.17,73c-.31.7,0,.86.62.86h9.33c1.09,0,1-.31.78-.93l-4.59-11.35C312.08,60.95,311.85,60.95,311.54,61.57Z" style="fill:#fff"/><path d="M490.85,64.75l.16,2.88c0,.31.08.78-.39.78-1.32,0,.62-2.72-3-2.72h-5.13c-1.4,0-1.4.08-1.4,1.71v18.2c0,3,2.87,1.87,2.87,3,0,.08.08.39-.31.39-.85,0-1.87-.08-2.88-.08-4,0-4.66.08-4.9.08s-.39-.08-.39-.47c0-.85,2.8-.46,2.8-2.64V67.32c0-.23.08-1.63-.47-1.63H470.4c-2.18,0-2.1.78-2.1,2,0,.39.31,1.94-.39,1.94-.39,0-.62-.78-.78-1.09-1.09-3-3.58-4.12-6.69-4.12-2.88,0-5.83,1.4-5.83,4.66,0,6.69,14.46,2.8,14.46,12.6,0,3-2.1,7.54-10.19,7.54-2.64,0-5.91-1.32-6.06-2L452,82.64c-.16-.7,0-1.09.39-1.09s.47.47.7,1.17a7.58,7.58,0,0,0,7.46,5.37c3.42,0,6.69-1.87,6.69-5.68,0-6.84-14.46-3-14.46-12.29,0-4.51,3.81-6.69,7.93-6.69,4.28,0,5.44,1.25,6,1.25s.62-.93,1.32-.93c2.8,0,6.76.16,11.35.16,6.46,0,9.72-.16,10.42-.16C490.62,63.74,490.77,64,490.85,64.75Z" style="fill:#fff"/><path d="M503.47,80.43c-.35-.82-.57-1.35-1.56-1.35h-7.81c-.67,0-1.31,0-1.67.75l-2.28,5A3.65,3.65,0,0,0,489.9,86c0,2.49,2.52,1.42,2.52,2.35,0,.64-.5.53-1,.53-1,0-2-.14-3-.14s-1.92.14-2.84.14c-.22,0-.32-.18-.32-.39,0-.75,1.67-.14,2.59-2.17l8.49-18.12c2.1-4.48,2.2-5,2.66-5s.64,1,.75,1.31l7.39,18.3a22.28,22.28,0,0,0,1.76,4c1.07,1.64,3.14.86,3.14,1.75,0,.32-.25.32-.5.32-1.46,0-2.91-.14-4.37-.14-1,0-1.92.14-2.88.14-.21,0-.78,0-.78-.36,0-.85,2.13-.5,2.13-1.85a14.93,14.93,0,0,0-1.1-3.37Zm-9.59-3.55c-.25.5,0,.64.46.64h7c.78,0,.75-.25.57-.71l-3.48-8.56c-.18-.43-.35-.43-.57,0Z" style="fill:#fff"/><path d="M139.87,109.56a4,4,0,1,1,0,7.93,3.75,3.75,0,0,1-3-1.4,4,4,0,0,1,0-5.14A3.8,3.8,0,0,1,139.87,109.56Zm0,.44a3.52,3.52,0,1,0,2.5,1A3.39,3.39,0,0,0,139.87,110Zm.5,3.51.88,1.29.11.16c.28.4.53.61.75.62h.1c.07,0,.1,0,.1.1s-.18.17-.52.17a1.31,1.31,0,0,1-1.06-.71l-.83-1.25,0-.07a.24.24,0,0,0-.22-.11h-.49l0,.07v1.16a.83.83,0,0,0,.1.5.74.74,0,0,0,.47.16c.11,0,.16,0,.17.12s0,.11-.16.11l-.2,0h-.92l-.27,0h-.17c-.1,0-.14,0-.14-.11s0-.09.12-.11a.43.43,0,0,0,.33-.23,2.18,2.18,0,0,0,.07-.71V112c0-.31-.11-.49-.33-.52l-.16,0c-.1,0-.14-.06-.14-.13s.05-.11.16-.11h.53l.52,0,.47,0c1.06,0,1.59.39,1.59,1.17A1.27,1.27,0,0,1,140.37,113.51Zm-1-.14h.37a.76.76,0,0,0,.87-.85.91.91,0,0,0-.33-.72,1.17,1.17,0,0,0-.8-.29c-.2,0-.3.08-.3.24v1.43a.27.27,0,0,0,0,.16A.28.28,0,0,0,139.32,113.37Z" style="fill:#fff"/><path d="M509.36,58a4,4,0,1,1,0,7.93,3.75,3.75,0,0,1-3-1.4,4,4,0,0,1,0-5.14A3.79,3.79,0,0,1,509.36,58Zm0,.44a3.52,3.52,0,1,0,2.5,1A3.39,3.39,0,0,0,509.36,58.39Zm.5,3.51.88,1.29.11.16c.28.4.52.61.74.62h.1c.07,0,.1,0,.1.1s-.18.17-.52.17a1.31,1.31,0,0,1-1.06-.71l-.83-1.25,0-.07a.24.24,0,0,0-.22-.11h-.49l0,.07v1.16a.83.83,0,0,0,.1.5.74.74,0,0,0,.46.16c.11,0,.16.05.17.12s0,.11-.16.11l-.2,0-.42,0h-.5l-.27,0h-.17c-.1,0-.14,0-.14-.11s0-.09.12-.11a.43.43,0,0,0,.33-.23,2.15,2.15,0,0,0,.07-.71V60.38q0-.47-.33-.52l-.16,0c-.1,0-.14-.06-.14-.13s.05-.11.16-.11h.53l.52,0,.47,0q1.59,0,1.59,1.17A1.27,1.27,0,0,1,509.86,61.91Zm-1-.14h.37a.76.76,0,0,0,.87-.85.91.91,0,0,0-.33-.72,1.17,1.17,0,0,0-.8-.29c-.2,0-.3.08-.3.24v1.42a.27.27,0,0,0,0,.16S508.72,61.77,508.81,61.77Z" style="fill:#fff"/><path d="M259,100.72a3.32,3.32,0,0,0,1.29-.72l2.35-2.59.29-.32a.83.83,0,0,0,.25-.52q0-.7-.73-.7a11.88,11.88,0,0,0-1.68.06.66.66,0,0,0-.44.44l-.42,1q-.14.34-.68,1.49l-.38.83a1.79,1.79,0,0,0-.2.7Q258.69,100.72,259,100.72Z" style="fill:#fff"/><path d="M420.28,100.83a3.21,3.21,0,0,0,1.27-.72l2.35-2.59.28-.32a.81.81,0,0,0,.27-.52c0-.47-.24-.7-.73-.7A11.74,11.74,0,0,0,422,96a.66.66,0,0,0-.44.44l-.42,1c-.1.23-.32.72-.68,1.49a5.85,5.85,0,0,0-.58,1.53C419.93,100.7,420,100.83,420.28,100.83Z" style="fill:#fff"/></svg>