<svg xmlns="http://www.w3.org/2000/svg" viewBox="0 0 539 126.68"><defs><style>.a{fill:#fff;}</style></defs><title>Asset 1</title><path class="a" d="M173.6,88.17a22.45,22.45,0,0,0,12.1-3.5,2.14,2.14,0,0,0,1.1-1.3l.1-.4.5-2.9.1-.5v-.3c0-.3-.1-.5-.4-.5s-.5.4-.9,1.3a11.27,11.27,0,0,1-4.8,4.6,13.92,13.92,0,0,1-7,1.9,12.46,12.46,0,0,1-10-4.7c-2.6-3.1-3.9-7.2-3.9-12.1,0-4.3,1.2-7.7,3.5-10.1s5.5-3.7,9.5-3.7c5.1,0,9.1,2.6,12,7.7.4.7.7,1,.9,1a.52.52,0,0,0,.4-.2l.1-.2-.1-.6L186,58c-.1-.6-.2-.9-.5-.9a1.26,1.26,0,0,0-.7.4c-.2.1-.3.2-.4.2l-.4-.1-.4-.2-.9-.5a19.31,19.31,0,0,0-9.2-2.3,16.05,16.05,0,0,0-12.1,4.9,17,17,0,0,0-4.8,12.3,15.89,15.89,0,0,0,4.7,11.9Q166,88.17,173.6,88.17Z"/><path class="a" d="M194.3,61.67a2.56,2.56,0,0,0,1.2-.7l2.3-2.5.3-.3a.91.91,0,0,0,.3-.5c0-.5-.2-.7-.7-.7a5.38,5.38,0,0,0-1.6.1c-.2,0-.3.2-.4.4l-.4.9c-.1.2-.3.7-.7,1.4a5.26,5.26,0,0,0-.6,1.5C193.9,61.47,194.1,61.67,194.3,61.67Z"/><path class="a" d="M191,64.27c1.1.2,1.8.5,2.1,1a6.24,6.24,0,0,1,.5,2.9v15a6,6,0,0,1-.4,2.9,2,2,0,0,1-1.7.9c-.4.1-.5.2-.5.4a.46.46,0,0,0,.5.4,2.49,2.49,0,0,0,.8-.1l2.1-.1h2.5a9.23,9.23,0,0,1,1.9.1c.3,0,.5.1.7.1.4,0,.5-.1.5-.4s-.3-.3-.9-.4a4.29,4.29,0,0,1-1.6-.5,3.62,3.62,0,0,1-.9-1.3,10.75,10.75,0,0,1-.3-3.2V68.88c0-2.5.4-3.9,1.3-4.2l.9-.4c.3-.1.5-.3.5-.5s-.2-.3-.5-.3h-.4l-1.2.1c-.6,0-1.4.1-2.2.1a29.59,29.59,0,0,1-3.4-.2H191c-.3,0-.5.1-.5.4C190.5,64,190.7,64.17,191,64.27Z"/><path class="a" d="M205.5,87.67h2.6a12.84,12.84,0,0,1,2.2.1,5.13,5.13,0,0,0,1,.1q.6,0,.6-.3c0-.2-.2-.3-.6-.4a4.44,4.44,0,0,1-2.3-.8,1.69,1.69,0,0,1-.7-1,11,11,0,0,1-.1-2.1v-6.2a.85.85,0,0,1,.2-.6l.4-.1h2.3a1.51,1.51,0,0,1,1.4.7l.2.4,4.4,6.6a11.9,11.9,0,0,0,2.5,2.8,4.68,4.68,0,0,0,2.8.9,8.8,8.8,0,0,0,1.7-.2c.5-.1.8-.3.8-.5s-.1-.2-.3-.2H224c-1.3-.1-2.6-1.2-4.1-3.4l-.6-.8-4.8-7.1c2.9-1.4,4.3-3.5,4.3-6.1a5.35,5.35,0,0,0-2-4.5,10.36,10.36,0,0,0-6.1-1.5,23.56,23.56,0,0,0-2.5.1c-1.3.1-2.2.1-2.7.1a8.08,8.08,0,0,1-1.6-.1,8.37,8.37,0,0,1-1.2-.1c-.4,0-.6.1-.6.4s.2.3.6.4l.8.1c1.3.2,1.9,1.2,1.9,3v14.4a12,12,0,0,1-.4,4,2.31,2.31,0,0,1-1.8,1.3c-.3.1-.4.2-.4.3a.37.37,0,0,0,.4.4,3.45,3.45,0,0,0,.9-.1ZM208.4,65a2.42,2.42,0,0,1,1.4-.3,6.62,6.62,0,0,1,4.6,1.6,5.45,5.45,0,0,1,1.8,4.2,4.6,4.6,0,0,1-1.3,3.5,5.27,5.27,0,0,1-3.6,1.3h-2a1.85,1.85,0,0,1-1-.2,1.86,1.86,0,0,1-.2-1v-7.7A1.6,1.6,0,0,1,208.4,65Z"/><path class="a" d="M231.6,87.67a11,11,0,0,1,2.1.1,5.53,5.53,0,0,1,.9.1c.3,0,.4-.1.4-.3s-.2-.3-.5-.4a3.91,3.91,0,0,1-2.5-1c-.4-.4-.5-1.3-.5-2.7v-6.4c0-.3.1-.4.3-.4a.76.76,0,0,1,.4.2l.4.4L242,87l.3.3a1.39,1.39,0,0,0,1,.5h2.3a5,5,0,0,1,1.5.1h.4c.4,0,.5-.1.5-.4s-.1-.3-.4-.3l-.8-.2a6.36,6.36,0,0,1-3.2-1.9l-9.1-9.5a1.26,1.26,0,0,1-.4-.7c0-.1.1-.3.4-.6l6-5.4c3-2.7,5-4.1,6-4.4.6-.1.9-.3.8-.5s-.2-.3-.5-.3a1.09,1.09,0,0,0-.5.1h-4.4a7.59,7.59,0,0,1-1.6-.1h-.5c-.4,0-.5.1-.5.4s.3.4.8.4c.8.2,1.3.5,1.3,1s-.6,1.4-1.7,2.5l-7.5,6.7-.3.2-.3.2c-.1,0-.2-.1-.2-.4v-6.8a6.24,6.24,0,0,1,.3-2.4,2.75,2.75,0,0,1,1.4-1.1c.3-.1.4-.2.4-.4s-.1-.3-.4-.3a3.22,3.22,0,0,0-.8.1h-2.8a20.25,20.25,0,0,1-2.8-.1c-.2,0-.5-.1-.6-.1-.3,0-.5.1-.5.4s.2.3.5.4l.9.2c.8.2,1.3.5,1.5,1a5.61,5.61,0,0,1,.4,2.6v14.9a7.64,7.64,0,0,1-.4,3.1,1.64,1.64,0,0,1-1.5,1c-.3,0-.5.1-.5.3s.2.4.6.4a5.81,5.81,0,0,0,1-.1h2.2Z"/><path class="a" d="M249.4,64.17q1.65,0,2.1.9a6.58,6.58,0,0,1,.6,3.4v15.9c0,1.4-.4,2.2-1.3,2.5l-.7.2c-.3.1-.5.2-.5.4s.2.4.6.4a3.45,3.45,0,0,0,.9-.1,38,38,0,0,1,4.3-.2c1.5,0,3.3.1,5.5.3.6,0,1,.1,1.4.1a4.65,4.65,0,0,0,3.9-1.9,4.19,4.19,0,0,0,1.3-2.7c0-.3-.1-.5-.3-.5a.54.54,0,0,0-.4.3c-1.3,2.1-4.2,3.1-8.8,3.1a5.32,5.32,0,0,1-2.7-.4c-.4-.2-.5-.9-.5-1.9V77c0-.4.1-.6.3-.7a2.68,2.68,0,0,1,1.1-.2h3.9a3.69,3.69,0,0,1,2.1.4,2.23,2.23,0,0,1,.8,1.6l.1.5a.37.37,0,0,0,.4.4c.2,0,.3-.1.3-.4v-.5a14.77,14.77,0,0,1-.1-2.1c0-.9.1-2,.2-3.1v-.4c0-.3-.1-.5-.3-.5a.37.37,0,0,0-.4.4,4.11,4.11,0,0,1-.5,1.5,2.25,2.25,0,0,1-1.2.5,20.69,20.69,0,0,1-2.9.2h-2.7a1.44,1.44,0,0,1-.9-.2c-.1-.1-.1-.4-.1-1v-7.1a1.74,1.74,0,0,1,.3-1.2,2.21,2.21,0,0,1,1.4-.3h2.7a15.24,15.24,0,0,1,3.7.3,1.74,1.74,0,0,1,1.3,1,3.6,3.6,0,0,1,.2,1.1v.5c0,.4.1.5.3.5s.3-.1.4-.3a7,7,0,0,0,.2-1.3l.1-1a10.33,10.33,0,0,0,.1-1.4c0-.2.1-.3.1-.4,0-.3-.2-.5-.6-.5a2,2,0,0,0-.7.1,8.47,8.47,0,0,0-1.3.1l-2.5.1c-1.1,0-2.4.1-3.8.1a52.13,52.13,0,0,1-6-.3,5.74,5.74,0,0,0-1.2-.1c-.5,0-.8.2-.8.5A.55.55,0,0,0,249.4,64.17Z"/><path class="a" d="M291.1,66.17a3.42,3.42,0,0,1,1.9-2c.2-.1.4-.2.4-.4s-.1-.3-.4-.3h-3.4a13.62,13.62,0,0,1-1.6-.1h-.5q-.6,0-.6.3c0,.2.3.4,1,.5a2.3,2.3,0,0,1,1.1.4,1,1,0,0,1,.3.8c0,1.1-.8,3.6-2.5,7.5L283,82l-.3.6c-.3.7-.5,1-.6,1s-.3-.2-.5-.6l-6.7-15.4a6.34,6.34,0,0,1-.7-2.5.85.85,0,0,1,.2-.6,1.87,1.87,0,0,1,.9-.4c.2-.1.3-.2.3-.4s-.2-.3-.5-.3h-.5c-.5,0-.9.1-1.1.1h-5.2c-.3,0-.5.1-.5.3s.1.2.2.3a4.17,4.17,0,0,0,1.1.2,2.35,2.35,0,0,1,1.4.7,8.35,8.35,0,0,1,1.1,2l8.9,20.5c.3.6.5.9.7.9s.5-.3.7-.9l8.7-20.3Z"/><path class="a" d="M334.2,86.67a6.24,6.24,0,0,1-3-1.1,11.42,11.42,0,0,1-1.8-3.6l-.5-1.3-10.2-26c-.2-.5-.4-.7-.6-.7s-.5.2-.7.7l-12.2,27.1-.7,1.6a12,12,0,0,1-1.3,2.1c-.5.7-1,1.1-1.3,1.1l-.9.3a.51.51,0,0,0-.4.5c0,.3.2.4.6.4a10.3,10.3,0,0,0,1.3-.1h1.1a20.13,20.13,0,0,1,2.6.1l2.3.1h.8c.5,0,.7-.1.7-.4s-.3-.5-.7-.6a4.14,4.14,0,0,1-2.2-.9,2,2,0,0,1-.6-1.6,10.53,10.53,0,0,1,1.1-3.6l1.6-3.5a7.6,7.6,0,0,1,1.1-1.9,4.77,4.77,0,0,1,2.2-.3h8.6a4.23,4.23,0,0,1,1.6.2,3,3,0,0,1,.8,1.5l1.2,3.1a16.57,16.57,0,0,1,1.4,5c0,.9-.4,1.5-1.2,1.6l-.7.2c-.4.1-.6.2-.6.5s.2.5.6.5a2,2,0,0,0,.7-.1,36.94,36.94,0,0,1,4.1-.1c2.1,0,3.6,0,4.4.1h.9c.4,0,.6-.1.7-.4S334.7,86.77,334.2,86.67Zm-13.8-13.8h-7.8c-.7,0-1.1-.2-1.1-.6a4.18,4.18,0,0,1,.3-.9l4.6-10.3c.1-.3.3-.5.4-.5s.4.3.6.8l.2.5,3.7,9.4.1.4a1.34,1.34,0,0,1,.1.5C321.5,72.67,321.1,72.87,320.4,72.87Z"/><path class="a" d="M357.7,81.37a12.46,12.46,0,0,0,1.4-6.1,11.38,11.38,0,0,0-3.3-8.4c-2.4-2.4-6-3.6-10.7-3.6a17,17,0,0,0-2.3.1l-1.6.2a21,21,0,0,1-2.7.1h-1.2l-1.4-.1c-.3,0-.5.1-.5.3s.2.3.6.4a2.6,2.6,0,0,1,2,1,4.33,4.33,0,0,1,.6,2.6v15.8a7.16,7.16,0,0,1-.3,2.6,2.15,2.15,0,0,1-1.5.9c-.3.1-.5.2-.5.4s.2.4.6.4a4.14,4.14,0,0,0,1-.1,29.17,29.17,0,0,1,3.3-.2c1.2,0,2.5.1,4.1.2a11.8,11.8,0,0,0,1.6.1,13.25,13.25,0,0,0,7-2A15.6,15.6,0,0,0,357.7,81.37ZM347,86.77a11.21,11.21,0,0,1-2.4-.3c-1-.2-1.7-.4-2.4-.6a1.59,1.59,0,0,1-1.1-1.5v-18a1.67,1.67,0,0,1,.5-1.4c.5-.4,1.7-.6,3.5-.6a11,11,0,0,1,6.6,1.9,10.73,10.73,0,0,1,3.5,4.3,15,15,0,0,1,1.3,6c0,4-1.4,6.9-4.1,8.6A9.27,9.27,0,0,1,347,86.77Z"/><path class="a" d="M383.4,64.17c.2-.1.4-.2.4-.4s-.1-.3-.4-.3H380a13.62,13.62,0,0,1-1.6-.1h-.5q-.6,0-.6.3c0,.2.3.4,1,.5a2.3,2.3,0,0,1,1.1.4,1,1,0,0,1,.3.8c0,1.1-.8,3.6-2.5,7.5L373.4,82l-.3.6c-.3.7-.5,1-.6,1s-.3-.2-.5-.6l-6.7-15.4a6.34,6.34,0,0,1-.7-2.5.85.85,0,0,1,.2-.6,1.87,1.87,0,0,1,.9-.4c.2-.1.3-.2.3-.4s-.2-.3-.5-.3H365c-.5,0-.9.1-1.1.1h-5.2c-.3,0-.5.1-.5.3s.1.2.2.3a4.17,4.17,0,0,0,1.1.2,2.35,2.35,0,0,1,1.4.7,8.35,8.35,0,0,1,1.1,2l8.9,20.7c.3.6.5.9.7.9s.5-.3.7-.9l8.7-20.3.5-1.1A3.1,3.1,0,0,1,383.4,64.17Z"/><path class="a" d="M384.9,64.17q1.65,0,2.1.9a6.58,6.58,0,0,1,.6,3.4v15.9c0,1.4-.4,2.2-1.3,2.5l-.7.2c-.3.1-.5.2-.5.4s.2.4.6.4a3.45,3.45,0,0,0,.9-.1,38,38,0,0,1,4.3-.2c1.5,0,3.3.1,5.5.3.6,0,1,.1,1.4.1a4.65,4.65,0,0,0,3.9-1.9,4.19,4.19,0,0,0,1.3-2.7c0-.3-.1-.5-.3-.5a.54.54,0,0,0-.4.3c-1.3,2.1-4.2,3.1-8.8,3.1a5.32,5.32,0,0,1-2.7-.4c-.4-.2-.5-.9-.5-1.9V77c0-.4.1-.6.3-.7a2.68,2.68,0,0,1,1.1-.2h3.9a3.69,3.69,0,0,1,2.1.4,2.23,2.23,0,0,1,.8,1.6l.1.5a.37.37,0,0,0,.4.4c.2,0,.3-.1.3-.4v-.5a14.77,14.77,0,0,1-.1-2.1c0-.9.1-2,.2-3.1v-.4c0-.3-.1-.5-.3-.5a.37.37,0,0,0-.4.4,4.11,4.11,0,0,1-.5,1.5,2.25,2.25,0,0,1-1.2.5,20.69,20.69,0,0,1-2.9.2h-2.7a1.44,1.44,0,0,1-.9-.2c-.1-.1-.1-.4-.1-1v-7.1a1.74,1.74,0,0,1,.3-1.2,2.21,2.21,0,0,1,1.4-.3h2.7a15.24,15.24,0,0,1,3.7.3,1.74,1.74,0,0,1,1.3,1,3.6,3.6,0,0,1,.2,1.1v.5c0,.4.1.5.3.5s.3-.1.4-.3a7,7,0,0,0,.2-1.3l.1-1a10.33,10.33,0,0,0,.1-1.4c0-.2.1-.3.1-.4,0-.3-.2-.5-.6-.5a2,2,0,0,0-.7.1,8.47,8.47,0,0,0-1.3.1l-2.5.1c-1.1,0-2.4.1-3.8.1a52.13,52.13,0,0,1-6-.3,5.74,5.74,0,0,0-1.2-.1c-.5,0-.8.2-.8.5S384.5,64.17,384.9,64.17Z"/><path class="a" d="M428.3,63.47a3.45,3.45,0,0,0-.9.1,8.12,8.12,0,0,1-1.7.1,28.25,28.25,0,0,1-3.2-.1h-.7c-.3,0-.5.1-.5.3a.46.46,0,0,0,.5.4,5.46,5.46,0,0,1,2.5.9,3.43,3.43,0,0,1,.9,2.1l.2,4v11.1c0,.2-.1.3-.2.3s-.2-.1-.5-.4l-16.1-18.2a1.38,1.38,0,0,0-.9-.5h-3.1c-.3,0-.4.1-.4.3s.2.3.5.4a3.78,3.78,0,0,1,2.8,2,10.4,10.4,0,0,1,1,4.8V83a5.57,5.57,0,0,1-.5,2.7,3.56,3.56,0,0,1-2,1.4c-.3.1-.5.3-.5.4s.2.3.5.3a1.76,1.76,0,0,0,.6-.1,5.28,5.28,0,0,1,1.3-.1h.8l1.8.1a11.93,11.93,0,0,1,1.5.1h.5c.2,0,.4-.1.4-.3s-.2-.4-.6-.4a5.28,5.28,0,0,1-1.9-.6,2.67,2.67,0,0,1-.6-1.6l-.1-1.2V71.07c0-.5.1-.8.3-.8s.2,0,.2.1l.2.2,14.7,16.8.4.5c.1.1.2.1.4.2s.4-.1.5-.4a12.31,12.31,0,0,0,.1-2.4V67.57a6,6,0,0,1,.3-2.3,2.15,2.15,0,0,1,1.4-.9c.2-.1.4-.2.3-.3C428.7,63.57,428.6,63.47,428.3,63.47Z"/><path class="a" d="M452.1,65.07a2.23,2.23,0,0,0-.2-1.2,2.23,2.23,0,0,0-1.2-.2H431.9c-.4,0-.7.1-.8.3a2.33,2.33,0,0,0-.2,1.1,10.39,10.39,0,0,1-.3,2.1c-.1.7-.2,1.1-.2,1.3s.1.5.3.5.4-.2.5-.7a3.72,3.72,0,0,1,1-2.1,2.93,2.93,0,0,1,2.1-.6h4.6a.8.8,0,0,1,1,1v17.8a3,3,0,0,1-.5,2,2.52,2.52,0,0,1-1.8.7c-.4,0-.6.2-.6.3a.46.46,0,0,0,.5.4,8.33,8.33,0,0,0,1.2-.1c.3,0,.8-.1,1.2-.1h2.7a5.79,5.79,0,0,1,1.6.1,3.45,3.45,0,0,0,.9.1c.3,0,.5-.1.5-.4s-.2-.3-.6-.4a2.48,2.48,0,0,1-2.3-2.4V66.67a1.85,1.85,0,0,1,.2-1,1.86,1.86,0,0,1,1-.2h4.9a3.32,3.32,0,0,1,2,.4,2.66,2.66,0,0,1,.7,1.6c.1.4.2.6.4.5s.4-.2.4-.6a3.45,3.45,0,0,0-.1-.9A4.54,4.54,0,0,1,452.1,65.07Z"/><path class="a" d="M462.2,86.87a4.29,4.29,0,0,1-1.6-.5,3.62,3.62,0,0,1-.9-1.3,10.75,10.75,0,0,1-.3-3.2V68.77c0-2.5.4-3.9,1.3-4.2l.9-.4c.3-.1.5-.3.5-.5s-.2-.3-.5-.3h-.4l-1.2.1c-.6,0-1.4.1-2.2.1a29.59,29.59,0,0,1-3.4-.2h-.3c-.3,0-.5.1-.5.4s.2.3.6.4c1.1.2,1.8.5,2.1,1a6.24,6.24,0,0,1,.5,2.9v15a6,6,0,0,1-.4,2.9,2,2,0,0,1-1.7.9c-.4.1-.5.2-.5.4a.46.46,0,0,0,.5.4,2.49,2.49,0,0,0,.8-.1l2.1-.1h2.5a9.23,9.23,0,0,1,1.9.1c.3,0,.5.1.7.1.4,0,.5-.1.5-.4S462.8,87,462.2,86.87Z"/><path class="a" d="M474,73.67a38,38,0,0,1-4.2-1.5,4.84,4.84,0,0,1-1.6-1.3,4.38,4.38,0,0,1-.8-2.5,3.54,3.54,0,0,1,1.3-2.8,4.69,4.69,0,0,1,3.1-1.1,8,8,0,0,1,4.3,1.2,6.43,6.43,0,0,1,2.6,3.1c.2.6.4.8.6.8a.46.46,0,0,0,.4-.5,2.64,2.64,0,0,0-.1-.7l-.3-1.8a8.79,8.79,0,0,1-.2-1.8c0-.6-.1-.9-.4-.9-.1,0-.2,0-.2.1l-.2.2a.76.76,0,0,1-.4.2.37.37,0,0,1-.3-.1l-1.2-.5a7.69,7.69,0,0,0-3.2-.5,8,8,0,0,0-5.4,1.8,5.74,5.74,0,0,0-2.1,4.6,5.28,5.28,0,0,0,1.6,4.1,14.55,14.55,0,0,0,5.5,2.9,17.69,17.69,0,0,1,4.5,1.9,4.27,4.27,0,0,1,1.5,3.3,4.22,4.22,0,0,1-1.7,3.4,6.36,6.36,0,0,1-4.1,1.4,7.31,7.31,0,0,1-4.4-1.5,7,7,0,0,1-2.6-3.6c-.2-.6-.4-.8-.6-.9a.46.46,0,0,0-.4.5,10.17,10.17,0,0,0,.5,2.2,10.18,10.18,0,0,1,.4,1.6,3.1,3.1,0,0,0,.3,1.2.78.78,0,0,0,.4.4,10.16,10.16,0,0,0,2.4.9,11.28,11.28,0,0,0,3,.4,8.87,8.87,0,0,0,6.1-2.1,6.79,6.79,0,0,0,2.4-5.3C480.5,77.37,478.3,75.07,474,73.67Z"/><path class="a" d="M503.8,65.07a2.23,2.23,0,0,0-.2-1.2,2.23,2.23,0,0,0-1.2-.2H483.6c-.4,0-.7.1-.8.3a2.33,2.33,0,0,0-.2,1.1,10.39,10.39,0,0,1-.3,2.1c-.1.7-.2,1.1-.2,1.3s.1.5.3.5.4-.2.5-.7a3.72,3.72,0,0,1,1-2.1,2.93,2.93,0,0,1,2.1-.6h4.6a.8.8,0,0,1,1,1v17.8a3,3,0,0,1-.5,2,2.52,2.52,0,0,1-1.8.7c-.4,0-.6.2-.6.3a.46.46,0,0,0,.5.4,8.33,8.33,0,0,0,1.2-.1c.3,0,.8-.1,1.2-.1h2.7a5.79,5.79,0,0,1,1.6.1,3.45,3.45,0,0,0,.9.1c.3,0,.5-.1.5-.4s-.2-.3-.6-.4a2.48,2.48,0,0,1-2.3-2.4V66.67a1.85,1.85,0,0,1,.2-1,1.86,1.86,0,0,1,1-.2h4.9a3.32,3.32,0,0,1,2,.4,2.66,2.66,0,0,1,.7,1.6c.1.4.2.6.4.5s.4-.2.4-.6a3.45,3.45,0,0,0-.1-.9A4.54,4.54,0,0,1,503.8,65.07Z"/><path class="a" d="M529.7,63.47a3.22,3.22,0,0,0-.8.1c-.3,0-1.1.1-2.4.1a8.08,8.08,0,0,1-1.6-.1,5.39,5.39,0,0,0-1.1-.1c-.2,0-.3.1-.3.4s.2.3.5.4a2.71,2.71,0,0,1,2.1,1.1,6.47,6.47,0,0,1,.6,3.2v9q0,4.65-2.1,6.9a8.15,8.15,0,0,1-6.2,2.3q-4.65,0-6.6-2.7c-.9-1.3-1.4-3.4-1.4-6.4V67.47a6,6,0,0,1,.3-2.3,2.15,2.15,0,0,1,1.4-.9c.4-.1.6-.2.6-.4s-.1-.3-.4-.3a3.45,3.45,0,0,0-.9.1c-.5,0-.8.1-1,.1h-2.6a6.82,6.82,0,0,1-1.2-.1h-1.2c-.4,0-.7.1-.7.4s.2.3.5.4a4.12,4.12,0,0,1,2.1.9,5.11,5.11,0,0,1,.5,2.6v9.9a12.63,12.63,0,0,0,1.2,5.9,7.15,7.15,0,0,0,3.5,3.1,11.78,11.78,0,0,0,5.3,1.2,11.17,11.17,0,0,0,4.8-1,8.48,8.48,0,0,0,3.5-2.6c1.3-1.7,1.9-4.2,1.9-7.3v-8.7a10.06,10.06,0,0,1,.3-3,2.44,2.44,0,0,1,1.4-1.2c.2-.1.4-.2.4-.4S529.9,63.47,529.7,63.47Z"/><path class="a" d="M518,62.57a3.24,3.24,0,0,0,3.5-3.2,3.19,3.19,0,0,0-3.5-3.2,3.22,3.22,0,1,0,0,6.4Zm-.1-5.2a1.88,1.88,0,0,1,1.8,1.9,1.81,1.81,0,0,1-1.8,1.9,1.77,1.77,0,0,1-1.7-1.8A1.89,1.89,0,0,1,517.9,57.37Z"/><path class="a" d="M170.7,107.27a44.31,44.31,0,0,1-5.6-2.1,6,6,0,0,1-2.1-1.8,5.75,5.75,0,0,1-1.1-3.4,5,5,0,0,1,1.7-3.8,6.26,6.26,0,0,1,4.3-1.5,10.64,10.64,0,0,1,5.8,1.7,8.33,8.33,0,0,1,3.5,4.2c.3.8.5,1.1.8,1.1s.5-.2.5-.7a5.13,5.13,0,0,0-.1-1l-.4-2.4a23.61,23.61,0,0,1-.3-2.4q0-1.2-.6-1.2a.37.37,0,0,0-.3.1l-.3.3a.73.73,0,0,1-.6.2.6.6,0,0,1-.4-.1l-1.6-.7a12.93,12.93,0,0,0-11.7,1.7,7.88,7.88,0,0,0-2.9,6.3,7.31,7.31,0,0,0,2.2,5.6,20.77,20.77,0,0,0,7.4,3.9,25.48,25.48,0,0,1,6.2,2.6,5.63,5.63,0,0,1,2.1,4.4,6.11,6.11,0,0,1-2.3,4.7,8,8,0,0,1-5.5,1.9,10.52,10.52,0,0,1-6-2,9.56,9.56,0,0,1-3.6-4.9c-.2-.8-.5-1.1-.8-1.2s-.5.2-.5.7a12.71,12.71,0,0,0,.6,3,15.34,15.34,0,0,1,.6,2.2,11.19,11.19,0,0,0,.4,1.6,1.7,1.7,0,0,0,.6.6,8.22,8.22,0,0,0,3.2,1.2,20.76,20.76,0,0,0,4,.5,12.1,12.1,0,0,0,8.3-2.8,9.34,9.34,0,0,0,3.2-7.2C179.5,112.37,176.6,109.17,170.7,107.27Z"/><path class="a" d="M201.1,121.37a.54.54,0,0,0-.4.3c-1.3,2.1-4.2,3.1-8.8,3.1a5.32,5.32,0,0,1-2.7-.4c-.4-.2-.5-.9-.5-1.9v-7c0-.4.1-.6.3-.7a2.68,2.68,0,0,1,1.1-.2H194a3.69,3.69,0,0,1,2.1.4,2.23,2.23,0,0,1,.8,1.6l.1.5a.37.37,0,0,0,.4.4c.2,0,.3-.1.3-.4v-.5a14.77,14.77,0,0,1-.1-2.1c0-.9.1-2,.2-3.1V111c0-.3-.1-.5-.3-.5a.37.37,0,0,0-.4.4,4.11,4.11,0,0,1-.5,1.5,2.25,2.25,0,0,1-1.2.5,20.69,20.69,0,0,1-2.9.2h-2.7a1.44,1.44,0,0,1-.9-.2c-.1-.1-.1-.4-.1-1v-7.1a1.74,1.74,0,0,1,.3-1.2,2.21,2.21,0,0,1,1.4-.3h2.7a15.24,15.24,0,0,1,3.7.3,1.74,1.74,0,0,1,1.3,1,3.6,3.6,0,0,1,.2,1.1v.5c0,.4.1.5.3.5s.3-.1.4-.3a7,7,0,0,0,.2-1.3l.1-1a10.33,10.33,0,0,0,.1-1.4c0-.2.1-.3.1-.4,0-.3-.2-.5-.6-.5a2,2,0,0,0-.7.1,8.47,8.47,0,0,0-1.3.1l-2.5.1c-1.1,0-2.4.1-3.8.1a52.13,52.13,0,0,1-6-.3,5.74,5.74,0,0,0-1.2-.1c-.5,0-.8.2-.8.5s.2.3.5.3q1.65,0,2.1.9a6.58,6.58,0,0,1,.6,3.4v15.9c0,1.4-.4,2.2-1.3,2.5l-.7.2c-.3.1-.5.2-.5.4s.2.4.6.4a3.45,3.45,0,0,0,.9-.1,38,38,0,0,1,4.3-.2c1.5,0,3.3.1,5.5.3.6,0,1,.1,1.4.1a4.65,4.65,0,0,0,3.9-1.9,4.19,4.19,0,0,0,1.3-2.7C201.4,121.57,201.3,121.37,201.1,121.37Z"/><path class="a" d="M213.5,102a17,17,0,0,0-2.3.1l-1.6.2a21,21,0,0,1-2.7.1h-1.2l-1.4-.1c-.3,0-.5.1-.5.3s.2.3.6.4a2.6,2.6,0,0,1,2,1,4.33,4.33,0,0,1,.6,2.6v15.8a7.16,7.16,0,0,1-.3,2.6,2.15,2.15,0,0,1-1.5.9c-.3.1-.5.2-.5.4s.2.4.6.4a4.14,4.14,0,0,0,1-.1,29.17,29.17,0,0,1,3.3-.2c1.2,0,2.5.1,4.1.2a11.8,11.8,0,0,0,1.6.1,13.25,13.25,0,0,0,7-2,11.36,11.36,0,0,0,4-4.4,12.46,12.46,0,0,0,1.4-6.1,11.38,11.38,0,0,0-3.3-8.4C221.9,103.17,218.3,102,213.5,102Zm7.3,21.9a10,10,0,0,1-5.4,1.5,11.21,11.21,0,0,1-2.4-.3c-1-.2-1.7-.4-2.4-.6a1.59,1.59,0,0,1-1.1-1.5V105a1.67,1.67,0,0,1,.5-1.4c.5-.4,1.7-.6,3.5-.6a11,11,0,0,1,6.6,1.9,10.73,10.73,0,0,1,3.5,4.3,15,15,0,0,1,1.3,6C224.9,119.37,223.5,122.17,220.8,123.87Z"/><path class="a" d="M257.8,125.57a2.53,2.53,0,0,1-1.8-.8,3.09,3.09,0,0,1-.5-1.9l-.1-2.2-.3-9.5L255,107a7.15,7.15,0,0,1,.4-2.9,1.65,1.65,0,0,1,1.2-1.1l.8-.2c.2-.1.3-.2.3-.4s-.1-.4-.3-.3h-.5c-.4,0-1,.1-1.8.1h-.6a5.38,5.38,0,0,1-.8-.1.75.75,0,0,0-.5.1,3.22,3.22,0,0,0-.4.7l-8.2,17.6-.2.3-.2.5q-.15.3-.3.3c-.1,0-.2-.2-.3-.5l-.9-1.8-7.3-15.7-.2-.4a1.56,1.56,0,0,0-1.3-1.1,1.27,1.27,0,0,0-.6.1h-3.6c-.3,0-.4.1-.4.4a.46.46,0,0,0,.5.4,3.36,3.36,0,0,1,2.7,1.8,10.53,10.53,0,0,1,.8,4.6c0,1-.1,3.3-.3,7l-.2,5.1a8.61,8.61,0,0,1-.6,3,2.45,2.45,0,0,1-1.8,1.2c-.3.1-.4.2-.4.4a.46.46,0,0,0,.5.4,1.09,1.09,0,0,0,.5-.1,19.42,19.42,0,0,1,2.4-.2c.7,0,1.7.1,3,.2h.6c.3,0,.5-.1.5-.4s-.4-.4-1.1-.5c-1.4-.2-2.2-1.4-2.2-3.4s0-3.6.1-4.3l.4-8.7,6.6,14.2.4.7c.3.5.4.9.5,1,.3.6.5.9.8.9s.5-.3.7-.8a1.54,1.54,0,0,0,.3-.7,12.94,12.94,0,0,0,.9-2q1.35-3,1.5-3.3l1.8-3.7,1.6-3.3c.3-.7,1-1.9,2-3.6l.5,11.1.1,2.9a5.73,5.73,0,0,1-.3,2.2,2.15,2.15,0,0,1-1.4.9c-.3.1-.4.2-.4.4s.2.3.5.3.9,0,2.1-.1a12.28,12.28,0,0,1,1.7-.1,7.57,7.57,0,0,1,1.5.1l1.4.1h.4q.6,0,.6-.3C258.7,125.77,258.4,125.67,257.8,125.57Z"/><path class="a" d="M270.7,99.57l2.3-2.5.3-.3a.65.65,0,0,0,.2-.5c0-.5-.2-.7-.7-.7a5.38,5.38,0,0,0-1.6.1c-.2,0-.3.2-.4.4l-.4.9c-.1.2-.3.7-.7,1.4l-.4.8a2.54,2.54,0,0,0-.2.7c0,.2.1.4.3.4S270.1,100,270.7,99.57Z"/><path class="a" d="M279.3,121.37a.54.54,0,0,0-.4.3c-1.3,2.1-4.2,3.1-8.8,3.1a5.32,5.32,0,0,1-2.7-.4c-.4-.2-.5-.9-.5-1.9v-7c0-.4.1-.6.3-.7a2.68,2.68,0,0,1,1.1-.2h3.9a3.69,3.69,0,0,1,2.1.4,2.23,2.23,0,0,1,.8,1.6l.1.5a.37.37,0,0,0,.4.4c.2,0,.3-.1.3-.4v-.5a14.77,14.77,0,0,1-.1-2.1c0-.9.1-2,.2-3.1V111c0-.3-.1-.5-.3-.5a.37.37,0,0,0-.4.4,4.11,4.11,0,0,1-.5,1.5,2.25,2.25,0,0,1-1.2.5,20.69,20.69,0,0,1-2.9.2h-2.8a1.44,1.44,0,0,1-.9-.2c-.1-.1-.1-.4-.1-1v-7.1a1.74,1.74,0,0,1,.3-1.2,2.21,2.21,0,0,1,1.4-.3h2.7a15.24,15.24,0,0,1,3.7.3,1.74,1.74,0,0,1,1.3,1,3.6,3.6,0,0,1,.2,1.1v.5c0,.4.1.5.3.5s.3-.1.4-.3a7,7,0,0,0,.2-1.3l.1-1a10.33,10.33,0,0,0,.1-1.4c0-.2.1-.3.1-.4,0-.3-.2-.5-.6-.5a2,2,0,0,0-.7.1,8.47,8.47,0,0,0-1.3.1l-2.5.1c-1.1,0-2.4.1-3.8.1a52.13,52.13,0,0,1-6-.3,5.74,5.74,0,0,0-1.2-.1c-.5,0-.8.2-.8.5s.2.3.5.3q1.65,0,2.1.9a6.58,6.58,0,0,1,.6,3.4v15.9c0,1.4-.4,2.2-1.3,2.5l-.7.2c-.3.1-.5.2-.5.4s.2.4.6.4a3.45,3.45,0,0,0,.9-.1,38,38,0,0,1,4.3-.2c1.5,0,3.3.1,5.5.3.6,0,1,.1,1.4.1a4.65,4.65,0,0,0,3.9-1.9,4.19,4.19,0,0,0,1.3-2.7C279.6,121.57,279.5,121.37,279.3,121.37Z"/><path class="a" d="M306,125.67a2.52,2.52,0,0,1-2-.9,5.11,5.11,0,0,1-.5-2.6v-16.9a2.41,2.41,0,0,1,.4-1.5,1.42,1.42,0,0,1,.9-.8l.7-.2c.3-.1.4-.2.4-.4s-.1-.3-.4-.3a1.76,1.76,0,0,0-.6.1,17.11,17.11,0,0,1-2.6.1,17.73,17.73,0,0,1-2.4-.1,5.74,5.74,0,0,0-1.2-.1c-.3,0-.4.1-.4.3s.2.3.5.4a2.6,2.6,0,0,1,1.7,1,5.39,5.39,0,0,1,.5,2.6v6a.85.85,0,0,1-.2.6,2.25,2.25,0,0,1-1,.1H289.5a2.75,2.75,0,0,1-1.3-.2,2.23,2.23,0,0,1-.2-1.2v-6.3a3.16,3.16,0,0,1,.4-1.9,2.71,2.71,0,0,1,1.6-.9c.3-.1.5-.2.5-.4a.46.46,0,0,0-.5-.4,2,2,0,0,0-.7.1,17,17,0,0,1-2.3.1,28.79,28.79,0,0,1-3.2-.2,4.59,4.59,0,0,0-1-.1c-.3,0-.5.1-.5.3s.2.3.5.4a4.12,4.12,0,0,1,2.1.9,3.4,3.4,0,0,1,.6,2.2v15a13,13,0,0,1-.3,3.4,1.57,1.57,0,0,1-1,1.2l-.9.2c-.3.1-.5.2-.5.4s.1.3.4.3a6.61,6.61,0,0,0,1.1-.1c.4,0,.8-.1,1.1-.1h2.7a9.86,9.86,0,0,1,2.1.1,3.45,3.45,0,0,0,.9.1c.3,0,.5-.1.5-.4s-.2-.4-.7-.4a2.76,2.76,0,0,1-2.1-.9,4.12,4.12,0,0,1-.6-2.6v-6a1.85,1.85,0,0,1,.2-1,2.87,2.87,0,0,1,1.2-.2h10.3c.6,0,.9,0,1,.1a1.6,1.6,0,0,1,.2,1v7.1q0,2.7-1.8,3c-.4.1-.6.2-.6.4s.1.4.4.3a8.33,8.33,0,0,0,1.2-.1c.3,0,.6-.1.8-.1h2.6a6.25,6.25,0,0,1,1.7.1,3.45,3.45,0,0,0,.9.1c.3,0,.5-.1.5-.4A1.14,1.14,0,0,0,306,125.67Z"/><path class="a" d="M322.1,101.77a13.37,13.37,0,0,0-5.2,1,11.28,11.28,0,0,0-4.2,2.7,12.37,12.37,0,0,0-2.5,4,13.59,13.59,0,0,0-.9,4.8,12.21,12.21,0,0,0,3.5,9,12.37,12.37,0,0,0,9.1,3.4,11.9,11.9,0,0,0,9-3.6,12.28,12.28,0,0,0,3.5-9.2,11.8,11.8,0,0,0-12.3-12.1Zm7.3,20.8a8.6,8.6,0,0,1-6.7,3,9.37,9.37,0,0,1-7.5-3.6,13.57,13.57,0,0,1-3.1-8.9,11,11,0,0,1,2.4-7.4,8.09,8.09,0,0,1,6.4-2.7,10.39,10.39,0,0,1,7.9,3.5,12.44,12.44,0,0,1,3.2,8.7A9.9,9.9,0,0,1,329.4,122.57Z"/><path class="a" d="M360.1,93.37a30.1,30.1,0,0,0-3.1.1l-2.2.2c-.9.1-2.1.1-3.7.1h-1.7l-1.9-.1c-.4,0-.6.2-.6.5s.3.4.8.5a3.87,3.87,0,0,1,2.7,1.3,6.22,6.22,0,0,1,.8,3.5v21.4a8.5,8.5,0,0,1-.5,3.5,2.7,2.7,0,0,1-2.1,1.2c-.4.1-.7.3-.7.5,0,.4.3.6.8.5.3,0,.8-.1,1.4-.1a27.61,27.61,0,0,1,4.4-.3c1.6,0,3.4.1,5.5.2a21.33,21.33,0,0,0,2.2.1,17.75,17.75,0,0,0,9.5-2.7,14.68,14.68,0,0,0,5.4-5.9,17.38,17.38,0,0,0,1.9-8.2,15.77,15.77,0,0,0-4.4-11.4C371.4,95,366.6,93.37,360.1,93.37Zm9.9,29.7a13.16,13.16,0,0,1-7.3,2,14.66,14.66,0,0,1-3.3-.4,16.48,16.48,0,0,1-3.2-.8,1.93,1.93,0,0,1-1.4-2V97.47c0-1,.2-1.6.6-1.9.7-.5,2.3-.8,4.8-.8a15.1,15.1,0,0,1,8.9,2.6,13.9,13.9,0,0,1,4.7,5.9,20,20,0,0,1,1.7,8.2C375.5,117,373.7,120.77,370,123.07Z"/><path class="a" d="M405.3,102.07a3.45,3.45,0,0,0-.9.1,8.12,8.12,0,0,1-1.7.1,28.25,28.25,0,0,1-3.2-.1h-.7c-.3,0-.5.1-.5.3a.46.46,0,0,0,.5.4,5.46,5.46,0,0,1,2.5.9,3.43,3.43,0,0,1,.9,2.1l.2,4V121c0,.2-.1.3-.2.3s-.2-.1-.5-.4l-16.1-18.2a1.38,1.38,0,0,0-.9-.5h-3.1c-.3,0-.4.1-.4.3s.2.3.5.4a3.78,3.78,0,0,1,2.8,2,10.4,10.4,0,0,1,1,4.8v11.9a5.57,5.57,0,0,1-.5,2.7,3.56,3.56,0,0,1-2,1.4c-.3.1-.5.3-.5.4s.2.3.5.3a1.76,1.76,0,0,0,.6-.1,5.28,5.28,0,0,1,1.3-.1h.8l1.8.1a11.93,11.93,0,0,1,1.5.1h.5c.2,0,.4-.1.4-.3s-.2-.4-.6-.4a5.28,5.28,0,0,1-1.9-.6,2.67,2.67,0,0,1-.6-1.6l-.1-1.2v-12.6c0-.5.1-.8.3-.8s.2,0,.2.1l.2.2L402.1,126l.4.5c.1.1.2.1.4.2s.4-.1.5-.4a12.31,12.31,0,0,0,.1-2.4v-17.7a6,6,0,0,1,.3-2.3,2.15,2.15,0,0,1,1.4-.9c.2-.1.4-.2.3-.3C405.8,102.17,405.6,102.07,405.3,102.07Z"/><path class="a" d="M427.1,121.37a.54.54,0,0,0-.4.3c-1.3,2.1-4.2,3.1-8.8,3.1a5.32,5.32,0,0,1-2.7-.4c-.4-.2-.5-.9-.5-1.9v-7c0-.4.1-.6.3-.7a2.68,2.68,0,0,1,1.1-.2H420a3.69,3.69,0,0,1,2.1.4,2.23,2.23,0,0,1,.8,1.6l.1.5a.37.37,0,0,0,.4.4c.2,0,.3-.1.3-.4v-.5a14.77,14.77,0,0,1-.1-2.1c0-.9.1-2,.2-3.1V111c0-.3-.1-.5-.3-.5a.37.37,0,0,0-.4.4,4.11,4.11,0,0,1-.5,1.5,2.25,2.25,0,0,1-1.2.5,20.69,20.69,0,0,1-2.9.2h-2.7a1.44,1.44,0,0,1-.9-.2c-.1-.1-.1-.4-.1-1v-7.1a1.74,1.74,0,0,1,.3-1.2,2.21,2.21,0,0,1,1.4-.3h2.7a15.24,15.24,0,0,1,3.7.3,1.74,1.74,0,0,1,1.3,1,3.6,3.6,0,0,1,.2,1.1v.5c0,.4.1.5.3.5s.3-.1.4-.3a7,7,0,0,0,.2-1.3l.1-1a10.33,10.33,0,0,0,.1-1.4c0-.2.1-.3.1-.4,0-.3-.2-.5-.6-.5a2,2,0,0,0-.7.1,8.47,8.47,0,0,0-1.3.1l-2.5.1c-1.1,0-2.4.1-3.8.1a52.13,52.13,0,0,1-6-.3,5.74,5.74,0,0,0-1.2-.1c-.5,0-.8.2-.8.5s.2.3.5.3q1.65,0,2.1.9a6.58,6.58,0,0,1,.6,3.4v15.9c0,1.4-.4,2.2-1.3,2.5l-.7.2c-.3.1-.5.2-.5.4s.2.4.6.4a3.45,3.45,0,0,0,.9-.1,38,38,0,0,1,4.3-.2c1.5,0,3.3.1,5.5.3.6,0,1,.1,1.4.1a4.65,4.65,0,0,0,3.9-1.9,4.19,4.19,0,0,0,1.3-2.7C427.5,121.57,427.4,121.37,427.1,121.37Z"/><path class="a" d="M45.8,98.27l-29.1,5.2L0,126.67l40.2-7.1c12-2.1,22.6-2.5,25.9,7.1V111H58.2v-5.6h7.9v-.5C66.1,99.27,63.5,95.17,45.8,98.27Z"/><path class="a" d="M91.6,98.27l-6.4,6.4c-9.1,9.1-13.6,14.3-13.6,21.9,3.5-10,14.6-9.1,27.7-6.6l38.6,6.7-16.8-23.2Z"/><path class="a" d="M85.9,89.87c-3.6,3.6-9.8,9.2-12.7,15.5h6.5L87.1,98c6.8-6.8,12.1-12.1,14.4-18.6a24.79,24.79,0,0,0,1.3-12c-.2-1.3-.7-3.2-.8-2.8-.7,7.4-2.7,11.9-13.5,22.7Z"/><path class="a" d="M65.6,44.07c4-4,14-13,14-20.8v-8.6c0-.1-.2-.1-.2,0-.7,5.8-2.1,8.3-16.3,22.5l-14,14c-7.4,7.4-13.4,15.3-12.6,24.1.4,4.9,2.1,7.7,3.2,8.4.5.4.4.1.3-.2-4.3-9.7,5.9-19.7,11-24.8Z"/><path class="a" d="M79.6,29.47c0-.1-.2-.1-.2,0-.7,5.8-2.1,8.3-16.3,22.5l-13,13c-4.7,4.7-9.1,9.7-8.9,17.7.1,4.9,2.6,9,6.3,9.9,1.5.3,1.4.1,1.1,0-5.2-2.5-4.9-11.9,3.6-20.4l13.3-13.3c4-4,14-13,14-20.8v-8.6Z"/><path class="a" d="M35.8,68.57c.7-7.4,2.7-11.9,13.5-22.7l16.3-16.4c4-4,14-13,14-20.8V.07c0-.1-.2-.1-.2,0-.7,5.8-2.1,8.3-16.3,22.5L50.5,35.17c-6.8,6.8-12.1,12.1-14.4,18.6a24.79,24.79,0,0,0-1.3,12C35.2,67.07,35.7,69,35.8,68.57Z"/><path class="a" d="M71.6,119.47c0,.1.2.1.2,0a18.28,18.28,0,0,1,3.4-8.6H71.6Z"/><path class="a" d="M88.5,72.57l-4.1,4.1c-6.4,6.3-12.8,13.4-12.8,20v8.7c0,.1.2.1.2,0,.7-6.4,3.8-10.5,13-19.7l3.8-3.8c7.4-7.4,13.4-15.3,12.6-24.1-.4-4.9-2.1-7.7-3.2-8.4-.5-.4-.4-.1-.3.2C102,59.17,91.8,69.27,88.5,72.57Z"/><path class="a" d="M71.6,90.27c0,.1.2.1.2,0,.7-6.1,4.2-10.7,12.1-18.6l3.8-3.8c4.7-4.7,9-9.6,8.8-17.6-.1-4.9-2.6-9-6.3-9.9-1.5-.3-1.4-.1-1.1,0,5.2,2.5,4.9,11.9-3.6,20.4l-4.7,4.7c-3,3-9.2,9.7-9.2,16v8.8Z"/><path class="a" d="M137.8,108.77a3.41,3.41,0,0,0-2.8,1.3,3.65,3.65,0,0,0,0,4.8,3.41,3.41,0,0,0,2.8,1.3,3.68,3.68,0,0,0,2.6-6.3A3.27,3.27,0,0,0,137.8,108.77Zm2.3,6a3.26,3.26,0,0,1-2.3,1,2.9,2.9,0,0,1-2.3-1,3.26,3.26,0,0,1-1-2.3,2.9,2.9,0,0,1,1-2.3,3.26,3.26,0,0,1,2.3-1,2.9,2.9,0,0,1,2.3,1,3.26,3.26,0,0,1,1,2.3A2.9,2.9,0,0,1,140.1,114.77Z"/><path class="a" d="M139.9,114.37c-.2,0-.4-.2-.7-.6l-.1-.1-.8-1.2a1.17,1.17,0,0,0,.7-1.1c0-.7-.5-1.1-1.5-1.1h-1.4c-.1,0-.1,0-.1.1s0,.1.1.1h.1c.2,0,.3.2.3.5v2.5c0,.3,0,.6-.1.7s-.1.2-.3.2a.1.1,0,0,0-.1.1c0,.1,0,.1.1.1h1.6c.1,0,.2,0,.1-.1s-.1-.1-.2-.1a1,1,0,0,1-.4-.1c-.1-.1-.1-.2-.1-.5v-1.2h.4c.1,0,.2,0,.2.1v.1l.8,1.2c.3.4.6.7,1,.7s.5,0,.5-.2c.1,0,.1-.1-.1-.1Zm-2.3-2.1h-.4v-1.5c0-.2.1-.2.3-.2a1.14,1.14,0,0,1,.8.3.91.91,0,0,1,.3.7C138.5,112.07,138.2,112.27,137.6,112.27Z"/><path class="a" d="M537.9,60.77a3.63,3.63,0,0,0-2.6-1.1,3.41,3.41,0,0,0-2.8,1.3,3.65,3.65,0,0,0,0,4.8,3.41,3.41,0,0,0,2.8,1.3,3.76,3.76,0,0,0,3.7-3.7A3.81,3.81,0,0,0,537.9,60.77Zm-.3,5a3.26,3.26,0,0,1-2.3,1,2.9,2.9,0,0,1-2.3-1,3.26,3.26,0,0,1-1-2.3,2.9,2.9,0,0,1,1-2.3,3.26,3.26,0,0,1,2.3-1,2.9,2.9,0,0,1,2.3,1,3.26,3.26,0,0,1,1,2.3A3.73,3.73,0,0,1,537.6,65.77Z"/><path class="a" d="M537.3,65.37c-.2,0-.4-.2-.7-.6l-.1-.1-.8-1.2a1.17,1.17,0,0,0,.7-1.1c0-.7-.5-1.1-1.5-1.1h-1.4c-.1,0-.1,0-.1.1s0,.1.1.1h.1c.2,0,.3.2.3.5v2.5c0,.3,0,.6-.1.7s-.1.2-.3.2a.1.1,0,0,0-.1.1c0,.1,0,.1.1.1h1.6c.1,0,.2,0,.1-.1s-.1-.1-.2-.1a1,1,0,0,1-.4-.1c-.1-.1-.1-.2-.1-.5v-1.2h.4c.1,0,.2,0,.2.1v.1l.8,1.2c.3.4.6.7,1,.7s.5,0,.5-.2.1-.1-.1-.1Zm-2.2-2.1h-.4v-1.4c0-.2.1-.2.3-.2a1.14,1.14,0,0,1,.8.3.91.91,0,0,1,.3.7A1,1,0,0,1,535.1,63.27Z"/></svg>