<svg xmlns="http://www.w3.org/2000/svg" viewBox="0 0 156.97 149.56"><title>Asset 1</title><path d="M71.6,69.42V65.94h4.94v-.33c0-3.49-1.61-6-12.68-4.12L45.65,64.73,35.17,79.27l25.15-4.46c7.54-1.29,14.15-1.56,16.23,4.43V69.42Z" style="fill:#fff"/><path d="M80,79.24c0-4.74,2.8-8,8.52-13.72l4-4L111,64.73l10.5,14.52L97.3,75.09C89.11,73.51,82.17,73,80,79.24Z" style="fill:#fff"/><path d="M81,65.93c1.83-3.91,5.71-7.45,7.94-9.69l1.59-1.61C97.3,47.86,98.6,45.06,99,40.4c0-.24.37.91.47,1.73a15.05,15.05,0,0,1-.79,7.49c-1.39,4.11-4.7,7.38-9,11.67l-4.66,4.64Z" style="fill:#fff"/><path d="M84.93,9.21s.11-.06.11,0V14.6c0,4.88-6.27,10.51-8.77,13L67.09,36.8c-3.18,3.18-9.53,9.45-6.86,15.5.09.2.17.37-.17.13-.68-.48-1.71-2.18-2-5.27-.49-5.52,3.27-10.45,7.91-15.09l8.76-8.77C83.63,14.41,84.5,12.84,84.93,9.21Z" style="fill:#fff"/><path d="M76.28,36.82c2.5-2.48,8.77-8.11,8.77-13V18.44c0-.06-.11,0-.11,0-.43,3.64-1.3,5.2-10.19,14.09l-8.14,8.15c-3,3-5.67,6.06-5.54,11.06.08,3.07,1.62,5.61,3.94,6.21,1,.21.9.08.67,0-3.28-1.55-3-7.47,2.26-12.76Z" style="fill:#fff"/><path d="M66.06,28.66c-6.76,6.76-8.06,9.56-8.47,14.22,0,.24-.37-.91-.47-1.73a15.05,15.05,0,0,1,.79-7.49c1.39-4.11,4.7-7.38,9-11.67l7.86-7.88C83.63,5.24,84.5,3.67,84.93,0c0,0,.11-.06.11,0V5.43c0,4.88-6.27,10.51-8.77,13Z" style="fill:#fff"/><path d="M80.1,74.78s-.12,0-.12,0V69.42h2.24A11.59,11.59,0,0,0,80.1,74.78Z" style="fill:#fff"/><path d="M80.12,65.94s-.12,0-.12,0V60.48c0-4.1,4-8.53,8-12.49l2.58-2.58C92.67,43.32,99,37,96.37,31c-.09-.2-.17-.37.17-.13.68.48,1.71,2.18,2,5.27.49,5.52-3.27,10.45-7.91,15.09l-2.39,2.4C82.46,59.38,80.55,62,80.12,65.94Z" style="fill:#fff"/><path d="M80.11,56.47s-.12,0-.12,0V50.93c0-3.91,3.88-8.13,5.76-10L88.67,38c5.3-5.3,5.53-11.22,2.26-12.76-.23-.1-.29-.22.67,0,2.32.6,3.86,3.14,3.94,6.21.12,5-2.54,8.09-5.5,11l-2.36,2.36C82.73,49.79,80.56,52.68,80.11,56.47Z" style="fill:#fff"/><path d="M104.73,108.43c.92,0,1.78.11,2.69.11s1.56-.11,2.32-.11c.38,0,.48.05.48.22,0,.59-1.78.05-1.78,1.88v13.24c0,1.72,2.15,1.13,2.15,1.88,0,.16-.05.22-.48.22s-1.62-.05-2.69-.05c-1.51,0-2,.05-2.37.05s-.48-.11-.48-.38c0-.7,1.88.11,1.88-2.32V110.53c0-1.78-2-1.29-2-1.83C104.46,108.49,104.51,108.43,104.73,108.43Z" style="fill:#fff"/><path d="M65.64,116.46c2.58,0,1.94-2,2.53-2,.16,0,.27.27.27.48,0,.86-.05,1.67-.05,2.48,0,.65.05,1.29.05,1.94,0,.22-.11.32-.27.32-.75,0,.05-2.15-2-2.15H62.52c-.54,0-.43.43-.43.81v4.52c0,1.45-.22,2,1.83,2,5.71,0,6.57-2.53,6.89-2.53.16,0,.16.22.16.27a4.14,4.14,0,0,1-1.18,2.42c-.81.86-1.35.81-2.42.81-1.88,0-3.77-.11-5.65-.05-1,0-2,.05-3,.05-.22,0-.38-.05-.38-.22.05-.32.32-.27,1.08-.65s.7-1,.7-2.15V111.61c0-1.13,0-2.31-1.29-2.48-.22-.05-.75-.11-.75-.43,0-.16.16-.27.86-.27,4.63,0,5.92.11,7,.11.48,0,2.75-.11,3.5-.11.22,0,.27.22.27.54,0,2.75-.38,2.91-.48,2.91-.59,0-.22-1.18-.59-1.72-.65-.86-3.23-.7-4.2-.7-2.37,0-2.31-.11-2.31,1.56v4.58c0,.86-.05.86.92.86Z" style="fill:#fff"/><path d="M146.81,116.46c2.58,0,1.94-2,2.53-2,.16,0,.27.27.27.48,0,.86-.05,1.67-.05,2.48,0,.65.05,1.29.05,1.94,0,.22-.11.32-.27.32-.75,0,.05-2.15-2-2.15h-3.66c-.54,0-.43.43-.43.81v4.52c0,1.45-.22,2,1.83,2,5.71,0,6.57-2.53,6.89-2.53.16,0,.16.22.16.27a4.14,4.14,0,0,1-1.18,2.42c-.81.86-1.35.81-2.42.81-1.88,0-3.77-.11-5.65-.05-1,0-2,.05-3,.05-.22,0-.38-.05-.38-.22.05-.32.32-.27,1.08-.65s.7-1,.7-2.15V111.61c0-1.13,0-2.31-1.29-2.48-.22-.05-.75-.11-.75-.43,0-.16.16-.27.86-.27,4.63,0,5.92.11,7,.11.48,0,2.75-.11,3.5-.11.22,0,.27.22.27.54,0,2.75-.38,2.91-.48,2.91-.59,0-.22-1.18-.59-1.72-.65-.86-3.23-.7-4.2-.7-2.37,0-2.31-.11-2.31,1.56v4.58c0,.86-.05.86.91.86Z" style="fill:#fff"/><path d="M71.08,108.43c.43,0,.81.11,1.18.11s.75-.11,1.13-.11.48.38.65.54l11.79,13.14c.11.16.22.27.27.27s.11-.11.11-.27V111.77c0-3.23-2.75-2.26-2.75-3.12,0-.16.11-.22.27-.22.7,0,1.45.11,2.21.11s1.94-.11,2.53-.11a.2.2,0,0,1,.22.22c0,.65-1.45.21-1.45,2v14.27c0,.75,0,1.08-.22,1.08s-.43-.11-.92-.7l-10.61-12c-.05,0-.38-.43-.54-.43s-.16.05-.16.54v10.12c0,2.21,2.15,1.35,2.15,2,0,.16,0,.32-.27.32-.59,0-1.29-.05-2.48-.05-.86,0-2.15.05-2.31.05-.32,0-.32-.11-.32-.27,0-.86,2.15.22,2.15-3.23v-9.1c0-5.11-3-3.71-3-4.63C70.75,108.54,71,108.43,71.08,108.43Z" style="fill:#fff"/><path d="M91.32,109.78c-1.56,0-1.62.38-2,1.72-.11.27-.11.59-.43.59-.16,0-.22-.22-.22-.32l.27-2.37c0-.32,0-1,.43-1,1.94,0,3.82.11,7,.11,4.47,0,6.73-.11,7.21-.11s.7.16.75.7l.11,2c0,.22.05.54-.27.54-.92,0,.43-1.88-2.1-1.88H98.48c-.92,0-1,.05-1,1.18v12.6c0,2.1,2,1.29,2,2,0,.05.05.27-.22.27-.59,0-1.29-.05-2-.05-2.75,0-3.23.05-3.39.05s-.27-.05-.27-.32c0-.59,1.94-.32,1.94-1.83V110.91c0-.16.05-1.13-.32-1.13Z" style="fill:#fff"/><path d="M50.62,124.85c-.27.65-.43,1.45-.81,1.45s-.7-1.08-.91-1.56l-6.08-14.43c-.59-1.45-1.94-1-1.94-1.56,0-.22.16-.32.38-.32.75,0,1.51.11,2.26.11s1.62-.11,1.94-.11c.16,0,.32.11.32.22.05.38-1,.38-1,1.29a2.83,2.83,0,0,0,.22,1L49.33,121c.59,1.35.7,1.88,1,1.88s.32-.38.48-.7L55,111.66a3.47,3.47,0,0,0,.38-1.67c0-1.13-1.62-.7-1.62-1.24,0-.27.16-.32.38-.32.54,0,1.08.11,1.67.11,1.18,0,1.51-.11,1.88-.11s.43.11.43.32c0,.54-.7-.11-1.4,1.56Z" style="fill:#fff"/><path d="M29,125.82c-.16,0-1.51.05-2.26.05-1.35,0-2.15-.05-3.23-.05-.92,0-1.78.11-2.69.11-.16,0-.7,0-.7-.32,0-.81,1.94-.48,1.94-1.72a13.29,13.29,0,0,0-1-3.07L20,118.12c-.32-.75-.48-1.24-1.4-1.24H11.42c-.65,0-1.24,0-1.56.7l-2,4.58a2.89,2.89,0,0,0-.27,1.13c0,2.26,2.32,1.29,2.32,2.15,0,.59-.43.48-.86.48-.92,0-1.83-.11-2.75-.11s-1.78.11-2.64.11c-.16,0-.27-.16-.27-.38,0-.65,1.51-.11,2.37-2l7.81-16.64c1.94-4.15,2-4.68,2.48-4.68s.59,1,.7,1.24l6.78,16.85A22.27,22.27,0,0,0,25.1,124a1.94,1.94,0,0,0,1.67,1c.54,0,1-.65,1-1.72V111.07c0-2.53-2-1.72-2-2.42,0-.16.16-.22.32-.22.75,0,1.51.11,2.21.11,1.67,0,3.23-.11,5.38-.11,4.36,0,8.67,3.28,8.67,7.86,0,5.65-2.69,9.58-9.53,9.58C31.5,125.88,30.27,125.82,29,125.82Zm.65-15.24v11.74c0,.38-.05,1.56.16,1.78a6.28,6.28,0,0,0,3.82,1.13c3.5,0,6.84-1.88,6.84-7.59,0-5.49-3.66-8.56-8.35-8.61C29.78,109,29.67,109.46,29.67,110.59Zm-14.75-3.66-3.71,7.91c-.22.48,0,.59.43.59H18.1c.75,0,.7-.22.54-.65l-3.18-7.86C15.3,106.5,15.14,106.5,14.92,106.93Z" style="fill:#fff"/><path d="M139.08,109.13l.11,2c0,.22.05.54-.27.54-.92,0,.43-1.88-2.1-1.88h-3.55c-1,0-1,.05-1,1.18v12.6c0,2.1,2,1.29,2,2,0,.05.05.27-.22.27-.59,0-1.29-.05-2-.05-2.75,0-3.23.05-3.39.05s-.27-.05-.27-.32c0-.59,1.94-.32,1.94-1.83V110.91c0-.16.05-1.13-.32-1.13h-5.11c-1.51,0-1.45.54-1.45,1.4,0,.27.22,1.35-.27,1.35-.27,0-.43-.54-.54-.75-.75-2.1-2.48-2.85-4.63-2.85-2,0-4,1-4,3.23,0,4.63,10,1.94,10,8.72,0,2.1-1.45,5.22-7.05,5.22-1.83,0-4.09-.92-4.2-1.4l-.59-3.18c-.11-.48,0-.75.27-.75s.32.32.48.81a5.25,5.25,0,0,0,5.17,3.71c2.37,0,4.63-1.29,4.63-3.93,0-4.74-10-2.1-10-8.51,0-3.12,2.64-4.63,5.49-4.63a9.23,9.23,0,0,1,4.15.86c.38,0,.43-.65.92-.65,1.94,0,4.68.11,7.86.11,4.47,0,6.73-.11,7.21-.11S139,108.6,139.08,109.13Z" style="fill:#fff"/><path d="M55.88,96.65c0,.51,0,.51.57.51h1.63c1.56,0,1.16-1.2,1.52-1.2.12,0,.17.17.17.29,0,.53,0,1,0,1.52s0,.78,0,1.19c0,.14-.06.2-.17.2-.47,0,0-1.32-1.22-1.32H56.15c-.32,0-.27.26-.27.48v2.77c0,.89-.12,1.25,1.14,1.25,3.48,0,4-1.55,4.18-1.55s.12.15.12.18a2.38,2.38,0,0,1-.75,1.46c-.48.54-.81.51-1.47.51-1.14,0-2.29-.09-3.43-.06-.6,0-1.23.06-1.83.06-.14,0-.23,0-.23-.15s.18-.15.66-.39.42-.6.42-1.31V94.21c0-.68,0-1.4-.81-1.52-.12,0-.45-.06-.45-.24s.09-.18.53-.18c2.84,0,3.63.06,4.26.06.3,0,1.68-.06,2.15-.06.12,0,.15.15.15.33,0,1.67-.21,1.79-.3,1.79-.36,0-.12-.72-.36-1.07-.39-.51-2-.42-2.56-.42-1.44,0-1.41-.06-1.41.95Z" style="fill:#fff"/><path d="M72.25,97.32c.12,0,.41-.06.41.14s-.77,0-.77,1v3.07c-1.55.5-2,1.52-4.63,1.52a5,5,0,0,1-5.39-5.4,5.38,5.38,0,0,1,5.63-5.49c2.6,0,3.35,1,3.78,1,.17,0,.23-.27.39-.27s.15.23.17.35l.15,2c0,.12,0,.27-.17.27-.39,0-1.07-2.9-4.62-2.9-2.71,0-4.06,2.29-4.06,4.77,0,2.66,1.53,5.2,4.44,5.2,1.37,0,3.13-.68,3.13-2V98.26c0-.71-1.31-.39-1.31-.77,0-.2.21-.17.35-.17Z" style="fill:#fff"/><path d="M75.92,101.07c0,.89-.12,1.25,1.14,1.25,3.48,0,4-1.55,4.18-1.55s.12.15.12.18a2.38,2.38,0,0,1-.75,1.46c-.48.54-.81.51-1.47.51-1.14,0-2.29-.09-3.43-.06-.6,0-1.23.06-1.83.06-.14,0-.23,0-.23-.15s.18-.15.66-.39.42-.6.42-1.31V93.44c0-.78-1.26-.68-1.26-1s.1-.2.3-.2.78.06,1.52.06,1.22-.06,1.44-.06.29,0,.29.21c0,.35-1.1,0-1.1,1.28Z" style="fill:#fff"/><path d="M83,93.56c0-1.1-1.22-.8-1.22-1.13,0-.14,0-.17.15-.17.56,0,1.1.06,1.65.06s.93-.06,1.4-.06c.24,0,.29,0,.29.15,0,.36-1.08,0-1.08,1.14v8.08c0,1,1.34.68,1.34,1.13,0,.11,0,.15-.3.15s-1-.06-1.64-.06c-.92,0-1.23.06-1.44.06s-.32-.08-.32-.23c0-.44,1.17.06,1.17-1.43Z" style="fill:#fff"/><path d="M86.64,100.26c-.06-.3,0-.47.17-.47s.21.18.29.5a3.21,3.21,0,0,0,3.16,2.26c1.43,0,2.83-.8,2.83-2.38,0-2.9-6.11-1.28-6.11-5.2,0-1.91,1.61-2.83,3.34-2.83a5.32,5.32,0,0,1,2.53.54c.14,0,.17-.17.32-.17s.17,0,.18.21l.23,2c0,.12,0,.23-.17.23s-.27-.32-.32-.45a2.87,2.87,0,0,0-2.87-2c-1.19,0-2.45.57-2.45,2,0,2.83,6.11,1.17,6.11,5.33,0,1.26-.89,3.16-4.3,3.16A3.94,3.94,0,0,1,87,102.2Z" style="fill:#fff"/><path d="M97.23,96.65c0,.51,0,.51.57.51h1.62c1.56,0,1.16-1.2,1.52-1.2.12,0,.17.17.17.29,0,.53,0,1,0,1.52s0,.78,0,1.19c0,.14-.06.2-.17.2-.47,0,0-1.32-1.22-1.32H97.5c-.32,0-.27.26-.27.48v2.77c0,.89-.12,1.25,1.14,1.25,3.48,0,4-1.55,4.18-1.55s.12.15.12.18a2.38,2.38,0,0,1-.75,1.46c-.48.54-.81.51-1.47.51-1.14,0-2.29-.09-3.43-.06-.6,0-1.23.06-1.84.06-.14,0-.23,0-.23-.15s.18-.15.66-.39.42-.6.42-1.31V94.21c0-.68,0-1.4-.81-1.52-.12,0-.45-.06-.45-.24s.09-.18.53-.18c2.84,0,3.63.06,4.26.06.3,0,1.69-.06,2.15-.06.12,0,.15.15.15.33,0,1.67-.21,1.79-.3,1.79-.36,0-.12-.72-.36-1.07-.39-.51-2-.42-2.56-.42-1.44,0-1.41-.06-1.41.95Z" style="fill:#fff"/><path d="M15.48,140.69c-.1-.49,0-.76.27-.76s.34.29.46.81a5.21,5.21,0,0,0,5.13,3.66c2.32,0,4.59-1.29,4.59-3.86,0-4.71-9.92-2.08-9.92-8.45,0-3.1,2.61-4.59,5.42-4.59a8.64,8.64,0,0,1,4.1.88c.22,0,.27-.27.51-.27s.27.07.29.34l.37,3.32c0,.2,0,.37-.27.37s-.44-.51-.51-.73a4.66,4.66,0,0,0-4.66-3.17c-1.93,0-4,.93-4,3.17,0,4.59,9.92,1.9,9.92,8.65,0,2.05-1.44,5.13-7,5.13-1.81,0-4-.9-4.13-1.34Z" style="fill:#fff"/><path d="M31.25,137.18c0,.64,0,.64.71.64h2c1.95,0,1.44-1.5,1.89-1.5.15,0,.21.21.21.36,0,.66,0,1.29,0,1.89s0,1,0,1.48c0,.17-.08.24-.21.24-.58,0,.06-1.65-1.52-1.65H31.59c-.39,0-.34.32-.34.6v3.45c0,1.11-.15,1.56,1.42,1.56,4.33,0,5-1.93,5.21-1.93s.15.19.15.22a3,3,0,0,1-.94,1.82c-.6.67-1,.64-1.84.64-1.42,0-2.85-.11-4.27-.08-.75,0-1.54.08-2.29.08-.17,0-.28,0-.28-.19s.23-.19.82-.49.52-.75.52-1.63v-8.55c0-.84,0-1.74-1-1.89-.15,0-.56-.07-.56-.3s.11-.22.66-.22c3.54,0,4.52.07,5.3.07.37,0,2.1-.07,2.68-.07.15,0,.19.19.19.41,0,2.08-.26,2.23-.37,2.23-.45,0-.15-.9-.45-1.33-.49-.64-2.44-.52-3.19-.52-1.8,0-1.76-.08-1.76,1.18Z" style="fill:#fff"/><path d="M41.59,142.41c0,2.7,2,1.72,2,2.36,0,.13-.08.23-.54.23-.64,0-.92-.08-2-.08-.88,0-1.5.08-2,.08-.11,0-.3-.06-.3-.23,0-.51,1.46.08,1.46-2v-9c0-2.25-1.54-1.11-1.54-1.78a.26.26,0,0,1,.24-.28c.17,0,.82.07,1.91.07s1.24-.07,2.14-.07c2.38,0,5,.82,5,3.62,0,.75-.56,3.6-4.55,3.6-.19,0-1.27-.09-1.27-.43,0-.13.09-.17.19-.17a9.3,9.3,0,0,0,1.22.11c1.91,0,3-.92,3-2.6,0-2.27-1.74-3.47-3.9-3.47-.6,0-1,0-1,.56Z" style="fill:#fff"/><path d="M51.54,133.62c0-.13.08-.84-.19-.86H48.29c-1.16,0-1.2.28-1.54,1.31-.06.19-.07.43-.32.43s-.19-.13-.19-.23l.21-1.82c0-.23,0-.73.34-.73,1.46,0,2.91.07,5.32.07,3.39,0,5.12-.07,5.49-.07s.52.11.54.54l.09,1.5c0,.19,0,.41-.21.41-.69,0,.32-1.42-1.59-1.42H53.77c-.84,0-.75-.07-.75.92v9.56c0,1.57,1.52,1,1.52,1.54,0,.06,0,.23-.17.23-.45,0-1-.08-1.52-.08a25.15,25.15,0,0,0-2.57.08c-.17,0-.22-.06-.22-.24,0-.45,1.48-.26,1.48-1.39Z" style="fill:#fff"/><path d="M60.25,133.34c0-1.37-1.52-1-1.52-1.41,0-.17,0-.21.19-.21.69,0,1.37.07,2.06.07s1.16-.07,1.74-.07c.3,0,.36,0,.36.19,0,.45-1.35,0-1.35,1.42V143.4c0,1.27,1.67.84,1.67,1.41,0,.13-.06.19-.37.19s-1.24-.08-2-.08c-1.14,0-1.54.08-1.8.08s-.39-.09-.39-.28c0-.54,1.46.07,1.46-1.78Z" style="fill:#fff"/><path d="M68.49,137.18c0,.64,0,.64.71.64h2c1.95,0,1.44-1.5,1.89-1.5.15,0,.21.21.21.36,0,.66,0,1.29,0,1.89s0,1,0,1.48c0,.17-.08.24-.21.24-.58,0,.06-1.65-1.52-1.65H68.83c-.39,0-.34.32-.34.6v3.45c0,1.11-.15,1.56,1.42,1.56,4.33,0,5-1.93,5.21-1.93s.15.19.15.22a3,3,0,0,1-.94,1.82c-.6.67-1,.64-1.84.64-1.42,0-2.85-.11-4.27-.08-.75,0-1.54.08-2.29.08-.17,0-.28,0-.28-.19s.22-.19.82-.49.52-.75.52-1.63v-8.55c0-.84,0-1.74-1-1.89-.15,0-.56-.07-.56-.3s.11-.22.66-.22c3.54,0,4.52.07,5.3.07.37,0,2.1-.07,2.68-.07.15,0,.19.19.19.41,0,2.08-.26,2.23-.37,2.23-.45,0-.15-.9-.45-1.33-.49-.64-2.44-.52-3.19-.52-1.8,0-1.76-.08-1.76,1.18Z" style="fill:#fff"/><path d="M90,143.27c.09,1.57,1.48.88,1.48,1.54,0,.19-.24.19-.45.19-.36,0-1-.08-1.76-.08-.58,0-1.18.08-1.65.08-.17,0-.21-.09-.21-.17,0-.56,1.18-.15,1.16-1.54L88.37,136c0-.47-.09-.73-.21-.73s-.3.17-.49.56l-3.88,7.91c-.09.17-.39.94-.58.94s-.32-.41-.37-.54l-4-8.36c-.06-.15-.15-.21-.23-.21s-.11.09-.13.28l-.22,6.58c-.09,2.49,1.69,1.67,1.69,2.34,0,.19-.21.21-.47.21s-1.09-.08-1.65-.08c-1,0-1.29.08-1.63.08-.13,0-.19-.09-.19-.23,0-.64,1.2.13,1.33-1.82.22-3.06.45-5,.45-7,0-4.4-1.78-3.35-1.78-4,0-.17.15-.21.32-.21.34,0,.67.07,1,.07s.67-.07,1-.07.3.32.39.52l4.46,9.52c.21.39.28.56.41.56s.28-.39.58-1l4.46-9c.11-.21.26-.66.49-.64s.79.07.88.07c.43,0,.6-.07.9-.07a.21.21,0,0,1,.19.22c0,.6-1.5-.21-1.42,2Z" style="fill:#fff"/><path d="M95.91,137.18c0,.64,0,.64.71.64h2c1.95,0,1.44-1.5,1.89-1.5.15,0,.21.21.21.36,0,.66,0,1.29,0,1.89s0,1,0,1.48c0,.17-.08.24-.21.24-.58,0,.06-1.65-1.52-1.65H96.25c-.39,0-.34.32-.34.6v3.45c0,1.11-.15,1.56,1.42,1.56,4.33,0,5-1.93,5.21-1.93s.15.19.15.22a3,3,0,0,1-.94,1.82c-.6.67-1,.64-1.84.64-1.42,0-2.85-.11-4.27-.08-.75,0-1.54.08-2.29.08-.17,0-.28,0-.28-.19s.23-.19.82-.49.52-.75.52-1.63v-8.55c0-.84,0-1.74-1-1.89-.15,0-.56-.07-.56-.3s.11-.22.66-.22c3.54,0,4.52.07,5.3.07.37,0,2.1-.07,2.68-.07.15,0,.19.19.19.41,0,2.08-.26,2.23-.37,2.23-.45,0-.15-.9-.45-1.33-.49-.64-2.44-.52-3.19-.52-1.8,0-1.76-.08-1.76,1.18Z" style="fill:#fff"/><path d="M109.34,130.38c0-2.44-2.36-1.71-2.36-2.36,0-.19.12-.27.37-.27,1,0,1.54.1,2.63.1s1.71-.1,2.27-.1c.24,0,.46.07.46.34,0,.54-1.44-.15-1.44,1.75v12.94c0,3.8-2.1,6.77-4.73,6.77-.75,0-1-.17-1-.88,0-.34.2-1.36.54-1.36s.83,1,1.51,1c1,0,1.71-1.39,1.71-3.53Z" style="fill:#fff"/><path d="M113.81,138.28a6.67,6.67,0,0,1,6.88-6.73,6.52,6.52,0,0,1,6.77,6.64c0,4.22-2.91,6.93-7.08,6.93S113.81,142.24,113.81,138.28Zm1.37-.54c0,3.47,2.27,6.82,6,6.82,2.74,0,4.93-2.19,4.93-5.66s-2.31-6.73-6-6.73C117,132.17,115.18,134.78,115.18,137.74Z" style="fill:#fff"/><path d="M131.32,140c0,3,1.95,4.37,4.48,4.37,3.52,0,4.33-2.32,4.33-4.54v-6.07c0-1.91-1.74-1.12-1.74-1.84,0-.09.13-.19.19-.19.73,0,1.46.07,2.19.07.36,0,.69-.07,1-.07.09,0,.24.09.24.21,0,.52-1.11.11-1.11,1.84v5.81c0,.92.23,5.55-5.23,5.55-4.93,0-5.87-2.76-5.87-5.64v-6.32c0-1.11-1.52-.66-1.52-1.26,0-.13.32-.19.41-.19.49,0,1,.07,1.46.07s1.2-.07,1.78-.07c.09,0,.6,0,.6.19,0,.52-1.26,0-1.26,1.35Z" style="fill:#fff"/><path d="M152.89,143c1.35,2.06,2.27,1.37,2.27,1.82,0,.23-1,.23-1.22.23-1.37,0-2.1-1-2.81-2L149,139.69c-.67-1-.39-1-2.49-1-.6,0-.49.34-.49.52v4c0,1.61,1.95,1,1.95,1.67,0,.19-.17.15-.32.15s-.6-.08-2.16-.08c-.71,0-1.42.08-2.14.08a.19.19,0,0,1-.19-.21c0-.47,1.37-.21,1.37-1.63v-9.54c0-1.8-1.61-1-1.61-1.67,0-.11.15-.22.38-.22a10.68,10.68,0,0,0,1.2.07c1.09,0,2.16-.07,3.13-.07.3,0,4.44-.37,4.44,3.24a3.63,3.63,0,0,1-2.36,3.24Zm-6.82-5.15c0,.36,1.16.26,2,.26a2.45,2.45,0,0,0,2.6-2.66c0-2.29-1.74-3.06-3.58-3.06-.67,0-1.07,0-1.07.69Z" style="fill:#fff"/><path d="M.81,133c0-1-.81-.69-.81-1,0-.07.08-.1.14-.1.31,0,.59,0,.89,0,.65,0,1.29,0,2.14,0a3.36,3.36,0,0,1,3.45,3.14c0,2.26-1.07,3.83-3.8,3.83-.5,0-1,0-1.51,0l-1.1,0c-.08,0-.1,0-.1-.1,0-.23.7,0,.7-.92Zm.78,4.49c0,.16,0,.63.06.72a2.48,2.48,0,0,0,1.52.44c1.4,0,2.73-.75,2.73-3a3.2,3.2,0,0,0-3.33-3.43c-.93,0-1,.16-1,.62Z" style="fill:#fff"/><path d="M8.44,136.29a2.13,2.13,0,0,0,2.35,2.29,2.08,2.08,0,0,0,2.27-2.38V133c0-1-.92-.59-.92-1,0,0,.07-.1.1-.1.38,0,.77,0,1.15,0,.19,0,.36,0,.54,0s.13,0,.13.11c0,.28-.58.06-.58,1v3.05A2.54,2.54,0,0,1,10.75,139c-2.59,0-3.08-1.45-3.08-3v-3.32c0-.58-.8-.34-.8-.66,0-.07.17-.1.22-.1.26,0,.5,0,.77,0s.63,0,.93,0c0,0,.31,0,.31.1,0,.28-.66,0-.66.71Z" style="fill:#fff"/><path d="M154.21,103.86a2.76,2.76,0,1,1,0,5.52,2.62,2.62,0,0,1-2.1-1,2.76,2.76,0,0,1,0-3.58A2.65,2.65,0,0,1,154.21,103.86Zm0,.31a2.45,2.45,0,1,0,1.74.72A2.37,2.37,0,0,0,154.21,104.17Zm.35,2.45.62.9.08.11c.19.28.37.43.52.43h.07s.07,0,.07.07-.13.11-.36.11a.91.91,0,0,1-.73-.49l-.58-.87,0-.05a.17.17,0,0,0-.16-.08h-.34v.85a.58.58,0,0,0,.07.35.53.53,0,0,0,.33.11c.07,0,.11,0,.12.08s0,.08-.11.08h-.78l-.19,0H153c-.07,0-.1,0-.1-.08s0-.06.09-.08a.3.3,0,0,0,.23-.16,1.57,1.57,0,0,0,0-.5v-1.87c0-.22-.08-.34-.23-.36l-.11,0q-.1,0-.1-.09c0-.05,0-.08.11-.08h.37l.36,0H154q1.11,0,1.11.82A.89.89,0,0,1,154.56,106.62Zm-.73-.1h.26a.53.53,0,0,0,.61-.59.64.64,0,0,0-.23-.5.81.81,0,0,0-.56-.2c-.14,0-.21.06-.21.17v1a.2.2,0,0,0,0,.11S153.77,106.52,153.83,106.52Z" style="fill:#fff"/><path d="M122,69.11a2.76,2.76,0,1,1,0,5.52,2.62,2.62,0,0,1-2.1-1,2.76,2.76,0,0,1,0-3.58A2.65,2.65,0,0,1,122,69.11Zm0,.31a2.45,2.45,0,1,0,1.74.72A2.37,2.37,0,0,0,122,69.42Zm.35,2.45.62.9.08.11c.19.28.37.43.52.43h.07s.07,0,.07.07-.13.11-.36.11a.91.91,0,0,1-.73-.49l-.58-.87,0-.05a.17.17,0,0,0-.16-.08h-.34v.85a.58.58,0,0,0,.07.35.53.53,0,0,0,.33.11c.07,0,.11,0,.12.08s0,.08-.11.08h-.78l-.19,0h-.12c-.07,0-.1,0-.1-.08s0-.06.09-.08a.3.3,0,0,0,.23-.16,1.57,1.57,0,0,0,0-.5V70.81c0-.22-.08-.34-.23-.36l-.11,0q-.1,0-.1-.09c0-.05,0-.08.11-.08h.37l.36,0h.33q1.11,0,1.11.82A.89.89,0,0,1,122.31,71.87Zm-.73-.1h.26a.53.53,0,0,0,.61-.59.64.64,0,0,0-.23-.5.81.81,0,0,0-.56-.2c-.14,0-.21.06-.21.17v1a.2.2,0,0,0,0,.11S121.52,71.77,121.58,71.77Z" style="fill:#fff"/></svg>