<svg xmlns="http://www.w3.org/2000/svg" viewBox="0 0 597.91 121.67"><defs><style>.a{fill:#fff;}</style></defs><title>Asset 1</title><path class="a" d="M156.4,80.07c.2.8.3,1.4.4,1.6a2.65,2.65,0,0,0,.5.6,12.45,12.45,0,0,0,3.1,1.2,18.93,18.93,0,0,0,3.8.5,11.65,11.65,0,0,0,7.9-2.7,9,9,0,0,0,3.1-6.9c0-4.1-2.8-7.1-8.3-9a39.19,39.19,0,0,1-5.4-2,6.27,6.27,0,0,1-2-1.7,5.24,5.24,0,0,1-1.1-3.3,4.65,4.65,0,0,1,1.6-3.6,5.69,5.69,0,0,1,4.1-1.4,9.58,9.58,0,0,1,5.5,1.6,7.42,7.42,0,0,1,3.3,4c.2.7.5,1.1.7,1.1s.5-.2.5-.7a4.4,4.4,0,0,0-.1-.9l-.4-2.3a23.19,23.19,0,0,1-.3-2.3c0-.8-.2-1.1-.6-1.1-.1,0-.2,0-.2.1l-.3.3a1.69,1.69,0,0,1-.5.2.6.6,0,0,1-.4-.1l-1.6-.7a10,10,0,0,0-4.1-.7,10.53,10.53,0,0,0-7,2.3,7.42,7.42,0,0,0-2.7,6,6.93,6.93,0,0,0,2.1,5.3c1.4,1.4,3.8,2.6,7.1,3.7s5.2,1.9,5.9,2.5a5.45,5.45,0,0,1,2,4.2,6,6,0,0,1-2.1,4.5,7.92,7.92,0,0,1-5.3,1.8,9.52,9.52,0,0,1-5.7-1.9,8.71,8.71,0,0,1-3.4-4.7c-.2-.7-.5-1.1-.7-1.1s-.5.2-.5.7a12.17,12.17,0,0,0,.6,2.9C156.2,79.27,156.4,80,156.4,80.07Z"/><path class="a" d="M191.5,83.57a4.78,4.78,0,0,0,3.8-1.8,4.55,4.55,0,0,0,1.2-2.6c0-.3-.1-.5-.3-.4a.54.54,0,0,0-.4.3c-1.3,2-4.1,3-8.6,3-1.4,0-2.3-.1-2.6-.4s-.5-.8-.5-1.8V73a.78.78,0,0,1,.3-.7,2.68,2.68,0,0,1,1.1-.2h3.8a3.69,3.69,0,0,1,2.1.4,2.19,2.19,0,0,1,.8,1.5l.1.5a.43.43,0,0,0,.4.4c.2,0,.3-.1.3-.4V74a14.77,14.77,0,0,1-.1-2.1c0-.9.1-1.9.2-3v-.4a.46.46,0,0,0-.3-.5.37.37,0,0,0-.4.4,2.73,2.73,0,0,1-.5,1.4,2.25,2.25,0,0,1-1.2.5,19.1,19.1,0,0,1-2.8.2h-2.6a1.44,1.44,0,0,1-.9-.2c-.1-.1-.1-.4-.1-.9v-6.9a1.74,1.74,0,0,1,.3-1.2A2.21,2.21,0,0,1,186,61h2.7a13.74,13.74,0,0,1,3.6.3,1.74,1.74,0,0,1,1.3,1,3.55,3.55,0,0,1,.2,1v.4c0,.4.1.5.3.5s.3-.1.4-.3a7.08,7.08,0,0,0,.2-1.2l.1-1a9.51,9.51,0,0,0,.1-1.4c0-.2.1-.3.1-.4,0-.3-.2-.5-.6-.5a2.25,2.25,0,0,0-.7.1,7.5,7.5,0,0,0-1.2.1l-2.4.1c-1.1,0-2.3.1-3.7.1a50.29,50.29,0,0,1-5.9-.3,5.39,5.39,0,0,0-1.1-.1c-.5,0-.8.2-.8.5s.2.3.5.3a2.56,2.56,0,0,1,2.1.8,6.62,6.62,0,0,1,.5,3.3v15.5q0,2.1-1.2,2.4l-.6.2c-.3.1-.4.2-.4.4a.46.46,0,0,0,.5.4,3.45,3.45,0,0,0,.9-.1,35.88,35.88,0,0,1,4.2-.2q2.1,0,5.4.3C190.7,83.57,191.1,83.57,191.5,83.57Z"/><path class="a" d="M199.3,60.57a3.18,3.18,0,0,1,2.1,1,5.75,5.75,0,0,1,.5,2.8V79a5.79,5.79,0,0,1-.4,2.8c-.2.4-.8.7-1.7.9-.4.1-.5.2-.5.4s.2.3.5.3a2.49,2.49,0,0,0,.8-.1l2-.1h2.5a7.67,7.67,0,0,1,1.8.1,3.54,3.54,0,0,1,.6.1c.4,0,.5-.1.5-.4s-.3-.3-.9-.4a5,5,0,0,1-1.6-.5,2.28,2.28,0,0,1-.8-1.2,10.75,10.75,0,0,1-.3-3.2V64.87c0-2.4.4-3.8,1.3-4.1l.9-.3c.3-.1.4-.2.4-.4s-.2-.3-.5-.3h-.4l-1.1.1c-.6,0-1.3.1-2.2.1a26.3,26.3,0,0,1-3.3-.2h-.3c-.3,0-.5.1-.5.4A.92.92,0,0,0,199.3,60.57Z"/><path class="a" d="M209.2,65.07c.2,0,.4-.2.5-.6a3.45,3.45,0,0,1,1-2.1,2.81,2.81,0,0,1,2-.6h4.5a.8.8,0,0,1,1,1v17.3a3.22,3.22,0,0,1-.5,2,2.52,2.52,0,0,1-1.8.7c-.4,0-.6.2-.6.3a.46.46,0,0,0,.5.4,6.61,6.61,0,0,0,1.1-.1c.3,0,.7-.1,1.2-.1h2.5a5,5,0,0,1,1.5.1,3.22,3.22,0,0,0,.8.1c.3,0,.5-.1.5-.4s-.2-.3-.6-.4a2.26,2.26,0,0,1-2.2-2.4V62.87a1.85,1.85,0,0,1,.2-1,1.44,1.44,0,0,1,.9-.2h4.8c1,0,1.6.1,1.9.4a2.39,2.39,0,0,1,.7,1.6c.1.4.2.5.4.5a.46.46,0,0,0,.4-.5,2.81,2.81,0,0,0-.1-.8,5.76,5.76,0,0,1-.1-1.5,2.23,2.23,0,0,0-.2-1.2,2,2,0,0,0-1.1-.2H210.1a1.55,1.55,0,0,0-.8.2,2.15,2.15,0,0,0-.2,1,8.79,8.79,0,0,1-.3,2c-.1.6-.2,1.1-.2,1.3C208.9,65,209,65.07,209.2,65.07Z"/><path class="a" d="M233.2,82.47a11,11,0,0,0,2.3.9,16.7,16.7,0,0,0,2.9.4,8.77,8.77,0,0,0,5.9-2,6.67,6.67,0,0,0,2.3-5.2c0-3.1-2.1-5.4-6.3-6.8a33.64,33.64,0,0,1-4.1-1.5,4.54,4.54,0,0,1-1.5-1.3,4.15,4.15,0,0,1-.8-2.5,3.42,3.42,0,0,1,1.2-2.7,4.5,4.5,0,0,1,3.1-1.1,7.87,7.87,0,0,1,4.2,1.2,6,6,0,0,1,2.5,3c.2.5.4.8.6.8a.46.46,0,0,0,.4-.5,2.64,2.64,0,0,0-.1-.7l-.3-1.8c-.1-1-.2-1.5-.2-1.7,0-.6-.1-.8-.4-.8-.1,0-.2,0-.2.1l-.3.2a.76.76,0,0,1-.4.2.37.37,0,0,1-.3-.1l-1.2-.5a7.21,7.21,0,0,0-3.1-.5,8.21,8.21,0,0,0-5.3,1.7,5.68,5.68,0,0,0-2.1,4.5,5.2,5.2,0,0,0,1.6,4,13.5,13.5,0,0,0,5.3,2.8c2.4.8,3.9,1.4,4.4,1.9a4.07,4.07,0,0,1,1.5,3.2,4.4,4.4,0,0,1-1.6,3.4,6.09,6.09,0,0,1-4,1.4,7.6,7.6,0,0,1-4.3-1.4,6.62,6.62,0,0,1-2.6-3.6c-.2-.5-.3-.8-.6-.8s-.3.2-.3.5a8.5,8.5,0,0,0,.4,2.2,11,11,0,0,1,.4,1.5,5,5,0,0,0,.3,1.2C232.9,82.17,233,82.37,233.2,82.47Z"/><path class="a" d="M276.1,82.67a3,3,0,0,1-1.7-.7,3.09,3.09,0,0,1-.5-1.9l-.1-2.1-.3-9.3-.1-4.1a9.41,9.41,0,0,1,.3-2.8,1.67,1.67,0,0,1,1.2-1.1l.7-.2c.2-.1.3-.2.3-.4a.27.27,0,0,0-.3-.3h-.5c-.4,0-1,.1-1.7.1h-.6a2.44,2.44,0,0,1-.7-.1.75.75,0,0,0-.5.1,3.22,3.22,0,0,0-.4.7l-8,17.1-.2.3-.2.5q-.15.3-.3.3c-.1,0-.1-.1-.3-.4l-.9-1.8-7.1-15.3-.2-.4c-.3-.7-.7-1.1-1.2-1.1a1.27,1.27,0,0,0-.6.1h-3.6c-.3,0-.4.1-.4.4a.46.46,0,0,0,.5.4,3.7,3.7,0,0,1,2.7,1.8,10.34,10.34,0,0,1,.8,4.5c0,.9-.1,3.2-.3,6.8l-.2,4.9a8.61,8.61,0,0,1-.6,3,2.45,2.45,0,0,1-1.7,1.2c-.3.1-.4.2-.4.4a.46.46,0,0,0,.5.4,1.09,1.09,0,0,0,.5-.1,19.42,19.42,0,0,1,2.4-.2c.7,0,1.7.1,2.9.2h.6c.3,0,.5-.1.5-.4s-.3-.4-1-.5q-2.1-.3-2.1-3.3a41.43,41.43,0,0,1,.1-4.2l.4-8.4,6.4,13.8.3.7c.3.5.4.8.5.9.2.6.5.8.8.8s.5-.3.7-.8a1.63,1.63,0,0,0,.3-.6,12.94,12.94,0,0,0,.9-2c.9-1.9,1.3-3,1.4-3.2l1.7-3.6,1.5-3.2c.3-.7,1-1.8,1.9-3.5l.4,10.8.1,2.8a5.15,5.15,0,0,1-.3,2.1,2.18,2.18,0,0,1-1.3.9c-.3.1-.4.2-.4.4s.2.3.5.3.9,0,2-.1a12.28,12.28,0,0,1,1.7-.1,6.15,6.15,0,0,1,1.4.1l1.3.1h.4q.6,0,.6-.3C277,83,276.7,82.77,276.1,82.67Z"/><path class="a" d="M279.8,60.57a2.56,2.56,0,0,1,2.1.8,6.62,6.62,0,0,1,.5,3.3v15.5q0,2.1-1.2,2.4l-.6.2c-.3.1-.4.2-.4.4a.46.46,0,0,0,.5.4,3.45,3.45,0,0,0,.9-.1,35.88,35.88,0,0,1,4.2-.2q2.1,0,5.4.3c.6,0,1,.1,1.3.1a4.78,4.78,0,0,0,3.8-1.8,4.55,4.55,0,0,0,1.2-2.6c0-.3-.1-.5-.3-.4a.54.54,0,0,0-.4.3c-1.3,2-4.1,3-8.6,3-1.4,0-2.3-.1-2.6-.4s-.5-.8-.5-1.8v-6.9a.78.78,0,0,1,.3-.7,2.68,2.68,0,0,1,1.1-.2h3.8a3.69,3.69,0,0,1,2.1.4,2.19,2.19,0,0,1,.8,1.5l.1.5a.43.43,0,0,0,.4.4c.2,0,.3-.1.3-.4v-.5a14.77,14.77,0,0,1-.1-2.1c0-.9.1-1.9.2-3v-.4a.46.46,0,0,0-.3-.5.37.37,0,0,0-.4.4,2.73,2.73,0,0,1-.5,1.4,2.25,2.25,0,0,1-1.2.5,19.1,19.1,0,0,1-2.8.2h-2.6a1.44,1.44,0,0,1-.9-.2c-.1-.1-.1-.4-.1-.9v-6.9a1.74,1.74,0,0,1,.3-1.2,2.21,2.21,0,0,1,1.4-.3h2.7a13.74,13.74,0,0,1,3.6.3,1.74,1.74,0,0,1,1.3,1,3.55,3.55,0,0,1,.2,1v.4c0,.4.1.5.3.5s.3-.1.4-.3a7.08,7.08,0,0,0,.2-1.2l.1-1a9.51,9.51,0,0,0,.1-1.4c0-.2.1-.3.1-.4,0-.3-.2-.5-.6-.5a2.25,2.25,0,0,0-.7.1,7.5,7.5,0,0,0-1.2.1l-2.4.1c-1.1,0-2.3.1-3.7.1a50.29,50.29,0,0,1-5.9-.3,5.39,5.39,0,0,0-1.1-.1c-.5,0-.8.2-.8.5C279.3,60.47,279.4,60.57,279.8,60.57Z"/><path class="a" d="M302.1,83.27h.8l1.7.1a11.93,11.93,0,0,1,1.5.1h.5c.2,0,.4-.1.4-.3s-.2-.4-.6-.4a3.11,3.11,0,0,1-1.8-.6,2.67,2.67,0,0,1-.6-1.6l-.1-1.2V67.07c0-.5.1-.8.3-.8s.2,0,.2.1l.2.2L318.9,83l.4.4c.1.1.2.1.4.2s.4-.1.5-.4a11.66,11.66,0,0,0,.1-2.3V63.68a5.39,5.39,0,0,1,.3-2.2,2.15,2.15,0,0,1,1.4-.9c.2-.1.4-.2.3-.3a.46.46,0,0,0-.5-.4,2.49,2.49,0,0,0-.8.1,8.12,8.12,0,0,1-1.7.1,26.35,26.35,0,0,1-3.1-.1h-.7c-.3,0-.5.1-.5.3a.46.46,0,0,0,.5.4,4.59,4.59,0,0,1,2.4.9,3.43,3.43,0,0,1,.8,2.1l.2,3.9v10.7c0,.2-.1.3-.2.3s-.2-.1-.5-.4l-15.7-17.7a1.38,1.38,0,0,0-.9-.5h-3c-.2,0-.4.1-.4.3s.2.3.5.4a3.56,3.56,0,0,1,2.7,1.9,9.89,9.89,0,0,1,.9,4.6v11.6a6.16,6.16,0,0,1-.5,2.7,3.09,3.09,0,0,1-1.9,1.3c-.3.1-.5.2-.5.4s.2.3.5.3a1.76,1.76,0,0,0,.6-.1A9.73,9.73,0,0,1,302.1,83.27Z"/><path class="a" d="M334.9,83.37a11.05,11.05,0,0,0,1.6.1,12.32,12.32,0,0,0,6.8-2,9.9,9.9,0,0,0,3.9-4.2,13.15,13.15,0,0,0,1.4-5.9,11.23,11.23,0,0,0-3.2-8.2c-2.3-2.3-5.8-3.5-10.5-3.5a14.79,14.79,0,0,0-2.2.1l-1.6.2a19.41,19.41,0,0,1-2.7.1h-1.2l-1.3-.1c-.3,0-.4.1-.4.3s.2.3.6.3a2.64,2.64,0,0,1,1.9.9,4.18,4.18,0,0,1,.6,2.5v15.5a6.51,6.51,0,0,1-.3,2.5,2.15,2.15,0,0,1-1.5.9c-.3.1-.5.2-.5.4s.2.4.6.4a4.14,4.14,0,0,0,1-.1,28.8,28.8,0,0,1,3.2-.2A23.85,23.85,0,0,1,334.9,83.37Zm-3.7-20.6c0-.7.1-1.2.4-1.4.5-.4,1.6-.6,3.4-.6a10.34,10.34,0,0,1,6.4,1.9,10.21,10.21,0,0,1,3.4,4.2,14.48,14.48,0,0,1,1.2,5.9c0,3.9-1.3,6.7-3.9,8.3a9.55,9.55,0,0,1-5.2,1.5,12.91,12.91,0,0,1-2.4-.3c-.9-.2-1.7-.4-2.3-.6a1.38,1.38,0,0,1-1-1.4V62.77Z"/><path class="a" d="M353.4,83.47h.6c.3,0,.5-.1.5-.3s-.2-.3-.5-.4a5.35,5.35,0,0,1-1.6-.6c-.3-.2-.4-.6-.4-1.2a7.92,7.92,0,0,1,.8-2.6l1.1-2.5a3.87,3.87,0,0,1,.8-1.4,4.23,4.23,0,0,1,1.6-.2h6.2a3.45,3.45,0,0,1,1.2.1,7.37,7.37,0,0,1,.6,1.1l.9,2.3a12.29,12.29,0,0,1,1,3.6,1.11,1.11,0,0,1-.9,1.2l-.5.1c-.3.1-.4.2-.4.3s.1.3.4.3a1.09,1.09,0,0,0,.5-.1,19.58,19.58,0,0,1,3-.1,22.88,22.88,0,0,1,3.1.1h.6c.3,0,.5-.1.5-.3s-.2-.3-.5-.4a4.28,4.28,0,0,1-2.1-.8,6.59,6.59,0,0,1-1.3-2.6l-.4-.9-7.3-18.7c-.1-.3-.3-.5-.5-.5s-.3.2-.5.5l-8.7,19.4-.5,1.1a6.53,6.53,0,0,1-1,1.5c-.4.5-.7.8-.9.8l-.6.2c-.2.1-.3.2-.3.4s.2.3.5.3a5.81,5.81,0,0,0,1-.1h2.7Zm2.4-11.8,3.3-7.4q.15-.3.3-.3c.2,0,.3.2.4.6l.1.4,2.7,6.7.1.3a.76.76,0,0,1,.1.4c0,.3-.3.4-.9.4h-5.6c-.5,0-.8-.1-.8-.4A3.63,3.63,0,0,1,355.8,71.67Z"/><path class="a" d="M391,83.27h3.9a11.45,11.45,0,0,0,1.5.1c.6,0,.8-.2.8-.6s-.2-.4-.7-.4a9.91,9.91,0,0,1-1.9-.3c-1.2-.3-1.9-1.4-2-3.2l-.1-1.9V55.27a2.06,2.06,0,0,1,.3-1.3,1.74,1.74,0,0,1,1.2-.3,9.49,9.49,0,0,1,6.5,2.2,7.32,7.32,0,0,1,2.6,5.7,6.18,6.18,0,0,1-1.9,4.8,7.31,7.31,0,0,1-5.2,1.8,6.52,6.52,0,0,1-1.7-.2c-.2,0-.3-.1-.4-.1-.3,0-.4.1-.4.3s.4.5,1.1.7a10.9,10.9,0,0,0,2.6.3,9.52,9.52,0,0,0,5.7-1.9,8.08,8.08,0,0,0,3.6-7,7.25,7.25,0,0,0-2.9-5.9,12.37,12.37,0,0,0-7.7-2.3,20.16,20.16,0,0,0-2.3.1,35.71,35.71,0,0,1-4.2.2c-.6,0-1.4-.1-2.3-.2a5.74,5.74,0,0,0-1.2-.1c-.6,0-.9.2-.9.5s.2.4.6.5c1.5.2,2.4.7,2.8,1.5s.6,2.8.6,6v13.7a21.74,21.74,0,0,1-.6,6.2,2.93,2.93,0,0,1-2.4,2c-.5.1-.7.2-.7.5s.2.4.6.4a7.18,7.18,0,0,0,1.3-.1,10.94,10.94,0,0,1,2-.1Z"/><path class="a" d="M422.9,74.57a7.37,7.37,0,0,1,.6,1.1l.9,2.3a12.29,12.29,0,0,1,1,3.6,1.11,1.11,0,0,1-.9,1.2l-.5.1c-.3.1-.4.2-.4.3s.1.3.4.3a1.09,1.09,0,0,0,.5-.1,19.58,19.58,0,0,1,3-.1,22.88,22.88,0,0,1,3.1.1h.6c.3,0,.5-.1.5-.3s-.2-.3-.5-.4a4.28,4.28,0,0,1-2.1-.8,6.59,6.59,0,0,1-1.3-2.6l-.4-.9-7.3-18.7c-.1-.3-.3-.5-.5-.5s-.3.2-.5.5l-8.7,19.4-.5,1.1a6.53,6.53,0,0,1-1,1.5c-.4.5-.7.8-.9.8l-.6.2c-.2.1-.3.2-.3.4s.2.3.5.3a5.81,5.81,0,0,0,1-.1h2.7l1.6.1h.6c.3,0,.5-.1.5-.3s-.2-.3-.5-.4a5.35,5.35,0,0,1-1.6-.6c-.3-.2-.4-.6-.4-1.2a7.92,7.92,0,0,1,.8-2.6l1.1-2.5a3.87,3.87,0,0,1,.8-1.4,4.23,4.23,0,0,1,1.6-.2H422A6.31,6.31,0,0,0,422.9,74.57Zm-6.8-1.8h-.5c-.5,0-.8-.1-.8-.4a3.93,3.93,0,0,1,.2-.6l3.3-7.4q.15-.3.3-.3c.2,0,.3.2.4.6l.1.4,2.7,6.7.1.3a.76.76,0,0,1,.1.4c0,.3-.3.4-.9.4h-5Z"/><path class="a" d="M422.8,57.47c.2,0,.6-.3,1-.8a2.2,2.2,0,0,0,.6-1.2c0-.3-.2-.6-.6-1.1s-.7-.7-1-.7a1.62,1.62,0,0,0-1,.7,2.38,2.38,0,0,0-.6,1.1,1.91,1.91,0,0,0,.7,1.2C422.2,57.27,422.5,57.47,422.8,57.47Z"/><path class="a" d="M416.5,57.47c.2,0,.6-.3,1-.8a2.2,2.2,0,0,0,.6-1.2,1.74,1.74,0,0,0-.6-1.1c-.4-.5-.7-.7-.9-.7a1.62,1.62,0,0,0-1,.7,2.38,2.38,0,0,0-.6,1.1,2,2,0,0,0,.7,1.1C416,57.27,416.3,57.47,416.5,57.47Z"/><path class="a" d="M432.8,60.57a2.56,2.56,0,0,1,2.1.8,6.62,6.62,0,0,1,.5,3.3v15.5q0,2.1-1.2,2.4l-.6.2c-.3.1-.4.2-.4.4a.46.46,0,0,0,.5.4,3.45,3.45,0,0,0,.9-.1,35.88,35.88,0,0,1,4.2-.2q2.1,0,5.4.3c.6,0,1,.1,1.3.1a4.78,4.78,0,0,0,3.8-1.8,4.55,4.55,0,0,0,1.2-2.6c0-.3-.1-.5-.3-.4a.54.54,0,0,0-.4.3c-1.3,2-4.1,3-8.6,3-1.4,0-2.3-.1-2.6-.4s-.5-.8-.5-1.8v-6.9a.78.78,0,0,1,.3-.7,2.68,2.68,0,0,1,1.1-.2h3.8a3.69,3.69,0,0,1,2.1.4,2.19,2.19,0,0,1,.8,1.5l.1.5a.43.43,0,0,0,.4.4c.2,0,.3-.1.3-.4v-.5a14.77,14.77,0,0,1-.1-2.1c0-.9.1-1.9.2-3v-.4a.46.46,0,0,0-.3-.5.37.37,0,0,0-.4.4,2.73,2.73,0,0,1-.5,1.4,2.25,2.25,0,0,1-1.2.5,19.1,19.1,0,0,1-2.8.2h-2.6a1.44,1.44,0,0,1-.9-.2c-.1-.1-.1-.4-.1-.9v-6.9a1.74,1.74,0,0,1,.3-1.2,2.21,2.21,0,0,1,1.4-.3h2.7a13.74,13.74,0,0,1,3.6.3,1.74,1.74,0,0,1,1.3,1,3.55,3.55,0,0,1,.2,1v.4c0,.4.1.5.3.5s.3-.1.4-.3a7.08,7.08,0,0,0,.2-1.2l.1-1a9.51,9.51,0,0,0,.1-1.4c0-.2.1-.3.1-.4,0-.3-.2-.5-.6-.5a2.25,2.25,0,0,0-.7.1,7.5,7.5,0,0,0-1.2.1l-2.4.1c-1.1,0-2.3.1-3.7.1a50.29,50.29,0,0,1-5.9-.3,5.39,5.39,0,0,0-1.1-.1c-.5,0-.8.2-.8.5C432.3,60.47,432.4,60.57,432.8,60.57Z"/><path class="a" d="M450.8,60.57a4.07,4.07,0,0,0,1,.2,1.86,1.86,0,0,1,1.3.7,9.56,9.56,0,0,1,1.1,1.9l8.6,20c.2.6.5.9.7.9s.5-.3.7-.8l8.5-19.8.5-1.1a3.16,3.16,0,0,1,1.9-2c.2-.1.4-.2.4-.4a.27.27,0,0,0-.3-.3h-3.4a11.45,11.45,0,0,1-1.5-.1h-.5q-.6,0-.6.3c0,.2.3.3.9.5s.9.2,1,.4a1,1,0,0,1,.3.8c0,1.1-.8,3.5-2.4,7.3L465.3,78l-.3.6c-.3.6-.5,1-.6,1s-.3-.2-.4-.5l-6.5-15a6.43,6.43,0,0,1-.7-2.4.85.85,0,0,1,.2-.6,1.87,1.87,0,0,1,.9-.4c.2-.1.3-.2.3-.4s-.2-.3-.5-.3h-.5c-.5,0-.9.1-1.1.1h-4.9c-.3,0-.5.1-.5.3A.31.31,0,0,0,450.8,60.57Z"/><path class="a" d="M478.1,83.17c0-.2-.2-.3-.5-.4a5.35,5.35,0,0,1-1.6-.6c-.3-.2-.4-.6-.4-1.2a7.92,7.92,0,0,1,.8-2.6l1.1-2.5a3.87,3.87,0,0,1,.8-1.4,4.23,4.23,0,0,1,1.6-.2h6.2a3.45,3.45,0,0,1,1.2.1,7.37,7.37,0,0,1,.6,1.1l.9,2.3a12.29,12.29,0,0,1,1,3.6,1.11,1.11,0,0,1-.9,1.2l-.5.1c-.3.1-.4.2-.4.3s.1.3.4.3a1.09,1.09,0,0,0,.5-.1,19.58,19.58,0,0,1,3-.1,22.88,22.88,0,0,1,3.1.1h.6c.3,0,.5-.1.5-.3s-.2-.3-.5-.4a4.28,4.28,0,0,1-2.1-.8,6.59,6.59,0,0,1-1.3-2.6l-.4-.9-7.3-18.7c-.1-.3-.3-.5-.5-.5s-.3.2-.5.5l-8.7,19.4-.5,1.1a6.53,6.53,0,0,1-1,1.5c-.4.5-.7.8-.9.8l-.6.2c-.2.1-.3.2-.3.4s.2.3.5.3a5.81,5.81,0,0,0,1-.1h2.7l1.6.1h.6C477.9,83.47,478.1,83.37,478.1,83.17Zm1.3-11.5,3.3-7.4q.15-.3.3-.3c.2,0,.3.2.4.6l.1.4,2.7,6.7.1.3a.76.76,0,0,1,.1.4c0,.3-.3.4-.9.4h-5.6c-.5,0-.8-.1-.8-.4A1.33,1.33,0,0,1,479.4,71.67Z"/><path class="a" d="M184,119.77a5.33,5.33,0,0,1-2.8-1.1,9.72,9.72,0,0,1-1.8-3.4l-.5-1.2-9.7-24.9c-.2-.4-.4-.7-.6-.7s-.5.2-.7.7l-11.5,25.9-.7,1.5a8.58,8.58,0,0,1-1.3,2,3.64,3.64,0,0,1-1.2,1.1l-.8.2c-.3.1-.4.2-.4.5s.2.4.6.4a10.3,10.3,0,0,0,1.3-.1h1a19.29,19.29,0,0,1,2.5.1l2.2.1h.8c.4,0,.6-.1.6-.4s-.2-.4-.7-.5a5.38,5.38,0,0,1-2.1-.8,1.72,1.72,0,0,1-.5-1.5,9.09,9.09,0,0,1,1-3.4l1.5-3.3a5.6,5.6,0,0,1,1.1-1.8,4.54,4.54,0,0,1,2.1-.3h8.2a3.57,3.57,0,0,1,1.5.2c.2.1.4.6.7,1.4l1.1,3a18.68,18.68,0,0,1,1.4,4.8c0,.9-.4,1.4-1.1,1.5l-.7.2c-.4.1-.6.2-.6.5s.2.5.6.5a2,2,0,0,0,.7-.1,32.63,32.63,0,0,1,3.9-.1c2,0,3.4,0,4.2.1h.9c.4,0,.6-.1.6-.4A.86.86,0,0,0,184,119.77Zm-13.2-13.1h-7.4c-.7,0-1-.2-1-.6a2.71,2.71,0,0,1,.3-.8l4.4-9.8c.1-.3.3-.4.4-.4s.4.3.6.7l.2.5,3.5,8.9.1.4a1.09,1.09,0,0,1,.1.5Q172,106.67,170.8,106.67Z"/><path class="a" d="M194.6,97a14.79,14.79,0,0,0-2.2.1l-1.6.2a19.41,19.41,0,0,1-2.7.1h-1.2l-1.3-.1c-.3,0-.4.1-.4.3s.2.3.6.3a2.64,2.64,0,0,1,1.9.9,4.18,4.18,0,0,1,.6,2.5v15.3a6.51,6.51,0,0,1-.3,2.5,2.15,2.15,0,0,1-1.5.9c-.3.1-.5.2-.5.4s.2.4.6.4a4.14,4.14,0,0,0,1-.1,28.8,28.8,0,0,1,3.2-.2c1.1,0,2.4.1,4,.2a11.05,11.05,0,0,0,1.6.1,12.32,12.32,0,0,0,6.8-2,9.9,9.9,0,0,0,3.9-4.2,13.15,13.15,0,0,0,1.4-5.9,11.23,11.23,0,0,0-3.2-8.2C202.8,98.17,199.3,97,194.6,97Zm7.2,21.4a9.55,9.55,0,0,1-5.2,1.5,12.91,12.91,0,0,1-2.4-.3c-.9-.2-1.7-.4-2.3-.6a1.38,1.38,0,0,1-1-1.4v-17.5c0-.7.1-1.2.4-1.4.5-.4,1.6-.6,3.4-.6a10.34,10.34,0,0,1,6.4,1.9,10.21,10.21,0,0,1,3.4,4.2,14.48,14.48,0,0,1,1.2,5.9C205.7,114,204.4,116.77,201.8,118.37Z"/><path class="a" d="M231.9,97.17h-3.4a11.45,11.45,0,0,1-1.5-.1h-.5q-.6,0-.6.3c0,.2.3.3.9.5s.9.2,1,.4a1,1,0,0,1,.3.8c0,1.1-.8,3.5-2.4,7.3l-3.7,8.9-.3.6c-.3.6-.5,1-.6,1s-.3-.2-.4-.5l-6.5-15a6.43,6.43,0,0,1-.7-2.4.85.85,0,0,1,.2-.6,1.87,1.87,0,0,1,.9-.4c.2-.1.3-.2.3-.4s-.2-.3-.5-.3h-.5c-.5,0-.9.1-1.1.1h-4.9c-.3,0-.5.1-.5.3s.1.2.2.3a4.07,4.07,0,0,0,1,.2,1.86,1.86,0,0,1,1.3.7,9.56,9.56,0,0,1,1.1,1.9l8.6,20c.2.6.5.9.7.9s.5-.3.7-.8l8.5-19.8.5-1.1a3.16,3.16,0,0,1,1.9-2c.2-.1.4-.2.4-.4S232.2,97.17,231.9,97.17Z"/><path class="a" d="M250.7,116a.54.54,0,0,0-.4.3c-1.3,2-4.1,3-8.6,3-1.4,0-2.3-.1-2.6-.4s-.5-.8-.5-1.8v-6.9a.78.78,0,0,1,.3-.7,2.68,2.68,0,0,1,1.1-.2h3.8a3.69,3.69,0,0,1,2.1.4,2.19,2.19,0,0,1,.8,1.5l.1.5a.43.43,0,0,0,.4.4c.2,0,.3-.1.3-.4v-.5a14.77,14.77,0,0,1-.1-2.1c0-.9.1-1.9.2-3v-.4a.46.46,0,0,0-.3-.5.37.37,0,0,0-.4.4,2.73,2.73,0,0,1-.5,1.4,2.25,2.25,0,0,1-1.2.5,19.1,19.1,0,0,1-2.8.2h-2.6a1.44,1.44,0,0,1-.9-.2c-.1-.1-.1-.4-.1-.9v-6.9a1.74,1.74,0,0,1,.3-1.2,2.21,2.21,0,0,1,1.4-.3h2.7a13.74,13.74,0,0,1,3.6.3,1.74,1.74,0,0,1,1.3,1,3.55,3.55,0,0,1,.2,1v.4c0,.4.1.5.3.5s.3-.1.4-.3a7.08,7.08,0,0,0,.2-1.2l.1-1a9.51,9.51,0,0,0,.1-1.4c0-.2.1-.3.1-.4,0-.3-.2-.5-.6-.5a2.25,2.25,0,0,0-.7.1,7.5,7.5,0,0,0-1.2.1l-2.4.1c-1.1,0-2.3.1-3.7.1a50.29,50.29,0,0,1-5.9-.3,5.39,5.39,0,0,0-1.1-.1c-.5,0-.8.2-.8.5s.2.3.5.3a2.56,2.56,0,0,1,2.1.8,6.62,6.62,0,0,1,.5,3.3V117q0,2.1-1.2,2.4l-.6.2c-.3.1-.4.2-.4.4a.46.46,0,0,0,.5.4,3.45,3.45,0,0,0,.9-.1,35.88,35.88,0,0,1,4.2-.2q2.1,0,5.4.3c.6,0,1,.1,1.3.1a4.78,4.78,0,0,0,3.8-1.8,4.55,4.55,0,0,0,1.2-2.6C251,116.07,250.9,116,250.7,116Z"/><path class="a" d="M275.6,97.07a2.49,2.49,0,0,0-.8.1,8.12,8.12,0,0,1-1.7.1,26.35,26.35,0,0,1-3.1-.1h-.7c-.3,0-.5.1-.5.3a.46.46,0,0,0,.5.4,4.59,4.59,0,0,1,2.4.9,3.43,3.43,0,0,1,.8,2.1l.2,3.9v10.7c0,.2-.1.3-.2.3s-.2-.1-.5-.4l-15.6-17.7a1.38,1.38,0,0,0-.9-.5h-3c-.2,0-.4.1-.4.3s.2.3.5.4a3.56,3.56,0,0,1,2.7,1.9,9.89,9.89,0,0,1,.9,4.6V116a6.16,6.16,0,0,1-.5,2.7,3.09,3.09,0,0,1-1.9,1.3c-.3.1-.5.2-.5.4s.2.3.5.3a1.76,1.76,0,0,0,.6-.1,5.28,5.28,0,0,1,1.3-.1h.8l1.7.1a11.93,11.93,0,0,1,1.5.1h.5c.2,0,.4-.1.4-.3s-.2-.4-.6-.4a3.11,3.11,0,0,1-1.8-.6,2.62,2.62,0,0,1-.6-1.5l-.1-1.2v-12.3c0-.5.1-.8.3-.8s.2,0,.2.1l.2.2,14.3,16.4.4.4c.1.1.2.1.4.2s.4-.1.5-.4a11.66,11.66,0,0,0,.1-2.3V101a5.39,5.39,0,0,1,.3-2.2,2.15,2.15,0,0,1,1.4-.9c.2-.1.4-.2.3-.3C276.1,97.27,275.9,97.07,275.6,97.07Z"/><path class="a" d="M298.8,98.77a2.23,2.23,0,0,0-.2-1.2,2,2,0,0,0-1.1-.2H279.2a1.55,1.55,0,0,0-.8.2,2.15,2.15,0,0,0-.2,1,8.79,8.79,0,0,1-.3,2c-.1.6-.2,1.1-.2,1.3a.46.46,0,0,0,.3.5c.2,0,.4-.2.5-.6a3.45,3.45,0,0,1,1-2.1,2.81,2.81,0,0,1,2-.6H286a.8.8,0,0,1,1,1v17.3a3.22,3.22,0,0,1-.5,2,2.52,2.52,0,0,1-1.8.7c-.4,0-.6.2-.6.3a.46.46,0,0,0,.5.4,6.61,6.61,0,0,0,1.1-.1c.3,0,.7-.1,1.2-.1h2.5a5,5,0,0,1,1.5.1,3.22,3.22,0,0,0,.8.1c.3,0,.5-.1.5-.4s-.2-.3-.6-.4a2.26,2.26,0,0,1-2.2-2.4v-17.4a1.85,1.85,0,0,1,.2-1,1.44,1.44,0,0,1,.9-.2h4.8c1,0,1.6.1,1.9.4a2.39,2.39,0,0,1,.7,1.6c.1.4.2.5.4.5a.46.46,0,0,0,.4-.5,2.81,2.81,0,0,0-.1-.8A2.77,2.77,0,0,0,298.8,98.77Z"/><path class="a" d="M308.7,120a5,5,0,0,1-1.6-.5,2.28,2.28,0,0,1-.8-1.2,10.75,10.75,0,0,1-.3-3.2v-12.8c0-2.4.4-3.8,1.3-4.1l.9-.3c.3-.1.4-.2.4-.4s-.2-.3-.5-.3h-.4l-1.1.1c-.6,0-1.3.1-2.2.1a26.3,26.3,0,0,1-3.3-.2h-.3c-.3,0-.5.1-.5.4s.2.3.5.4a3.18,3.18,0,0,1,2.1,1,5.75,5.75,0,0,1,.5,2.8v14.6a5.79,5.79,0,0,1-.4,2.8c-.2.4-.8.7-1.7.9-.4.1-.5.2-.5.4s.2.3.5.3a2.49,2.49,0,0,0,.8-.1l2-.1h2.5a7.67,7.67,0,0,1,1.8.1,3.54,3.54,0,0,1,.6.1c.4,0,.5-.1.5-.4S309.2,120,308.7,120Z"/><path class="a" d="M320.1,107a33.64,33.64,0,0,1-4.1-1.5,4.54,4.54,0,0,1-1.5-1.3,4.15,4.15,0,0,1-.8-2.5,3.42,3.42,0,0,1,1.2-2.7,4.5,4.5,0,0,1,3.1-1.1,7.87,7.87,0,0,1,4.2,1.2,6,6,0,0,1,2.5,3c.2.5.4.8.6.8a.46.46,0,0,0,.4-.5,2.64,2.64,0,0,0-.1-.7l-.3-1.8c-.1-1-.2-1.5-.2-1.7,0-.6-.1-.8-.4-.8-.1,0-.2,0-.2.1l-.2.2a.76.76,0,0,1-.4.2.37.37,0,0,1-.3-.1l-1.2-.5a7.21,7.21,0,0,0-3.1-.5,8.21,8.21,0,0,0-5.3,1.7,5.68,5.68,0,0,0-2.1,4.5,5.2,5.2,0,0,0,1.6,4,13.5,13.5,0,0,0,5.3,2.8c2.4.8,3.9,1.4,4.4,1.9a4.07,4.07,0,0,1,1.5,3.2,4.4,4.4,0,0,1-1.6,3.4,6.09,6.09,0,0,1-4,1.4,7.6,7.6,0,0,1-4.3-1.4,6.62,6.62,0,0,1-2.6-3.6c-.2-.5-.3-.8-.6-.8s-.3.2-.3.5a8.5,8.5,0,0,0,.4,2.2,11,11,0,0,1,.4,1.5,5,5,0,0,0,.3,1.2.78.78,0,0,0,.4.4,11,11,0,0,0,2.3.9,15.5,15.5,0,0,0,2.9.4,8.77,8.77,0,0,0,5.9-2,6.67,6.67,0,0,0,2.3-5.2C326.4,110.67,324.3,108.37,320.1,107Z"/><path class="a" d="M349.2,98.77a2.23,2.23,0,0,0-.2-1.2,2,2,0,0,0-1.1-.2H329.6a1.55,1.55,0,0,0-.8.2,2.15,2.15,0,0,0-.2,1,8.79,8.79,0,0,1-.3,2c-.1.6-.2,1.1-.2,1.3a.46.46,0,0,0,.3.5c.2,0,.4-.2.5-.6a3.45,3.45,0,0,1,1-2.1,2.81,2.81,0,0,1,2-.6h4.5a.8.8,0,0,1,1,1v17.3a3.22,3.22,0,0,1-.5,2,2.52,2.52,0,0,1-1.8.7c-.4,0-.6.2-.6.3a.46.46,0,0,0,.5.4,6.61,6.61,0,0,0,1.1-.1c.3,0,.7-.1,1.2-.1h2.5a5,5,0,0,1,1.5.1,3.22,3.22,0,0,0,.8.1c.3,0,.5-.1.5-.4s-.2-.3-.6-.4a2.26,2.26,0,0,1-2.2-2.4v-17.4a1.85,1.85,0,0,1,.2-1,1.44,1.44,0,0,1,.9-.2h4.8c1,0,1.6.1,1.9.4a2.39,2.39,0,0,1,.7,1.6c.1.4.2.5.4.5a.46.46,0,0,0,.4-.5,2.81,2.81,0,0,0-.1-.8A2.77,2.77,0,0,0,349.2,98.77Z"/><path class="a" d="M359,120a5,5,0,0,1-1.6-.5,2.28,2.28,0,0,1-.8-1.2,10.75,10.75,0,0,1-.3-3.2v-12.8c0-2.4.4-3.8,1.3-4.1l.9-.3c.3-.1.4-.2.4-.4s-.2-.3-.5-.3H358l-1.1.1c-.6,0-1.3.1-2.2.1a26.3,26.3,0,0,1-3.3-.2h-.3c-.3,0-.5.1-.5.4s.2.3.5.4a3.18,3.18,0,0,1,2.1,1,5.75,5.75,0,0,1,.5,2.8v14.6a5.79,5.79,0,0,1-.4,2.8c-.2.4-.8.7-1.7.9-.4.1-.5.2-.5.4s.2.3.5.3a2.49,2.49,0,0,0,.8-.1l2-.1h2.5a7.67,7.67,0,0,1,1.8.1,3.54,3.54,0,0,1,.6.1c.4,0,.5-.1.5-.4S359.6,120,359,120Z"/><path class="a" d="M371.6,97a14.79,14.79,0,0,0-2.2.1l-1.6.2a19.41,19.41,0,0,1-2.7.1h-1.2l-1.3-.1c-.3,0-.4.1-.4.3s.2.3.6.3a2.64,2.64,0,0,1,1.9.9,4.18,4.18,0,0,1,.6,2.5v15.3a6.51,6.51,0,0,1-.3,2.5,2.15,2.15,0,0,1-1.5.9c-.3.1-.5.2-.5.4s.2.4.6.4a4.14,4.14,0,0,0,1-.1,28.8,28.8,0,0,1,3.2-.2c1.1,0,2.4.1,4,.2a11.05,11.05,0,0,0,1.6.1,12.32,12.32,0,0,0,6.8-2,9.9,9.9,0,0,0,3.9-4.2,13.15,13.15,0,0,0,1.4-5.9,11.23,11.23,0,0,0-3.2-8.2C379.7,98.17,376.2,97,371.6,97Zm7.1,21.4a9.55,9.55,0,0,1-5.2,1.5,12.91,12.91,0,0,1-2.4-.3c-.9-.2-1.7-.4-2.3-.6a1.38,1.38,0,0,1-1-1.4v-17.5c0-.7.1-1.2.4-1.4.5-.4,1.6-.6,3.4-.6A10.34,10.34,0,0,1,378,100a10.21,10.21,0,0,1,3.4,4.2,14.48,14.48,0,0,1,1.2,5.9C382.6,114,381.3,116.77,378.7,118.37Z"/><path class="a" d="M405.7,116a.54.54,0,0,0-.4.3c-1.3,2-4.1,3-8.6,3-1.4,0-2.3-.1-2.6-.4s-.5-.8-.5-1.8v-6.9a.78.78,0,0,1,.3-.7,2.68,2.68,0,0,1,1.1-.2h3.8a3.69,3.69,0,0,1,2.1.4,2.19,2.19,0,0,1,.8,1.5l.1.5a.43.43,0,0,0,.4.4c.2,0,.3-.1.3-.4v-.5a14.77,14.77,0,0,1-.1-2.1c0-.9.1-1.9.2-3v-.4a.46.46,0,0,0-.3-.5.37.37,0,0,0-.4.4,2.73,2.73,0,0,1-.5,1.4,2.25,2.25,0,0,1-1.2.5,19.1,19.1,0,0,1-2.8.2h-2.6a1.44,1.44,0,0,1-.9-.2c-.1-.1-.1-.4-.1-.9v-6.9a1.74,1.74,0,0,1,.3-1.2,2.21,2.21,0,0,1,1.4-.3h2.7a13.74,13.74,0,0,1,3.6.3,1.74,1.74,0,0,1,1.3,1,3.55,3.55,0,0,1,.2,1v.4c0,.4.1.5.3.5s.3-.1.4-.3a7.08,7.08,0,0,0,.2-1.2l.1-1a9.51,9.51,0,0,0,.1-1.4c0-.2.1-.3.1-.4,0-.3-.2-.5-.6-.5a2.25,2.25,0,0,0-.7.1,7.5,7.5,0,0,0-1.2.1l-2.4.1c-1.1,0-2.3.1-3.7.1a50.29,50.29,0,0,1-5.9-.3,5.39,5.39,0,0,0-1.1-.1c-.5,0-.8.2-.8.5s.2.3.5.3a2.56,2.56,0,0,1,2.1.8,6.62,6.62,0,0,1,.5,3.3V117q0,2.1-1.2,2.4l-.6.2c-.3.1-.4.2-.4.4a.46.46,0,0,0,.5.4,3.45,3.45,0,0,0,.9-.1,35.88,35.88,0,0,1,4.2-.2q2.1,0,5.4.3c.6,0,1,.1,1.3.1a4.78,4.78,0,0,0,3.8-1.8,4.55,4.55,0,0,0,1.2-2.6C406,116.07,405.9,116,405.7,116Z"/><path class="a" d="M448.7,119.87l-1-.2a8,8,0,0,1-4.1-2.4L431.8,105c-.4-.4-.6-.7-.5-.9s.2-.4.5-.7l7.7-7q5.7-5.25,7.8-5.7c.7-.2,1.1-.4,1.1-.6s-.2-.4-.7-.4a2.25,2.25,0,0,0-.7.1c-.3,0-.9.1-1.9.1h-1.7l-2.1-.1a13.43,13.43,0,0,1-2.1-.1h-.6c-.5,0-.7.2-.7.5s.3.5,1,.6c1.1.2,1.6.6,1.6,1.3s-.7,1.9-2.2,3.2l-9.7,8.7-.3.3-.4.2c-.1,0-.2-.2-.2-.5v-8.8a7.34,7.34,0,0,1,.4-3.1,3,3,0,0,1,1.8-1.4c.4-.1.5-.3.5-.5s-.2-.4-.5-.4a6.61,6.61,0,0,0-1.1.1h-3.7a29.25,29.25,0,0,1-3.6-.2,2.49,2.49,0,0,0-.8-.1c-.4,0-.6.2-.6.5s.2.4.6.5l1.1.2a2.67,2.67,0,0,1,2,1.3,8.61,8.61,0,0,1,.5,3.4v19.2a9.52,9.52,0,0,1-.6,4,2.24,2.24,0,0,1-2,1.3c-.4,0-.7.2-.7.4,0,.4.2.5.7.5a11.31,11.31,0,0,0,1.4-.1h4.6a17.9,17.9,0,0,1,2.7.1c.6,0,1,.1,1.2.1.4,0,.6-.1.5-.4s-.2-.4-.7-.5a6.18,6.18,0,0,1-3.2-1.2c-.5-.6-.7-1.7-.7-3.4v-8.3c0-.3.1-.5.4-.5a.76.76,0,0,1,.5.2l.5.5,12.1,12.5.4.4a1.76,1.76,0,0,0,1.3.6h3a8.2,8.2,0,0,1,1.9.1h.5c.5,0,.7-.1.7-.5C449.2,120.07,449,119.87,448.7,119.87Z"/><path class="a" d="M462.4,96.87a12.41,12.41,0,0,0-5,1,11.51,11.51,0,0,0-4.1,2.6,10.77,10.77,0,0,0-2.4,3.9,12.67,12.67,0,0,0-.9,4.7,11.45,11.45,0,0,0,3.4,8.7,12.24,12.24,0,0,0,8.9,3.3,11.9,11.9,0,0,0,8.8-3.5,12.06,12.06,0,0,0,3.4-8.9,11.08,11.08,0,0,0-3.4-8.4A11.76,11.76,0,0,0,462.4,96.87Zm7,20.3a8.43,8.43,0,0,1-6.5,2.9,9.33,9.33,0,0,1-7.3-3.5,13.14,13.14,0,0,1-3-8.7,10.91,10.91,0,0,1,2.3-7.2,7.88,7.88,0,0,1,6.3-2.7,9.89,9.89,0,0,1,7.7,3.4,12,12,0,0,1,3.1,8.5A10.39,10.39,0,0,1,469.4,117.17Z"/><path class="a" d="M500.6,108.27a11.31,11.31,0,0,0-1.4.1h-5.1q-.6,0-.6.3c0,.2.2.4.7.4a3.22,3.22,0,0,1,1.8.5,1.67,1.67,0,0,1,.5,1.4v3.8a4.11,4.11,0,0,1-.5,2.3,7.34,7.34,0,0,1-6.2,2.8,8.52,8.52,0,0,1-6.9-3.3,12.27,12.27,0,0,1-2.8-8.3,11.25,11.25,0,0,1,2.4-7.5,7.88,7.88,0,0,1,6.3-2.9,11.39,11.39,0,0,1,9.9,6.1c.1.2.2.3.4.3s.3-.2.3-.4a1.09,1.09,0,0,0-.1-.5,5.85,5.85,0,0,1-.2-1.3l-.2-1.6a5.74,5.74,0,0,1-.1-1.2c0-.5-.1-.8-.3-.8s-.2,0-.2.1l-.4.3a.5.5,0,0,1-.6,0,10,10,0,0,0-3.6-1.4,16.49,16.49,0,0,0-4.3-.6,11.54,11.54,0,0,0-8.7,3.6,12.46,12.46,0,0,0-3.5,8.9,11.29,11.29,0,0,0,11.7,11.7,13.75,13.75,0,0,0,7.1-1.9l1.1-.7a3,3,0,0,1,1.4-.6,2,2,0,0,0,.5-.1l.1-.3V111a1.7,1.7,0,0,1,1.3-1.9c.3-.1.5-.2.5-.4S500.8,108.27,500.6,108.27Z"/><path class="a" d="M527.3,97.17a2.25,2.25,0,0,0-.7.1c-.3,0-1.1.1-2.3.1a6.62,6.62,0,0,1-1.5-.1,4.91,4.91,0,0,0-1.1-.1.27.27,0,0,0-.3.3c0,.2.2.3.5.4A2.71,2.71,0,0,1,524,99a6,6,0,0,1,.6,3.1v8.8c0,3-.7,5.2-2,6.7s-3.4,2.2-6.1,2.2c-3,0-5.2-.9-6.5-2.7-.9-1.2-1.4-3.3-1.4-6.3v-9.7a6,6,0,0,1,.3-2.3,2.18,2.18,0,0,1,1.3-.9c.4-.1.5-.2.5-.4s-.1-.3-.4-.3a3.87,3.87,0,0,0-.9.1c-.5,0-.8.1-1,.1h-2.6a5.39,5.39,0,0,1-1.1-.1h-1.2c-.4,0-.6.1-.6.4s.2.3.5.3a2.88,2.88,0,0,1,2,.9,4.94,4.94,0,0,1,.5,2.5V111a12.19,12.19,0,0,0,1.2,5.8,6.74,6.74,0,0,0,3.4,3,12.78,12.78,0,0,0,9.9.2,8.17,8.17,0,0,0,3.4-2.5,12.22,12.22,0,0,0,1.9-7.1V102a9.29,9.29,0,0,1,.3-2.9,2.56,2.56,0,0,1,1.3-1.2c.2-.1.4-.2.4-.4S527.5,97.17,527.3,97.17Z"/><path class="a" d="M540,97a14.79,14.79,0,0,0-2.2.1l-1.6.2a19.41,19.41,0,0,1-2.7.1h-1.2l-1.3-.1c-.3,0-.4.1-.4.3s.2.3.6.3a2.64,2.64,0,0,1,1.9.9,4.18,4.18,0,0,1,.6,2.5v15.3a6.51,6.51,0,0,1-.3,2.5,2.15,2.15,0,0,1-1.5.9c-.3.1-.5.2-.5.4s.2.4.6.4a4.14,4.14,0,0,0,1-.1,28.8,28.8,0,0,1,3.2-.2c1.1,0,2.4.1,4,.2a11.05,11.05,0,0,0,1.6.1,12.32,12.32,0,0,0,6.8-2,9.9,9.9,0,0,0,3.9-4.2,13.15,13.15,0,0,0,1.4-5.9,11.23,11.23,0,0,0-3.2-8.2C548.2,98.17,544.7,97,540,97Zm7.2,21.4a9.55,9.55,0,0,1-5.2,1.5,12.91,12.91,0,0,1-2.4-.3c-.9-.2-1.7-.4-2.3-.6a1.38,1.38,0,0,1-1-1.4v-17.5c0-.7.1-1.2.4-1.4.5-.4,1.6-.6,3.4-.6a10.34,10.34,0,0,1,6.4,1.9,10.21,10.21,0,0,1,3.4,4.2,14.48,14.48,0,0,1,1.2,5.9C551.1,114,549.8,116.77,547.2,118.37Z"/><path class="a" d="M580.1,97.17a2.25,2.25,0,0,0-.7.1c-.3,0-1.1.1-2.3.1a6.62,6.62,0,0,1-1.5-.1,4.91,4.91,0,0,0-1.1-.1.27.27,0,0,0-.3.3c0,.2.2.3.5.4a2.71,2.71,0,0,1,2.1,1.1,6,6,0,0,1,.6,3.1v8.8c0,3-.7,5.2-2,6.7s-3.4,2.2-6.1,2.2c-3,0-5.2-.9-6.5-2.7-.9-1.2-1.4-3.3-1.4-6.3v-9.7a6,6,0,0,1,.3-2.3,2.18,2.18,0,0,1,1.3-.9c.4-.1.5-.2.5-.4s-.1-.3-.4-.3a3.87,3.87,0,0,0-.9.1c-.5,0-.8.1-1,.1h-2.6a5.39,5.39,0,0,1-1.1-.1h-1.2c-.4,0-.6.1-.6.4s.2.3.5.3a2.88,2.88,0,0,1,2,.9,4.94,4.94,0,0,1,.5,2.5V111a12.19,12.19,0,0,0,1.2,5.8,6.74,6.74,0,0,0,3.4,3,12.78,12.78,0,0,0,9.9.2,8.17,8.17,0,0,0,3.4-2.5,12.22,12.22,0,0,0,1.9-7.1V102a9.29,9.29,0,0,1,.3-2.9,2.56,2.56,0,0,1,1.3-1.2c.2-.1.4-.2.4-.4S580.4,97.17,580.1,97.17Z"/><path class="a" d="M591.8,107a33.64,33.64,0,0,1-4.1-1.5,4.54,4.54,0,0,1-1.5-1.3,4.15,4.15,0,0,1-.8-2.5,3.42,3.42,0,0,1,1.2-2.7,4.5,4.5,0,0,1,3.1-1.1,7.87,7.87,0,0,1,4.2,1.2,6,6,0,0,1,2.5,3c.2.5.4.8.6.8a.46.46,0,0,0,.4-.5,2.64,2.64,0,0,0-.1-.7l-.3-1.8c-.1-1-.2-1.5-.2-1.7,0-.6-.1-.8-.4-.8-.1,0-.2,0-.2.1l-.2.2a.76.76,0,0,1-.4.2.37.37,0,0,1-.3-.1l-1.2-.5a7.21,7.21,0,0,0-3.1-.5,8.21,8.21,0,0,0-5.3,1.7,5.68,5.68,0,0,0-2.1,4.5,5.2,5.2,0,0,0,1.6,4,13.5,13.5,0,0,0,5.3,2.8c2.4.8,3.9,1.4,4.4,1.9a4.07,4.07,0,0,1,1.5,3.2,4.4,4.4,0,0,1-1.6,3.4,6.09,6.09,0,0,1-4,1.4,7.6,7.6,0,0,1-4.3-1.4,6.62,6.62,0,0,1-2.6-3.6c-.2-.5-.3-.8-.6-.8s-.3.2-.3.5a8.5,8.5,0,0,0,.4,2.2,11,11,0,0,1,.4,1.5,5,5,0,0,0,.3,1.2.78.78,0,0,0,.4.4,11,11,0,0,0,2.3.9,15.5,15.5,0,0,0,2.9.4,8.77,8.77,0,0,0,5.9-2,6.67,6.67,0,0,0,2.3-5.2C598.1,110.67,596,108.37,591.8,107Z"/><path class="a" d="M43.6,93.57l-27.7,4.9L0,120.57l38.3-6.8c11.5-2,21.5-2.4,24.7,6.7v-14.9H55.4v-5.3h7.5v-.5C62.9,94.47,60.5,90.57,43.6,93.57Z"/><path class="a" d="M87.3,93.57l-6.1,6.1c-8.7,8.7-13,13.7-13,20.9,3.3-9.5,13.9-8.7,26.4-6.3l36.8,6.3-16-22.1Z"/><path class="a" d="M81.8,85.57c-3.4,3.4-9.3,8.8-12.1,14.7h6.2l7.1-7.1c6.5-6.5,11.5-11.5,13.7-17.8A23.53,23.53,0,0,0,97.9,64a8.76,8.76,0,0,0-.7-2.6c-.6,7.1-2.6,11.3-12.9,21.6Z"/><path class="a" d="M62.5,42c3.8-3.8,13.3-12.3,13.3-19.8V14c0-.1-.2-.1-.2,0-.7,5.5-2,7.9-15.5,21.4L46.8,48.77c-7.1,7.1-12.8,14.6-12,23,.4,4.7,2,7.3,3,8,.5.4.4.1.3-.2C34,70.37,43.7,60.77,48.5,56Z"/><path class="a" d="M75.9,28.07c0-.1-.2-.1-.2,0-.7,5.5-2,7.9-15.5,21.4L47.8,61.87c-4.5,4.5-8.6,9.2-8.4,16.8.1,4.7,2.5,8.5,6,9.4,1.5.3,1.4.1,1,0-5-2.4-4.6-11.4,3.4-19.4L62.5,56c3.8-3.8,13.3-12.3,13.3-19.8v-8.1Z"/><path class="a" d="M34.1,65.27c.6-7.1,2.6-11.3,12.9-21.6l15.6-15.6c3.8-3.8,13.3-12.3,13.3-19.8V.07c0-.1-.2-.1-.2,0-.7,5.5-2,7.9-15.5,21.4l-12,12C41.7,40,36.7,45,34.5,51.27a23.53,23.53,0,0,0-1.2,11.4C33.5,63.87,34,65.57,34.1,65.27Z"/><path class="a" d="M68.2,113.77c0,.1.2.1.2,0a18,18,0,0,1,3.2-8.2H68.2v8.2Z"/><path class="a" d="M84.3,69.07,80.4,73c-6.1,6-12.2,12.8-12.2,19v8.3c0,.1.2.1.2,0,.7-6.1,3.6-10,12.3-18.7l3.6-3.7c7.1-7.1,12.8-14.6,12-23-.4-4.7-2-7.3-3-8-.5-.4-.4-.1-.3.2C97.2,56.37,87.5,65.87,84.3,69.07Z"/><path class="a" d="M68.2,85.87c0,.1.2.1.2,0,.7-5.8,4-10.2,11.5-17.7l3.6-3.6c4.5-4.5,8.6-9.2,8.4-16.8-.1-4.7-2.5-8.5-6-9.4-1.5-.3-1.4-.1-1,0,5,2.4,4.6,11.4-3.4,19.4l-4.4,4.4c-2.9,2.9-8.8,9.3-8.8,15.2v8.5Z"/><path class="a" d="M131.2,102.37a4.27,4.27,0,0,0-3.3,1.5,4,4,0,0,0-1,2.8,4.19,4.19,0,0,0,1,2.8,4.36,4.36,0,0,0,6.4.2,4.39,4.39,0,0,0,1.3-3.1,4.16,4.16,0,0,0-1.3-3.1A4.89,4.89,0,0,0,131.2,102.37Zm2.7,7a3.62,3.62,0,0,1-2.7,1.1,3.69,3.69,0,0,1-2.7-1.1,3.62,3.62,0,0,1-1.1-2.7,3.69,3.69,0,0,1,1.1-2.7,3.62,3.62,0,0,1,2.7-1.1,3.69,3.69,0,0,1,2.7,1.1,4,4,0,0,1,1.1,2.7A3.34,3.34,0,0,1,133.9,109.37Z"/><path class="a" d="M133.8,109h-.1c-.2,0-.5-.2-.8-.7l-.1-.2-1-1.4a1.38,1.38,0,0,0,.9-1.3c0-.9-.6-1.3-1.7-1.3h-1.7c-.1,0-.2,0-.2.1s.1.1.2.1h.2c.2,0,.4.2.4.6v3c0,.4,0,.7-.1.8a.52.52,0,0,1-.4.2.1.1,0,0,0-.1.1c0,.1.1.1.2.1h1.7c.1,0,.2,0,.2-.1s-.1-.1-.2-.1a.59.59,0,0,1-.5-.2c-.1-.1-.1-.3-.1-.6v-1.4h.6c.1,0,.2,0,.2.1v.1l.9,1.4a1.41,1.41,0,0,0,1.2.8c.4,0,.6-.1.6-.2A.77.77,0,0,1,133.8,109Zm-2.8-2.5h-.6v-1.7a.27.27,0,0,1,.3-.3,1.61,1.61,0,0,1,.9.3,1.23,1.23,0,0,1,.4.8C132,106.17,131.6,106.47,131,106.47Z"/><path class="a" d="M411.4,94.87h-.1c-.2,0-.5-.2-.8-.7l-.1-.2-1-1.4a1.38,1.38,0,0,0,.9-1.3c0-.9-.6-1.3-1.7-1.3h-1.7c-.1,0-.2,0-.2.1s.1.1.2.1h.2c.2,0,.4.2.4.6v3c0,.4,0,.7-.1.8a.52.52,0,0,1-.4.2.1.1,0,0,0-.1.1c0,.1.1.1.2.1h1.7c.1,0,.2,0,.2-.1s-.1-.1-.2-.1a.59.59,0,0,1-.5-.2c-.1-.1-.1-.3-.1-.6v-1.4h.6c.1,0,.2,0,.2.1v.1l.9,1.4a1.41,1.41,0,0,0,1.2.8c.4,0,.6-.1.6-.2C411.5,95,411.5,95,411.4,94.87Zm-2.7-2.4h-.6v-1.7a.27.27,0,0,1,.3-.3,1.61,1.61,0,0,1,.9.3,1.23,1.23,0,0,1,.4.8A.92.92,0,0,1,408.7,92.47Z"/><path class="a" d="M408.9,88.37a4.27,4.27,0,0,0-3.3,1.5,4,4,0,0,0-1,2.8,4.19,4.19,0,0,0,1,2.8,4.36,4.36,0,0,0,6.4.2,4.39,4.39,0,0,0,1.3-3.1,4.16,4.16,0,0,0-1.3-3.1A4.89,4.89,0,0,0,408.9,88.37Zm2.7,7a3.62,3.62,0,0,1-2.7,1.1,3.69,3.69,0,0,1-2.7-1.1,3.62,3.62,0,0,1-1.1-2.7,3.69,3.69,0,0,1,1.1-2.7,3.62,3.62,0,0,1,2.7-1.1,3.69,3.69,0,0,1,2.7,1.1,4,4,0,0,1,1.1,2.7A3.69,3.69,0,0,1,411.6,95.37Z"/></svg>