<svg xmlns="http://www.w3.org/2000/svg" viewBox="0 0 422.61 394.88"><defs><style>.a{fill:#fff;}</style></defs><title>Asset 1</title><path class="a" d="M67.4,335.47c-3-.5-5-1.3-6-2.2s-2.2-3.3-3.7-7.1l-1-2.6-20.4-52.2c-.3-.9-.8-1.4-1.3-1.4s-1,.5-1.4,1.4L9.3,325.47l-1.4,3.1a18.77,18.77,0,0,1-2.7,4.2c-1.1,1.3-1.9,2.1-2.6,2.3l-1.8.5a1.05,1.05,0,0,0-.8,1c0,.6.4.9,1.3.9.2,0,1-.1,2.6-.3.5,0,1.2-.1,2.1-.1,2,0,3.7,0,5.2.1l4.5.3c.7,0,1.3.1,1.6.1.9,0,1.4-.3,1.3-.8s-.5-.9-1.5-1.1c-2.2-.5-3.6-1-4.4-1.7a4.26,4.26,0,0,1-1.1-3.2c0-1.5.7-3.9,2.1-7.1l3.1-7c.9-2.2,1.7-3.4,2.3-3.8s2-.6,4.4-.6H40.6c1.8,0,2.8.1,3.2.4a9,9,0,0,1,1.6,3l2.4,6.3c1.9,5,2.9,8.3,2.9,10s-.8,2.9-2.4,3.2l-1.5.3c-.8.2-1.2.5-1.2,1s.4,1,1.2,1c.3,0,.8-.1,1.5-.2a64.88,64.88,0,0,1,8.2-.3c4.2,0,7.1.1,8.8.2a15.26,15.26,0,0,0,1.8.1c.9,0,1.3-.3,1.3-.8C68.8,336.07,68.4,335.67,67.4,335.47Zm-27.8-27.6H24c-1.5,0-2.2-.4-2.2-1.2a5.89,5.89,0,0,1,.6-1.8l9.2-20.5c.3-.6.5-.9.8-.9s.9.6,1.2,1.6l.4,1,7.4,18.8.2.9a2.8,2.8,0,0,1,.2,1.1C42,307.47,41.2,307.88,39.6,307.88Z"/><path class="a" d="M117.8,312.38q0-10.35-6.6-17.1c-4.8-4.9-12.1-7.3-21.8-7.3-1.7,0-3.3.1-4.7.2l-3.3.3c-1.3.1-3.2.2-5.6.2H73.3l-2.8-.1c-.6,0-.9.2-.9.7s.4.7,1.2.7a5,5,0,0,1,4,2c.8,1.1,1.2,2.9,1.2,5.3v32c0,2.6-.2,4.4-.7,5.2s-1.5,1.4-3.1,1.8c-.7.1-1,.4-1,.8,0,.6.4.8,1.2.8a19.09,19.09,0,0,0,2-.2,43.28,43.28,0,0,1,6.6-.4c2.3,0,5.1.1,8.3.3,1.6.1,2.6.2,3.3.2a26.72,26.72,0,0,0,14.3-4.1,22.89,22.89,0,0,0,8.1-8.8A27.92,27.92,0,0,0,117.8,312.38Zm-13.5,20.1a20.3,20.3,0,0,1-10.9,3,33.78,33.78,0,0,1-4.9-.5q-2.85-.6-4.8-1.2a3,3,0,0,1-2.2-3v-36.5c0-1.5.3-2.4.9-2.9,1-.8,3.4-1.2,7.1-1.2a22.78,22.78,0,0,1,13.4,3.9,21.5,21.5,0,0,1,7.1,8.8,29,29,0,0,1,2.6,12.2C112.5,323.38,109.7,329.07,104.3,332.47Z"/><path class="a" d="M121.7,288.67a26.66,26.66,0,0,1-3.6-.1c-.5,0-.8-.1-1-.1-.7,0-1,.2-1,.7a.6.6,0,0,0,.3.6,12.2,12.2,0,0,0,2.2.5,4.53,4.53,0,0,1,2.8,1.5,15.06,15.06,0,0,1,2.3,4l18,41.7q.75,1.8,1.5,1.8c.5,0,.9-.6,1.4-1.7l17.6-41.3,1-2.3a6.89,6.89,0,0,1,3.9-4.1c.5-.2.7-.4.7-.8s-.2-.6-.7-.6h-7c-.4,0-1.4,0-3.2-.1h-1c-.8,0-1.2.2-1.2.7s.6.7,1.9,1a5.33,5.33,0,0,1,2.2.8c.4.3.5.9.5,1.7,0,2.3-1.7,7.4-5,15.3l-7.8,18.5-.6,1.3c-.6,1.4-1,2-1.3,2s-.6-.4-.9-1.1l-13.5-31.5a14.91,14.91,0,0,1-1.5-5,1.7,1.7,0,0,1,.4-1.3,5.71,5.71,0,0,1,1.8-.9c.5-.2.7-.4.7-.8s-.3-.7-1-.7a4.59,4.59,0,0,0-1,.1,22,22,0,0,1-2.3.1h-2.4Z"/><path class="a" d="M182.4,337c3,0,6.7.2,11.2.6,1.2.1,2.1.1,2.8.1a9.9,9.9,0,0,0,7.9-3.8c1.7-2.1,2.6-3.9,2.6-5.5,0-.6-.2-.9-.7-.9-.3,0-.5.2-.8.6-2.6,4.2-8.6,6.3-17.9,6.3-2.9,0-4.8-.2-5.5-.7s-1.1-1.8-1.1-3.8v-14.3c0-.7.2-1.2.6-1.4a5.54,5.54,0,0,1,2.3-.4h7.8a8.8,8.8,0,0,1,4.3.8,4.9,4.9,0,0,1,1.7,3.2l.2,1a.88.88,0,0,0,.9.8c.5,0,.7-.3.7-.9a4.14,4.14,0,0,0-.1-1c-.1-1.4-.2-2.8-.2-4.3q0-2.85.3-6.3v-.8c0-.6-.2-.9-.7-1s-.8.3-.9.9a8.23,8.23,0,0,1-1,3,4.55,4.55,0,0,1-2.5,1,30.68,30.68,0,0,1-5.9.4h-5.5a3.12,3.12,0,0,1-1.8-.3,3.77,3.77,0,0,1-.3-2V294q0-1.95.6-2.4c.4-.4,1.4-.5,2.8-.5h5.6a38.83,38.83,0,0,1,7.5.5,3.76,3.76,0,0,1,2.7,2.1,5.38,5.38,0,0,1,.4,2.2v.9c0,.7.2,1.1.7,1.1a.79.79,0,0,0,.8-.5c.1-.3.2-1.2.4-2.6l.1-2.1a16.86,16.86,0,0,1,.3-2.8,2.48,2.48,0,0,0,.1-.8c0-.7-.4-1-1.2-1a8.17,8.17,0,0,0-1.4.1c-.3,0-1.2.1-2.6.1l-5,.2c-2.2.1-4.8.1-7.7.1a105.53,105.53,0,0,1-12.2-.6c-1-.1-1.8-.2-2.4-.2-1.1,0-1.6.3-1.6,1,0,.4.3.7,1,.7,2.2,0,3.6.6,4.3,1.8s1.1,3.5,1.1,6.8v32.3c0,2.8-.9,4.5-2.6,5l-1.3.4c-.6.2-.9.4-.9.8s.4.8,1.1.8c.3,0,.9-.1,1.8-.2C175.4,337.07,178.3,337,182.4,337Z"/><path class="a" d="M220.6,303.28c0-1.1.2-1.6.7-1.6a.76.76,0,0,1,.5.2l.4.4,29.9,34.2.8.9a1.14,1.14,0,0,0,.8.3,1,1,0,0,0,1-.8,38.81,38.81,0,0,0,.2-4.9v-29.7l.1-2.3v-3.8c0-2.3.2-3.8.7-4.6a4.56,4.56,0,0,1,2.9-1.8c.5-.1.7-.4.7-.7,0-.5-.4-.7-1-.7a14.93,14.93,0,0,0-1.7.2,30.09,30.09,0,0,1-3.5.2,58.64,58.64,0,0,1-6.6-.3,9.89,9.89,0,0,0-1.5-.1c-.7,0-1,.2-1,.7s.3.8,1,.9c2.4.4,4.1,1,5.1,1.9a7.18,7.18,0,0,1,1.8,4.3l.4,8.2v22.4c0,.4-.2.7-.4.7a3.4,3.4,0,0,1-1-.8l-32.6-36.9a2.39,2.39,0,0,0-1.8-1h-1.9l-2.4-.1h-2.1c-.5,0-.8.2-.8.7s.3.7,1,.8a7.22,7.22,0,0,1,5.6,4,20.31,20.31,0,0,1,2,9.7V328c0,2.6-.3,4.4-1,5.6a7.49,7.49,0,0,1-4,2.8c-.7.2-1,.5-1,.9s.4.7,1,.7a7.17,7.17,0,0,0,1.3-.1,21.11,21.11,0,0,1,2.6-.2l1.7-.1,3.6.2c1.8.1,2.8.2,3.1.2s.7.1,1.1.1.7-.2.7-.7-.4-.8-1.2-.9a7.83,7.83,0,0,1-3.8-1.3,5.64,5.64,0,0,1-1.2-3.2l-.1-2.5v-26.2Z"/><path class="a" d="M306.4,291.57c0-1.4-.1-2.2-.4-2.5s-1.1-.4-2.4-.4H265.4a2.17,2.17,0,0,0-1.6.5,4.48,4.48,0,0,0-.4,2.1,26,26,0,0,1-.5,4.2,13.14,13.14,0,0,0-.4,2.7c0,.6.2.9.6,1s.7-.4,1-1.3c.5-2.1,1.1-3.6,2-4.3a6.2,6.2,0,0,1,4.2-1.2h9.4c.9,0,1.5.1,1.7.4a2.58,2.58,0,0,1,.4,1.6v36.1c0,2-.3,3.4-1,4.1s-1.9,1.3-3.7,1.5c-.8.1-1.2.3-1.2.7s.4.8,1.1.8c.2,0,1-.1,2.4-.2a18.52,18.52,0,0,1,2.5-.1h5.4a22.94,22.94,0,0,1,3.2.1c.9.1,1.5.2,1.7.2.7,0,1-.3,1-.8s-.4-.7-1.2-.8c-3-.5-4.5-2.2-4.6-4.9v-36.2c0-1.1.1-1.8.4-2.1s.9-.4,2-.4h10a7.25,7.25,0,0,1,4,.8q1.05.75,1.5,3.3c.1.8.4,1.1.8,1.1s.8-.4.7-1.1c0-.4-.1-.9-.2-1.7A24.52,24.52,0,0,1,306.4,291.57Z"/><path class="a" d="M327,335.78a7.45,7.45,0,0,1-3.3-1.1,6,6,0,0,1-1.8-2.6,23.17,23.17,0,0,1-.6-6.6v-26.6c0-5,.9-7.8,2.6-8.5l1.8-.7q.9-.3.9-.9c0-.4-.3-.7-1-.7h-.9l-2.4.2c-1.3.1-2.8.1-4.5.1a62.11,62.11,0,0,1-6.9-.3h-.6c-.7,0-1.1.3-1,.8s.4.7,1.1.8c2.2.4,3.6,1,4.3,2.1s1,3,1,5.9v30.4c0,3-.3,5-.8,5.9s-1.7,1.6-3.5,1.9c-.7.1-1.1.4-1.1.8s.3.7,1,.7a11.56,11.56,0,0,0,1.7-.1l4.2-.2,5.1.1a30.48,30.48,0,0,1,3.8.2,6.64,6.64,0,0,0,1.3.1c.7,0,1.1-.3,1.1-.8C328.8,336.28,328.2,336,327,335.78Z"/><path class="a" d="M350.9,308.88a73.46,73.46,0,0,1-8.4-3.1,11.24,11.24,0,0,1-3.2-2.7,8.24,8.24,0,0,1-1.7-5.1,7.26,7.26,0,0,1,2.6-5.6,9.29,9.29,0,0,1,6.4-2.3,15.51,15.51,0,0,1,8.7,2.5,12.54,12.54,0,0,1,5.2,6.3c.4,1.1.8,1.7,1.2,1.7s.8-.4.8-1.1c0-.2-.1-.7-.2-1.5l-.6-3.7c-.3-2-.5-3.2-.5-3.6,0-1.2-.3-1.8-.9-1.7-.2,0-.3,0-.4.1l-.5.4a2,2,0,0,1-.8.4,1.27,1.27,0,0,1-.6-.1l-2.4-1a17.08,17.08,0,0,0-6.4-1.1c-4.5,0-8.2,1.2-11,3.6a11.83,11.83,0,0,0-4.3,9.4,11.38,11.38,0,0,0,3.3,8.4c2.2,2.1,5.9,4.1,11.1,5.9s8.1,3,9.2,3.9a8.33,8.33,0,0,1,3.1,6.6,8.79,8.79,0,0,1-3.4,7,12.34,12.34,0,0,1-8.3,2.9,14.69,14.69,0,0,1-8.9-3,14.46,14.46,0,0,1-5.4-7.4c-.3-1.1-.7-1.7-1.2-1.7s-.7.3-.7,1a19.07,19.07,0,0,0,.9,4.5,29.83,29.83,0,0,0,.9,3.2c.3,1.3.5,2.1.6,2.5a1.91,1.91,0,0,0,.9.9,14.17,14.17,0,0,0,4.8,1.8,27.58,27.58,0,0,0,6,.8c5,0,9.2-1.4,12.4-4.2A13.7,13.7,0,0,0,364,323C364,316.47,359.6,311.78,350.9,308.88Z"/><path class="a" d="M411.3,291.57c0-1.4-.1-2.2-.4-2.5s-1.1-.4-2.4-.4H370.3a2.17,2.17,0,0,0-1.6.5,3.49,3.49,0,0,0-.4,2.1,26,26,0,0,1-.5,4.2,13.14,13.14,0,0,0-.4,2.7c0,.6.2.9.6,1s.7-.4,1-1.3c.5-2.1,1.1-3.6,2-4.3a6,6,0,0,1,4.2-1.2h9.4c.9,0,1.5.1,1.7.4a2.58,2.58,0,0,1,.4,1.6v36.1c0,2-.3,3.4-1,4.1s-1.9,1.3-3.7,1.5c-.8.1-1.2.3-1.2.7s.4.8,1.1.8c.2,0,1-.1,2.4-.2a18.52,18.52,0,0,1,2.5-.1h5.4a22.94,22.94,0,0,1,3.2.1c.9.1,1.5.2,1.7.2.7,0,1-.3,1-.8s-.4-.7-1.2-.8c-3-.5-4.5-2.2-4.6-4.9v-36.2c0-1.1.1-1.8.4-2.1s.9-.4,2-.4h10a7.25,7.25,0,0,1,4,.8q1.05.75,1.5,3.3c.1.8.4,1.1.8,1.1s.8-.4.7-1.1c0-.4-.1-.9-.2-1.7A24.52,24.52,0,0,1,411.3,291.57Z"/><path class="a" d="M155.1,393.47l-1.4-.3a11.11,11.11,0,0,1-5.9-3.5l-17-17.8c-.5-.6-.8-1-.8-1.4s.3-.6.7-1l11.2-10.1c5.5-5,9.3-7.7,11.3-8.2,1.1-.3,1.6-.6,1.6-.9s-.4-.6-.9-.6a4.59,4.59,0,0,0-1,.1,16.44,16.44,0,0,1-2.7.1h-2.5l-3-.1a30.09,30.09,0,0,1-3.1-.1h-.9c-.7,0-1,.2-1,.7s.5.7,1.5.8c1.6.3,2.3.9,2.3,1.9,0,1.2-1.1,2.7-3.2,4.6l-14,12.5-.5.4-.5.4c-.2,0-.3-.2-.3-.7v-12.7a14.42,14.42,0,0,1,.5-4.5,4.71,4.71,0,0,1,2.6-2c.5-.2.8-.5.8-.8s-.3-.6-.8-.6a13.61,13.61,0,0,0-1.6.1h-1.7l-2.4.1h-1.2c-2.4,0-4.1-.1-5.2-.2a5.28,5.28,0,0,0-1.2-.1c-.6,0-.9.2-.9.7,0,.3.3.5.8.7l1.6.3a4.09,4.09,0,0,1,2.9,1.8,11.13,11.13,0,0,1,.8,4.9v27.8a15.55,15.55,0,0,1-.8,5.8,3.06,3.06,0,0,1-2.8,1.9q-.9.15-.9.6c0,.5.4.8,1.1.8.2,0,.8-.1,2-.2h1.8l2.3-.1h2.6a36.79,36.79,0,0,1,3.9.1,15.26,15.26,0,0,0,1.8.1c.5,0,.8-.2.8-.6s-.3-.6-1-.7c-2.4-.4-4-1-4.6-1.8s-1-2.5-1-5v-11.9c0-.5.2-.8.6-.8a1,1,0,0,1,.8.4l.7.7,17.5,18.1.6.6a2.46,2.46,0,0,0,1.9.9,9.89,9.89,0,0,0,1.5-.1c.6,0,1.5-.1,2.8-.1a17.22,17.22,0,0,1,2.8.1c.3,0,.6.1.8.1.7,0,1-.2,1-.7A3.7,3.7,0,0,0,155.1,393.47Z"/><path class="a" d="M168.8,393.58a4.71,4.71,0,0,1-2.2-.7,3.17,3.17,0,0,1-1.2-1.8,14.49,14.49,0,0,1-.4-4.5v-18.2c0-3.4.6-5.4,1.8-5.8l1.3-.5a.73.73,0,0,0,.6-.6c0-.3-.2-.5-.7-.5h-.6l-1.6.1a29.13,29.13,0,0,1-3.1.1c-2,0-3.5-.1-4.7-.2h-.4c-.5,0-.7.2-.7.5s.3.5.8.6a4.24,4.24,0,0,1,3,1.4c.5.7.7,2.1.7,4.1v20.8a11.53,11.53,0,0,1-.5,4.1,3.46,3.46,0,0,1-2.4,1.3c-.5.1-.8.3-.8.5s.2.5.7.5a5.74,5.74,0,0,0,1.2-.1l2.9-.2,3.5.1a17.11,17.11,0,0,1,2.6.1,3.45,3.45,0,0,0,.9.1c.5,0,.8-.2.8-.6A2.34,2.34,0,0,0,168.8,393.58Z"/><path class="a" d="M204.1,393.67l-.8-.1c-1.8-.1-3.7-1.7-5.7-4.7l-.8-1.2-6.7-9.9c4-2,6-4.8,6-8.5,0-2.8-.9-4.9-2.8-6.3s-4.7-2.1-8.4-2.1c-1,0-2.1,0-3.4.1-1.8.1-3.1.2-3.8.2a14.12,14.12,0,0,1-2.2-.1c-1-.1-1.6-.1-1.7-.1-.6,0-.8.2-.8.5s.3.5.8.6l1.1.2q2.7.45,2.7,4.2v20a16.37,16.37,0,0,1-.6,5.5,3.48,3.48,0,0,1-2.6,1.8c-.4.1-.6.2-.6.5s.2.5.6.5a7.78,7.78,0,0,0,1.3-.1,14.8,14.8,0,0,1,2-.1h3.6a25.46,25.46,0,0,1,3.1.1,9.51,9.51,0,0,0,1.4.1c.6,0,.8-.2.8-.5s-.3-.5-.9-.5a5.26,5.26,0,0,1-3.2-1.1,3.32,3.32,0,0,1-1-1.4,16.53,16.53,0,0,1-.2-2.9v-8.6c0-.4.1-.7.3-.8l.5-.1h3.2a2,2,0,0,1,1.9,1l.3.5,6.1,9.2a15.33,15.33,0,0,0,3.5,3.9,6.89,6.89,0,0,0,3.9,1.2,8.75,8.75,0,0,0,2.4-.3c.7-.2,1.1-.4,1.1-.7C204.6,393.77,204.4,393.67,204.1,393.67Zm-18.4-16.4h-2.8a1.32,1.32,0,0,1-1.7-1.7v-10.7a2.46,2.46,0,0,1,.5-1.7,3.22,3.22,0,0,1,2-.5A8.87,8.87,0,0,1,190,365a7.43,7.43,0,0,1,2.5,5.8,6.49,6.49,0,0,1-1.8,4.8A7,7,0,0,1,185.7,377.27Z"/><path class="a" d="M236.4,393.77l-1.1-.2a8.11,8.11,0,0,1-4.4-2.6l-12.6-13.3a1.83,1.83,0,0,1-.6-1c0-.2.2-.5.6-.8l8.3-7.5c4.1-3.7,6.9-5.8,8.4-6.1.8-.2,1.2-.4,1.2-.7s-.3-.5-.7-.5a3.22,3.22,0,0,0-.8.1c-.3,0-1,.1-2,.1h-1.8l-2.2-.1a17,17,0,0,1-2.3-.1h-.7c-.5,0-.8.2-.8.5s.4.5,1.1.6c1.2.2,1.8.7,1.8,1.4,0,.9-.8,2-2.4,3.4l-10.4,9.3-.4.3-.4.3c-.1,0-.2-.2-.2-.5v-9.5a7.86,7.86,0,0,1,.4-3.3,3.36,3.36,0,0,1,1.9-1.5c.4-.2.6-.3.6-.6s-.2-.5-.6-.5a8.33,8.33,0,0,0-1.2.1h-4a32.44,32.44,0,0,1-3.9-.2,2.77,2.77,0,0,0-.9-.1c-.4,0-.7.2-.7.5s.2.4.6.5l1.2.2a2.6,2.6,0,0,1,2.1,1.4,7.77,7.77,0,0,1,.6,3.6v20.7a10.87,10.87,0,0,1-.6,4.3,2.31,2.31,0,0,1-2.1,1.4c-.5,0-.7.2-.7.4,0,.4.3.6.8.6a13.59,13.59,0,0,0,1.5-.1h4.9a20.31,20.31,0,0,1,2.9.1c.7,0,1.1.1,1.3.1.4,0,.6-.1.6-.5s-.3-.4-.7-.5a6.51,6.51,0,0,1-3.5-1.3c-.5-.6-.8-1.8-.8-3.7v-8.9c0-.4.1-.6.4-.6a.86.86,0,0,1,.6.3l.5.5,13.1,13.4.4.5a2.1,2.1,0,0,0,1.4.7h3.2a9.86,9.86,0,0,1,2.1.1h.6c.5,0,.8-.1.8-.5C237,394,236.8,393.77,236.4,393.77Z"/><path class="a" d="M263.6,387.88a.66.66,0,0,0-.5.4c-1.8,2.9-5.9,4.3-12.3,4.3a9.24,9.24,0,0,1-3.8-.5c-.5-.3-.7-1.2-.7-2.6v-9.8a1.05,1.05,0,0,1,.4-1,3.22,3.22,0,0,1,1.6-.2h5.4a5.62,5.62,0,0,1,3,.6,3.13,3.13,0,0,1,1.2,2.2l.1.7c.1.4.3.5.6.5s.5-.2.5-.6v-.7a28.1,28.1,0,0,1-.1-2.9c0-1.3.1-2.7.2-4.3v-.5a.67.67,0,0,0-.5-.7q-.45,0-.6.6c-.2,1.1-.4,1.8-.7,2a3.42,3.42,0,0,1-1.7.7,21,21,0,0,1-4,.3H248a3.09,3.09,0,0,1-1.3-.2,3.32,3.32,0,0,1-.2-1.4V365c0-.9.1-1.4.4-1.7s.9-.4,1.9-.4h3.8a21,21,0,0,1,5.2.4,2.47,2.47,0,0,1,1.9,1.5,4,4,0,0,1,.3,1.5v.6c0,.5.2.7.5.7s.5-.1.5-.4a5.25,5.25,0,0,0,.2-1.8l.1-1.4a11.34,11.34,0,0,1,.2-1.9c0-.2.1-.4.1-.6,0-.5-.3-.7-.8-.7a4.59,4.59,0,0,0-1,.1c-.2,0-.8.1-1.8.1l-3.5.2c-1.5.1-3.3.1-5.3.1a68.46,68.46,0,0,1-8.4-.4,10.37,10.37,0,0,0-1.6-.1c-.7,0-1.1.2-1.1.7,0,.3.2.5.7.5q2.25,0,3,1.2a9.84,9.84,0,0,1,.8,4.7v22.2c0,2-.6,3.1-1.8,3.4l-.9.3q-.6.15-.6.6c0,.3.3.5.8.5.2,0,.6-.1,1.3-.2a41.38,41.38,0,0,1,6-.3c2,0,4.6.1,7.7.4a14.16,14.16,0,0,0,1.9.1,6.73,6.73,0,0,0,5.4-2.6c1.2-1.5,1.8-2.7,1.8-3.8Q264,387.88,263.6,387.88Z"/><path class="a" d="M299.2,361c-.3,0-.7.1-1.2.1a16.27,16.27,0,0,1-2.4.1c-1.9,0-3.4-.1-4.5-.2-.5,0-.8-.1-1-.1-.5,0-.7.1-.7.5s.2.5.7.6a7.3,7.3,0,0,1,3.5,1.3,5.2,5.2,0,0,1,1.2,2.9l.3,5.6v15.3a.46.46,0,0,1-.3.5c-.1,0-.3-.2-.7-.6l-22.4-25.3a1.55,1.55,0,0,0-1.2-.7h-4.3c-.4,0-.5.2-.5.5s.2.5.7.5a4.87,4.87,0,0,1,3.9,2.8,13.57,13.57,0,0,1,1.3,6.6v16.5a7.31,7.31,0,0,1-.7,3.8,5.13,5.13,0,0,1-2.8,1.9c-.5.2-.7.4-.7.6s.3.5.7.5a3.45,3.45,0,0,0,.9-.1,10.87,10.87,0,0,1,1.8-.1H272l2.5.1c1.2.1,1.9.1,2.1.1h.7a.47.47,0,0,0,.5-.5c0-.3-.3-.6-.8-.6a5.49,5.49,0,0,1-2.6-.9,3.5,3.5,0,0,1-.8-2.2l-.1-1.7v-17.5c0-.7.2-1.1.5-1.1a.37.37,0,0,1,.3.1l.2.3L295,394l.5.6a.85.85,0,0,0,.6.2.66.66,0,0,0,.7-.6,23,23,0,0,0,.1-3.3v-24.6a7.48,7.48,0,0,1,.5-3.2,2.67,2.67,0,0,1,2-1.2c.3-.1.5-.2.5-.5S299.7,361,299.2,361Z"/><path class="a" d="M47.9,272.67a12.69,12.69,0,0,0,.4,1.5,2.65,2.65,0,0,0,.5.6,9.24,9.24,0,0,0,2.9,1.1,17.19,17.19,0,0,0,3.7.5,11.29,11.29,0,0,0,7.6-2.6,8.32,8.32,0,0,0,3-6.7c0-4-2.7-6.9-8-8.6a37.31,37.31,0,0,1-5.2-1.9,4.36,4.36,0,0,1-1.9-1.7,4.9,4.9,0,0,1-1-3.2,4.45,4.45,0,0,1,1.6-3.5,5.82,5.82,0,0,1,3.9-1.4,9.64,9.64,0,0,1,5.3,1.5,7.11,7.11,0,0,1,3.2,3.9c.2.7.5,1.1.7,1.1s.5-.2.5-.7a4.4,4.4,0,0,0-.1-.9l-.3-2.2a19.41,19.41,0,0,1-.3-2.2c0-.7-.2-1.1-.5-1.1-.1,0-.2,0-.2.1l-.5.4c-.2.1-.3.2-.5.2a.6.6,0,0,1-.4-.1l-1.5-.6a9.37,9.37,0,0,0-3.9-.7,10.11,10.11,0,0,0-6.8,2.2,7.32,7.32,0,0,0-2.6,5.7,6.93,6.93,0,0,0,2,5.1c1.3,1.3,3.6,2.5,6.8,3.6a24.9,24.9,0,0,1,5.7,2.4,5.16,5.16,0,0,1,1.9,4.1,5.44,5.44,0,0,1-2.1,4.3,7.57,7.57,0,0,1-5.1,1.8,9.28,9.28,0,0,1-5.5-1.8,8.09,8.09,0,0,1-3.3-4.5c-.2-.7-.4-1.1-.7-1.1s-.4.2-.4.6a10.78,10.78,0,0,0,.6,2.8C47.7,271.88,47.9,272.57,47.9,272.67Z"/><path class="a" d="M67.9,246.67a4.93,4.93,0,0,1,2.3.6A4.24,4.24,0,0,1,72,249l.7,1.2,6.1,9.7a20.12,20.12,0,0,1,1,1.8,8.75,8.75,0,0,1,.2,2v7.4a5.87,5.87,0,0,1-.5,3c-.3.5-1.1.8-2.3,1-.5.1-.7.2-.7.5a.46.46,0,0,0,.5.4,3.22,3.22,0,0,0,.8-.1c.4,0,1.1-.1,2.2-.1h1.7l1.7.1c.7,0,1.2.1,1.6.1a6.61,6.61,0,0,0,1.1.1c.5,0,.8-.2.8-.5s-.2-.4-.7-.4a3.45,3.45,0,0,1-2.4-.8c-.3-.4-.4-1.4-.4-3.1v-9.1a4.25,4.25,0,0,1,.8-2.2l.5-.7,5.3-7.9,1.4-2.1a7,7,0,0,1,3-2.4,4.33,4.33,0,0,0,.5.1,2.59,2.59,0,0,1,1.7.9,10.47,10.47,0,0,1,1.4,2.5L109,276c.3.7.6,1.1.9,1.1s.6-.4.9-1.1l10.8-25.3.6-1.4a4,4,0,0,1,2.4-2.5c.3-.1.5-.3.5-.5s-.1-.4-.4-.4h-4.4a18.79,18.79,0,0,1-1.9-.1h-.6c-.5,0-.7.1-.7.4s.4.4,1.2.6a2.3,2.3,0,0,1,1.3.5,1.33,1.33,0,0,1,.3,1c0,1.4-1,4.5-3.1,9.4L112,269l-.3.8c-.4.8-.6,1.2-.8,1.2s-.4-.2-.6-.7l-8.4-19.2a8.85,8.85,0,0,1-.9-3.1,1.55,1.55,0,0,1,.2-.8,4.78,4.78,0,0,1,1.1-.6.51.51,0,0,0,.4-.5c0-.3-.2-.4-.6-.4h-.6a8.17,8.17,0,0,1-1.4.1H94.6c-.1,0-.2-.1-.4,0h-.6a.75.75,0,0,0-.5.1H93c-.4,0-1.4.1-2.8.1a22,22,0,0,1-3.1-.1,6.24,6.24,0,0,0-1.2-.1c-.3,0-.5.1-.5.4s.2.4.5.5q2.7.6,2.7,2.1c0,.6-.5,1.6-1.5,3.2l-1.1,1.7-3.1,4.8-.2.3a.55.55,0,0,1-.5.3.54.54,0,0,1-.4-.3l-.3-.4-4.6-7.2-.6-1a5.22,5.22,0,0,1-.9-2.1q0-1.05,1.5-1.5c.3-.1.5-.3.5-.5s-.2-.4-.6-.4a8.33,8.33,0,0,0-1.2.1,38,38,0,0,1-4.1.1c-1,0-2-.1-3-.2-.4,0-.7-.1-1.1-.1s-.7.2-.7.5A1.94,1.94,0,0,0,67.9,246.67Z"/><path class="a" d="M145.7,251.88a.46.46,0,0,0,.5-.3,9,9,0,0,0,.2-1.6l.1-1.3a9.21,9.21,0,0,1,.2-1.7,4.33,4.33,0,0,1,.1-.5c0-.4-.2-.6-.7-.6a3.44,3.44,0,0,0-.9.1c-.2,0-.7.1-1.6.1l-3.1.2c-1.4.1-2.9.1-4.7.1q-4.35,0-7.5-.3a8.64,8.64,0,0,0-1.5-.1c-.7,0-1,.2-1,.6s.2.4.6.4a3.12,3.12,0,0,1,2.7,1.1c.5.7.7,2.1.7,4.2v19.8c0,1.7-.5,2.8-1.6,3.1l-.8.2c-.4.1-.6.3-.6.5s.2.5.7.5a8.91,8.91,0,0,0,1.1-.2,32.22,32.22,0,0,1,5.4-.3,65.15,65.15,0,0,1,6.9.4,11.56,11.56,0,0,0,1.7.1,6,6,0,0,0,4.8-2.3,5.48,5.48,0,0,0,1.6-3.4c0-.4-.1-.6-.4-.6s-.3.1-.5.4c-1.6,2.6-5.3,3.9-11,3.9a7.61,7.61,0,0,1-3.4-.5,3,3,0,0,1-.7-2.3v-8.7a1,1,0,0,1,.4-.9,3.71,3.71,0,0,1,1.4-.2h4.8a6.16,6.16,0,0,1,2.7.5,2.56,2.56,0,0,1,1,2l.1.6c.1.3.2.5.6.5s.4-.2.4-.5v-.6a22.6,22.6,0,0,1-.1-2.6c0-1.2.1-2.4.2-3.8v-.5c0-.4-.1-.6-.4-.6a.63.63,0,0,0-.6.5,4.37,4.37,0,0,1-.6,1.8,2.11,2.11,0,0,1-1.5.6,17.25,17.25,0,0,1-3.6.3h-3.3a2,2,0,0,1-1.1-.2,2.23,2.23,0,0,1-.2-1.2v-8.8c0-.8.1-1.3.4-1.5a3.17,3.17,0,0,1,1.7-.3h3.4a23.19,23.19,0,0,1,4.6.3,2.57,2.57,0,0,1,1.7,1.3,3.08,3.08,0,0,1,.3,1.3v.6C145.2,251.57,145.4,251.88,145.7,251.88Z"/><path class="a" d="M177.2,276a.76.76,0,0,0,.5.2.63.63,0,0,0,.6-.5,19.58,19.58,0,0,0,.1-3v-22a6.06,6.06,0,0,1,.4-2.8,2.68,2.68,0,0,1,1.8-1.1c.3-.1.4-.2.4-.4s-.2-.5-.6-.5a5.38,5.38,0,0,0-1.1.1,13.47,13.47,0,0,1-2.2.1,39,39,0,0,1-4-.2c-.4,0-.7-.1-.9-.1-.4,0-.6.1-.6.4s.2.5.6.5a6.12,6.12,0,0,1,3.1,1.1,4.2,4.2,0,0,1,1.1,2.6l.3,5v13.7c0,.3-.1.4-.2.4s-.3-.2-.6-.5l-20-22.7a1.54,1.54,0,0,0-1.1-.6H151c-.3,0-.5.1-.5.4s.2.4.6.5a4.48,4.48,0,0,1,3.5,2.5,12.08,12.08,0,0,1,1.2,5.9v14.8a7.1,7.1,0,0,1-.6,3.4,4.1,4.1,0,0,1-2.5,1.7c-.4.1-.6.3-.6.5s.2.4.6.4a2.81,2.81,0,0,0,.8-.1,8.08,8.08,0,0,1,1.6-.1h1l2.2.1c1.1.1,1.7.1,1.9.1h.7c.3,0,.5-.1.5-.4s-.2-.5-.7-.6a4.64,4.64,0,0,1-2.3-.8,3.12,3.12,0,0,1-.7-2l-.1-1.5v-15.7c0-.7.1-1,.4-1a.37.37,0,0,1,.3.1l.2.2,18.3,21Z"/><path class="a" d="M188.4,274.07a2.69,2.69,0,0,1-1.9,1.1c-.4.1-.6.3-.6.5,0,.4.3.5.8.5.3,0,.7-.1,1.2-.1a24.9,24.9,0,0,1,4.1-.2c1.4,0,3.1.1,5.1.2a18.15,18.15,0,0,0,2,.1,15.51,15.51,0,0,0,8.7-2.5,13.72,13.72,0,0,0,5-5.4,16.08,16.08,0,0,0,1.8-7.6,14.57,14.57,0,0,0-4.1-10.5c-3-3-7.4-4.5-13.4-4.5a27.15,27.15,0,0,0-2.9.1l-2,.2a32.25,32.25,0,0,1-3.4.1h-1.5l-1.7-.1c-.4,0-.6.1-.6.4s.2.4.7.4a3.34,3.34,0,0,1,2.5,1.2,5.63,5.63,0,0,1,.7,3.2v19.6A7.38,7.38,0,0,1,188.4,274.07Zm3.8-24.5a2.16,2.16,0,0,1,.6-1.8c.6-.5,2.1-.7,4.4-.7a13.92,13.92,0,0,1,8.2,2.4,12.94,12.94,0,0,1,4.3,5.4,17.12,17.12,0,0,1,1.6,7.5c0,5-1.7,8.6-5,10.6a12.76,12.76,0,0,1-6.7,1.9,18.86,18.86,0,0,1-3-.3,13,13,0,0,1-2.9-.8,1.72,1.72,0,0,1-1.3-1.8v-22.4Z"/><path class="a" d="M237.8,251.88a.46.46,0,0,0,.5-.3,9,9,0,0,0,.2-1.6l.1-1.3a9.2,9.2,0,0,1,.2-1.7,4.33,4.33,0,0,1,.1-.5c0-.4-.2-.6-.7-.6a3.44,3.44,0,0,0-.9.1c-.2,0-.7.1-1.6.1l-3.1.2c-1.4.1-2.9.1-4.7.1q-4.35,0-7.5-.3a8.64,8.64,0,0,0-1.5-.1c-.7,0-1,.2-1,.6s.2.4.6.4a3.12,3.12,0,0,1,2.7,1.1c.5.7.7,2.1.7,4.2v19.8c0,1.7-.5,2.8-1.6,3.1l-.8.2c-.4.1-.6.3-.6.5s.2.5.7.5a8.91,8.91,0,0,0,1.1-.2,32.22,32.22,0,0,1,5.4-.3,65.15,65.15,0,0,1,6.9.4,11.56,11.56,0,0,0,1.7.1,6,6,0,0,0,4.8-2.3,5.48,5.48,0,0,0,1.6-3.4c0-.4-.1-.6-.4-.6s-.3.1-.5.4c-1.6,2.6-5.3,3.9-11,3.9a7.61,7.61,0,0,1-3.4-.5,3,3,0,0,1-.7-2.3v-8.7a1,1,0,0,1,.4-.9,3.71,3.71,0,0,1,1.4-.2h4.8a5.39,5.39,0,0,1,2.6.5,2.56,2.56,0,0,1,1,2l.1.6c.1.3.2.5.6.5s.4-.2.4-.5v-.6a22.6,22.6,0,0,1-.1-2.6c0-1.2.1-2.4.2-3.8v-.5c0-.4-.1-.6-.4-.6a.63.63,0,0,0-.6.5,4.37,4.37,0,0,1-.6,1.8,2.11,2.11,0,0,1-1.5.6,17.25,17.25,0,0,1-3.6.3h-3.4a2,2,0,0,1-1.1-.2,2.23,2.23,0,0,1-.2-1.2v-8.8c0-.8.1-1.3.4-1.5a3.17,3.17,0,0,1,1.7-.3h3.4a23.19,23.19,0,0,1,4.6.3,2.57,2.57,0,0,1,1.7,1.3,3.08,3.08,0,0,1,.3,1.3v.6C237.3,251.57,237.5,251.88,237.8,251.88Z"/><path class="a" d="M267.3,276a18.15,18.15,0,0,0,2,.1,16.08,16.08,0,0,0,8.8-2.5,13.72,13.72,0,0,0,5-5.4,16.08,16.08,0,0,0,1.8-7.6,14.57,14.57,0,0,0-4.1-10.5c-3-3-7.4-4.5-13.4-4.5a27.15,27.15,0,0,0-2.9.1l-2,.2a31.26,31.26,0,0,1-3.4.1h-1.5l-1.7-.1c-.4,0-.6.1-.6.4s.2.4.7.4a3.34,3.34,0,0,1,2.5,1.2,5.63,5.63,0,0,1,.7,3.2v19.6a7.6,7.6,0,0,1-.4,3.2,2.69,2.69,0,0,1-1.9,1.1c-.4.1-.6.3-.6.5,0,.4.3.5.8.5.3,0,.7-.1,1.2-.1a24.24,24.24,0,0,1,4-.2C263.7,275.78,265.3,275.88,267.3,276Zm-4.8-26.4a2.16,2.16,0,0,1,.6-1.8c.6-.5,2.1-.7,4.4-.7a13.71,13.71,0,0,1,8.2,2.4,12.94,12.94,0,0,1,4.3,5.4,18.66,18.66,0,0,1,1.6,7.5c0,5-1.7,8.6-5,10.6a12.76,12.76,0,0,1-6.7,1.9,18.86,18.86,0,0,1-3-.3,13,13,0,0,1-2.9-.8,1.72,1.72,0,0,1-1.3-1.8v-22.4Z"/><path class="a" d="M305.9,275l-.7.2c-.4.1-.5.2-.5.4s.2.4.6.4a2.25,2.25,0,0,0,.7-.1,31.56,31.56,0,0,1,3.8-.1,39,39,0,0,1,4,.1h.8c.4,0,.6-.1.6-.4s-.2-.4-.7-.5a5,5,0,0,1-2.7-1c-.5-.4-1-1.5-1.7-3.3l-.5-1.2-9.4-24q-.3-.6-.6-.6c-.2,0-.4.2-.6.7l-11.2,24.8-.6,1.4a7.61,7.61,0,0,1-1.2,1.9,3.64,3.64,0,0,1-1.2,1.1l-.8.2c-.2.1-.4.2-.4.5s.2.4.6.4a8.33,8.33,0,0,0,1.2-.1h3.4l2.1.1h.7c.4,0,.6-.1.6-.4s-.2-.4-.7-.5a4.26,4.26,0,0,1-2-.8,2.07,2.07,0,0,1-.5-1.5,8.74,8.74,0,0,1,1-3.3l1.4-3.2a4.13,4.13,0,0,1,1-1.7,4,4,0,0,1,2-.3h7.9a4,4,0,0,1,1.5.2c.2.1.4.6.7,1.4l1.1,2.9a15.56,15.56,0,0,1,1.3,4.6C307,274.28,306.7,274.78,305.9,275Zm-4.1-12.6h-7.2c-.7,0-1-.2-1-.6a2.71,2.71,0,0,1,.3-.8l4.2-9.4c.1-.3.2-.4.3-.4s.4.3.6.7l.2.5,3.4,8.6.1.4a1.09,1.09,0,0,1,.1.5C302.9,262.17,302.5,262.38,301.8,262.38Z"/><path class="a" d="M339.6,273.07a6.15,6.15,0,0,1,1.8-.8.85.85,0,0,0,.6-.2l.1-.3v-8.4a2.23,2.23,0,0,1,1.7-2.4c.4-.1.7-.3.7-.5s-.2-.4-.5-.4a16,16,0,0,0-1.7.1h-6.4c-.5,0-.8.1-.7.4s.3.5.9.6a4.6,4.6,0,0,1,2.3.6,2.16,2.16,0,0,1,.6,1.8v4.9a4.74,4.74,0,0,1-.7,3,9.47,9.47,0,0,1-7.9,3.6,11.12,11.12,0,0,1-8.9-4.3,15.83,15.83,0,0,1-3.6-10.6c0-3.9,1-7.2,3.1-9.6a10,10,0,0,1,8-3.7,13.89,13.89,0,0,1,7.5,2.2,12.73,12.73,0,0,1,5.2,5.6.51.51,0,0,0,.5.4c.3,0,.4-.2.4-.5a1.27,1.27,0,0,0-.1-.6c-.1-.6-.2-1.1-.3-1.7l-.2-2a9.89,9.89,0,0,1-.1-1.5c0-.7-.1-1-.4-1a.37.37,0,0,0-.3.1l-.5.4c-.2.1-.3.2-.4.2s-.2-.1-.4-.2a14.22,14.22,0,0,0-4.6-1.8,21.08,21.08,0,0,0-5.4-.7,14.79,14.79,0,0,0-11.1,4.6,15.94,15.94,0,0,0-4.4,11.4,14.39,14.39,0,0,0,4.2,10.7,14.55,14.55,0,0,0,10.7,4.2,17.34,17.34,0,0,0,9.1-2.5Z"/><path class="a" d="M358.4,258.47a43.55,43.55,0,0,1-5.2-1.9,4.36,4.36,0,0,1-1.9-1.7,4.9,4.9,0,0,1-1-3.2,4.45,4.45,0,0,1,1.6-3.5,5.82,5.82,0,0,1,3.9-1.4,9.64,9.64,0,0,1,5.3,1.5,7.11,7.11,0,0,1,3.2,3.9c.2.7.5,1.1.7,1.1s.5-.2.5-.7a4.4,4.4,0,0,0-.1-.9l-.3-2.2a19.41,19.41,0,0,1-.3-2.2c0-.7-.2-1.1-.5-1.1-.1,0-.2,0-.2.1l-.3.3c-.2.1-.3.2-.5.2a.6.6,0,0,1-.4-.1l-1.5-.6a9.37,9.37,0,0,0-3.9-.7,10.11,10.11,0,0,0-6.8,2.2,7,7,0,0,0-2.6,5.7,6.93,6.93,0,0,0,2,5.1c1.3,1.3,3.6,2.5,6.8,3.6a24.9,24.9,0,0,1,5.7,2.4,5.16,5.16,0,0,1,1.9,4.1,5.44,5.44,0,0,1-2.1,4.3,7.57,7.57,0,0,1-5.1,1.8,9.28,9.28,0,0,1-5.5-1.8,8.09,8.09,0,0,1-3.3-4.5c-.2-.7-.4-1.1-.7-1.1s-.4.2-.4.6a10.78,10.78,0,0,0,.6,2.8c.3,1.2.5,1.9.5,2a12.69,12.69,0,0,0,.4,1.5,2.65,2.65,0,0,0,.5.6,9.24,9.24,0,0,0,2.9,1.1,17.19,17.19,0,0,0,3.7.5,11.29,11.29,0,0,0,7.6-2.6,8.32,8.32,0,0,0,3-6.7C366.5,263.07,363.8,260.28,358.4,258.47Z"/><path class="a" d="M202.6,207.57v-25.7h-13v-9.1h13v-.9c0-9.1-4.2-15.8-33.3-10.8l-47.7,8.5-27.5,38.1L160,196C179.8,192.57,197.1,191.88,202.6,207.57Z"/><path class="a" d="M233.9,171.67c-15,15-22.3,23.5-22.3,36,5.7-16.4,23.9-15,45.4-10.9l63.3,10.9-27.5-38.1-48.3-8.5Z"/><path class="a" d="M235.1,147.38c-5.9,5.9-16,15.1-20.8,25.4h10.6l12.2-12.2c11.2-11.2,19.9-19.8,23.5-30.6,2.4-7.2,3-12.4,2.1-19.6-.3-2.1-1.2-5.2-1.2-4.5-1.1,12.2-4.5,19.5-22.2,37.3Z"/><path class="a" d="M177.8,96.37l24.1-24.1c6.5-6.5,23-21.3,23-34V24.17c0-.1-.3-.1-.3,0-1.1,9.5-3.4,13.6-26.7,36.9l-23,23c-12.2,12.2-22,25.1-20.7,39.6.7,8.1,3.4,12.6,5.2,13.8.9.6.7.2.4-.4C152.8,121.17,169.5,104.67,177.8,96.37Z"/><path class="a" d="M201.9,96.47c6.5-6.5,23-21.3,23-34V48.37c0-.1-.3-.1-.3,0-1.1,9.5-3.4,13.6-26.7,36.9l-21.3,21.4c-7.8,7.8-14.9,15.9-14.5,29,.2,8,4.2,14.7,10.3,16.3,2.5.5,2.4.2,1.8,0-8.6-4.1-8-19.6,5.9-33.5Z"/><path class="a" d="M152.9,112.38c1.1-12.2,4.5-19.5,22.2-37.3l26.8-26.9c6.5-6.5,23-21.3,23-34V.08c0-.1-.3-.1-.3,0-1.1,9.5-3.4,13.6-26.7,36.9l-20.7,20.6c-11.2,11.2-19.9,19.8-23.5,30.6-2.4,7.2-3,12.4-2.1,19.6C151.9,110,152.8,113,152.9,112.38Z"/><path class="a" d="M211.9,196a31.41,31.41,0,0,1,5.6-14.1h-5.9V196C211.6,196.07,211.9,196.07,211.9,196Z"/><path class="a" d="M239.4,119l-6.8,6.8c-10.4,10.4-21,22-21,32.7v14.3c0,.1.3.1.3,0,1.1-10.4,6.2-17.2,21.3-32.3l6.3-6.3c12.2-12.2,22-25.1,20.7-39.6-.7-8.1-3.4-12.6-5.2-13.8-.9-.6-.7-.2-.4.3C261.5,97,244.8,113.47,239.4,119Z"/><path class="a" d="M211.6,148c0,.1.3.1.3,0,1.2-9.9,6.9-17.5,19.8-30.5l6.2-6.2c7.8-7.8,14.7-15.8,14.4-28.9-.2-8-4.2-14.7-10.3-16.3-2.5-.5-2.3-.2-1.8,0,8.6,4.1,8,19.6-5.9,33.5l-7.6,7.6c-4.9,4.9-15.1,16-15.1,26.2Z"/><path class="a" d="M315.3,181.57h.2c.3,0,.5.3.5.7V186a2.51,2.51,0,0,1-.1,1,.46.46,0,0,1-.5.3.2.2,0,1,0,0,.4h2.2c.2,0,.2,0,.2-.2a.22.22,0,0,0-.2-.2.85.85,0,0,1-.6-.2c-.1-.1-.1-.3-.1-.7v-1.7h.7c.1,0,.2.1.3.2l.1.1,1.1,1.7a1.88,1.88,0,0,0,1.5,1c.5,0,.7-.1.7-.2s0-.1-.1-.1h-.1c-.3,0-.6-.3-1-.9l-.2-.2-1.2-1.8a1.82,1.82,0,0,0,1.1-1.6c0-1.1-.7-1.6-2.2-1.6h-2.1a.22.22,0,0,0-.2.2C315.1,181.47,315.2,181.57,315.3,181.57Zm2,.1a1.5,1.5,0,0,1,1.1.4,1.39,1.39,0,0,1,.5,1,1.06,1.06,0,0,1-1.2,1.2H317v-2.2C316.8,181.78,317,181.67,317.3,181.67Z"/><path class="a" d="M317.9,189.88a5.28,5.28,0,0,0,3.9-1.6,5.13,5.13,0,0,0,1.6-3.9,5.28,5.28,0,0,0-1.6-3.9,5.13,5.13,0,0,0-3.9-1.6,5.22,5.22,0,0,0-4.2,1.9,5.36,5.36,0,0,0,0,7A4.87,4.87,0,0,0,317.9,189.88Zm-3.5-8.9a4.83,4.83,0,1,1-1.4,3.4A4.94,4.94,0,0,1,314.4,181Z"/><path class="a" d="M421.1,281.28a5.13,5.13,0,0,0-3.9-1.6,5.22,5.22,0,0,0-4.2,1.9,5.36,5.36,0,0,0,0,7,5.16,5.16,0,0,0,4.1,1.9,5.28,5.28,0,0,0,3.9-1.6,5.13,5.13,0,0,0,1.6-3.9A4.56,4.56,0,0,0,421.1,281.28Zm-.4,7.3a4.83,4.83,0,1,1,1.4-3.4A4.94,4.94,0,0,1,420.7,288.57Z"/><path class="a" d="M420.5,288h-.1c-.3,0-.6-.3-1-.9l-.2-.2-1.2-1.8a1.82,1.82,0,0,0,1.1-1.6c0-1.1-.7-1.6-2.2-1.6h-2.1a.2.2,0,1,0,0,.4h.2c.3,0,.5.3.5.7v3.7a2.51,2.51,0,0,1-.1,1,.46.46,0,0,1-.5.3.2.2,0,0,0,0,.4h2.2c.2,0,.2,0,.2-.2a.22.22,0,0,0-.2-.2.85.85,0,0,1-.6-.2c-.1-.1-.1-.3-.1-.7v-1.7h.7c.1,0,.2.1.3.2l.1.1,1.1,1.7a1.88,1.88,0,0,0,1.5,1c.5,0,.7-.1.7-.2C420.6,288,420.6,288,420.5,288Zm-3.5-3.1h-.7v-2.2c0-.2.1-.3.4-.3a1.5,1.5,0,0,1,1.1.4,1.39,1.39,0,0,1,.5,1A1.16,1.16,0,0,1,417,284.88Z"/></svg>