<svg xmlns="http://www.w3.org/2000/svg" viewBox="0 0 49.5 49.5"><title>Untitled-1</title><path d="M25,0.25A24.75,24.75,0,1,0,49.75,25,24.78,24.78,0,0,0,25,.25ZM46.11,25a21,21,0,0,1-4.37,12.84,3.37,3.37,0,0,1-.82-3.93c0.78-1.7,1-5.64.81-7.17s-1-5.22-3.13-5.26-3.64-.75-4.93-3.31c-2.66-5.33,5-6.35,2.34-9.31-0.75-.83-4.6,3.41-5.16-2.24A3,3,0,0,1,31.7,5,21.14,21.14,0,0,1,46.11,25ZM22.1,4.1c-0.51,1-1.84,1.38-2.65,2.12C17.69,7.82,16.93,7.6,16,9.13s-4,3.74-4,4.85,1.56,2.41,2.34,2.16a8.33,8.33,0,0,1,4,.18c1.21,0.43,10.09.85,7.26,8.36-0.9,2.39-4.83,2-5.88,5.94A32.31,32.31,0,0,0,19,34.48c-0.06,1.25.89,6-.32,6s-4.48-4.22-4.48-5-0.85-3.45-.85-5.75S9.41,27.46,9.41,24.4c0-2.76,2.12-4.13,1.64-5.45s-4.2-1.36-5.75-1.52A21.16,21.16,0,0,1,22.1,4.1ZM18.36,45c1.27-.67,1.4-1.53,2.55-1.58a23.35,23.35,0,0,0,3.87-.84c1.32-.29,3.67-1.62,5.74-1.79,1.75-.14,5.19.09,6.12,1.78A21,21,0,0,1,18.36,45Z" transform="translate(-0.25 -0.25)" fill="#010101"/></svg>