<svg xmlns="http://www.w3.org/2000/svg" viewBox="0 0 622.97 135.78"><defs><style>.a{fill:#fff;}</style></defs><title>Asset 1</title><path class="a" d="M175,89.77a17.06,17.06,0,0,0,.5,1.8,1.7,1.7,0,0,0,.6.6,11.47,11.47,0,0,0,3.4,1.3,17.71,17.71,0,0,0,4.3.6,12.87,12.87,0,0,0,8.8-3,9.74,9.74,0,0,0,3.4-7.7c0-4.6-3.1-8-9.3-10-3.2-1.1-5.2-1.8-6-2.2a6.67,6.67,0,0,1-2.3-1.9,5.67,5.67,0,0,1-1.2-3.7,5.18,5.18,0,0,1,1.8-4,6.37,6.37,0,0,1,4.5-1.6,11.23,11.23,0,0,1,6.2,1.8,8.41,8.41,0,0,1,3.7,4.5c.3.8.5,1.2.8,1.2s.5-.3.5-.8a5.13,5.13,0,0,0-.1-1l-.4-2.6c-.2-1.4-.3-2.3-.3-2.5,0-.8-.2-1.3-.6-1.2a.37.37,0,0,0-.3.1l-.4.3a.86.86,0,0,1-.6.3.9.9,0,0,1-.5-.1l-1.7-.7a12.24,12.24,0,0,0-4.6-.8,11.65,11.65,0,0,0-7.8,2.6,8.32,8.32,0,0,0-3,6.7,8.07,8.07,0,0,0,2.3,5.9c1.6,1.5,4.2,2.9,7.9,4.2s5.8,2.1,6.5,2.8a6,6,0,0,1,2.2,4.7,6.34,6.34,0,0,1-2.4,5,8.63,8.63,0,0,1-5.9,2,10.38,10.38,0,0,1-6.3-2.1,10,10,0,0,1-3.8-5.3c-.2-.8-.5-1.2-.8-1.2s-.5.2-.5.7a11.52,11.52,0,0,0,.7,3.2A8.92,8.92,0,0,1,175,89.77Z"/><path class="a" d="M208.3,93.37h1.5l1.5.1c.6,0,1.1.1,1.4.1a5.13,5.13,0,0,0,1,.1c.4,0,.7-.1.7-.4s-.2-.4-.6-.4c-1.1-.1-1.8-.3-2.1-.7a6.06,6.06,0,0,1-.4-2.7v-8a3.2,3.2,0,0,1,.7-1.9l.5-.6,4.6-6.9,1.2-1.8a5.8,5.8,0,0,1,2.6-2.1c.1,0,.3.1.4.1a2.75,2.75,0,0,1,1.5.8,6.1,6.1,0,0,1,1.2,2.2l9.6,22.3c.3.6.5,1,.8,1s.5-.3.8-.9l9.5-22.1.5-1.2a3.8,3.8,0,0,1,2.1-2.2c.3-.1.4-.2.4-.4s-.1-.3-.4-.3h-3.8a14.89,14.89,0,0,1-1.7-.1h-.6c-.4,0-.6.1-.6.4s.3.4,1,.5a4,4,0,0,1,1.2.4,1.22,1.22,0,0,1,.3.9c0,1.2-.9,4-2.7,8.2l-4.2,9.9-.3.7c-.3.7-.6,1.1-.7,1.1s-.3-.2-.5-.6l-7.3-16.8a8.31,8.31,0,0,1-.8-2.7,1.17,1.17,0,0,1,.2-.7,4.34,4.34,0,0,1,1-.5c.3-.1.4-.2.4-.4a.46.46,0,0,0-.5-.4h-.5a6.25,6.25,0,0,1-1.2.1h-5.5c-.2,0-.3,0-.4.1H220c-.4,0-1.2.1-2.5.1a16.45,16.45,0,0,1-2.7-.1,4.59,4.59,0,0,0-1-.1c-.3,0-.4.1-.4.3s.1.4.5.4q2.4.6,2.4,1.8a6.75,6.75,0,0,1-1.3,2.8l-.9,1.5-2.8,4.2-.2.3a.54.54,0,0,1-.4.3q-.15,0-.3-.3l-.2-.4-4-6.3-.5-.9a5.62,5.62,0,0,1-.8-1.8c0-.6.4-1,1.3-1.3.3-.1.4-.2.4-.4s-.2-.4-.6-.4a5.81,5.81,0,0,0-1,.1,28.54,28.54,0,0,1-3.6.1,21.75,21.75,0,0,1-2.6-.1c-.3,0-.7-.1-1-.1s-.6.1-.6.4.2.3.6.3a3.86,3.86,0,0,1,2,.6,4.63,4.63,0,0,1,1.6,1.5l.6,1,5.3,8.4a7.75,7.75,0,0,1,.8,1.6,7.45,7.45,0,0,1,.2,1.8v6.5a5.57,5.57,0,0,1-.4,2.7,2.88,2.88,0,0,1-2,.8c-.4.1-.6.2-.6.5s.1.3.4.3a2.25,2.25,0,0,0,.7-.1A4.73,4.73,0,0,1,208.3,93.37Z"/><path class="a" d="M249.1,68a2.5,2.5,0,0,1,2.3.9,7.7,7.7,0,0,1,.6,3.7v17.3c0,1.5-.5,2.4-1.4,2.7l-.7.2c-.3.1-.5.2-.5.4s.2.4.6.4a4.59,4.59,0,0,0,1-.1,27.74,27.74,0,0,1,4.7-.2q2.4,0,6,.3a8.64,8.64,0,0,0,1.5.1,5.31,5.31,0,0,0,4.2-2,5.1,5.1,0,0,0,1.4-2.9c0-.3-.1-.5-.4-.5a.54.54,0,0,0-.4.3c-1.4,2.2-4.6,3.4-9.6,3.4-1.6,0-2.5-.1-2.9-.4s-.6-.9-.6-2V82a1,1,0,0,1,.3-.8,2.87,2.87,0,0,1,1.2-.2h4.2a4.11,4.11,0,0,1,2.3.5,2.19,2.19,0,0,1,.9,1.7l.1.5c.1.3.2.4.5.4a.46.46,0,0,0,.4-.5v-.5a17.71,17.71,0,0,1-.1-2.3c0-1,.1-2.1.2-3.4V77c0-.3-.1-.5-.4-.5s-.4.1-.5.5c-.2.8-.3,1.4-.6,1.6a3.12,3.12,0,0,1-1.3.6,14.23,14.23,0,0,1-3.2.2H256a1.85,1.85,0,0,1-1-.2,2,2,0,0,1-.2-1.1v-7.7a1.88,1.88,0,0,1,.3-1.3,2.37,2.37,0,0,1,1.5-.3h3a17.1,17.1,0,0,1,4,.3,2.49,2.49,0,0,1,1.5,1.1,2.54,2.54,0,0,1,.2,1.2v.5c0,.4.1.6.4.6s.4-.1.4-.3a7.1,7.1,0,0,0,.2-1.4l.1-1.1a8.8,8.8,0,0,1,.2-1.5c0-.2.1-.3.1-.4,0-.4-.2-.5-.6-.5a2.81,2.81,0,0,0-.8.1,13.8,13.8,0,0,1-1.4.1l-2.7.1c-1.2.1-2.6.1-4.1.1a60.47,60.47,0,0,1-6.5-.3,6.64,6.64,0,0,0-1.3-.1c-.6,0-.9.2-.9.5A2,2,0,0,0,249.1,68Z"/><path class="a" d="M270.6,67.87a3.94,3.94,0,0,1,3,2.2,10.94,10.94,0,0,1,1,5.2v12.9a5.62,5.62,0,0,1-.6,3,4.26,4.26,0,0,1-2.2,1.5c-.4.1-.5.3-.5.5a.46.46,0,0,0,.5.4,2.25,2.25,0,0,0,.7-.1,6.15,6.15,0,0,1,1.4-.1h.9l1.9.1a16,16,0,0,0,1.7.1h.6c.3,0,.4-.1.4-.4s-.2-.4-.6-.5a4.44,4.44,0,0,1-2-.7,2.44,2.44,0,0,1-.6-1.7l-.1-1.4V75.17c0-.6.1-.9.4-.9a.37.37,0,0,1,.3.1l.2.2,16,18.3.4.5a.52.52,0,0,0,.4.2c.3,0,.5-.1.5-.4a14.32,14.32,0,0,0,.1-2.6V71.27a5.14,5.14,0,0,1,.4-2.5,2.49,2.49,0,0,1,1.5-1c.3-.1.4-.2.4-.4s-.2-.4-.5-.4a3.45,3.45,0,0,0-.9.1,10.32,10.32,0,0,1-1.9.1,34.36,34.36,0,0,1-3.5-.1c-.4,0-.6-.1-.8-.1-.4,0-.6.1-.6.4s.2.4.6.5a4.91,4.91,0,0,1,2.7,1,3.29,3.29,0,0,1,.9,2.3l.2,4.4v12a.52.52,0,0,1-.2.4c-.1,0-.3-.1-.5-.5l-17.4-19.7a1.22,1.22,0,0,0-1-.6h-3.4c-.3,0-.4.1-.4.4C270,67.68,270.2,67.87,270.6,67.87Z"/><path class="a" d="M300.8,68.07a3,3,0,0,1,2.1,1,5.06,5.06,0,0,1,.6,2.8V89a6.05,6.05,0,0,1-.4,2.8,2.37,2.37,0,0,1-1.7,1c-.4.1-.5.2-.5.4s.2.5.7.4c.3,0,.6-.1,1.1-.1a34.92,34.92,0,0,1,3.5-.2c1.3,0,2.7.1,4.4.2a13.06,13.06,0,0,0,1.7.1,13.5,13.5,0,0,0,7.6-2.2,11.46,11.46,0,0,0,4.3-4.7,14.62,14.62,0,0,0,1.6-6.6,12.13,12.13,0,0,0-3.6-9.1q-3.9-3.9-11.7-3.9a20.09,20.09,0,0,0-2.5.1l-1.8.2a24.52,24.52,0,0,1-3,.1h-1.3l-1.5-.1c-.3,0-.5.1-.5.4A9.44,9.44,0,0,0,300.8,68.07Zm5.7,2.3a2.17,2.17,0,0,1,.5-1.6c.5-.4,1.8-.6,3.8-.6a12.24,12.24,0,0,1,7.2,2.1,11.17,11.17,0,0,1,3.8,4.7,15.92,15.92,0,0,1,1.4,6.6c0,4.4-1.5,7.5-4.4,9.3a10.66,10.66,0,0,1-5.9,1.6,17.94,17.94,0,0,1-5.2-1,1.59,1.59,0,0,1-1.2-1.6Z"/><path class="a" d="M329.6,68a2.5,2.5,0,0,1,2.3.9,7.7,7.7,0,0,1,.6,3.7v17.3c0,1.5-.5,2.4-1.4,2.7l-.7.2c-.3.1-.5.2-.5.4s.2.4.6.4a4.59,4.59,0,0,0,1-.1,27.74,27.74,0,0,1,4.7-.2q2.4,0,6,.3a8.64,8.64,0,0,0,1.5.1,5.31,5.31,0,0,0,4.2-2,5.1,5.1,0,0,0,1.4-2.9c0-.3-.1-.5-.4-.5a.54.54,0,0,0-.4.3c-1.4,2.2-4.6,3.4-9.6,3.4-1.6,0-2.5-.1-2.9-.4s-.6-.9-.6-2V82a1,1,0,0,1,.3-.8,2.87,2.87,0,0,1,1.2-.2h4.2a4.11,4.11,0,0,1,2.3.5,2.19,2.19,0,0,1,.9,1.7l.1.5c.1.3.2.4.5.4a.46.46,0,0,0,.4-.5v-.5a17.71,17.71,0,0,1-.1-2.3c0-1,.1-2.1.2-3.4V77c0-.3-.1-.5-.4-.5s-.4.1-.5.5c-.2.8-.3,1.4-.6,1.6a3.12,3.12,0,0,1-1.3.6,14.23,14.23,0,0,1-3.2.2h-2.9a1.85,1.85,0,0,1-1-.2,2,2,0,0,1-.2-1.1v-7.7a1.88,1.88,0,0,1,.3-1.3,2.37,2.37,0,0,1,1.5-.3h3a17.1,17.1,0,0,1,4,.3,2.49,2.49,0,0,1,1.5,1.1,2.54,2.54,0,0,1,.2,1.2v.5c0,.4.1.6.4.6s.4-.1.4-.3a7.1,7.1,0,0,0,.2-1.4l.1-1.1a8.8,8.8,0,0,1,.2-1.5c0-.2.1-.3.1-.4,0-.4-.2-.5-.6-.5a2.81,2.81,0,0,0-.8.1,13.8,13.8,0,0,1-1.4.1l-2.7.1c-1.2.1-2.6.1-4.1.1a60.47,60.47,0,0,1-6.5-.3,6.64,6.64,0,0,0-1.3-.1c-.6,0-.9.2-.9.5A2,2,0,0,0,329.6,68Z"/><path class="a" d="M376.1,86.68a14.62,14.62,0,0,0,1.6-6.6,12.13,12.13,0,0,0-3.6-9.1q-3.9-3.9-11.7-3.9a20.09,20.09,0,0,0-2.5.1l-1.8.2a24.52,24.52,0,0,1-3,.1h-1.3l-1.5-.1c-.3,0-.5.1-.5.4s.2.4.6.4a3,3,0,0,1,2.1,1,5.06,5.06,0,0,1,.6,2.8v17.1a6.05,6.05,0,0,1-.4,2.8,2.37,2.37,0,0,1-1.7,1c-.4.1-.5.2-.5.4s.2.5.7.4c.3,0,.6-.1,1.1-.1a34.92,34.92,0,0,1,3.5-.2c1.3,0,2.7.1,4.4.2a13.06,13.06,0,0,0,1.7.1,13.5,13.5,0,0,0,7.6-2.2A10.63,10.63,0,0,0,376.1,86.68Zm-11.5,5.8a17.94,17.94,0,0,1-5.2-1,1.59,1.59,0,0,1-1.2-1.6V70.28a2.17,2.17,0,0,1,.5-1.6c.5-.4,1.8-.6,3.8-.6a12.24,12.24,0,0,1,7.2,2.1,11.17,11.17,0,0,1,3.8,4.7,15.92,15.92,0,0,1,1.4,6.6c0,4.4-1.5,7.5-4.4,9.3A10.4,10.4,0,0,1,364.6,92.48Z"/><path class="a" d="M376.7,93.18a.46.46,0,0,0,.5.4,7.47,7.47,0,0,0,1.1-.1h3l1.8.1h.6c.4,0,.5-.1.5-.3s-.2-.4-.6-.4a3.9,3.9,0,0,1-1.8-.7,1.7,1.7,0,0,1-.4-1.3,9.84,9.84,0,0,1,.8-2.9l1.2-2.8a3.82,3.82,0,0,1,.9-1.5c.2-.2.8-.2,1.7-.2h6.9a3.09,3.09,0,0,1,1.3.2q.3.15.6,1.2l1,2.5a13.85,13.85,0,0,1,1.2,4,1.15,1.15,0,0,1-1,1.3l-.6.1c-.3.1-.5.2-.5.4s.2.4.5.4a1.76,1.76,0,0,0,.6-.1,23,23,0,0,1,3.3-.1,29.42,29.42,0,0,1,3.5.1h.7c.3,0,.5-.1.5-.3s-.2-.4-.6-.5a4.59,4.59,0,0,1-2.4-.9,8.92,8.92,0,0,1-1.5-2.9l-.4-1L390.9,67c-.1-.4-.3-.6-.5-.6s-.4.2-.6.6L380,88.68l-.6,1.3a8.16,8.16,0,0,1-1.1,1.7,3.53,3.53,0,0,1-1,.9l-.7.2C376.8,92.77,376.7,93,376.7,93.18Zm9-12.8,3.7-8.2c.1-.3.2-.4.3-.4s.3.2.5.6l.2.4,3,7.5.1.3a.76.76,0,0,1,.1.4c0,.3-.3.5-1,.5h-6.2c-.6,0-.9-.2-.9-.5C385.4,81,385.5,80.77,385.7,80.37Z"/><path class="a" d="M416.4,93.87a16.21,16.21,0,0,0,8-2.1l1.3-.7a6.42,6.42,0,0,1,1.6-.7.85.85,0,0,0,.6-.2l.1-.3v-7.3c0-1.2.5-1.9,1.4-2.1.4-.1.6-.3.6-.5a.37.37,0,0,0-.4-.4,13.59,13.59,0,0,0-1.5.1h-5.6c-.4,0-.7.1-.6.4s.3.4.8.5a5.06,5.06,0,0,1,2,.5,2.17,2.17,0,0,1,.5,1.6V87a4.33,4.33,0,0,1-.6,2.6,8.37,8.37,0,0,1-6.9,3.1A9.42,9.42,0,0,1,410,89a13.93,13.93,0,0,1-3.1-9.3,12.65,12.65,0,0,1,2.7-8.4,8.71,8.71,0,0,1,7-3.3,11.73,11.73,0,0,1,6.5,1.9,12,12,0,0,1,4.6,4.9.54.54,0,0,0,.4.3c.3,0,.4-.2.4-.5a1.76,1.76,0,0,0-.1-.6c-.1-.5-.2-1-.3-1.4l-.2-1.8a7.18,7.18,0,0,1-.1-1.3q0-.9-.3-.9a.37.37,0,0,0-.3.1l-.5.3c-.2.1-.3.2-.4.2s-.2-.1-.3-.2a13.83,13.83,0,0,0-4-1.6,21,21,0,0,0-4.8-.6,12.83,12.83,0,0,0-9.7,4,13.81,13.81,0,0,0-3.9,10,12.66,12.66,0,0,0,3.7,9.4C409.4,92.68,412.6,93.87,416.4,93.87Z"/><path class="a" d="M433.3,90.57a8.67,8.67,0,0,1,.3,1.3,1.18,1.18,0,0,0,.5.5,7.37,7.37,0,0,0,2.6,1,12.72,12.72,0,0,0,3.2.4,9.64,9.64,0,0,0,6.6-2.3,7.37,7.37,0,0,0,2.6-5.8c0-3.5-2.3-6-7-7.5a42,42,0,0,1-4.5-1.7,5.52,5.52,0,0,1-1.7-1.4,4.47,4.47,0,0,1-.9-2.8,3.89,3.89,0,0,1,1.4-3,5,5,0,0,1,3.4-1.2,8.54,8.54,0,0,1,4.7,1.3,6.57,6.57,0,0,1,2.8,3.4q.3.9.6.9c.3,0,.4-.2.4-.6a3.22,3.22,0,0,0-.1-.8l-.3-2a10.14,10.14,0,0,1-.2-1.9c0-.6-.2-.9-.5-.9-.1,0-.2,0-.2.1l-.3.2c-.2.1-.3.2-.5.2a.37.37,0,0,1-.3-.1l-1.3-.6a8.62,8.62,0,0,0-3.4-.6,8.72,8.72,0,0,0-5.9,1.9,6.41,6.41,0,0,0-2.3,5,6.11,6.11,0,0,0,1.8,4.5c1.2,1.2,3.2,2.2,6,3.2s4.4,1.6,4.9,2.1a4.75,4.75,0,0,1,1.7,3.6,4.59,4.59,0,0,1-1.8,3.7,6.71,6.71,0,0,1-4.4,1.5,7.91,7.91,0,0,1-4.8-1.6,7.58,7.58,0,0,1-2.9-4q-.3-.9-.6-.9c-.3,0-.4.2-.4.6a11.27,11.27,0,0,0,.5,2.4A5.23,5.23,0,0,0,433.3,90.57Z"/><path class="a" d="M204.9,133.68a6.6,6.6,0,0,1-3.2-1.2,13.35,13.35,0,0,1-2-3.8l-.6-1.4-10.8-27.8c-.2-.5-.4-.7-.7-.7s-.5.3-.7.8l-13,28.8-.7,1.7a10.23,10.23,0,0,1-1.4,2.2c-.6.7-1,1.1-1.4,1.2l-.9.3a.51.51,0,0,0-.4.5c0,.3.2.5.7.5a11.31,11.31,0,0,0,1.4-.1h1.1a23.53,23.53,0,0,1,2.8.1l2.4.1h.9c.5,0,.7-.1.7-.4s-.3-.5-.8-.6a6.68,6.68,0,0,1-2.3-.9,2.2,2.2,0,0,1-.6-1.7,12,12,0,0,1,1.1-3.8l1.7-3.7a5.79,5.79,0,0,1,1.2-2,5.32,5.32,0,0,1,2.3-.3h9.1a5,5,0,0,1,1.7.2,3.63,3.63,0,0,1,.8,1.6l1.3,3.3a19.93,19.93,0,0,1,1.5,5.3c0,1-.4,1.6-1.3,1.7l-.8.2c-.4.1-.6.3-.6.5s.2.5.7.5a2.81,2.81,0,0,0,.8-.1,33.52,33.52,0,0,1,4.4-.2c2.2,0,3.8,0,4.7.1.5,0,.8.1,1,.1.5,0,.7-.1.7-.4S205.4,133.77,204.9,133.68ZM190.1,119h-8.3c-.8,0-1.2-.2-1.2-.7a2.3,2.3,0,0,1,.3-.9l4.9-10.9c.2-.3.3-.5.4-.5s.5.3.7.8l.2.5,4,10,.1.5a1.76,1.76,0,0,1,.1.6Q191.45,119,190.1,119Z"/><path class="a" d="M216.7,108.27a20.09,20.09,0,0,0-2.5.1l-1.8.2a24.52,24.52,0,0,1-3,.1h-1.3l-1.5-.1c-.3,0-.5.1-.5.4s.2.4.6.4a3,3,0,0,1,2.1,1,5.06,5.06,0,0,1,.6,2.8v17.1a6.05,6.05,0,0,1-.4,2.8,2.37,2.37,0,0,1-1.7,1c-.4.1-.5.2-.5.4s.2.5.7.4c.3,0,.6-.1,1.1-.1a34.92,34.92,0,0,1,3.5-.2c1.3,0,2.7.1,4.4.2a13.06,13.06,0,0,0,1.7.1,13.5,13.5,0,0,0,7.6-2.2,11.46,11.46,0,0,0,4.3-4.7,14.62,14.62,0,0,0,1.6-6.6,12.13,12.13,0,0,0-3.6-9.1C225.8,109.57,221.9,108.27,216.7,108.27Zm8,23.8a10.66,10.66,0,0,1-5.9,1.6,17.94,17.94,0,0,1-5.2-1,1.59,1.59,0,0,1-1.2-1.6v-19.6a2.17,2.17,0,0,1,.5-1.6c.5-.4,1.8-.6,3.8-.6a12.24,12.24,0,0,1,7.2,2.1,11.17,11.17,0,0,1,3.8,4.7,15.92,15.92,0,0,1,1.4,6.6C229.1,127.18,227.6,130.27,224.7,132.07Z"/><path class="a" d="M258.4,108.48h-3.8a14.89,14.89,0,0,1-1.7-.1h-.6c-.4,0-.6.1-.6.4s.3.4,1,.5a4,4,0,0,1,1.2.4,1.22,1.22,0,0,1,.3.9c0,1.2-.9,4-2.7,8.2l-4.2,9.9-.3.7c-.3.7-.6,1.1-.7,1.1s-.3-.2-.5-.6l-7.3-16.8a8.31,8.31,0,0,1-.8-2.7,1.17,1.17,0,0,1,.2-.7,4.34,4.34,0,0,1,1-.5c.3-.1.4-.2.4-.4a.46.46,0,0,0-.5-.4h-.5a6.25,6.25,0,0,1-1.2.1h-5.6c-.4,0-.5.1-.5.4,0,.1.1.3.2.3a9.11,9.11,0,0,0,1.2.3,2.75,2.75,0,0,1,1.5.8,6.1,6.1,0,0,1,1.2,2.2l9.6,22.3c.3.6.5,1,.8,1s.5-.3.8-.9l9.5-22.1.5-1.2a3.8,3.8,0,0,1,2.1-2.2c.3-.1.4-.2.4-.4C258.8,108.57,258.7,108.48,258.4,108.48Z"/><path class="a" d="M279.4,129.48a.54.54,0,0,0-.4.3c-1.4,2.2-4.6,3.4-9.6,3.4-1.6,0-2.5-.1-2.9-.4s-.6-.9-.6-2v-7.6a1,1,0,0,1,.3-.8,2.87,2.87,0,0,1,1.2-.2h4.2a4.11,4.11,0,0,1,2.3.5,2.19,2.19,0,0,1,.9,1.7l.1.5c.1.3.2.4.5.4a.46.46,0,0,0,.4-.5v-.5a17.71,17.71,0,0,1-.1-2.3c0-1,.1-2.1.2-3.4v-.4c0-.3-.1-.5-.4-.5s-.4.1-.5.5c-.2.8-.3,1.4-.6,1.6a3.12,3.12,0,0,1-1.3.6,14.23,14.23,0,0,1-3.2.2H267a1.85,1.85,0,0,1-1-.2,2,2,0,0,1-.2-1.1v-7.7a1.88,1.88,0,0,1,.3-1.3,2.37,2.37,0,0,1,1.5-.3h3a17.1,17.1,0,0,1,4,.3,2.49,2.49,0,0,1,1.5,1.1,2.54,2.54,0,0,1,.2,1.2v.5c0,.4.1.6.4.6s.4-.1.4-.3a7.1,7.1,0,0,0,.2-1.4l.1-1.1a8.8,8.8,0,0,1,.2-1.5c0-.2.1-.3.1-.4,0-.4-.2-.5-.6-.5a2.81,2.81,0,0,0-.8.1,13.8,13.8,0,0,1-1.4.1l-2.7.1c-1.2.1-2.6.1-4.1.1a60.47,60.47,0,0,1-6.5-.3,6.64,6.64,0,0,0-1.3-.1c-.6,0-.9.2-.9.5s.2.4.6.4a2.5,2.5,0,0,1,2.3.9,7.7,7.7,0,0,1,.6,3.7v17.3c0,1.5-.5,2.4-1.4,2.7l-.7.2c-.3.1-.5.2-.5.4s.2.4.6.4a4.59,4.59,0,0,0,1-.1,27.74,27.74,0,0,1,4.7-.2q2.4,0,6,.3a8.64,8.64,0,0,0,1.5.1,5.31,5.31,0,0,0,4.2-2,5.1,5.1,0,0,0,1.4-2.9C279.7,129.57,279.6,129.37,279.4,129.48Z"/><path class="a" d="M307.2,108.37a3.45,3.45,0,0,0-.9.1,10.32,10.32,0,0,1-1.9.1,34.36,34.36,0,0,1-3.5-.1c-.4,0-.6-.1-.8-.1-.4,0-.6.1-.6.4s.2.4.6.5a4.91,4.91,0,0,1,2.7,1,3.5,3.5,0,0,1,.9,2.3l.2,4.4v12a.52.52,0,0,1-.2.4c-.1,0-.3-.1-.5-.5l-17.5-19.8a1.22,1.22,0,0,0-1-.6h-3.4c-.3,0-.4.1-.4.4a.46.46,0,0,0,.5.4,3.94,3.94,0,0,1,3,2.2,10.94,10.94,0,0,1,1,5.2v12.9a5.62,5.62,0,0,1-.6,3,4.26,4.26,0,0,1-2.2,1.5c-.4.1-.5.3-.5.5a.46.46,0,0,0,.5.4,2.25,2.25,0,0,0,.7-.1,6.15,6.15,0,0,1,1.4-.1h.9l1.9.1a16,16,0,0,0,1.7.1h.6c.3,0,.4-.1.4-.4s-.2-.4-.6-.5a4.44,4.44,0,0,1-2-.7,2.44,2.44,0,0,1-.6-1.7l-.1-1.4v-13.7c0-.6.1-.9.4-.9a.37.37,0,0,1,.3.1l.2.2,16,18.3.4.5a.52.52,0,0,0,.4.2c.3,0,.5-.1.5-.4a14.32,14.32,0,0,0,.1-2.6v-19.3a5.14,5.14,0,0,1,.4-2.5,2.49,2.49,0,0,1,1.5-1c.3-.1.4-.2.4-.4C307.7,108.48,307.6,108.37,307.2,108.37Z"/><path class="a" d="M333.1,110.18a2.75,2.75,0,0,0-.2-1.3c-.1-.2-.6-.2-1.3-.2H311.1c-.4,0-.7.1-.8.3a2.68,2.68,0,0,0-.2,1.1,12,12,0,0,1-.3,2.3,5,5,0,0,0-.2,1.5c0,.3.1.5.3.5s.4-.2.5-.7a4.47,4.47,0,0,1,1.1-2.3,3.4,3.4,0,0,1,2.2-.6h5a.86.86,0,0,1,1.1,1.1v19.4a3.72,3.72,0,0,1-.5,2.2,2.88,2.88,0,0,1-2,.8c-.4,0-.6.2-.6.4s.2.4.6.4a9.29,9.29,0,0,0,1.3-.1c.4,0,.8-.1,1.4-.1h2.9a6.25,6.25,0,0,1,1.7.1,4.4,4.4,0,0,0,.9.1c.4,0,.5-.1.5-.4s-.2-.4-.7-.4a2.69,2.69,0,0,1-2.5-2.6v-19.4a2,2,0,0,1,.2-1.1c.1-.2.5-.2,1.1-.2h5.3c1.1,0,1.8.1,2.1.4a3,3,0,0,1,.8,1.8c.1.4.2.6.5.6s.4-.2.4-.6c0-.2-.1-.5-.1-.9A14.71,14.71,0,0,0,333.1,110.18Z"/><path class="a" d="M344.2,133.87a3.8,3.8,0,0,1-1.8-.6,2.45,2.45,0,0,1-.9-1.4,12.83,12.83,0,0,1-.3-3.5v-14.3c0-2.7.5-4.2,1.4-4.6l1-.4c.3-.1.5-.3.5-.5a.46.46,0,0,0-.5-.4h-.5l-1.3.1c-.7,0-1.5.1-2.4.1a34.13,34.13,0,0,1-3.7-.2h-.3c-.4,0-.6.1-.6.4s.2.4.6.4a3.53,3.53,0,0,1,2.3,1.1c.4.5.5,1.6.5,3.2v16.5a7.6,7.6,0,0,1-.4,3.2,2.64,2.64,0,0,1-1.9,1c-.4.1-.6.2-.6.4s.2.4.5.4a3.45,3.45,0,0,0,.9-.1l2.2-.1h2.8a9.81,9.81,0,0,1,2,.1c.3,0,.5.1.7.1.4,0,.6-.1.6-.4S344.8,134,344.2,133.87Z"/><path class="a" d="M357,119.48a42,42,0,0,1-4.5-1.7,5.52,5.52,0,0,1-1.7-1.4,4.47,4.47,0,0,1-.9-2.8,3.89,3.89,0,0,1,1.4-3,5,5,0,0,1,3.4-1.2,8.54,8.54,0,0,1,4.7,1.3,6.57,6.57,0,0,1,2.8,3.4q.3.9.6.9c.3,0,.4-.2.4-.6a3.22,3.22,0,0,0-.1-.8l-.3-2a10.14,10.14,0,0,1-.2-1.9c0-.6-.2-.9-.5-.9-.1,0-.2,0-.2.1l-.3.2c-.2.1-.3.2-.5.2a.37.37,0,0,1-.3-.1l-1.3-.6a8.62,8.62,0,0,0-3.4-.6,8.72,8.72,0,0,0-5.9,1.9,6.41,6.41,0,0,0-2.3,5,6.11,6.11,0,0,0,1.8,4.5c1.2,1.2,3.2,2.2,6,3.2s4.4,1.6,4.9,2.1a4.75,4.75,0,0,1,1.7,3.6,4.59,4.59,0,0,1-1.8,3.7,6.71,6.71,0,0,1-4.4,1.5,7.91,7.91,0,0,1-4.8-1.6,7.58,7.58,0,0,1-2.9-4q-.3-.9-.6-.9c-.3,0-.4.2-.4.6a11.27,11.27,0,0,0,.5,2.4,9.48,9.48,0,0,0,.5,1.7,8.67,8.67,0,0,1,.3,1.3,1.18,1.18,0,0,0,.5.5,7.37,7.37,0,0,0,2.6,1,12.72,12.72,0,0,0,3.2.4,9.64,9.64,0,0,0,6.6-2.3,7.37,7.37,0,0,0,2.6-5.8C364,123.48,361.7,121,357,119.48Z"/><path class="a" d="M389.4,110.18a2.75,2.75,0,0,0-.2-1.3c-.1-.2-.6-.2-1.3-.2H367.4c-.4,0-.7.1-.8.3a2.68,2.68,0,0,0-.2,1.1,12,12,0,0,1-.3,2.3,5,5,0,0,0-.2,1.5c0,.3.1.5.3.5s.4-.2.5-.7a4.47,4.47,0,0,1,1.1-2.3,3.4,3.4,0,0,1,2.2-.6h5a.86.86,0,0,1,1.1,1.1v19.4a3.72,3.72,0,0,1-.5,2.2,2.88,2.88,0,0,1-2,.8c-.4,0-.6.2-.6.4s.2.4.6.4a9.29,9.29,0,0,0,1.3-.1c.4,0,.8-.1,1.4-.1h2.9a6.25,6.25,0,0,1,1.7.1,4.4,4.4,0,0,0,.9.1c.4,0,.5-.1.5-.4s-.2-.4-.7-.4a2.69,2.69,0,0,1-2.5-2.6v-19.4a2,2,0,0,1,.2-1.1c.1-.2.5-.2,1.1-.2h5.3c1.1,0,1.8.1,2.1.4a3,3,0,0,1,.8,1.8c.1.4.2.6.5.6s.4-.2.4-.6c0-.2-.1-.5-.1-.9C389.4,111.48,389.4,110.87,389.4,110.18Z"/><path class="a" d="M401.1,119.48a42,42,0,0,1-4.5-1.7,5.52,5.52,0,0,1-1.7-1.4,4.47,4.47,0,0,1-.9-2.8,3.89,3.89,0,0,1,1.4-3,5,5,0,0,1,3.4-1.2,8.54,8.54,0,0,1,4.7,1.3,6.57,6.57,0,0,1,2.8,3.4q.3.9.6.9c.3,0,.4-.2.4-.6a3.22,3.22,0,0,0-.1-.8l-.3-2a10.14,10.14,0,0,1-.2-1.9c0-.6-.2-.9-.5-.9-.1,0-.2,0-.2.1l-.3.2c-.2.1-.3.2-.5.2a.37.37,0,0,1-.3-.1l-1.3-.6a8.62,8.62,0,0,0-3.4-.6,8.72,8.72,0,0,0-5.9,1.9,6.41,6.41,0,0,0-2.3,5,6.11,6.11,0,0,0,1.8,4.5c1.2,1.2,3.2,2.2,6,3.2s4.4,1.6,4.9,2.1a4.75,4.75,0,0,1,1.7,3.6,4.59,4.59,0,0,1-1.8,3.7,6.71,6.71,0,0,1-4.4,1.5,7.91,7.91,0,0,1-4.8-1.6,7.58,7.58,0,0,1-2.9-4q-.3-.9-.6-.9c-.3,0-.4.2-.4.6a11.27,11.27,0,0,0,.5,2.4,9.48,9.48,0,0,0,.5,1.7,8.67,8.67,0,0,1,.3,1.3,1.18,1.18,0,0,0,.5.5,7.37,7.37,0,0,0,2.6,1,12.72,12.72,0,0,0,3.2.4,9.64,9.64,0,0,0,6.6-2.3,7.37,7.37,0,0,0,2.6-5.8C408.1,123.48,405.8,121,401.1,119.48Z"/><path class="a" d="M435.3,133.87a4.59,4.59,0,0,1-2.4-.9,8.92,8.92,0,0,1-1.5-2.9l-.4-1-8.2-20.9c-.1-.4-.3-.6-.5-.6s-.4.2-.6.6l-9.8,21.7-.6,1.3a8.16,8.16,0,0,1-1.1,1.7,3.53,3.53,0,0,1-1,.9l-.7.2c-.2.1-.3.2-.3.4a.46.46,0,0,0,.5.4,7.47,7.47,0,0,0,1.1-.1h3l1.8.1h.6c.4,0,.5-.1.5-.3s-.2-.4-.6-.4a3.9,3.9,0,0,1-1.8-.7,1.7,1.7,0,0,1-.4-1.3,9.84,9.84,0,0,1,.8-2.9l1.2-2.8a3.82,3.82,0,0,1,.9-1.5c.2-.2.8-.2,1.7-.2h6.9a3.09,3.09,0,0,1,1.3.2q.3.15.6,1.2l1,2.5a13.85,13.85,0,0,1,1.2,4,1.15,1.15,0,0,1-1,1.3l-.6.1c-.3.1-.5.2-.5.4s.2.4.5.4a1.76,1.76,0,0,0,.6-.1,23,23,0,0,1,3.3-.1,29.42,29.42,0,0,1,3.5.1h.7c.3,0,.5-.1.5-.3C435.9,134.18,435.7,134,435.3,133.87Zm-11.1-11H418c-.6,0-.9-.2-.9-.5,0-.1.1-.3.2-.7l3.7-8.2c.1-.3.2-.4.3-.4s.3.2.5.6l.2.4,3,7.5.1.3a.76.76,0,0,1,.1.4C425.1,122.68,424.8,122.87,424.2,122.87Z"/><path class="a" d="M466.5,134a2.81,2.81,0,0,1-1.9-.8,3,3,0,0,1-.5-2.1l-.1-2.4-.4-10.3-.1-4.6a8.54,8.54,0,0,1,.4-3.2,2.11,2.11,0,0,1,1.4-1.2l.8-.2c.3-.1.4-.2.4-.4s-.1-.4-.4-.4h-.6a10.32,10.32,0,0,1-1.9.1H463a3.75,3.75,0,0,0-.8-.1.75.75,0,0,0-.5.1,2.66,2.66,0,0,0-.4.8l-8.9,19.1-.2.4-.2.5c-.1.2-.2.4-.3.4s-.2-.2-.3-.5l-1-2-7.9-17.1-.2-.4c-.4-.8-.8-1.2-1.4-1.2a2,2,0,0,0-.7.1h-3.9c-.3,0-.5.1-.5.4s.2.4.6.5a4.11,4.11,0,0,1,3,2,10.88,10.88,0,0,1,.9,5c0,1.1-.1,3.6-.3,7.6l-.3,5.5a7.36,7.36,0,0,1-.7,3.3,3,3,0,0,1-1.9,1.3c-.3.1-.5.2-.5.4s.2.4.6.4a1.76,1.76,0,0,0,.6-.1,21.3,21.3,0,0,1,2.7-.2c.8,0,1.9.1,3.3.2h.7c.4,0,.6-.1.6-.4s-.4-.4-1.2-.6c-1.6-.2-2.4-1.5-2.4-3.7s0-3.9.1-4.6l.4-9.4,7.1,15.4.4.8a7.91,7.91,0,0,1,.5,1q.45.9.9.9c.3,0,.6-.3.8-.9a2.39,2.39,0,0,0,.3-.7c.3-.6.6-1.3,1-2.2,1-2.2,1.5-3.3,1.6-3.6l1.9-4,1.7-3.6c.4-.7,1.1-2,2.2-3.9l.5,12.1.1,3.1a4.94,4.94,0,0,1-.4,2.4,2.38,2.38,0,0,1-1.5,1c-.3.1-.5.2-.5.4s.2.3.6.3c.2,0,1,0,2.3-.1a14.94,14.94,0,0,1,1.9-.1,8.08,8.08,0,0,1,1.6.1l1.5.2h.5c.5,0,.7-.1.7-.4A2.35,2.35,0,0,0,466.5,134Z"/><path class="a" d="M487.8,108.18a1.27,1.27,0,0,0-.6.1,20.85,20.85,0,0,1-2.2.2l-2.6.1c-.7,0-2.2.1-4.6.1-2.7,0-4.6-.1-5.7-.2a6.82,6.82,0,0,0-1.2-.1c-.5,0-.8.2-.8.5s.2.3.5.3a11.6,11.6,0,0,1,1.6.3,1.8,1.8,0,0,1,.8.9,5.3,5.3,0,0,1,.6,2.8v17.2a5.61,5.61,0,0,1-.4,2.6,2.09,2.09,0,0,1-1.7,1c-.4.1-.6.2-.6.4s.2.3.6.3a4.59,4.59,0,0,0,1-.1,6.64,6.64,0,0,1,1.3-.1h2.8a10.32,10.32,0,0,1,1.9.1,5.74,5.74,0,0,0,1.2.1c.4,0,.6-.1.6-.4s-.2-.4-.7-.4a2.58,2.58,0,0,1-2.1-.9,3.65,3.65,0,0,1-.8-2.4v-7.1a3.11,3.11,0,0,1,.1-1.1.72.72,0,0,1,.7-.4,18.76,18.76,0,0,1,2.9-.1,17,17,0,0,1,3.7.3,1.93,1.93,0,0,1,.9.5,4.17,4.17,0,0,1,.5,1.4q.15.9.6.9a.46.46,0,0,0,.4-.5V124a17.22,17.22,0,0,1-.1-2.8V120l.1-1.9q0-.6-.3-.6c-.2,0-.3.2-.4.5a2.69,2.69,0,0,1-1,1.8,5.21,5.21,0,0,1-2.5.5h-4.4c-.7,0-1-.2-1.1-.5v-8.4c0-.8.2-1.2.5-1.4a6.44,6.44,0,0,1,2.6-.3,21,21,0,0,1,2.7.1l2.2.2a3.55,3.55,0,0,1,1.6.4,2.22,2.22,0,0,1,.6,1.2,5,5,0,0,1,.2,1.2c0,.3.1.5.3.5s.5-.3.5-.9a14.24,14.24,0,0,1,.3-3.3,1.76,1.76,0,0,0,.1-.6A.71.71,0,0,0,487.8,108.18Z"/><path class="a" d="M516.7,108.48a3.22,3.22,0,0,0-.8.1c-.3,0-1.2.1-2.6.1a8.62,8.62,0,0,1-1.7-.1c-.5-.1-.9-.1-1.2-.2s-.4.1-.4.4.2.4.6.4a2.76,2.76,0,0,1,2.3,1.2,6.16,6.16,0,0,1,.7,3.4v9.8c0,3.3-.7,5.8-2.2,7.5s-3.8,2.5-6.8,2.5q-5.1,0-7.2-3c-1-1.4-1.5-3.7-1.5-7v-10.9a5.61,5.61,0,0,1,.4-2.6c.2-.5.7-.8,1.5-1,.4-.1.6-.2.6-.5s-.1-.3-.4-.3a4.59,4.59,0,0,0-1,.1,5.94,5.94,0,0,1-1.1.1H493a7.18,7.18,0,0,1-1.3-.1h-1.3c-.5,0-.7.1-.7.4s.2.3.5.4a3.8,3.8,0,0,1,2.3,1,4.63,4.63,0,0,1,.6,2.8v10.8a12.15,12.15,0,0,0,1.4,6.4,8.46,8.46,0,0,0,3.8,3.4,13.72,13.72,0,0,0,5.8,1.3,12.74,12.74,0,0,0,5.2-1.1,9.22,9.22,0,0,0,3.8-2.8c1.4-1.9,2.1-4.5,2.1-8v-9.2a10.75,10.75,0,0,1,.3-3.2,2.22,2.22,0,0,1,1.5-1.3c.3-.1.4-.3.4-.4C517.1,108.57,517,108.48,516.7,108.48Z"/><path class="a" d="M545.3,108.37a3.45,3.45,0,0,0-.9.1,10.32,10.32,0,0,1-1.9.1,34.36,34.36,0,0,1-3.5-.1c-.4,0-.6-.1-.8-.1-.4,0-.6.1-.6.4s.2.4.6.5a4.91,4.91,0,0,1,2.7,1,3.5,3.5,0,0,1,.9,2.3l.2,4.4v12a.52.52,0,0,1-.2.4c-.1,0-.3-.1-.5-.5l-17.5-19.8a1.22,1.22,0,0,0-1-.6h-3.4c-.3,0-.4.1-.4.4a.46.46,0,0,0,.5.4,3.94,3.94,0,0,1,3,2.2,10.94,10.94,0,0,1,1,5.2v12.9a5.62,5.62,0,0,1-.6,3,4.26,4.26,0,0,1-2.2,1.5c-.4.1-.5.3-.5.5a.46.46,0,0,0,.5.4,2.25,2.25,0,0,0,.7-.1,6.15,6.15,0,0,1,1.4-.1h.9l1.9.1a16,16,0,0,0,1.7.1h.6c.3,0,.4-.1.4-.4s-.2-.4-.6-.5a4.44,4.44,0,0,1-2-.7,2.44,2.44,0,0,1-.6-1.7l-.1-1.4v-13.7c0-.6.1-.9.4-.9a.37.37,0,0,1,.3.1l.2.2,16,18.3.4.5a.52.52,0,0,0,.4.2c.3,0,.5-.1.5-.4a14.32,14.32,0,0,0,.1-2.6v-19.3a5.14,5.14,0,0,1,.4-2.5,2.49,2.49,0,0,1,1.5-1c.3-.1.4-.2.4-.4C545.8,108.48,545.6,108.37,545.3,108.37Z"/><path class="a" d="M574.1,108.37a3.45,3.45,0,0,0-.9.1,10.32,10.32,0,0,1-1.9.1,34.36,34.36,0,0,1-3.5-.1c-.4,0-.6-.1-.8-.1-.4,0-.6.1-.6.4s.2.4.6.5a4.91,4.91,0,0,1,2.7,1,3.5,3.5,0,0,1,.9,2.3l.2,4.4v12a.52.52,0,0,1-.2.4c-.1,0-.3-.1-.5-.5l-17.5-19.8a1.22,1.22,0,0,0-1-.6h-3.4c-.3,0-.4.1-.4.4a.46.46,0,0,0,.5.4,3.94,3.94,0,0,1,3,2.2,10.94,10.94,0,0,1,1,5.2v12.9a5.62,5.62,0,0,1-.6,3,4.26,4.26,0,0,1-2.2,1.5c-.4.1-.5.3-.5.5a.46.46,0,0,0,.5.4,2.25,2.25,0,0,0,.7-.1,6.15,6.15,0,0,1,1.4-.1h.9l1.9.1a16,16,0,0,0,1.7.1h.6c.3,0,.4-.1.4-.4s-.2-.4-.6-.5a4.44,4.44,0,0,1-2-.7,2.44,2.44,0,0,1-.6-1.7l-.1-1.4v-13.7c0-.6.1-.9.4-.9a.37.37,0,0,1,.3.1l.2.2,16,18.3.4.5a.52.52,0,0,0,.4.2c.3,0,.5-.1.5-.4a14.32,14.32,0,0,0,.1-2.6v-19.3a5.14,5.14,0,0,1,.4-2.5,2.49,2.49,0,0,1,1.5-1c.3-.1.4-.2.4-.4C574.6,108.48,574.5,108.37,574.1,108.37Z"/><path class="a" d="M597.9,129.48a.54.54,0,0,0-.4.3c-1.4,2.2-4.6,3.4-9.6,3.4-1.6,0-2.5-.1-2.9-.4s-.6-.9-.6-2v-7.6a1,1,0,0,1,.3-.8,2.87,2.87,0,0,1,1.2-.2h4.2a4.11,4.11,0,0,1,2.3.5,2.19,2.19,0,0,1,.9,1.7l.1.5c.1.3.2.4.5.4a.46.46,0,0,0,.4-.5v-.5a17.71,17.71,0,0,1-.1-2.3c0-1,.1-2.1.2-3.4v-.4c0-.3-.1-.5-.4-.5s-.4.1-.5.5c-.2.8-.3,1.4-.6,1.6a3.12,3.12,0,0,1-1.3.6,14.23,14.23,0,0,1-3.2.2h-2.9a1.85,1.85,0,0,1-1-.2,2,2,0,0,1-.2-1.1v-7.7a1.88,1.88,0,0,1,.3-1.3,2.37,2.37,0,0,1,1.5-.3h3a17.1,17.1,0,0,1,4,.3,2.49,2.49,0,0,1,1.5,1.1,2.54,2.54,0,0,1,.2,1.2v.5c0,.4.1.6.4.6s.4-.1.4-.3a7.1,7.1,0,0,0,.2-1.4l.1-1.1a8.8,8.8,0,0,1,.2-1.5c0-.2.1-.3.1-.4,0-.4-.2-.5-.6-.5a2.81,2.81,0,0,0-.8.1,13.8,13.8,0,0,1-1.4.1l-2.7.1c-1.2.1-2.6.1-4.1.1a60.47,60.47,0,0,1-6.5-.3,6.64,6.64,0,0,0-1.3-.1c-.6,0-.9.2-.9.5s.2.4.6.4a2.5,2.5,0,0,1,2.3.9,7.7,7.7,0,0,1,.6,3.7v17.3c0,1.5-.5,2.4-1.4,2.7l-.7.2c-.3.1-.5.2-.5.4s.2.4.6.4a4.59,4.59,0,0,0,1-.1,27.74,27.74,0,0,1,4.7-.2q2.4,0,6,.3a8.64,8.64,0,0,0,1.5.1,5.31,5.31,0,0,0,4.2-2,5.1,5.1,0,0,0,1.4-2.9C598.2,129.57,598.1,129.37,597.9,129.48Z"/><path class="a" d="M622.9,111.77a6.66,6.66,0,0,1-.1-1.6,2.75,2.75,0,0,0-.2-1.3c-.1-.2-.6-.2-1.3-.2H600.8c-.4,0-.7.1-.8.3a2.68,2.68,0,0,0-.2,1.1,12,12,0,0,1-.3,2.3,5,5,0,0,0-.2,1.5c0,.3.1.5.3.5s.4-.2.5-.7a4.47,4.47,0,0,1,1.1-2.3,3.4,3.4,0,0,1,2.2-.6h5a.86.86,0,0,1,1.1,1.1v19.4a3.72,3.72,0,0,1-.5,2.2,2.88,2.88,0,0,1-2,.8c-.4,0-.6.2-.6.4s.2.4.6.4a9.29,9.29,0,0,0,1.3-.1c.4,0,.8-.1,1.4-.1h2.9a6.25,6.25,0,0,1,1.7.1,4.4,4.4,0,0,0,.9.1c.4,0,.5-.1.5-.4s-.2-.4-.7-.4a2.69,2.69,0,0,1-2.5-2.6v-19.4a2,2,0,0,1,.2-1.1c.1-.2.5-.2,1.1-.2h5.3c1.1,0,1.8.1,2.1.4a3,3,0,0,1,.8,1.8c.1.4.2.6.5.6s.4-.2.4-.6A3.3,3.3,0,0,0,622.9,111.77Z"/><path class="a" d="M48.8,104.57l-31,5.5L0,134.77l42.8-7.6c12.8-2.2,24.1-2.7,27.6,7.5V118H62v-5.9h8.4v-.6C70.4,105.68,67.6,101.37,48.8,104.57Z"/><path class="a" d="M97.6,104.57l-6.9,6.9c-9.7,9.7-14.5,15.3-14.5,23.3,3.7-10.7,15.5-9.7,29.4-7.1l41.1,7.1-17.9-24.7Z"/><path class="a" d="M91.5,95.68c-3.8,3.8-10.4,9.8-13.5,16.5h6.9l7.9-7.9c7.3-7.3,12.9-12.9,15.3-19.8a25.34,25.34,0,0,0,1.3-12.7c-.2-1.4-.8-3.4-.8-2.9-.7,7.9-2.9,12.7-14.4,24.2Z"/><path class="a" d="M69.9,47c4.2-4.2,14.9-13.8,14.9-22.1v-9.2c0-.1-.2-.1-.2,0-.7,6.2-2.2,8.8-17.3,24L52.4,54.58c-7.9,7.9-14.3,16.3-13.5,25.7.5,5.3,2.2,8.1,3.4,9,.6.4.4.1.3-.2-4.5-10.3,6.3-21,11.7-26.4Z"/><path class="a" d="M84.8,31.37c0-.1-.2-.1-.2,0-.7,6.2-2.2,8.8-17.3,24L53.5,69.27c-5,5-9.6,10.3-9.4,18.8.1,5.2,2.8,9.5,6.7,10.6,1.6.3,1.5.1,1.1,0C46.3,96.07,46.7,86,55.7,77l14.2-14.2c4.2-4.2,14.9-13.8,14.9-22.1v-9.3Z"/><path class="a" d="M38.1,73c.7-7.9,2.9-12.7,14.4-24.2l17.4-17.4c4.2-4.2,14.9-13.8,14.9-22.1V.07c0-.1-.2-.1-.2,0-.7,6.2-2.2,8.8-17.3,24L53.9,37.48c-7.3,7.3-12.9,12.9-15.3,19.8A25.34,25.34,0,0,0,37.3,70C37.5,71.48,38.1,73.37,38.1,73Z"/><path class="a" d="M76.2,127.18c0,.1.2.1.2,0a20.9,20.9,0,0,1,3.6-9.1H76.2v9.1Z"/><path class="a" d="M94.2,77.27l-4.4,4.4C83,88.38,76.2,96,76.2,102.88v9.3c0,.1.2.1.2,0,.7-6.8,4-11.2,13.8-20.9l4.1-4.1c7.9-7.9,14.3-16.3,13.5-25.7-.5-5.3-2.2-8.1-3.4-9-.6-.4-.4-.1-.3.2C108.6,63.07,97.8,73.77,94.2,77.27Z"/><path class="a" d="M76.2,96.07c0,.1.2.1.2,0,.8-6.4,4.4-11.4,12.9-19.8l4-4c5-5,9.6-10.3,9.4-18.8-.1-5.2-2.8-9.5-6.7-10.6-1.6-.3-1.5-.1-1.1,0,5.6,2.6,5.2,12.7-3.8,21.7l-5,5c-3.2,3.2-9.8,10.4-9.8,17v9.5Z"/><path class="a" d="M146.7,118.18a4.12,4.12,0,0,0-3.4,1.6,4.37,4.37,0,0,0,0,5.8,4.12,4.12,0,0,0,3.4,1.6,4.38,4.38,0,0,0,3.2-1.3,4.22,4.22,0,0,0,1.3-3.2,4.38,4.38,0,0,0-1.3-3.2A4.63,4.63,0,0,0,146.7,118.18Zm2.9,7.3a4,4,0,1,1-2.8-6.8,3.63,3.63,0,0,1,2.8,1.2,3.78,3.78,0,0,1,1.2,2.8A4.49,4.49,0,0,1,149.6,125.48Z"/><path class="a" d="M149.4,125.07h-.1c-.3,0-.5-.2-.8-.7l-.1-.2-1-1.5a1.48,1.48,0,0,0,.9-1.3c0-.9-.6-1.3-1.8-1.3h-1.7c-.1,0-.2,0-.2.1s.1.1.2.1h.2c.2,0,.4.2.4.6V124c0,.4,0,.7-.1.8a1.38,1.38,0,0,1-.4.3.1.1,0,0,0-.1.1c0,.1.1.1.2.1h1.8c.1,0,.2,0,.2-.1s-.1-.1-.2-.1c-.3,0-.5-.1-.5-.2s-.1-.3-.1-.6v-1.4h.6a.37.37,0,0,1,.3.1l.1.1.9,1.4a1.71,1.71,0,0,0,1.2.8c.4,0,.6-.1.6-.2Zm-2.9-2.6h-.6v-1.8a.27.27,0,0,1,.3-.3,1.2,1.2,0,0,1,1.3,1.1C147.5,122.18,147.2,122.48,146.5,122.48Z"/><path class="a" d="M392.1,100.18a4.12,4.12,0,0,0-3.4,1.6,4.37,4.37,0,0,0,0,5.8,4.12,4.12,0,0,0,3.4,1.6,4.38,4.38,0,0,0,3.2-1.3,4.22,4.22,0,0,0,1.3-3.2,4.38,4.38,0,0,0-1.3-3.2A4.22,4.22,0,0,0,392.1,100.18Zm2.9,7.3a4,4,0,1,1-2.8-6.8,3.63,3.63,0,0,1,2.8,1.2,3.78,3.78,0,0,1,1.2,2.8A4.74,4.74,0,0,1,395,107.48Z"/><path class="a" d="M394.8,107h-.1c-.3,0-.5-.2-.8-.7l-.1-.2-1-1.5a1.48,1.48,0,0,0,.9-1.3c0-.9-.6-1.3-1.8-1.3h-1.7c-.1,0-.2,0-.2.1s.1.1.2.1h.2c.2,0,.4.2.4.6v3.1c0,.4,0,.7-.1.8a1.38,1.38,0,0,1-.4.3.1.1,0,0,0-.1.1c0,.1.1.1.2.1h1.8c.1,0,.2,0,.2-.1s-.1-.1-.2-.1c-.3,0-.5-.1-.5-.2s-.1-.3-.1-.6v-1.4h.6a.37.37,0,0,1,.3.1l.1.1.9,1.4a1.71,1.71,0,0,0,1.2.8c.4,0,.6-.1.6-.2A.69.69,0,0,1,394.8,107Zm-2.9-2.5h-.6v-1.8a.27.27,0,0,1,.3-.3,1.2,1.2,0,0,1,1.3,1.1C392.9,104.18,392.6,104.48,391.9,104.48Z"/></svg>