<svg id="Layer_1" data-name="Layer 1" xmlns="http://www.w3.org/2000/svg" viewBox="0 0 57 51"><title>icon-vitality</title><path d="M28.5,51l-1.23-.87C26.15,49.36,0,30.78,0,15.46,0,6.21,5.94,0,14.78,0,19.5,0,24.4,2.35,28.5,6.52,32.6,2.35,37.5,0,42.22,0,51.06,0,57,6.21,57,15.46c0,15.32-26.15,33.9-27.27,34.68ZM14.78,4.12C7,4.12,4.22,10,4.22,15.46c0,10.38,16.49,24.7,24.28,30.44,7.78-5.74,24.28-20.06,24.28-30.44C52.78,10,50,4.12,42.22,4.12c-3.69,0-7.63,2-11,5.6,2.85,3.88,4.57,8.22,4.67,11.87a8.58,8.58,0,0,1-2.43,6.2,6.87,6.87,0,0,1-9.91,0,8.59,8.59,0,0,1-2.44-6.2c.11-3.66,1.83-8,4.67-11.87C22.41,6.14,18.47,4.12,14.78,4.12Zm13.72,9a17.59,17.59,0,0,0-3.17,8.56,4.5,4.5,0,0,0,1.24,3.21,2.6,2.6,0,0,0,3.85,0,4.49,4.49,0,0,0,1.24-3.21A17.58,17.58,0,0,0,28.5,13.15Z" fill="#fff"/></svg>