<svg xmlns="http://www.w3.org/2000/svg" viewBox="0 0 15.33 19.02"><title>icon-pinterest</title><path d="M3.29,18.73a11.53,11.53,0,0,1,0-3.45c.22-.94,1.41-6,1.41-6a4.33,4.33,0,0,1-.36-1.78c0-1.67,1-2.91,2.17-2.91A1.51,1.51,0,0,1,8.07,6.31a24.17,24.17,0,0,1-1,4,1.74,1.74,0,0,0,1.78,2.17c2.13,0,3.77-2.25,3.77-5.5a4.74,4.74,0,0,0-5-4.88A5.19,5.19,0,0,0,2.19,7.31,4.67,4.67,0,0,0,3.09,10a.36.36,0,0,1,.08.34l-.33,1.36c-.05.22-.17.27-.4.16C.94,11.21,0,9,0,7.26,0,3.48,2.75,0,7.93,0c4.16,0,7.4,3,7.4,6.93,0,4.14-2.61,7.46-6.23,7.46A3.21,3.21,0,0,1,6.35,13L5.6,15.87A13.41,13.41,0,0,1,4.11,19Z" /></svg>
