<svg xmlns="http://www.w3.org/2000/svg" viewBox="0 0 97.45 68.54"><title>Untitled-2</title><path d="M97.75,30.52s-1-6.72-3.87-9.67C90.17,17,86,16.94,84.11,16.72c-13.64-1-34.09-1-34.09-1h0s-20.46,0-34.09,1C14,16.94,9.83,17,6.12,20.84c-2.92,3-3.87,9.67-3.87,9.67a147.37,147.37,0,0,0-1,15.77v7.39a147.37,147.37,0,0,0,1,15.77s1,6.72,3.87,9.67C9.83,83,14.7,82.88,16.87,83.29c7.8,0.75,33.13,1,33.13,1s20.48,0,34.11-1C86,83,90.17,83,93.88,79.13c2.92-3,3.87-9.67,3.87-9.67a147.59,147.59,0,0,0,1-15.77V46.29A147.59,147.59,0,0,0,97.75,30.52ZM39.94,62.64V35.26L66.27,49Z" transform="translate(-1.28 -15.73)" fill="#282928"/></svg>