<?xml version="1.0" encoding="utf-8"?>
<!-- Generator: Adobe Illustrator 21.0.2, SVG Export Plug-In . SVG Version: 6.00 Build 0)  -->
<svg version="1.1" id="Layer_1" xmlns="http://www.w3.org/2000/svg" xmlns:xlink="http://www.w3.org/1999/xlink" x="0px" y="0px"
	 viewBox="0 0 1061.9 228.6" style="enable-background:new 0 0 1061.9 228.6;" xml:space="preserve">
<style type="text/css">
	.st0{fill:#FFFFFF;}
</style>
<title>Seventh-day Adventist Church</title>
<g>
	<path class="st0" d="M67.7,120.4c-0.1-9.9,2.8-18.4,20.8-36.4l39-39c10.4-10.4,19.1-19.3,19.1-29V0.7c0-0.9-1.1-0.9-1.2,0
		c-2.6,12.4-7.5,17.3-17.8,27.6L82.3,73.5c-17.1,17-19.5,35.1-15.8,46.9C66.8,121.4,67.7,121.5,67.7,120.4z"/>
	<path class="st0" d="M131.9,159.3c0,0.9,1,0.9,1.2,0c2.6-12.5,7.6-17.4,17.8-27.6l15.1-14.9c19.8-19.9,10.7-39-0.9-44.3
		c-1-0.5-1.4,0.3-0.6,1c9.3,8,6.5,21.5-5.2,33.2L151,115c-10.4,10.3-19.1,19.2-19.1,29V159.3z"/>
	<path class="st0" d="M213.7,185.9l-45.7-7.7l-17.1,17.1c-10.4,10.4-19,19.3-19,29v2.7c0,0.7,0.9,0.9,1.2,0.1
		c3.2-8.7,13.9-18.1,33.5-14.8c0,0,85.4,14.8,86.1,14.8c0.4,0.1,0.9-0.2,1-0.6c0.1-0.3,0-0.6-0.2-0.8
		C253.2,225.3,213.7,185.9,213.7,185.9z"/>
	<path class="st0" d="M106.2,186.9h15c0.3,0,0.6-0.3,0.6-0.6c0-7.9-6-13.3-30-9.2L40,186c0,0-39.4,39.4-39.7,39.8
		c-0.3,0.3-0.4,0.8-0.1,1.1c0.2,0.2,0.5,0.3,0.8,0.2c0.7-0.1,86.1-14.8,86.1-14.8c19.6-3.3,30.3,6,33.5,14.8
		c0.3,0.8,1.2,0.7,1.2-0.1v-29.5c0-0.3-0.3-0.6-0.6-0.6l-15,0.1c-0.3,0-0.6-0.3-0.6-0.6v-8.9C105.6,187.2,105.9,186.9,106.2,186.9z"
		/>
	<path class="st0" d="M133,212.8c1-5.8,3.4-11.2,6.9-15.8h-7.5c-0.3,0-0.6,0.3-0.6,0.6v15.2C131.8,213.7,132.9,213.7,133,212.8z"/>
	<path class="st0" d="M146.6,54.2c0-0.9-1.1-0.9-1.2,0c-2.6,12.4-7.5,17.3-17.8,27.6l-39.8,39.7c-19.8,19.8-10.7,39,0.9,44.3
		c1,0.5,1.4-0.4,0.6-1c-9.3-8-6.5-21.6,5.2-33.2l33-33c10.4-10.4,19.1-19.3,19.1-29V54.2z"/>
	<path class="st0" d="M127.5,71.7c10.4-10.3,19-19.2,19.1-29V27.3c0-0.9-1.1-0.9-1.2,0c-2.6,12.4-7.5,17.4-17.8,27.7L86.7,95.8
		c-19.8,19.8-23.3,39-13.2,51.4c0.7,0.8,1.4,0.3,1-0.7c-6.7-15.1,9.3-31.1,16.9-38.7L127.5,71.7z"/>
	<path class="st0" d="M165.1,154.2l-14.3,14.2c-6.5,6.5-12.3,12.4-15.8,18.4h14.1l1.7-1.7l20.5-20.5c17.1-16.9,19.5-35,15.8-46.8
		c-0.3-1-1.2-1.1-1.2,0C186,127.7,183.1,136.2,165.1,154.2z"/>
	<path class="st0" d="M162.3,130.2l-11.4,11.5c-10.4,10.4-19.1,19.4-19.1,29.1v15.3c0,0.9,1.1,0.9,1.2,0
		c2.6-12.4,7.5-17.4,17.8-27.7l16.2-16.2c19.8-19.8,23.3-39,13.2-51.4c-0.7-0.8-1.4-0.3-1,0.7C185.9,106.6,169.9,122.6,162.3,130.2z
		"/>
	<path class="st0" d="M330.6,118.3c-7.3,0-13.5-1.6-16.5-2.9l-2.7,7.1c4.3,2.1,11.1,3.3,18.8,3.3c15,0,24.4-7,24.4-19.2
		c0-10.7-6.6-15.2-18.7-19.7C324.8,82.8,321,80,321,73.1c0-6,4.4-10,12.9-10c5.6,0.1,11.1,1.3,16.2,3.6l2.8-7.4
		c-5.9-2.6-12.3-3.9-18.8-3.8c-12.9,0-21.8,6.6-21.8,17.4c0,10.6,5.9,16.1,17.6,20.3c12.4,4.5,16.1,7.3,16.1,14.1
		C346,114.1,340.7,118.3,330.6,118.3z"/>
	<path class="st0" d="M406.1,122.5l-2.4-6.3c-4.5,1.7-9.3,2.5-14.1,2.5c-10.3,0-16.1-6.2-16.4-17.8h35.1v-5.1
		c0-14-8.1-23.2-21.1-23.2c-13.6,0-22.7,10.1-22.7,27c0,17.1,10,26.2,24.7,26.2C395,126,400.8,124.9,406.1,122.5z M387,79.4
		c8.6,0,12.4,6,12.5,14.7h-26.2C374.2,84.9,379,79.5,387,79.4z"/>
	<path class="st0" d="M440.3,124.8l19.5-51.3h-9l-10.9,30.3c-1.4,4.1-3.6,10.4-4.3,13.6h-0.4c-1.1-4.6-2.4-9.2-4.1-13.6l-10.9-30.3
		h-9l19.4,51.3H440.3z"/>
	<path class="st0" d="M489.9,125.8c5.8,0.2,11.6-0.9,16.9-3.3l-2.4-6.3c-4.5,1.7-9.3,2.5-14.1,2.5c-10.3,0-16.1-6.2-16.4-17.8H509
		v-5.1c0-14-8-23.2-21.1-23.2c-13.6,0-22.7,10.1-22.7,27C465.2,116.7,475.2,125.8,489.9,125.8z M487.6,79.4c8.6,0,12.4,6,12.5,14.7
		H474C474.9,84.9,479.7,79.5,487.6,79.4z"/>
	<path class="st0" d="M557,92v32.9h8.4V91.5c0-13.3-6.4-18.9-18.6-19c-6.5,0-12.9,2.6-16.2,8h-0.5l-1.2-7h-6.8v51.3h8.4V98.2
		c0-12,3.6-18.6,15-18.6C553.4,79.6,557,83.8,557,92z"/>
	<path class="st0" d="M601.6,117.7c-1.8,0.7-3.8,1.2-5.8,1.2c-4.7,0-8-3-8-9.2V80h14.9v-6.5h-14.8V61.7l-8.4,3.2v45
		c0,12.5,7,15.9,15,15.9c3.9,0,7.6-0.9,9.4-2.1L601.6,117.7z"/>
	<path class="st0" d="M656.7,124.9V91.5c0-13.1-6.3-18.8-18.8-18.8c-6.6,0-12.7,2.7-16,8h-0.6c0.3-2.4,0.5-4.8,0.5-7.2l0.1-21.5
		l-8.4,3.2v69.6h8.4V98.3c0-12,3.5-18.7,15-18.7c7.9,0,11.5,4.2,11.5,12.4v32.9H656.7z"/>
	<polygon class="st0" points="667.5,95.5 670.4,103 693.6,103 690.7,95.5 	"/>
	<path class="st0" d="M737.6,72.6c0,1.9,0.4,6,0.6,7.6h-0.6c-3.2-4.3-7.9-7.6-15.9-7.6c-12.8,0-21.2,9.1-21.2,26.7
		c0,17.6,8.4,26.5,21.1,26.5c8,0,12.9-3.4,16-7.8h0.4l1.2,6.8h6.8V52l-8.4,3.3V72.6z M737.7,100.9c0,12-4,17.9-14.7,17.9
		c-9.2,0-13.7-7.2-13.7-19.3c0-12.1,4.5-19.9,13.6-19.9c11.3,0,14.8,7.1,14.8,19.8V100.9z"/>
	<path class="st0" d="M774.8,125.8c8.6,0,12.7-2.5,17.2-8.2h0.4l1.6,7.3h6.1v-35c0-12-5.9-17.2-18.4-17.3c-6.1,0-12.1,1.6-17.5,4.4
		l2.6,6.3c4.3-2,9.1-3.9,14.5-3.9c6.7,0,10.6,2.9,10.6,11.4v3.1l-8.7,0.3c-16.8,0.5-24.6,6.2-24.6,16.4
		C758.6,121,765.5,125.8,774.8,125.8z M784.2,100.1l7.5-0.4v4.6c0,10-6.5,14.7-15.1,14.7c-5.6,0-9.4-2.5-9.4-8.3
		C767.2,104.2,771.4,100.6,784.2,100.1z"/>
	<path class="st0" d="M826,131.9c-2.1,5.6-3.8,7.4-7.7,9.2l2.6,6.8c6.8-2.7,10.1-6.2,13.7-15.9l22.1-58.5h-9.1l-10.4,29.1
		c-1.8,5.3-3.6,10.9-4.4,14.1h-0.4c-1-4.8-2.5-9.5-4.3-14L817,73.5h-9l20.7,51.6L826,131.9z"/>
	<path class="st0" d="M333.3,159.1l-26.7,68.6h8.7l8.1-21.2h27.1l8.2,21.3h8.9L341,159.1H333.3z M326.2,198.8l7.8-20.7
		c0.8-2.2,2-6.3,3-10.2c0.7,2.3,2.7,8.7,3.3,10.2l7.5,20.7H326.2z"/>
	<path class="st0" d="M410.1,175.3c0,2,0.4,6,0.6,7.6h-0.6c-3.2-4.2-7.9-7.6-15.9-7.6c-12.8,0-21.2,9.1-21.2,26.7
		c0,17.6,8.4,26.6,21.1,26.5c8,0,12.9-3.5,16-7.9h0.4l1.2,6.9h6.8v-72.8l-8.4,3.3V175.3z M410.2,203.6c0,12-4,17.9-14.8,18
		c-9.2,0-13.7-7.3-13.7-19.4s4.5-19.9,13.6-19.9c11.4,0,14.9,7.1,14.9,19.8V203.6z"/>
	<path class="st0" d="M455.4,206.4c-1.4,4.1-3.6,10.4-4.3,13.6h-0.4c-1.1-4.6-2.4-9.2-4.1-13.6l-10.9-30.2h-9l19.4,51.2h9.7
		l19.5-51.3h-9L455.4,206.4z"/>
	<path class="st0" d="M503.3,175.4c-13.6,0-22.7,10.1-22.7,27c0,17.1,10,26.2,24.7,26.2c5.8,0.1,11.6-1,16.9-3.4l-2.4-6.3
		c-4.5,1.7-9.3,2.5-14.1,2.5c-10.3,0-16.1-6.2-16.4-17.8h35.2v-5.1C524.5,184.5,516.4,175.3,503.3,175.4z M489.5,196.8
		c0.9-9.1,5.7-14.6,13.7-14.6c8.6,0,12.4,5.9,12.5,14.6H489.5z"/>
	<path class="st0" d="M562.3,175.3c-6.5,0-12.9,2.6-16.2,8h-0.5l-1.2-7h-6.8v51.3h8.4V201c0-12,3.6-18.6,15-18.6
		c7.9,0,11.5,4.2,11.5,12.4v32.8h8.3v-33.4C580.8,180.9,574.5,175.3,562.3,175.3z"/>
	<path class="st0" d="M611.2,221.6c-4.7,0-8-3-8-9.2v-29.7h14.9v-6.5h-14.8v-11.8l-8.4,3.2v45c0,12.5,7,15.9,15,15.9
		c3.9,0,7.6-1,9.4-2.1l-2.3-6C615.2,221.2,613.2,221.6,611.2,221.6z"/>
	<rect x="628.8" y="176.3" class="st0" width="8.4" height="51.3"/>
	<path class="st0" d="M633.1,157c-2.8,0-5,1.7-5,5.4s2.2,5.4,5,5.4c2.6,0,4.9-1.8,4.9-5.4C638,158.6,635.7,157,633.1,157z"/>
	<path class="st0" d="M671.5,198.2c-9.9-3.8-13.2-5.5-13.2-9.8c0-3.8,3.7-6.2,10.6-6.2c5,0.2,9.9,1.3,14.4,3.4l2.6-6.8
		c-5.2-2.3-10.7-3.5-16.4-3.5c-11.4,0-19.2,4.9-19.2,13.6c0,8.4,5.9,11.4,15.9,15.3c10,3.9,12.6,6.2,12.6,10c0,4.6-3.7,7.6-12.2,7.6
		c-4.8-0.1-9.4-1.2-13.8-3l-2.5,6.5c3.9,2.2,8.9,3.3,16.1,3.3c12.6,0,20.5-5.2,20.5-15.2C686.9,205.2,681.4,202,671.5,198.2z"/>
	<path class="st0" d="M713.7,221.7c-4.7,0-8-3-8-9.2v-29.7h14.8v-6.5h-14.8v-11.8l-8.4,3.1v45c0,12.5,7,15.9,15,15.9
		c3.9,0,7.6-1,9.4-2.1l-2.3-6C717.6,221.2,715.6,221.6,713.7,221.7z"/>
	<path class="st0" d="M786.5,221c-15.8,0-23.6-10.6-23.6-27.6c0-17.2,9-27.6,23.6-27.5c5.4,0.1,10.7,1.3,15.5,3.7l2.9-7.6
		c-5.2-2.6-11.3-3.7-18.3-3.7c-21.1,0-32.8,14.4-32.8,35.1c0,21.5,10.4,35.2,31.4,35.2c8.7,0,13.7-0.9,21.4-4.4l-2.5-6.6
		C799.7,219.7,792.4,221,786.5,221z"/>
	<path class="st0" d="M841.1,175.3c-6.6,0-12.7,2.7-16,8h-0.6c0.3-2.4,0.5-4.8,0.5-7.2l0.1-21.4l-8.4,3.2v69.6h8.4V201
		c0-12,3.5-18.7,15-18.7c7.9,0,11.5,4.2,11.5,12.4v32.8h8.3v-33.4C859.9,180.9,853.6,175.3,841.1,175.3z"/>
	<path class="st0" d="M910.2,176.3V203c0,12-3.7,18.6-15.1,18.6c-7.8,0-11.4-4.1-11.4-12.3v-33h-8.5v33.6c0,13.1,6.3,18.7,18.7,18.7
		c6.6,0,13-2.4,16.3-7.8h0.4l1.2,6.8h6.8v-51.3H910.2z"/>
	<path class="st0" d="M959,175.4c-7.2,0-12.5,4.7-15.7,10.3h-0.4l-1-9.4H935v51.3h8.4v-27.4c0-10.3,6.9-17.2,14.9-17.2
		c1.9,0.1,3.8,0.3,5.6,0.7l1-7.8C963,175.5,961,175.3,959,175.4z"/>
	<path class="st0" d="M993.5,182.7c3.8,0.2,7.5,1,11.1,2.4l2.7-7c-4.3-1.9-8.9-2.8-13.6-2.8c-13.8,0-24,7.9-24,26.9
		c0,18.2,9.8,26.4,23.5,26.4c5.9,0,11-1.3,13.9-3.1l-2.6-6.7c-3.6,1.7-7.5,2.5-11.4,2.5c-9.7,0-14.7-6.8-14.7-19.2
		C978.4,189.3,983.3,182.7,993.5,182.7z"/>
	<path class="st0" d="M1043.1,175.3c-6.6,0-12.7,2.7-16,8h-0.6c0.3-2.4,0.5-4.8,0.5-7.2l0.1-21.4l-8.4,3.2v69.6h8.4V201
		c0-12,3.5-18.7,15-18.7c7.9,0,11.5,4.2,11.5,12.4v32.8h8.3v-33.4C1061.9,180.9,1055.5,175.3,1043.1,175.3z"/>
	<path class="st0" d="M245.8,198.4h1.1l1.7,3h1.5l-2-3.3c0.7-0.3,1.3-0.9,1.3-2c0-1.5-0.8-2.2-2.7-2.2h-2.2v7.5h1.3V198.4z
		 M245.8,194.9h0.8c1,0,1.4,0.3,1.4,1.2c0,0.7-0.5,1.2-1.4,1.2h-0.9V194.9z"/>
	<path class="st0" d="M246.8,203.9c3.7,0,6.3-2.7,6.3-6.3c0-3.7-2.8-6.3-6.3-6.3c-3.7,0-6.3,2.7-6.3,6.3
		C240.5,201.2,243.1,203.9,246.8,203.9z M246.8,192.2c3.1,0,5.3,2.4,5.3,5.4c0,3.2-2.4,5.4-5.3,5.4c-3.1,0-5.4-2.4-5.4-5.4
		C241.5,194.4,243.7,192.2,246.8,192.2z"/>
</g>
</svg>
