<svg xmlns="http://www.w3.org/2000/svg" viewBox="0 0 226.82 196.6"><title>sda-logo--square</title><path d="M103.65,107.34h7.26V106.9c0-5.08-2.32-8.85-18.43-6l-26.56,4.79L50.67,127l36.72-6.59c11-1.89,20.61-2.32,23.66,6.39V112.42h-7.4v-5.08Z" transform="translate(-1.99 -11.49)" fill="#fff"/><path d="M134.12,101l-5.81,5.81c-8.42,8.42-12.48,13.06-12.48,20,3.19-9.14,13.35-8.42,25.11-6l35.27,6.1L161,105.8Z" transform="translate(-1.99 -11.49)" fill="#fff"/><path d="M128.9,93.32c-3.34,3.19-9,8.42-11.61,14.08h6l6.82-6.82c6.24-6.24,11-11,13.06-17a21.47,21.47,0,0,0,1.16-10.88,6.81,6.81,0,0,0-.73-2.47C143,77.06,141.09,81.13,131.22,91Z" transform="translate(-1.99 -11.49)" fill="#fff"/><path d="M108.14,44.93L95.37,57.7C88.7,64.52,83.18,71.78,83.91,79.76c0.44,4.5,1.89,7,2.9,7.69,0.58,0.44.44,0.15,0.29-.15-3.92-8.85,5.37-18,10-22.64l13.35-13.35c3.63-3.48,12.77-11.76,12.77-18.87V24.61c0-.15-0.15,0-0.15,0C122.37,30,121.21,32.36,108.14,44.93Z" transform="translate(-1.99 -11.49)" fill="#fff"/><path d="M123.24,38.31c0-.15-0.15,0-0.15,0-0.58,5.37-1.89,7.55-14.8,20.46l-11.9,11.9C92,75,88.12,79.53,88.26,86.79c0.15,4.5,2.32,8.13,5.81,9,1.45,0.29,1.31.15,1,0-4.79-2.32-4.5-10.88,3.34-18.58l12-12.19c3.63-3.63,12.77-11.76,12.77-18.87V38.31Z" transform="translate(-1.99 -11.49)" fill="#fff"/><path d="M83.18,73.87C83.76,67,85.65,63,95.52,53.12l14.8-14.8c3.63-3.48,12.77-11.76,12.77-18.87v-7.9c0-.15-0.15,0-0.15,0-0.58,5.22-1.89,7.55-14.8,20.46L96.68,43.48c-6.24,6.24-11,11-13.06,17a21.46,21.46,0,0,0-1.16,10.88A6.81,6.81,0,0,0,83.18,73.87Z" transform="translate(-1.99 -11.49)" fill="#fff"/><path d="M115.84,120.31H116a16.39,16.39,0,0,1,3.19-7.84h-3.34v7.84Z" transform="translate(-1.99 -11.49)" fill="#fff"/><path d="M131.22,77.5l-3.77,3.72c-5.81,5.66-11.61,12.19-11.61,18.14v8H116c0.73-5.81,3.48-9.58,11.9-17.85L131.37,86c6.68-6.82,12.19-14.08,11.47-22.06-0.44-4.5-1.89-7-2.9-7.69-0.58-.44-0.44-0.15-0.29.15C143.56,65.25,134.27,74.45,131.22,77.5Z" transform="translate(-1.99 -11.49)" fill="#fff"/><path d="M115.84,93.61H116c0.73-5.51,3.77-9.72,11.18-17l3.48-3.48c4.21-4.35,8.13-8.85,8-16.11-0.15-4.35-2.47-8.13-5.81-9-1.45-.29-1.31-0.15-1,0,4.79,2.18,4.35,10.88-3.34,18.58l-4.21,4.21c-2.76,2.76-8.42,9-8.42,14.66v8.13Z" transform="translate(-1.99 -11.49)" fill="#fff"/><path d="M179.26,112.91a2.9,2.9,0,0,0-2.18-.87,2.64,2.64,0,0,0-2.32,1.16,3.47,3.47,0,0,0-.73,2,3.06,3.06,0,0,0,.73,1.89,2.9,2.9,0,0,0,2.32,1A3.08,3.08,0,0,0,179.26,112.91Zm-0.17,3.77H179a0.78,0.78,0,0,1-.58-0.44l-0.15-.2-0.73-1a6.31,6.31,0,0,0,.87-1c0-.58-0.29-0.87-1.16-0.87h-1.16a0.15,0.15,0,0,0-.15.15c0,0.15,0,.15.15,0.15h0.15a0.36,0.36,0,0,1,.29.42h0v2c0,0.29.15,0.58,0,.58s-0.15.15-.29,0.15l-0.15.15c0,0.15,0,.15.15,0.15h1.16a0.15,0.15,0,0,0,.15-0.15c0-.15,0-0.15-0.15-0.15a0.51,0.51,0,0,1-.29-0.15,0.54,0.54,0,0,1-.15-0.44v-0.87h0.29l0.15,0.15,0.58,1a1.07,1.07,0,0,0,.81.57,2.9,2.9,0,0,1-1.68.6,2.41,2.41,0,0,1-1.89-.73,3.06,3.06,0,0,1-.73-1.89,2.41,2.41,0,0,1,.73-1.89,3.06,3.06,0,0,1,1.89-.73,2.48,2.48,0,0,1,2.61,2.34,2.52,2.52,0,0,1,0,.27A2.42,2.42,0,0,1,179.08,116.68Zm-2.58-2.9v-0.15c0-.15.15-0.15,0.29-0.15a1.1,1.1,0,0,1,.58.29,0.75,0.75,0,0,1,.29.58,0.58,0.58,0,0,1-.56.6l-0.16,0h-0.29c-0.15,0-.15-0.15,0,0Z" transform="translate(-1.99 -11.49)" fill="#fff"/><path d="M9,184.8H3l6.63-36h7.68l6.63,36H18l-1.09-8H10.1Zm2-13.36h5L13.55,156h-0.1Z" transform="translate(-1.99 -11.49)" fill="#fff"/><path d="M28.15,154.2v-5.38H44.51v5.88L33.14,179.42H44.51v5.38H26.76v-5.88L38.27,154.2H28.15Z" transform="translate(-1.99 -11.49)" fill="#fff"/><path d="M49.69,148.81h6.18V176c0,2.64,1,3.94,3.29,3.94s3.29-1.3,3.29-3.94V148.81h6.18v26.92c0,6.18-3.59,9.57-9.47,9.57s-9.47-3.39-9.47-9.57V148.81Z" transform="translate(-1.99 -11.49)" fill="#fff"/><path d="M80.79,184.8H74.61v-36h8.67c6.93,0,10.47,2.94,10.47,10.62,0,5.78-2.26,8.12-4.34,9.06l5.23,16.3H88.36L84,169.9a29.85,29.85,0,0,1-3.19.15V184.8Zm0-19.84H83c3.34,0,4.59-1.25,4.59-5.53S86.33,153.9,83,153.9h-2.2V165Z" transform="translate(-1.99 -11.49)" fill="#fff"/><path d="M99.54,184.8v-36h16.55v5.38H105.72v9.28h8v5.38h-8v10.57h11.07v5.38H99.54Z" transform="translate(-1.99 -11.49)" fill="#fff"/><path d="M132.74,184.8v-36h6.18v14.66h6.58V148.81h6.18v36h-6.18V168.85h-6.59V184.8h-6.17Z" transform="translate(-1.99 -11.49)" fill="#fff"/><path d="M158.51,184.8v-36h6.18v36h-6.18Z" transform="translate(-1.99 -11.49)" fill="#fff"/><path d="M171.22,184.8v-36h6.18v30.61h9.72v5.38h-15.9Z" transform="translate(-1.99 -11.49)" fill="#fff"/><path d="M190.61,184.8v-36h6.18v30.61h9.75v5.38H190.61Z" transform="translate(-1.99 -11.49)" fill="#fff"/><path d="M221.57,157.69c-0.25-3.09-1.89-4-3.29-4-2,0-3.09,1.3-3.09,3.54,0,6.13,12.56,9.06,12.56,18.87,0,5.93-4,9.22-9.77,9.22s-9.06-4.59-9.27-10l5.88-.85c0.25,3.64,1.7,5.43,3.69,5.43,2.14,0,3.59-1.15,3.59-3.29,0-7.13-12.56-9.06-12.56-19.34,0-5.77,3.48-9,9.56-9,5,0,8.05,3.64,8.57,8.73Z" transform="translate(-1.99 -11.49)" fill="#fff"/><path d="M6.86,197.63a1.36,1.36,0,0,0-1.25-1.51,1.15,1.15,0,0,0-1.17,1.34c0,2.32,4.76,3.43,4.76,7.13,0,2.26-1.51,3.49-3.7,3.49S2.09,206.34,2,204.3L4.22,204c0.1,1.38.64,2.05,1.4,2.05A1.2,1.2,0,0,0,7,204.79c0-2.69-4.76-3.41-4.76-7.32,0-2.17,1.32-3.4,3.62-3.4,1.9,0,3,1.37,3.25,3.3Z" transform="translate(-1.99 -11.49)" fill="#fff"/><path d="M11,207.89V194.31h6.27v2H13.31v3.51h3v2h-3v4H17.5v2H11v0Z" transform="translate(-1.99 -11.49)" fill="#fff"/><path d="M24.12,194.27h2.26l-2.85,13.59h-2.3l-2.85-13.59h2.26l1.71,9.45h0Z" transform="translate(-1.99 -11.49)" fill="#fff"/><path d="M27.73,207.89V194.31H34v2H30.07v3.51h3v2h-3v4h4.19v2H27.73v0Z" transform="translate(-1.99 -11.49)" fill="#fff"/><path d="M36.11,207.89V194.31h2.17l2.85,7.75h0v-7.79h2.11v13.59h-2l-3-8.48h0v8.51H36.11Z" transform="translate(-1.99 -11.49)" fill="#fff"/><path d="M46.9,196.31H44.64v-2h6.87v2H49.24v11.59H46.9V196.31Z" transform="translate(-1.99 -11.49)" fill="#fff"/><path d="M52.88,207.89V194.31h2.34v5.55h2.49v-5.59h2.34v13.59H57.71v-6H55.22v6H52.88v0Z" transform="translate(-1.99 -11.49)" fill="#fff"/><path d="M62,203.68v-1.74h4.62v1.74H62Z" transform="translate(-1.99 -11.49)" fill="#fff"/><path d="M68.6,194.27h3.47c2.42,0,3.7,1.32,3.7,4.11v5.4c0,2.79-1.28,4.11-3.7,4.11H68.6V194.27ZM70.94,206h0.82c1.25,0,1.68-.47,1.68-1.9v-5.93c0-1.43-.44-1.9-1.68-1.9H70.94V206Z" transform="translate(-1.99 -11.49)" fill="#fff"/><path d="M79.4,207.89H77.13l2.51-13.59h2.91l2.51,13.59H82.79l-0.42-3H79.81Zm0.75-5.06H82L81.08,197h0Z" transform="translate(-1.99 -11.49)" fill="#fff"/><path d="M89.6,207.89H87.29v-5.66l-2.83-8h2.38l1.64,5.19h0l1.56-5.19h2.38l-2.83,8v5.66h0Z" transform="translate(-1.99 -11.49)" fill="#fff"/><path d="M99.3,207.89H97l2.51-13.59h2.91L105,207.89h-2.26l-0.42-3H99.71Zm0.75-5.06h1.89L101,197h0Z" transform="translate(-1.99 -11.49)" fill="#fff"/><path d="M106.32,194.27h3.47c2.42,0,3.7,1.32,3.7,4.11v5.4c0,2.79-1.28,4.11-3.7,4.11h-3.47V194.27Zm2.34,11.7h0.82c1.25,0,1.68-.47,1.68-1.9v-5.93c0-1.43-.44-1.9-1.68-1.9h-0.82V206Z" transform="translate(-1.99 -11.49)" fill="#fff"/><path d="M120.5,194.27h2.26l-2.85,13.59h-2.34l-2.85-13.59H117l1.7,9.45h0Z" transform="translate(-1.99 -11.49)" fill="#fff"/><path d="M124.14,207.89V194.31h6.27v2h-3.93v3.51h3v2h-3v4h4.19v2h-6.53v0Z" transform="translate(-1.99 -11.49)" fill="#fff"/><path d="M132.51,207.89V194.31h2.17l2.85,7.79h0v-7.83h2.11v13.59h-2l-3-8.51h0v8.54h-2.11Z" transform="translate(-1.99 -11.49)" fill="#fff"/><path d="M143.31,196.31H141v-2h6.87v2h-2.26v11.59h-2.34V196.31Z" transform="translate(-1.99 -11.49)" fill="#fff"/><path d="M149.61,207.89V194.31H152v13.59h-2.34Z" transform="translate(-1.99 -11.49)" fill="#fff"/><path d="M158.81,197.63a1.36,1.36,0,0,0-1.25-1.51,1.15,1.15,0,0,0-1.17,1.34c0,2.32,4.76,3.43,4.76,7.13,0,2.26-1.51,3.49-3.7,3.49s-3.41-1.74-3.51-3.77l2.23-.32c0.1,1.38.64,2.05,1.4,2.05a1.2,1.2,0,0,0,1.36-1.25c0-2.69-4.76-3.41-4.76-7.32,0-2.17,1.32-3.4,3.62-3.4,1.9,0,3,1.37,3.25,3.3Z" transform="translate(-1.99 -11.49)" fill="#fff"/><path d="M164.28,196.31H162v-2h6.87v2h-2.26v11.59h-2.34V196.31Z" transform="translate(-1.99 -11.49)" fill="#fff"/><path d="M179.16,198.82v-1.06c0-1.15-.53-1.64-1.13-1.64-0.94,0-1.25.49-1.25,1.51v6.91c0,1,.3,1.51,1.25,1.51s1.13-.49,1.13-1.37V203h2.34v1.56a3.24,3.24,0,0,1-3.47,3.49,3.27,3.27,0,0,1-3.59-3.49v-7a3.27,3.27,0,0,1,3.59-3.49c2.45,0,3.47,1.7,3.47,3.74v1h-2.34Z" transform="translate(-1.99 -11.49)" fill="#fff"/><path d="M183.9,207.89V194.31h2.34v5.55h2.49v-5.59h2.34v13.59h-2.34v-6h-2.49v6H183.9v0Z" transform="translate(-1.99 -11.49)" fill="#fff"/><path d="M193.32,194.27h2.34v10.28c0,1,.4,1.51,1.25,1.51s1.25-.49,1.25-1.51V194.27h2.36v10.19a3.59,3.59,0,1,1-7.17,0V194.27h0Z" transform="translate(-1.99 -11.49)" fill="#fff"/><path d="M205.09,207.89h-2.32V194.31h3.28c2.62,0,4,1.11,4,4,0,2.19-.85,3.07-1.64,3.43l1.94,6.14h-2.38l-1.66-5.64a11.32,11.32,0,0,1-1.21.05v5.59h0Zm0-7.51h0.83c1.26,0,1.74-.47,1.74-2.09s-0.47-2.09-1.74-2.09h-0.83v4.18Z" transform="translate(-1.99 -11.49)" fill="#fff"/><path d="M216.9,198.82v-1.06c0-1.15-.53-1.64-1.13-1.64-0.94,0-1.25.49-1.25,1.51v6.91c0,1,.3,1.51,1.25,1.51s1.13-.49,1.13-1.37V203h2.34v1.56a3.24,3.24,0,0,1-3.47,3.49,3.27,3.27,0,0,1-3.59-3.49v-7a3.27,3.27,0,0,1,3.59-3.49c2.45,0,3.47,1.7,3.47,3.74v1H216.9Z" transform="translate(-1.99 -11.49)" fill="#fff"/><path d="M221.64,207.89V194.31H224v5.55h2.49v-5.59h2.34v13.59h-2.34v-6H224v6h-2.34v0Z" transform="translate(-1.99 -11.49)" fill="#fff"/></svg>