<svg xmlns="http://www.w3.org/2000/svg" viewBox="0 0 152.9 145.24"><title>Seventh-Day Adventist Church Logo</title><path d="M105,92.34c0.6,0,1.1.1,1.6,0.1,1.2,0,2.4-.1,4-0.1,3.3,0,6.5,2.5,6.5,5.8,0,4.2-2,7.1-7.1,7.1-0.9,0-1.9-.1-2.8-0.1l-2,.1a0.22,0.22,0,0,1-.2-0.2c0-.4,1.3.1,1.3-1.7v-9c0-1.9-1.5-1.3-1.5-1.8C104.7,92.44,104.8,92.34,105,92.34Zm5.6,12.5c2.6,0,5.1-1.4,5.1-5.7,0-4.1-2.7-6.4-6.2-6.4-1.8,0-1.8.3-1.8,1.2v8.8a2.65,2.65,0,0,0,.1,1.3A4.23,4.23,0,0,0,110.6,104.84Zm9.9-4.6a0.81,0.81,0,0,0-.9.4l-1.2,2.6a1.07,1.07,0,0,0-.2.6c0,1.3,1.3.7,1.3,1.2s-0.3.3-.5,0.3c-0.5,0-1-.1-1.5-0.1s-1,.1-1.5.1a0.22,0.22,0,0,1-.2-0.2c0-.4.9-0.1,1.3-1.2l4.4-9.3c1.1-2.3,1.1-2.6,1.4-2.6a1.27,1.27,0,0,1,.4.6l3.9,9.5a13.27,13.27,0,0,0,.9,2.1c0.6,0.8,1.6.4,1.6,0.9a0.16,0.16,0,0,1-.2.2c-0.8,0-1.5-.1-2.3-0.1-0.5,0-1,.1-1.5.1-0.1,0-.4,0-0.4-0.2,0-.5,1.1-0.2,1.1-0.9a16.69,16.69,0,0,0-.5-1.8l-0.6-1.5a0.85,0.85,0,0,0-.8-0.7h-4Zm3.7-.8c0.4,0,.4-0.1.3-0.3l-1.8-4.4q-0.15-.3-0.3,0l-2,4.5c-0.1.2,0,.3,0.2,0.3h3.6v-0.1Zm3.5-7.1c0.5,0,.8.1,2,0.1,0.6,0,1.1-.1,1.3-0.1s0.4,0,.4.2-0.8.3-.8,0.8a1.91,1.91,0,0,0,.3.8l2.2,3.6a1.4,1.4,0,0,0,.4.4,0.68,0.68,0,0,0,.4-0.4l1.9-3a1.88,1.88,0,0,0,.4-1c0-.9-1.4-0.5-1.4-1,0-.2.2-0.2,0.4-0.2,0.4,0,.9.1,1.3,0.1s1.1-.1,1.6-0.1a0.22,0.22,0,0,1,.2.2,0.42,0.42,0,0,1-.4.3,2.56,2.56,0,0,0-1,1.3l-2.6,4a1.2,1.2,0,0,0-.4.8v4.5c0,1.6,1.5,1.1,1.5,1.6,0,0.2-.1.2-0.4,0.2s-1.3-.1-2-0.1-1.5.1-1.7,0.1a0.16,0.16,0,0,1-.2-0.2c0-.5,1.4,0,1.4-1.3v-4.6a1.88,1.88,0,0,0-.4-0.9l-3.1-4.9c-0.5-.8-1.3-0.5-1.3-0.9C127.4,92.54,127.5,92.34,127.7,92.34Zm-17.6,17.6c1,0,1.9.1,2.9,0.1s1.7-.1,2.5-0.1c0.4,0,.5.1,0.5,0.2,0,0.6-1.9.1-1.9,2v14.4c0,1.9,2.3,1.2,2.3,2,0,0.2-.1.2-0.5,0.2-0.6,0-1.8-.1-2.9-0.1-1.6,0-2.2.1-2.6,0.1s-0.5-.1-0.5-0.4c0-.8,2,0.1,2-2.5v-13.7c0-1.9-2.2-1.4-2.2-2A0.52,0.52,0,0,1,110.1,109.94ZM100,133.54c0.6,0,1.2.1,1.8,0.1s1.1-.1,1.5-0.1,0.3,0.1.3,0.1c0,0.4-1.2.1-1.2,1.3v3.5c0,0.2,0,.3.2,0.3h6c0.2,0,.1-0.4.1-0.5v-3.3c0-1.2-1.2-.9-1.2-1.2a0.25,0.25,0,0,1,.3-0.2c0.5,0,1.4.1,1.7,0.1,0.6,0,.8-0.1,1.2-0.1s0.5,0.1.5,0.2c0,0.3-1.1,0-1.1,1.2v8.6c0,1.2,1.5.9,1.5,1.3a0.22,0.22,0,0,1-.2.2c-0.4,0-.9-0.1-1.5-0.1-1.1,0-1.5.1-1.8,0.1-0.1,0-.3.1-0.3-0.2s1.1-.1,1.1-1.2v-3.9c0-.2.1-0.4-0.1-0.4h-6c-0.2,0-.2.1-0.2,0.3v4c0,1.1,1.5.8,1.5,1.3,0,0.1-.1.1-0.2,0.1s-1.4-.1-2.3-0.1a5.53,5.53,0,0,0-1.4.1,0.22,0.22,0,0,1-.2-0.2c0-.5,1.3.1,1.3-1.6v-8.3c0-1.2-1.5-.9-1.5-1.2S99.8,133.54,100,133.54ZM56.6,98.34c1.9,0,1.4-1.5,1.9-1.5,0.2,0,.2.2,0.2,0.4v3.3a0.16,0.16,0,0,1-.2.2c-0.6,0,.1-1.6-1.5-1.6H54.3c-0.4,0-.4.3-0.4,0.6V103c0,1.1-.1,1.6,1.4,1.6,4.3,0,4.9-1.9,5.1-1.9s0.1,0.2.1,0.2a3.43,3.43,0,0,1-.9,1.8,1.79,1.79,0,0,1-1.8.6c-1.4,0-2.8-.1-4.2-0.1-0.8,0-1.5.1-2.2,0.1a0.25,0.25,0,0,1-.3-0.2,1.45,1.45,0,0,1,.8-0.5c0.5-.2.5-0.8,0.5-1.6v-8.3c0-.8,0-1.7-1-1.9a0.6,0.6,0,0,1-.6-0.3c0-.1.1-0.2,0.6-0.2,3.5,0,4.4.1,5.2,0.1,0.4,0,2-.1,2.6-0.1,0.2,0,.2.2,0.2,0.4,0,2-.2,2.2-0.4,2.2-0.5,0-.1-0.9-0.5-1.3-0.5-.6-2.4-0.5-3.1-0.5-1.8,0-1.8-.1-1.8,1.2v3.4c0,0.6,0,.6.7,0.6h2.3Zm3.7-6c0.3,0,.6.1,0.9,0.1s0.5-.1.8-0.1a1,1,0,0,1,.5.4l8.8,9.7,0.2,0.2a0.35,0.35,0,0,0,.1-0.2v-7.7c0-2.4-2-1.7-2-2.3a0.22,0.22,0,0,1,.2-0.2c0.5,0,1.1.1,1.6,0.1s1.4-.1,1.9-0.1a0.35,0.35,0,0,1,.2.1c0,0.5-1.1.2-1.1,1.5v10.6a1.12,1.12,0,0,1-.1.8,0.91,0.91,0,0,1-.7-0.5l-7.9-8.9c-0.1,0-.3-0.3-0.4-0.3s-0.1.1-.1,0.5v7.5c0,1.7,1.6,1.1,1.6,1.5a0.16,0.16,0,0,1-.2.2c-0.5,0-.9-0.1-1.9-0.1-0.6,0-1.6.1-1.7,0.1a0.16,0.16,0,0,1-.2-0.2c0-.6,1.6.2,1.6-2.5v-6.8c0-3.8-2.2-2.7-2.2-3.4C60,92.44,60.2,92.34,60.3,92.34Zm15.1,1c-1.2,0-1.2.3-1.5,1.3-0.1.2-.1,0.4-0.3,0.4a0.22,0.22,0,0,1-.2-0.2L73.6,93c0.1-.2,0-0.7.4-0.7,1.4,0,2.9.1,5.2,0.1,3.3,0,5-.1,5.4-0.1s0.5,0.1.5,0.5l0.1,1.5c0,0.2,0,.4-0.2.4-0.6,0,.3-1.4-1.5-1.4H80.9c-0.8,0-.8-0.1-0.8.9v9.4c0,1.5,1.5.9,1.5,1.5a0.16,0.16,0,0,1-.2.2c-0.5,0-1-.1-1.5-0.1a18.61,18.61,0,0,0-2.5.1,0.16,0.16,0,0,1-.2-0.2c0-.5,1.5-0.2,1.5-1.3v-9.6c0-.1.1-0.8-0.2-0.8H75.4v-0.1Zm9.7-1c0.7,0,1.3.1,2,.1s1.2-.1,1.7-0.1c0.3,0,.3.1,0.3,0.2,0,0.3-1.3,0-1.3,1.4v4c0,0.2,0,.3.2,0.3h6.7c0.2,0,.2-0.5.2-0.5V94c0-1.3-1.4-1-1.4-1.4,0-.1.1-0.2,0.4-0.2,0.6,0,1.5.1,1.9,0.1,0.7,0,1-.1,1.3-0.1,0.5,0,.5.2,0.5,0.3,0,0.3-1.2,0-1.2,1.3v9.7c0,1.3,1.6,1,1.6,1.5a0.22,0.22,0,0,1-.2.2c-0.5,0-1.1-.1-1.8-0.1-1.2,0-1.7.1-2,.1-0.1,0-.4.1-0.4-0.2,0-.5,1.3-0.2,1.3-1.3v-4.6c0-.3.1-0.5-0.2-0.5H87.9c-0.2,0-.2.1-0.2,0.3v4.6c0,1.3,1.7.9,1.7,1.5,0,0.1-.1.1-0.3,0.1s-1.6-.1-2.5-0.1a7.88,7.88,0,0,0-1.6.1c-0.2,0-.2-0.1-0.2-0.3,0-.5,1.5.1,1.5-1.7v-9.4c0-1.3-1.6-1-1.6-1.4A0.34,0.34,0,0,1,85.1,92.34Zm19,6.5c0,0.9.1,0.9-.6,1.1l-3.7,1.3a4.12,4.12,0,0,1-.8.3c-0.3,0-.2-0.3-0.2-0.5,0-.9-0.1-0.9.6-1.2l3.7-1.3a4.12,4.12,0,0,1,.8-0.3C104.2,98.24,104.1,98.64,104.1,98.84Zm-36.4,19.8c2.8,0,2.1-2.2,2.7-2.2a0.46,0.46,0,0,1,.3.5c0,0.9-.1,1.8-0.1,2.7,0,0.7.1,1.4,0.1,2.1a0.35,0.35,0,0,1-.3.4c-0.8,0,.1-2.3-2.2-2.3h-4c-0.6,0-.5.5-0.5,0.9v4.9c0,1.6-.2,2.2,2,2.2,6.2,0,7.1-2.7,7.5-2.7a0.24,0.24,0,0,1,.2.3,4.32,4.32,0,0,1-1.3,2.6,2.92,2.92,0,0,1-2.6.9c-2,0-4.1-.1-6.1-0.1-1.1,0-2.2.1-3.3,0.1a0.39,0.39,0,0,1-.4-0.2c0.1-.3.4-0.3,1.2-0.7s0.8-1,.8-2.3v-12.2c0-1.2,0-2.5-1.4-2.7-0.2-.1-0.8-0.1-0.8-0.5,0-.2.2-0.3,0.9-0.3,5,0,6.4.1,7.6,0.1,0.5,0,3-.1,3.8-0.1q0.3,0,.3.6c0,3-.4,3.2-0.5,3.2-0.6,0-.2-1.3-0.6-1.9-0.7-.9-3.5-0.8-4.6-0.8-2.6,0-2.5-.1-2.5,1.7v5c0,0.9-.1.9,1,0.9h2.8v-0.1Zm5.9-8.7c0.5,0,.9.1,1.3,0.1s0.8-.1,1.2-0.1a1.34,1.34,0,0,1,.7.6l12.8,14.2a0.43,0.43,0,0,0,.3.3c0.1,0,.1-0.1.1-0.3v-11.2c0-3.5-3-2.5-3-3.4,0-.2.1-0.2,0.3-0.2,0.8,0,1.6.1,2.4,0.1s2.1-.1,2.7-0.1a0.22,0.22,0,0,1,.2.2c0,0.7-1.6.2-1.6,2.2v15.5c0,0.8,0,1.2-.2,1.2a1.38,1.38,0,0,1-1-.8l-11.5-13a3.17,3.17,0,0,0-.6-0.5c-0.1,0-.2.1-0.2,0.6v11c0,2.4,2.3,1.5,2.3,2.2,0,0.2,0,.4-0.3.4-0.6,0-1.4-.1-2.7-0.1-0.9,0-2.3.1-2.5,0.1-0.4,0-.4-0.1-0.4-0.3,0-.9,2.3.2,2.3-3.5v-9.9c0-5.5-3.2-4-3.2-5C73.3,110.14,73.5,109.94,73.6,109.94Zm22,1.5c-1.7,0-1.8.4-2.2,1.9-0.1.3-.1,0.6-0.5,0.6-0.2,0-.2-0.2-0.2-0.4l0.3-2.6c0-.3,0-1.1.5-1.1,2.1,0,4.1.1,7.6,0.1,4.8,0,7.3-.1,7.8-0.1a0.66,0.66,0,0,1,.8.8l0.1,2.2c0,0.2.1,0.6-.3,0.6-1,0,.5-2-2.3-2h-3.9c-1,0-1.1.1-1.1,1.3v13.6c0,2.3,2.2,1.4,2.2,2.2,0,0.1.1,0.3-.2,0.3-0.6,0-1.4-.1-2.2-0.1-3,0-3.5.1-3.7,0.1s-0.3-.1-0.3-0.4c0-.6,2.1-0.4,2.1-2v-13.9c0-.2.1-1.2-0.4-1.2H95.6v0.1Zm-43.2,22.1c0.6,0,1.2.1,1.8,0.1s1-.1,1.5-0.1c0.3,0,.3.1,0.3,0.1,0,0.4-1.2.1-1.2,1.3v3.5c0,0.2,0,.3.2,0.3h6c0.2,0,.2-0.4.2-0.5v-3.3c0-1.2-1.2-.9-1.2-1.2a0.16,0.16,0,0,1,.2-0.2c0.6,0,1.4.1,1.7,0.1,0.6,0,.9-0.1,1.2-0.1s0.4,0.1.4,0.2c0,0.3-1.1,0-1.1,1.2v8.6c0,1.2,1.5.9,1.5,1.3a0.22,0.22,0,0,1-.2.2c-0.5,0-.9-0.1-1.5-0.1-1.1,0-1.5.1-1.8,0.1s-0.4.1-.4-0.2,1.2-.1,1.2-1.2v-3.9c0-.2.1-0.4-0.2-0.4H55c-0.2,0-.2.1-0.2,0.3v4c0,1.1,1.6.8,1.6,1.3,0,0.1-.1.1-0.3,0.1s-1.4-.1-2.3-0.1a4.08,4.08,0,0,0-1.3.1,0.16,0.16,0,0,1-.2-0.2c0-.5,1.3.1,1.3-1.6v-8.3c0-1.2-1.4-.9-1.4-1.2A0.16,0.16,0,0,1,52.4,133.54Zm22.4,7v-5.3c0-1.7-1.5-1-1.5-1.6,0-.1.1-0.1,0.2-0.1,0.6,0,1.2.1,1.9,0.1,0.3,0,.6-0.1.9-0.1a0.22,0.22,0,0,1,.2.2c0,0.5-.9.1-0.9,1.6v5c0,0.8.2,4.8-4.6,4.8-4.3,0-5.1-2.4-5.1-4.9v-5.5c0-.9-1.3-0.6-1.3-1.1a0.48,0.48,0,0,1,.4-0.1c0.4,0,.8.1,1.3,0.1s1.1-.1,1.5-0.1c0.1,0,.5-0.1.5,0.1,0,0.5-1.1,0-1.1,1.2v5.8c0,2.6,1.7,3.8,3.9,3.8C74.1,144.44,74.8,142.44,74.8,140.54ZM86.9,145a2.94,2.94,0,0,1-2.5-1.8l-1.8-2.9c-0.6-.9-0.4-0.9-2.2-0.9-0.5,0-.4.3-0.4,0.5v3.4c0,1.4,1.7.9,1.7,1.5,0,0.2-.2.1-0.3,0.1a14.89,14.89,0,0,0-1.9-.1c-0.6,0-1.2.1-1.9,0.1a0.22,0.22,0,0,1-.2-0.2c0-.4,1.2-0.2,1.2-1.4V135c0-1.6-1.4-.9-1.4-1.5a0.25,0.25,0,0,1,.3-0.2,6.27,6.27,0,0,0,1.1.1c0.9,0,1.9-.1,2.7-0.1,0.3,0,3.9-.4,3.9,2.8a3.1,3.1,0,0,1-2.1,2.8l2.7,4.1c1.2,1.8,2,1.2,2,1.6C88,145,87.1,145,86.9,145Zm-2.8-8.4c0-2-1.5-2.6-3.2-2.6-0.6,0-.9-0.1-0.9.6v4.1c0,0.3,1,.2,1.8.2A2.06,2.06,0,0,0,84.1,136.64Zm14.3-2.2c0.2,0,.2.2,0.2,1.3,0,0.9.2,1.4-.1,1.4s-0.3-.4-0.4-0.5c-1-1.8-2.2-2.8-4.3-2.8-3.2,0-4.7,2.1-4.7,5.1s1.6,5.7,4.7,5.7a4.91,4.91,0,0,0,4.4-2.3l0.2-.2a0.22,0.22,0,0,1,.2.2l-0.4,1.6c0,0.1-1.2,1.3-4.8,1.3a5.49,5.49,0,0,1-5.8-5.7,5.89,5.89,0,0,1,5.9-6.1c3,0,3.9,1.3,4.4,1.3C98.2,134.64,98.3,134.44,98.4,134.44Zm-53-29.9a2.09,2.09,0,0,1-.6,1.1c-0.3,0-.5-0.8-0.7-1.2l-4.6-10.7c-0.5-1.1-1.4-.8-1.4-1.2,0-.2.1-0.2,0.3-0.2,0.5,0,1.1.1,1.7,0.1s1.2-.1,1.4-0.1a0.34,0.34,0,0,1,.3.2c0,0.2-.8.2-0.8,0.9a1.85,1.85,0,0,0,.2.7l3.2,7.6c0.4,0.9.5,1.3,0.7,1.3a1.08,1.08,0,0,0,.4-0.5l3.2-7.9a2.74,2.74,0,0,0,.2-1.3c0-.8-1.2-0.5-1.2-0.9,0-.2.1-0.2,0.3-0.2,0.4,0,.8.1,1.2,0.1,0.9,0,1.2-.1,1.5-0.1a0.25,0.25,0,0,1,.3.2c0,0.4-.5-0.1-1.1,1.2Zm-9.1.8c-1.4,0-2.8-.1-4.2-0.1-0.7,0-1.5.1-2.2,0.1a0.25,0.25,0,0,1-.3-0.2,1.45,1.45,0,0,1,.8-0.5c0.5-.2.5-0.8,0.5-1.6v-8.3c0-.8,0-1.7-1-1.9a0.6,0.6,0,0,1-.6-0.3c0-.1.1-0.2,0.6-0.2,3.5,0,4.4.1,5.2,0.1,0.4,0,2-.1,2.6-0.1,0.2,0,.2.2,0.2,0.4,0,2-.2,2.2-0.4,2.2-0.5,0-.1-0.9-0.5-1.3-0.4-.6-2.3-0.5-3.1-0.5-1.8,0-1.7-.1-1.7,1.2v3.4c0,0.6-.1.6,0.6,0.6h2c1.9,0,1.5-1.5,1.9-1.5,0.2,0,.2.2,0.2,0.4,0,0.6-.1,1.2-0.1,1.8s0.1,1,.1,1.5a0.16,0.16,0,0,1-.2.2c-0.6,0,.1-1.6-1.5-1.6H32.5c-0.4,0-.3.3-0.3,0.6V103c0,1.1-.2,1.6,1.3,1.6,4.3,0,4.9-1.9,5.1-1.9s0.1,0.2.1,0.2a3.43,3.43,0,0,1-.9,1.8C37.5,105.44,37.1,105.34,36.3,105.34Zm15.1,22.4c-0.3.7-.5,1.6-0.9,1.6s-0.8-1.2-1-1.7L42.9,112c-0.6-1.6-2.1-1.1-2.1-1.7a0.43,0.43,0,0,1,.4-0.4c0.8,0,1.6.1,2.5,0.1,0.7,0,1.8-.1,2.1-0.1a0.39,0.39,0,0,1,.4.2c0.1,0.4-1.1.4-1.1,1.4a3.59,3.59,0,0,0,.2,1.1l4.7,11c0.6,1.5.8,2,1.1,2a0.83,0.83,0,0,0,.5-0.8l4.6-11.4a3.66,3.66,0,0,0,.4-1.8c0-1.2-1.8-.8-1.8-1.3a0.37,0.37,0,0,1,.4-0.4c0.6,0,1.2.1,1.8,0.1,1.3,0,1.6-.1,2-0.1a0.4,0.4,0,0,1,.5.4c0,0.6-.8-0.1-1.5,1.7Zm-33.3-23.6-0.6-3.2c-0.1-.5,0-0.8.2-0.8,0.4,0,.4.3,0.5,0.8a5.3,5.3,0,0,0,5.1,3.7c2.3,0,4.6-1.3,4.6-3.9,0-4.7-9.9-2.1-9.9-8.5,0-3.1,2.6-4.6,5.4-4.6a8.52,8.52,0,0,1,4.1.9c0.2,0,.3-0.3.5-0.3s0.3,0.1.3,0.4l0.4,3.3a0.25,0.25,0,0,1-.2.4,0.79,0.79,0,0,1-.5-0.8,4.66,4.66,0,0,0-4.7-3.2c-1.9,0-4,.9-4,3.2,0,4.6,9.9,1.9,9.9,8.6,0,2.1-1.5,5.1-7,5.1C20.4,105.54,18.2,104.64,18.1,104.14Zm28.1,41a5.46,5.46,0,0,1-5.7-5.7,5.81,5.81,0,0,1,5.8-6.1c3,0,3.9,1.3,4.4,1.3a1.47,1.47,0,0,1,.4-0.2c0.2,0,.2.2,0.2,1.3,0,0.9.2,1.4-.1,1.4a1,1,0,0,1-.4-0.5c-1.1-1.8-2.2-2.8-4.3-2.8-3.2,0-4.7,2.1-4.7,5.1s1.6,5.7,4.7,5.7c2.6,0,4.2-1.6,4.4-2.3a0.22,0.22,0,0,1,.2-0.2c0.1,0,.1.1,0.1,0.2l-0.4,1.6C51,143.84,49.9,145.14,46.2,145.14ZM28,128.84c-0.2,0-1.6.1-2.5,0.1-1.5,0-2.3-.1-3.5-0.1-1,0-1.9.1-2.9,0.1-0.2,0-.8,0-0.8-0.3,0-.9,2.1-0.5,2.1-1.9a11.63,11.63,0,0,0-1.1-3.3l-1.2-2.9c-0.4-.8-0.5-1.3-1.5-1.3H8.8a1.54,1.54,0,0,0-1.7.8l-2.2,5a3.5,3.5,0,0,0-.3,1.2c0,2.5,2.5,1.4,2.5,2.3,0,0.6-.5.5-0.9,0.5-1,0-2-.1-3-0.1S1.3,129,.3,129a0.35,0.35,0,0,1-.3-0.4c0-.7,1.6-0.1,2.6-2.2l8.5-18c2.1-4.5,2.2-5.1,2.7-5.1s0.6,1.1.8,1.3l7.4,18.3a17.64,17.64,0,0,0,1.8,4,2.13,2.13,0,0,0,1.8,1.1c0.6,0,1.1-.7,1.1-1.9v-13.3c0-2.7-2.2-1.9-2.2-2.6,0-.2.2-0.2,0.4-0.2,0.8,0,1.6.1,2.4,0.1,1.8,0,3.5-.1,5.8-0.1,4.7,0,9.4,3.6,9.4,8.5,0,6.1-2.9,10.4-10.3,10.4C30.7,128.84,29.4,128.84,28,128.84Zm0.7-16.5V125c0,0.4-.1,1.7.2,1.9,0.9,0.9,2.9,1.2,4.1,1.2,3.8,0,7.4-2,7.4-8.2,0-6-4-9.3-9-9.3C28.8,110.64,28.7,111,28.7,112.34Zm-16-4-4,8.6c-0.2.5,0,.6,0.5,0.6h7c0.8,0,.8-0.2.6-0.7l-3.5-8.5C13.1,107.84,13,107.84,12.7,108.34Zm134.6,2.4,0.1,2.2c0,0.2.1,0.6-.3,0.6-1,0,.5-2-2.3-2h-3.9c-1.1,0-1.1.1-1.1,1.3v13.5c0,2.3,2.2,1.4,2.2,2.2,0,0.1.1,0.3-.2,0.3-0.6,0-1.4-.1-2.2-0.1-3,0-3.5.1-3.7,0.1s-0.3-.1-0.3-0.4c0-.6,2.1-0.4,2.1-2v-13.9c0-.2.1-1.2-0.4-1.2h-5.5c-1.6,0-1.6.6-1.6,1.5,0,0.3.2,1.5-.3,1.5a1.24,1.24,0,0,1-.6-0.8c-0.8-2.3-2.7-3.1-5-3.1s-4.4,1-4.4,3.5c0,5,10.9,2.1,10.9,9.5,0,2.3-1.6,5.7-7.6,5.7-2,0-4.4-1-4.6-1.5l-0.6-3.4c-0.1-.5,0-0.8.3-0.8s0.4,0.3.5,0.9a5.68,5.68,0,0,0,5.6,4c2.6,0,5-1.4,5-4.3,0-5.1-10.9-2.3-10.9-9.2,0-3.4,2.9-5,6-5a10.36,10.36,0,0,1,4.5.9c0.4,0,.5-0.7,1-0.7,2.1,0,5.1.1,8.5,0.1,4.8,0,7.3-.1,7.8-0.1C147.2,109.94,147.3,110.14,147.3,110.74Z" fill="#fff"/><path d="M69,69.44v-3.5h4.9v-0.3c0-3.5-1.6-6-12.7-4.1L43,64.74,32.6,79.34l25.2-4.5c7.5-1.3,14.2-1.6,16.2,4.4v-9.8H69Z" fill="#fff"/><path d="M77.4,79.24c0-4.7,2.8-8,8.5-13.7l4-4,18.4,3.2,10.5,14.5L94.6,75C86.5,73.54,79.6,73,77.4,79.24Z" fill="#fff"/><path d="M78.4,65.94c1.8-3.9,5.7-7.5,7.9-9.7l1.6-1.6c6.8-6.8,8.1-9.6,8.5-14.2a4.69,4.69,0,0,1,.5,1.7,16.25,16.25,0,0,1-.8,7.5c-1.4,4.1-4.7,7.4-9,11.7l-4.7,4.6h-4Z" fill="#fff"/><path d="M82.3,9.24s0.1-.1.1,0v5.4c0,4.9-6.3,10.5-8.8,13l-9.2,9.2c-3.2,3.2-9.5,9.4-6.9,15.5,0.1,0.2.2,0.4-.2,0.1-0.7-.5-1.7-2.2-2-5.3-0.5-5.5,3.3-10.5,7.9-15.1l8.8-8.8C81,14.44,81.9,12.94,82.3,9.24Z" fill="#fff"/><path d="M73.7,36.84c2.5-2.5,8.8-8.1,8.8-13v-5.4c0-.1-0.1,0-0.1,0-0.4,3.6-1.3,5.2-10.2,14.1l-8.1,8.2c-3,3-5.7,6.1-5.5,11.1,0.1,3.1,1.6,5.6,3.9,6.2,1,0.2.9,0.1,0.7,0-3.3-1.5-3-7.5,2.3-12.8Z" fill="#fff"/><path d="M63.5,28.74c-6.8,6.8-8.1,9.6-8.5,14.2a4.69,4.69,0,0,1-.5-1.7,16.25,16.25,0,0,1,.8-7.5c1.4-4.1,4.7-7.4,9-11.7l7.9-7.9C81.1,5.24,82,3.64,82.4,0c0,0,.1-0.1.1,0v5.4c0,4.9-6.3,10.5-8.8,13Z" fill="#fff"/><path d="M77.5,74.84H77.4v-5.4h2.2A12.16,12.16,0,0,0,77.5,74.84Z" fill="#fff"/><path d="M77.5,65.94H77.4v-5.5c0-4.1,4-8.5,8-12.5l2.6-2.6c2.1-2.1,8.5-8.4,5.8-14.4-0.1-.2-0.2-0.4.2-0.1,0.7,0.5,1.7,2.2,2,5.3,0.5,5.5-3.3,10.5-7.9,15.1l-2.4,2.4C79.9,59.44,77.9,62,77.5,65.94Z" fill="#fff"/><path d="M77.5,56.54H77.4V51c0-3.9,3.9-8.1,5.8-10l2.9-2.9c5.3-5.3,5.5-11.2,2.3-12.8-0.2-.1-0.3-0.2.7,0,2.3,0.6,3.9,3.1,3.9,6.2,0.1,5-2.5,8.1-5.5,11l-2.4,2.4C80.1,49.84,78,52.74,77.5,56.54Z" fill="#fff"/><path d="M119.1,68.84a2.1,2.1,0,1,1,0,4.2,2,2,0,0,1-1.6-.7A2.11,2.11,0,0,1,117,71a2.39,2.39,0,0,1,.5-1.4A1.72,1.72,0,0,1,119.1,68.84Zm0,0.2a2.11,2.11,0,0,0-1.3.5,1.66,1.66,0,0,0-.5,1.3,2.11,2.11,0,0,0,.5,1.3,1.66,1.66,0,0,0,1.3.5,2.11,2.11,0,0,0,1.3-.5,1.66,1.66,0,0,0,.5-1.3A1.71,1.71,0,0,0,119.1,69Zm0.2,1.9,0.5,0.7,0.1,0.1a0.54,0.54,0,0,0,.4.3h0.1a0.1,0.1,0,0,1,.1.1c0,0.1-.1.1-0.3,0.1a0.72,0.72,0,0,1-.6-0.4l-0.4-.7h0l-0.1-.1h-0.2v0.6a0.37,0.37,0,0,0,.1.3,0.35,0.35,0,0,0,.2.1c0.1,0,.1,0,0.1.1a0.1,0.1,0,0,1-.1.1h-0.8c-0.1,0-.1,0-0.1-0.1l0.1-.1c0.1,0,.1-0.1.2-0.1s0-.2,0-0.4v-1.4a0.25,0.25,0,0,0-.2-0.3h-0.1c-0.1,0-.1,0-0.1-0.1a0.1,0.1,0,0,1,.1-0.1h0.8c0.6,0,.8.2,0.8,0.6A1.34,1.34,0,0,1,119.3,70.94Zm-0.5-.1H119a0.4,0.4,0,0,0,.5-0.4,0.52,0.52,0,0,0-.2-0.4,0.76,0.76,0,0,0-.4-0.2c-0.1,0-.2,0-0.2.1V70l0.1,0.8c-0.1-.1-0.1,0,0,0h0Z" fill="#fff"/><path d="M150.8,106.54a2.1,2.1,0,1,1,0,4.2,2,2,0,0,1-1.6-.7,2.11,2.11,0,0,1-.5-1.3,2.39,2.39,0,0,1,.5-1.4A1.72,1.72,0,0,1,150.8,106.54Zm0,0.2a2.11,2.11,0,0,0-1.3.5,1.54,1.54,0,0,0-.5,1.3,2.11,2.11,0,0,0,.5,1.3,1.54,1.54,0,0,0,1.3.5,2.11,2.11,0,0,0,1.3-.5,1.54,1.54,0,0,0,.5-1.3,1.9,1.9,0,0,0-.5-1.3A2.11,2.11,0,0,0,150.8,106.74Zm0.2,1.8,0.5,0.7,0.1,0.1a0.54,0.54,0,0,0,.4.3h0.1a0.1,0.1,0,0,1,.1.1c0,0.1-.1.1-0.3,0.1a0.72,0.72,0,0,1-.6-0.4l-0.4-.7h0l-0.1-.1h-0.2v0.6a0.37,0.37,0,0,0,.1.3,0.35,0.35,0,0,0,.2.1c0.1,0,.1,0,0.1.1a0.1,0.1,0,0,1-.1.1h-0.8c-0.1,0-.1,0-0.1-0.1l0.1-.1c0.1,0,.1-0.1.2-0.1v-1.8a0.25,0.25,0,0,0-.2-0.3H150c-0.1,0-.1,0-0.1-0.1a0.1,0.1,0,0,1,.1-0.1h0.8c0.6,0,.8.2,0.8,0.6A1.08,1.08,0,0,1,151,108.54Zm-0.5,0h0.2a0.4,0.4,0,0,0,.5-0.4,0.52,0.52,0,0,0-.2-0.4,0.76,0.76,0,0,0-.4-0.2c-0.1,0-.2,0-0.2.1v0.1l0.1,0.8h0Z" fill="#fff"/></svg>
